%TF.GenerationSoftware,KiCad,Pcbnew,5.0.2+dfsg1-1*%
%TF.CreationDate,2020-04-12T10:59:42+02:00*%
%TF.ProjectId,fietslamp,66696574-736c-4616-9d70-2e6b69636164,rev?*%
%TF.SameCoordinates,Original*%
%TF.FileFunction,Legend,Top*%
%TF.FilePolarity,Positive*%
%FSLAX46Y46*%
G04 Gerber Fmt 4.6, Leading zero omitted, Abs format (unit mm)*
G04 Created by KiCad (PCBNEW 5.0.2+dfsg1-1) date zo 12 apr 2020 10:59:42 CEST*
%MOMM*%
%LPD*%
G01*
G04 APERTURE LIST*
%ADD10C,0.300000*%
%ADD11C,0.150000*%
G04 APERTURE END LIST*
D10*
X138763428Y-112367142D02*
X138977714Y-112438571D01*
X139334857Y-112438571D01*
X139477714Y-112367142D01*
X139549142Y-112295714D01*
X139620571Y-112152857D01*
X139620571Y-112010000D01*
X139549142Y-111867142D01*
X139477714Y-111795714D01*
X139334857Y-111724285D01*
X139049142Y-111652857D01*
X138906285Y-111581428D01*
X138834857Y-111510000D01*
X138763428Y-111367142D01*
X138763428Y-111224285D01*
X138834857Y-111081428D01*
X138906285Y-111010000D01*
X139049142Y-110938571D01*
X139406285Y-110938571D01*
X139620571Y-111010000D01*
X130635428Y-112367142D02*
X130849714Y-112438571D01*
X131206857Y-112438571D01*
X131349714Y-112367142D01*
X131421142Y-112295714D01*
X131492571Y-112152857D01*
X131492571Y-112010000D01*
X131421142Y-111867142D01*
X131349714Y-111795714D01*
X131206857Y-111724285D01*
X130921142Y-111652857D01*
X130778285Y-111581428D01*
X130706857Y-111510000D01*
X130635428Y-111367142D01*
X130635428Y-111224285D01*
X130706857Y-111081428D01*
X130778285Y-111010000D01*
X130921142Y-110938571D01*
X131278285Y-110938571D01*
X131492571Y-111010000D01*
X138620571Y-116947142D02*
X139763428Y-116947142D01*
X138620571Y-114407142D02*
X139763428Y-114407142D01*
X139192000Y-114978571D02*
X139192000Y-113835714D01*
X133020857Y-108882571D02*
X133020857Y-107382571D01*
X133592285Y-107382571D01*
X133735142Y-107454000D01*
X133806571Y-107525428D01*
X133878000Y-107668285D01*
X133878000Y-107882571D01*
X133806571Y-108025428D01*
X133735142Y-108096857D01*
X133592285Y-108168285D01*
X133020857Y-108168285D01*
X134378000Y-107382571D02*
X134735142Y-108882571D01*
X135020857Y-107811142D01*
X135306571Y-108882571D01*
X135663714Y-107382571D01*
X136235142Y-108882571D02*
X136235142Y-107382571D01*
X136735142Y-108454000D01*
X137235142Y-107382571D01*
X137235142Y-108882571D01*
X130492571Y-114407142D02*
X131635428Y-114407142D01*
X131064000Y-114978571D02*
X131064000Y-113835714D01*
X130492571Y-116947142D02*
X131635428Y-116947142D01*
X124333142Y-126758000D02*
X124190285Y-126686571D01*
X123976000Y-126686571D01*
X123761714Y-126758000D01*
X123618857Y-126900857D01*
X123547428Y-127043714D01*
X123476000Y-127329428D01*
X123476000Y-127543714D01*
X123547428Y-127829428D01*
X123618857Y-127972285D01*
X123761714Y-128115142D01*
X123976000Y-128186571D01*
X124118857Y-128186571D01*
X124333142Y-128115142D01*
X124404571Y-128043714D01*
X124404571Y-127543714D01*
X124118857Y-127543714D01*
X125047428Y-128186571D02*
X125047428Y-126686571D01*
X125904571Y-128186571D01*
X125904571Y-126686571D01*
X126618857Y-128186571D02*
X126618857Y-126686571D01*
X126976000Y-126686571D01*
X127190285Y-126758000D01*
X127333142Y-126900857D01*
X127404571Y-127043714D01*
X127476000Y-127329428D01*
X127476000Y-127543714D01*
X127404571Y-127829428D01*
X127333142Y-127972285D01*
X127190285Y-128115142D01*
X126976000Y-128186571D01*
X126618857Y-128186571D01*
X117590000Y-112649142D02*
X117661428Y-112506285D01*
X117661428Y-112292000D01*
X117590000Y-112077714D01*
X117447142Y-111934857D01*
X117304285Y-111863428D01*
X117018571Y-111792000D01*
X116804285Y-111792000D01*
X116518571Y-111863428D01*
X116375714Y-111934857D01*
X116232857Y-112077714D01*
X116161428Y-112292000D01*
X116161428Y-112434857D01*
X116232857Y-112649142D01*
X116304285Y-112720571D01*
X116804285Y-112720571D01*
X116804285Y-112434857D01*
X116161428Y-113363428D02*
X117661428Y-113363428D01*
X116161428Y-114220571D01*
X117661428Y-114220571D01*
X116161428Y-114934857D02*
X117661428Y-114934857D01*
X117661428Y-115292000D01*
X117590000Y-115506285D01*
X117447142Y-115649142D01*
X117304285Y-115720571D01*
X117018571Y-115792000D01*
X116804285Y-115792000D01*
X116518571Y-115720571D01*
X116375714Y-115649142D01*
X116232857Y-115506285D01*
X116161428Y-115292000D01*
X116161428Y-114934857D01*
X80645142Y-70878000D02*
X80502285Y-70806571D01*
X80288000Y-70806571D01*
X80073714Y-70878000D01*
X79930857Y-71020857D01*
X79859428Y-71163714D01*
X79788000Y-71449428D01*
X79788000Y-71663714D01*
X79859428Y-71949428D01*
X79930857Y-72092285D01*
X80073714Y-72235142D01*
X80288000Y-72306571D01*
X80430857Y-72306571D01*
X80645142Y-72235142D01*
X80716571Y-72163714D01*
X80716571Y-71663714D01*
X80430857Y-71663714D01*
X81359428Y-72306571D02*
X81359428Y-70806571D01*
X82216571Y-72306571D01*
X82216571Y-70806571D01*
X82930857Y-72306571D02*
X82930857Y-70806571D01*
X83288000Y-70806571D01*
X83502285Y-70878000D01*
X83645142Y-71020857D01*
X83716571Y-71163714D01*
X83788000Y-71449428D01*
X83788000Y-71663714D01*
X83716571Y-71949428D01*
X83645142Y-72092285D01*
X83502285Y-72235142D01*
X83288000Y-72306571D01*
X82930857Y-72306571D01*
X119114000Y-47625142D02*
X119185428Y-47482285D01*
X119185428Y-47268000D01*
X119114000Y-47053714D01*
X118971142Y-46910857D01*
X118828285Y-46839428D01*
X118542571Y-46768000D01*
X118328285Y-46768000D01*
X118042571Y-46839428D01*
X117899714Y-46910857D01*
X117756857Y-47053714D01*
X117685428Y-47268000D01*
X117685428Y-47410857D01*
X117756857Y-47625142D01*
X117828285Y-47696571D01*
X118328285Y-47696571D01*
X118328285Y-47410857D01*
X117685428Y-48339428D02*
X119185428Y-48339428D01*
X117685428Y-49196571D01*
X119185428Y-49196571D01*
X117685428Y-49910857D02*
X119185428Y-49910857D01*
X119185428Y-50268000D01*
X119114000Y-50482285D01*
X118971142Y-50625142D01*
X118828285Y-50696571D01*
X118542571Y-50768000D01*
X118328285Y-50768000D01*
X118042571Y-50696571D01*
X117899714Y-50625142D01*
X117756857Y-50482285D01*
X117685428Y-50268000D01*
X117685428Y-49910857D01*
X128397142Y-86626000D02*
X128254285Y-86554571D01*
X128040000Y-86554571D01*
X127825714Y-86626000D01*
X127682857Y-86768857D01*
X127611428Y-86911714D01*
X127540000Y-87197428D01*
X127540000Y-87411714D01*
X127611428Y-87697428D01*
X127682857Y-87840285D01*
X127825714Y-87983142D01*
X128040000Y-88054571D01*
X128182857Y-88054571D01*
X128397142Y-87983142D01*
X128468571Y-87911714D01*
X128468571Y-87411714D01*
X128182857Y-87411714D01*
X129111428Y-88054571D02*
X129111428Y-86554571D01*
X129968571Y-88054571D01*
X129968571Y-86554571D01*
X130682857Y-88054571D02*
X130682857Y-86554571D01*
X131040000Y-86554571D01*
X131254285Y-86626000D01*
X131397142Y-86768857D01*
X131468571Y-86911714D01*
X131540000Y-87197428D01*
X131540000Y-87411714D01*
X131468571Y-87697428D01*
X131397142Y-87840285D01*
X131254285Y-87983142D01*
X131040000Y-88054571D01*
X130682857Y-88054571D01*
X119066571Y-118875714D02*
X119423714Y-118875714D01*
X119280857Y-119232857D02*
X119423714Y-118875714D01*
X119280857Y-118518571D01*
X119709428Y-119090000D02*
X119423714Y-118875714D01*
X119709428Y-118661428D01*
X120566571Y-117090000D02*
X119852285Y-117590000D01*
X120566571Y-117947142D02*
X119066571Y-117947142D01*
X119066571Y-117375714D01*
X119138000Y-117232857D01*
X119209428Y-117161428D01*
X119352285Y-117090000D01*
X119566571Y-117090000D01*
X119709428Y-117161428D01*
X119780857Y-117232857D01*
X119852285Y-117375714D01*
X119852285Y-117947142D01*
X120495142Y-116518571D02*
X120566571Y-116304285D01*
X120566571Y-115947142D01*
X120495142Y-115804285D01*
X120423714Y-115732857D01*
X120280857Y-115661428D01*
X120138000Y-115661428D01*
X119995142Y-115732857D01*
X119923714Y-115804285D01*
X119852285Y-115947142D01*
X119780857Y-116232857D01*
X119709428Y-116375714D01*
X119638000Y-116447142D01*
X119495142Y-116518571D01*
X119352285Y-116518571D01*
X119209428Y-116447142D01*
X119138000Y-116375714D01*
X119066571Y-116232857D01*
X119066571Y-115875714D01*
X119138000Y-115661428D01*
X119066571Y-115232857D02*
X119066571Y-114375714D01*
X120566571Y-114804285D02*
X119066571Y-114804285D01*
X99056285Y-96714571D02*
X99056285Y-97071714D01*
X98699142Y-96928857D02*
X99056285Y-97071714D01*
X99413428Y-96928857D01*
X98842000Y-97357428D02*
X99056285Y-97071714D01*
X99270571Y-97357428D01*
X100842000Y-98214571D02*
X100342000Y-97500285D01*
X99984857Y-98214571D02*
X99984857Y-96714571D01*
X100556285Y-96714571D01*
X100699142Y-96786000D01*
X100770571Y-96857428D01*
X100842000Y-97000285D01*
X100842000Y-97214571D01*
X100770571Y-97357428D01*
X100699142Y-97428857D01*
X100556285Y-97500285D01*
X99984857Y-97500285D01*
X101413428Y-98143142D02*
X101627714Y-98214571D01*
X101984857Y-98214571D01*
X102127714Y-98143142D01*
X102199142Y-98071714D01*
X102270571Y-97928857D01*
X102270571Y-97786000D01*
X102199142Y-97643142D01*
X102127714Y-97571714D01*
X101984857Y-97500285D01*
X101699142Y-97428857D01*
X101556285Y-97357428D01*
X101484857Y-97286000D01*
X101413428Y-97143142D01*
X101413428Y-97000285D01*
X101484857Y-96857428D01*
X101556285Y-96786000D01*
X101699142Y-96714571D01*
X102056285Y-96714571D01*
X102270571Y-96786000D01*
X102699142Y-96714571D02*
X103556285Y-96714571D01*
X103127714Y-98214571D02*
X103127714Y-96714571D01*
X99056285Y-43882571D02*
X99056285Y-44239714D01*
X98699142Y-44096857D02*
X99056285Y-44239714D01*
X99413428Y-44096857D01*
X98842000Y-44525428D02*
X99056285Y-44239714D01*
X99270571Y-44525428D01*
X100842000Y-45382571D02*
X100342000Y-44668285D01*
X99984857Y-45382571D02*
X99984857Y-43882571D01*
X100556285Y-43882571D01*
X100699142Y-43954000D01*
X100770571Y-44025428D01*
X100842000Y-44168285D01*
X100842000Y-44382571D01*
X100770571Y-44525428D01*
X100699142Y-44596857D01*
X100556285Y-44668285D01*
X99984857Y-44668285D01*
X101413428Y-45311142D02*
X101627714Y-45382571D01*
X101984857Y-45382571D01*
X102127714Y-45311142D01*
X102199142Y-45239714D01*
X102270571Y-45096857D01*
X102270571Y-44954000D01*
X102199142Y-44811142D01*
X102127714Y-44739714D01*
X101984857Y-44668285D01*
X101699142Y-44596857D01*
X101556285Y-44525428D01*
X101484857Y-44454000D01*
X101413428Y-44311142D01*
X101413428Y-44168285D01*
X101484857Y-44025428D01*
X101556285Y-43954000D01*
X101699142Y-43882571D01*
X102056285Y-43882571D01*
X102270571Y-43954000D01*
X102699142Y-43882571D02*
X103556285Y-43882571D01*
X103127714Y-45382571D02*
X103127714Y-43882571D01*
X134425428Y-70100285D02*
X134068285Y-70100285D01*
X134211142Y-69743142D02*
X134068285Y-70100285D01*
X134211142Y-70457428D01*
X133782571Y-69886000D02*
X134068285Y-70100285D01*
X133782571Y-70314571D01*
X132925428Y-71886000D02*
X133639714Y-71386000D01*
X132925428Y-71028857D02*
X134425428Y-71028857D01*
X134425428Y-71600285D01*
X134354000Y-71743142D01*
X134282571Y-71814571D01*
X134139714Y-71886000D01*
X133925428Y-71886000D01*
X133782571Y-71814571D01*
X133711142Y-71743142D01*
X133639714Y-71600285D01*
X133639714Y-71028857D01*
X132996857Y-72457428D02*
X132925428Y-72671714D01*
X132925428Y-73028857D01*
X132996857Y-73171714D01*
X133068285Y-73243142D01*
X133211142Y-73314571D01*
X133354000Y-73314571D01*
X133496857Y-73243142D01*
X133568285Y-73171714D01*
X133639714Y-73028857D01*
X133711142Y-72743142D01*
X133782571Y-72600285D01*
X133854000Y-72528857D01*
X133996857Y-72457428D01*
X134139714Y-72457428D01*
X134282571Y-72528857D01*
X134354000Y-72600285D01*
X134425428Y-72743142D01*
X134425428Y-73100285D01*
X134354000Y-73314571D01*
X134425428Y-73743142D02*
X134425428Y-74600285D01*
X132925428Y-74171714D02*
X134425428Y-74171714D01*
X83506571Y-116700857D02*
X84720857Y-116700857D01*
X84863714Y-116629428D01*
X84935142Y-116558000D01*
X85006571Y-116415142D01*
X85006571Y-116129428D01*
X84935142Y-115986571D01*
X84863714Y-115915142D01*
X84720857Y-115843714D01*
X83506571Y-115843714D01*
X84935142Y-115200857D02*
X85006571Y-114986571D01*
X85006571Y-114629428D01*
X84935142Y-114486571D01*
X84863714Y-114415142D01*
X84720857Y-114343714D01*
X84578000Y-114343714D01*
X84435142Y-114415142D01*
X84363714Y-114486571D01*
X84292285Y-114629428D01*
X84220857Y-114915142D01*
X84149428Y-115058000D01*
X84078000Y-115129428D01*
X83935142Y-115200857D01*
X83792285Y-115200857D01*
X83649428Y-115129428D01*
X83578000Y-115058000D01*
X83506571Y-114915142D01*
X83506571Y-114558000D01*
X83578000Y-114343714D01*
X84220857Y-113200857D02*
X84292285Y-112986571D01*
X84363714Y-112915142D01*
X84506571Y-112843714D01*
X84720857Y-112843714D01*
X84863714Y-112915142D01*
X84935142Y-112986571D01*
X85006571Y-113129428D01*
X85006571Y-113700857D01*
X83506571Y-113700857D01*
X83506571Y-113200857D01*
X83578000Y-113058000D01*
X83649428Y-112986571D01*
X83792285Y-112915142D01*
X83935142Y-112915142D01*
X84078000Y-112986571D01*
X84149428Y-113058000D01*
X84220857Y-113200857D01*
X84220857Y-113700857D01*
X76878571Y-91252857D02*
X75378571Y-91252857D01*
X76450000Y-90752857D01*
X75378571Y-90252857D01*
X76878571Y-90252857D01*
X76878571Y-89538571D02*
X75878571Y-89538571D01*
X75378571Y-89538571D02*
X75450000Y-89610000D01*
X75521428Y-89538571D01*
X75450000Y-89467142D01*
X75378571Y-89538571D01*
X75521428Y-89538571D01*
X76807142Y-88181428D02*
X76878571Y-88324285D01*
X76878571Y-88610000D01*
X76807142Y-88752857D01*
X76735714Y-88824285D01*
X76592857Y-88895714D01*
X76164285Y-88895714D01*
X76021428Y-88824285D01*
X75950000Y-88752857D01*
X75878571Y-88610000D01*
X75878571Y-88324285D01*
X75950000Y-88181428D01*
X76878571Y-87538571D02*
X75878571Y-87538571D01*
X76164285Y-87538571D02*
X76021428Y-87467142D01*
X75950000Y-87395714D01*
X75878571Y-87252857D01*
X75878571Y-87110000D01*
X76878571Y-86395714D02*
X76807142Y-86538571D01*
X76735714Y-86610000D01*
X76592857Y-86681428D01*
X76164285Y-86681428D01*
X76021428Y-86610000D01*
X75950000Y-86538571D01*
X75878571Y-86395714D01*
X75878571Y-86181428D01*
X75950000Y-86038571D01*
X76021428Y-85967142D01*
X76164285Y-85895714D01*
X76592857Y-85895714D01*
X76735714Y-85967142D01*
X76807142Y-86038571D01*
X76878571Y-86181428D01*
X76878571Y-86395714D01*
X75378571Y-85252857D02*
X76592857Y-85252857D01*
X76735714Y-85181428D01*
X76807142Y-85110000D01*
X76878571Y-84967142D01*
X76878571Y-84681428D01*
X76807142Y-84538571D01*
X76735714Y-84467142D01*
X76592857Y-84395714D01*
X75378571Y-84395714D01*
X76807142Y-83752857D02*
X76878571Y-83538571D01*
X76878571Y-83181428D01*
X76807142Y-83038571D01*
X76735714Y-82967142D01*
X76592857Y-82895714D01*
X76450000Y-82895714D01*
X76307142Y-82967142D01*
X76235714Y-83038571D01*
X76164285Y-83181428D01*
X76092857Y-83467142D01*
X76021428Y-83610000D01*
X75950000Y-83681428D01*
X75807142Y-83752857D01*
X75664285Y-83752857D01*
X75521428Y-83681428D01*
X75450000Y-83610000D01*
X75378571Y-83467142D01*
X75378571Y-83110000D01*
X75450000Y-82895714D01*
X76092857Y-81752857D02*
X76164285Y-81538571D01*
X76235714Y-81467142D01*
X76378571Y-81395714D01*
X76592857Y-81395714D01*
X76735714Y-81467142D01*
X76807142Y-81538571D01*
X76878571Y-81681428D01*
X76878571Y-82252857D01*
X75378571Y-82252857D01*
X75378571Y-81752857D01*
X75450000Y-81610000D01*
X75521428Y-81538571D01*
X75664285Y-81467142D01*
X75807142Y-81467142D01*
X75950000Y-81538571D01*
X76021428Y-81610000D01*
X76092857Y-81752857D01*
X76092857Y-82252857D01*
X77635571Y-124657142D02*
X76135571Y-124657142D01*
X76135571Y-124300000D01*
X76207000Y-124085714D01*
X76349857Y-123942857D01*
X76492714Y-123871428D01*
X76778428Y-123800000D01*
X76992714Y-123800000D01*
X77278428Y-123871428D01*
X77421285Y-123942857D01*
X77564142Y-124085714D01*
X77635571Y-124300000D01*
X77635571Y-124657142D01*
X77635571Y-122942857D02*
X77564142Y-123085714D01*
X77492714Y-123157142D01*
X77349857Y-123228571D01*
X76921285Y-123228571D01*
X76778428Y-123157142D01*
X76707000Y-123085714D01*
X76635571Y-122942857D01*
X76635571Y-122728571D01*
X76707000Y-122585714D01*
X76778428Y-122514285D01*
X76921285Y-122442857D01*
X77349857Y-122442857D01*
X77492714Y-122514285D01*
X77564142Y-122585714D01*
X77635571Y-122728571D01*
X77635571Y-122942857D01*
X76635571Y-121800000D02*
X77635571Y-121800000D01*
X76778428Y-121800000D02*
X76707000Y-121728571D01*
X76635571Y-121585714D01*
X76635571Y-121371428D01*
X76707000Y-121228571D01*
X76849857Y-121157142D01*
X77635571Y-121157142D01*
X76135571Y-120371428D02*
X76421285Y-120514285D01*
X76635571Y-119942857D02*
X76635571Y-119371428D01*
X76135571Y-119728571D02*
X77421285Y-119728571D01*
X77564142Y-119657142D01*
X77635571Y-119514285D01*
X77635571Y-119371428D01*
X77635571Y-117728571D02*
X76135571Y-117728571D01*
X76135571Y-117157142D01*
X76207000Y-117014285D01*
X76278428Y-116942857D01*
X76421285Y-116871428D01*
X76635571Y-116871428D01*
X76778428Y-116942857D01*
X76849857Y-117014285D01*
X76921285Y-117157142D01*
X76921285Y-117728571D01*
X77635571Y-116014285D02*
X77564142Y-116157142D01*
X77492714Y-116228571D01*
X77349857Y-116300000D01*
X76921285Y-116300000D01*
X76778428Y-116228571D01*
X76707000Y-116157142D01*
X76635571Y-116014285D01*
X76635571Y-115800000D01*
X76707000Y-115657142D01*
X76778428Y-115585714D01*
X76921285Y-115514285D01*
X77349857Y-115514285D01*
X77492714Y-115585714D01*
X77564142Y-115657142D01*
X77635571Y-115800000D01*
X77635571Y-116014285D01*
X76635571Y-115014285D02*
X77635571Y-114728571D01*
X76921285Y-114442857D01*
X77635571Y-114157142D01*
X76635571Y-113871428D01*
X77564142Y-112728571D02*
X77635571Y-112871428D01*
X77635571Y-113157142D01*
X77564142Y-113300000D01*
X77421285Y-113371428D01*
X76849857Y-113371428D01*
X76707000Y-113300000D01*
X76635571Y-113157142D01*
X76635571Y-112871428D01*
X76707000Y-112728571D01*
X76849857Y-112657142D01*
X76992714Y-112657142D01*
X77135571Y-113371428D01*
X77635571Y-112014285D02*
X76635571Y-112014285D01*
X76921285Y-112014285D02*
X76778428Y-111942857D01*
X76707000Y-111871428D01*
X76635571Y-111728571D01*
X76635571Y-111585714D01*
X76849857Y-109442857D02*
X76849857Y-109942857D01*
X77635571Y-109942857D02*
X76135571Y-109942857D01*
X76135571Y-109228571D01*
X77635571Y-108657142D02*
X76635571Y-108657142D01*
X76921285Y-108657142D02*
X76778428Y-108585714D01*
X76707000Y-108514285D01*
X76635571Y-108371428D01*
X76635571Y-108228571D01*
X77635571Y-107514285D02*
X77564142Y-107657142D01*
X77492714Y-107728571D01*
X77349857Y-107800000D01*
X76921285Y-107800000D01*
X76778428Y-107728571D01*
X76707000Y-107657142D01*
X76635571Y-107514285D01*
X76635571Y-107300000D01*
X76707000Y-107157142D01*
X76778428Y-107085714D01*
X76921285Y-107014285D01*
X77349857Y-107014285D01*
X77492714Y-107085714D01*
X77564142Y-107157142D01*
X77635571Y-107300000D01*
X77635571Y-107514285D01*
X77635571Y-106371428D02*
X76635571Y-106371428D01*
X76778428Y-106371428D02*
X76707000Y-106300000D01*
X76635571Y-106157142D01*
X76635571Y-105942857D01*
X76707000Y-105800000D01*
X76849857Y-105728571D01*
X77635571Y-105728571D01*
X76849857Y-105728571D02*
X76707000Y-105657142D01*
X76635571Y-105514285D01*
X76635571Y-105300000D01*
X76707000Y-105157142D01*
X76849857Y-105085714D01*
X77635571Y-105085714D01*
X79757000Y-121942857D02*
X79757000Y-121228571D01*
X80185571Y-122085714D02*
X78685571Y-121585714D01*
X80185571Y-121085714D01*
X80185571Y-120585714D02*
X79185571Y-120585714D01*
X79471285Y-120585714D02*
X79328428Y-120514285D01*
X79257000Y-120442857D01*
X79185571Y-120300000D01*
X79185571Y-120157142D01*
X80185571Y-119014285D02*
X78685571Y-119014285D01*
X80114142Y-119014285D02*
X80185571Y-119157142D01*
X80185571Y-119442857D01*
X80114142Y-119585714D01*
X80042714Y-119657142D01*
X79899857Y-119728571D01*
X79471285Y-119728571D01*
X79328428Y-119657142D01*
X79257000Y-119585714D01*
X79185571Y-119442857D01*
X79185571Y-119157142D01*
X79257000Y-119014285D01*
X79185571Y-117657142D02*
X80185571Y-117657142D01*
X79185571Y-118300000D02*
X79971285Y-118300000D01*
X80114142Y-118228571D01*
X80185571Y-118085714D01*
X80185571Y-117871428D01*
X80114142Y-117728571D01*
X80042714Y-117657142D01*
X80185571Y-116942857D02*
X79185571Y-116942857D01*
X78685571Y-116942857D02*
X78757000Y-117014285D01*
X78828428Y-116942857D01*
X78757000Y-116871428D01*
X78685571Y-116942857D01*
X78828428Y-116942857D01*
X79185571Y-116228571D02*
X80185571Y-116228571D01*
X79328428Y-116228571D02*
X79257000Y-116157142D01*
X79185571Y-116014285D01*
X79185571Y-115800000D01*
X79257000Y-115657142D01*
X79399857Y-115585714D01*
X80185571Y-115585714D01*
X80185571Y-114657142D02*
X80114142Y-114800000D01*
X80042714Y-114871428D01*
X79899857Y-114942857D01*
X79471285Y-114942857D01*
X79328428Y-114871428D01*
X79257000Y-114800000D01*
X79185571Y-114657142D01*
X79185571Y-114442857D01*
X79257000Y-114300000D01*
X79328428Y-114228571D01*
X79471285Y-114157142D01*
X79899857Y-114157142D01*
X80042714Y-114228571D01*
X80114142Y-114300000D01*
X80185571Y-114442857D01*
X80185571Y-114657142D01*
X80185571Y-112371428D02*
X78685571Y-112371428D01*
X80185571Y-111514285D01*
X78685571Y-111514285D01*
X80185571Y-110157142D02*
X79399857Y-110157142D01*
X79257000Y-110228571D01*
X79185571Y-110371428D01*
X79185571Y-110657142D01*
X79257000Y-110800000D01*
X80114142Y-110157142D02*
X80185571Y-110300000D01*
X80185571Y-110657142D01*
X80114142Y-110800000D01*
X79971285Y-110871428D01*
X79828428Y-110871428D01*
X79685571Y-110800000D01*
X79614142Y-110657142D01*
X79614142Y-110300000D01*
X79542714Y-110157142D01*
X79185571Y-109442857D02*
X80185571Y-109442857D01*
X79328428Y-109442857D02*
X79257000Y-109371428D01*
X79185571Y-109228571D01*
X79185571Y-109014285D01*
X79257000Y-108871428D01*
X79399857Y-108800000D01*
X80185571Y-108800000D01*
X80185571Y-107871428D02*
X80114142Y-108014285D01*
X80042714Y-108085714D01*
X79899857Y-108157142D01*
X79471285Y-108157142D01*
X79328428Y-108085714D01*
X79257000Y-108014285D01*
X79185571Y-107871428D01*
X79185571Y-107657142D01*
X79257000Y-107514285D01*
X79328428Y-107442857D01*
X79471285Y-107371428D01*
X79899857Y-107371428D01*
X80042714Y-107442857D01*
X80114142Y-107514285D01*
X80185571Y-107657142D01*
X80185571Y-107871428D01*
X80042714Y-106728571D02*
X80114142Y-106657142D01*
X80185571Y-106728571D01*
X80114142Y-106800000D01*
X80042714Y-106728571D01*
X80185571Y-106728571D01*
X79614142Y-106728571D02*
X78757000Y-106800000D01*
X78685571Y-106728571D01*
X78757000Y-106657142D01*
X79614142Y-106728571D01*
X78685571Y-106728571D01*
X83749142Y-85993857D02*
X84249142Y-85993857D01*
X84463428Y-86779571D02*
X83749142Y-86779571D01*
X83749142Y-85279571D01*
X84463428Y-85279571D01*
X85034857Y-86708142D02*
X85249142Y-86779571D01*
X85606285Y-86779571D01*
X85749142Y-86708142D01*
X85820571Y-86636714D01*
X85892000Y-86493857D01*
X85892000Y-86351000D01*
X85820571Y-86208142D01*
X85749142Y-86136714D01*
X85606285Y-86065285D01*
X85320571Y-85993857D01*
X85177714Y-85922428D01*
X85106285Y-85851000D01*
X85034857Y-85708142D01*
X85034857Y-85565285D01*
X85106285Y-85422428D01*
X85177714Y-85351000D01*
X85320571Y-85279571D01*
X85677714Y-85279571D01*
X85892000Y-85351000D01*
X86534857Y-86779571D02*
X86534857Y-85279571D01*
X87106285Y-85279571D01*
X87249142Y-85351000D01*
X87320571Y-85422428D01*
X87392000Y-85565285D01*
X87392000Y-85779571D01*
X87320571Y-85922428D01*
X87249142Y-85993857D01*
X87106285Y-86065285D01*
X86534857Y-86065285D01*
X88249142Y-85922428D02*
X88106285Y-85851000D01*
X88034857Y-85779571D01*
X87963428Y-85636714D01*
X87963428Y-85565285D01*
X88034857Y-85422428D01*
X88106285Y-85351000D01*
X88249142Y-85279571D01*
X88534857Y-85279571D01*
X88677714Y-85351000D01*
X88749142Y-85422428D01*
X88820571Y-85565285D01*
X88820571Y-85636714D01*
X88749142Y-85779571D01*
X88677714Y-85851000D01*
X88534857Y-85922428D01*
X88249142Y-85922428D01*
X88106285Y-85993857D01*
X88034857Y-86065285D01*
X87963428Y-86208142D01*
X87963428Y-86493857D01*
X88034857Y-86636714D01*
X88106285Y-86708142D01*
X88249142Y-86779571D01*
X88534857Y-86779571D01*
X88677714Y-86708142D01*
X88749142Y-86636714D01*
X88820571Y-86493857D01*
X88820571Y-86208142D01*
X88749142Y-86065285D01*
X88677714Y-85993857D01*
X88534857Y-85922428D01*
X89392000Y-85422428D02*
X89463428Y-85351000D01*
X89606285Y-85279571D01*
X89963428Y-85279571D01*
X90106285Y-85351000D01*
X90177714Y-85422428D01*
X90249142Y-85565285D01*
X90249142Y-85708142D01*
X90177714Y-85922428D01*
X89320571Y-86779571D01*
X90249142Y-86779571D01*
X91534857Y-85279571D02*
X91249142Y-85279571D01*
X91106285Y-85351000D01*
X91034857Y-85422428D01*
X90892000Y-85636714D01*
X90820571Y-85922428D01*
X90820571Y-86493857D01*
X90892000Y-86636714D01*
X90963428Y-86708142D01*
X91106285Y-86779571D01*
X91392000Y-86779571D01*
X91534857Y-86708142D01*
X91606285Y-86636714D01*
X91677714Y-86493857D01*
X91677714Y-86136714D01*
X91606285Y-85993857D01*
X91534857Y-85922428D01*
X91392000Y-85851000D01*
X91106285Y-85851000D01*
X90963428Y-85922428D01*
X90892000Y-85993857D01*
X90820571Y-86136714D01*
X92963428Y-85279571D02*
X92677714Y-85279571D01*
X92534857Y-85351000D01*
X92463428Y-85422428D01*
X92320571Y-85636714D01*
X92249142Y-85922428D01*
X92249142Y-86493857D01*
X92320571Y-86636714D01*
X92392000Y-86708142D01*
X92534857Y-86779571D01*
X92820571Y-86779571D01*
X92963428Y-86708142D01*
X93034857Y-86636714D01*
X93106285Y-86493857D01*
X93106285Y-86136714D01*
X93034857Y-85993857D01*
X92963428Y-85922428D01*
X92820571Y-85851000D01*
X92534857Y-85851000D01*
X92392000Y-85922428D01*
X92320571Y-85993857D01*
X92249142Y-86136714D01*
X79713428Y-87829571D02*
X80070571Y-89329571D01*
X80356285Y-88258142D01*
X80642000Y-89329571D01*
X80999142Y-87829571D01*
X81570571Y-88543857D02*
X82070571Y-88543857D01*
X82284857Y-89329571D02*
X81570571Y-89329571D01*
X81570571Y-87829571D01*
X82284857Y-87829571D01*
X82927714Y-89329571D02*
X82927714Y-87829571D01*
X83427714Y-88901000D01*
X83927714Y-87829571D01*
X83927714Y-89329571D01*
X84927714Y-87829571D02*
X85213428Y-87829571D01*
X85356285Y-87901000D01*
X85499142Y-88043857D01*
X85570571Y-88329571D01*
X85570571Y-88829571D01*
X85499142Y-89115285D01*
X85356285Y-89258142D01*
X85213428Y-89329571D01*
X84927714Y-89329571D01*
X84784857Y-89258142D01*
X84642000Y-89115285D01*
X84570571Y-88829571D01*
X84570571Y-88329571D01*
X84642000Y-88043857D01*
X84784857Y-87901000D01*
X84927714Y-87829571D01*
X86142000Y-89258142D02*
X86356285Y-89329571D01*
X86713428Y-89329571D01*
X86856285Y-89258142D01*
X86927714Y-89186714D01*
X86999142Y-89043857D01*
X86999142Y-88901000D01*
X86927714Y-88758142D01*
X86856285Y-88686714D01*
X86713428Y-88615285D01*
X86427714Y-88543857D01*
X86284857Y-88472428D01*
X86213428Y-88401000D01*
X86142000Y-88258142D01*
X86142000Y-88115285D01*
X86213428Y-87972428D01*
X86284857Y-87901000D01*
X86427714Y-87829571D01*
X86784857Y-87829571D01*
X86999142Y-87901000D01*
X88784857Y-89329571D02*
X88784857Y-87829571D01*
X89142000Y-87829571D01*
X89356285Y-87901000D01*
X89499142Y-88043857D01*
X89570571Y-88186714D01*
X89642000Y-88472428D01*
X89642000Y-88686714D01*
X89570571Y-88972428D01*
X89499142Y-89115285D01*
X89356285Y-89258142D01*
X89142000Y-89329571D01*
X88784857Y-89329571D01*
X91070571Y-89329571D02*
X90213428Y-89329571D01*
X90642000Y-89329571D02*
X90642000Y-87829571D01*
X90499142Y-88043857D01*
X90356285Y-88186714D01*
X90213428Y-88258142D01*
X92856285Y-89329571D02*
X92856285Y-88329571D01*
X92856285Y-88472428D02*
X92927714Y-88401000D01*
X93070571Y-88329571D01*
X93284857Y-88329571D01*
X93427714Y-88401000D01*
X93499142Y-88543857D01*
X93499142Y-89329571D01*
X93499142Y-88543857D02*
X93570571Y-88401000D01*
X93713428Y-88329571D01*
X93927714Y-88329571D01*
X94070571Y-88401000D01*
X94142000Y-88543857D01*
X94142000Y-89329571D01*
X94856285Y-89329571D02*
X94856285Y-88329571D01*
X94856285Y-87829571D02*
X94784857Y-87901000D01*
X94856285Y-87972428D01*
X94927714Y-87901000D01*
X94856285Y-87829571D01*
X94856285Y-87972428D01*
X95570571Y-88329571D02*
X95570571Y-89329571D01*
X95570571Y-88472428D02*
X95642000Y-88401000D01*
X95784857Y-88329571D01*
X95999142Y-88329571D01*
X96142000Y-88401000D01*
X96213428Y-88543857D01*
X96213428Y-89329571D01*
X96927714Y-89329571D02*
X96927714Y-88329571D01*
X96927714Y-87829571D02*
X96856285Y-87901000D01*
X96927714Y-87972428D01*
X96999142Y-87901000D01*
X96927714Y-87829571D01*
X96927714Y-87972428D01*
X121289428Y-54799571D02*
X121646571Y-56299571D01*
X121932285Y-55228142D01*
X122218000Y-56299571D01*
X122575142Y-54799571D01*
X123146571Y-55513857D02*
X123646571Y-55513857D01*
X123860857Y-56299571D02*
X123146571Y-56299571D01*
X123146571Y-54799571D01*
X123860857Y-54799571D01*
X124503714Y-56299571D02*
X124503714Y-54799571D01*
X125003714Y-55871000D01*
X125503714Y-54799571D01*
X125503714Y-56299571D01*
X126503714Y-54799571D02*
X126789428Y-54799571D01*
X126932285Y-54871000D01*
X127075142Y-55013857D01*
X127146571Y-55299571D01*
X127146571Y-55799571D01*
X127075142Y-56085285D01*
X126932285Y-56228142D01*
X126789428Y-56299571D01*
X126503714Y-56299571D01*
X126360857Y-56228142D01*
X126218000Y-56085285D01*
X126146571Y-55799571D01*
X126146571Y-55299571D01*
X126218000Y-55013857D01*
X126360857Y-54871000D01*
X126503714Y-54799571D01*
X127718000Y-56228142D02*
X127932285Y-56299571D01*
X128289428Y-56299571D01*
X128432285Y-56228142D01*
X128503714Y-56156714D01*
X128575142Y-56013857D01*
X128575142Y-55871000D01*
X128503714Y-55728142D01*
X128432285Y-55656714D01*
X128289428Y-55585285D01*
X128003714Y-55513857D01*
X127860857Y-55442428D01*
X127789428Y-55371000D01*
X127718000Y-55228142D01*
X127718000Y-55085285D01*
X127789428Y-54942428D01*
X127860857Y-54871000D01*
X128003714Y-54799571D01*
X128360857Y-54799571D01*
X128575142Y-54871000D01*
X121789428Y-58849571D02*
X121789428Y-57349571D01*
X122146571Y-57349571D01*
X122360857Y-57421000D01*
X122503714Y-57563857D01*
X122575142Y-57706714D01*
X122646571Y-57992428D01*
X122646571Y-58206714D01*
X122575142Y-58492428D01*
X122503714Y-58635285D01*
X122360857Y-58778142D01*
X122146571Y-58849571D01*
X121789428Y-58849571D01*
X123289428Y-58849571D02*
X123289428Y-57349571D01*
X123289428Y-58063857D02*
X124146571Y-58063857D01*
X124146571Y-58849571D02*
X124146571Y-57349571D01*
X124646571Y-57349571D02*
X125503714Y-57349571D01*
X125075142Y-58849571D02*
X125075142Y-57349571D01*
X126789428Y-58849571D02*
X125932285Y-58849571D01*
X126360857Y-58849571D02*
X126360857Y-57349571D01*
X126218000Y-57563857D01*
X126075142Y-57706714D01*
X125932285Y-57778142D01*
X128218000Y-58849571D02*
X127360857Y-58849571D01*
X127789428Y-58849571D02*
X127789428Y-57349571D01*
X127646571Y-57563857D01*
X127503714Y-57706714D01*
X127360857Y-57778142D01*
X84713428Y-54291571D02*
X85070571Y-55791571D01*
X85356285Y-54720142D01*
X85642000Y-55791571D01*
X85999142Y-54291571D01*
X86570571Y-55005857D02*
X87070571Y-55005857D01*
X87284857Y-55791571D02*
X86570571Y-55791571D01*
X86570571Y-54291571D01*
X87284857Y-54291571D01*
X87927714Y-55791571D02*
X87927714Y-54291571D01*
X88427714Y-55363000D01*
X88927714Y-54291571D01*
X88927714Y-55791571D01*
X89927714Y-54291571D02*
X90213428Y-54291571D01*
X90356285Y-54363000D01*
X90499142Y-54505857D01*
X90570571Y-54791571D01*
X90570571Y-55291571D01*
X90499142Y-55577285D01*
X90356285Y-55720142D01*
X90213428Y-55791571D01*
X89927714Y-55791571D01*
X89784857Y-55720142D01*
X89642000Y-55577285D01*
X89570571Y-55291571D01*
X89570571Y-54791571D01*
X89642000Y-54505857D01*
X89784857Y-54363000D01*
X89927714Y-54291571D01*
X91142000Y-55720142D02*
X91356285Y-55791571D01*
X91713428Y-55791571D01*
X91856285Y-55720142D01*
X91927714Y-55648714D01*
X91999142Y-55505857D01*
X91999142Y-55363000D01*
X91927714Y-55220142D01*
X91856285Y-55148714D01*
X91713428Y-55077285D01*
X91427714Y-55005857D01*
X91284857Y-54934428D01*
X91213428Y-54863000D01*
X91142000Y-54720142D01*
X91142000Y-54577285D01*
X91213428Y-54434428D01*
X91284857Y-54363000D01*
X91427714Y-54291571D01*
X91784857Y-54291571D01*
X91999142Y-54363000D01*
X80820571Y-56841571D02*
X81177714Y-58341571D01*
X81463428Y-57270142D01*
X81749142Y-58341571D01*
X82106285Y-56841571D01*
X82606285Y-58270142D02*
X82820571Y-58341571D01*
X83177714Y-58341571D01*
X83320571Y-58270142D01*
X83392000Y-58198714D01*
X83463428Y-58055857D01*
X83463428Y-57913000D01*
X83392000Y-57770142D01*
X83320571Y-57698714D01*
X83177714Y-57627285D01*
X82892000Y-57555857D01*
X82749142Y-57484428D01*
X82677714Y-57413000D01*
X82606285Y-57270142D01*
X82606285Y-57127285D01*
X82677714Y-56984428D01*
X82749142Y-56913000D01*
X82892000Y-56841571D01*
X83249142Y-56841571D01*
X83463428Y-56913000D01*
X84034857Y-56984428D02*
X84106285Y-56913000D01*
X84249142Y-56841571D01*
X84606285Y-56841571D01*
X84749142Y-56913000D01*
X84820571Y-56984428D01*
X84892000Y-57127285D01*
X84892000Y-57270142D01*
X84820571Y-57484428D01*
X83963428Y-58341571D01*
X84892000Y-58341571D01*
X85749142Y-57484428D02*
X85606285Y-57413000D01*
X85534857Y-57341571D01*
X85463428Y-57198714D01*
X85463428Y-57127285D01*
X85534857Y-56984428D01*
X85606285Y-56913000D01*
X85749142Y-56841571D01*
X86034857Y-56841571D01*
X86177714Y-56913000D01*
X86249142Y-56984428D01*
X86320571Y-57127285D01*
X86320571Y-57198714D01*
X86249142Y-57341571D01*
X86177714Y-57413000D01*
X86034857Y-57484428D01*
X85749142Y-57484428D01*
X85606285Y-57555857D01*
X85534857Y-57627285D01*
X85463428Y-57770142D01*
X85463428Y-58055857D01*
X85534857Y-58198714D01*
X85606285Y-58270142D01*
X85749142Y-58341571D01*
X86034857Y-58341571D01*
X86177714Y-58270142D01*
X86249142Y-58198714D01*
X86320571Y-58055857D01*
X86320571Y-57770142D01*
X86249142Y-57627285D01*
X86177714Y-57555857D01*
X86034857Y-57484428D01*
X87749142Y-58341571D02*
X86892000Y-58341571D01*
X87320571Y-58341571D02*
X87320571Y-56841571D01*
X87177714Y-57055857D01*
X87034857Y-57198714D01*
X86892000Y-57270142D01*
X88320571Y-56984428D02*
X88392000Y-56913000D01*
X88534857Y-56841571D01*
X88892000Y-56841571D01*
X89034857Y-56913000D01*
X89106285Y-56984428D01*
X89177714Y-57127285D01*
X89177714Y-57270142D01*
X89106285Y-57484428D01*
X88249142Y-58341571D01*
X89177714Y-58341571D01*
X90320571Y-57555857D02*
X90534857Y-57627285D01*
X90606285Y-57698714D01*
X90677714Y-57841571D01*
X90677714Y-58055857D01*
X90606285Y-58198714D01*
X90534857Y-58270142D01*
X90392000Y-58341571D01*
X89820571Y-58341571D01*
X89820571Y-56841571D01*
X90320571Y-56841571D01*
X90463428Y-56913000D01*
X90534857Y-56984428D01*
X90606285Y-57127285D01*
X90606285Y-57270142D01*
X90534857Y-57413000D01*
X90463428Y-57484428D01*
X90320571Y-57555857D01*
X89820571Y-57555857D01*
X93177714Y-58341571D02*
X92463428Y-58341571D01*
X92463428Y-56841571D01*
X93677714Y-57555857D02*
X94177714Y-57555857D01*
X94392000Y-58341571D02*
X93677714Y-58341571D01*
X93677714Y-56841571D01*
X94392000Y-56841571D01*
X95034857Y-58341571D02*
X95034857Y-56841571D01*
X95392000Y-56841571D01*
X95606285Y-56913000D01*
X95749142Y-57055857D01*
X95820571Y-57198714D01*
X95892000Y-57484428D01*
X95892000Y-57698714D01*
X95820571Y-57984428D01*
X95749142Y-58127285D01*
X95606285Y-58270142D01*
X95392000Y-58341571D01*
X95034857Y-58341571D01*
X98886285Y-115566000D02*
X99600571Y-115566000D01*
X98743428Y-115994571D02*
X99243428Y-114494571D01*
X99743428Y-115994571D01*
X100243428Y-115994571D02*
X100243428Y-114994571D01*
X100243428Y-115280285D02*
X100314857Y-115137428D01*
X100386285Y-115066000D01*
X100529142Y-114994571D01*
X100672000Y-114994571D01*
X101814857Y-115994571D02*
X101814857Y-114494571D01*
X101814857Y-115923142D02*
X101672000Y-115994571D01*
X101386285Y-115994571D01*
X101243428Y-115923142D01*
X101172000Y-115851714D01*
X101100571Y-115708857D01*
X101100571Y-115280285D01*
X101172000Y-115137428D01*
X101243428Y-115066000D01*
X101386285Y-114994571D01*
X101672000Y-114994571D01*
X101814857Y-115066000D01*
X103172000Y-114994571D02*
X103172000Y-115994571D01*
X102529142Y-114994571D02*
X102529142Y-115780285D01*
X102600571Y-115923142D01*
X102743428Y-115994571D01*
X102957714Y-115994571D01*
X103100571Y-115923142D01*
X103172000Y-115851714D01*
X103886285Y-115994571D02*
X103886285Y-114994571D01*
X103886285Y-114494571D02*
X103814857Y-114566000D01*
X103886285Y-114637428D01*
X103957714Y-114566000D01*
X103886285Y-114494571D01*
X103886285Y-114637428D01*
X104600571Y-114994571D02*
X104600571Y-115994571D01*
X104600571Y-115137428D02*
X104672000Y-115066000D01*
X104814857Y-114994571D01*
X105029142Y-114994571D01*
X105172000Y-115066000D01*
X105243428Y-115208857D01*
X105243428Y-115994571D01*
X106172000Y-115994571D02*
X106029142Y-115923142D01*
X105957714Y-115851714D01*
X105886285Y-115708857D01*
X105886285Y-115280285D01*
X105957714Y-115137428D01*
X106029142Y-115066000D01*
X106172000Y-114994571D01*
X106386285Y-114994571D01*
X106529142Y-115066000D01*
X106600571Y-115137428D01*
X106672000Y-115280285D01*
X106672000Y-115708857D01*
X106600571Y-115851714D01*
X106529142Y-115923142D01*
X106386285Y-115994571D01*
X106172000Y-115994571D01*
X108457714Y-115994571D02*
X108457714Y-114494571D01*
X109314857Y-115994571D01*
X109314857Y-114494571D01*
X110672000Y-115994571D02*
X110672000Y-115208857D01*
X110600571Y-115066000D01*
X110457714Y-114994571D01*
X110172000Y-114994571D01*
X110029142Y-115066000D01*
X110672000Y-115923142D02*
X110529142Y-115994571D01*
X110172000Y-115994571D01*
X110029142Y-115923142D01*
X109957714Y-115780285D01*
X109957714Y-115637428D01*
X110029142Y-115494571D01*
X110172000Y-115423142D01*
X110529142Y-115423142D01*
X110672000Y-115351714D01*
X111386285Y-114994571D02*
X111386285Y-115994571D01*
X111386285Y-115137428D02*
X111457714Y-115066000D01*
X111600571Y-114994571D01*
X111814857Y-114994571D01*
X111957714Y-115066000D01*
X112029142Y-115208857D01*
X112029142Y-115994571D01*
X112957714Y-115994571D02*
X112814857Y-115923142D01*
X112743428Y-115851714D01*
X112672000Y-115708857D01*
X112672000Y-115280285D01*
X112743428Y-115137428D01*
X112814857Y-115066000D01*
X112957714Y-114994571D01*
X113172000Y-114994571D01*
X113314857Y-115066000D01*
X113386285Y-115137428D01*
X113457714Y-115280285D01*
X113457714Y-115708857D01*
X113386285Y-115851714D01*
X113314857Y-115923142D01*
X113172000Y-115994571D01*
X112957714Y-115994571D01*
X101942000Y-138810571D02*
X101656285Y-138810571D01*
X101513428Y-138882000D01*
X101442000Y-138953428D01*
X101299142Y-139167714D01*
X101227714Y-139453428D01*
X101227714Y-140024857D01*
X101299142Y-140167714D01*
X101370571Y-140239142D01*
X101513428Y-140310571D01*
X101799142Y-140310571D01*
X101942000Y-140239142D01*
X102013428Y-140167714D01*
X102084857Y-140024857D01*
X102084857Y-139667714D01*
X102013428Y-139524857D01*
X101942000Y-139453428D01*
X101799142Y-139382000D01*
X101513428Y-139382000D01*
X101370571Y-139453428D01*
X101299142Y-139524857D01*
X101227714Y-139667714D01*
X103370571Y-138810571D02*
X103084857Y-138810571D01*
X102942000Y-138882000D01*
X102870571Y-138953428D01*
X102727714Y-139167714D01*
X102656285Y-139453428D01*
X102656285Y-140024857D01*
X102727714Y-140167714D01*
X102799142Y-140239142D01*
X102942000Y-140310571D01*
X103227714Y-140310571D01*
X103370571Y-140239142D01*
X103442000Y-140167714D01*
X103513428Y-140024857D01*
X103513428Y-139667714D01*
X103442000Y-139524857D01*
X103370571Y-139453428D01*
X103227714Y-139382000D01*
X102942000Y-139382000D01*
X102799142Y-139453428D01*
X102727714Y-139524857D01*
X102656285Y-139667714D01*
X104227714Y-140239142D02*
X104227714Y-140310571D01*
X104156285Y-140453428D01*
X104084857Y-140524857D01*
X105584857Y-138810571D02*
X104870571Y-138810571D01*
X104799142Y-139524857D01*
X104870571Y-139453428D01*
X105013428Y-139382000D01*
X105370571Y-139382000D01*
X105513428Y-139453428D01*
X105584857Y-139524857D01*
X105656285Y-139667714D01*
X105656285Y-140024857D01*
X105584857Y-140167714D01*
X105513428Y-140239142D01*
X105370571Y-140310571D01*
X105013428Y-140310571D01*
X104870571Y-140239142D01*
X104799142Y-140167714D01*
X106942000Y-139310571D02*
X106942000Y-140310571D01*
X106584857Y-138739142D02*
X106227714Y-139810571D01*
X107156285Y-139810571D01*
X107942000Y-139453428D02*
X107799142Y-139382000D01*
X107727714Y-139310571D01*
X107656285Y-139167714D01*
X107656285Y-139096285D01*
X107727714Y-138953428D01*
X107799142Y-138882000D01*
X107942000Y-138810571D01*
X108227714Y-138810571D01*
X108370571Y-138882000D01*
X108442000Y-138953428D01*
X108513428Y-139096285D01*
X108513428Y-139167714D01*
X108442000Y-139310571D01*
X108370571Y-139382000D01*
X108227714Y-139453428D01*
X107942000Y-139453428D01*
X107799142Y-139524857D01*
X107727714Y-139596285D01*
X107656285Y-139739142D01*
X107656285Y-140024857D01*
X107727714Y-140167714D01*
X107799142Y-140239142D01*
X107942000Y-140310571D01*
X108227714Y-140310571D01*
X108370571Y-140239142D01*
X108442000Y-140167714D01*
X108513428Y-140024857D01*
X108513428Y-139739142D01*
X108442000Y-139596285D01*
X108370571Y-139524857D01*
X108227714Y-139453428D01*
X110299142Y-140310571D02*
X110299142Y-139310571D01*
X110299142Y-139453428D02*
X110370571Y-139382000D01*
X110513428Y-139310571D01*
X110727714Y-139310571D01*
X110870571Y-139382000D01*
X110942000Y-139524857D01*
X110942000Y-140310571D01*
X110942000Y-139524857D02*
X111013428Y-139382000D01*
X111156285Y-139310571D01*
X111370571Y-139310571D01*
X111513428Y-139382000D01*
X111584857Y-139524857D01*
X111584857Y-140310571D01*
X112299142Y-140310571D02*
X112299142Y-139310571D01*
X112299142Y-139453428D02*
X112370571Y-139382000D01*
X112513428Y-139310571D01*
X112727714Y-139310571D01*
X112870571Y-139382000D01*
X112942000Y-139524857D01*
X112942000Y-140310571D01*
X112942000Y-139524857D02*
X113013428Y-139382000D01*
X113156285Y-139310571D01*
X113370571Y-139310571D01*
X113513428Y-139382000D01*
X113584857Y-139524857D01*
X113584857Y-140310571D01*
X74168000Y-137532000D02*
X140716000Y-137532000D01*
X74168000Y-129032000D02*
X74168000Y-138118421D01*
X140716000Y-129032000D02*
X140716000Y-138118421D01*
X140716000Y-137532000D02*
X139589496Y-138118421D01*
X140716000Y-137532000D02*
X139589496Y-136945579D01*
X74168000Y-137532000D02*
X75294504Y-138118421D01*
X74168000Y-137532000D02*
X75294504Y-136945579D01*
X151744571Y-79415428D02*
X151816000Y-79272571D01*
X151887428Y-79201142D01*
X152030285Y-79129714D01*
X152101714Y-79129714D01*
X152244571Y-79201142D01*
X152316000Y-79272571D01*
X152387428Y-79415428D01*
X152387428Y-79701142D01*
X152316000Y-79844000D01*
X152244571Y-79915428D01*
X152101714Y-79986857D01*
X152030285Y-79986857D01*
X151887428Y-79915428D01*
X151816000Y-79844000D01*
X151744571Y-79701142D01*
X151744571Y-79415428D01*
X151673142Y-79272571D01*
X151601714Y-79201142D01*
X151458857Y-79129714D01*
X151173142Y-79129714D01*
X151030285Y-79201142D01*
X150958857Y-79272571D01*
X150887428Y-79415428D01*
X150887428Y-79701142D01*
X150958857Y-79844000D01*
X151030285Y-79915428D01*
X151173142Y-79986857D01*
X151458857Y-79986857D01*
X151601714Y-79915428D01*
X151673142Y-79844000D01*
X151744571Y-79701142D01*
X152387428Y-80486857D02*
X152387428Y-81486857D01*
X150887428Y-80844000D01*
X150958857Y-82129714D02*
X150887428Y-82129714D01*
X150744571Y-82058285D01*
X150673142Y-81986857D01*
X152387428Y-82629714D02*
X152387428Y-83558285D01*
X151816000Y-83058285D01*
X151816000Y-83272571D01*
X151744571Y-83415428D01*
X151673142Y-83486857D01*
X151530285Y-83558285D01*
X151173142Y-83558285D01*
X151030285Y-83486857D01*
X150958857Y-83415428D01*
X150887428Y-83272571D01*
X150887428Y-82844000D01*
X150958857Y-82701142D01*
X151030285Y-82629714D01*
X152387428Y-84058285D02*
X152387428Y-85058285D01*
X150887428Y-84415428D01*
X152387428Y-86272571D02*
X152387428Y-85986857D01*
X152316000Y-85844000D01*
X152244571Y-85772571D01*
X152030285Y-85629714D01*
X151744571Y-85558285D01*
X151173142Y-85558285D01*
X151030285Y-85629714D01*
X150958857Y-85701142D01*
X150887428Y-85844000D01*
X150887428Y-86129714D01*
X150958857Y-86272571D01*
X151030285Y-86344000D01*
X151173142Y-86415428D01*
X151530285Y-86415428D01*
X151673142Y-86344000D01*
X151744571Y-86272571D01*
X151816000Y-86129714D01*
X151816000Y-85844000D01*
X151744571Y-85701142D01*
X151673142Y-85629714D01*
X151530285Y-85558285D01*
X150887428Y-88201142D02*
X151887428Y-88201142D01*
X151744571Y-88201142D02*
X151816000Y-88272571D01*
X151887428Y-88415428D01*
X151887428Y-88629714D01*
X151816000Y-88772571D01*
X151673142Y-88844000D01*
X150887428Y-88844000D01*
X151673142Y-88844000D02*
X151816000Y-88915428D01*
X151887428Y-89058285D01*
X151887428Y-89272571D01*
X151816000Y-89415428D01*
X151673142Y-89486857D01*
X150887428Y-89486857D01*
X150887428Y-90201142D02*
X151887428Y-90201142D01*
X151744571Y-90201142D02*
X151816000Y-90272571D01*
X151887428Y-90415428D01*
X151887428Y-90629714D01*
X151816000Y-90772571D01*
X151673142Y-90844000D01*
X150887428Y-90844000D01*
X151673142Y-90844000D02*
X151816000Y-90915428D01*
X151887428Y-91058285D01*
X151887428Y-91272571D01*
X151816000Y-91415428D01*
X151673142Y-91486857D01*
X150887428Y-91486857D01*
X149466000Y-41656000D02*
X149466000Y-129032000D01*
X140716000Y-41656000D02*
X150052421Y-41656000D01*
X140716000Y-129032000D02*
X150052421Y-129032000D01*
X149466000Y-129032000D02*
X148879579Y-127905496D01*
X149466000Y-129032000D02*
X150052421Y-127905496D01*
X149466000Y-41656000D02*
X148879579Y-42782504D01*
X149466000Y-41656000D02*
X150052421Y-42782504D01*
X115316571Y-87626000D02*
X116030857Y-87626000D01*
X115173714Y-88054571D02*
X115673714Y-86554571D01*
X116173714Y-88054571D01*
X116673714Y-88054571D02*
X116673714Y-86554571D01*
X117030857Y-86554571D01*
X117245142Y-86626000D01*
X117388000Y-86768857D01*
X117459428Y-86911714D01*
X117530857Y-87197428D01*
X117530857Y-87411714D01*
X117459428Y-87697428D01*
X117388000Y-87840285D01*
X117245142Y-87983142D01*
X117030857Y-88054571D01*
X116673714Y-88054571D01*
X118030857Y-86554571D02*
X119030857Y-88054571D01*
X119030857Y-86554571D02*
X118030857Y-88054571D01*
X120316571Y-88054571D02*
X119602285Y-88054571D01*
X119602285Y-86554571D01*
X120673714Y-86554571D02*
X121602285Y-86554571D01*
X121102285Y-87126000D01*
X121316571Y-87126000D01*
X121459428Y-87197428D01*
X121530857Y-87268857D01*
X121602285Y-87411714D01*
X121602285Y-87768857D01*
X121530857Y-87911714D01*
X121459428Y-87983142D01*
X121316571Y-88054571D01*
X120888000Y-88054571D01*
X120745142Y-87983142D01*
X120673714Y-87911714D01*
X122888000Y-87054571D02*
X122888000Y-88054571D01*
X122530857Y-86483142D02*
X122173714Y-87554571D01*
X123102285Y-87554571D01*
X124388000Y-86554571D02*
X123673714Y-86554571D01*
X123602285Y-87268857D01*
X123673714Y-87197428D01*
X123816571Y-87126000D01*
X124173714Y-87126000D01*
X124316571Y-87197428D01*
X124388000Y-87268857D01*
X124459428Y-87411714D01*
X124459428Y-87768857D01*
X124388000Y-87911714D01*
X124316571Y-87983142D01*
X124173714Y-88054571D01*
X123816571Y-88054571D01*
X123673714Y-87983142D01*
X123602285Y-87911714D01*
D11*
X74168000Y-41656000D02*
X140716000Y-41656000D01*
X74168000Y-129032000D02*
X74168000Y-41656000D01*
X140716000Y-129032000D02*
X74168000Y-129032000D01*
X140716000Y-41656000D02*
X140716000Y-129032000D01*
X132588000Y-115570000D02*
X132588000Y-118110000D01*
X132588000Y-118110000D02*
X137668000Y-118110000D01*
X137668000Y-118110000D02*
X137668000Y-115570000D01*
X137668000Y-115570000D02*
X132588000Y-115570000D01*
X133223000Y-119380000D02*
X134493000Y-119380000D01*
X134493000Y-119380000D02*
X133858000Y-118110000D01*
X133223000Y-119380000D02*
X133858000Y-118110000D01*
X132588000Y-113030000D02*
X132588000Y-115570000D01*
X132588000Y-115570000D02*
X137668000Y-115570000D01*
X137668000Y-115570000D02*
X137668000Y-113030000D01*
X137668000Y-113030000D02*
X132588000Y-113030000D01*
X133223000Y-116840000D02*
X134493000Y-116840000D01*
X134493000Y-116840000D02*
X133858000Y-115570000D01*
X133223000Y-116840000D02*
X133858000Y-115570000D01*
X133604000Y-81407000D02*
X134874000Y-82042000D01*
X133604000Y-82677000D02*
X134874000Y-82042000D01*
X133604000Y-81407000D02*
X133604000Y-82677000D01*
X137414000Y-80772000D02*
X134874000Y-80772000D01*
X78475000Y-77428000D02*
X79110000Y-76158000D01*
X79745000Y-77428000D02*
X79110000Y-76158000D01*
X78475000Y-77428000D02*
X79745000Y-77428000D01*
X98160000Y-73618000D02*
X77840000Y-73618000D01*
X98160000Y-76158000D02*
X98160000Y-73618000D01*
X77840000Y-76158000D02*
X98160000Y-76158000D01*
X77840000Y-73618000D02*
X77840000Y-76158000D01*
X115475000Y-47428000D02*
X116110000Y-46158000D01*
X116745000Y-47428000D02*
X116110000Y-46158000D01*
X115475000Y-47428000D02*
X116745000Y-47428000D01*
X135160000Y-43618000D02*
X114840000Y-43618000D01*
X135160000Y-46158000D02*
X135160000Y-43618000D01*
X114840000Y-46158000D02*
X135160000Y-46158000D01*
X114840000Y-43618000D02*
X114840000Y-46158000D01*
X77840000Y-96478000D02*
X77840000Y-99018000D01*
X77840000Y-99018000D02*
X98160000Y-99018000D01*
X98160000Y-99018000D02*
X98160000Y-96478000D01*
X98160000Y-96478000D02*
X77840000Y-96478000D01*
X78475000Y-100288000D02*
X79745000Y-100288000D01*
X79745000Y-100288000D02*
X79110000Y-99018000D01*
X78475000Y-100288000D02*
X79110000Y-99018000D01*
X114840000Y-66478000D02*
X114840000Y-69018000D01*
X114840000Y-69018000D02*
X135160000Y-69018000D01*
X135160000Y-69018000D02*
X135160000Y-66478000D01*
X135160000Y-66478000D02*
X114840000Y-66478000D01*
X115475000Y-70288000D02*
X116745000Y-70288000D01*
X116745000Y-70288000D02*
X116110000Y-69018000D01*
X115475000Y-70288000D02*
X116110000Y-69018000D01*
X78475000Y-70288000D02*
X79110000Y-69018000D01*
X79745000Y-70288000D02*
X79110000Y-69018000D01*
X78475000Y-70288000D02*
X79745000Y-70288000D01*
X98160000Y-66478000D02*
X77840000Y-66478000D01*
X98160000Y-69018000D02*
X98160000Y-66478000D01*
X77840000Y-69018000D02*
X98160000Y-69018000D01*
X77840000Y-66478000D02*
X77840000Y-69018000D01*
X77840000Y-43618000D02*
X77840000Y-46158000D01*
X77840000Y-46158000D02*
X98160000Y-46158000D01*
X98160000Y-46158000D02*
X98160000Y-43618000D01*
X98160000Y-43618000D02*
X77840000Y-43618000D01*
X78475000Y-47428000D02*
X79745000Y-47428000D01*
X79745000Y-47428000D02*
X79110000Y-46158000D01*
X78475000Y-47428000D02*
X79110000Y-46158000D01*
X112014000Y-80772000D02*
X109474000Y-80772000D01*
X108204000Y-81407000D02*
X108204000Y-82677000D01*
X108204000Y-82677000D02*
X109474000Y-82042000D01*
X108204000Y-81407000D02*
X109474000Y-82042000D01*
X133223000Y-114300000D02*
X133858000Y-113030000D01*
X134493000Y-114300000D02*
X133858000Y-113030000D01*
X133223000Y-114300000D02*
X134493000Y-114300000D01*
X137668000Y-110490000D02*
X132588000Y-110490000D01*
X137668000Y-113030000D02*
X137668000Y-110490000D01*
X132588000Y-113030000D02*
X137668000Y-113030000D01*
X132588000Y-110490000D02*
X132588000Y-113030000D01*
X132933000Y-115915000D02*
X132933000Y-117765000D01*
X134783000Y-117765000D01*
X134783000Y-115915000D01*
X132933000Y-115915000D01*
X135473000Y-116840000D02*
X135473000Y-116840000D01*
X137323000Y-116840000D02*
X137323000Y-116840000D01*
X135473000Y-116840000D02*
G75*
G03X137323000Y-116840000I925000J0D01*
G01*
X137323000Y-116840000D02*
G75*
G03X135473000Y-116840000I-925000J0D01*
G01*
X132933000Y-113375000D02*
X132933000Y-115225000D01*
X134783000Y-115225000D01*
X134783000Y-113375000D01*
X132933000Y-113375000D01*
X135473000Y-114300000D02*
X135473000Y-114300000D01*
X137323000Y-114300000D02*
X137323000Y-114300000D01*
X135473000Y-114300000D02*
G75*
G03X137323000Y-114300000I925000J0D01*
G01*
X137323000Y-114300000D02*
G75*
G03X135473000Y-114300000I-925000J0D01*
G01*
X123785000Y-121757000D02*
X123785000Y-123607000D01*
X125135000Y-123607000D01*
X125135000Y-121757000D01*
X123785000Y-121757000D01*
X122595000Y-122932000D02*
X122595000Y-122432000D01*
X121245000Y-122932000D02*
X121245000Y-122432000D01*
X122595000Y-122432000D02*
G75*
G03X121245000Y-122432000I-675000J0D01*
G01*
X121245000Y-122932000D02*
G75*
G03X122595000Y-122932000I675000J0D01*
G01*
X120055000Y-122932000D02*
X120055000Y-122432000D01*
X118705000Y-122932000D02*
X118705000Y-122432000D01*
X120055000Y-122432000D02*
G75*
G03X118705000Y-122432000I-675000J0D01*
G01*
X118705000Y-122932000D02*
G75*
G03X120055000Y-122932000I675000J0D01*
G01*
X117515000Y-122932000D02*
X117515000Y-122432000D01*
X116165000Y-122932000D02*
X116165000Y-122432000D01*
X117515000Y-122432000D02*
G75*
G03X116165000Y-122432000I-675000J0D01*
G01*
X116165000Y-122932000D02*
G75*
G03X117515000Y-122932000I675000J0D01*
G01*
X114975000Y-122932000D02*
X114975000Y-122432000D01*
X113625000Y-122932000D02*
X113625000Y-122432000D01*
X114975000Y-122432000D02*
G75*
G03X113625000Y-122432000I-675000J0D01*
G01*
X113625000Y-122932000D02*
G75*
G03X114975000Y-122932000I675000J0D01*
G01*
X112435000Y-122932000D02*
X112435000Y-122432000D01*
X111085000Y-122932000D02*
X111085000Y-122432000D01*
X112435000Y-122432000D02*
G75*
G03X111085000Y-122432000I-675000J0D01*
G01*
X111085000Y-122932000D02*
G75*
G03X112435000Y-122932000I675000J0D01*
G01*
X109895000Y-122932000D02*
X109895000Y-122432000D01*
X108545000Y-122932000D02*
X108545000Y-122432000D01*
X109895000Y-122432000D02*
G75*
G03X108545000Y-122432000I-675000J0D01*
G01*
X108545000Y-122932000D02*
G75*
G03X109895000Y-122932000I675000J0D01*
G01*
X107355000Y-122932000D02*
X107355000Y-122432000D01*
X106005000Y-122932000D02*
X106005000Y-122432000D01*
X107355000Y-122432000D02*
G75*
G03X106005000Y-122432000I-675000J0D01*
G01*
X106005000Y-122932000D02*
G75*
G03X107355000Y-122932000I675000J0D01*
G01*
X104815000Y-122932000D02*
X104815000Y-122432000D01*
X103465000Y-122932000D02*
X103465000Y-122432000D01*
X104815000Y-122432000D02*
G75*
G03X103465000Y-122432000I-675000J0D01*
G01*
X103465000Y-122932000D02*
G75*
G03X104815000Y-122932000I675000J0D01*
G01*
X102275000Y-122932000D02*
X102275000Y-122432000D01*
X100925000Y-122932000D02*
X100925000Y-122432000D01*
X102275000Y-122432000D02*
G75*
G03X100925000Y-122432000I-675000J0D01*
G01*
X100925000Y-122932000D02*
G75*
G03X102275000Y-122932000I675000J0D01*
G01*
X99735000Y-122932000D02*
X99735000Y-122432000D01*
X98385000Y-122932000D02*
X98385000Y-122432000D01*
X99735000Y-122432000D02*
G75*
G03X98385000Y-122432000I-675000J0D01*
G01*
X98385000Y-122932000D02*
G75*
G03X99735000Y-122932000I675000J0D01*
G01*
X97195000Y-122932000D02*
X97195000Y-122432000D01*
X95845000Y-122932000D02*
X95845000Y-122432000D01*
X97195000Y-122432000D02*
G75*
G03X95845000Y-122432000I-675000J0D01*
G01*
X95845000Y-122932000D02*
G75*
G03X97195000Y-122932000I675000J0D01*
G01*
X94655000Y-122932000D02*
X94655000Y-122432000D01*
X93305000Y-122932000D02*
X93305000Y-122432000D01*
X94655000Y-122432000D02*
G75*
G03X93305000Y-122432000I-675000J0D01*
G01*
X93305000Y-122932000D02*
G75*
G03X94655000Y-122932000I675000J0D01*
G01*
X92115000Y-122932000D02*
X92115000Y-122432000D01*
X90765000Y-122932000D02*
X90765000Y-122432000D01*
X92115000Y-122432000D02*
G75*
G03X90765000Y-122432000I-675000J0D01*
G01*
X90765000Y-122932000D02*
G75*
G03X92115000Y-122932000I675000J0D01*
G01*
X89575000Y-122932000D02*
X89575000Y-122432000D01*
X88225000Y-122932000D02*
X88225000Y-122432000D01*
X89575000Y-122432000D02*
G75*
G03X88225000Y-122432000I-675000J0D01*
G01*
X88225000Y-122932000D02*
G75*
G03X89575000Y-122932000I675000J0D01*
G01*
X87035000Y-122932000D02*
X87035000Y-122432000D01*
X85685000Y-122932000D02*
X85685000Y-122432000D01*
X87035000Y-122432000D02*
G75*
G03X85685000Y-122432000I-675000J0D01*
G01*
X85685000Y-122932000D02*
G75*
G03X87035000Y-122932000I675000J0D01*
G01*
X136394000Y-94067000D02*
X135894000Y-94067000D01*
X136394000Y-95417000D02*
X135894000Y-95417000D01*
X135894000Y-94067000D02*
G75*
G03X135894000Y-95417000I0J-675000D01*
G01*
X136394000Y-95417000D02*
G75*
G03X136394000Y-94067000I0J675000D01*
G01*
X136394000Y-91527000D02*
X135894000Y-91527000D01*
X136394000Y-92877000D02*
X135894000Y-92877000D01*
X135894000Y-91527000D02*
G75*
G03X135894000Y-92877000I0J-675000D01*
G01*
X136394000Y-92877000D02*
G75*
G03X136394000Y-91527000I0J675000D01*
G01*
X136394000Y-88987000D02*
X135894000Y-88987000D01*
X136394000Y-90337000D02*
X135894000Y-90337000D01*
X135894000Y-88987000D02*
G75*
G03X135894000Y-90337000I0J-675000D01*
G01*
X136394000Y-90337000D02*
G75*
G03X136394000Y-88987000I0J675000D01*
G01*
X136394000Y-86447000D02*
X135894000Y-86447000D01*
X136394000Y-87797000D02*
X135894000Y-87797000D01*
X135894000Y-86447000D02*
G75*
G03X135894000Y-87797000I0J-675000D01*
G01*
X136394000Y-87797000D02*
G75*
G03X136394000Y-86447000I0J675000D01*
G01*
X136394000Y-83907000D02*
X135894000Y-83907000D01*
X136394000Y-85257000D02*
X135894000Y-85257000D01*
X135894000Y-83907000D02*
G75*
G03X135894000Y-85257000I0J-675000D01*
G01*
X136394000Y-85257000D02*
G75*
G03X136394000Y-83907000I0J675000D01*
G01*
X135219000Y-81367000D02*
X135219000Y-82717000D01*
X137069000Y-82717000D01*
X137069000Y-81367000D01*
X135219000Y-81367000D01*
X96215000Y-74638000D02*
X96215000Y-75138000D01*
X97565000Y-74638000D02*
X97565000Y-75138000D01*
X96215000Y-75138000D02*
G75*
G03X97565000Y-75138000I675000J0D01*
G01*
X97565000Y-74638000D02*
G75*
G03X96215000Y-74638000I-675000J0D01*
G01*
X93675000Y-74638000D02*
X93675000Y-75138000D01*
X95025000Y-74638000D02*
X95025000Y-75138000D01*
X93675000Y-75138000D02*
G75*
G03X95025000Y-75138000I675000J0D01*
G01*
X95025000Y-74638000D02*
G75*
G03X93675000Y-74638000I-675000J0D01*
G01*
X91135000Y-74638000D02*
X91135000Y-75138000D01*
X92485000Y-74638000D02*
X92485000Y-75138000D01*
X91135000Y-75138000D02*
G75*
G03X92485000Y-75138000I675000J0D01*
G01*
X92485000Y-74638000D02*
G75*
G03X91135000Y-74638000I-675000J0D01*
G01*
X88595000Y-74638000D02*
X88595000Y-75138000D01*
X89945000Y-74638000D02*
X89945000Y-75138000D01*
X88595000Y-75138000D02*
G75*
G03X89945000Y-75138000I675000J0D01*
G01*
X89945000Y-74638000D02*
G75*
G03X88595000Y-74638000I-675000J0D01*
G01*
X86055000Y-74638000D02*
X86055000Y-75138000D01*
X87405000Y-74638000D02*
X87405000Y-75138000D01*
X86055000Y-75138000D02*
G75*
G03X87405000Y-75138000I675000J0D01*
G01*
X87405000Y-74638000D02*
G75*
G03X86055000Y-74638000I-675000J0D01*
G01*
X83515000Y-74638000D02*
X83515000Y-75138000D01*
X84865000Y-74638000D02*
X84865000Y-75138000D01*
X83515000Y-75138000D02*
G75*
G03X84865000Y-75138000I675000J0D01*
G01*
X84865000Y-74638000D02*
G75*
G03X83515000Y-74638000I-675000J0D01*
G01*
X80975000Y-74638000D02*
X80975000Y-75138000D01*
X82325000Y-74638000D02*
X82325000Y-75138000D01*
X80975000Y-75138000D02*
G75*
G03X82325000Y-75138000I675000J0D01*
G01*
X82325000Y-74638000D02*
G75*
G03X80975000Y-74638000I-675000J0D01*
G01*
X78435000Y-73963000D02*
X78435000Y-75813000D01*
X79785000Y-75813000D01*
X79785000Y-73963000D01*
X78435000Y-73963000D01*
X133215000Y-44638000D02*
X133215000Y-45138000D01*
X134565000Y-44638000D02*
X134565000Y-45138000D01*
X133215000Y-45138000D02*
G75*
G03X134565000Y-45138000I675000J0D01*
G01*
X134565000Y-44638000D02*
G75*
G03X133215000Y-44638000I-675000J0D01*
G01*
X130675000Y-44638000D02*
X130675000Y-45138000D01*
X132025000Y-44638000D02*
X132025000Y-45138000D01*
X130675000Y-45138000D02*
G75*
G03X132025000Y-45138000I675000J0D01*
G01*
X132025000Y-44638000D02*
G75*
G03X130675000Y-44638000I-675000J0D01*
G01*
X128135000Y-44638000D02*
X128135000Y-45138000D01*
X129485000Y-44638000D02*
X129485000Y-45138000D01*
X128135000Y-45138000D02*
G75*
G03X129485000Y-45138000I675000J0D01*
G01*
X129485000Y-44638000D02*
G75*
G03X128135000Y-44638000I-675000J0D01*
G01*
X125595000Y-44638000D02*
X125595000Y-45138000D01*
X126945000Y-44638000D02*
X126945000Y-45138000D01*
X125595000Y-45138000D02*
G75*
G03X126945000Y-45138000I675000J0D01*
G01*
X126945000Y-44638000D02*
G75*
G03X125595000Y-44638000I-675000J0D01*
G01*
X123055000Y-44638000D02*
X123055000Y-45138000D01*
X124405000Y-44638000D02*
X124405000Y-45138000D01*
X123055000Y-45138000D02*
G75*
G03X124405000Y-45138000I675000J0D01*
G01*
X124405000Y-44638000D02*
G75*
G03X123055000Y-44638000I-675000J0D01*
G01*
X120515000Y-44638000D02*
X120515000Y-45138000D01*
X121865000Y-44638000D02*
X121865000Y-45138000D01*
X120515000Y-45138000D02*
G75*
G03X121865000Y-45138000I675000J0D01*
G01*
X121865000Y-44638000D02*
G75*
G03X120515000Y-44638000I-675000J0D01*
G01*
X117975000Y-44638000D02*
X117975000Y-45138000D01*
X119325000Y-44638000D02*
X119325000Y-45138000D01*
X117975000Y-45138000D02*
G75*
G03X119325000Y-45138000I675000J0D01*
G01*
X119325000Y-44638000D02*
G75*
G03X117975000Y-44638000I-675000J0D01*
G01*
X115435000Y-43963000D02*
X115435000Y-45813000D01*
X116785000Y-45813000D01*
X116785000Y-43963000D01*
X115435000Y-43963000D01*
X78435000Y-96823000D02*
X78435000Y-98673000D01*
X79785000Y-98673000D01*
X79785000Y-96823000D01*
X78435000Y-96823000D01*
X80975000Y-97498000D02*
X80975000Y-97998000D01*
X82325000Y-97498000D02*
X82325000Y-97998000D01*
X80975000Y-97998000D02*
G75*
G03X82325000Y-97998000I675000J0D01*
G01*
X82325000Y-97498000D02*
G75*
G03X80975000Y-97498000I-675000J0D01*
G01*
X83515000Y-97498000D02*
X83515000Y-97998000D01*
X84865000Y-97498000D02*
X84865000Y-97998000D01*
X83515000Y-97998000D02*
G75*
G03X84865000Y-97998000I675000J0D01*
G01*
X84865000Y-97498000D02*
G75*
G03X83515000Y-97498000I-675000J0D01*
G01*
X86055000Y-97498000D02*
X86055000Y-97998000D01*
X87405000Y-97498000D02*
X87405000Y-97998000D01*
X86055000Y-97998000D02*
G75*
G03X87405000Y-97998000I675000J0D01*
G01*
X87405000Y-97498000D02*
G75*
G03X86055000Y-97498000I-675000J0D01*
G01*
X88595000Y-97498000D02*
X88595000Y-97998000D01*
X89945000Y-97498000D02*
X89945000Y-97998000D01*
X88595000Y-97998000D02*
G75*
G03X89945000Y-97998000I675000J0D01*
G01*
X89945000Y-97498000D02*
G75*
G03X88595000Y-97498000I-675000J0D01*
G01*
X91135000Y-97498000D02*
X91135000Y-97998000D01*
X92485000Y-97498000D02*
X92485000Y-97998000D01*
X91135000Y-97998000D02*
G75*
G03X92485000Y-97998000I675000J0D01*
G01*
X92485000Y-97498000D02*
G75*
G03X91135000Y-97498000I-675000J0D01*
G01*
X93675000Y-97498000D02*
X93675000Y-97998000D01*
X95025000Y-97498000D02*
X95025000Y-97998000D01*
X93675000Y-97998000D02*
G75*
G03X95025000Y-97998000I675000J0D01*
G01*
X95025000Y-97498000D02*
G75*
G03X93675000Y-97498000I-675000J0D01*
G01*
X96215000Y-97498000D02*
X96215000Y-97998000D01*
X97565000Y-97498000D02*
X97565000Y-97998000D01*
X96215000Y-97998000D02*
G75*
G03X97565000Y-97998000I675000J0D01*
G01*
X97565000Y-97498000D02*
G75*
G03X96215000Y-97498000I-675000J0D01*
G01*
X115435000Y-66823000D02*
X115435000Y-68673000D01*
X116785000Y-68673000D01*
X116785000Y-66823000D01*
X115435000Y-66823000D01*
X117975000Y-67498000D02*
X117975000Y-67998000D01*
X119325000Y-67498000D02*
X119325000Y-67998000D01*
X117975000Y-67998000D02*
G75*
G03X119325000Y-67998000I675000J0D01*
G01*
X119325000Y-67498000D02*
G75*
G03X117975000Y-67498000I-675000J0D01*
G01*
X120515000Y-67498000D02*
X120515000Y-67998000D01*
X121865000Y-67498000D02*
X121865000Y-67998000D01*
X120515000Y-67998000D02*
G75*
G03X121865000Y-67998000I675000J0D01*
G01*
X121865000Y-67498000D02*
G75*
G03X120515000Y-67498000I-675000J0D01*
G01*
X123055000Y-67498000D02*
X123055000Y-67998000D01*
X124405000Y-67498000D02*
X124405000Y-67998000D01*
X123055000Y-67998000D02*
G75*
G03X124405000Y-67998000I675000J0D01*
G01*
X124405000Y-67498000D02*
G75*
G03X123055000Y-67498000I-675000J0D01*
G01*
X125595000Y-67498000D02*
X125595000Y-67998000D01*
X126945000Y-67498000D02*
X126945000Y-67998000D01*
X125595000Y-67998000D02*
G75*
G03X126945000Y-67998000I675000J0D01*
G01*
X126945000Y-67498000D02*
G75*
G03X125595000Y-67498000I-675000J0D01*
G01*
X128135000Y-67498000D02*
X128135000Y-67998000D01*
X129485000Y-67498000D02*
X129485000Y-67998000D01*
X128135000Y-67998000D02*
G75*
G03X129485000Y-67998000I675000J0D01*
G01*
X129485000Y-67498000D02*
G75*
G03X128135000Y-67498000I-675000J0D01*
G01*
X130675000Y-67498000D02*
X130675000Y-67998000D01*
X132025000Y-67498000D02*
X132025000Y-67998000D01*
X130675000Y-67998000D02*
G75*
G03X132025000Y-67998000I675000J0D01*
G01*
X132025000Y-67498000D02*
G75*
G03X130675000Y-67498000I-675000J0D01*
G01*
X133215000Y-67498000D02*
X133215000Y-67998000D01*
X134565000Y-67498000D02*
X134565000Y-67998000D01*
X133215000Y-67998000D02*
G75*
G03X134565000Y-67998000I675000J0D01*
G01*
X134565000Y-67498000D02*
G75*
G03X133215000Y-67498000I-675000J0D01*
G01*
X96215000Y-67498000D02*
X96215000Y-67998000D01*
X97565000Y-67498000D02*
X97565000Y-67998000D01*
X96215000Y-67998000D02*
G75*
G03X97565000Y-67998000I675000J0D01*
G01*
X97565000Y-67498000D02*
G75*
G03X96215000Y-67498000I-675000J0D01*
G01*
X93675000Y-67498000D02*
X93675000Y-67998000D01*
X95025000Y-67498000D02*
X95025000Y-67998000D01*
X93675000Y-67998000D02*
G75*
G03X95025000Y-67998000I675000J0D01*
G01*
X95025000Y-67498000D02*
G75*
G03X93675000Y-67498000I-675000J0D01*
G01*
X91135000Y-67498000D02*
X91135000Y-67998000D01*
X92485000Y-67498000D02*
X92485000Y-67998000D01*
X91135000Y-67998000D02*
G75*
G03X92485000Y-67998000I675000J0D01*
G01*
X92485000Y-67498000D02*
G75*
G03X91135000Y-67498000I-675000J0D01*
G01*
X88595000Y-67498000D02*
X88595000Y-67998000D01*
X89945000Y-67498000D02*
X89945000Y-67998000D01*
X88595000Y-67998000D02*
G75*
G03X89945000Y-67998000I675000J0D01*
G01*
X89945000Y-67498000D02*
G75*
G03X88595000Y-67498000I-675000J0D01*
G01*
X86055000Y-67498000D02*
X86055000Y-67998000D01*
X87405000Y-67498000D02*
X87405000Y-67998000D01*
X86055000Y-67998000D02*
G75*
G03X87405000Y-67998000I675000J0D01*
G01*
X87405000Y-67498000D02*
G75*
G03X86055000Y-67498000I-675000J0D01*
G01*
X83515000Y-67498000D02*
X83515000Y-67998000D01*
X84865000Y-67498000D02*
X84865000Y-67998000D01*
X83515000Y-67998000D02*
G75*
G03X84865000Y-67998000I675000J0D01*
G01*
X84865000Y-67498000D02*
G75*
G03X83515000Y-67498000I-675000J0D01*
G01*
X80975000Y-67498000D02*
X80975000Y-67998000D01*
X82325000Y-67498000D02*
X82325000Y-67998000D01*
X80975000Y-67998000D02*
G75*
G03X82325000Y-67998000I675000J0D01*
G01*
X82325000Y-67498000D02*
G75*
G03X80975000Y-67498000I-675000J0D01*
G01*
X78435000Y-66823000D02*
X78435000Y-68673000D01*
X79785000Y-68673000D01*
X79785000Y-66823000D01*
X78435000Y-66823000D01*
X78435000Y-43963000D02*
X78435000Y-45813000D01*
X79785000Y-45813000D01*
X79785000Y-43963000D01*
X78435000Y-43963000D01*
X80975000Y-44638000D02*
X80975000Y-45138000D01*
X82325000Y-44638000D02*
X82325000Y-45138000D01*
X80975000Y-45138000D02*
G75*
G03X82325000Y-45138000I675000J0D01*
G01*
X82325000Y-44638000D02*
G75*
G03X80975000Y-44638000I-675000J0D01*
G01*
X83515000Y-44638000D02*
X83515000Y-45138000D01*
X84865000Y-44638000D02*
X84865000Y-45138000D01*
X83515000Y-45138000D02*
G75*
G03X84865000Y-45138000I675000J0D01*
G01*
X84865000Y-44638000D02*
G75*
G03X83515000Y-44638000I-675000J0D01*
G01*
X86055000Y-44638000D02*
X86055000Y-45138000D01*
X87405000Y-44638000D02*
X87405000Y-45138000D01*
X86055000Y-45138000D02*
G75*
G03X87405000Y-45138000I675000J0D01*
G01*
X87405000Y-44638000D02*
G75*
G03X86055000Y-44638000I-675000J0D01*
G01*
X88595000Y-44638000D02*
X88595000Y-45138000D01*
X89945000Y-44638000D02*
X89945000Y-45138000D01*
X88595000Y-45138000D02*
G75*
G03X89945000Y-45138000I675000J0D01*
G01*
X89945000Y-44638000D02*
G75*
G03X88595000Y-44638000I-675000J0D01*
G01*
X91135000Y-44638000D02*
X91135000Y-45138000D01*
X92485000Y-44638000D02*
X92485000Y-45138000D01*
X91135000Y-45138000D02*
G75*
G03X92485000Y-45138000I675000J0D01*
G01*
X92485000Y-44638000D02*
G75*
G03X91135000Y-44638000I-675000J0D01*
G01*
X93675000Y-44638000D02*
X93675000Y-45138000D01*
X95025000Y-44638000D02*
X95025000Y-45138000D01*
X93675000Y-45138000D02*
G75*
G03X95025000Y-45138000I675000J0D01*
G01*
X95025000Y-44638000D02*
G75*
G03X93675000Y-44638000I-675000J0D01*
G01*
X96215000Y-44638000D02*
X96215000Y-45138000D01*
X97565000Y-44638000D02*
X97565000Y-45138000D01*
X96215000Y-45138000D02*
G75*
G03X97565000Y-45138000I675000J0D01*
G01*
X97565000Y-44638000D02*
G75*
G03X96215000Y-44638000I-675000J0D01*
G01*
X109819000Y-81367000D02*
X109819000Y-82717000D01*
X111669000Y-82717000D01*
X111669000Y-81367000D01*
X109819000Y-81367000D01*
X110994000Y-83907000D02*
X110494000Y-83907000D01*
X110994000Y-85257000D02*
X110494000Y-85257000D01*
X110494000Y-83907000D02*
G75*
G03X110494000Y-85257000I0J-675000D01*
G01*
X110994000Y-85257000D02*
G75*
G03X110994000Y-83907000I0J675000D01*
G01*
X110994000Y-86447000D02*
X110494000Y-86447000D01*
X110994000Y-87797000D02*
X110494000Y-87797000D01*
X110494000Y-86447000D02*
G75*
G03X110494000Y-87797000I0J-675000D01*
G01*
X110994000Y-87797000D02*
G75*
G03X110994000Y-86447000I0J675000D01*
G01*
X110994000Y-88987000D02*
X110494000Y-88987000D01*
X110994000Y-90337000D02*
X110494000Y-90337000D01*
X110494000Y-88987000D02*
G75*
G03X110494000Y-90337000I0J-675000D01*
G01*
X110994000Y-90337000D02*
G75*
G03X110994000Y-88987000I0J675000D01*
G01*
X110994000Y-91527000D02*
X110494000Y-91527000D01*
X110994000Y-92877000D02*
X110494000Y-92877000D01*
X110494000Y-91527000D02*
G75*
G03X110494000Y-92877000I0J-675000D01*
G01*
X110994000Y-92877000D02*
G75*
G03X110994000Y-91527000I0J675000D01*
G01*
X110994000Y-94067000D02*
X110494000Y-94067000D01*
X110994000Y-95417000D02*
X110494000Y-95417000D01*
X110494000Y-94067000D02*
G75*
G03X110494000Y-95417000I0J-675000D01*
G01*
X110994000Y-95417000D02*
G75*
G03X110994000Y-94067000I0J675000D01*
G01*
X87035000Y-107692000D02*
X87035000Y-107192000D01*
X85685000Y-107692000D02*
X85685000Y-107192000D01*
X87035000Y-107192000D02*
G75*
G03X85685000Y-107192000I-675000J0D01*
G01*
X85685000Y-107692000D02*
G75*
G03X87035000Y-107692000I675000J0D01*
G01*
X89575000Y-107692000D02*
X89575000Y-107192000D01*
X88225000Y-107692000D02*
X88225000Y-107192000D01*
X89575000Y-107192000D02*
G75*
G03X88225000Y-107192000I-675000J0D01*
G01*
X88225000Y-107692000D02*
G75*
G03X89575000Y-107692000I675000J0D01*
G01*
X92115000Y-107692000D02*
X92115000Y-107192000D01*
X90765000Y-107692000D02*
X90765000Y-107192000D01*
X92115000Y-107192000D02*
G75*
G03X90765000Y-107192000I-675000J0D01*
G01*
X90765000Y-107692000D02*
G75*
G03X92115000Y-107692000I675000J0D01*
G01*
X94655000Y-107692000D02*
X94655000Y-107192000D01*
X93305000Y-107692000D02*
X93305000Y-107192000D01*
X94655000Y-107192000D02*
G75*
G03X93305000Y-107192000I-675000J0D01*
G01*
X93305000Y-107692000D02*
G75*
G03X94655000Y-107692000I675000J0D01*
G01*
X97195000Y-107692000D02*
X97195000Y-107192000D01*
X95845000Y-107692000D02*
X95845000Y-107192000D01*
X97195000Y-107192000D02*
G75*
G03X95845000Y-107192000I-675000J0D01*
G01*
X95845000Y-107692000D02*
G75*
G03X97195000Y-107692000I675000J0D01*
G01*
X99735000Y-107692000D02*
X99735000Y-107192000D01*
X98385000Y-107692000D02*
X98385000Y-107192000D01*
X99735000Y-107192000D02*
G75*
G03X98385000Y-107192000I-675000J0D01*
G01*
X98385000Y-107692000D02*
G75*
G03X99735000Y-107692000I675000J0D01*
G01*
X102275000Y-107692000D02*
X102275000Y-107192000D01*
X100925000Y-107692000D02*
X100925000Y-107192000D01*
X102275000Y-107192000D02*
G75*
G03X100925000Y-107192000I-675000J0D01*
G01*
X100925000Y-107692000D02*
G75*
G03X102275000Y-107692000I675000J0D01*
G01*
X104815000Y-107692000D02*
X104815000Y-107192000D01*
X103465000Y-107692000D02*
X103465000Y-107192000D01*
X104815000Y-107192000D02*
G75*
G03X103465000Y-107192000I-675000J0D01*
G01*
X103465000Y-107692000D02*
G75*
G03X104815000Y-107692000I675000J0D01*
G01*
X107355000Y-107692000D02*
X107355000Y-107192000D01*
X106005000Y-107692000D02*
X106005000Y-107192000D01*
X107355000Y-107192000D02*
G75*
G03X106005000Y-107192000I-675000J0D01*
G01*
X106005000Y-107692000D02*
G75*
G03X107355000Y-107692000I675000J0D01*
G01*
X109895000Y-107692000D02*
X109895000Y-107192000D01*
X108545000Y-107692000D02*
X108545000Y-107192000D01*
X109895000Y-107192000D02*
G75*
G03X108545000Y-107192000I-675000J0D01*
G01*
X108545000Y-107692000D02*
G75*
G03X109895000Y-107692000I675000J0D01*
G01*
X112435000Y-107692000D02*
X112435000Y-107192000D01*
X111085000Y-107692000D02*
X111085000Y-107192000D01*
X112435000Y-107192000D02*
G75*
G03X111085000Y-107192000I-675000J0D01*
G01*
X111085000Y-107692000D02*
G75*
G03X112435000Y-107692000I675000J0D01*
G01*
X114975000Y-107692000D02*
X114975000Y-107192000D01*
X113625000Y-107692000D02*
X113625000Y-107192000D01*
X114975000Y-107192000D02*
G75*
G03X113625000Y-107192000I-675000J0D01*
G01*
X113625000Y-107692000D02*
G75*
G03X114975000Y-107692000I675000J0D01*
G01*
X117515000Y-107692000D02*
X117515000Y-107192000D01*
X116165000Y-107692000D02*
X116165000Y-107192000D01*
X117515000Y-107192000D02*
G75*
G03X116165000Y-107192000I-675000J0D01*
G01*
X116165000Y-107692000D02*
G75*
G03X117515000Y-107692000I675000J0D01*
G01*
X120055000Y-107692000D02*
X120055000Y-107192000D01*
X118705000Y-107692000D02*
X118705000Y-107192000D01*
X120055000Y-107192000D02*
G75*
G03X118705000Y-107192000I-675000J0D01*
G01*
X118705000Y-107692000D02*
G75*
G03X120055000Y-107692000I675000J0D01*
G01*
X122595000Y-107692000D02*
X122595000Y-107192000D01*
X121245000Y-107692000D02*
X121245000Y-107192000D01*
X122595000Y-107192000D02*
G75*
G03X121245000Y-107192000I-675000J0D01*
G01*
X121245000Y-107692000D02*
G75*
G03X122595000Y-107692000I675000J0D01*
G01*
X123785000Y-106517000D02*
X123785000Y-108367000D01*
X125135000Y-108367000D01*
X125135000Y-106517000D01*
X123785000Y-106517000D01*
X135473000Y-111760000D02*
X135473000Y-111760000D01*
X137323000Y-111760000D02*
X137323000Y-111760000D01*
X135473000Y-111760000D02*
G75*
G03X137323000Y-111760000I925000J0D01*
G01*
X137323000Y-111760000D02*
G75*
G03X135473000Y-111760000I-925000J0D01*
G01*
X132933000Y-110835000D02*
X132933000Y-112685000D01*
X134783000Y-112685000D01*
X134783000Y-110835000D01*
X132933000Y-110835000D01*
X131024380Y-80089333D02*
X131738666Y-80089333D01*
X131881523Y-80136952D01*
X131976761Y-80232190D01*
X132024380Y-80375047D01*
X132024380Y-80470285D01*
X131024380Y-79708380D02*
X131024380Y-79089333D01*
X131405333Y-79422666D01*
X131405333Y-79279809D01*
X131452952Y-79184571D01*
X131500571Y-79136952D01*
X131595809Y-79089333D01*
X131833904Y-79089333D01*
X131929142Y-79136952D01*
X131976761Y-79184571D01*
X132024380Y-79279809D01*
X132024380Y-79565523D01*
X131976761Y-79660761D01*
X131929142Y-79708380D01*
X105624380Y-80089333D02*
X106338666Y-80089333D01*
X106481523Y-80136952D01*
X106576761Y-80232190D01*
X106624380Y-80375047D01*
X106624380Y-80470285D01*
X106624380Y-79089333D02*
X106624380Y-79660761D01*
X106624380Y-79375047D02*
X105624380Y-79375047D01*
X105767238Y-79470285D01*
X105862476Y-79565523D01*
X105910095Y-79660761D01*
M02*
