%TF.GenerationSoftware,KiCad,Pcbnew,5.0.2+dfsg1-1*%
%TF.CreationDate,2020-04-12T10:59:42+02:00*%
%TF.ProjectId,fietslamp,66696574-736c-4616-9d70-2e6b69636164,rev?*%
%TF.SameCoordinates,Original*%
%TF.FileFunction,Copper,L1,Top*%
%TF.FilePolarity,Positive*%
%FSLAX46Y46*%
G04 Gerber Fmt 4.6, Leading zero omitted, Abs format (unit mm)*
G04 Created by KiCad (PCBNEW 5.0.2+dfsg1-1) date zo 12 apr 2020 10:59:42 CEST*
%MOMM*%
%LPD*%
G01*
G04 APERTURE LIST*
%ADD10C,0.150000*%
%ADD11R,2.000000X2.000000*%
%ADD12O,2.000000X2.000000*%
%ADD13R,1.500000X2.000000*%
%ADD14O,1.500000X2.000000*%
%ADD15O,2.000000X1.500000*%
%ADD16R,2.000000X1.500000*%
%ADD17R,1.270000X2.960000*%
%ADD18R,2.960000X1.270000*%
%ADD19C,0.250000*%
%ADD20C,0.508000*%
%ADD21C,0.254000*%
G04 APERTURE END LIST*
D10*
X74168000Y-41656000D02*
X140716000Y-41656000D01*
X74168000Y-129032000D02*
X74168000Y-41656000D01*
X140716000Y-129032000D02*
X74168000Y-129032000D01*
X140716000Y-41656000D02*
X140716000Y-129032000D01*
D11*
X133858000Y-116840000D03*
D12*
X136398000Y-116840000D03*
D11*
X133858000Y-114300000D03*
D12*
X136398000Y-114300000D03*
D13*
X124460000Y-122682000D03*
D14*
X121920000Y-122682000D03*
X119380000Y-122682000D03*
X116840000Y-122682000D03*
X114300000Y-122682000D03*
X111760000Y-122682000D03*
X109220000Y-122682000D03*
X106680000Y-122682000D03*
X104140000Y-122682000D03*
X101600000Y-122682000D03*
X99060000Y-122682000D03*
X96520000Y-122682000D03*
X93980000Y-122682000D03*
X91440000Y-122682000D03*
X88900000Y-122682000D03*
X86360000Y-122682000D03*
D15*
X136144000Y-94742000D03*
X136144000Y-92202000D03*
X136144000Y-89662000D03*
X136144000Y-87122000D03*
X136144000Y-84582000D03*
D16*
X136144000Y-82042000D03*
D17*
X104256000Y-121124000D03*
X109336000Y-121124000D03*
X111876000Y-124724000D03*
X101716000Y-124724000D03*
X106796000Y-124724000D03*
X96636000Y-124724000D03*
X91556000Y-124724000D03*
X89016000Y-121124000D03*
X99176000Y-121124000D03*
X94096000Y-121124000D03*
X119496000Y-121124000D03*
X124576000Y-121124000D03*
X114416000Y-121124000D03*
X116956000Y-124724000D03*
X122036000Y-124724000D03*
D14*
X96890000Y-74888000D03*
X94350000Y-74888000D03*
X91810000Y-74888000D03*
X89270000Y-74888000D03*
X86730000Y-74888000D03*
X84190000Y-74888000D03*
X81650000Y-74888000D03*
D13*
X79110000Y-74888000D03*
D14*
X133890000Y-44888000D03*
X131350000Y-44888000D03*
X128810000Y-44888000D03*
X126270000Y-44888000D03*
X123730000Y-44888000D03*
X121190000Y-44888000D03*
X118650000Y-44888000D03*
D13*
X116110000Y-44888000D03*
X79110000Y-97748000D03*
D14*
X81650000Y-97748000D03*
X84190000Y-97748000D03*
X86730000Y-97748000D03*
X89270000Y-97748000D03*
X91810000Y-97748000D03*
X94350000Y-97748000D03*
X96890000Y-97748000D03*
D13*
X116110000Y-67748000D03*
D14*
X118650000Y-67748000D03*
X121190000Y-67748000D03*
X123730000Y-67748000D03*
X126270000Y-67748000D03*
X128810000Y-67748000D03*
X131350000Y-67748000D03*
X133890000Y-67748000D03*
D17*
X122036000Y-109484000D03*
X116956000Y-109484000D03*
X114416000Y-105884000D03*
X124576000Y-105884000D03*
X119496000Y-105884000D03*
X106796000Y-109484000D03*
X101716000Y-109484000D03*
X111876000Y-109484000D03*
X109336000Y-105884000D03*
X104256000Y-105884000D03*
X94096000Y-105884000D03*
X99176000Y-105884000D03*
X89016000Y-105884000D03*
X91556000Y-109484000D03*
X96636000Y-109484000D03*
D18*
X134200000Y-87112000D03*
X134200000Y-82032000D03*
X134200000Y-92192000D03*
X137800000Y-89652000D03*
X137800000Y-84572000D03*
D14*
X96890000Y-67748000D03*
X94350000Y-67748000D03*
X91810000Y-67748000D03*
X89270000Y-67748000D03*
X86730000Y-67748000D03*
X84190000Y-67748000D03*
X81650000Y-67748000D03*
D13*
X79110000Y-67748000D03*
X79110000Y-44888000D03*
D14*
X81650000Y-44888000D03*
X84190000Y-44888000D03*
X86730000Y-44888000D03*
X89270000Y-44888000D03*
X91810000Y-44888000D03*
X94350000Y-44888000D03*
X96890000Y-44888000D03*
D18*
X112832000Y-84572000D03*
X112832000Y-89652000D03*
X109232000Y-92192000D03*
X109232000Y-82032000D03*
X109232000Y-87112000D03*
D16*
X110744000Y-82042000D03*
D15*
X110744000Y-84582000D03*
X110744000Y-87122000D03*
X110744000Y-89662000D03*
X110744000Y-92202000D03*
X110744000Y-94742000D03*
D14*
X86360000Y-107442000D03*
X88900000Y-107442000D03*
X91440000Y-107442000D03*
X93980000Y-107442000D03*
X96520000Y-107442000D03*
X99060000Y-107442000D03*
X101600000Y-107442000D03*
X104140000Y-107442000D03*
X106680000Y-107442000D03*
X109220000Y-107442000D03*
X111760000Y-107442000D03*
X114300000Y-107442000D03*
X116840000Y-107442000D03*
X119380000Y-107442000D03*
X121920000Y-107442000D03*
D13*
X124460000Y-107442000D03*
D12*
X136398000Y-111760000D03*
D11*
X133858000Y-111760000D03*
D19*
X113531000Y-105884000D02*
X114416000Y-105884000D01*
X112832000Y-105185000D02*
X113531000Y-105884000D01*
X112832000Y-89652000D02*
X112832000Y-105185000D01*
X109232000Y-92192000D02*
X109232000Y-101104000D01*
X111876000Y-103748000D02*
X111876000Y-109484000D01*
X109232000Y-101104000D02*
X111876000Y-103748000D01*
X110962000Y-82032000D02*
X109232000Y-82032000D01*
X112992002Y-82032000D02*
X110962000Y-82032000D01*
X115376001Y-84415999D02*
X112992002Y-82032000D01*
X115376001Y-113353999D02*
X115376001Y-84415999D01*
X109336000Y-119394000D02*
X115376001Y-113353999D01*
X109336000Y-121124000D02*
X109336000Y-119394000D01*
X112832000Y-84572000D02*
X112832000Y-86951998D01*
X107756001Y-122033999D02*
X106796000Y-122994000D01*
X112832000Y-86951998D02*
X111586988Y-88197010D01*
X106796000Y-122994000D02*
X106796000Y-124724000D01*
X107756001Y-106747708D02*
X107756001Y-122033999D01*
X107426999Y-106418706D02*
X107756001Y-106747708D01*
X111586988Y-88197010D02*
X110438697Y-88197010D01*
X110438697Y-88197010D02*
X107426999Y-91208708D01*
X107426999Y-91208708D02*
X107426999Y-106418706D01*
X75749990Y-97359402D02*
X75749990Y-66998010D01*
X77913607Y-99523019D02*
X75749990Y-97359402D01*
X95515022Y-99523020D02*
X77913607Y-99523019D01*
X101716000Y-109484000D02*
X101716000Y-105723998D01*
X101716000Y-105723998D02*
X95515022Y-99523020D01*
X121190000Y-45138000D02*
X121190000Y-44888000D01*
X120114990Y-46213010D02*
X121190000Y-45138000D01*
X96534990Y-46213010D02*
X120114990Y-46213010D01*
X75749990Y-66998010D02*
X96534990Y-46213010D01*
X94350000Y-75138000D02*
X94350000Y-74888000D01*
X107809422Y-76213010D02*
X95425010Y-76213010D01*
X95425010Y-76213010D02*
X94350000Y-75138000D01*
X122036000Y-90439588D02*
X107809422Y-76213010D01*
X122036000Y-109484000D02*
X122036000Y-90439588D01*
X124576000Y-104154000D02*
X124576000Y-105884000D01*
X124576000Y-92343178D02*
X124576000Y-104154000D01*
X107120822Y-74888000D02*
X124576000Y-92343178D01*
X96890000Y-74888000D02*
X107120822Y-74888000D01*
X89270000Y-67498000D02*
X89270000Y-67748000D01*
X88194990Y-66422990D02*
X89270000Y-67498000D01*
X104256000Y-105884000D02*
X103371000Y-105884000D01*
X78100008Y-66422990D02*
X88194990Y-66422990D01*
X103371000Y-105884000D02*
X96560010Y-99073010D01*
X96560010Y-99073010D02*
X78100008Y-99073010D01*
X78100008Y-99073010D02*
X76200000Y-97173002D01*
X76200000Y-97173002D02*
X76200000Y-68322998D01*
X76200000Y-68322998D02*
X78100008Y-66422990D01*
X116110000Y-67748000D02*
X116110000Y-67998000D01*
X79185010Y-69073010D02*
X79110000Y-68998000D01*
D20*
X137800000Y-85715000D02*
X137800000Y-84572000D01*
X131290303Y-85786010D02*
X137728990Y-85786010D01*
X137728990Y-85786010D02*
X137800000Y-85715000D01*
X130076293Y-84572000D02*
X131290303Y-85786010D01*
X79185010Y-67823010D02*
X79110000Y-67748000D01*
X79185010Y-69073010D02*
X79185010Y-67823010D01*
X118044010Y-123430717D02*
X116956000Y-124518727D01*
X118044010Y-119643788D02*
X118044010Y-123430717D01*
X129844093Y-107843705D02*
X118044010Y-119643788D01*
X116956000Y-124518727D02*
X116956000Y-124724000D01*
X130076293Y-107843705D02*
X129844093Y-107843705D01*
X130076293Y-107843705D02*
X130076293Y-84572000D01*
X116110000Y-70605707D02*
X116110000Y-67748000D01*
X130076293Y-84572000D02*
X116110000Y-70605707D01*
X116110000Y-70605707D02*
X80717707Y-70605707D01*
X79110000Y-96240000D02*
X79110000Y-97748000D01*
X77216000Y-94346000D02*
X79110000Y-96240000D01*
X77216000Y-72184000D02*
X77216000Y-94346000D01*
X79756000Y-69644000D02*
X77216000Y-72184000D01*
X79756000Y-69644000D02*
X79185010Y-69073010D01*
X80717707Y-70605707D02*
X79756000Y-69644000D01*
D21*
G36*
X140006001Y-128322000D02*
X74878000Y-128322000D01*
X74878000Y-66998010D01*
X74975102Y-66998010D01*
X74989991Y-67072862D01*
X74989990Y-97284555D01*
X74975102Y-97359402D01*
X74989990Y-97434249D01*
X74989990Y-97434253D01*
X75034086Y-97655938D01*
X75202061Y-97907331D01*
X75265520Y-97949733D01*
X77323280Y-100007494D01*
X77365678Y-100070947D01*
X77429131Y-100113345D01*
X77429134Y-100113348D01*
X77617070Y-100238923D01*
X77913607Y-100297907D01*
X77988460Y-100283018D01*
X95200221Y-100283020D01*
X98673760Y-103756560D01*
X98541000Y-103756560D01*
X98293235Y-103805843D01*
X98083191Y-103946191D01*
X97942843Y-104156235D01*
X97893560Y-104404000D01*
X97893560Y-106444768D01*
X97790000Y-106599757D01*
X97518529Y-106193471D01*
X97060400Y-105887359D01*
X96520000Y-105779867D01*
X95979601Y-105887359D01*
X95521472Y-106193471D01*
X95378440Y-106407533D01*
X95378440Y-104404000D01*
X95329157Y-104156235D01*
X95188809Y-103946191D01*
X94978765Y-103805843D01*
X94731000Y-103756560D01*
X93461000Y-103756560D01*
X93213235Y-103805843D01*
X93003191Y-103946191D01*
X92862843Y-104156235D01*
X92813560Y-104404000D01*
X92813560Y-106444768D01*
X92710000Y-106599757D01*
X92438529Y-106193471D01*
X91980400Y-105887359D01*
X91440000Y-105779867D01*
X90899601Y-105887359D01*
X90441472Y-106193471D01*
X90298440Y-106407533D01*
X90298440Y-104404000D01*
X90249157Y-104156235D01*
X90108809Y-103946191D01*
X89898765Y-103805843D01*
X89651000Y-103756560D01*
X88381000Y-103756560D01*
X88133235Y-103805843D01*
X87923191Y-103946191D01*
X87782843Y-104156235D01*
X87733560Y-104404000D01*
X87733560Y-106444768D01*
X87630000Y-106599757D01*
X87358529Y-106193471D01*
X86900400Y-105887359D01*
X86360000Y-105779867D01*
X85819601Y-105887359D01*
X85361472Y-106193471D01*
X85055359Y-106651600D01*
X84975000Y-107055593D01*
X84975000Y-107828406D01*
X85055359Y-108232399D01*
X85361471Y-108690528D01*
X85819600Y-108996641D01*
X86360000Y-109104133D01*
X86900399Y-108996641D01*
X87358528Y-108690529D01*
X87630000Y-108284243D01*
X87901471Y-108690528D01*
X88359600Y-108996641D01*
X88900000Y-109104133D01*
X89440399Y-108996641D01*
X89898528Y-108690529D01*
X90170000Y-108284243D01*
X90273560Y-108439231D01*
X90273560Y-110964000D01*
X90322843Y-111211765D01*
X90463191Y-111421809D01*
X90673235Y-111562157D01*
X90921000Y-111611440D01*
X92191000Y-111611440D01*
X92438765Y-111562157D01*
X92648809Y-111421809D01*
X92789157Y-111211765D01*
X92838440Y-110964000D01*
X92838440Y-108476467D01*
X92981471Y-108690528D01*
X93439600Y-108996641D01*
X93980000Y-109104133D01*
X94520399Y-108996641D01*
X94978528Y-108690529D01*
X95250000Y-108284243D01*
X95353560Y-108439231D01*
X95353560Y-110964000D01*
X95402843Y-111211765D01*
X95543191Y-111421809D01*
X95753235Y-111562157D01*
X96001000Y-111611440D01*
X97271000Y-111611440D01*
X97518765Y-111562157D01*
X97728809Y-111421809D01*
X97869157Y-111211765D01*
X97918440Y-110964000D01*
X97918440Y-108476467D01*
X98061471Y-108690528D01*
X98519600Y-108996641D01*
X99060000Y-109104133D01*
X99600399Y-108996641D01*
X100058528Y-108690529D01*
X100330000Y-108284243D01*
X100433560Y-108439231D01*
X100433560Y-110964000D01*
X100482843Y-111211765D01*
X100623191Y-111421809D01*
X100833235Y-111562157D01*
X101081000Y-111611440D01*
X102351000Y-111611440D01*
X102598765Y-111562157D01*
X102808809Y-111421809D01*
X102949157Y-111211765D01*
X102998440Y-110964000D01*
X102998440Y-108476467D01*
X103141471Y-108690528D01*
X103599600Y-108996641D01*
X104140000Y-109104133D01*
X104680399Y-108996641D01*
X105138528Y-108690529D01*
X105410000Y-108284243D01*
X105513560Y-108439231D01*
X105513560Y-110964000D01*
X105562843Y-111211765D01*
X105703191Y-111421809D01*
X105913235Y-111562157D01*
X106161000Y-111611440D01*
X106996001Y-111611440D01*
X106996002Y-121082724D01*
X106680000Y-121019867D01*
X106139601Y-121127359D01*
X105681472Y-121433471D01*
X105538440Y-121647533D01*
X105538440Y-119644000D01*
X105489157Y-119396235D01*
X105348809Y-119186191D01*
X105138765Y-119045843D01*
X104891000Y-118996560D01*
X103621000Y-118996560D01*
X103373235Y-119045843D01*
X103163191Y-119186191D01*
X103022843Y-119396235D01*
X102973560Y-119644000D01*
X102973560Y-121684768D01*
X102870000Y-121839757D01*
X102598529Y-121433471D01*
X102140400Y-121127359D01*
X101600000Y-121019867D01*
X101059601Y-121127359D01*
X100601472Y-121433471D01*
X100458440Y-121647533D01*
X100458440Y-119644000D01*
X100409157Y-119396235D01*
X100268809Y-119186191D01*
X100058765Y-119045843D01*
X99811000Y-118996560D01*
X98541000Y-118996560D01*
X98293235Y-119045843D01*
X98083191Y-119186191D01*
X97942843Y-119396235D01*
X97893560Y-119644000D01*
X97893560Y-121684768D01*
X97790000Y-121839757D01*
X97518529Y-121433471D01*
X97060400Y-121127359D01*
X96520000Y-121019867D01*
X95979601Y-121127359D01*
X95521472Y-121433471D01*
X95378440Y-121647533D01*
X95378440Y-119644000D01*
X95329157Y-119396235D01*
X95188809Y-119186191D01*
X94978765Y-119045843D01*
X94731000Y-118996560D01*
X93461000Y-118996560D01*
X93213235Y-119045843D01*
X93003191Y-119186191D01*
X92862843Y-119396235D01*
X92813560Y-119644000D01*
X92813560Y-121684768D01*
X92710000Y-121839757D01*
X92438529Y-121433471D01*
X91980400Y-121127359D01*
X91440000Y-121019867D01*
X90899601Y-121127359D01*
X90441472Y-121433471D01*
X90298440Y-121647533D01*
X90298440Y-119644000D01*
X90249157Y-119396235D01*
X90108809Y-119186191D01*
X89898765Y-119045843D01*
X89651000Y-118996560D01*
X88381000Y-118996560D01*
X88133235Y-119045843D01*
X87923191Y-119186191D01*
X87782843Y-119396235D01*
X87733560Y-119644000D01*
X87733560Y-121684768D01*
X87630000Y-121839757D01*
X87358529Y-121433471D01*
X86900400Y-121127359D01*
X86360000Y-121019867D01*
X85819601Y-121127359D01*
X85361472Y-121433471D01*
X85055359Y-121891600D01*
X84975000Y-122295593D01*
X84975000Y-123068406D01*
X85055359Y-123472399D01*
X85361471Y-123930528D01*
X85819600Y-124236641D01*
X86360000Y-124344133D01*
X86900399Y-124236641D01*
X87358528Y-123930529D01*
X87630000Y-123524243D01*
X87901471Y-123930528D01*
X88359600Y-124236641D01*
X88900000Y-124344133D01*
X89440399Y-124236641D01*
X89898528Y-123930529D01*
X90170000Y-123524243D01*
X90273560Y-123679231D01*
X90273560Y-126204000D01*
X90322843Y-126451765D01*
X90463191Y-126661809D01*
X90673235Y-126802157D01*
X90921000Y-126851440D01*
X92191000Y-126851440D01*
X92438765Y-126802157D01*
X92648809Y-126661809D01*
X92789157Y-126451765D01*
X92838440Y-126204000D01*
X92838440Y-123716467D01*
X92981471Y-123930528D01*
X93439600Y-124236641D01*
X93980000Y-124344133D01*
X94520399Y-124236641D01*
X94978528Y-123930529D01*
X95250000Y-123524243D01*
X95353560Y-123679231D01*
X95353560Y-126204000D01*
X95402843Y-126451765D01*
X95543191Y-126661809D01*
X95753235Y-126802157D01*
X96001000Y-126851440D01*
X97271000Y-126851440D01*
X97518765Y-126802157D01*
X97728809Y-126661809D01*
X97869157Y-126451765D01*
X97918440Y-126204000D01*
X97918440Y-123716467D01*
X98061471Y-123930528D01*
X98519600Y-124236641D01*
X99060000Y-124344133D01*
X99600399Y-124236641D01*
X100058528Y-123930529D01*
X100330000Y-123524243D01*
X100433560Y-123679231D01*
X100433560Y-126204000D01*
X100482843Y-126451765D01*
X100623191Y-126661809D01*
X100833235Y-126802157D01*
X101081000Y-126851440D01*
X102351000Y-126851440D01*
X102598765Y-126802157D01*
X102808809Y-126661809D01*
X102949157Y-126451765D01*
X102998440Y-126204000D01*
X102998440Y-123716467D01*
X103141471Y-123930528D01*
X103599600Y-124236641D01*
X104140000Y-124344133D01*
X104680399Y-124236641D01*
X105138528Y-123930529D01*
X105410000Y-123524243D01*
X105513560Y-123679231D01*
X105513560Y-126204000D01*
X105562843Y-126451765D01*
X105703191Y-126661809D01*
X105913235Y-126802157D01*
X106161000Y-126851440D01*
X107431000Y-126851440D01*
X107678765Y-126802157D01*
X107888809Y-126661809D01*
X108029157Y-126451765D01*
X108078440Y-126204000D01*
X108078440Y-123716467D01*
X108221471Y-123930528D01*
X108679600Y-124236641D01*
X109220000Y-124344133D01*
X109760399Y-124236641D01*
X110218528Y-123930529D01*
X110490000Y-123524243D01*
X110593560Y-123679231D01*
X110593560Y-126204000D01*
X110642843Y-126451765D01*
X110783191Y-126661809D01*
X110993235Y-126802157D01*
X111241000Y-126851440D01*
X112511000Y-126851440D01*
X112758765Y-126802157D01*
X112968809Y-126661809D01*
X113109157Y-126451765D01*
X113158440Y-126204000D01*
X113158440Y-123716467D01*
X113301471Y-123930528D01*
X113759600Y-124236641D01*
X114300000Y-124344133D01*
X114840399Y-124236641D01*
X115298528Y-123930529D01*
X115570000Y-123524243D01*
X115673560Y-123679231D01*
X115673560Y-126204000D01*
X115722843Y-126451765D01*
X115863191Y-126661809D01*
X116073235Y-126802157D01*
X116321000Y-126851440D01*
X117591000Y-126851440D01*
X117838765Y-126802157D01*
X118048809Y-126661809D01*
X118189157Y-126451765D01*
X118238440Y-126204000D01*
X118238440Y-125009750D01*
X120766000Y-125009750D01*
X120766000Y-126330310D01*
X120862673Y-126563699D01*
X121041302Y-126742327D01*
X121274691Y-126839000D01*
X121750250Y-126839000D01*
X121909000Y-126680250D01*
X121909000Y-124851000D01*
X122163000Y-124851000D01*
X122163000Y-126680250D01*
X122321750Y-126839000D01*
X122797309Y-126839000D01*
X123030698Y-126742327D01*
X123209327Y-126563699D01*
X123306000Y-126330310D01*
X123306000Y-125009750D01*
X123147250Y-124851000D01*
X122163000Y-124851000D01*
X121909000Y-124851000D01*
X120924750Y-124851000D01*
X120766000Y-125009750D01*
X118238440Y-125009750D01*
X118238440Y-124493523D01*
X118610716Y-124121246D01*
X118638809Y-124102476D01*
X118839600Y-124236641D01*
X119380000Y-124344133D01*
X119920399Y-124236641D01*
X120378528Y-123930529D01*
X120658553Y-123511443D01*
X120670036Y-123553721D01*
X120766000Y-123677905D01*
X120766000Y-124438250D01*
X120924750Y-124597000D01*
X121909000Y-124597000D01*
X121909000Y-122767750D01*
X121773000Y-122631750D01*
X121773000Y-122555000D01*
X121793000Y-122555000D01*
X121793000Y-121212344D01*
X122047000Y-121212344D01*
X122047000Y-122555000D01*
X122067000Y-122555000D01*
X122067000Y-122809000D01*
X122047000Y-122809000D01*
X122047000Y-124151656D01*
X122163000Y-124218088D01*
X122163000Y-124597000D01*
X123147250Y-124597000D01*
X123306000Y-124438250D01*
X123306000Y-124175763D01*
X123462235Y-124280157D01*
X123710000Y-124329440D01*
X125210000Y-124329440D01*
X125457765Y-124280157D01*
X125667809Y-124139809D01*
X125808157Y-123929765D01*
X125857440Y-123682000D01*
X125857440Y-122609027D01*
X125858440Y-122604000D01*
X125858440Y-119644000D01*
X125809157Y-119396235D01*
X125668809Y-119186191D01*
X125458765Y-119045843D01*
X125211000Y-118996560D01*
X123941000Y-118996560D01*
X123693235Y-119045843D01*
X123483191Y-119186191D01*
X123342843Y-119396235D01*
X123293560Y-119644000D01*
X123293560Y-121196549D01*
X123252191Y-121224191D01*
X123111843Y-121434235D01*
X123064254Y-121673483D01*
X122836894Y-121379264D01*
X122364235Y-121108519D01*
X122261185Y-121089682D01*
X122047000Y-121212344D01*
X121793000Y-121212344D01*
X121578815Y-121089682D01*
X121475765Y-121108519D01*
X121003106Y-121379264D01*
X120778440Y-121669997D01*
X120778440Y-119644000D01*
X120729157Y-119396235D01*
X120588809Y-119186191D01*
X120378765Y-119045843D01*
X120131000Y-118996560D01*
X119948473Y-118996560D01*
X121819283Y-117125750D01*
X132223000Y-117125750D01*
X132223000Y-117966310D01*
X132319673Y-118199699D01*
X132498302Y-118378327D01*
X132731691Y-118475000D01*
X133572250Y-118475000D01*
X133731000Y-118316250D01*
X133731000Y-116967000D01*
X133985000Y-116967000D01*
X133985000Y-118316250D01*
X134143750Y-118475000D01*
X134984309Y-118475000D01*
X135217698Y-118378327D01*
X135396327Y-118199699D01*
X135419568Y-118143590D01*
X135438006Y-118163505D01*
X136017565Y-118430133D01*
X136271000Y-118311319D01*
X136271000Y-116967000D01*
X136525000Y-116967000D01*
X136525000Y-118311319D01*
X136778435Y-118430133D01*
X137357994Y-118163505D01*
X137791402Y-117695385D01*
X137988124Y-117220434D01*
X137868777Y-116967000D01*
X136525000Y-116967000D01*
X136271000Y-116967000D01*
X133985000Y-116967000D01*
X133731000Y-116967000D01*
X132381750Y-116967000D01*
X132223000Y-117125750D01*
X121819283Y-117125750D01*
X128185033Y-110760000D01*
X132210560Y-110760000D01*
X132210560Y-112760000D01*
X132259843Y-113007765D01*
X132274700Y-113030000D01*
X132259843Y-113052235D01*
X132210560Y-113300000D01*
X132210560Y-115300000D01*
X132259843Y-115547765D01*
X132279526Y-115577223D01*
X132223000Y-115713690D01*
X132223000Y-116554250D01*
X132381750Y-116713000D01*
X133731000Y-116713000D01*
X133731000Y-116693000D01*
X133985000Y-116693000D01*
X133985000Y-116713000D01*
X136271000Y-116713000D01*
X136271000Y-116693000D01*
X136525000Y-116693000D01*
X136525000Y-116713000D01*
X137868777Y-116713000D01*
X137988124Y-116459566D01*
X137791402Y-115984615D01*
X137420029Y-115583499D01*
X137576769Y-115478769D01*
X137938136Y-114937945D01*
X138065031Y-114300000D01*
X137938136Y-113662055D01*
X137576769Y-113121231D01*
X137440232Y-113030000D01*
X137576769Y-112938769D01*
X137938136Y-112397945D01*
X138065031Y-111760000D01*
X137938136Y-111122055D01*
X137576769Y-110581231D01*
X137035945Y-110219864D01*
X136559031Y-110125000D01*
X136236969Y-110125000D01*
X135760055Y-110219864D01*
X135414900Y-110450489D01*
X135315809Y-110302191D01*
X135105765Y-110161843D01*
X134858000Y-110112560D01*
X132858000Y-110112560D01*
X132610235Y-110161843D01*
X132400191Y-110302191D01*
X132259843Y-110512235D01*
X132210560Y-110760000D01*
X128185033Y-110760000D01*
X130224367Y-108720667D01*
X130423163Y-108681124D01*
X130717226Y-108484638D01*
X130913712Y-108190575D01*
X130982709Y-107843705D01*
X130965293Y-107756149D01*
X130965293Y-91557000D01*
X132072560Y-91557000D01*
X132072560Y-92827000D01*
X132121843Y-93074765D01*
X132262191Y-93284809D01*
X132472235Y-93425157D01*
X132720000Y-93474440D01*
X135298104Y-93474440D01*
X134895471Y-93743471D01*
X134589359Y-94201600D01*
X134481867Y-94742000D01*
X134589359Y-95282400D01*
X134895471Y-95740529D01*
X135353600Y-96046641D01*
X135757593Y-96127000D01*
X136530407Y-96127000D01*
X136934400Y-96046641D01*
X137392529Y-95740529D01*
X137698641Y-95282400D01*
X137806133Y-94742000D01*
X137698641Y-94201600D01*
X137392529Y-93743471D01*
X136986244Y-93472000D01*
X137392529Y-93200529D01*
X137698641Y-92742400D01*
X137806133Y-92202000D01*
X137698641Y-91661600D01*
X137392529Y-91203471D01*
X136989896Y-90934440D01*
X139280000Y-90934440D01*
X139527765Y-90885157D01*
X139737809Y-90744809D01*
X139878157Y-90534765D01*
X139927440Y-90287000D01*
X139927440Y-89017000D01*
X139878157Y-88769235D01*
X139737809Y-88559191D01*
X139527765Y-88418843D01*
X139280000Y-88369560D01*
X137018832Y-88369560D01*
X137446736Y-88038894D01*
X137717481Y-87566235D01*
X137736318Y-87463185D01*
X137613656Y-87249000D01*
X136271000Y-87249000D01*
X136271000Y-87269000D01*
X136186250Y-87269000D01*
X136156250Y-87239000D01*
X134327000Y-87239000D01*
X134327000Y-88223250D01*
X134485750Y-88382000D01*
X135309229Y-88382000D01*
X135314557Y-88383447D01*
X134895471Y-88663471D01*
X134589359Y-89121600D01*
X134481867Y-89662000D01*
X134589359Y-90202400D01*
X134895471Y-90660529D01*
X135268172Y-90909560D01*
X132720000Y-90909560D01*
X132472235Y-90958843D01*
X132262191Y-91099191D01*
X132121843Y-91309235D01*
X132072560Y-91557000D01*
X130965293Y-91557000D01*
X130965293Y-87397750D01*
X132085000Y-87397750D01*
X132085000Y-87873309D01*
X132181673Y-88106698D01*
X132360301Y-88285327D01*
X132593690Y-88382000D01*
X133914250Y-88382000D01*
X134073000Y-88223250D01*
X134073000Y-87239000D01*
X132243750Y-87239000D01*
X132085000Y-87397750D01*
X130965293Y-87397750D01*
X130965293Y-86627777D01*
X131202747Y-86675010D01*
X131202751Y-86675010D01*
X131290302Y-86692425D01*
X131377853Y-86675010D01*
X132085000Y-86675010D01*
X132085000Y-86826250D01*
X132243750Y-86985000D01*
X134073000Y-86985000D01*
X134073000Y-86965000D01*
X134327000Y-86965000D01*
X134327000Y-86985000D01*
X134668617Y-86985000D01*
X134674344Y-86995000D01*
X136017000Y-86995000D01*
X136017000Y-86985000D01*
X136156250Y-86985000D01*
X136166250Y-86975000D01*
X136271000Y-86975000D01*
X136271000Y-86995000D01*
X137613656Y-86995000D01*
X137736318Y-86780815D01*
X137719828Y-86690603D01*
X137728990Y-86692426D01*
X137816545Y-86675010D01*
X137816546Y-86675010D01*
X138075860Y-86623429D01*
X138369923Y-86426943D01*
X138398366Y-86384375D01*
X138440933Y-86355933D01*
X138637419Y-86061870D01*
X138678680Y-85854440D01*
X139280000Y-85854440D01*
X139527765Y-85805157D01*
X139737809Y-85664809D01*
X139878157Y-85454765D01*
X139927440Y-85207000D01*
X139927440Y-83937000D01*
X139878157Y-83689235D01*
X139737809Y-83479191D01*
X139527765Y-83338843D01*
X139280000Y-83289560D01*
X137542318Y-83289560D01*
X137601809Y-83249809D01*
X137742157Y-83039765D01*
X137791440Y-82792000D01*
X137791440Y-81292000D01*
X137742157Y-81044235D01*
X137601809Y-80834191D01*
X137391765Y-80693843D01*
X137144000Y-80644560D01*
X135144000Y-80644560D01*
X134896235Y-80693843D01*
X134812849Y-80749560D01*
X132720000Y-80749560D01*
X132472235Y-80798843D01*
X132262191Y-80939191D01*
X132121843Y-81149235D01*
X132072560Y-81397000D01*
X132072560Y-82667000D01*
X132121843Y-82914765D01*
X132262191Y-83124809D01*
X132472235Y-83265157D01*
X132720000Y-83314440D01*
X134782917Y-83314440D01*
X134896235Y-83390157D01*
X135118592Y-83434386D01*
X134895471Y-83583471D01*
X134589359Y-84041600D01*
X134481867Y-84582000D01*
X134544526Y-84897010D01*
X131658539Y-84897010D01*
X130766824Y-84005296D01*
X130717226Y-83931067D01*
X130643000Y-83881471D01*
X116999000Y-70237472D01*
X116999000Y-69367791D01*
X117107765Y-69346157D01*
X117317809Y-69205809D01*
X117458157Y-68995765D01*
X117502386Y-68773407D01*
X117651472Y-68996529D01*
X118109601Y-69302641D01*
X118650000Y-69410133D01*
X119190400Y-69302641D01*
X119648529Y-68996529D01*
X119920000Y-68590243D01*
X120191472Y-68996529D01*
X120649601Y-69302641D01*
X121190000Y-69410133D01*
X121730400Y-69302641D01*
X122188529Y-68996529D01*
X122460000Y-68590243D01*
X122731472Y-68996529D01*
X123189601Y-69302641D01*
X123730000Y-69410133D01*
X124270400Y-69302641D01*
X124728529Y-68996529D01*
X125000000Y-68590243D01*
X125271472Y-68996529D01*
X125729601Y-69302641D01*
X126270000Y-69410133D01*
X126810400Y-69302641D01*
X127268529Y-68996529D01*
X127540000Y-68590243D01*
X127811472Y-68996529D01*
X128269601Y-69302641D01*
X128810000Y-69410133D01*
X129350400Y-69302641D01*
X129808529Y-68996529D01*
X130080000Y-68590243D01*
X130351472Y-68996529D01*
X130809601Y-69302641D01*
X131350000Y-69410133D01*
X131890400Y-69302641D01*
X132348529Y-68996529D01*
X132620000Y-68590243D01*
X132891472Y-68996529D01*
X133349601Y-69302641D01*
X133890000Y-69410133D01*
X134430400Y-69302641D01*
X134888529Y-68996529D01*
X135194641Y-68538399D01*
X135275000Y-68134406D01*
X135275000Y-67361593D01*
X135194641Y-66957600D01*
X134888528Y-66499471D01*
X134430399Y-66193359D01*
X133890000Y-66085867D01*
X133349600Y-66193359D01*
X132891471Y-66499472D01*
X132620000Y-66905757D01*
X132348528Y-66499471D01*
X131890399Y-66193359D01*
X131350000Y-66085867D01*
X130809600Y-66193359D01*
X130351471Y-66499472D01*
X130080000Y-66905757D01*
X129808528Y-66499471D01*
X129350399Y-66193359D01*
X128810000Y-66085867D01*
X128269600Y-66193359D01*
X127811471Y-66499472D01*
X127540000Y-66905757D01*
X127268528Y-66499471D01*
X126810399Y-66193359D01*
X126270000Y-66085867D01*
X125729600Y-66193359D01*
X125271471Y-66499472D01*
X125000000Y-66905757D01*
X124728528Y-66499471D01*
X124270399Y-66193359D01*
X123730000Y-66085867D01*
X123189600Y-66193359D01*
X122731471Y-66499472D01*
X122460000Y-66905757D01*
X122188528Y-66499471D01*
X121730399Y-66193359D01*
X121190000Y-66085867D01*
X120649600Y-66193359D01*
X120191471Y-66499472D01*
X119920000Y-66905757D01*
X119648528Y-66499471D01*
X119190399Y-66193359D01*
X118650000Y-66085867D01*
X118109600Y-66193359D01*
X117651471Y-66499472D01*
X117502386Y-66722593D01*
X117458157Y-66500235D01*
X117317809Y-66290191D01*
X117107765Y-66149843D01*
X116860000Y-66100560D01*
X115360000Y-66100560D01*
X115112235Y-66149843D01*
X114902191Y-66290191D01*
X114761843Y-66500235D01*
X114712560Y-66748000D01*
X114712560Y-68748000D01*
X114761843Y-68995765D01*
X114902191Y-69205809D01*
X115112235Y-69346157D01*
X115221000Y-69367792D01*
X115221000Y-69716707D01*
X81085943Y-69716707D01*
X80446531Y-69077296D01*
X80446529Y-69077293D01*
X80446525Y-69077289D01*
X80425105Y-69045231D01*
X80458157Y-68995765D01*
X80505746Y-68756517D01*
X80733106Y-69050736D01*
X81205765Y-69321481D01*
X81308815Y-69340318D01*
X81523000Y-69217656D01*
X81523000Y-67875000D01*
X81503000Y-67875000D01*
X81503000Y-67621000D01*
X81523000Y-67621000D01*
X81523000Y-67601000D01*
X81777000Y-67601000D01*
X81777000Y-67621000D01*
X81797000Y-67621000D01*
X81797000Y-67875000D01*
X81777000Y-67875000D01*
X81777000Y-69217656D01*
X81991185Y-69340318D01*
X82094235Y-69321481D01*
X82566894Y-69050736D01*
X82899964Y-68619721D01*
X82911447Y-68577443D01*
X83191472Y-68996529D01*
X83649601Y-69302641D01*
X84190000Y-69410133D01*
X84730400Y-69302641D01*
X85188529Y-68996529D01*
X85460000Y-68590243D01*
X85731472Y-68996529D01*
X86189601Y-69302641D01*
X86730000Y-69410133D01*
X87270400Y-69302641D01*
X87728529Y-68996529D01*
X88000000Y-68590243D01*
X88271472Y-68996529D01*
X88729601Y-69302641D01*
X89270000Y-69410133D01*
X89810400Y-69302641D01*
X90268529Y-68996529D01*
X90540000Y-68590243D01*
X90811472Y-68996529D01*
X91269601Y-69302641D01*
X91810000Y-69410133D01*
X92350400Y-69302641D01*
X92808529Y-68996529D01*
X93080000Y-68590243D01*
X93351472Y-68996529D01*
X93809601Y-69302641D01*
X94350000Y-69410133D01*
X94890400Y-69302641D01*
X95348529Y-68996529D01*
X95620000Y-68590243D01*
X95891472Y-68996529D01*
X96349601Y-69302641D01*
X96890000Y-69410133D01*
X97430400Y-69302641D01*
X97888529Y-68996529D01*
X98194641Y-68538399D01*
X98275000Y-68134406D01*
X98275000Y-67361593D01*
X98194641Y-66957600D01*
X97888528Y-66499471D01*
X97430399Y-66193359D01*
X96890000Y-66085867D01*
X96349600Y-66193359D01*
X95891471Y-66499472D01*
X95620000Y-66905757D01*
X95348528Y-66499471D01*
X94890399Y-66193359D01*
X94350000Y-66085867D01*
X93809600Y-66193359D01*
X93351471Y-66499472D01*
X93080000Y-66905757D01*
X92808528Y-66499471D01*
X92350399Y-66193359D01*
X91810000Y-66085867D01*
X91269600Y-66193359D01*
X90811471Y-66499472D01*
X90540000Y-66905757D01*
X90268528Y-66499471D01*
X89810399Y-66193359D01*
X89270000Y-66085867D01*
X88988635Y-66141834D01*
X88785321Y-65938520D01*
X88742919Y-65875061D01*
X88491527Y-65707086D01*
X88269842Y-65662990D01*
X88269837Y-65662990D01*
X88194990Y-65648102D01*
X88120143Y-65662990D01*
X78174854Y-65662990D01*
X78162307Y-65660494D01*
X96849792Y-46973010D01*
X120040143Y-46973010D01*
X120114990Y-46987898D01*
X120189837Y-46973010D01*
X120189842Y-46973010D01*
X120411527Y-46928914D01*
X120662919Y-46760939D01*
X120705321Y-46697480D01*
X120908635Y-46494166D01*
X121190000Y-46550133D01*
X121730400Y-46442641D01*
X122188529Y-46136529D01*
X122460000Y-45730243D01*
X122731472Y-46136529D01*
X123189601Y-46442641D01*
X123730000Y-46550133D01*
X124270400Y-46442641D01*
X124728529Y-46136529D01*
X125000000Y-45730243D01*
X125271472Y-46136529D01*
X125729601Y-46442641D01*
X126270000Y-46550133D01*
X126810400Y-46442641D01*
X127268529Y-46136529D01*
X127540000Y-45730243D01*
X127811472Y-46136529D01*
X128269601Y-46442641D01*
X128810000Y-46550133D01*
X129350400Y-46442641D01*
X129808529Y-46136529D01*
X130080000Y-45730243D01*
X130351472Y-46136529D01*
X130809601Y-46442641D01*
X131350000Y-46550133D01*
X131890400Y-46442641D01*
X132348529Y-46136529D01*
X132620000Y-45730243D01*
X132891472Y-46136529D01*
X133349601Y-46442641D01*
X133890000Y-46550133D01*
X134430400Y-46442641D01*
X134888529Y-46136529D01*
X135194641Y-45678399D01*
X135275000Y-45274406D01*
X135275000Y-44501593D01*
X135194641Y-44097600D01*
X134888528Y-43639471D01*
X134430399Y-43333359D01*
X133890000Y-43225867D01*
X133349600Y-43333359D01*
X132891471Y-43639472D01*
X132620000Y-44045757D01*
X132348528Y-43639471D01*
X131890399Y-43333359D01*
X131350000Y-43225867D01*
X130809600Y-43333359D01*
X130351471Y-43639472D01*
X130080000Y-44045757D01*
X129808528Y-43639471D01*
X129350399Y-43333359D01*
X128810000Y-43225867D01*
X128269600Y-43333359D01*
X127811471Y-43639472D01*
X127540000Y-44045757D01*
X127268528Y-43639471D01*
X126810399Y-43333359D01*
X126270000Y-43225867D01*
X125729600Y-43333359D01*
X125271471Y-43639472D01*
X125000000Y-44045757D01*
X124728528Y-43639471D01*
X124270399Y-43333359D01*
X123730000Y-43225867D01*
X123189600Y-43333359D01*
X122731471Y-43639472D01*
X122460000Y-44045757D01*
X122188528Y-43639471D01*
X121730399Y-43333359D01*
X121190000Y-43225867D01*
X120649600Y-43333359D01*
X120191471Y-43639472D01*
X119911447Y-44058557D01*
X119899964Y-44016279D01*
X119566894Y-43585264D01*
X119094235Y-43314519D01*
X118991185Y-43295682D01*
X118777000Y-43418344D01*
X118777000Y-44761000D01*
X118797000Y-44761000D01*
X118797000Y-45015000D01*
X118777000Y-45015000D01*
X118777000Y-45035000D01*
X118523000Y-45035000D01*
X118523000Y-45015000D01*
X118503000Y-45015000D01*
X118503000Y-44761000D01*
X118523000Y-44761000D01*
X118523000Y-43418344D01*
X118308815Y-43295682D01*
X118205765Y-43314519D01*
X117733106Y-43585264D01*
X117505746Y-43879483D01*
X117458157Y-43640235D01*
X117317809Y-43430191D01*
X117107765Y-43289843D01*
X116860000Y-43240560D01*
X115360000Y-43240560D01*
X115112235Y-43289843D01*
X114902191Y-43430191D01*
X114761843Y-43640235D01*
X114712560Y-43888000D01*
X114712560Y-45453010D01*
X98239474Y-45453010D01*
X98275000Y-45274406D01*
X98275000Y-44501593D01*
X98194641Y-44097600D01*
X97888528Y-43639471D01*
X97430399Y-43333359D01*
X96890000Y-43225867D01*
X96349600Y-43333359D01*
X95891471Y-43639472D01*
X95620000Y-44045757D01*
X95348528Y-43639471D01*
X94890399Y-43333359D01*
X94350000Y-43225867D01*
X93809600Y-43333359D01*
X93351471Y-43639472D01*
X93080000Y-44045757D01*
X92808528Y-43639471D01*
X92350399Y-43333359D01*
X91810000Y-43225867D01*
X91269600Y-43333359D01*
X90811471Y-43639472D01*
X90540000Y-44045757D01*
X90268528Y-43639471D01*
X89810399Y-43333359D01*
X89270000Y-43225867D01*
X88729600Y-43333359D01*
X88271471Y-43639472D01*
X88000000Y-44045757D01*
X87728528Y-43639471D01*
X87270399Y-43333359D01*
X86730000Y-43225867D01*
X86189600Y-43333359D01*
X85731471Y-43639472D01*
X85460000Y-44045757D01*
X85188528Y-43639471D01*
X84730399Y-43333359D01*
X84190000Y-43225867D01*
X83649600Y-43333359D01*
X83191471Y-43639472D01*
X82920000Y-44045757D01*
X82648528Y-43639471D01*
X82190399Y-43333359D01*
X81650000Y-43225867D01*
X81109600Y-43333359D01*
X80651471Y-43639472D01*
X80502386Y-43862593D01*
X80458157Y-43640235D01*
X80317809Y-43430191D01*
X80107765Y-43289843D01*
X79860000Y-43240560D01*
X78360000Y-43240560D01*
X78112235Y-43289843D01*
X77902191Y-43430191D01*
X77761843Y-43640235D01*
X77712560Y-43888000D01*
X77712560Y-45888000D01*
X77761843Y-46135765D01*
X77902191Y-46345809D01*
X78112235Y-46486157D01*
X78360000Y-46535440D01*
X79860000Y-46535440D01*
X80107765Y-46486157D01*
X80317809Y-46345809D01*
X80458157Y-46135765D01*
X80502386Y-45913407D01*
X80651472Y-46136529D01*
X81109601Y-46442641D01*
X81650000Y-46550133D01*
X82190400Y-46442641D01*
X82648529Y-46136529D01*
X82920000Y-45730243D01*
X83191472Y-46136529D01*
X83649601Y-46442641D01*
X84190000Y-46550133D01*
X84730400Y-46442641D01*
X85188529Y-46136529D01*
X85460000Y-45730243D01*
X85731472Y-46136529D01*
X86189601Y-46442641D01*
X86730000Y-46550133D01*
X87270400Y-46442641D01*
X87728529Y-46136529D01*
X88000000Y-45730243D01*
X88271472Y-46136529D01*
X88729601Y-46442641D01*
X89270000Y-46550133D01*
X89810400Y-46442641D01*
X90268529Y-46136529D01*
X90540000Y-45730243D01*
X90811472Y-46136529D01*
X91269601Y-46442641D01*
X91810000Y-46550133D01*
X92350400Y-46442641D01*
X92808529Y-46136529D01*
X93080000Y-45730243D01*
X93351472Y-46136529D01*
X93809601Y-46442641D01*
X94350000Y-46550133D01*
X94890400Y-46442641D01*
X95348529Y-46136529D01*
X95620000Y-45730243D01*
X95749358Y-45923840D01*
X75265518Y-66407681D01*
X75202062Y-66450081D01*
X75159662Y-66513537D01*
X75159661Y-66513538D01*
X75034087Y-66701473D01*
X74975102Y-66998010D01*
X74878000Y-66998010D01*
X74878000Y-42366000D01*
X140006000Y-42366000D01*
X140006001Y-128322000D01*
X140006001Y-128322000D01*
G37*
X140006001Y-128322000D02*
X74878000Y-128322000D01*
X74878000Y-66998010D01*
X74975102Y-66998010D01*
X74989991Y-67072862D01*
X74989990Y-97284555D01*
X74975102Y-97359402D01*
X74989990Y-97434249D01*
X74989990Y-97434253D01*
X75034086Y-97655938D01*
X75202061Y-97907331D01*
X75265520Y-97949733D01*
X77323280Y-100007494D01*
X77365678Y-100070947D01*
X77429131Y-100113345D01*
X77429134Y-100113348D01*
X77617070Y-100238923D01*
X77913607Y-100297907D01*
X77988460Y-100283018D01*
X95200221Y-100283020D01*
X98673760Y-103756560D01*
X98541000Y-103756560D01*
X98293235Y-103805843D01*
X98083191Y-103946191D01*
X97942843Y-104156235D01*
X97893560Y-104404000D01*
X97893560Y-106444768D01*
X97790000Y-106599757D01*
X97518529Y-106193471D01*
X97060400Y-105887359D01*
X96520000Y-105779867D01*
X95979601Y-105887359D01*
X95521472Y-106193471D01*
X95378440Y-106407533D01*
X95378440Y-104404000D01*
X95329157Y-104156235D01*
X95188809Y-103946191D01*
X94978765Y-103805843D01*
X94731000Y-103756560D01*
X93461000Y-103756560D01*
X93213235Y-103805843D01*
X93003191Y-103946191D01*
X92862843Y-104156235D01*
X92813560Y-104404000D01*
X92813560Y-106444768D01*
X92710000Y-106599757D01*
X92438529Y-106193471D01*
X91980400Y-105887359D01*
X91440000Y-105779867D01*
X90899601Y-105887359D01*
X90441472Y-106193471D01*
X90298440Y-106407533D01*
X90298440Y-104404000D01*
X90249157Y-104156235D01*
X90108809Y-103946191D01*
X89898765Y-103805843D01*
X89651000Y-103756560D01*
X88381000Y-103756560D01*
X88133235Y-103805843D01*
X87923191Y-103946191D01*
X87782843Y-104156235D01*
X87733560Y-104404000D01*
X87733560Y-106444768D01*
X87630000Y-106599757D01*
X87358529Y-106193471D01*
X86900400Y-105887359D01*
X86360000Y-105779867D01*
X85819601Y-105887359D01*
X85361472Y-106193471D01*
X85055359Y-106651600D01*
X84975000Y-107055593D01*
X84975000Y-107828406D01*
X85055359Y-108232399D01*
X85361471Y-108690528D01*
X85819600Y-108996641D01*
X86360000Y-109104133D01*
X86900399Y-108996641D01*
X87358528Y-108690529D01*
X87630000Y-108284243D01*
X87901471Y-108690528D01*
X88359600Y-108996641D01*
X88900000Y-109104133D01*
X89440399Y-108996641D01*
X89898528Y-108690529D01*
X90170000Y-108284243D01*
X90273560Y-108439231D01*
X90273560Y-110964000D01*
X90322843Y-111211765D01*
X90463191Y-111421809D01*
X90673235Y-111562157D01*
X90921000Y-111611440D01*
X92191000Y-111611440D01*
X92438765Y-111562157D01*
X92648809Y-111421809D01*
X92789157Y-111211765D01*
X92838440Y-110964000D01*
X92838440Y-108476467D01*
X92981471Y-108690528D01*
X93439600Y-108996641D01*
X93980000Y-109104133D01*
X94520399Y-108996641D01*
X94978528Y-108690529D01*
X95250000Y-108284243D01*
X95353560Y-108439231D01*
X95353560Y-110964000D01*
X95402843Y-111211765D01*
X95543191Y-111421809D01*
X95753235Y-111562157D01*
X96001000Y-111611440D01*
X97271000Y-111611440D01*
X97518765Y-111562157D01*
X97728809Y-111421809D01*
X97869157Y-111211765D01*
X97918440Y-110964000D01*
X97918440Y-108476467D01*
X98061471Y-108690528D01*
X98519600Y-108996641D01*
X99060000Y-109104133D01*
X99600399Y-108996641D01*
X100058528Y-108690529D01*
X100330000Y-108284243D01*
X100433560Y-108439231D01*
X100433560Y-110964000D01*
X100482843Y-111211765D01*
X100623191Y-111421809D01*
X100833235Y-111562157D01*
X101081000Y-111611440D01*
X102351000Y-111611440D01*
X102598765Y-111562157D01*
X102808809Y-111421809D01*
X102949157Y-111211765D01*
X102998440Y-110964000D01*
X102998440Y-108476467D01*
X103141471Y-108690528D01*
X103599600Y-108996641D01*
X104140000Y-109104133D01*
X104680399Y-108996641D01*
X105138528Y-108690529D01*
X105410000Y-108284243D01*
X105513560Y-108439231D01*
X105513560Y-110964000D01*
X105562843Y-111211765D01*
X105703191Y-111421809D01*
X105913235Y-111562157D01*
X106161000Y-111611440D01*
X106996001Y-111611440D01*
X106996002Y-121082724D01*
X106680000Y-121019867D01*
X106139601Y-121127359D01*
X105681472Y-121433471D01*
X105538440Y-121647533D01*
X105538440Y-119644000D01*
X105489157Y-119396235D01*
X105348809Y-119186191D01*
X105138765Y-119045843D01*
X104891000Y-118996560D01*
X103621000Y-118996560D01*
X103373235Y-119045843D01*
X103163191Y-119186191D01*
X103022843Y-119396235D01*
X102973560Y-119644000D01*
X102973560Y-121684768D01*
X102870000Y-121839757D01*
X102598529Y-121433471D01*
X102140400Y-121127359D01*
X101600000Y-121019867D01*
X101059601Y-121127359D01*
X100601472Y-121433471D01*
X100458440Y-121647533D01*
X100458440Y-119644000D01*
X100409157Y-119396235D01*
X100268809Y-119186191D01*
X100058765Y-119045843D01*
X99811000Y-118996560D01*
X98541000Y-118996560D01*
X98293235Y-119045843D01*
X98083191Y-119186191D01*
X97942843Y-119396235D01*
X97893560Y-119644000D01*
X97893560Y-121684768D01*
X97790000Y-121839757D01*
X97518529Y-121433471D01*
X97060400Y-121127359D01*
X96520000Y-121019867D01*
X95979601Y-121127359D01*
X95521472Y-121433471D01*
X95378440Y-121647533D01*
X95378440Y-119644000D01*
X95329157Y-119396235D01*
X95188809Y-119186191D01*
X94978765Y-119045843D01*
X94731000Y-118996560D01*
X93461000Y-118996560D01*
X93213235Y-119045843D01*
X93003191Y-119186191D01*
X92862843Y-119396235D01*
X92813560Y-119644000D01*
X92813560Y-121684768D01*
X92710000Y-121839757D01*
X92438529Y-121433471D01*
X91980400Y-121127359D01*
X91440000Y-121019867D01*
X90899601Y-121127359D01*
X90441472Y-121433471D01*
X90298440Y-121647533D01*
X90298440Y-119644000D01*
X90249157Y-119396235D01*
X90108809Y-119186191D01*
X89898765Y-119045843D01*
X89651000Y-118996560D01*
X88381000Y-118996560D01*
X88133235Y-119045843D01*
X87923191Y-119186191D01*
X87782843Y-119396235D01*
X87733560Y-119644000D01*
X87733560Y-121684768D01*
X87630000Y-121839757D01*
X87358529Y-121433471D01*
X86900400Y-121127359D01*
X86360000Y-121019867D01*
X85819601Y-121127359D01*
X85361472Y-121433471D01*
X85055359Y-121891600D01*
X84975000Y-122295593D01*
X84975000Y-123068406D01*
X85055359Y-123472399D01*
X85361471Y-123930528D01*
X85819600Y-124236641D01*
X86360000Y-124344133D01*
X86900399Y-124236641D01*
X87358528Y-123930529D01*
X87630000Y-123524243D01*
X87901471Y-123930528D01*
X88359600Y-124236641D01*
X88900000Y-124344133D01*
X89440399Y-124236641D01*
X89898528Y-123930529D01*
X90170000Y-123524243D01*
X90273560Y-123679231D01*
X90273560Y-126204000D01*
X90322843Y-126451765D01*
X90463191Y-126661809D01*
X90673235Y-126802157D01*
X90921000Y-126851440D01*
X92191000Y-126851440D01*
X92438765Y-126802157D01*
X92648809Y-126661809D01*
X92789157Y-126451765D01*
X92838440Y-126204000D01*
X92838440Y-123716467D01*
X92981471Y-123930528D01*
X93439600Y-124236641D01*
X93980000Y-124344133D01*
X94520399Y-124236641D01*
X94978528Y-123930529D01*
X95250000Y-123524243D01*
X95353560Y-123679231D01*
X95353560Y-126204000D01*
X95402843Y-126451765D01*
X95543191Y-126661809D01*
X95753235Y-126802157D01*
X96001000Y-126851440D01*
X97271000Y-126851440D01*
X97518765Y-126802157D01*
X97728809Y-126661809D01*
X97869157Y-126451765D01*
X97918440Y-126204000D01*
X97918440Y-123716467D01*
X98061471Y-123930528D01*
X98519600Y-124236641D01*
X99060000Y-124344133D01*
X99600399Y-124236641D01*
X100058528Y-123930529D01*
X100330000Y-123524243D01*
X100433560Y-123679231D01*
X100433560Y-126204000D01*
X100482843Y-126451765D01*
X100623191Y-126661809D01*
X100833235Y-126802157D01*
X101081000Y-126851440D01*
X102351000Y-126851440D01*
X102598765Y-126802157D01*
X102808809Y-126661809D01*
X102949157Y-126451765D01*
X102998440Y-126204000D01*
X102998440Y-123716467D01*
X103141471Y-123930528D01*
X103599600Y-124236641D01*
X104140000Y-124344133D01*
X104680399Y-124236641D01*
X105138528Y-123930529D01*
X105410000Y-123524243D01*
X105513560Y-123679231D01*
X105513560Y-126204000D01*
X105562843Y-126451765D01*
X105703191Y-126661809D01*
X105913235Y-126802157D01*
X106161000Y-126851440D01*
X107431000Y-126851440D01*
X107678765Y-126802157D01*
X107888809Y-126661809D01*
X108029157Y-126451765D01*
X108078440Y-126204000D01*
X108078440Y-123716467D01*
X108221471Y-123930528D01*
X108679600Y-124236641D01*
X109220000Y-124344133D01*
X109760399Y-124236641D01*
X110218528Y-123930529D01*
X110490000Y-123524243D01*
X110593560Y-123679231D01*
X110593560Y-126204000D01*
X110642843Y-126451765D01*
X110783191Y-126661809D01*
X110993235Y-126802157D01*
X111241000Y-126851440D01*
X112511000Y-126851440D01*
X112758765Y-126802157D01*
X112968809Y-126661809D01*
X113109157Y-126451765D01*
X113158440Y-126204000D01*
X113158440Y-123716467D01*
X113301471Y-123930528D01*
X113759600Y-124236641D01*
X114300000Y-124344133D01*
X114840399Y-124236641D01*
X115298528Y-123930529D01*
X115570000Y-123524243D01*
X115673560Y-123679231D01*
X115673560Y-126204000D01*
X115722843Y-126451765D01*
X115863191Y-126661809D01*
X116073235Y-126802157D01*
X116321000Y-126851440D01*
X117591000Y-126851440D01*
X117838765Y-126802157D01*
X118048809Y-126661809D01*
X118189157Y-126451765D01*
X118238440Y-126204000D01*
X118238440Y-125009750D01*
X120766000Y-125009750D01*
X120766000Y-126330310D01*
X120862673Y-126563699D01*
X121041302Y-126742327D01*
X121274691Y-126839000D01*
X121750250Y-126839000D01*
X121909000Y-126680250D01*
X121909000Y-124851000D01*
X122163000Y-124851000D01*
X122163000Y-126680250D01*
X122321750Y-126839000D01*
X122797309Y-126839000D01*
X123030698Y-126742327D01*
X123209327Y-126563699D01*
X123306000Y-126330310D01*
X123306000Y-125009750D01*
X123147250Y-124851000D01*
X122163000Y-124851000D01*
X121909000Y-124851000D01*
X120924750Y-124851000D01*
X120766000Y-125009750D01*
X118238440Y-125009750D01*
X118238440Y-124493523D01*
X118610716Y-124121246D01*
X118638809Y-124102476D01*
X118839600Y-124236641D01*
X119380000Y-124344133D01*
X119920399Y-124236641D01*
X120378528Y-123930529D01*
X120658553Y-123511443D01*
X120670036Y-123553721D01*
X120766000Y-123677905D01*
X120766000Y-124438250D01*
X120924750Y-124597000D01*
X121909000Y-124597000D01*
X121909000Y-122767750D01*
X121773000Y-122631750D01*
X121773000Y-122555000D01*
X121793000Y-122555000D01*
X121793000Y-121212344D01*
X122047000Y-121212344D01*
X122047000Y-122555000D01*
X122067000Y-122555000D01*
X122067000Y-122809000D01*
X122047000Y-122809000D01*
X122047000Y-124151656D01*
X122163000Y-124218088D01*
X122163000Y-124597000D01*
X123147250Y-124597000D01*
X123306000Y-124438250D01*
X123306000Y-124175763D01*
X123462235Y-124280157D01*
X123710000Y-124329440D01*
X125210000Y-124329440D01*
X125457765Y-124280157D01*
X125667809Y-124139809D01*
X125808157Y-123929765D01*
X125857440Y-123682000D01*
X125857440Y-122609027D01*
X125858440Y-122604000D01*
X125858440Y-119644000D01*
X125809157Y-119396235D01*
X125668809Y-119186191D01*
X125458765Y-119045843D01*
X125211000Y-118996560D01*
X123941000Y-118996560D01*
X123693235Y-119045843D01*
X123483191Y-119186191D01*
X123342843Y-119396235D01*
X123293560Y-119644000D01*
X123293560Y-121196549D01*
X123252191Y-121224191D01*
X123111843Y-121434235D01*
X123064254Y-121673483D01*
X122836894Y-121379264D01*
X122364235Y-121108519D01*
X122261185Y-121089682D01*
X122047000Y-121212344D01*
X121793000Y-121212344D01*
X121578815Y-121089682D01*
X121475765Y-121108519D01*
X121003106Y-121379264D01*
X120778440Y-121669997D01*
X120778440Y-119644000D01*
X120729157Y-119396235D01*
X120588809Y-119186191D01*
X120378765Y-119045843D01*
X120131000Y-118996560D01*
X119948473Y-118996560D01*
X121819283Y-117125750D01*
X132223000Y-117125750D01*
X132223000Y-117966310D01*
X132319673Y-118199699D01*
X132498302Y-118378327D01*
X132731691Y-118475000D01*
X133572250Y-118475000D01*
X133731000Y-118316250D01*
X133731000Y-116967000D01*
X133985000Y-116967000D01*
X133985000Y-118316250D01*
X134143750Y-118475000D01*
X134984309Y-118475000D01*
X135217698Y-118378327D01*
X135396327Y-118199699D01*
X135419568Y-118143590D01*
X135438006Y-118163505D01*
X136017565Y-118430133D01*
X136271000Y-118311319D01*
X136271000Y-116967000D01*
X136525000Y-116967000D01*
X136525000Y-118311319D01*
X136778435Y-118430133D01*
X137357994Y-118163505D01*
X137791402Y-117695385D01*
X137988124Y-117220434D01*
X137868777Y-116967000D01*
X136525000Y-116967000D01*
X136271000Y-116967000D01*
X133985000Y-116967000D01*
X133731000Y-116967000D01*
X132381750Y-116967000D01*
X132223000Y-117125750D01*
X121819283Y-117125750D01*
X128185033Y-110760000D01*
X132210560Y-110760000D01*
X132210560Y-112760000D01*
X132259843Y-113007765D01*
X132274700Y-113030000D01*
X132259843Y-113052235D01*
X132210560Y-113300000D01*
X132210560Y-115300000D01*
X132259843Y-115547765D01*
X132279526Y-115577223D01*
X132223000Y-115713690D01*
X132223000Y-116554250D01*
X132381750Y-116713000D01*
X133731000Y-116713000D01*
X133731000Y-116693000D01*
X133985000Y-116693000D01*
X133985000Y-116713000D01*
X136271000Y-116713000D01*
X136271000Y-116693000D01*
X136525000Y-116693000D01*
X136525000Y-116713000D01*
X137868777Y-116713000D01*
X137988124Y-116459566D01*
X137791402Y-115984615D01*
X137420029Y-115583499D01*
X137576769Y-115478769D01*
X137938136Y-114937945D01*
X138065031Y-114300000D01*
X137938136Y-113662055D01*
X137576769Y-113121231D01*
X137440232Y-113030000D01*
X137576769Y-112938769D01*
X137938136Y-112397945D01*
X138065031Y-111760000D01*
X137938136Y-111122055D01*
X137576769Y-110581231D01*
X137035945Y-110219864D01*
X136559031Y-110125000D01*
X136236969Y-110125000D01*
X135760055Y-110219864D01*
X135414900Y-110450489D01*
X135315809Y-110302191D01*
X135105765Y-110161843D01*
X134858000Y-110112560D01*
X132858000Y-110112560D01*
X132610235Y-110161843D01*
X132400191Y-110302191D01*
X132259843Y-110512235D01*
X132210560Y-110760000D01*
X128185033Y-110760000D01*
X130224367Y-108720667D01*
X130423163Y-108681124D01*
X130717226Y-108484638D01*
X130913712Y-108190575D01*
X130982709Y-107843705D01*
X130965293Y-107756149D01*
X130965293Y-91557000D01*
X132072560Y-91557000D01*
X132072560Y-92827000D01*
X132121843Y-93074765D01*
X132262191Y-93284809D01*
X132472235Y-93425157D01*
X132720000Y-93474440D01*
X135298104Y-93474440D01*
X134895471Y-93743471D01*
X134589359Y-94201600D01*
X134481867Y-94742000D01*
X134589359Y-95282400D01*
X134895471Y-95740529D01*
X135353600Y-96046641D01*
X135757593Y-96127000D01*
X136530407Y-96127000D01*
X136934400Y-96046641D01*
X137392529Y-95740529D01*
X137698641Y-95282400D01*
X137806133Y-94742000D01*
X137698641Y-94201600D01*
X137392529Y-93743471D01*
X136986244Y-93472000D01*
X137392529Y-93200529D01*
X137698641Y-92742400D01*
X137806133Y-92202000D01*
X137698641Y-91661600D01*
X137392529Y-91203471D01*
X136989896Y-90934440D01*
X139280000Y-90934440D01*
X139527765Y-90885157D01*
X139737809Y-90744809D01*
X139878157Y-90534765D01*
X139927440Y-90287000D01*
X139927440Y-89017000D01*
X139878157Y-88769235D01*
X139737809Y-88559191D01*
X139527765Y-88418843D01*
X139280000Y-88369560D01*
X137018832Y-88369560D01*
X137446736Y-88038894D01*
X137717481Y-87566235D01*
X137736318Y-87463185D01*
X137613656Y-87249000D01*
X136271000Y-87249000D01*
X136271000Y-87269000D01*
X136186250Y-87269000D01*
X136156250Y-87239000D01*
X134327000Y-87239000D01*
X134327000Y-88223250D01*
X134485750Y-88382000D01*
X135309229Y-88382000D01*
X135314557Y-88383447D01*
X134895471Y-88663471D01*
X134589359Y-89121600D01*
X134481867Y-89662000D01*
X134589359Y-90202400D01*
X134895471Y-90660529D01*
X135268172Y-90909560D01*
X132720000Y-90909560D01*
X132472235Y-90958843D01*
X132262191Y-91099191D01*
X132121843Y-91309235D01*
X132072560Y-91557000D01*
X130965293Y-91557000D01*
X130965293Y-87397750D01*
X132085000Y-87397750D01*
X132085000Y-87873309D01*
X132181673Y-88106698D01*
X132360301Y-88285327D01*
X132593690Y-88382000D01*
X133914250Y-88382000D01*
X134073000Y-88223250D01*
X134073000Y-87239000D01*
X132243750Y-87239000D01*
X132085000Y-87397750D01*
X130965293Y-87397750D01*
X130965293Y-86627777D01*
X131202747Y-86675010D01*
X131202751Y-86675010D01*
X131290302Y-86692425D01*
X131377853Y-86675010D01*
X132085000Y-86675010D01*
X132085000Y-86826250D01*
X132243750Y-86985000D01*
X134073000Y-86985000D01*
X134073000Y-86965000D01*
X134327000Y-86965000D01*
X134327000Y-86985000D01*
X134668617Y-86985000D01*
X134674344Y-86995000D01*
X136017000Y-86995000D01*
X136017000Y-86985000D01*
X136156250Y-86985000D01*
X136166250Y-86975000D01*
X136271000Y-86975000D01*
X136271000Y-86995000D01*
X137613656Y-86995000D01*
X137736318Y-86780815D01*
X137719828Y-86690603D01*
X137728990Y-86692426D01*
X137816545Y-86675010D01*
X137816546Y-86675010D01*
X138075860Y-86623429D01*
X138369923Y-86426943D01*
X138398366Y-86384375D01*
X138440933Y-86355933D01*
X138637419Y-86061870D01*
X138678680Y-85854440D01*
X139280000Y-85854440D01*
X139527765Y-85805157D01*
X139737809Y-85664809D01*
X139878157Y-85454765D01*
X139927440Y-85207000D01*
X139927440Y-83937000D01*
X139878157Y-83689235D01*
X139737809Y-83479191D01*
X139527765Y-83338843D01*
X139280000Y-83289560D01*
X137542318Y-83289560D01*
X137601809Y-83249809D01*
X137742157Y-83039765D01*
X137791440Y-82792000D01*
X137791440Y-81292000D01*
X137742157Y-81044235D01*
X137601809Y-80834191D01*
X137391765Y-80693843D01*
X137144000Y-80644560D01*
X135144000Y-80644560D01*
X134896235Y-80693843D01*
X134812849Y-80749560D01*
X132720000Y-80749560D01*
X132472235Y-80798843D01*
X132262191Y-80939191D01*
X132121843Y-81149235D01*
X132072560Y-81397000D01*
X132072560Y-82667000D01*
X132121843Y-82914765D01*
X132262191Y-83124809D01*
X132472235Y-83265157D01*
X132720000Y-83314440D01*
X134782917Y-83314440D01*
X134896235Y-83390157D01*
X135118592Y-83434386D01*
X134895471Y-83583471D01*
X134589359Y-84041600D01*
X134481867Y-84582000D01*
X134544526Y-84897010D01*
X131658539Y-84897010D01*
X130766824Y-84005296D01*
X130717226Y-83931067D01*
X130643000Y-83881471D01*
X116999000Y-70237472D01*
X116999000Y-69367791D01*
X117107765Y-69346157D01*
X117317809Y-69205809D01*
X117458157Y-68995765D01*
X117502386Y-68773407D01*
X117651472Y-68996529D01*
X118109601Y-69302641D01*
X118650000Y-69410133D01*
X119190400Y-69302641D01*
X119648529Y-68996529D01*
X119920000Y-68590243D01*
X120191472Y-68996529D01*
X120649601Y-69302641D01*
X121190000Y-69410133D01*
X121730400Y-69302641D01*
X122188529Y-68996529D01*
X122460000Y-68590243D01*
X122731472Y-68996529D01*
X123189601Y-69302641D01*
X123730000Y-69410133D01*
X124270400Y-69302641D01*
X124728529Y-68996529D01*
X125000000Y-68590243D01*
X125271472Y-68996529D01*
X125729601Y-69302641D01*
X126270000Y-69410133D01*
X126810400Y-69302641D01*
X127268529Y-68996529D01*
X127540000Y-68590243D01*
X127811472Y-68996529D01*
X128269601Y-69302641D01*
X128810000Y-69410133D01*
X129350400Y-69302641D01*
X129808529Y-68996529D01*
X130080000Y-68590243D01*
X130351472Y-68996529D01*
X130809601Y-69302641D01*
X131350000Y-69410133D01*
X131890400Y-69302641D01*
X132348529Y-68996529D01*
X132620000Y-68590243D01*
X132891472Y-68996529D01*
X133349601Y-69302641D01*
X133890000Y-69410133D01*
X134430400Y-69302641D01*
X134888529Y-68996529D01*
X135194641Y-68538399D01*
X135275000Y-68134406D01*
X135275000Y-67361593D01*
X135194641Y-66957600D01*
X134888528Y-66499471D01*
X134430399Y-66193359D01*
X133890000Y-66085867D01*
X133349600Y-66193359D01*
X132891471Y-66499472D01*
X132620000Y-66905757D01*
X132348528Y-66499471D01*
X131890399Y-66193359D01*
X131350000Y-66085867D01*
X130809600Y-66193359D01*
X130351471Y-66499472D01*
X130080000Y-66905757D01*
X129808528Y-66499471D01*
X129350399Y-66193359D01*
X128810000Y-66085867D01*
X128269600Y-66193359D01*
X127811471Y-66499472D01*
X127540000Y-66905757D01*
X127268528Y-66499471D01*
X126810399Y-66193359D01*
X126270000Y-66085867D01*
X125729600Y-66193359D01*
X125271471Y-66499472D01*
X125000000Y-66905757D01*
X124728528Y-66499471D01*
X124270399Y-66193359D01*
X123730000Y-66085867D01*
X123189600Y-66193359D01*
X122731471Y-66499472D01*
X122460000Y-66905757D01*
X122188528Y-66499471D01*
X121730399Y-66193359D01*
X121190000Y-66085867D01*
X120649600Y-66193359D01*
X120191471Y-66499472D01*
X119920000Y-66905757D01*
X119648528Y-66499471D01*
X119190399Y-66193359D01*
X118650000Y-66085867D01*
X118109600Y-66193359D01*
X117651471Y-66499472D01*
X117502386Y-66722593D01*
X117458157Y-66500235D01*
X117317809Y-66290191D01*
X117107765Y-66149843D01*
X116860000Y-66100560D01*
X115360000Y-66100560D01*
X115112235Y-66149843D01*
X114902191Y-66290191D01*
X114761843Y-66500235D01*
X114712560Y-66748000D01*
X114712560Y-68748000D01*
X114761843Y-68995765D01*
X114902191Y-69205809D01*
X115112235Y-69346157D01*
X115221000Y-69367792D01*
X115221000Y-69716707D01*
X81085943Y-69716707D01*
X80446531Y-69077296D01*
X80446529Y-69077293D01*
X80446525Y-69077289D01*
X80425105Y-69045231D01*
X80458157Y-68995765D01*
X80505746Y-68756517D01*
X80733106Y-69050736D01*
X81205765Y-69321481D01*
X81308815Y-69340318D01*
X81523000Y-69217656D01*
X81523000Y-67875000D01*
X81503000Y-67875000D01*
X81503000Y-67621000D01*
X81523000Y-67621000D01*
X81523000Y-67601000D01*
X81777000Y-67601000D01*
X81777000Y-67621000D01*
X81797000Y-67621000D01*
X81797000Y-67875000D01*
X81777000Y-67875000D01*
X81777000Y-69217656D01*
X81991185Y-69340318D01*
X82094235Y-69321481D01*
X82566894Y-69050736D01*
X82899964Y-68619721D01*
X82911447Y-68577443D01*
X83191472Y-68996529D01*
X83649601Y-69302641D01*
X84190000Y-69410133D01*
X84730400Y-69302641D01*
X85188529Y-68996529D01*
X85460000Y-68590243D01*
X85731472Y-68996529D01*
X86189601Y-69302641D01*
X86730000Y-69410133D01*
X87270400Y-69302641D01*
X87728529Y-68996529D01*
X88000000Y-68590243D01*
X88271472Y-68996529D01*
X88729601Y-69302641D01*
X89270000Y-69410133D01*
X89810400Y-69302641D01*
X90268529Y-68996529D01*
X90540000Y-68590243D01*
X90811472Y-68996529D01*
X91269601Y-69302641D01*
X91810000Y-69410133D01*
X92350400Y-69302641D01*
X92808529Y-68996529D01*
X93080000Y-68590243D01*
X93351472Y-68996529D01*
X93809601Y-69302641D01*
X94350000Y-69410133D01*
X94890400Y-69302641D01*
X95348529Y-68996529D01*
X95620000Y-68590243D01*
X95891472Y-68996529D01*
X96349601Y-69302641D01*
X96890000Y-69410133D01*
X97430400Y-69302641D01*
X97888529Y-68996529D01*
X98194641Y-68538399D01*
X98275000Y-68134406D01*
X98275000Y-67361593D01*
X98194641Y-66957600D01*
X97888528Y-66499471D01*
X97430399Y-66193359D01*
X96890000Y-66085867D01*
X96349600Y-66193359D01*
X95891471Y-66499472D01*
X95620000Y-66905757D01*
X95348528Y-66499471D01*
X94890399Y-66193359D01*
X94350000Y-66085867D01*
X93809600Y-66193359D01*
X93351471Y-66499472D01*
X93080000Y-66905757D01*
X92808528Y-66499471D01*
X92350399Y-66193359D01*
X91810000Y-66085867D01*
X91269600Y-66193359D01*
X90811471Y-66499472D01*
X90540000Y-66905757D01*
X90268528Y-66499471D01*
X89810399Y-66193359D01*
X89270000Y-66085867D01*
X88988635Y-66141834D01*
X88785321Y-65938520D01*
X88742919Y-65875061D01*
X88491527Y-65707086D01*
X88269842Y-65662990D01*
X88269837Y-65662990D01*
X88194990Y-65648102D01*
X88120143Y-65662990D01*
X78174854Y-65662990D01*
X78162307Y-65660494D01*
X96849792Y-46973010D01*
X120040143Y-46973010D01*
X120114990Y-46987898D01*
X120189837Y-46973010D01*
X120189842Y-46973010D01*
X120411527Y-46928914D01*
X120662919Y-46760939D01*
X120705321Y-46697480D01*
X120908635Y-46494166D01*
X121190000Y-46550133D01*
X121730400Y-46442641D01*
X122188529Y-46136529D01*
X122460000Y-45730243D01*
X122731472Y-46136529D01*
X123189601Y-46442641D01*
X123730000Y-46550133D01*
X124270400Y-46442641D01*
X124728529Y-46136529D01*
X125000000Y-45730243D01*
X125271472Y-46136529D01*
X125729601Y-46442641D01*
X126270000Y-46550133D01*
X126810400Y-46442641D01*
X127268529Y-46136529D01*
X127540000Y-45730243D01*
X127811472Y-46136529D01*
X128269601Y-46442641D01*
X128810000Y-46550133D01*
X129350400Y-46442641D01*
X129808529Y-46136529D01*
X130080000Y-45730243D01*
X130351472Y-46136529D01*
X130809601Y-46442641D01*
X131350000Y-46550133D01*
X131890400Y-46442641D01*
X132348529Y-46136529D01*
X132620000Y-45730243D01*
X132891472Y-46136529D01*
X133349601Y-46442641D01*
X133890000Y-46550133D01*
X134430400Y-46442641D01*
X134888529Y-46136529D01*
X135194641Y-45678399D01*
X135275000Y-45274406D01*
X135275000Y-44501593D01*
X135194641Y-44097600D01*
X134888528Y-43639471D01*
X134430399Y-43333359D01*
X133890000Y-43225867D01*
X133349600Y-43333359D01*
X132891471Y-43639472D01*
X132620000Y-44045757D01*
X132348528Y-43639471D01*
X131890399Y-43333359D01*
X131350000Y-43225867D01*
X130809600Y-43333359D01*
X130351471Y-43639472D01*
X130080000Y-44045757D01*
X129808528Y-43639471D01*
X129350399Y-43333359D01*
X128810000Y-43225867D01*
X128269600Y-43333359D01*
X127811471Y-43639472D01*
X127540000Y-44045757D01*
X127268528Y-43639471D01*
X126810399Y-43333359D01*
X126270000Y-43225867D01*
X125729600Y-43333359D01*
X125271471Y-43639472D01*
X125000000Y-44045757D01*
X124728528Y-43639471D01*
X124270399Y-43333359D01*
X123730000Y-43225867D01*
X123189600Y-43333359D01*
X122731471Y-43639472D01*
X122460000Y-44045757D01*
X122188528Y-43639471D01*
X121730399Y-43333359D01*
X121190000Y-43225867D01*
X120649600Y-43333359D01*
X120191471Y-43639472D01*
X119911447Y-44058557D01*
X119899964Y-44016279D01*
X119566894Y-43585264D01*
X119094235Y-43314519D01*
X118991185Y-43295682D01*
X118777000Y-43418344D01*
X118777000Y-44761000D01*
X118797000Y-44761000D01*
X118797000Y-45015000D01*
X118777000Y-45015000D01*
X118777000Y-45035000D01*
X118523000Y-45035000D01*
X118523000Y-45015000D01*
X118503000Y-45015000D01*
X118503000Y-44761000D01*
X118523000Y-44761000D01*
X118523000Y-43418344D01*
X118308815Y-43295682D01*
X118205765Y-43314519D01*
X117733106Y-43585264D01*
X117505746Y-43879483D01*
X117458157Y-43640235D01*
X117317809Y-43430191D01*
X117107765Y-43289843D01*
X116860000Y-43240560D01*
X115360000Y-43240560D01*
X115112235Y-43289843D01*
X114902191Y-43430191D01*
X114761843Y-43640235D01*
X114712560Y-43888000D01*
X114712560Y-45453010D01*
X98239474Y-45453010D01*
X98275000Y-45274406D01*
X98275000Y-44501593D01*
X98194641Y-44097600D01*
X97888528Y-43639471D01*
X97430399Y-43333359D01*
X96890000Y-43225867D01*
X96349600Y-43333359D01*
X95891471Y-43639472D01*
X95620000Y-44045757D01*
X95348528Y-43639471D01*
X94890399Y-43333359D01*
X94350000Y-43225867D01*
X93809600Y-43333359D01*
X93351471Y-43639472D01*
X93080000Y-44045757D01*
X92808528Y-43639471D01*
X92350399Y-43333359D01*
X91810000Y-43225867D01*
X91269600Y-43333359D01*
X90811471Y-43639472D01*
X90540000Y-44045757D01*
X90268528Y-43639471D01*
X89810399Y-43333359D01*
X89270000Y-43225867D01*
X88729600Y-43333359D01*
X88271471Y-43639472D01*
X88000000Y-44045757D01*
X87728528Y-43639471D01*
X87270399Y-43333359D01*
X86730000Y-43225867D01*
X86189600Y-43333359D01*
X85731471Y-43639472D01*
X85460000Y-44045757D01*
X85188528Y-43639471D01*
X84730399Y-43333359D01*
X84190000Y-43225867D01*
X83649600Y-43333359D01*
X83191471Y-43639472D01*
X82920000Y-44045757D01*
X82648528Y-43639471D01*
X82190399Y-43333359D01*
X81650000Y-43225867D01*
X81109600Y-43333359D01*
X80651471Y-43639472D01*
X80502386Y-43862593D01*
X80458157Y-43640235D01*
X80317809Y-43430191D01*
X80107765Y-43289843D01*
X79860000Y-43240560D01*
X78360000Y-43240560D01*
X78112235Y-43289843D01*
X77902191Y-43430191D01*
X77761843Y-43640235D01*
X77712560Y-43888000D01*
X77712560Y-45888000D01*
X77761843Y-46135765D01*
X77902191Y-46345809D01*
X78112235Y-46486157D01*
X78360000Y-46535440D01*
X79860000Y-46535440D01*
X80107765Y-46486157D01*
X80317809Y-46345809D01*
X80458157Y-46135765D01*
X80502386Y-45913407D01*
X80651472Y-46136529D01*
X81109601Y-46442641D01*
X81650000Y-46550133D01*
X82190400Y-46442641D01*
X82648529Y-46136529D01*
X82920000Y-45730243D01*
X83191472Y-46136529D01*
X83649601Y-46442641D01*
X84190000Y-46550133D01*
X84730400Y-46442641D01*
X85188529Y-46136529D01*
X85460000Y-45730243D01*
X85731472Y-46136529D01*
X86189601Y-46442641D01*
X86730000Y-46550133D01*
X87270400Y-46442641D01*
X87728529Y-46136529D01*
X88000000Y-45730243D01*
X88271472Y-46136529D01*
X88729601Y-46442641D01*
X89270000Y-46550133D01*
X89810400Y-46442641D01*
X90268529Y-46136529D01*
X90540000Y-45730243D01*
X90811472Y-46136529D01*
X91269601Y-46442641D01*
X91810000Y-46550133D01*
X92350400Y-46442641D01*
X92808529Y-46136529D01*
X93080000Y-45730243D01*
X93351472Y-46136529D01*
X93809601Y-46442641D01*
X94350000Y-46550133D01*
X94890400Y-46442641D01*
X95348529Y-46136529D01*
X95620000Y-45730243D01*
X95749358Y-45923840D01*
X75265518Y-66407681D01*
X75202062Y-66450081D01*
X75159662Y-66513537D01*
X75159661Y-66513538D01*
X75034087Y-66701473D01*
X74975102Y-66998010D01*
X74878000Y-66998010D01*
X74878000Y-42366000D01*
X140006000Y-42366000D01*
X140006001Y-128322000D01*
G36*
X80027178Y-71172413D02*
X80076774Y-71246640D01*
X80370837Y-71443126D01*
X80630151Y-71494707D01*
X80717706Y-71512123D01*
X80805261Y-71494707D01*
X115741765Y-71494707D01*
X129187294Y-84940237D01*
X129187293Y-107226519D01*
X129153564Y-107276998D01*
X117477306Y-118953257D01*
X117403077Y-119002855D01*
X117206591Y-119296919D01*
X117186836Y-119396235D01*
X117137594Y-119643788D01*
X117155010Y-119731343D01*
X117155010Y-121082526D01*
X116840000Y-121019867D01*
X116299601Y-121127359D01*
X115841472Y-121433471D01*
X115698440Y-121647533D01*
X115698440Y-119644000D01*
X115649157Y-119396235D01*
X115508809Y-119186191D01*
X115298765Y-119045843D01*
X115051000Y-118996560D01*
X113781000Y-118996560D01*
X113533235Y-119045843D01*
X113323191Y-119186191D01*
X113182843Y-119396235D01*
X113133560Y-119644000D01*
X113133560Y-121684768D01*
X113030000Y-121839757D01*
X112758529Y-121433471D01*
X112300400Y-121127359D01*
X111760000Y-121019867D01*
X111219601Y-121127359D01*
X110761472Y-121433471D01*
X110618440Y-121647533D01*
X110618440Y-119644000D01*
X110569157Y-119396235D01*
X110504833Y-119299968D01*
X115860477Y-113944326D01*
X115923930Y-113901928D01*
X115966328Y-113838475D01*
X115966330Y-113838473D01*
X116091904Y-113650537D01*
X116091905Y-113650536D01*
X116136001Y-113428851D01*
X116136001Y-113428847D01*
X116150889Y-113354000D01*
X116136001Y-113279153D01*
X116136001Y-111574690D01*
X116194691Y-111599000D01*
X116670250Y-111599000D01*
X116829000Y-111440250D01*
X116829000Y-109611000D01*
X117083000Y-109611000D01*
X117083000Y-111440250D01*
X117241750Y-111599000D01*
X117717309Y-111599000D01*
X117950698Y-111502327D01*
X118129327Y-111323699D01*
X118226000Y-111090310D01*
X118226000Y-109769750D01*
X118067250Y-109611000D01*
X117083000Y-109611000D01*
X116829000Y-109611000D01*
X116809000Y-109611000D01*
X116809000Y-109357000D01*
X116829000Y-109357000D01*
X116829000Y-107527750D01*
X116693000Y-107391750D01*
X116693000Y-107315000D01*
X116713000Y-107315000D01*
X116713000Y-105972344D01*
X116498815Y-105849682D01*
X116395765Y-105868519D01*
X116136001Y-106017315D01*
X116136001Y-85614391D01*
X121276001Y-90754391D01*
X121276000Y-105956583D01*
X120921472Y-106193471D01*
X120778440Y-106407533D01*
X120778440Y-104404000D01*
X120729157Y-104156235D01*
X120588809Y-103946191D01*
X120378765Y-103805843D01*
X120131000Y-103756560D01*
X118861000Y-103756560D01*
X118613235Y-103805843D01*
X118403191Y-103946191D01*
X118262843Y-104156235D01*
X118213560Y-104404000D01*
X118213560Y-106444768D01*
X118101447Y-106612557D01*
X118089964Y-106570279D01*
X117756894Y-106139264D01*
X117284235Y-105868519D01*
X117181185Y-105849682D01*
X116967000Y-105972344D01*
X116967000Y-107315000D01*
X116987000Y-107315000D01*
X116987000Y-107569000D01*
X116967000Y-107569000D01*
X116967000Y-108911656D01*
X117083000Y-108978088D01*
X117083000Y-109357000D01*
X118067250Y-109357000D01*
X118226000Y-109198250D01*
X118226000Y-108457849D01*
X118381471Y-108690528D01*
X118839600Y-108996641D01*
X119380000Y-109104133D01*
X119920399Y-108996641D01*
X120378528Y-108690529D01*
X120650000Y-108284243D01*
X120753560Y-108439231D01*
X120753560Y-110964000D01*
X120802843Y-111211765D01*
X120943191Y-111421809D01*
X121153235Y-111562157D01*
X121401000Y-111611440D01*
X122671000Y-111611440D01*
X122918765Y-111562157D01*
X123128809Y-111421809D01*
X123269157Y-111211765D01*
X123318440Y-110964000D01*
X123318440Y-108944076D01*
X123462235Y-109040157D01*
X123710000Y-109089440D01*
X125210000Y-109089440D01*
X125457765Y-109040157D01*
X125667809Y-108899809D01*
X125808157Y-108689765D01*
X125857440Y-108442000D01*
X125857440Y-107369027D01*
X125858440Y-107364000D01*
X125858440Y-104404000D01*
X125809157Y-104156235D01*
X125668809Y-103946191D01*
X125458765Y-103805843D01*
X125336000Y-103781424D01*
X125336000Y-92418024D01*
X125350888Y-92343177D01*
X125336000Y-92268330D01*
X125336000Y-92268326D01*
X125291904Y-92046641D01*
X125190890Y-91895463D01*
X125166329Y-91858704D01*
X125166327Y-91858702D01*
X125123929Y-91795249D01*
X125060476Y-91752851D01*
X107711153Y-74403530D01*
X107668751Y-74340071D01*
X107417359Y-74172096D01*
X107195674Y-74128000D01*
X107195669Y-74128000D01*
X107120822Y-74113112D01*
X107045975Y-74128000D01*
X98200688Y-74128000D01*
X98194641Y-74097600D01*
X97888528Y-73639471D01*
X97430399Y-73333359D01*
X96890000Y-73225867D01*
X96349600Y-73333359D01*
X95891471Y-73639472D01*
X95620000Y-74045757D01*
X95348528Y-73639471D01*
X94890399Y-73333359D01*
X94350000Y-73225867D01*
X93809600Y-73333359D01*
X93351471Y-73639472D01*
X93080000Y-74045757D01*
X92808528Y-73639471D01*
X92350399Y-73333359D01*
X91810000Y-73225867D01*
X91269600Y-73333359D01*
X90811471Y-73639472D01*
X90540000Y-74045757D01*
X90268528Y-73639471D01*
X89810399Y-73333359D01*
X89270000Y-73225867D01*
X88729600Y-73333359D01*
X88271471Y-73639472D01*
X88000000Y-74045757D01*
X87728528Y-73639471D01*
X87270399Y-73333359D01*
X86730000Y-73225867D01*
X86189600Y-73333359D01*
X85731471Y-73639472D01*
X85460000Y-74045757D01*
X85188528Y-73639471D01*
X84730399Y-73333359D01*
X84190000Y-73225867D01*
X83649600Y-73333359D01*
X83191471Y-73639472D01*
X82911447Y-74058557D01*
X82899964Y-74016279D01*
X82566894Y-73585264D01*
X82094235Y-73314519D01*
X81991185Y-73295682D01*
X81777000Y-73418344D01*
X81777000Y-74761000D01*
X81797000Y-74761000D01*
X81797000Y-75015000D01*
X81777000Y-75015000D01*
X81777000Y-76357656D01*
X81991185Y-76480318D01*
X82094235Y-76461481D01*
X82566894Y-76190736D01*
X82899964Y-75759721D01*
X82911447Y-75717443D01*
X83191472Y-76136529D01*
X83649601Y-76442641D01*
X84190000Y-76550133D01*
X84730400Y-76442641D01*
X85188529Y-76136529D01*
X85460000Y-75730243D01*
X85731472Y-76136529D01*
X86189601Y-76442641D01*
X86730000Y-76550133D01*
X87270400Y-76442641D01*
X87728529Y-76136529D01*
X88000000Y-75730243D01*
X88271472Y-76136529D01*
X88729601Y-76442641D01*
X89270000Y-76550133D01*
X89810400Y-76442641D01*
X90268529Y-76136529D01*
X90540000Y-75730243D01*
X90811472Y-76136529D01*
X91269601Y-76442641D01*
X91810000Y-76550133D01*
X92350400Y-76442641D01*
X92808529Y-76136529D01*
X93080000Y-75730243D01*
X93351472Y-76136529D01*
X93809601Y-76442641D01*
X94350000Y-76550133D01*
X94631365Y-76494166D01*
X94834680Y-76697482D01*
X94877081Y-76760939D01*
X94940537Y-76803339D01*
X95128472Y-76928914D01*
X95176615Y-76938490D01*
X95350158Y-76973010D01*
X95350162Y-76973010D01*
X95425010Y-76987898D01*
X95499858Y-76973010D01*
X107494621Y-76973010D01*
X111166171Y-80644560D01*
X109744000Y-80644560D01*
X109496235Y-80693843D01*
X109412849Y-80749560D01*
X107752000Y-80749560D01*
X107504235Y-80798843D01*
X107294191Y-80939191D01*
X107153843Y-81149235D01*
X107104560Y-81397000D01*
X107104560Y-82667000D01*
X107153843Y-82914765D01*
X107294191Y-83124809D01*
X107504235Y-83265157D01*
X107752000Y-83314440D01*
X109382917Y-83314440D01*
X109496235Y-83390157D01*
X109718592Y-83434386D01*
X109495471Y-83583471D01*
X109189359Y-84041600D01*
X109081867Y-84582000D01*
X109189359Y-85122400D01*
X109495471Y-85580529D01*
X109868172Y-85829560D01*
X107752000Y-85829560D01*
X107504235Y-85878843D01*
X107294191Y-86019191D01*
X107153843Y-86229235D01*
X107104560Y-86477000D01*
X107104560Y-87747000D01*
X107153843Y-87994765D01*
X107294191Y-88204809D01*
X107504235Y-88345157D01*
X107752000Y-88394440D01*
X109166465Y-88394440D01*
X106942529Y-90618377D01*
X106879070Y-90660779D01*
X106711095Y-90912172D01*
X106666999Y-91133857D01*
X106666999Y-91133861D01*
X106652111Y-91208708D01*
X106666999Y-91283555D01*
X106667000Y-105782453D01*
X106139601Y-105887359D01*
X105681472Y-106193471D01*
X105538440Y-106407533D01*
X105538440Y-104404000D01*
X105489157Y-104156235D01*
X105348809Y-103946191D01*
X105138765Y-103805843D01*
X104891000Y-103756560D01*
X103621000Y-103756560D01*
X103373235Y-103805843D01*
X103163191Y-103946191D01*
X103022843Y-104156235D01*
X102973560Y-104404000D01*
X102973560Y-104411757D01*
X97690589Y-99128788D01*
X97888529Y-98996529D01*
X98194641Y-98538399D01*
X98275000Y-98134406D01*
X98275000Y-97361593D01*
X98194641Y-96957600D01*
X97888528Y-96499471D01*
X97430399Y-96193359D01*
X96890000Y-96085867D01*
X96349600Y-96193359D01*
X95891471Y-96499472D01*
X95620000Y-96905757D01*
X95348528Y-96499471D01*
X94890399Y-96193359D01*
X94350000Y-96085867D01*
X93809600Y-96193359D01*
X93351471Y-96499472D01*
X93080000Y-96905757D01*
X92808528Y-96499471D01*
X92350399Y-96193359D01*
X91810000Y-96085867D01*
X91269600Y-96193359D01*
X90811471Y-96499472D01*
X90540000Y-96905757D01*
X90268528Y-96499471D01*
X89810399Y-96193359D01*
X89270000Y-96085867D01*
X88729600Y-96193359D01*
X88271471Y-96499472D01*
X88000000Y-96905757D01*
X87728528Y-96499471D01*
X87270399Y-96193359D01*
X86730000Y-96085867D01*
X86189600Y-96193359D01*
X85731471Y-96499472D01*
X85460000Y-96905757D01*
X85188528Y-96499471D01*
X84730399Y-96193359D01*
X84190000Y-96085867D01*
X83649600Y-96193359D01*
X83191471Y-96499472D01*
X82920000Y-96905757D01*
X82648528Y-96499471D01*
X82190399Y-96193359D01*
X81650000Y-96085867D01*
X81109600Y-96193359D01*
X80651471Y-96499472D01*
X80502386Y-96722593D01*
X80458157Y-96500235D01*
X80317809Y-96290191D01*
X80107765Y-96149843D01*
X79993981Y-96127210D01*
X79947419Y-95893130D01*
X79750933Y-95599067D01*
X79676707Y-95549471D01*
X78105000Y-93977765D01*
X78105000Y-76481323D01*
X78112235Y-76486157D01*
X78360000Y-76535440D01*
X79860000Y-76535440D01*
X80107765Y-76486157D01*
X80317809Y-76345809D01*
X80458157Y-76135765D01*
X80505746Y-75896517D01*
X80733106Y-76190736D01*
X81205765Y-76461481D01*
X81308815Y-76480318D01*
X81523000Y-76357656D01*
X81523000Y-75015000D01*
X81503000Y-75015000D01*
X81503000Y-74761000D01*
X81523000Y-74761000D01*
X81523000Y-73418344D01*
X81308815Y-73295682D01*
X81205765Y-73314519D01*
X80733106Y-73585264D01*
X80505746Y-73879483D01*
X80458157Y-73640235D01*
X80317809Y-73430191D01*
X80107765Y-73289843D01*
X79860000Y-73240560D01*
X78360000Y-73240560D01*
X78112235Y-73289843D01*
X78105000Y-73294677D01*
X78105000Y-72552235D01*
X79756000Y-70901236D01*
X80027178Y-71172413D01*
X80027178Y-71172413D01*
G37*
X80027178Y-71172413D02*
X80076774Y-71246640D01*
X80370837Y-71443126D01*
X80630151Y-71494707D01*
X80717706Y-71512123D01*
X80805261Y-71494707D01*
X115741765Y-71494707D01*
X129187294Y-84940237D01*
X129187293Y-107226519D01*
X129153564Y-107276998D01*
X117477306Y-118953257D01*
X117403077Y-119002855D01*
X117206591Y-119296919D01*
X117186836Y-119396235D01*
X117137594Y-119643788D01*
X117155010Y-119731343D01*
X117155010Y-121082526D01*
X116840000Y-121019867D01*
X116299601Y-121127359D01*
X115841472Y-121433471D01*
X115698440Y-121647533D01*
X115698440Y-119644000D01*
X115649157Y-119396235D01*
X115508809Y-119186191D01*
X115298765Y-119045843D01*
X115051000Y-118996560D01*
X113781000Y-118996560D01*
X113533235Y-119045843D01*
X113323191Y-119186191D01*
X113182843Y-119396235D01*
X113133560Y-119644000D01*
X113133560Y-121684768D01*
X113030000Y-121839757D01*
X112758529Y-121433471D01*
X112300400Y-121127359D01*
X111760000Y-121019867D01*
X111219601Y-121127359D01*
X110761472Y-121433471D01*
X110618440Y-121647533D01*
X110618440Y-119644000D01*
X110569157Y-119396235D01*
X110504833Y-119299968D01*
X115860477Y-113944326D01*
X115923930Y-113901928D01*
X115966328Y-113838475D01*
X115966330Y-113838473D01*
X116091904Y-113650537D01*
X116091905Y-113650536D01*
X116136001Y-113428851D01*
X116136001Y-113428847D01*
X116150889Y-113354000D01*
X116136001Y-113279153D01*
X116136001Y-111574690D01*
X116194691Y-111599000D01*
X116670250Y-111599000D01*
X116829000Y-111440250D01*
X116829000Y-109611000D01*
X117083000Y-109611000D01*
X117083000Y-111440250D01*
X117241750Y-111599000D01*
X117717309Y-111599000D01*
X117950698Y-111502327D01*
X118129327Y-111323699D01*
X118226000Y-111090310D01*
X118226000Y-109769750D01*
X118067250Y-109611000D01*
X117083000Y-109611000D01*
X116829000Y-109611000D01*
X116809000Y-109611000D01*
X116809000Y-109357000D01*
X116829000Y-109357000D01*
X116829000Y-107527750D01*
X116693000Y-107391750D01*
X116693000Y-107315000D01*
X116713000Y-107315000D01*
X116713000Y-105972344D01*
X116498815Y-105849682D01*
X116395765Y-105868519D01*
X116136001Y-106017315D01*
X116136001Y-85614391D01*
X121276001Y-90754391D01*
X121276000Y-105956583D01*
X120921472Y-106193471D01*
X120778440Y-106407533D01*
X120778440Y-104404000D01*
X120729157Y-104156235D01*
X120588809Y-103946191D01*
X120378765Y-103805843D01*
X120131000Y-103756560D01*
X118861000Y-103756560D01*
X118613235Y-103805843D01*
X118403191Y-103946191D01*
X118262843Y-104156235D01*
X118213560Y-104404000D01*
X118213560Y-106444768D01*
X118101447Y-106612557D01*
X118089964Y-106570279D01*
X117756894Y-106139264D01*
X117284235Y-105868519D01*
X117181185Y-105849682D01*
X116967000Y-105972344D01*
X116967000Y-107315000D01*
X116987000Y-107315000D01*
X116987000Y-107569000D01*
X116967000Y-107569000D01*
X116967000Y-108911656D01*
X117083000Y-108978088D01*
X117083000Y-109357000D01*
X118067250Y-109357000D01*
X118226000Y-109198250D01*
X118226000Y-108457849D01*
X118381471Y-108690528D01*
X118839600Y-108996641D01*
X119380000Y-109104133D01*
X119920399Y-108996641D01*
X120378528Y-108690529D01*
X120650000Y-108284243D01*
X120753560Y-108439231D01*
X120753560Y-110964000D01*
X120802843Y-111211765D01*
X120943191Y-111421809D01*
X121153235Y-111562157D01*
X121401000Y-111611440D01*
X122671000Y-111611440D01*
X122918765Y-111562157D01*
X123128809Y-111421809D01*
X123269157Y-111211765D01*
X123318440Y-110964000D01*
X123318440Y-108944076D01*
X123462235Y-109040157D01*
X123710000Y-109089440D01*
X125210000Y-109089440D01*
X125457765Y-109040157D01*
X125667809Y-108899809D01*
X125808157Y-108689765D01*
X125857440Y-108442000D01*
X125857440Y-107369027D01*
X125858440Y-107364000D01*
X125858440Y-104404000D01*
X125809157Y-104156235D01*
X125668809Y-103946191D01*
X125458765Y-103805843D01*
X125336000Y-103781424D01*
X125336000Y-92418024D01*
X125350888Y-92343177D01*
X125336000Y-92268330D01*
X125336000Y-92268326D01*
X125291904Y-92046641D01*
X125190890Y-91895463D01*
X125166329Y-91858704D01*
X125166327Y-91858702D01*
X125123929Y-91795249D01*
X125060476Y-91752851D01*
X107711153Y-74403530D01*
X107668751Y-74340071D01*
X107417359Y-74172096D01*
X107195674Y-74128000D01*
X107195669Y-74128000D01*
X107120822Y-74113112D01*
X107045975Y-74128000D01*
X98200688Y-74128000D01*
X98194641Y-74097600D01*
X97888528Y-73639471D01*
X97430399Y-73333359D01*
X96890000Y-73225867D01*
X96349600Y-73333359D01*
X95891471Y-73639472D01*
X95620000Y-74045757D01*
X95348528Y-73639471D01*
X94890399Y-73333359D01*
X94350000Y-73225867D01*
X93809600Y-73333359D01*
X93351471Y-73639472D01*
X93080000Y-74045757D01*
X92808528Y-73639471D01*
X92350399Y-73333359D01*
X91810000Y-73225867D01*
X91269600Y-73333359D01*
X90811471Y-73639472D01*
X90540000Y-74045757D01*
X90268528Y-73639471D01*
X89810399Y-73333359D01*
X89270000Y-73225867D01*
X88729600Y-73333359D01*
X88271471Y-73639472D01*
X88000000Y-74045757D01*
X87728528Y-73639471D01*
X87270399Y-73333359D01*
X86730000Y-73225867D01*
X86189600Y-73333359D01*
X85731471Y-73639472D01*
X85460000Y-74045757D01*
X85188528Y-73639471D01*
X84730399Y-73333359D01*
X84190000Y-73225867D01*
X83649600Y-73333359D01*
X83191471Y-73639472D01*
X82911447Y-74058557D01*
X82899964Y-74016279D01*
X82566894Y-73585264D01*
X82094235Y-73314519D01*
X81991185Y-73295682D01*
X81777000Y-73418344D01*
X81777000Y-74761000D01*
X81797000Y-74761000D01*
X81797000Y-75015000D01*
X81777000Y-75015000D01*
X81777000Y-76357656D01*
X81991185Y-76480318D01*
X82094235Y-76461481D01*
X82566894Y-76190736D01*
X82899964Y-75759721D01*
X82911447Y-75717443D01*
X83191472Y-76136529D01*
X83649601Y-76442641D01*
X84190000Y-76550133D01*
X84730400Y-76442641D01*
X85188529Y-76136529D01*
X85460000Y-75730243D01*
X85731472Y-76136529D01*
X86189601Y-76442641D01*
X86730000Y-76550133D01*
X87270400Y-76442641D01*
X87728529Y-76136529D01*
X88000000Y-75730243D01*
X88271472Y-76136529D01*
X88729601Y-76442641D01*
X89270000Y-76550133D01*
X89810400Y-76442641D01*
X90268529Y-76136529D01*
X90540000Y-75730243D01*
X90811472Y-76136529D01*
X91269601Y-76442641D01*
X91810000Y-76550133D01*
X92350400Y-76442641D01*
X92808529Y-76136529D01*
X93080000Y-75730243D01*
X93351472Y-76136529D01*
X93809601Y-76442641D01*
X94350000Y-76550133D01*
X94631365Y-76494166D01*
X94834680Y-76697482D01*
X94877081Y-76760939D01*
X94940537Y-76803339D01*
X95128472Y-76928914D01*
X95176615Y-76938490D01*
X95350158Y-76973010D01*
X95350162Y-76973010D01*
X95425010Y-76987898D01*
X95499858Y-76973010D01*
X107494621Y-76973010D01*
X111166171Y-80644560D01*
X109744000Y-80644560D01*
X109496235Y-80693843D01*
X109412849Y-80749560D01*
X107752000Y-80749560D01*
X107504235Y-80798843D01*
X107294191Y-80939191D01*
X107153843Y-81149235D01*
X107104560Y-81397000D01*
X107104560Y-82667000D01*
X107153843Y-82914765D01*
X107294191Y-83124809D01*
X107504235Y-83265157D01*
X107752000Y-83314440D01*
X109382917Y-83314440D01*
X109496235Y-83390157D01*
X109718592Y-83434386D01*
X109495471Y-83583471D01*
X109189359Y-84041600D01*
X109081867Y-84582000D01*
X109189359Y-85122400D01*
X109495471Y-85580529D01*
X109868172Y-85829560D01*
X107752000Y-85829560D01*
X107504235Y-85878843D01*
X107294191Y-86019191D01*
X107153843Y-86229235D01*
X107104560Y-86477000D01*
X107104560Y-87747000D01*
X107153843Y-87994765D01*
X107294191Y-88204809D01*
X107504235Y-88345157D01*
X107752000Y-88394440D01*
X109166465Y-88394440D01*
X106942529Y-90618377D01*
X106879070Y-90660779D01*
X106711095Y-90912172D01*
X106666999Y-91133857D01*
X106666999Y-91133861D01*
X106652111Y-91208708D01*
X106666999Y-91283555D01*
X106667000Y-105782453D01*
X106139601Y-105887359D01*
X105681472Y-106193471D01*
X105538440Y-106407533D01*
X105538440Y-104404000D01*
X105489157Y-104156235D01*
X105348809Y-103946191D01*
X105138765Y-103805843D01*
X104891000Y-103756560D01*
X103621000Y-103756560D01*
X103373235Y-103805843D01*
X103163191Y-103946191D01*
X103022843Y-104156235D01*
X102973560Y-104404000D01*
X102973560Y-104411757D01*
X97690589Y-99128788D01*
X97888529Y-98996529D01*
X98194641Y-98538399D01*
X98275000Y-98134406D01*
X98275000Y-97361593D01*
X98194641Y-96957600D01*
X97888528Y-96499471D01*
X97430399Y-96193359D01*
X96890000Y-96085867D01*
X96349600Y-96193359D01*
X95891471Y-96499472D01*
X95620000Y-96905757D01*
X95348528Y-96499471D01*
X94890399Y-96193359D01*
X94350000Y-96085867D01*
X93809600Y-96193359D01*
X93351471Y-96499472D01*
X93080000Y-96905757D01*
X92808528Y-96499471D01*
X92350399Y-96193359D01*
X91810000Y-96085867D01*
X91269600Y-96193359D01*
X90811471Y-96499472D01*
X90540000Y-96905757D01*
X90268528Y-96499471D01*
X89810399Y-96193359D01*
X89270000Y-96085867D01*
X88729600Y-96193359D01*
X88271471Y-96499472D01*
X88000000Y-96905757D01*
X87728528Y-96499471D01*
X87270399Y-96193359D01*
X86730000Y-96085867D01*
X86189600Y-96193359D01*
X85731471Y-96499472D01*
X85460000Y-96905757D01*
X85188528Y-96499471D01*
X84730399Y-96193359D01*
X84190000Y-96085867D01*
X83649600Y-96193359D01*
X83191471Y-96499472D01*
X82920000Y-96905757D01*
X82648528Y-96499471D01*
X82190399Y-96193359D01*
X81650000Y-96085867D01*
X81109600Y-96193359D01*
X80651471Y-96499472D01*
X80502386Y-96722593D01*
X80458157Y-96500235D01*
X80317809Y-96290191D01*
X80107765Y-96149843D01*
X79993981Y-96127210D01*
X79947419Y-95893130D01*
X79750933Y-95599067D01*
X79676707Y-95549471D01*
X78105000Y-93977765D01*
X78105000Y-76481323D01*
X78112235Y-76486157D01*
X78360000Y-76535440D01*
X79860000Y-76535440D01*
X80107765Y-76486157D01*
X80317809Y-76345809D01*
X80458157Y-76135765D01*
X80505746Y-75896517D01*
X80733106Y-76190736D01*
X81205765Y-76461481D01*
X81308815Y-76480318D01*
X81523000Y-76357656D01*
X81523000Y-75015000D01*
X81503000Y-75015000D01*
X81503000Y-74761000D01*
X81523000Y-74761000D01*
X81523000Y-73418344D01*
X81308815Y-73295682D01*
X81205765Y-73314519D01*
X80733106Y-73585264D01*
X80505746Y-73879483D01*
X80458157Y-73640235D01*
X80317809Y-73430191D01*
X80107765Y-73289843D01*
X79860000Y-73240560D01*
X78360000Y-73240560D01*
X78112235Y-73289843D01*
X78105000Y-73294677D01*
X78105000Y-72552235D01*
X79756000Y-70901236D01*
X80027178Y-71172413D01*
M02*
