%TF.GenerationSoftware,KiCad,Pcbnew,5.0.2+dfsg1-1*%
%TF.CreationDate,2020-04-12T10:59:42+02:00*%
%TF.ProjectId,fietslamp,66696574-736c-4616-9d70-2e6b69636164,rev?*%
%TF.SameCoordinates,Original*%
%TF.FileFunction,Soldermask,Bot*%
%TF.FilePolarity,Negative*%
%FSLAX46Y46*%
G04 Gerber Fmt 4.6, Leading zero omitted, Abs format (unit mm)*
G04 Created by KiCad (PCBNEW 5.0.2+dfsg1-1) date zo 12 apr 2020 10:59:42 CEST*
%MOMM*%
%LPD*%
G01*
G04 APERTURE LIST*
%ADD10C,0.150000*%
G04 APERTURE END LIST*
D10*
X74168000Y-41656000D02*
X140716000Y-41656000D01*
X74168000Y-129032000D02*
X74168000Y-41656000D01*
X140716000Y-129032000D02*
X74168000Y-129032000D01*
X140716000Y-41656000D02*
X140716000Y-129032000D01*
G36*
X86517025Y-121642590D02*
X86668012Y-121688392D01*
X86807165Y-121762770D01*
X86929133Y-121862867D01*
X87029230Y-121984835D01*
X87103608Y-122123988D01*
X87149410Y-122274975D01*
X87161000Y-122392654D01*
X87161000Y-122971346D01*
X87149410Y-123089025D01*
X87103608Y-123240012D01*
X87029230Y-123379165D01*
X86929136Y-123501130D01*
X86929134Y-123501131D01*
X86929133Y-123501133D01*
X86929129Y-123501136D01*
X86807161Y-123601232D01*
X86668011Y-123675608D01*
X86517024Y-123721410D01*
X86360000Y-123736875D01*
X86202975Y-123721410D01*
X86051988Y-123675608D01*
X85912835Y-123601230D01*
X85790870Y-123501136D01*
X85790869Y-123501134D01*
X85790867Y-123501133D01*
X85740819Y-123440149D01*
X85690768Y-123379161D01*
X85616392Y-123240011D01*
X85570590Y-123089024D01*
X85559000Y-122971345D01*
X85559000Y-122392654D01*
X85570590Y-122274975D01*
X85593491Y-122199482D01*
X85616392Y-122123988D01*
X85690771Y-121984835D01*
X85790868Y-121862867D01*
X85912836Y-121762770D01*
X86051989Y-121688392D01*
X86202976Y-121642590D01*
X86360000Y-121627125D01*
X86517025Y-121642590D01*
X86517025Y-121642590D01*
G37*
G36*
X89057025Y-121642590D02*
X89208012Y-121688392D01*
X89347165Y-121762770D01*
X89469133Y-121862867D01*
X89569230Y-121984835D01*
X89643608Y-122123988D01*
X89689410Y-122274975D01*
X89701000Y-122392654D01*
X89701000Y-122971346D01*
X89689410Y-123089025D01*
X89643608Y-123240012D01*
X89569230Y-123379165D01*
X89469136Y-123501130D01*
X89469134Y-123501131D01*
X89469133Y-123501133D01*
X89469129Y-123501136D01*
X89347161Y-123601232D01*
X89208011Y-123675608D01*
X89057024Y-123721410D01*
X88900000Y-123736875D01*
X88742975Y-123721410D01*
X88591988Y-123675608D01*
X88452835Y-123601230D01*
X88330870Y-123501136D01*
X88330869Y-123501134D01*
X88330867Y-123501133D01*
X88280819Y-123440149D01*
X88230768Y-123379161D01*
X88156392Y-123240011D01*
X88110590Y-123089024D01*
X88099000Y-122971345D01*
X88099000Y-122392654D01*
X88110590Y-122274975D01*
X88133491Y-122199482D01*
X88156392Y-122123988D01*
X88230771Y-121984835D01*
X88330868Y-121862867D01*
X88452836Y-121762770D01*
X88591989Y-121688392D01*
X88742976Y-121642590D01*
X88900000Y-121627125D01*
X89057025Y-121642590D01*
X89057025Y-121642590D01*
G37*
G36*
X91597025Y-121642590D02*
X91748012Y-121688392D01*
X91887165Y-121762770D01*
X92009133Y-121862867D01*
X92109230Y-121984835D01*
X92183608Y-122123988D01*
X92229410Y-122274975D01*
X92241000Y-122392654D01*
X92241000Y-122971346D01*
X92229410Y-123089025D01*
X92183608Y-123240012D01*
X92109230Y-123379165D01*
X92009136Y-123501130D01*
X92009134Y-123501131D01*
X92009133Y-123501133D01*
X92009129Y-123501136D01*
X91887161Y-123601232D01*
X91748011Y-123675608D01*
X91597024Y-123721410D01*
X91440000Y-123736875D01*
X91282975Y-123721410D01*
X91131988Y-123675608D01*
X90992835Y-123601230D01*
X90870870Y-123501136D01*
X90870869Y-123501134D01*
X90870867Y-123501133D01*
X90820819Y-123440149D01*
X90770768Y-123379161D01*
X90696392Y-123240011D01*
X90650590Y-123089024D01*
X90639000Y-122971345D01*
X90639000Y-122392654D01*
X90650590Y-122274975D01*
X90673491Y-122199482D01*
X90696392Y-122123988D01*
X90770771Y-121984835D01*
X90870868Y-121862867D01*
X90992836Y-121762770D01*
X91131989Y-121688392D01*
X91282976Y-121642590D01*
X91440000Y-121627125D01*
X91597025Y-121642590D01*
X91597025Y-121642590D01*
G37*
G36*
X94137025Y-121642590D02*
X94288012Y-121688392D01*
X94427165Y-121762770D01*
X94549133Y-121862867D01*
X94649230Y-121984835D01*
X94723608Y-122123988D01*
X94769410Y-122274975D01*
X94781000Y-122392654D01*
X94781000Y-122971346D01*
X94769410Y-123089025D01*
X94723608Y-123240012D01*
X94649230Y-123379165D01*
X94549136Y-123501130D01*
X94549134Y-123501131D01*
X94549133Y-123501133D01*
X94549129Y-123501136D01*
X94427161Y-123601232D01*
X94288011Y-123675608D01*
X94137024Y-123721410D01*
X93980000Y-123736875D01*
X93822975Y-123721410D01*
X93671988Y-123675608D01*
X93532835Y-123601230D01*
X93410870Y-123501136D01*
X93410869Y-123501134D01*
X93410867Y-123501133D01*
X93360819Y-123440149D01*
X93310768Y-123379161D01*
X93236392Y-123240011D01*
X93190590Y-123089024D01*
X93179000Y-122971345D01*
X93179000Y-122392654D01*
X93190590Y-122274975D01*
X93213491Y-122199482D01*
X93236392Y-122123988D01*
X93310771Y-121984835D01*
X93410868Y-121862867D01*
X93532836Y-121762770D01*
X93671989Y-121688392D01*
X93822976Y-121642590D01*
X93980000Y-121627125D01*
X94137025Y-121642590D01*
X94137025Y-121642590D01*
G37*
G36*
X96677025Y-121642590D02*
X96828012Y-121688392D01*
X96967165Y-121762770D01*
X97089133Y-121862867D01*
X97189230Y-121984835D01*
X97263608Y-122123988D01*
X97309410Y-122274975D01*
X97321000Y-122392654D01*
X97321000Y-122971346D01*
X97309410Y-123089025D01*
X97263608Y-123240012D01*
X97189230Y-123379165D01*
X97089136Y-123501130D01*
X97089134Y-123501131D01*
X97089133Y-123501133D01*
X97089129Y-123501136D01*
X96967161Y-123601232D01*
X96828011Y-123675608D01*
X96677024Y-123721410D01*
X96520000Y-123736875D01*
X96362975Y-123721410D01*
X96211988Y-123675608D01*
X96072835Y-123601230D01*
X95950870Y-123501136D01*
X95950869Y-123501134D01*
X95950867Y-123501133D01*
X95900819Y-123440149D01*
X95850768Y-123379161D01*
X95776392Y-123240011D01*
X95730590Y-123089024D01*
X95719000Y-122971345D01*
X95719000Y-122392654D01*
X95730590Y-122274975D01*
X95753491Y-122199482D01*
X95776392Y-122123988D01*
X95850771Y-121984835D01*
X95950868Y-121862867D01*
X96072836Y-121762770D01*
X96211989Y-121688392D01*
X96362976Y-121642590D01*
X96520000Y-121627125D01*
X96677025Y-121642590D01*
X96677025Y-121642590D01*
G37*
G36*
X99217025Y-121642590D02*
X99368012Y-121688392D01*
X99507165Y-121762770D01*
X99629133Y-121862867D01*
X99729230Y-121984835D01*
X99803608Y-122123988D01*
X99849410Y-122274975D01*
X99861000Y-122392654D01*
X99861000Y-122971346D01*
X99849410Y-123089025D01*
X99803608Y-123240012D01*
X99729230Y-123379165D01*
X99629136Y-123501130D01*
X99629134Y-123501131D01*
X99629133Y-123501133D01*
X99629129Y-123501136D01*
X99507161Y-123601232D01*
X99368011Y-123675608D01*
X99217024Y-123721410D01*
X99060000Y-123736875D01*
X98902975Y-123721410D01*
X98751988Y-123675608D01*
X98612835Y-123601230D01*
X98490870Y-123501136D01*
X98490869Y-123501134D01*
X98490867Y-123501133D01*
X98440819Y-123440149D01*
X98390768Y-123379161D01*
X98316392Y-123240011D01*
X98270590Y-123089024D01*
X98259000Y-122971345D01*
X98259000Y-122392654D01*
X98270590Y-122274975D01*
X98293491Y-122199482D01*
X98316392Y-122123988D01*
X98390771Y-121984835D01*
X98490868Y-121862867D01*
X98612836Y-121762770D01*
X98751989Y-121688392D01*
X98902976Y-121642590D01*
X99060000Y-121627125D01*
X99217025Y-121642590D01*
X99217025Y-121642590D01*
G37*
G36*
X101757025Y-121642590D02*
X101908012Y-121688392D01*
X102047165Y-121762770D01*
X102169133Y-121862867D01*
X102269230Y-121984835D01*
X102343608Y-122123988D01*
X102389410Y-122274975D01*
X102401000Y-122392654D01*
X102401000Y-122971346D01*
X102389410Y-123089025D01*
X102343608Y-123240012D01*
X102269230Y-123379165D01*
X102169136Y-123501130D01*
X102169134Y-123501131D01*
X102169133Y-123501133D01*
X102169129Y-123501136D01*
X102047161Y-123601232D01*
X101908011Y-123675608D01*
X101757024Y-123721410D01*
X101600000Y-123736875D01*
X101442975Y-123721410D01*
X101291988Y-123675608D01*
X101152835Y-123601230D01*
X101030870Y-123501136D01*
X101030869Y-123501134D01*
X101030867Y-123501133D01*
X100980819Y-123440149D01*
X100930768Y-123379161D01*
X100856392Y-123240011D01*
X100810590Y-123089024D01*
X100799000Y-122971345D01*
X100799000Y-122392654D01*
X100810590Y-122274975D01*
X100833491Y-122199482D01*
X100856392Y-122123988D01*
X100930771Y-121984835D01*
X101030868Y-121862867D01*
X101152836Y-121762770D01*
X101291989Y-121688392D01*
X101442976Y-121642590D01*
X101600000Y-121627125D01*
X101757025Y-121642590D01*
X101757025Y-121642590D01*
G37*
G36*
X104297025Y-121642590D02*
X104448012Y-121688392D01*
X104587165Y-121762770D01*
X104709133Y-121862867D01*
X104809230Y-121984835D01*
X104883608Y-122123988D01*
X104929410Y-122274975D01*
X104941000Y-122392654D01*
X104941000Y-122971346D01*
X104929410Y-123089025D01*
X104883608Y-123240012D01*
X104809230Y-123379165D01*
X104709136Y-123501130D01*
X104709134Y-123501131D01*
X104709133Y-123501133D01*
X104709129Y-123501136D01*
X104587161Y-123601232D01*
X104448011Y-123675608D01*
X104297024Y-123721410D01*
X104140000Y-123736875D01*
X103982975Y-123721410D01*
X103831988Y-123675608D01*
X103692835Y-123601230D01*
X103570870Y-123501136D01*
X103570869Y-123501134D01*
X103570867Y-123501133D01*
X103520819Y-123440149D01*
X103470768Y-123379161D01*
X103396392Y-123240011D01*
X103350590Y-123089024D01*
X103339000Y-122971345D01*
X103339000Y-122392654D01*
X103350590Y-122274975D01*
X103373491Y-122199482D01*
X103396392Y-122123988D01*
X103470771Y-121984835D01*
X103570868Y-121862867D01*
X103692836Y-121762770D01*
X103831989Y-121688392D01*
X103982976Y-121642590D01*
X104140000Y-121627125D01*
X104297025Y-121642590D01*
X104297025Y-121642590D01*
G37*
G36*
X109377025Y-121642590D02*
X109528012Y-121688392D01*
X109667165Y-121762770D01*
X109789133Y-121862867D01*
X109889230Y-121984835D01*
X109963608Y-122123988D01*
X110009410Y-122274975D01*
X110021000Y-122392654D01*
X110021000Y-122971346D01*
X110009410Y-123089025D01*
X109963608Y-123240012D01*
X109889230Y-123379165D01*
X109789136Y-123501130D01*
X109789134Y-123501131D01*
X109789133Y-123501133D01*
X109789129Y-123501136D01*
X109667161Y-123601232D01*
X109528011Y-123675608D01*
X109377024Y-123721410D01*
X109220000Y-123736875D01*
X109062975Y-123721410D01*
X108911988Y-123675608D01*
X108772835Y-123601230D01*
X108650870Y-123501136D01*
X108650869Y-123501134D01*
X108650867Y-123501133D01*
X108600819Y-123440149D01*
X108550768Y-123379161D01*
X108476392Y-123240011D01*
X108430590Y-123089024D01*
X108419000Y-122971345D01*
X108419000Y-122392654D01*
X108430590Y-122274975D01*
X108453491Y-122199482D01*
X108476392Y-122123988D01*
X108550771Y-121984835D01*
X108650868Y-121862867D01*
X108772836Y-121762770D01*
X108911989Y-121688392D01*
X109062976Y-121642590D01*
X109220000Y-121627125D01*
X109377025Y-121642590D01*
X109377025Y-121642590D01*
G37*
G36*
X111917025Y-121642590D02*
X112068012Y-121688392D01*
X112207165Y-121762770D01*
X112329133Y-121862867D01*
X112429230Y-121984835D01*
X112503608Y-122123988D01*
X112549410Y-122274975D01*
X112561000Y-122392654D01*
X112561000Y-122971346D01*
X112549410Y-123089025D01*
X112503608Y-123240012D01*
X112429230Y-123379165D01*
X112329136Y-123501130D01*
X112329134Y-123501131D01*
X112329133Y-123501133D01*
X112329129Y-123501136D01*
X112207161Y-123601232D01*
X112068011Y-123675608D01*
X111917024Y-123721410D01*
X111760000Y-123736875D01*
X111602975Y-123721410D01*
X111451988Y-123675608D01*
X111312835Y-123601230D01*
X111190870Y-123501136D01*
X111190869Y-123501134D01*
X111190867Y-123501133D01*
X111140819Y-123440149D01*
X111090768Y-123379161D01*
X111016392Y-123240011D01*
X110970590Y-123089024D01*
X110959000Y-122971345D01*
X110959000Y-122392654D01*
X110970590Y-122274975D01*
X110993491Y-122199482D01*
X111016392Y-122123988D01*
X111090771Y-121984835D01*
X111190868Y-121862867D01*
X111312836Y-121762770D01*
X111451989Y-121688392D01*
X111602976Y-121642590D01*
X111760000Y-121627125D01*
X111917025Y-121642590D01*
X111917025Y-121642590D01*
G37*
G36*
X114457025Y-121642590D02*
X114608012Y-121688392D01*
X114747165Y-121762770D01*
X114869133Y-121862867D01*
X114969230Y-121984835D01*
X115043608Y-122123988D01*
X115089410Y-122274975D01*
X115101000Y-122392654D01*
X115101000Y-122971346D01*
X115089410Y-123089025D01*
X115043608Y-123240012D01*
X114969230Y-123379165D01*
X114869136Y-123501130D01*
X114869134Y-123501131D01*
X114869133Y-123501133D01*
X114869129Y-123501136D01*
X114747161Y-123601232D01*
X114608011Y-123675608D01*
X114457024Y-123721410D01*
X114300000Y-123736875D01*
X114142975Y-123721410D01*
X113991988Y-123675608D01*
X113852835Y-123601230D01*
X113730870Y-123501136D01*
X113730869Y-123501134D01*
X113730867Y-123501133D01*
X113680819Y-123440149D01*
X113630768Y-123379161D01*
X113556392Y-123240011D01*
X113510590Y-123089024D01*
X113499000Y-122971345D01*
X113499000Y-122392654D01*
X113510590Y-122274975D01*
X113533491Y-122199482D01*
X113556392Y-122123988D01*
X113630771Y-121984835D01*
X113730868Y-121862867D01*
X113852836Y-121762770D01*
X113991989Y-121688392D01*
X114142976Y-121642590D01*
X114300000Y-121627125D01*
X114457025Y-121642590D01*
X114457025Y-121642590D01*
G37*
G36*
X116997025Y-121642590D02*
X117148012Y-121688392D01*
X117287165Y-121762770D01*
X117409133Y-121862867D01*
X117509230Y-121984835D01*
X117583608Y-122123988D01*
X117629410Y-122274975D01*
X117641000Y-122392654D01*
X117641000Y-122971346D01*
X117629410Y-123089025D01*
X117583608Y-123240012D01*
X117509230Y-123379165D01*
X117409136Y-123501130D01*
X117409134Y-123501131D01*
X117409133Y-123501133D01*
X117409129Y-123501136D01*
X117287161Y-123601232D01*
X117148011Y-123675608D01*
X116997024Y-123721410D01*
X116840000Y-123736875D01*
X116682975Y-123721410D01*
X116531988Y-123675608D01*
X116392835Y-123601230D01*
X116270870Y-123501136D01*
X116270869Y-123501134D01*
X116270867Y-123501133D01*
X116220819Y-123440149D01*
X116170768Y-123379161D01*
X116096392Y-123240011D01*
X116050590Y-123089024D01*
X116039000Y-122971345D01*
X116039000Y-122392654D01*
X116050590Y-122274975D01*
X116073491Y-122199482D01*
X116096392Y-122123988D01*
X116170771Y-121984835D01*
X116270868Y-121862867D01*
X116392836Y-121762770D01*
X116531989Y-121688392D01*
X116682976Y-121642590D01*
X116840000Y-121627125D01*
X116997025Y-121642590D01*
X116997025Y-121642590D01*
G37*
G36*
X119537025Y-121642590D02*
X119688012Y-121688392D01*
X119827165Y-121762770D01*
X119949133Y-121862867D01*
X120049230Y-121984835D01*
X120123608Y-122123988D01*
X120169410Y-122274975D01*
X120181000Y-122392654D01*
X120181000Y-122971346D01*
X120169410Y-123089025D01*
X120123608Y-123240012D01*
X120049230Y-123379165D01*
X119949136Y-123501130D01*
X119949134Y-123501131D01*
X119949133Y-123501133D01*
X119949129Y-123501136D01*
X119827161Y-123601232D01*
X119688011Y-123675608D01*
X119537024Y-123721410D01*
X119380000Y-123736875D01*
X119222975Y-123721410D01*
X119071988Y-123675608D01*
X118932835Y-123601230D01*
X118810870Y-123501136D01*
X118810869Y-123501134D01*
X118810867Y-123501133D01*
X118760819Y-123440149D01*
X118710768Y-123379161D01*
X118636392Y-123240011D01*
X118590590Y-123089024D01*
X118579000Y-122971345D01*
X118579000Y-122392654D01*
X118590590Y-122274975D01*
X118613491Y-122199482D01*
X118636392Y-122123988D01*
X118710771Y-121984835D01*
X118810868Y-121862867D01*
X118932836Y-121762770D01*
X119071989Y-121688392D01*
X119222976Y-121642590D01*
X119380000Y-121627125D01*
X119537025Y-121642590D01*
X119537025Y-121642590D01*
G37*
G36*
X122077025Y-121642590D02*
X122228012Y-121688392D01*
X122367165Y-121762770D01*
X122489133Y-121862867D01*
X122589230Y-121984835D01*
X122663608Y-122123988D01*
X122709410Y-122274975D01*
X122721000Y-122392654D01*
X122721000Y-122971346D01*
X122709410Y-123089025D01*
X122663608Y-123240012D01*
X122589230Y-123379165D01*
X122489136Y-123501130D01*
X122489134Y-123501131D01*
X122489133Y-123501133D01*
X122489129Y-123501136D01*
X122367161Y-123601232D01*
X122228011Y-123675608D01*
X122077024Y-123721410D01*
X121920000Y-123736875D01*
X121762975Y-123721410D01*
X121611988Y-123675608D01*
X121472835Y-123601230D01*
X121350870Y-123501136D01*
X121350869Y-123501134D01*
X121350867Y-123501133D01*
X121300819Y-123440149D01*
X121250768Y-123379161D01*
X121176392Y-123240011D01*
X121130590Y-123089024D01*
X121119000Y-122971345D01*
X121119000Y-122392654D01*
X121130590Y-122274975D01*
X121153491Y-122199482D01*
X121176392Y-122123988D01*
X121250771Y-121984835D01*
X121350868Y-121862867D01*
X121472836Y-121762770D01*
X121611989Y-121688392D01*
X121762976Y-121642590D01*
X121920000Y-121627125D01*
X122077025Y-121642590D01*
X122077025Y-121642590D01*
G37*
G36*
X106837025Y-121642590D02*
X106988012Y-121688392D01*
X107127165Y-121762770D01*
X107249133Y-121862867D01*
X107349230Y-121984835D01*
X107423608Y-122123988D01*
X107469410Y-122274975D01*
X107481000Y-122392654D01*
X107481000Y-122971346D01*
X107469410Y-123089025D01*
X107423608Y-123240012D01*
X107349230Y-123379165D01*
X107249136Y-123501130D01*
X107249134Y-123501131D01*
X107249133Y-123501133D01*
X107249129Y-123501136D01*
X107127161Y-123601232D01*
X106988011Y-123675608D01*
X106837024Y-123721410D01*
X106680000Y-123736875D01*
X106522975Y-123721410D01*
X106371988Y-123675608D01*
X106232835Y-123601230D01*
X106110870Y-123501136D01*
X106110869Y-123501134D01*
X106110867Y-123501133D01*
X106060819Y-123440149D01*
X106010768Y-123379161D01*
X105936392Y-123240011D01*
X105890590Y-123089024D01*
X105879000Y-122971345D01*
X105879000Y-122392654D01*
X105890590Y-122274975D01*
X105913491Y-122199482D01*
X105936392Y-122123988D01*
X106010771Y-121984835D01*
X106110868Y-121862867D01*
X106232836Y-121762770D01*
X106371989Y-121688392D01*
X106522976Y-121642590D01*
X106680000Y-121627125D01*
X106837025Y-121642590D01*
X106837025Y-121642590D01*
G37*
G36*
X125261000Y-123733000D02*
X123659000Y-123733000D01*
X123659000Y-121631000D01*
X125261000Y-121631000D01*
X125261000Y-123733000D01*
X125261000Y-123733000D01*
G37*
G36*
X136480510Y-115792041D02*
X136604032Y-115804207D01*
X136802146Y-115864305D01*
X136984729Y-115961897D01*
X137144765Y-116093235D01*
X137276103Y-116253271D01*
X137373695Y-116435854D01*
X137433793Y-116633968D01*
X137454085Y-116840000D01*
X137433793Y-117046032D01*
X137373695Y-117244146D01*
X137276103Y-117426729D01*
X137144765Y-117586765D01*
X136984729Y-117718103D01*
X136802146Y-117815695D01*
X136604032Y-117875793D01*
X136480510Y-117887959D01*
X136449631Y-117891000D01*
X136346369Y-117891000D01*
X136315490Y-117887959D01*
X136191968Y-117875793D01*
X135993854Y-117815695D01*
X135811271Y-117718103D01*
X135651235Y-117586765D01*
X135519897Y-117426729D01*
X135422305Y-117244146D01*
X135362207Y-117046032D01*
X135341915Y-116840000D01*
X135362207Y-116633968D01*
X135422305Y-116435854D01*
X135519897Y-116253271D01*
X135651235Y-116093235D01*
X135811271Y-115961897D01*
X135993854Y-115864305D01*
X136191968Y-115804207D01*
X136315490Y-115792041D01*
X136346369Y-115789000D01*
X136449631Y-115789000D01*
X136480510Y-115792041D01*
X136480510Y-115792041D01*
G37*
G36*
X134909000Y-117891000D02*
X132807000Y-117891000D01*
X132807000Y-115789000D01*
X134909000Y-115789000D01*
X134909000Y-117891000D01*
X134909000Y-117891000D01*
G37*
G36*
X134909000Y-115351000D02*
X132807000Y-115351000D01*
X132807000Y-113249000D01*
X134909000Y-113249000D01*
X134909000Y-115351000D01*
X134909000Y-115351000D01*
G37*
G36*
X136480510Y-113252041D02*
X136604032Y-113264207D01*
X136802146Y-113324305D01*
X136984729Y-113421897D01*
X137144765Y-113553235D01*
X137276103Y-113713271D01*
X137373695Y-113895854D01*
X137433793Y-114093968D01*
X137454085Y-114300000D01*
X137433793Y-114506032D01*
X137373695Y-114704146D01*
X137276103Y-114886729D01*
X137144765Y-115046765D01*
X136984729Y-115178103D01*
X136802146Y-115275695D01*
X136604032Y-115335793D01*
X136480510Y-115347959D01*
X136449631Y-115351000D01*
X136346369Y-115351000D01*
X136315490Y-115347959D01*
X136191968Y-115335793D01*
X135993854Y-115275695D01*
X135811271Y-115178103D01*
X135651235Y-115046765D01*
X135519897Y-114886729D01*
X135422305Y-114704146D01*
X135362207Y-114506032D01*
X135341915Y-114300000D01*
X135362207Y-114093968D01*
X135422305Y-113895854D01*
X135519897Y-113713271D01*
X135651235Y-113553235D01*
X135811271Y-113421897D01*
X135993854Y-113324305D01*
X136191968Y-113264207D01*
X136315490Y-113252041D01*
X136346369Y-113249000D01*
X136449631Y-113249000D01*
X136480510Y-113252041D01*
X136480510Y-113252041D01*
G37*
G36*
X134909000Y-112811000D02*
X132807000Y-112811000D01*
X132807000Y-110709000D01*
X134909000Y-110709000D01*
X134909000Y-112811000D01*
X134909000Y-112811000D01*
G37*
G36*
X136480510Y-110712041D02*
X136604032Y-110724207D01*
X136802146Y-110784305D01*
X136984729Y-110881897D01*
X137144765Y-111013235D01*
X137276103Y-111173271D01*
X137373695Y-111355854D01*
X137433793Y-111553968D01*
X137454085Y-111760000D01*
X137433793Y-111966032D01*
X137373695Y-112164146D01*
X137276103Y-112346729D01*
X137144765Y-112506765D01*
X136984729Y-112638103D01*
X136802146Y-112735695D01*
X136604032Y-112795793D01*
X136480510Y-112807959D01*
X136449631Y-112811000D01*
X136346369Y-112811000D01*
X136315490Y-112807959D01*
X136191968Y-112795793D01*
X135993854Y-112735695D01*
X135811271Y-112638103D01*
X135651235Y-112506765D01*
X135519897Y-112346729D01*
X135422305Y-112164146D01*
X135362207Y-111966032D01*
X135341915Y-111760000D01*
X135362207Y-111553968D01*
X135422305Y-111355854D01*
X135519897Y-111173271D01*
X135651235Y-111013235D01*
X135811271Y-110881897D01*
X135993854Y-110784305D01*
X136191968Y-110724207D01*
X136315490Y-110712041D01*
X136346369Y-110709000D01*
X136449631Y-110709000D01*
X136480510Y-110712041D01*
X136480510Y-110712041D01*
G37*
G36*
X99217025Y-106402590D02*
X99368012Y-106448392D01*
X99507165Y-106522770D01*
X99629133Y-106622867D01*
X99729230Y-106744835D01*
X99803608Y-106883988D01*
X99849410Y-107034975D01*
X99861000Y-107152654D01*
X99861000Y-107731346D01*
X99849410Y-107849025D01*
X99803608Y-108000012D01*
X99729230Y-108139165D01*
X99629136Y-108261130D01*
X99629134Y-108261131D01*
X99629133Y-108261133D01*
X99629129Y-108261136D01*
X99507161Y-108361232D01*
X99368011Y-108435608D01*
X99217024Y-108481410D01*
X99060000Y-108496875D01*
X98902975Y-108481410D01*
X98751988Y-108435608D01*
X98612835Y-108361230D01*
X98490870Y-108261136D01*
X98490869Y-108261134D01*
X98490867Y-108261133D01*
X98440819Y-108200149D01*
X98390768Y-108139161D01*
X98316392Y-108000011D01*
X98270590Y-107849024D01*
X98259000Y-107731345D01*
X98259000Y-107152654D01*
X98270590Y-107034975D01*
X98293491Y-106959483D01*
X98316392Y-106883988D01*
X98390771Y-106744835D01*
X98490868Y-106622867D01*
X98612836Y-106522770D01*
X98751989Y-106448392D01*
X98902976Y-106402590D01*
X99060000Y-106387125D01*
X99217025Y-106402590D01*
X99217025Y-106402590D01*
G37*
G36*
X119537025Y-106402590D02*
X119688012Y-106448392D01*
X119827165Y-106522770D01*
X119949133Y-106622867D01*
X120049230Y-106744835D01*
X120123608Y-106883988D01*
X120169410Y-107034975D01*
X120181000Y-107152654D01*
X120181000Y-107731346D01*
X120169410Y-107849025D01*
X120123608Y-108000012D01*
X120049230Y-108139165D01*
X119949136Y-108261130D01*
X119949134Y-108261131D01*
X119949133Y-108261133D01*
X119949129Y-108261136D01*
X119827161Y-108361232D01*
X119688011Y-108435608D01*
X119537024Y-108481410D01*
X119380000Y-108496875D01*
X119222975Y-108481410D01*
X119071988Y-108435608D01*
X118932835Y-108361230D01*
X118810870Y-108261136D01*
X118810869Y-108261134D01*
X118810867Y-108261133D01*
X118760819Y-108200149D01*
X118710768Y-108139161D01*
X118636392Y-108000011D01*
X118590590Y-107849024D01*
X118579000Y-107731345D01*
X118579000Y-107152654D01*
X118590590Y-107034975D01*
X118613491Y-106959483D01*
X118636392Y-106883988D01*
X118710771Y-106744835D01*
X118810868Y-106622867D01*
X118932836Y-106522770D01*
X119071989Y-106448392D01*
X119222976Y-106402590D01*
X119380000Y-106387125D01*
X119537025Y-106402590D01*
X119537025Y-106402590D01*
G37*
G36*
X116997025Y-106402590D02*
X117148012Y-106448392D01*
X117287165Y-106522770D01*
X117409133Y-106622867D01*
X117509230Y-106744835D01*
X117583608Y-106883988D01*
X117629410Y-107034975D01*
X117641000Y-107152654D01*
X117641000Y-107731346D01*
X117629410Y-107849025D01*
X117583608Y-108000012D01*
X117509230Y-108139165D01*
X117409136Y-108261130D01*
X117409134Y-108261131D01*
X117409133Y-108261133D01*
X117409129Y-108261136D01*
X117287161Y-108361232D01*
X117148011Y-108435608D01*
X116997024Y-108481410D01*
X116840000Y-108496875D01*
X116682975Y-108481410D01*
X116531988Y-108435608D01*
X116392835Y-108361230D01*
X116270870Y-108261136D01*
X116270869Y-108261134D01*
X116270867Y-108261133D01*
X116220819Y-108200149D01*
X116170768Y-108139161D01*
X116096392Y-108000011D01*
X116050590Y-107849024D01*
X116039000Y-107731345D01*
X116039000Y-107152654D01*
X116050590Y-107034975D01*
X116073491Y-106959483D01*
X116096392Y-106883988D01*
X116170771Y-106744835D01*
X116270868Y-106622867D01*
X116392836Y-106522770D01*
X116531989Y-106448392D01*
X116682976Y-106402590D01*
X116840000Y-106387125D01*
X116997025Y-106402590D01*
X116997025Y-106402590D01*
G37*
G36*
X114457025Y-106402590D02*
X114608012Y-106448392D01*
X114747165Y-106522770D01*
X114869133Y-106622867D01*
X114969230Y-106744835D01*
X115043608Y-106883988D01*
X115089410Y-107034975D01*
X115101000Y-107152654D01*
X115101000Y-107731346D01*
X115089410Y-107849025D01*
X115043608Y-108000012D01*
X114969230Y-108139165D01*
X114869136Y-108261130D01*
X114869134Y-108261131D01*
X114869133Y-108261133D01*
X114869129Y-108261136D01*
X114747161Y-108361232D01*
X114608011Y-108435608D01*
X114457024Y-108481410D01*
X114300000Y-108496875D01*
X114142975Y-108481410D01*
X113991988Y-108435608D01*
X113852835Y-108361230D01*
X113730870Y-108261136D01*
X113730869Y-108261134D01*
X113730867Y-108261133D01*
X113680819Y-108200149D01*
X113630768Y-108139161D01*
X113556392Y-108000011D01*
X113510590Y-107849024D01*
X113499000Y-107731345D01*
X113499000Y-107152654D01*
X113510590Y-107034975D01*
X113533491Y-106959483D01*
X113556392Y-106883988D01*
X113630771Y-106744835D01*
X113730868Y-106622867D01*
X113852836Y-106522770D01*
X113991989Y-106448392D01*
X114142976Y-106402590D01*
X114300000Y-106387125D01*
X114457025Y-106402590D01*
X114457025Y-106402590D01*
G37*
G36*
X111917025Y-106402590D02*
X112068012Y-106448392D01*
X112207165Y-106522770D01*
X112329133Y-106622867D01*
X112429230Y-106744835D01*
X112503608Y-106883988D01*
X112549410Y-107034975D01*
X112561000Y-107152654D01*
X112561000Y-107731346D01*
X112549410Y-107849025D01*
X112503608Y-108000012D01*
X112429230Y-108139165D01*
X112329136Y-108261130D01*
X112329134Y-108261131D01*
X112329133Y-108261133D01*
X112329129Y-108261136D01*
X112207161Y-108361232D01*
X112068011Y-108435608D01*
X111917024Y-108481410D01*
X111760000Y-108496875D01*
X111602975Y-108481410D01*
X111451988Y-108435608D01*
X111312835Y-108361230D01*
X111190870Y-108261136D01*
X111190869Y-108261134D01*
X111190867Y-108261133D01*
X111140819Y-108200149D01*
X111090768Y-108139161D01*
X111016392Y-108000011D01*
X110970590Y-107849024D01*
X110959000Y-107731345D01*
X110959000Y-107152654D01*
X110970590Y-107034975D01*
X110993491Y-106959483D01*
X111016392Y-106883988D01*
X111090771Y-106744835D01*
X111190868Y-106622867D01*
X111312836Y-106522770D01*
X111451989Y-106448392D01*
X111602976Y-106402590D01*
X111760000Y-106387125D01*
X111917025Y-106402590D01*
X111917025Y-106402590D01*
G37*
G36*
X109377025Y-106402590D02*
X109528012Y-106448392D01*
X109667165Y-106522770D01*
X109789133Y-106622867D01*
X109889230Y-106744835D01*
X109963608Y-106883988D01*
X110009410Y-107034975D01*
X110021000Y-107152654D01*
X110021000Y-107731346D01*
X110009410Y-107849025D01*
X109963608Y-108000012D01*
X109889230Y-108139165D01*
X109789136Y-108261130D01*
X109789134Y-108261131D01*
X109789133Y-108261133D01*
X109789129Y-108261136D01*
X109667161Y-108361232D01*
X109528011Y-108435608D01*
X109377024Y-108481410D01*
X109220000Y-108496875D01*
X109062975Y-108481410D01*
X108911988Y-108435608D01*
X108772835Y-108361230D01*
X108650870Y-108261136D01*
X108650869Y-108261134D01*
X108650867Y-108261133D01*
X108600819Y-108200149D01*
X108550768Y-108139161D01*
X108476392Y-108000011D01*
X108430590Y-107849024D01*
X108419000Y-107731345D01*
X108419000Y-107152654D01*
X108430590Y-107034975D01*
X108453491Y-106959483D01*
X108476392Y-106883988D01*
X108550771Y-106744835D01*
X108650868Y-106622867D01*
X108772836Y-106522770D01*
X108911989Y-106448392D01*
X109062976Y-106402590D01*
X109220000Y-106387125D01*
X109377025Y-106402590D01*
X109377025Y-106402590D01*
G37*
G36*
X106837025Y-106402590D02*
X106988012Y-106448392D01*
X107127165Y-106522770D01*
X107249133Y-106622867D01*
X107349230Y-106744835D01*
X107423608Y-106883988D01*
X107469410Y-107034975D01*
X107481000Y-107152654D01*
X107481000Y-107731346D01*
X107469410Y-107849025D01*
X107423608Y-108000012D01*
X107349230Y-108139165D01*
X107249136Y-108261130D01*
X107249134Y-108261131D01*
X107249133Y-108261133D01*
X107249129Y-108261136D01*
X107127161Y-108361232D01*
X106988011Y-108435608D01*
X106837024Y-108481410D01*
X106680000Y-108496875D01*
X106522975Y-108481410D01*
X106371988Y-108435608D01*
X106232835Y-108361230D01*
X106110870Y-108261136D01*
X106110869Y-108261134D01*
X106110867Y-108261133D01*
X106060819Y-108200149D01*
X106010768Y-108139161D01*
X105936392Y-108000011D01*
X105890590Y-107849024D01*
X105879000Y-107731345D01*
X105879000Y-107152654D01*
X105890590Y-107034975D01*
X105913491Y-106959483D01*
X105936392Y-106883988D01*
X106010771Y-106744835D01*
X106110868Y-106622867D01*
X106232836Y-106522770D01*
X106371989Y-106448392D01*
X106522976Y-106402590D01*
X106680000Y-106387125D01*
X106837025Y-106402590D01*
X106837025Y-106402590D01*
G37*
G36*
X104297025Y-106402590D02*
X104448012Y-106448392D01*
X104587165Y-106522770D01*
X104709133Y-106622867D01*
X104809230Y-106744835D01*
X104883608Y-106883988D01*
X104929410Y-107034975D01*
X104941000Y-107152654D01*
X104941000Y-107731346D01*
X104929410Y-107849025D01*
X104883608Y-108000012D01*
X104809230Y-108139165D01*
X104709136Y-108261130D01*
X104709134Y-108261131D01*
X104709133Y-108261133D01*
X104709129Y-108261136D01*
X104587161Y-108361232D01*
X104448011Y-108435608D01*
X104297024Y-108481410D01*
X104140000Y-108496875D01*
X103982975Y-108481410D01*
X103831988Y-108435608D01*
X103692835Y-108361230D01*
X103570870Y-108261136D01*
X103570869Y-108261134D01*
X103570867Y-108261133D01*
X103520819Y-108200149D01*
X103470768Y-108139161D01*
X103396392Y-108000011D01*
X103350590Y-107849024D01*
X103339000Y-107731345D01*
X103339000Y-107152654D01*
X103350590Y-107034975D01*
X103373491Y-106959483D01*
X103396392Y-106883988D01*
X103470771Y-106744835D01*
X103570868Y-106622867D01*
X103692836Y-106522770D01*
X103831989Y-106448392D01*
X103982976Y-106402590D01*
X104140000Y-106387125D01*
X104297025Y-106402590D01*
X104297025Y-106402590D01*
G37*
G36*
X122077025Y-106402590D02*
X122228012Y-106448392D01*
X122367165Y-106522770D01*
X122489133Y-106622867D01*
X122589230Y-106744835D01*
X122663608Y-106883988D01*
X122709410Y-107034975D01*
X122721000Y-107152654D01*
X122721000Y-107731346D01*
X122709410Y-107849025D01*
X122663608Y-108000012D01*
X122589230Y-108139165D01*
X122489136Y-108261130D01*
X122489134Y-108261131D01*
X122489133Y-108261133D01*
X122489129Y-108261136D01*
X122367161Y-108361232D01*
X122228011Y-108435608D01*
X122077024Y-108481410D01*
X121920000Y-108496875D01*
X121762975Y-108481410D01*
X121611988Y-108435608D01*
X121472835Y-108361230D01*
X121350870Y-108261136D01*
X121350869Y-108261134D01*
X121350867Y-108261133D01*
X121300819Y-108200149D01*
X121250768Y-108139161D01*
X121176392Y-108000011D01*
X121130590Y-107849024D01*
X121119000Y-107731345D01*
X121119000Y-107152654D01*
X121130590Y-107034975D01*
X121153491Y-106959483D01*
X121176392Y-106883988D01*
X121250771Y-106744835D01*
X121350868Y-106622867D01*
X121472836Y-106522770D01*
X121611989Y-106448392D01*
X121762976Y-106402590D01*
X121920000Y-106387125D01*
X122077025Y-106402590D01*
X122077025Y-106402590D01*
G37*
G36*
X96677025Y-106402590D02*
X96828012Y-106448392D01*
X96967165Y-106522770D01*
X97089133Y-106622867D01*
X97189230Y-106744835D01*
X97263608Y-106883988D01*
X97309410Y-107034975D01*
X97321000Y-107152654D01*
X97321000Y-107731346D01*
X97309410Y-107849025D01*
X97263608Y-108000012D01*
X97189230Y-108139165D01*
X97089136Y-108261130D01*
X97089134Y-108261131D01*
X97089133Y-108261133D01*
X97089129Y-108261136D01*
X96967161Y-108361232D01*
X96828011Y-108435608D01*
X96677024Y-108481410D01*
X96520000Y-108496875D01*
X96362975Y-108481410D01*
X96211988Y-108435608D01*
X96072835Y-108361230D01*
X95950870Y-108261136D01*
X95950869Y-108261134D01*
X95950867Y-108261133D01*
X95900819Y-108200149D01*
X95850768Y-108139161D01*
X95776392Y-108000011D01*
X95730590Y-107849024D01*
X95719000Y-107731345D01*
X95719000Y-107152654D01*
X95730590Y-107034975D01*
X95753491Y-106959483D01*
X95776392Y-106883988D01*
X95850771Y-106744835D01*
X95950868Y-106622867D01*
X96072836Y-106522770D01*
X96211989Y-106448392D01*
X96362976Y-106402590D01*
X96520000Y-106387125D01*
X96677025Y-106402590D01*
X96677025Y-106402590D01*
G37*
G36*
X94137025Y-106402590D02*
X94288012Y-106448392D01*
X94427165Y-106522770D01*
X94549133Y-106622867D01*
X94649230Y-106744835D01*
X94723608Y-106883988D01*
X94769410Y-107034975D01*
X94781000Y-107152654D01*
X94781000Y-107731346D01*
X94769410Y-107849025D01*
X94723608Y-108000012D01*
X94649230Y-108139165D01*
X94549136Y-108261130D01*
X94549134Y-108261131D01*
X94549133Y-108261133D01*
X94549129Y-108261136D01*
X94427161Y-108361232D01*
X94288011Y-108435608D01*
X94137024Y-108481410D01*
X93980000Y-108496875D01*
X93822975Y-108481410D01*
X93671988Y-108435608D01*
X93532835Y-108361230D01*
X93410870Y-108261136D01*
X93410869Y-108261134D01*
X93410867Y-108261133D01*
X93360819Y-108200149D01*
X93310768Y-108139161D01*
X93236392Y-108000011D01*
X93190590Y-107849024D01*
X93179000Y-107731345D01*
X93179000Y-107152654D01*
X93190590Y-107034975D01*
X93213491Y-106959483D01*
X93236392Y-106883988D01*
X93310771Y-106744835D01*
X93410868Y-106622867D01*
X93532836Y-106522770D01*
X93671989Y-106448392D01*
X93822976Y-106402590D01*
X93980000Y-106387125D01*
X94137025Y-106402590D01*
X94137025Y-106402590D01*
G37*
G36*
X89057025Y-106402590D02*
X89208012Y-106448392D01*
X89347165Y-106522770D01*
X89469133Y-106622867D01*
X89569230Y-106744835D01*
X89643608Y-106883988D01*
X89689410Y-107034975D01*
X89701000Y-107152654D01*
X89701000Y-107731346D01*
X89689410Y-107849025D01*
X89643608Y-108000012D01*
X89569230Y-108139165D01*
X89469136Y-108261130D01*
X89469134Y-108261131D01*
X89469133Y-108261133D01*
X89469129Y-108261136D01*
X89347161Y-108361232D01*
X89208011Y-108435608D01*
X89057024Y-108481410D01*
X88900000Y-108496875D01*
X88742975Y-108481410D01*
X88591988Y-108435608D01*
X88452835Y-108361230D01*
X88330870Y-108261136D01*
X88330869Y-108261134D01*
X88330867Y-108261133D01*
X88280819Y-108200149D01*
X88230768Y-108139161D01*
X88156392Y-108000011D01*
X88110590Y-107849024D01*
X88099000Y-107731345D01*
X88099000Y-107152654D01*
X88110590Y-107034975D01*
X88133491Y-106959483D01*
X88156392Y-106883988D01*
X88230771Y-106744835D01*
X88330868Y-106622867D01*
X88452836Y-106522770D01*
X88591989Y-106448392D01*
X88742976Y-106402590D01*
X88900000Y-106387125D01*
X89057025Y-106402590D01*
X89057025Y-106402590D01*
G37*
G36*
X86517025Y-106402590D02*
X86668012Y-106448392D01*
X86807165Y-106522770D01*
X86929133Y-106622867D01*
X87029230Y-106744835D01*
X87103608Y-106883988D01*
X87149410Y-107034975D01*
X87161000Y-107152654D01*
X87161000Y-107731346D01*
X87149410Y-107849025D01*
X87103608Y-108000012D01*
X87029230Y-108139165D01*
X86929136Y-108261130D01*
X86929134Y-108261131D01*
X86929133Y-108261133D01*
X86929129Y-108261136D01*
X86807161Y-108361232D01*
X86668011Y-108435608D01*
X86517024Y-108481410D01*
X86360000Y-108496875D01*
X86202975Y-108481410D01*
X86051988Y-108435608D01*
X85912835Y-108361230D01*
X85790870Y-108261136D01*
X85790869Y-108261134D01*
X85790867Y-108261133D01*
X85740819Y-108200149D01*
X85690768Y-108139161D01*
X85616392Y-108000011D01*
X85570590Y-107849024D01*
X85559000Y-107731345D01*
X85559000Y-107152654D01*
X85570590Y-107034975D01*
X85593491Y-106959483D01*
X85616392Y-106883988D01*
X85690771Y-106744835D01*
X85790868Y-106622867D01*
X85912836Y-106522770D01*
X86051989Y-106448392D01*
X86202976Y-106402590D01*
X86360000Y-106387125D01*
X86517025Y-106402590D01*
X86517025Y-106402590D01*
G37*
G36*
X91597025Y-106402590D02*
X91748012Y-106448392D01*
X91887165Y-106522770D01*
X92009133Y-106622867D01*
X92109230Y-106744835D01*
X92183608Y-106883988D01*
X92229410Y-107034975D01*
X92241000Y-107152654D01*
X92241000Y-107731346D01*
X92229410Y-107849025D01*
X92183608Y-108000012D01*
X92109230Y-108139165D01*
X92009136Y-108261130D01*
X92009134Y-108261131D01*
X92009133Y-108261133D01*
X92009129Y-108261136D01*
X91887161Y-108361232D01*
X91748011Y-108435608D01*
X91597024Y-108481410D01*
X91440000Y-108496875D01*
X91282975Y-108481410D01*
X91131988Y-108435608D01*
X90992835Y-108361230D01*
X90870870Y-108261136D01*
X90870869Y-108261134D01*
X90870867Y-108261133D01*
X90820819Y-108200149D01*
X90770768Y-108139161D01*
X90696392Y-108000011D01*
X90650590Y-107849024D01*
X90639000Y-107731345D01*
X90639000Y-107152654D01*
X90650590Y-107034975D01*
X90673491Y-106959483D01*
X90696392Y-106883988D01*
X90770771Y-106744835D01*
X90870868Y-106622867D01*
X90992836Y-106522770D01*
X91131989Y-106448392D01*
X91282976Y-106402590D01*
X91440000Y-106387125D01*
X91597025Y-106402590D01*
X91597025Y-106402590D01*
G37*
G36*
X101757025Y-106402590D02*
X101908012Y-106448392D01*
X102047165Y-106522770D01*
X102169133Y-106622867D01*
X102269230Y-106744835D01*
X102343608Y-106883988D01*
X102389410Y-107034975D01*
X102401000Y-107152654D01*
X102401000Y-107731346D01*
X102389410Y-107849025D01*
X102343608Y-108000012D01*
X102269230Y-108139165D01*
X102169136Y-108261130D01*
X102169134Y-108261131D01*
X102169133Y-108261133D01*
X102169129Y-108261136D01*
X102047161Y-108361232D01*
X101908011Y-108435608D01*
X101757024Y-108481410D01*
X101600000Y-108496875D01*
X101442975Y-108481410D01*
X101291988Y-108435608D01*
X101152835Y-108361230D01*
X101030870Y-108261136D01*
X101030869Y-108261134D01*
X101030867Y-108261133D01*
X100980819Y-108200149D01*
X100930768Y-108139161D01*
X100856392Y-108000011D01*
X100810590Y-107849024D01*
X100799000Y-107731345D01*
X100799000Y-107152654D01*
X100810590Y-107034975D01*
X100833491Y-106959483D01*
X100856392Y-106883988D01*
X100930771Y-106744835D01*
X101030868Y-106622867D01*
X101152836Y-106522770D01*
X101291989Y-106448392D01*
X101442976Y-106402590D01*
X101600000Y-106387125D01*
X101757025Y-106402590D01*
X101757025Y-106402590D01*
G37*
G36*
X125261000Y-108493000D02*
X123659000Y-108493000D01*
X123659000Y-106391000D01*
X125261000Y-106391000D01*
X125261000Y-108493000D01*
X125261000Y-108493000D01*
G37*
G36*
X94507024Y-96708590D02*
X94658011Y-96754392D01*
X94797161Y-96828768D01*
X94858149Y-96878819D01*
X94919133Y-96928867D01*
X94919134Y-96928869D01*
X94919136Y-96928870D01*
X95019230Y-97050835D01*
X95093608Y-97189988D01*
X95139410Y-97340975D01*
X95151000Y-97458654D01*
X95151000Y-98037346D01*
X95139410Y-98155025D01*
X95093608Y-98306012D01*
X95019230Y-98445165D01*
X94919133Y-98567133D01*
X94797165Y-98667230D01*
X94658012Y-98741608D01*
X94507025Y-98787410D01*
X94350000Y-98802875D01*
X94192976Y-98787410D01*
X94041989Y-98741608D01*
X93902836Y-98667230D01*
X93780868Y-98567133D01*
X93680771Y-98445165D01*
X93606392Y-98306012D01*
X93583491Y-98230517D01*
X93560590Y-98155025D01*
X93549000Y-98037346D01*
X93549000Y-97458655D01*
X93560590Y-97340976D01*
X93606392Y-97189989D01*
X93680768Y-97050839D01*
X93780865Y-96928870D01*
X93780867Y-96928867D01*
X93780869Y-96928866D01*
X93780870Y-96928864D01*
X93902835Y-96828770D01*
X94041988Y-96754392D01*
X94192975Y-96708590D01*
X94350000Y-96693125D01*
X94507024Y-96708590D01*
X94507024Y-96708590D01*
G37*
G36*
X97047024Y-96708590D02*
X97198011Y-96754392D01*
X97337161Y-96828768D01*
X97398149Y-96878819D01*
X97459133Y-96928867D01*
X97459134Y-96928869D01*
X97459136Y-96928870D01*
X97559230Y-97050835D01*
X97633608Y-97189988D01*
X97679410Y-97340975D01*
X97691000Y-97458654D01*
X97691000Y-98037346D01*
X97679410Y-98155025D01*
X97633608Y-98306012D01*
X97559230Y-98445165D01*
X97459133Y-98567133D01*
X97337165Y-98667230D01*
X97198012Y-98741608D01*
X97047025Y-98787410D01*
X96890000Y-98802875D01*
X96732976Y-98787410D01*
X96581989Y-98741608D01*
X96442836Y-98667230D01*
X96320868Y-98567133D01*
X96220771Y-98445165D01*
X96146392Y-98306012D01*
X96123491Y-98230517D01*
X96100590Y-98155025D01*
X96089000Y-98037346D01*
X96089000Y-97458655D01*
X96100590Y-97340976D01*
X96146392Y-97189989D01*
X96220768Y-97050839D01*
X96320865Y-96928870D01*
X96320867Y-96928867D01*
X96320869Y-96928866D01*
X96320870Y-96928864D01*
X96442835Y-96828770D01*
X96581988Y-96754392D01*
X96732975Y-96708590D01*
X96890000Y-96693125D01*
X97047024Y-96708590D01*
X97047024Y-96708590D01*
G37*
G36*
X81807024Y-96708590D02*
X81958011Y-96754392D01*
X82097161Y-96828768D01*
X82158149Y-96878819D01*
X82219133Y-96928867D01*
X82219134Y-96928869D01*
X82219136Y-96928870D01*
X82319230Y-97050835D01*
X82393608Y-97189988D01*
X82439410Y-97340975D01*
X82451000Y-97458654D01*
X82451000Y-98037346D01*
X82439410Y-98155025D01*
X82393608Y-98306012D01*
X82319230Y-98445165D01*
X82219133Y-98567133D01*
X82097165Y-98667230D01*
X81958012Y-98741608D01*
X81807025Y-98787410D01*
X81650000Y-98802875D01*
X81492976Y-98787410D01*
X81341989Y-98741608D01*
X81202836Y-98667230D01*
X81080868Y-98567133D01*
X80980771Y-98445165D01*
X80906392Y-98306012D01*
X80883491Y-98230517D01*
X80860590Y-98155025D01*
X80849000Y-98037346D01*
X80849000Y-97458655D01*
X80860590Y-97340976D01*
X80906392Y-97189989D01*
X80980768Y-97050839D01*
X81080865Y-96928870D01*
X81080867Y-96928867D01*
X81080869Y-96928866D01*
X81080870Y-96928864D01*
X81202835Y-96828770D01*
X81341988Y-96754392D01*
X81492975Y-96708590D01*
X81650000Y-96693125D01*
X81807024Y-96708590D01*
X81807024Y-96708590D01*
G37*
G36*
X84347024Y-96708590D02*
X84498011Y-96754392D01*
X84637161Y-96828768D01*
X84698149Y-96878819D01*
X84759133Y-96928867D01*
X84759134Y-96928869D01*
X84759136Y-96928870D01*
X84859230Y-97050835D01*
X84933608Y-97189988D01*
X84979410Y-97340975D01*
X84991000Y-97458654D01*
X84991000Y-98037346D01*
X84979410Y-98155025D01*
X84933608Y-98306012D01*
X84859230Y-98445165D01*
X84759133Y-98567133D01*
X84637165Y-98667230D01*
X84498012Y-98741608D01*
X84347025Y-98787410D01*
X84190000Y-98802875D01*
X84032976Y-98787410D01*
X83881989Y-98741608D01*
X83742836Y-98667230D01*
X83620868Y-98567133D01*
X83520771Y-98445165D01*
X83446392Y-98306012D01*
X83423491Y-98230517D01*
X83400590Y-98155025D01*
X83389000Y-98037346D01*
X83389000Y-97458655D01*
X83400590Y-97340976D01*
X83446392Y-97189989D01*
X83520768Y-97050839D01*
X83620865Y-96928870D01*
X83620867Y-96928867D01*
X83620869Y-96928866D01*
X83620870Y-96928864D01*
X83742835Y-96828770D01*
X83881988Y-96754392D01*
X84032975Y-96708590D01*
X84190000Y-96693125D01*
X84347024Y-96708590D01*
X84347024Y-96708590D01*
G37*
G36*
X89427024Y-96708590D02*
X89578011Y-96754392D01*
X89717161Y-96828768D01*
X89778149Y-96878819D01*
X89839133Y-96928867D01*
X89839134Y-96928869D01*
X89839136Y-96928870D01*
X89939230Y-97050835D01*
X90013608Y-97189988D01*
X90059410Y-97340975D01*
X90071000Y-97458654D01*
X90071000Y-98037346D01*
X90059410Y-98155025D01*
X90013608Y-98306012D01*
X89939230Y-98445165D01*
X89839133Y-98567133D01*
X89717165Y-98667230D01*
X89578012Y-98741608D01*
X89427025Y-98787410D01*
X89270000Y-98802875D01*
X89112976Y-98787410D01*
X88961989Y-98741608D01*
X88822836Y-98667230D01*
X88700868Y-98567133D01*
X88600771Y-98445165D01*
X88526392Y-98306012D01*
X88503491Y-98230517D01*
X88480590Y-98155025D01*
X88469000Y-98037346D01*
X88469000Y-97458655D01*
X88480590Y-97340976D01*
X88526392Y-97189989D01*
X88600768Y-97050839D01*
X88700865Y-96928870D01*
X88700867Y-96928867D01*
X88700869Y-96928866D01*
X88700870Y-96928864D01*
X88822835Y-96828770D01*
X88961988Y-96754392D01*
X89112975Y-96708590D01*
X89270000Y-96693125D01*
X89427024Y-96708590D01*
X89427024Y-96708590D01*
G37*
G36*
X86887024Y-96708590D02*
X87038011Y-96754392D01*
X87177161Y-96828768D01*
X87238149Y-96878819D01*
X87299133Y-96928867D01*
X87299134Y-96928869D01*
X87299136Y-96928870D01*
X87399230Y-97050835D01*
X87473608Y-97189988D01*
X87519410Y-97340975D01*
X87531000Y-97458654D01*
X87531000Y-98037346D01*
X87519410Y-98155025D01*
X87473608Y-98306012D01*
X87399230Y-98445165D01*
X87299133Y-98567133D01*
X87177165Y-98667230D01*
X87038012Y-98741608D01*
X86887025Y-98787410D01*
X86730000Y-98802875D01*
X86572976Y-98787410D01*
X86421989Y-98741608D01*
X86282836Y-98667230D01*
X86160868Y-98567133D01*
X86060771Y-98445165D01*
X85986392Y-98306012D01*
X85963491Y-98230517D01*
X85940590Y-98155025D01*
X85929000Y-98037346D01*
X85929000Y-97458655D01*
X85940590Y-97340976D01*
X85986392Y-97189989D01*
X86060768Y-97050839D01*
X86160865Y-96928870D01*
X86160867Y-96928867D01*
X86160869Y-96928866D01*
X86160870Y-96928864D01*
X86282835Y-96828770D01*
X86421988Y-96754392D01*
X86572975Y-96708590D01*
X86730000Y-96693125D01*
X86887024Y-96708590D01*
X86887024Y-96708590D01*
G37*
G36*
X91967024Y-96708590D02*
X92118011Y-96754392D01*
X92257161Y-96828768D01*
X92318149Y-96878819D01*
X92379133Y-96928867D01*
X92379134Y-96928869D01*
X92379136Y-96928870D01*
X92479230Y-97050835D01*
X92553608Y-97189988D01*
X92599410Y-97340975D01*
X92611000Y-97458654D01*
X92611000Y-98037346D01*
X92599410Y-98155025D01*
X92553608Y-98306012D01*
X92479230Y-98445165D01*
X92379133Y-98567133D01*
X92257165Y-98667230D01*
X92118012Y-98741608D01*
X91967025Y-98787410D01*
X91810000Y-98802875D01*
X91652976Y-98787410D01*
X91501989Y-98741608D01*
X91362836Y-98667230D01*
X91240868Y-98567133D01*
X91140771Y-98445165D01*
X91066392Y-98306012D01*
X91043491Y-98230517D01*
X91020590Y-98155025D01*
X91009000Y-98037346D01*
X91009000Y-97458655D01*
X91020590Y-97340976D01*
X91066392Y-97189989D01*
X91140768Y-97050839D01*
X91240865Y-96928870D01*
X91240867Y-96928867D01*
X91240869Y-96928866D01*
X91240870Y-96928864D01*
X91362835Y-96828770D01*
X91501988Y-96754392D01*
X91652975Y-96708590D01*
X91810000Y-96693125D01*
X91967024Y-96708590D01*
X91967024Y-96708590D01*
G37*
G36*
X79911000Y-98799000D02*
X78309000Y-98799000D01*
X78309000Y-96697000D01*
X79911000Y-96697000D01*
X79911000Y-98799000D01*
X79911000Y-98799000D01*
G37*
G36*
X136551025Y-93952590D02*
X136702012Y-93998392D01*
X136841165Y-94072770D01*
X136963133Y-94172867D01*
X137063230Y-94294835D01*
X137137608Y-94433988D01*
X137183410Y-94584975D01*
X137198875Y-94742000D01*
X137183410Y-94899025D01*
X137137608Y-95050012D01*
X137063230Y-95189165D01*
X136963133Y-95311133D01*
X136841165Y-95411230D01*
X136702012Y-95485608D01*
X136551025Y-95531410D01*
X136433346Y-95543000D01*
X135854654Y-95543000D01*
X135736975Y-95531410D01*
X135585988Y-95485608D01*
X135446835Y-95411230D01*
X135324867Y-95311133D01*
X135224770Y-95189165D01*
X135150392Y-95050012D01*
X135104590Y-94899025D01*
X135089125Y-94742000D01*
X135104590Y-94584975D01*
X135150392Y-94433988D01*
X135224770Y-94294835D01*
X135324867Y-94172867D01*
X135446835Y-94072770D01*
X135585988Y-93998392D01*
X135736975Y-93952590D01*
X135854654Y-93941000D01*
X136433346Y-93941000D01*
X136551025Y-93952590D01*
X136551025Y-93952590D01*
G37*
G36*
X111151025Y-93952590D02*
X111302012Y-93998392D01*
X111441165Y-94072770D01*
X111563133Y-94172867D01*
X111663230Y-94294835D01*
X111737608Y-94433988D01*
X111783410Y-94584975D01*
X111798875Y-94742000D01*
X111783410Y-94899025D01*
X111737608Y-95050012D01*
X111663230Y-95189165D01*
X111563133Y-95311133D01*
X111441165Y-95411230D01*
X111302012Y-95485608D01*
X111151025Y-95531410D01*
X111033346Y-95543000D01*
X110454654Y-95543000D01*
X110336975Y-95531410D01*
X110185988Y-95485608D01*
X110046835Y-95411230D01*
X109924867Y-95311133D01*
X109824770Y-95189165D01*
X109750392Y-95050012D01*
X109704590Y-94899025D01*
X109689125Y-94742000D01*
X109704590Y-94584975D01*
X109750392Y-94433988D01*
X109824770Y-94294835D01*
X109924867Y-94172867D01*
X110046835Y-94072770D01*
X110185988Y-93998392D01*
X110336975Y-93952590D01*
X110454654Y-93941000D01*
X111033346Y-93941000D01*
X111151025Y-93952590D01*
X111151025Y-93952590D01*
G37*
G36*
X111151025Y-91412590D02*
X111302012Y-91458392D01*
X111441165Y-91532770D01*
X111563133Y-91632867D01*
X111663230Y-91754835D01*
X111737608Y-91893988D01*
X111783410Y-92044975D01*
X111798875Y-92202000D01*
X111783410Y-92359025D01*
X111737608Y-92510012D01*
X111663230Y-92649165D01*
X111563133Y-92771133D01*
X111441165Y-92871230D01*
X111302012Y-92945608D01*
X111151025Y-92991410D01*
X111033346Y-93003000D01*
X110454654Y-93003000D01*
X110336975Y-92991410D01*
X110185988Y-92945608D01*
X110046835Y-92871230D01*
X109924867Y-92771133D01*
X109824770Y-92649165D01*
X109750392Y-92510012D01*
X109704590Y-92359025D01*
X109689125Y-92202000D01*
X109704590Y-92044975D01*
X109750392Y-91893988D01*
X109824770Y-91754835D01*
X109924867Y-91632867D01*
X110046835Y-91532770D01*
X110185988Y-91458392D01*
X110336975Y-91412590D01*
X110454654Y-91401000D01*
X111033346Y-91401000D01*
X111151025Y-91412590D01*
X111151025Y-91412590D01*
G37*
G36*
X136551025Y-91412590D02*
X136702012Y-91458392D01*
X136841165Y-91532770D01*
X136963133Y-91632867D01*
X137063230Y-91754835D01*
X137137608Y-91893988D01*
X137183410Y-92044975D01*
X137198875Y-92202000D01*
X137183410Y-92359025D01*
X137137608Y-92510012D01*
X137063230Y-92649165D01*
X136963133Y-92771133D01*
X136841165Y-92871230D01*
X136702012Y-92945608D01*
X136551025Y-92991410D01*
X136433346Y-93003000D01*
X135854654Y-93003000D01*
X135736975Y-92991410D01*
X135585988Y-92945608D01*
X135446835Y-92871230D01*
X135324867Y-92771133D01*
X135224770Y-92649165D01*
X135150392Y-92510012D01*
X135104590Y-92359025D01*
X135089125Y-92202000D01*
X135104590Y-92044975D01*
X135150392Y-91893988D01*
X135224770Y-91754835D01*
X135324867Y-91632867D01*
X135446835Y-91532770D01*
X135585988Y-91458392D01*
X135736975Y-91412590D01*
X135854654Y-91401000D01*
X136433346Y-91401000D01*
X136551025Y-91412590D01*
X136551025Y-91412590D01*
G37*
G36*
X111151025Y-88872590D02*
X111302012Y-88918392D01*
X111441165Y-88992770D01*
X111563133Y-89092867D01*
X111663230Y-89214835D01*
X111737608Y-89353988D01*
X111783410Y-89504975D01*
X111798875Y-89662000D01*
X111783410Y-89819025D01*
X111737608Y-89970012D01*
X111663230Y-90109165D01*
X111563133Y-90231133D01*
X111441165Y-90331230D01*
X111302012Y-90405608D01*
X111151025Y-90451410D01*
X111033346Y-90463000D01*
X110454654Y-90463000D01*
X110336975Y-90451410D01*
X110185988Y-90405608D01*
X110046835Y-90331230D01*
X109924867Y-90231133D01*
X109824770Y-90109165D01*
X109750392Y-89970012D01*
X109704590Y-89819025D01*
X109689125Y-89662000D01*
X109704590Y-89504975D01*
X109750392Y-89353988D01*
X109824770Y-89214835D01*
X109924867Y-89092867D01*
X110046835Y-88992770D01*
X110185988Y-88918392D01*
X110336975Y-88872590D01*
X110454654Y-88861000D01*
X111033346Y-88861000D01*
X111151025Y-88872590D01*
X111151025Y-88872590D01*
G37*
G36*
X136551025Y-88872590D02*
X136702012Y-88918392D01*
X136841165Y-88992770D01*
X136963133Y-89092867D01*
X137063230Y-89214835D01*
X137137608Y-89353988D01*
X137183410Y-89504975D01*
X137198875Y-89662000D01*
X137183410Y-89819025D01*
X137137608Y-89970012D01*
X137063230Y-90109165D01*
X136963133Y-90231133D01*
X136841165Y-90331230D01*
X136702012Y-90405608D01*
X136551025Y-90451410D01*
X136433346Y-90463000D01*
X135854654Y-90463000D01*
X135736975Y-90451410D01*
X135585988Y-90405608D01*
X135446835Y-90331230D01*
X135324867Y-90231133D01*
X135224770Y-90109165D01*
X135150392Y-89970012D01*
X135104590Y-89819025D01*
X135089125Y-89662000D01*
X135104590Y-89504975D01*
X135150392Y-89353988D01*
X135224770Y-89214835D01*
X135324867Y-89092867D01*
X135446835Y-88992770D01*
X135585988Y-88918392D01*
X135736975Y-88872590D01*
X135854654Y-88861000D01*
X136433346Y-88861000D01*
X136551025Y-88872590D01*
X136551025Y-88872590D01*
G37*
G36*
X136551025Y-86332590D02*
X136702012Y-86378392D01*
X136841165Y-86452770D01*
X136963133Y-86552867D01*
X137063230Y-86674835D01*
X137137608Y-86813988D01*
X137183410Y-86964975D01*
X137198875Y-87122000D01*
X137183410Y-87279025D01*
X137137608Y-87430012D01*
X137063230Y-87569165D01*
X136963133Y-87691133D01*
X136841165Y-87791230D01*
X136702012Y-87865608D01*
X136551025Y-87911410D01*
X136433346Y-87923000D01*
X135854654Y-87923000D01*
X135736975Y-87911410D01*
X135585988Y-87865608D01*
X135446835Y-87791230D01*
X135324867Y-87691133D01*
X135224770Y-87569165D01*
X135150392Y-87430012D01*
X135104590Y-87279025D01*
X135089125Y-87122000D01*
X135104590Y-86964975D01*
X135150392Y-86813988D01*
X135224770Y-86674835D01*
X135324867Y-86552867D01*
X135446835Y-86452770D01*
X135585988Y-86378392D01*
X135736975Y-86332590D01*
X135854654Y-86321000D01*
X136433346Y-86321000D01*
X136551025Y-86332590D01*
X136551025Y-86332590D01*
G37*
G36*
X111151025Y-86332590D02*
X111302012Y-86378392D01*
X111441165Y-86452770D01*
X111563133Y-86552867D01*
X111663230Y-86674835D01*
X111737608Y-86813988D01*
X111783410Y-86964975D01*
X111798875Y-87122000D01*
X111783410Y-87279025D01*
X111737608Y-87430012D01*
X111663230Y-87569165D01*
X111563133Y-87691133D01*
X111441165Y-87791230D01*
X111302012Y-87865608D01*
X111151025Y-87911410D01*
X111033346Y-87923000D01*
X110454654Y-87923000D01*
X110336975Y-87911410D01*
X110185988Y-87865608D01*
X110046835Y-87791230D01*
X109924867Y-87691133D01*
X109824770Y-87569165D01*
X109750392Y-87430012D01*
X109704590Y-87279025D01*
X109689125Y-87122000D01*
X109704590Y-86964975D01*
X109750392Y-86813988D01*
X109824770Y-86674835D01*
X109924867Y-86552867D01*
X110046835Y-86452770D01*
X110185988Y-86378392D01*
X110336975Y-86332590D01*
X110454654Y-86321000D01*
X111033346Y-86321000D01*
X111151025Y-86332590D01*
X111151025Y-86332590D01*
G37*
G36*
X136551025Y-83792590D02*
X136702012Y-83838392D01*
X136841165Y-83912770D01*
X136963133Y-84012867D01*
X137063230Y-84134835D01*
X137137608Y-84273988D01*
X137183410Y-84424975D01*
X137198875Y-84582000D01*
X137183410Y-84739025D01*
X137137608Y-84890012D01*
X137063230Y-85029165D01*
X136963133Y-85151133D01*
X136841165Y-85251230D01*
X136702012Y-85325608D01*
X136551025Y-85371410D01*
X136433346Y-85383000D01*
X135854654Y-85383000D01*
X135736975Y-85371410D01*
X135585988Y-85325608D01*
X135446835Y-85251230D01*
X135324867Y-85151133D01*
X135224770Y-85029165D01*
X135150392Y-84890012D01*
X135104590Y-84739025D01*
X135089125Y-84582000D01*
X135104590Y-84424975D01*
X135150392Y-84273988D01*
X135224770Y-84134835D01*
X135324867Y-84012867D01*
X135446835Y-83912770D01*
X135585988Y-83838392D01*
X135736975Y-83792590D01*
X135854654Y-83781000D01*
X136433346Y-83781000D01*
X136551025Y-83792590D01*
X136551025Y-83792590D01*
G37*
G36*
X111151025Y-83792590D02*
X111302012Y-83838392D01*
X111441165Y-83912770D01*
X111563133Y-84012867D01*
X111663230Y-84134835D01*
X111737608Y-84273988D01*
X111783410Y-84424975D01*
X111798875Y-84582000D01*
X111783410Y-84739025D01*
X111737608Y-84890012D01*
X111663230Y-85029165D01*
X111563133Y-85151133D01*
X111441165Y-85251230D01*
X111302012Y-85325608D01*
X111151025Y-85371410D01*
X111033346Y-85383000D01*
X110454654Y-85383000D01*
X110336975Y-85371410D01*
X110185988Y-85325608D01*
X110046835Y-85251230D01*
X109924867Y-85151133D01*
X109824770Y-85029165D01*
X109750392Y-84890012D01*
X109704590Y-84739025D01*
X109689125Y-84582000D01*
X109704590Y-84424975D01*
X109750392Y-84273988D01*
X109824770Y-84134835D01*
X109924867Y-84012867D01*
X110046835Y-83912770D01*
X110185988Y-83838392D01*
X110336975Y-83792590D01*
X110454654Y-83781000D01*
X111033346Y-83781000D01*
X111151025Y-83792590D01*
X111151025Y-83792590D01*
G37*
G36*
X111795000Y-82843000D02*
X109693000Y-82843000D01*
X109693000Y-81241000D01*
X111795000Y-81241000D01*
X111795000Y-82843000D01*
X111795000Y-82843000D01*
G37*
G36*
X137195000Y-82843000D02*
X135093000Y-82843000D01*
X135093000Y-81241000D01*
X137195000Y-81241000D01*
X137195000Y-82843000D01*
X137195000Y-82843000D01*
G37*
G36*
X86887024Y-73848590D02*
X87038011Y-73894392D01*
X87177161Y-73968768D01*
X87238148Y-74018819D01*
X87299133Y-74068867D01*
X87299134Y-74068869D01*
X87299136Y-74068870D01*
X87399230Y-74190835D01*
X87473608Y-74329988D01*
X87519410Y-74480975D01*
X87531000Y-74598654D01*
X87531000Y-75177346D01*
X87519410Y-75295025D01*
X87473608Y-75446012D01*
X87399230Y-75585165D01*
X87299133Y-75707133D01*
X87177165Y-75807230D01*
X87038012Y-75881608D01*
X86887025Y-75927410D01*
X86730000Y-75942875D01*
X86572976Y-75927410D01*
X86421989Y-75881608D01*
X86282836Y-75807230D01*
X86160868Y-75707133D01*
X86060771Y-75585165D01*
X85986392Y-75446012D01*
X85963491Y-75370517D01*
X85940590Y-75295025D01*
X85929000Y-75177346D01*
X85929000Y-74598655D01*
X85940590Y-74480976D01*
X85986392Y-74329989D01*
X86060768Y-74190839D01*
X86160865Y-74068870D01*
X86160867Y-74068867D01*
X86160869Y-74068866D01*
X86160870Y-74068864D01*
X86282835Y-73968770D01*
X86421988Y-73894392D01*
X86572975Y-73848590D01*
X86730000Y-73833125D01*
X86887024Y-73848590D01*
X86887024Y-73848590D01*
G37*
G36*
X94507024Y-73848590D02*
X94658011Y-73894392D01*
X94797161Y-73968768D01*
X94858148Y-74018819D01*
X94919133Y-74068867D01*
X94919134Y-74068869D01*
X94919136Y-74068870D01*
X95019230Y-74190835D01*
X95093608Y-74329988D01*
X95139410Y-74480975D01*
X95151000Y-74598654D01*
X95151000Y-75177346D01*
X95139410Y-75295025D01*
X95093608Y-75446012D01*
X95019230Y-75585165D01*
X94919133Y-75707133D01*
X94797165Y-75807230D01*
X94658012Y-75881608D01*
X94507025Y-75927410D01*
X94350000Y-75942875D01*
X94192976Y-75927410D01*
X94041989Y-75881608D01*
X93902836Y-75807230D01*
X93780868Y-75707133D01*
X93680771Y-75585165D01*
X93606392Y-75446012D01*
X93583491Y-75370517D01*
X93560590Y-75295025D01*
X93549000Y-75177346D01*
X93549000Y-74598655D01*
X93560590Y-74480976D01*
X93606392Y-74329989D01*
X93680768Y-74190839D01*
X93780865Y-74068870D01*
X93780867Y-74068867D01*
X93780869Y-74068866D01*
X93780870Y-74068864D01*
X93902835Y-73968770D01*
X94041988Y-73894392D01*
X94192975Y-73848590D01*
X94350000Y-73833125D01*
X94507024Y-73848590D01*
X94507024Y-73848590D01*
G37*
G36*
X89427024Y-73848590D02*
X89578011Y-73894392D01*
X89717161Y-73968768D01*
X89778148Y-74018819D01*
X89839133Y-74068867D01*
X89839134Y-74068869D01*
X89839136Y-74068870D01*
X89939230Y-74190835D01*
X90013608Y-74329988D01*
X90059410Y-74480975D01*
X90071000Y-74598654D01*
X90071000Y-75177346D01*
X90059410Y-75295025D01*
X90013608Y-75446012D01*
X89939230Y-75585165D01*
X89839133Y-75707133D01*
X89717165Y-75807230D01*
X89578012Y-75881608D01*
X89427025Y-75927410D01*
X89270000Y-75942875D01*
X89112976Y-75927410D01*
X88961989Y-75881608D01*
X88822836Y-75807230D01*
X88700868Y-75707133D01*
X88600771Y-75585165D01*
X88526392Y-75446012D01*
X88503491Y-75370517D01*
X88480590Y-75295025D01*
X88469000Y-75177346D01*
X88469000Y-74598655D01*
X88480590Y-74480976D01*
X88526392Y-74329989D01*
X88600768Y-74190839D01*
X88700865Y-74068870D01*
X88700867Y-74068867D01*
X88700869Y-74068866D01*
X88700870Y-74068864D01*
X88822835Y-73968770D01*
X88961988Y-73894392D01*
X89112975Y-73848590D01*
X89270000Y-73833125D01*
X89427024Y-73848590D01*
X89427024Y-73848590D01*
G37*
G36*
X84347024Y-73848590D02*
X84498011Y-73894392D01*
X84637161Y-73968768D01*
X84698148Y-74018819D01*
X84759133Y-74068867D01*
X84759134Y-74068869D01*
X84759136Y-74068870D01*
X84859230Y-74190835D01*
X84933608Y-74329988D01*
X84979410Y-74480975D01*
X84991000Y-74598654D01*
X84991000Y-75177346D01*
X84979410Y-75295025D01*
X84933608Y-75446012D01*
X84859230Y-75585165D01*
X84759133Y-75707133D01*
X84637165Y-75807230D01*
X84498012Y-75881608D01*
X84347025Y-75927410D01*
X84190000Y-75942875D01*
X84032976Y-75927410D01*
X83881989Y-75881608D01*
X83742836Y-75807230D01*
X83620868Y-75707133D01*
X83520771Y-75585165D01*
X83446392Y-75446012D01*
X83423491Y-75370517D01*
X83400590Y-75295025D01*
X83389000Y-75177346D01*
X83389000Y-74598655D01*
X83400590Y-74480976D01*
X83446392Y-74329989D01*
X83520768Y-74190839D01*
X83620865Y-74068870D01*
X83620867Y-74068867D01*
X83620869Y-74068866D01*
X83620870Y-74068864D01*
X83742835Y-73968770D01*
X83881988Y-73894392D01*
X84032975Y-73848590D01*
X84190000Y-73833125D01*
X84347024Y-73848590D01*
X84347024Y-73848590D01*
G37*
G36*
X81807024Y-73848590D02*
X81958011Y-73894392D01*
X82097161Y-73968768D01*
X82158148Y-74018819D01*
X82219133Y-74068867D01*
X82219134Y-74068869D01*
X82219136Y-74068870D01*
X82319230Y-74190835D01*
X82393608Y-74329988D01*
X82439410Y-74480975D01*
X82451000Y-74598654D01*
X82451000Y-75177346D01*
X82439410Y-75295025D01*
X82393608Y-75446012D01*
X82319230Y-75585165D01*
X82219133Y-75707133D01*
X82097165Y-75807230D01*
X81958012Y-75881608D01*
X81807025Y-75927410D01*
X81650000Y-75942875D01*
X81492976Y-75927410D01*
X81341989Y-75881608D01*
X81202836Y-75807230D01*
X81080868Y-75707133D01*
X80980771Y-75585165D01*
X80906392Y-75446012D01*
X80883491Y-75370517D01*
X80860590Y-75295025D01*
X80849000Y-75177346D01*
X80849000Y-74598655D01*
X80860590Y-74480976D01*
X80906392Y-74329989D01*
X80980768Y-74190839D01*
X81080865Y-74068870D01*
X81080867Y-74068867D01*
X81080869Y-74068866D01*
X81080870Y-74068864D01*
X81202835Y-73968770D01*
X81341988Y-73894392D01*
X81492975Y-73848590D01*
X81650000Y-73833125D01*
X81807024Y-73848590D01*
X81807024Y-73848590D01*
G37*
G36*
X97047024Y-73848590D02*
X97198011Y-73894392D01*
X97337161Y-73968768D01*
X97398148Y-74018819D01*
X97459133Y-74068867D01*
X97459134Y-74068869D01*
X97459136Y-74068870D01*
X97559230Y-74190835D01*
X97633608Y-74329988D01*
X97679410Y-74480975D01*
X97691000Y-74598654D01*
X97691000Y-75177346D01*
X97679410Y-75295025D01*
X97633608Y-75446012D01*
X97559230Y-75585165D01*
X97459133Y-75707133D01*
X97337165Y-75807230D01*
X97198012Y-75881608D01*
X97047025Y-75927410D01*
X96890000Y-75942875D01*
X96732976Y-75927410D01*
X96581989Y-75881608D01*
X96442836Y-75807230D01*
X96320868Y-75707133D01*
X96220771Y-75585165D01*
X96146392Y-75446012D01*
X96123491Y-75370517D01*
X96100590Y-75295025D01*
X96089000Y-75177346D01*
X96089000Y-74598655D01*
X96100590Y-74480976D01*
X96146392Y-74329989D01*
X96220768Y-74190839D01*
X96320865Y-74068870D01*
X96320867Y-74068867D01*
X96320869Y-74068866D01*
X96320870Y-74068864D01*
X96442835Y-73968770D01*
X96581988Y-73894392D01*
X96732975Y-73848590D01*
X96890000Y-73833125D01*
X97047024Y-73848590D01*
X97047024Y-73848590D01*
G37*
G36*
X91967024Y-73848590D02*
X92118011Y-73894392D01*
X92257161Y-73968768D01*
X92318148Y-74018819D01*
X92379133Y-74068867D01*
X92379134Y-74068869D01*
X92379136Y-74068870D01*
X92479230Y-74190835D01*
X92553608Y-74329988D01*
X92599410Y-74480975D01*
X92611000Y-74598654D01*
X92611000Y-75177346D01*
X92599410Y-75295025D01*
X92553608Y-75446012D01*
X92479230Y-75585165D01*
X92379133Y-75707133D01*
X92257165Y-75807230D01*
X92118012Y-75881608D01*
X91967025Y-75927410D01*
X91810000Y-75942875D01*
X91652976Y-75927410D01*
X91501989Y-75881608D01*
X91362836Y-75807230D01*
X91240868Y-75707133D01*
X91140771Y-75585165D01*
X91066392Y-75446012D01*
X91043491Y-75370517D01*
X91020590Y-75295025D01*
X91009000Y-75177346D01*
X91009000Y-74598655D01*
X91020590Y-74480976D01*
X91066392Y-74329989D01*
X91140768Y-74190839D01*
X91240865Y-74068870D01*
X91240867Y-74068867D01*
X91240869Y-74068866D01*
X91240870Y-74068864D01*
X91362835Y-73968770D01*
X91501988Y-73894392D01*
X91652975Y-73848590D01*
X91810000Y-73833125D01*
X91967024Y-73848590D01*
X91967024Y-73848590D01*
G37*
G36*
X79911000Y-75939000D02*
X78309000Y-75939000D01*
X78309000Y-73837000D01*
X79911000Y-73837000D01*
X79911000Y-75939000D01*
X79911000Y-75939000D01*
G37*
G36*
X81807024Y-66708590D02*
X81958011Y-66754392D01*
X82097161Y-66828768D01*
X82158148Y-66878819D01*
X82219133Y-66928867D01*
X82219134Y-66928869D01*
X82219136Y-66928870D01*
X82319230Y-67050835D01*
X82393608Y-67189988D01*
X82439410Y-67340975D01*
X82451000Y-67458654D01*
X82451000Y-68037346D01*
X82439410Y-68155025D01*
X82393608Y-68306012D01*
X82319230Y-68445165D01*
X82219133Y-68567133D01*
X82097165Y-68667230D01*
X81958012Y-68741608D01*
X81807025Y-68787410D01*
X81650000Y-68802875D01*
X81492976Y-68787410D01*
X81341989Y-68741608D01*
X81202836Y-68667230D01*
X81080868Y-68567133D01*
X80980771Y-68445165D01*
X80906392Y-68306012D01*
X80883491Y-68230518D01*
X80860590Y-68155025D01*
X80849000Y-68037346D01*
X80849000Y-67458655D01*
X80860590Y-67340976D01*
X80906392Y-67189989D01*
X80980768Y-67050839D01*
X81080865Y-66928870D01*
X81080867Y-66928867D01*
X81080869Y-66928866D01*
X81080870Y-66928864D01*
X81202835Y-66828770D01*
X81341988Y-66754392D01*
X81492975Y-66708590D01*
X81650000Y-66693125D01*
X81807024Y-66708590D01*
X81807024Y-66708590D01*
G37*
G36*
X84347024Y-66708590D02*
X84498011Y-66754392D01*
X84637161Y-66828768D01*
X84698148Y-66878819D01*
X84759133Y-66928867D01*
X84759134Y-66928869D01*
X84759136Y-66928870D01*
X84859230Y-67050835D01*
X84933608Y-67189988D01*
X84979410Y-67340975D01*
X84991000Y-67458654D01*
X84991000Y-68037346D01*
X84979410Y-68155025D01*
X84933608Y-68306012D01*
X84859230Y-68445165D01*
X84759133Y-68567133D01*
X84637165Y-68667230D01*
X84498012Y-68741608D01*
X84347025Y-68787410D01*
X84190000Y-68802875D01*
X84032976Y-68787410D01*
X83881989Y-68741608D01*
X83742836Y-68667230D01*
X83620868Y-68567133D01*
X83520771Y-68445165D01*
X83446392Y-68306012D01*
X83423491Y-68230518D01*
X83400590Y-68155025D01*
X83389000Y-68037346D01*
X83389000Y-67458655D01*
X83400590Y-67340976D01*
X83446392Y-67189989D01*
X83520768Y-67050839D01*
X83620865Y-66928870D01*
X83620867Y-66928867D01*
X83620869Y-66928866D01*
X83620870Y-66928864D01*
X83742835Y-66828770D01*
X83881988Y-66754392D01*
X84032975Y-66708590D01*
X84190000Y-66693125D01*
X84347024Y-66708590D01*
X84347024Y-66708590D01*
G37*
G36*
X86887024Y-66708590D02*
X87038011Y-66754392D01*
X87177161Y-66828768D01*
X87238148Y-66878819D01*
X87299133Y-66928867D01*
X87299134Y-66928869D01*
X87299136Y-66928870D01*
X87399230Y-67050835D01*
X87473608Y-67189988D01*
X87519410Y-67340975D01*
X87531000Y-67458654D01*
X87531000Y-68037346D01*
X87519410Y-68155025D01*
X87473608Y-68306012D01*
X87399230Y-68445165D01*
X87299133Y-68567133D01*
X87177165Y-68667230D01*
X87038012Y-68741608D01*
X86887025Y-68787410D01*
X86730000Y-68802875D01*
X86572976Y-68787410D01*
X86421989Y-68741608D01*
X86282836Y-68667230D01*
X86160868Y-68567133D01*
X86060771Y-68445165D01*
X85986392Y-68306012D01*
X85963491Y-68230518D01*
X85940590Y-68155025D01*
X85929000Y-68037346D01*
X85929000Y-67458655D01*
X85940590Y-67340976D01*
X85986392Y-67189989D01*
X86060768Y-67050839D01*
X86160865Y-66928870D01*
X86160867Y-66928867D01*
X86160869Y-66928866D01*
X86160870Y-66928864D01*
X86282835Y-66828770D01*
X86421988Y-66754392D01*
X86572975Y-66708590D01*
X86730000Y-66693125D01*
X86887024Y-66708590D01*
X86887024Y-66708590D01*
G37*
G36*
X89427024Y-66708590D02*
X89578011Y-66754392D01*
X89717161Y-66828768D01*
X89778148Y-66878819D01*
X89839133Y-66928867D01*
X89839134Y-66928869D01*
X89839136Y-66928870D01*
X89939230Y-67050835D01*
X90013608Y-67189988D01*
X90059410Y-67340975D01*
X90071000Y-67458654D01*
X90071000Y-68037346D01*
X90059410Y-68155025D01*
X90013608Y-68306012D01*
X89939230Y-68445165D01*
X89839133Y-68567133D01*
X89717165Y-68667230D01*
X89578012Y-68741608D01*
X89427025Y-68787410D01*
X89270000Y-68802875D01*
X89112976Y-68787410D01*
X88961989Y-68741608D01*
X88822836Y-68667230D01*
X88700868Y-68567133D01*
X88600771Y-68445165D01*
X88526392Y-68306012D01*
X88503491Y-68230518D01*
X88480590Y-68155025D01*
X88469000Y-68037346D01*
X88469000Y-67458655D01*
X88480590Y-67340976D01*
X88526392Y-67189989D01*
X88600768Y-67050839D01*
X88700865Y-66928870D01*
X88700867Y-66928867D01*
X88700869Y-66928866D01*
X88700870Y-66928864D01*
X88822835Y-66828770D01*
X88961988Y-66754392D01*
X89112975Y-66708590D01*
X89270000Y-66693125D01*
X89427024Y-66708590D01*
X89427024Y-66708590D01*
G37*
G36*
X94507024Y-66708590D02*
X94658011Y-66754392D01*
X94797161Y-66828768D01*
X94858148Y-66878819D01*
X94919133Y-66928867D01*
X94919134Y-66928869D01*
X94919136Y-66928870D01*
X95019230Y-67050835D01*
X95093608Y-67189988D01*
X95139410Y-67340975D01*
X95151000Y-67458654D01*
X95151000Y-68037346D01*
X95139410Y-68155025D01*
X95093608Y-68306012D01*
X95019230Y-68445165D01*
X94919133Y-68567133D01*
X94797165Y-68667230D01*
X94658012Y-68741608D01*
X94507025Y-68787410D01*
X94350000Y-68802875D01*
X94192976Y-68787410D01*
X94041989Y-68741608D01*
X93902836Y-68667230D01*
X93780868Y-68567133D01*
X93680771Y-68445165D01*
X93606392Y-68306012D01*
X93583491Y-68230518D01*
X93560590Y-68155025D01*
X93549000Y-68037346D01*
X93549000Y-67458655D01*
X93560590Y-67340976D01*
X93606392Y-67189989D01*
X93680768Y-67050839D01*
X93780865Y-66928870D01*
X93780867Y-66928867D01*
X93780869Y-66928866D01*
X93780870Y-66928864D01*
X93902835Y-66828770D01*
X94041988Y-66754392D01*
X94192975Y-66708590D01*
X94350000Y-66693125D01*
X94507024Y-66708590D01*
X94507024Y-66708590D01*
G37*
G36*
X97047024Y-66708590D02*
X97198011Y-66754392D01*
X97337161Y-66828768D01*
X97398148Y-66878819D01*
X97459133Y-66928867D01*
X97459134Y-66928869D01*
X97459136Y-66928870D01*
X97559230Y-67050835D01*
X97633608Y-67189988D01*
X97679410Y-67340975D01*
X97691000Y-67458654D01*
X97691000Y-68037346D01*
X97679410Y-68155025D01*
X97633608Y-68306012D01*
X97559230Y-68445165D01*
X97459133Y-68567133D01*
X97337165Y-68667230D01*
X97198012Y-68741608D01*
X97047025Y-68787410D01*
X96890000Y-68802875D01*
X96732976Y-68787410D01*
X96581989Y-68741608D01*
X96442836Y-68667230D01*
X96320868Y-68567133D01*
X96220771Y-68445165D01*
X96146392Y-68306012D01*
X96123491Y-68230518D01*
X96100590Y-68155025D01*
X96089000Y-68037346D01*
X96089000Y-67458655D01*
X96100590Y-67340976D01*
X96146392Y-67189989D01*
X96220768Y-67050839D01*
X96320865Y-66928870D01*
X96320867Y-66928867D01*
X96320869Y-66928866D01*
X96320870Y-66928864D01*
X96442835Y-66828770D01*
X96581988Y-66754392D01*
X96732975Y-66708590D01*
X96890000Y-66693125D01*
X97047024Y-66708590D01*
X97047024Y-66708590D01*
G37*
G36*
X134047024Y-66708590D02*
X134198011Y-66754392D01*
X134337161Y-66828768D01*
X134398148Y-66878819D01*
X134459133Y-66928867D01*
X134459134Y-66928869D01*
X134459136Y-66928870D01*
X134559230Y-67050835D01*
X134633608Y-67189988D01*
X134679410Y-67340975D01*
X134691000Y-67458654D01*
X134691000Y-68037346D01*
X134679410Y-68155025D01*
X134633608Y-68306012D01*
X134559230Y-68445165D01*
X134459133Y-68567133D01*
X134337165Y-68667230D01*
X134198012Y-68741608D01*
X134047025Y-68787410D01*
X133890000Y-68802875D01*
X133732976Y-68787410D01*
X133581989Y-68741608D01*
X133442836Y-68667230D01*
X133320868Y-68567133D01*
X133220771Y-68445165D01*
X133146392Y-68306012D01*
X133123491Y-68230518D01*
X133100590Y-68155025D01*
X133089000Y-68037346D01*
X133089000Y-67458655D01*
X133100590Y-67340976D01*
X133146392Y-67189989D01*
X133220768Y-67050839D01*
X133320865Y-66928870D01*
X133320867Y-66928867D01*
X133320869Y-66928866D01*
X133320870Y-66928864D01*
X133442835Y-66828770D01*
X133581988Y-66754392D01*
X133732975Y-66708590D01*
X133890000Y-66693125D01*
X134047024Y-66708590D01*
X134047024Y-66708590D01*
G37*
G36*
X128967024Y-66708590D02*
X129118011Y-66754392D01*
X129257161Y-66828768D01*
X129318148Y-66878819D01*
X129379133Y-66928867D01*
X129379134Y-66928869D01*
X129379136Y-66928870D01*
X129479230Y-67050835D01*
X129553608Y-67189988D01*
X129599410Y-67340975D01*
X129611000Y-67458654D01*
X129611000Y-68037346D01*
X129599410Y-68155025D01*
X129553608Y-68306012D01*
X129479230Y-68445165D01*
X129379133Y-68567133D01*
X129257165Y-68667230D01*
X129118012Y-68741608D01*
X128967025Y-68787410D01*
X128810000Y-68802875D01*
X128652976Y-68787410D01*
X128501989Y-68741608D01*
X128362836Y-68667230D01*
X128240868Y-68567133D01*
X128140771Y-68445165D01*
X128066392Y-68306012D01*
X128043491Y-68230518D01*
X128020590Y-68155025D01*
X128009000Y-68037346D01*
X128009000Y-67458655D01*
X128020590Y-67340976D01*
X128066392Y-67189989D01*
X128140768Y-67050839D01*
X128240865Y-66928870D01*
X128240867Y-66928867D01*
X128240869Y-66928866D01*
X128240870Y-66928864D01*
X128362835Y-66828770D01*
X128501988Y-66754392D01*
X128652975Y-66708590D01*
X128810000Y-66693125D01*
X128967024Y-66708590D01*
X128967024Y-66708590D01*
G37*
G36*
X126427024Y-66708590D02*
X126578011Y-66754392D01*
X126717161Y-66828768D01*
X126778148Y-66878819D01*
X126839133Y-66928867D01*
X126839134Y-66928869D01*
X126839136Y-66928870D01*
X126939230Y-67050835D01*
X127013608Y-67189988D01*
X127059410Y-67340975D01*
X127071000Y-67458654D01*
X127071000Y-68037346D01*
X127059410Y-68155025D01*
X127013608Y-68306012D01*
X126939230Y-68445165D01*
X126839133Y-68567133D01*
X126717165Y-68667230D01*
X126578012Y-68741608D01*
X126427025Y-68787410D01*
X126270000Y-68802875D01*
X126112976Y-68787410D01*
X125961989Y-68741608D01*
X125822836Y-68667230D01*
X125700868Y-68567133D01*
X125600771Y-68445165D01*
X125526392Y-68306012D01*
X125503491Y-68230518D01*
X125480590Y-68155025D01*
X125469000Y-68037346D01*
X125469000Y-67458655D01*
X125480590Y-67340976D01*
X125526392Y-67189989D01*
X125600768Y-67050839D01*
X125700865Y-66928870D01*
X125700867Y-66928867D01*
X125700869Y-66928866D01*
X125700870Y-66928864D01*
X125822835Y-66828770D01*
X125961988Y-66754392D01*
X126112975Y-66708590D01*
X126270000Y-66693125D01*
X126427024Y-66708590D01*
X126427024Y-66708590D01*
G37*
G36*
X123887024Y-66708590D02*
X124038011Y-66754392D01*
X124177161Y-66828768D01*
X124238148Y-66878819D01*
X124299133Y-66928867D01*
X124299134Y-66928869D01*
X124299136Y-66928870D01*
X124399230Y-67050835D01*
X124473608Y-67189988D01*
X124519410Y-67340975D01*
X124531000Y-67458654D01*
X124531000Y-68037346D01*
X124519410Y-68155025D01*
X124473608Y-68306012D01*
X124399230Y-68445165D01*
X124299133Y-68567133D01*
X124177165Y-68667230D01*
X124038012Y-68741608D01*
X123887025Y-68787410D01*
X123730000Y-68802875D01*
X123572976Y-68787410D01*
X123421989Y-68741608D01*
X123282836Y-68667230D01*
X123160868Y-68567133D01*
X123060771Y-68445165D01*
X122986392Y-68306012D01*
X122963491Y-68230518D01*
X122940590Y-68155025D01*
X122929000Y-68037346D01*
X122929000Y-67458655D01*
X122940590Y-67340976D01*
X122986392Y-67189989D01*
X123060768Y-67050839D01*
X123160865Y-66928870D01*
X123160867Y-66928867D01*
X123160869Y-66928866D01*
X123160870Y-66928864D01*
X123282835Y-66828770D01*
X123421988Y-66754392D01*
X123572975Y-66708590D01*
X123730000Y-66693125D01*
X123887024Y-66708590D01*
X123887024Y-66708590D01*
G37*
G36*
X121347024Y-66708590D02*
X121498011Y-66754392D01*
X121637161Y-66828768D01*
X121698148Y-66878819D01*
X121759133Y-66928867D01*
X121759134Y-66928869D01*
X121759136Y-66928870D01*
X121859230Y-67050835D01*
X121933608Y-67189988D01*
X121979410Y-67340975D01*
X121991000Y-67458654D01*
X121991000Y-68037346D01*
X121979410Y-68155025D01*
X121933608Y-68306012D01*
X121859230Y-68445165D01*
X121759133Y-68567133D01*
X121637165Y-68667230D01*
X121498012Y-68741608D01*
X121347025Y-68787410D01*
X121190000Y-68802875D01*
X121032976Y-68787410D01*
X120881989Y-68741608D01*
X120742836Y-68667230D01*
X120620868Y-68567133D01*
X120520771Y-68445165D01*
X120446392Y-68306012D01*
X120423491Y-68230518D01*
X120400590Y-68155025D01*
X120389000Y-68037346D01*
X120389000Y-67458655D01*
X120400590Y-67340976D01*
X120446392Y-67189989D01*
X120520768Y-67050839D01*
X120620865Y-66928870D01*
X120620867Y-66928867D01*
X120620869Y-66928866D01*
X120620870Y-66928864D01*
X120742835Y-66828770D01*
X120881988Y-66754392D01*
X121032975Y-66708590D01*
X121190000Y-66693125D01*
X121347024Y-66708590D01*
X121347024Y-66708590D01*
G37*
G36*
X118807024Y-66708590D02*
X118958011Y-66754392D01*
X119097161Y-66828768D01*
X119158148Y-66878819D01*
X119219133Y-66928867D01*
X119219134Y-66928869D01*
X119219136Y-66928870D01*
X119319230Y-67050835D01*
X119393608Y-67189988D01*
X119439410Y-67340975D01*
X119451000Y-67458654D01*
X119451000Y-68037346D01*
X119439410Y-68155025D01*
X119393608Y-68306012D01*
X119319230Y-68445165D01*
X119219133Y-68567133D01*
X119097165Y-68667230D01*
X118958012Y-68741608D01*
X118807025Y-68787410D01*
X118650000Y-68802875D01*
X118492976Y-68787410D01*
X118341989Y-68741608D01*
X118202836Y-68667230D01*
X118080868Y-68567133D01*
X117980771Y-68445165D01*
X117906392Y-68306012D01*
X117883491Y-68230518D01*
X117860590Y-68155025D01*
X117849000Y-68037346D01*
X117849000Y-67458655D01*
X117860590Y-67340976D01*
X117906392Y-67189989D01*
X117980768Y-67050839D01*
X118080865Y-66928870D01*
X118080867Y-66928867D01*
X118080869Y-66928866D01*
X118080870Y-66928864D01*
X118202835Y-66828770D01*
X118341988Y-66754392D01*
X118492975Y-66708590D01*
X118650000Y-66693125D01*
X118807024Y-66708590D01*
X118807024Y-66708590D01*
G37*
G36*
X91967024Y-66708590D02*
X92118011Y-66754392D01*
X92257161Y-66828768D01*
X92318148Y-66878819D01*
X92379133Y-66928867D01*
X92379134Y-66928869D01*
X92379136Y-66928870D01*
X92479230Y-67050835D01*
X92553608Y-67189988D01*
X92599410Y-67340975D01*
X92611000Y-67458654D01*
X92611000Y-68037346D01*
X92599410Y-68155025D01*
X92553608Y-68306012D01*
X92479230Y-68445165D01*
X92379133Y-68567133D01*
X92257165Y-68667230D01*
X92118012Y-68741608D01*
X91967025Y-68787410D01*
X91810000Y-68802875D01*
X91652976Y-68787410D01*
X91501989Y-68741608D01*
X91362836Y-68667230D01*
X91240868Y-68567133D01*
X91140771Y-68445165D01*
X91066392Y-68306012D01*
X91043491Y-68230518D01*
X91020590Y-68155025D01*
X91009000Y-68037346D01*
X91009000Y-67458655D01*
X91020590Y-67340976D01*
X91066392Y-67189989D01*
X91140768Y-67050839D01*
X91240865Y-66928870D01*
X91240867Y-66928867D01*
X91240869Y-66928866D01*
X91240870Y-66928864D01*
X91362835Y-66828770D01*
X91501988Y-66754392D01*
X91652975Y-66708590D01*
X91810000Y-66693125D01*
X91967024Y-66708590D01*
X91967024Y-66708590D01*
G37*
G36*
X131507024Y-66708590D02*
X131658011Y-66754392D01*
X131797161Y-66828768D01*
X131858148Y-66878819D01*
X131919133Y-66928867D01*
X131919134Y-66928869D01*
X131919136Y-66928870D01*
X132019230Y-67050835D01*
X132093608Y-67189988D01*
X132139410Y-67340975D01*
X132151000Y-67458654D01*
X132151000Y-68037346D01*
X132139410Y-68155025D01*
X132093608Y-68306012D01*
X132019230Y-68445165D01*
X131919133Y-68567133D01*
X131797165Y-68667230D01*
X131658012Y-68741608D01*
X131507025Y-68787410D01*
X131350000Y-68802875D01*
X131192976Y-68787410D01*
X131041989Y-68741608D01*
X130902836Y-68667230D01*
X130780868Y-68567133D01*
X130680771Y-68445165D01*
X130606392Y-68306012D01*
X130583491Y-68230518D01*
X130560590Y-68155025D01*
X130549000Y-68037346D01*
X130549000Y-67458655D01*
X130560590Y-67340976D01*
X130606392Y-67189989D01*
X130680768Y-67050839D01*
X130780865Y-66928870D01*
X130780867Y-66928867D01*
X130780869Y-66928866D01*
X130780870Y-66928864D01*
X130902835Y-66828770D01*
X131041988Y-66754392D01*
X131192975Y-66708590D01*
X131350000Y-66693125D01*
X131507024Y-66708590D01*
X131507024Y-66708590D01*
G37*
G36*
X116911000Y-68799000D02*
X115309000Y-68799000D01*
X115309000Y-66697000D01*
X116911000Y-66697000D01*
X116911000Y-68799000D01*
X116911000Y-68799000D01*
G37*
G36*
X79911000Y-68799000D02*
X78309000Y-68799000D01*
X78309000Y-66697000D01*
X79911000Y-66697000D01*
X79911000Y-68799000D01*
X79911000Y-68799000D01*
G37*
G36*
X134047024Y-43848590D02*
X134198011Y-43894392D01*
X134337161Y-43968768D01*
X134398148Y-44018819D01*
X134459133Y-44068867D01*
X134459134Y-44068869D01*
X134459136Y-44068870D01*
X134559230Y-44190835D01*
X134633608Y-44329988D01*
X134679410Y-44480975D01*
X134691000Y-44598654D01*
X134691000Y-45177346D01*
X134679410Y-45295025D01*
X134633608Y-45446012D01*
X134559230Y-45585165D01*
X134459133Y-45707133D01*
X134337165Y-45807230D01*
X134198012Y-45881608D01*
X134047025Y-45927410D01*
X133890000Y-45942875D01*
X133732976Y-45927410D01*
X133581989Y-45881608D01*
X133442836Y-45807230D01*
X133320868Y-45707133D01*
X133220771Y-45585165D01*
X133146392Y-45446012D01*
X133123491Y-45370518D01*
X133100590Y-45295025D01*
X133089000Y-45177346D01*
X133089000Y-44598655D01*
X133100590Y-44480976D01*
X133146392Y-44329989D01*
X133220768Y-44190839D01*
X133320865Y-44068870D01*
X133320867Y-44068867D01*
X133320869Y-44068866D01*
X133320870Y-44068864D01*
X133442835Y-43968770D01*
X133581988Y-43894392D01*
X133732975Y-43848590D01*
X133890000Y-43833125D01*
X134047024Y-43848590D01*
X134047024Y-43848590D01*
G37*
G36*
X126427024Y-43848590D02*
X126578011Y-43894392D01*
X126717161Y-43968768D01*
X126778148Y-44018819D01*
X126839133Y-44068867D01*
X126839134Y-44068869D01*
X126839136Y-44068870D01*
X126939230Y-44190835D01*
X127013608Y-44329988D01*
X127059410Y-44480975D01*
X127071000Y-44598654D01*
X127071000Y-45177346D01*
X127059410Y-45295025D01*
X127013608Y-45446012D01*
X126939230Y-45585165D01*
X126839133Y-45707133D01*
X126717165Y-45807230D01*
X126578012Y-45881608D01*
X126427025Y-45927410D01*
X126270000Y-45942875D01*
X126112976Y-45927410D01*
X125961989Y-45881608D01*
X125822836Y-45807230D01*
X125700868Y-45707133D01*
X125600771Y-45585165D01*
X125526392Y-45446012D01*
X125503491Y-45370518D01*
X125480590Y-45295025D01*
X125469000Y-45177346D01*
X125469000Y-44598655D01*
X125480590Y-44480976D01*
X125526392Y-44329989D01*
X125600768Y-44190839D01*
X125700865Y-44068870D01*
X125700867Y-44068867D01*
X125700869Y-44068866D01*
X125700870Y-44068864D01*
X125822835Y-43968770D01*
X125961988Y-43894392D01*
X126112975Y-43848590D01*
X126270000Y-43833125D01*
X126427024Y-43848590D01*
X126427024Y-43848590D01*
G37*
G36*
X123887024Y-43848590D02*
X124038011Y-43894392D01*
X124177161Y-43968768D01*
X124238148Y-44018819D01*
X124299133Y-44068867D01*
X124299134Y-44068869D01*
X124299136Y-44068870D01*
X124399230Y-44190835D01*
X124473608Y-44329988D01*
X124519410Y-44480975D01*
X124531000Y-44598654D01*
X124531000Y-45177346D01*
X124519410Y-45295025D01*
X124473608Y-45446012D01*
X124399230Y-45585165D01*
X124299133Y-45707133D01*
X124177165Y-45807230D01*
X124038012Y-45881608D01*
X123887025Y-45927410D01*
X123730000Y-45942875D01*
X123572976Y-45927410D01*
X123421989Y-45881608D01*
X123282836Y-45807230D01*
X123160868Y-45707133D01*
X123060771Y-45585165D01*
X122986392Y-45446012D01*
X122963491Y-45370518D01*
X122940590Y-45295025D01*
X122929000Y-45177346D01*
X122929000Y-44598655D01*
X122940590Y-44480976D01*
X122986392Y-44329989D01*
X123060768Y-44190839D01*
X123160865Y-44068870D01*
X123160867Y-44068867D01*
X123160869Y-44068866D01*
X123160870Y-44068864D01*
X123282835Y-43968770D01*
X123421988Y-43894392D01*
X123572975Y-43848590D01*
X123730000Y-43833125D01*
X123887024Y-43848590D01*
X123887024Y-43848590D01*
G37*
G36*
X121347024Y-43848590D02*
X121498011Y-43894392D01*
X121637161Y-43968768D01*
X121698148Y-44018819D01*
X121759133Y-44068867D01*
X121759134Y-44068869D01*
X121759136Y-44068870D01*
X121859230Y-44190835D01*
X121933608Y-44329988D01*
X121979410Y-44480975D01*
X121991000Y-44598654D01*
X121991000Y-45177346D01*
X121979410Y-45295025D01*
X121933608Y-45446012D01*
X121859230Y-45585165D01*
X121759133Y-45707133D01*
X121637165Y-45807230D01*
X121498012Y-45881608D01*
X121347025Y-45927410D01*
X121190000Y-45942875D01*
X121032976Y-45927410D01*
X120881989Y-45881608D01*
X120742836Y-45807230D01*
X120620868Y-45707133D01*
X120520771Y-45585165D01*
X120446392Y-45446012D01*
X120423491Y-45370518D01*
X120400590Y-45295025D01*
X120389000Y-45177346D01*
X120389000Y-44598655D01*
X120400590Y-44480976D01*
X120446392Y-44329989D01*
X120520768Y-44190839D01*
X120620865Y-44068870D01*
X120620867Y-44068867D01*
X120620869Y-44068866D01*
X120620870Y-44068864D01*
X120742835Y-43968770D01*
X120881988Y-43894392D01*
X121032975Y-43848590D01*
X121190000Y-43833125D01*
X121347024Y-43848590D01*
X121347024Y-43848590D01*
G37*
G36*
X118807024Y-43848590D02*
X118958011Y-43894392D01*
X119097161Y-43968768D01*
X119158149Y-44018819D01*
X119219133Y-44068867D01*
X119219134Y-44068869D01*
X119219136Y-44068870D01*
X119319230Y-44190835D01*
X119393608Y-44329988D01*
X119439410Y-44480975D01*
X119451000Y-44598654D01*
X119451000Y-45177346D01*
X119439410Y-45295025D01*
X119393608Y-45446012D01*
X119319230Y-45585165D01*
X119219133Y-45707133D01*
X119097165Y-45807230D01*
X118958012Y-45881608D01*
X118807025Y-45927410D01*
X118650000Y-45942875D01*
X118492976Y-45927410D01*
X118341989Y-45881608D01*
X118202836Y-45807230D01*
X118080868Y-45707133D01*
X117980771Y-45585165D01*
X117906392Y-45446012D01*
X117883491Y-45370518D01*
X117860590Y-45295025D01*
X117849000Y-45177346D01*
X117849000Y-44598655D01*
X117860590Y-44480976D01*
X117906392Y-44329989D01*
X117980768Y-44190839D01*
X118080865Y-44068870D01*
X118080867Y-44068867D01*
X118080869Y-44068866D01*
X118080870Y-44068864D01*
X118202835Y-43968770D01*
X118341988Y-43894392D01*
X118492975Y-43848590D01*
X118650000Y-43833125D01*
X118807024Y-43848590D01*
X118807024Y-43848590D01*
G37*
G36*
X97047024Y-43848590D02*
X97198011Y-43894392D01*
X97337161Y-43968768D01*
X97398149Y-44018819D01*
X97459133Y-44068867D01*
X97459134Y-44068869D01*
X97459136Y-44068870D01*
X97559230Y-44190835D01*
X97633608Y-44329988D01*
X97679410Y-44480975D01*
X97691000Y-44598654D01*
X97691000Y-45177346D01*
X97679410Y-45295025D01*
X97633608Y-45446012D01*
X97559230Y-45585165D01*
X97459133Y-45707133D01*
X97337165Y-45807230D01*
X97198012Y-45881608D01*
X97047025Y-45927410D01*
X96890000Y-45942875D01*
X96732976Y-45927410D01*
X96581989Y-45881608D01*
X96442836Y-45807230D01*
X96320868Y-45707133D01*
X96220771Y-45585165D01*
X96146392Y-45446012D01*
X96123491Y-45370518D01*
X96100590Y-45295025D01*
X96089000Y-45177346D01*
X96089000Y-44598655D01*
X96100590Y-44480976D01*
X96146392Y-44329989D01*
X96220768Y-44190839D01*
X96320865Y-44068870D01*
X96320867Y-44068867D01*
X96320869Y-44068866D01*
X96320870Y-44068864D01*
X96442835Y-43968770D01*
X96581988Y-43894392D01*
X96732975Y-43848590D01*
X96890000Y-43833125D01*
X97047024Y-43848590D01*
X97047024Y-43848590D01*
G37*
G36*
X94507024Y-43848590D02*
X94658011Y-43894392D01*
X94797161Y-43968768D01*
X94858149Y-44018819D01*
X94919133Y-44068867D01*
X94919134Y-44068869D01*
X94919136Y-44068870D01*
X95019230Y-44190835D01*
X95093608Y-44329988D01*
X95139410Y-44480975D01*
X95151000Y-44598654D01*
X95151000Y-45177346D01*
X95139410Y-45295025D01*
X95093608Y-45446012D01*
X95019230Y-45585165D01*
X94919133Y-45707133D01*
X94797165Y-45807230D01*
X94658012Y-45881608D01*
X94507025Y-45927410D01*
X94350000Y-45942875D01*
X94192976Y-45927410D01*
X94041989Y-45881608D01*
X93902836Y-45807230D01*
X93780868Y-45707133D01*
X93680771Y-45585165D01*
X93606392Y-45446012D01*
X93583491Y-45370518D01*
X93560590Y-45295025D01*
X93549000Y-45177346D01*
X93549000Y-44598655D01*
X93560590Y-44480976D01*
X93606392Y-44329989D01*
X93680768Y-44190839D01*
X93780865Y-44068870D01*
X93780867Y-44068867D01*
X93780869Y-44068866D01*
X93780870Y-44068864D01*
X93902835Y-43968770D01*
X94041988Y-43894392D01*
X94192975Y-43848590D01*
X94350000Y-43833125D01*
X94507024Y-43848590D01*
X94507024Y-43848590D01*
G37*
G36*
X91967024Y-43848590D02*
X92118011Y-43894392D01*
X92257161Y-43968768D01*
X92318149Y-44018819D01*
X92379133Y-44068867D01*
X92379134Y-44068869D01*
X92379136Y-44068870D01*
X92479230Y-44190835D01*
X92553608Y-44329988D01*
X92599410Y-44480975D01*
X92611000Y-44598654D01*
X92611000Y-45177346D01*
X92599410Y-45295025D01*
X92553608Y-45446012D01*
X92479230Y-45585165D01*
X92379133Y-45707133D01*
X92257165Y-45807230D01*
X92118012Y-45881608D01*
X91967025Y-45927410D01*
X91810000Y-45942875D01*
X91652976Y-45927410D01*
X91501989Y-45881608D01*
X91362836Y-45807230D01*
X91240868Y-45707133D01*
X91140771Y-45585165D01*
X91066392Y-45446012D01*
X91043491Y-45370518D01*
X91020590Y-45295025D01*
X91009000Y-45177346D01*
X91009000Y-44598655D01*
X91020590Y-44480976D01*
X91066392Y-44329989D01*
X91140768Y-44190839D01*
X91240865Y-44068870D01*
X91240867Y-44068867D01*
X91240869Y-44068866D01*
X91240870Y-44068864D01*
X91362835Y-43968770D01*
X91501988Y-43894392D01*
X91652975Y-43848590D01*
X91810000Y-43833125D01*
X91967024Y-43848590D01*
X91967024Y-43848590D01*
G37*
G36*
X128967024Y-43848590D02*
X129118011Y-43894392D01*
X129257161Y-43968768D01*
X129318148Y-44018819D01*
X129379133Y-44068867D01*
X129379134Y-44068869D01*
X129379136Y-44068870D01*
X129479230Y-44190835D01*
X129553608Y-44329988D01*
X129599410Y-44480975D01*
X129611000Y-44598654D01*
X129611000Y-45177346D01*
X129599410Y-45295025D01*
X129553608Y-45446012D01*
X129479230Y-45585165D01*
X129379133Y-45707133D01*
X129257165Y-45807230D01*
X129118012Y-45881608D01*
X128967025Y-45927410D01*
X128810000Y-45942875D01*
X128652976Y-45927410D01*
X128501989Y-45881608D01*
X128362836Y-45807230D01*
X128240868Y-45707133D01*
X128140771Y-45585165D01*
X128066392Y-45446012D01*
X128043491Y-45370518D01*
X128020590Y-45295025D01*
X128009000Y-45177346D01*
X128009000Y-44598655D01*
X128020590Y-44480976D01*
X128066392Y-44329989D01*
X128140768Y-44190839D01*
X128240865Y-44068870D01*
X128240867Y-44068867D01*
X128240869Y-44068866D01*
X128240870Y-44068864D01*
X128362835Y-43968770D01*
X128501988Y-43894392D01*
X128652975Y-43848590D01*
X128810000Y-43833125D01*
X128967024Y-43848590D01*
X128967024Y-43848590D01*
G37*
G36*
X89427024Y-43848590D02*
X89578011Y-43894392D01*
X89717161Y-43968768D01*
X89778149Y-44018819D01*
X89839133Y-44068867D01*
X89839134Y-44068869D01*
X89839136Y-44068870D01*
X89939230Y-44190835D01*
X90013608Y-44329988D01*
X90059410Y-44480975D01*
X90071000Y-44598654D01*
X90071000Y-45177346D01*
X90059410Y-45295025D01*
X90013608Y-45446012D01*
X89939230Y-45585165D01*
X89839133Y-45707133D01*
X89717165Y-45807230D01*
X89578012Y-45881608D01*
X89427025Y-45927410D01*
X89270000Y-45942875D01*
X89112976Y-45927410D01*
X88961989Y-45881608D01*
X88822836Y-45807230D01*
X88700868Y-45707133D01*
X88600771Y-45585165D01*
X88526392Y-45446012D01*
X88503491Y-45370518D01*
X88480590Y-45295025D01*
X88469000Y-45177346D01*
X88469000Y-44598655D01*
X88480590Y-44480976D01*
X88526392Y-44329989D01*
X88600768Y-44190839D01*
X88700865Y-44068870D01*
X88700867Y-44068867D01*
X88700869Y-44068866D01*
X88700870Y-44068864D01*
X88822835Y-43968770D01*
X88961988Y-43894392D01*
X89112975Y-43848590D01*
X89270000Y-43833125D01*
X89427024Y-43848590D01*
X89427024Y-43848590D01*
G37*
G36*
X86887024Y-43848590D02*
X87038011Y-43894392D01*
X87177161Y-43968768D01*
X87238149Y-44018819D01*
X87299133Y-44068867D01*
X87299134Y-44068869D01*
X87299136Y-44068870D01*
X87399230Y-44190835D01*
X87473608Y-44329988D01*
X87519410Y-44480975D01*
X87531000Y-44598654D01*
X87531000Y-45177346D01*
X87519410Y-45295025D01*
X87473608Y-45446012D01*
X87399230Y-45585165D01*
X87299133Y-45707133D01*
X87177165Y-45807230D01*
X87038012Y-45881608D01*
X86887025Y-45927410D01*
X86730000Y-45942875D01*
X86572976Y-45927410D01*
X86421989Y-45881608D01*
X86282836Y-45807230D01*
X86160868Y-45707133D01*
X86060771Y-45585165D01*
X85986392Y-45446012D01*
X85963491Y-45370518D01*
X85940590Y-45295025D01*
X85929000Y-45177346D01*
X85929000Y-44598655D01*
X85940590Y-44480976D01*
X85986392Y-44329989D01*
X86060768Y-44190839D01*
X86160865Y-44068870D01*
X86160867Y-44068867D01*
X86160869Y-44068866D01*
X86160870Y-44068864D01*
X86282835Y-43968770D01*
X86421988Y-43894392D01*
X86572975Y-43848590D01*
X86730000Y-43833125D01*
X86887024Y-43848590D01*
X86887024Y-43848590D01*
G37*
G36*
X81807024Y-43848590D02*
X81958011Y-43894392D01*
X82097161Y-43968768D01*
X82158149Y-44018819D01*
X82219133Y-44068867D01*
X82219134Y-44068869D01*
X82219136Y-44068870D01*
X82319230Y-44190835D01*
X82393608Y-44329988D01*
X82439410Y-44480975D01*
X82451000Y-44598654D01*
X82451000Y-45177346D01*
X82439410Y-45295025D01*
X82393608Y-45446012D01*
X82319230Y-45585165D01*
X82219133Y-45707133D01*
X82097165Y-45807230D01*
X81958012Y-45881608D01*
X81807025Y-45927410D01*
X81650000Y-45942875D01*
X81492976Y-45927410D01*
X81341989Y-45881608D01*
X81202836Y-45807230D01*
X81080868Y-45707133D01*
X80980771Y-45585165D01*
X80906392Y-45446012D01*
X80883491Y-45370518D01*
X80860590Y-45295025D01*
X80849000Y-45177346D01*
X80849000Y-44598655D01*
X80860590Y-44480976D01*
X80906392Y-44329989D01*
X80980768Y-44190839D01*
X81080865Y-44068870D01*
X81080867Y-44068867D01*
X81080869Y-44068866D01*
X81080870Y-44068864D01*
X81202835Y-43968770D01*
X81341988Y-43894392D01*
X81492975Y-43848590D01*
X81650000Y-43833125D01*
X81807024Y-43848590D01*
X81807024Y-43848590D01*
G37*
G36*
X131507024Y-43848590D02*
X131658011Y-43894392D01*
X131797161Y-43968768D01*
X131858148Y-44018819D01*
X131919133Y-44068867D01*
X131919134Y-44068869D01*
X131919136Y-44068870D01*
X132019230Y-44190835D01*
X132093608Y-44329988D01*
X132139410Y-44480975D01*
X132151000Y-44598654D01*
X132151000Y-45177346D01*
X132139410Y-45295025D01*
X132093608Y-45446012D01*
X132019230Y-45585165D01*
X131919133Y-45707133D01*
X131797165Y-45807230D01*
X131658012Y-45881608D01*
X131507025Y-45927410D01*
X131350000Y-45942875D01*
X131192976Y-45927410D01*
X131041989Y-45881608D01*
X130902836Y-45807230D01*
X130780868Y-45707133D01*
X130680771Y-45585165D01*
X130606392Y-45446012D01*
X130583491Y-45370518D01*
X130560590Y-45295025D01*
X130549000Y-45177346D01*
X130549000Y-44598655D01*
X130560590Y-44480976D01*
X130606392Y-44329989D01*
X130680768Y-44190839D01*
X130780865Y-44068870D01*
X130780867Y-44068867D01*
X130780869Y-44068866D01*
X130780870Y-44068864D01*
X130902835Y-43968770D01*
X131041988Y-43894392D01*
X131192975Y-43848590D01*
X131350000Y-43833125D01*
X131507024Y-43848590D01*
X131507024Y-43848590D01*
G37*
G36*
X84347024Y-43848590D02*
X84498011Y-43894392D01*
X84637161Y-43968768D01*
X84698149Y-44018819D01*
X84759133Y-44068867D01*
X84759134Y-44068869D01*
X84759136Y-44068870D01*
X84859230Y-44190835D01*
X84933608Y-44329988D01*
X84979410Y-44480975D01*
X84991000Y-44598654D01*
X84991000Y-45177346D01*
X84979410Y-45295025D01*
X84933608Y-45446012D01*
X84859230Y-45585165D01*
X84759133Y-45707133D01*
X84637165Y-45807230D01*
X84498012Y-45881608D01*
X84347025Y-45927410D01*
X84190000Y-45942875D01*
X84032976Y-45927410D01*
X83881989Y-45881608D01*
X83742836Y-45807230D01*
X83620868Y-45707133D01*
X83520771Y-45585165D01*
X83446392Y-45446012D01*
X83423491Y-45370518D01*
X83400590Y-45295025D01*
X83389000Y-45177346D01*
X83389000Y-44598655D01*
X83400590Y-44480976D01*
X83446392Y-44329989D01*
X83520768Y-44190839D01*
X83620865Y-44068870D01*
X83620867Y-44068867D01*
X83620869Y-44068866D01*
X83620870Y-44068864D01*
X83742835Y-43968770D01*
X83881988Y-43894392D01*
X84032975Y-43848590D01*
X84190000Y-43833125D01*
X84347024Y-43848590D01*
X84347024Y-43848590D01*
G37*
G36*
X79911000Y-45939000D02*
X78309000Y-45939000D01*
X78309000Y-43837000D01*
X79911000Y-43837000D01*
X79911000Y-45939000D01*
X79911000Y-45939000D01*
G37*
G36*
X116911000Y-45939000D02*
X115309000Y-45939000D01*
X115309000Y-43837000D01*
X116911000Y-43837000D01*
X116911000Y-45939000D01*
X116911000Y-45939000D01*
G37*
M02*
