%TF.GenerationSoftware,KiCad,Pcbnew,5.0.2+dfsg1-1*%
%TF.CreationDate,2020-04-12T10:59:42+02:00*%
%TF.ProjectId,fietslamp,66696574-736c-4616-9d70-2e6b69636164,rev?*%
%TF.SameCoordinates,Original*%
%TF.FileFunction,Copper,L2,Bot*%
%TF.FilePolarity,Positive*%
%FSLAX46Y46*%
G04 Gerber Fmt 4.6, Leading zero omitted, Abs format (unit mm)*
G04 Created by KiCad (PCBNEW 5.0.2+dfsg1-1) date zo 12 apr 2020 10:59:42 CEST*
%MOMM*%
%LPD*%
G01*
G04 APERTURE LIST*
%ADD10C,0.150000*%
%ADD11R,2.000000X2.000000*%
%ADD12O,2.000000X2.000000*%
%ADD13R,1.500000X2.000000*%
%ADD14O,1.500000X2.000000*%
%ADD15O,2.000000X1.500000*%
%ADD16R,2.000000X1.500000*%
%ADD17C,0.250000*%
%ADD18C,0.254000*%
%ADD19C,0.508000*%
G04 APERTURE END LIST*
D10*
X74168000Y-41656000D02*
X140716000Y-41656000D01*
X74168000Y-129032000D02*
X74168000Y-41656000D01*
X140716000Y-129032000D02*
X74168000Y-129032000D01*
X140716000Y-41656000D02*
X140716000Y-129032000D01*
D11*
X133858000Y-116840000D03*
D12*
X136398000Y-116840000D03*
D11*
X133858000Y-114300000D03*
D12*
X136398000Y-114300000D03*
D13*
X124460000Y-122682000D03*
D14*
X121920000Y-122682000D03*
X119380000Y-122682000D03*
X116840000Y-122682000D03*
X114300000Y-122682000D03*
X111760000Y-122682000D03*
X109220000Y-122682000D03*
X106680000Y-122682000D03*
X104140000Y-122682000D03*
X101600000Y-122682000D03*
X99060000Y-122682000D03*
X96520000Y-122682000D03*
X93980000Y-122682000D03*
X91440000Y-122682000D03*
X88900000Y-122682000D03*
X86360000Y-122682000D03*
D15*
X136144000Y-94742000D03*
X136144000Y-92202000D03*
X136144000Y-89662000D03*
X136144000Y-87122000D03*
X136144000Y-84582000D03*
D16*
X136144000Y-82042000D03*
D14*
X96890000Y-74888000D03*
X94350000Y-74888000D03*
X91810000Y-74888000D03*
X89270000Y-74888000D03*
X86730000Y-74888000D03*
X84190000Y-74888000D03*
X81650000Y-74888000D03*
D13*
X79110000Y-74888000D03*
D14*
X133890000Y-44888000D03*
X131350000Y-44888000D03*
X128810000Y-44888000D03*
X126270000Y-44888000D03*
X123730000Y-44888000D03*
X121190000Y-44888000D03*
X118650000Y-44888000D03*
D13*
X116110000Y-44888000D03*
X79110000Y-97748000D03*
D14*
X81650000Y-97748000D03*
X84190000Y-97748000D03*
X86730000Y-97748000D03*
X89270000Y-97748000D03*
X91810000Y-97748000D03*
X94350000Y-97748000D03*
X96890000Y-97748000D03*
D13*
X116110000Y-67748000D03*
D14*
X118650000Y-67748000D03*
X121190000Y-67748000D03*
X123730000Y-67748000D03*
X126270000Y-67748000D03*
X128810000Y-67748000D03*
X131350000Y-67748000D03*
X133890000Y-67748000D03*
X96890000Y-67748000D03*
X94350000Y-67748000D03*
X91810000Y-67748000D03*
X89270000Y-67748000D03*
X86730000Y-67748000D03*
X84190000Y-67748000D03*
X81650000Y-67748000D03*
D13*
X79110000Y-67748000D03*
X79110000Y-44888000D03*
D14*
X81650000Y-44888000D03*
X84190000Y-44888000D03*
X86730000Y-44888000D03*
X89270000Y-44888000D03*
X91810000Y-44888000D03*
X94350000Y-44888000D03*
X96890000Y-44888000D03*
D16*
X110744000Y-82042000D03*
D15*
X110744000Y-84582000D03*
X110744000Y-87122000D03*
X110744000Y-89662000D03*
X110744000Y-92202000D03*
X110744000Y-94742000D03*
D14*
X86360000Y-107442000D03*
X88900000Y-107442000D03*
X91440000Y-107442000D03*
X93980000Y-107442000D03*
X96520000Y-107442000D03*
X99060000Y-107442000D03*
X101600000Y-107442000D03*
X104140000Y-107442000D03*
X106680000Y-107442000D03*
X109220000Y-107442000D03*
X111760000Y-107442000D03*
X114300000Y-107442000D03*
X116840000Y-107442000D03*
X119380000Y-107442000D03*
X121920000Y-107442000D03*
D13*
X124460000Y-107442000D03*
D12*
X136398000Y-111760000D03*
D11*
X133858000Y-111760000D03*
D17*
X109220000Y-107442000D02*
X109220000Y-107692000D01*
X132608000Y-111760000D02*
X133858000Y-111760000D01*
X99588000Y-111760000D02*
X132608000Y-111760000D01*
X96520000Y-108692000D02*
X99588000Y-111760000D01*
X96520000Y-107442000D02*
X96520000Y-108692000D01*
X136398000Y-110345787D02*
X136398000Y-111760000D01*
X135780213Y-109728000D02*
X136398000Y-110345787D01*
X107716000Y-109728000D02*
X135780213Y-109728000D01*
X106680000Y-108692000D02*
X107716000Y-109728000D01*
X106680000Y-107442000D02*
X106680000Y-108692000D01*
D18*
X79110000Y-74888000D02*
X79110000Y-75138000D01*
D19*
X79110000Y-76396000D02*
X103298000Y-100584000D01*
X79110000Y-74888000D02*
X79110000Y-76396000D01*
X103298000Y-100584000D02*
X131064000Y-100584000D01*
X131064000Y-100584000D02*
X139192000Y-108712000D01*
X139192000Y-111506000D02*
X136398000Y-114300000D01*
X139192000Y-108712000D02*
X139192000Y-111506000D01*
X136398000Y-114300000D02*
X133858000Y-114300000D01*
D18*
G36*
X140006001Y-108330082D02*
X139832933Y-108071067D01*
X139758707Y-108021471D01*
X131754531Y-100017296D01*
X131704933Y-99943067D01*
X131410870Y-99746581D01*
X131151556Y-99695000D01*
X131151555Y-99695000D01*
X131064000Y-99677584D01*
X130976445Y-99695000D01*
X103666236Y-99695000D01*
X88553236Y-84582000D01*
X109081867Y-84582000D01*
X109189359Y-85122400D01*
X109495471Y-85580529D01*
X109901756Y-85852000D01*
X109495471Y-86123471D01*
X109189359Y-86581600D01*
X109081867Y-87122000D01*
X109189359Y-87662400D01*
X109495471Y-88120529D01*
X109901756Y-88392000D01*
X109495471Y-88663471D01*
X109189359Y-89121600D01*
X109081867Y-89662000D01*
X109189359Y-90202400D01*
X109495471Y-90660529D01*
X109901756Y-90932000D01*
X109495471Y-91203471D01*
X109189359Y-91661600D01*
X109081867Y-92202000D01*
X109189359Y-92742400D01*
X109495471Y-93200529D01*
X109901756Y-93472000D01*
X109495471Y-93743471D01*
X109189359Y-94201600D01*
X109081867Y-94742000D01*
X109189359Y-95282400D01*
X109495471Y-95740529D01*
X109953600Y-96046641D01*
X110357593Y-96127000D01*
X111130407Y-96127000D01*
X111534400Y-96046641D01*
X111992529Y-95740529D01*
X112298641Y-95282400D01*
X112406133Y-94742000D01*
X112298641Y-94201600D01*
X111992529Y-93743471D01*
X111586244Y-93472000D01*
X111992529Y-93200529D01*
X112298641Y-92742400D01*
X112406133Y-92202000D01*
X112298641Y-91661600D01*
X111992529Y-91203471D01*
X111586244Y-90932000D01*
X111992529Y-90660529D01*
X112298641Y-90202400D01*
X112406133Y-89662000D01*
X134481867Y-89662000D01*
X134589359Y-90202400D01*
X134895471Y-90660529D01*
X135301756Y-90932000D01*
X134895471Y-91203471D01*
X134589359Y-91661600D01*
X134481867Y-92202000D01*
X134589359Y-92742400D01*
X134895471Y-93200529D01*
X135301756Y-93472000D01*
X134895471Y-93743471D01*
X134589359Y-94201600D01*
X134481867Y-94742000D01*
X134589359Y-95282400D01*
X134895471Y-95740529D01*
X135353600Y-96046641D01*
X135757593Y-96127000D01*
X136530407Y-96127000D01*
X136934400Y-96046641D01*
X137392529Y-95740529D01*
X137698641Y-95282400D01*
X137806133Y-94742000D01*
X137698641Y-94201600D01*
X137392529Y-93743471D01*
X136986244Y-93472000D01*
X137392529Y-93200529D01*
X137698641Y-92742400D01*
X137806133Y-92202000D01*
X137698641Y-91661600D01*
X137392529Y-91203471D01*
X136986244Y-90932000D01*
X137392529Y-90660529D01*
X137698641Y-90202400D01*
X137806133Y-89662000D01*
X137698641Y-89121600D01*
X137392529Y-88663471D01*
X136973443Y-88383447D01*
X137015721Y-88371964D01*
X137446736Y-88038894D01*
X137717481Y-87566235D01*
X137736318Y-87463185D01*
X137613656Y-87249000D01*
X136271000Y-87249000D01*
X136271000Y-87269000D01*
X136017000Y-87269000D01*
X136017000Y-87249000D01*
X134674344Y-87249000D01*
X134551682Y-87463185D01*
X134570519Y-87566235D01*
X134841264Y-88038894D01*
X135272279Y-88371964D01*
X135314557Y-88383447D01*
X134895471Y-88663471D01*
X134589359Y-89121600D01*
X134481867Y-89662000D01*
X112406133Y-89662000D01*
X112298641Y-89121600D01*
X111992529Y-88663471D01*
X111586244Y-88392000D01*
X111992529Y-88120529D01*
X112298641Y-87662400D01*
X112406133Y-87122000D01*
X112298641Y-86581600D01*
X111992529Y-86123471D01*
X111586244Y-85852000D01*
X111992529Y-85580529D01*
X112298641Y-85122400D01*
X112406133Y-84582000D01*
X134481867Y-84582000D01*
X134589359Y-85122400D01*
X134895471Y-85580529D01*
X135314557Y-85860553D01*
X135272279Y-85872036D01*
X134841264Y-86205106D01*
X134570519Y-86677765D01*
X134551682Y-86780815D01*
X134674344Y-86995000D01*
X136017000Y-86995000D01*
X136017000Y-86975000D01*
X136271000Y-86975000D01*
X136271000Y-86995000D01*
X137613656Y-86995000D01*
X137736318Y-86780815D01*
X137717481Y-86677765D01*
X137446736Y-86205106D01*
X137015721Y-85872036D01*
X136973443Y-85860553D01*
X137392529Y-85580529D01*
X137698641Y-85122400D01*
X137806133Y-84582000D01*
X137698641Y-84041600D01*
X137392529Y-83583471D01*
X137169408Y-83434386D01*
X137391765Y-83390157D01*
X137601809Y-83249809D01*
X137742157Y-83039765D01*
X137791440Y-82792000D01*
X137791440Y-81292000D01*
X137742157Y-81044235D01*
X137601809Y-80834191D01*
X137391765Y-80693843D01*
X137144000Y-80644560D01*
X135144000Y-80644560D01*
X134896235Y-80693843D01*
X134686191Y-80834191D01*
X134545843Y-81044235D01*
X134496560Y-81292000D01*
X134496560Y-82792000D01*
X134545843Y-83039765D01*
X134686191Y-83249809D01*
X134896235Y-83390157D01*
X135118592Y-83434386D01*
X134895471Y-83583471D01*
X134589359Y-84041600D01*
X134481867Y-84582000D01*
X112406133Y-84582000D01*
X112298641Y-84041600D01*
X111992529Y-83583471D01*
X111769408Y-83434386D01*
X111991765Y-83390157D01*
X112201809Y-83249809D01*
X112342157Y-83039765D01*
X112391440Y-82792000D01*
X112391440Y-81292000D01*
X112342157Y-81044235D01*
X112201809Y-80834191D01*
X111991765Y-80693843D01*
X111744000Y-80644560D01*
X109744000Y-80644560D01*
X109496235Y-80693843D01*
X109286191Y-80834191D01*
X109145843Y-81044235D01*
X109096560Y-81292000D01*
X109096560Y-82792000D01*
X109145843Y-83039765D01*
X109286191Y-83249809D01*
X109496235Y-83390157D01*
X109718592Y-83434386D01*
X109495471Y-83583471D01*
X109189359Y-84041600D01*
X109081867Y-84582000D01*
X88553236Y-84582000D01*
X80317350Y-76346115D01*
X80317809Y-76345809D01*
X80458157Y-76135765D01*
X80505746Y-75896517D01*
X80733106Y-76190736D01*
X81205765Y-76461481D01*
X81308815Y-76480318D01*
X81523000Y-76357656D01*
X81523000Y-75015000D01*
X81503000Y-75015000D01*
X81503000Y-74761000D01*
X81523000Y-74761000D01*
X81523000Y-73418344D01*
X81777000Y-73418344D01*
X81777000Y-74761000D01*
X81797000Y-74761000D01*
X81797000Y-75015000D01*
X81777000Y-75015000D01*
X81777000Y-76357656D01*
X81991185Y-76480318D01*
X82094235Y-76461481D01*
X82566894Y-76190736D01*
X82899964Y-75759721D01*
X82911447Y-75717443D01*
X83191472Y-76136529D01*
X83649601Y-76442641D01*
X84190000Y-76550133D01*
X84730400Y-76442641D01*
X85188529Y-76136529D01*
X85460000Y-75730243D01*
X85731472Y-76136529D01*
X86189601Y-76442641D01*
X86730000Y-76550133D01*
X87270400Y-76442641D01*
X87728529Y-76136529D01*
X88000000Y-75730243D01*
X88271472Y-76136529D01*
X88729601Y-76442641D01*
X89270000Y-76550133D01*
X89810400Y-76442641D01*
X90268529Y-76136529D01*
X90540000Y-75730243D01*
X90811472Y-76136529D01*
X91269601Y-76442641D01*
X91810000Y-76550133D01*
X92350400Y-76442641D01*
X92808529Y-76136529D01*
X93080000Y-75730243D01*
X93351472Y-76136529D01*
X93809601Y-76442641D01*
X94350000Y-76550133D01*
X94890400Y-76442641D01*
X95348529Y-76136529D01*
X95620000Y-75730243D01*
X95891472Y-76136529D01*
X96349601Y-76442641D01*
X96890000Y-76550133D01*
X97430400Y-76442641D01*
X97888529Y-76136529D01*
X98194641Y-75678399D01*
X98275000Y-75274406D01*
X98275000Y-74501593D01*
X98194641Y-74097600D01*
X97888528Y-73639471D01*
X97430399Y-73333359D01*
X96890000Y-73225867D01*
X96349600Y-73333359D01*
X95891471Y-73639472D01*
X95620000Y-74045757D01*
X95348528Y-73639471D01*
X94890399Y-73333359D01*
X94350000Y-73225867D01*
X93809600Y-73333359D01*
X93351471Y-73639472D01*
X93080000Y-74045757D01*
X92808528Y-73639471D01*
X92350399Y-73333359D01*
X91810000Y-73225867D01*
X91269600Y-73333359D01*
X90811471Y-73639472D01*
X90540000Y-74045757D01*
X90268528Y-73639471D01*
X89810399Y-73333359D01*
X89270000Y-73225867D01*
X88729600Y-73333359D01*
X88271471Y-73639472D01*
X88000000Y-74045757D01*
X87728528Y-73639471D01*
X87270399Y-73333359D01*
X86730000Y-73225867D01*
X86189600Y-73333359D01*
X85731471Y-73639472D01*
X85460000Y-74045757D01*
X85188528Y-73639471D01*
X84730399Y-73333359D01*
X84190000Y-73225867D01*
X83649600Y-73333359D01*
X83191471Y-73639472D01*
X82911447Y-74058557D01*
X82899964Y-74016279D01*
X82566894Y-73585264D01*
X82094235Y-73314519D01*
X81991185Y-73295682D01*
X81777000Y-73418344D01*
X81523000Y-73418344D01*
X81308815Y-73295682D01*
X81205765Y-73314519D01*
X80733106Y-73585264D01*
X80505746Y-73879483D01*
X80458157Y-73640235D01*
X80317809Y-73430191D01*
X80107765Y-73289843D01*
X79860000Y-73240560D01*
X78360000Y-73240560D01*
X78112235Y-73289843D01*
X77902191Y-73430191D01*
X77761843Y-73640235D01*
X77712560Y-73888000D01*
X77712560Y-75888000D01*
X77761843Y-76135765D01*
X77902191Y-76345809D01*
X78112235Y-76486157D01*
X78226020Y-76508790D01*
X78272582Y-76742870D01*
X78469068Y-77036933D01*
X78543294Y-77086529D01*
X102607470Y-101150706D01*
X102657067Y-101224933D01*
X102731293Y-101274529D01*
X102951129Y-101421419D01*
X103298000Y-101490416D01*
X103385556Y-101473000D01*
X130695765Y-101473000D01*
X138303000Y-109080236D01*
X138303001Y-111137763D01*
X138001277Y-111439487D01*
X137938136Y-111122055D01*
X137576769Y-110581231D01*
X137164992Y-110306090D01*
X137158000Y-110270939D01*
X137158000Y-110270935D01*
X137113904Y-110049250D01*
X137113904Y-110049249D01*
X136988329Y-109861314D01*
X136945929Y-109797858D01*
X136882473Y-109755458D01*
X136370544Y-109243530D01*
X136328142Y-109180071D01*
X136076750Y-109012096D01*
X135855065Y-108968000D01*
X135855060Y-108968000D01*
X135780213Y-108953112D01*
X135705366Y-108968000D01*
X125565755Y-108968000D01*
X125667809Y-108899809D01*
X125808157Y-108689765D01*
X125857440Y-108442000D01*
X125857440Y-106442000D01*
X125808157Y-106194235D01*
X125667809Y-105984191D01*
X125457765Y-105843843D01*
X125210000Y-105794560D01*
X123710000Y-105794560D01*
X123462235Y-105843843D01*
X123252191Y-105984191D01*
X123111843Y-106194235D01*
X123067614Y-106416593D01*
X122918529Y-106193471D01*
X122460400Y-105887359D01*
X121920000Y-105779867D01*
X121379601Y-105887359D01*
X120921472Y-106193471D01*
X120650000Y-106599757D01*
X120378529Y-106193471D01*
X119920400Y-105887359D01*
X119380000Y-105779867D01*
X118839601Y-105887359D01*
X118381472Y-106193471D01*
X118101447Y-106612557D01*
X118089964Y-106570279D01*
X117756894Y-106139264D01*
X117284235Y-105868519D01*
X117181185Y-105849682D01*
X116967000Y-105972344D01*
X116967000Y-107315000D01*
X116987000Y-107315000D01*
X116987000Y-107569000D01*
X116967000Y-107569000D01*
X116967000Y-107589000D01*
X116713000Y-107589000D01*
X116713000Y-107569000D01*
X116693000Y-107569000D01*
X116693000Y-107315000D01*
X116713000Y-107315000D01*
X116713000Y-105972344D01*
X116498815Y-105849682D01*
X116395765Y-105868519D01*
X115923106Y-106139264D01*
X115590036Y-106570279D01*
X115578553Y-106612557D01*
X115298529Y-106193471D01*
X114840400Y-105887359D01*
X114300000Y-105779867D01*
X113759601Y-105887359D01*
X113301472Y-106193471D01*
X113030000Y-106599757D01*
X112758529Y-106193471D01*
X112300400Y-105887359D01*
X111760000Y-105779867D01*
X111219601Y-105887359D01*
X110761472Y-106193471D01*
X110490000Y-106599757D01*
X110218529Y-106193471D01*
X109760400Y-105887359D01*
X109220000Y-105779867D01*
X108679601Y-105887359D01*
X108221472Y-106193471D01*
X107950000Y-106599757D01*
X107678529Y-106193471D01*
X107220400Y-105887359D01*
X106680000Y-105779867D01*
X106139601Y-105887359D01*
X105681472Y-106193471D01*
X105410000Y-106599757D01*
X105138529Y-106193471D01*
X104680400Y-105887359D01*
X104140000Y-105779867D01*
X103599601Y-105887359D01*
X103141472Y-106193471D01*
X102870000Y-106599757D01*
X102598529Y-106193471D01*
X102140400Y-105887359D01*
X101600000Y-105779867D01*
X101059601Y-105887359D01*
X100601472Y-106193471D01*
X100330000Y-106599757D01*
X100058529Y-106193471D01*
X99600400Y-105887359D01*
X99060000Y-105779867D01*
X98519601Y-105887359D01*
X98061472Y-106193471D01*
X97790000Y-106599757D01*
X97518529Y-106193471D01*
X97060400Y-105887359D01*
X96520000Y-105779867D01*
X95979601Y-105887359D01*
X95521472Y-106193471D01*
X95250000Y-106599757D01*
X94978529Y-106193471D01*
X94520400Y-105887359D01*
X93980000Y-105779867D01*
X93439601Y-105887359D01*
X92981472Y-106193471D01*
X92710000Y-106599757D01*
X92438529Y-106193471D01*
X91980400Y-105887359D01*
X91440000Y-105779867D01*
X90899601Y-105887359D01*
X90441472Y-106193471D01*
X90170000Y-106599757D01*
X89898529Y-106193471D01*
X89440400Y-105887359D01*
X88900000Y-105779867D01*
X88359601Y-105887359D01*
X87901472Y-106193471D01*
X87630000Y-106599757D01*
X87358529Y-106193471D01*
X86900400Y-105887359D01*
X86360000Y-105779867D01*
X85819601Y-105887359D01*
X85361472Y-106193471D01*
X85055359Y-106651600D01*
X84975000Y-107055593D01*
X84975000Y-107828406D01*
X85055359Y-108232399D01*
X85361471Y-108690528D01*
X85819600Y-108996641D01*
X86360000Y-109104133D01*
X86900399Y-108996641D01*
X87358528Y-108690529D01*
X87630000Y-108284243D01*
X87901471Y-108690528D01*
X88359600Y-108996641D01*
X88900000Y-109104133D01*
X89440399Y-108996641D01*
X89898528Y-108690529D01*
X90170000Y-108284243D01*
X90441471Y-108690528D01*
X90899600Y-108996641D01*
X91440000Y-109104133D01*
X91980399Y-108996641D01*
X92438528Y-108690529D01*
X92710000Y-108284243D01*
X92981471Y-108690528D01*
X93439600Y-108996641D01*
X93980000Y-109104133D01*
X94520399Y-108996641D01*
X94978528Y-108690529D01*
X95250000Y-108284243D01*
X95521471Y-108690528D01*
X95779055Y-108862640D01*
X95804097Y-108988537D01*
X95972072Y-109239929D01*
X96035528Y-109282329D01*
X98997671Y-112244473D01*
X99040071Y-112307929D01*
X99291463Y-112475904D01*
X99513148Y-112520000D01*
X99513152Y-112520000D01*
X99587999Y-112534888D01*
X99662846Y-112520000D01*
X132210560Y-112520000D01*
X132210560Y-112760000D01*
X132259843Y-113007765D01*
X132274700Y-113030000D01*
X132259843Y-113052235D01*
X132210560Y-113300000D01*
X132210560Y-115300000D01*
X132259843Y-115547765D01*
X132279526Y-115577223D01*
X132223000Y-115713690D01*
X132223000Y-116554250D01*
X132381750Y-116713000D01*
X133731000Y-116713000D01*
X133731000Y-116693000D01*
X133985000Y-116693000D01*
X133985000Y-116713000D01*
X136271000Y-116713000D01*
X136271000Y-116693000D01*
X136525000Y-116693000D01*
X136525000Y-116713000D01*
X137868777Y-116713000D01*
X137988124Y-116459566D01*
X137791402Y-115984615D01*
X137420029Y-115583499D01*
X137576769Y-115478769D01*
X137938136Y-114937945D01*
X138065031Y-114300000D01*
X137997042Y-113958194D01*
X139758707Y-112196529D01*
X139832933Y-112146933D01*
X140006001Y-111887918D01*
X140006001Y-128322000D01*
X74878000Y-128322000D01*
X74878000Y-122295593D01*
X84975000Y-122295593D01*
X84975000Y-123068406D01*
X85055359Y-123472399D01*
X85361471Y-123930528D01*
X85819600Y-124236641D01*
X86360000Y-124344133D01*
X86900399Y-124236641D01*
X87358528Y-123930529D01*
X87630000Y-123524243D01*
X87901471Y-123930528D01*
X88359600Y-124236641D01*
X88900000Y-124344133D01*
X89440399Y-124236641D01*
X89898528Y-123930529D01*
X90170000Y-123524243D01*
X90441471Y-123930528D01*
X90899600Y-124236641D01*
X91440000Y-124344133D01*
X91980399Y-124236641D01*
X92438528Y-123930529D01*
X92710000Y-123524243D01*
X92981471Y-123930528D01*
X93439600Y-124236641D01*
X93980000Y-124344133D01*
X94520399Y-124236641D01*
X94978528Y-123930529D01*
X95250000Y-123524243D01*
X95521471Y-123930528D01*
X95979600Y-124236641D01*
X96520000Y-124344133D01*
X97060399Y-124236641D01*
X97518528Y-123930529D01*
X97790000Y-123524243D01*
X98061471Y-123930528D01*
X98519600Y-124236641D01*
X99060000Y-124344133D01*
X99600399Y-124236641D01*
X100058528Y-123930529D01*
X100330000Y-123524243D01*
X100601471Y-123930528D01*
X101059600Y-124236641D01*
X101600000Y-124344133D01*
X102140399Y-124236641D01*
X102598528Y-123930529D01*
X102870000Y-123524243D01*
X103141471Y-123930528D01*
X103599600Y-124236641D01*
X104140000Y-124344133D01*
X104680399Y-124236641D01*
X105138528Y-123930529D01*
X105410000Y-123524243D01*
X105681471Y-123930528D01*
X106139600Y-124236641D01*
X106680000Y-124344133D01*
X107220399Y-124236641D01*
X107678528Y-123930529D01*
X107950000Y-123524243D01*
X108221471Y-123930528D01*
X108679600Y-124236641D01*
X109220000Y-124344133D01*
X109760399Y-124236641D01*
X110218528Y-123930529D01*
X110490000Y-123524243D01*
X110761471Y-123930528D01*
X111219600Y-124236641D01*
X111760000Y-124344133D01*
X112300399Y-124236641D01*
X112758528Y-123930529D01*
X113030000Y-123524243D01*
X113301471Y-123930528D01*
X113759600Y-124236641D01*
X114300000Y-124344133D01*
X114840399Y-124236641D01*
X115298528Y-123930529D01*
X115570000Y-123524243D01*
X115841471Y-123930528D01*
X116299600Y-124236641D01*
X116840000Y-124344133D01*
X117380399Y-124236641D01*
X117838528Y-123930529D01*
X118110000Y-123524243D01*
X118381471Y-123930528D01*
X118839600Y-124236641D01*
X119380000Y-124344133D01*
X119920399Y-124236641D01*
X120378528Y-123930529D01*
X120658553Y-123511443D01*
X120670036Y-123553721D01*
X121003106Y-123984736D01*
X121475765Y-124255481D01*
X121578815Y-124274318D01*
X121793000Y-124151656D01*
X121793000Y-122809000D01*
X121773000Y-122809000D01*
X121773000Y-122555000D01*
X121793000Y-122555000D01*
X121793000Y-121212344D01*
X122047000Y-121212344D01*
X122047000Y-122555000D01*
X122067000Y-122555000D01*
X122067000Y-122809000D01*
X122047000Y-122809000D01*
X122047000Y-124151656D01*
X122261185Y-124274318D01*
X122364235Y-124255481D01*
X122836894Y-123984736D01*
X123064254Y-123690517D01*
X123111843Y-123929765D01*
X123252191Y-124139809D01*
X123462235Y-124280157D01*
X123710000Y-124329440D01*
X125210000Y-124329440D01*
X125457765Y-124280157D01*
X125667809Y-124139809D01*
X125808157Y-123929765D01*
X125857440Y-123682000D01*
X125857440Y-121682000D01*
X125808157Y-121434235D01*
X125667809Y-121224191D01*
X125457765Y-121083843D01*
X125210000Y-121034560D01*
X123710000Y-121034560D01*
X123462235Y-121083843D01*
X123252191Y-121224191D01*
X123111843Y-121434235D01*
X123064254Y-121673483D01*
X122836894Y-121379264D01*
X122364235Y-121108519D01*
X122261185Y-121089682D01*
X122047000Y-121212344D01*
X121793000Y-121212344D01*
X121578815Y-121089682D01*
X121475765Y-121108519D01*
X121003106Y-121379264D01*
X120670036Y-121810279D01*
X120658553Y-121852557D01*
X120378529Y-121433471D01*
X119920400Y-121127359D01*
X119380000Y-121019867D01*
X118839601Y-121127359D01*
X118381472Y-121433471D01*
X118110000Y-121839757D01*
X117838529Y-121433471D01*
X117380400Y-121127359D01*
X116840000Y-121019867D01*
X116299601Y-121127359D01*
X115841472Y-121433471D01*
X115570000Y-121839757D01*
X115298529Y-121433471D01*
X114840400Y-121127359D01*
X114300000Y-121019867D01*
X113759601Y-121127359D01*
X113301472Y-121433471D01*
X113030000Y-121839757D01*
X112758529Y-121433471D01*
X112300400Y-121127359D01*
X111760000Y-121019867D01*
X111219601Y-121127359D01*
X110761472Y-121433471D01*
X110490000Y-121839757D01*
X110218529Y-121433471D01*
X109760400Y-121127359D01*
X109220000Y-121019867D01*
X108679601Y-121127359D01*
X108221472Y-121433471D01*
X107950000Y-121839757D01*
X107678529Y-121433471D01*
X107220400Y-121127359D01*
X106680000Y-121019867D01*
X106139601Y-121127359D01*
X105681472Y-121433471D01*
X105410000Y-121839757D01*
X105138529Y-121433471D01*
X104680400Y-121127359D01*
X104140000Y-121019867D01*
X103599601Y-121127359D01*
X103141472Y-121433471D01*
X102870000Y-121839757D01*
X102598529Y-121433471D01*
X102140400Y-121127359D01*
X101600000Y-121019867D01*
X101059601Y-121127359D01*
X100601472Y-121433471D01*
X100330000Y-121839757D01*
X100058529Y-121433471D01*
X99600400Y-121127359D01*
X99060000Y-121019867D01*
X98519601Y-121127359D01*
X98061472Y-121433471D01*
X97790000Y-121839757D01*
X97518529Y-121433471D01*
X97060400Y-121127359D01*
X96520000Y-121019867D01*
X95979601Y-121127359D01*
X95521472Y-121433471D01*
X95250000Y-121839757D01*
X94978529Y-121433471D01*
X94520400Y-121127359D01*
X93980000Y-121019867D01*
X93439601Y-121127359D01*
X92981472Y-121433471D01*
X92710000Y-121839757D01*
X92438529Y-121433471D01*
X91980400Y-121127359D01*
X91440000Y-121019867D01*
X90899601Y-121127359D01*
X90441472Y-121433471D01*
X90170000Y-121839757D01*
X89898529Y-121433471D01*
X89440400Y-121127359D01*
X88900000Y-121019867D01*
X88359601Y-121127359D01*
X87901472Y-121433471D01*
X87630000Y-121839757D01*
X87358529Y-121433471D01*
X86900400Y-121127359D01*
X86360000Y-121019867D01*
X85819601Y-121127359D01*
X85361472Y-121433471D01*
X85055359Y-121891600D01*
X84975000Y-122295593D01*
X74878000Y-122295593D01*
X74878000Y-117125750D01*
X132223000Y-117125750D01*
X132223000Y-117966310D01*
X132319673Y-118199699D01*
X132498302Y-118378327D01*
X132731691Y-118475000D01*
X133572250Y-118475000D01*
X133731000Y-118316250D01*
X133731000Y-116967000D01*
X133985000Y-116967000D01*
X133985000Y-118316250D01*
X134143750Y-118475000D01*
X134984309Y-118475000D01*
X135217698Y-118378327D01*
X135396327Y-118199699D01*
X135419568Y-118143590D01*
X135438006Y-118163505D01*
X136017565Y-118430133D01*
X136271000Y-118311319D01*
X136271000Y-116967000D01*
X136525000Y-116967000D01*
X136525000Y-118311319D01*
X136778435Y-118430133D01*
X137357994Y-118163505D01*
X137791402Y-117695385D01*
X137988124Y-117220434D01*
X137868777Y-116967000D01*
X136525000Y-116967000D01*
X136271000Y-116967000D01*
X133985000Y-116967000D01*
X133731000Y-116967000D01*
X132381750Y-116967000D01*
X132223000Y-117125750D01*
X74878000Y-117125750D01*
X74878000Y-96748000D01*
X77712560Y-96748000D01*
X77712560Y-98748000D01*
X77761843Y-98995765D01*
X77902191Y-99205809D01*
X78112235Y-99346157D01*
X78360000Y-99395440D01*
X79860000Y-99395440D01*
X80107765Y-99346157D01*
X80317809Y-99205809D01*
X80458157Y-98995765D01*
X80502386Y-98773407D01*
X80651472Y-98996529D01*
X81109601Y-99302641D01*
X81650000Y-99410133D01*
X82190400Y-99302641D01*
X82648529Y-98996529D01*
X82920000Y-98590243D01*
X83191472Y-98996529D01*
X83649601Y-99302641D01*
X84190000Y-99410133D01*
X84730400Y-99302641D01*
X85188529Y-98996529D01*
X85460000Y-98590243D01*
X85731472Y-98996529D01*
X86189601Y-99302641D01*
X86730000Y-99410133D01*
X87270400Y-99302641D01*
X87728529Y-98996529D01*
X88000000Y-98590243D01*
X88271472Y-98996529D01*
X88729601Y-99302641D01*
X89270000Y-99410133D01*
X89810400Y-99302641D01*
X90268529Y-98996529D01*
X90540000Y-98590243D01*
X90811472Y-98996529D01*
X91269601Y-99302641D01*
X91810000Y-99410133D01*
X92350400Y-99302641D01*
X92808529Y-98996529D01*
X93080000Y-98590243D01*
X93351472Y-98996529D01*
X93809601Y-99302641D01*
X94350000Y-99410133D01*
X94890400Y-99302641D01*
X95348529Y-98996529D01*
X95620000Y-98590243D01*
X95891472Y-98996529D01*
X96349601Y-99302641D01*
X96890000Y-99410133D01*
X97430400Y-99302641D01*
X97888529Y-98996529D01*
X98194641Y-98538399D01*
X98275000Y-98134406D01*
X98275000Y-97361593D01*
X98194641Y-96957600D01*
X97888528Y-96499471D01*
X97430399Y-96193359D01*
X96890000Y-96085867D01*
X96349600Y-96193359D01*
X95891471Y-96499472D01*
X95620000Y-96905757D01*
X95348528Y-96499471D01*
X94890399Y-96193359D01*
X94350000Y-96085867D01*
X93809600Y-96193359D01*
X93351471Y-96499472D01*
X93080000Y-96905757D01*
X92808528Y-96499471D01*
X92350399Y-96193359D01*
X91810000Y-96085867D01*
X91269600Y-96193359D01*
X90811471Y-96499472D01*
X90540000Y-96905757D01*
X90268528Y-96499471D01*
X89810399Y-96193359D01*
X89270000Y-96085867D01*
X88729600Y-96193359D01*
X88271471Y-96499472D01*
X88000000Y-96905757D01*
X87728528Y-96499471D01*
X87270399Y-96193359D01*
X86730000Y-96085867D01*
X86189600Y-96193359D01*
X85731471Y-96499472D01*
X85460000Y-96905757D01*
X85188528Y-96499471D01*
X84730399Y-96193359D01*
X84190000Y-96085867D01*
X83649600Y-96193359D01*
X83191471Y-96499472D01*
X82920000Y-96905757D01*
X82648528Y-96499471D01*
X82190399Y-96193359D01*
X81650000Y-96085867D01*
X81109600Y-96193359D01*
X80651471Y-96499472D01*
X80502386Y-96722593D01*
X80458157Y-96500235D01*
X80317809Y-96290191D01*
X80107765Y-96149843D01*
X79860000Y-96100560D01*
X78360000Y-96100560D01*
X78112235Y-96149843D01*
X77902191Y-96290191D01*
X77761843Y-96500235D01*
X77712560Y-96748000D01*
X74878000Y-96748000D01*
X74878000Y-66748000D01*
X77712560Y-66748000D01*
X77712560Y-68748000D01*
X77761843Y-68995765D01*
X77902191Y-69205809D01*
X78112235Y-69346157D01*
X78360000Y-69395440D01*
X79860000Y-69395440D01*
X80107765Y-69346157D01*
X80317809Y-69205809D01*
X80458157Y-68995765D01*
X80505746Y-68756517D01*
X80733106Y-69050736D01*
X81205765Y-69321481D01*
X81308815Y-69340318D01*
X81523000Y-69217656D01*
X81523000Y-67875000D01*
X81503000Y-67875000D01*
X81503000Y-67621000D01*
X81523000Y-67621000D01*
X81523000Y-66278344D01*
X81777000Y-66278344D01*
X81777000Y-67621000D01*
X81797000Y-67621000D01*
X81797000Y-67875000D01*
X81777000Y-67875000D01*
X81777000Y-69217656D01*
X81991185Y-69340318D01*
X82094235Y-69321481D01*
X82566894Y-69050736D01*
X82899964Y-68619721D01*
X82911447Y-68577443D01*
X83191472Y-68996529D01*
X83649601Y-69302641D01*
X84190000Y-69410133D01*
X84730400Y-69302641D01*
X85188529Y-68996529D01*
X85460000Y-68590243D01*
X85731472Y-68996529D01*
X86189601Y-69302641D01*
X86730000Y-69410133D01*
X87270400Y-69302641D01*
X87728529Y-68996529D01*
X88000000Y-68590243D01*
X88271472Y-68996529D01*
X88729601Y-69302641D01*
X89270000Y-69410133D01*
X89810400Y-69302641D01*
X90268529Y-68996529D01*
X90540000Y-68590243D01*
X90811472Y-68996529D01*
X91269601Y-69302641D01*
X91810000Y-69410133D01*
X92350400Y-69302641D01*
X92808529Y-68996529D01*
X93080000Y-68590243D01*
X93351472Y-68996529D01*
X93809601Y-69302641D01*
X94350000Y-69410133D01*
X94890400Y-69302641D01*
X95348529Y-68996529D01*
X95620000Y-68590243D01*
X95891472Y-68996529D01*
X96349601Y-69302641D01*
X96890000Y-69410133D01*
X97430400Y-69302641D01*
X97888529Y-68996529D01*
X98194641Y-68538399D01*
X98275000Y-68134406D01*
X98275000Y-67361593D01*
X98194641Y-66957600D01*
X98054591Y-66748000D01*
X114712560Y-66748000D01*
X114712560Y-68748000D01*
X114761843Y-68995765D01*
X114902191Y-69205809D01*
X115112235Y-69346157D01*
X115360000Y-69395440D01*
X116860000Y-69395440D01*
X117107765Y-69346157D01*
X117317809Y-69205809D01*
X117458157Y-68995765D01*
X117502386Y-68773407D01*
X117651472Y-68996529D01*
X118109601Y-69302641D01*
X118650000Y-69410133D01*
X119190400Y-69302641D01*
X119648529Y-68996529D01*
X119920000Y-68590243D01*
X120191472Y-68996529D01*
X120649601Y-69302641D01*
X121190000Y-69410133D01*
X121730400Y-69302641D01*
X122188529Y-68996529D01*
X122460000Y-68590243D01*
X122731472Y-68996529D01*
X123189601Y-69302641D01*
X123730000Y-69410133D01*
X124270400Y-69302641D01*
X124728529Y-68996529D01*
X125000000Y-68590243D01*
X125271472Y-68996529D01*
X125729601Y-69302641D01*
X126270000Y-69410133D01*
X126810400Y-69302641D01*
X127268529Y-68996529D01*
X127540000Y-68590243D01*
X127811472Y-68996529D01*
X128269601Y-69302641D01*
X128810000Y-69410133D01*
X129350400Y-69302641D01*
X129808529Y-68996529D01*
X130080000Y-68590243D01*
X130351472Y-68996529D01*
X130809601Y-69302641D01*
X131350000Y-69410133D01*
X131890400Y-69302641D01*
X132348529Y-68996529D01*
X132620000Y-68590243D01*
X132891472Y-68996529D01*
X133349601Y-69302641D01*
X133890000Y-69410133D01*
X134430400Y-69302641D01*
X134888529Y-68996529D01*
X135194641Y-68538399D01*
X135275000Y-68134406D01*
X135275000Y-67361593D01*
X135194641Y-66957600D01*
X134888528Y-66499471D01*
X134430399Y-66193359D01*
X133890000Y-66085867D01*
X133349600Y-66193359D01*
X132891471Y-66499472D01*
X132620000Y-66905757D01*
X132348528Y-66499471D01*
X131890399Y-66193359D01*
X131350000Y-66085867D01*
X130809600Y-66193359D01*
X130351471Y-66499472D01*
X130080000Y-66905757D01*
X129808528Y-66499471D01*
X129350399Y-66193359D01*
X128810000Y-66085867D01*
X128269600Y-66193359D01*
X127811471Y-66499472D01*
X127540000Y-66905757D01*
X127268528Y-66499471D01*
X126810399Y-66193359D01*
X126270000Y-66085867D01*
X125729600Y-66193359D01*
X125271471Y-66499472D01*
X125000000Y-66905757D01*
X124728528Y-66499471D01*
X124270399Y-66193359D01*
X123730000Y-66085867D01*
X123189600Y-66193359D01*
X122731471Y-66499472D01*
X122460000Y-66905757D01*
X122188528Y-66499471D01*
X121730399Y-66193359D01*
X121190000Y-66085867D01*
X120649600Y-66193359D01*
X120191471Y-66499472D01*
X119920000Y-66905757D01*
X119648528Y-66499471D01*
X119190399Y-66193359D01*
X118650000Y-66085867D01*
X118109600Y-66193359D01*
X117651471Y-66499472D01*
X117502386Y-66722593D01*
X117458157Y-66500235D01*
X117317809Y-66290191D01*
X117107765Y-66149843D01*
X116860000Y-66100560D01*
X115360000Y-66100560D01*
X115112235Y-66149843D01*
X114902191Y-66290191D01*
X114761843Y-66500235D01*
X114712560Y-66748000D01*
X98054591Y-66748000D01*
X97888528Y-66499471D01*
X97430399Y-66193359D01*
X96890000Y-66085867D01*
X96349600Y-66193359D01*
X95891471Y-66499472D01*
X95620000Y-66905757D01*
X95348528Y-66499471D01*
X94890399Y-66193359D01*
X94350000Y-66085867D01*
X93809600Y-66193359D01*
X93351471Y-66499472D01*
X93080000Y-66905757D01*
X92808528Y-66499471D01*
X92350399Y-66193359D01*
X91810000Y-66085867D01*
X91269600Y-66193359D01*
X90811471Y-66499472D01*
X90540000Y-66905757D01*
X90268528Y-66499471D01*
X89810399Y-66193359D01*
X89270000Y-66085867D01*
X88729600Y-66193359D01*
X88271471Y-66499472D01*
X88000000Y-66905757D01*
X87728528Y-66499471D01*
X87270399Y-66193359D01*
X86730000Y-66085867D01*
X86189600Y-66193359D01*
X85731471Y-66499472D01*
X85460000Y-66905757D01*
X85188528Y-66499471D01*
X84730399Y-66193359D01*
X84190000Y-66085867D01*
X83649600Y-66193359D01*
X83191471Y-66499472D01*
X82911447Y-66918557D01*
X82899964Y-66876279D01*
X82566894Y-66445264D01*
X82094235Y-66174519D01*
X81991185Y-66155682D01*
X81777000Y-66278344D01*
X81523000Y-66278344D01*
X81308815Y-66155682D01*
X81205765Y-66174519D01*
X80733106Y-66445264D01*
X80505746Y-66739483D01*
X80458157Y-66500235D01*
X80317809Y-66290191D01*
X80107765Y-66149843D01*
X79860000Y-66100560D01*
X78360000Y-66100560D01*
X78112235Y-66149843D01*
X77902191Y-66290191D01*
X77761843Y-66500235D01*
X77712560Y-66748000D01*
X74878000Y-66748000D01*
X74878000Y-43888000D01*
X77712560Y-43888000D01*
X77712560Y-45888000D01*
X77761843Y-46135765D01*
X77902191Y-46345809D01*
X78112235Y-46486157D01*
X78360000Y-46535440D01*
X79860000Y-46535440D01*
X80107765Y-46486157D01*
X80317809Y-46345809D01*
X80458157Y-46135765D01*
X80502386Y-45913407D01*
X80651472Y-46136529D01*
X81109601Y-46442641D01*
X81650000Y-46550133D01*
X82190400Y-46442641D01*
X82648529Y-46136529D01*
X82920000Y-45730243D01*
X83191472Y-46136529D01*
X83649601Y-46442641D01*
X84190000Y-46550133D01*
X84730400Y-46442641D01*
X85188529Y-46136529D01*
X85460000Y-45730243D01*
X85731472Y-46136529D01*
X86189601Y-46442641D01*
X86730000Y-46550133D01*
X87270400Y-46442641D01*
X87728529Y-46136529D01*
X88000000Y-45730243D01*
X88271472Y-46136529D01*
X88729601Y-46442641D01*
X89270000Y-46550133D01*
X89810400Y-46442641D01*
X90268529Y-46136529D01*
X90540000Y-45730243D01*
X90811472Y-46136529D01*
X91269601Y-46442641D01*
X91810000Y-46550133D01*
X92350400Y-46442641D01*
X92808529Y-46136529D01*
X93080000Y-45730243D01*
X93351472Y-46136529D01*
X93809601Y-46442641D01*
X94350000Y-46550133D01*
X94890400Y-46442641D01*
X95348529Y-46136529D01*
X95620000Y-45730243D01*
X95891472Y-46136529D01*
X96349601Y-46442641D01*
X96890000Y-46550133D01*
X97430400Y-46442641D01*
X97888529Y-46136529D01*
X98194641Y-45678399D01*
X98275000Y-45274406D01*
X98275000Y-44501593D01*
X98194641Y-44097600D01*
X98054591Y-43888000D01*
X114712560Y-43888000D01*
X114712560Y-45888000D01*
X114761843Y-46135765D01*
X114902191Y-46345809D01*
X115112235Y-46486157D01*
X115360000Y-46535440D01*
X116860000Y-46535440D01*
X117107765Y-46486157D01*
X117317809Y-46345809D01*
X117458157Y-46135765D01*
X117505746Y-45896517D01*
X117733106Y-46190736D01*
X118205765Y-46461481D01*
X118308815Y-46480318D01*
X118523000Y-46357656D01*
X118523000Y-45015000D01*
X118503000Y-45015000D01*
X118503000Y-44761000D01*
X118523000Y-44761000D01*
X118523000Y-43418344D01*
X118777000Y-43418344D01*
X118777000Y-44761000D01*
X118797000Y-44761000D01*
X118797000Y-45015000D01*
X118777000Y-45015000D01*
X118777000Y-46357656D01*
X118991185Y-46480318D01*
X119094235Y-46461481D01*
X119566894Y-46190736D01*
X119899964Y-45759721D01*
X119911447Y-45717443D01*
X120191472Y-46136529D01*
X120649601Y-46442641D01*
X121190000Y-46550133D01*
X121730400Y-46442641D01*
X122188529Y-46136529D01*
X122460000Y-45730243D01*
X122731472Y-46136529D01*
X123189601Y-46442641D01*
X123730000Y-46550133D01*
X124270400Y-46442641D01*
X124728529Y-46136529D01*
X125000000Y-45730243D01*
X125271472Y-46136529D01*
X125729601Y-46442641D01*
X126270000Y-46550133D01*
X126810400Y-46442641D01*
X127268529Y-46136529D01*
X127540000Y-45730243D01*
X127811472Y-46136529D01*
X128269601Y-46442641D01*
X128810000Y-46550133D01*
X129350400Y-46442641D01*
X129808529Y-46136529D01*
X130080000Y-45730243D01*
X130351472Y-46136529D01*
X130809601Y-46442641D01*
X131350000Y-46550133D01*
X131890400Y-46442641D01*
X132348529Y-46136529D01*
X132620000Y-45730243D01*
X132891472Y-46136529D01*
X133349601Y-46442641D01*
X133890000Y-46550133D01*
X134430400Y-46442641D01*
X134888529Y-46136529D01*
X135194641Y-45678399D01*
X135275000Y-45274406D01*
X135275000Y-44501593D01*
X135194641Y-44097600D01*
X134888528Y-43639471D01*
X134430399Y-43333359D01*
X133890000Y-43225867D01*
X133349600Y-43333359D01*
X132891471Y-43639472D01*
X132620000Y-44045757D01*
X132348528Y-43639471D01*
X131890399Y-43333359D01*
X131350000Y-43225867D01*
X130809600Y-43333359D01*
X130351471Y-43639472D01*
X130080000Y-44045757D01*
X129808528Y-43639471D01*
X129350399Y-43333359D01*
X128810000Y-43225867D01*
X128269600Y-43333359D01*
X127811471Y-43639472D01*
X127540000Y-44045757D01*
X127268528Y-43639471D01*
X126810399Y-43333359D01*
X126270000Y-43225867D01*
X125729600Y-43333359D01*
X125271471Y-43639472D01*
X125000000Y-44045757D01*
X124728528Y-43639471D01*
X124270399Y-43333359D01*
X123730000Y-43225867D01*
X123189600Y-43333359D01*
X122731471Y-43639472D01*
X122460000Y-44045757D01*
X122188528Y-43639471D01*
X121730399Y-43333359D01*
X121190000Y-43225867D01*
X120649600Y-43333359D01*
X120191471Y-43639472D01*
X119911447Y-44058557D01*
X119899964Y-44016279D01*
X119566894Y-43585264D01*
X119094235Y-43314519D01*
X118991185Y-43295682D01*
X118777000Y-43418344D01*
X118523000Y-43418344D01*
X118308815Y-43295682D01*
X118205765Y-43314519D01*
X117733106Y-43585264D01*
X117505746Y-43879483D01*
X117458157Y-43640235D01*
X117317809Y-43430191D01*
X117107765Y-43289843D01*
X116860000Y-43240560D01*
X115360000Y-43240560D01*
X115112235Y-43289843D01*
X114902191Y-43430191D01*
X114761843Y-43640235D01*
X114712560Y-43888000D01*
X98054591Y-43888000D01*
X97888528Y-43639471D01*
X97430399Y-43333359D01*
X96890000Y-43225867D01*
X96349600Y-43333359D01*
X95891471Y-43639472D01*
X95620000Y-44045757D01*
X95348528Y-43639471D01*
X94890399Y-43333359D01*
X94350000Y-43225867D01*
X93809600Y-43333359D01*
X93351471Y-43639472D01*
X93080000Y-44045757D01*
X92808528Y-43639471D01*
X92350399Y-43333359D01*
X91810000Y-43225867D01*
X91269600Y-43333359D01*
X90811471Y-43639472D01*
X90540000Y-44045757D01*
X90268528Y-43639471D01*
X89810399Y-43333359D01*
X89270000Y-43225867D01*
X88729600Y-43333359D01*
X88271471Y-43639472D01*
X88000000Y-44045757D01*
X87728528Y-43639471D01*
X87270399Y-43333359D01*
X86730000Y-43225867D01*
X86189600Y-43333359D01*
X85731471Y-43639472D01*
X85460000Y-44045757D01*
X85188528Y-43639471D01*
X84730399Y-43333359D01*
X84190000Y-43225867D01*
X83649600Y-43333359D01*
X83191471Y-43639472D01*
X82920000Y-44045757D01*
X82648528Y-43639471D01*
X82190399Y-43333359D01*
X81650000Y-43225867D01*
X81109600Y-43333359D01*
X80651471Y-43639472D01*
X80502386Y-43862593D01*
X80458157Y-43640235D01*
X80317809Y-43430191D01*
X80107765Y-43289843D01*
X79860000Y-43240560D01*
X78360000Y-43240560D01*
X78112235Y-43289843D01*
X77902191Y-43430191D01*
X77761843Y-43640235D01*
X77712560Y-43888000D01*
X74878000Y-43888000D01*
X74878000Y-42366000D01*
X140006000Y-42366000D01*
X140006001Y-108330082D01*
X140006001Y-108330082D01*
G37*
X140006001Y-108330082D02*
X139832933Y-108071067D01*
X139758707Y-108021471D01*
X131754531Y-100017296D01*
X131704933Y-99943067D01*
X131410870Y-99746581D01*
X131151556Y-99695000D01*
X131151555Y-99695000D01*
X131064000Y-99677584D01*
X130976445Y-99695000D01*
X103666236Y-99695000D01*
X88553236Y-84582000D01*
X109081867Y-84582000D01*
X109189359Y-85122400D01*
X109495471Y-85580529D01*
X109901756Y-85852000D01*
X109495471Y-86123471D01*
X109189359Y-86581600D01*
X109081867Y-87122000D01*
X109189359Y-87662400D01*
X109495471Y-88120529D01*
X109901756Y-88392000D01*
X109495471Y-88663471D01*
X109189359Y-89121600D01*
X109081867Y-89662000D01*
X109189359Y-90202400D01*
X109495471Y-90660529D01*
X109901756Y-90932000D01*
X109495471Y-91203471D01*
X109189359Y-91661600D01*
X109081867Y-92202000D01*
X109189359Y-92742400D01*
X109495471Y-93200529D01*
X109901756Y-93472000D01*
X109495471Y-93743471D01*
X109189359Y-94201600D01*
X109081867Y-94742000D01*
X109189359Y-95282400D01*
X109495471Y-95740529D01*
X109953600Y-96046641D01*
X110357593Y-96127000D01*
X111130407Y-96127000D01*
X111534400Y-96046641D01*
X111992529Y-95740529D01*
X112298641Y-95282400D01*
X112406133Y-94742000D01*
X112298641Y-94201600D01*
X111992529Y-93743471D01*
X111586244Y-93472000D01*
X111992529Y-93200529D01*
X112298641Y-92742400D01*
X112406133Y-92202000D01*
X112298641Y-91661600D01*
X111992529Y-91203471D01*
X111586244Y-90932000D01*
X111992529Y-90660529D01*
X112298641Y-90202400D01*
X112406133Y-89662000D01*
X134481867Y-89662000D01*
X134589359Y-90202400D01*
X134895471Y-90660529D01*
X135301756Y-90932000D01*
X134895471Y-91203471D01*
X134589359Y-91661600D01*
X134481867Y-92202000D01*
X134589359Y-92742400D01*
X134895471Y-93200529D01*
X135301756Y-93472000D01*
X134895471Y-93743471D01*
X134589359Y-94201600D01*
X134481867Y-94742000D01*
X134589359Y-95282400D01*
X134895471Y-95740529D01*
X135353600Y-96046641D01*
X135757593Y-96127000D01*
X136530407Y-96127000D01*
X136934400Y-96046641D01*
X137392529Y-95740529D01*
X137698641Y-95282400D01*
X137806133Y-94742000D01*
X137698641Y-94201600D01*
X137392529Y-93743471D01*
X136986244Y-93472000D01*
X137392529Y-93200529D01*
X137698641Y-92742400D01*
X137806133Y-92202000D01*
X137698641Y-91661600D01*
X137392529Y-91203471D01*
X136986244Y-90932000D01*
X137392529Y-90660529D01*
X137698641Y-90202400D01*
X137806133Y-89662000D01*
X137698641Y-89121600D01*
X137392529Y-88663471D01*
X136973443Y-88383447D01*
X137015721Y-88371964D01*
X137446736Y-88038894D01*
X137717481Y-87566235D01*
X137736318Y-87463185D01*
X137613656Y-87249000D01*
X136271000Y-87249000D01*
X136271000Y-87269000D01*
X136017000Y-87269000D01*
X136017000Y-87249000D01*
X134674344Y-87249000D01*
X134551682Y-87463185D01*
X134570519Y-87566235D01*
X134841264Y-88038894D01*
X135272279Y-88371964D01*
X135314557Y-88383447D01*
X134895471Y-88663471D01*
X134589359Y-89121600D01*
X134481867Y-89662000D01*
X112406133Y-89662000D01*
X112298641Y-89121600D01*
X111992529Y-88663471D01*
X111586244Y-88392000D01*
X111992529Y-88120529D01*
X112298641Y-87662400D01*
X112406133Y-87122000D01*
X112298641Y-86581600D01*
X111992529Y-86123471D01*
X111586244Y-85852000D01*
X111992529Y-85580529D01*
X112298641Y-85122400D01*
X112406133Y-84582000D01*
X134481867Y-84582000D01*
X134589359Y-85122400D01*
X134895471Y-85580529D01*
X135314557Y-85860553D01*
X135272279Y-85872036D01*
X134841264Y-86205106D01*
X134570519Y-86677765D01*
X134551682Y-86780815D01*
X134674344Y-86995000D01*
X136017000Y-86995000D01*
X136017000Y-86975000D01*
X136271000Y-86975000D01*
X136271000Y-86995000D01*
X137613656Y-86995000D01*
X137736318Y-86780815D01*
X137717481Y-86677765D01*
X137446736Y-86205106D01*
X137015721Y-85872036D01*
X136973443Y-85860553D01*
X137392529Y-85580529D01*
X137698641Y-85122400D01*
X137806133Y-84582000D01*
X137698641Y-84041600D01*
X137392529Y-83583471D01*
X137169408Y-83434386D01*
X137391765Y-83390157D01*
X137601809Y-83249809D01*
X137742157Y-83039765D01*
X137791440Y-82792000D01*
X137791440Y-81292000D01*
X137742157Y-81044235D01*
X137601809Y-80834191D01*
X137391765Y-80693843D01*
X137144000Y-80644560D01*
X135144000Y-80644560D01*
X134896235Y-80693843D01*
X134686191Y-80834191D01*
X134545843Y-81044235D01*
X134496560Y-81292000D01*
X134496560Y-82792000D01*
X134545843Y-83039765D01*
X134686191Y-83249809D01*
X134896235Y-83390157D01*
X135118592Y-83434386D01*
X134895471Y-83583471D01*
X134589359Y-84041600D01*
X134481867Y-84582000D01*
X112406133Y-84582000D01*
X112298641Y-84041600D01*
X111992529Y-83583471D01*
X111769408Y-83434386D01*
X111991765Y-83390157D01*
X112201809Y-83249809D01*
X112342157Y-83039765D01*
X112391440Y-82792000D01*
X112391440Y-81292000D01*
X112342157Y-81044235D01*
X112201809Y-80834191D01*
X111991765Y-80693843D01*
X111744000Y-80644560D01*
X109744000Y-80644560D01*
X109496235Y-80693843D01*
X109286191Y-80834191D01*
X109145843Y-81044235D01*
X109096560Y-81292000D01*
X109096560Y-82792000D01*
X109145843Y-83039765D01*
X109286191Y-83249809D01*
X109496235Y-83390157D01*
X109718592Y-83434386D01*
X109495471Y-83583471D01*
X109189359Y-84041600D01*
X109081867Y-84582000D01*
X88553236Y-84582000D01*
X80317350Y-76346115D01*
X80317809Y-76345809D01*
X80458157Y-76135765D01*
X80505746Y-75896517D01*
X80733106Y-76190736D01*
X81205765Y-76461481D01*
X81308815Y-76480318D01*
X81523000Y-76357656D01*
X81523000Y-75015000D01*
X81503000Y-75015000D01*
X81503000Y-74761000D01*
X81523000Y-74761000D01*
X81523000Y-73418344D01*
X81777000Y-73418344D01*
X81777000Y-74761000D01*
X81797000Y-74761000D01*
X81797000Y-75015000D01*
X81777000Y-75015000D01*
X81777000Y-76357656D01*
X81991185Y-76480318D01*
X82094235Y-76461481D01*
X82566894Y-76190736D01*
X82899964Y-75759721D01*
X82911447Y-75717443D01*
X83191472Y-76136529D01*
X83649601Y-76442641D01*
X84190000Y-76550133D01*
X84730400Y-76442641D01*
X85188529Y-76136529D01*
X85460000Y-75730243D01*
X85731472Y-76136529D01*
X86189601Y-76442641D01*
X86730000Y-76550133D01*
X87270400Y-76442641D01*
X87728529Y-76136529D01*
X88000000Y-75730243D01*
X88271472Y-76136529D01*
X88729601Y-76442641D01*
X89270000Y-76550133D01*
X89810400Y-76442641D01*
X90268529Y-76136529D01*
X90540000Y-75730243D01*
X90811472Y-76136529D01*
X91269601Y-76442641D01*
X91810000Y-76550133D01*
X92350400Y-76442641D01*
X92808529Y-76136529D01*
X93080000Y-75730243D01*
X93351472Y-76136529D01*
X93809601Y-76442641D01*
X94350000Y-76550133D01*
X94890400Y-76442641D01*
X95348529Y-76136529D01*
X95620000Y-75730243D01*
X95891472Y-76136529D01*
X96349601Y-76442641D01*
X96890000Y-76550133D01*
X97430400Y-76442641D01*
X97888529Y-76136529D01*
X98194641Y-75678399D01*
X98275000Y-75274406D01*
X98275000Y-74501593D01*
X98194641Y-74097600D01*
X97888528Y-73639471D01*
X97430399Y-73333359D01*
X96890000Y-73225867D01*
X96349600Y-73333359D01*
X95891471Y-73639472D01*
X95620000Y-74045757D01*
X95348528Y-73639471D01*
X94890399Y-73333359D01*
X94350000Y-73225867D01*
X93809600Y-73333359D01*
X93351471Y-73639472D01*
X93080000Y-74045757D01*
X92808528Y-73639471D01*
X92350399Y-73333359D01*
X91810000Y-73225867D01*
X91269600Y-73333359D01*
X90811471Y-73639472D01*
X90540000Y-74045757D01*
X90268528Y-73639471D01*
X89810399Y-73333359D01*
X89270000Y-73225867D01*
X88729600Y-73333359D01*
X88271471Y-73639472D01*
X88000000Y-74045757D01*
X87728528Y-73639471D01*
X87270399Y-73333359D01*
X86730000Y-73225867D01*
X86189600Y-73333359D01*
X85731471Y-73639472D01*
X85460000Y-74045757D01*
X85188528Y-73639471D01*
X84730399Y-73333359D01*
X84190000Y-73225867D01*
X83649600Y-73333359D01*
X83191471Y-73639472D01*
X82911447Y-74058557D01*
X82899964Y-74016279D01*
X82566894Y-73585264D01*
X82094235Y-73314519D01*
X81991185Y-73295682D01*
X81777000Y-73418344D01*
X81523000Y-73418344D01*
X81308815Y-73295682D01*
X81205765Y-73314519D01*
X80733106Y-73585264D01*
X80505746Y-73879483D01*
X80458157Y-73640235D01*
X80317809Y-73430191D01*
X80107765Y-73289843D01*
X79860000Y-73240560D01*
X78360000Y-73240560D01*
X78112235Y-73289843D01*
X77902191Y-73430191D01*
X77761843Y-73640235D01*
X77712560Y-73888000D01*
X77712560Y-75888000D01*
X77761843Y-76135765D01*
X77902191Y-76345809D01*
X78112235Y-76486157D01*
X78226020Y-76508790D01*
X78272582Y-76742870D01*
X78469068Y-77036933D01*
X78543294Y-77086529D01*
X102607470Y-101150706D01*
X102657067Y-101224933D01*
X102731293Y-101274529D01*
X102951129Y-101421419D01*
X103298000Y-101490416D01*
X103385556Y-101473000D01*
X130695765Y-101473000D01*
X138303000Y-109080236D01*
X138303001Y-111137763D01*
X138001277Y-111439487D01*
X137938136Y-111122055D01*
X137576769Y-110581231D01*
X137164992Y-110306090D01*
X137158000Y-110270939D01*
X137158000Y-110270935D01*
X137113904Y-110049250D01*
X137113904Y-110049249D01*
X136988329Y-109861314D01*
X136945929Y-109797858D01*
X136882473Y-109755458D01*
X136370544Y-109243530D01*
X136328142Y-109180071D01*
X136076750Y-109012096D01*
X135855065Y-108968000D01*
X135855060Y-108968000D01*
X135780213Y-108953112D01*
X135705366Y-108968000D01*
X125565755Y-108968000D01*
X125667809Y-108899809D01*
X125808157Y-108689765D01*
X125857440Y-108442000D01*
X125857440Y-106442000D01*
X125808157Y-106194235D01*
X125667809Y-105984191D01*
X125457765Y-105843843D01*
X125210000Y-105794560D01*
X123710000Y-105794560D01*
X123462235Y-105843843D01*
X123252191Y-105984191D01*
X123111843Y-106194235D01*
X123067614Y-106416593D01*
X122918529Y-106193471D01*
X122460400Y-105887359D01*
X121920000Y-105779867D01*
X121379601Y-105887359D01*
X120921472Y-106193471D01*
X120650000Y-106599757D01*
X120378529Y-106193471D01*
X119920400Y-105887359D01*
X119380000Y-105779867D01*
X118839601Y-105887359D01*
X118381472Y-106193471D01*
X118101447Y-106612557D01*
X118089964Y-106570279D01*
X117756894Y-106139264D01*
X117284235Y-105868519D01*
X117181185Y-105849682D01*
X116967000Y-105972344D01*
X116967000Y-107315000D01*
X116987000Y-107315000D01*
X116987000Y-107569000D01*
X116967000Y-107569000D01*
X116967000Y-107589000D01*
X116713000Y-107589000D01*
X116713000Y-107569000D01*
X116693000Y-107569000D01*
X116693000Y-107315000D01*
X116713000Y-107315000D01*
X116713000Y-105972344D01*
X116498815Y-105849682D01*
X116395765Y-105868519D01*
X115923106Y-106139264D01*
X115590036Y-106570279D01*
X115578553Y-106612557D01*
X115298529Y-106193471D01*
X114840400Y-105887359D01*
X114300000Y-105779867D01*
X113759601Y-105887359D01*
X113301472Y-106193471D01*
X113030000Y-106599757D01*
X112758529Y-106193471D01*
X112300400Y-105887359D01*
X111760000Y-105779867D01*
X111219601Y-105887359D01*
X110761472Y-106193471D01*
X110490000Y-106599757D01*
X110218529Y-106193471D01*
X109760400Y-105887359D01*
X109220000Y-105779867D01*
X108679601Y-105887359D01*
X108221472Y-106193471D01*
X107950000Y-106599757D01*
X107678529Y-106193471D01*
X107220400Y-105887359D01*
X106680000Y-105779867D01*
X106139601Y-105887359D01*
X105681472Y-106193471D01*
X105410000Y-106599757D01*
X105138529Y-106193471D01*
X104680400Y-105887359D01*
X104140000Y-105779867D01*
X103599601Y-105887359D01*
X103141472Y-106193471D01*
X102870000Y-106599757D01*
X102598529Y-106193471D01*
X102140400Y-105887359D01*
X101600000Y-105779867D01*
X101059601Y-105887359D01*
X100601472Y-106193471D01*
X100330000Y-106599757D01*
X100058529Y-106193471D01*
X99600400Y-105887359D01*
X99060000Y-105779867D01*
X98519601Y-105887359D01*
X98061472Y-106193471D01*
X97790000Y-106599757D01*
X97518529Y-106193471D01*
X97060400Y-105887359D01*
X96520000Y-105779867D01*
X95979601Y-105887359D01*
X95521472Y-106193471D01*
X95250000Y-106599757D01*
X94978529Y-106193471D01*
X94520400Y-105887359D01*
X93980000Y-105779867D01*
X93439601Y-105887359D01*
X92981472Y-106193471D01*
X92710000Y-106599757D01*
X92438529Y-106193471D01*
X91980400Y-105887359D01*
X91440000Y-105779867D01*
X90899601Y-105887359D01*
X90441472Y-106193471D01*
X90170000Y-106599757D01*
X89898529Y-106193471D01*
X89440400Y-105887359D01*
X88900000Y-105779867D01*
X88359601Y-105887359D01*
X87901472Y-106193471D01*
X87630000Y-106599757D01*
X87358529Y-106193471D01*
X86900400Y-105887359D01*
X86360000Y-105779867D01*
X85819601Y-105887359D01*
X85361472Y-106193471D01*
X85055359Y-106651600D01*
X84975000Y-107055593D01*
X84975000Y-107828406D01*
X85055359Y-108232399D01*
X85361471Y-108690528D01*
X85819600Y-108996641D01*
X86360000Y-109104133D01*
X86900399Y-108996641D01*
X87358528Y-108690529D01*
X87630000Y-108284243D01*
X87901471Y-108690528D01*
X88359600Y-108996641D01*
X88900000Y-109104133D01*
X89440399Y-108996641D01*
X89898528Y-108690529D01*
X90170000Y-108284243D01*
X90441471Y-108690528D01*
X90899600Y-108996641D01*
X91440000Y-109104133D01*
X91980399Y-108996641D01*
X92438528Y-108690529D01*
X92710000Y-108284243D01*
X92981471Y-108690528D01*
X93439600Y-108996641D01*
X93980000Y-109104133D01*
X94520399Y-108996641D01*
X94978528Y-108690529D01*
X95250000Y-108284243D01*
X95521471Y-108690528D01*
X95779055Y-108862640D01*
X95804097Y-108988537D01*
X95972072Y-109239929D01*
X96035528Y-109282329D01*
X98997671Y-112244473D01*
X99040071Y-112307929D01*
X99291463Y-112475904D01*
X99513148Y-112520000D01*
X99513152Y-112520000D01*
X99587999Y-112534888D01*
X99662846Y-112520000D01*
X132210560Y-112520000D01*
X132210560Y-112760000D01*
X132259843Y-113007765D01*
X132274700Y-113030000D01*
X132259843Y-113052235D01*
X132210560Y-113300000D01*
X132210560Y-115300000D01*
X132259843Y-115547765D01*
X132279526Y-115577223D01*
X132223000Y-115713690D01*
X132223000Y-116554250D01*
X132381750Y-116713000D01*
X133731000Y-116713000D01*
X133731000Y-116693000D01*
X133985000Y-116693000D01*
X133985000Y-116713000D01*
X136271000Y-116713000D01*
X136271000Y-116693000D01*
X136525000Y-116693000D01*
X136525000Y-116713000D01*
X137868777Y-116713000D01*
X137988124Y-116459566D01*
X137791402Y-115984615D01*
X137420029Y-115583499D01*
X137576769Y-115478769D01*
X137938136Y-114937945D01*
X138065031Y-114300000D01*
X137997042Y-113958194D01*
X139758707Y-112196529D01*
X139832933Y-112146933D01*
X140006001Y-111887918D01*
X140006001Y-128322000D01*
X74878000Y-128322000D01*
X74878000Y-122295593D01*
X84975000Y-122295593D01*
X84975000Y-123068406D01*
X85055359Y-123472399D01*
X85361471Y-123930528D01*
X85819600Y-124236641D01*
X86360000Y-124344133D01*
X86900399Y-124236641D01*
X87358528Y-123930529D01*
X87630000Y-123524243D01*
X87901471Y-123930528D01*
X88359600Y-124236641D01*
X88900000Y-124344133D01*
X89440399Y-124236641D01*
X89898528Y-123930529D01*
X90170000Y-123524243D01*
X90441471Y-123930528D01*
X90899600Y-124236641D01*
X91440000Y-124344133D01*
X91980399Y-124236641D01*
X92438528Y-123930529D01*
X92710000Y-123524243D01*
X92981471Y-123930528D01*
X93439600Y-124236641D01*
X93980000Y-124344133D01*
X94520399Y-124236641D01*
X94978528Y-123930529D01*
X95250000Y-123524243D01*
X95521471Y-123930528D01*
X95979600Y-124236641D01*
X96520000Y-124344133D01*
X97060399Y-124236641D01*
X97518528Y-123930529D01*
X97790000Y-123524243D01*
X98061471Y-123930528D01*
X98519600Y-124236641D01*
X99060000Y-124344133D01*
X99600399Y-124236641D01*
X100058528Y-123930529D01*
X100330000Y-123524243D01*
X100601471Y-123930528D01*
X101059600Y-124236641D01*
X101600000Y-124344133D01*
X102140399Y-124236641D01*
X102598528Y-123930529D01*
X102870000Y-123524243D01*
X103141471Y-123930528D01*
X103599600Y-124236641D01*
X104140000Y-124344133D01*
X104680399Y-124236641D01*
X105138528Y-123930529D01*
X105410000Y-123524243D01*
X105681471Y-123930528D01*
X106139600Y-124236641D01*
X106680000Y-124344133D01*
X107220399Y-124236641D01*
X107678528Y-123930529D01*
X107950000Y-123524243D01*
X108221471Y-123930528D01*
X108679600Y-124236641D01*
X109220000Y-124344133D01*
X109760399Y-124236641D01*
X110218528Y-123930529D01*
X110490000Y-123524243D01*
X110761471Y-123930528D01*
X111219600Y-124236641D01*
X111760000Y-124344133D01*
X112300399Y-124236641D01*
X112758528Y-123930529D01*
X113030000Y-123524243D01*
X113301471Y-123930528D01*
X113759600Y-124236641D01*
X114300000Y-124344133D01*
X114840399Y-124236641D01*
X115298528Y-123930529D01*
X115570000Y-123524243D01*
X115841471Y-123930528D01*
X116299600Y-124236641D01*
X116840000Y-124344133D01*
X117380399Y-124236641D01*
X117838528Y-123930529D01*
X118110000Y-123524243D01*
X118381471Y-123930528D01*
X118839600Y-124236641D01*
X119380000Y-124344133D01*
X119920399Y-124236641D01*
X120378528Y-123930529D01*
X120658553Y-123511443D01*
X120670036Y-123553721D01*
X121003106Y-123984736D01*
X121475765Y-124255481D01*
X121578815Y-124274318D01*
X121793000Y-124151656D01*
X121793000Y-122809000D01*
X121773000Y-122809000D01*
X121773000Y-122555000D01*
X121793000Y-122555000D01*
X121793000Y-121212344D01*
X122047000Y-121212344D01*
X122047000Y-122555000D01*
X122067000Y-122555000D01*
X122067000Y-122809000D01*
X122047000Y-122809000D01*
X122047000Y-124151656D01*
X122261185Y-124274318D01*
X122364235Y-124255481D01*
X122836894Y-123984736D01*
X123064254Y-123690517D01*
X123111843Y-123929765D01*
X123252191Y-124139809D01*
X123462235Y-124280157D01*
X123710000Y-124329440D01*
X125210000Y-124329440D01*
X125457765Y-124280157D01*
X125667809Y-124139809D01*
X125808157Y-123929765D01*
X125857440Y-123682000D01*
X125857440Y-121682000D01*
X125808157Y-121434235D01*
X125667809Y-121224191D01*
X125457765Y-121083843D01*
X125210000Y-121034560D01*
X123710000Y-121034560D01*
X123462235Y-121083843D01*
X123252191Y-121224191D01*
X123111843Y-121434235D01*
X123064254Y-121673483D01*
X122836894Y-121379264D01*
X122364235Y-121108519D01*
X122261185Y-121089682D01*
X122047000Y-121212344D01*
X121793000Y-121212344D01*
X121578815Y-121089682D01*
X121475765Y-121108519D01*
X121003106Y-121379264D01*
X120670036Y-121810279D01*
X120658553Y-121852557D01*
X120378529Y-121433471D01*
X119920400Y-121127359D01*
X119380000Y-121019867D01*
X118839601Y-121127359D01*
X118381472Y-121433471D01*
X118110000Y-121839757D01*
X117838529Y-121433471D01*
X117380400Y-121127359D01*
X116840000Y-121019867D01*
X116299601Y-121127359D01*
X115841472Y-121433471D01*
X115570000Y-121839757D01*
X115298529Y-121433471D01*
X114840400Y-121127359D01*
X114300000Y-121019867D01*
X113759601Y-121127359D01*
X113301472Y-121433471D01*
X113030000Y-121839757D01*
X112758529Y-121433471D01*
X112300400Y-121127359D01*
X111760000Y-121019867D01*
X111219601Y-121127359D01*
X110761472Y-121433471D01*
X110490000Y-121839757D01*
X110218529Y-121433471D01*
X109760400Y-121127359D01*
X109220000Y-121019867D01*
X108679601Y-121127359D01*
X108221472Y-121433471D01*
X107950000Y-121839757D01*
X107678529Y-121433471D01*
X107220400Y-121127359D01*
X106680000Y-121019867D01*
X106139601Y-121127359D01*
X105681472Y-121433471D01*
X105410000Y-121839757D01*
X105138529Y-121433471D01*
X104680400Y-121127359D01*
X104140000Y-121019867D01*
X103599601Y-121127359D01*
X103141472Y-121433471D01*
X102870000Y-121839757D01*
X102598529Y-121433471D01*
X102140400Y-121127359D01*
X101600000Y-121019867D01*
X101059601Y-121127359D01*
X100601472Y-121433471D01*
X100330000Y-121839757D01*
X100058529Y-121433471D01*
X99600400Y-121127359D01*
X99060000Y-121019867D01*
X98519601Y-121127359D01*
X98061472Y-121433471D01*
X97790000Y-121839757D01*
X97518529Y-121433471D01*
X97060400Y-121127359D01*
X96520000Y-121019867D01*
X95979601Y-121127359D01*
X95521472Y-121433471D01*
X95250000Y-121839757D01*
X94978529Y-121433471D01*
X94520400Y-121127359D01*
X93980000Y-121019867D01*
X93439601Y-121127359D01*
X92981472Y-121433471D01*
X92710000Y-121839757D01*
X92438529Y-121433471D01*
X91980400Y-121127359D01*
X91440000Y-121019867D01*
X90899601Y-121127359D01*
X90441472Y-121433471D01*
X90170000Y-121839757D01*
X89898529Y-121433471D01*
X89440400Y-121127359D01*
X88900000Y-121019867D01*
X88359601Y-121127359D01*
X87901472Y-121433471D01*
X87630000Y-121839757D01*
X87358529Y-121433471D01*
X86900400Y-121127359D01*
X86360000Y-121019867D01*
X85819601Y-121127359D01*
X85361472Y-121433471D01*
X85055359Y-121891600D01*
X84975000Y-122295593D01*
X74878000Y-122295593D01*
X74878000Y-117125750D01*
X132223000Y-117125750D01*
X132223000Y-117966310D01*
X132319673Y-118199699D01*
X132498302Y-118378327D01*
X132731691Y-118475000D01*
X133572250Y-118475000D01*
X133731000Y-118316250D01*
X133731000Y-116967000D01*
X133985000Y-116967000D01*
X133985000Y-118316250D01*
X134143750Y-118475000D01*
X134984309Y-118475000D01*
X135217698Y-118378327D01*
X135396327Y-118199699D01*
X135419568Y-118143590D01*
X135438006Y-118163505D01*
X136017565Y-118430133D01*
X136271000Y-118311319D01*
X136271000Y-116967000D01*
X136525000Y-116967000D01*
X136525000Y-118311319D01*
X136778435Y-118430133D01*
X137357994Y-118163505D01*
X137791402Y-117695385D01*
X137988124Y-117220434D01*
X137868777Y-116967000D01*
X136525000Y-116967000D01*
X136271000Y-116967000D01*
X133985000Y-116967000D01*
X133731000Y-116967000D01*
X132381750Y-116967000D01*
X132223000Y-117125750D01*
X74878000Y-117125750D01*
X74878000Y-96748000D01*
X77712560Y-96748000D01*
X77712560Y-98748000D01*
X77761843Y-98995765D01*
X77902191Y-99205809D01*
X78112235Y-99346157D01*
X78360000Y-99395440D01*
X79860000Y-99395440D01*
X80107765Y-99346157D01*
X80317809Y-99205809D01*
X80458157Y-98995765D01*
X80502386Y-98773407D01*
X80651472Y-98996529D01*
X81109601Y-99302641D01*
X81650000Y-99410133D01*
X82190400Y-99302641D01*
X82648529Y-98996529D01*
X82920000Y-98590243D01*
X83191472Y-98996529D01*
X83649601Y-99302641D01*
X84190000Y-99410133D01*
X84730400Y-99302641D01*
X85188529Y-98996529D01*
X85460000Y-98590243D01*
X85731472Y-98996529D01*
X86189601Y-99302641D01*
X86730000Y-99410133D01*
X87270400Y-99302641D01*
X87728529Y-98996529D01*
X88000000Y-98590243D01*
X88271472Y-98996529D01*
X88729601Y-99302641D01*
X89270000Y-99410133D01*
X89810400Y-99302641D01*
X90268529Y-98996529D01*
X90540000Y-98590243D01*
X90811472Y-98996529D01*
X91269601Y-99302641D01*
X91810000Y-99410133D01*
X92350400Y-99302641D01*
X92808529Y-98996529D01*
X93080000Y-98590243D01*
X93351472Y-98996529D01*
X93809601Y-99302641D01*
X94350000Y-99410133D01*
X94890400Y-99302641D01*
X95348529Y-98996529D01*
X95620000Y-98590243D01*
X95891472Y-98996529D01*
X96349601Y-99302641D01*
X96890000Y-99410133D01*
X97430400Y-99302641D01*
X97888529Y-98996529D01*
X98194641Y-98538399D01*
X98275000Y-98134406D01*
X98275000Y-97361593D01*
X98194641Y-96957600D01*
X97888528Y-96499471D01*
X97430399Y-96193359D01*
X96890000Y-96085867D01*
X96349600Y-96193359D01*
X95891471Y-96499472D01*
X95620000Y-96905757D01*
X95348528Y-96499471D01*
X94890399Y-96193359D01*
X94350000Y-96085867D01*
X93809600Y-96193359D01*
X93351471Y-96499472D01*
X93080000Y-96905757D01*
X92808528Y-96499471D01*
X92350399Y-96193359D01*
X91810000Y-96085867D01*
X91269600Y-96193359D01*
X90811471Y-96499472D01*
X90540000Y-96905757D01*
X90268528Y-96499471D01*
X89810399Y-96193359D01*
X89270000Y-96085867D01*
X88729600Y-96193359D01*
X88271471Y-96499472D01*
X88000000Y-96905757D01*
X87728528Y-96499471D01*
X87270399Y-96193359D01*
X86730000Y-96085867D01*
X86189600Y-96193359D01*
X85731471Y-96499472D01*
X85460000Y-96905757D01*
X85188528Y-96499471D01*
X84730399Y-96193359D01*
X84190000Y-96085867D01*
X83649600Y-96193359D01*
X83191471Y-96499472D01*
X82920000Y-96905757D01*
X82648528Y-96499471D01*
X82190399Y-96193359D01*
X81650000Y-96085867D01*
X81109600Y-96193359D01*
X80651471Y-96499472D01*
X80502386Y-96722593D01*
X80458157Y-96500235D01*
X80317809Y-96290191D01*
X80107765Y-96149843D01*
X79860000Y-96100560D01*
X78360000Y-96100560D01*
X78112235Y-96149843D01*
X77902191Y-96290191D01*
X77761843Y-96500235D01*
X77712560Y-96748000D01*
X74878000Y-96748000D01*
X74878000Y-66748000D01*
X77712560Y-66748000D01*
X77712560Y-68748000D01*
X77761843Y-68995765D01*
X77902191Y-69205809D01*
X78112235Y-69346157D01*
X78360000Y-69395440D01*
X79860000Y-69395440D01*
X80107765Y-69346157D01*
X80317809Y-69205809D01*
X80458157Y-68995765D01*
X80505746Y-68756517D01*
X80733106Y-69050736D01*
X81205765Y-69321481D01*
X81308815Y-69340318D01*
X81523000Y-69217656D01*
X81523000Y-67875000D01*
X81503000Y-67875000D01*
X81503000Y-67621000D01*
X81523000Y-67621000D01*
X81523000Y-66278344D01*
X81777000Y-66278344D01*
X81777000Y-67621000D01*
X81797000Y-67621000D01*
X81797000Y-67875000D01*
X81777000Y-67875000D01*
X81777000Y-69217656D01*
X81991185Y-69340318D01*
X82094235Y-69321481D01*
X82566894Y-69050736D01*
X82899964Y-68619721D01*
X82911447Y-68577443D01*
X83191472Y-68996529D01*
X83649601Y-69302641D01*
X84190000Y-69410133D01*
X84730400Y-69302641D01*
X85188529Y-68996529D01*
X85460000Y-68590243D01*
X85731472Y-68996529D01*
X86189601Y-69302641D01*
X86730000Y-69410133D01*
X87270400Y-69302641D01*
X87728529Y-68996529D01*
X88000000Y-68590243D01*
X88271472Y-68996529D01*
X88729601Y-69302641D01*
X89270000Y-69410133D01*
X89810400Y-69302641D01*
X90268529Y-68996529D01*
X90540000Y-68590243D01*
X90811472Y-68996529D01*
X91269601Y-69302641D01*
X91810000Y-69410133D01*
X92350400Y-69302641D01*
X92808529Y-68996529D01*
X93080000Y-68590243D01*
X93351472Y-68996529D01*
X93809601Y-69302641D01*
X94350000Y-69410133D01*
X94890400Y-69302641D01*
X95348529Y-68996529D01*
X95620000Y-68590243D01*
X95891472Y-68996529D01*
X96349601Y-69302641D01*
X96890000Y-69410133D01*
X97430400Y-69302641D01*
X97888529Y-68996529D01*
X98194641Y-68538399D01*
X98275000Y-68134406D01*
X98275000Y-67361593D01*
X98194641Y-66957600D01*
X98054591Y-66748000D01*
X114712560Y-66748000D01*
X114712560Y-68748000D01*
X114761843Y-68995765D01*
X114902191Y-69205809D01*
X115112235Y-69346157D01*
X115360000Y-69395440D01*
X116860000Y-69395440D01*
X117107765Y-69346157D01*
X117317809Y-69205809D01*
X117458157Y-68995765D01*
X117502386Y-68773407D01*
X117651472Y-68996529D01*
X118109601Y-69302641D01*
X118650000Y-69410133D01*
X119190400Y-69302641D01*
X119648529Y-68996529D01*
X119920000Y-68590243D01*
X120191472Y-68996529D01*
X120649601Y-69302641D01*
X121190000Y-69410133D01*
X121730400Y-69302641D01*
X122188529Y-68996529D01*
X122460000Y-68590243D01*
X122731472Y-68996529D01*
X123189601Y-69302641D01*
X123730000Y-69410133D01*
X124270400Y-69302641D01*
X124728529Y-68996529D01*
X125000000Y-68590243D01*
X125271472Y-68996529D01*
X125729601Y-69302641D01*
X126270000Y-69410133D01*
X126810400Y-69302641D01*
X127268529Y-68996529D01*
X127540000Y-68590243D01*
X127811472Y-68996529D01*
X128269601Y-69302641D01*
X128810000Y-69410133D01*
X129350400Y-69302641D01*
X129808529Y-68996529D01*
X130080000Y-68590243D01*
X130351472Y-68996529D01*
X130809601Y-69302641D01*
X131350000Y-69410133D01*
X131890400Y-69302641D01*
X132348529Y-68996529D01*
X132620000Y-68590243D01*
X132891472Y-68996529D01*
X133349601Y-69302641D01*
X133890000Y-69410133D01*
X134430400Y-69302641D01*
X134888529Y-68996529D01*
X135194641Y-68538399D01*
X135275000Y-68134406D01*
X135275000Y-67361593D01*
X135194641Y-66957600D01*
X134888528Y-66499471D01*
X134430399Y-66193359D01*
X133890000Y-66085867D01*
X133349600Y-66193359D01*
X132891471Y-66499472D01*
X132620000Y-66905757D01*
X132348528Y-66499471D01*
X131890399Y-66193359D01*
X131350000Y-66085867D01*
X130809600Y-66193359D01*
X130351471Y-66499472D01*
X130080000Y-66905757D01*
X129808528Y-66499471D01*
X129350399Y-66193359D01*
X128810000Y-66085867D01*
X128269600Y-66193359D01*
X127811471Y-66499472D01*
X127540000Y-66905757D01*
X127268528Y-66499471D01*
X126810399Y-66193359D01*
X126270000Y-66085867D01*
X125729600Y-66193359D01*
X125271471Y-66499472D01*
X125000000Y-66905757D01*
X124728528Y-66499471D01*
X124270399Y-66193359D01*
X123730000Y-66085867D01*
X123189600Y-66193359D01*
X122731471Y-66499472D01*
X122460000Y-66905757D01*
X122188528Y-66499471D01*
X121730399Y-66193359D01*
X121190000Y-66085867D01*
X120649600Y-66193359D01*
X120191471Y-66499472D01*
X119920000Y-66905757D01*
X119648528Y-66499471D01*
X119190399Y-66193359D01*
X118650000Y-66085867D01*
X118109600Y-66193359D01*
X117651471Y-66499472D01*
X117502386Y-66722593D01*
X117458157Y-66500235D01*
X117317809Y-66290191D01*
X117107765Y-66149843D01*
X116860000Y-66100560D01*
X115360000Y-66100560D01*
X115112235Y-66149843D01*
X114902191Y-66290191D01*
X114761843Y-66500235D01*
X114712560Y-66748000D01*
X98054591Y-66748000D01*
X97888528Y-66499471D01*
X97430399Y-66193359D01*
X96890000Y-66085867D01*
X96349600Y-66193359D01*
X95891471Y-66499472D01*
X95620000Y-66905757D01*
X95348528Y-66499471D01*
X94890399Y-66193359D01*
X94350000Y-66085867D01*
X93809600Y-66193359D01*
X93351471Y-66499472D01*
X93080000Y-66905757D01*
X92808528Y-66499471D01*
X92350399Y-66193359D01*
X91810000Y-66085867D01*
X91269600Y-66193359D01*
X90811471Y-66499472D01*
X90540000Y-66905757D01*
X90268528Y-66499471D01*
X89810399Y-66193359D01*
X89270000Y-66085867D01*
X88729600Y-66193359D01*
X88271471Y-66499472D01*
X88000000Y-66905757D01*
X87728528Y-66499471D01*
X87270399Y-66193359D01*
X86730000Y-66085867D01*
X86189600Y-66193359D01*
X85731471Y-66499472D01*
X85460000Y-66905757D01*
X85188528Y-66499471D01*
X84730399Y-66193359D01*
X84190000Y-66085867D01*
X83649600Y-66193359D01*
X83191471Y-66499472D01*
X82911447Y-66918557D01*
X82899964Y-66876279D01*
X82566894Y-66445264D01*
X82094235Y-66174519D01*
X81991185Y-66155682D01*
X81777000Y-66278344D01*
X81523000Y-66278344D01*
X81308815Y-66155682D01*
X81205765Y-66174519D01*
X80733106Y-66445264D01*
X80505746Y-66739483D01*
X80458157Y-66500235D01*
X80317809Y-66290191D01*
X80107765Y-66149843D01*
X79860000Y-66100560D01*
X78360000Y-66100560D01*
X78112235Y-66149843D01*
X77902191Y-66290191D01*
X77761843Y-66500235D01*
X77712560Y-66748000D01*
X74878000Y-66748000D01*
X74878000Y-43888000D01*
X77712560Y-43888000D01*
X77712560Y-45888000D01*
X77761843Y-46135765D01*
X77902191Y-46345809D01*
X78112235Y-46486157D01*
X78360000Y-46535440D01*
X79860000Y-46535440D01*
X80107765Y-46486157D01*
X80317809Y-46345809D01*
X80458157Y-46135765D01*
X80502386Y-45913407D01*
X80651472Y-46136529D01*
X81109601Y-46442641D01*
X81650000Y-46550133D01*
X82190400Y-46442641D01*
X82648529Y-46136529D01*
X82920000Y-45730243D01*
X83191472Y-46136529D01*
X83649601Y-46442641D01*
X84190000Y-46550133D01*
X84730400Y-46442641D01*
X85188529Y-46136529D01*
X85460000Y-45730243D01*
X85731472Y-46136529D01*
X86189601Y-46442641D01*
X86730000Y-46550133D01*
X87270400Y-46442641D01*
X87728529Y-46136529D01*
X88000000Y-45730243D01*
X88271472Y-46136529D01*
X88729601Y-46442641D01*
X89270000Y-46550133D01*
X89810400Y-46442641D01*
X90268529Y-46136529D01*
X90540000Y-45730243D01*
X90811472Y-46136529D01*
X91269601Y-46442641D01*
X91810000Y-46550133D01*
X92350400Y-46442641D01*
X92808529Y-46136529D01*
X93080000Y-45730243D01*
X93351472Y-46136529D01*
X93809601Y-46442641D01*
X94350000Y-46550133D01*
X94890400Y-46442641D01*
X95348529Y-46136529D01*
X95620000Y-45730243D01*
X95891472Y-46136529D01*
X96349601Y-46442641D01*
X96890000Y-46550133D01*
X97430400Y-46442641D01*
X97888529Y-46136529D01*
X98194641Y-45678399D01*
X98275000Y-45274406D01*
X98275000Y-44501593D01*
X98194641Y-44097600D01*
X98054591Y-43888000D01*
X114712560Y-43888000D01*
X114712560Y-45888000D01*
X114761843Y-46135765D01*
X114902191Y-46345809D01*
X115112235Y-46486157D01*
X115360000Y-46535440D01*
X116860000Y-46535440D01*
X117107765Y-46486157D01*
X117317809Y-46345809D01*
X117458157Y-46135765D01*
X117505746Y-45896517D01*
X117733106Y-46190736D01*
X118205765Y-46461481D01*
X118308815Y-46480318D01*
X118523000Y-46357656D01*
X118523000Y-45015000D01*
X118503000Y-45015000D01*
X118503000Y-44761000D01*
X118523000Y-44761000D01*
X118523000Y-43418344D01*
X118777000Y-43418344D01*
X118777000Y-44761000D01*
X118797000Y-44761000D01*
X118797000Y-45015000D01*
X118777000Y-45015000D01*
X118777000Y-46357656D01*
X118991185Y-46480318D01*
X119094235Y-46461481D01*
X119566894Y-46190736D01*
X119899964Y-45759721D01*
X119911447Y-45717443D01*
X120191472Y-46136529D01*
X120649601Y-46442641D01*
X121190000Y-46550133D01*
X121730400Y-46442641D01*
X122188529Y-46136529D01*
X122460000Y-45730243D01*
X122731472Y-46136529D01*
X123189601Y-46442641D01*
X123730000Y-46550133D01*
X124270400Y-46442641D01*
X124728529Y-46136529D01*
X125000000Y-45730243D01*
X125271472Y-46136529D01*
X125729601Y-46442641D01*
X126270000Y-46550133D01*
X126810400Y-46442641D01*
X127268529Y-46136529D01*
X127540000Y-45730243D01*
X127811472Y-46136529D01*
X128269601Y-46442641D01*
X128810000Y-46550133D01*
X129350400Y-46442641D01*
X129808529Y-46136529D01*
X130080000Y-45730243D01*
X130351472Y-46136529D01*
X130809601Y-46442641D01*
X131350000Y-46550133D01*
X131890400Y-46442641D01*
X132348529Y-46136529D01*
X132620000Y-45730243D01*
X132891472Y-46136529D01*
X133349601Y-46442641D01*
X133890000Y-46550133D01*
X134430400Y-46442641D01*
X134888529Y-46136529D01*
X135194641Y-45678399D01*
X135275000Y-45274406D01*
X135275000Y-44501593D01*
X135194641Y-44097600D01*
X134888528Y-43639471D01*
X134430399Y-43333359D01*
X133890000Y-43225867D01*
X133349600Y-43333359D01*
X132891471Y-43639472D01*
X132620000Y-44045757D01*
X132348528Y-43639471D01*
X131890399Y-43333359D01*
X131350000Y-43225867D01*
X130809600Y-43333359D01*
X130351471Y-43639472D01*
X130080000Y-44045757D01*
X129808528Y-43639471D01*
X129350399Y-43333359D01*
X128810000Y-43225867D01*
X128269600Y-43333359D01*
X127811471Y-43639472D01*
X127540000Y-44045757D01*
X127268528Y-43639471D01*
X126810399Y-43333359D01*
X126270000Y-43225867D01*
X125729600Y-43333359D01*
X125271471Y-43639472D01*
X125000000Y-44045757D01*
X124728528Y-43639471D01*
X124270399Y-43333359D01*
X123730000Y-43225867D01*
X123189600Y-43333359D01*
X122731471Y-43639472D01*
X122460000Y-44045757D01*
X122188528Y-43639471D01*
X121730399Y-43333359D01*
X121190000Y-43225867D01*
X120649600Y-43333359D01*
X120191471Y-43639472D01*
X119911447Y-44058557D01*
X119899964Y-44016279D01*
X119566894Y-43585264D01*
X119094235Y-43314519D01*
X118991185Y-43295682D01*
X118777000Y-43418344D01*
X118523000Y-43418344D01*
X118308815Y-43295682D01*
X118205765Y-43314519D01*
X117733106Y-43585264D01*
X117505746Y-43879483D01*
X117458157Y-43640235D01*
X117317809Y-43430191D01*
X117107765Y-43289843D01*
X116860000Y-43240560D01*
X115360000Y-43240560D01*
X115112235Y-43289843D01*
X114902191Y-43430191D01*
X114761843Y-43640235D01*
X114712560Y-43888000D01*
X98054591Y-43888000D01*
X97888528Y-43639471D01*
X97430399Y-43333359D01*
X96890000Y-43225867D01*
X96349600Y-43333359D01*
X95891471Y-43639472D01*
X95620000Y-44045757D01*
X95348528Y-43639471D01*
X94890399Y-43333359D01*
X94350000Y-43225867D01*
X93809600Y-43333359D01*
X93351471Y-43639472D01*
X93080000Y-44045757D01*
X92808528Y-43639471D01*
X92350399Y-43333359D01*
X91810000Y-43225867D01*
X91269600Y-43333359D01*
X90811471Y-43639472D01*
X90540000Y-44045757D01*
X90268528Y-43639471D01*
X89810399Y-43333359D01*
X89270000Y-43225867D01*
X88729600Y-43333359D01*
X88271471Y-43639472D01*
X88000000Y-44045757D01*
X87728528Y-43639471D01*
X87270399Y-43333359D01*
X86730000Y-43225867D01*
X86189600Y-43333359D01*
X85731471Y-43639472D01*
X85460000Y-44045757D01*
X85188528Y-43639471D01*
X84730399Y-43333359D01*
X84190000Y-43225867D01*
X83649600Y-43333359D01*
X83191471Y-43639472D01*
X82920000Y-44045757D01*
X82648528Y-43639471D01*
X82190399Y-43333359D01*
X81650000Y-43225867D01*
X81109600Y-43333359D01*
X80651471Y-43639472D01*
X80502386Y-43862593D01*
X80458157Y-43640235D01*
X80317809Y-43430191D01*
X80107765Y-43289843D01*
X79860000Y-43240560D01*
X78360000Y-43240560D01*
X78112235Y-43289843D01*
X77902191Y-43430191D01*
X77761843Y-43640235D01*
X77712560Y-43888000D01*
X74878000Y-43888000D01*
X74878000Y-42366000D01*
X140006000Y-42366000D01*
X140006001Y-108330082D01*
M02*
