M48
;DRILL file {KiCad 5.0.2+dfsg1-1} date zo 12 apr 2020 11:00:35 CEST
;FORMAT={-:-/ absolute / inch / decimal}
FMAT,2
INCH,TZ
T1C0.0394
%
G90
G05
T1
X3.4Y-4.83
X3.5Y-4.83
X3.6Y-4.83
X3.7Y-4.83
X3.8Y-4.83
X3.9Y-4.83
X4.Y-4.83
X4.1Y-4.83
X4.2Y-4.83
X4.3Y-4.83
X4.4Y-4.83
X4.5Y-4.83
X4.6Y-4.83
X4.7Y-4.83
X4.8Y-4.83
X4.9Y-4.83
X3.1146Y-1.7672
X3.2146Y-1.7672
X3.3146Y-1.7672
X3.4146Y-1.7672
X3.5146Y-1.7672
X3.6146Y-1.7672
X3.7146Y-1.7672
X3.8146Y-1.7672
X3.1146Y-2.6672
X3.2146Y-2.6672
X3.3146Y-2.6672
X3.4146Y-2.6672
X3.5146Y-2.6672
X3.6146Y-2.6672
X3.7146Y-2.6672
X3.8146Y-2.6672
X4.36Y-3.23
X4.36Y-3.33
X4.36Y-3.43
X4.36Y-3.53
X4.36Y-3.63
X4.36Y-3.73
X4.5713Y-1.7672
X4.6713Y-1.7672
X4.7713Y-1.7672
X4.8713Y-1.7672
X4.9713Y-1.7672
X5.0713Y-1.7672
X5.1713Y-1.7672
X5.2713Y-1.7672
X3.1146Y-2.9483
X3.2146Y-2.9483
X3.3146Y-2.9483
X3.4146Y-2.9483
X3.5146Y-2.9483
X3.6146Y-2.9483
X3.7146Y-2.9483
X3.8146Y-2.9483
X5.27Y-4.4
X5.37Y-4.4
X4.5713Y-2.6672
X4.6713Y-2.6672
X4.7713Y-2.6672
X4.8713Y-2.6672
X4.9713Y-2.6672
X5.0713Y-2.6672
X5.1713Y-2.6672
X5.2713Y-2.6672
X3.1146Y-3.8483
X3.2146Y-3.8483
X3.3146Y-3.8483
X3.4146Y-3.8483
X3.5146Y-3.8483
X3.6146Y-3.8483
X3.7146Y-3.8483
X3.8146Y-3.8483
X5.27Y-4.6
X5.37Y-4.6
X5.27Y-4.5
X5.37Y-4.5
X5.36Y-3.23
X5.36Y-3.33
X5.36Y-3.43
X5.36Y-3.53
X5.36Y-3.63
X5.36Y-3.73
X3.4Y-4.23
X3.5Y-4.23
X3.6Y-4.23
X3.7Y-4.23
X3.8Y-4.23
X3.9Y-4.23
X4.Y-4.23
X4.1Y-4.23
X4.2Y-4.23
X4.3Y-4.23
X4.4Y-4.23
X4.5Y-4.23
X4.6Y-4.23
X4.7Y-4.23
X4.8Y-4.23
X4.9Y-4.23
T0
M30
