G04 #@! TF.GenerationSoftware,KiCad,Pcbnew,(6.0.2-0)*
G04 #@! TF.CreationDate,2022-07-16T10:45:31+02:00*
G04 #@! TF.ProjectId,Crazyflie contol board,4372617a-7966-46c6-9965-20636f6e746f,2.2*
G04 #@! TF.SameCoordinates,Original*
G04 #@! TF.FileFunction,Soldermask,Bot*
G04 #@! TF.FilePolarity,Negative*
%FSLAX46Y46*%
G04 Gerber Fmt 4.6, Leading zero omitted, Abs format (unit mm)*
G04 Created by KiCad (PCBNEW (6.0.2-0)) date 2022-07-16 10:45:31*
%MOMM*%
%LPD*%
G01*
G04 APERTURE LIST*
G04 Aperture macros list*
%AMRoundRect*
0 Rectangle with rounded corners*
0 $1 Rounding radius*
0 $2 $3 $4 $5 $6 $7 $8 $9 X,Y pos of 4 corners*
0 Add a 4 corners polygon primitive as box body*
4,1,4,$2,$3,$4,$5,$6,$7,$8,$9,$2,$3,0*
0 Add four circle primitives for the rounded corners*
1,1,$1+$1,$2,$3*
1,1,$1+$1,$4,$5*
1,1,$1+$1,$6,$7*
1,1,$1+$1,$8,$9*
0 Add four rect primitives between the rounded corners*
20,1,$1+$1,$2,$3,$4,$5,0*
20,1,$1+$1,$4,$5,$6,$7,0*
20,1,$1+$1,$6,$7,$8,$9,0*
20,1,$1+$1,$8,$9,$2,$3,0*%
G04 Aperture macros list end*
%ADD10C,0.523240*%
%ADD11RoundRect,0.071120X0.599440X-0.800100X0.599440X0.800100X-0.599440X0.800100X-0.599440X-0.800100X0*%
%ADD12O,1.341120X1.742440*%
%ADD13RoundRect,0.071120X0.350520X0.500380X-0.350520X0.500380X-0.350520X-0.500380X0.350520X-0.500380X0*%
%ADD14RoundRect,0.071120X-0.350520X-0.500380X0.350520X-0.500380X0.350520X0.500380X-0.350520X0.500380X0*%
%ADD15RoundRect,0.071120X0.500380X0.299720X-0.500380X0.299720X-0.500380X-0.299720X0.500380X-0.299720X0*%
%ADD16RoundRect,0.071120X0.317500X0.571500X-0.317500X0.571500X-0.317500X-0.571500X0.317500X-0.571500X0*%
%ADD17RoundRect,0.071120X-0.317500X-0.571500X0.317500X-0.571500X0.317500X0.571500X-0.317500X0.571500X0*%
%ADD18RoundRect,0.071120X-0.571500X0.317500X-0.571500X-0.317500X0.571500X-0.317500X0.571500X0.317500X0*%
%ADD19RoundRect,0.071120X0.571500X-0.317500X0.571500X0.317500X-0.571500X0.317500X-0.571500X-0.317500X0*%
%ADD20RoundRect,0.071120X0.699770X-0.500380X0.699770X0.500380X-0.699770X0.500380X-0.699770X-0.500380X0*%
%ADD21O,1.541780X1.143000*%
%ADD22RoundRect,0.071120X0.199390X-0.254000X0.199390X0.254000X-0.199390X0.254000X-0.199390X-0.254000X0*%
%ADD23RoundRect,0.071120X-0.900430X-0.949960X0.900430X-0.949960X0.900430X0.949960X-0.900430X0.949960X0*%
%ADD24RoundRect,0.071120X-0.949960X-0.949960X0.949960X-0.949960X0.949960X0.949960X-0.949960X0.949960X0*%
%ADD25RoundRect,0.071120X-0.900430X-0.549910X0.900430X-0.549910X0.900430X0.549910X-0.900430X0.549910X0*%
%ADD26RoundRect,0.071120X-1.050290X-0.800100X1.050290X-0.800100X1.050290X0.800100X-1.050290X0.800100X0*%
%ADD27RoundRect,0.071120X-0.599440X-0.949960X0.599440X-0.949960X0.599440X0.949960X-0.599440X0.949960X0*%
%ADD28RoundRect,0.071120X-0.199390X-0.699770X0.199390X-0.699770X0.199390X0.699770X-0.199390X0.699770X0*%
%ADD29O,1.742440X1.341120*%
%ADD30RoundRect,0.071120X-0.457200X-0.457200X0.457200X-0.457200X0.457200X0.457200X-0.457200X0.457200X0*%
%ADD31RoundRect,0.071120X-0.457200X0.457200X-0.457200X-0.457200X0.457200X-0.457200X0.457200X0.457200X0*%
%ADD32RoundRect,0.071120X0.000000X0.563960X-0.563960X0.000000X0.000000X-0.563960X0.563960X0.000000X0*%
%ADD33O,2.642240X1.042240*%
%ADD34O,1.042240X2.642240*%
%ADD35RoundRect,0.071120X3.000000X3.000000X-3.000000X3.000000X-3.000000X-3.000000X3.000000X-3.000000X0*%
%ADD36RoundRect,0.071120X0.400000X-0.300000X0.400000X0.300000X-0.400000X0.300000X-0.400000X-0.300000X0*%
%ADD37RoundRect,0.071120X-0.150000X0.400000X-0.150000X-0.400000X0.150000X-0.400000X0.150000X0.400000X0*%
%ADD38RoundRect,0.071120X-0.425000X0.150000X-0.425000X-0.150000X0.425000X-0.150000X0.425000X0.150000X0*%
%ADD39C,0.522240*%
%ADD40RoundRect,0.071120X-1.275000X1.275000X-1.275000X-1.275000X1.275000X-1.275000X1.275000X1.275000X0*%
%ADD41C,1.500000*%
G04 APERTURE END LIST*
D10*
X149499320Y-99504500D03*
X148498560Y-99504500D03*
X148498560Y-98503740D03*
X149499320Y-98503740D03*
X148998940Y-99004120D03*
D11*
X152699720Y-99250500D03*
D12*
X152699720Y-97350580D03*
D13*
X150947120Y-90271600D03*
X149994620Y-90271600D03*
X149042120Y-90271600D03*
X149042120Y-87731600D03*
X149994620Y-87731600D03*
X150947120Y-87731600D03*
D14*
X151046180Y-108734860D03*
X151998680Y-108734860D03*
X152951180Y-108734860D03*
X152951180Y-111274860D03*
X151998680Y-111274860D03*
X151046180Y-111274860D03*
D15*
X146598640Y-106004360D03*
X144399000Y-106004360D03*
X146598640Y-109004100D03*
X144399000Y-109004100D03*
X146598640Y-112003840D03*
X144399000Y-112003840D03*
X146598640Y-115003580D03*
X144399000Y-115003580D03*
D16*
X153761440Y-89001600D03*
X152237440Y-89001600D03*
D17*
X152237440Y-87503000D03*
X153761440Y-87503000D03*
D16*
X150756620Y-92001340D03*
X149232620Y-92001340D03*
X147761960Y-90002360D03*
X146237960Y-90002360D03*
D17*
X150738840Y-113502440D03*
X152262840Y-113502440D03*
X128038860Y-93202760D03*
X129562860Y-93202760D03*
D18*
X149499320Y-113243360D03*
X149499320Y-114767360D03*
D16*
X153261060Y-107005120D03*
X151737060Y-107005120D03*
D19*
X150898860Y-99961700D03*
X150898860Y-98437700D03*
D18*
X153830020Y-113240820D03*
X153830020Y-114764820D03*
X148699220Y-102440740D03*
X148699220Y-103964740D03*
D19*
X130200000Y-96512000D03*
X130200000Y-94988000D03*
D17*
X146738340Y-92003880D03*
X148262340Y-92003880D03*
X146237960Y-88503760D03*
X147761960Y-88503760D03*
D16*
X149961600Y-93502480D03*
X148437600Y-93502480D03*
D17*
X152237440Y-90502740D03*
X153761440Y-90502740D03*
D18*
X149499320Y-110744000D03*
X149499320Y-112268000D03*
X148000720Y-108242100D03*
X148000720Y-109766100D03*
D19*
X149499320Y-109766100D03*
X149499320Y-108242100D03*
X147998180Y-112268000D03*
X147998180Y-110744000D03*
D17*
X149237700Y-107005120D03*
X150761700Y-107005120D03*
D16*
X151361140Y-101201220D03*
X149837140Y-101201220D03*
D20*
X144663160Y-113502440D03*
D21*
X146334480Y-113502440D03*
D20*
X144663160Y-110502700D03*
D21*
X146334480Y-110502700D03*
D20*
X144663160Y-107502960D03*
D21*
X146334480Y-107502960D03*
D20*
X144663160Y-104503220D03*
D21*
X146334480Y-104503220D03*
D19*
X150098760Y-103964740D03*
X150098760Y-102440740D03*
D22*
X131950460Y-93253560D03*
X131300220Y-93253560D03*
X130649980Y-93253560D03*
X130649980Y-91353640D03*
X131300220Y-91353640D03*
X131950460Y-91353640D03*
D23*
X125498860Y-86202520D03*
D24*
X130698240Y-86202520D03*
D25*
X133449060Y-86601300D03*
D26*
X126400560Y-88752680D03*
X132598160Y-88752680D03*
D27*
X133149340Y-86202520D03*
D24*
X128300480Y-86202520D03*
D28*
X128198880Y-88902540D03*
X128849120Y-88902540D03*
X129499360Y-88902540D03*
X130149600Y-88902540D03*
X130799840Y-88902540D03*
D18*
X153400760Y-91841320D03*
X153400760Y-93365320D03*
D29*
X152900380Y-105402380D03*
D30*
X152900380Y-101587300D03*
X153789380Y-103619300D03*
X152011380Y-103619300D03*
D31*
X153116280Y-94503240D03*
X151084280Y-95392240D03*
X151084280Y-93614240D03*
D32*
X156028635Y-115972345D03*
X154968965Y-117032015D03*
D19*
X155300680Y-114764820D03*
X155300680Y-113240820D03*
D33*
X123080000Y-119550000D03*
X123080000Y-118280000D03*
X123080000Y-117010000D03*
X123080000Y-115740000D03*
X123080000Y-114470000D03*
X123080000Y-113200000D03*
X123080000Y-111930000D03*
X123080000Y-110660000D03*
X123080000Y-109390000D03*
X123080000Y-108120000D03*
X123080000Y-106850000D03*
X123080000Y-105580000D03*
X123080000Y-104310000D03*
X123080000Y-103040000D03*
D34*
X126365000Y-101550000D03*
X127635000Y-101550000D03*
X128905000Y-101550000D03*
X130175000Y-101550000D03*
X131445000Y-101550000D03*
X132715000Y-101550000D03*
X133985000Y-101550000D03*
X135255000Y-101550000D03*
X136525000Y-101550000D03*
X137795000Y-101550000D03*
D33*
X141080000Y-103040000D03*
X141080000Y-104310000D03*
X141080000Y-105580000D03*
X141080000Y-106850000D03*
X141080000Y-108120000D03*
X141080000Y-109390000D03*
X141080000Y-110660000D03*
X141080000Y-111930000D03*
X141080000Y-113200000D03*
X141080000Y-114470000D03*
X141080000Y-115740000D03*
X141080000Y-117010000D03*
X141080000Y-118280000D03*
X141080000Y-119550000D03*
D35*
X131780000Y-111850000D03*
D36*
X128750000Y-96477280D03*
X128750000Y-95077280D03*
D37*
X124022800Y-95287080D03*
X124522800Y-95287080D03*
X125022800Y-95287080D03*
X125522800Y-95287080D03*
X126022800Y-95287080D03*
X126522800Y-95287080D03*
D38*
X127272800Y-96037080D03*
X127272800Y-96537080D03*
X127272800Y-97037080D03*
X127272800Y-97537080D03*
X127272800Y-98037080D03*
X127272800Y-98537080D03*
D37*
X126522800Y-99287080D03*
X126022800Y-99287080D03*
X125522800Y-99287080D03*
X125022800Y-99287080D03*
X124522800Y-99287080D03*
X124022800Y-99287080D03*
D38*
X123272800Y-98537080D03*
X123272800Y-98037080D03*
X123272800Y-97537080D03*
X123272800Y-97037080D03*
X123272800Y-96537080D03*
X123272800Y-96037080D03*
D39*
X124607320Y-96662240D03*
X124607320Y-97932240D03*
X125272800Y-97287080D03*
X125877320Y-97932240D03*
X125877320Y-96662240D03*
D40*
X125272800Y-97287080D03*
D41*
X122500000Y-85500000D03*
X157000000Y-85000000D03*
X156500000Y-118500000D03*
G36*
X141964588Y-118788523D02*
G01*
X141964860Y-118790505D01*
X141963808Y-118791582D01*
X141900137Y-118819350D01*
X141861701Y-118876963D01*
X141860513Y-118946213D01*
X141896979Y-119005151D01*
X141947122Y-119031977D01*
X141948178Y-119033675D01*
X141947235Y-119035439D01*
X141946033Y-119035735D01*
X141879922Y-119030880D01*
X140280132Y-119030880D01*
X140197263Y-119042232D01*
X140195412Y-119041477D01*
X140195140Y-119039495D01*
X140196192Y-119038418D01*
X140259863Y-119010650D01*
X140298299Y-118953037D01*
X140299487Y-118883787D01*
X140263021Y-118824849D01*
X140212878Y-118798023D01*
X140211822Y-118796325D01*
X140212765Y-118794561D01*
X140213967Y-118794265D01*
X140280078Y-118799120D01*
X141879868Y-118799120D01*
X141962737Y-118787768D01*
X141964588Y-118788523D01*
G37*
G36*
X123964588Y-118788523D02*
G01*
X123964860Y-118790505D01*
X123963808Y-118791582D01*
X123900137Y-118819350D01*
X123861701Y-118876963D01*
X123860513Y-118946213D01*
X123896979Y-119005151D01*
X123947122Y-119031977D01*
X123948178Y-119033675D01*
X123947235Y-119035439D01*
X123946033Y-119035735D01*
X123879922Y-119030880D01*
X122280132Y-119030880D01*
X122197263Y-119042232D01*
X122195412Y-119041477D01*
X122195140Y-119039495D01*
X122196192Y-119038418D01*
X122259863Y-119010650D01*
X122298299Y-118953037D01*
X122299487Y-118883787D01*
X122263021Y-118824849D01*
X122212878Y-118798023D01*
X122211822Y-118796325D01*
X122212765Y-118794561D01*
X122213967Y-118794265D01*
X122280078Y-118799120D01*
X123879868Y-118799120D01*
X123962737Y-118787768D01*
X123964588Y-118788523D01*
G37*
G36*
X141964588Y-117518523D02*
G01*
X141964860Y-117520505D01*
X141963808Y-117521582D01*
X141900137Y-117549350D01*
X141861701Y-117606963D01*
X141860513Y-117676213D01*
X141896979Y-117735151D01*
X141947122Y-117761977D01*
X141948178Y-117763675D01*
X141947235Y-117765439D01*
X141946033Y-117765735D01*
X141879922Y-117760880D01*
X140280132Y-117760880D01*
X140197263Y-117772232D01*
X140195412Y-117771477D01*
X140195140Y-117769495D01*
X140196192Y-117768418D01*
X140259863Y-117740650D01*
X140298299Y-117683037D01*
X140299487Y-117613787D01*
X140263021Y-117554849D01*
X140212878Y-117528023D01*
X140211822Y-117526325D01*
X140212765Y-117524561D01*
X140213967Y-117524265D01*
X140280078Y-117529120D01*
X141879868Y-117529120D01*
X141962737Y-117517768D01*
X141964588Y-117518523D01*
G37*
G36*
X123964588Y-117518523D02*
G01*
X123964860Y-117520505D01*
X123963808Y-117521582D01*
X123900137Y-117549350D01*
X123861701Y-117606963D01*
X123860513Y-117676213D01*
X123896979Y-117735151D01*
X123947122Y-117761977D01*
X123948178Y-117763675D01*
X123947235Y-117765439D01*
X123946033Y-117765735D01*
X123879922Y-117760880D01*
X122280132Y-117760880D01*
X122197263Y-117772232D01*
X122195412Y-117771477D01*
X122195140Y-117769495D01*
X122196192Y-117768418D01*
X122259863Y-117740650D01*
X122298299Y-117683037D01*
X122299487Y-117613787D01*
X122263021Y-117554849D01*
X122212878Y-117528023D01*
X122211822Y-117526325D01*
X122212765Y-117524561D01*
X122213967Y-117524265D01*
X122280078Y-117529120D01*
X123879868Y-117529120D01*
X123962737Y-117517768D01*
X123964588Y-117518523D01*
G37*
G36*
X123964588Y-116248523D02*
G01*
X123964860Y-116250505D01*
X123963808Y-116251582D01*
X123900137Y-116279350D01*
X123861701Y-116336963D01*
X123860513Y-116406213D01*
X123896979Y-116465151D01*
X123947122Y-116491977D01*
X123948178Y-116493675D01*
X123947235Y-116495439D01*
X123946033Y-116495735D01*
X123879922Y-116490880D01*
X122280132Y-116490880D01*
X122197263Y-116502232D01*
X122195412Y-116501477D01*
X122195140Y-116499495D01*
X122196192Y-116498418D01*
X122259863Y-116470650D01*
X122298299Y-116413037D01*
X122299487Y-116343787D01*
X122263021Y-116284849D01*
X122212878Y-116258023D01*
X122211822Y-116256325D01*
X122212765Y-116254561D01*
X122213967Y-116254265D01*
X122280078Y-116259120D01*
X123879868Y-116259120D01*
X123962737Y-116247768D01*
X123964588Y-116248523D01*
G37*
G36*
X141964588Y-116248523D02*
G01*
X141964860Y-116250505D01*
X141963808Y-116251582D01*
X141900137Y-116279350D01*
X141861701Y-116336963D01*
X141860513Y-116406213D01*
X141896979Y-116465151D01*
X141947122Y-116491977D01*
X141948178Y-116493675D01*
X141947235Y-116495439D01*
X141946033Y-116495735D01*
X141879922Y-116490880D01*
X140280132Y-116490880D01*
X140197263Y-116502232D01*
X140195412Y-116501477D01*
X140195140Y-116499495D01*
X140196192Y-116498418D01*
X140259863Y-116470650D01*
X140298299Y-116413037D01*
X140299487Y-116343787D01*
X140263021Y-116284849D01*
X140212878Y-116258023D01*
X140211822Y-116256325D01*
X140212765Y-116254561D01*
X140213967Y-116254265D01*
X140280078Y-116259120D01*
X141879868Y-116259120D01*
X141962737Y-116247768D01*
X141964588Y-116248523D01*
G37*
G36*
X123964588Y-114978523D02*
G01*
X123964860Y-114980505D01*
X123963808Y-114981582D01*
X123900137Y-115009350D01*
X123861701Y-115066963D01*
X123860513Y-115136213D01*
X123896979Y-115195151D01*
X123947122Y-115221977D01*
X123948178Y-115223675D01*
X123947235Y-115225439D01*
X123946033Y-115225735D01*
X123879922Y-115220880D01*
X122280132Y-115220880D01*
X122197263Y-115232232D01*
X122195412Y-115231477D01*
X122195140Y-115229495D01*
X122196192Y-115228418D01*
X122259863Y-115200650D01*
X122298299Y-115143037D01*
X122299487Y-115073787D01*
X122263021Y-115014849D01*
X122212878Y-114988023D01*
X122211822Y-114986325D01*
X122212765Y-114984561D01*
X122213967Y-114984265D01*
X122280078Y-114989120D01*
X123879868Y-114989120D01*
X123962737Y-114977768D01*
X123964588Y-114978523D01*
G37*
G36*
X141964588Y-114978523D02*
G01*
X141964860Y-114980505D01*
X141963808Y-114981582D01*
X141900137Y-115009350D01*
X141861701Y-115066963D01*
X141860513Y-115136213D01*
X141896979Y-115195151D01*
X141947122Y-115221977D01*
X141948178Y-115223675D01*
X141947235Y-115225439D01*
X141946033Y-115225735D01*
X141879922Y-115220880D01*
X140280132Y-115220880D01*
X140197263Y-115232232D01*
X140195412Y-115231477D01*
X140195140Y-115229495D01*
X140196192Y-115228418D01*
X140259863Y-115200650D01*
X140298299Y-115143037D01*
X140299487Y-115073787D01*
X140263021Y-115014849D01*
X140212878Y-114988023D01*
X140211822Y-114986325D01*
X140212765Y-114984561D01*
X140213967Y-114984265D01*
X140280078Y-114989120D01*
X141879868Y-114989120D01*
X141962737Y-114977768D01*
X141964588Y-114978523D01*
G37*
G36*
X154468625Y-114419150D02*
G01*
X154516294Y-114458988D01*
X154585009Y-114467621D01*
X154647639Y-114437658D01*
X154661359Y-114421823D01*
X154663249Y-114421169D01*
X154664761Y-114422479D01*
X154664833Y-114423523D01*
X154660060Y-114447519D01*
X154660060Y-115082121D01*
X154665320Y-115108565D01*
X154664677Y-115110459D01*
X154662715Y-115110849D01*
X154662075Y-115110490D01*
X154614406Y-115070652D01*
X154545691Y-115062019D01*
X154483061Y-115091982D01*
X154469341Y-115107817D01*
X154467451Y-115108471D01*
X154465939Y-115107161D01*
X154465867Y-115106117D01*
X154470640Y-115082121D01*
X154470640Y-114447519D01*
X154465380Y-114421075D01*
X154466023Y-114419181D01*
X154467985Y-114418791D01*
X154468625Y-114419150D01*
G37*
G36*
X141964588Y-113708523D02*
G01*
X141964860Y-113710505D01*
X141963808Y-113711582D01*
X141900137Y-113739350D01*
X141861701Y-113796963D01*
X141860513Y-113866213D01*
X141896979Y-113925151D01*
X141947122Y-113951977D01*
X141948178Y-113953675D01*
X141947235Y-113955439D01*
X141946033Y-113955735D01*
X141879922Y-113950880D01*
X140280132Y-113950880D01*
X140197263Y-113962232D01*
X140195412Y-113961477D01*
X140195140Y-113959495D01*
X140196192Y-113958418D01*
X140259863Y-113930650D01*
X140298299Y-113873037D01*
X140299487Y-113803787D01*
X140263021Y-113744849D01*
X140212878Y-113718023D01*
X140211822Y-113716325D01*
X140212765Y-113714561D01*
X140213967Y-113714265D01*
X140280078Y-113719120D01*
X141879868Y-113719120D01*
X141962737Y-113707768D01*
X141964588Y-113708523D01*
G37*
G36*
X123964588Y-113708523D02*
G01*
X123964860Y-113710505D01*
X123963808Y-113711582D01*
X123900137Y-113739350D01*
X123861701Y-113796963D01*
X123860513Y-113866213D01*
X123896979Y-113925151D01*
X123947122Y-113951977D01*
X123948178Y-113953675D01*
X123947235Y-113955439D01*
X123946033Y-113955735D01*
X123879922Y-113950880D01*
X122280132Y-113950880D01*
X122197263Y-113962232D01*
X122195412Y-113961477D01*
X122195140Y-113959495D01*
X122196192Y-113958418D01*
X122259863Y-113930650D01*
X122298299Y-113873037D01*
X122299487Y-113803787D01*
X122263021Y-113744849D01*
X122212878Y-113718023D01*
X122211822Y-113716325D01*
X122212765Y-113714561D01*
X122213967Y-113714265D01*
X122280078Y-113719120D01*
X123879868Y-113719120D01*
X123962737Y-113707768D01*
X123964588Y-113708523D01*
G37*
G36*
X145435969Y-113112145D02*
G01*
X145455645Y-113179157D01*
X145507988Y-113224512D01*
X145576541Y-113234369D01*
X145639638Y-113205553D01*
X145654685Y-113186634D01*
X145655340Y-113186376D01*
X145695430Y-113141380D01*
X145697329Y-113140752D01*
X145698822Y-113142082D01*
X145698510Y-113143928D01*
X145641902Y-113217700D01*
X145585012Y-113355047D01*
X145565607Y-113502440D01*
X145585012Y-113649833D01*
X145641902Y-113787180D01*
X145696487Y-113858316D01*
X145696748Y-113860299D01*
X145695161Y-113861517D01*
X145693393Y-113860849D01*
X145651926Y-113813315D01*
X145593284Y-113775904D01*
X145524027Y-113776134D01*
X145465889Y-113813772D01*
X145437234Y-113877075D01*
X145436045Y-113894093D01*
X145434927Y-113895752D01*
X145432932Y-113895612D01*
X145432050Y-113893954D01*
X145432050Y-113112708D01*
X145433050Y-113110976D01*
X145435050Y-113110976D01*
X145435969Y-113112145D01*
G37*
G36*
X150139413Y-112903688D02*
G01*
X150145346Y-112912567D01*
X150198721Y-112957174D01*
X150267437Y-112965807D01*
X150330067Y-112935842D01*
X150350116Y-112912705D01*
X150352747Y-112908768D01*
X150354541Y-112907883D01*
X150356204Y-112908995D01*
X150356372Y-112910269D01*
X150352220Y-112931139D01*
X150352220Y-113676000D01*
X150351220Y-113677732D01*
X150349220Y-113677732D01*
X150348301Y-113676563D01*
X150328625Y-113609551D01*
X150276282Y-113564196D01*
X150207729Y-113554339D01*
X150144584Y-113583177D01*
X150134692Y-113594388D01*
X150132796Y-113595025D01*
X150131296Y-113593702D01*
X150131529Y-113591954D01*
X150134641Y-113587296D01*
X150139940Y-113560661D01*
X150139940Y-112926059D01*
X150135788Y-112905189D01*
X150136431Y-112903295D01*
X150138393Y-112902905D01*
X150139413Y-112903688D01*
G37*
G36*
X154468625Y-112895150D02*
G01*
X154516294Y-112934988D01*
X154585009Y-112943621D01*
X154647639Y-112913658D01*
X154661359Y-112897823D01*
X154663249Y-112897169D01*
X154664761Y-112898479D01*
X154664833Y-112899523D01*
X154660060Y-112923519D01*
X154660060Y-113558121D01*
X154665320Y-113584565D01*
X154664677Y-113586459D01*
X154662715Y-113586849D01*
X154662075Y-113586490D01*
X154614406Y-113546652D01*
X154545691Y-113538019D01*
X154483061Y-113567982D01*
X154469341Y-113583817D01*
X154467451Y-113584471D01*
X154465939Y-113583161D01*
X154465867Y-113582117D01*
X154470640Y-113558121D01*
X154470640Y-112923519D01*
X154465380Y-112897075D01*
X154466023Y-112895181D01*
X154467985Y-112894791D01*
X154468625Y-112895150D01*
G37*
G36*
X150093927Y-112651004D02*
G01*
X150094317Y-112652966D01*
X150093958Y-112653606D01*
X150049648Y-112706625D01*
X150041016Y-112775340D01*
X150070980Y-112837970D01*
X150093495Y-112857478D01*
X150094149Y-112859368D01*
X150092839Y-112860880D01*
X150091795Y-112860952D01*
X150070621Y-112856740D01*
X148928019Y-112856740D01*
X148906607Y-112860999D01*
X148904713Y-112860356D01*
X148904323Y-112858394D01*
X148904682Y-112857754D01*
X148948992Y-112804735D01*
X148957624Y-112736020D01*
X148927660Y-112673390D01*
X148905145Y-112653882D01*
X148904491Y-112651992D01*
X148905801Y-112650480D01*
X148906845Y-112650408D01*
X148928019Y-112654620D01*
X150070621Y-112654620D01*
X150092033Y-112650361D01*
X150093927Y-112651004D01*
G37*
G36*
X141964588Y-112438523D02*
G01*
X141964860Y-112440505D01*
X141963808Y-112441582D01*
X141900137Y-112469350D01*
X141861701Y-112526963D01*
X141860513Y-112596213D01*
X141896979Y-112655151D01*
X141947122Y-112681977D01*
X141948178Y-112683675D01*
X141947235Y-112685439D01*
X141946033Y-112685735D01*
X141879922Y-112680880D01*
X140280132Y-112680880D01*
X140197263Y-112692232D01*
X140195412Y-112691477D01*
X140195140Y-112689495D01*
X140196192Y-112688418D01*
X140259863Y-112660650D01*
X140298299Y-112603037D01*
X140299487Y-112533787D01*
X140263021Y-112474849D01*
X140212878Y-112448023D01*
X140211822Y-112446325D01*
X140212765Y-112444561D01*
X140213967Y-112444265D01*
X140280078Y-112449120D01*
X141879868Y-112449120D01*
X141962737Y-112437768D01*
X141964588Y-112438523D01*
G37*
G36*
X123964588Y-112438523D02*
G01*
X123964860Y-112440505D01*
X123963808Y-112441582D01*
X123900137Y-112469350D01*
X123861701Y-112526963D01*
X123860513Y-112596213D01*
X123896979Y-112655151D01*
X123947122Y-112681977D01*
X123948178Y-112683675D01*
X123947235Y-112685439D01*
X123946033Y-112685735D01*
X123879922Y-112680880D01*
X122280132Y-112680880D01*
X122197263Y-112692232D01*
X122195412Y-112691477D01*
X122195140Y-112689495D01*
X122196192Y-112688418D01*
X122259863Y-112660650D01*
X122298299Y-112603037D01*
X122299487Y-112533787D01*
X122263021Y-112474849D01*
X122212878Y-112448023D01*
X122211822Y-112446325D01*
X122212765Y-112444561D01*
X122213967Y-112444265D01*
X122280078Y-112449120D01*
X123879868Y-112449120D01*
X123962737Y-112437768D01*
X123964588Y-112438523D01*
G37*
G36*
X148862684Y-111928554D02*
G01*
X148862852Y-111929829D01*
X148858700Y-111950699D01*
X148858700Y-112585301D01*
X148862852Y-112606171D01*
X148862209Y-112608065D01*
X148860247Y-112608455D01*
X148859227Y-112607672D01*
X148851181Y-112595631D01*
X148797805Y-112551023D01*
X148729090Y-112542391D01*
X148666460Y-112572355D01*
X148646408Y-112595498D01*
X148638273Y-112607672D01*
X148636479Y-112608557D01*
X148634816Y-112607446D01*
X148634648Y-112606171D01*
X148638800Y-112585301D01*
X148638800Y-111950699D01*
X148634648Y-111929829D01*
X148635291Y-111927935D01*
X148637253Y-111927545D01*
X148638273Y-111928328D01*
X148646319Y-111940369D01*
X148699695Y-111984977D01*
X148768410Y-111993609D01*
X148831040Y-111963645D01*
X148851092Y-111940502D01*
X148859227Y-111928328D01*
X148861021Y-111927443D01*
X148862684Y-111928554D01*
G37*
G36*
X147172059Y-111806495D02*
G01*
X147191735Y-111873507D01*
X147244078Y-111918862D01*
X147312697Y-111928728D01*
X147363659Y-111909200D01*
X147371794Y-111903765D01*
X147373790Y-111903634D01*
X147374901Y-111905297D01*
X147374568Y-111906539D01*
X147362859Y-111924063D01*
X147357560Y-111950699D01*
X147357560Y-112447002D01*
X147356560Y-112448734D01*
X147354560Y-112448734D01*
X147353641Y-112447565D01*
X147333965Y-112380553D01*
X147281622Y-112335198D01*
X147213003Y-112325332D01*
X147162041Y-112344860D01*
X147153906Y-112350295D01*
X147151910Y-112350426D01*
X147150799Y-112348763D01*
X147151132Y-112347521D01*
X147162841Y-112329997D01*
X147168140Y-112303361D01*
X147168140Y-111807058D01*
X147169140Y-111805326D01*
X147171140Y-111805326D01*
X147172059Y-111806495D01*
G37*
G36*
X152404086Y-110727745D02*
G01*
X152406356Y-110729261D01*
X152472720Y-110750041D01*
X152543518Y-110729252D01*
X152545774Y-110727745D01*
X152547770Y-110727614D01*
X152548881Y-110729277D01*
X152548548Y-110730519D01*
X152536839Y-110748043D01*
X152531540Y-110774679D01*
X152531540Y-111775041D01*
X152536839Y-111801677D01*
X152548548Y-111819201D01*
X152548679Y-111821197D01*
X152547016Y-111822308D01*
X152545774Y-111821975D01*
X152543504Y-111820459D01*
X152477140Y-111799679D01*
X152406342Y-111820468D01*
X152404086Y-111821975D01*
X152402090Y-111822106D01*
X152400979Y-111820443D01*
X152401312Y-111819201D01*
X152413021Y-111801677D01*
X152418320Y-111775041D01*
X152418320Y-110774679D01*
X152413021Y-110748043D01*
X152401312Y-110730519D01*
X152401181Y-110728523D01*
X152402844Y-110727412D01*
X152404086Y-110727745D01*
G37*
G36*
X151451586Y-110727745D02*
G01*
X151453856Y-110729261D01*
X151520220Y-110750041D01*
X151591018Y-110729252D01*
X151593274Y-110727745D01*
X151595270Y-110727614D01*
X151596381Y-110729277D01*
X151596048Y-110730519D01*
X151584339Y-110748043D01*
X151579040Y-110774679D01*
X151579040Y-111775041D01*
X151584339Y-111801677D01*
X151596048Y-111819201D01*
X151596179Y-111821197D01*
X151594516Y-111822308D01*
X151593274Y-111821975D01*
X151591004Y-111820459D01*
X151524640Y-111799679D01*
X151453842Y-111820468D01*
X151451586Y-111821975D01*
X151449590Y-111822106D01*
X151448479Y-111820443D01*
X151448812Y-111819201D01*
X151460521Y-111801677D01*
X151465820Y-111775041D01*
X151465820Y-110774679D01*
X151460521Y-110748043D01*
X151448812Y-110730519D01*
X151448681Y-110728523D01*
X151450344Y-110727412D01*
X151451586Y-110727745D01*
G37*
G36*
X141964588Y-111168523D02*
G01*
X141964860Y-111170505D01*
X141963808Y-111171582D01*
X141900137Y-111199350D01*
X141861701Y-111256963D01*
X141860513Y-111326213D01*
X141896979Y-111385151D01*
X141947122Y-111411977D01*
X141948178Y-111413675D01*
X141947235Y-111415439D01*
X141946033Y-111415735D01*
X141879922Y-111410880D01*
X140280132Y-111410880D01*
X140197263Y-111422232D01*
X140195412Y-111421477D01*
X140195140Y-111419495D01*
X140196192Y-111418418D01*
X140259863Y-111390650D01*
X140298299Y-111333037D01*
X140299487Y-111263787D01*
X140263021Y-111204849D01*
X140212878Y-111178023D01*
X140211822Y-111176325D01*
X140212765Y-111174561D01*
X140213967Y-111174265D01*
X140280078Y-111179120D01*
X141879868Y-111179120D01*
X141962737Y-111167768D01*
X141964588Y-111168523D01*
G37*
G36*
X123964588Y-111168523D02*
G01*
X123964860Y-111170505D01*
X123963808Y-111171582D01*
X123900137Y-111199350D01*
X123861701Y-111256963D01*
X123860513Y-111326213D01*
X123896979Y-111385151D01*
X123947122Y-111411977D01*
X123948178Y-111413675D01*
X123947235Y-111415439D01*
X123946033Y-111415735D01*
X123879922Y-111410880D01*
X122280132Y-111410880D01*
X122197263Y-111422232D01*
X122195412Y-111421477D01*
X122195140Y-111419495D01*
X122196192Y-111418418D01*
X122259863Y-111390650D01*
X122298299Y-111333037D01*
X122299487Y-111263787D01*
X122263021Y-111204849D01*
X122212878Y-111178023D01*
X122211822Y-111176325D01*
X122212765Y-111174561D01*
X122213967Y-111174265D01*
X122280078Y-111179120D01*
X123879868Y-111179120D01*
X123962737Y-111167768D01*
X123964588Y-111168523D01*
G37*
G36*
X148862684Y-110404554D02*
G01*
X148862852Y-110405829D01*
X148858700Y-110426699D01*
X148858700Y-111061301D01*
X148862852Y-111082171D01*
X148862209Y-111084065D01*
X148860247Y-111084455D01*
X148859227Y-111083672D01*
X148851181Y-111071631D01*
X148797805Y-111027023D01*
X148729090Y-111018391D01*
X148666460Y-111048355D01*
X148646408Y-111071498D01*
X148638273Y-111083672D01*
X148636479Y-111084557D01*
X148634816Y-111083446D01*
X148634648Y-111082171D01*
X148638800Y-111061301D01*
X148638800Y-110426699D01*
X148634648Y-110405828D01*
X148635291Y-110403934D01*
X148637253Y-110403544D01*
X148638273Y-110404327D01*
X148646319Y-110416369D01*
X148699695Y-110460977D01*
X148768410Y-110469609D01*
X148831040Y-110439645D01*
X148851092Y-110416502D01*
X148859227Y-110404328D01*
X148861021Y-110403443D01*
X148862684Y-110404554D01*
G37*
G36*
X145435969Y-110112405D02*
G01*
X145455645Y-110179417D01*
X145507988Y-110224772D01*
X145576541Y-110234629D01*
X145639638Y-110205813D01*
X145654685Y-110186894D01*
X145655340Y-110186636D01*
X145695430Y-110141640D01*
X145697329Y-110141012D01*
X145698822Y-110142342D01*
X145698510Y-110144188D01*
X145641902Y-110217960D01*
X145585012Y-110355307D01*
X145565607Y-110502700D01*
X145585012Y-110650093D01*
X145641902Y-110787440D01*
X145696487Y-110858576D01*
X145696748Y-110860559D01*
X145695161Y-110861777D01*
X145693393Y-110861109D01*
X145651926Y-110813575D01*
X145593284Y-110776164D01*
X145524027Y-110776394D01*
X145465889Y-110814032D01*
X145437234Y-110877335D01*
X145436045Y-110894353D01*
X145434927Y-110896012D01*
X145432932Y-110895872D01*
X145432050Y-110894214D01*
X145432050Y-110112968D01*
X145433050Y-110111236D01*
X145435050Y-110111236D01*
X145435969Y-110112405D01*
G37*
G36*
X147429419Y-110152720D02*
G01*
X148572021Y-110152720D01*
X148592890Y-110148569D01*
X148594784Y-110149212D01*
X148595174Y-110151174D01*
X148594391Y-110152194D01*
X148592484Y-110153468D01*
X148547877Y-110206844D01*
X148539246Y-110275560D01*
X148569209Y-110338189D01*
X148592167Y-110358081D01*
X148592821Y-110359971D01*
X148591511Y-110361483D01*
X148590467Y-110361555D01*
X148569481Y-110357380D01*
X147426879Y-110357380D01*
X147406010Y-110361531D01*
X147404116Y-110360888D01*
X147403726Y-110358926D01*
X147404509Y-110357906D01*
X147406416Y-110356632D01*
X147451023Y-110303256D01*
X147459654Y-110234540D01*
X147429691Y-110171911D01*
X147406733Y-110152019D01*
X147406079Y-110150129D01*
X147407389Y-110148617D01*
X147408433Y-110148545D01*
X147429419Y-110152720D01*
G37*
G36*
X150093385Y-110149211D02*
G01*
X150093775Y-110151173D01*
X150092993Y-110152193D01*
X150092354Y-110152620D01*
X150047748Y-110205995D01*
X150039115Y-110274710D01*
X150069080Y-110337340D01*
X150092214Y-110357386D01*
X150092993Y-110357907D01*
X150093877Y-110359701D01*
X150092765Y-110361364D01*
X150091491Y-110361532D01*
X150070621Y-110357380D01*
X148928019Y-110357380D01*
X148907149Y-110361532D01*
X148905255Y-110360889D01*
X148904865Y-110358927D01*
X148905647Y-110357907D01*
X148906286Y-110357480D01*
X148950892Y-110304105D01*
X148959525Y-110235390D01*
X148929560Y-110172760D01*
X148906426Y-110152714D01*
X148905647Y-110152193D01*
X148904763Y-110150399D01*
X148905875Y-110148736D01*
X148907149Y-110148568D01*
X148928019Y-110152720D01*
X150070621Y-110152720D01*
X150091491Y-110148568D01*
X150093385Y-110149211D01*
G37*
G36*
X141964588Y-109898523D02*
G01*
X141964860Y-109900505D01*
X141963808Y-109901582D01*
X141900137Y-109929350D01*
X141861701Y-109986963D01*
X141860513Y-110056213D01*
X141896979Y-110115151D01*
X141947122Y-110141977D01*
X141948178Y-110143675D01*
X141947235Y-110145439D01*
X141946033Y-110145735D01*
X141879922Y-110140880D01*
X140280132Y-110140880D01*
X140197263Y-110152232D01*
X140195412Y-110151477D01*
X140195140Y-110149495D01*
X140196192Y-110148418D01*
X140259863Y-110120650D01*
X140298299Y-110063037D01*
X140299487Y-109993787D01*
X140263021Y-109934849D01*
X140212878Y-109908023D01*
X140211822Y-109906325D01*
X140212765Y-109904561D01*
X140213967Y-109904265D01*
X140280078Y-109909120D01*
X141879868Y-109909120D01*
X141962737Y-109897768D01*
X141964588Y-109898523D01*
G37*
G36*
X123964588Y-109898523D02*
G01*
X123964860Y-109900505D01*
X123963808Y-109901582D01*
X123900137Y-109929350D01*
X123861701Y-109986963D01*
X123860513Y-110056213D01*
X123896979Y-110115151D01*
X123947122Y-110141977D01*
X123948178Y-110143675D01*
X123947235Y-110145439D01*
X123946033Y-110145735D01*
X123879922Y-110140880D01*
X122280132Y-110140880D01*
X122197263Y-110152232D01*
X122195412Y-110151477D01*
X122195140Y-110149495D01*
X122196192Y-110148418D01*
X122259863Y-110120650D01*
X122298299Y-110063037D01*
X122299487Y-109993787D01*
X122263021Y-109934849D01*
X122212878Y-109908023D01*
X122211822Y-109906325D01*
X122212765Y-109904561D01*
X122213967Y-109904265D01*
X122280078Y-109909120D01*
X123879868Y-109909120D01*
X123962737Y-109897768D01*
X123964588Y-109898523D01*
G37*
G36*
X148862684Y-109426653D02*
G01*
X148862852Y-109427928D01*
X148858700Y-109448799D01*
X148858700Y-110083401D01*
X148862852Y-110104272D01*
X148862209Y-110106166D01*
X148860247Y-110106556D01*
X148859227Y-110105773D01*
X148852451Y-110095632D01*
X148799075Y-110051024D01*
X148730360Y-110042392D01*
X148667730Y-110072356D01*
X148647678Y-110095499D01*
X148640813Y-110105773D01*
X148639019Y-110106658D01*
X148637356Y-110105547D01*
X148637188Y-110104272D01*
X148641340Y-110083401D01*
X148641340Y-109448799D01*
X148637188Y-109427928D01*
X148637831Y-109426034D01*
X148639793Y-109425644D01*
X148640813Y-109426427D01*
X148647589Y-109436568D01*
X148700965Y-109481176D01*
X148769680Y-109489808D01*
X148832310Y-109459844D01*
X148852362Y-109436701D01*
X148859227Y-109426427D01*
X148861021Y-109425542D01*
X148862684Y-109426653D01*
G37*
G36*
X151451586Y-108187745D02*
G01*
X151453856Y-108189261D01*
X151520220Y-108210041D01*
X151591018Y-108189252D01*
X151593274Y-108187745D01*
X151595270Y-108187614D01*
X151596381Y-108189277D01*
X151596048Y-108190519D01*
X151584339Y-108208043D01*
X151579040Y-108234679D01*
X151579040Y-109235041D01*
X151584339Y-109261677D01*
X151596048Y-109279201D01*
X151596179Y-109281197D01*
X151594516Y-109282308D01*
X151593274Y-109281975D01*
X151591004Y-109280459D01*
X151524640Y-109259679D01*
X151453842Y-109280468D01*
X151451586Y-109281975D01*
X151449590Y-109282106D01*
X151448479Y-109280443D01*
X151448812Y-109279201D01*
X151460521Y-109261677D01*
X151465820Y-109235041D01*
X151465820Y-108234679D01*
X151460521Y-108208043D01*
X151448812Y-108190519D01*
X151448681Y-108188523D01*
X151450344Y-108187412D01*
X151451586Y-108187745D01*
G37*
G36*
X152404086Y-108187745D02*
G01*
X152406356Y-108189261D01*
X152472720Y-108210041D01*
X152543518Y-108189252D01*
X152545774Y-108187745D01*
X152547770Y-108187614D01*
X152548881Y-108189277D01*
X152548548Y-108190519D01*
X152536839Y-108208043D01*
X152531540Y-108234679D01*
X152531540Y-109235041D01*
X152536839Y-109261677D01*
X152548548Y-109279201D01*
X152548679Y-109281197D01*
X152547016Y-109282308D01*
X152545774Y-109281975D01*
X152543504Y-109280459D01*
X152477140Y-109259679D01*
X152406342Y-109280468D01*
X152404086Y-109281975D01*
X152402090Y-109282106D01*
X152400979Y-109280443D01*
X152401312Y-109279201D01*
X152413021Y-109261677D01*
X152418320Y-109235041D01*
X152418320Y-108234679D01*
X152413021Y-108208043D01*
X152401312Y-108190519D01*
X152401181Y-108188523D01*
X152402844Y-108187412D01*
X152404086Y-108187745D01*
G37*
G36*
X123964588Y-108628523D02*
G01*
X123964860Y-108630505D01*
X123963808Y-108631582D01*
X123900137Y-108659350D01*
X123861701Y-108716963D01*
X123860513Y-108786213D01*
X123896979Y-108845151D01*
X123947122Y-108871977D01*
X123948178Y-108873675D01*
X123947235Y-108875439D01*
X123946033Y-108875735D01*
X123879922Y-108870880D01*
X122280132Y-108870880D01*
X122197263Y-108882232D01*
X122195412Y-108881477D01*
X122195140Y-108879495D01*
X122196192Y-108878418D01*
X122259863Y-108850650D01*
X122298299Y-108793037D01*
X122299487Y-108723787D01*
X122263021Y-108664849D01*
X122212878Y-108638023D01*
X122211822Y-108636325D01*
X122212765Y-108634561D01*
X122213967Y-108634265D01*
X122280078Y-108639120D01*
X123879868Y-108639120D01*
X123962737Y-108627768D01*
X123964588Y-108628523D01*
G37*
G36*
X141964588Y-108628523D02*
G01*
X141964860Y-108630505D01*
X141963808Y-108631582D01*
X141900137Y-108659350D01*
X141861701Y-108716963D01*
X141860513Y-108786213D01*
X141896979Y-108845151D01*
X141947122Y-108871977D01*
X141948178Y-108873675D01*
X141947235Y-108875439D01*
X141946033Y-108875735D01*
X141879922Y-108870880D01*
X140280132Y-108870880D01*
X140197263Y-108882232D01*
X140195412Y-108881477D01*
X140195140Y-108879495D01*
X140196192Y-108878418D01*
X140259863Y-108850650D01*
X140298299Y-108793037D01*
X140299487Y-108723787D01*
X140263021Y-108664849D01*
X140212878Y-108638023D01*
X140211822Y-108636325D01*
X140212765Y-108634561D01*
X140213967Y-108634265D01*
X140280078Y-108639120D01*
X141879868Y-108639120D01*
X141962737Y-108627768D01*
X141964588Y-108628523D01*
G37*
G36*
X148862684Y-107902653D02*
G01*
X148862852Y-107903928D01*
X148858700Y-107924799D01*
X148858700Y-108559401D01*
X148862852Y-108580272D01*
X148862209Y-108582166D01*
X148860247Y-108582556D01*
X148859227Y-108581773D01*
X148852451Y-108571632D01*
X148799075Y-108527024D01*
X148730360Y-108518392D01*
X148667730Y-108548356D01*
X148647678Y-108571499D01*
X148640813Y-108581773D01*
X148639019Y-108582658D01*
X148637356Y-108581547D01*
X148637188Y-108580272D01*
X148641340Y-108559401D01*
X148641340Y-107924799D01*
X148637188Y-107903928D01*
X148637831Y-107902034D01*
X148639793Y-107901644D01*
X148640813Y-107902427D01*
X148647589Y-107912568D01*
X148700965Y-107957176D01*
X148769680Y-107965808D01*
X148832310Y-107935844D01*
X148852362Y-107912701D01*
X148859227Y-107902427D01*
X148861021Y-107901542D01*
X148862684Y-107902653D01*
G37*
G36*
X145435969Y-107112665D02*
G01*
X145455645Y-107179677D01*
X145507988Y-107225032D01*
X145576541Y-107234889D01*
X145639638Y-107206073D01*
X145654685Y-107187154D01*
X145655340Y-107186896D01*
X145695430Y-107141900D01*
X145697329Y-107141272D01*
X145698822Y-107142602D01*
X145698510Y-107144448D01*
X145641902Y-107218220D01*
X145585012Y-107355567D01*
X145565607Y-107502960D01*
X145585012Y-107650353D01*
X145641902Y-107787700D01*
X145696487Y-107858836D01*
X145696748Y-107860819D01*
X145695161Y-107862037D01*
X145693393Y-107861369D01*
X145651926Y-107813835D01*
X145593284Y-107776424D01*
X145524027Y-107776654D01*
X145465889Y-107814292D01*
X145437234Y-107877595D01*
X145436045Y-107894613D01*
X145434927Y-107896272D01*
X145432932Y-107896132D01*
X145432050Y-107894474D01*
X145432050Y-107113228D01*
X145433050Y-107111496D01*
X145435050Y-107111496D01*
X145435969Y-107112665D01*
G37*
G36*
X149601231Y-107630957D02*
G01*
X149600770Y-107632371D01*
X149561445Y-107679424D01*
X149552812Y-107748140D01*
X149582702Y-107810615D01*
X149641763Y-107847101D01*
X149674412Y-107851498D01*
X149675995Y-107852720D01*
X149675728Y-107854702D01*
X149674145Y-107855480D01*
X148928019Y-107855480D01*
X148907149Y-107859632D01*
X148905255Y-107858989D01*
X148904865Y-107857027D01*
X148905647Y-107856007D01*
X148906277Y-107855586D01*
X148950883Y-107802211D01*
X148959516Y-107733496D01*
X148929551Y-107670866D01*
X148906415Y-107650817D01*
X148898029Y-107645214D01*
X148897144Y-107643420D01*
X148898255Y-107641757D01*
X148899530Y-107641589D01*
X148920399Y-107645740D01*
X149555001Y-107645740D01*
X149581637Y-107640441D01*
X149598124Y-107629425D01*
X149600120Y-107629294D01*
X149601231Y-107630957D01*
G37*
G36*
X141964588Y-107358523D02*
G01*
X141964860Y-107360505D01*
X141963808Y-107361582D01*
X141900137Y-107389350D01*
X141861701Y-107446963D01*
X141860513Y-107516213D01*
X141896979Y-107575151D01*
X141947122Y-107601977D01*
X141948178Y-107603675D01*
X141947235Y-107605439D01*
X141946033Y-107605735D01*
X141879922Y-107600880D01*
X140280132Y-107600880D01*
X140197263Y-107612232D01*
X140195412Y-107611477D01*
X140195140Y-107609495D01*
X140196192Y-107608418D01*
X140259863Y-107580650D01*
X140298299Y-107523037D01*
X140299487Y-107453787D01*
X140263021Y-107394849D01*
X140212878Y-107368023D01*
X140211822Y-107366325D01*
X140212765Y-107364561D01*
X140213967Y-107364265D01*
X140280078Y-107369120D01*
X141879868Y-107369120D01*
X141962737Y-107357768D01*
X141964588Y-107358523D01*
G37*
G36*
X123964588Y-107358523D02*
G01*
X123964860Y-107360505D01*
X123963808Y-107361582D01*
X123900137Y-107389350D01*
X123861701Y-107446963D01*
X123860513Y-107516213D01*
X123896979Y-107575151D01*
X123947122Y-107601977D01*
X123948178Y-107603675D01*
X123947235Y-107605439D01*
X123946033Y-107605735D01*
X123879922Y-107600880D01*
X122280132Y-107600880D01*
X122197263Y-107612232D01*
X122195412Y-107611477D01*
X122195140Y-107609495D01*
X122196192Y-107608418D01*
X122259863Y-107580650D01*
X122298299Y-107523037D01*
X122299487Y-107453787D01*
X122263021Y-107394849D01*
X122212878Y-107368023D01*
X122211822Y-107366325D01*
X122212765Y-107364561D01*
X122213967Y-107364265D01*
X122280078Y-107369120D01*
X123879868Y-107369120D01*
X123962737Y-107357768D01*
X123964588Y-107358523D01*
G37*
G36*
X151147306Y-106410482D02*
G01*
X151200325Y-106454792D01*
X151269040Y-106463424D01*
X151331670Y-106433460D01*
X151351178Y-106410945D01*
X151353068Y-106410291D01*
X151354580Y-106411601D01*
X151354652Y-106412645D01*
X151350440Y-106433819D01*
X151350440Y-107576421D01*
X151354699Y-107597833D01*
X151354056Y-107599727D01*
X151352094Y-107600117D01*
X151351454Y-107599758D01*
X151298435Y-107555448D01*
X151229720Y-107546816D01*
X151167090Y-107576780D01*
X151147582Y-107599295D01*
X151145692Y-107599949D01*
X151144180Y-107598639D01*
X151144108Y-107597595D01*
X151148320Y-107576421D01*
X151148320Y-106433819D01*
X151144061Y-106412407D01*
X151144704Y-106410513D01*
X151146666Y-106410123D01*
X151147306Y-106410482D01*
G37*
G36*
X123964588Y-106088523D02*
G01*
X123964860Y-106090505D01*
X123963808Y-106091582D01*
X123900137Y-106119350D01*
X123861701Y-106176963D01*
X123860513Y-106246213D01*
X123896979Y-106305151D01*
X123947122Y-106331977D01*
X123948178Y-106333675D01*
X123947235Y-106335439D01*
X123946033Y-106335735D01*
X123879922Y-106330880D01*
X122280132Y-106330880D01*
X122197263Y-106342232D01*
X122195412Y-106341477D01*
X122195140Y-106339495D01*
X122196192Y-106338418D01*
X122259863Y-106310650D01*
X122298299Y-106253037D01*
X122299487Y-106183787D01*
X122263021Y-106124849D01*
X122212878Y-106098023D01*
X122211822Y-106096325D01*
X122212765Y-106094561D01*
X122213967Y-106094265D01*
X122280078Y-106099120D01*
X123879868Y-106099120D01*
X123962737Y-106087768D01*
X123964588Y-106088523D01*
G37*
G36*
X141964588Y-106088523D02*
G01*
X141964860Y-106090505D01*
X141963808Y-106091582D01*
X141900137Y-106119350D01*
X141861701Y-106176963D01*
X141860513Y-106246213D01*
X141896979Y-106305151D01*
X141947122Y-106331977D01*
X141948178Y-106333675D01*
X141947235Y-106335439D01*
X141946033Y-106335735D01*
X141879922Y-106330880D01*
X140280132Y-106330880D01*
X140197263Y-106342232D01*
X140195412Y-106341477D01*
X140195140Y-106339495D01*
X140196192Y-106338418D01*
X140259863Y-106310650D01*
X140298299Y-106253037D01*
X140299487Y-106183787D01*
X140263021Y-106124849D01*
X140212878Y-106098023D01*
X140211822Y-106096325D01*
X140212765Y-106094561D01*
X140213967Y-106094265D01*
X140280078Y-106099120D01*
X141879868Y-106099120D01*
X141962737Y-106087768D01*
X141964588Y-106088523D01*
G37*
G36*
X123964588Y-104818523D02*
G01*
X123964860Y-104820505D01*
X123963808Y-104821582D01*
X123900137Y-104849350D01*
X123861701Y-104906963D01*
X123860513Y-104976213D01*
X123896979Y-105035151D01*
X123947122Y-105061977D01*
X123948178Y-105063675D01*
X123947235Y-105065439D01*
X123946033Y-105065735D01*
X123879922Y-105060880D01*
X122280132Y-105060880D01*
X122197263Y-105072232D01*
X122195412Y-105071477D01*
X122195140Y-105069495D01*
X122196192Y-105068418D01*
X122259863Y-105040650D01*
X122298299Y-104983037D01*
X122299487Y-104913787D01*
X122263021Y-104854849D01*
X122212878Y-104828023D01*
X122211822Y-104826325D01*
X122212765Y-104824561D01*
X122213967Y-104824265D01*
X122280078Y-104829120D01*
X123879868Y-104829120D01*
X123962737Y-104817768D01*
X123964588Y-104818523D01*
G37*
G36*
X141964588Y-104818523D02*
G01*
X141964860Y-104820505D01*
X141963808Y-104821582D01*
X141900137Y-104849350D01*
X141861701Y-104906963D01*
X141860513Y-104976213D01*
X141896979Y-105035151D01*
X141947122Y-105061977D01*
X141948178Y-105063675D01*
X141947235Y-105065439D01*
X141946033Y-105065735D01*
X141879922Y-105060880D01*
X140280132Y-105060880D01*
X140197263Y-105072232D01*
X140195412Y-105071477D01*
X140195140Y-105069495D01*
X140196192Y-105068418D01*
X140259863Y-105040650D01*
X140298299Y-104983037D01*
X140299487Y-104913787D01*
X140263021Y-104854849D01*
X140212878Y-104828023D01*
X140211822Y-104826325D01*
X140212765Y-104824561D01*
X140213967Y-104824265D01*
X140280078Y-104829120D01*
X141879868Y-104829120D01*
X141962737Y-104817768D01*
X141964588Y-104818523D01*
G37*
G36*
X145435969Y-104112925D02*
G01*
X145455645Y-104179937D01*
X145507988Y-104225292D01*
X145576541Y-104235149D01*
X145639638Y-104206333D01*
X145654685Y-104187414D01*
X145655340Y-104187156D01*
X145695430Y-104142160D01*
X145697329Y-104141532D01*
X145698822Y-104142862D01*
X145698510Y-104144708D01*
X145641902Y-104218480D01*
X145585012Y-104355827D01*
X145565607Y-104503220D01*
X145585012Y-104650613D01*
X145641902Y-104787960D01*
X145696487Y-104859096D01*
X145696748Y-104861079D01*
X145695161Y-104862297D01*
X145693393Y-104861629D01*
X145651926Y-104814095D01*
X145593284Y-104776684D01*
X145524027Y-104776914D01*
X145465889Y-104814552D01*
X145437234Y-104877855D01*
X145436045Y-104894873D01*
X145434927Y-104896532D01*
X145432932Y-104896392D01*
X145432050Y-104894734D01*
X145432050Y-104113488D01*
X145433050Y-104111756D01*
X145435050Y-104111756D01*
X145435969Y-104112925D01*
G37*
G36*
X149325607Y-103600506D02*
G01*
X149330416Y-103603719D01*
X149396780Y-103624498D01*
X149467578Y-103603710D01*
X149472373Y-103600506D01*
X149474368Y-103600375D01*
X149475480Y-103602038D01*
X149475147Y-103603280D01*
X149463439Y-103620803D01*
X149458140Y-103647439D01*
X149458140Y-104282041D01*
X149463439Y-104308677D01*
X149475147Y-104326200D01*
X149475278Y-104328196D01*
X149473615Y-104329307D01*
X149472373Y-104328974D01*
X149467564Y-104325761D01*
X149401200Y-104304982D01*
X149330402Y-104325770D01*
X149325607Y-104328974D01*
X149323612Y-104329105D01*
X149322500Y-104327442D01*
X149322833Y-104326200D01*
X149334541Y-104308677D01*
X149339840Y-104282041D01*
X149339840Y-103647439D01*
X149334541Y-103620803D01*
X149322833Y-103603280D01*
X149322702Y-103601284D01*
X149324365Y-103600173D01*
X149325607Y-103600506D01*
G37*
G36*
X141964588Y-103548523D02*
G01*
X141964860Y-103550505D01*
X141963808Y-103551582D01*
X141900137Y-103579350D01*
X141861701Y-103636963D01*
X141860513Y-103706213D01*
X141896979Y-103765151D01*
X141947122Y-103791977D01*
X141948178Y-103793675D01*
X141947235Y-103795439D01*
X141946033Y-103795735D01*
X141879922Y-103790880D01*
X140280132Y-103790880D01*
X140197263Y-103802232D01*
X140195412Y-103801477D01*
X140195140Y-103799495D01*
X140196192Y-103798418D01*
X140259863Y-103770650D01*
X140298299Y-103713037D01*
X140299487Y-103643787D01*
X140263021Y-103584849D01*
X140212878Y-103558023D01*
X140211822Y-103556325D01*
X140212765Y-103554561D01*
X140213967Y-103554265D01*
X140280078Y-103559120D01*
X141879868Y-103559120D01*
X141962737Y-103547768D01*
X141964588Y-103548523D01*
G37*
G36*
X123964588Y-103548523D02*
G01*
X123964860Y-103550505D01*
X123963808Y-103551582D01*
X123900137Y-103579350D01*
X123861701Y-103636963D01*
X123860513Y-103706213D01*
X123896979Y-103765151D01*
X123947122Y-103791977D01*
X123948178Y-103793675D01*
X123947235Y-103795439D01*
X123946033Y-103795735D01*
X123879922Y-103790880D01*
X122280132Y-103790880D01*
X122197263Y-103802232D01*
X122195412Y-103801477D01*
X122195140Y-103799495D01*
X122196192Y-103798418D01*
X122259863Y-103770650D01*
X122298299Y-103713037D01*
X122299487Y-103643787D01*
X122263021Y-103584849D01*
X122212878Y-103558023D01*
X122211822Y-103556325D01*
X122212765Y-103554561D01*
X122213967Y-103554265D01*
X122280078Y-103559120D01*
X123879868Y-103559120D01*
X123962737Y-103547768D01*
X123964588Y-103548523D01*
G37*
G36*
X149325607Y-102076506D02*
G01*
X149330416Y-102079719D01*
X149396780Y-102100498D01*
X149467577Y-102079710D01*
X149472374Y-102076505D01*
X149474370Y-102076374D01*
X149475481Y-102078037D01*
X149475148Y-102079279D01*
X149463439Y-102096803D01*
X149458140Y-102123439D01*
X149458140Y-102758041D01*
X149463439Y-102784677D01*
X149475147Y-102802200D01*
X149475278Y-102804196D01*
X149473615Y-102805307D01*
X149472373Y-102804974D01*
X149467564Y-102801761D01*
X149401200Y-102780982D01*
X149330402Y-102801770D01*
X149325607Y-102804974D01*
X149323612Y-102805105D01*
X149322500Y-102803442D01*
X149322833Y-102802200D01*
X149334541Y-102784677D01*
X149339840Y-102758041D01*
X149339840Y-102123439D01*
X149334541Y-102096803D01*
X149322833Y-102079280D01*
X149322702Y-102077284D01*
X149324365Y-102076173D01*
X149325607Y-102076506D01*
G37*
G36*
X126876582Y-100666192D02*
G01*
X126904350Y-100729863D01*
X126961963Y-100768299D01*
X127031213Y-100769487D01*
X127090151Y-100733021D01*
X127116977Y-100682878D01*
X127118675Y-100681822D01*
X127120439Y-100682765D01*
X127120735Y-100683967D01*
X127115880Y-100750078D01*
X127115880Y-102349868D01*
X127127232Y-102432737D01*
X127126477Y-102434588D01*
X127124495Y-102434860D01*
X127123418Y-102433808D01*
X127095650Y-102370137D01*
X127038037Y-102331701D01*
X126968787Y-102330513D01*
X126909849Y-102366979D01*
X126883023Y-102417122D01*
X126881325Y-102418178D01*
X126879561Y-102417235D01*
X126879265Y-102416033D01*
X126884120Y-102349922D01*
X126884120Y-100750132D01*
X126872768Y-100667263D01*
X126873523Y-100665412D01*
X126875505Y-100665140D01*
X126876582Y-100666192D01*
G37*
G36*
X131956582Y-100666192D02*
G01*
X131984350Y-100729863D01*
X132041963Y-100768299D01*
X132111213Y-100769487D01*
X132170151Y-100733021D01*
X132196977Y-100682878D01*
X132198675Y-100681822D01*
X132200439Y-100682765D01*
X132200735Y-100683967D01*
X132195880Y-100750078D01*
X132195880Y-102349868D01*
X132207232Y-102432737D01*
X132206477Y-102434588D01*
X132204495Y-102434860D01*
X132203418Y-102433808D01*
X132175650Y-102370137D01*
X132118037Y-102331701D01*
X132048787Y-102330513D01*
X131989849Y-102366979D01*
X131963023Y-102417122D01*
X131961325Y-102418178D01*
X131959561Y-102417235D01*
X131959265Y-102416033D01*
X131964120Y-102349922D01*
X131964120Y-100750132D01*
X131952768Y-100667263D01*
X131953523Y-100665412D01*
X131955505Y-100665140D01*
X131956582Y-100666192D01*
G37*
G36*
X129416582Y-100666192D02*
G01*
X129444350Y-100729863D01*
X129501963Y-100768299D01*
X129571213Y-100769487D01*
X129630151Y-100733021D01*
X129656977Y-100682878D01*
X129658675Y-100681822D01*
X129660439Y-100682765D01*
X129660735Y-100683967D01*
X129655880Y-100750078D01*
X129655880Y-102349868D01*
X129667232Y-102432737D01*
X129666477Y-102434588D01*
X129664495Y-102434860D01*
X129663418Y-102433808D01*
X129635650Y-102370137D01*
X129578037Y-102331701D01*
X129508787Y-102330513D01*
X129449849Y-102366979D01*
X129423023Y-102417122D01*
X129421325Y-102418178D01*
X129419561Y-102417235D01*
X129419265Y-102416033D01*
X129424120Y-102349922D01*
X129424120Y-100750132D01*
X129412768Y-100667263D01*
X129413523Y-100665412D01*
X129415505Y-100665140D01*
X129416582Y-100666192D01*
G37*
G36*
X134496582Y-100666192D02*
G01*
X134524350Y-100729863D01*
X134581963Y-100768299D01*
X134651213Y-100769487D01*
X134710151Y-100733021D01*
X134736977Y-100682878D01*
X134738675Y-100681822D01*
X134740439Y-100682765D01*
X134740735Y-100683967D01*
X134735880Y-100750078D01*
X134735880Y-102349868D01*
X134747232Y-102432737D01*
X134746477Y-102434588D01*
X134744495Y-102434860D01*
X134743418Y-102433808D01*
X134715650Y-102370137D01*
X134658037Y-102331701D01*
X134588787Y-102330513D01*
X134529849Y-102366979D01*
X134503023Y-102417122D01*
X134501325Y-102418178D01*
X134499561Y-102417235D01*
X134499265Y-102416033D01*
X134504120Y-102349922D01*
X134504120Y-100750132D01*
X134492768Y-100667263D01*
X134493523Y-100665412D01*
X134495505Y-100665140D01*
X134496582Y-100666192D01*
G37*
G36*
X128146582Y-100666192D02*
G01*
X128174350Y-100729863D01*
X128231963Y-100768299D01*
X128301213Y-100769487D01*
X128360151Y-100733021D01*
X128386977Y-100682878D01*
X128388675Y-100681822D01*
X128390439Y-100682765D01*
X128390735Y-100683967D01*
X128385880Y-100750078D01*
X128385880Y-102349868D01*
X128397232Y-102432737D01*
X128396477Y-102434588D01*
X128394495Y-102434860D01*
X128393418Y-102433808D01*
X128365650Y-102370137D01*
X128308037Y-102331701D01*
X128238787Y-102330513D01*
X128179849Y-102366979D01*
X128153023Y-102417122D01*
X128151325Y-102418178D01*
X128149561Y-102417235D01*
X128149265Y-102416033D01*
X128154120Y-102349922D01*
X128154120Y-100750132D01*
X128142768Y-100667263D01*
X128143523Y-100665412D01*
X128145505Y-100665140D01*
X128146582Y-100666192D01*
G37*
G36*
X130686582Y-100666192D02*
G01*
X130714350Y-100729863D01*
X130771963Y-100768299D01*
X130841213Y-100769487D01*
X130900151Y-100733021D01*
X130926977Y-100682878D01*
X130928675Y-100681822D01*
X130930439Y-100682765D01*
X130930735Y-100683967D01*
X130925880Y-100750078D01*
X130925880Y-102349868D01*
X130937232Y-102432737D01*
X130936477Y-102434588D01*
X130934495Y-102434860D01*
X130933418Y-102433808D01*
X130905650Y-102370137D01*
X130848037Y-102331701D01*
X130778787Y-102330513D01*
X130719849Y-102366979D01*
X130693023Y-102417122D01*
X130691325Y-102418178D01*
X130689561Y-102417235D01*
X130689265Y-102416033D01*
X130694120Y-102349922D01*
X130694120Y-100750132D01*
X130682768Y-100667263D01*
X130683523Y-100665412D01*
X130685505Y-100665140D01*
X130686582Y-100666192D01*
G37*
G36*
X133226582Y-100666192D02*
G01*
X133254350Y-100729863D01*
X133311963Y-100768299D01*
X133381213Y-100769487D01*
X133440151Y-100733021D01*
X133466977Y-100682878D01*
X133468675Y-100681822D01*
X133470439Y-100682765D01*
X133470735Y-100683967D01*
X133465880Y-100750078D01*
X133465880Y-102349868D01*
X133477232Y-102432737D01*
X133476477Y-102434588D01*
X133474495Y-102434860D01*
X133473418Y-102433808D01*
X133445650Y-102370137D01*
X133388037Y-102331701D01*
X133318787Y-102330513D01*
X133259849Y-102366979D01*
X133233023Y-102417122D01*
X133231325Y-102418178D01*
X133229561Y-102417235D01*
X133229265Y-102416033D01*
X133234120Y-102349922D01*
X133234120Y-100750132D01*
X133222768Y-100667263D01*
X133223523Y-100665412D01*
X133225505Y-100665140D01*
X133226582Y-100666192D01*
G37*
G36*
X135766582Y-100666192D02*
G01*
X135794350Y-100729863D01*
X135851963Y-100768299D01*
X135921213Y-100769487D01*
X135980151Y-100733021D01*
X136006977Y-100682878D01*
X136008675Y-100681822D01*
X136010439Y-100682765D01*
X136010735Y-100683967D01*
X136005880Y-100750078D01*
X136005880Y-102349868D01*
X136017232Y-102432737D01*
X136016477Y-102434588D01*
X136014495Y-102434860D01*
X136013418Y-102433808D01*
X135985650Y-102370137D01*
X135928037Y-102331701D01*
X135858787Y-102330513D01*
X135799849Y-102366979D01*
X135773023Y-102417122D01*
X135771325Y-102418178D01*
X135769561Y-102417235D01*
X135769265Y-102416033D01*
X135774120Y-102349922D01*
X135774120Y-100750132D01*
X135762768Y-100667263D01*
X135763523Y-100665412D01*
X135765505Y-100665140D01*
X135766582Y-100666192D01*
G37*
G36*
X137036582Y-100666192D02*
G01*
X137064350Y-100729863D01*
X137121963Y-100768299D01*
X137191213Y-100769487D01*
X137250151Y-100733021D01*
X137276977Y-100682878D01*
X137278675Y-100681822D01*
X137280439Y-100682765D01*
X137280735Y-100683967D01*
X137275880Y-100750078D01*
X137275880Y-102349868D01*
X137287232Y-102432737D01*
X137286477Y-102434588D01*
X137284495Y-102434860D01*
X137283418Y-102433808D01*
X137255650Y-102370137D01*
X137198037Y-102331701D01*
X137128787Y-102330513D01*
X137069849Y-102366979D01*
X137043023Y-102417122D01*
X137041325Y-102418178D01*
X137039561Y-102417235D01*
X137039265Y-102416033D01*
X137044120Y-102349922D01*
X137044120Y-100750132D01*
X137032768Y-100667263D01*
X137033523Y-100665412D01*
X137035505Y-100665140D01*
X137036582Y-100666192D01*
G37*
G36*
X150196869Y-101829597D02*
G01*
X150196408Y-101831011D01*
X150157084Y-101878065D01*
X150148451Y-101946781D01*
X150178342Y-102009256D01*
X150237403Y-102045741D01*
X150270051Y-102050138D01*
X150271634Y-102051360D01*
X150271367Y-102053342D01*
X150269784Y-102054120D01*
X149527459Y-102054120D01*
X149506590Y-102058271D01*
X149504696Y-102057628D01*
X149504306Y-102055666D01*
X149505089Y-102054646D01*
X149507616Y-102052958D01*
X149552224Y-101999583D01*
X149560857Y-101930867D01*
X149530894Y-101868237D01*
X149507750Y-101848184D01*
X149497467Y-101841313D01*
X149496582Y-101839519D01*
X149497693Y-101837856D01*
X149498968Y-101837688D01*
X149519839Y-101841840D01*
X150154441Y-101841840D01*
X150181077Y-101836541D01*
X150193762Y-101828065D01*
X150195758Y-101827934D01*
X150196869Y-101829597D01*
G37*
G36*
X151512589Y-100336077D02*
G01*
X151512128Y-100337491D01*
X151472804Y-100384545D01*
X151464171Y-100453261D01*
X151494062Y-100515736D01*
X151553123Y-100552221D01*
X151585771Y-100556618D01*
X151587354Y-100557840D01*
X151587087Y-100559822D01*
X151585504Y-100560600D01*
X151043839Y-100560600D01*
X151017203Y-100565899D01*
X151004520Y-100574373D01*
X151002524Y-100574504D01*
X151001413Y-100572841D01*
X151001874Y-100571427D01*
X151041198Y-100524372D01*
X151049829Y-100455657D01*
X151019939Y-100393182D01*
X150960877Y-100356698D01*
X150928237Y-100352302D01*
X150926654Y-100351080D01*
X150926921Y-100349098D01*
X150928504Y-100348320D01*
X151470161Y-100348320D01*
X151496797Y-100343021D01*
X151509482Y-100334545D01*
X151511478Y-100334414D01*
X151512589Y-100336077D01*
G37*
G36*
X126335912Y-94827312D02*
G01*
X126336476Y-94829231D01*
X126335643Y-94830422D01*
X126323953Y-94838233D01*
X126308979Y-94860643D01*
X126303680Y-94887279D01*
X126303680Y-95686881D01*
X126308979Y-95713517D01*
X126323953Y-95735927D01*
X126346363Y-95750901D01*
X126372999Y-95756200D01*
X126672601Y-95756200D01*
X126699237Y-95750901D01*
X126721647Y-95735927D01*
X126736621Y-95713517D01*
X126741958Y-95686690D01*
X126743277Y-95685186D01*
X126743920Y-95685080D01*
X126747384Y-95685080D01*
X126749116Y-95686080D01*
X126749376Y-95686902D01*
X126753770Y-95735970D01*
X126796241Y-95790639D01*
X126868759Y-95814057D01*
X126870100Y-95815541D01*
X126869485Y-95817444D01*
X126868144Y-95817960D01*
X126847999Y-95817960D01*
X126821363Y-95823259D01*
X126798953Y-95838233D01*
X126783979Y-95860643D01*
X126778680Y-95887279D01*
X126778680Y-96186881D01*
X126783979Y-96213517D01*
X126798953Y-96235927D01*
X126821363Y-96250901D01*
X126847999Y-96256200D01*
X127697601Y-96256200D01*
X127724237Y-96250901D01*
X127746647Y-96235927D01*
X127754176Y-96224660D01*
X127755970Y-96223775D01*
X127757633Y-96224886D01*
X127757748Y-96226369D01*
X127739431Y-96284870D01*
X127758040Y-96348249D01*
X127757568Y-96350192D01*
X127755649Y-96350756D01*
X127754458Y-96349923D01*
X127746647Y-96338233D01*
X127724237Y-96323259D01*
X127697601Y-96317960D01*
X126847999Y-96317960D01*
X126821363Y-96323259D01*
X126798953Y-96338233D01*
X126783979Y-96360643D01*
X126778680Y-96387279D01*
X126778680Y-96686881D01*
X126783979Y-96713517D01*
X126798953Y-96735927D01*
X126821363Y-96750901D01*
X126847999Y-96756200D01*
X127697601Y-96756200D01*
X127724237Y-96750901D01*
X127746647Y-96735927D01*
X127754176Y-96724660D01*
X127755970Y-96723775D01*
X127757633Y-96724886D01*
X127757748Y-96726369D01*
X127739431Y-96784870D01*
X127758040Y-96848249D01*
X127757568Y-96850192D01*
X127755649Y-96850756D01*
X127754458Y-96849923D01*
X127746647Y-96838233D01*
X127724237Y-96823259D01*
X127697601Y-96817960D01*
X126847999Y-96817960D01*
X126821363Y-96823259D01*
X126798953Y-96838233D01*
X126783979Y-96860643D01*
X126778680Y-96887279D01*
X126778680Y-97186881D01*
X126783979Y-97213517D01*
X126798953Y-97235927D01*
X126821363Y-97250901D01*
X126847999Y-97256200D01*
X127697601Y-97256200D01*
X127724237Y-97250901D01*
X127746647Y-97235927D01*
X127754176Y-97224660D01*
X127755970Y-97223775D01*
X127757633Y-97224886D01*
X127757748Y-97226369D01*
X127739431Y-97284870D01*
X127758040Y-97348249D01*
X127757568Y-97350192D01*
X127755649Y-97350756D01*
X127754458Y-97349923D01*
X127746647Y-97338233D01*
X127724237Y-97323259D01*
X127697601Y-97317960D01*
X126847999Y-97317960D01*
X126821363Y-97323259D01*
X126798953Y-97338233D01*
X126783979Y-97360643D01*
X126778680Y-97387279D01*
X126778680Y-97686881D01*
X126783979Y-97713517D01*
X126798953Y-97735927D01*
X126821363Y-97750901D01*
X126847999Y-97756200D01*
X127697601Y-97756200D01*
X127724237Y-97750901D01*
X127746647Y-97735927D01*
X127754176Y-97724660D01*
X127755970Y-97723775D01*
X127757633Y-97724886D01*
X127757748Y-97726369D01*
X127739431Y-97784870D01*
X127758040Y-97848249D01*
X127757568Y-97850192D01*
X127755649Y-97850756D01*
X127754458Y-97849923D01*
X127746647Y-97838233D01*
X127724237Y-97823259D01*
X127697601Y-97817960D01*
X126847999Y-97817960D01*
X126821363Y-97823259D01*
X126798953Y-97838233D01*
X126783979Y-97860643D01*
X126778680Y-97887279D01*
X126778680Y-98186881D01*
X126783979Y-98213517D01*
X126798953Y-98235927D01*
X126821363Y-98250901D01*
X126847999Y-98256200D01*
X127697601Y-98256200D01*
X127724237Y-98250901D01*
X127746647Y-98235927D01*
X127754176Y-98224660D01*
X127755970Y-98223775D01*
X127757633Y-98224886D01*
X127757748Y-98226369D01*
X127739431Y-98284870D01*
X127758040Y-98348249D01*
X127757568Y-98350192D01*
X127755649Y-98350756D01*
X127754458Y-98349923D01*
X127746647Y-98338233D01*
X127724237Y-98323259D01*
X127697601Y-98317960D01*
X126847999Y-98317960D01*
X126821363Y-98323259D01*
X126798953Y-98338233D01*
X126783979Y-98360643D01*
X126778680Y-98387279D01*
X126778680Y-98686881D01*
X126783979Y-98713517D01*
X126798953Y-98735927D01*
X126821363Y-98750901D01*
X126847999Y-98756200D01*
X126868146Y-98756200D01*
X126869878Y-98757200D01*
X126869878Y-98759200D01*
X126868709Y-98760119D01*
X126801694Y-98779796D01*
X126756359Y-98832117D01*
X126749925Y-98887313D01*
X126748731Y-98888917D01*
X126747938Y-98889081D01*
X126743920Y-98889081D01*
X126742188Y-98888081D01*
X126742021Y-98887457D01*
X126741958Y-98887470D01*
X126736621Y-98860643D01*
X126721647Y-98838233D01*
X126699237Y-98823259D01*
X126672601Y-98817960D01*
X126372999Y-98817960D01*
X126346363Y-98823259D01*
X126323953Y-98838233D01*
X126308979Y-98860643D01*
X126303680Y-98887279D01*
X126303680Y-99686881D01*
X126308979Y-99713517D01*
X126323953Y-99735927D01*
X126335220Y-99743456D01*
X126336105Y-99745250D01*
X126334994Y-99746913D01*
X126333511Y-99747028D01*
X126275010Y-99728711D01*
X126211631Y-99747320D01*
X126209688Y-99746848D01*
X126209124Y-99744929D01*
X126209957Y-99743738D01*
X126221647Y-99735927D01*
X126236621Y-99713517D01*
X126241920Y-99686881D01*
X126241920Y-98887279D01*
X126236621Y-98860643D01*
X126221647Y-98838233D01*
X126199237Y-98823259D01*
X126172601Y-98817960D01*
X125872999Y-98817960D01*
X125846363Y-98823259D01*
X125823953Y-98838233D01*
X125808979Y-98860643D01*
X125803680Y-98887279D01*
X125803680Y-99686881D01*
X125808979Y-99713517D01*
X125823953Y-99735927D01*
X125835220Y-99743456D01*
X125836105Y-99745250D01*
X125834994Y-99746913D01*
X125833511Y-99747028D01*
X125775010Y-99728711D01*
X125711631Y-99747320D01*
X125709688Y-99746848D01*
X125709124Y-99744929D01*
X125709957Y-99743738D01*
X125721647Y-99735927D01*
X125736621Y-99713517D01*
X125741920Y-99686881D01*
X125741920Y-98887279D01*
X125736621Y-98860643D01*
X125721647Y-98838233D01*
X125699237Y-98823259D01*
X125672601Y-98817960D01*
X125372999Y-98817960D01*
X125346363Y-98823259D01*
X125323953Y-98838233D01*
X125308979Y-98860643D01*
X125303680Y-98887279D01*
X125303680Y-99686881D01*
X125308979Y-99713517D01*
X125323953Y-99735927D01*
X125335220Y-99743456D01*
X125336105Y-99745250D01*
X125334994Y-99746913D01*
X125333511Y-99747028D01*
X125275010Y-99728711D01*
X125211631Y-99747320D01*
X125209688Y-99746848D01*
X125209124Y-99744929D01*
X125209957Y-99743738D01*
X125221647Y-99735927D01*
X125236621Y-99713517D01*
X125241920Y-99686881D01*
X125241920Y-98887279D01*
X125236621Y-98860643D01*
X125221647Y-98838233D01*
X125199237Y-98823259D01*
X125172601Y-98817960D01*
X124872999Y-98817960D01*
X124846363Y-98823259D01*
X124823953Y-98838233D01*
X124808979Y-98860643D01*
X124803680Y-98887279D01*
X124803680Y-99686881D01*
X124808979Y-99713517D01*
X124823953Y-99735927D01*
X124835220Y-99743456D01*
X124836105Y-99745250D01*
X124834994Y-99746913D01*
X124833511Y-99747028D01*
X124775010Y-99728711D01*
X124711631Y-99747320D01*
X124709688Y-99746848D01*
X124709124Y-99744929D01*
X124709957Y-99743738D01*
X124721647Y-99735927D01*
X124736621Y-99713517D01*
X124741920Y-99686881D01*
X124741920Y-98887279D01*
X124736621Y-98860643D01*
X124721647Y-98838233D01*
X124699237Y-98823259D01*
X124672601Y-98817960D01*
X124372999Y-98817960D01*
X124346363Y-98823259D01*
X124323953Y-98838233D01*
X124308979Y-98860643D01*
X124303680Y-98887279D01*
X124303680Y-99686881D01*
X124308979Y-99713517D01*
X124323953Y-99735927D01*
X124335220Y-99743456D01*
X124336105Y-99745250D01*
X124334994Y-99746913D01*
X124333511Y-99747028D01*
X124275010Y-99728711D01*
X124211631Y-99747320D01*
X124209688Y-99746848D01*
X124209124Y-99744929D01*
X124209957Y-99743738D01*
X124221647Y-99735927D01*
X124236621Y-99713517D01*
X124241920Y-99686881D01*
X124241920Y-98887279D01*
X124236621Y-98860643D01*
X124221647Y-98838233D01*
X124199237Y-98823259D01*
X124172601Y-98817960D01*
X123872999Y-98817960D01*
X123846363Y-98823259D01*
X123823953Y-98838233D01*
X123808979Y-98860643D01*
X123803642Y-98887470D01*
X123802323Y-98888974D01*
X123801680Y-98889080D01*
X123798216Y-98889080D01*
X123796484Y-98888080D01*
X123796224Y-98887258D01*
X123791830Y-98838190D01*
X123749359Y-98783521D01*
X123676841Y-98760103D01*
X123675500Y-98758619D01*
X123676115Y-98756716D01*
X123677456Y-98756200D01*
X123697601Y-98756200D01*
X123724237Y-98750901D01*
X123746647Y-98735927D01*
X123761621Y-98713517D01*
X123766920Y-98686881D01*
X123766920Y-98561881D01*
X123928680Y-98561881D01*
X123933979Y-98588517D01*
X123948953Y-98610927D01*
X123971363Y-98625901D01*
X123997999Y-98631200D01*
X126547601Y-98631200D01*
X126574237Y-98625901D01*
X126596647Y-98610927D01*
X126611621Y-98588517D01*
X126616920Y-98561881D01*
X126616920Y-96012279D01*
X126611621Y-95985643D01*
X126596647Y-95963233D01*
X126574237Y-95948259D01*
X126547601Y-95942960D01*
X123997999Y-95942960D01*
X123971363Y-95948259D01*
X123948953Y-95963233D01*
X123933979Y-95985643D01*
X123928680Y-96012279D01*
X123928680Y-98561881D01*
X123766920Y-98561881D01*
X123766920Y-98387279D01*
X123761621Y-98360643D01*
X123746647Y-98338233D01*
X123724237Y-98323259D01*
X123697601Y-98317960D01*
X122847999Y-98317960D01*
X122821363Y-98323259D01*
X122798953Y-98338233D01*
X122791424Y-98349500D01*
X122789630Y-98350385D01*
X122787967Y-98349274D01*
X122787852Y-98347791D01*
X122806169Y-98289290D01*
X122787560Y-98225911D01*
X122788032Y-98223968D01*
X122789951Y-98223404D01*
X122791142Y-98224237D01*
X122798953Y-98235927D01*
X122821363Y-98250901D01*
X122847999Y-98256200D01*
X123697601Y-98256200D01*
X123724237Y-98250901D01*
X123746647Y-98235927D01*
X123761621Y-98213517D01*
X123766920Y-98186881D01*
X123766920Y-97887279D01*
X123761621Y-97860643D01*
X123746647Y-97838233D01*
X123724237Y-97823259D01*
X123697601Y-97817960D01*
X122847999Y-97817960D01*
X122821363Y-97823259D01*
X122798953Y-97838233D01*
X122791424Y-97849500D01*
X122789630Y-97850385D01*
X122787967Y-97849274D01*
X122787852Y-97847791D01*
X122806169Y-97789290D01*
X122787560Y-97725911D01*
X122788032Y-97723968D01*
X122789951Y-97723404D01*
X122791142Y-97724237D01*
X122798953Y-97735927D01*
X122821363Y-97750901D01*
X122847999Y-97756200D01*
X123697601Y-97756200D01*
X123724237Y-97750901D01*
X123746647Y-97735927D01*
X123761621Y-97713517D01*
X123766920Y-97686881D01*
X123766920Y-97387279D01*
X123761621Y-97360643D01*
X123746647Y-97338233D01*
X123724237Y-97323259D01*
X123697601Y-97317960D01*
X122847999Y-97317960D01*
X122821363Y-97323259D01*
X122798953Y-97338233D01*
X122791424Y-97349500D01*
X122789630Y-97350385D01*
X122787967Y-97349274D01*
X122787852Y-97347791D01*
X122806169Y-97289290D01*
X122787560Y-97225911D01*
X122788032Y-97223968D01*
X122789951Y-97223404D01*
X122791142Y-97224237D01*
X122798953Y-97235927D01*
X122821363Y-97250901D01*
X122847999Y-97256200D01*
X123697601Y-97256200D01*
X123724237Y-97250901D01*
X123746647Y-97235927D01*
X123761621Y-97213517D01*
X123766920Y-97186881D01*
X123766920Y-96887279D01*
X123761621Y-96860643D01*
X123746647Y-96838233D01*
X123724237Y-96823259D01*
X123697601Y-96817960D01*
X122847999Y-96817960D01*
X122821363Y-96823259D01*
X122798953Y-96838233D01*
X122791424Y-96849500D01*
X122789630Y-96850385D01*
X122787967Y-96849274D01*
X122787852Y-96847791D01*
X122806169Y-96789290D01*
X122787560Y-96725911D01*
X122788032Y-96723968D01*
X122789951Y-96723404D01*
X122791142Y-96724237D01*
X122798953Y-96735927D01*
X122821363Y-96750901D01*
X122847999Y-96756200D01*
X123697601Y-96756200D01*
X123724237Y-96750901D01*
X123746647Y-96735927D01*
X123761621Y-96713517D01*
X123766920Y-96686881D01*
X123766920Y-96387279D01*
X123761621Y-96360643D01*
X123746647Y-96338233D01*
X123724237Y-96323259D01*
X123697601Y-96317960D01*
X122847999Y-96317960D01*
X122821363Y-96323259D01*
X122798953Y-96338233D01*
X122791424Y-96349500D01*
X122789630Y-96350385D01*
X122787967Y-96349274D01*
X122787852Y-96347791D01*
X122806169Y-96289290D01*
X122787560Y-96225911D01*
X122788032Y-96223968D01*
X122789951Y-96223404D01*
X122791142Y-96224237D01*
X122798953Y-96235927D01*
X122821363Y-96250901D01*
X122847999Y-96256200D01*
X123697601Y-96256200D01*
X123724237Y-96250901D01*
X123746647Y-96235927D01*
X123761621Y-96213517D01*
X123766920Y-96186881D01*
X123766920Y-95887279D01*
X123761621Y-95860643D01*
X123746647Y-95838233D01*
X123724237Y-95823259D01*
X123697601Y-95817960D01*
X123677454Y-95817960D01*
X123675722Y-95816960D01*
X123675722Y-95814960D01*
X123676891Y-95814041D01*
X123743906Y-95794364D01*
X123789241Y-95742043D01*
X123795675Y-95686847D01*
X123796869Y-95685243D01*
X123797662Y-95685079D01*
X123801680Y-95685079D01*
X123803412Y-95686079D01*
X123803579Y-95686703D01*
X123803642Y-95686690D01*
X123808979Y-95713517D01*
X123823953Y-95735927D01*
X123846363Y-95750901D01*
X123872999Y-95756200D01*
X124172601Y-95756200D01*
X124199237Y-95750901D01*
X124221647Y-95735927D01*
X124236621Y-95713517D01*
X124241920Y-95686881D01*
X124241920Y-94887279D01*
X124236621Y-94860643D01*
X124221647Y-94838233D01*
X124210380Y-94830704D01*
X124209495Y-94828910D01*
X124210606Y-94827247D01*
X124212089Y-94827132D01*
X124270590Y-94845449D01*
X124333969Y-94826840D01*
X124335912Y-94827312D01*
X124336476Y-94829231D01*
X124335643Y-94830422D01*
X124323953Y-94838233D01*
X124308979Y-94860643D01*
X124303680Y-94887279D01*
X124303680Y-95686881D01*
X124308979Y-95713517D01*
X124323953Y-95735927D01*
X124346363Y-95750901D01*
X124372999Y-95756200D01*
X124672601Y-95756200D01*
X124699237Y-95750901D01*
X124721647Y-95735927D01*
X124736621Y-95713517D01*
X124741920Y-95686881D01*
X124741920Y-94887279D01*
X124736621Y-94860643D01*
X124721647Y-94838233D01*
X124710380Y-94830704D01*
X124709495Y-94828910D01*
X124710606Y-94827247D01*
X124712089Y-94827132D01*
X124770590Y-94845449D01*
X124833969Y-94826840D01*
X124835912Y-94827312D01*
X124836476Y-94829231D01*
X124835643Y-94830422D01*
X124823953Y-94838233D01*
X124808979Y-94860643D01*
X124803680Y-94887279D01*
X124803680Y-95686881D01*
X124808979Y-95713517D01*
X124823953Y-95735927D01*
X124846363Y-95750901D01*
X124872999Y-95756200D01*
X125172601Y-95756200D01*
X125199237Y-95750901D01*
X125221647Y-95735927D01*
X125236621Y-95713517D01*
X125241920Y-95686881D01*
X125241920Y-94887279D01*
X125236621Y-94860643D01*
X125221647Y-94838233D01*
X125210380Y-94830704D01*
X125209495Y-94828910D01*
X125210606Y-94827247D01*
X125212089Y-94827132D01*
X125270590Y-94845449D01*
X125333969Y-94826840D01*
X125335912Y-94827312D01*
X125336476Y-94829231D01*
X125335643Y-94830422D01*
X125323953Y-94838233D01*
X125308979Y-94860643D01*
X125303680Y-94887279D01*
X125303680Y-95686881D01*
X125308979Y-95713517D01*
X125323953Y-95735927D01*
X125346363Y-95750901D01*
X125372999Y-95756200D01*
X125672601Y-95756200D01*
X125699237Y-95750901D01*
X125721647Y-95735927D01*
X125736621Y-95713517D01*
X125741920Y-95686881D01*
X125741920Y-94887279D01*
X125736621Y-94860643D01*
X125721647Y-94838233D01*
X125710380Y-94830704D01*
X125709495Y-94828910D01*
X125710606Y-94827247D01*
X125712089Y-94827132D01*
X125770590Y-94845449D01*
X125833969Y-94826840D01*
X125835912Y-94827312D01*
X125836476Y-94829231D01*
X125835643Y-94830422D01*
X125823953Y-94838233D01*
X125808979Y-94860643D01*
X125803680Y-94887279D01*
X125803680Y-95686881D01*
X125808979Y-95713517D01*
X125823953Y-95735927D01*
X125846363Y-95750901D01*
X125872999Y-95756200D01*
X126172601Y-95756200D01*
X126199237Y-95750901D01*
X126221647Y-95735927D01*
X126236621Y-95713517D01*
X126241920Y-95686881D01*
X126241920Y-94887279D01*
X126236621Y-94860643D01*
X126221647Y-94838233D01*
X126210380Y-94830704D01*
X126209495Y-94828910D01*
X126210606Y-94827247D01*
X126212089Y-94827132D01*
X126270590Y-94845449D01*
X126333969Y-94826840D01*
X126335912Y-94827312D01*
G37*
G36*
X149240949Y-99105584D02*
G01*
X149241121Y-99106838D01*
X149230611Y-99162794D01*
X149256656Y-99226966D01*
X149313263Y-99266872D01*
X149382638Y-99269847D01*
X149388312Y-99267730D01*
X149390284Y-99268062D01*
X149390983Y-99269936D01*
X149390122Y-99271267D01*
X149315769Y-99320949D01*
X149260768Y-99403262D01*
X149258974Y-99404147D01*
X149257311Y-99403036D01*
X149257139Y-99401782D01*
X149267649Y-99345826D01*
X149241604Y-99281654D01*
X149184997Y-99241748D01*
X149115622Y-99238773D01*
X149109948Y-99240890D01*
X149107976Y-99240558D01*
X149107277Y-99238684D01*
X149108138Y-99237353D01*
X149182491Y-99187671D01*
X149237492Y-99105358D01*
X149239286Y-99104473D01*
X149240949Y-99105584D01*
G37*
G36*
X148765707Y-99113318D02*
G01*
X148815389Y-99187671D01*
X148897702Y-99242672D01*
X148898587Y-99244466D01*
X148897476Y-99246129D01*
X148896222Y-99246301D01*
X148840266Y-99235791D01*
X148776094Y-99261836D01*
X148736188Y-99318443D01*
X148733213Y-99387818D01*
X148735330Y-99393492D01*
X148734998Y-99395464D01*
X148733124Y-99396163D01*
X148731793Y-99395302D01*
X148682111Y-99320949D01*
X148599798Y-99265948D01*
X148598913Y-99264154D01*
X148600024Y-99262491D01*
X148601278Y-99262319D01*
X148657234Y-99272829D01*
X148721406Y-99246784D01*
X148761312Y-99190177D01*
X148764287Y-99120802D01*
X148762170Y-99115128D01*
X148762502Y-99113156D01*
X148764376Y-99112457D01*
X148765707Y-99113318D01*
G37*
G36*
X148740569Y-98605204D02*
G01*
X148740741Y-98606458D01*
X148730231Y-98662414D01*
X148756276Y-98726586D01*
X148812883Y-98766492D01*
X148882258Y-98769467D01*
X148887932Y-98767350D01*
X148889904Y-98767682D01*
X148890603Y-98769556D01*
X148889742Y-98770887D01*
X148815389Y-98820569D01*
X148760388Y-98902882D01*
X148758594Y-98903767D01*
X148756931Y-98902656D01*
X148756759Y-98901402D01*
X148767269Y-98845446D01*
X148741224Y-98781274D01*
X148684617Y-98741368D01*
X148615242Y-98738393D01*
X148609568Y-98740510D01*
X148607596Y-98740178D01*
X148606897Y-98738304D01*
X148607758Y-98736973D01*
X148682111Y-98687291D01*
X148737112Y-98604978D01*
X148738906Y-98604093D01*
X148740569Y-98605204D01*
G37*
G36*
X149266087Y-98612938D02*
G01*
X149315769Y-98687291D01*
X149398082Y-98742292D01*
X149398967Y-98744086D01*
X149397856Y-98745749D01*
X149396602Y-98745921D01*
X149340646Y-98735411D01*
X149276474Y-98761456D01*
X149236568Y-98818063D01*
X149233593Y-98887438D01*
X149235710Y-98893112D01*
X149235378Y-98895084D01*
X149233504Y-98895783D01*
X149232173Y-98894922D01*
X149182491Y-98820569D01*
X149100178Y-98765568D01*
X149099293Y-98763774D01*
X149100404Y-98762111D01*
X149101658Y-98761939D01*
X149157614Y-98772449D01*
X149221786Y-98746404D01*
X149261692Y-98689797D01*
X149264667Y-98620422D01*
X149262550Y-98614748D01*
X149262882Y-98612776D01*
X149264756Y-98612077D01*
X149266087Y-98612938D01*
G37*
G36*
X152367184Y-98126166D02*
G01*
X152460136Y-98175381D01*
X152615930Y-98214513D01*
X152776559Y-98215355D01*
X152932758Y-98177855D01*
X153025132Y-98130177D01*
X153027129Y-98130271D01*
X153028047Y-98132048D01*
X153027097Y-98133657D01*
X153001558Y-98149369D01*
X152954984Y-98201030D01*
X152943780Y-98269378D01*
X152971306Y-98332930D01*
X153028939Y-98371592D01*
X153066068Y-98377303D01*
X153067628Y-98378555D01*
X153067324Y-98380532D01*
X153065764Y-98381280D01*
X152332061Y-98381280D01*
X152330329Y-98380280D01*
X152330329Y-98378280D01*
X152331498Y-98377361D01*
X152398510Y-98357685D01*
X152443865Y-98305342D01*
X152453722Y-98236789D01*
X152424889Y-98173654D01*
X152397846Y-98150356D01*
X152365176Y-98129623D01*
X152364250Y-98127850D01*
X152365321Y-98126162D01*
X152367184Y-98126166D01*
G37*
G36*
X150352139Y-93037536D02*
G01*
X150371815Y-93104548D01*
X150424158Y-93149903D01*
X150492711Y-93159760D01*
X150555856Y-93130922D01*
X150565749Y-93119709D01*
X150567645Y-93119072D01*
X150569145Y-93120395D01*
X150568912Y-93122143D01*
X150563259Y-93130603D01*
X150557960Y-93157239D01*
X150557960Y-94071241D01*
X150562112Y-94092111D01*
X150561469Y-94094005D01*
X150559507Y-94094395D01*
X150558487Y-94093612D01*
X150556370Y-94090444D01*
X150502995Y-94045837D01*
X150434279Y-94037204D01*
X150371649Y-94067168D01*
X150351600Y-94090305D01*
X150347693Y-94096152D01*
X150345899Y-94097037D01*
X150344236Y-94095926D01*
X150344068Y-94094651D01*
X150348220Y-94073781D01*
X150348220Y-93038099D01*
X150349220Y-93036367D01*
X150351220Y-93036367D01*
X150352139Y-93037536D01*
G37*
G36*
X152829459Y-93751940D02*
G01*
X153669613Y-93751940D01*
X153671345Y-93752940D01*
X153671345Y-93754940D01*
X153670176Y-93755859D01*
X153603164Y-93775535D01*
X153557809Y-93827878D01*
X153547952Y-93896431D01*
X153576790Y-93959576D01*
X153597627Y-93977960D01*
X153598264Y-93979856D01*
X153596941Y-93981356D01*
X153595914Y-93981422D01*
X153573281Y-93976920D01*
X152733127Y-93976920D01*
X152731395Y-93975920D01*
X152731395Y-93973920D01*
X152732564Y-93973001D01*
X152799576Y-93953325D01*
X152844931Y-93900982D01*
X152854788Y-93832429D01*
X152825950Y-93769284D01*
X152805113Y-93750900D01*
X152804476Y-93749004D01*
X152805799Y-93747504D01*
X152806826Y-93747438D01*
X152829459Y-93751940D01*
G37*
G36*
X131554496Y-92952825D02*
G01*
X131556766Y-92954341D01*
X131623130Y-92975121D01*
X131693928Y-92954332D01*
X131696184Y-92952825D01*
X131698180Y-92952694D01*
X131699291Y-92954357D01*
X131698958Y-92955599D01*
X131687249Y-92973123D01*
X131681950Y-92999759D01*
X131681950Y-93507361D01*
X131687249Y-93533997D01*
X131698958Y-93551521D01*
X131699089Y-93553517D01*
X131697426Y-93554628D01*
X131696184Y-93554295D01*
X131693914Y-93552779D01*
X131627550Y-93531999D01*
X131556752Y-93552788D01*
X131554496Y-93554295D01*
X131552500Y-93554426D01*
X131551389Y-93552763D01*
X131551722Y-93551521D01*
X131563431Y-93533997D01*
X131568730Y-93507361D01*
X131568730Y-92999759D01*
X131563431Y-92973123D01*
X131551722Y-92955599D01*
X131551591Y-92953603D01*
X131553254Y-92952492D01*
X131554496Y-92952825D01*
G37*
G36*
X130904256Y-92952825D02*
G01*
X130906526Y-92954341D01*
X130972890Y-92975121D01*
X131043688Y-92954332D01*
X131045944Y-92952825D01*
X131047940Y-92952694D01*
X131049051Y-92954357D01*
X131048718Y-92955599D01*
X131037009Y-92973123D01*
X131031710Y-92999759D01*
X131031710Y-93507361D01*
X131037009Y-93533997D01*
X131048718Y-93551521D01*
X131048849Y-93553517D01*
X131047186Y-93554628D01*
X131045944Y-93554295D01*
X131043674Y-93552779D01*
X130977310Y-93531999D01*
X130906512Y-93552788D01*
X130904256Y-93554295D01*
X130902260Y-93554426D01*
X130901149Y-93552763D01*
X130901482Y-93551521D01*
X130913191Y-93533997D01*
X130918490Y-93507361D01*
X130918490Y-92999759D01*
X130913191Y-92973123D01*
X130901482Y-92955599D01*
X130901351Y-92953603D01*
X130903014Y-92952492D01*
X130904256Y-92952825D01*
G37*
G36*
X148614464Y-92637339D02*
G01*
X148614003Y-92638753D01*
X148574681Y-92685805D01*
X148566048Y-92754521D01*
X148595938Y-92816996D01*
X148655000Y-92853481D01*
X148687648Y-92857878D01*
X148689231Y-92859100D01*
X148688964Y-92861082D01*
X148687381Y-92861860D01*
X148120299Y-92861860D01*
X148093663Y-92867159D01*
X148088583Y-92870553D01*
X148086587Y-92870684D01*
X148085476Y-92869021D01*
X148085937Y-92867607D01*
X148125259Y-92820555D01*
X148133892Y-92751839D01*
X148104002Y-92689364D01*
X148044940Y-92652879D01*
X148012292Y-92648482D01*
X148010709Y-92647260D01*
X148010976Y-92645278D01*
X148012559Y-92644500D01*
X148579641Y-92644500D01*
X148606277Y-92639201D01*
X148611357Y-92635807D01*
X148613353Y-92635676D01*
X148614464Y-92637339D01*
G37*
G36*
X148850289Y-91407070D02*
G01*
X148850361Y-91408114D01*
X148846000Y-91430039D01*
X148846000Y-92572641D01*
X148850794Y-92596738D01*
X148850151Y-92598632D01*
X148848189Y-92599022D01*
X148847549Y-92598663D01*
X148797385Y-92556740D01*
X148728670Y-92548107D01*
X148666040Y-92578070D01*
X148648073Y-92598806D01*
X148646183Y-92599460D01*
X148644671Y-92598150D01*
X148644599Y-92597106D01*
X148648960Y-92575181D01*
X148648960Y-91432579D01*
X148644166Y-91408482D01*
X148644809Y-91406588D01*
X148646771Y-91406198D01*
X148647411Y-91406557D01*
X148697575Y-91448480D01*
X148766290Y-91457113D01*
X148828920Y-91427150D01*
X148846887Y-91406414D01*
X148848777Y-91405760D01*
X148850289Y-91407070D01*
G37*
G36*
X131554496Y-91052905D02*
G01*
X131556766Y-91054421D01*
X131623130Y-91075201D01*
X131693928Y-91054412D01*
X131696184Y-91052905D01*
X131698180Y-91052774D01*
X131699291Y-91054437D01*
X131698958Y-91055679D01*
X131687249Y-91073203D01*
X131681950Y-91099839D01*
X131681950Y-91607441D01*
X131687249Y-91634077D01*
X131698958Y-91651601D01*
X131699089Y-91653597D01*
X131697426Y-91654708D01*
X131696184Y-91654375D01*
X131693914Y-91652859D01*
X131627550Y-91632079D01*
X131556752Y-91652868D01*
X131554496Y-91654375D01*
X131552500Y-91654506D01*
X131551389Y-91652843D01*
X131551722Y-91651601D01*
X131563431Y-91634077D01*
X131568730Y-91607441D01*
X131568730Y-91099839D01*
X131563431Y-91073203D01*
X131551722Y-91055679D01*
X131551591Y-91053683D01*
X131553254Y-91052572D01*
X131554496Y-91052905D01*
G37*
G36*
X130904256Y-91052905D02*
G01*
X130906526Y-91054421D01*
X130972890Y-91075201D01*
X131043688Y-91054412D01*
X131045944Y-91052905D01*
X131047940Y-91052774D01*
X131049051Y-91054437D01*
X131048718Y-91055679D01*
X131037009Y-91073203D01*
X131031710Y-91099839D01*
X131031710Y-91607441D01*
X131037009Y-91634077D01*
X131048718Y-91651601D01*
X131048849Y-91653597D01*
X131047186Y-91654708D01*
X131045944Y-91654375D01*
X131043674Y-91652859D01*
X130977310Y-91632079D01*
X130906512Y-91652868D01*
X130904256Y-91654375D01*
X130902260Y-91654506D01*
X130901149Y-91652843D01*
X130901482Y-91651601D01*
X130913191Y-91634077D01*
X130918490Y-91607441D01*
X130918490Y-91099839D01*
X130913191Y-91073203D01*
X130901482Y-91055679D01*
X130901351Y-91053683D01*
X130903014Y-91052572D01*
X130904256Y-91052905D01*
G37*
G36*
X149447526Y-89724485D02*
G01*
X149449796Y-89726001D01*
X149516160Y-89746781D01*
X149586958Y-89725992D01*
X149589214Y-89724485D01*
X149591210Y-89724354D01*
X149592321Y-89726017D01*
X149591988Y-89727259D01*
X149580279Y-89744783D01*
X149574980Y-89771419D01*
X149574980Y-90771781D01*
X149580279Y-90798417D01*
X149591988Y-90815941D01*
X149592119Y-90817937D01*
X149590456Y-90819048D01*
X149589214Y-90818715D01*
X149586944Y-90817199D01*
X149520580Y-90796419D01*
X149449782Y-90817208D01*
X149447526Y-90818715D01*
X149445530Y-90818846D01*
X149444419Y-90817183D01*
X149444752Y-90815941D01*
X149456461Y-90798417D01*
X149461760Y-90771781D01*
X149461760Y-89771419D01*
X149456461Y-89744783D01*
X149444752Y-89727259D01*
X149444621Y-89725263D01*
X149446284Y-89724152D01*
X149447526Y-89724485D01*
G37*
G36*
X150400026Y-89724485D02*
G01*
X150402296Y-89726001D01*
X150468660Y-89746781D01*
X150539458Y-89725992D01*
X150541714Y-89724485D01*
X150543710Y-89724354D01*
X150544821Y-89726017D01*
X150544488Y-89727259D01*
X150532779Y-89744783D01*
X150527480Y-89771419D01*
X150527480Y-90771781D01*
X150532779Y-90798417D01*
X150544488Y-90815941D01*
X150544619Y-90817937D01*
X150542956Y-90819048D01*
X150541714Y-90818715D01*
X150539444Y-90817199D01*
X150473080Y-90796419D01*
X150402282Y-90817208D01*
X150400026Y-90818715D01*
X150398030Y-90818846D01*
X150396919Y-90817183D01*
X150397252Y-90815941D01*
X150408961Y-90798417D01*
X150414260Y-90771781D01*
X150414260Y-89771419D01*
X150408961Y-89744783D01*
X150397252Y-89727259D01*
X150397121Y-89725263D01*
X150398784Y-89724152D01*
X150400026Y-89724485D01*
G37*
G36*
X154101505Y-89638711D02*
G01*
X154101895Y-89640673D01*
X154101112Y-89641693D01*
X154089071Y-89649739D01*
X154044463Y-89703115D01*
X154035831Y-89771830D01*
X154065795Y-89834460D01*
X154088938Y-89854512D01*
X154101112Y-89862647D01*
X154101997Y-89864441D01*
X154100886Y-89866104D01*
X154099611Y-89866272D01*
X154078741Y-89862120D01*
X153444139Y-89862120D01*
X153423269Y-89866272D01*
X153421375Y-89865629D01*
X153420985Y-89863667D01*
X153421768Y-89862647D01*
X153433809Y-89854601D01*
X153478417Y-89801225D01*
X153487049Y-89732510D01*
X153457085Y-89669880D01*
X153433942Y-89649828D01*
X153421768Y-89641693D01*
X153420883Y-89639899D01*
X153421994Y-89638236D01*
X153423269Y-89638068D01*
X153444139Y-89642220D01*
X154078741Y-89642220D01*
X154099611Y-89638068D01*
X154101505Y-89638711D01*
G37*
G36*
X152577505Y-89638711D02*
G01*
X152577895Y-89640673D01*
X152577112Y-89641693D01*
X152565071Y-89649739D01*
X152520463Y-89703115D01*
X152511831Y-89771830D01*
X152541795Y-89834460D01*
X152564938Y-89854512D01*
X152577112Y-89862647D01*
X152577997Y-89864441D01*
X152576886Y-89866104D01*
X152575611Y-89866272D01*
X152554741Y-89862120D01*
X151920139Y-89862120D01*
X151899269Y-89866272D01*
X151897375Y-89865629D01*
X151896985Y-89863667D01*
X151897768Y-89862647D01*
X151909809Y-89854601D01*
X151954417Y-89801225D01*
X151963049Y-89732510D01*
X151933085Y-89669880D01*
X151909942Y-89649828D01*
X151897768Y-89641693D01*
X151896883Y-89639899D01*
X151897994Y-89638236D01*
X151899269Y-89638068D01*
X151920139Y-89642220D01*
X152554741Y-89642220D01*
X152575611Y-89638068D01*
X152577505Y-89638711D01*
G37*
G36*
X129103396Y-88156035D02*
G01*
X129105666Y-88157551D01*
X129172030Y-88178331D01*
X129242828Y-88157542D01*
X129245084Y-88156035D01*
X129247080Y-88155904D01*
X129248191Y-88157567D01*
X129247858Y-88158809D01*
X129236149Y-88176333D01*
X129230850Y-88202969D01*
X129230850Y-89602111D01*
X129236149Y-89628747D01*
X129247858Y-89646271D01*
X129247989Y-89648267D01*
X129246326Y-89649378D01*
X129245084Y-89649045D01*
X129242814Y-89647529D01*
X129176450Y-89626749D01*
X129105652Y-89647538D01*
X129103396Y-89649045D01*
X129101400Y-89649176D01*
X129100289Y-89647513D01*
X129100622Y-89646271D01*
X129112331Y-89628747D01*
X129117630Y-89602111D01*
X129117630Y-88202969D01*
X129112331Y-88176333D01*
X129100622Y-88158809D01*
X129100491Y-88156813D01*
X129102154Y-88155702D01*
X129103396Y-88156035D01*
G37*
G36*
X128453156Y-88156035D02*
G01*
X128455426Y-88157551D01*
X128521790Y-88178331D01*
X128592588Y-88157542D01*
X128594844Y-88156035D01*
X128596840Y-88155904D01*
X128597951Y-88157567D01*
X128597618Y-88158809D01*
X128585909Y-88176333D01*
X128580610Y-88202969D01*
X128580610Y-89602111D01*
X128585909Y-89628747D01*
X128597618Y-89646271D01*
X128597749Y-89648267D01*
X128596086Y-89649378D01*
X128594844Y-89649045D01*
X128592574Y-89647529D01*
X128526210Y-89626749D01*
X128455412Y-89647538D01*
X128453156Y-89649045D01*
X128451160Y-89649176D01*
X128450049Y-89647513D01*
X128450382Y-89646271D01*
X128462091Y-89628747D01*
X128467390Y-89602111D01*
X128467390Y-88202969D01*
X128462091Y-88176333D01*
X128450382Y-88158809D01*
X128450251Y-88156813D01*
X128451914Y-88155702D01*
X128453156Y-88156035D01*
G37*
G36*
X129753636Y-88156035D02*
G01*
X129755906Y-88157551D01*
X129822270Y-88178331D01*
X129893068Y-88157542D01*
X129895324Y-88156035D01*
X129897320Y-88155904D01*
X129898431Y-88157567D01*
X129898098Y-88158809D01*
X129886389Y-88176333D01*
X129881090Y-88202969D01*
X129881090Y-89602111D01*
X129886389Y-89628747D01*
X129898098Y-89646271D01*
X129898229Y-89648267D01*
X129896566Y-89649378D01*
X129895324Y-89649045D01*
X129893054Y-89647529D01*
X129826690Y-89626749D01*
X129755892Y-89647538D01*
X129753636Y-89649045D01*
X129751640Y-89649176D01*
X129750529Y-89647513D01*
X129750862Y-89646271D01*
X129762571Y-89628747D01*
X129767870Y-89602111D01*
X129767870Y-88202969D01*
X129762571Y-88176333D01*
X129750862Y-88158809D01*
X129750731Y-88156813D01*
X129752394Y-88155702D01*
X129753636Y-88156035D01*
G37*
G36*
X130403876Y-88156035D02*
G01*
X130406146Y-88157551D01*
X130472510Y-88178331D01*
X130543308Y-88157542D01*
X130545564Y-88156035D01*
X130547560Y-88155904D01*
X130548671Y-88157567D01*
X130548338Y-88158809D01*
X130536629Y-88176333D01*
X130531330Y-88202969D01*
X130531330Y-89602111D01*
X130536629Y-89628747D01*
X130548338Y-89646271D01*
X130548469Y-89648267D01*
X130546806Y-89649378D01*
X130545564Y-89649045D01*
X130543294Y-89647529D01*
X130476930Y-89626749D01*
X130406132Y-89647538D01*
X130403876Y-89649045D01*
X130401880Y-89649176D01*
X130400769Y-89647513D01*
X130401102Y-89646271D01*
X130412811Y-89628747D01*
X130418110Y-89602111D01*
X130418110Y-88202969D01*
X130412811Y-88176333D01*
X130401102Y-88158809D01*
X130400971Y-88156813D01*
X130402634Y-88155702D01*
X130403876Y-88156035D01*
G37*
G36*
X148102026Y-89140871D02*
G01*
X148102416Y-89142833D01*
X148101633Y-89143853D01*
X148091492Y-89150629D01*
X148046884Y-89204005D01*
X148038252Y-89272720D01*
X148068216Y-89335350D01*
X148091359Y-89355402D01*
X148101633Y-89362267D01*
X148102518Y-89364061D01*
X148101407Y-89365724D01*
X148100132Y-89365892D01*
X148079261Y-89361740D01*
X147444659Y-89361740D01*
X147423788Y-89365892D01*
X147421894Y-89365249D01*
X147421504Y-89363287D01*
X147422287Y-89362267D01*
X147432428Y-89355491D01*
X147477036Y-89302115D01*
X147485668Y-89233400D01*
X147455704Y-89170770D01*
X147432561Y-89150718D01*
X147422287Y-89143853D01*
X147421402Y-89142059D01*
X147422513Y-89140396D01*
X147423788Y-89140228D01*
X147444659Y-89144380D01*
X148079261Y-89144380D01*
X148100132Y-89140228D01*
X148102026Y-89140871D01*
G37*
G36*
X146578026Y-89140871D02*
G01*
X146578416Y-89142833D01*
X146577633Y-89143853D01*
X146567492Y-89150629D01*
X146522884Y-89204005D01*
X146514252Y-89272720D01*
X146544216Y-89335350D01*
X146567359Y-89355402D01*
X146577633Y-89362267D01*
X146578518Y-89364061D01*
X146577407Y-89365724D01*
X146576132Y-89365892D01*
X146555261Y-89361740D01*
X145920659Y-89361740D01*
X145899788Y-89365892D01*
X145897894Y-89365249D01*
X145897504Y-89363287D01*
X145898287Y-89362267D01*
X145908428Y-89355491D01*
X145953036Y-89302115D01*
X145961668Y-89233400D01*
X145931704Y-89170770D01*
X145908561Y-89150718D01*
X145898287Y-89143853D01*
X145897402Y-89142059D01*
X145898513Y-89140396D01*
X145899788Y-89140228D01*
X145920659Y-89144380D01*
X146555261Y-89144380D01*
X146576132Y-89140228D01*
X146578026Y-89140871D01*
G37*
G36*
X154101506Y-88140111D02*
G01*
X154101896Y-88142073D01*
X154101113Y-88143093D01*
X154090972Y-88149869D01*
X154046364Y-88203245D01*
X154037732Y-88271960D01*
X154067696Y-88334590D01*
X154090839Y-88354642D01*
X154101113Y-88361507D01*
X154101998Y-88363301D01*
X154100887Y-88364964D01*
X154099612Y-88365132D01*
X154078741Y-88360980D01*
X153444139Y-88360980D01*
X153423268Y-88365132D01*
X153421374Y-88364489D01*
X153420984Y-88362527D01*
X153421767Y-88361507D01*
X153431908Y-88354731D01*
X153476516Y-88301355D01*
X153485148Y-88232640D01*
X153455184Y-88170010D01*
X153432041Y-88149958D01*
X153421767Y-88143093D01*
X153420882Y-88141299D01*
X153421993Y-88139636D01*
X153423268Y-88139468D01*
X153444139Y-88143620D01*
X154078741Y-88143620D01*
X154099612Y-88139468D01*
X154101506Y-88140111D01*
G37*
G36*
X152577506Y-88140111D02*
G01*
X152577896Y-88142073D01*
X152577113Y-88143093D01*
X152566972Y-88149869D01*
X152522364Y-88203245D01*
X152513732Y-88271960D01*
X152543696Y-88334590D01*
X152566839Y-88354642D01*
X152577113Y-88361507D01*
X152577998Y-88363301D01*
X152576887Y-88364964D01*
X152575612Y-88365132D01*
X152554741Y-88360980D01*
X151920139Y-88360980D01*
X151899268Y-88365132D01*
X151897374Y-88364489D01*
X151896984Y-88362527D01*
X151897767Y-88361507D01*
X151907908Y-88354731D01*
X151952516Y-88301355D01*
X151961148Y-88232640D01*
X151931184Y-88170010D01*
X151908041Y-88149958D01*
X151897767Y-88143093D01*
X151896882Y-88141299D01*
X151897993Y-88139636D01*
X151899268Y-88139468D01*
X151920139Y-88143620D01*
X152554741Y-88143620D01*
X152575612Y-88139468D01*
X152577506Y-88140111D01*
G37*
G36*
X150400026Y-87184485D02*
G01*
X150402296Y-87186001D01*
X150468660Y-87206781D01*
X150539458Y-87185992D01*
X150541714Y-87184485D01*
X150543710Y-87184354D01*
X150544821Y-87186017D01*
X150544488Y-87187259D01*
X150532779Y-87204783D01*
X150527480Y-87231419D01*
X150527480Y-88231781D01*
X150532779Y-88258417D01*
X150544488Y-88275941D01*
X150544619Y-88277937D01*
X150542956Y-88279048D01*
X150541714Y-88278715D01*
X150539444Y-88277199D01*
X150473080Y-88256419D01*
X150402282Y-88277208D01*
X150400026Y-88278715D01*
X150398030Y-88278846D01*
X150396919Y-88277183D01*
X150397252Y-88275941D01*
X150408961Y-88258417D01*
X150414260Y-88231781D01*
X150414260Y-87231419D01*
X150408961Y-87204783D01*
X150397252Y-87187259D01*
X150397121Y-87185263D01*
X150398784Y-87184152D01*
X150400026Y-87184485D01*
G37*
G36*
X149447526Y-87184485D02*
G01*
X149449796Y-87186001D01*
X149516160Y-87206781D01*
X149586958Y-87185992D01*
X149589214Y-87184485D01*
X149591210Y-87184354D01*
X149592321Y-87186017D01*
X149591988Y-87187259D01*
X149580279Y-87204783D01*
X149574980Y-87231419D01*
X149574980Y-88231781D01*
X149580279Y-88258417D01*
X149591988Y-88275941D01*
X149592119Y-88277937D01*
X149590456Y-88279048D01*
X149589214Y-88278715D01*
X149586944Y-88277199D01*
X149520580Y-88256419D01*
X149449782Y-88277208D01*
X149447526Y-88278715D01*
X149445530Y-88278846D01*
X149444419Y-88277183D01*
X149444752Y-88275941D01*
X149456461Y-88258417D01*
X149461760Y-88231781D01*
X149461760Y-87231419D01*
X149456461Y-87204783D01*
X149444752Y-87187259D01*
X149444621Y-87185263D01*
X149446284Y-87184152D01*
X149447526Y-87184485D01*
G37*
M02*
