G04 #@! TF.GenerationSoftware,KiCad,Pcbnew,(7.0.0-0)*
G04 #@! TF.CreationDate,2023-12-04T12:02:09+01:00*
G04 #@! TF.ProjectId,Crazyflie contol board,4372617a-7966-46c6-9965-20636f6e746f,2.4*
G04 #@! TF.SameCoordinates,Original*
G04 #@! TF.FileFunction,Copper,L2,Bot*
G04 #@! TF.FilePolarity,Positive*
%FSLAX46Y46*%
G04 Gerber Fmt 4.6, Leading zero omitted, Abs format (unit mm)*
G04 Created by KiCad (PCBNEW (7.0.0-0)) date 2023-12-04 12:02:09*
%MOMM*%
%LPD*%
G01*
G04 APERTURE LIST*
G04 Aperture macros list*
%AMRoundRect*
0 Rectangle with rounded corners*
0 $1 Rounding radius*
0 $2 $3 $4 $5 $6 $7 $8 $9 X,Y pos of 4 corners*
0 Add a 4 corners polygon primitive as box body*
4,1,4,$2,$3,$4,$5,$6,$7,$8,$9,$2,$3,0*
0 Add four circle primitives for the rounded corners*
1,1,$1+$1,$2,$3*
1,1,$1+$1,$4,$5*
1,1,$1+$1,$6,$7*
1,1,$1+$1,$8,$9*
0 Add four rect primitives between the rounded corners*
20,1,$1+$1,$2,$3,$4,$5,0*
20,1,$1+$1,$4,$5,$6,$7,0*
20,1,$1+$1,$6,$7,$8,$9,0*
20,1,$1+$1,$8,$9,$2,$3,0*%
G04 Aperture macros list end*
%ADD10C,0.200025*%
G04 #@! TA.AperFunction,NonConductor*
%ADD11C,0.200025*%
G04 #@! TD*
G04 #@! TA.AperFunction,ComponentPad*
%ADD12C,0.500000*%
G04 #@! TD*
G04 #@! TA.AperFunction,ComponentPad*
%ADD13O,1.000000X2.100000*%
G04 #@! TD*
G04 #@! TA.AperFunction,ComponentPad*
%ADD14O,1.000000X1.600000*%
G04 #@! TD*
G04 #@! TA.AperFunction,ComponentPad*
%ADD15RoundRect,0.250000X0.600000X-0.600000X0.600000X0.600000X-0.600000X0.600000X-0.600000X-0.600000X0*%
G04 #@! TD*
G04 #@! TA.AperFunction,ComponentPad*
%ADD16C,1.700000*%
G04 #@! TD*
G04 #@! TA.AperFunction,ViaPad*
%ADD17C,0.635000*%
G04 #@! TD*
G04 #@! TA.AperFunction,Conductor*
%ADD18C,0.203200*%
G04 #@! TD*
G04 #@! TA.AperFunction,Conductor*
%ADD19C,0.381000*%
G04 #@! TD*
G04 #@! TA.AperFunction,Conductor*
%ADD20C,0.304800*%
G04 #@! TD*
G04 #@! TA.AperFunction,Conductor*
%ADD21C,1.000760*%
G04 #@! TD*
G04 #@! TA.AperFunction,Conductor*
%ADD22C,0.254000*%
G04 #@! TD*
G04 #@! TA.AperFunction,Conductor*
%ADD23C,0.152400*%
G04 #@! TD*
G04 APERTURE END LIST*
D10*
D11*
X155387842Y-120793942D02*
X155702167Y-120412942D01*
X155845042Y-120793942D02*
X155945055Y-119993842D01*
X155945055Y-119993842D02*
X155640255Y-119993842D01*
X155640255Y-119993842D02*
X155559292Y-120031942D01*
X155559292Y-120031942D02*
X155516430Y-120070042D01*
X155516430Y-120070042D02*
X155468805Y-120146242D01*
X155468805Y-120146242D02*
X155454517Y-120260542D01*
X155454517Y-120260542D02*
X155483092Y-120336742D01*
X155483092Y-120336742D02*
X155516430Y-120374842D01*
X155516430Y-120374842D02*
X155587867Y-120412942D01*
X155587867Y-120412942D02*
X155892667Y-120412942D01*
X154744905Y-120755842D02*
X154816342Y-120793942D01*
X154816342Y-120793942D02*
X154968742Y-120793942D01*
X154968742Y-120793942D02*
X155049705Y-120755842D01*
X155049705Y-120755842D02*
X155097330Y-120679642D01*
X155097330Y-120679642D02*
X155135430Y-120374842D01*
X155135430Y-120374842D02*
X155106855Y-120298642D01*
X155106855Y-120298642D02*
X155035417Y-120260542D01*
X155035417Y-120260542D02*
X154883017Y-120260542D01*
X154883017Y-120260542D02*
X154802055Y-120298642D01*
X154802055Y-120298642D02*
X154754430Y-120374842D01*
X154754430Y-120374842D02*
X154744905Y-120451042D01*
X154744905Y-120451042D02*
X155116380Y-120527242D01*
X154502017Y-120260542D02*
X154244842Y-120793942D01*
X154244842Y-120793942D02*
X154121017Y-120260542D01*
X153759067Y-120717742D02*
X153716205Y-120755842D01*
X153716205Y-120755842D02*
X153749542Y-120793942D01*
X153749542Y-120793942D02*
X153792405Y-120755842D01*
X153792405Y-120755842D02*
X153759067Y-120717742D01*
X153759067Y-120717742D02*
X153749542Y-120793942D01*
X153017070Y-120070042D02*
X152983732Y-120031942D01*
X152983732Y-120031942D02*
X152912295Y-119993842D01*
X152912295Y-119993842D02*
X152721795Y-119993842D01*
X152721795Y-119993842D02*
X152640832Y-120031942D01*
X152640832Y-120031942D02*
X152597970Y-120070042D01*
X152597970Y-120070042D02*
X152550345Y-120146242D01*
X152550345Y-120146242D02*
X152540820Y-120222442D01*
X152540820Y-120222442D02*
X152564632Y-120336742D01*
X152564632Y-120336742D02*
X152964682Y-120793942D01*
X152964682Y-120793942D02*
X152469382Y-120793942D01*
X152136007Y-120717742D02*
X152093145Y-120755842D01*
X152093145Y-120755842D02*
X152126482Y-120793942D01*
X152126482Y-120793942D02*
X152169345Y-120755842D01*
X152169345Y-120755842D02*
X152136007Y-120717742D01*
X152136007Y-120717742D02*
X152126482Y-120793942D01*
X151469257Y-120260542D02*
X151402582Y-120793942D01*
X151697857Y-119955742D02*
X151816920Y-120527242D01*
X151816920Y-120527242D02*
X151321620Y-120527242D01*
D12*
X151215034Y-114592100D03*
X151232814Y-110591600D03*
X151232814Y-111930180D03*
X151232814Y-113261140D03*
X152622194Y-110589060D03*
X152622194Y-113319560D03*
X152622194Y-114599720D03*
X152632354Y-111927640D03*
X154003954Y-111935260D03*
X154014114Y-113304320D03*
X154036974Y-110578900D03*
X154036974Y-114609880D03*
X155375554Y-114599720D03*
X155408574Y-111912400D03*
X155408574Y-113294160D03*
X155428894Y-110490000D03*
D13*
X161069999Y-88484999D03*
D14*
X161069999Y-84304999D03*
D13*
X152429999Y-88484999D03*
D14*
X152429999Y-84304999D03*
D15*
X140293754Y-121440000D03*
D16*
X140293754Y-118900000D03*
X137753754Y-121440000D03*
X137753754Y-118900000D03*
X135213754Y-121440000D03*
X135213754Y-118900000D03*
X132673754Y-121440000D03*
X132673754Y-118900000D03*
X130133754Y-121440000D03*
X130133754Y-118900000D03*
D15*
X137733754Y-96080000D03*
D16*
X137733754Y-93540000D03*
X135193754Y-96080000D03*
X135193754Y-93540000D03*
X132653754Y-96080000D03*
X132653754Y-93540000D03*
X130113754Y-96080000D03*
X130113754Y-93540000D03*
X127573754Y-96080000D03*
X127573754Y-93540000D03*
D17*
X144656754Y-118300500D03*
X127553754Y-110200000D03*
X142200000Y-93800000D03*
X158454034Y-93202760D03*
X127300000Y-99000000D03*
X130128754Y-109900000D03*
X155200000Y-94300000D03*
X145700000Y-120800000D03*
X142700000Y-90129000D03*
X137100000Y-87000000D03*
X156103754Y-97700000D03*
X149700000Y-105500000D03*
X139300000Y-105100000D03*
X161053754Y-120900000D03*
X138400000Y-100900000D03*
X139700000Y-105700000D03*
X139000000Y-101300000D03*
X131200000Y-100800000D03*
X135200000Y-101000000D03*
X140900000Y-90800000D03*
X138400000Y-109000000D03*
X130900000Y-90675000D03*
X135900000Y-101000000D03*
X152800000Y-94100000D03*
X160900000Y-94000000D03*
X142600000Y-87700000D03*
X129100000Y-100300000D03*
X131500000Y-101400000D03*
X127600000Y-90600000D03*
X139200000Y-109000000D03*
X159000000Y-116300000D03*
X153300000Y-92400000D03*
X145800000Y-93600000D03*
X136976877Y-111076877D03*
X151053754Y-95000000D03*
X139400000Y-87500000D03*
X143600000Y-89300000D03*
X143553754Y-98600000D03*
X151070400Y-98300000D03*
X160453754Y-111900000D03*
X147153754Y-115600000D03*
X158100000Y-108200000D03*
X133853754Y-91700000D03*
X163353754Y-92600000D03*
X158976877Y-104176877D03*
X159350000Y-107950000D03*
X132500000Y-87100000D03*
X146853754Y-108800000D03*
X144700000Y-90700000D03*
X146153754Y-92400000D03*
X163153754Y-113200000D03*
X148428654Y-108700000D03*
X145900000Y-90700000D03*
X162700000Y-105600000D03*
D18*
X130591046Y-122544000D02*
X131237754Y-121897292D01*
X127553754Y-110200000D02*
X127553754Y-120700000D01*
X131237754Y-121216000D02*
X132117754Y-120336000D01*
X129397754Y-122544000D02*
X130591046Y-122544000D01*
X132117754Y-120336000D02*
X142621254Y-120336000D01*
X127553754Y-120700000D02*
X129397754Y-122544000D01*
X131237754Y-121897292D02*
X131237754Y-121216000D01*
X142621254Y-120336000D02*
X144656754Y-118300500D01*
D19*
X155996394Y-95660400D02*
X158454034Y-93202760D01*
X144960400Y-95660400D02*
X155996394Y-95660400D01*
X143100000Y-93800000D02*
X144960400Y-95660400D01*
X142200000Y-93800000D02*
X143100000Y-93800000D01*
D20*
X138500000Y-109000000D02*
X138400000Y-109000000D01*
D21*
X139300000Y-105100000D02*
X139300000Y-105300000D01*
X138300000Y-101000000D02*
X135900000Y-101000000D01*
X135900000Y-101000000D02*
X135200000Y-101000000D01*
X130400000Y-100300000D02*
X130900000Y-100800000D01*
X139700000Y-105700000D02*
X139300000Y-106100000D01*
X131200000Y-101100000D02*
X131500000Y-101400000D01*
X139300000Y-108200000D02*
X139200000Y-108300000D01*
X139300000Y-105300000D02*
X139700000Y-105700000D01*
X130900000Y-100800000D02*
X131200000Y-100800000D01*
X139300000Y-106100000D02*
X139300000Y-108200000D01*
D20*
X139000000Y-101300000D02*
X138700000Y-101000000D01*
D21*
X129100000Y-100300000D02*
X130400000Y-100300000D01*
X138400000Y-100900000D02*
X138300000Y-101000000D01*
X138700000Y-101000000D02*
X138500000Y-101000000D01*
X138500000Y-101000000D02*
X138400000Y-100900000D01*
X139200000Y-108300000D02*
X139200000Y-109000000D01*
X139200000Y-109000000D02*
X138500000Y-109000000D01*
X131200000Y-100800000D02*
X131200000Y-101100000D01*
D22*
X143600000Y-92096246D02*
X145097674Y-93593920D01*
D19*
X143553754Y-107200000D02*
X143500000Y-107200000D01*
D22*
X149957854Y-92400000D02*
X148763934Y-93593920D01*
D19*
X139623123Y-111076877D02*
X136976877Y-111076877D01*
D22*
X145806080Y-93593920D02*
X148353754Y-93593920D01*
X141200000Y-89300000D02*
X139400000Y-87500000D01*
X148763934Y-93593920D02*
X148353754Y-93593920D01*
D19*
X143553754Y-98600000D02*
X143553754Y-107200000D01*
X143553754Y-107200000D02*
X148400000Y-107200000D01*
D22*
X149970014Y-94800000D02*
X148763934Y-93593920D01*
D19*
X148400000Y-107200000D02*
X149400000Y-108200000D01*
D22*
X153300000Y-92400000D02*
X149957854Y-92400000D01*
X151053754Y-95000000D02*
X150853754Y-94800000D01*
D18*
X145800000Y-93600000D02*
X145806080Y-93593920D01*
D22*
X143600000Y-89300000D02*
X141200000Y-89300000D01*
D19*
X143500000Y-107200000D02*
X139623123Y-111076877D01*
D22*
X150853754Y-94800000D02*
X149970014Y-94800000D01*
X143600000Y-89300000D02*
X143600000Y-92096246D01*
D19*
X149400000Y-108200000D02*
X149400000Y-116300000D01*
X149400000Y-116300000D02*
X159000000Y-116300000D01*
D22*
X145097674Y-93593920D02*
X145806080Y-93593920D01*
D23*
X133699954Y-118593800D02*
X133699954Y-119325066D01*
X133699954Y-119325066D02*
X133025020Y-120000000D01*
D18*
X160453754Y-107683354D02*
X160453754Y-111900000D01*
X151070400Y-98300000D02*
X160453754Y-107683354D01*
D23*
X135453754Y-116840000D02*
X133699954Y-118593800D01*
X131573754Y-120000000D02*
X130133754Y-121440000D01*
X145913754Y-116840000D02*
X135453754Y-116840000D01*
X147153754Y-115600000D02*
X145913754Y-116840000D01*
X133025020Y-120000000D02*
X131573754Y-120000000D01*
D18*
X137753754Y-91700000D02*
X133853754Y-91700000D01*
X157400000Y-107500000D02*
X156528790Y-107500000D01*
X156528790Y-107500000D02*
X156525590Y-107503200D01*
X153556954Y-107503200D02*
X137753754Y-91700000D01*
X158100000Y-108200000D02*
X157400000Y-107500000D01*
X156525590Y-107503200D02*
X153556954Y-107503200D01*
X162053754Y-93900000D02*
X163353754Y-92600000D01*
X162053754Y-101100000D02*
X162053754Y-93900000D01*
X158976877Y-104176877D02*
X162053754Y-101100000D01*
X156403200Y-107196800D02*
X156400000Y-107200000D01*
X156400000Y-107200000D02*
X153682544Y-107200000D01*
X159350000Y-107950000D02*
X158596800Y-107196800D01*
X153682544Y-107200000D02*
X133582544Y-87100000D01*
X133582544Y-87100000D02*
X132500000Y-87100000D01*
X158596800Y-107196800D02*
X156403200Y-107196800D01*
X140293754Y-118900000D02*
X141793754Y-117400000D01*
X141793754Y-117400000D02*
X146153754Y-117400000D01*
X146153754Y-117400000D02*
X147853754Y-115700000D01*
X147853754Y-109800000D02*
X146853754Y-108800000D01*
X147853754Y-115700000D02*
X147853754Y-109800000D01*
D23*
X141620437Y-122680620D02*
X133914374Y-122680620D01*
X148400000Y-108728654D02*
X148400000Y-115901057D01*
X147234854Y-117066203D02*
X159287551Y-117066203D01*
X133914374Y-122680620D02*
X132673754Y-121440000D01*
X141620437Y-122680620D02*
X147234854Y-117066203D01*
X146153754Y-92153754D02*
X144700000Y-90700000D01*
X146153754Y-92400000D02*
X146153754Y-92153754D01*
X159287551Y-117066203D02*
X163153754Y-113200000D01*
X148428654Y-108700000D02*
X148400000Y-108728654D01*
X148400000Y-115901057D02*
X147234854Y-117066203D01*
D18*
X162400000Y-105300000D02*
X162700000Y-105600000D01*
X159900000Y-93200000D02*
X159900000Y-101800000D01*
X157400000Y-90700000D02*
X159900000Y-93200000D01*
X157900000Y-104200000D02*
X159000000Y-105300000D01*
X159900000Y-101800000D02*
X157900000Y-103800000D01*
X159000000Y-105300000D02*
X162400000Y-105300000D01*
X145900000Y-90700000D02*
X157400000Y-90700000D01*
X157900000Y-103800000D02*
X157900000Y-104200000D01*
G04 #@! TA.AperFunction,Conductor*
G36*
X165589924Y-95016881D02*
G01*
X165636043Y-95063000D01*
X165652924Y-95126000D01*
X165652924Y-122773170D01*
X165636043Y-122836170D01*
X165589924Y-122882289D01*
X165526924Y-122899170D01*
X143879754Y-122899170D01*
X143816754Y-122882289D01*
X143770635Y-122836170D01*
X143753754Y-122773170D01*
X143753754Y-121067173D01*
X143763345Y-121018955D01*
X143790659Y-120978078D01*
X144663673Y-120105065D01*
X145287619Y-119481119D01*
X150680406Y-119481119D01*
X150680406Y-121518881D01*
X156603018Y-121518881D01*
X156619608Y-121518881D01*
X156619608Y-119481119D01*
X150680406Y-119481119D01*
X145287619Y-119481119D01*
X147334929Y-117433808D01*
X147375807Y-117406494D01*
X147424025Y-117396903D01*
X159267602Y-117396903D01*
X159278583Y-117397382D01*
X159316818Y-117400727D01*
X159353892Y-117390792D01*
X159364587Y-117388420D01*
X159402402Y-117381754D01*
X159411959Y-117376235D01*
X159415441Y-117374968D01*
X159418805Y-117373399D01*
X159429467Y-117370543D01*
X159460910Y-117348525D01*
X159470159Y-117342632D01*
X159503400Y-117323442D01*
X159528075Y-117294033D01*
X159535490Y-117285942D01*
X163013273Y-113808160D01*
X163061866Y-113777943D01*
X163118811Y-113772335D01*
X163153754Y-113776936D01*
X163303076Y-113757277D01*
X163442222Y-113699641D01*
X163561709Y-113607955D01*
X163653395Y-113488468D01*
X163711031Y-113349322D01*
X163730690Y-113200000D01*
X163711031Y-113050678D01*
X163653395Y-112911532D01*
X163646563Y-112902629D01*
X163566735Y-112798595D01*
X163561709Y-112792045D01*
X163442222Y-112700359D01*
X163434595Y-112697199D01*
X163434592Y-112697198D01*
X163310706Y-112645883D01*
X163310702Y-112645882D01*
X163303076Y-112642723D01*
X163294891Y-112641645D01*
X163294886Y-112641644D01*
X163161942Y-112624142D01*
X163153754Y-112623064D01*
X163145566Y-112624142D01*
X163012621Y-112641644D01*
X163012614Y-112641645D01*
X163004432Y-112642723D01*
X162996806Y-112645881D01*
X162996801Y-112645883D01*
X162872915Y-112697198D01*
X162872909Y-112697201D01*
X162865286Y-112700359D01*
X162858737Y-112705383D01*
X162858732Y-112705387D01*
X162752349Y-112787018D01*
X162752344Y-112787022D01*
X162745799Y-112792045D01*
X162740776Y-112798590D01*
X162740772Y-112798595D01*
X162659141Y-112904978D01*
X162659137Y-112904983D01*
X162654113Y-112911532D01*
X162650955Y-112919155D01*
X162650952Y-112919161D01*
X162599637Y-113043047D01*
X162599635Y-113043052D01*
X162596477Y-113050678D01*
X162595399Y-113058860D01*
X162595398Y-113058867D01*
X162585843Y-113131450D01*
X162576818Y-113200000D01*
X162577896Y-113208188D01*
X162577896Y-113208193D01*
X162581417Y-113234943D01*
X162575808Y-113291889D01*
X162545590Y-113340481D01*
X159742787Y-116143285D01*
X159690268Y-116174764D01*
X159629111Y-116177769D01*
X159573758Y-116151589D01*
X159537283Y-116102408D01*
X159502801Y-116019161D01*
X159499641Y-116011532D01*
X159446054Y-115941697D01*
X159412981Y-115898595D01*
X159407955Y-115892045D01*
X159400877Y-115886614D01*
X159295021Y-115805387D01*
X159295019Y-115805386D01*
X159288468Y-115800359D01*
X159280841Y-115797199D01*
X159280838Y-115797198D01*
X159156952Y-115745883D01*
X159156948Y-115745882D01*
X159149322Y-115742723D01*
X159141137Y-115741645D01*
X159141132Y-115741644D01*
X159008188Y-115724142D01*
X159000000Y-115723064D01*
X158991812Y-115724142D01*
X158858867Y-115741644D01*
X158858860Y-115741645D01*
X158850678Y-115742723D01*
X158843052Y-115745881D01*
X158843047Y-115745883D01*
X158719161Y-115797198D01*
X158719155Y-115797201D01*
X158711532Y-115800359D01*
X158704983Y-115805383D01*
X158704978Y-115805387D01*
X158674256Y-115828962D01*
X158638053Y-115848313D01*
X158597552Y-115855000D01*
X149971000Y-115855000D01*
X149908000Y-115838119D01*
X149861881Y-115792000D01*
X149845000Y-115729000D01*
X149845000Y-115277846D01*
X150886401Y-115277846D01*
X150889774Y-115281221D01*
X150890758Y-115281695D01*
X151038617Y-115333433D01*
X151052324Y-115336562D01*
X151208005Y-115354104D01*
X151222063Y-115354104D01*
X151377743Y-115336562D01*
X151391450Y-115333433D01*
X151528532Y-115285466D01*
X152293561Y-115285466D01*
X152296934Y-115288841D01*
X152297918Y-115289315D01*
X152445777Y-115341053D01*
X152459484Y-115344182D01*
X152615165Y-115361724D01*
X152629223Y-115361724D01*
X152784903Y-115344182D01*
X152798610Y-115341053D01*
X152928433Y-115295626D01*
X153708341Y-115295626D01*
X153711714Y-115299001D01*
X153712698Y-115299475D01*
X153860557Y-115351213D01*
X153874264Y-115354342D01*
X154029945Y-115371884D01*
X154044003Y-115371884D01*
X154199683Y-115354342D01*
X154213390Y-115351213D01*
X154361243Y-115299477D01*
X154362240Y-115298997D01*
X154365606Y-115295627D01*
X154359581Y-115286040D01*
X154359007Y-115285466D01*
X155046921Y-115285466D01*
X155050294Y-115288841D01*
X155051278Y-115289315D01*
X155199137Y-115341053D01*
X155212844Y-115344182D01*
X155368525Y-115361724D01*
X155382583Y-115361724D01*
X155538263Y-115344182D01*
X155551970Y-115341053D01*
X155699823Y-115289317D01*
X155700820Y-115288837D01*
X155704186Y-115285467D01*
X155698161Y-115275880D01*
X155387283Y-114965002D01*
X155375553Y-114958230D01*
X155363825Y-114965001D01*
X155052944Y-115275881D01*
X155046921Y-115285466D01*
X154359007Y-115285466D01*
X154048703Y-114975162D01*
X154036973Y-114968390D01*
X154025245Y-114975161D01*
X153714364Y-115286041D01*
X153708341Y-115295626D01*
X152928433Y-115295626D01*
X152946463Y-115289317D01*
X152947460Y-115288837D01*
X152950826Y-115285467D01*
X152944801Y-115275880D01*
X152633923Y-114965002D01*
X152622193Y-114958230D01*
X152610465Y-114965001D01*
X152299584Y-115275881D01*
X152293561Y-115285466D01*
X151528532Y-115285466D01*
X151539303Y-115281697D01*
X151540300Y-115281217D01*
X151543666Y-115277847D01*
X151537641Y-115268260D01*
X151226763Y-114957382D01*
X151215033Y-114950610D01*
X151203305Y-114957381D01*
X150892424Y-115268261D01*
X150886401Y-115277846D01*
X149845000Y-115277846D01*
X149845000Y-114599129D01*
X150453030Y-114599129D01*
X150470571Y-114754809D01*
X150473700Y-114768516D01*
X150525440Y-114916381D01*
X150525908Y-114917353D01*
X150529287Y-114920730D01*
X150538871Y-114914708D01*
X150849750Y-114603830D01*
X150856523Y-114592099D01*
X151573544Y-114592099D01*
X151580316Y-114603829D01*
X151891194Y-114914707D01*
X151902302Y-114921688D01*
X151907021Y-114922221D01*
X151934488Y-114928492D01*
X151935602Y-114928881D01*
X151946031Y-114922328D01*
X152256910Y-114611450D01*
X152263683Y-114599719D01*
X152980704Y-114599719D01*
X152987476Y-114611449D01*
X153298354Y-114922327D01*
X153309461Y-114929307D01*
X153314708Y-114929900D01*
X153342180Y-114936172D01*
X153350382Y-114939041D01*
X153360811Y-114932488D01*
X153671690Y-114621610D01*
X153678462Y-114609880D01*
X154395484Y-114609880D01*
X154402256Y-114621609D01*
X154689454Y-114908807D01*
X154701184Y-114915579D01*
X154712913Y-114908807D01*
X155010271Y-114611449D01*
X155017043Y-114599720D01*
X155017042Y-114599719D01*
X155734064Y-114599719D01*
X155740836Y-114611449D01*
X156051714Y-114922327D01*
X156061301Y-114928352D01*
X156064671Y-114924986D01*
X156065151Y-114923989D01*
X156116887Y-114776136D01*
X156120016Y-114762429D01*
X156137558Y-114606749D01*
X156137558Y-114592691D01*
X156120016Y-114437010D01*
X156116887Y-114423303D01*
X156065149Y-114275444D01*
X156064675Y-114274460D01*
X156061300Y-114271087D01*
X156051715Y-114277110D01*
X155740835Y-114587991D01*
X155734064Y-114599719D01*
X155017042Y-114599719D01*
X155010271Y-114587990D01*
X154723073Y-114300792D01*
X154711344Y-114294020D01*
X154699614Y-114300792D01*
X154402256Y-114598150D01*
X154395484Y-114609880D01*
X153678462Y-114609880D01*
X153678463Y-114609879D01*
X153671691Y-114598150D01*
X153360816Y-114287275D01*
X153349702Y-114280292D01*
X153344508Y-114279707D01*
X153317026Y-114273438D01*
X153308785Y-114270556D01*
X153298355Y-114277110D01*
X152987475Y-114587991D01*
X152980704Y-114599719D01*
X152263683Y-114599719D01*
X152256911Y-114587990D01*
X151946036Y-114277115D01*
X151934923Y-114270132D01*
X151930256Y-114269607D01*
X151902770Y-114263337D01*
X151901624Y-114262936D01*
X151891195Y-114269490D01*
X151580315Y-114580371D01*
X151573544Y-114592099D01*
X150856523Y-114592099D01*
X150849751Y-114580370D01*
X150538876Y-114269495D01*
X150529287Y-114263470D01*
X150525903Y-114266854D01*
X150525442Y-114267812D01*
X150473700Y-114415683D01*
X150470571Y-114429390D01*
X150453030Y-114585071D01*
X150453030Y-114599129D01*
X149845000Y-114599129D01*
X149845000Y-113935510D01*
X150916954Y-113935510D01*
X150923726Y-113947239D01*
X151203304Y-114226817D01*
X151215034Y-114233589D01*
X151226763Y-114226817D01*
X151493940Y-113959640D01*
X152340624Y-113959640D01*
X152347396Y-113971369D01*
X152610464Y-114234437D01*
X152622194Y-114241209D01*
X152633923Y-114234437D01*
X152896991Y-113971369D01*
X152903763Y-113959640D01*
X152896991Y-113947910D01*
X152894751Y-113945670D01*
X153731274Y-113945670D01*
X153738046Y-113957399D01*
X154025244Y-114244597D01*
X154036974Y-114251369D01*
X154048703Y-114244597D01*
X154313041Y-113980259D01*
X154319813Y-113968529D01*
X154316881Y-113963450D01*
X155097794Y-113963450D01*
X155104566Y-113975179D01*
X155363824Y-114234437D01*
X155375554Y-114241209D01*
X155387283Y-114234437D01*
X155679561Y-113942159D01*
X155686333Y-113930429D01*
X155679561Y-113918700D01*
X155420303Y-113659442D01*
X155408574Y-113652670D01*
X155396844Y-113659442D01*
X155104566Y-113951720D01*
X155097794Y-113963450D01*
X154316881Y-113963450D01*
X154313041Y-113956800D01*
X154025843Y-113669602D01*
X154014114Y-113662830D01*
X154002384Y-113669602D01*
X153738046Y-113933940D01*
X153731274Y-113945670D01*
X152894751Y-113945670D01*
X152633923Y-113684842D01*
X152622194Y-113678070D01*
X152610464Y-113684842D01*
X152347396Y-113947910D01*
X152340624Y-113959640D01*
X151493940Y-113959640D01*
X151524121Y-113929459D01*
X151530893Y-113917730D01*
X151524121Y-113906000D01*
X151244543Y-113626422D01*
X151232814Y-113619650D01*
X151221084Y-113626422D01*
X150923726Y-113923780D01*
X150916954Y-113935510D01*
X149845000Y-113935510D01*
X149845000Y-113268169D01*
X150470810Y-113268169D01*
X150488351Y-113423849D01*
X150491480Y-113437556D01*
X150543220Y-113585421D01*
X150543688Y-113586393D01*
X150547067Y-113589770D01*
X150556651Y-113583748D01*
X150867530Y-113272870D01*
X150874302Y-113261140D01*
X151591324Y-113261140D01*
X151598096Y-113272869D01*
X151944984Y-113619757D01*
X151956714Y-113626529D01*
X151968443Y-113619757D01*
X152256911Y-113331289D01*
X152263683Y-113319559D01*
X152980704Y-113319559D01*
X152987476Y-113331289D01*
X153298354Y-113642167D01*
X153308440Y-113648505D01*
X153326432Y-113634165D01*
X153337955Y-113626924D01*
X153648830Y-113316050D01*
X153655603Y-113304319D01*
X154372624Y-113304319D01*
X154379396Y-113316049D01*
X154690274Y-113626927D01*
X154700705Y-113633482D01*
X154712207Y-113629462D01*
X154732413Y-113616766D01*
X155043290Y-113305890D01*
X155050063Y-113294159D01*
X155767084Y-113294159D01*
X155773856Y-113305889D01*
X156084734Y-113616767D01*
X156094321Y-113622792D01*
X156097691Y-113619426D01*
X156098171Y-113618429D01*
X156149907Y-113470576D01*
X156153036Y-113456869D01*
X156170578Y-113301189D01*
X156170578Y-113287131D01*
X156153036Y-113131450D01*
X156149907Y-113117743D01*
X156098169Y-112969884D01*
X156097695Y-112968900D01*
X156094320Y-112965527D01*
X156084735Y-112971550D01*
X155773855Y-113282431D01*
X155767084Y-113294159D01*
X155050063Y-113294159D01*
X155043291Y-113282430D01*
X154732416Y-112971555D01*
X154721981Y-112964998D01*
X154710443Y-112969036D01*
X154690274Y-112981711D01*
X154379395Y-113292591D01*
X154372624Y-113304319D01*
X153655603Y-113304319D01*
X153648831Y-113292590D01*
X153337956Y-112981715D01*
X153327858Y-112975370D01*
X153309890Y-112989701D01*
X153298357Y-112996948D01*
X152987475Y-113307831D01*
X152980704Y-113319559D01*
X152263683Y-113319559D01*
X152256911Y-113307830D01*
X151910023Y-112960942D01*
X151898294Y-112954170D01*
X151886564Y-112960942D01*
X151598096Y-113249410D01*
X151591324Y-113261140D01*
X150874302Y-113261140D01*
X150874303Y-113261139D01*
X150867531Y-113249410D01*
X150556656Y-112938535D01*
X150547067Y-112932510D01*
X150543683Y-112935894D01*
X150543222Y-112936852D01*
X150491480Y-113084723D01*
X150488351Y-113098430D01*
X150470810Y-113254111D01*
X150470810Y-113268169D01*
X149845000Y-113268169D01*
X149845000Y-112595659D01*
X150925844Y-112595659D01*
X150932616Y-112607389D01*
X151221084Y-112895857D01*
X151232813Y-112902629D01*
X151244543Y-112895857D01*
X151507433Y-112632967D01*
X152293032Y-112632967D01*
X152299589Y-112643402D01*
X152610464Y-112954277D01*
X152622193Y-112961049D01*
X152633924Y-112954276D01*
X152944803Y-112643396D01*
X152959495Y-112620014D01*
X152961349Y-112614710D01*
X153683014Y-112614710D01*
X153689786Y-112626439D01*
X154002384Y-112939037D01*
X154014114Y-112945809D01*
X154025843Y-112939037D01*
X154328281Y-112636599D01*
X154335053Y-112624869D01*
X154328281Y-112613140D01*
X154318417Y-112603276D01*
X155078086Y-112603276D01*
X155078867Y-112606699D01*
X155085969Y-112618002D01*
X155396844Y-112928877D01*
X155408573Y-112935649D01*
X155420304Y-112928876D01*
X155731182Y-112617997D01*
X155738274Y-112606710D01*
X155739057Y-112603277D01*
X155738274Y-112599846D01*
X155731181Y-112588560D01*
X155420303Y-112277682D01*
X155408573Y-112270910D01*
X155396845Y-112277681D01*
X155085964Y-112588561D01*
X155078868Y-112599854D01*
X155078086Y-112603276D01*
X154318417Y-112603276D01*
X154015683Y-112300542D01*
X154003954Y-112293770D01*
X153992224Y-112300542D01*
X153689786Y-112602980D01*
X153683014Y-112614710D01*
X152961349Y-112614710D01*
X152961516Y-112614231D01*
X152954961Y-112603800D01*
X152644083Y-112292922D01*
X152632353Y-112286150D01*
X152620625Y-112292921D01*
X152309745Y-112603800D01*
X152295064Y-112627161D01*
X152293032Y-112632967D01*
X151507433Y-112632967D01*
X151533011Y-112607389D01*
X151539783Y-112595660D01*
X151533011Y-112583930D01*
X151244543Y-112295462D01*
X151232814Y-112288690D01*
X151221084Y-112295462D01*
X150932616Y-112583930D01*
X150925844Y-112595659D01*
X149845000Y-112595659D01*
X149845000Y-111937209D01*
X150470810Y-111937209D01*
X150488351Y-112092889D01*
X150491480Y-112106596D01*
X150543220Y-112254461D01*
X150543688Y-112255433D01*
X150547067Y-112258810D01*
X150556651Y-112252788D01*
X150867530Y-111941910D01*
X150874303Y-111930179D01*
X151591324Y-111930179D01*
X151598096Y-111941909D01*
X151908974Y-112252787D01*
X151920082Y-112259768D01*
X151924317Y-112260246D01*
X151930198Y-112258905D01*
X151945085Y-112257226D01*
X151956191Y-112250248D01*
X152267070Y-111939370D01*
X152273842Y-111927640D01*
X152990864Y-111927640D01*
X152997636Y-111939369D01*
X153310234Y-112251967D01*
X153321964Y-112258739D01*
X153333693Y-112251967D01*
X153638671Y-111946989D01*
X153645443Y-111935259D01*
X154362464Y-111935259D01*
X154369236Y-111946989D01*
X154680114Y-112257867D01*
X154690338Y-112264292D01*
X154707217Y-112250840D01*
X154732410Y-112235009D01*
X155043290Y-111924130D01*
X155050063Y-111912399D01*
X155767084Y-111912399D01*
X155773856Y-111924129D01*
X156084734Y-112235007D01*
X156094321Y-112241032D01*
X156097691Y-112237666D01*
X156098171Y-112236669D01*
X156149907Y-112088816D01*
X156153036Y-112075109D01*
X156170578Y-111919429D01*
X156170578Y-111905371D01*
X156153036Y-111749690D01*
X156149907Y-111735983D01*
X156098169Y-111588124D01*
X156097695Y-111587140D01*
X156094320Y-111583767D01*
X156084735Y-111589790D01*
X155773855Y-111900671D01*
X155767084Y-111912399D01*
X155050063Y-111912399D01*
X155043291Y-111900670D01*
X154732416Y-111589795D01*
X154722180Y-111583363D01*
X154705318Y-111596812D01*
X154680117Y-111612648D01*
X154369235Y-111923531D01*
X154362464Y-111935259D01*
X153645443Y-111935259D01*
X153638671Y-111923530D01*
X153326073Y-111610932D01*
X153314344Y-111604160D01*
X153302614Y-111610932D01*
X152997636Y-111915910D01*
X152990864Y-111927640D01*
X152273842Y-111927640D01*
X152273843Y-111927639D01*
X152267071Y-111915910D01*
X151956196Y-111605035D01*
X151945083Y-111598052D01*
X151940828Y-111597573D01*
X151934966Y-111598912D01*
X151920082Y-111600590D01*
X151908975Y-111607570D01*
X151598095Y-111918451D01*
X151591324Y-111930179D01*
X150874303Y-111930179D01*
X150867531Y-111918450D01*
X150556656Y-111607575D01*
X150547067Y-111601550D01*
X150543683Y-111604934D01*
X150543222Y-111605892D01*
X150491480Y-111753763D01*
X150488351Y-111767470D01*
X150470810Y-111923151D01*
X150470810Y-111937209D01*
X149845000Y-111937209D01*
X149845000Y-111260890D01*
X150922034Y-111260890D01*
X150928806Y-111272619D01*
X151221084Y-111564897D01*
X151232814Y-111571669D01*
X151244543Y-111564897D01*
X151536821Y-111272619D01*
X151543593Y-111260890D01*
X151539194Y-111253270D01*
X152316494Y-111253270D01*
X152323266Y-111264999D01*
X152620624Y-111562357D01*
X152632354Y-111569129D01*
X152644083Y-111562357D01*
X152931281Y-111275159D01*
X152932187Y-111273590D01*
X153700794Y-111273590D01*
X153707566Y-111285319D01*
X153992224Y-111569977D01*
X154003953Y-111576749D01*
X154015683Y-111569977D01*
X154333361Y-111252299D01*
X154340133Y-111240569D01*
X154333361Y-111228840D01*
X154330329Y-111225808D01*
X155079413Y-111225808D01*
X155085969Y-111236242D01*
X155396844Y-111547117D01*
X155408573Y-111553889D01*
X155420304Y-111547116D01*
X155731182Y-111236237D01*
X155741382Y-111220004D01*
X155748712Y-111194556D01*
X155754758Y-111186028D01*
X155758057Y-111176591D01*
X155751501Y-111166160D01*
X155440623Y-110855282D01*
X155428893Y-110848510D01*
X155417165Y-110855281D01*
X155106284Y-111166161D01*
X155096076Y-111182406D01*
X155088741Y-111207857D01*
X155082732Y-111216324D01*
X155079413Y-111225808D01*
X154330329Y-111225808D01*
X154048703Y-110944182D01*
X154036973Y-110937410D01*
X154025244Y-110944182D01*
X153707566Y-111261860D01*
X153700794Y-111273590D01*
X152932187Y-111273590D01*
X152938053Y-111263430D01*
X152931281Y-111251700D01*
X152633923Y-110954342D01*
X152622194Y-110947570D01*
X152610464Y-110954342D01*
X152323266Y-111241540D01*
X152316494Y-111253270D01*
X151539194Y-111253270D01*
X151536821Y-111249160D01*
X151244543Y-110956882D01*
X151232813Y-110950110D01*
X151221084Y-110956882D01*
X150928806Y-111249160D01*
X150922034Y-111260890D01*
X149845000Y-111260890D01*
X149845000Y-110598629D01*
X150470810Y-110598629D01*
X150488351Y-110754309D01*
X150491480Y-110768016D01*
X150543220Y-110915881D01*
X150543688Y-110916853D01*
X150547067Y-110920230D01*
X150556651Y-110914208D01*
X150867530Y-110603330D01*
X150874303Y-110591599D01*
X151591324Y-110591599D01*
X151598096Y-110603329D01*
X151908974Y-110914207D01*
X151920082Y-110921188D01*
X151922595Y-110921472D01*
X151934893Y-110918666D01*
X151946031Y-110911668D01*
X152256910Y-110600790D01*
X152263683Y-110589059D01*
X152980704Y-110589059D01*
X152987476Y-110600789D01*
X153298354Y-110911667D01*
X153308785Y-110918222D01*
X153317044Y-110915336D01*
X153344506Y-110909073D01*
X153349705Y-110908486D01*
X153360811Y-110901508D01*
X153671690Y-110590630D01*
X153678462Y-110578900D01*
X154395484Y-110578900D01*
X154402256Y-110590629D01*
X154676754Y-110865127D01*
X154688484Y-110871899D01*
X154700213Y-110865127D01*
X155063611Y-110501729D01*
X155070383Y-110489999D01*
X155787404Y-110489999D01*
X155794176Y-110501729D01*
X156105054Y-110812607D01*
X156114641Y-110818632D01*
X156118011Y-110815266D01*
X156118491Y-110814269D01*
X156170227Y-110666416D01*
X156173356Y-110652709D01*
X156190898Y-110497029D01*
X156190898Y-110482971D01*
X156173356Y-110327290D01*
X156170227Y-110313583D01*
X156118489Y-110165724D01*
X156118015Y-110164740D01*
X156114640Y-110161367D01*
X156105055Y-110167390D01*
X155794175Y-110478271D01*
X155787404Y-110489999D01*
X155070383Y-110489999D01*
X155063611Y-110478270D01*
X154789113Y-110203772D01*
X154777384Y-110197000D01*
X154765654Y-110203772D01*
X154402256Y-110567170D01*
X154395484Y-110578900D01*
X153678462Y-110578900D01*
X153678463Y-110578899D01*
X153671691Y-110567170D01*
X153360816Y-110256295D01*
X153350380Y-110249738D01*
X153342203Y-110252600D01*
X153314708Y-110258879D01*
X153309462Y-110259470D01*
X153298355Y-110266450D01*
X152987475Y-110577331D01*
X152980704Y-110589059D01*
X152263683Y-110589059D01*
X152256911Y-110577330D01*
X151946036Y-110266455D01*
X151934923Y-110259472D01*
X151932392Y-110259187D01*
X151920113Y-110261991D01*
X151908975Y-110268990D01*
X151598095Y-110579871D01*
X151591324Y-110591599D01*
X150874303Y-110591599D01*
X150867531Y-110579870D01*
X150556656Y-110268995D01*
X150547067Y-110262970D01*
X150543683Y-110266354D01*
X150543222Y-110267312D01*
X150491480Y-110415183D01*
X150488351Y-110428890D01*
X150470810Y-110584571D01*
X150470810Y-110598629D01*
X149845000Y-110598629D01*
X149845000Y-109905853D01*
X150904184Y-109905853D01*
X150910209Y-109915442D01*
X151221084Y-110226317D01*
X151232813Y-110233089D01*
X151244544Y-110226316D01*
X151555422Y-109915437D01*
X151561444Y-109905853D01*
X151558906Y-109903313D01*
X152293564Y-109903313D01*
X152299589Y-109912902D01*
X152610464Y-110223777D01*
X152622193Y-110230549D01*
X152633924Y-110223776D01*
X152944802Y-109912897D01*
X152950824Y-109903313D01*
X152947447Y-109899934D01*
X152946475Y-109899466D01*
X152928433Y-109893153D01*
X153708344Y-109893153D01*
X153714369Y-109902742D01*
X154025244Y-110213617D01*
X154036973Y-110220389D01*
X154048704Y-110213616D01*
X154359582Y-109902737D01*
X154365604Y-109893153D01*
X154362227Y-109889774D01*
X154361255Y-109889306D01*
X154213390Y-109837566D01*
X154199683Y-109834437D01*
X154044003Y-109816896D01*
X154029945Y-109816896D01*
X153874264Y-109834437D01*
X153860557Y-109837566D01*
X153712686Y-109889308D01*
X153711728Y-109889769D01*
X153708344Y-109893153D01*
X152928433Y-109893153D01*
X152798610Y-109847726D01*
X152784903Y-109844597D01*
X152629223Y-109827056D01*
X152615165Y-109827056D01*
X152459484Y-109844597D01*
X152445777Y-109847726D01*
X152297906Y-109899468D01*
X152296948Y-109899929D01*
X152293564Y-109903313D01*
X151558906Y-109903313D01*
X151558067Y-109902474D01*
X151557095Y-109902006D01*
X151409230Y-109850266D01*
X151395523Y-109847137D01*
X151239843Y-109829596D01*
X151225785Y-109829596D01*
X151070104Y-109847137D01*
X151056397Y-109850266D01*
X150908526Y-109902008D01*
X150907568Y-109902469D01*
X150904184Y-109905853D01*
X149845000Y-109905853D01*
X149845000Y-109804253D01*
X155100264Y-109804253D01*
X155106289Y-109813842D01*
X155417164Y-110124717D01*
X155428893Y-110131489D01*
X155440624Y-110124716D01*
X155751502Y-109813837D01*
X155757524Y-109804253D01*
X155754147Y-109800874D01*
X155753175Y-109800406D01*
X155605310Y-109748666D01*
X155591603Y-109745537D01*
X155435923Y-109727996D01*
X155421865Y-109727996D01*
X155266184Y-109745537D01*
X155252477Y-109748666D01*
X155104606Y-109800408D01*
X155103648Y-109800869D01*
X155100264Y-109804253D01*
X149845000Y-109804253D01*
X149845000Y-108232064D01*
X149845792Y-108217957D01*
X149845967Y-108216398D01*
X149849711Y-108183173D01*
X149839222Y-108127741D01*
X149838439Y-108123130D01*
X149834659Y-108098051D01*
X149830033Y-108067353D01*
X149826349Y-108059704D01*
X149824772Y-108051366D01*
X149798422Y-108001508D01*
X149796299Y-107997303D01*
X149775924Y-107954995D01*
X149771829Y-107946491D01*
X149766057Y-107940270D01*
X149762091Y-107932766D01*
X149722214Y-107892889D01*
X149718945Y-107889496D01*
X149687006Y-107855074D01*
X149687005Y-107855073D01*
X149680587Y-107848156D01*
X149674618Y-107844710D01*
X149669130Y-107839805D01*
X148737337Y-106908012D01*
X148727921Y-106897477D01*
X148718528Y-106885699D01*
X148706095Y-106870108D01*
X148698292Y-106864788D01*
X148698289Y-106864785D01*
X148659524Y-106838355D01*
X148655682Y-106835630D01*
X148617875Y-106807727D01*
X148617873Y-106807726D01*
X148610284Y-106802125D01*
X148602269Y-106799320D01*
X148595259Y-106794541D01*
X148586237Y-106791758D01*
X148586235Y-106791757D01*
X148541370Y-106777918D01*
X148536895Y-106776445D01*
X148492573Y-106760936D01*
X148492572Y-106760935D01*
X148483665Y-106757819D01*
X148475183Y-106757501D01*
X148467073Y-106755000D01*
X148457637Y-106755000D01*
X148410672Y-106755000D01*
X148405962Y-106754912D01*
X148359050Y-106753157D01*
X148349614Y-106752804D01*
X148342955Y-106754587D01*
X148335616Y-106755000D01*
X144124754Y-106755000D01*
X144061754Y-106738119D01*
X144015635Y-106692000D01*
X143998754Y-106629000D01*
X143998754Y-99002448D01*
X144005441Y-98961947D01*
X144024792Y-98925744D01*
X144035076Y-98912341D01*
X144053395Y-98888468D01*
X144094062Y-98790288D01*
X144130536Y-98741108D01*
X144185888Y-98714928D01*
X144247046Y-98717932D01*
X144299565Y-98749412D01*
X153269793Y-107719640D01*
X153284486Y-107737732D01*
X153285628Y-107738973D01*
X153291340Y-107747715D01*
X153315313Y-107766373D01*
X153319341Y-107769645D01*
X153322329Y-107772176D01*
X153326019Y-107775866D01*
X153330256Y-107778891D01*
X153330263Y-107778897D01*
X153341917Y-107787217D01*
X153346076Y-107790317D01*
X153385126Y-107820711D01*
X153392254Y-107823158D01*
X153398393Y-107827541D01*
X153445862Y-107841672D01*
X153450727Y-107843231D01*
X153497531Y-107859300D01*
X153505070Y-107859300D01*
X153512298Y-107861452D01*
X153561710Y-107859407D01*
X153566918Y-107859300D01*
X156475590Y-107859300D01*
X156498775Y-107861704D01*
X156500452Y-107861773D01*
X156510671Y-107863916D01*
X156540807Y-107860159D01*
X156545960Y-107859625D01*
X156549881Y-107859300D01*
X156555098Y-107859300D01*
X156560808Y-107858347D01*
X156563978Y-107857819D01*
X156584717Y-107856100D01*
X157200308Y-107856100D01*
X157248526Y-107865691D01*
X157289403Y-107893005D01*
X157487658Y-108091260D01*
X157517874Y-108139848D01*
X157522182Y-108183555D01*
X157524142Y-108183555D01*
X157524142Y-108191811D01*
X157523064Y-108200000D01*
X157524142Y-108208188D01*
X157541644Y-108341132D01*
X157541645Y-108341137D01*
X157542723Y-108349322D01*
X157545882Y-108356948D01*
X157545883Y-108356952D01*
X157597198Y-108480838D01*
X157597199Y-108480841D01*
X157600359Y-108488468D01*
X157605386Y-108495019D01*
X157605387Y-108495021D01*
X157654378Y-108558867D01*
X157692045Y-108607955D01*
X157698595Y-108612981D01*
X157758394Y-108658867D01*
X157811532Y-108699641D01*
X157950678Y-108757277D01*
X158100000Y-108776936D01*
X158249322Y-108757277D01*
X158388468Y-108699641D01*
X158507955Y-108607955D01*
X158599641Y-108488468D01*
X158657277Y-108349322D01*
X158658355Y-108341131D01*
X158660492Y-108333158D01*
X158661417Y-108333405D01*
X158679384Y-108286595D01*
X158723101Y-108247228D01*
X158779925Y-108232000D01*
X158837470Y-108244230D01*
X158883189Y-108281253D01*
X158937018Y-108351404D01*
X158942045Y-108357955D01*
X159061532Y-108449641D01*
X159200678Y-108507277D01*
X159350000Y-108526936D01*
X159499322Y-108507277D01*
X159638468Y-108449641D01*
X159757955Y-108357955D01*
X159849641Y-108238468D01*
X159855245Y-108224937D01*
X159897594Y-108171220D01*
X159961769Y-108147545D01*
X160028857Y-108160890D01*
X160079087Y-108207322D01*
X160097654Y-108273157D01*
X160097654Y-111390119D01*
X160084663Y-111445842D01*
X160056804Y-111479792D01*
X160058190Y-111481178D01*
X160052347Y-111487020D01*
X160045799Y-111492045D01*
X160040776Y-111498590D01*
X160040772Y-111498595D01*
X159959141Y-111604978D01*
X159959137Y-111604983D01*
X159954113Y-111611532D01*
X159950955Y-111619155D01*
X159950952Y-111619161D01*
X159899637Y-111743047D01*
X159899635Y-111743052D01*
X159896477Y-111750678D01*
X159895399Y-111758860D01*
X159895398Y-111758867D01*
X159878058Y-111890580D01*
X159876818Y-111900000D01*
X159877896Y-111908188D01*
X159895398Y-112041132D01*
X159895399Y-112041137D01*
X159896477Y-112049322D01*
X159899636Y-112056948D01*
X159899637Y-112056952D01*
X159950952Y-112180838D01*
X159950953Y-112180841D01*
X159954113Y-112188468D01*
X159959140Y-112195019D01*
X159959141Y-112195021D01*
X160034914Y-112293770D01*
X160045799Y-112307955D01*
X160165286Y-112399641D01*
X160304432Y-112457277D01*
X160453754Y-112476936D01*
X160603076Y-112457277D01*
X160742222Y-112399641D01*
X160861709Y-112307955D01*
X160953395Y-112188468D01*
X161011031Y-112049322D01*
X161030690Y-111900000D01*
X161011031Y-111750678D01*
X160953395Y-111611532D01*
X160861709Y-111492045D01*
X160855158Y-111487018D01*
X160849318Y-111481178D01*
X160850703Y-111479792D01*
X160822845Y-111445842D01*
X160809854Y-111390119D01*
X160809854Y-107733353D01*
X160812257Y-107710169D01*
X160812326Y-107708492D01*
X160814469Y-107698273D01*
X160810712Y-107668133D01*
X160810180Y-107663003D01*
X160809854Y-107659070D01*
X160809854Y-107653846D01*
X160806639Y-107634579D01*
X160805888Y-107629424D01*
X160801061Y-107590705D01*
X160801060Y-107590704D01*
X160799769Y-107580340D01*
X160796458Y-107573567D01*
X160795217Y-107566130D01*
X160790246Y-107556945D01*
X160790245Y-107556941D01*
X160771674Y-107522625D01*
X160769289Y-107517993D01*
X160747573Y-107473571D01*
X160742242Y-107468240D01*
X160738653Y-107461608D01*
X160702252Y-107428099D01*
X160698494Y-107424492D01*
X159145197Y-105871195D01*
X159114459Y-105821036D01*
X159109843Y-105762389D01*
X159132356Y-105708039D01*
X159177089Y-105669833D01*
X159234292Y-105656100D01*
X162022177Y-105656100D01*
X162075427Y-105667905D01*
X162118699Y-105701109D01*
X162142359Y-105746561D01*
X162142723Y-105749322D01*
X162145882Y-105756950D01*
X162145883Y-105756951D01*
X162197198Y-105880838D01*
X162197199Y-105880841D01*
X162200359Y-105888468D01*
X162292045Y-106007955D01*
X162411532Y-106099641D01*
X162550678Y-106157277D01*
X162700000Y-106176936D01*
X162849322Y-106157277D01*
X162988468Y-106099641D01*
X163107955Y-106007955D01*
X163199641Y-105888468D01*
X163257277Y-105749322D01*
X163276936Y-105600000D01*
X163257277Y-105450678D01*
X163199641Y-105311532D01*
X163107955Y-105192045D01*
X162988468Y-105100359D01*
X162980841Y-105097199D01*
X162980838Y-105097198D01*
X162856952Y-105045883D01*
X162856948Y-105045882D01*
X162849322Y-105042723D01*
X162841137Y-105041645D01*
X162841132Y-105041644D01*
X162708188Y-105024142D01*
X162700000Y-105023064D01*
X162691811Y-105024142D01*
X162691805Y-105024142D01*
X162687199Y-105024748D01*
X162637730Y-105021418D01*
X162593375Y-104999259D01*
X162580066Y-104988900D01*
X162580062Y-104988898D01*
X162571828Y-104982489D01*
X162564699Y-104980041D01*
X162558561Y-104975659D01*
X162548565Y-104972683D01*
X162548557Y-104972679D01*
X162511138Y-104961539D01*
X162506181Y-104959952D01*
X162469292Y-104947288D01*
X162469291Y-104947287D01*
X162459423Y-104943900D01*
X162451884Y-104943900D01*
X162444656Y-104941748D01*
X162434226Y-104942179D01*
X162434223Y-104942179D01*
X162395244Y-104943792D01*
X162390036Y-104943900D01*
X159253273Y-104943900D01*
X159187438Y-104925333D01*
X159141006Y-104875103D01*
X159127661Y-104808014D01*
X159151337Y-104743839D01*
X159205055Y-104701491D01*
X159217319Y-104696410D01*
X159265345Y-104676518D01*
X159384832Y-104584832D01*
X159476518Y-104465345D01*
X159534154Y-104326199D01*
X159553813Y-104176877D01*
X159552735Y-104168689D01*
X159552735Y-104160430D01*
X159554700Y-104160430D01*
X159558995Y-104116742D01*
X159589216Y-104068137D01*
X162270202Y-101387152D01*
X162288274Y-101372477D01*
X162289521Y-101371328D01*
X162298269Y-101365614D01*
X162316925Y-101341643D01*
X162320190Y-101337624D01*
X162322729Y-101334625D01*
X162326420Y-101330936D01*
X162337804Y-101314990D01*
X162340877Y-101310868D01*
X162371265Y-101271828D01*
X162373712Y-101264699D01*
X162378095Y-101258561D01*
X162392224Y-101211099D01*
X162393774Y-101206257D01*
X162409854Y-101159423D01*
X162409854Y-101151884D01*
X162412006Y-101144656D01*
X162409961Y-101095243D01*
X162409854Y-101090036D01*
X162409854Y-95126000D01*
X162426735Y-95063000D01*
X162472854Y-95016881D01*
X162535854Y-95000000D01*
X165526924Y-95000000D01*
X165589924Y-95016881D01*
G37*
G04 #@! TD.AperFunction*
G04 #@! TA.AperFunction,Conductor*
G36*
X159480900Y-95016881D02*
G01*
X159527019Y-95063000D01*
X159543900Y-95126000D01*
X159543900Y-101600309D01*
X159534309Y-101648527D01*
X159506997Y-101689401D01*
X157802339Y-103394059D01*
X157683555Y-103512843D01*
X157665465Y-103527533D01*
X157664221Y-103528677D01*
X157655485Y-103534386D01*
X157649074Y-103542621D01*
X157649069Y-103542627D01*
X157636847Y-103558330D01*
X157633571Y-103562365D01*
X157631012Y-103565385D01*
X157627334Y-103569065D01*
X157624312Y-103573296D01*
X157624307Y-103573303D01*
X157615970Y-103584979D01*
X157612864Y-103589144D01*
X157588898Y-103619937D01*
X157582489Y-103628172D01*
X157580041Y-103635300D01*
X157575659Y-103641439D01*
X157572681Y-103651439D01*
X157572679Y-103651445D01*
X157561537Y-103688869D01*
X157559949Y-103693824D01*
X157543900Y-103740577D01*
X157543900Y-103748116D01*
X157541748Y-103755344D01*
X157542179Y-103765772D01*
X157542179Y-103765776D01*
X157543792Y-103804756D01*
X157543900Y-103809964D01*
X157543900Y-103965708D01*
X157530167Y-104022911D01*
X157491961Y-104067644D01*
X157437611Y-104090157D01*
X157378964Y-104085541D01*
X157328805Y-104054803D01*
X151682741Y-98408740D01*
X151652517Y-98360128D01*
X151648225Y-98316447D01*
X151646258Y-98316447D01*
X151646258Y-98308188D01*
X151647336Y-98300000D01*
X151627677Y-98150678D01*
X151570041Y-98011532D01*
X151478355Y-97892045D01*
X151358868Y-97800359D01*
X151351241Y-97797199D01*
X151351238Y-97797198D01*
X151227352Y-97745883D01*
X151227348Y-97745882D01*
X151219722Y-97742723D01*
X151211537Y-97741645D01*
X151211532Y-97741644D01*
X151078588Y-97724142D01*
X151070400Y-97723064D01*
X151062212Y-97724142D01*
X150929267Y-97741644D01*
X150929260Y-97741645D01*
X150921078Y-97742723D01*
X150913452Y-97745881D01*
X150913447Y-97745883D01*
X150789561Y-97797198D01*
X150789555Y-97797201D01*
X150781932Y-97800359D01*
X150775383Y-97805383D01*
X150775378Y-97805387D01*
X150668995Y-97887018D01*
X150668990Y-97887022D01*
X150662445Y-97892045D01*
X150657422Y-97898590D01*
X150657418Y-97898595D01*
X150575787Y-98004978D01*
X150575783Y-98004983D01*
X150570759Y-98011532D01*
X150567601Y-98019155D01*
X150567598Y-98019161D01*
X150516283Y-98143047D01*
X150516281Y-98143052D01*
X150513123Y-98150678D01*
X150512045Y-98158860D01*
X150512044Y-98158867D01*
X150494704Y-98290580D01*
X150493464Y-98300000D01*
X150494542Y-98308188D01*
X150512044Y-98441132D01*
X150512045Y-98441137D01*
X150513123Y-98449322D01*
X150516282Y-98456948D01*
X150516283Y-98456952D01*
X150567598Y-98580838D01*
X150567599Y-98580841D01*
X150570759Y-98588468D01*
X150662445Y-98707955D01*
X150668995Y-98712981D01*
X150769745Y-98790290D01*
X150781932Y-98799641D01*
X150921078Y-98857277D01*
X151070400Y-98876936D01*
X151078588Y-98875858D01*
X151086847Y-98875858D01*
X151086847Y-98877825D01*
X151130528Y-98882117D01*
X151179140Y-98912341D01*
X159425845Y-107159047D01*
X159456583Y-107209206D01*
X159461199Y-107267853D01*
X159438686Y-107322203D01*
X159393953Y-107360409D01*
X159349717Y-107371028D01*
X159349985Y-107373066D01*
X159346784Y-107373487D01*
X159341604Y-107372976D01*
X159336750Y-107374142D01*
X159333555Y-107374142D01*
X159333555Y-107372183D01*
X159289845Y-107367874D01*
X159241259Y-107337658D01*
X158883958Y-106980357D01*
X158869265Y-106962264D01*
X158868123Y-106961023D01*
X158862414Y-106952285D01*
X158854175Y-106945872D01*
X158838448Y-106933631D01*
X158834400Y-106930344D01*
X158831425Y-106927824D01*
X158827735Y-106924134D01*
X158811805Y-106912760D01*
X158807683Y-106909686D01*
X158768628Y-106879289D01*
X158761499Y-106876841D01*
X158755361Y-106872459D01*
X158745365Y-106869483D01*
X158745357Y-106869479D01*
X158707938Y-106858339D01*
X158702981Y-106856752D01*
X158666092Y-106844088D01*
X158666091Y-106844087D01*
X158656223Y-106840700D01*
X158648684Y-106840700D01*
X158641456Y-106838548D01*
X158631026Y-106838979D01*
X158631023Y-106838979D01*
X158592044Y-106840592D01*
X158586836Y-106840700D01*
X156453199Y-106840700D01*
X156430015Y-106838296D01*
X156428332Y-106838226D01*
X156418119Y-106836085D01*
X156387994Y-106839839D01*
X156382851Y-106840373D01*
X156378903Y-106840700D01*
X156373692Y-106840700D01*
X156368557Y-106841556D01*
X156368543Y-106841558D01*
X156364812Y-106842181D01*
X156344073Y-106843900D01*
X153882235Y-106843900D01*
X153834017Y-106834309D01*
X153793140Y-106806995D01*
X143790659Y-96804514D01*
X143763345Y-96763637D01*
X143753754Y-96715419D01*
X143753754Y-95387269D01*
X143767487Y-95330066D01*
X143805693Y-95285333D01*
X143860043Y-95262820D01*
X143918690Y-95267436D01*
X143968849Y-95298174D01*
X144623066Y-95952391D01*
X144632481Y-95962926D01*
X144654305Y-95990292D01*
X144662104Y-95995609D01*
X144662107Y-95995612D01*
X144700898Y-96022059D01*
X144704735Y-96024783D01*
X144750116Y-96058275D01*
X144758130Y-96061079D01*
X144765141Y-96065859D01*
X144819068Y-96082493D01*
X144823448Y-96083934D01*
X144876735Y-96102581D01*
X144885216Y-96102898D01*
X144893327Y-96105400D01*
X144949728Y-96105400D01*
X144954438Y-96105488D01*
X144956700Y-96105572D01*
X145010786Y-96107596D01*
X145017444Y-96105812D01*
X145024784Y-96105400D01*
X155964330Y-96105400D01*
X155978437Y-96106192D01*
X156013221Y-96110111D01*
X156068668Y-96099619D01*
X156073239Y-96098842D01*
X156129041Y-96090433D01*
X156136689Y-96086749D01*
X156145028Y-96085172D01*
X156194923Y-96058800D01*
X156199087Y-96056700D01*
X156241389Y-96036329D01*
X156241388Y-96036329D01*
X156249903Y-96032229D01*
X156256124Y-96026456D01*
X156263629Y-96022490D01*
X156303540Y-95982577D01*
X156306880Y-95979360D01*
X156348238Y-95940987D01*
X156351686Y-95935012D01*
X156356566Y-95929551D01*
X157249217Y-95036901D01*
X157290090Y-95009591D01*
X157338308Y-95000000D01*
X159417900Y-95000000D01*
X159480900Y-95016881D01*
G37*
G04 #@! TD.AperFunction*
G04 #@! TA.AperFunction,Conductor*
G36*
X151669047Y-83120378D02*
G01*
X151715540Y-83172958D01*
X151726689Y-83242253D01*
X151699037Y-83306763D01*
X151591750Y-83437492D01*
X151584904Y-83447738D01*
X151497141Y-83611930D01*
X151492426Y-83623313D01*
X151438383Y-83801468D01*
X151435977Y-83813562D01*
X151422303Y-83952401D01*
X151422000Y-83958574D01*
X151422000Y-84034410D01*
X151425506Y-84047493D01*
X151438590Y-84051000D01*
X153421410Y-84051000D01*
X153434493Y-84047493D01*
X153438000Y-84034410D01*
X153438000Y-83958574D01*
X153437696Y-83952401D01*
X153424022Y-83813562D01*
X153421616Y-83801468D01*
X153367573Y-83623313D01*
X153362858Y-83611930D01*
X153275095Y-83447738D01*
X153268249Y-83437492D01*
X153160963Y-83306763D01*
X153133311Y-83242253D01*
X153144460Y-83172958D01*
X153190953Y-83120378D01*
X153258363Y-83100830D01*
X160241637Y-83100830D01*
X160309047Y-83120378D01*
X160355540Y-83172958D01*
X160366689Y-83242253D01*
X160339037Y-83306763D01*
X160231750Y-83437492D01*
X160224904Y-83447738D01*
X160137141Y-83611930D01*
X160132426Y-83623313D01*
X160078383Y-83801468D01*
X160075977Y-83813562D01*
X160062303Y-83952401D01*
X160062000Y-83958574D01*
X160062000Y-84034410D01*
X160065506Y-84047493D01*
X160078590Y-84051000D01*
X162061410Y-84051000D01*
X162074493Y-84047493D01*
X162078000Y-84034410D01*
X162078000Y-83958574D01*
X162077696Y-83952401D01*
X162064022Y-83813562D01*
X162061616Y-83801468D01*
X162007573Y-83623313D01*
X162002858Y-83611930D01*
X161915095Y-83447738D01*
X161908249Y-83437492D01*
X161800963Y-83306763D01*
X161773311Y-83242253D01*
X161784460Y-83172958D01*
X161830953Y-83120378D01*
X161898363Y-83100830D01*
X165526924Y-83100830D01*
X165589924Y-83117711D01*
X165636043Y-83163830D01*
X165652924Y-83226830D01*
X165652924Y-94374000D01*
X165636043Y-94437000D01*
X165589924Y-94483119D01*
X165526924Y-94500000D01*
X162535854Y-94500000D01*
X162472854Y-94483119D01*
X162426735Y-94437000D01*
X162409854Y-94374000D01*
X162409854Y-94099692D01*
X162419445Y-94051474D01*
X162446758Y-94010597D01*
X162630893Y-93826462D01*
X163245014Y-93212339D01*
X163293622Y-93182118D01*
X163337307Y-93177824D01*
X163337307Y-93175858D01*
X163345566Y-93175858D01*
X163353754Y-93176936D01*
X163503076Y-93157277D01*
X163642222Y-93099641D01*
X163761709Y-93007955D01*
X163853395Y-92888468D01*
X163911031Y-92749322D01*
X163930690Y-92600000D01*
X163911031Y-92450678D01*
X163853395Y-92311532D01*
X163811763Y-92257277D01*
X163766735Y-92198595D01*
X163761709Y-92192045D01*
X163704765Y-92148350D01*
X163648775Y-92105387D01*
X163648773Y-92105386D01*
X163642222Y-92100359D01*
X163634595Y-92097199D01*
X163634592Y-92097198D01*
X163510706Y-92045883D01*
X163510702Y-92045882D01*
X163503076Y-92042723D01*
X163494891Y-92041645D01*
X163494886Y-92041644D01*
X163361942Y-92024142D01*
X163353754Y-92023064D01*
X163345566Y-92024142D01*
X163212621Y-92041644D01*
X163212614Y-92041645D01*
X163204432Y-92042723D01*
X163196806Y-92045881D01*
X163196801Y-92045883D01*
X163072915Y-92097198D01*
X163072909Y-92097201D01*
X163065286Y-92100359D01*
X163058737Y-92105383D01*
X163058732Y-92105387D01*
X162952349Y-92187018D01*
X162952344Y-92187022D01*
X162945799Y-92192045D01*
X162940776Y-92198590D01*
X162940772Y-92198595D01*
X162859141Y-92304978D01*
X162859137Y-92304983D01*
X162854113Y-92311532D01*
X162850955Y-92319155D01*
X162850952Y-92319161D01*
X162799637Y-92443047D01*
X162799635Y-92443052D01*
X162796477Y-92450678D01*
X162795399Y-92458860D01*
X162795398Y-92458867D01*
X162793605Y-92472489D01*
X162776818Y-92600000D01*
X162777896Y-92608188D01*
X162777896Y-92616445D01*
X162775935Y-92616445D01*
X162771629Y-92660148D01*
X162741412Y-92708739D01*
X161837309Y-93612842D01*
X161819220Y-93627532D01*
X161817975Y-93628678D01*
X161809239Y-93634386D01*
X161802828Y-93642621D01*
X161802823Y-93642627D01*
X161790601Y-93658330D01*
X161787325Y-93662365D01*
X161784766Y-93665385D01*
X161781088Y-93669065D01*
X161778066Y-93673296D01*
X161778061Y-93673303D01*
X161769724Y-93684979D01*
X161766618Y-93689144D01*
X161753841Y-93705561D01*
X161736243Y-93728172D01*
X161733795Y-93735300D01*
X161729413Y-93741439D01*
X161726435Y-93751439D01*
X161726433Y-93751445D01*
X161715291Y-93788869D01*
X161713704Y-93793824D01*
X161702500Y-93826462D01*
X161697654Y-93840577D01*
X161697654Y-93848116D01*
X161695502Y-93855344D01*
X161695933Y-93865772D01*
X161695933Y-93865776D01*
X161697546Y-93904756D01*
X161697654Y-93909964D01*
X161697654Y-94374000D01*
X161680773Y-94437000D01*
X161634654Y-94483119D01*
X161571654Y-94500000D01*
X160382100Y-94500000D01*
X160319100Y-94483119D01*
X160272981Y-94437000D01*
X160256100Y-94374000D01*
X160256100Y-93250000D01*
X160258504Y-93226814D01*
X160258573Y-93225138D01*
X160260716Y-93214919D01*
X160256961Y-93184797D01*
X160256425Y-93179633D01*
X160256100Y-93175713D01*
X160256100Y-93170492D01*
X160252874Y-93151166D01*
X160252137Y-93146110D01*
X160246015Y-93096987D01*
X160242704Y-93090214D01*
X160241463Y-93082776D01*
X160217905Y-93039245D01*
X160215539Y-93034648D01*
X160198405Y-92999599D01*
X160198404Y-92999598D01*
X160193819Y-92990218D01*
X160188489Y-92984888D01*
X160184899Y-92978254D01*
X160148485Y-92944733D01*
X160144727Y-92941126D01*
X157687158Y-90483557D01*
X157672465Y-90465464D01*
X157671323Y-90464223D01*
X157665614Y-90455485D01*
X157657375Y-90449072D01*
X157641648Y-90436831D01*
X157637600Y-90433544D01*
X157634625Y-90431024D01*
X157630935Y-90427334D01*
X157615005Y-90415960D01*
X157610883Y-90412886D01*
X157571828Y-90382489D01*
X157564699Y-90380041D01*
X157558561Y-90375659D01*
X157548565Y-90372683D01*
X157548557Y-90372679D01*
X157511138Y-90361539D01*
X157506181Y-90359952D01*
X157469292Y-90347288D01*
X157469291Y-90347287D01*
X157459423Y-90343900D01*
X157451884Y-90343900D01*
X157444656Y-90341748D01*
X157434226Y-90342179D01*
X157434223Y-90342179D01*
X157395244Y-90343792D01*
X157390036Y-90343900D01*
X146409881Y-90343900D01*
X146354158Y-90330909D01*
X146320207Y-90303050D01*
X146318822Y-90304436D01*
X146312981Y-90298595D01*
X146307955Y-90292045D01*
X146188468Y-90200359D01*
X146180841Y-90197199D01*
X146180838Y-90197198D01*
X146056952Y-90145883D01*
X146056948Y-90145882D01*
X146049322Y-90142723D01*
X146041137Y-90141645D01*
X146041132Y-90141644D01*
X145908188Y-90124142D01*
X145900000Y-90123064D01*
X145891812Y-90124142D01*
X145758867Y-90141644D01*
X145758860Y-90141645D01*
X145750678Y-90142723D01*
X145743052Y-90145881D01*
X145743047Y-90145883D01*
X145619161Y-90197198D01*
X145619155Y-90197201D01*
X145611532Y-90200359D01*
X145604983Y-90205383D01*
X145604978Y-90205387D01*
X145498595Y-90287018D01*
X145498590Y-90287022D01*
X145492045Y-90292045D01*
X145487022Y-90298590D01*
X145487018Y-90298595D01*
X145400359Y-90411532D01*
X145397956Y-90409688D01*
X145362979Y-90444647D01*
X145300000Y-90461515D01*
X145237021Y-90444647D01*
X145202043Y-90409688D01*
X145199641Y-90411532D01*
X145107955Y-90292045D01*
X144988468Y-90200359D01*
X144980841Y-90197199D01*
X144980838Y-90197198D01*
X144856952Y-90145883D01*
X144856948Y-90145882D01*
X144849322Y-90142723D01*
X144841137Y-90141645D01*
X144841132Y-90141644D01*
X144708188Y-90124142D01*
X144700000Y-90123064D01*
X144691812Y-90124142D01*
X144558867Y-90141644D01*
X144558860Y-90141645D01*
X144550678Y-90142723D01*
X144543052Y-90145881D01*
X144543047Y-90145883D01*
X144419161Y-90197198D01*
X144419155Y-90197201D01*
X144411532Y-90200359D01*
X144404983Y-90205383D01*
X144404978Y-90205387D01*
X144298595Y-90287018D01*
X144298590Y-90287022D01*
X144292045Y-90292045D01*
X144287022Y-90298590D01*
X144287018Y-90298595D01*
X144207462Y-90402275D01*
X144158749Y-90440678D01*
X144097614Y-90451183D01*
X144038875Y-90431243D01*
X143996769Y-90385693D01*
X143981500Y-90325571D01*
X143981500Y-89785076D01*
X143991091Y-89736858D01*
X144009573Y-89709197D01*
X144007955Y-89707955D01*
X144026486Y-89683805D01*
X144099641Y-89588468D01*
X144157277Y-89449322D01*
X144176936Y-89300000D01*
X144157277Y-89150678D01*
X144128592Y-89081426D01*
X151422000Y-89081426D01*
X151422303Y-89087598D01*
X151435977Y-89226437D01*
X151438383Y-89238531D01*
X151492426Y-89416686D01*
X151497141Y-89428069D01*
X151584904Y-89592261D01*
X151591755Y-89602514D01*
X151709861Y-89746427D01*
X151718572Y-89755138D01*
X151862485Y-89873244D01*
X151872738Y-89880095D01*
X152036930Y-89967858D01*
X152048313Y-89972573D01*
X152161877Y-90007022D01*
X152173345Y-90007727D01*
X152176000Y-89996552D01*
X152684000Y-89996552D01*
X152686654Y-90007727D01*
X152698122Y-90007022D01*
X152811686Y-89972573D01*
X152823069Y-89967858D01*
X152987261Y-89880095D01*
X152997514Y-89873244D01*
X153141427Y-89755138D01*
X153150138Y-89746427D01*
X153268244Y-89602514D01*
X153275095Y-89592261D01*
X153362858Y-89428069D01*
X153367573Y-89416686D01*
X153421616Y-89238531D01*
X153424022Y-89226437D01*
X153437696Y-89087598D01*
X153438000Y-89081426D01*
X153438000Y-88591691D01*
X153452878Y-88532295D01*
X153493998Y-88486926D01*
X153551650Y-88466298D01*
X153612218Y-88475282D01*
X153709764Y-88515687D01*
X153822280Y-88530500D01*
X153893598Y-88530500D01*
X153897720Y-88530500D01*
X154010236Y-88515687D01*
X154150233Y-88457698D01*
X154270451Y-88365451D01*
X154362698Y-88245233D01*
X154420687Y-88105236D01*
X154440466Y-87955000D01*
X159059534Y-87955000D01*
X159060612Y-87963188D01*
X159078234Y-88097047D01*
X159078235Y-88097053D01*
X159079313Y-88105236D01*
X159082472Y-88112864D01*
X159082473Y-88112865D01*
X159134141Y-88237603D01*
X159134142Y-88237606D01*
X159137302Y-88245233D01*
X159229549Y-88365451D01*
X159349767Y-88457698D01*
X159489764Y-88515687D01*
X159602280Y-88530500D01*
X159673598Y-88530500D01*
X159677720Y-88530500D01*
X159790236Y-88515687D01*
X159887781Y-88475282D01*
X159948350Y-88466298D01*
X160006002Y-88486926D01*
X160047122Y-88532295D01*
X160062000Y-88591691D01*
X160062000Y-89081426D01*
X160062303Y-89087598D01*
X160075977Y-89226437D01*
X160078383Y-89238531D01*
X160132426Y-89416686D01*
X160137141Y-89428069D01*
X160224904Y-89592261D01*
X160231755Y-89602514D01*
X160349861Y-89746427D01*
X160358572Y-89755138D01*
X160502485Y-89873244D01*
X160512738Y-89880095D01*
X160676930Y-89967858D01*
X160688313Y-89972573D01*
X160801877Y-90007022D01*
X160813345Y-90007727D01*
X160816000Y-89996552D01*
X161324000Y-89996552D01*
X161326654Y-90007727D01*
X161338122Y-90007022D01*
X161451686Y-89972573D01*
X161463069Y-89967858D01*
X161627261Y-89880095D01*
X161637514Y-89873244D01*
X161781427Y-89755138D01*
X161790138Y-89746427D01*
X161908244Y-89602514D01*
X161915095Y-89592261D01*
X162002858Y-89428069D01*
X162007573Y-89416686D01*
X162061616Y-89238531D01*
X162064022Y-89226437D01*
X162077696Y-89087598D01*
X162078000Y-89081426D01*
X162078000Y-88755590D01*
X162074493Y-88742506D01*
X162061410Y-88739000D01*
X161340590Y-88739000D01*
X161327506Y-88742506D01*
X161324000Y-88755590D01*
X161324000Y-89996552D01*
X160816000Y-89996552D01*
X160816000Y-88214410D01*
X161324000Y-88214410D01*
X161327506Y-88227493D01*
X161340590Y-88231000D01*
X162061410Y-88231000D01*
X162074493Y-88227493D01*
X162078000Y-88214410D01*
X162078000Y-87888574D01*
X162077696Y-87882401D01*
X162064022Y-87743562D01*
X162061616Y-87731468D01*
X162007573Y-87553313D01*
X162002858Y-87541930D01*
X161915095Y-87377738D01*
X161908244Y-87367485D01*
X161790138Y-87223572D01*
X161781427Y-87214861D01*
X161637514Y-87096755D01*
X161627261Y-87089904D01*
X161463069Y-87002141D01*
X161451686Y-86997426D01*
X161338122Y-86962977D01*
X161326654Y-86962272D01*
X161324000Y-86973448D01*
X161324000Y-88214410D01*
X160816000Y-88214410D01*
X160816000Y-86973448D01*
X160813345Y-86962272D01*
X160801877Y-86962977D01*
X160688313Y-86997426D01*
X160676930Y-87002141D01*
X160512738Y-87089904D01*
X160502485Y-87096755D01*
X160358572Y-87214861D01*
X160349861Y-87223572D01*
X160231755Y-87367485D01*
X160224903Y-87377738D01*
X160180941Y-87459987D01*
X160145702Y-87501178D01*
X160096419Y-87523751D01*
X160042212Y-87523529D01*
X159993117Y-87500555D01*
X159930233Y-87452302D01*
X159922606Y-87449142D01*
X159922603Y-87449141D01*
X159797865Y-87397473D01*
X159797864Y-87397472D01*
X159790236Y-87394313D01*
X159782053Y-87393235D01*
X159782047Y-87393234D01*
X159681807Y-87380038D01*
X159681806Y-87380037D01*
X159677720Y-87379500D01*
X159602280Y-87379500D01*
X159598194Y-87380037D01*
X159598192Y-87380038D01*
X159497952Y-87393234D01*
X159497944Y-87393236D01*
X159489764Y-87394313D01*
X159482137Y-87397472D01*
X159482134Y-87397473D01*
X159357396Y-87449141D01*
X159357390Y-87449144D01*
X159349767Y-87452302D01*
X159343218Y-87457326D01*
X159343213Y-87457330D01*
X159236099Y-87539522D01*
X159236094Y-87539526D01*
X159229549Y-87544549D01*
X159224526Y-87551094D01*
X159224522Y-87551099D01*
X159142330Y-87658213D01*
X159142326Y-87658218D01*
X159137302Y-87664767D01*
X159134144Y-87672390D01*
X159134141Y-87672396D01*
X159082473Y-87797134D01*
X159079313Y-87804764D01*
X159078236Y-87812944D01*
X159078234Y-87812952D01*
X159065066Y-87912981D01*
X159059534Y-87955000D01*
X154440466Y-87955000D01*
X154420687Y-87804764D01*
X154362698Y-87664767D01*
X154270451Y-87544549D01*
X154263900Y-87539522D01*
X154156786Y-87457330D01*
X154156784Y-87457329D01*
X154150233Y-87452302D01*
X154142606Y-87449142D01*
X154142603Y-87449141D01*
X154017865Y-87397473D01*
X154017864Y-87397472D01*
X154010236Y-87394313D01*
X154002053Y-87393235D01*
X154002047Y-87393234D01*
X153901807Y-87380038D01*
X153901806Y-87380037D01*
X153897720Y-87379500D01*
X153822280Y-87379500D01*
X153818194Y-87380037D01*
X153818192Y-87380038D01*
X153717952Y-87393234D01*
X153717944Y-87393236D01*
X153709764Y-87394313D01*
X153702137Y-87397472D01*
X153702134Y-87397473D01*
X153577396Y-87449141D01*
X153577390Y-87449144D01*
X153569767Y-87452302D01*
X153563215Y-87457329D01*
X153563214Y-87457330D01*
X153506883Y-87500554D01*
X153457786Y-87523530D01*
X153403579Y-87523751D01*
X153354296Y-87501177D01*
X153319058Y-87459986D01*
X153275098Y-87377742D01*
X153268244Y-87367485D01*
X153150138Y-87223572D01*
X153141427Y-87214861D01*
X152997514Y-87096755D01*
X152987261Y-87089904D01*
X152823069Y-87002141D01*
X152811686Y-86997426D01*
X152698122Y-86962977D01*
X152686654Y-86962272D01*
X152684000Y-86973448D01*
X152684000Y-89996552D01*
X152176000Y-89996552D01*
X152176000Y-88755590D01*
X152172493Y-88742506D01*
X152159410Y-88739000D01*
X151438590Y-88739000D01*
X151425506Y-88742506D01*
X151422000Y-88755590D01*
X151422000Y-89081426D01*
X144128592Y-89081426D01*
X144099641Y-89011532D01*
X144007955Y-88892045D01*
X144001404Y-88887018D01*
X143895021Y-88805387D01*
X143895019Y-88805386D01*
X143888468Y-88800359D01*
X143880841Y-88797199D01*
X143880838Y-88797198D01*
X143756952Y-88745883D01*
X143756948Y-88745882D01*
X143749322Y-88742723D01*
X143741137Y-88741645D01*
X143741132Y-88741644D01*
X143608188Y-88724142D01*
X143600000Y-88723064D01*
X143591812Y-88724142D01*
X143458867Y-88741644D01*
X143458860Y-88741645D01*
X143450678Y-88742723D01*
X143443052Y-88745881D01*
X143443047Y-88745883D01*
X143319161Y-88797198D01*
X143319155Y-88797201D01*
X143311532Y-88800359D01*
X143304983Y-88805383D01*
X143304978Y-88805387D01*
X143192045Y-88892045D01*
X143190802Y-88890426D01*
X143163142Y-88908909D01*
X143114924Y-88918500D01*
X141410212Y-88918500D01*
X141361994Y-88908909D01*
X141321117Y-88881595D01*
X140653933Y-88214410D01*
X151422000Y-88214410D01*
X151425506Y-88227493D01*
X151438590Y-88231000D01*
X152159410Y-88231000D01*
X152172493Y-88227493D01*
X152176000Y-88214410D01*
X152176000Y-86973448D01*
X152173345Y-86962272D01*
X152161877Y-86962977D01*
X152048313Y-86997426D01*
X152036930Y-87002141D01*
X151872738Y-87089904D01*
X151862485Y-87096755D01*
X151718572Y-87214861D01*
X151709861Y-87223572D01*
X151591755Y-87367485D01*
X151584904Y-87377738D01*
X151497141Y-87541930D01*
X151492426Y-87553313D01*
X151438383Y-87731468D01*
X151435977Y-87743562D01*
X151422303Y-87882401D01*
X151422000Y-87888574D01*
X151422000Y-88214410D01*
X140653933Y-88214410D01*
X140012763Y-87573240D01*
X139985449Y-87532363D01*
X139978958Y-87499733D01*
X139976936Y-87500000D01*
X139957277Y-87350678D01*
X139899641Y-87211532D01*
X139807955Y-87092045D01*
X139688468Y-87000359D01*
X139680841Y-86997199D01*
X139680838Y-86997198D01*
X139556952Y-86945883D01*
X139556948Y-86945882D01*
X139549322Y-86942723D01*
X139541137Y-86941645D01*
X139541132Y-86941644D01*
X139408188Y-86924142D01*
X139400000Y-86923064D01*
X139391812Y-86924142D01*
X139258867Y-86941644D01*
X139258860Y-86941645D01*
X139250678Y-86942723D01*
X139243052Y-86945881D01*
X139243047Y-86945883D01*
X139119161Y-86997198D01*
X139119155Y-86997201D01*
X139111532Y-87000359D01*
X139104983Y-87005383D01*
X139104978Y-87005387D01*
X138998595Y-87087018D01*
X138998590Y-87087022D01*
X138992045Y-87092045D01*
X138987022Y-87098590D01*
X138987018Y-87098595D01*
X138905387Y-87204978D01*
X138905383Y-87204983D01*
X138900359Y-87211532D01*
X138897201Y-87219155D01*
X138897198Y-87219161D01*
X138845883Y-87343047D01*
X138845881Y-87343052D01*
X138842723Y-87350678D01*
X138841645Y-87358860D01*
X138841644Y-87358867D01*
X138828682Y-87457327D01*
X138823064Y-87500000D01*
X138824142Y-87508188D01*
X138841644Y-87641132D01*
X138841645Y-87641137D01*
X138842723Y-87649322D01*
X138845882Y-87656948D01*
X138845883Y-87656952D01*
X138897198Y-87780838D01*
X138897199Y-87780841D01*
X138900359Y-87788468D01*
X138905386Y-87795019D01*
X138905387Y-87795021D01*
X138977173Y-87888574D01*
X138992045Y-87907955D01*
X139111532Y-87999641D01*
X139250678Y-88057277D01*
X139400000Y-88076936D01*
X139399733Y-88078958D01*
X139432364Y-88085449D01*
X139473241Y-88112763D01*
X140893015Y-89532537D01*
X140909402Y-89552715D01*
X140909727Y-89553213D01*
X140909730Y-89553216D01*
X140915440Y-89561956D01*
X140940829Y-89581717D01*
X140944795Y-89585220D01*
X140944931Y-89585061D01*
X140948904Y-89588426D01*
X140952591Y-89592113D01*
X140956831Y-89595140D01*
X140969774Y-89604381D01*
X140973922Y-89607473D01*
X141015915Y-89640158D01*
X141023555Y-89642781D01*
X141030130Y-89647475D01*
X141081149Y-89662663D01*
X141086013Y-89664222D01*
X141136339Y-89681500D01*
X141144416Y-89681500D01*
X141152158Y-89683805D01*
X141205272Y-89681608D01*
X141210480Y-89681500D01*
X143092500Y-89681500D01*
X143155500Y-89698381D01*
X143201619Y-89744500D01*
X143218500Y-89807500D01*
X143218500Y-91576984D01*
X143201731Y-91639790D01*
X143155887Y-91685879D01*
X143093170Y-91702981D01*
X142497869Y-91706148D01*
X138765010Y-91726003D01*
X138716432Y-91716542D01*
X138675245Y-91689100D01*
X133869702Y-86883557D01*
X133855009Y-86865464D01*
X133853867Y-86864223D01*
X133848158Y-86855485D01*
X133839919Y-86849072D01*
X133824192Y-86836831D01*
X133820144Y-86833544D01*
X133817169Y-86831024D01*
X133813479Y-86827334D01*
X133797549Y-86815960D01*
X133793427Y-86812886D01*
X133754372Y-86782489D01*
X133747243Y-86780041D01*
X133741105Y-86775659D01*
X133731109Y-86772683D01*
X133731101Y-86772679D01*
X133693682Y-86761539D01*
X133688725Y-86759952D01*
X133651836Y-86747288D01*
X133651835Y-86747287D01*
X133641967Y-86743900D01*
X133634428Y-86743900D01*
X133627200Y-86741748D01*
X133616770Y-86742179D01*
X133616767Y-86742179D01*
X133577788Y-86743792D01*
X133572580Y-86743900D01*
X133009881Y-86743900D01*
X132954158Y-86730909D01*
X132920207Y-86703050D01*
X132918822Y-86704436D01*
X132912981Y-86698595D01*
X132907955Y-86692045D01*
X132788468Y-86600359D01*
X132780841Y-86597199D01*
X132780838Y-86597198D01*
X132656952Y-86545883D01*
X132656948Y-86545882D01*
X132649322Y-86542723D01*
X132641137Y-86541645D01*
X132641132Y-86541644D01*
X132508188Y-86524142D01*
X132500000Y-86523064D01*
X132491812Y-86524142D01*
X132358867Y-86541644D01*
X132358860Y-86541645D01*
X132350678Y-86542723D01*
X132343052Y-86545881D01*
X132343047Y-86545883D01*
X132219161Y-86597198D01*
X132219155Y-86597201D01*
X132211532Y-86600359D01*
X132204983Y-86605383D01*
X132204978Y-86605387D01*
X132098595Y-86687018D01*
X132098590Y-86687022D01*
X132092045Y-86692045D01*
X132087022Y-86698590D01*
X132087018Y-86698595D01*
X132005387Y-86804978D01*
X132005383Y-86804983D01*
X132000359Y-86811532D01*
X131997201Y-86819155D01*
X131997198Y-86819161D01*
X131945883Y-86943047D01*
X131945881Y-86943052D01*
X131942723Y-86950678D01*
X131941645Y-86958860D01*
X131941644Y-86958867D01*
X131935520Y-87005387D01*
X131923064Y-87100000D01*
X131924142Y-87108188D01*
X131941644Y-87241132D01*
X131941645Y-87241137D01*
X131942723Y-87249322D01*
X131945882Y-87256948D01*
X131945883Y-87256952D01*
X131997198Y-87380838D01*
X131997199Y-87380841D01*
X132000359Y-87388468D01*
X132005386Y-87395019D01*
X132005387Y-87395021D01*
X132062223Y-87469091D01*
X132092045Y-87507955D01*
X132211532Y-87599641D01*
X132350678Y-87657277D01*
X132500000Y-87676936D01*
X132649322Y-87657277D01*
X132788468Y-87599641D01*
X132907955Y-87507955D01*
X132912982Y-87501403D01*
X132918822Y-87495564D01*
X132920207Y-87496949D01*
X132954158Y-87469091D01*
X133009881Y-87456100D01*
X133382853Y-87456100D01*
X133431071Y-87465691D01*
X133471948Y-87493005D01*
X137107748Y-91128805D01*
X137138486Y-91178964D01*
X137143102Y-91237611D01*
X137120589Y-91291961D01*
X137075856Y-91330167D01*
X137018653Y-91343900D01*
X134363635Y-91343900D01*
X134307912Y-91330909D01*
X134273961Y-91303050D01*
X134272576Y-91304436D01*
X134266735Y-91298595D01*
X134261709Y-91292045D01*
X134236023Y-91272335D01*
X134148775Y-91205387D01*
X134148773Y-91205386D01*
X134142222Y-91200359D01*
X134134595Y-91197199D01*
X134134592Y-91197198D01*
X134010706Y-91145883D01*
X134010702Y-91145882D01*
X134003076Y-91142723D01*
X133994891Y-91141645D01*
X133994886Y-91141644D01*
X133861942Y-91124142D01*
X133853754Y-91123064D01*
X133845566Y-91124142D01*
X133712621Y-91141644D01*
X133712614Y-91141645D01*
X133704432Y-91142723D01*
X133696806Y-91145881D01*
X133696801Y-91145883D01*
X133572915Y-91197198D01*
X133572909Y-91197201D01*
X133565286Y-91200359D01*
X133558737Y-91205383D01*
X133558732Y-91205387D01*
X133452349Y-91287018D01*
X133452344Y-91287022D01*
X133445799Y-91292045D01*
X133440776Y-91298590D01*
X133440772Y-91298595D01*
X133359141Y-91404978D01*
X133359137Y-91404983D01*
X133354113Y-91411532D01*
X133350955Y-91419155D01*
X133350952Y-91419161D01*
X133299637Y-91543047D01*
X133299635Y-91543052D01*
X133296477Y-91550678D01*
X133295399Y-91558860D01*
X133295398Y-91558867D01*
X133283892Y-91646267D01*
X133262311Y-91701908D01*
X133217546Y-91741376D01*
X133159640Y-91755818D01*
X126373389Y-91791917D01*
X125981253Y-91794002D01*
X125917971Y-91777347D01*
X125871577Y-91731198D01*
X125854584Y-91668005D01*
X125854584Y-84651426D01*
X151422000Y-84651426D01*
X151422303Y-84657598D01*
X151435977Y-84796437D01*
X151438383Y-84808531D01*
X151492426Y-84986686D01*
X151497141Y-84998069D01*
X151584904Y-85162261D01*
X151591755Y-85172514D01*
X151709861Y-85316427D01*
X151718572Y-85325138D01*
X151862485Y-85443244D01*
X151872738Y-85450095D01*
X152036930Y-85537858D01*
X152048313Y-85542573D01*
X152161877Y-85577022D01*
X152173345Y-85577727D01*
X152176000Y-85566552D01*
X152684000Y-85566552D01*
X152686654Y-85577727D01*
X152698122Y-85577022D01*
X152811686Y-85542573D01*
X152823069Y-85537858D01*
X152987261Y-85450095D01*
X152997514Y-85443244D01*
X153141427Y-85325138D01*
X153150138Y-85316427D01*
X153268244Y-85172514D01*
X153275095Y-85162261D01*
X153362858Y-84998069D01*
X153367573Y-84986686D01*
X153421616Y-84808531D01*
X153424022Y-84796437D01*
X153437696Y-84657598D01*
X153438000Y-84651426D01*
X160062000Y-84651426D01*
X160062303Y-84657598D01*
X160075977Y-84796437D01*
X160078383Y-84808531D01*
X160132426Y-84986686D01*
X160137141Y-84998069D01*
X160224904Y-85162261D01*
X160231755Y-85172514D01*
X160349861Y-85316427D01*
X160358572Y-85325138D01*
X160502485Y-85443244D01*
X160512738Y-85450095D01*
X160676930Y-85537858D01*
X160688313Y-85542573D01*
X160801877Y-85577022D01*
X160813345Y-85577727D01*
X160816000Y-85566552D01*
X161324000Y-85566552D01*
X161326654Y-85577727D01*
X161338122Y-85577022D01*
X161451686Y-85542573D01*
X161463069Y-85537858D01*
X161627261Y-85450095D01*
X161637514Y-85443244D01*
X161781427Y-85325138D01*
X161790138Y-85316427D01*
X161908244Y-85172514D01*
X161915095Y-85162261D01*
X162002858Y-84998069D01*
X162007573Y-84986686D01*
X162061616Y-84808531D01*
X162064022Y-84796437D01*
X162077696Y-84657598D01*
X162078000Y-84651426D01*
X162078000Y-84575590D01*
X162074493Y-84562506D01*
X162061410Y-84559000D01*
X161340590Y-84559000D01*
X161327506Y-84562506D01*
X161324000Y-84575590D01*
X161324000Y-85566552D01*
X160816000Y-85566552D01*
X160816000Y-84575590D01*
X160812493Y-84562506D01*
X160799410Y-84559000D01*
X160078590Y-84559000D01*
X160065506Y-84562506D01*
X160062000Y-84575590D01*
X160062000Y-84651426D01*
X153438000Y-84651426D01*
X153438000Y-84575590D01*
X153434493Y-84562506D01*
X153421410Y-84559000D01*
X152700590Y-84559000D01*
X152687506Y-84562506D01*
X152684000Y-84575590D01*
X152684000Y-85566552D01*
X152176000Y-85566552D01*
X152176000Y-84575590D01*
X152172493Y-84562506D01*
X152159410Y-84559000D01*
X151438590Y-84559000D01*
X151425506Y-84562506D01*
X151422000Y-84575590D01*
X151422000Y-84651426D01*
X125854584Y-84651426D01*
X125854584Y-83226830D01*
X125871465Y-83163830D01*
X125917584Y-83117711D01*
X125980584Y-83100830D01*
X151601637Y-83100830D01*
X151669047Y-83120378D01*
G37*
G04 #@! TD.AperFunction*
G04 #@! TA.AperFunction,Conductor*
G36*
X157248527Y-91065691D02*
G01*
X157289404Y-91093005D01*
X158615579Y-92419180D01*
X158647295Y-92472489D01*
X158649731Y-92534472D01*
X158622295Y-92590106D01*
X158571638Y-92625906D01*
X158510038Y-92633197D01*
X158462223Y-92626902D01*
X158462222Y-92626902D01*
X158454034Y-92625824D01*
X158445846Y-92626902D01*
X158312901Y-92644404D01*
X158312894Y-92644405D01*
X158304712Y-92645483D01*
X158297086Y-92648641D01*
X158297081Y-92648643D01*
X158173195Y-92699958D01*
X158173189Y-92699961D01*
X158165566Y-92703119D01*
X158159017Y-92708143D01*
X158159012Y-92708147D01*
X158052629Y-92789778D01*
X158052624Y-92789782D01*
X158046079Y-92794805D01*
X158041056Y-92801350D01*
X158041052Y-92801355D01*
X157959421Y-92907738D01*
X157959417Y-92907743D01*
X157954393Y-92914292D01*
X157951235Y-92921915D01*
X157951232Y-92921921D01*
X157899917Y-93045807D01*
X157899915Y-93045812D01*
X157896757Y-93053438D01*
X157895678Y-93061626D01*
X157895679Y-93061626D01*
X157890623Y-93100025D01*
X157878706Y-93139305D01*
X157854796Y-93172671D01*
X156564370Y-94463097D01*
X156523497Y-94490409D01*
X156475279Y-94500000D01*
X151366418Y-94500000D01*
X151318200Y-94490409D01*
X151283450Y-94476015D01*
X151210706Y-94445883D01*
X151210702Y-94445882D01*
X151203076Y-94442723D01*
X151194891Y-94441645D01*
X151194886Y-94441644D01*
X151061942Y-94424142D01*
X151053754Y-94423064D01*
X151045566Y-94424142D01*
X150994171Y-94430908D01*
X150936813Y-94425159D01*
X150927289Y-94421889D01*
X150927284Y-94421888D01*
X150917415Y-94418500D01*
X150909337Y-94418500D01*
X150901595Y-94416195D01*
X150891165Y-94416626D01*
X150891162Y-94416626D01*
X150848481Y-94418392D01*
X150843274Y-94418500D01*
X150180227Y-94418500D01*
X150132009Y-94408909D01*
X150091132Y-94381595D01*
X149392551Y-93683014D01*
X149359939Y-93626530D01*
X149359939Y-93561308D01*
X149392549Y-93504825D01*
X150078972Y-92818404D01*
X150119850Y-92791091D01*
X150168068Y-92781500D01*
X152814924Y-92781500D01*
X152863142Y-92791091D01*
X152890802Y-92809573D01*
X152892045Y-92807955D01*
X152987027Y-92880838D01*
X153011532Y-92899641D01*
X153150678Y-92957277D01*
X153300000Y-92976936D01*
X153449322Y-92957277D01*
X153588468Y-92899641D01*
X153707955Y-92807955D01*
X153799641Y-92688468D01*
X153857277Y-92549322D01*
X153876936Y-92400000D01*
X153857277Y-92250678D01*
X153799641Y-92111532D01*
X153790893Y-92100132D01*
X153712981Y-91998595D01*
X153707955Y-91992045D01*
X153701404Y-91987018D01*
X153595021Y-91905387D01*
X153595019Y-91905386D01*
X153588468Y-91900359D01*
X153580841Y-91897199D01*
X153580838Y-91897198D01*
X153456952Y-91845883D01*
X153456948Y-91845882D01*
X153449322Y-91842723D01*
X153441137Y-91841645D01*
X153441132Y-91841644D01*
X153308188Y-91824142D01*
X153300000Y-91823064D01*
X153291812Y-91824142D01*
X153158867Y-91841644D01*
X153158860Y-91841645D01*
X153150678Y-91842723D01*
X153143052Y-91845881D01*
X153143047Y-91845883D01*
X153019161Y-91897198D01*
X153019155Y-91897201D01*
X153011532Y-91900359D01*
X153004983Y-91905383D01*
X153004978Y-91905387D01*
X152892045Y-91992045D01*
X152890802Y-91990426D01*
X152863142Y-92008909D01*
X152814924Y-92018500D01*
X150010488Y-92018500D01*
X149984631Y-92015818D01*
X149984242Y-92015736D01*
X149984054Y-92015697D01*
X149984053Y-92015696D01*
X149973838Y-92013555D01*
X149963480Y-92014846D01*
X149963477Y-92014846D01*
X149941933Y-92017532D01*
X149936628Y-92017861D01*
X149936646Y-92018070D01*
X149931453Y-92018500D01*
X149926243Y-92018500D01*
X149921112Y-92019356D01*
X149921102Y-92019357D01*
X149905395Y-92021978D01*
X149900250Y-92022727D01*
X149857849Y-92028013D01*
X149857847Y-92028013D01*
X149847494Y-92029304D01*
X149840235Y-92032852D01*
X149832268Y-92034182D01*
X149785484Y-92059499D01*
X149780888Y-92061865D01*
X149743256Y-92080263D01*
X149733108Y-92085224D01*
X149727397Y-92090934D01*
X149720292Y-92094780D01*
X149713230Y-92102450D01*
X149713225Y-92102455D01*
X149684261Y-92133918D01*
X149680657Y-92137673D01*
X148642816Y-93175515D01*
X148601939Y-93202829D01*
X148553721Y-93212420D01*
X148417415Y-93212420D01*
X146287462Y-93212420D01*
X146226857Y-93196888D01*
X146181195Y-93154120D01*
X146161732Y-93094661D01*
X146173267Y-93033170D01*
X146212957Y-92984808D01*
X146271015Y-92961498D01*
X146271603Y-92961420D01*
X146303076Y-92957277D01*
X146442222Y-92899641D01*
X146561709Y-92807955D01*
X146653395Y-92688468D01*
X146711031Y-92549322D01*
X146730690Y-92400000D01*
X146711031Y-92250678D01*
X146653395Y-92111532D01*
X146644647Y-92100132D01*
X146566735Y-91998595D01*
X146561709Y-91992045D01*
X146555158Y-91987018D01*
X146448775Y-91905387D01*
X146448773Y-91905386D01*
X146442222Y-91900359D01*
X146434596Y-91897200D01*
X146434594Y-91897199D01*
X146338737Y-91857494D01*
X146297861Y-91830180D01*
X145943360Y-91475679D01*
X145909746Y-91415195D01*
X145913142Y-91346081D01*
X145952523Y-91289183D01*
X146016010Y-91261662D01*
X146049322Y-91257277D01*
X146188468Y-91199641D01*
X146307955Y-91107955D01*
X146312982Y-91101403D01*
X146318822Y-91095564D01*
X146320207Y-91096949D01*
X146354158Y-91069091D01*
X146409881Y-91056100D01*
X157200309Y-91056100D01*
X157248527Y-91065691D01*
G37*
G04 #@! TD.AperFunction*
G04 #@! TA.AperFunction,Conductor*
G36*
X126947422Y-92117230D02*
G01*
X126993629Y-92164207D01*
X127009805Y-92228083D01*
X126991526Y-92291390D01*
X126943792Y-92336814D01*
X126833027Y-92396757D01*
X126824345Y-92402428D01*
X126822199Y-92404098D01*
X126813964Y-92415465D01*
X126820733Y-92427769D01*
X127562024Y-93169060D01*
X127573753Y-93175832D01*
X127585484Y-93169059D01*
X128326776Y-92427766D01*
X128333542Y-92415466D01*
X128325305Y-92404096D01*
X128323165Y-92402431D01*
X128314479Y-92396756D01*
X128203716Y-92336814D01*
X128155982Y-92291390D01*
X128137703Y-92228083D01*
X128153879Y-92164207D01*
X128200086Y-92117230D01*
X128263686Y-92100000D01*
X129423822Y-92100000D01*
X129487422Y-92117230D01*
X129533629Y-92164207D01*
X129549805Y-92228083D01*
X129531526Y-92291390D01*
X129483792Y-92336814D01*
X129373027Y-92396757D01*
X129364345Y-92402428D01*
X129362199Y-92404098D01*
X129353964Y-92415465D01*
X129360733Y-92427769D01*
X130102024Y-93169060D01*
X130113753Y-93175832D01*
X130125484Y-93169059D01*
X130866776Y-92427766D01*
X130873542Y-92415466D01*
X130865305Y-92404096D01*
X130863165Y-92402431D01*
X130854479Y-92396756D01*
X130743716Y-92336814D01*
X130695982Y-92291390D01*
X130677703Y-92228083D01*
X130693879Y-92164207D01*
X130740086Y-92117230D01*
X130803686Y-92100000D01*
X131963822Y-92100000D01*
X132027422Y-92117230D01*
X132073629Y-92164207D01*
X132089805Y-92228083D01*
X132071526Y-92291390D01*
X132023792Y-92336814D01*
X131913027Y-92396757D01*
X131904345Y-92402428D01*
X131902199Y-92404098D01*
X131893964Y-92415465D01*
X131900733Y-92427769D01*
X132642024Y-93169060D01*
X132653753Y-93175832D01*
X132665484Y-93169059D01*
X133406776Y-92427766D01*
X133413542Y-92415466D01*
X133405305Y-92404096D01*
X133403165Y-92402431D01*
X133394479Y-92396756D01*
X133283716Y-92336814D01*
X133235982Y-92291390D01*
X133217703Y-92228083D01*
X133233879Y-92164207D01*
X133280086Y-92117230D01*
X133343686Y-92100000D01*
X133392661Y-92100000D01*
X133433162Y-92106687D01*
X133469365Y-92126038D01*
X133558732Y-92194612D01*
X133565286Y-92199641D01*
X133704432Y-92257277D01*
X133853754Y-92276936D01*
X134003076Y-92257277D01*
X134142222Y-92199641D01*
X134238142Y-92126038D01*
X134274346Y-92106687D01*
X134314847Y-92100000D01*
X134503822Y-92100000D01*
X134567422Y-92117230D01*
X134613629Y-92164207D01*
X134629805Y-92228083D01*
X134611526Y-92291390D01*
X134563792Y-92336814D01*
X134453027Y-92396757D01*
X134444345Y-92402428D01*
X134442199Y-92404098D01*
X134433964Y-92415465D01*
X134440733Y-92427769D01*
X135182024Y-93169060D01*
X135193753Y-93175832D01*
X135205484Y-93169059D01*
X135946776Y-92427766D01*
X135953542Y-92415466D01*
X135945305Y-92404096D01*
X135943165Y-92402431D01*
X135934479Y-92396756D01*
X135823716Y-92336814D01*
X135775982Y-92291390D01*
X135757703Y-92228083D01*
X135773879Y-92164207D01*
X135820086Y-92117230D01*
X135883686Y-92100000D01*
X137043822Y-92100000D01*
X137107422Y-92117230D01*
X137153629Y-92164207D01*
X137169805Y-92228083D01*
X137151526Y-92291390D01*
X137103792Y-92336814D01*
X136993027Y-92396757D01*
X136984345Y-92402428D01*
X136982199Y-92404098D01*
X136973964Y-92415465D01*
X136980733Y-92427769D01*
X138846892Y-94293928D01*
X138856424Y-94299947D01*
X138864519Y-94292099D01*
X138929320Y-94192916D01*
X138934266Y-94183776D01*
X139020483Y-93987223D01*
X139023854Y-93977405D01*
X139071197Y-93790449D01*
X139103330Y-93733209D01*
X139159893Y-93699900D01*
X139225534Y-93699561D01*
X139282437Y-93732284D01*
X143216849Y-97666696D01*
X143244163Y-97707573D01*
X143253754Y-97755791D01*
X143253754Y-98047072D01*
X143240760Y-98102800D01*
X143204458Y-98147034D01*
X143152349Y-98187018D01*
X143152344Y-98187022D01*
X143145799Y-98192045D01*
X143140776Y-98198590D01*
X143140772Y-98198595D01*
X143059141Y-98304978D01*
X143059137Y-98304983D01*
X143054113Y-98311532D01*
X143050955Y-98319155D01*
X143050952Y-98319161D01*
X142999637Y-98443047D01*
X142999635Y-98443052D01*
X142996477Y-98450678D01*
X142995399Y-98458860D01*
X142995398Y-98458867D01*
X142979769Y-98577586D01*
X142976818Y-98600000D01*
X142977896Y-98608188D01*
X142995398Y-98741132D01*
X142995399Y-98741137D01*
X142996477Y-98749322D01*
X142999636Y-98756948D01*
X142999637Y-98756952D01*
X143050952Y-98880838D01*
X143050953Y-98880841D01*
X143054113Y-98888468D01*
X143059139Y-98895019D01*
X143059141Y-98895021D01*
X143082716Y-98925744D01*
X143102067Y-98961947D01*
X143108754Y-99002448D01*
X143108754Y-106909731D01*
X143099163Y-106957949D01*
X143071849Y-106998826D01*
X139475703Y-110594972D01*
X139434826Y-110622286D01*
X139386608Y-110631877D01*
X137379325Y-110631877D01*
X137338824Y-110625190D01*
X137302621Y-110605839D01*
X137271898Y-110582264D01*
X137271896Y-110582262D01*
X137265345Y-110577236D01*
X137257718Y-110574076D01*
X137257715Y-110574075D01*
X137133829Y-110522760D01*
X137133825Y-110522759D01*
X137126199Y-110519600D01*
X137118014Y-110518522D01*
X137118009Y-110518521D01*
X136985065Y-110501019D01*
X136976877Y-110499941D01*
X136968689Y-110501019D01*
X136835744Y-110518521D01*
X136835737Y-110518522D01*
X136827555Y-110519600D01*
X136819929Y-110522758D01*
X136819924Y-110522760D01*
X136696038Y-110574075D01*
X136696032Y-110574078D01*
X136688409Y-110577236D01*
X136681860Y-110582260D01*
X136681855Y-110582264D01*
X136575472Y-110663895D01*
X136575467Y-110663899D01*
X136568922Y-110668922D01*
X136563899Y-110675467D01*
X136563895Y-110675472D01*
X136482264Y-110781855D01*
X136482260Y-110781860D01*
X136477236Y-110788409D01*
X136474078Y-110796032D01*
X136474075Y-110796038D01*
X136422760Y-110919924D01*
X136422758Y-110919929D01*
X136419600Y-110927555D01*
X136418522Y-110935737D01*
X136418521Y-110935744D01*
X136401181Y-111067457D01*
X136399941Y-111076877D01*
X136401019Y-111085065D01*
X136418521Y-111218009D01*
X136418522Y-111218014D01*
X136419600Y-111226199D01*
X136422759Y-111233825D01*
X136422760Y-111233829D01*
X136474075Y-111357715D01*
X136474076Y-111357718D01*
X136477236Y-111365345D01*
X136482263Y-111371896D01*
X136482264Y-111371898D01*
X136537758Y-111444219D01*
X136568922Y-111484832D01*
X136688409Y-111576518D01*
X136827555Y-111634154D01*
X136976877Y-111653813D01*
X137126199Y-111634154D01*
X137265345Y-111576518D01*
X137302620Y-111547915D01*
X137338824Y-111528564D01*
X137379325Y-111521877D01*
X139591059Y-111521877D01*
X139605166Y-111522669D01*
X139639950Y-111526588D01*
X139695397Y-111516096D01*
X139699968Y-111515319D01*
X139755770Y-111506910D01*
X139763418Y-111503226D01*
X139771757Y-111501649D01*
X139821652Y-111475277D01*
X139825816Y-111473177D01*
X139868118Y-111452806D01*
X139868117Y-111452806D01*
X139876632Y-111448706D01*
X139882853Y-111442933D01*
X139890358Y-111438967D01*
X139930269Y-111399054D01*
X139933609Y-111395837D01*
X139974967Y-111357464D01*
X139978414Y-111351490D01*
X139983303Y-111346020D01*
X143038658Y-108290666D01*
X143088818Y-108259928D01*
X143147465Y-108255312D01*
X143201815Y-108277825D01*
X143240021Y-108322558D01*
X143253754Y-108379761D01*
X143253754Y-116383300D01*
X143236873Y-116446300D01*
X143190754Y-116492419D01*
X143127754Y-116509300D01*
X135473703Y-116509300D01*
X135462722Y-116508821D01*
X135435463Y-116506436D01*
X135435461Y-116506436D01*
X135424487Y-116505476D01*
X135413847Y-116508326D01*
X135413844Y-116508327D01*
X135387425Y-116515406D01*
X135376700Y-116517783D01*
X135349759Y-116522534D01*
X135349754Y-116522535D01*
X135338903Y-116524449D01*
X135329363Y-116529955D01*
X135325868Y-116531228D01*
X135322479Y-116532808D01*
X135311838Y-116535660D01*
X135302812Y-116541979D01*
X135302809Y-116541981D01*
X135280394Y-116557676D01*
X135271136Y-116563573D01*
X135264509Y-116567399D01*
X135247450Y-116577249D01*
X135247446Y-116577251D01*
X135237905Y-116582761D01*
X135230820Y-116591203D01*
X135230820Y-116591204D01*
X135213236Y-116612159D01*
X135205812Y-116620259D01*
X133480219Y-118345853D01*
X133472119Y-118353277D01*
X133442715Y-118377951D01*
X133437204Y-118387494D01*
X133437201Y-118387499D01*
X133423524Y-118411187D01*
X133417624Y-118420449D01*
X133395614Y-118451884D01*
X133392762Y-118462524D01*
X133391184Y-118465909D01*
X133389910Y-118469409D01*
X133384403Y-118478949D01*
X133382489Y-118489800D01*
X133382488Y-118489805D01*
X133377737Y-118516746D01*
X133375361Y-118527466D01*
X133373072Y-118536011D01*
X133340459Y-118592503D01*
X132762849Y-119170114D01*
X132706364Y-119202726D01*
X132641142Y-119202726D01*
X132584658Y-119170114D01*
X131560614Y-118146070D01*
X131551082Y-118140051D01*
X131542988Y-118147899D01*
X131478185Y-118247086D01*
X131473242Y-118256221D01*
X131387026Y-118452772D01*
X131385979Y-118455822D01*
X131385039Y-118457301D01*
X131384932Y-118457547D01*
X131384894Y-118457530D01*
X131354544Y-118505333D01*
X131304103Y-118535252D01*
X131245582Y-118539096D01*
X131191660Y-118516033D01*
X131154022Y-118471064D01*
X131076842Y-118316065D01*
X130953486Y-118152715D01*
X130949183Y-118148792D01*
X130949180Y-118148789D01*
X130806518Y-118018736D01*
X130806519Y-118018736D01*
X130802216Y-118014814D01*
X130797266Y-118011749D01*
X130797262Y-118011746D01*
X130633141Y-117910127D01*
X130633140Y-117910126D01*
X130628181Y-117907056D01*
X130569883Y-117884471D01*
X130442743Y-117835216D01*
X130442735Y-117835213D01*
X130437310Y-117833112D01*
X130431593Y-117832043D01*
X130431585Y-117832041D01*
X130241827Y-117796570D01*
X130241823Y-117796569D01*
X130236101Y-117795500D01*
X130031407Y-117795500D01*
X130025685Y-117796569D01*
X130025680Y-117796570D01*
X129835922Y-117832041D01*
X129835911Y-117832043D01*
X129830198Y-117833112D01*
X129824775Y-117835212D01*
X129824764Y-117835216D01*
X129644765Y-117904949D01*
X129644762Y-117904950D01*
X129639327Y-117907056D01*
X129634371Y-117910124D01*
X129634366Y-117910127D01*
X129470245Y-118011746D01*
X129470235Y-118011752D01*
X129465292Y-118014814D01*
X129460993Y-118018732D01*
X129460989Y-118018736D01*
X129318327Y-118148789D01*
X129318319Y-118148797D01*
X129314022Y-118152715D01*
X129310517Y-118157355D01*
X129310509Y-118157365D01*
X129194176Y-118311416D01*
X129194172Y-118311421D01*
X129190666Y-118316065D01*
X129188073Y-118321273D01*
X129188068Y-118321281D01*
X129102025Y-118494079D01*
X129099426Y-118499299D01*
X129097832Y-118504899D01*
X129097830Y-118504906D01*
X129066535Y-118614899D01*
X129043409Y-118696179D01*
X129042872Y-118701972D01*
X129042870Y-118701984D01*
X129025060Y-118894194D01*
X129024522Y-118900000D01*
X129025060Y-118905806D01*
X129042870Y-119098015D01*
X129042871Y-119098025D01*
X129043409Y-119103821D01*
X129045003Y-119109426D01*
X129045004Y-119109427D01*
X129097709Y-119294669D01*
X129099426Y-119300701D01*
X129102025Y-119305920D01*
X129168747Y-119439917D01*
X129190666Y-119483935D01*
X129194175Y-119488582D01*
X129194176Y-119488583D01*
X129310509Y-119642634D01*
X129310513Y-119642638D01*
X129314022Y-119647285D01*
X129318324Y-119651207D01*
X129318327Y-119651210D01*
X129368596Y-119697036D01*
X129465292Y-119785186D01*
X129639327Y-119892944D01*
X129830198Y-119966888D01*
X130031407Y-120004500D01*
X130230273Y-120004500D01*
X130236101Y-120004500D01*
X130437310Y-119966888D01*
X130628181Y-119892944D01*
X130802216Y-119785186D01*
X130953486Y-119647285D01*
X131076842Y-119483935D01*
X131154024Y-119328932D01*
X131191661Y-119283965D01*
X131245584Y-119260903D01*
X131304106Y-119264748D01*
X131354547Y-119294669D01*
X131384893Y-119342470D01*
X131384932Y-119342453D01*
X131385042Y-119342706D01*
X131385980Y-119344182D01*
X131387023Y-119347221D01*
X131472991Y-119543206D01*
X131483480Y-119599414D01*
X131468047Y-119654469D01*
X131429871Y-119697036D01*
X131400389Y-119717678D01*
X131391127Y-119723578D01*
X131367453Y-119737247D01*
X131367448Y-119737251D01*
X131357905Y-119742761D01*
X131350820Y-119751203D01*
X131350820Y-119751204D01*
X131333236Y-119772159D01*
X131325812Y-119780259D01*
X130708460Y-120397611D01*
X130668478Y-120424550D01*
X130621305Y-120434501D01*
X130573850Y-120426008D01*
X130437310Y-120373112D01*
X130431593Y-120372043D01*
X130431585Y-120372041D01*
X130241827Y-120336570D01*
X130241823Y-120336569D01*
X130236101Y-120335500D01*
X130031407Y-120335500D01*
X130025685Y-120336569D01*
X130025680Y-120336570D01*
X129835922Y-120372041D01*
X129835911Y-120372043D01*
X129830198Y-120373112D01*
X129824775Y-120375212D01*
X129824764Y-120375216D01*
X129644765Y-120444949D01*
X129644762Y-120444950D01*
X129639327Y-120447056D01*
X129634371Y-120450124D01*
X129634366Y-120450127D01*
X129470245Y-120551746D01*
X129470235Y-120551752D01*
X129465292Y-120554814D01*
X129460993Y-120558732D01*
X129460989Y-120558736D01*
X129318327Y-120688789D01*
X129318319Y-120688797D01*
X129314022Y-120692715D01*
X129310517Y-120697355D01*
X129310509Y-120697365D01*
X129194176Y-120851416D01*
X129194172Y-120851421D01*
X129190666Y-120856065D01*
X129188071Y-120861274D01*
X129188068Y-120861281D01*
X129139474Y-120958872D01*
X129099426Y-121039299D01*
X129097832Y-121044899D01*
X129097830Y-121044906D01*
X129045004Y-121230572D01*
X129043409Y-121236179D01*
X129042871Y-121241974D01*
X129042870Y-121241985D01*
X129030022Y-121380641D01*
X129004226Y-121446104D01*
X128947350Y-121487527D01*
X128877131Y-121491993D01*
X128815465Y-121458110D01*
X127946759Y-120589404D01*
X127919445Y-120548527D01*
X127909854Y-120500309D01*
X127909854Y-117775465D01*
X131913964Y-117775465D01*
X131920733Y-117787769D01*
X132662024Y-118529060D01*
X132673753Y-118535832D01*
X132685484Y-118529059D01*
X133426776Y-117787766D01*
X133433542Y-117775466D01*
X133425305Y-117764096D01*
X133423165Y-117762431D01*
X133414474Y-117756753D01*
X133225711Y-117654599D01*
X133216194Y-117650424D01*
X133013196Y-117580735D01*
X133003126Y-117578185D01*
X132791418Y-117542857D01*
X132781070Y-117542000D01*
X132566438Y-117542000D01*
X132556089Y-117542857D01*
X132344381Y-117578185D01*
X132334311Y-117580735D01*
X132131313Y-117650424D01*
X132121796Y-117654599D01*
X131933031Y-117756754D01*
X131924345Y-117762428D01*
X131922199Y-117764098D01*
X131913964Y-117775465D01*
X127909854Y-117775465D01*
X127909854Y-110709881D01*
X127922845Y-110654158D01*
X127950703Y-110620207D01*
X127949318Y-110618822D01*
X127955157Y-110612982D01*
X127961709Y-110607955D01*
X128053395Y-110488468D01*
X128111031Y-110349322D01*
X128130690Y-110200000D01*
X128111031Y-110050678D01*
X128053395Y-109911532D01*
X127961709Y-109792045D01*
X127917740Y-109758306D01*
X127848775Y-109705387D01*
X127848773Y-109705386D01*
X127842222Y-109700359D01*
X127834595Y-109697199D01*
X127834592Y-109697198D01*
X127710706Y-109645883D01*
X127710702Y-109645882D01*
X127703076Y-109642723D01*
X127694891Y-109641645D01*
X127694886Y-109641644D01*
X127561942Y-109624142D01*
X127553754Y-109623064D01*
X127545566Y-109624142D01*
X127412621Y-109641644D01*
X127412614Y-109641645D01*
X127404432Y-109642723D01*
X127396806Y-109645881D01*
X127396801Y-109645883D01*
X127272915Y-109697198D01*
X127272909Y-109697201D01*
X127265286Y-109700359D01*
X127258737Y-109705383D01*
X127258732Y-109705387D01*
X127152349Y-109787018D01*
X127152344Y-109787022D01*
X127145799Y-109792045D01*
X127140776Y-109798590D01*
X127140772Y-109798595D01*
X127059141Y-109904978D01*
X127059137Y-109904983D01*
X127054113Y-109911532D01*
X127050955Y-109919155D01*
X127050952Y-109919161D01*
X126999637Y-110043047D01*
X126999635Y-110043052D01*
X126996477Y-110050678D01*
X126995399Y-110058860D01*
X126995398Y-110058867D01*
X126978058Y-110190580D01*
X126976818Y-110200000D01*
X126977896Y-110208188D01*
X126995398Y-110341132D01*
X126995399Y-110341137D01*
X126996477Y-110349322D01*
X126999636Y-110356948D01*
X126999637Y-110356952D01*
X127050952Y-110480838D01*
X127050953Y-110480841D01*
X127054113Y-110488468D01*
X127059140Y-110495019D01*
X127059141Y-110495021D01*
X127135837Y-110594972D01*
X127145799Y-110607955D01*
X127152349Y-110612981D01*
X127158190Y-110618822D01*
X127156804Y-110620207D01*
X127184663Y-110654158D01*
X127197654Y-110709881D01*
X127197654Y-120650000D01*
X127195249Y-120673185D01*
X127195179Y-120674867D01*
X127193038Y-120685081D01*
X127194329Y-120695437D01*
X127194329Y-120695438D01*
X127196791Y-120715188D01*
X127197327Y-120720364D01*
X127197654Y-120724310D01*
X127197654Y-120729508D01*
X127198509Y-120734637D01*
X127198510Y-120734639D01*
X127200872Y-120748798D01*
X127201621Y-120753941D01*
X127206334Y-120791745D01*
X127207739Y-120803013D01*
X127211049Y-120809785D01*
X127212291Y-120817224D01*
X127217256Y-120826399D01*
X127217257Y-120826401D01*
X127235839Y-120860737D01*
X127238222Y-120865368D01*
X127255348Y-120900401D01*
X127255350Y-120900405D01*
X127259935Y-120909782D01*
X127265264Y-120915111D01*
X127268855Y-120921746D01*
X127305267Y-120955265D01*
X127309025Y-120958872D01*
X129034228Y-122684075D01*
X129064966Y-122734234D01*
X129069582Y-122792881D01*
X129047069Y-122847231D01*
X129002336Y-122885437D01*
X128945133Y-122899170D01*
X125980584Y-122899170D01*
X125917584Y-122882289D01*
X125871465Y-122836170D01*
X125854584Y-122773170D01*
X125854584Y-109044191D01*
X137741267Y-109044191D01*
X137742540Y-109051415D01*
X137742541Y-109051417D01*
X137754780Y-109120829D01*
X137771910Y-109217976D01*
X137774814Y-109224710D01*
X137774816Y-109224714D01*
X137790012Y-109259942D01*
X137841804Y-109380009D01*
X137846185Y-109385894D01*
X137846187Y-109385897D01*
X137876181Y-109426186D01*
X137947182Y-109521557D01*
X138082363Y-109634987D01*
X138240058Y-109714184D01*
X138411767Y-109754880D01*
X139174365Y-109754880D01*
X139181691Y-109755093D01*
X139244191Y-109758733D01*
X139305840Y-109747861D01*
X139313078Y-109746801D01*
X139375272Y-109739533D01*
X139382176Y-109737020D01*
X139385765Y-109735714D01*
X139406981Y-109730028D01*
X139417976Y-109728090D01*
X139475475Y-109703285D01*
X139482257Y-109700592D01*
X139541096Y-109679178D01*
X139550423Y-109673042D01*
X139569758Y-109662617D01*
X139580009Y-109658196D01*
X139630233Y-109620804D01*
X139636214Y-109616616D01*
X139688531Y-109582208D01*
X139696187Y-109574091D01*
X139712599Y-109559486D01*
X139721557Y-109552818D01*
X139747788Y-109521557D01*
X139761796Y-109504863D01*
X139766670Y-109499386D01*
X139804586Y-109459197D01*
X139804585Y-109459197D01*
X139809629Y-109453852D01*
X139813304Y-109447487D01*
X139815209Y-109444188D01*
X139827813Y-109426186D01*
X139834987Y-109417637D01*
X139863083Y-109361691D01*
X139866564Y-109355235D01*
X139897862Y-109301028D01*
X139901062Y-109290339D01*
X139909174Y-109269915D01*
X139914184Y-109259942D01*
X139928621Y-109199021D01*
X139930507Y-109191981D01*
X139948473Y-109131976D01*
X139949122Y-109120828D01*
X139952304Y-109099099D01*
X139954880Y-109088233D01*
X139954880Y-109025635D01*
X139955093Y-109018309D01*
X139958306Y-108963135D01*
X139958733Y-108955809D01*
X139956793Y-108944811D01*
X139954880Y-108922933D01*
X139954880Y-108609738D01*
X139966683Y-108556492D01*
X139971506Y-108546148D01*
X139978754Y-108530603D01*
X139980336Y-108527338D01*
X140014184Y-108459942D01*
X140015877Y-108452793D01*
X140016983Y-108449757D01*
X140017179Y-108449284D01*
X140017322Y-108448779D01*
X140018335Y-108445721D01*
X140021442Y-108439060D01*
X140036697Y-108365178D01*
X140037490Y-108361605D01*
X140054880Y-108288233D01*
X140054880Y-108280887D01*
X140055256Y-108277671D01*
X140055338Y-108277162D01*
X140055360Y-108276669D01*
X140055643Y-108273422D01*
X140057127Y-108266240D01*
X140054933Y-108190845D01*
X140054880Y-108187180D01*
X140054880Y-106464873D01*
X140064471Y-106416655D01*
X140091784Y-106375778D01*
X140114317Y-106353244D01*
X140215676Y-106251884D01*
X140220993Y-106246869D01*
X140262267Y-106210139D01*
X140262266Y-106210139D01*
X140267753Y-106205257D01*
X140303657Y-106153978D01*
X140308025Y-106148113D01*
X140346865Y-106098993D01*
X140351583Y-106088871D01*
X140362567Y-106069845D01*
X140368969Y-106060705D01*
X140392078Y-106002535D01*
X140394981Y-105995806D01*
X140418338Y-105945716D01*
X140421442Y-105939060D01*
X140423699Y-105928127D01*
X140430000Y-105907079D01*
X140434121Y-105896708D01*
X140443195Y-105834757D01*
X140444467Y-105827550D01*
X140455642Y-105773434D01*
X140455642Y-105773429D01*
X140457127Y-105766240D01*
X140456802Y-105755081D01*
X140458080Y-105733146D01*
X140459698Y-105722105D01*
X140454239Y-105659721D01*
X140453815Y-105652449D01*
X140451994Y-105589849D01*
X140449105Y-105579066D01*
X140445290Y-105557432D01*
X140444956Y-105553619D01*
X140444317Y-105546310D01*
X140424628Y-105486891D01*
X140422525Y-105479868D01*
X140421294Y-105475272D01*
X140406322Y-105419396D01*
X140401020Y-105409564D01*
X140392320Y-105389393D01*
X140388811Y-105378802D01*
X140384958Y-105372555D01*
X140355943Y-105325513D01*
X140352279Y-105319167D01*
X140326053Y-105270529D01*
X140322571Y-105264071D01*
X140315144Y-105255725D01*
X140302032Y-105238111D01*
X140300026Y-105234858D01*
X140300023Y-105234855D01*
X140296171Y-105228609D01*
X140251899Y-105184337D01*
X140246870Y-105179007D01*
X140210138Y-105137732D01*
X140205257Y-105132247D01*
X140199243Y-105128036D01*
X140199241Y-105128034D01*
X140196109Y-105125841D01*
X140179286Y-105111724D01*
X140076754Y-105009192D01*
X140052440Y-104975001D01*
X140040701Y-104934722D01*
X140040385Y-104932019D01*
X140039533Y-104924728D01*
X139979178Y-104758904D01*
X139882208Y-104611469D01*
X139753852Y-104490371D01*
X139747493Y-104486700D01*
X139747491Y-104486698D01*
X139607388Y-104405810D01*
X139601028Y-104402138D01*
X139548200Y-104386322D01*
X139439005Y-104353631D01*
X139439002Y-104353630D01*
X139431976Y-104351527D01*
X139424652Y-104351100D01*
X139424650Y-104351100D01*
X139263135Y-104341693D01*
X139263129Y-104341693D01*
X139255809Y-104341267D01*
X139248584Y-104342540D01*
X139248582Y-104342541D01*
X139089248Y-104370636D01*
X139089246Y-104370636D01*
X139082024Y-104371910D01*
X139075291Y-104374813D01*
X139075285Y-104374816D01*
X138926734Y-104438895D01*
X138926731Y-104438896D01*
X138919991Y-104441804D01*
X138914109Y-104446182D01*
X138914102Y-104446187D01*
X138784324Y-104542803D01*
X138784320Y-104542806D01*
X138778443Y-104547182D01*
X138773732Y-104552795D01*
X138773729Y-104552799D01*
X138669728Y-104676743D01*
X138669725Y-104676747D01*
X138665013Y-104682363D01*
X138661723Y-104688913D01*
X138661719Y-104688920D01*
X138589110Y-104833498D01*
X138589108Y-104833501D01*
X138585816Y-104840058D01*
X138584125Y-104847191D01*
X138584123Y-104847198D01*
X138546811Y-105004630D01*
X138546810Y-105004634D01*
X138545120Y-105011767D01*
X138545120Y-105019103D01*
X138545120Y-105235821D01*
X138543790Y-105254083D01*
X138541365Y-105270634D01*
X138541364Y-105270638D01*
X138540302Y-105277895D01*
X138540941Y-105285200D01*
X138540941Y-105285204D01*
X138544641Y-105327490D01*
X138545120Y-105338472D01*
X138545120Y-105343968D01*
X138545544Y-105347601D01*
X138545545Y-105347608D01*
X138548735Y-105374903D01*
X138549106Y-105378541D01*
X138552681Y-105419396D01*
X138555682Y-105453690D01*
X138557988Y-105460651D01*
X138558647Y-105463840D01*
X138558726Y-105464328D01*
X138558863Y-105464811D01*
X138559614Y-105467983D01*
X138560467Y-105475272D01*
X138562975Y-105482165D01*
X138562977Y-105482170D01*
X138586268Y-105546164D01*
X138587470Y-105549622D01*
X138600800Y-105589849D01*
X138611189Y-105621198D01*
X138615040Y-105627442D01*
X138616413Y-105630385D01*
X138616608Y-105630856D01*
X138616848Y-105631286D01*
X138618313Y-105634202D01*
X138620822Y-105641096D01*
X138624855Y-105647228D01*
X138625143Y-105647801D01*
X138638535Y-105702521D01*
X138626741Y-105757607D01*
X138621254Y-105769373D01*
X138619660Y-105772667D01*
X138585816Y-105840058D01*
X138584125Y-105847187D01*
X138583008Y-105850259D01*
X138582820Y-105850713D01*
X138582686Y-105851186D01*
X138581657Y-105854290D01*
X138578557Y-105860940D01*
X138577073Y-105868122D01*
X138577074Y-105868122D01*
X138563302Y-105934816D01*
X138562509Y-105938391D01*
X138546812Y-106004624D01*
X138546811Y-106004631D01*
X138545120Y-106011767D01*
X138545120Y-106019101D01*
X138544742Y-106022335D01*
X138544661Y-106022834D01*
X138544640Y-106023332D01*
X138544355Y-106026578D01*
X138542873Y-106033760D01*
X138543086Y-106041086D01*
X138543086Y-106041089D01*
X138545067Y-106109169D01*
X138545120Y-106112833D01*
X138545120Y-107890262D01*
X138533313Y-107943513D01*
X138526860Y-107957351D01*
X138521254Y-107969374D01*
X138519660Y-107972667D01*
X138485816Y-108040058D01*
X138484125Y-108047187D01*
X138483008Y-108050259D01*
X138482820Y-108050713D01*
X138482686Y-108051186D01*
X138481657Y-108054290D01*
X138478557Y-108060940D01*
X138477073Y-108068122D01*
X138477074Y-108068122D01*
X138463302Y-108134816D01*
X138462509Y-108138390D01*
X138457025Y-108161531D01*
X138435490Y-108207716D01*
X138397423Y-108241594D01*
X138349050Y-108257624D01*
X138332012Y-108259615D01*
X138332006Y-108259616D01*
X138324728Y-108260467D01*
X138317841Y-108262973D01*
X138317835Y-108262975D01*
X138165800Y-108318311D01*
X138165792Y-108318314D01*
X138158904Y-108320822D01*
X138152772Y-108324854D01*
X138152770Y-108324856D01*
X138091455Y-108365184D01*
X138011469Y-108417792D01*
X138006435Y-108423127D01*
X138006431Y-108423131D01*
X137895409Y-108540807D01*
X137895405Y-108540811D01*
X137890371Y-108546148D01*
X137886702Y-108552501D01*
X137886698Y-108552508D01*
X137805810Y-108692611D01*
X137805808Y-108692614D01*
X137802138Y-108698972D01*
X137800032Y-108706004D01*
X137800032Y-108706006D01*
X137753631Y-108860994D01*
X137753630Y-108860999D01*
X137751527Y-108868024D01*
X137751100Y-108875345D01*
X137751100Y-108875349D01*
X137741693Y-109036864D01*
X137741693Y-109036870D01*
X137741267Y-109044191D01*
X125854584Y-109044191D01*
X125854584Y-100344191D01*
X128341267Y-100344191D01*
X128342540Y-100351415D01*
X128342541Y-100351417D01*
X128355186Y-100423131D01*
X128371910Y-100517976D01*
X128374814Y-100524710D01*
X128374816Y-100524714D01*
X128413433Y-100614238D01*
X128441804Y-100680009D01*
X128446185Y-100685894D01*
X128446187Y-100685897D01*
X128498236Y-100755811D01*
X128547182Y-100821557D01*
X128682363Y-100934987D01*
X128840058Y-101014184D01*
X129011767Y-101054880D01*
X130035128Y-101054880D01*
X130083346Y-101064471D01*
X130124223Y-101091785D01*
X130320840Y-101288402D01*
X130332807Y-101302248D01*
X130347182Y-101321557D01*
X130352800Y-101326271D01*
X130352801Y-101326272D01*
X130385316Y-101353555D01*
X130393420Y-101360982D01*
X130397309Y-101364871D01*
X130421763Y-101384206D01*
X130424587Y-101386508D01*
X130476733Y-101430264D01*
X130476739Y-101430268D01*
X130482363Y-101434987D01*
X130488926Y-101438282D01*
X130491621Y-101440055D01*
X130492049Y-101440364D01*
X130492482Y-101440606D01*
X130495254Y-101442315D01*
X130501007Y-101446865D01*
X130507655Y-101449965D01*
X130513905Y-101453820D01*
X130512482Y-101456126D01*
X130554692Y-101492594D01*
X130562280Y-101504130D01*
X130564205Y-101507151D01*
X130603829Y-101571391D01*
X130609022Y-101576584D01*
X130611032Y-101579126D01*
X130611328Y-101579537D01*
X130611665Y-101579904D01*
X130613759Y-101582400D01*
X130617792Y-101588531D01*
X130662034Y-101630271D01*
X130672667Y-101640303D01*
X130675295Y-101642857D01*
X130997309Y-101964871D01*
X131101007Y-102046865D01*
X131260940Y-102121443D01*
X131433760Y-102157127D01*
X131610151Y-102151995D01*
X131780604Y-102106322D01*
X131935929Y-102022571D01*
X132067753Y-101905257D01*
X132168970Y-101760705D01*
X132234122Y-101596708D01*
X132259698Y-101422105D01*
X132244318Y-101246310D01*
X132188811Y-101078802D01*
X132167463Y-101044191D01*
X134441267Y-101044191D01*
X134442540Y-101051415D01*
X134442541Y-101051417D01*
X134461487Y-101158867D01*
X134471910Y-101217976D01*
X134474814Y-101224710D01*
X134474816Y-101224714D01*
X134514053Y-101315674D01*
X134541804Y-101380009D01*
X134546185Y-101385894D01*
X134546187Y-101385897D01*
X134625620Y-101492594D01*
X134647182Y-101521557D01*
X134782363Y-101634987D01*
X134940058Y-101714184D01*
X135111767Y-101754880D01*
X135811767Y-101754880D01*
X135943968Y-101754880D01*
X138235821Y-101754880D01*
X138254082Y-101756209D01*
X138277895Y-101759698D01*
X138327490Y-101755358D01*
X138338472Y-101754880D01*
X138340299Y-101754880D01*
X138343968Y-101754880D01*
X138367304Y-101752152D01*
X138397153Y-101753904D01*
X138397337Y-101752335D01*
X138404623Y-101753186D01*
X138411767Y-101754880D01*
X138419108Y-101754880D01*
X138422333Y-101755257D01*
X138422838Y-101755338D01*
X138423331Y-101755360D01*
X138426577Y-101755643D01*
X138433760Y-101757127D01*
X138509154Y-101754933D01*
X138512820Y-101754880D01*
X138610428Y-101754880D01*
X138650930Y-101761567D01*
X138687129Y-101780916D01*
X138711532Y-101799641D01*
X138850678Y-101857277D01*
X139000000Y-101876936D01*
X139149322Y-101857277D01*
X139288468Y-101799641D01*
X139407955Y-101707955D01*
X139499641Y-101588468D01*
X139557277Y-101449322D01*
X139576936Y-101300000D01*
X139557277Y-101150678D01*
X139499641Y-101011532D01*
X139478054Y-100983399D01*
X139453931Y-100928576D01*
X139453021Y-100923415D01*
X139428090Y-100782024D01*
X139358196Y-100619991D01*
X139252818Y-100478443D01*
X139117637Y-100365013D01*
X139111081Y-100361720D01*
X139111079Y-100361719D01*
X138966501Y-100289110D01*
X138966500Y-100289109D01*
X138959942Y-100285816D01*
X138952808Y-100284125D01*
X138952802Y-100284123D01*
X138828511Y-100254666D01*
X138798673Y-100247594D01*
X138767932Y-100235896D01*
X138766717Y-100235241D01*
X138760705Y-100231031D01*
X138753888Y-100228322D01*
X138753885Y-100228321D01*
X138702534Y-100207920D01*
X138695809Y-100205019D01*
X138667417Y-100191780D01*
X138639060Y-100178557D01*
X138631869Y-100177072D01*
X138631866Y-100177071D01*
X138628117Y-100176297D01*
X138607093Y-100170003D01*
X138603528Y-100168587D01*
X138603525Y-100168586D01*
X138596708Y-100165878D01*
X138589447Y-100164814D01*
X138589446Y-100164814D01*
X138542867Y-100157991D01*
X138534766Y-100156804D01*
X138527555Y-100155533D01*
X138473424Y-100144356D01*
X138473421Y-100144355D01*
X138466240Y-100142873D01*
X138458915Y-100143086D01*
X138458904Y-100143085D01*
X138455072Y-100143197D01*
X138433161Y-100141921D01*
X138429367Y-100141365D01*
X138429361Y-100141364D01*
X138422105Y-100140302D01*
X138414798Y-100140941D01*
X138414793Y-100140941D01*
X138359741Y-100145757D01*
X138352428Y-100146183D01*
X138297178Y-100147791D01*
X138297172Y-100147791D01*
X138289849Y-100148005D01*
X138282766Y-100149902D01*
X138282757Y-100149904D01*
X138279043Y-100150899D01*
X138257440Y-100154708D01*
X138253627Y-100155041D01*
X138253612Y-100155043D01*
X138246310Y-100155683D01*
X138228099Y-100161717D01*
X138186890Y-100175371D01*
X138179876Y-100177471D01*
X138131737Y-100190371D01*
X138119396Y-100193678D01*
X138112945Y-100197156D01*
X138112933Y-100197161D01*
X138109553Y-100198984D01*
X138089403Y-100207676D01*
X138085768Y-100208880D01*
X138085763Y-100208882D01*
X138078802Y-100211189D01*
X138072565Y-100215035D01*
X138072552Y-100215042D01*
X138054203Y-100226361D01*
X137988057Y-100245120D01*
X135988233Y-100245120D01*
X135156032Y-100245120D01*
X135152389Y-100245545D01*
X135152385Y-100245546D01*
X135032020Y-100259614D01*
X135032014Y-100259615D01*
X135024728Y-100260467D01*
X135017831Y-100262977D01*
X135017828Y-100262978D01*
X134865800Y-100318311D01*
X134865792Y-100318314D01*
X134858904Y-100320822D01*
X134852772Y-100324854D01*
X134852770Y-100324856D01*
X134717605Y-100413756D01*
X134711469Y-100417792D01*
X134706435Y-100423127D01*
X134706431Y-100423131D01*
X134595409Y-100540807D01*
X134595405Y-100540811D01*
X134590371Y-100546148D01*
X134586702Y-100552501D01*
X134586698Y-100552508D01*
X134505810Y-100692611D01*
X134505808Y-100692614D01*
X134502138Y-100698972D01*
X134500032Y-100706004D01*
X134500032Y-100706006D01*
X134453631Y-100860994D01*
X134453630Y-100860999D01*
X134451527Y-100868024D01*
X134451100Y-100875345D01*
X134451100Y-100875349D01*
X134441693Y-101036864D01*
X134441693Y-101036870D01*
X134441267Y-101044191D01*
X132167463Y-101044191D01*
X132096171Y-100928609D01*
X131993917Y-100826355D01*
X131968054Y-100788842D01*
X131959920Y-100755601D01*
X131958733Y-100755811D01*
X131958733Y-100755809D01*
X131947857Y-100694134D01*
X131946802Y-100686935D01*
X131939533Y-100624728D01*
X131935715Y-100614238D01*
X131930027Y-100593011D01*
X131928090Y-100582024D01*
X131903297Y-100524549D01*
X131900589Y-100517733D01*
X131898048Y-100510751D01*
X131879178Y-100458904D01*
X131873040Y-100449572D01*
X131862617Y-100430240D01*
X131861105Y-100426735D01*
X131858196Y-100419991D01*
X131820803Y-100369763D01*
X131816614Y-100363781D01*
X131786239Y-100317597D01*
X131786236Y-100317593D01*
X131782208Y-100311469D01*
X131774084Y-100303804D01*
X131759486Y-100287400D01*
X131757198Y-100284327D01*
X131752818Y-100278443D01*
X131713613Y-100245546D01*
X131704853Y-100238195D01*
X131699395Y-100233338D01*
X131653852Y-100190371D01*
X131647495Y-100186700D01*
X131647490Y-100186697D01*
X131644178Y-100184785D01*
X131626195Y-100172193D01*
X131623261Y-100169731D01*
X131623254Y-100169727D01*
X131617637Y-100165013D01*
X131611082Y-100161721D01*
X131611076Y-100161717D01*
X131561693Y-100136916D01*
X131555243Y-100133439D01*
X131507381Y-100105806D01*
X131501028Y-100102138D01*
X131494002Y-100100034D01*
X131493992Y-100100030D01*
X131490320Y-100098931D01*
X131469922Y-100090828D01*
X131466496Y-100089107D01*
X131466493Y-100089106D01*
X131459942Y-100085816D01*
X131452804Y-100084124D01*
X131452798Y-100084122D01*
X131399030Y-100071378D01*
X131391953Y-100069482D01*
X131339002Y-100053630D01*
X131338998Y-100053629D01*
X131331976Y-100051527D01*
X131324659Y-100051100D01*
X131324656Y-100051100D01*
X131320822Y-100050877D01*
X131299098Y-100047694D01*
X131295372Y-100046811D01*
X131295365Y-100046810D01*
X131288233Y-100045120D01*
X131280900Y-100045120D01*
X131264872Y-100045120D01*
X131216654Y-100035529D01*
X131175777Y-100008215D01*
X130979162Y-99811600D01*
X130967189Y-99797746D01*
X130957199Y-99784327D01*
X130957196Y-99784324D01*
X130952818Y-99778443D01*
X130947198Y-99773727D01*
X130947195Y-99773724D01*
X130914682Y-99746442D01*
X130906578Y-99739016D01*
X130905290Y-99737728D01*
X130905289Y-99737727D01*
X130902691Y-99735129D01*
X130878251Y-99715804D01*
X130875411Y-99713491D01*
X130823256Y-99669728D01*
X130817637Y-99665013D01*
X130811079Y-99661719D01*
X130808372Y-99659939D01*
X130807958Y-99659640D01*
X130807521Y-99659396D01*
X130804747Y-99657685D01*
X130798993Y-99653135D01*
X130738349Y-99624856D01*
X130730627Y-99621255D01*
X130727329Y-99619658D01*
X130666504Y-99589111D01*
X130666500Y-99589109D01*
X130659942Y-99585816D01*
X130652801Y-99584123D01*
X130649745Y-99583011D01*
X130649274Y-99582816D01*
X130648805Y-99582683D01*
X130645706Y-99581656D01*
X130639060Y-99578557D01*
X130631878Y-99577074D01*
X130565183Y-99563302D01*
X130561607Y-99562509D01*
X130495374Y-99546812D01*
X130495370Y-99546811D01*
X130488233Y-99545120D01*
X130480899Y-99545120D01*
X130477665Y-99544742D01*
X130477165Y-99544661D01*
X130476668Y-99544640D01*
X130473421Y-99544355D01*
X130466240Y-99542873D01*
X130458912Y-99543086D01*
X130458910Y-99543086D01*
X130390831Y-99545067D01*
X130387167Y-99545120D01*
X129056032Y-99545120D01*
X129052389Y-99545545D01*
X129052385Y-99545546D01*
X128932020Y-99559614D01*
X128932014Y-99559615D01*
X128924728Y-99560467D01*
X128917831Y-99562977D01*
X128917828Y-99562978D01*
X128765800Y-99618311D01*
X128765792Y-99618314D01*
X128758904Y-99620822D01*
X128752772Y-99624854D01*
X128752770Y-99624856D01*
X128691715Y-99665013D01*
X128611469Y-99717792D01*
X128606435Y-99723127D01*
X128606431Y-99723131D01*
X128495409Y-99840807D01*
X128495405Y-99840811D01*
X128490371Y-99846148D01*
X128486702Y-99852501D01*
X128486698Y-99852508D01*
X128405810Y-99992611D01*
X128405808Y-99992614D01*
X128402138Y-99998972D01*
X128400032Y-100006004D01*
X128400032Y-100006006D01*
X128353631Y-100160994D01*
X128353630Y-100160999D01*
X128351527Y-100168024D01*
X128351100Y-100175345D01*
X128351100Y-100175349D01*
X128341693Y-100336864D01*
X128341693Y-100336870D01*
X128341267Y-100344191D01*
X125854584Y-100344191D01*
X125854584Y-96080000D01*
X126464522Y-96080000D01*
X126465060Y-96085806D01*
X126482870Y-96278015D01*
X126482871Y-96278025D01*
X126483409Y-96283821D01*
X126539426Y-96480701D01*
X126630666Y-96663935D01*
X126634175Y-96668582D01*
X126634176Y-96668583D01*
X126750509Y-96822634D01*
X126750513Y-96822638D01*
X126754022Y-96827285D01*
X126758324Y-96831207D01*
X126758327Y-96831210D01*
X126846220Y-96911335D01*
X126905292Y-96965186D01*
X127079327Y-97072944D01*
X127270198Y-97146888D01*
X127471407Y-97184500D01*
X127670273Y-97184500D01*
X127676101Y-97184500D01*
X127877310Y-97146888D01*
X128068181Y-97072944D01*
X128242216Y-96965186D01*
X128393486Y-96827285D01*
X128516842Y-96663935D01*
X128608082Y-96480701D01*
X128664099Y-96283821D01*
X128682986Y-96080000D01*
X129004522Y-96080000D01*
X129005060Y-96085806D01*
X129022870Y-96278015D01*
X129022871Y-96278025D01*
X129023409Y-96283821D01*
X129079426Y-96480701D01*
X129170666Y-96663935D01*
X129174175Y-96668582D01*
X129174176Y-96668583D01*
X129290509Y-96822634D01*
X129290513Y-96822638D01*
X129294022Y-96827285D01*
X129298324Y-96831207D01*
X129298327Y-96831210D01*
X129386220Y-96911335D01*
X129445292Y-96965186D01*
X129619327Y-97072944D01*
X129810198Y-97146888D01*
X130011407Y-97184500D01*
X130210273Y-97184500D01*
X130216101Y-97184500D01*
X130417310Y-97146888D01*
X130608181Y-97072944D01*
X130782216Y-96965186D01*
X130933486Y-96827285D01*
X131056842Y-96663935D01*
X131148082Y-96480701D01*
X131204099Y-96283821D01*
X131222986Y-96080000D01*
X131544522Y-96080000D01*
X131545060Y-96085806D01*
X131562870Y-96278015D01*
X131562871Y-96278025D01*
X131563409Y-96283821D01*
X131619426Y-96480701D01*
X131710666Y-96663935D01*
X131714175Y-96668582D01*
X131714176Y-96668583D01*
X131830509Y-96822634D01*
X131830513Y-96822638D01*
X131834022Y-96827285D01*
X131838324Y-96831207D01*
X131838327Y-96831210D01*
X131926220Y-96911335D01*
X131985292Y-96965186D01*
X132159327Y-97072944D01*
X132350198Y-97146888D01*
X132551407Y-97184500D01*
X132750273Y-97184500D01*
X132756101Y-97184500D01*
X132957310Y-97146888D01*
X133148181Y-97072944D01*
X133322216Y-96965186D01*
X133473486Y-96827285D01*
X133596842Y-96663935D01*
X133688082Y-96480701D01*
X133744099Y-96283821D01*
X133762986Y-96080000D01*
X134084522Y-96080000D01*
X134085060Y-96085806D01*
X134102870Y-96278015D01*
X134102871Y-96278025D01*
X134103409Y-96283821D01*
X134159426Y-96480701D01*
X134250666Y-96663935D01*
X134254175Y-96668582D01*
X134254176Y-96668583D01*
X134370509Y-96822634D01*
X134370513Y-96822638D01*
X134374022Y-96827285D01*
X134378324Y-96831207D01*
X134378327Y-96831210D01*
X134466220Y-96911335D01*
X134525292Y-96965186D01*
X134699327Y-97072944D01*
X134890198Y-97146888D01*
X135091407Y-97184500D01*
X135290273Y-97184500D01*
X135296101Y-97184500D01*
X135497310Y-97146888D01*
X135688181Y-97072944D01*
X135862216Y-96965186D01*
X136013486Y-96827285D01*
X136090803Y-96724901D01*
X136629254Y-96724901D01*
X136629255Y-96728254D01*
X136635714Y-96788342D01*
X136686412Y-96924267D01*
X136691812Y-96931481D01*
X136691814Y-96931484D01*
X136717043Y-96965186D01*
X136773350Y-97040404D01*
X136889487Y-97127342D01*
X136944760Y-97147958D01*
X137018025Y-97175285D01*
X137018026Y-97175285D01*
X137025412Y-97178040D01*
X137085499Y-97184500D01*
X138382008Y-97184499D01*
X138442096Y-97178040D01*
X138578021Y-97127342D01*
X138694158Y-97040404D01*
X138781096Y-96924267D01*
X138831794Y-96788342D01*
X138838254Y-96728255D01*
X138838253Y-95431746D01*
X138831794Y-95371658D01*
X138781096Y-95235733D01*
X138694158Y-95119596D01*
X138654792Y-95090127D01*
X138585238Y-95038060D01*
X138585235Y-95038058D01*
X138578021Y-95032658D01*
X138569572Y-95029506D01*
X138569571Y-95029506D01*
X138449482Y-94984714D01*
X138449475Y-94984712D01*
X138442096Y-94981960D01*
X138434262Y-94981117D01*
X138434259Y-94981117D01*
X138411365Y-94978656D01*
X138352159Y-94956307D01*
X138311285Y-94907992D01*
X138299056Y-94845901D01*
X138318556Y-94785696D01*
X138364865Y-94742564D01*
X138474475Y-94683246D01*
X138483164Y-94677569D01*
X138485306Y-94675902D01*
X138493541Y-94664533D01*
X138486773Y-94652229D01*
X137745483Y-93910939D01*
X137733753Y-93904167D01*
X137722025Y-93910938D01*
X136980732Y-94652230D01*
X136973964Y-94664532D01*
X136982200Y-94675901D01*
X136984346Y-94677571D01*
X136993031Y-94683245D01*
X137102643Y-94742564D01*
X137148952Y-94785695D01*
X137168452Y-94845900D01*
X137156223Y-94907991D01*
X137115350Y-94956306D01*
X137056144Y-94978656D01*
X137033251Y-94981117D01*
X137033248Y-94981117D01*
X137025412Y-94981960D01*
X137018024Y-94984715D01*
X137018022Y-94984716D01*
X136897936Y-95029506D01*
X136897932Y-95029508D01*
X136889487Y-95032658D01*
X136882275Y-95038056D01*
X136882269Y-95038060D01*
X136780561Y-95114197D01*
X136780557Y-95114200D01*
X136773350Y-95119596D01*
X136767954Y-95126803D01*
X136767951Y-95126807D01*
X136691814Y-95228515D01*
X136691810Y-95228521D01*
X136686412Y-95235733D01*
X136683262Y-95244178D01*
X136683260Y-95244182D01*
X136638468Y-95364271D01*
X136638465Y-95364280D01*
X136635714Y-95371658D01*
X136634872Y-95379489D01*
X136634871Y-95379494D01*
X136629614Y-95428392D01*
X136629254Y-95431745D01*
X136629254Y-95435111D01*
X136629254Y-95435112D01*
X136629254Y-96724883D01*
X136629254Y-96724901D01*
X136090803Y-96724901D01*
X136136842Y-96663935D01*
X136228082Y-96480701D01*
X136284099Y-96283821D01*
X136302986Y-96080000D01*
X136284099Y-95876179D01*
X136228082Y-95679299D01*
X136136842Y-95496065D01*
X136048812Y-95379494D01*
X136016998Y-95337365D01*
X136016995Y-95337361D01*
X136013486Y-95332715D01*
X136009183Y-95328792D01*
X136009180Y-95328789D01*
X135866518Y-95198736D01*
X135866519Y-95198736D01*
X135862216Y-95194814D01*
X135857266Y-95191749D01*
X135857262Y-95191746D01*
X135693141Y-95090127D01*
X135693140Y-95090126D01*
X135688181Y-95087056D01*
X135682745Y-95084950D01*
X135625343Y-95062712D01*
X135575548Y-95027631D01*
X135548028Y-94973292D01*
X135549213Y-94912392D01*
X135578827Y-94859164D01*
X135629950Y-94826048D01*
X135736191Y-94789576D01*
X135745711Y-94785400D01*
X135934474Y-94683246D01*
X135943164Y-94677569D01*
X135945306Y-94675902D01*
X135953541Y-94664533D01*
X135946773Y-94652229D01*
X135205483Y-93910939D01*
X135193753Y-93904167D01*
X135182025Y-93910938D01*
X134440732Y-94652230D01*
X134433964Y-94664532D01*
X134442200Y-94675901D01*
X134444346Y-94677571D01*
X134453032Y-94683246D01*
X134641796Y-94785400D01*
X134651317Y-94789576D01*
X134757557Y-94826048D01*
X134808680Y-94859164D01*
X134838294Y-94912392D01*
X134839479Y-94973291D01*
X134811959Y-95027631D01*
X134762164Y-95062712D01*
X134704762Y-95084950D01*
X134704757Y-95084952D01*
X134699327Y-95087056D01*
X134694371Y-95090124D01*
X134694366Y-95090127D01*
X134530245Y-95191746D01*
X134530235Y-95191752D01*
X134525292Y-95194814D01*
X134520993Y-95198732D01*
X134520989Y-95198736D01*
X134378327Y-95328789D01*
X134378319Y-95328797D01*
X134374022Y-95332715D01*
X134370517Y-95337355D01*
X134370509Y-95337365D01*
X134254176Y-95491416D01*
X134254172Y-95491421D01*
X134250666Y-95496065D01*
X134248071Y-95501274D01*
X134248068Y-95501281D01*
X134162025Y-95674079D01*
X134159426Y-95679299D01*
X134157832Y-95684899D01*
X134157830Y-95684906D01*
X134105004Y-95870572D01*
X134103409Y-95876179D01*
X134102872Y-95881972D01*
X134102870Y-95881984D01*
X134090024Y-96020622D01*
X134084522Y-96080000D01*
X133762986Y-96080000D01*
X133744099Y-95876179D01*
X133688082Y-95679299D01*
X133596842Y-95496065D01*
X133508812Y-95379494D01*
X133476998Y-95337365D01*
X133476995Y-95337361D01*
X133473486Y-95332715D01*
X133469183Y-95328792D01*
X133469180Y-95328789D01*
X133326518Y-95198736D01*
X133326519Y-95198736D01*
X133322216Y-95194814D01*
X133317266Y-95191749D01*
X133317262Y-95191746D01*
X133153141Y-95090127D01*
X133153140Y-95090126D01*
X133148181Y-95087056D01*
X133142745Y-95084950D01*
X133085343Y-95062712D01*
X133035548Y-95027631D01*
X133008028Y-94973292D01*
X133009213Y-94912392D01*
X133038827Y-94859164D01*
X133089950Y-94826048D01*
X133196191Y-94789576D01*
X133205711Y-94785400D01*
X133394474Y-94683246D01*
X133403164Y-94677569D01*
X133405306Y-94675902D01*
X133413541Y-94664533D01*
X133406773Y-94652229D01*
X132665483Y-93910939D01*
X132653753Y-93904167D01*
X132642025Y-93910938D01*
X131900732Y-94652230D01*
X131893964Y-94664532D01*
X131902200Y-94675901D01*
X131904346Y-94677571D01*
X131913032Y-94683246D01*
X132101796Y-94785400D01*
X132111317Y-94789576D01*
X132217557Y-94826048D01*
X132268680Y-94859164D01*
X132298294Y-94912392D01*
X132299479Y-94973291D01*
X132271959Y-95027631D01*
X132222164Y-95062712D01*
X132164762Y-95084950D01*
X132164757Y-95084952D01*
X132159327Y-95087056D01*
X132154371Y-95090124D01*
X132154366Y-95090127D01*
X131990245Y-95191746D01*
X131990235Y-95191752D01*
X131985292Y-95194814D01*
X131980993Y-95198732D01*
X131980989Y-95198736D01*
X131838327Y-95328789D01*
X131838319Y-95328797D01*
X131834022Y-95332715D01*
X131830517Y-95337355D01*
X131830509Y-95337365D01*
X131714176Y-95491416D01*
X131714172Y-95491421D01*
X131710666Y-95496065D01*
X131708071Y-95501274D01*
X131708068Y-95501281D01*
X131622025Y-95674079D01*
X131619426Y-95679299D01*
X131617832Y-95684899D01*
X131617830Y-95684906D01*
X131565004Y-95870572D01*
X131563409Y-95876179D01*
X131562872Y-95881972D01*
X131562870Y-95881984D01*
X131550024Y-96020622D01*
X131544522Y-96080000D01*
X131222986Y-96080000D01*
X131204099Y-95876179D01*
X131148082Y-95679299D01*
X131056842Y-95496065D01*
X130968812Y-95379494D01*
X130936998Y-95337365D01*
X130936995Y-95337361D01*
X130933486Y-95332715D01*
X130929183Y-95328792D01*
X130929180Y-95328789D01*
X130786518Y-95198736D01*
X130786519Y-95198736D01*
X130782216Y-95194814D01*
X130777266Y-95191749D01*
X130777262Y-95191746D01*
X130613141Y-95090127D01*
X130613140Y-95090126D01*
X130608181Y-95087056D01*
X130602745Y-95084950D01*
X130545343Y-95062712D01*
X130495548Y-95027631D01*
X130468028Y-94973292D01*
X130469213Y-94912392D01*
X130498827Y-94859164D01*
X130549950Y-94826048D01*
X130656191Y-94789576D01*
X130665711Y-94785400D01*
X130854474Y-94683246D01*
X130863164Y-94677569D01*
X130865306Y-94675902D01*
X130873541Y-94664533D01*
X130866773Y-94652229D01*
X130125483Y-93910939D01*
X130113753Y-93904167D01*
X130102025Y-93910938D01*
X129360732Y-94652230D01*
X129353964Y-94664532D01*
X129362200Y-94675901D01*
X129364346Y-94677571D01*
X129373032Y-94683246D01*
X129561796Y-94785400D01*
X129571317Y-94789576D01*
X129677557Y-94826048D01*
X129728680Y-94859164D01*
X129758294Y-94912392D01*
X129759479Y-94973291D01*
X129731959Y-95027631D01*
X129682164Y-95062712D01*
X129624762Y-95084950D01*
X129624757Y-95084952D01*
X129619327Y-95087056D01*
X129614371Y-95090124D01*
X129614366Y-95090127D01*
X129450245Y-95191746D01*
X129450235Y-95191752D01*
X129445292Y-95194814D01*
X129440993Y-95198732D01*
X129440989Y-95198736D01*
X129298327Y-95328789D01*
X129298319Y-95328797D01*
X129294022Y-95332715D01*
X129290517Y-95337355D01*
X129290509Y-95337365D01*
X129174176Y-95491416D01*
X129174172Y-95491421D01*
X129170666Y-95496065D01*
X129168071Y-95501274D01*
X129168068Y-95501281D01*
X129082025Y-95674079D01*
X129079426Y-95679299D01*
X129077832Y-95684899D01*
X129077830Y-95684906D01*
X129025004Y-95870572D01*
X129023409Y-95876179D01*
X129022872Y-95881972D01*
X129022870Y-95881984D01*
X129010024Y-96020622D01*
X129004522Y-96080000D01*
X128682986Y-96080000D01*
X128664099Y-95876179D01*
X128608082Y-95679299D01*
X128516842Y-95496065D01*
X128428812Y-95379494D01*
X128396998Y-95337365D01*
X128396995Y-95337361D01*
X128393486Y-95332715D01*
X128389183Y-95328792D01*
X128389180Y-95328789D01*
X128246518Y-95198736D01*
X128246519Y-95198736D01*
X128242216Y-95194814D01*
X128237266Y-95191749D01*
X128237262Y-95191746D01*
X128073141Y-95090127D01*
X128073140Y-95090126D01*
X128068181Y-95087056D01*
X128062745Y-95084950D01*
X128005343Y-95062712D01*
X127955548Y-95027631D01*
X127928028Y-94973292D01*
X127929213Y-94912392D01*
X127958827Y-94859164D01*
X128009950Y-94826048D01*
X128116191Y-94789576D01*
X128125711Y-94785400D01*
X128314474Y-94683246D01*
X128323164Y-94677569D01*
X128325306Y-94675902D01*
X128333541Y-94664533D01*
X128326773Y-94652229D01*
X127585483Y-93910939D01*
X127573753Y-93904167D01*
X127562025Y-93910938D01*
X126820732Y-94652230D01*
X126813964Y-94664532D01*
X126822200Y-94675901D01*
X126824346Y-94677571D01*
X126833032Y-94683246D01*
X127021796Y-94785400D01*
X127031317Y-94789576D01*
X127137557Y-94826048D01*
X127188680Y-94859164D01*
X127218294Y-94912392D01*
X127219479Y-94973291D01*
X127191959Y-95027631D01*
X127142164Y-95062712D01*
X127084762Y-95084950D01*
X127084757Y-95084952D01*
X127079327Y-95087056D01*
X127074371Y-95090124D01*
X127074366Y-95090127D01*
X126910245Y-95191746D01*
X126910235Y-95191752D01*
X126905292Y-95194814D01*
X126900993Y-95198732D01*
X126900989Y-95198736D01*
X126758327Y-95328789D01*
X126758319Y-95328797D01*
X126754022Y-95332715D01*
X126750517Y-95337355D01*
X126750509Y-95337365D01*
X126634176Y-95491416D01*
X126634172Y-95491421D01*
X126630666Y-95496065D01*
X126628071Y-95501274D01*
X126628068Y-95501281D01*
X126542025Y-95674079D01*
X126539426Y-95679299D01*
X126537832Y-95684899D01*
X126537830Y-95684906D01*
X126485004Y-95870572D01*
X126483409Y-95876179D01*
X126482872Y-95881972D01*
X126482870Y-95881984D01*
X126470024Y-96020622D01*
X126464522Y-96080000D01*
X125854584Y-96080000D01*
X125854584Y-93545189D01*
X126211530Y-93545189D01*
X126229254Y-93759092D01*
X126230963Y-93769335D01*
X126283654Y-93977407D01*
X126287024Y-93987223D01*
X126373242Y-94183778D01*
X126378185Y-94192913D01*
X126442987Y-94292099D01*
X126451082Y-94299947D01*
X126460613Y-94293929D01*
X127202813Y-93551730D01*
X127209586Y-93539999D01*
X127937921Y-93539999D01*
X127944693Y-93551729D01*
X128686892Y-94293928D01*
X128696424Y-94299947D01*
X128704518Y-94292100D01*
X128738270Y-94240440D01*
X128783784Y-94198542D01*
X128843753Y-94183356D01*
X128903722Y-94198542D01*
X128949235Y-94240439D01*
X128982986Y-94292098D01*
X128991082Y-94299947D01*
X129000613Y-94293929D01*
X129742813Y-93551730D01*
X129749586Y-93539999D01*
X130477921Y-93539999D01*
X130484693Y-93551729D01*
X131226892Y-94293928D01*
X131236424Y-94299947D01*
X131244518Y-94292100D01*
X131278270Y-94240440D01*
X131323784Y-94198542D01*
X131383753Y-94183356D01*
X131443722Y-94198542D01*
X131489235Y-94240439D01*
X131522986Y-94292098D01*
X131531082Y-94299947D01*
X131540613Y-94293929D01*
X132282813Y-93551730D01*
X132289586Y-93539999D01*
X133017921Y-93539999D01*
X133024693Y-93551729D01*
X133766892Y-94293928D01*
X133776424Y-94299947D01*
X133784518Y-94292100D01*
X133818270Y-94240440D01*
X133863784Y-94198542D01*
X133923753Y-94183356D01*
X133983722Y-94198542D01*
X134029235Y-94240439D01*
X134062986Y-94292098D01*
X134071082Y-94299947D01*
X134080613Y-94293929D01*
X134822813Y-93551730D01*
X134829586Y-93539999D01*
X135557921Y-93539999D01*
X135564693Y-93551729D01*
X136306892Y-94293928D01*
X136316424Y-94299947D01*
X136324518Y-94292100D01*
X136358270Y-94240440D01*
X136403784Y-94198542D01*
X136463753Y-94183356D01*
X136523722Y-94198542D01*
X136569235Y-94240439D01*
X136602986Y-94292098D01*
X136611082Y-94299947D01*
X136620613Y-94293929D01*
X137362813Y-93551730D01*
X137369586Y-93539999D01*
X137362814Y-93528270D01*
X136620614Y-92786070D01*
X136611082Y-92780051D01*
X136602986Y-92787900D01*
X136569235Y-92839560D01*
X136523722Y-92881457D01*
X136463753Y-92896643D01*
X136403784Y-92881457D01*
X136358271Y-92839560D01*
X136324517Y-92787897D01*
X136316424Y-92780051D01*
X136306892Y-92786070D01*
X135564692Y-93528271D01*
X135557921Y-93539999D01*
X134829586Y-93539999D01*
X134822814Y-93528270D01*
X134080614Y-92786070D01*
X134071082Y-92780051D01*
X134062986Y-92787900D01*
X134029235Y-92839560D01*
X133983722Y-92881457D01*
X133923753Y-92896643D01*
X133863784Y-92881457D01*
X133818271Y-92839560D01*
X133784517Y-92787897D01*
X133776424Y-92780051D01*
X133766892Y-92786070D01*
X133024692Y-93528271D01*
X133017921Y-93539999D01*
X132289586Y-93539999D01*
X132282814Y-93528270D01*
X131540614Y-92786070D01*
X131531082Y-92780051D01*
X131522986Y-92787900D01*
X131489235Y-92839560D01*
X131443722Y-92881457D01*
X131383753Y-92896643D01*
X131323784Y-92881457D01*
X131278271Y-92839560D01*
X131244517Y-92787897D01*
X131236424Y-92780051D01*
X131226892Y-92786070D01*
X130484692Y-93528271D01*
X130477921Y-93539999D01*
X129749586Y-93539999D01*
X129742814Y-93528270D01*
X129000614Y-92786070D01*
X128991082Y-92780051D01*
X128982986Y-92787900D01*
X128949235Y-92839560D01*
X128903722Y-92881457D01*
X128843753Y-92896643D01*
X128783784Y-92881457D01*
X128738271Y-92839560D01*
X128704517Y-92787897D01*
X128696424Y-92780051D01*
X128686892Y-92786070D01*
X127944692Y-93528271D01*
X127937921Y-93539999D01*
X127209586Y-93539999D01*
X127202814Y-93528270D01*
X126460614Y-92786070D01*
X126451082Y-92780051D01*
X126442988Y-92787899D01*
X126378185Y-92887086D01*
X126373242Y-92896221D01*
X126287024Y-93092776D01*
X126283654Y-93102592D01*
X126230963Y-93310664D01*
X126229254Y-93320907D01*
X126211530Y-93534811D01*
X126211530Y-93545189D01*
X125854584Y-93545189D01*
X125854584Y-92226000D01*
X125871465Y-92163000D01*
X125917584Y-92116881D01*
X125980584Y-92100000D01*
X126883822Y-92100000D01*
X126947422Y-92117230D01*
G37*
G04 #@! TD.AperFunction*
G04 #@! TA.AperFunction,Conductor*
G36*
X143157604Y-92111321D02*
G01*
X143200423Y-92143250D01*
X143226167Y-92190049D01*
X143228012Y-92196249D01*
X143229304Y-92206606D01*
X143232852Y-92213864D01*
X143234182Y-92221832D01*
X143239149Y-92231012D01*
X143242540Y-92240886D01*
X143241436Y-92241264D01*
X143253754Y-92289906D01*
X143253754Y-95963419D01*
X143240021Y-96020622D01*
X143201815Y-96065355D01*
X143147465Y-96087868D01*
X143088818Y-96083252D01*
X143038659Y-96052514D01*
X139301240Y-92315095D01*
X139270502Y-92264936D01*
X139265886Y-92206289D01*
X139288399Y-92151939D01*
X139333132Y-92113733D01*
X139390335Y-92100000D01*
X143105405Y-92100000D01*
X143157604Y-92111321D01*
G37*
G04 #@! TD.AperFunction*
M02*
