G04 #@! TF.GenerationSoftware,KiCad,Pcbnew,(7.0.0-0)*
G04 #@! TF.CreationDate,2023-12-04T12:02:09+01:00*
G04 #@! TF.ProjectId,Crazyflie contol board,4372617a-7966-46c6-9965-20636f6e746f,2.4*
G04 #@! TF.SameCoordinates,Original*
G04 #@! TF.FileFunction,Soldermask,Top*
G04 #@! TF.FilePolarity,Negative*
%FSLAX46Y46*%
G04 Gerber Fmt 4.6, Leading zero omitted, Abs format (unit mm)*
G04 Created by KiCad (PCBNEW (7.0.0-0)) date 2023-12-04 12:02:09*
%MOMM*%
%LPD*%
G01*
G04 APERTURE LIST*
G04 Aperture macros list*
%AMRoundRect*
0 Rectangle with rounded corners*
0 $1 Rounding radius*
0 $2 $3 $4 $5 $6 $7 $8 $9 X,Y pos of 4 corners*
0 Add a 4 corners polygon primitive as box body*
4,1,4,$2,$3,$4,$5,$6,$7,$8,$9,$2,$3,0*
0 Add four circle primitives for the rounded corners*
1,1,$1+$1,$2,$3*
1,1,$1+$1,$4,$5*
1,1,$1+$1,$6,$7*
1,1,$1+$1,$8,$9*
0 Add four rect primitives between the rounded corners*
20,1,$1+$1,$2,$3,$4,$5,0*
20,1,$1+$1,$4,$5,$6,$7,0*
20,1,$1+$1,$6,$7,$8,$9,0*
20,1,$1+$1,$8,$9,$2,$3,0*%
G04 Aperture macros list end*
%ADD10RoundRect,0.050000X0.457200X0.457200X-0.457200X0.457200X-0.457200X-0.457200X0.457200X-0.457200X0*%
%ADD11RoundRect,0.050000X0.457200X-0.457200X0.457200X0.457200X-0.457200X0.457200X-0.457200X-0.457200X0*%
%ADD12RoundRect,0.050000X0.350520X0.500380X-0.350520X0.500380X-0.350520X-0.500380X0.350520X-0.500380X0*%
%ADD13RoundRect,0.162500X0.112500X-0.187500X0.112500X0.187500X-0.112500X0.187500X-0.112500X-0.187500X0*%
%ADD14RoundRect,0.162500X-0.187500X-0.112500X0.187500X-0.112500X0.187500X0.112500X-0.187500X0.112500X0*%
%ADD15RoundRect,0.162500X-0.112500X0.187500X-0.112500X-0.187500X0.112500X-0.187500X0.112500X0.187500X0*%
%ADD16RoundRect,0.162500X0.187500X0.112500X-0.187500X0.112500X-0.187500X-0.112500X0.187500X-0.112500X0*%
%ADD17RoundRect,0.275000X0.225000X0.250000X-0.225000X0.250000X-0.225000X-0.250000X0.225000X-0.250000X0*%
%ADD18RoundRect,0.275000X-0.250000X0.225000X-0.250000X-0.225000X0.250000X-0.225000X0.250000X0.225000X0*%
%ADD19RoundRect,0.275000X-0.225000X-0.250000X0.225000X-0.250000X0.225000X0.250000X-0.225000X0.250000X0*%
%ADD20RoundRect,0.275000X0.250000X-0.225000X0.250000X0.225000X-0.250000X0.225000X-0.250000X-0.225000X0*%
%ADD21RoundRect,0.250000X-0.200000X-0.275000X0.200000X-0.275000X0.200000X0.275000X-0.200000X0.275000X0*%
%ADD22RoundRect,0.250000X0.200000X0.275000X-0.200000X0.275000X-0.200000X-0.275000X0.200000X-0.275000X0*%
%ADD23RoundRect,0.250000X-0.275000X0.200000X-0.275000X-0.200000X0.275000X-0.200000X0.275000X0.200000X0*%
%ADD24RoundRect,0.250000X0.275000X-0.200000X0.275000X0.200000X-0.275000X0.200000X-0.275000X-0.200000X0*%
%ADD25RoundRect,0.185000X-0.135000X-0.185000X0.135000X-0.185000X0.135000X0.185000X-0.135000X0.185000X0*%
%ADD26RoundRect,0.185000X-0.185000X0.135000X-0.185000X-0.135000X0.185000X-0.135000X0.185000X0.135000X0*%
%ADD27RoundRect,0.050000X-0.398780X0.398780X-0.398780X-0.398780X0.398780X-0.398780X0.398780X0.398780X0*%
%ADD28RoundRect,0.050000X-0.563960X0.000000X0.000000X-0.563960X0.563960X0.000000X0.000000X0.563960X0*%
%ADD29RoundRect,0.050000X0.199390X-0.254000X0.199390X0.254000X-0.199390X0.254000X-0.199390X-0.254000X0*%
%ADD30RoundRect,0.185000X0.185000X-0.135000X0.185000X0.135000X-0.185000X0.135000X-0.185000X-0.135000X0*%
%ADD31O,2.600000X1.000000*%
%ADD32O,1.000000X2.600000*%
%ADD33RoundRect,0.050000X-2.366000X-2.307000X2.366000X-2.307000X2.366000X2.307000X-2.366000X2.307000X0*%
%ADD34RoundRect,0.050000X0.125000X-0.337500X0.125000X0.337500X-0.125000X0.337500X-0.125000X-0.337500X0*%
%ADD35RoundRect,0.050000X0.337500X-0.125000X0.337500X0.125000X-0.337500X0.125000X-0.337500X-0.125000X0*%
%ADD36RoundRect,0.185000X0.135000X0.185000X-0.135000X0.185000X-0.135000X-0.185000X0.135000X-0.185000X0*%
%ADD37C,0.750000*%
%ADD38RoundRect,0.050000X0.300000X0.725000X-0.300000X0.725000X-0.300000X-0.725000X0.300000X-0.725000X0*%
%ADD39RoundRect,0.050000X0.150000X0.725000X-0.150000X0.725000X-0.150000X-0.725000X0.150000X-0.725000X0*%
%ADD40O,1.100000X2.200000*%
%ADD41O,1.100000X1.700000*%
%ADD42RoundRect,0.137500X-0.125000X-0.087500X0.125000X-0.087500X0.125000X0.087500X-0.125000X0.087500X0*%
%ADD43RoundRect,0.137500X-0.087500X-0.125000X0.087500X-0.125000X0.087500X0.125000X-0.087500X0.125000X0*%
%ADD44RoundRect,0.300000X0.600000X-0.600000X0.600000X0.600000X-0.600000X0.600000X-0.600000X-0.600000X0*%
%ADD45C,1.800000*%
G04 APERTURE END LIST*
D10*
X141089000Y-97368000D03*
X140200000Y-99400000D03*
X141978000Y-99400000D03*
X137153754Y-101484000D03*
X136264754Y-103516000D03*
X138042754Y-103516000D03*
X133053754Y-101784000D03*
X132164754Y-103816000D03*
X133942754Y-103816000D03*
D11*
X130316000Y-102700000D03*
X128284000Y-101811000D03*
X128284000Y-103589000D03*
D12*
X134707574Y-108734860D03*
X133755074Y-108734860D03*
X132802574Y-108734860D03*
X132802574Y-111274860D03*
X133755074Y-111274860D03*
X134707574Y-111274860D03*
D13*
X140953754Y-95850000D03*
X140953754Y-93750000D03*
D14*
X135850000Y-98700000D03*
X137950000Y-98700000D03*
D15*
X131953754Y-98150000D03*
X131953754Y-100250000D03*
D16*
X129903754Y-98600000D03*
X127803754Y-98600000D03*
D17*
X132675000Y-106200000D03*
X131125000Y-106200000D03*
D18*
X157400000Y-91825000D03*
X157400000Y-93375000D03*
D19*
X134725000Y-113600000D03*
X136275000Y-113600000D03*
D20*
X136030268Y-89775000D03*
X136030268Y-88225000D03*
D19*
X133725000Y-86100000D03*
X135275000Y-86100000D03*
D21*
X130128754Y-108400000D03*
X131778754Y-108400000D03*
D22*
X152178754Y-96800000D03*
X150528754Y-96800000D03*
D23*
X146753754Y-96675000D03*
X146753754Y-98325000D03*
D21*
X131528754Y-115000000D03*
X133178754Y-115000000D03*
D24*
X163353754Y-90525000D03*
X163353754Y-88875000D03*
D25*
X126890000Y-105700000D03*
X127910000Y-105700000D03*
D26*
X136953754Y-107300000D03*
X136953754Y-108320000D03*
D25*
X136533754Y-105000000D03*
X137553754Y-105000000D03*
X140643754Y-100800000D03*
X141663754Y-100800000D03*
D27*
X129100000Y-114050700D03*
X129100000Y-115549300D03*
D28*
X162923919Y-85170165D03*
X163983589Y-86229835D03*
D29*
X154449760Y-93449960D03*
X155100000Y-93449960D03*
X155750240Y-93449960D03*
X155750240Y-91550040D03*
X155100000Y-91550040D03*
X154449760Y-91550040D03*
D30*
X127653754Y-109310000D03*
X127653754Y-108290000D03*
D31*
X162673753Y-119549999D03*
X162673753Y-118279999D03*
X162673753Y-117009999D03*
X162673753Y-115739999D03*
X162673753Y-114469999D03*
X162673753Y-113199999D03*
X162673753Y-111929999D03*
X162673753Y-110659999D03*
X162673753Y-109389999D03*
X162673753Y-108119999D03*
X162673753Y-106849999D03*
X162673753Y-105579999D03*
X162673753Y-104309999D03*
X162673753Y-103039999D03*
D32*
X159388753Y-101549999D03*
X158118753Y-101549999D03*
X156848753Y-101549999D03*
X155578753Y-101549999D03*
X154308753Y-101549999D03*
X153038753Y-101549999D03*
X151768753Y-101549999D03*
X150498753Y-101549999D03*
X149228753Y-101549999D03*
X147958753Y-101549999D03*
D31*
X144673753Y-103039999D03*
X144673753Y-104309999D03*
X144673753Y-105579999D03*
X144673753Y-106849999D03*
X144673753Y-108119999D03*
X144673753Y-109389999D03*
X144673753Y-110659999D03*
X144673753Y-111929999D03*
X144673753Y-113199999D03*
X144673753Y-114469999D03*
X144673753Y-115739999D03*
X144673753Y-117009999D03*
X144673753Y-118279999D03*
X144673753Y-119549999D03*
D33*
X153339754Y-112543000D03*
D20*
X164853754Y-116875000D03*
X164853754Y-115325000D03*
D26*
X164853754Y-112390000D03*
X164853754Y-113410000D03*
D34*
X132230268Y-90675000D03*
X132780268Y-90675000D03*
X133280268Y-90675000D03*
X133830268Y-90675000D03*
D35*
X133955268Y-90000000D03*
X133955268Y-89500000D03*
X133955268Y-89000000D03*
D34*
X133830268Y-88325000D03*
X133280268Y-88325000D03*
X132780268Y-88325000D03*
X132230268Y-88325000D03*
D35*
X132105268Y-89000000D03*
X132105268Y-89500000D03*
X132105268Y-90000000D03*
D23*
X151800000Y-91475000D03*
X151800000Y-93125000D03*
D36*
X141663754Y-103000000D03*
X140643754Y-103000000D03*
D37*
X159640000Y-87955000D03*
X153860000Y-87955000D03*
D38*
X160000000Y-89400000D03*
X159200000Y-89400000D03*
D39*
X158000000Y-89400000D03*
X157000000Y-89400000D03*
X156500000Y-89400000D03*
X155500000Y-89400000D03*
D38*
X154300000Y-89400000D03*
X153500000Y-89400000D03*
X153500000Y-89400000D03*
X154300000Y-89400000D03*
D39*
X155000000Y-89400000D03*
X156000000Y-89400000D03*
X157500000Y-89400000D03*
X158500000Y-89400000D03*
D38*
X159200000Y-89400000D03*
X160000000Y-89400000D03*
D40*
X161069999Y-88484999D03*
D41*
X161069999Y-84304999D03*
D40*
X152429999Y-88484999D03*
D41*
X152429999Y-84304999D03*
D20*
X138300000Y-89775000D03*
X138300000Y-88225000D03*
D36*
X140910000Y-107900000D03*
X139890000Y-107900000D03*
D42*
X140337500Y-88650000D03*
X140337500Y-89150000D03*
D43*
X140600000Y-89662500D03*
X141100000Y-89662500D03*
X141600000Y-89662500D03*
D42*
X141862500Y-89150000D03*
X141862500Y-88650000D03*
D43*
X141600000Y-88137500D03*
X141100000Y-88137500D03*
X140600000Y-88137500D03*
D17*
X139975000Y-86100000D03*
X138425000Y-86100000D03*
D23*
X160400000Y-91575000D03*
X160400000Y-93225000D03*
D36*
X140910000Y-106700000D03*
X139890000Y-106700000D03*
D44*
X140293754Y-121440000D03*
D45*
X140293754Y-118900000D03*
X137753754Y-121440000D03*
X137753754Y-118900000D03*
X135213754Y-121440000D03*
X135213754Y-118900000D03*
X132673754Y-121440000D03*
X132673754Y-118900000D03*
X130133754Y-121440000D03*
X130133754Y-118900000D03*
D44*
X137733754Y-96080000D03*
D45*
X137733754Y-93540000D03*
X135193754Y-96080000D03*
X135193754Y-93540000D03*
X132653754Y-96080000D03*
X132653754Y-93540000D03*
X130113754Y-96080000D03*
X130113754Y-93540000D03*
X127573754Y-96080000D03*
X127573754Y-93540000D03*
G36*
X141391080Y-89478607D02*
G01*
X141390864Y-89480402D01*
X141387351Y-89485660D01*
X141377000Y-89537699D01*
X141377000Y-89787301D01*
X141387351Y-89839339D01*
X141390864Y-89844597D01*
X141391080Y-89846392D01*
X141389761Y-89847628D01*
X141387983Y-89847295D01*
X141365392Y-89829960D01*
X141334608Y-89829960D01*
X141312016Y-89847295D01*
X141310238Y-89847628D01*
X141308919Y-89846392D01*
X141309135Y-89844597D01*
X141312648Y-89839339D01*
X141323000Y-89787301D01*
X141323000Y-89537699D01*
X141312648Y-89485660D01*
X141309135Y-89480402D01*
X141308919Y-89478607D01*
X141310238Y-89477371D01*
X141312016Y-89477704D01*
X141334608Y-89495040D01*
X141365392Y-89495040D01*
X141387983Y-89477704D01*
X141389761Y-89477371D01*
X141391080Y-89478607D01*
G37*
G36*
X140891080Y-89478607D02*
G01*
X140890864Y-89480402D01*
X140887351Y-89485660D01*
X140877000Y-89537699D01*
X140877000Y-89787301D01*
X140887351Y-89839339D01*
X140890864Y-89844597D01*
X140891080Y-89846392D01*
X140889761Y-89847628D01*
X140887983Y-89847295D01*
X140865392Y-89829960D01*
X140834608Y-89829960D01*
X140812016Y-89847295D01*
X140810238Y-89847628D01*
X140808919Y-89846392D01*
X140809135Y-89844597D01*
X140812648Y-89839339D01*
X140823000Y-89787301D01*
X140823000Y-89537699D01*
X140812648Y-89485660D01*
X140809135Y-89480402D01*
X140808919Y-89478607D01*
X140810238Y-89477371D01*
X140812016Y-89477704D01*
X140834608Y-89495040D01*
X140865392Y-89495040D01*
X140887983Y-89477704D01*
X140889761Y-89477371D01*
X140891080Y-89478607D01*
G37*
G36*
X142047628Y-88860238D02*
G01*
X142047295Y-88862016D01*
X142029960Y-88884608D01*
X142029960Y-88915392D01*
X142047295Y-88937983D01*
X142047628Y-88939761D01*
X142046392Y-88941080D01*
X142044597Y-88940864D01*
X142039339Y-88937351D01*
X141987301Y-88927000D01*
X141737699Y-88927000D01*
X141685660Y-88937351D01*
X141680402Y-88940864D01*
X141678607Y-88941080D01*
X141677371Y-88939761D01*
X141677704Y-88937983D01*
X141695040Y-88915392D01*
X141695040Y-88884608D01*
X141677704Y-88862016D01*
X141677371Y-88860238D01*
X141678607Y-88858919D01*
X141680402Y-88859135D01*
X141685660Y-88862648D01*
X141737699Y-88873000D01*
X141987301Y-88873000D01*
X142039339Y-88862648D01*
X142044597Y-88859135D01*
X142046392Y-88858919D01*
X142047628Y-88860238D01*
G37*
G36*
X140522628Y-88860238D02*
G01*
X140522295Y-88862016D01*
X140504960Y-88884608D01*
X140504960Y-88915392D01*
X140522295Y-88937983D01*
X140522628Y-88939761D01*
X140521392Y-88941080D01*
X140519597Y-88940864D01*
X140514339Y-88937351D01*
X140462301Y-88927000D01*
X140212699Y-88927000D01*
X140160660Y-88937351D01*
X140155402Y-88940864D01*
X140153607Y-88941080D01*
X140152371Y-88939761D01*
X140152704Y-88937983D01*
X140170040Y-88915392D01*
X140170040Y-88884608D01*
X140152704Y-88862016D01*
X140152371Y-88860238D01*
X140153607Y-88858919D01*
X140155402Y-88859135D01*
X140160660Y-88862648D01*
X140212699Y-88873000D01*
X140462301Y-88873000D01*
X140514339Y-88862648D01*
X140519597Y-88859135D01*
X140521392Y-88858919D01*
X140522628Y-88860238D01*
G37*
G36*
X141391080Y-87953607D02*
G01*
X141390864Y-87955402D01*
X141387351Y-87960660D01*
X141377000Y-88012699D01*
X141377000Y-88262301D01*
X141387351Y-88314339D01*
X141390864Y-88319597D01*
X141391080Y-88321392D01*
X141389761Y-88322628D01*
X141387983Y-88322295D01*
X141365392Y-88304960D01*
X141334608Y-88304960D01*
X141312016Y-88322295D01*
X141310238Y-88322628D01*
X141308919Y-88321392D01*
X141309135Y-88319597D01*
X141312648Y-88314339D01*
X141323000Y-88262301D01*
X141323000Y-88012699D01*
X141312648Y-87960660D01*
X141309135Y-87955402D01*
X141308919Y-87953607D01*
X141310238Y-87952371D01*
X141312016Y-87952704D01*
X141334608Y-87970040D01*
X141365392Y-87970040D01*
X141387983Y-87952704D01*
X141389761Y-87952371D01*
X141391080Y-87953607D01*
G37*
G36*
X140891080Y-87953607D02*
G01*
X140890864Y-87955402D01*
X140887351Y-87960660D01*
X140877000Y-88012699D01*
X140877000Y-88262301D01*
X140887351Y-88314339D01*
X140890864Y-88319597D01*
X140891080Y-88321392D01*
X140889761Y-88322628D01*
X140887983Y-88322295D01*
X140865392Y-88304960D01*
X140834608Y-88304960D01*
X140812016Y-88322295D01*
X140810238Y-88322628D01*
X140808919Y-88321392D01*
X140809135Y-88319597D01*
X140812648Y-88314339D01*
X140823000Y-88262301D01*
X140823000Y-88012699D01*
X140812648Y-87960660D01*
X140809135Y-87955402D01*
X140808919Y-87953607D01*
X140810238Y-87952371D01*
X140812016Y-87952704D01*
X140834608Y-87970040D01*
X140865392Y-87970040D01*
X140887983Y-87952704D01*
X140889761Y-87952371D01*
X140891080Y-87953607D01*
G37*
M02*
