G04 #@! TF.GenerationSoftware,KiCad,Pcbnew,(6.0.2-0)*
G04 #@! TF.CreationDate,2022-07-16T10:45:30+02:00*
G04 #@! TF.ProjectId,Crazyflie contol board,4372617a-7966-46c6-9965-20636f6e746f,2.2*
G04 #@! TF.SameCoordinates,Original*
G04 #@! TF.FileFunction,Copper,L2,Inr*
G04 #@! TF.FilePolarity,Positive*
%FSLAX46Y46*%
G04 Gerber Fmt 4.6, Leading zero omitted, Abs format (unit mm)*
G04 Created by KiCad (PCBNEW (6.0.2-0)) date 2022-07-16 10:45:30*
%MOMM*%
%LPD*%
G01*
G04 APERTURE LIST*
%ADD10C,0.200025*%
G04 #@! TA.AperFunction,NonConductor*
%ADD11C,0.200025*%
G04 #@! TD*
G04 #@! TA.AperFunction,ComponentPad*
%ADD12C,0.381000*%
G04 #@! TD*
G04 #@! TA.AperFunction,Conductor*
%ADD13R,1.699260X1.699260*%
G04 #@! TD*
G04 #@! TA.AperFunction,ComponentPad*
%ADD14R,1.198880X1.600200*%
G04 #@! TD*
G04 #@! TA.AperFunction,ComponentPad*
%ADD15O,1.198880X1.600200*%
G04 #@! TD*
G04 #@! TA.AperFunction,ComponentPad*
%ADD16R,1.399540X1.000760*%
G04 #@! TD*
G04 #@! TA.AperFunction,ComponentPad*
%ADD17O,1.399540X1.000760*%
G04 #@! TD*
G04 #@! TA.AperFunction,ComponentPad*
%ADD18O,1.600200X1.198880*%
G04 #@! TD*
G04 #@! TA.AperFunction,ComponentPad*
%ADD19C,0.500000*%
G04 #@! TD*
G04 #@! TA.AperFunction,ComponentPad*
%ADD20C,0.380000*%
G04 #@! TD*
G04 #@! TA.AperFunction,ViaPad*
%ADD21C,0.635000*%
G04 #@! TD*
G04 #@! TA.AperFunction,Conductor*
%ADD22C,0.203200*%
G04 #@! TD*
G04 #@! TA.AperFunction,Conductor*
%ADD23C,0.254000*%
G04 #@! TD*
G04 #@! TA.AperFunction,Conductor*
%ADD24C,0.381000*%
G04 #@! TD*
G04 APERTURE END LIST*
D10*
D11*
X140995400Y-83966050D02*
X141033500Y-83927950D01*
X141109700Y-83889850D01*
X141300200Y-83889850D01*
X141376400Y-83927950D01*
X141414500Y-83966050D01*
X141452600Y-84042250D01*
X141452600Y-84118450D01*
X141414500Y-84232750D01*
X140957300Y-84689950D01*
X141452600Y-84689950D01*
D12*
X149499320Y-99504500D03*
X148498560Y-99504500D03*
X148498560Y-98503740D03*
X149499320Y-98503740D03*
X148998940Y-99004120D03*
D13*
X148998940Y-99004120D03*
D14*
X152699720Y-99250500D03*
D15*
X152699720Y-97350580D03*
D16*
X144663160Y-113502440D03*
D17*
X146334480Y-113502440D03*
D16*
X144663160Y-110502700D03*
D17*
X146334480Y-110502700D03*
D16*
X144663160Y-107502960D03*
D17*
X146334480Y-107502960D03*
D16*
X144663160Y-104503220D03*
D17*
X146334480Y-104503220D03*
D18*
X152900380Y-105402380D03*
D19*
X134538720Y-114592100D03*
X129044700Y-110523020D03*
X131716780Y-110578900D03*
X129011680Y-113284000D03*
X134520940Y-111930180D03*
X130324860Y-110490000D03*
X134520940Y-110591600D03*
X130368040Y-109118400D03*
X131739640Y-113304320D03*
X130345180Y-111912400D03*
X133131560Y-113319560D03*
X131673600Y-109118400D03*
X129062480Y-111879380D03*
X130345180Y-113294160D03*
X129039620Y-109105700D03*
X134526020Y-109108240D03*
X130378200Y-114599720D03*
X133131560Y-110589060D03*
X133131560Y-114599720D03*
X131749800Y-111935260D03*
X133121400Y-111927640D03*
X129032000Y-114587020D03*
X131716780Y-114609880D03*
X133111240Y-109113320D03*
X134520940Y-113261140D03*
D20*
X124607320Y-96662240D03*
X124607320Y-97932240D03*
X125272800Y-97287080D03*
X125877320Y-97932240D03*
X125877320Y-96662240D03*
D21*
X137560049Y-103739951D03*
X141678660Y-99562920D03*
X141097000Y-118300500D03*
X141048740Y-102000000D03*
X138430000Y-105410000D03*
X146210020Y-87282020D03*
X134399020Y-93703140D03*
X144850000Y-89650000D03*
X137500360Y-92402660D03*
X154000000Y-87000000D03*
X148569680Y-89263220D03*
X129650000Y-97700000D03*
X148198840Y-105102660D03*
X131800000Y-118000000D03*
X124700000Y-119557800D03*
X140462000Y-99187000D03*
X125069600Y-100634800D03*
X148069300Y-115000000D03*
X149500000Y-115900000D03*
X148000720Y-111653320D03*
X131100000Y-105000000D03*
X157000000Y-107000000D03*
X152930860Y-112463580D03*
X152000000Y-108650000D03*
X150898860Y-103403400D03*
X150009860Y-95354140D03*
X151495758Y-112293926D03*
X154250000Y-109750000D03*
X153832414Y-108243851D03*
X148160740Y-113073180D03*
X128369060Y-91704160D03*
X124750000Y-118250000D03*
X136730740Y-93652340D03*
X139750000Y-94500000D03*
X143068040Y-112473740D03*
X153070560Y-114002820D03*
X155430220Y-86669880D03*
X154800300Y-100233480D03*
X124100000Y-87550000D03*
X121135781Y-107518200D03*
X141000000Y-97500000D03*
X121000000Y-97000000D03*
X135399780Y-92532200D03*
X136298940Y-87302340D03*
X144830800Y-87393780D03*
X134899400Y-91503500D03*
X132900420Y-93703140D03*
X151000460Y-86903560D03*
X142500000Y-92500000D03*
X150098760Y-86702900D03*
X154800300Y-101203760D03*
X152760680Y-107853480D03*
X154099260Y-110904020D03*
X148508720Y-94493080D03*
X154099260Y-111902240D03*
X146489420Y-98701860D03*
X148899880Y-101602540D03*
X139156440Y-97551240D03*
X138186160Y-109855000D03*
X133609080Y-90103960D03*
X133600000Y-98050000D03*
X139065000Y-116840000D03*
X142950000Y-109150000D03*
X147858480Y-96664780D03*
X143250000Y-96500000D03*
X127614680Y-107609640D03*
X147185380Y-95590360D03*
X154259280Y-92179140D03*
X137400000Y-94550000D03*
X125000000Y-106100000D03*
X125950000Y-107450000D03*
X136350000Y-97150000D03*
X140500000Y-93500000D03*
X142250000Y-100644960D03*
X150080980Y-97073720D03*
X123246322Y-105600500D03*
X143400000Y-101600000D03*
X128270000Y-106374380D03*
X134314380Y-106374380D03*
X125582680Y-93319600D03*
X128524000Y-97485200D03*
X145798540Y-95613220D03*
X127299720Y-93202760D03*
X147520660Y-100462080D03*
X123012200Y-101727000D03*
X129280920Y-99446080D03*
X137150000Y-104800000D03*
X147450000Y-86600000D03*
X125923040Y-116423440D03*
X132019040Y-96423480D03*
X123347480Y-94284800D03*
X125364240Y-94152720D03*
X127497840Y-94427040D03*
X122260360Y-90718640D03*
X138200000Y-112750000D03*
D22*
X141620241Y-117777259D02*
X141097000Y-118300500D01*
X141620241Y-99621339D02*
X141620241Y-117777259D01*
X141678660Y-99562920D02*
X141620241Y-99621339D01*
D23*
X132900420Y-93703140D02*
X134899400Y-91704160D01*
X134899400Y-91704160D02*
X134899400Y-91503500D01*
D24*
X148508720Y-94942092D02*
X148508720Y-94493080D01*
X146489420Y-98701860D02*
X146806919Y-98384361D01*
X147153885Y-98384361D02*
X148544281Y-96993965D01*
X148544281Y-94977653D02*
X148508720Y-94942092D01*
X146806919Y-98384361D02*
X147153885Y-98384361D01*
X148544281Y-96993965D02*
X148544281Y-94977653D01*
D22*
X139161520Y-103601520D02*
X139161520Y-116763800D01*
X133610000Y-98050000D02*
X139161520Y-103601520D01*
X133600000Y-98050000D02*
X133610000Y-98050000D01*
X143629380Y-103833928D02*
X144071501Y-103391807D01*
X143250000Y-99904178D02*
X143250000Y-96500000D01*
X142950000Y-109150000D02*
X143629380Y-108470620D01*
X144071501Y-100725679D02*
X143250000Y-99904178D01*
X144071501Y-103391807D02*
X144071501Y-100725679D01*
X143629380Y-108470620D02*
X143629380Y-103833928D01*
X127614680Y-102679498D02*
X127614680Y-107609640D01*
X147185380Y-95590360D02*
X146575788Y-96199952D01*
X144965414Y-96199952D02*
X144065462Y-95300000D01*
X146575788Y-96199952D02*
X144965414Y-96199952D01*
X134994178Y-95300000D02*
X127614680Y-102679498D01*
X144065462Y-95300000D02*
X134994178Y-95300000D01*
X121626800Y-91352200D02*
X122260360Y-90718640D01*
X135836609Y-115113391D02*
X128812449Y-115113391D01*
X138200000Y-112750000D02*
X135836609Y-115113391D01*
X128812449Y-115113391D02*
X127043179Y-113344121D01*
X127043179Y-113344121D02*
X127043179Y-106766357D01*
X127043179Y-106766357D02*
X122575323Y-102298501D01*
X121626800Y-101883040D02*
X121626800Y-91352200D01*
X122575323Y-102298501D02*
X122042261Y-102298501D01*
X122042261Y-102298501D02*
X121626800Y-101883040D01*
G04 #@! TA.AperFunction,Conductor*
G36*
X159708121Y-94000002D02*
G01*
X159754614Y-94053658D01*
X159766000Y-94106000D01*
X159766000Y-120524000D01*
X159745998Y-120592121D01*
X159692342Y-120638614D01*
X159640000Y-120650000D01*
X150635524Y-120650000D01*
X150567403Y-120629998D01*
X150520910Y-120576342D01*
X150509524Y-120524061D01*
X150506343Y-114002820D01*
X152493624Y-114002820D01*
X152513283Y-114152142D01*
X152570919Y-114291288D01*
X152662605Y-114410775D01*
X152782092Y-114502461D01*
X152921238Y-114560097D01*
X153070560Y-114579756D01*
X153219882Y-114560097D01*
X153359028Y-114502461D01*
X153478515Y-114410775D01*
X153570201Y-114291288D01*
X153627837Y-114152142D01*
X153647496Y-114002820D01*
X153627837Y-113853498D01*
X153570201Y-113714352D01*
X153478515Y-113594865D01*
X153359028Y-113503179D01*
X153219882Y-113445543D01*
X153070560Y-113425884D01*
X152921238Y-113445543D01*
X152782092Y-113503179D01*
X152662605Y-113594865D01*
X152570919Y-113714352D01*
X152513283Y-113853498D01*
X152493624Y-114002820D01*
X150506343Y-114002820D01*
X150505318Y-111902240D01*
X153522324Y-111902240D01*
X153541983Y-112051562D01*
X153599619Y-112190708D01*
X153691305Y-112310195D01*
X153810792Y-112401881D01*
X153949938Y-112459517D01*
X154099260Y-112479176D01*
X154248582Y-112459517D01*
X154387728Y-112401881D01*
X154507215Y-112310195D01*
X154598901Y-112190708D01*
X154656537Y-112051562D01*
X154676196Y-111902240D01*
X154656537Y-111752918D01*
X154598901Y-111613772D01*
X154507215Y-111494285D01*
X154502982Y-111491037D01*
X154469605Y-111429913D01*
X154474670Y-111359098D01*
X154502756Y-111315397D01*
X154507215Y-111311975D01*
X154598901Y-111192488D01*
X154656537Y-111053342D01*
X154676196Y-110904020D01*
X154656537Y-110754698D01*
X154598901Y-110615552D01*
X154507215Y-110496065D01*
X154387728Y-110404379D01*
X154248582Y-110346743D01*
X154099260Y-110327084D01*
X153949938Y-110346743D01*
X153810792Y-110404379D01*
X153691305Y-110496065D01*
X153599619Y-110615552D01*
X153541983Y-110754698D01*
X153522324Y-110904020D01*
X153541983Y-111053342D01*
X153599619Y-111192488D01*
X153691305Y-111311975D01*
X153695538Y-111315223D01*
X153728915Y-111376347D01*
X153723850Y-111447162D01*
X153695764Y-111490863D01*
X153691305Y-111494285D01*
X153599619Y-111613772D01*
X153541983Y-111752918D01*
X153522324Y-111902240D01*
X150505318Y-111902240D01*
X150503343Y-107853480D01*
X152183744Y-107853480D01*
X152203403Y-108002802D01*
X152261039Y-108141948D01*
X152352725Y-108261435D01*
X152472212Y-108353121D01*
X152611358Y-108410757D01*
X152760680Y-108430416D01*
X152910002Y-108410757D01*
X153049148Y-108353121D01*
X153168635Y-108261435D01*
X153260321Y-108141948D01*
X153317957Y-108002802D01*
X153337616Y-107853480D01*
X153317957Y-107704158D01*
X153260321Y-107565012D01*
X153168635Y-107445525D01*
X153049148Y-107353839D01*
X152910002Y-107296203D01*
X152760680Y-107276544D01*
X152611358Y-107296203D01*
X152472212Y-107353839D01*
X152352725Y-107445525D01*
X152261039Y-107565012D01*
X152203403Y-107704158D01*
X152183744Y-107853480D01*
X150503343Y-107853480D01*
X150502278Y-105669779D01*
X151625008Y-105669779D01*
X151646446Y-105758734D01*
X151650335Y-105770029D01*
X151732837Y-105951481D01*
X151738784Y-105961823D01*
X151854114Y-106124409D01*
X151861907Y-106133438D01*
X152005897Y-106271278D01*
X152015272Y-106278682D01*
X152182714Y-106386797D01*
X152193327Y-106392298D01*
X152378195Y-106466803D01*
X152389645Y-106470195D01*
X152586703Y-106508677D01*
X152595566Y-106509754D01*
X152598275Y-106509820D01*
X152628265Y-106509820D01*
X152643504Y-106505345D01*
X152644709Y-106503955D01*
X152646380Y-106496272D01*
X152646380Y-106491653D01*
X153154380Y-106491653D01*
X153158631Y-106506130D01*
X153170892Y-106508193D01*
X153305437Y-106495355D01*
X153317153Y-106493099D01*
X153508430Y-106436985D01*
X153519506Y-106432555D01*
X153696714Y-106341287D01*
X153706760Y-106334837D01*
X153863509Y-106211711D01*
X153872158Y-106203474D01*
X154002793Y-106052930D01*
X154009730Y-106043204D01*
X154109538Y-105870679D01*
X154114512Y-105859815D01*
X154179900Y-105671520D01*
X154180116Y-105670633D01*
X154178653Y-105660372D01*
X154165088Y-105656380D01*
X153172495Y-105656380D01*
X153157256Y-105660855D01*
X153156051Y-105662245D01*
X153154380Y-105669928D01*
X153154380Y-106491653D01*
X152646380Y-106491653D01*
X152646380Y-105674495D01*
X152641905Y-105659256D01*
X152640515Y-105658051D01*
X152632832Y-105656380D01*
X151639894Y-105656380D01*
X151626363Y-105660353D01*
X151625008Y-105669779D01*
X150502278Y-105669779D01*
X150502017Y-105134127D01*
X151620644Y-105134127D01*
X151622107Y-105144388D01*
X151635672Y-105148380D01*
X152628265Y-105148380D01*
X152643504Y-105143905D01*
X152644709Y-105142515D01*
X152646380Y-105134832D01*
X152646380Y-105130265D01*
X153154380Y-105130265D01*
X153158855Y-105145504D01*
X153160245Y-105146709D01*
X153167928Y-105148380D01*
X154160866Y-105148380D01*
X154174397Y-105144407D01*
X154175752Y-105134981D01*
X154154314Y-105046026D01*
X154150425Y-105034731D01*
X154067923Y-104853279D01*
X154061976Y-104842937D01*
X153946646Y-104680351D01*
X153938853Y-104671322D01*
X153794863Y-104533482D01*
X153785488Y-104526078D01*
X153618046Y-104417963D01*
X153607433Y-104412462D01*
X153422565Y-104337957D01*
X153411115Y-104334565D01*
X153214057Y-104296083D01*
X153205194Y-104295006D01*
X153202485Y-104294940D01*
X153172495Y-104294940D01*
X153157256Y-104299415D01*
X153156051Y-104300805D01*
X153154380Y-104308488D01*
X153154380Y-105130265D01*
X152646380Y-105130265D01*
X152646380Y-104313107D01*
X152642129Y-104298630D01*
X152629868Y-104296567D01*
X152495323Y-104309405D01*
X152483607Y-104311661D01*
X152292330Y-104367775D01*
X152281254Y-104372205D01*
X152104046Y-104463473D01*
X152094000Y-104469923D01*
X151937251Y-104593049D01*
X151928602Y-104601286D01*
X151797967Y-104751830D01*
X151791030Y-104761556D01*
X151691222Y-104934081D01*
X151686248Y-104944945D01*
X151620860Y-105133240D01*
X151620644Y-105134127D01*
X150502017Y-105134127D01*
X150500100Y-101203760D01*
X154223364Y-101203760D01*
X154243023Y-101353082D01*
X154300659Y-101492228D01*
X154392345Y-101611715D01*
X154511832Y-101703401D01*
X154650978Y-101761037D01*
X154800300Y-101780696D01*
X154949622Y-101761037D01*
X155088768Y-101703401D01*
X155208255Y-101611715D01*
X155299941Y-101492228D01*
X155357577Y-101353082D01*
X155377236Y-101203760D01*
X155357577Y-101054438D01*
X155299941Y-100915292D01*
X155208255Y-100795805D01*
X155210991Y-100793706D01*
X155184615Y-100745403D01*
X155189680Y-100674588D01*
X155210084Y-100642839D01*
X155208255Y-100641435D01*
X155237584Y-100603213D01*
X155299941Y-100521948D01*
X155357577Y-100382802D01*
X155377236Y-100233480D01*
X155357577Y-100084158D01*
X155299941Y-99945012D01*
X155208255Y-99825525D01*
X155088768Y-99733839D01*
X154949622Y-99676203D01*
X154800300Y-99656544D01*
X154650978Y-99676203D01*
X154511832Y-99733839D01*
X154392345Y-99825525D01*
X154300659Y-99945012D01*
X154243023Y-100084158D01*
X154223364Y-100233480D01*
X154243023Y-100382802D01*
X154300659Y-100521948D01*
X154363016Y-100603213D01*
X154392345Y-100641435D01*
X154389609Y-100643534D01*
X154415985Y-100691837D01*
X154410920Y-100762652D01*
X154390516Y-100794401D01*
X154392345Y-100795805D01*
X154300659Y-100915292D01*
X154243023Y-101054438D01*
X154223364Y-101203760D01*
X150500100Y-101203760D01*
X150500009Y-101018117D01*
X150500009Y-101018116D01*
X150500000Y-101000000D01*
X148126000Y-101000000D01*
X148057879Y-100979998D01*
X148011386Y-100926342D01*
X148000000Y-100874000D01*
X148000000Y-100817317D01*
X148016597Y-100755375D01*
X148020301Y-100750548D01*
X148077937Y-100611402D01*
X148096382Y-100471303D01*
X148125105Y-100406376D01*
X148184370Y-100367285D01*
X148221304Y-100361750D01*
X148726825Y-100361750D01*
X148742064Y-100357275D01*
X148743269Y-100355885D01*
X148744940Y-100348202D01*
X148744940Y-100343634D01*
X149252940Y-100343634D01*
X149257415Y-100358873D01*
X149258805Y-100360078D01*
X149266488Y-100361749D01*
X149893239Y-100361749D01*
X149900060Y-100361379D01*
X149950922Y-100355855D01*
X149966174Y-100352229D01*
X150086624Y-100307074D01*
X150102219Y-100298536D01*
X150204294Y-100222035D01*
X150216855Y-100209474D01*
X150293356Y-100107399D01*
X150301894Y-100091804D01*
X150347048Y-99971356D01*
X150350675Y-99956101D01*
X150356201Y-99905236D01*
X150356570Y-99898422D01*
X150356570Y-99276235D01*
X150352095Y-99260996D01*
X150350705Y-99259791D01*
X150343022Y-99258120D01*
X150033222Y-99258120D01*
X150007577Y-99265650D01*
X149768728Y-99504500D01*
X149499320Y-99773908D01*
X149265748Y-100007479D01*
X149252940Y-100030935D01*
X149252940Y-100343634D01*
X148744940Y-100343634D01*
X148744940Y-100038402D01*
X148737410Y-100012757D01*
X148229152Y-99504500D01*
X148000000Y-99275348D01*
X148000000Y-99005252D01*
X148272785Y-99005252D01*
X148272916Y-99007086D01*
X148277166Y-99013699D01*
X148485752Y-99222284D01*
X148499690Y-99229895D01*
X148501526Y-99229763D01*
X148508139Y-99225513D01*
X148616648Y-99117005D01*
X148616649Y-99117004D01*
X148716724Y-99016928D01*
X148724334Y-99002992D01*
X148724203Y-99001154D01*
X148719952Y-98994540D01*
X148559578Y-98834165D01*
X148511371Y-98785958D01*
X148497429Y-98778346D01*
X148495594Y-98778477D01*
X148488980Y-98782728D01*
X148280398Y-98991309D01*
X148272785Y-99005252D01*
X148000000Y-99005252D01*
X148000000Y-98732893D01*
X148498560Y-98234332D01*
X148732132Y-98000761D01*
X148744940Y-97977305D01*
X148744940Y-97969838D01*
X149252940Y-97969838D01*
X149260470Y-97995483D01*
X149499320Y-98234332D01*
X150002299Y-98737312D01*
X150025755Y-98750120D01*
X150338454Y-98750120D01*
X150353693Y-98745645D01*
X150354898Y-98744255D01*
X150356569Y-98736572D01*
X150356569Y-98109821D01*
X150356199Y-98103000D01*
X150350675Y-98052138D01*
X150347049Y-98036886D01*
X150301894Y-97916436D01*
X150293356Y-97900842D01*
X150221421Y-97804859D01*
X150196573Y-97738353D01*
X150211626Y-97668970D01*
X150259451Y-97621092D01*
X151593907Y-97621092D01*
X151606745Y-97755637D01*
X151609001Y-97767353D01*
X151665115Y-97958630D01*
X151669545Y-97969706D01*
X151760813Y-98146914D01*
X151767263Y-98156960D01*
X151837179Y-98245968D01*
X151863529Y-98311894D01*
X151857723Y-98350538D01*
X151860546Y-98351099D01*
X151845780Y-98425333D01*
X151845781Y-100075666D01*
X151860546Y-100149901D01*
X151916796Y-100234084D01*
X152000979Y-100290334D01*
X152075213Y-100305100D01*
X152699619Y-100305100D01*
X153324226Y-100305099D01*
X153359978Y-100297988D01*
X153386286Y-100292756D01*
X153386288Y-100292755D01*
X153398461Y-100290334D01*
X153408781Y-100283439D01*
X153408782Y-100283438D01*
X153472328Y-100240977D01*
X153482644Y-100234084D01*
X153538894Y-100149901D01*
X153553660Y-100075667D01*
X153553659Y-98425334D01*
X153539340Y-98353342D01*
X153545669Y-98282629D01*
X153566099Y-98250713D01*
X153564902Y-98249768D01*
X153576021Y-98235689D01*
X153684137Y-98068246D01*
X153689638Y-98057633D01*
X153764143Y-97872765D01*
X153767535Y-97861315D01*
X153806017Y-97664257D01*
X153807094Y-97655394D01*
X153807160Y-97652685D01*
X153807160Y-97622695D01*
X153802685Y-97607456D01*
X153801295Y-97606251D01*
X153793612Y-97604580D01*
X151610447Y-97604580D01*
X151595970Y-97608831D01*
X151593907Y-97621092D01*
X150259451Y-97621092D01*
X150261800Y-97618740D01*
X150274029Y-97612885D01*
X150307077Y-97599196D01*
X150369448Y-97573361D01*
X150488935Y-97481675D01*
X150580621Y-97362188D01*
X150638257Y-97223042D01*
X150657291Y-97078465D01*
X151592280Y-97078465D01*
X151596755Y-97093704D01*
X151598145Y-97094909D01*
X151605828Y-97096580D01*
X152427605Y-97096580D01*
X152442844Y-97092105D01*
X152444049Y-97090715D01*
X152445720Y-97083032D01*
X152445720Y-97078465D01*
X152953720Y-97078465D01*
X152958195Y-97093704D01*
X152959585Y-97094909D01*
X152967268Y-97096580D01*
X153788993Y-97096580D01*
X153803470Y-97092329D01*
X153805533Y-97080068D01*
X153792695Y-96945523D01*
X153790439Y-96933807D01*
X153734325Y-96742530D01*
X153729895Y-96731454D01*
X153638627Y-96554246D01*
X153632177Y-96544200D01*
X153509051Y-96387451D01*
X153500814Y-96378802D01*
X153350270Y-96248167D01*
X153340544Y-96241230D01*
X153168019Y-96141422D01*
X153157155Y-96136448D01*
X152968860Y-96071060D01*
X152967973Y-96070844D01*
X152957712Y-96072307D01*
X152953720Y-96085872D01*
X152953720Y-97078465D01*
X152445720Y-97078465D01*
X152445720Y-96090094D01*
X152441747Y-96076563D01*
X152432321Y-96075208D01*
X152343366Y-96096646D01*
X152332071Y-96100535D01*
X152150619Y-96183037D01*
X152140277Y-96188984D01*
X151977691Y-96304314D01*
X151968662Y-96312107D01*
X151830822Y-96456097D01*
X151823418Y-96465472D01*
X151715303Y-96632914D01*
X151709802Y-96643527D01*
X151635297Y-96828395D01*
X151631905Y-96839845D01*
X151593423Y-97036903D01*
X151592346Y-97045766D01*
X151592280Y-97048475D01*
X151592280Y-97078465D01*
X150657291Y-97078465D01*
X150657916Y-97073720D01*
X150638257Y-96924398D01*
X150580621Y-96785252D01*
X150488935Y-96665765D01*
X150369448Y-96574079D01*
X150230302Y-96516443D01*
X150080980Y-96496784D01*
X149931658Y-96516443D01*
X149792512Y-96574079D01*
X149673025Y-96665765D01*
X149581339Y-96785252D01*
X149523703Y-96924398D01*
X149504044Y-97073720D01*
X149523703Y-97223042D01*
X149581339Y-97362188D01*
X149586366Y-97368739D01*
X149586367Y-97368741D01*
X149643952Y-97443786D01*
X149669553Y-97510006D01*
X149655289Y-97579555D01*
X149605688Y-97630351D01*
X149543990Y-97646490D01*
X149271055Y-97646490D01*
X149255816Y-97650965D01*
X149254611Y-97652355D01*
X149252940Y-97660038D01*
X149252940Y-97969838D01*
X148744940Y-97969838D01*
X148744940Y-97664606D01*
X148740465Y-97649366D01*
X148723664Y-97634808D01*
X148685281Y-97575082D01*
X148685281Y-97504085D01*
X148717082Y-97450489D01*
X148834979Y-97332592D01*
X148846068Y-97322737D01*
X148864939Y-97307860D01*
X148872336Y-97302029D01*
X148905272Y-97254374D01*
X148907568Y-97251161D01*
X148936401Y-97212125D01*
X148941999Y-97204546D01*
X148944363Y-97197815D01*
X148948417Y-97191949D01*
X148965880Y-97136731D01*
X148967128Y-97132990D01*
X148983216Y-97087179D01*
X148983217Y-97087174D01*
X148986336Y-97078292D01*
X148986616Y-97071163D01*
X148988766Y-97064365D01*
X148989281Y-97057822D01*
X148989281Y-97005806D01*
X148989378Y-97000860D01*
X148991219Y-96953991D01*
X148991589Y-96944581D01*
X148989724Y-96937546D01*
X148989281Y-96929500D01*
X148989281Y-95011540D01*
X148990154Y-94996730D01*
X148992978Y-94972869D01*
X148994085Y-94963517D01*
X148983674Y-94906512D01*
X148983026Y-94902618D01*
X148979918Y-94881942D01*
X148989572Y-94811605D01*
X148999301Y-94795309D01*
X148999204Y-94795253D01*
X149003334Y-94788100D01*
X149008361Y-94781548D01*
X149065997Y-94642402D01*
X149085656Y-94493080D01*
X149065997Y-94343758D01*
X149008361Y-94204612D01*
X148991549Y-94182702D01*
X148965949Y-94116485D01*
X148980213Y-94046936D01*
X149029814Y-93996140D01*
X149091512Y-93980000D01*
X159640000Y-93980000D01*
X159708121Y-94000002D01*
G37*
G04 #@! TD.AperFunction*
G04 #@! TA.AperFunction,Conductor*
G36*
X121212821Y-95520002D02*
G01*
X121259314Y-95573658D01*
X121270700Y-95626000D01*
X121270700Y-96315027D01*
X121250698Y-96383148D01*
X121197042Y-96429641D01*
X121128254Y-96439949D01*
X121008189Y-96424142D01*
X121008188Y-96424142D01*
X121000000Y-96423064D01*
X120850678Y-96442723D01*
X120711532Y-96500359D01*
X120592045Y-96592045D01*
X120500359Y-96711532D01*
X120442723Y-96850678D01*
X120423064Y-97000000D01*
X120442723Y-97149322D01*
X120500359Y-97288468D01*
X120592045Y-97407955D01*
X120711532Y-97499641D01*
X120850678Y-97557277D01*
X121000000Y-97576936D01*
X121008188Y-97575858D01*
X121008189Y-97575858D01*
X121128254Y-97560051D01*
X121198402Y-97570990D01*
X121251501Y-97618118D01*
X121270700Y-97684973D01*
X121270700Y-101831612D01*
X121268566Y-101851661D01*
X121268368Y-101855851D01*
X121266176Y-101866033D01*
X121267400Y-101876374D01*
X121269827Y-101896880D01*
X121270144Y-101902255D01*
X121270272Y-101902244D01*
X121270700Y-101907422D01*
X121270700Y-101912624D01*
X121271554Y-101917754D01*
X121273639Y-101930283D01*
X121274474Y-101936155D01*
X121278884Y-101973414D01*
X121278886Y-101973421D01*
X121280110Y-101983762D01*
X121283830Y-101991508D01*
X121285240Y-101999982D01*
X121297132Y-102022021D01*
X121307992Y-102042149D01*
X121310685Y-102047436D01*
X121327995Y-102083482D01*
X121327997Y-102083485D01*
X121331428Y-102090630D01*
X121334799Y-102094640D01*
X121336737Y-102096578D01*
X121338252Y-102098229D01*
X121338473Y-102098639D01*
X121338431Y-102098677D01*
X121338592Y-102098860D01*
X121341535Y-102104314D01*
X121349182Y-102111382D01*
X121349182Y-102111383D01*
X121378595Y-102138572D01*
X121382161Y-102142002D01*
X121754093Y-102513934D01*
X121766770Y-102529630D01*
X121769587Y-102532726D01*
X121775236Y-102541475D01*
X121783414Y-102547922D01*
X121799633Y-102560708D01*
X121803660Y-102564286D01*
X121803743Y-102564188D01*
X121807702Y-102567543D01*
X121811380Y-102571221D01*
X121815604Y-102574240D01*
X121815614Y-102574248D01*
X121825955Y-102581637D01*
X121830699Y-102585198D01*
X121868336Y-102614869D01*
X121876441Y-102617715D01*
X121883432Y-102622711D01*
X121922017Y-102634250D01*
X121929323Y-102636435D01*
X121934968Y-102638269D01*
X121972708Y-102651522D01*
X121972711Y-102651523D01*
X121980190Y-102654149D01*
X121985409Y-102654601D01*
X121988120Y-102654601D01*
X121990397Y-102654699D01*
X121990846Y-102654834D01*
X121990844Y-102654888D01*
X121991077Y-102654903D01*
X121997013Y-102656678D01*
X122047411Y-102654698D01*
X122052357Y-102654601D01*
X122375632Y-102654601D01*
X122443753Y-102674603D01*
X122464727Y-102691506D01*
X125082268Y-105309047D01*
X125116294Y-105371359D01*
X125111229Y-105442174D01*
X125068682Y-105499010D01*
X125003098Y-105523472D01*
X125000000Y-105523064D01*
X124850678Y-105542723D01*
X124711532Y-105600359D01*
X124592045Y-105692045D01*
X124500359Y-105811532D01*
X124442723Y-105950678D01*
X124423064Y-106100000D01*
X124442723Y-106249322D01*
X124500359Y-106388468D01*
X124592045Y-106507955D01*
X124711532Y-106599641D01*
X124850678Y-106657277D01*
X125000000Y-106676936D01*
X125149322Y-106657277D01*
X125288468Y-106599641D01*
X125407955Y-106507955D01*
X125499641Y-106388468D01*
X125557277Y-106249322D01*
X125576502Y-106103301D01*
X125576936Y-106100000D01*
X125577828Y-106100117D01*
X125595860Y-106038706D01*
X125649516Y-105992213D01*
X125719790Y-105982109D01*
X125784370Y-106011603D01*
X125790953Y-106017732D01*
X126650174Y-106876953D01*
X126684200Y-106939265D01*
X126687079Y-106966048D01*
X126687079Y-107104704D01*
X126667077Y-107172825D01*
X126613421Y-107219318D01*
X126543147Y-107229422D01*
X126478567Y-107199928D01*
X126452437Y-107168283D01*
X126449641Y-107161532D01*
X126357955Y-107042045D01*
X126238468Y-106950359D01*
X126099322Y-106892723D01*
X125950000Y-106873064D01*
X125800678Y-106892723D01*
X125661532Y-106950359D01*
X125542045Y-107042045D01*
X125450359Y-107161532D01*
X125392723Y-107300678D01*
X125373064Y-107450000D01*
X125392723Y-107599322D01*
X125450359Y-107738468D01*
X125542045Y-107857955D01*
X125661532Y-107949641D01*
X125800678Y-108007277D01*
X125950000Y-108026936D01*
X126099322Y-108007277D01*
X126238468Y-107949641D01*
X126357955Y-107857955D01*
X126428060Y-107766593D01*
X126444613Y-107745021D01*
X126444614Y-107745019D01*
X126449641Y-107738468D01*
X126452353Y-107731920D01*
X126503345Y-107683301D01*
X126573059Y-107669867D01*
X126638969Y-107696255D01*
X126680150Y-107754088D01*
X126687079Y-107795296D01*
X126687079Y-113292693D01*
X126684945Y-113312742D01*
X126684747Y-113316932D01*
X126682555Y-113327114D01*
X126683779Y-113337455D01*
X126686206Y-113357961D01*
X126686523Y-113363336D01*
X126686651Y-113363325D01*
X126687079Y-113368503D01*
X126687079Y-113373705D01*
X126687933Y-113378835D01*
X126690018Y-113391364D01*
X126690853Y-113397236D01*
X126695263Y-113434495D01*
X126695265Y-113434502D01*
X126696489Y-113444843D01*
X126700209Y-113452589D01*
X126701619Y-113461063D01*
X126722449Y-113499669D01*
X126724371Y-113503230D01*
X126727064Y-113508517D01*
X126744374Y-113544563D01*
X126744376Y-113544566D01*
X126747807Y-113551711D01*
X126751178Y-113555721D01*
X126753116Y-113557659D01*
X126754631Y-113559310D01*
X126754852Y-113559720D01*
X126754810Y-113559758D01*
X126754971Y-113559941D01*
X126757914Y-113565395D01*
X126765561Y-113572463D01*
X126765561Y-113572464D01*
X126794974Y-113599653D01*
X126798540Y-113603083D01*
X128524281Y-115328824D01*
X128536958Y-115344520D01*
X128539775Y-115347616D01*
X128545424Y-115356365D01*
X128553602Y-115362812D01*
X128569821Y-115375598D01*
X128573848Y-115379176D01*
X128573931Y-115379078D01*
X128577890Y-115382433D01*
X128581568Y-115386111D01*
X128585792Y-115389130D01*
X128585802Y-115389138D01*
X128596143Y-115396527D01*
X128600887Y-115400088D01*
X128638524Y-115429759D01*
X128646629Y-115432605D01*
X128653620Y-115437601D01*
X128695097Y-115450005D01*
X128699511Y-115451325D01*
X128705156Y-115453159D01*
X128742896Y-115466412D01*
X128742899Y-115466413D01*
X128750378Y-115469039D01*
X128755597Y-115469491D01*
X128758308Y-115469491D01*
X128760585Y-115469589D01*
X128761034Y-115469724D01*
X128761032Y-115469778D01*
X128761265Y-115469793D01*
X128767201Y-115471568D01*
X128817599Y-115469588D01*
X128822545Y-115469491D01*
X135785181Y-115469491D01*
X135805230Y-115471625D01*
X135809420Y-115471823D01*
X135819602Y-115474015D01*
X135850449Y-115470364D01*
X135855824Y-115470047D01*
X135855813Y-115469919D01*
X135860991Y-115469491D01*
X135866193Y-115469491D01*
X135877528Y-115467604D01*
X135883852Y-115466552D01*
X135889724Y-115465717D01*
X135926983Y-115461307D01*
X135926990Y-115461305D01*
X135937331Y-115460081D01*
X135945077Y-115456361D01*
X135953551Y-115454951D01*
X135992799Y-115433774D01*
X135995718Y-115432199D01*
X136001005Y-115429506D01*
X136037051Y-115412196D01*
X136037054Y-115412194D01*
X136044199Y-115408763D01*
X136048209Y-115405392D01*
X136050147Y-115403454D01*
X136051798Y-115401939D01*
X136052208Y-115401718D01*
X136052246Y-115401760D01*
X136052429Y-115401599D01*
X136057883Y-115398656D01*
X136066682Y-115389138D01*
X136092141Y-115361596D01*
X136095571Y-115358030D01*
X138091259Y-113362342D01*
X138153571Y-113328316D01*
X138183553Y-113327066D01*
X138183553Y-113325858D01*
X138191812Y-113325858D01*
X138200000Y-113326936D01*
X138349322Y-113307277D01*
X138488468Y-113249641D01*
X138602716Y-113161975D01*
X138668936Y-113136374D01*
X138738485Y-113150639D01*
X138789281Y-113200240D01*
X138805420Y-113261937D01*
X138805420Y-116256057D01*
X138785418Y-116324178D01*
X138756128Y-116356016D01*
X138657045Y-116432045D01*
X138565359Y-116551532D01*
X138507723Y-116690678D01*
X138488064Y-116840000D01*
X138507723Y-116989322D01*
X138565359Y-117128468D01*
X138657045Y-117247955D01*
X138776532Y-117339641D01*
X138915678Y-117397277D01*
X139065000Y-117416936D01*
X139214322Y-117397277D01*
X139353468Y-117339641D01*
X139472955Y-117247955D01*
X139564641Y-117128468D01*
X139622277Y-116989322D01*
X139641936Y-116840000D01*
X139622277Y-116690678D01*
X139564641Y-116551532D01*
X139543657Y-116524185D01*
X139518057Y-116457964D01*
X139517620Y-116447481D01*
X139517620Y-103652948D01*
X139519754Y-103632899D01*
X139519952Y-103628709D01*
X139522144Y-103618527D01*
X139518493Y-103587680D01*
X139518176Y-103582305D01*
X139518048Y-103582316D01*
X139517620Y-103577138D01*
X139517620Y-103571936D01*
X139514681Y-103554277D01*
X139513846Y-103548405D01*
X139509436Y-103511146D01*
X139509434Y-103511139D01*
X139508210Y-103500798D01*
X139504490Y-103493052D01*
X139503080Y-103484578D01*
X139480328Y-103442411D01*
X139477635Y-103437124D01*
X139460325Y-103401078D01*
X139460323Y-103401075D01*
X139456892Y-103393930D01*
X139453521Y-103389920D01*
X139451583Y-103387982D01*
X139450068Y-103386331D01*
X139449847Y-103385921D01*
X139449889Y-103385883D01*
X139449728Y-103385700D01*
X139446785Y-103380246D01*
X139409725Y-103345988D01*
X139406159Y-103342558D01*
X138063601Y-102000000D01*
X140471804Y-102000000D01*
X140491463Y-102149322D01*
X140549099Y-102288468D01*
X140640785Y-102407955D01*
X140760272Y-102499641D01*
X140899418Y-102557277D01*
X141048740Y-102576936D01*
X141121695Y-102567331D01*
X141191843Y-102578270D01*
X141244942Y-102625398D01*
X141264141Y-102692253D01*
X141264141Y-117577568D01*
X141244139Y-117645689D01*
X141227236Y-117666663D01*
X141205741Y-117688158D01*
X141143429Y-117722184D01*
X141113447Y-117723434D01*
X141113447Y-117724642D01*
X141105188Y-117724642D01*
X141097000Y-117723564D01*
X140947678Y-117743223D01*
X140808532Y-117800859D01*
X140689045Y-117892545D01*
X140597359Y-118012032D01*
X140539723Y-118151178D01*
X140520064Y-118300500D01*
X140539723Y-118449822D01*
X140597359Y-118588968D01*
X140689045Y-118708455D01*
X140808532Y-118800141D01*
X140947678Y-118857777D01*
X141097000Y-118877436D01*
X141246322Y-118857777D01*
X141385468Y-118800141D01*
X141504955Y-118708455D01*
X141596641Y-118588968D01*
X141654277Y-118449822D01*
X141673936Y-118300500D01*
X141672858Y-118292312D01*
X141672858Y-118284053D01*
X141675580Y-118284053D01*
X141684457Y-118227146D01*
X141709342Y-118191759D01*
X141835674Y-118065427D01*
X141851370Y-118052750D01*
X141854466Y-118049933D01*
X141863215Y-118044284D01*
X141882448Y-118019887D01*
X141886026Y-118015860D01*
X141885928Y-118015777D01*
X141889283Y-118011818D01*
X141892961Y-118008140D01*
X141895980Y-118003916D01*
X141895988Y-118003906D01*
X141903377Y-117993565D01*
X141906942Y-117988816D01*
X141930160Y-117959364D01*
X141936609Y-117951184D01*
X141939455Y-117943079D01*
X141944451Y-117936088D01*
X141958193Y-117890139D01*
X141960014Y-117884535D01*
X141973262Y-117846810D01*
X141975889Y-117839330D01*
X141976341Y-117834111D01*
X141976341Y-117831400D01*
X141976439Y-117829127D01*
X141976575Y-117828674D01*
X141976628Y-117828676D01*
X141976642Y-117828447D01*
X141978419Y-117822507D01*
X141976438Y-117772094D01*
X141976341Y-117767147D01*
X141976341Y-112473740D01*
X142491104Y-112473740D01*
X142510763Y-112623062D01*
X142568399Y-112762208D01*
X142660085Y-112881695D01*
X142779572Y-112973381D01*
X142918718Y-113031017D01*
X143068040Y-113050676D01*
X143217362Y-113031017D01*
X143356508Y-112973381D01*
X143475995Y-112881695D01*
X143487016Y-112867332D01*
X143544355Y-112825466D01*
X143615226Y-112821245D01*
X143677128Y-112856011D01*
X143710408Y-112918724D01*
X143710544Y-112964746D01*
X143710704Y-112964762D01*
X143710548Y-112966343D01*
X143710555Y-112968622D01*
X143708890Y-112976993D01*
X143708891Y-114027886D01*
X143713200Y-114049550D01*
X143719294Y-114080188D01*
X143723656Y-114102121D01*
X143730551Y-114112441D01*
X143730552Y-114112442D01*
X143743577Y-114131935D01*
X143779906Y-114186304D01*
X143864089Y-114242554D01*
X143938323Y-114257320D01*
X144663042Y-114257320D01*
X145387996Y-114257319D01*
X145423748Y-114250208D01*
X145450056Y-114244976D01*
X145450058Y-114244975D01*
X145462231Y-114242554D01*
X145472551Y-114235659D01*
X145472552Y-114235658D01*
X145536098Y-114193197D01*
X145546414Y-114186304D01*
X145553307Y-114175988D01*
X145562084Y-114167211D01*
X145563224Y-114168351D01*
X145606798Y-114131935D01*
X145677242Y-114123086D01*
X145714387Y-114135247D01*
X145863649Y-114211463D01*
X145863651Y-114211464D01*
X145870169Y-114214792D01*
X145877275Y-114216531D01*
X145877278Y-114216532D01*
X145955441Y-114235658D01*
X146041151Y-114256631D01*
X146046753Y-114256979D01*
X146046756Y-114256979D01*
X146050318Y-114257200D01*
X146050327Y-114257200D01*
X146052257Y-114257320D01*
X146577947Y-114257320D01*
X146581581Y-114256896D01*
X146581586Y-114256896D01*
X146701439Y-114242922D01*
X146708712Y-114242074D01*
X146715594Y-114239576D01*
X146867296Y-114184511D01*
X146874175Y-114182014D01*
X147021384Y-114085500D01*
X147142441Y-113957709D01*
X147230853Y-113805497D01*
X147268047Y-113682693D01*
X147277027Y-113653042D01*
X147281877Y-113637028D01*
X147292777Y-113461339D01*
X147291537Y-113454121D01*
X147264207Y-113295069D01*
X147264206Y-113295066D01*
X147262967Y-113287855D01*
X147258977Y-113278478D01*
X147196913Y-113132619D01*
X147196912Y-113132617D01*
X147194046Y-113125882D01*
X147155262Y-113073180D01*
X147583804Y-113073180D01*
X147603463Y-113222502D01*
X147661099Y-113361648D01*
X147752785Y-113481135D01*
X147872272Y-113572821D01*
X148011418Y-113630457D01*
X148160740Y-113650116D01*
X148310062Y-113630457D01*
X148449208Y-113572821D01*
X148568695Y-113481135D01*
X148660381Y-113361648D01*
X148718017Y-113222502D01*
X148737676Y-113073180D01*
X148718017Y-112923858D01*
X148660381Y-112784712D01*
X148568695Y-112665225D01*
X148449208Y-112573539D01*
X148310062Y-112515903D01*
X148160740Y-112496244D01*
X148011418Y-112515903D01*
X147872272Y-112573539D01*
X147752785Y-112665225D01*
X147661099Y-112784712D01*
X147603463Y-112923858D01*
X147583804Y-113073180D01*
X147155262Y-113073180D01*
X147089713Y-112984108D01*
X146955562Y-112870139D01*
X146949047Y-112866812D01*
X146949045Y-112866811D01*
X146862983Y-112822866D01*
X146798791Y-112790088D01*
X146791685Y-112788349D01*
X146791682Y-112788348D01*
X146697507Y-112765304D01*
X146627809Y-112748249D01*
X146622207Y-112747901D01*
X146622204Y-112747901D01*
X146618642Y-112747680D01*
X146618633Y-112747680D01*
X146616703Y-112747560D01*
X146091013Y-112747560D01*
X146087379Y-112747984D01*
X146087374Y-112747984D01*
X145967521Y-112761958D01*
X145960248Y-112762806D01*
X145953366Y-112765304D01*
X145875919Y-112793416D01*
X145794785Y-112822866D01*
X145740066Y-112858741D01*
X145728523Y-112866309D01*
X145660588Y-112886931D01*
X145592287Y-112867551D01*
X145554674Y-112830938D01*
X145553307Y-112828892D01*
X145546414Y-112818576D01*
X145462231Y-112762326D01*
X145387997Y-112747560D01*
X144663278Y-112747560D01*
X143938324Y-112747561D01*
X143903044Y-112754578D01*
X143876264Y-112759904D01*
X143876262Y-112759905D01*
X143864089Y-112762326D01*
X143853769Y-112769221D01*
X143853768Y-112769222D01*
X143799547Y-112805452D01*
X143731795Y-112826667D01*
X143663328Y-112807884D01*
X143615884Y-112755067D01*
X143604527Y-112684985D01*
X143613135Y-112652472D01*
X143625317Y-112623062D01*
X143644976Y-112473740D01*
X143625317Y-112324418D01*
X143567681Y-112185272D01*
X143475995Y-112065785D01*
X143356508Y-111974099D01*
X143217362Y-111916463D01*
X143068040Y-111896804D01*
X142918718Y-111916463D01*
X142779572Y-111974099D01*
X142660085Y-112065785D01*
X142568399Y-112185272D01*
X142510763Y-112324418D01*
X142491104Y-112473740D01*
X141976341Y-112473740D01*
X141976341Y-109977253D01*
X143708890Y-109977253D01*
X143708891Y-111028146D01*
X143713200Y-111049810D01*
X143719294Y-111080448D01*
X143723656Y-111102381D01*
X143730551Y-111112701D01*
X143730552Y-111112702D01*
X143743577Y-111132195D01*
X143779906Y-111186564D01*
X143864089Y-111242814D01*
X143938323Y-111257580D01*
X144663042Y-111257580D01*
X145387996Y-111257579D01*
X145425347Y-111250150D01*
X145450056Y-111245236D01*
X145450058Y-111245235D01*
X145462231Y-111242814D01*
X145472551Y-111235919D01*
X145472552Y-111235918D01*
X145536098Y-111193457D01*
X145546414Y-111186564D01*
X145553307Y-111176248D01*
X145562084Y-111167471D01*
X145563224Y-111168611D01*
X145606798Y-111132195D01*
X145677242Y-111123346D01*
X145714387Y-111135507D01*
X145863649Y-111211723D01*
X145863651Y-111211724D01*
X145870169Y-111215052D01*
X145877275Y-111216791D01*
X145877278Y-111216792D01*
X145955441Y-111235918D01*
X146041151Y-111256891D01*
X146046753Y-111257239D01*
X146046756Y-111257239D01*
X146050318Y-111257460D01*
X146050327Y-111257460D01*
X146052257Y-111257580D01*
X146577947Y-111257580D01*
X146581581Y-111257156D01*
X146581586Y-111257156D01*
X146701439Y-111243182D01*
X146708712Y-111242334D01*
X146756312Y-111225056D01*
X146867296Y-111184771D01*
X146874175Y-111182274D01*
X147021384Y-111085760D01*
X147142441Y-110957969D01*
X147230853Y-110805757D01*
X147236267Y-110787883D01*
X147279755Y-110644294D01*
X147281877Y-110637288D01*
X147292777Y-110461599D01*
X147283759Y-110409116D01*
X147264207Y-110295329D01*
X147264206Y-110295326D01*
X147262967Y-110288115D01*
X147260101Y-110281379D01*
X147196913Y-110132879D01*
X147196912Y-110132877D01*
X147194046Y-110126142D01*
X147089713Y-109984368D01*
X146955562Y-109870399D01*
X146949047Y-109867072D01*
X146949045Y-109867071D01*
X146856873Y-109820006D01*
X146798791Y-109790348D01*
X146791685Y-109788609D01*
X146791682Y-109788608D01*
X146697507Y-109765564D01*
X146627809Y-109748509D01*
X146622207Y-109748161D01*
X146622204Y-109748161D01*
X146618642Y-109747940D01*
X146618633Y-109747940D01*
X146616703Y-109747820D01*
X146091013Y-109747820D01*
X146087379Y-109748244D01*
X146087374Y-109748244D01*
X145967521Y-109762218D01*
X145960248Y-109763066D01*
X145953366Y-109765564D01*
X145875919Y-109793676D01*
X145794785Y-109823126D01*
X145758658Y-109846812D01*
X145728523Y-109866569D01*
X145660588Y-109887191D01*
X145592287Y-109867811D01*
X145554674Y-109831198D01*
X145553307Y-109829152D01*
X145546414Y-109818836D01*
X145462231Y-109762586D01*
X145387997Y-109747820D01*
X144663278Y-109747820D01*
X143938324Y-109747821D01*
X143902572Y-109754932D01*
X143876264Y-109760164D01*
X143876262Y-109760165D01*
X143864089Y-109762586D01*
X143853769Y-109769481D01*
X143853768Y-109769482D01*
X143809809Y-109798855D01*
X143779906Y-109818836D01*
X143723656Y-109903019D01*
X143708890Y-109977253D01*
X141976341Y-109977253D01*
X141976341Y-109150000D01*
X142373064Y-109150000D01*
X142392723Y-109299322D01*
X142450359Y-109438468D01*
X142542045Y-109557955D01*
X142661532Y-109649641D01*
X142800678Y-109707277D01*
X142950000Y-109726936D01*
X143099322Y-109707277D01*
X143238468Y-109649641D01*
X143357955Y-109557955D01*
X143449641Y-109438468D01*
X143507277Y-109299322D01*
X143526936Y-109150000D01*
X143525858Y-109141812D01*
X143525858Y-109133553D01*
X143528580Y-109133553D01*
X143537457Y-109076646D01*
X143562342Y-109041259D01*
X143844813Y-108758788D01*
X143860509Y-108746111D01*
X143863605Y-108743294D01*
X143872354Y-108737645D01*
X143891587Y-108713248D01*
X143895163Y-108709224D01*
X143895065Y-108709141D01*
X143898424Y-108705177D01*
X143902099Y-108701502D01*
X143912547Y-108686883D01*
X143916054Y-108682212D01*
X143945748Y-108644545D01*
X143948594Y-108636439D01*
X143953590Y-108629449D01*
X143967317Y-108583549D01*
X143969151Y-108577905D01*
X143982401Y-108540173D01*
X143982402Y-108540170D01*
X143985028Y-108532691D01*
X143985480Y-108527472D01*
X143985480Y-108524761D01*
X143985578Y-108522485D01*
X143985713Y-108522035D01*
X143985767Y-108522037D01*
X143985782Y-108521806D01*
X143987557Y-108515869D01*
X143985577Y-108465471D01*
X143985480Y-108460525D01*
X143985480Y-108383840D01*
X144005482Y-108315719D01*
X144059138Y-108269226D01*
X144111480Y-108257840D01*
X145322331Y-108257839D01*
X145387996Y-108257839D01*
X145423748Y-108250728D01*
X145450056Y-108245496D01*
X145450058Y-108245495D01*
X145462231Y-108243074D01*
X145472551Y-108236179D01*
X145472552Y-108236178D01*
X145536098Y-108193717D01*
X145546414Y-108186824D01*
X145553307Y-108176508D01*
X145562084Y-108167731D01*
X145563224Y-108168871D01*
X145606798Y-108132455D01*
X145677242Y-108123606D01*
X145714387Y-108135767D01*
X145863649Y-108211983D01*
X145863651Y-108211984D01*
X145870169Y-108215312D01*
X145877275Y-108217051D01*
X145877278Y-108217052D01*
X145945609Y-108233772D01*
X146041151Y-108257151D01*
X146046753Y-108257499D01*
X146046756Y-108257499D01*
X146050318Y-108257720D01*
X146050327Y-108257720D01*
X146052257Y-108257840D01*
X146577947Y-108257840D01*
X146581581Y-108257416D01*
X146581586Y-108257416D01*
X146701439Y-108243442D01*
X146708712Y-108242594D01*
X146862356Y-108186824D01*
X146867296Y-108185031D01*
X146874175Y-108182534D01*
X146985905Y-108109281D01*
X147015265Y-108090032D01*
X147015266Y-108090031D01*
X147021384Y-108086020D01*
X147142441Y-107958229D01*
X147200685Y-107857955D01*
X147227177Y-107812346D01*
X147227178Y-107812345D01*
X147230853Y-107806017D01*
X147234101Y-107795296D01*
X147279755Y-107644554D01*
X147281877Y-107637548D01*
X147292777Y-107461859D01*
X147291201Y-107452687D01*
X147264207Y-107295589D01*
X147264206Y-107295586D01*
X147262967Y-107288375D01*
X147260101Y-107281639D01*
X147196913Y-107133139D01*
X147196912Y-107133137D01*
X147194046Y-107126402D01*
X147089713Y-106984628D01*
X146955562Y-106870659D01*
X146949047Y-106867332D01*
X146949045Y-106867331D01*
X146858093Y-106820889D01*
X146798791Y-106790608D01*
X146791685Y-106788869D01*
X146791682Y-106788868D01*
X146697507Y-106765824D01*
X146627809Y-106748769D01*
X146622207Y-106748421D01*
X146622204Y-106748421D01*
X146618642Y-106748200D01*
X146618633Y-106748200D01*
X146616703Y-106748080D01*
X146091013Y-106748080D01*
X146087379Y-106748504D01*
X146087374Y-106748504D01*
X145967521Y-106762478D01*
X145960248Y-106763326D01*
X145953366Y-106765824D01*
X145875919Y-106793936D01*
X145794785Y-106823386D01*
X145732856Y-106863988D01*
X145728523Y-106866829D01*
X145660588Y-106887451D01*
X145592287Y-106868071D01*
X145554674Y-106831458D01*
X145553307Y-106829412D01*
X145546414Y-106819096D01*
X145462231Y-106762846D01*
X145387997Y-106748080D01*
X145322352Y-106748080D01*
X144111480Y-106748081D01*
X144043359Y-106728079D01*
X143996866Y-106674423D01*
X143985480Y-106622081D01*
X143985480Y-105384100D01*
X144005482Y-105315979D01*
X144059138Y-105269486D01*
X144111480Y-105258100D01*
X145322331Y-105258099D01*
X145387996Y-105258099D01*
X145423748Y-105250988D01*
X145450056Y-105245756D01*
X145450058Y-105245755D01*
X145462231Y-105243334D01*
X145472551Y-105236439D01*
X145472552Y-105236438D01*
X145536098Y-105193977D01*
X145546414Y-105187084D01*
X145553307Y-105176768D01*
X145562084Y-105167991D01*
X145563224Y-105169131D01*
X145606798Y-105132715D01*
X145677242Y-105123866D01*
X145714387Y-105136027D01*
X145863649Y-105212243D01*
X145863651Y-105212244D01*
X145870169Y-105215572D01*
X145877275Y-105217311D01*
X145877278Y-105217312D01*
X145955441Y-105236438D01*
X146041151Y-105257411D01*
X146046753Y-105257759D01*
X146046756Y-105257759D01*
X146050318Y-105257980D01*
X146050327Y-105257980D01*
X146052257Y-105258100D01*
X146577947Y-105258100D01*
X146581581Y-105257676D01*
X146581586Y-105257676D01*
X146701439Y-105243702D01*
X146708712Y-105242854D01*
X146793044Y-105212243D01*
X146867296Y-105185291D01*
X146874175Y-105182794D01*
X147021384Y-105086280D01*
X147142441Y-104958489D01*
X147230853Y-104806277D01*
X147245535Y-104757803D01*
X147279755Y-104644814D01*
X147281877Y-104637808D01*
X147292777Y-104462119D01*
X147291537Y-104454901D01*
X147264207Y-104295849D01*
X147264206Y-104295846D01*
X147262967Y-104288635D01*
X147244775Y-104245882D01*
X147196913Y-104133399D01*
X147196912Y-104133397D01*
X147194046Y-104126662D01*
X147089713Y-103984888D01*
X146955562Y-103870919D01*
X146949047Y-103867592D01*
X146949045Y-103867591D01*
X146858093Y-103821149D01*
X146798791Y-103790868D01*
X146791685Y-103789129D01*
X146791682Y-103789128D01*
X146690523Y-103764375D01*
X146627809Y-103749029D01*
X146622207Y-103748681D01*
X146622204Y-103748681D01*
X146618642Y-103748460D01*
X146618633Y-103748460D01*
X146616703Y-103748340D01*
X146091013Y-103748340D01*
X146087379Y-103748764D01*
X146087374Y-103748764D01*
X145967521Y-103762738D01*
X145960248Y-103763586D01*
X145953366Y-103766084D01*
X145875919Y-103794196D01*
X145794785Y-103823646D01*
X145732856Y-103864248D01*
X145728523Y-103867089D01*
X145660588Y-103887711D01*
X145592287Y-103868331D01*
X145554674Y-103831718D01*
X145553307Y-103829672D01*
X145546414Y-103819356D01*
X145462231Y-103763106D01*
X145387997Y-103748340D01*
X145362752Y-103748340D01*
X144498986Y-103748341D01*
X144430866Y-103728339D01*
X144384373Y-103674683D01*
X144374269Y-103604409D01*
X144385125Y-103569213D01*
X144387869Y-103565732D01*
X144390715Y-103557627D01*
X144395711Y-103550636D01*
X144409453Y-103504687D01*
X144411274Y-103499083D01*
X144411517Y-103498391D01*
X144427149Y-103453878D01*
X144427601Y-103448659D01*
X144427601Y-103445948D01*
X144427699Y-103443675D01*
X144427835Y-103443222D01*
X144427888Y-103443224D01*
X144427902Y-103442995D01*
X144429679Y-103437055D01*
X144427698Y-103386642D01*
X144427601Y-103381695D01*
X144427601Y-100777107D01*
X144429735Y-100757058D01*
X144429933Y-100752868D01*
X144432125Y-100742686D01*
X144428474Y-100711839D01*
X144428157Y-100706464D01*
X144428029Y-100706475D01*
X144427601Y-100701297D01*
X144427601Y-100696095D01*
X144424662Y-100678436D01*
X144423827Y-100672564D01*
X144419417Y-100635305D01*
X144419415Y-100635298D01*
X144418191Y-100624957D01*
X144414471Y-100617211D01*
X144413061Y-100608737D01*
X144390309Y-100566570D01*
X144387616Y-100561283D01*
X144370306Y-100525237D01*
X144370304Y-100525234D01*
X144366873Y-100518089D01*
X144363502Y-100514079D01*
X144361564Y-100512141D01*
X144360049Y-100510490D01*
X144359828Y-100510080D01*
X144359870Y-100510042D01*
X144359709Y-100509859D01*
X144356766Y-100504405D01*
X144319720Y-100470160D01*
X144316153Y-100466730D01*
X143643004Y-99793580D01*
X143608979Y-99731268D01*
X143606100Y-99704485D01*
X143606100Y-97009881D01*
X143626102Y-96941760D01*
X143646417Y-96919675D01*
X143645564Y-96918822D01*
X143651405Y-96912981D01*
X143657955Y-96907955D01*
X143749641Y-96788468D01*
X143807277Y-96649322D01*
X143826936Y-96500000D01*
X143807277Y-96350678D01*
X143749641Y-96211532D01*
X143657955Y-96092045D01*
X143538468Y-96000359D01*
X143399322Y-95942723D01*
X143250000Y-95923064D01*
X143100678Y-95942723D01*
X142961532Y-96000359D01*
X142842045Y-96092045D01*
X142750359Y-96211532D01*
X142692723Y-96350678D01*
X142673064Y-96500000D01*
X142692723Y-96649322D01*
X142750359Y-96788468D01*
X142842045Y-96907955D01*
X142848595Y-96912981D01*
X142854436Y-96918822D01*
X142852513Y-96920745D01*
X142886476Y-96967268D01*
X142893900Y-97009881D01*
X142893900Y-99852750D01*
X142891766Y-99872799D01*
X142891568Y-99876989D01*
X142889376Y-99887171D01*
X142890600Y-99897512D01*
X142893027Y-99918018D01*
X142893344Y-99923393D01*
X142893472Y-99923382D01*
X142893900Y-99928560D01*
X142893900Y-99933762D01*
X142895787Y-99945097D01*
X142896839Y-99951421D01*
X142897674Y-99957293D01*
X142902084Y-99994552D01*
X142902086Y-99994559D01*
X142903310Y-100004900D01*
X142907030Y-100012646D01*
X142908440Y-100021120D01*
X142917135Y-100037234D01*
X142931192Y-100063287D01*
X142933885Y-100068574D01*
X142951195Y-100104620D01*
X142951197Y-100104623D01*
X142954628Y-100111768D01*
X142957999Y-100115778D01*
X142959937Y-100117716D01*
X142961452Y-100119367D01*
X142961673Y-100119777D01*
X142961631Y-100119815D01*
X142961792Y-100119998D01*
X142964735Y-100125452D01*
X142972382Y-100132520D01*
X142972382Y-100132521D01*
X143001781Y-100159697D01*
X143005348Y-100163127D01*
X143676805Y-100834585D01*
X143710830Y-100896897D01*
X143705765Y-100967713D01*
X143663218Y-101024548D01*
X143596698Y-101049359D01*
X143555947Y-101045467D01*
X143549322Y-101042723D01*
X143541142Y-101041646D01*
X143541138Y-101041645D01*
X143408188Y-101024142D01*
X143400000Y-101023064D01*
X143250678Y-101042723D01*
X143111532Y-101100359D01*
X142992045Y-101192045D01*
X142900359Y-101311532D01*
X142842723Y-101450678D01*
X142823064Y-101600000D01*
X142842723Y-101749322D01*
X142900359Y-101888468D01*
X142992045Y-102007955D01*
X143111532Y-102099641D01*
X143250678Y-102157277D01*
X143400000Y-102176936D01*
X143408188Y-102175858D01*
X143541135Y-102158355D01*
X143541136Y-102158355D01*
X143549322Y-102157277D01*
X143556844Y-102154161D01*
X143627767Y-102155850D01*
X143686563Y-102195645D01*
X143714510Y-102260909D01*
X143715401Y-102275867D01*
X143715401Y-103192115D01*
X143695399Y-103260236D01*
X143678496Y-103281210D01*
X143413945Y-103545761D01*
X143398255Y-103558433D01*
X143395154Y-103561255D01*
X143386406Y-103566903D01*
X143379959Y-103575081D01*
X143367177Y-103591295D01*
X143363596Y-103595325D01*
X143363694Y-103595408D01*
X143360341Y-103599365D01*
X143356660Y-103603046D01*
X143353636Y-103607278D01*
X143353634Y-103607280D01*
X143346231Y-103617639D01*
X143342668Y-103622384D01*
X143319460Y-103651823D01*
X143319459Y-103651825D01*
X143313012Y-103660003D01*
X143310166Y-103668108D01*
X143305170Y-103675099D01*
X143302186Y-103685078D01*
X143291446Y-103720990D01*
X143289612Y-103726635D01*
X143276359Y-103764375D01*
X143273732Y-103771857D01*
X143273280Y-103777076D01*
X143273280Y-103779787D01*
X143273182Y-103782064D01*
X143273047Y-103782513D01*
X143272993Y-103782511D01*
X143272978Y-103782744D01*
X143271203Y-103788680D01*
X143272894Y-103831718D01*
X143273183Y-103839078D01*
X143273280Y-103844024D01*
X143273280Y-108270928D01*
X143253278Y-108339049D01*
X143236375Y-108360023D01*
X143058740Y-108537658D01*
X142996428Y-108571684D01*
X142966448Y-108572933D01*
X142966448Y-108574142D01*
X142958188Y-108574142D01*
X142950000Y-108573064D01*
X142800678Y-108592723D01*
X142661532Y-108650359D01*
X142542045Y-108742045D01*
X142450359Y-108861532D01*
X142392723Y-109000678D01*
X142373064Y-109150000D01*
X141976341Y-109150000D01*
X141976341Y-101329543D01*
X141996343Y-101261422D01*
X142049999Y-101214929D01*
X142118787Y-101204621D01*
X142250000Y-101221896D01*
X142399322Y-101202237D01*
X142538468Y-101144601D01*
X142657955Y-101052915D01*
X142749641Y-100933428D01*
X142807277Y-100794282D01*
X142826936Y-100644960D01*
X142807277Y-100495638D01*
X142749641Y-100356492D01*
X142657955Y-100237005D01*
X142538468Y-100145319D01*
X142399322Y-100087683D01*
X142250271Y-100068060D01*
X142185344Y-100039338D01*
X142146253Y-99980072D01*
X142145408Y-99909081D01*
X142166755Y-99866435D01*
X142173273Y-99857941D01*
X142173274Y-99857939D01*
X142178301Y-99851388D01*
X142235937Y-99712242D01*
X142255596Y-99562920D01*
X142235937Y-99413598D01*
X142178301Y-99274452D01*
X142086615Y-99154965D01*
X141967128Y-99063279D01*
X141827982Y-99005643D01*
X141678660Y-98985984D01*
X141529338Y-99005643D01*
X141390192Y-99063279D01*
X141270705Y-99154965D01*
X141179019Y-99274452D01*
X141121383Y-99413598D01*
X141101724Y-99562920D01*
X141121383Y-99712242D01*
X141179019Y-99851388D01*
X141238105Y-99928390D01*
X141263704Y-99994609D01*
X141264141Y-100005092D01*
X141264141Y-101307747D01*
X141244139Y-101375868D01*
X141190483Y-101422361D01*
X141121695Y-101432669D01*
X141048740Y-101423064D01*
X140899418Y-101442723D01*
X140760272Y-101500359D01*
X140640785Y-101592045D01*
X140549099Y-101711532D01*
X140491463Y-101850678D01*
X140471804Y-102000000D01*
X138063601Y-102000000D01*
X134212763Y-98149161D01*
X134178737Y-98086849D01*
X134175858Y-98060066D01*
X134175858Y-98058188D01*
X134176936Y-98050000D01*
X134157277Y-97900678D01*
X134099641Y-97761532D01*
X134007955Y-97642045D01*
X133888468Y-97550359D01*
X133749322Y-97492723D01*
X133650530Y-97479717D01*
X133610057Y-97474388D01*
X133545130Y-97445665D01*
X133506039Y-97386400D01*
X133505194Y-97315408D01*
X133537409Y-97260371D01*
X133647780Y-97150000D01*
X135773064Y-97150000D01*
X135792723Y-97299322D01*
X135850359Y-97438468D01*
X135942045Y-97557955D01*
X136061532Y-97649641D01*
X136200678Y-97707277D01*
X136350000Y-97726936D01*
X136499322Y-97707277D01*
X136638468Y-97649641D01*
X136757955Y-97557955D01*
X136763108Y-97551240D01*
X138579504Y-97551240D01*
X138599163Y-97700562D01*
X138656799Y-97839708D01*
X138748485Y-97959195D01*
X138867972Y-98050881D01*
X139007118Y-98108517D01*
X139156440Y-98128176D01*
X139305762Y-98108517D01*
X139444908Y-98050881D01*
X139564395Y-97959195D01*
X139656081Y-97839708D01*
X139713717Y-97700562D01*
X139733376Y-97551240D01*
X139726630Y-97500000D01*
X140423064Y-97500000D01*
X140442723Y-97649322D01*
X140500359Y-97788468D01*
X140592045Y-97907955D01*
X140711532Y-97999641D01*
X140850678Y-98057277D01*
X141000000Y-98076936D01*
X141149322Y-98057277D01*
X141288468Y-97999641D01*
X141407955Y-97907955D01*
X141499641Y-97788468D01*
X141557277Y-97649322D01*
X141576936Y-97500000D01*
X141557277Y-97350678D01*
X141499641Y-97211532D01*
X141407955Y-97092045D01*
X141288468Y-97000359D01*
X141149322Y-96942723D01*
X141000000Y-96923064D01*
X140850678Y-96942723D01*
X140711532Y-97000359D01*
X140592045Y-97092045D01*
X140500359Y-97211532D01*
X140442723Y-97350678D01*
X140423064Y-97500000D01*
X139726630Y-97500000D01*
X139713717Y-97401918D01*
X139656081Y-97262772D01*
X139564395Y-97143285D01*
X139444908Y-97051599D01*
X139305762Y-96993963D01*
X139156440Y-96974304D01*
X139007118Y-96993963D01*
X138867972Y-97051599D01*
X138748485Y-97143285D01*
X138656799Y-97262772D01*
X138599163Y-97401918D01*
X138579504Y-97551240D01*
X136763108Y-97551240D01*
X136849641Y-97438468D01*
X136907277Y-97299322D01*
X136926936Y-97150000D01*
X136907277Y-97000678D01*
X136849641Y-96861532D01*
X136757955Y-96742045D01*
X136638468Y-96650359D01*
X136499322Y-96592723D01*
X136350000Y-96573064D01*
X136200678Y-96592723D01*
X136061532Y-96650359D01*
X135942045Y-96742045D01*
X135850359Y-96861532D01*
X135792723Y-97000678D01*
X135773064Y-97150000D01*
X133647780Y-97150000D01*
X135104775Y-95693005D01*
X135167087Y-95658979D01*
X135193870Y-95656100D01*
X143865771Y-95656100D01*
X143933892Y-95676102D01*
X143954866Y-95693005D01*
X144677246Y-96415385D01*
X144689918Y-96431074D01*
X144692738Y-96434174D01*
X144698389Y-96442926D01*
X144706567Y-96449373D01*
X144706568Y-96449374D01*
X144722781Y-96462155D01*
X144726811Y-96465736D01*
X144726894Y-96465638D01*
X144730851Y-96468991D01*
X144734532Y-96472672D01*
X144738764Y-96475696D01*
X144738766Y-96475698D01*
X144749125Y-96483101D01*
X144753870Y-96486664D01*
X144783309Y-96509872D01*
X144783311Y-96509873D01*
X144791489Y-96516320D01*
X144799594Y-96519166D01*
X144806585Y-96524162D01*
X144841876Y-96534716D01*
X144852485Y-96537889D01*
X144858129Y-96539723D01*
X144895861Y-96552973D01*
X144895864Y-96552974D01*
X144903343Y-96555600D01*
X144908562Y-96556052D01*
X144911273Y-96556052D01*
X144913549Y-96556150D01*
X144913999Y-96556285D01*
X144913997Y-96556339D01*
X144914228Y-96556354D01*
X144920165Y-96558129D01*
X144970563Y-96556149D01*
X144975509Y-96556052D01*
X146524360Y-96556052D01*
X146544409Y-96558186D01*
X146548599Y-96558384D01*
X146558781Y-96560576D01*
X146589628Y-96556925D01*
X146595003Y-96556608D01*
X146594992Y-96556480D01*
X146600170Y-96556052D01*
X146605372Y-96556052D01*
X146616707Y-96554165D01*
X146623031Y-96553113D01*
X146628903Y-96552278D01*
X146666162Y-96547868D01*
X146666169Y-96547866D01*
X146676510Y-96546642D01*
X146684256Y-96542922D01*
X146692730Y-96541512D01*
X146731972Y-96520338D01*
X146734897Y-96518760D01*
X146740184Y-96516067D01*
X146776230Y-96498757D01*
X146776233Y-96498755D01*
X146783378Y-96495324D01*
X146787388Y-96491953D01*
X146789326Y-96490015D01*
X146790977Y-96488500D01*
X146791387Y-96488279D01*
X146791425Y-96488321D01*
X146791608Y-96488160D01*
X146797062Y-96485217D01*
X146808659Y-96472672D01*
X146831319Y-96448158D01*
X146834749Y-96444592D01*
X147076639Y-96202702D01*
X147138951Y-96168676D01*
X147168933Y-96167426D01*
X147168933Y-96166218D01*
X147177192Y-96166218D01*
X147185380Y-96167296D01*
X147193568Y-96166218D01*
X147193569Y-96166218D01*
X147255150Y-96158111D01*
X147325299Y-96169051D01*
X147378397Y-96216179D01*
X147397587Y-96284533D01*
X147376776Y-96352411D01*
X147371570Y-96359720D01*
X147358839Y-96376312D01*
X147301203Y-96515458D01*
X147281544Y-96664780D01*
X147301203Y-96814102D01*
X147358839Y-96953248D01*
X147396932Y-97002891D01*
X147445496Y-97066182D01*
X147445499Y-97066185D01*
X147450525Y-97072735D01*
X147457075Y-97077761D01*
X147462917Y-97083603D01*
X147460381Y-97086139D01*
X147492554Y-97130161D01*
X147500000Y-97172835D01*
X147500000Y-97356731D01*
X147479998Y-97424852D01*
X147463095Y-97445826D01*
X147006465Y-97902456D01*
X146944153Y-97936482D01*
X146917370Y-97939361D01*
X146840806Y-97939361D01*
X146825996Y-97938488D01*
X146802136Y-97935664D01*
X146792783Y-97934557D01*
X146783519Y-97936249D01*
X146783518Y-97936249D01*
X146735793Y-97944965D01*
X146731889Y-97945615D01*
X146683904Y-97952829D01*
X146683903Y-97952829D01*
X146674593Y-97954229D01*
X146668163Y-97957317D01*
X146661147Y-97958598D01*
X146652790Y-97962939D01*
X146652785Y-97962941D01*
X146609726Y-97985309D01*
X146606249Y-97987047D01*
X146553967Y-98012153D01*
X146548727Y-98016997D01*
X146542401Y-98020283D01*
X146537410Y-98024545D01*
X146500631Y-98061324D01*
X146497065Y-98064753D01*
X146455705Y-98102986D01*
X146453860Y-98100991D01*
X146407550Y-98133338D01*
X146383870Y-98138820D01*
X146362540Y-98141628D01*
X146340098Y-98144583D01*
X146200952Y-98202219D01*
X146081465Y-98293905D01*
X145989779Y-98413392D01*
X145932143Y-98552538D01*
X145912484Y-98701860D01*
X145932143Y-98851182D01*
X145989779Y-98990328D01*
X146081465Y-99109815D01*
X146200952Y-99201501D01*
X146340098Y-99259137D01*
X146489420Y-99278796D01*
X146638742Y-99259137D01*
X146777888Y-99201501D01*
X146897375Y-99109815D01*
X146989061Y-98990328D01*
X147022586Y-98909391D01*
X147067134Y-98854110D01*
X147134497Y-98831689D01*
X147153808Y-98832483D01*
X147158666Y-98833058D01*
X147158668Y-98833058D01*
X147168021Y-98834165D01*
X147225026Y-98823754D01*
X147228919Y-98823106D01*
X147245127Y-98820669D01*
X147286211Y-98814493D01*
X147292642Y-98811405D01*
X147299656Y-98810124D01*
X147315917Y-98801677D01*
X147385588Y-98788025D01*
X147451581Y-98814207D01*
X147492942Y-98871912D01*
X147500000Y-98913491D01*
X147500000Y-99777365D01*
X147479998Y-99845486D01*
X147426342Y-99891979D01*
X147390448Y-99902287D01*
X147386446Y-99902814D01*
X147371338Y-99904803D01*
X147232192Y-99962439D01*
X147112705Y-100054125D01*
X147021019Y-100173612D01*
X146963383Y-100312758D01*
X146943724Y-100462080D01*
X146963383Y-100611402D01*
X147021019Y-100750548D01*
X147112705Y-100870035D01*
X147232192Y-100961721D01*
X147371338Y-101019357D01*
X147386446Y-101021346D01*
X147390448Y-101021873D01*
X147455375Y-101050596D01*
X147494466Y-101109862D01*
X147500000Y-101146795D01*
X147500000Y-101500000D01*
X148198945Y-101500000D01*
X148267066Y-101520002D01*
X148313559Y-101573658D01*
X148323867Y-101609553D01*
X148333583Y-101683347D01*
X148342603Y-101751862D01*
X148400239Y-101891008D01*
X148491925Y-102010495D01*
X148611412Y-102102181D01*
X148750558Y-102159817D01*
X148899880Y-102179476D01*
X149049202Y-102159817D01*
X149188348Y-102102181D01*
X149307835Y-102010495D01*
X149399521Y-101891008D01*
X149457157Y-101751862D01*
X149466177Y-101683347D01*
X149475893Y-101609553D01*
X149504616Y-101544626D01*
X149563881Y-101505535D01*
X149600815Y-101500000D01*
X149874000Y-101500000D01*
X149942121Y-101520002D01*
X149988614Y-101573658D01*
X150000000Y-101626000D01*
X150000000Y-120524000D01*
X149979998Y-120592121D01*
X149926342Y-120638614D01*
X149874000Y-120650000D01*
X120268000Y-120650000D01*
X120199879Y-120629998D01*
X120153386Y-120576342D01*
X120142000Y-120524000D01*
X120142000Y-118250000D01*
X124173064Y-118250000D01*
X124192723Y-118399322D01*
X124250359Y-118538468D01*
X124342045Y-118657955D01*
X124461532Y-118749641D01*
X124600678Y-118807277D01*
X124750000Y-118826936D01*
X124899322Y-118807277D01*
X125038468Y-118749641D01*
X125157955Y-118657955D01*
X125249641Y-118538468D01*
X125307277Y-118399322D01*
X125326936Y-118250000D01*
X125307277Y-118100678D01*
X125249641Y-117961532D01*
X125157955Y-117842045D01*
X125038468Y-117750359D01*
X124899322Y-117692723D01*
X124750000Y-117673064D01*
X124600678Y-117692723D01*
X124461532Y-117750359D01*
X124342045Y-117842045D01*
X124250359Y-117961532D01*
X124192723Y-118100678D01*
X124173064Y-118250000D01*
X120142000Y-118250000D01*
X120142000Y-116423440D01*
X125346104Y-116423440D01*
X125365763Y-116572762D01*
X125423399Y-116711908D01*
X125515085Y-116831395D01*
X125634572Y-116923081D01*
X125773718Y-116980717D01*
X125923040Y-117000376D01*
X126072362Y-116980717D01*
X126211508Y-116923081D01*
X126330995Y-116831395D01*
X126422681Y-116711908D01*
X126480317Y-116572762D01*
X126499976Y-116423440D01*
X126480317Y-116274118D01*
X126422681Y-116134972D01*
X126330995Y-116015485D01*
X126211508Y-115923799D01*
X126072362Y-115866163D01*
X125923040Y-115846504D01*
X125773718Y-115866163D01*
X125634572Y-115923799D01*
X125515085Y-116015485D01*
X125423399Y-116134972D01*
X125365763Y-116274118D01*
X125346104Y-116423440D01*
X120142000Y-116423440D01*
X120142000Y-107518200D01*
X120558845Y-107518200D01*
X120578504Y-107667522D01*
X120636140Y-107806668D01*
X120727826Y-107926155D01*
X120847313Y-108017841D01*
X120986459Y-108075477D01*
X121135781Y-108095136D01*
X121285103Y-108075477D01*
X121424249Y-108017841D01*
X121543736Y-107926155D01*
X121635422Y-107806668D01*
X121693058Y-107667522D01*
X121712717Y-107518200D01*
X121693058Y-107368878D01*
X121635422Y-107229732D01*
X121543736Y-107110245D01*
X121424249Y-107018559D01*
X121285103Y-106960923D01*
X121135781Y-106941264D01*
X120986459Y-106960923D01*
X120847313Y-107018559D01*
X120727826Y-107110245D01*
X120636140Y-107229732D01*
X120578504Y-107368878D01*
X120558845Y-107518200D01*
X120142000Y-107518200D01*
X120142000Y-105600500D01*
X122669386Y-105600500D01*
X122689045Y-105749822D01*
X122746681Y-105888968D01*
X122838367Y-106008455D01*
X122957854Y-106100141D01*
X123097000Y-106157777D01*
X123246322Y-106177436D01*
X123395644Y-106157777D01*
X123534790Y-106100141D01*
X123654277Y-106008455D01*
X123745963Y-105888968D01*
X123803599Y-105749822D01*
X123823258Y-105600500D01*
X123803599Y-105451178D01*
X123745963Y-105312032D01*
X123654277Y-105192545D01*
X123534790Y-105100859D01*
X123395644Y-105043223D01*
X123246322Y-105023564D01*
X123097000Y-105043223D01*
X122957854Y-105100859D01*
X122838367Y-105192545D01*
X122746681Y-105312032D01*
X122689045Y-105451178D01*
X122669386Y-105600500D01*
X120142000Y-105600500D01*
X120142000Y-95626000D01*
X120162002Y-95557879D01*
X120215658Y-95511386D01*
X120268000Y-95500000D01*
X121144700Y-95500000D01*
X121212821Y-95520002D01*
G37*
G04 #@! TD.AperFunction*
G04 #@! TA.AperFunction,Conductor*
G36*
X132943498Y-97958448D02*
G01*
X133000334Y-98000995D01*
X133024388Y-98060057D01*
X133042723Y-98199322D01*
X133100359Y-98338468D01*
X133192045Y-98457955D01*
X133311532Y-98549641D01*
X133450678Y-98607277D01*
X133600000Y-98626936D01*
X133608188Y-98625858D01*
X133608189Y-98625858D01*
X133610563Y-98625545D01*
X133612031Y-98625352D01*
X133615277Y-98625858D01*
X133616446Y-98625858D01*
X133616446Y-98626040D01*
X133682180Y-98636288D01*
X133717577Y-98661178D01*
X138768515Y-103712117D01*
X138802541Y-103774429D01*
X138805420Y-103801212D01*
X138805420Y-104757803D01*
X138785418Y-104825924D01*
X138731762Y-104872417D01*
X138661488Y-104882521D01*
X138631203Y-104874212D01*
X138586956Y-104855885D01*
X138586955Y-104855885D01*
X138579322Y-104852723D01*
X138430000Y-104833064D01*
X138280678Y-104852723D01*
X138141532Y-104910359D01*
X138022045Y-105002045D01*
X137930359Y-105121532D01*
X137872723Y-105260678D01*
X137853064Y-105410000D01*
X137872723Y-105559322D01*
X137930359Y-105698468D01*
X138022045Y-105817955D01*
X138141532Y-105909641D01*
X138280678Y-105967277D01*
X138430000Y-105986936D01*
X138579322Y-105967277D01*
X138599626Y-105958867D01*
X138631203Y-105945788D01*
X138701793Y-105938199D01*
X138765279Y-105969979D01*
X138801506Y-106031037D01*
X138805420Y-106062197D01*
X138805420Y-109355684D01*
X138785418Y-109423805D01*
X138731762Y-109470298D01*
X138661488Y-109480402D01*
X138597172Y-109451028D01*
X138594115Y-109447045D01*
X138474628Y-109355359D01*
X138335482Y-109297723D01*
X138186160Y-109278064D01*
X138036838Y-109297723D01*
X137897692Y-109355359D01*
X137778205Y-109447045D01*
X137686519Y-109566532D01*
X137628883Y-109705678D01*
X137609224Y-109855000D01*
X137628883Y-110004322D01*
X137686519Y-110143468D01*
X137778205Y-110262955D01*
X137897692Y-110354641D01*
X138036838Y-110412277D01*
X138186160Y-110431936D01*
X138335482Y-110412277D01*
X138474628Y-110354641D01*
X138594115Y-110262955D01*
X138594221Y-110263093D01*
X138652637Y-110231195D01*
X138723452Y-110236260D01*
X138780288Y-110278807D01*
X138805099Y-110345327D01*
X138805420Y-110354316D01*
X138805420Y-112238063D01*
X138785418Y-112306184D01*
X138731762Y-112352677D01*
X138661488Y-112362781D01*
X138602716Y-112338025D01*
X138561220Y-112306184D01*
X138488468Y-112250359D01*
X138349322Y-112192723D01*
X138200000Y-112173064D01*
X138050678Y-112192723D01*
X137911532Y-112250359D01*
X137792045Y-112342045D01*
X137700359Y-112461532D01*
X137642723Y-112600678D01*
X137623064Y-112750000D01*
X137624142Y-112758188D01*
X137624142Y-112766447D01*
X137621420Y-112766447D01*
X137612543Y-112823354D01*
X137587658Y-112858741D01*
X135726012Y-114720386D01*
X135663700Y-114754412D01*
X135636917Y-114757291D01*
X135425943Y-114757291D01*
X135357822Y-114737289D01*
X135311329Y-114683633D01*
X135302281Y-114621416D01*
X135300364Y-114621269D01*
X135301274Y-114609438D01*
X135301461Y-114596062D01*
X135301074Y-114588162D01*
X135283345Y-114430103D01*
X135280243Y-114416450D01*
X135229420Y-114270507D01*
X135223861Y-114265567D01*
X135214808Y-114269565D01*
X134763987Y-114720386D01*
X134701675Y-114754412D01*
X134674892Y-114757291D01*
X134402548Y-114757291D01*
X134334427Y-114737289D01*
X134313453Y-114720386D01*
X133865759Y-114272692D01*
X133851815Y-114265078D01*
X133831826Y-114266507D01*
X133807648Y-114277185D01*
X133364447Y-114720386D01*
X133302135Y-114754412D01*
X133275352Y-114757291D01*
X132987768Y-114757291D01*
X132919647Y-114737289D01*
X132898673Y-114720386D01*
X132458599Y-114280312D01*
X132444655Y-114272698D01*
X132422436Y-114274287D01*
X132392868Y-114287345D01*
X131959827Y-114720386D01*
X131897515Y-114754412D01*
X131870732Y-114757291D01*
X131562828Y-114757291D01*
X131494707Y-114737289D01*
X131473733Y-114720386D01*
X131055222Y-114301875D01*
X131041278Y-114294261D01*
X131039445Y-114294392D01*
X131032830Y-114298643D01*
X130611087Y-114720386D01*
X130548775Y-114754412D01*
X130521992Y-114757291D01*
X130234408Y-114757291D01*
X130166287Y-114737289D01*
X130145313Y-114720386D01*
X129711562Y-114286635D01*
X129697618Y-114279021D01*
X129695785Y-114279152D01*
X129689170Y-114283403D01*
X129252187Y-114720386D01*
X129189875Y-114754412D01*
X129163092Y-114757291D01*
X129012140Y-114757291D01*
X128944019Y-114737289D01*
X128923045Y-114720386D01*
X128129142Y-113926482D01*
X128729081Y-113926482D01*
X128729212Y-113928315D01*
X128733463Y-113934930D01*
X129019188Y-114220655D01*
X129033132Y-114228269D01*
X129034965Y-114228138D01*
X129041580Y-114223887D01*
X129306985Y-113958482D01*
X129314599Y-113944538D01*
X129314468Y-113942705D01*
X129310217Y-113936090D01*
X129305689Y-113931562D01*
X130067661Y-113931562D01*
X130067792Y-113933395D01*
X130072043Y-113940010D01*
X130365388Y-114233355D01*
X130379332Y-114240969D01*
X130381165Y-114240838D01*
X130387780Y-114236587D01*
X130648105Y-113976262D01*
X130651709Y-113969662D01*
X131434181Y-113969662D01*
X131434312Y-113971495D01*
X131438563Y-113978110D01*
X131703968Y-114243515D01*
X131717912Y-114251129D01*
X131719745Y-114250998D01*
X131726360Y-114246747D01*
X132012335Y-113960772D01*
X132850231Y-113960772D01*
X132850362Y-113962605D01*
X132854613Y-113969220D01*
X133118748Y-114233355D01*
X133132692Y-114240969D01*
X133134525Y-114240838D01*
X133141140Y-114236587D01*
X133405275Y-113972452D01*
X133412889Y-113958508D01*
X133412758Y-113956675D01*
X133408507Y-113950060D01*
X133377309Y-113918862D01*
X134223101Y-113918862D01*
X134223232Y-113920695D01*
X134227483Y-113927310D01*
X134525908Y-114225735D01*
X134539852Y-114233349D01*
X134541685Y-114233218D01*
X134548300Y-114228967D01*
X134828945Y-113948322D01*
X134836559Y-113934378D01*
X134836428Y-113932545D01*
X134832177Y-113925930D01*
X134533752Y-113627505D01*
X134519808Y-113619891D01*
X134517975Y-113620022D01*
X134511360Y-113624273D01*
X134230715Y-113904918D01*
X134223101Y-113918862D01*
X133377309Y-113918862D01*
X133144372Y-113685925D01*
X133130428Y-113678311D01*
X133128595Y-113678442D01*
X133121980Y-113682693D01*
X132857845Y-113946828D01*
X132850231Y-113960772D01*
X132012335Y-113960772D01*
X132014625Y-113958482D01*
X132022239Y-113944538D01*
X132022108Y-113942705D01*
X132017857Y-113936090D01*
X131752452Y-113670685D01*
X131738508Y-113663071D01*
X131736675Y-113663202D01*
X131730060Y-113667453D01*
X131441795Y-113955718D01*
X131434181Y-113969662D01*
X130651709Y-113969662D01*
X130655719Y-113962318D01*
X130655588Y-113960485D01*
X130651337Y-113953870D01*
X130357992Y-113660525D01*
X130344048Y-113652911D01*
X130342215Y-113653042D01*
X130335600Y-113657293D01*
X130075275Y-113917618D01*
X130067661Y-113931562D01*
X129305689Y-113931562D01*
X129024492Y-113650365D01*
X129010548Y-113642751D01*
X129008715Y-113642882D01*
X129002100Y-113647133D01*
X128736695Y-113912538D01*
X128729081Y-113926482D01*
X128129142Y-113926482D01*
X127483022Y-113280362D01*
X128249646Y-113280362D01*
X128264866Y-113435585D01*
X128267777Y-113449280D01*
X128317007Y-113597270D01*
X128319409Y-113602468D01*
X128327397Y-113609772D01*
X128336018Y-113606109D01*
X128645315Y-113296812D01*
X128651693Y-113285132D01*
X129370431Y-113285132D01*
X129370562Y-113286965D01*
X129374813Y-113293580D01*
X129670698Y-113589465D01*
X129684642Y-113597079D01*
X129686475Y-113596948D01*
X129693090Y-113592697D01*
X129978815Y-113306972D01*
X129985193Y-113295292D01*
X130703931Y-113295292D01*
X130704062Y-113297125D01*
X130708313Y-113303740D01*
X131017358Y-113612785D01*
X131048781Y-113629944D01*
X131053717Y-113630788D01*
X131063978Y-113626429D01*
X131373275Y-113317132D01*
X131379653Y-113305452D01*
X132098391Y-113305452D01*
X132098522Y-113307285D01*
X132102773Y-113313900D01*
X132411818Y-113622945D01*
X132425686Y-113630518D01*
X132446744Y-113645558D01*
X132455898Y-113641669D01*
X132765195Y-113332372D01*
X132771573Y-113320692D01*
X133490311Y-113320692D01*
X133490442Y-113322525D01*
X133494693Y-113329140D01*
X133784228Y-113618675D01*
X133798172Y-113626289D01*
X133800005Y-113626158D01*
X133806620Y-113621907D01*
X134154575Y-113273952D01*
X134160953Y-113262272D01*
X134879691Y-113262272D01*
X134879822Y-113264105D01*
X134884073Y-113270720D01*
X135193118Y-113579765D01*
X135205498Y-113586525D01*
X135209314Y-113583668D01*
X135257271Y-113457423D01*
X135260751Y-113443867D01*
X135282888Y-113286361D01*
X135283494Y-113278478D01*
X135283681Y-113265102D01*
X135283294Y-113257202D01*
X135265565Y-113099143D01*
X135262463Y-113085490D01*
X135211640Y-112939547D01*
X135206081Y-112934607D01*
X135197028Y-112938605D01*
X134887305Y-113248328D01*
X134879691Y-113262272D01*
X134160953Y-113262272D01*
X134162189Y-113260008D01*
X134162058Y-113258175D01*
X134157807Y-113251560D01*
X133868272Y-112962025D01*
X133854328Y-112954411D01*
X133852495Y-112954542D01*
X133845880Y-112958793D01*
X133497925Y-113306748D01*
X133490311Y-113320692D01*
X132771573Y-113320692D01*
X132772809Y-113318428D01*
X132772678Y-113316595D01*
X132768427Y-113309980D01*
X132458599Y-113000152D01*
X132448747Y-112994772D01*
X132425434Y-112978368D01*
X132424780Y-112977787D01*
X132415728Y-112981785D01*
X132106005Y-113291508D01*
X132098391Y-113305452D01*
X131379653Y-113305452D01*
X131380889Y-113303188D01*
X131380758Y-113301355D01*
X131376507Y-113294740D01*
X131066678Y-112984911D01*
X131035414Y-112967839D01*
X131034703Y-112967339D01*
X131031950Y-112966907D01*
X131021268Y-112971625D01*
X130711545Y-113281348D01*
X130703931Y-113295292D01*
X129985193Y-113295292D01*
X129986429Y-113293028D01*
X129986298Y-113291195D01*
X129982047Y-113284580D01*
X129686162Y-112988695D01*
X129672218Y-112981081D01*
X129670385Y-112981212D01*
X129663770Y-112985463D01*
X129378045Y-113271188D01*
X129370431Y-113285132D01*
X128651693Y-113285132D01*
X128652929Y-113282868D01*
X128652798Y-113281035D01*
X128648547Y-113274420D01*
X128338719Y-112964592D01*
X128326339Y-112957832D01*
X128322717Y-112960543D01*
X128272681Y-113098016D01*
X128269389Y-113111625D01*
X128249842Y-113266356D01*
X128249646Y-113280362D01*
X127483022Y-113280362D01*
X127436184Y-113233524D01*
X127402158Y-113171212D01*
X127399279Y-113144429D01*
X127399279Y-112608222D01*
X128693521Y-112608222D01*
X128693652Y-112610055D01*
X128697903Y-112616670D01*
X128998868Y-112917635D01*
X129012812Y-112925249D01*
X129014645Y-112925118D01*
X129021260Y-112920867D01*
X129336999Y-112605128D01*
X130017164Y-112605128D01*
X130022865Y-112618292D01*
X130332368Y-112927795D01*
X130346312Y-112935409D01*
X130348145Y-112935278D01*
X130354760Y-112931027D01*
X130659785Y-112626002D01*
X131418941Y-112626002D01*
X131419072Y-112627835D01*
X131423323Y-112634450D01*
X131726828Y-112937955D01*
X131740772Y-112945569D01*
X131742605Y-112945438D01*
X131749220Y-112941187D01*
X132062885Y-112627522D01*
X132070193Y-112614138D01*
X132794785Y-112614138D01*
X132794808Y-112614464D01*
X132801826Y-112626563D01*
X132809244Y-112643691D01*
X133118748Y-112953195D01*
X133132692Y-112960809D01*
X133134525Y-112960678D01*
X133141140Y-112956427D01*
X133451407Y-112646160D01*
X133458718Y-112632772D01*
X133447468Y-112613064D01*
X133443324Y-112603117D01*
X133436999Y-112596792D01*
X134214211Y-112596792D01*
X134214342Y-112598625D01*
X134218593Y-112605240D01*
X134508128Y-112894775D01*
X134522072Y-112902389D01*
X134523905Y-112902258D01*
X134530520Y-112898007D01*
X134820055Y-112608472D01*
X134827669Y-112594528D01*
X134827538Y-112592695D01*
X134823287Y-112586080D01*
X134533752Y-112296545D01*
X134519808Y-112288931D01*
X134517975Y-112289062D01*
X134511360Y-112293313D01*
X134221825Y-112582848D01*
X134214211Y-112596792D01*
X133436999Y-112596792D01*
X133134212Y-112294005D01*
X133120268Y-112286391D01*
X133118435Y-112286522D01*
X133111820Y-112290773D01*
X132802399Y-112600194D01*
X132794785Y-112614138D01*
X132070193Y-112614138D01*
X132070499Y-112613578D01*
X132070368Y-112611745D01*
X132066117Y-112605130D01*
X131762612Y-112301625D01*
X131748668Y-112294011D01*
X131746835Y-112294142D01*
X131740220Y-112298393D01*
X131426555Y-112612058D01*
X131418941Y-112626002D01*
X130659785Y-112626002D01*
X130665027Y-112620760D01*
X130673180Y-112605829D01*
X130673338Y-112602837D01*
X130667106Y-112587879D01*
X130357992Y-112278765D01*
X130344048Y-112271151D01*
X130342215Y-112271282D01*
X130335600Y-112275533D01*
X130026178Y-112584955D01*
X130017346Y-112601129D01*
X130017164Y-112605128D01*
X129336999Y-112605128D01*
X129344340Y-112597787D01*
X129345006Y-112598453D01*
X129363689Y-112578812D01*
X129363502Y-112578625D01*
X129370978Y-112571149D01*
X129373160Y-112568855D01*
X129380639Y-112555158D01*
X129380508Y-112553325D01*
X129376257Y-112546710D01*
X129075292Y-112245745D01*
X129061348Y-112238131D01*
X129059515Y-112238262D01*
X129052900Y-112242513D01*
X128730666Y-112564747D01*
X128730288Y-112564369D01*
X128701454Y-112594895D01*
X128700460Y-112595514D01*
X128693521Y-112608222D01*
X127399279Y-112608222D01*
X127399279Y-111875742D01*
X128300446Y-111875742D01*
X128315666Y-112030965D01*
X128318577Y-112044660D01*
X128367807Y-112192650D01*
X128370209Y-112197848D01*
X128378197Y-112205152D01*
X128386818Y-112201489D01*
X128696115Y-111892192D01*
X128702493Y-111880512D01*
X129421231Y-111880512D01*
X129421362Y-111882345D01*
X129425613Y-111888960D01*
X129707528Y-112170875D01*
X129721472Y-112178489D01*
X129723305Y-112178358D01*
X129729920Y-112174107D01*
X129978815Y-111925212D01*
X129985193Y-111913532D01*
X130703931Y-111913532D01*
X130704062Y-111915365D01*
X130708313Y-111921980D01*
X131017358Y-112231025D01*
X131042066Y-112244517D01*
X131065310Y-112261120D01*
X131074138Y-112257369D01*
X131383435Y-111948072D01*
X131389813Y-111936392D01*
X132108551Y-111936392D01*
X132108682Y-111938225D01*
X132112933Y-111944840D01*
X132418978Y-112250885D01*
X132432922Y-112258499D01*
X132434755Y-112258368D01*
X132441370Y-112254117D01*
X132755035Y-111940452D01*
X132761413Y-111928772D01*
X133480151Y-111928772D01*
X133480282Y-111930605D01*
X133484533Y-111937220D01*
X133793578Y-112246265D01*
X133809277Y-112254838D01*
X133830528Y-112255880D01*
X133835018Y-112256648D01*
X133845278Y-112252289D01*
X134154575Y-111942992D01*
X134160953Y-111931312D01*
X134879691Y-111931312D01*
X134879822Y-111933145D01*
X134884073Y-111939760D01*
X135193118Y-112248805D01*
X135205498Y-112255565D01*
X135209314Y-112252708D01*
X135257271Y-112126463D01*
X135260751Y-112112907D01*
X135282888Y-111955401D01*
X135283494Y-111947518D01*
X135283681Y-111934142D01*
X135283294Y-111926242D01*
X135265565Y-111768183D01*
X135262463Y-111754530D01*
X135211640Y-111608587D01*
X135206081Y-111603647D01*
X135197028Y-111607645D01*
X134887305Y-111917368D01*
X134879691Y-111931312D01*
X134160953Y-111931312D01*
X134162189Y-111929048D01*
X134162058Y-111927215D01*
X134157807Y-111920600D01*
X133847979Y-111610772D01*
X133832075Y-111602088D01*
X133814250Y-111601339D01*
X133808171Y-111600387D01*
X133797488Y-111605105D01*
X133487765Y-111914828D01*
X133480151Y-111928772D01*
X132761413Y-111928772D01*
X132762649Y-111926508D01*
X132762518Y-111924675D01*
X132758267Y-111918060D01*
X132452222Y-111612015D01*
X132438278Y-111604401D01*
X132436445Y-111604532D01*
X132429830Y-111608783D01*
X132116165Y-111922448D01*
X132108551Y-111936392D01*
X131389813Y-111936392D01*
X131391049Y-111934128D01*
X131390918Y-111932295D01*
X131386667Y-111925680D01*
X131076836Y-111615849D01*
X131056287Y-111604628D01*
X131032975Y-111588225D01*
X131030321Y-111585867D01*
X131021268Y-111589865D01*
X130711545Y-111899588D01*
X130703931Y-111913532D01*
X129985193Y-111913532D01*
X129986429Y-111911268D01*
X129986298Y-111909435D01*
X129982047Y-111902820D01*
X129700132Y-111620905D01*
X129686188Y-111613291D01*
X129684355Y-111613422D01*
X129677740Y-111617673D01*
X129428845Y-111866568D01*
X129421231Y-111880512D01*
X128702493Y-111880512D01*
X128703729Y-111878248D01*
X128703598Y-111876415D01*
X128699347Y-111869800D01*
X128389519Y-111559972D01*
X128377139Y-111553212D01*
X128373517Y-111555923D01*
X128323481Y-111693396D01*
X128320189Y-111707005D01*
X128300642Y-111861736D01*
X128300446Y-111875742D01*
X127399279Y-111875742D01*
X127399279Y-111193442D01*
X128734161Y-111193442D01*
X128734292Y-111195275D01*
X128738543Y-111201890D01*
X129049668Y-111513015D01*
X129063612Y-111520629D01*
X129065445Y-111520498D01*
X129072060Y-111516247D01*
X129365405Y-111222902D01*
X129373019Y-111208958D01*
X129372888Y-111207125D01*
X129368637Y-111200510D01*
X129344625Y-111176498D01*
X129998245Y-111176498D01*
X129999034Y-111187536D01*
X130001144Y-111193194D01*
X130003629Y-111192118D01*
X130022864Y-111236531D01*
X130332368Y-111546035D01*
X130346312Y-111553649D01*
X130348145Y-111553518D01*
X130354760Y-111549267D01*
X130662325Y-111241702D01*
X131413861Y-111241702D01*
X131413992Y-111243535D01*
X131418243Y-111250150D01*
X131736988Y-111568895D01*
X131750932Y-111576509D01*
X131752765Y-111576378D01*
X131759380Y-111572127D01*
X132045105Y-111286402D01*
X132052719Y-111272458D01*
X132052588Y-111270625D01*
X132048692Y-111264562D01*
X132815941Y-111264562D01*
X132816072Y-111266395D01*
X132820323Y-111273010D01*
X133108588Y-111561275D01*
X133122532Y-111568889D01*
X133124365Y-111568758D01*
X133130980Y-111564507D01*
X133429405Y-111266082D01*
X133431622Y-111262022D01*
X134210401Y-111262022D01*
X134210532Y-111263855D01*
X134214783Y-111270470D01*
X134508128Y-111563815D01*
X134522072Y-111571429D01*
X134523905Y-111571298D01*
X134530520Y-111567047D01*
X134823865Y-111273702D01*
X134831479Y-111259758D01*
X134831348Y-111257925D01*
X134827097Y-111251310D01*
X134533752Y-110957965D01*
X134519808Y-110950351D01*
X134517975Y-110950482D01*
X134511360Y-110954733D01*
X134218015Y-111248078D01*
X134210401Y-111262022D01*
X133431622Y-111262022D01*
X133437019Y-111252138D01*
X133436888Y-111250305D01*
X133432637Y-111243690D01*
X133144372Y-110955425D01*
X133130428Y-110947811D01*
X133128595Y-110947942D01*
X133121980Y-110952193D01*
X132823555Y-111250618D01*
X132815941Y-111264562D01*
X132048692Y-111264562D01*
X132048337Y-111264010D01*
X131729592Y-110945265D01*
X131715648Y-110937651D01*
X131713815Y-110937782D01*
X131707200Y-110942033D01*
X131421475Y-111227758D01*
X131413861Y-111241702D01*
X130662325Y-111241702D01*
X130665027Y-111239000D01*
X130672641Y-111225056D01*
X130671958Y-111215493D01*
X130669175Y-111208034D01*
X130665204Y-111209688D01*
X130646785Y-111165478D01*
X130337672Y-110856365D01*
X130323728Y-110848751D01*
X130321895Y-110848882D01*
X130315280Y-110853133D01*
X130005859Y-111162554D01*
X129998245Y-111176498D01*
X129344625Y-111176498D01*
X129057512Y-110889385D01*
X129043568Y-110881771D01*
X129041735Y-110881902D01*
X129035120Y-110886153D01*
X128741775Y-111179498D01*
X128734161Y-111193442D01*
X127399279Y-111193442D01*
X127399279Y-110519382D01*
X128282666Y-110519382D01*
X128297886Y-110674605D01*
X128300797Y-110688300D01*
X128350027Y-110836290D01*
X128352429Y-110841488D01*
X128360417Y-110848792D01*
X128369038Y-110845129D01*
X128678335Y-110535832D01*
X128684713Y-110524152D01*
X129403451Y-110524152D01*
X129403582Y-110525985D01*
X129407833Y-110532600D01*
X129655458Y-110780225D01*
X129669402Y-110787839D01*
X129671235Y-110787708D01*
X129677850Y-110783457D01*
X129958495Y-110502812D01*
X129964873Y-110491132D01*
X130683611Y-110491132D01*
X130683742Y-110492965D01*
X130687993Y-110499580D01*
X131052458Y-110864045D01*
X131066402Y-110871659D01*
X131068235Y-110871528D01*
X131074850Y-110867277D01*
X131350415Y-110591712D01*
X131356793Y-110580032D01*
X132075531Y-110580032D01*
X132075662Y-110581865D01*
X132079913Y-110588480D01*
X132388958Y-110897525D01*
X132412066Y-110910144D01*
X132412126Y-110909795D01*
X132445637Y-110915528D01*
X132455898Y-110911169D01*
X132765195Y-110601872D01*
X132771573Y-110590192D01*
X133490311Y-110590192D01*
X133490442Y-110592025D01*
X133494693Y-110598640D01*
X133803738Y-110907685D01*
X133821175Y-110917207D01*
X133833524Y-110917813D01*
X133835017Y-110918068D01*
X133845278Y-110913709D01*
X134154575Y-110604412D01*
X134160953Y-110592732D01*
X134879691Y-110592732D01*
X134879822Y-110594565D01*
X134884073Y-110601180D01*
X135193118Y-110910225D01*
X135205498Y-110916985D01*
X135209314Y-110914128D01*
X135257271Y-110787883D01*
X135260751Y-110774327D01*
X135282888Y-110616821D01*
X135283494Y-110608938D01*
X135283681Y-110595562D01*
X135283294Y-110587662D01*
X135265565Y-110429603D01*
X135262463Y-110415950D01*
X135211640Y-110270007D01*
X135206081Y-110265067D01*
X135197028Y-110269065D01*
X134887305Y-110578788D01*
X134879691Y-110592732D01*
X134160953Y-110592732D01*
X134162189Y-110590468D01*
X134162058Y-110588635D01*
X134157807Y-110582020D01*
X133847979Y-110272192D01*
X133830505Y-110262650D01*
X133821221Y-110262260D01*
X133818331Y-110261807D01*
X133807648Y-110266525D01*
X133497925Y-110576248D01*
X133490311Y-110590192D01*
X132771573Y-110590192D01*
X132772809Y-110587928D01*
X132772678Y-110586095D01*
X132768427Y-110579480D01*
X132458599Y-110269652D01*
X132434506Y-110256495D01*
X132403550Y-110251647D01*
X132392868Y-110256365D01*
X132083145Y-110566088D01*
X132075531Y-110580032D01*
X131356793Y-110580032D01*
X131358029Y-110577768D01*
X131357898Y-110575935D01*
X131353647Y-110569320D01*
X130989182Y-110204855D01*
X130975238Y-110197241D01*
X130973405Y-110197372D01*
X130966790Y-110201623D01*
X130691225Y-110477188D01*
X130683611Y-110491132D01*
X129964873Y-110491132D01*
X129966109Y-110488868D01*
X129965978Y-110487035D01*
X129961727Y-110480420D01*
X129714102Y-110232795D01*
X129700158Y-110225181D01*
X129698325Y-110225312D01*
X129691710Y-110229563D01*
X129411065Y-110510208D01*
X129403451Y-110524152D01*
X128684713Y-110524152D01*
X128685949Y-110521888D01*
X128685818Y-110520055D01*
X128681567Y-110513440D01*
X128371739Y-110203612D01*
X128359359Y-110196852D01*
X128355737Y-110199563D01*
X128305701Y-110337036D01*
X128302409Y-110350645D01*
X128282862Y-110505376D01*
X128282666Y-110519382D01*
X127399279Y-110519382D01*
X127399279Y-109792198D01*
X128713005Y-109792198D01*
X128715361Y-109825148D01*
X128715986Y-109826822D01*
X128715757Y-109831850D01*
X128722384Y-109847151D01*
X129031888Y-110156655D01*
X129045832Y-110164269D01*
X129047665Y-110164138D01*
X129054280Y-110159887D01*
X129364547Y-109849620D01*
X129372161Y-109835676D01*
X129371535Y-109826922D01*
X130019401Y-109826922D01*
X130019532Y-109828755D01*
X130023783Y-109835370D01*
X130312048Y-110123635D01*
X130325992Y-110131249D01*
X130327825Y-110131118D01*
X130334440Y-110126867D01*
X130657973Y-109803334D01*
X131347839Y-109803334D01*
X131362220Y-109822545D01*
X131378435Y-109866022D01*
X131394464Y-109903031D01*
X131703968Y-110212535D01*
X131717912Y-110220149D01*
X131719745Y-110220018D01*
X131726360Y-110215767D01*
X132036627Y-109905500D01*
X132043387Y-109893120D01*
X132028049Y-109872631D01*
X132015001Y-109837648D01*
X132013944Y-109838088D01*
X131997876Y-109799522D01*
X132784786Y-109799522D01*
X132807966Y-109861671D01*
X132806628Y-109891041D01*
X132804712Y-109902727D01*
X132809244Y-109913191D01*
X133118748Y-110222695D01*
X133132692Y-110230309D01*
X133134525Y-110230178D01*
X133141140Y-110225927D01*
X133451407Y-109915660D01*
X133457083Y-109905266D01*
X134194092Y-109905266D01*
X134198624Y-109915731D01*
X134508128Y-110225235D01*
X134522072Y-110232849D01*
X134523905Y-110232718D01*
X134530520Y-110228467D01*
X134840787Y-109918200D01*
X134848401Y-109904256D01*
X134846644Y-109879684D01*
X134840364Y-109862846D01*
X134848036Y-109827580D01*
X134846167Y-109827247D01*
X134852135Y-109793775D01*
X134847945Y-109783718D01*
X134538832Y-109474605D01*
X134524888Y-109466991D01*
X134523055Y-109467122D01*
X134516440Y-109471373D01*
X134207019Y-109780794D01*
X134199405Y-109794738D01*
X134201212Y-109820006D01*
X134207023Y-109835586D01*
X134199179Y-109871647D01*
X134199592Y-109871715D01*
X134194092Y-109905266D01*
X133457083Y-109905266D01*
X133458445Y-109902772D01*
X133434286Y-109838004D01*
X133435921Y-109806897D01*
X133437355Y-109798855D01*
X133433165Y-109788798D01*
X133124052Y-109479685D01*
X133110108Y-109472071D01*
X133108275Y-109472202D01*
X133101660Y-109476453D01*
X132792239Y-109785874D01*
X132784786Y-109799522D01*
X131997876Y-109799522D01*
X131995525Y-109793878D01*
X131686412Y-109484765D01*
X131672468Y-109477151D01*
X131670635Y-109477282D01*
X131664020Y-109481533D01*
X131354599Y-109790954D01*
X131347839Y-109803334D01*
X130657973Y-109803334D01*
X130665885Y-109795422D01*
X130673499Y-109781478D01*
X130673368Y-109779645D01*
X130669117Y-109773030D01*
X130380852Y-109484765D01*
X130366908Y-109477151D01*
X130365075Y-109477282D01*
X130358460Y-109481533D01*
X130027015Y-109812978D01*
X130019401Y-109826922D01*
X129371535Y-109826922D01*
X129369926Y-109804427D01*
X129368148Y-109799661D01*
X129368271Y-109797322D01*
X129361545Y-109781178D01*
X129052432Y-109472065D01*
X129038488Y-109464451D01*
X129036655Y-109464582D01*
X129030040Y-109468833D01*
X128720619Y-109778254D01*
X128713005Y-109792198D01*
X127399279Y-109792198D01*
X127399279Y-109102062D01*
X128277586Y-109102062D01*
X128292806Y-109257285D01*
X128295717Y-109270980D01*
X128344947Y-109418970D01*
X128347349Y-109424168D01*
X128355337Y-109431472D01*
X128363958Y-109427809D01*
X128673255Y-109118512D01*
X128679633Y-109106832D01*
X129398371Y-109106832D01*
X129398502Y-109108665D01*
X129402753Y-109115280D01*
X129697368Y-109409895D01*
X129711312Y-109417509D01*
X129713145Y-109417378D01*
X129719760Y-109413127D01*
X130001675Y-109131212D01*
X130008053Y-109119532D01*
X130726791Y-109119532D01*
X130726922Y-109121365D01*
X130731173Y-109127980D01*
X131008008Y-109404815D01*
X131021952Y-109412429D01*
X131023785Y-109412298D01*
X131030400Y-109408047D01*
X131307235Y-109131212D01*
X131313613Y-109119532D01*
X132032351Y-109119532D01*
X132032482Y-109121365D01*
X132036733Y-109127980D01*
X132345778Y-109437025D01*
X132359722Y-109444639D01*
X132387998Y-109442617D01*
X132398147Y-109438831D01*
X132424526Y-109440124D01*
X132435578Y-109435429D01*
X132744875Y-109126132D01*
X132751253Y-109114452D01*
X133469991Y-109114452D01*
X133470122Y-109116285D01*
X133474373Y-109122900D01*
X133783418Y-109431945D01*
X133797362Y-109439559D01*
X133830904Y-109437160D01*
X133831502Y-109436937D01*
X133834506Y-109437084D01*
X133850358Y-109430349D01*
X134159655Y-109121052D01*
X134166033Y-109109372D01*
X134884771Y-109109372D01*
X134884902Y-109111205D01*
X134889153Y-109117820D01*
X135198198Y-109426865D01*
X135210578Y-109433625D01*
X135214394Y-109430768D01*
X135262351Y-109304523D01*
X135265831Y-109290967D01*
X135287968Y-109133461D01*
X135288574Y-109125578D01*
X135288761Y-109112202D01*
X135288374Y-109104302D01*
X135270645Y-108946243D01*
X135267543Y-108932590D01*
X135216720Y-108786647D01*
X135211161Y-108781707D01*
X135202108Y-108785705D01*
X134892385Y-109095428D01*
X134884771Y-109109372D01*
X134166033Y-109109372D01*
X134167269Y-109107108D01*
X134167138Y-109105275D01*
X134162887Y-109098660D01*
X133853059Y-108788832D01*
X133839115Y-108781218D01*
X133805710Y-108783607D01*
X133805001Y-108783872D01*
X133803155Y-108783795D01*
X133787328Y-108790785D01*
X133477605Y-109100508D01*
X133469991Y-109114452D01*
X132751253Y-109114452D01*
X132752489Y-109112188D01*
X132752358Y-109110355D01*
X132748107Y-109103740D01*
X132438279Y-108793912D01*
X132424335Y-108786298D01*
X132395740Y-108788343D01*
X132386148Y-108791920D01*
X132361011Y-108790864D01*
X132349688Y-108795865D01*
X132039965Y-109105588D01*
X132032351Y-109119532D01*
X131313613Y-109119532D01*
X131314849Y-109117268D01*
X131314718Y-109115435D01*
X131310467Y-109108820D01*
X131033632Y-108831985D01*
X131019688Y-108824371D01*
X131017855Y-108824502D01*
X131011240Y-108828753D01*
X130734405Y-109105588D01*
X130726791Y-109119532D01*
X130008053Y-109119532D01*
X130009289Y-109117268D01*
X130009158Y-109115435D01*
X130004907Y-109108820D01*
X129710292Y-108814205D01*
X129696348Y-108806591D01*
X129694515Y-108806722D01*
X129687900Y-108810973D01*
X129405985Y-109092888D01*
X129398371Y-109106832D01*
X128679633Y-109106832D01*
X128680869Y-109104568D01*
X128680738Y-109102735D01*
X128676487Y-109096120D01*
X128366659Y-108786292D01*
X128354279Y-108779532D01*
X128350657Y-108782243D01*
X128300621Y-108919716D01*
X128297329Y-108933325D01*
X128277782Y-109088056D01*
X128277586Y-109102062D01*
X127399279Y-109102062D01*
X127399279Y-108421002D01*
X128713480Y-108421002D01*
X128717304Y-108429831D01*
X129026808Y-108739335D01*
X129040752Y-108746949D01*
X129042585Y-108746818D01*
X129049200Y-108742567D01*
X129358065Y-108433702D01*
X130041900Y-108433702D01*
X130045724Y-108442531D01*
X130355228Y-108752035D01*
X130369172Y-108759649D01*
X130371005Y-108759518D01*
X130377620Y-108755267D01*
X130687887Y-108445000D01*
X130694056Y-108433702D01*
X131347460Y-108433702D01*
X131351284Y-108442531D01*
X131660788Y-108752035D01*
X131674732Y-108759649D01*
X131676565Y-108759518D01*
X131683180Y-108755267D01*
X131993447Y-108445000D01*
X132000207Y-108432620D01*
X131997622Y-108429166D01*
X131997322Y-108429006D01*
X131996244Y-108428622D01*
X132785100Y-108428622D01*
X132788924Y-108437451D01*
X133098428Y-108746955D01*
X133112372Y-108754569D01*
X133114205Y-108754438D01*
X133120820Y-108750187D01*
X133431087Y-108439920D01*
X133437847Y-108427540D01*
X133435262Y-108424086D01*
X133434962Y-108423926D01*
X133433884Y-108423542D01*
X134199880Y-108423542D01*
X134203704Y-108432371D01*
X134513208Y-108741875D01*
X134527152Y-108749489D01*
X134528985Y-108749358D01*
X134535600Y-108745107D01*
X134845867Y-108434840D01*
X134852627Y-108422460D01*
X134850042Y-108419006D01*
X134849742Y-108418846D01*
X134706840Y-108367960D01*
X134693215Y-108364764D01*
X134538338Y-108346297D01*
X134524341Y-108346199D01*
X134369227Y-108362502D01*
X134355553Y-108365508D01*
X134207904Y-108415772D01*
X134206133Y-108416606D01*
X134199880Y-108423542D01*
X133433884Y-108423542D01*
X133292060Y-108373040D01*
X133278435Y-108369844D01*
X133123558Y-108351377D01*
X133109561Y-108351279D01*
X132954447Y-108367582D01*
X132940773Y-108370588D01*
X132793124Y-108420852D01*
X132791353Y-108421686D01*
X132785100Y-108428622D01*
X131996244Y-108428622D01*
X131854420Y-108378120D01*
X131840795Y-108374924D01*
X131685918Y-108356457D01*
X131671921Y-108356359D01*
X131516807Y-108372662D01*
X131503133Y-108375668D01*
X131355484Y-108425932D01*
X131353713Y-108426766D01*
X131347460Y-108433702D01*
X130694056Y-108433702D01*
X130694647Y-108432620D01*
X130692062Y-108429166D01*
X130691762Y-108429006D01*
X130548860Y-108378120D01*
X130535235Y-108374924D01*
X130380358Y-108356457D01*
X130366361Y-108356359D01*
X130211247Y-108372662D01*
X130197573Y-108375668D01*
X130049924Y-108425932D01*
X130048153Y-108426766D01*
X130041900Y-108433702D01*
X129358065Y-108433702D01*
X129359467Y-108432300D01*
X129366227Y-108419920D01*
X129363642Y-108416466D01*
X129363342Y-108416306D01*
X129220440Y-108365420D01*
X129206815Y-108362224D01*
X129051938Y-108343757D01*
X129037941Y-108343659D01*
X128882827Y-108359962D01*
X128869153Y-108362968D01*
X128721504Y-108413232D01*
X128719733Y-108414066D01*
X128713480Y-108421002D01*
X127399279Y-108421002D01*
X127399279Y-108301893D01*
X127419281Y-108233772D01*
X127472937Y-108187279D01*
X127541725Y-108176971D01*
X127614680Y-108186576D01*
X127764002Y-108166917D01*
X127903148Y-108109281D01*
X128022635Y-108017595D01*
X128114321Y-107898108D01*
X128171957Y-107758962D01*
X128191616Y-107609640D01*
X128171957Y-107460318D01*
X128114321Y-107321172D01*
X128022635Y-107201685D01*
X128016085Y-107196659D01*
X128010244Y-107190818D01*
X128012167Y-107188895D01*
X127978204Y-107142372D01*
X127970780Y-107099759D01*
X127970780Y-107054583D01*
X127990782Y-106986462D01*
X128044438Y-106939969D01*
X128114712Y-106929865D01*
X128117959Y-106930531D01*
X128120678Y-106931657D01*
X128270000Y-106951316D01*
X128419322Y-106931657D01*
X128558468Y-106874021D01*
X128677955Y-106782335D01*
X128769641Y-106662848D01*
X128827277Y-106523702D01*
X128846936Y-106374380D01*
X133737444Y-106374380D01*
X133757103Y-106523702D01*
X133814739Y-106662848D01*
X133906425Y-106782335D01*
X134025912Y-106874021D01*
X134165058Y-106931657D01*
X134314380Y-106951316D01*
X134463702Y-106931657D01*
X134602848Y-106874021D01*
X134722335Y-106782335D01*
X134814021Y-106662848D01*
X134871657Y-106523702D01*
X134891316Y-106374380D01*
X134871657Y-106225058D01*
X134814021Y-106085912D01*
X134722335Y-105966425D01*
X134602848Y-105874739D01*
X134463702Y-105817103D01*
X134314380Y-105797444D01*
X134165058Y-105817103D01*
X134025912Y-105874739D01*
X133906425Y-105966425D01*
X133814739Y-106085912D01*
X133757103Y-106225058D01*
X133737444Y-106374380D01*
X128846936Y-106374380D01*
X128827277Y-106225058D01*
X128769641Y-106085912D01*
X128677955Y-105966425D01*
X128558468Y-105874739D01*
X128419322Y-105817103D01*
X128270000Y-105797444D01*
X128120678Y-105817103D01*
X128120490Y-105815674D01*
X128058407Y-105814192D01*
X127999614Y-105774394D01*
X127971670Y-105709128D01*
X127970780Y-105694177D01*
X127970780Y-104800000D01*
X136573064Y-104800000D01*
X136592723Y-104949322D01*
X136650359Y-105088468D01*
X136742045Y-105207955D01*
X136861532Y-105299641D01*
X137000678Y-105357277D01*
X137150000Y-105376936D01*
X137299322Y-105357277D01*
X137438468Y-105299641D01*
X137557955Y-105207955D01*
X137649641Y-105088468D01*
X137707277Y-104949322D01*
X137726936Y-104800000D01*
X137707277Y-104650678D01*
X137649641Y-104511532D01*
X137637515Y-104495729D01*
X137611915Y-104429508D01*
X137626180Y-104359960D01*
X137675782Y-104309164D01*
X137703046Y-104298061D01*
X137709371Y-104297228D01*
X137730117Y-104288635D01*
X137755412Y-104278157D01*
X137848517Y-104239592D01*
X137968004Y-104147906D01*
X138059690Y-104028419D01*
X138117326Y-103889273D01*
X138136985Y-103739951D01*
X138117326Y-103590629D01*
X138059690Y-103451483D01*
X137968004Y-103331996D01*
X137848517Y-103240310D01*
X137709371Y-103182674D01*
X137560049Y-103163015D01*
X137410727Y-103182674D01*
X137271581Y-103240310D01*
X137152094Y-103331996D01*
X137060408Y-103451483D01*
X137002772Y-103590629D01*
X136983113Y-103739951D01*
X137002772Y-103889273D01*
X137060408Y-104028419D01*
X137065435Y-104034970D01*
X137065436Y-104034972D01*
X137072534Y-104044222D01*
X137098134Y-104110443D01*
X137083869Y-104179991D01*
X137034267Y-104230787D01*
X137007003Y-104241890D01*
X137000678Y-104242723D01*
X136861532Y-104300359D01*
X136742045Y-104392045D01*
X136650359Y-104511532D01*
X136592723Y-104650678D01*
X136573064Y-104800000D01*
X127970780Y-104800000D01*
X127970780Y-102879189D01*
X127990782Y-102811068D01*
X128007685Y-102790094D01*
X132810371Y-97987409D01*
X132872683Y-97953383D01*
X132943498Y-97958448D01*
G37*
G04 #@! TD.AperFunction*
G04 #@! TA.AperFunction,Conductor*
G36*
X134054508Y-95520002D02*
G01*
X134101001Y-95573658D01*
X134111105Y-95643932D01*
X134081611Y-95708512D01*
X134075482Y-95715095D01*
X130033688Y-99756888D01*
X129971376Y-99790914D01*
X129900560Y-99785849D01*
X129843725Y-99743302D01*
X129818914Y-99676782D01*
X129828185Y-99619574D01*
X129835035Y-99603036D01*
X129835036Y-99603033D01*
X129838197Y-99595402D01*
X129857856Y-99446080D01*
X129838197Y-99296758D01*
X129780561Y-99157612D01*
X129688875Y-99038125D01*
X129569388Y-98946439D01*
X129430242Y-98888803D01*
X129280920Y-98869144D01*
X129131598Y-98888803D01*
X128992452Y-98946439D01*
X128872965Y-99038125D01*
X128781279Y-99157612D01*
X128723643Y-99296758D01*
X128703984Y-99446080D01*
X128723643Y-99595402D01*
X128781279Y-99734548D01*
X128872965Y-99854035D01*
X128992452Y-99945721D01*
X129131598Y-100003357D01*
X129280920Y-100023016D01*
X129430242Y-100003357D01*
X129451362Y-99994609D01*
X129454414Y-99993345D01*
X129525004Y-99985755D01*
X129588491Y-100017534D01*
X129624719Y-100078591D01*
X129622185Y-100149543D01*
X129591728Y-100198848D01*
X127399245Y-102391331D01*
X127383555Y-102404003D01*
X127380454Y-102406825D01*
X127371706Y-102412473D01*
X127365259Y-102420651D01*
X127352477Y-102436865D01*
X127348896Y-102440895D01*
X127348994Y-102440978D01*
X127345641Y-102444935D01*
X127341960Y-102448616D01*
X127338936Y-102452848D01*
X127338934Y-102452850D01*
X127331531Y-102463209D01*
X127327968Y-102467954D01*
X127304760Y-102497393D01*
X127304759Y-102497395D01*
X127298312Y-102505573D01*
X127295466Y-102513678D01*
X127290470Y-102520669D01*
X127279522Y-102557277D01*
X127276746Y-102566560D01*
X127274912Y-102572205D01*
X127271600Y-102581637D01*
X127259032Y-102617427D01*
X127258580Y-102622646D01*
X127258580Y-102625357D01*
X127258482Y-102627634D01*
X127258347Y-102628083D01*
X127258293Y-102628081D01*
X127258278Y-102628314D01*
X127256503Y-102634250D01*
X127257307Y-102654719D01*
X127258483Y-102684648D01*
X127258580Y-102689594D01*
X127258580Y-106173967D01*
X127238578Y-106242088D01*
X127184922Y-106288581D01*
X127114648Y-106298685D01*
X127050068Y-106269191D01*
X127043485Y-106263062D01*
X125140384Y-104359960D01*
X123226400Y-102445976D01*
X123192374Y-102383664D01*
X123197439Y-102312848D01*
X123239986Y-102256013D01*
X123267277Y-102240472D01*
X123269093Y-102239720D01*
X123300668Y-102226641D01*
X123420155Y-102134955D01*
X123511841Y-102015468D01*
X123569477Y-101876322D01*
X123589136Y-101727000D01*
X123569477Y-101577678D01*
X123511841Y-101438532D01*
X123420155Y-101319045D01*
X123300668Y-101227359D01*
X123161522Y-101169723D01*
X123012200Y-101150064D01*
X122862878Y-101169723D01*
X122723732Y-101227359D01*
X122604245Y-101319045D01*
X122512559Y-101438532D01*
X122454923Y-101577678D01*
X122435264Y-101727000D01*
X122439208Y-101756953D01*
X122444869Y-101799954D01*
X122433930Y-101870103D01*
X122386802Y-101923202D01*
X122319947Y-101942401D01*
X122241953Y-101942401D01*
X122173832Y-101922399D01*
X122152857Y-101905496D01*
X122019804Y-101772442D01*
X121985779Y-101710130D01*
X121982900Y-101683347D01*
X121982900Y-98541145D01*
X124272735Y-98541145D01*
X124277424Y-98547409D01*
X124341808Y-98582367D01*
X124355828Y-98587918D01*
X124504546Y-98626934D01*
X124519495Y-98628981D01*
X124673218Y-98631396D01*
X124688223Y-98629819D01*
X124838095Y-98595494D01*
X124852280Y-98590387D01*
X124932231Y-98550175D01*
X124941893Y-98541145D01*
X125542735Y-98541145D01*
X125547424Y-98547409D01*
X125611808Y-98582367D01*
X125625828Y-98587918D01*
X125774546Y-98626934D01*
X125789495Y-98628981D01*
X125943218Y-98631396D01*
X125958223Y-98629819D01*
X126108095Y-98595494D01*
X126122280Y-98590387D01*
X126202231Y-98550175D01*
X126212534Y-98540546D01*
X126210322Y-98533942D01*
X125890128Y-98213749D01*
X125876190Y-98206138D01*
X125874354Y-98206270D01*
X125867742Y-98210519D01*
X125549494Y-98528766D01*
X125542735Y-98541145D01*
X124941893Y-98541145D01*
X124942534Y-98540546D01*
X124940322Y-98533942D01*
X124620128Y-98213749D01*
X124606190Y-98206138D01*
X124604354Y-98206270D01*
X124597742Y-98210519D01*
X124279494Y-98528766D01*
X124272735Y-98541145D01*
X121982900Y-98541145D01*
X121982900Y-97932427D01*
X123905066Y-97932427D01*
X123921937Y-98085251D01*
X123925380Y-98099932D01*
X123978218Y-98244317D01*
X123985068Y-98257761D01*
X123986230Y-98259491D01*
X123996214Y-98267790D01*
X124010304Y-98260556D01*
X124325811Y-97945048D01*
X124326639Y-97943532D01*
X124891378Y-97943532D01*
X124891509Y-97945365D01*
X124895760Y-97951980D01*
X125207017Y-98263237D01*
X125220961Y-98270851D01*
X125244980Y-98269133D01*
X125262720Y-98269584D01*
X125280304Y-98260556D01*
X125595811Y-97945048D01*
X125602188Y-97933370D01*
X126151218Y-97933370D01*
X126151350Y-97935206D01*
X126155599Y-97941818D01*
X126477018Y-98263238D01*
X126489026Y-98269795D01*
X126496020Y-98264451D01*
X126496307Y-98263928D01*
X126553654Y-98121276D01*
X126557560Y-98106697D01*
X126579712Y-97951048D01*
X126580336Y-97942841D01*
X126580404Y-97936360D01*
X126579952Y-97928147D01*
X126561063Y-97772061D01*
X126557467Y-97757418D01*
X126503118Y-97613587D01*
X126497818Y-97603450D01*
X126488768Y-97596085D01*
X126475030Y-97603230D01*
X126158829Y-97919432D01*
X126151218Y-97933370D01*
X125602188Y-97933370D01*
X125603422Y-97931110D01*
X125603290Y-97929274D01*
X125599041Y-97922662D01*
X125265291Y-97588911D01*
X125251348Y-97581298D01*
X125249514Y-97581429D01*
X125242900Y-97585680D01*
X124898992Y-97929588D01*
X124891378Y-97943532D01*
X124326639Y-97943532D01*
X124333422Y-97931110D01*
X124333290Y-97929274D01*
X124329041Y-97922662D01*
X124008183Y-97601803D01*
X123996376Y-97595356D01*
X123987481Y-97602225D01*
X123984895Y-97607049D01*
X123929043Y-97750300D01*
X123925291Y-97764913D01*
X123905223Y-97917346D01*
X123905066Y-97932427D01*
X121982900Y-97932427D01*
X121982900Y-97319697D01*
X124270811Y-97319697D01*
X124274702Y-97330922D01*
X124594512Y-97650731D01*
X124608450Y-97658342D01*
X124610286Y-97658210D01*
X124616898Y-97653961D01*
X124960809Y-97310051D01*
X124968422Y-97296108D01*
X124968291Y-97294274D01*
X124964394Y-97288210D01*
X125546698Y-97288210D01*
X125546830Y-97290046D01*
X125551079Y-97296658D01*
X125884829Y-97630409D01*
X125898772Y-97638022D01*
X125900606Y-97637891D01*
X125907219Y-97633640D01*
X126055659Y-97485200D01*
X127947064Y-97485200D01*
X127966723Y-97634522D01*
X128024359Y-97773668D01*
X128116045Y-97893155D01*
X128235532Y-97984841D01*
X128374678Y-98042477D01*
X128524000Y-98062136D01*
X128673322Y-98042477D01*
X128812468Y-97984841D01*
X128931955Y-97893155D01*
X129023641Y-97773668D01*
X129081277Y-97634522D01*
X129100936Y-97485200D01*
X129081277Y-97335878D01*
X129023641Y-97196732D01*
X128931955Y-97077245D01*
X128812468Y-96985559D01*
X128673322Y-96927923D01*
X128524000Y-96908264D01*
X128374678Y-96927923D01*
X128235532Y-96985559D01*
X128116045Y-97077245D01*
X128024359Y-97196732D01*
X127966723Y-97335878D01*
X127947064Y-97485200D01*
X126055659Y-97485200D01*
X126205244Y-97335615D01*
X126212855Y-97321678D01*
X126211599Y-97304123D01*
X126214146Y-97275359D01*
X126210322Y-97263943D01*
X125900291Y-96953911D01*
X125886348Y-96946298D01*
X125884514Y-96946429D01*
X125877901Y-96950680D01*
X125554309Y-97274272D01*
X125546698Y-97288210D01*
X124964394Y-97288210D01*
X124964040Y-97287660D01*
X124620128Y-96943749D01*
X124606190Y-96936138D01*
X124604354Y-96936270D01*
X124597742Y-96940519D01*
X124279495Y-97258766D01*
X124271880Y-97272710D01*
X124273194Y-97291076D01*
X124270811Y-97319697D01*
X121982900Y-97319697D01*
X121982900Y-96662427D01*
X123905066Y-96662427D01*
X123921937Y-96815251D01*
X123925380Y-96829932D01*
X123978218Y-96974317D01*
X123985068Y-96987761D01*
X123986230Y-96989491D01*
X123996214Y-96997790D01*
X124010304Y-96990556D01*
X124325811Y-96675048D01*
X124333422Y-96661110D01*
X124333290Y-96659274D01*
X124329041Y-96652662D01*
X124319431Y-96643052D01*
X124901538Y-96643052D01*
X124901669Y-96644885D01*
X124905920Y-96651500D01*
X125249828Y-96995408D01*
X125263772Y-97003022D01*
X125265605Y-97002891D01*
X125272219Y-96998640D01*
X125595811Y-96675048D01*
X125602188Y-96663370D01*
X126151218Y-96663370D01*
X126151350Y-96665206D01*
X126155599Y-96671818D01*
X126477018Y-96993238D01*
X126489026Y-96999795D01*
X126496020Y-96994451D01*
X126496307Y-96993928D01*
X126553654Y-96851276D01*
X126557560Y-96836697D01*
X126579712Y-96681048D01*
X126580336Y-96672841D01*
X126580404Y-96666360D01*
X126579952Y-96658147D01*
X126561063Y-96502061D01*
X126557467Y-96487418D01*
X126533307Y-96423480D01*
X131442104Y-96423480D01*
X131461763Y-96572802D01*
X131519399Y-96711948D01*
X131611085Y-96831435D01*
X131730572Y-96923121D01*
X131869718Y-96980757D01*
X132019040Y-97000416D01*
X132168362Y-96980757D01*
X132307508Y-96923121D01*
X132426995Y-96831435D01*
X132518681Y-96711948D01*
X132576317Y-96572802D01*
X132595976Y-96423480D01*
X132576317Y-96274158D01*
X132518681Y-96135012D01*
X132426995Y-96015525D01*
X132307508Y-95923839D01*
X132168362Y-95866203D01*
X132019040Y-95846544D01*
X131869718Y-95866203D01*
X131730572Y-95923839D01*
X131611085Y-96015525D01*
X131519399Y-96135012D01*
X131461763Y-96274158D01*
X131442104Y-96423480D01*
X126533307Y-96423480D01*
X126503118Y-96343587D01*
X126497818Y-96333450D01*
X126488768Y-96326085D01*
X126475030Y-96333230D01*
X126158829Y-96649432D01*
X126151218Y-96663370D01*
X125602188Y-96663370D01*
X125603422Y-96661110D01*
X125603290Y-96659274D01*
X125599041Y-96652662D01*
X125278183Y-96331803D01*
X125264240Y-96324190D01*
X125245579Y-96325524D01*
X125222525Y-96325057D01*
X125221063Y-96324893D01*
X125205028Y-96333232D01*
X124909152Y-96629108D01*
X124901538Y-96643052D01*
X124319431Y-96643052D01*
X124008183Y-96331803D01*
X123996376Y-96325356D01*
X123987481Y-96332225D01*
X123984895Y-96337049D01*
X123929043Y-96480300D01*
X123925291Y-96494913D01*
X123905223Y-96647346D01*
X123905066Y-96662427D01*
X121982900Y-96662427D01*
X121982900Y-96054082D01*
X124272332Y-96054082D01*
X124274703Y-96060923D01*
X124594512Y-96380731D01*
X124608450Y-96388342D01*
X124610286Y-96388210D01*
X124616898Y-96383961D01*
X124935242Y-96065618D01*
X124941541Y-96054082D01*
X125542332Y-96054082D01*
X125544703Y-96060923D01*
X125864512Y-96380731D01*
X125878450Y-96388342D01*
X125880286Y-96388210D01*
X125886898Y-96383961D01*
X126205242Y-96065618D01*
X126212001Y-96053239D01*
X126207491Y-96047215D01*
X126136009Y-96009367D01*
X126121932Y-96003964D01*
X125972815Y-95966508D01*
X125957845Y-95964617D01*
X125804100Y-95963813D01*
X125789122Y-95965545D01*
X125639616Y-96001439D01*
X125625479Y-96006697D01*
X125552533Y-96044346D01*
X125542332Y-96054082D01*
X124941541Y-96054082D01*
X124942001Y-96053239D01*
X124937491Y-96047215D01*
X124866009Y-96009367D01*
X124851932Y-96003964D01*
X124702815Y-95966508D01*
X124687845Y-95964617D01*
X124534100Y-95963813D01*
X124519122Y-95965545D01*
X124369616Y-96001439D01*
X124355479Y-96006697D01*
X124282533Y-96044346D01*
X124272332Y-96054082D01*
X121982900Y-96054082D01*
X121982900Y-95626000D01*
X122002902Y-95557879D01*
X122056558Y-95511386D01*
X122108900Y-95500000D01*
X133986387Y-95500000D01*
X134054508Y-95520002D01*
G37*
G04 #@! TD.AperFunction*
G04 #@! TA.AperFunction,Conductor*
G36*
X140480238Y-83078002D02*
G01*
X140526731Y-83131658D01*
X140536835Y-83201932D01*
X140507342Y-83266512D01*
X140495741Y-83279900D01*
X140488988Y-83279900D01*
X140488988Y-85376099D01*
X141959013Y-85376099D01*
X141959013Y-83279900D01*
X141951219Y-83279900D01*
X141950440Y-83279225D01*
X141912056Y-83219499D01*
X141912056Y-83148502D01*
X141950439Y-83088776D01*
X142015020Y-83059283D01*
X142032952Y-83058000D01*
X159640000Y-83058000D01*
X159708121Y-83078002D01*
X159754614Y-83131658D01*
X159766000Y-83184000D01*
X159766000Y-93374000D01*
X159745998Y-93442121D01*
X159692342Y-93488614D01*
X159640000Y-93500000D01*
X147500000Y-93500000D01*
X147500000Y-94874000D01*
X147479998Y-94942121D01*
X147426342Y-94988614D01*
X147374000Y-95000000D01*
X144298564Y-95000000D01*
X144244034Y-94982517D01*
X144242345Y-94985964D01*
X144239387Y-94983632D01*
X144231282Y-94980786D01*
X144224291Y-94975790D01*
X144178400Y-94962066D01*
X144172755Y-94960232D01*
X144135015Y-94946979D01*
X144135012Y-94946978D01*
X144127533Y-94944352D01*
X144122314Y-94943900D01*
X144119603Y-94943900D01*
X144117326Y-94943802D01*
X144116877Y-94943667D01*
X144116879Y-94943613D01*
X144116646Y-94943598D01*
X144110710Y-94941823D01*
X144060847Y-94943782D01*
X144060312Y-94943803D01*
X144055366Y-94943900D01*
X140373831Y-94943900D01*
X140305710Y-94923898D01*
X140259217Y-94870242D01*
X140249113Y-94799968D01*
X140257422Y-94769682D01*
X140274002Y-94729656D01*
X140307277Y-94649322D01*
X140326936Y-94500000D01*
X140307277Y-94350678D01*
X140269890Y-94260417D01*
X140259750Y-94235937D01*
X140252161Y-94165347D01*
X140283940Y-94101860D01*
X140344999Y-94065633D01*
X140392606Y-94062797D01*
X140500000Y-94076936D01*
X140649322Y-94057277D01*
X140788468Y-93999641D01*
X140907955Y-93907955D01*
X140999641Y-93788468D01*
X141057277Y-93649322D01*
X141076936Y-93500000D01*
X141057277Y-93350678D01*
X140999641Y-93211532D01*
X140907955Y-93092045D01*
X140788468Y-93000359D01*
X140649322Y-92942723D01*
X140500000Y-92923064D01*
X140350678Y-92942723D01*
X140211532Y-93000359D01*
X140092045Y-93092045D01*
X140000359Y-93211532D01*
X139942723Y-93350678D01*
X139923064Y-93500000D01*
X139942723Y-93649322D01*
X139951321Y-93670079D01*
X139990250Y-93764063D01*
X139997839Y-93834653D01*
X139966060Y-93898140D01*
X139905001Y-93934367D01*
X139857394Y-93937203D01*
X139758188Y-93924142D01*
X139750000Y-93923064D01*
X139600678Y-93942723D01*
X139461532Y-94000359D01*
X139342045Y-94092045D01*
X139250359Y-94211532D01*
X139192723Y-94350678D01*
X139173064Y-94500000D01*
X139192723Y-94649322D01*
X139225999Y-94729656D01*
X139242578Y-94769682D01*
X139250167Y-94840271D01*
X139218388Y-94903758D01*
X139157330Y-94939986D01*
X139126169Y-94943900D01*
X138044542Y-94943900D01*
X137976421Y-94923898D01*
X137929928Y-94870242D01*
X137919824Y-94799968D01*
X137928133Y-94769682D01*
X137947860Y-94722056D01*
X137957277Y-94699322D01*
X137976936Y-94550000D01*
X137957277Y-94400678D01*
X137899641Y-94261532D01*
X137807955Y-94142045D01*
X137688468Y-94050359D01*
X137549322Y-93992723D01*
X137402215Y-93973356D01*
X137402213Y-93973355D01*
X137400000Y-93973064D01*
X137400045Y-93972719D01*
X137336771Y-93954140D01*
X137290278Y-93900484D01*
X137280174Y-93830210D01*
X137283185Y-93815532D01*
X137284858Y-93809289D01*
X137288017Y-93801662D01*
X137289609Y-93789574D01*
X137306598Y-93660528D01*
X137307676Y-93652340D01*
X137288017Y-93503018D01*
X137230381Y-93363872D01*
X137138695Y-93244385D01*
X137019208Y-93152699D01*
X136880062Y-93095063D01*
X136730740Y-93075404D01*
X136581418Y-93095063D01*
X136442272Y-93152699D01*
X136322785Y-93244385D01*
X136231099Y-93363872D01*
X136173463Y-93503018D01*
X136153804Y-93652340D01*
X136173463Y-93801662D01*
X136231099Y-93940808D01*
X136322785Y-94060295D01*
X136442272Y-94151981D01*
X136581418Y-94209617D01*
X136722552Y-94228198D01*
X136728525Y-94228984D01*
X136728527Y-94228985D01*
X136730740Y-94229276D01*
X136730695Y-94229621D01*
X136793969Y-94248200D01*
X136840462Y-94301856D01*
X136850566Y-94372130D01*
X136847555Y-94386808D01*
X136845882Y-94393051D01*
X136842723Y-94400678D01*
X136823064Y-94550000D01*
X136842723Y-94699322D01*
X136852140Y-94722056D01*
X136871867Y-94769682D01*
X136879456Y-94840272D01*
X136847677Y-94903759D01*
X136786619Y-94939986D01*
X136755458Y-94943900D01*
X135045606Y-94943900D01*
X135025557Y-94941766D01*
X135021367Y-94941568D01*
X135011185Y-94939376D01*
X135000844Y-94940600D01*
X134980340Y-94943027D01*
X134974962Y-94943344D01*
X134974973Y-94943472D01*
X134969793Y-94943900D01*
X134964594Y-94943900D01*
X134959470Y-94944753D01*
X134959457Y-94944754D01*
X134946920Y-94946841D01*
X134941045Y-94947677D01*
X134903803Y-94952085D01*
X134903796Y-94952087D01*
X134893455Y-94953311D01*
X134885712Y-94957029D01*
X134877236Y-94958440D01*
X134868075Y-94963383D01*
X134835064Y-94981194D01*
X134829786Y-94983883D01*
X134822093Y-94987578D01*
X134767541Y-95000000D01*
X128034685Y-95000000D01*
X127966564Y-94979998D01*
X127920071Y-94926342D01*
X127909967Y-94856068D01*
X127934721Y-94797298D01*
X127997481Y-94715508D01*
X128055117Y-94576362D01*
X128074776Y-94427040D01*
X128055117Y-94277718D01*
X127997481Y-94138572D01*
X127905795Y-94019085D01*
X127786308Y-93927399D01*
X127668840Y-93878742D01*
X127613560Y-93834195D01*
X127591139Y-93766832D01*
X127607395Y-93703140D01*
X132323484Y-93703140D01*
X132343143Y-93852462D01*
X132400779Y-93991608D01*
X132492465Y-94111095D01*
X132611952Y-94202781D01*
X132751098Y-94260417D01*
X132900420Y-94280076D01*
X133049742Y-94260417D01*
X133188888Y-94202781D01*
X133308375Y-94111095D01*
X133400061Y-93991608D01*
X133457697Y-93852462D01*
X133477356Y-93703140D01*
X133480800Y-93703593D01*
X133496280Y-93650873D01*
X133513183Y-93629899D01*
X134617518Y-92525564D01*
X134679830Y-92491538D01*
X134750645Y-92496603D01*
X134807481Y-92539150D01*
X134831535Y-92598213D01*
X134842503Y-92681522D01*
X134900139Y-92820668D01*
X134991825Y-92940155D01*
X135111312Y-93031841D01*
X135250458Y-93089477D01*
X135399780Y-93109136D01*
X135549102Y-93089477D01*
X135688248Y-93031841D01*
X135807735Y-92940155D01*
X135899421Y-92820668D01*
X135957057Y-92681522D01*
X135976716Y-92532200D01*
X135972477Y-92500000D01*
X141923064Y-92500000D01*
X141942723Y-92649322D01*
X142000359Y-92788468D01*
X142092045Y-92907955D01*
X142211532Y-92999641D01*
X142350678Y-93057277D01*
X142500000Y-93076936D01*
X142649322Y-93057277D01*
X142788468Y-92999641D01*
X142907955Y-92907955D01*
X142999641Y-92788468D01*
X143057277Y-92649322D01*
X143076936Y-92500000D01*
X143057277Y-92350678D01*
X142999641Y-92211532D01*
X142974786Y-92179140D01*
X153682344Y-92179140D01*
X153702003Y-92328462D01*
X153759639Y-92467608D01*
X153851325Y-92587095D01*
X153970812Y-92678781D01*
X154109958Y-92736417D01*
X154259280Y-92756076D01*
X154408602Y-92736417D01*
X154547748Y-92678781D01*
X154667235Y-92587095D01*
X154758921Y-92467608D01*
X154816557Y-92328462D01*
X154836216Y-92179140D01*
X154816557Y-92029818D01*
X154758921Y-91890672D01*
X154667235Y-91771185D01*
X154547748Y-91679499D01*
X154408602Y-91621863D01*
X154259280Y-91602204D01*
X154109958Y-91621863D01*
X153970812Y-91679499D01*
X153851325Y-91771185D01*
X153759639Y-91890672D01*
X153702003Y-92029818D01*
X153682344Y-92179140D01*
X142974786Y-92179140D01*
X142907955Y-92092045D01*
X142788468Y-92000359D01*
X142649322Y-91942723D01*
X142500000Y-91923064D01*
X142350678Y-91942723D01*
X142211532Y-92000359D01*
X142092045Y-92092045D01*
X142000359Y-92211532D01*
X141942723Y-92350678D01*
X141923064Y-92500000D01*
X135972477Y-92500000D01*
X135957057Y-92382878D01*
X135899421Y-92243732D01*
X135807735Y-92124245D01*
X135688248Y-92032559D01*
X135549102Y-91974923D01*
X135497277Y-91968100D01*
X135432350Y-91939378D01*
X135393258Y-91880112D01*
X135392413Y-91809121D01*
X135399548Y-91792178D01*
X135399041Y-91791968D01*
X135453516Y-91660453D01*
X135456677Y-91652822D01*
X135476336Y-91503500D01*
X135456677Y-91354178D01*
X135399041Y-91215032D01*
X135307355Y-91095545D01*
X135187868Y-91003859D01*
X135048722Y-90946223D01*
X134899400Y-90926564D01*
X134750078Y-90946223D01*
X134610932Y-91003859D01*
X134491445Y-91095545D01*
X134399759Y-91215032D01*
X134342123Y-91354178D01*
X134322464Y-91503500D01*
X134342051Y-91652273D01*
X134331112Y-91722420D01*
X134306224Y-91757813D01*
X132973660Y-93090377D01*
X132911348Y-93124403D01*
X132900339Y-93125586D01*
X132900420Y-93126204D01*
X132751098Y-93145863D01*
X132611952Y-93203499D01*
X132492465Y-93295185D01*
X132400779Y-93414672D01*
X132343143Y-93553818D01*
X132323484Y-93703140D01*
X127607395Y-93703140D01*
X127608697Y-93698040D01*
X127640355Y-93662372D01*
X127701125Y-93615741D01*
X127707675Y-93610715D01*
X127799361Y-93491228D01*
X127856997Y-93352082D01*
X127876656Y-93202760D01*
X127856997Y-93053438D01*
X127799361Y-92914292D01*
X127707675Y-92794805D01*
X127588188Y-92703119D01*
X127449042Y-92645483D01*
X127299720Y-92625824D01*
X127150398Y-92645483D01*
X127011252Y-92703119D01*
X126891765Y-92794805D01*
X126800079Y-92914292D01*
X126742443Y-93053438D01*
X126722784Y-93202760D01*
X126742443Y-93352082D01*
X126800079Y-93491228D01*
X126891765Y-93610715D01*
X127011252Y-93702401D01*
X127128720Y-93751058D01*
X127184000Y-93795605D01*
X127206421Y-93862968D01*
X127188863Y-93931760D01*
X127157205Y-93967428D01*
X127115225Y-93999641D01*
X127089885Y-94019085D01*
X126998199Y-94138572D01*
X126940563Y-94277718D01*
X126920904Y-94427040D01*
X126940563Y-94576362D01*
X126998199Y-94715508D01*
X127060959Y-94797298D01*
X127086558Y-94863516D01*
X127072293Y-94933065D01*
X127022692Y-94983861D01*
X126960995Y-95000000D01*
X123726209Y-95000000D01*
X123658088Y-94979998D01*
X123611595Y-94926342D01*
X123601491Y-94856068D01*
X123630985Y-94791488D01*
X123649505Y-94774038D01*
X123748885Y-94697781D01*
X123755435Y-94692755D01*
X123847121Y-94573268D01*
X123904757Y-94434122D01*
X123924416Y-94284800D01*
X123907027Y-94152720D01*
X124787304Y-94152720D01*
X124806963Y-94302042D01*
X124864599Y-94441188D01*
X124956285Y-94560675D01*
X125075772Y-94652361D01*
X125214918Y-94709997D01*
X125364240Y-94729656D01*
X125513562Y-94709997D01*
X125652708Y-94652361D01*
X125772195Y-94560675D01*
X125863881Y-94441188D01*
X125921517Y-94302042D01*
X125941176Y-94152720D01*
X125921517Y-94003398D01*
X125895938Y-93941645D01*
X125888485Y-93923651D01*
X125880896Y-93853061D01*
X125912676Y-93789574D01*
X125928190Y-93775471D01*
X125984085Y-93732581D01*
X125990635Y-93727555D01*
X126082321Y-93608068D01*
X126139957Y-93468922D01*
X126159616Y-93319600D01*
X126139957Y-93170278D01*
X126082321Y-93031132D01*
X125990635Y-92911645D01*
X125871148Y-92819959D01*
X125732002Y-92762323D01*
X125582680Y-92742664D01*
X125433358Y-92762323D01*
X125294212Y-92819959D01*
X125174725Y-92911645D01*
X125083039Y-93031132D01*
X125025403Y-93170278D01*
X125005744Y-93319600D01*
X125025403Y-93468922D01*
X125028564Y-93476553D01*
X125058435Y-93548669D01*
X125066024Y-93619259D01*
X125034244Y-93682746D01*
X125018730Y-93696849D01*
X125009941Y-93703593D01*
X124956285Y-93744765D01*
X124864599Y-93864252D01*
X124806963Y-94003398D01*
X124787304Y-94152720D01*
X123907027Y-94152720D01*
X123904757Y-94135478D01*
X123847121Y-93996332D01*
X123755435Y-93876845D01*
X123635948Y-93785159D01*
X123496802Y-93727523D01*
X123347480Y-93707864D01*
X123198158Y-93727523D01*
X123059012Y-93785159D01*
X122939525Y-93876845D01*
X122847839Y-93996332D01*
X122790203Y-94135478D01*
X122770544Y-94284800D01*
X122790203Y-94434122D01*
X122847839Y-94573268D01*
X122939525Y-94692755D01*
X122946075Y-94697781D01*
X123045455Y-94774038D01*
X123087322Y-94831375D01*
X123091544Y-94902246D01*
X123056780Y-94964149D01*
X122994067Y-94997431D01*
X122968751Y-95000000D01*
X122108900Y-95000000D01*
X122040779Y-94979998D01*
X121994286Y-94926342D01*
X121982900Y-94874000D01*
X121982900Y-91704160D01*
X127792124Y-91704160D01*
X127811783Y-91853482D01*
X127869419Y-91992628D01*
X127961105Y-92112115D01*
X128080592Y-92203801D01*
X128219738Y-92261437D01*
X128369060Y-92281096D01*
X128518382Y-92261437D01*
X128657528Y-92203801D01*
X128777015Y-92112115D01*
X128868701Y-91992628D01*
X128926337Y-91853482D01*
X128945996Y-91704160D01*
X128926337Y-91554838D01*
X128868701Y-91415692D01*
X128777015Y-91296205D01*
X128657528Y-91204519D01*
X128518382Y-91146883D01*
X128369060Y-91127224D01*
X128219738Y-91146883D01*
X128080592Y-91204519D01*
X127961105Y-91296205D01*
X127869419Y-91415692D01*
X127811783Y-91554838D01*
X127792124Y-91704160D01*
X121982900Y-91704160D01*
X121982900Y-91551891D01*
X122002902Y-91483770D01*
X122019805Y-91462796D01*
X122151619Y-91330982D01*
X122213931Y-91296956D01*
X122243913Y-91295706D01*
X122243913Y-91294498D01*
X122252172Y-91294498D01*
X122260360Y-91295576D01*
X122409682Y-91275917D01*
X122548828Y-91218281D01*
X122668315Y-91126595D01*
X122760001Y-91007108D01*
X122817637Y-90867962D01*
X122837296Y-90718640D01*
X122817637Y-90569318D01*
X122760001Y-90430172D01*
X122668315Y-90310685D01*
X122548828Y-90218999D01*
X122409682Y-90161363D01*
X122260360Y-90141704D01*
X122111038Y-90161363D01*
X121971892Y-90218999D01*
X121852405Y-90310685D01*
X121760719Y-90430172D01*
X121703083Y-90569318D01*
X121683424Y-90718640D01*
X121684502Y-90726828D01*
X121684502Y-90735087D01*
X121681779Y-90735087D01*
X121672905Y-90791988D01*
X121648018Y-90827380D01*
X121411364Y-91064034D01*
X121395671Y-91076708D01*
X121392573Y-91079527D01*
X121383826Y-91085175D01*
X121364597Y-91109567D01*
X121361016Y-91113597D01*
X121361114Y-91113680D01*
X121357761Y-91117637D01*
X121354080Y-91121318D01*
X121351056Y-91125550D01*
X121351054Y-91125552D01*
X121343651Y-91135911D01*
X121340088Y-91140656D01*
X121316880Y-91170095D01*
X121316879Y-91170097D01*
X121310432Y-91178275D01*
X121307586Y-91186380D01*
X121302590Y-91193371D01*
X121293830Y-91222662D01*
X121288866Y-91239262D01*
X121287032Y-91244907D01*
X121275764Y-91276995D01*
X121271152Y-91290129D01*
X121270700Y-91295348D01*
X121270700Y-91298059D01*
X121270602Y-91300336D01*
X121270467Y-91300785D01*
X121270413Y-91300783D01*
X121270398Y-91301016D01*
X121268623Y-91306952D01*
X121269032Y-91317356D01*
X121270603Y-91357350D01*
X121270700Y-91362296D01*
X121270700Y-94874000D01*
X121250698Y-94942121D01*
X121197042Y-94988614D01*
X121144700Y-95000000D01*
X120268000Y-95000000D01*
X120199879Y-94979998D01*
X120153386Y-94926342D01*
X120142000Y-94874000D01*
X120142000Y-90103960D01*
X133032144Y-90103960D01*
X133051803Y-90253282D01*
X133109439Y-90392428D01*
X133201125Y-90511915D01*
X133320612Y-90603601D01*
X133459758Y-90661237D01*
X133609080Y-90680896D01*
X133758402Y-90661237D01*
X133897548Y-90603601D01*
X134017035Y-90511915D01*
X134108721Y-90392428D01*
X134166357Y-90253282D01*
X134186016Y-90103960D01*
X134166357Y-89954638D01*
X134108721Y-89815492D01*
X134017035Y-89696005D01*
X133897548Y-89604319D01*
X133758402Y-89546683D01*
X133609080Y-89527024D01*
X133459758Y-89546683D01*
X133320612Y-89604319D01*
X133201125Y-89696005D01*
X133109439Y-89815492D01*
X133051803Y-89954638D01*
X133032144Y-90103960D01*
X120142000Y-90103960D01*
X120142000Y-87550000D01*
X123523064Y-87550000D01*
X123542723Y-87699322D01*
X123600359Y-87838468D01*
X123692045Y-87957955D01*
X123811532Y-88049641D01*
X123950678Y-88107277D01*
X124100000Y-88126936D01*
X124249322Y-88107277D01*
X124388468Y-88049641D01*
X124507955Y-87957955D01*
X124599641Y-87838468D01*
X124657277Y-87699322D01*
X124676936Y-87550000D01*
X124657277Y-87400678D01*
X124616544Y-87302340D01*
X135722004Y-87302340D01*
X135741663Y-87451662D01*
X135799299Y-87590808D01*
X135890985Y-87710295D01*
X136010472Y-87801981D01*
X136149618Y-87859617D01*
X136298940Y-87879276D01*
X136448262Y-87859617D01*
X136587408Y-87801981D01*
X136706895Y-87710295D01*
X136798581Y-87590808D01*
X136856217Y-87451662D01*
X136863837Y-87393780D01*
X144253864Y-87393780D01*
X144273523Y-87543102D01*
X144331159Y-87682248D01*
X144422845Y-87801735D01*
X144542332Y-87893421D01*
X144681478Y-87951057D01*
X144830800Y-87970716D01*
X144980122Y-87951057D01*
X145119268Y-87893421D01*
X145238755Y-87801735D01*
X145330441Y-87682248D01*
X145388077Y-87543102D01*
X145407736Y-87393780D01*
X145388077Y-87244458D01*
X145330441Y-87105312D01*
X145238755Y-86985825D01*
X145119268Y-86894139D01*
X144980122Y-86836503D01*
X144830800Y-86816844D01*
X144681478Y-86836503D01*
X144542332Y-86894139D01*
X144422845Y-86985825D01*
X144331159Y-87105312D01*
X144273523Y-87244458D01*
X144253864Y-87393780D01*
X136863837Y-87393780D01*
X136875876Y-87302340D01*
X136856217Y-87153018D01*
X136798581Y-87013872D01*
X136706895Y-86894385D01*
X136587408Y-86802699D01*
X136448262Y-86745063D01*
X136298940Y-86725404D01*
X136149618Y-86745063D01*
X136010472Y-86802699D01*
X135890985Y-86894385D01*
X135799299Y-87013872D01*
X135741663Y-87153018D01*
X135722004Y-87302340D01*
X124616544Y-87302340D01*
X124599641Y-87261532D01*
X124507955Y-87142045D01*
X124388468Y-87050359D01*
X124249322Y-86992723D01*
X124100000Y-86973064D01*
X123950678Y-86992723D01*
X123811532Y-87050359D01*
X123692045Y-87142045D01*
X123600359Y-87261532D01*
X123542723Y-87400678D01*
X123523064Y-87550000D01*
X120142000Y-87550000D01*
X120142000Y-86600000D01*
X146873064Y-86600000D01*
X146892723Y-86749322D01*
X146950359Y-86888468D01*
X147042045Y-87007955D01*
X147161532Y-87099641D01*
X147300678Y-87157277D01*
X147450000Y-87176936D01*
X147599322Y-87157277D01*
X147738468Y-87099641D01*
X147857955Y-87007955D01*
X147949641Y-86888468D01*
X148007277Y-86749322D01*
X148013389Y-86702900D01*
X149521824Y-86702900D01*
X149541483Y-86852222D01*
X149599119Y-86991368D01*
X149690805Y-87110855D01*
X149810292Y-87202541D01*
X149949438Y-87260177D01*
X150098760Y-87279836D01*
X150248082Y-87260177D01*
X150387228Y-87202541D01*
X150388277Y-87205073D01*
X150444192Y-87191515D01*
X150511281Y-87214745D01*
X150538142Y-87240668D01*
X150592505Y-87311515D01*
X150711992Y-87403201D01*
X150851138Y-87460837D01*
X151000460Y-87480496D01*
X151149782Y-87460837D01*
X151288928Y-87403201D01*
X151408415Y-87311515D01*
X151500101Y-87192028D01*
X151557737Y-87052882D01*
X151577396Y-86903560D01*
X151557737Y-86754238D01*
X151522795Y-86669880D01*
X154853284Y-86669880D01*
X154872943Y-86819202D01*
X154930579Y-86958348D01*
X155022265Y-87077835D01*
X155141752Y-87169521D01*
X155280898Y-87227157D01*
X155430220Y-87246816D01*
X155579542Y-87227157D01*
X155718688Y-87169521D01*
X155838175Y-87077835D01*
X155929861Y-86958348D01*
X155987497Y-86819202D01*
X156007156Y-86669880D01*
X155987497Y-86520558D01*
X155929861Y-86381412D01*
X155838175Y-86261925D01*
X155718688Y-86170239D01*
X155579542Y-86112603D01*
X155430220Y-86092944D01*
X155280898Y-86112603D01*
X155141752Y-86170239D01*
X155022265Y-86261925D01*
X154930579Y-86381412D01*
X154872943Y-86520558D01*
X154853284Y-86669880D01*
X151522795Y-86669880D01*
X151500101Y-86615092D01*
X151408415Y-86495605D01*
X151288928Y-86403919D01*
X151149782Y-86346283D01*
X151000460Y-86326624D01*
X150851138Y-86346283D01*
X150711992Y-86403919D01*
X150710943Y-86401387D01*
X150655028Y-86414945D01*
X150587939Y-86391715D01*
X150561078Y-86365792D01*
X150511741Y-86301495D01*
X150506715Y-86294945D01*
X150387228Y-86203259D01*
X150248082Y-86145623D01*
X150098760Y-86125964D01*
X149949438Y-86145623D01*
X149810292Y-86203259D01*
X149690805Y-86294945D01*
X149599119Y-86414432D01*
X149541483Y-86553578D01*
X149521824Y-86702900D01*
X148013389Y-86702900D01*
X148026936Y-86600000D01*
X148007277Y-86450678D01*
X147949641Y-86311532D01*
X147857955Y-86192045D01*
X147738468Y-86100359D01*
X147599322Y-86042723D01*
X147450000Y-86023064D01*
X147300678Y-86042723D01*
X147161532Y-86100359D01*
X147042045Y-86192045D01*
X146950359Y-86311532D01*
X146892723Y-86450678D01*
X146873064Y-86600000D01*
X120142000Y-86600000D01*
X120142000Y-83184000D01*
X120162002Y-83115879D01*
X120215658Y-83069386D01*
X120268000Y-83058000D01*
X140412117Y-83058000D01*
X140480238Y-83078002D01*
G37*
G04 #@! TD.AperFunction*
M02*
