G04 #@! TF.GenerationSoftware,KiCad,Pcbnew,(7.0.0-0)*
G04 #@! TF.CreationDate,2023-12-04T12:02:09+01:00*
G04 #@! TF.ProjectId,Crazyflie contol board,4372617a-7966-46c6-9965-20636f6e746f,2.4*
G04 #@! TF.SameCoordinates,Original*
G04 #@! TF.FileFunction,Legend,Bot*
G04 #@! TF.FilePolarity,Positive*
%FSLAX46Y46*%
G04 Gerber Fmt 4.6, Leading zero omitted, Abs format (unit mm)*
G04 Created by KiCad (PCBNEW (7.0.0-0)) date 2023-12-04 12:02:09*
%MOMM*%
%LPD*%
G01*
G04 APERTURE LIST*
G04 Aperture macros list*
%AMRoundRect*
0 Rectangle with rounded corners*
0 $1 Rounding radius*
0 $2 $3 $4 $5 $6 $7 $8 $9 X,Y pos of 4 corners*
0 Add a 4 corners polygon primitive as box body*
4,1,4,$2,$3,$4,$5,$6,$7,$8,$9,$2,$3,0*
0 Add four circle primitives for the rounded corners*
1,1,$1+$1,$2,$3*
1,1,$1+$1,$4,$5*
1,1,$1+$1,$6,$7*
1,1,$1+$1,$8,$9*
0 Add four rect primitives between the rounded corners*
20,1,$1+$1,$2,$3,$4,$5,0*
20,1,$1+$1,$4,$5,$6,$7,0*
20,1,$1+$1,$6,$7,$8,$9,0*
20,1,$1+$1,$8,$9,$2,$3,0*%
G04 Aperture macros list end*
%ADD10C,0.250190*%
%ADD11C,0.150000*%
%ADD12C,0.750000*%
%ADD13O,1.100000X2.200000*%
%ADD14O,1.100000X1.700000*%
%ADD15RoundRect,0.300000X0.600000X-0.600000X0.600000X0.600000X-0.600000X0.600000X-0.600000X-0.600000X0*%
%ADD16C,1.800000*%
G04 APERTURE END LIST*
D10*
X139613581Y-96381241D02*
X139613581Y-95618758D01*
X133034995Y-117086418D02*
X132272512Y-117086418D01*
X132653753Y-117467660D02*
X132653753Y-116705176D01*
X139981241Y-93586418D02*
X139218758Y-93586418D01*
X139599999Y-93967660D02*
X139599999Y-93205176D01*
X130213581Y-117481241D02*
X130213581Y-116718758D01*
D11*
X141931134Y-120004166D02*
X142645420Y-120004166D01*
X142645420Y-120004166D02*
X142788277Y-119956547D01*
X142788277Y-119956547D02*
X142883515Y-119861309D01*
X142883515Y-119861309D02*
X142931134Y-119718452D01*
X142931134Y-119718452D02*
X142931134Y-119623214D01*
X142931134Y-121004166D02*
X142931134Y-120432738D01*
X142931134Y-120718452D02*
X141931134Y-120718452D01*
X141931134Y-120718452D02*
X142073992Y-120623214D01*
X142073992Y-120623214D02*
X142169230Y-120527976D01*
X142169230Y-120527976D02*
X142216849Y-120432738D01*
X131967380Y-97966666D02*
X132681666Y-97966666D01*
X132681666Y-97966666D02*
X132824523Y-97919047D01*
X132824523Y-97919047D02*
X132919761Y-97823809D01*
X132919761Y-97823809D02*
X132967380Y-97680952D01*
X132967380Y-97680952D02*
X132967380Y-97585714D01*
X132062619Y-98395238D02*
X132015000Y-98442857D01*
X132015000Y-98442857D02*
X131967380Y-98538095D01*
X131967380Y-98538095D02*
X131967380Y-98776190D01*
X131967380Y-98776190D02*
X132015000Y-98871428D01*
X132015000Y-98871428D02*
X132062619Y-98919047D01*
X132062619Y-98919047D02*
X132157857Y-98966666D01*
X132157857Y-98966666D02*
X132253095Y-98966666D01*
X132253095Y-98966666D02*
X132395952Y-98919047D01*
X132395952Y-98919047D02*
X132967380Y-98347619D01*
X132967380Y-98347619D02*
X132967380Y-98966666D01*
%LPC*%
D12*
X159640000Y-87955000D03*
X153860000Y-87955000D03*
D13*
X161069999Y-88484999D03*
D14*
X161069999Y-84304999D03*
D13*
X152429999Y-88484999D03*
D14*
X152429999Y-84304999D03*
D15*
X140293754Y-121440000D03*
D16*
X140293754Y-118900000D03*
X137753754Y-121440000D03*
X137753754Y-118900000D03*
X135213754Y-121440000D03*
X135213754Y-118900000D03*
X132673754Y-121440000D03*
X132673754Y-118900000D03*
X130133754Y-121440000D03*
X130133754Y-118900000D03*
D15*
X137733754Y-96080000D03*
D16*
X137733754Y-93540000D03*
X135193754Y-96080000D03*
X135193754Y-93540000D03*
X132653754Y-96080000D03*
X132653754Y-93540000D03*
X130113754Y-96080000D03*
X130113754Y-93540000D03*
X127573754Y-96080000D03*
X127573754Y-93540000D03*
M02*
