%TF.GenerationSoftware,KiCad,Pcbnew,9.0.4*%
%TF.CreationDate,2025-09-03T20:16:42+02:00*%
%TF.ProjectId,Crazyflie contol board,4372617a-7966-46c6-9965-20636f6e746f,2.4*%
%TF.SameCoordinates,Original*%
%TF.FileFunction,Drillmap*%
%TF.FilePolarity,Positive*%
%FSLAX45Y45*%
G04 Gerber Fmt 4.5, Leading zero omitted, Abs format (unit mm)*
G04 Created by KiCad (PCBNEW 9.0.4) date 2025-09-03 20:16:42*
%MOMM*%
%LPD*%
G01*
G04 APERTURE LIST*
%ADD10C,0.200660*%
%ADD11C,0.200000*%
%ADD12C,0.100000*%
G04 APERTURE END LIST*
D10*
X12575375Y-8300000D02*
X16575375Y-8300000D01*
X16575375Y-12300000D02*
X16575375Y-8300000D01*
X16575375Y-12300000D02*
X12575375Y-12300000D01*
X12575375Y-8300000D02*
X12575375Y-12300000D01*
D11*
D12*
X15353500Y-8763000D02*
X15418500Y-8828000D01*
X15418500Y-8763000D02*
X15353500Y-8828000D01*
X15931500Y-8763000D02*
X15996500Y-8828000D01*
X15996500Y-8763000D02*
X15931500Y-8828000D01*
D11*
X12826119Y-12621517D02*
X12826119Y-12421517D01*
X12826119Y-12421517D02*
X12873738Y-12421517D01*
X12873738Y-12421517D02*
X12902310Y-12431041D01*
X12902310Y-12431041D02*
X12921357Y-12450088D01*
X12921357Y-12450088D02*
X12930881Y-12469136D01*
X12930881Y-12469136D02*
X12940405Y-12507231D01*
X12940405Y-12507231D02*
X12940405Y-12535802D01*
X12940405Y-12535802D02*
X12930881Y-12573898D01*
X12930881Y-12573898D02*
X12921357Y-12592945D01*
X12921357Y-12592945D02*
X12902310Y-12611993D01*
X12902310Y-12611993D02*
X12873738Y-12621517D01*
X12873738Y-12621517D02*
X12826119Y-12621517D01*
X13026119Y-12621517D02*
X13026119Y-12488183D01*
X13026119Y-12526279D02*
X13035643Y-12507231D01*
X13035643Y-12507231D02*
X13045167Y-12497707D01*
X13045167Y-12497707D02*
X13064214Y-12488183D01*
X13064214Y-12488183D02*
X13083262Y-12488183D01*
X13149929Y-12621517D02*
X13149929Y-12488183D01*
X13149929Y-12421517D02*
X13140405Y-12431041D01*
X13140405Y-12431041D02*
X13149929Y-12440564D01*
X13149929Y-12440564D02*
X13159452Y-12431041D01*
X13159452Y-12431041D02*
X13149929Y-12421517D01*
X13149929Y-12421517D02*
X13149929Y-12440564D01*
X13273738Y-12621517D02*
X13254691Y-12611993D01*
X13254691Y-12611993D02*
X13245167Y-12592945D01*
X13245167Y-12592945D02*
X13245167Y-12421517D01*
X13378500Y-12621517D02*
X13359452Y-12611993D01*
X13359452Y-12611993D02*
X13349929Y-12592945D01*
X13349929Y-12592945D02*
X13349929Y-12421517D01*
X13607072Y-12621517D02*
X13607072Y-12421517D01*
X13607072Y-12421517D02*
X13673738Y-12564374D01*
X13673738Y-12564374D02*
X13740405Y-12421517D01*
X13740405Y-12421517D02*
X13740405Y-12621517D01*
X13921357Y-12621517D02*
X13921357Y-12516755D01*
X13921357Y-12516755D02*
X13911833Y-12497707D01*
X13911833Y-12497707D02*
X13892786Y-12488183D01*
X13892786Y-12488183D02*
X13854691Y-12488183D01*
X13854691Y-12488183D02*
X13835643Y-12497707D01*
X13921357Y-12611993D02*
X13902310Y-12621517D01*
X13902310Y-12621517D02*
X13854691Y-12621517D01*
X13854691Y-12621517D02*
X13835643Y-12611993D01*
X13835643Y-12611993D02*
X13826119Y-12592945D01*
X13826119Y-12592945D02*
X13826119Y-12573898D01*
X13826119Y-12573898D02*
X13835643Y-12554850D01*
X13835643Y-12554850D02*
X13854691Y-12545326D01*
X13854691Y-12545326D02*
X13902310Y-12545326D01*
X13902310Y-12545326D02*
X13921357Y-12535802D01*
X14016595Y-12488183D02*
X14016595Y-12688183D01*
X14016595Y-12497707D02*
X14035643Y-12488183D01*
X14035643Y-12488183D02*
X14073738Y-12488183D01*
X14073738Y-12488183D02*
X14092786Y-12497707D01*
X14092786Y-12497707D02*
X14102310Y-12507231D01*
X14102310Y-12507231D02*
X14111833Y-12526279D01*
X14111833Y-12526279D02*
X14111833Y-12583421D01*
X14111833Y-12583421D02*
X14102310Y-12602469D01*
X14102310Y-12602469D02*
X14092786Y-12611993D01*
X14092786Y-12611993D02*
X14073738Y-12621517D01*
X14073738Y-12621517D02*
X14035643Y-12621517D01*
X14035643Y-12621517D02*
X14016595Y-12611993D01*
X14197548Y-12602469D02*
X14207072Y-12611993D01*
X14207072Y-12611993D02*
X14197548Y-12621517D01*
X14197548Y-12621517D02*
X14188024Y-12611993D01*
X14188024Y-12611993D02*
X14197548Y-12602469D01*
X14197548Y-12602469D02*
X14197548Y-12621517D01*
X14197548Y-12497707D02*
X14207072Y-12507231D01*
X14207072Y-12507231D02*
X14197548Y-12516755D01*
X14197548Y-12516755D02*
X14188024Y-12507231D01*
X14188024Y-12507231D02*
X14197548Y-12497707D01*
X14197548Y-12497707D02*
X14197548Y-12516755D01*
D12*
X12500342Y-12917533D02*
X12565342Y-12982533D01*
X12565342Y-12917533D02*
X12500342Y-12982533D01*
D11*
X12864214Y-12841517D02*
X12883262Y-12841517D01*
X12883262Y-12841517D02*
X12902310Y-12851041D01*
X12902310Y-12851041D02*
X12911833Y-12860564D01*
X12911833Y-12860564D02*
X12921357Y-12879612D01*
X12921357Y-12879612D02*
X12930881Y-12917707D01*
X12930881Y-12917707D02*
X12930881Y-12965326D01*
X12930881Y-12965326D02*
X12921357Y-13003421D01*
X12921357Y-13003421D02*
X12911833Y-13022469D01*
X12911833Y-13022469D02*
X12902310Y-13031993D01*
X12902310Y-13031993D02*
X12883262Y-13041517D01*
X12883262Y-13041517D02*
X12864214Y-13041517D01*
X12864214Y-13041517D02*
X12845167Y-13031993D01*
X12845167Y-13031993D02*
X12835643Y-13022469D01*
X12835643Y-13022469D02*
X12826119Y-13003421D01*
X12826119Y-13003421D02*
X12816595Y-12965326D01*
X12816595Y-12965326D02*
X12816595Y-12917707D01*
X12816595Y-12917707D02*
X12826119Y-12879612D01*
X12826119Y-12879612D02*
X12835643Y-12860564D01*
X12835643Y-12860564D02*
X12845167Y-12851041D01*
X12845167Y-12851041D02*
X12864214Y-12841517D01*
X13016595Y-13022469D02*
X13026119Y-13031993D01*
X13026119Y-13031993D02*
X13016595Y-13041517D01*
X13016595Y-13041517D02*
X13007072Y-13031993D01*
X13007072Y-13031993D02*
X13016595Y-13022469D01*
X13016595Y-13022469D02*
X13016595Y-13041517D01*
X13197548Y-12841517D02*
X13159452Y-12841517D01*
X13159452Y-12841517D02*
X13140405Y-12851041D01*
X13140405Y-12851041D02*
X13130881Y-12860564D01*
X13130881Y-12860564D02*
X13111833Y-12889136D01*
X13111833Y-12889136D02*
X13102310Y-12927231D01*
X13102310Y-12927231D02*
X13102310Y-13003421D01*
X13102310Y-13003421D02*
X13111833Y-13022469D01*
X13111833Y-13022469D02*
X13121357Y-13031993D01*
X13121357Y-13031993D02*
X13140405Y-13041517D01*
X13140405Y-13041517D02*
X13178500Y-13041517D01*
X13178500Y-13041517D02*
X13197548Y-13031993D01*
X13197548Y-13031993D02*
X13207072Y-13022469D01*
X13207072Y-13022469D02*
X13216595Y-13003421D01*
X13216595Y-13003421D02*
X13216595Y-12955802D01*
X13216595Y-12955802D02*
X13207072Y-12936755D01*
X13207072Y-12936755D02*
X13197548Y-12927231D01*
X13197548Y-12927231D02*
X13178500Y-12917707D01*
X13178500Y-12917707D02*
X13140405Y-12917707D01*
X13140405Y-12917707D02*
X13121357Y-12927231D01*
X13121357Y-12927231D02*
X13111833Y-12936755D01*
X13111833Y-12936755D02*
X13102310Y-12955802D01*
X13397548Y-12841517D02*
X13302310Y-12841517D01*
X13302310Y-12841517D02*
X13292786Y-12936755D01*
X13292786Y-12936755D02*
X13302310Y-12927231D01*
X13302310Y-12927231D02*
X13321357Y-12917707D01*
X13321357Y-12917707D02*
X13368976Y-12917707D01*
X13368976Y-12917707D02*
X13388024Y-12927231D01*
X13388024Y-12927231D02*
X13397548Y-12936755D01*
X13397548Y-12936755D02*
X13407072Y-12955802D01*
X13407072Y-12955802D02*
X13407072Y-13003421D01*
X13407072Y-13003421D02*
X13397548Y-13022469D01*
X13397548Y-13022469D02*
X13388024Y-13031993D01*
X13388024Y-13031993D02*
X13368976Y-13041517D01*
X13368976Y-13041517D02*
X13321357Y-13041517D01*
X13321357Y-13041517D02*
X13302310Y-13031993D01*
X13302310Y-13031993D02*
X13292786Y-13022469D01*
X13530881Y-12841517D02*
X13549929Y-12841517D01*
X13549929Y-12841517D02*
X13568976Y-12851041D01*
X13568976Y-12851041D02*
X13578500Y-12860564D01*
X13578500Y-12860564D02*
X13588024Y-12879612D01*
X13588024Y-12879612D02*
X13597548Y-12917707D01*
X13597548Y-12917707D02*
X13597548Y-12965326D01*
X13597548Y-12965326D02*
X13588024Y-13003421D01*
X13588024Y-13003421D02*
X13578500Y-13022469D01*
X13578500Y-13022469D02*
X13568976Y-13031993D01*
X13568976Y-13031993D02*
X13549929Y-13041517D01*
X13549929Y-13041517D02*
X13530881Y-13041517D01*
X13530881Y-13041517D02*
X13511833Y-13031993D01*
X13511833Y-13031993D02*
X13502310Y-13022469D01*
X13502310Y-13022469D02*
X13492786Y-13003421D01*
X13492786Y-13003421D02*
X13483262Y-12965326D01*
X13483262Y-12965326D02*
X13483262Y-12917707D01*
X13483262Y-12917707D02*
X13492786Y-12879612D01*
X13492786Y-12879612D02*
X13502310Y-12860564D01*
X13502310Y-12860564D02*
X13511833Y-12851041D01*
X13511833Y-12851041D02*
X13530881Y-12841517D01*
X13683262Y-13041517D02*
X13683262Y-12908183D01*
X13683262Y-12927231D02*
X13692786Y-12917707D01*
X13692786Y-12917707D02*
X13711833Y-12908183D01*
X13711833Y-12908183D02*
X13740405Y-12908183D01*
X13740405Y-12908183D02*
X13759453Y-12917707D01*
X13759453Y-12917707D02*
X13768976Y-12936755D01*
X13768976Y-12936755D02*
X13768976Y-13041517D01*
X13768976Y-12936755D02*
X13778500Y-12917707D01*
X13778500Y-12917707D02*
X13797548Y-12908183D01*
X13797548Y-12908183D02*
X13826119Y-12908183D01*
X13826119Y-12908183D02*
X13845167Y-12917707D01*
X13845167Y-12917707D02*
X13854691Y-12936755D01*
X13854691Y-12936755D02*
X13854691Y-13041517D01*
X13949929Y-13041517D02*
X13949929Y-12908183D01*
X13949929Y-12927231D02*
X13959453Y-12917707D01*
X13959453Y-12917707D02*
X13978500Y-12908183D01*
X13978500Y-12908183D02*
X14007072Y-12908183D01*
X14007072Y-12908183D02*
X14026119Y-12917707D01*
X14026119Y-12917707D02*
X14035643Y-12936755D01*
X14035643Y-12936755D02*
X14035643Y-13041517D01*
X14035643Y-12936755D02*
X14045167Y-12917707D01*
X14045167Y-12917707D02*
X14064214Y-12908183D01*
X14064214Y-12908183D02*
X14092786Y-12908183D01*
X14092786Y-12908183D02*
X14111834Y-12917707D01*
X14111834Y-12917707D02*
X14121357Y-12936755D01*
X14121357Y-12936755D02*
X14121357Y-13041517D01*
X14511834Y-12831993D02*
X14340405Y-13089136D01*
X14768976Y-12841517D02*
X14788024Y-12841517D01*
X14788024Y-12841517D02*
X14807072Y-12851041D01*
X14807072Y-12851041D02*
X14816596Y-12860564D01*
X14816596Y-12860564D02*
X14826119Y-12879612D01*
X14826119Y-12879612D02*
X14835643Y-12917707D01*
X14835643Y-12917707D02*
X14835643Y-12965326D01*
X14835643Y-12965326D02*
X14826119Y-13003421D01*
X14826119Y-13003421D02*
X14816596Y-13022469D01*
X14816596Y-13022469D02*
X14807072Y-13031993D01*
X14807072Y-13031993D02*
X14788024Y-13041517D01*
X14788024Y-13041517D02*
X14768976Y-13041517D01*
X14768976Y-13041517D02*
X14749929Y-13031993D01*
X14749929Y-13031993D02*
X14740405Y-13022469D01*
X14740405Y-13022469D02*
X14730881Y-13003421D01*
X14730881Y-13003421D02*
X14721357Y-12965326D01*
X14721357Y-12965326D02*
X14721357Y-12917707D01*
X14721357Y-12917707D02*
X14730881Y-12879612D01*
X14730881Y-12879612D02*
X14740405Y-12860564D01*
X14740405Y-12860564D02*
X14749929Y-12851041D01*
X14749929Y-12851041D02*
X14768976Y-12841517D01*
X14921357Y-13022469D02*
X14930881Y-13031993D01*
X14930881Y-13031993D02*
X14921357Y-13041517D01*
X14921357Y-13041517D02*
X14911834Y-13031993D01*
X14911834Y-13031993D02*
X14921357Y-13022469D01*
X14921357Y-13022469D02*
X14921357Y-13041517D01*
X15054691Y-12841517D02*
X15073738Y-12841517D01*
X15073738Y-12841517D02*
X15092786Y-12851041D01*
X15092786Y-12851041D02*
X15102310Y-12860564D01*
X15102310Y-12860564D02*
X15111834Y-12879612D01*
X15111834Y-12879612D02*
X15121357Y-12917707D01*
X15121357Y-12917707D02*
X15121357Y-12965326D01*
X15121357Y-12965326D02*
X15111834Y-13003421D01*
X15111834Y-13003421D02*
X15102310Y-13022469D01*
X15102310Y-13022469D02*
X15092786Y-13031993D01*
X15092786Y-13031993D02*
X15073738Y-13041517D01*
X15073738Y-13041517D02*
X15054691Y-13041517D01*
X15054691Y-13041517D02*
X15035643Y-13031993D01*
X15035643Y-13031993D02*
X15026119Y-13022469D01*
X15026119Y-13022469D02*
X15016596Y-13003421D01*
X15016596Y-13003421D02*
X15007072Y-12965326D01*
X15007072Y-12965326D02*
X15007072Y-12917707D01*
X15007072Y-12917707D02*
X15016596Y-12879612D01*
X15016596Y-12879612D02*
X15026119Y-12860564D01*
X15026119Y-12860564D02*
X15035643Y-12851041D01*
X15035643Y-12851041D02*
X15054691Y-12841517D01*
X15197548Y-12860564D02*
X15207072Y-12851041D01*
X15207072Y-12851041D02*
X15226119Y-12841517D01*
X15226119Y-12841517D02*
X15273738Y-12841517D01*
X15273738Y-12841517D02*
X15292786Y-12851041D01*
X15292786Y-12851041D02*
X15302310Y-12860564D01*
X15302310Y-12860564D02*
X15311834Y-12879612D01*
X15311834Y-12879612D02*
X15311834Y-12898660D01*
X15311834Y-12898660D02*
X15302310Y-12927231D01*
X15302310Y-12927231D02*
X15188024Y-13041517D01*
X15188024Y-13041517D02*
X15311834Y-13041517D01*
X15492786Y-12841517D02*
X15397548Y-12841517D01*
X15397548Y-12841517D02*
X15388024Y-12936755D01*
X15388024Y-12936755D02*
X15397548Y-12927231D01*
X15397548Y-12927231D02*
X15416596Y-12917707D01*
X15416596Y-12917707D02*
X15464215Y-12917707D01*
X15464215Y-12917707D02*
X15483262Y-12927231D01*
X15483262Y-12927231D02*
X15492786Y-12936755D01*
X15492786Y-12936755D02*
X15502310Y-12955802D01*
X15502310Y-12955802D02*
X15502310Y-13003421D01*
X15502310Y-13003421D02*
X15492786Y-13022469D01*
X15492786Y-13022469D02*
X15483262Y-13031993D01*
X15483262Y-13031993D02*
X15464215Y-13041517D01*
X15464215Y-13041517D02*
X15416596Y-13041517D01*
X15416596Y-13041517D02*
X15397548Y-13031993D01*
X15397548Y-13031993D02*
X15388024Y-13022469D01*
X15673738Y-12841517D02*
X15635643Y-12841517D01*
X15635643Y-12841517D02*
X15616596Y-12851041D01*
X15616596Y-12851041D02*
X15607072Y-12860564D01*
X15607072Y-12860564D02*
X15588024Y-12889136D01*
X15588024Y-12889136D02*
X15578500Y-12927231D01*
X15578500Y-12927231D02*
X15578500Y-13003421D01*
X15578500Y-13003421D02*
X15588024Y-13022469D01*
X15588024Y-13022469D02*
X15597548Y-13031993D01*
X15597548Y-13031993D02*
X15616596Y-13041517D01*
X15616596Y-13041517D02*
X15654691Y-13041517D01*
X15654691Y-13041517D02*
X15673738Y-13031993D01*
X15673738Y-13031993D02*
X15683262Y-13022469D01*
X15683262Y-13022469D02*
X15692786Y-13003421D01*
X15692786Y-13003421D02*
X15692786Y-12955802D01*
X15692786Y-12955802D02*
X15683262Y-12936755D01*
X15683262Y-12936755D02*
X15673738Y-12927231D01*
X15673738Y-12927231D02*
X15654691Y-12917707D01*
X15654691Y-12917707D02*
X15616596Y-12917707D01*
X15616596Y-12917707D02*
X15597548Y-12927231D01*
X15597548Y-12927231D02*
X15588024Y-12936755D01*
X15588024Y-12936755D02*
X15578500Y-12955802D01*
X15768977Y-12841517D02*
X15768977Y-12879612D01*
X15845167Y-12841517D02*
X15845167Y-12879612D01*
X16140405Y-13117707D02*
X16130881Y-13108183D01*
X16130881Y-13108183D02*
X16111834Y-13079612D01*
X16111834Y-13079612D02*
X16102310Y-13060564D01*
X16102310Y-13060564D02*
X16092786Y-13031993D01*
X16092786Y-13031993D02*
X16083262Y-12984374D01*
X16083262Y-12984374D02*
X16083262Y-12946279D01*
X16083262Y-12946279D02*
X16092786Y-12898660D01*
X16092786Y-12898660D02*
X16102310Y-12870088D01*
X16102310Y-12870088D02*
X16111834Y-12851041D01*
X16111834Y-12851041D02*
X16130881Y-12822469D01*
X16130881Y-12822469D02*
X16140405Y-12812945D01*
X16207072Y-12860564D02*
X16216596Y-12851041D01*
X16216596Y-12851041D02*
X16235643Y-12841517D01*
X16235643Y-12841517D02*
X16283262Y-12841517D01*
X16283262Y-12841517D02*
X16302310Y-12851041D01*
X16302310Y-12851041D02*
X16311834Y-12860564D01*
X16311834Y-12860564D02*
X16321358Y-12879612D01*
X16321358Y-12879612D02*
X16321358Y-12898660D01*
X16321358Y-12898660D02*
X16311834Y-12927231D01*
X16311834Y-12927231D02*
X16197548Y-13041517D01*
X16197548Y-13041517D02*
X16321358Y-13041517D01*
X16559453Y-13041517D02*
X16559453Y-12841517D01*
X16645167Y-13041517D02*
X16645167Y-12936755D01*
X16645167Y-12936755D02*
X16635643Y-12917707D01*
X16635643Y-12917707D02*
X16616596Y-12908183D01*
X16616596Y-12908183D02*
X16588024Y-12908183D01*
X16588024Y-12908183D02*
X16568977Y-12917707D01*
X16568977Y-12917707D02*
X16559453Y-12927231D01*
X16768977Y-13041517D02*
X16749929Y-13031993D01*
X16749929Y-13031993D02*
X16740405Y-13022469D01*
X16740405Y-13022469D02*
X16730881Y-13003421D01*
X16730881Y-13003421D02*
X16730881Y-12946279D01*
X16730881Y-12946279D02*
X16740405Y-12927231D01*
X16740405Y-12927231D02*
X16749929Y-12917707D01*
X16749929Y-12917707D02*
X16768977Y-12908183D01*
X16768977Y-12908183D02*
X16797548Y-12908183D01*
X16797548Y-12908183D02*
X16816596Y-12917707D01*
X16816596Y-12917707D02*
X16826120Y-12927231D01*
X16826120Y-12927231D02*
X16835643Y-12946279D01*
X16835643Y-12946279D02*
X16835643Y-13003421D01*
X16835643Y-13003421D02*
X16826120Y-13022469D01*
X16826120Y-13022469D02*
X16816596Y-13031993D01*
X16816596Y-13031993D02*
X16797548Y-13041517D01*
X16797548Y-13041517D02*
X16768977Y-13041517D01*
X16949929Y-13041517D02*
X16930882Y-13031993D01*
X16930882Y-13031993D02*
X16921358Y-13012945D01*
X16921358Y-13012945D02*
X16921358Y-12841517D01*
X17102310Y-13031993D02*
X17083263Y-13041517D01*
X17083263Y-13041517D02*
X17045167Y-13041517D01*
X17045167Y-13041517D02*
X17026120Y-13031993D01*
X17026120Y-13031993D02*
X17016596Y-13012945D01*
X17016596Y-13012945D02*
X17016596Y-12936755D01*
X17016596Y-12936755D02*
X17026120Y-12917707D01*
X17026120Y-12917707D02*
X17045167Y-12908183D01*
X17045167Y-12908183D02*
X17083263Y-12908183D01*
X17083263Y-12908183D02*
X17102310Y-12917707D01*
X17102310Y-12917707D02*
X17111834Y-12936755D01*
X17111834Y-12936755D02*
X17111834Y-12955802D01*
X17111834Y-12955802D02*
X17016596Y-12974850D01*
X17188024Y-13031993D02*
X17207072Y-13041517D01*
X17207072Y-13041517D02*
X17245167Y-13041517D01*
X17245167Y-13041517D02*
X17264215Y-13031993D01*
X17264215Y-13031993D02*
X17273739Y-13012945D01*
X17273739Y-13012945D02*
X17273739Y-13003421D01*
X17273739Y-13003421D02*
X17264215Y-12984374D01*
X17264215Y-12984374D02*
X17245167Y-12974850D01*
X17245167Y-12974850D02*
X17216596Y-12974850D01*
X17216596Y-12974850D02*
X17197548Y-12965326D01*
X17197548Y-12965326D02*
X17188024Y-12946279D01*
X17188024Y-12946279D02*
X17188024Y-12936755D01*
X17188024Y-12936755D02*
X17197548Y-12917707D01*
X17197548Y-12917707D02*
X17216596Y-12908183D01*
X17216596Y-12908183D02*
X17245167Y-12908183D01*
X17245167Y-12908183D02*
X17264215Y-12917707D01*
X17340405Y-13117707D02*
X17349929Y-13108183D01*
X17349929Y-13108183D02*
X17368977Y-13079612D01*
X17368977Y-13079612D02*
X17378501Y-13060564D01*
X17378501Y-13060564D02*
X17388024Y-13031993D01*
X17388024Y-13031993D02*
X17397548Y-12984374D01*
X17397548Y-12984374D02*
X17397548Y-12946279D01*
X17397548Y-12946279D02*
X17388024Y-12898660D01*
X17388024Y-12898660D02*
X17378501Y-12870088D01*
X17378501Y-12870088D02*
X17368977Y-12851041D01*
X17368977Y-12851041D02*
X17349929Y-12822469D01*
X17349929Y-12822469D02*
X17340405Y-12812945D01*
X17702310Y-13117707D02*
X17692786Y-13108183D01*
X17692786Y-13108183D02*
X17673739Y-13079612D01*
X17673739Y-13079612D02*
X17664215Y-13060564D01*
X17664215Y-13060564D02*
X17654691Y-13031993D01*
X17654691Y-13031993D02*
X17645167Y-12984374D01*
X17645167Y-12984374D02*
X17645167Y-12946279D01*
X17645167Y-12946279D02*
X17654691Y-12898660D01*
X17654691Y-12898660D02*
X17664215Y-12870088D01*
X17664215Y-12870088D02*
X17673739Y-12851041D01*
X17673739Y-12851041D02*
X17692786Y-12822469D01*
X17692786Y-12822469D02*
X17702310Y-12812945D01*
X17778501Y-12908183D02*
X17778501Y-13041517D01*
X17778501Y-12927231D02*
X17788024Y-12917707D01*
X17788024Y-12917707D02*
X17807072Y-12908183D01*
X17807072Y-12908183D02*
X17835644Y-12908183D01*
X17835644Y-12908183D02*
X17854691Y-12917707D01*
X17854691Y-12917707D02*
X17864215Y-12936755D01*
X17864215Y-12936755D02*
X17864215Y-13041517D01*
X17988024Y-13041517D02*
X17968977Y-13031993D01*
X17968977Y-13031993D02*
X17959453Y-13022469D01*
X17959453Y-13022469D02*
X17949929Y-13003421D01*
X17949929Y-13003421D02*
X17949929Y-12946279D01*
X17949929Y-12946279D02*
X17959453Y-12927231D01*
X17959453Y-12927231D02*
X17968977Y-12917707D01*
X17968977Y-12917707D02*
X17988024Y-12908183D01*
X17988024Y-12908183D02*
X18016596Y-12908183D01*
X18016596Y-12908183D02*
X18035644Y-12917707D01*
X18035644Y-12917707D02*
X18045167Y-12927231D01*
X18045167Y-12927231D02*
X18054691Y-12946279D01*
X18054691Y-12946279D02*
X18054691Y-13003421D01*
X18054691Y-13003421D02*
X18045167Y-13022469D01*
X18045167Y-13022469D02*
X18035644Y-13031993D01*
X18035644Y-13031993D02*
X18016596Y-13041517D01*
X18016596Y-13041517D02*
X17988024Y-13041517D01*
X18111834Y-12908183D02*
X18188024Y-12908183D01*
X18140405Y-12841517D02*
X18140405Y-13012945D01*
X18140405Y-13012945D02*
X18149929Y-13031993D01*
X18149929Y-13031993D02*
X18168977Y-13041517D01*
X18168977Y-13041517D02*
X18188024Y-13041517D01*
X18407072Y-12908183D02*
X18407072Y-13108183D01*
X18407072Y-12917707D02*
X18426120Y-12908183D01*
X18426120Y-12908183D02*
X18464215Y-12908183D01*
X18464215Y-12908183D02*
X18483263Y-12917707D01*
X18483263Y-12917707D02*
X18492786Y-12927231D01*
X18492786Y-12927231D02*
X18502310Y-12946279D01*
X18502310Y-12946279D02*
X18502310Y-13003421D01*
X18502310Y-13003421D02*
X18492786Y-13022469D01*
X18492786Y-13022469D02*
X18483263Y-13031993D01*
X18483263Y-13031993D02*
X18464215Y-13041517D01*
X18464215Y-13041517D02*
X18426120Y-13041517D01*
X18426120Y-13041517D02*
X18407072Y-13031993D01*
X18616596Y-13041517D02*
X18597548Y-13031993D01*
X18597548Y-13031993D02*
X18588025Y-13012945D01*
X18588025Y-13012945D02*
X18588025Y-12841517D01*
X18778501Y-13041517D02*
X18778501Y-12936755D01*
X18778501Y-12936755D02*
X18768977Y-12917707D01*
X18768977Y-12917707D02*
X18749929Y-12908183D01*
X18749929Y-12908183D02*
X18711834Y-12908183D01*
X18711834Y-12908183D02*
X18692786Y-12917707D01*
X18778501Y-13031993D02*
X18759453Y-13041517D01*
X18759453Y-13041517D02*
X18711834Y-13041517D01*
X18711834Y-13041517D02*
X18692786Y-13031993D01*
X18692786Y-13031993D02*
X18683263Y-13012945D01*
X18683263Y-13012945D02*
X18683263Y-12993898D01*
X18683263Y-12993898D02*
X18692786Y-12974850D01*
X18692786Y-12974850D02*
X18711834Y-12965326D01*
X18711834Y-12965326D02*
X18759453Y-12965326D01*
X18759453Y-12965326D02*
X18778501Y-12955802D01*
X18845167Y-12908183D02*
X18921358Y-12908183D01*
X18873739Y-12841517D02*
X18873739Y-13012945D01*
X18873739Y-13012945D02*
X18883263Y-13031993D01*
X18883263Y-13031993D02*
X18902310Y-13041517D01*
X18902310Y-13041517D02*
X18921358Y-13041517D01*
X19064215Y-13031993D02*
X19045167Y-13041517D01*
X19045167Y-13041517D02*
X19007072Y-13041517D01*
X19007072Y-13041517D02*
X18988025Y-13031993D01*
X18988025Y-13031993D02*
X18978501Y-13012945D01*
X18978501Y-13012945D02*
X18978501Y-12936755D01*
X18978501Y-12936755D02*
X18988025Y-12917707D01*
X18988025Y-12917707D02*
X19007072Y-12908183D01*
X19007072Y-12908183D02*
X19045167Y-12908183D01*
X19045167Y-12908183D02*
X19064215Y-12917707D01*
X19064215Y-12917707D02*
X19073739Y-12936755D01*
X19073739Y-12936755D02*
X19073739Y-12955802D01*
X19073739Y-12955802D02*
X18978501Y-12974850D01*
X19245167Y-13041517D02*
X19245167Y-12841517D01*
X19245167Y-13031993D02*
X19226120Y-13041517D01*
X19226120Y-13041517D02*
X19188025Y-13041517D01*
X19188025Y-13041517D02*
X19168977Y-13031993D01*
X19168977Y-13031993D02*
X19159453Y-13022469D01*
X19159453Y-13022469D02*
X19149929Y-13003421D01*
X19149929Y-13003421D02*
X19149929Y-12946279D01*
X19149929Y-12946279D02*
X19159453Y-12927231D01*
X19159453Y-12927231D02*
X19168977Y-12917707D01*
X19168977Y-12917707D02*
X19188025Y-12908183D01*
X19188025Y-12908183D02*
X19226120Y-12908183D01*
X19226120Y-12908183D02*
X19245167Y-12917707D01*
X19321358Y-13117707D02*
X19330882Y-13108183D01*
X19330882Y-13108183D02*
X19349929Y-13079612D01*
X19349929Y-13079612D02*
X19359453Y-13060564D01*
X19359453Y-13060564D02*
X19368977Y-13031993D01*
X19368977Y-13031993D02*
X19378501Y-12984374D01*
X19378501Y-12984374D02*
X19378501Y-12946279D01*
X19378501Y-12946279D02*
X19368977Y-12898660D01*
X19368977Y-12898660D02*
X19359453Y-12870088D01*
X19359453Y-12870088D02*
X19349929Y-12851041D01*
X19349929Y-12851041D02*
X19330882Y-12822469D01*
X19330882Y-12822469D02*
X19321358Y-12812945D01*
M02*
