G04 #@! TF.GenerationSoftware,KiCad,Pcbnew,(6.0.2-0)*
G04 #@! TF.CreationDate,2022-07-16T10:45:31+02:00*
G04 #@! TF.ProjectId,Crazyflie contol board,4372617a-7966-46c6-9965-20636f6e746f,2.2*
G04 #@! TF.SameCoordinates,Original*
G04 #@! TF.FileFunction,Legend,Bot*
G04 #@! TF.FilePolarity,Positive*
%FSLAX46Y46*%
G04 Gerber Fmt 4.6, Leading zero omitted, Abs format (unit mm)*
G04 Created by KiCad (PCBNEW (6.0.2-0)) date 2022-07-16 10:45:31*
%MOMM*%
%LPD*%
G01*
G04 APERTURE LIST*
G04 Aperture macros list*
%AMRoundRect*
0 Rectangle with rounded corners*
0 $1 Rounding radius*
0 $2 $3 $4 $5 $6 $7 $8 $9 X,Y pos of 4 corners*
0 Add a 4 corners polygon primitive as box body*
4,1,4,$2,$3,$4,$5,$6,$7,$8,$9,$2,$3,0*
0 Add four circle primitives for the rounded corners*
1,1,$1+$1,$2,$3*
1,1,$1+$1,$4,$5*
1,1,$1+$1,$6,$7*
1,1,$1+$1,$8,$9*
0 Add four rect primitives between the rounded corners*
20,1,$1+$1,$2,$3,$4,$5,0*
20,1,$1+$1,$4,$5,$6,$7,0*
20,1,$1+$1,$6,$7,$8,$9,0*
20,1,$1+$1,$8,$9,$2,$3,0*%
G04 Aperture macros list end*
%ADD10C,0.250190*%
%ADD11C,0.248920*%
%ADD12C,0.200025*%
%ADD13C,0.175000*%
%ADD14C,0.150000*%
%ADD15C,0.200660*%
%ADD16C,0.127000*%
%ADD17C,0.120000*%
%ADD18C,0.100000*%
%ADD19C,0.381000*%
%ADD20R,1.399540X1.000760*%
%ADD21O,1.399540X1.000760*%
%ADD22O,1.600200X1.198880*%
%ADD23C,0.523240*%
%ADD24RoundRect,0.071120X0.599440X-0.800100X0.599440X0.800100X-0.599440X0.800100X-0.599440X-0.800100X0*%
%ADD25O,1.341120X1.742440*%
%ADD26RoundRect,0.071120X0.350520X0.500380X-0.350520X0.500380X-0.350520X-0.500380X0.350520X-0.500380X0*%
%ADD27RoundRect,0.071120X-0.350520X-0.500380X0.350520X-0.500380X0.350520X0.500380X-0.350520X0.500380X0*%
%ADD28RoundRect,0.071120X0.500380X0.299720X-0.500380X0.299720X-0.500380X-0.299720X0.500380X-0.299720X0*%
%ADD29RoundRect,0.071120X0.317500X0.571500X-0.317500X0.571500X-0.317500X-0.571500X0.317500X-0.571500X0*%
%ADD30RoundRect,0.071120X-0.317500X-0.571500X0.317500X-0.571500X0.317500X0.571500X-0.317500X0.571500X0*%
%ADD31RoundRect,0.071120X-0.571500X0.317500X-0.571500X-0.317500X0.571500X-0.317500X0.571500X0.317500X0*%
%ADD32RoundRect,0.071120X0.571500X-0.317500X0.571500X0.317500X-0.571500X0.317500X-0.571500X-0.317500X0*%
%ADD33RoundRect,0.071120X0.699770X-0.500380X0.699770X0.500380X-0.699770X0.500380X-0.699770X-0.500380X0*%
%ADD34O,1.541780X1.143000*%
%ADD35RoundRect,0.071120X0.199390X-0.254000X0.199390X0.254000X-0.199390X0.254000X-0.199390X-0.254000X0*%
%ADD36RoundRect,0.071120X-0.900430X-0.949960X0.900430X-0.949960X0.900430X0.949960X-0.900430X0.949960X0*%
%ADD37RoundRect,0.071120X-0.949960X-0.949960X0.949960X-0.949960X0.949960X0.949960X-0.949960X0.949960X0*%
%ADD38RoundRect,0.071120X-0.900430X-0.549910X0.900430X-0.549910X0.900430X0.549910X-0.900430X0.549910X0*%
%ADD39RoundRect,0.071120X-1.050290X-0.800100X1.050290X-0.800100X1.050290X0.800100X-1.050290X0.800100X0*%
%ADD40RoundRect,0.071120X-0.599440X-0.949960X0.599440X-0.949960X0.599440X0.949960X-0.599440X0.949960X0*%
%ADD41RoundRect,0.071120X-0.199390X-0.699770X0.199390X-0.699770X0.199390X0.699770X-0.199390X0.699770X0*%
%ADD42O,1.742440X1.341120*%
%ADD43RoundRect,0.071120X-0.457200X-0.457200X0.457200X-0.457200X0.457200X0.457200X-0.457200X0.457200X0*%
%ADD44RoundRect,0.071120X-0.457200X0.457200X-0.457200X-0.457200X0.457200X-0.457200X0.457200X0.457200X0*%
%ADD45RoundRect,0.071120X0.000000X0.563960X-0.563960X0.000000X0.000000X-0.563960X0.563960X0.000000X0*%
%ADD46O,2.642240X1.042240*%
%ADD47O,1.042240X2.642240*%
%ADD48RoundRect,0.071120X3.000000X3.000000X-3.000000X3.000000X-3.000000X-3.000000X3.000000X-3.000000X0*%
%ADD49RoundRect,0.071120X0.400000X-0.300000X0.400000X0.300000X-0.400000X0.300000X-0.400000X-0.300000X0*%
%ADD50RoundRect,0.071120X-0.150000X0.400000X-0.150000X-0.400000X0.150000X-0.400000X0.150000X0.400000X0*%
%ADD51RoundRect,0.071120X-0.425000X0.150000X-0.425000X-0.150000X0.425000X-0.150000X0.425000X0.150000X0*%
%ADD52C,0.522240*%
%ADD53RoundRect,0.071120X-1.275000X1.275000X-1.275000X-1.275000X1.275000X-1.275000X1.275000X1.275000X0*%
%ADD54C,1.500000*%
G04 APERTURE END LIST*
D10*
X154272342Y-97581961D02*
X154272342Y-96819478D01*
X153819618Y-99271182D02*
X154582101Y-99271182D01*
X154200860Y-99652424D02*
X154200860Y-98889940D01*
D11*
X151421482Y-105781241D02*
X151421482Y-105018758D01*
D12*
X149609600Y-85911850D02*
X149609600Y-86559550D01*
X149571500Y-86635750D01*
X149533400Y-86673850D01*
X149457200Y-86711950D01*
X149304800Y-86711950D01*
X149228600Y-86673850D01*
X149190500Y-86635750D01*
X149152400Y-86559550D01*
X149152400Y-85911850D01*
X148847600Y-85911850D02*
X148314200Y-85911850D01*
X148657100Y-86711950D01*
X156261850Y-109290400D02*
X156909550Y-109290400D01*
X156985750Y-109328500D01*
X157023850Y-109366600D01*
X157061950Y-109442800D01*
X157061950Y-109595200D01*
X157023850Y-109671400D01*
X156985750Y-109709500D01*
X156909550Y-109747600D01*
X156261850Y-109747600D01*
X157061950Y-110166700D02*
X157061950Y-110319100D01*
X157023850Y-110395300D01*
X156985750Y-110433400D01*
X156871450Y-110509600D01*
X156719050Y-110547700D01*
X156414250Y-110547700D01*
X156338050Y-110509600D01*
X156299950Y-110471500D01*
X156261850Y-110395300D01*
X156261850Y-110242900D01*
X156299950Y-110166700D01*
X156338050Y-110128600D01*
X156414250Y-110090500D01*
X156604750Y-110090500D01*
X156680950Y-110128600D01*
X156719050Y-110166700D01*
X156757150Y-110242900D01*
X156757150Y-110395300D01*
X156719050Y-110471500D01*
X156680950Y-110509600D01*
X156604750Y-110547700D01*
X143590550Y-106361950D02*
X143590550Y-105561850D01*
X143400050Y-105561850D01*
X143285750Y-105599950D01*
X143209550Y-105676150D01*
X143171450Y-105752350D01*
X143133350Y-105904750D01*
X143133350Y-106019050D01*
X143171450Y-106171450D01*
X143209550Y-106247650D01*
X143285750Y-106323850D01*
X143400050Y-106361950D01*
X143590550Y-106361950D01*
X142371350Y-106361950D02*
X142828550Y-106361950D01*
X142599950Y-106361950D02*
X142599950Y-105561850D01*
X142676150Y-105676150D01*
X142752350Y-105752350D01*
X142828550Y-105790450D01*
D13*
X143516666Y-108766666D02*
X143516666Y-108066666D01*
X143350000Y-108066666D01*
X143250000Y-108100000D01*
X143183333Y-108166666D01*
X143150000Y-108233333D01*
X143116666Y-108366666D01*
X143116666Y-108466666D01*
X143150000Y-108600000D01*
X143183333Y-108666666D01*
X143250000Y-108733333D01*
X143350000Y-108766666D01*
X143516666Y-108766666D01*
X142850000Y-108133333D02*
X142816666Y-108100000D01*
X142750000Y-108066666D01*
X142583333Y-108066666D01*
X142516666Y-108100000D01*
X142483333Y-108133333D01*
X142450000Y-108200000D01*
X142450000Y-108266666D01*
X142483333Y-108366666D01*
X142883333Y-108766666D01*
X142450000Y-108766666D01*
X143516666Y-112166666D02*
X143516666Y-111466666D01*
X143350000Y-111466666D01*
X143250000Y-111500000D01*
X143183333Y-111566666D01*
X143150000Y-111633333D01*
X143116666Y-111766666D01*
X143116666Y-111866666D01*
X143150000Y-112000000D01*
X143183333Y-112066666D01*
X143250000Y-112133333D01*
X143350000Y-112166666D01*
X143516666Y-112166666D01*
X142883333Y-111466666D02*
X142450000Y-111466666D01*
X142683333Y-111733333D01*
X142583333Y-111733333D01*
X142516666Y-111766666D01*
X142483333Y-111800000D01*
X142450000Y-111866666D01*
X142450000Y-112033333D01*
X142483333Y-112100000D01*
X142516666Y-112133333D01*
X142583333Y-112166666D01*
X142783333Y-112166666D01*
X142850000Y-112133333D01*
X142883333Y-112100000D01*
D12*
X143590550Y-115462050D02*
X143590550Y-114661950D01*
X143400050Y-114661950D01*
X143285750Y-114700050D01*
X143209550Y-114776250D01*
X143171450Y-114852450D01*
X143133350Y-115004850D01*
X143133350Y-115119150D01*
X143171450Y-115271550D01*
X143209550Y-115347750D01*
X143285750Y-115423950D01*
X143400050Y-115462050D01*
X143590550Y-115462050D01*
X142447550Y-114928650D02*
X142447550Y-115462050D01*
X142638050Y-114623850D02*
X142828550Y-115195350D01*
X142333250Y-115195350D01*
X156014350Y-89285750D02*
X156052450Y-89323850D01*
X156166750Y-89361950D01*
X156242950Y-89361950D01*
X156357250Y-89323850D01*
X156433450Y-89247650D01*
X156471550Y-89171450D01*
X156509650Y-89019050D01*
X156509650Y-88904750D01*
X156471550Y-88752350D01*
X156433450Y-88676150D01*
X156357250Y-88599950D01*
X156242950Y-88561850D01*
X156166750Y-88561850D01*
X156052450Y-88599950D01*
X156014350Y-88638050D01*
X155709550Y-88638050D02*
X155671450Y-88599950D01*
X155595250Y-88561850D01*
X155404750Y-88561850D01*
X155328550Y-88599950D01*
X155290450Y-88638050D01*
X155252350Y-88714250D01*
X155252350Y-88790450D01*
X155290450Y-88904750D01*
X155747650Y-89361950D01*
X155252350Y-89361950D01*
X154871350Y-89361950D02*
X154718950Y-89361950D01*
X154642750Y-89323850D01*
X154604650Y-89285750D01*
X154528450Y-89171450D01*
X154490350Y-89019050D01*
X154490350Y-88714250D01*
X154528450Y-88638050D01*
X154566550Y-88599950D01*
X154642750Y-88561850D01*
X154795150Y-88561850D01*
X154871350Y-88599950D01*
X154909450Y-88638050D01*
X154947550Y-88714250D01*
X154947550Y-88904750D01*
X154909450Y-88980950D01*
X154871350Y-89019050D01*
X154795150Y-89057150D01*
X154642750Y-89057150D01*
X154566550Y-89019050D01*
X154528450Y-88980950D01*
X154490350Y-88904750D01*
X156014350Y-87887810D02*
X156052450Y-87925910D01*
X156166750Y-87964010D01*
X156242950Y-87964010D01*
X156357250Y-87925910D01*
X156433450Y-87849710D01*
X156471550Y-87773510D01*
X156509650Y-87621110D01*
X156509650Y-87506810D01*
X156471550Y-87354410D01*
X156433450Y-87278210D01*
X156357250Y-87202010D01*
X156242950Y-87163910D01*
X156166750Y-87163910D01*
X156052450Y-87202010D01*
X156014350Y-87240110D01*
X155747650Y-87163910D02*
X155252350Y-87163910D01*
X155519050Y-87468710D01*
X155404750Y-87468710D01*
X155328550Y-87506810D01*
X155290450Y-87544910D01*
X155252350Y-87621110D01*
X155252350Y-87811610D01*
X155290450Y-87887810D01*
X155328550Y-87925910D01*
X155404750Y-87964010D01*
X155633350Y-87964010D01*
X155709550Y-87925910D01*
X155747650Y-87887810D01*
X154757050Y-87163910D02*
X154680850Y-87163910D01*
X154604650Y-87202010D01*
X154566550Y-87240110D01*
X154528450Y-87316310D01*
X154490350Y-87468710D01*
X154490350Y-87659210D01*
X154528450Y-87811610D01*
X154566550Y-87887810D01*
X154604650Y-87925910D01*
X154680850Y-87964010D01*
X154757050Y-87964010D01*
X154833250Y-87925910D01*
X154871350Y-87887810D01*
X154909450Y-87811610D01*
X154947550Y-87659210D01*
X154947550Y-87468710D01*
X154909450Y-87316310D01*
X154871350Y-87240110D01*
X154833250Y-87202010D01*
X154757050Y-87163910D01*
D14*
X151864285Y-91614285D02*
X151892857Y-91585714D01*
X151921428Y-91500000D01*
X151921428Y-91442857D01*
X151892857Y-91357142D01*
X151835714Y-91300000D01*
X151778571Y-91271428D01*
X151664285Y-91242857D01*
X151578571Y-91242857D01*
X151464285Y-91271428D01*
X151407142Y-91300000D01*
X151350000Y-91357142D01*
X151321428Y-91442857D01*
X151321428Y-91500000D01*
X151350000Y-91585714D01*
X151378571Y-91614285D01*
X151321428Y-91814285D02*
X151321428Y-92185714D01*
X151550000Y-91985714D01*
X151550000Y-92071428D01*
X151578571Y-92128571D01*
X151607142Y-92157142D01*
X151664285Y-92185714D01*
X151807142Y-92185714D01*
X151864285Y-92157142D01*
X151892857Y-92128571D01*
X151921428Y-92071428D01*
X151921428Y-91900000D01*
X151892857Y-91842857D01*
X151864285Y-91814285D01*
X151921428Y-92757142D02*
X151921428Y-92414285D01*
X151921428Y-92585714D02*
X151321428Y-92585714D01*
X151407142Y-92528571D01*
X151464285Y-92471428D01*
X151492857Y-92414285D01*
D12*
X144714350Y-90835750D02*
X144752450Y-90873850D01*
X144866750Y-90911950D01*
X144942950Y-90911950D01*
X145057250Y-90873850D01*
X145133450Y-90797650D01*
X145171550Y-90721450D01*
X145209650Y-90569050D01*
X145209650Y-90454750D01*
X145171550Y-90302350D01*
X145133450Y-90226150D01*
X145057250Y-90149950D01*
X144942950Y-90111850D01*
X144866750Y-90111850D01*
X144752450Y-90149950D01*
X144714350Y-90188050D01*
X144447650Y-90111850D02*
X143952350Y-90111850D01*
X144219050Y-90416650D01*
X144104750Y-90416650D01*
X144028550Y-90454750D01*
X143990450Y-90492850D01*
X143952350Y-90569050D01*
X143952350Y-90759550D01*
X143990450Y-90835750D01*
X144028550Y-90873850D01*
X144104750Y-90911950D01*
X144333350Y-90911950D01*
X144409550Y-90873850D01*
X144447650Y-90835750D01*
X143647550Y-90188050D02*
X143609450Y-90149950D01*
X143533250Y-90111850D01*
X143342750Y-90111850D01*
X143266550Y-90149950D01*
X143228450Y-90188050D01*
X143190350Y-90264250D01*
X143190350Y-90340450D01*
X143228450Y-90454750D01*
X143685650Y-90911950D01*
X143190350Y-90911950D01*
X152015190Y-115185750D02*
X152053290Y-115223850D01*
X152167590Y-115261950D01*
X152243790Y-115261950D01*
X152358090Y-115223850D01*
X152434290Y-115147650D01*
X152472390Y-115071450D01*
X152510490Y-114919050D01*
X152510490Y-114804750D01*
X152472390Y-114652350D01*
X152434290Y-114576150D01*
X152358090Y-114499950D01*
X152243790Y-114461850D01*
X152167590Y-114461850D01*
X152053290Y-114499950D01*
X152015190Y-114538050D01*
X151748490Y-114461850D02*
X151253190Y-114461850D01*
X151519890Y-114766650D01*
X151405590Y-114766650D01*
X151329390Y-114804750D01*
X151291290Y-114842850D01*
X151253190Y-114919050D01*
X151253190Y-115109550D01*
X151291290Y-115185750D01*
X151329390Y-115223850D01*
X151405590Y-115261950D01*
X151634190Y-115261950D01*
X151710390Y-115223850D01*
X151748490Y-115185750D01*
X150529290Y-114461850D02*
X150910290Y-114461850D01*
X150948390Y-114842850D01*
X150910290Y-114804750D01*
X150834090Y-114766650D01*
X150643590Y-114766650D01*
X150567390Y-114804750D01*
X150529290Y-114842850D01*
X150491190Y-114919050D01*
X150491190Y-115109550D01*
X150529290Y-115185750D01*
X150567390Y-115223850D01*
X150643590Y-115261950D01*
X150834090Y-115261950D01*
X150910290Y-115223850D01*
X150948390Y-115185750D01*
X127364350Y-92285750D02*
X127402450Y-92323850D01*
X127516750Y-92361950D01*
X127592950Y-92361950D01*
X127707250Y-92323850D01*
X127783450Y-92247650D01*
X127821550Y-92171450D01*
X127859650Y-92019050D01*
X127859650Y-91904750D01*
X127821550Y-91752350D01*
X127783450Y-91676150D01*
X127707250Y-91599950D01*
X127592950Y-91561850D01*
X127516750Y-91561850D01*
X127402450Y-91599950D01*
X127364350Y-91638050D01*
X127097650Y-91561850D02*
X126602350Y-91561850D01*
X126869050Y-91866650D01*
X126754750Y-91866650D01*
X126678550Y-91904750D01*
X126640450Y-91942850D01*
X126602350Y-92019050D01*
X126602350Y-92209550D01*
X126640450Y-92285750D01*
X126678550Y-92323850D01*
X126754750Y-92361950D01*
X126983350Y-92361950D01*
X127059550Y-92323850D01*
X127097650Y-92285750D01*
X125916550Y-91561850D02*
X126068950Y-91561850D01*
X126145150Y-91599950D01*
X126183250Y-91638050D01*
X126259450Y-91752350D01*
X126297550Y-91904750D01*
X126297550Y-92209550D01*
X126259450Y-92285750D01*
X126221350Y-92323850D01*
X126145150Y-92361950D01*
X125992750Y-92361950D01*
X125916550Y-92323850D01*
X125878450Y-92285750D01*
X125840350Y-92209550D01*
X125840350Y-92019050D01*
X125878450Y-91942850D01*
X125916550Y-91904750D01*
X125992750Y-91866650D01*
X126145150Y-91866650D01*
X126221350Y-91904750D01*
X126259450Y-91942850D01*
X126297550Y-92019050D01*
X149835750Y-116985650D02*
X149873850Y-116947550D01*
X149911950Y-116833250D01*
X149911950Y-116757050D01*
X149873850Y-116642750D01*
X149797650Y-116566550D01*
X149721450Y-116528450D01*
X149569050Y-116490350D01*
X149454750Y-116490350D01*
X149302350Y-116528450D01*
X149226150Y-116566550D01*
X149149950Y-116642750D01*
X149111850Y-116757050D01*
X149111850Y-116833250D01*
X149149950Y-116947550D01*
X149188050Y-116985650D01*
X149111850Y-117252350D02*
X149111850Y-117747650D01*
X149416650Y-117480950D01*
X149416650Y-117595250D01*
X149454750Y-117671450D01*
X149492850Y-117709550D01*
X149569050Y-117747650D01*
X149759550Y-117747650D01*
X149835750Y-117709550D01*
X149873850Y-117671450D01*
X149911950Y-117595250D01*
X149911950Y-117366650D01*
X149873850Y-117290450D01*
X149835750Y-117252350D01*
X149111850Y-118014350D02*
X149111850Y-118547750D01*
X149911950Y-118204850D01*
X155514350Y-107389930D02*
X155552450Y-107428030D01*
X155666750Y-107466130D01*
X155742950Y-107466130D01*
X155857250Y-107428030D01*
X155933450Y-107351830D01*
X155971550Y-107275630D01*
X156009650Y-107123230D01*
X156009650Y-107008930D01*
X155971550Y-106856530D01*
X155933450Y-106780330D01*
X155857250Y-106704130D01*
X155742950Y-106666030D01*
X155666750Y-106666030D01*
X155552450Y-106704130D01*
X155514350Y-106742230D01*
X155247650Y-106666030D02*
X154752350Y-106666030D01*
X155019050Y-106970830D01*
X154904750Y-106970830D01*
X154828550Y-107008930D01*
X154790450Y-107047030D01*
X154752350Y-107123230D01*
X154752350Y-107313730D01*
X154790450Y-107389930D01*
X154828550Y-107428030D01*
X154904750Y-107466130D01*
X155133350Y-107466130D01*
X155209550Y-107428030D01*
X155247650Y-107389930D01*
X154295150Y-107008930D02*
X154371350Y-106970830D01*
X154409450Y-106932730D01*
X154447550Y-106856530D01*
X154447550Y-106818430D01*
X154409450Y-106742230D01*
X154371350Y-106704130D01*
X154295150Y-106666030D01*
X154142750Y-106666030D01*
X154066550Y-106704130D01*
X154028450Y-106742230D01*
X153990350Y-106818430D01*
X153990350Y-106856530D01*
X154028450Y-106932730D01*
X154066550Y-106970830D01*
X154142750Y-107008930D01*
X154295150Y-107008930D01*
X154371350Y-107047030D01*
X154409450Y-107085130D01*
X154447550Y-107161330D01*
X154447550Y-107313730D01*
X154409450Y-107389930D01*
X154371350Y-107428030D01*
X154295150Y-107466130D01*
X154142750Y-107466130D01*
X154066550Y-107428030D01*
X154028450Y-107389930D01*
X153990350Y-107313730D01*
X153990350Y-107161330D01*
X154028450Y-107085130D01*
X154066550Y-107047030D01*
X154142750Y-107008930D01*
D13*
X151250000Y-96550000D02*
X151283333Y-96516666D01*
X151316666Y-96416666D01*
X151316666Y-96350000D01*
X151283333Y-96250000D01*
X151216666Y-96183333D01*
X151150000Y-96150000D01*
X151016666Y-96116666D01*
X150916666Y-96116666D01*
X150783333Y-96150000D01*
X150716666Y-96183333D01*
X150650000Y-96250000D01*
X150616666Y-96350000D01*
X150616666Y-96416666D01*
X150650000Y-96516666D01*
X150683333Y-96550000D01*
X150616666Y-96783333D02*
X150616666Y-97216666D01*
X150883333Y-96983333D01*
X150883333Y-97083333D01*
X150916666Y-97150000D01*
X150950000Y-97183333D01*
X151016666Y-97216666D01*
X151183333Y-97216666D01*
X151250000Y-97183333D01*
X151283333Y-97150000D01*
X151316666Y-97083333D01*
X151316666Y-96883333D01*
X151283333Y-96816666D01*
X151250000Y-96783333D01*
X151316666Y-97550000D02*
X151316666Y-97683333D01*
X151283333Y-97750000D01*
X151250000Y-97783333D01*
X151150000Y-97850000D01*
X151016666Y-97883333D01*
X150750000Y-97883333D01*
X150683333Y-97850000D01*
X150650000Y-97816666D01*
X150616666Y-97750000D01*
X150616666Y-97616666D01*
X150650000Y-97550000D01*
X150683333Y-97516666D01*
X150750000Y-97483333D01*
X150916666Y-97483333D01*
X150983333Y-97516666D01*
X151016666Y-97550000D01*
X151050000Y-97616666D01*
X151050000Y-97750000D01*
X151016666Y-97816666D01*
X150983333Y-97850000D01*
X150916666Y-97883333D01*
D12*
X153035750Y-116035650D02*
X153073850Y-115997550D01*
X153111950Y-115883250D01*
X153111950Y-115807050D01*
X153073850Y-115692750D01*
X152997650Y-115616550D01*
X152921450Y-115578450D01*
X152769050Y-115540350D01*
X152654750Y-115540350D01*
X152502350Y-115578450D01*
X152426150Y-115616550D01*
X152349950Y-115692750D01*
X152311850Y-115807050D01*
X152311850Y-115883250D01*
X152349950Y-115997550D01*
X152388050Y-116035650D01*
X152578550Y-116721450D02*
X153111950Y-116721450D01*
X152273750Y-116530950D02*
X152845250Y-116340450D01*
X152845250Y-116835750D01*
X152311850Y-117292950D02*
X152311850Y-117369150D01*
X152349950Y-117445350D01*
X152388050Y-117483450D01*
X152464250Y-117521550D01*
X152616650Y-117559650D01*
X152807150Y-117559650D01*
X152959550Y-117521550D01*
X153035750Y-117483450D01*
X153073850Y-117445350D01*
X153111950Y-117369150D01*
X153111950Y-117292950D01*
X153073850Y-117216750D01*
X153035750Y-117178650D01*
X152959550Y-117140550D01*
X152807150Y-117102450D01*
X152616650Y-117102450D01*
X152464250Y-117140550D01*
X152388050Y-117178650D01*
X152349950Y-117216750D01*
X152311850Y-117292950D01*
X146285750Y-101935650D02*
X146323850Y-101897550D01*
X146361950Y-101783250D01*
X146361950Y-101707050D01*
X146323850Y-101592750D01*
X146247650Y-101516550D01*
X146171450Y-101478450D01*
X146019050Y-101440350D01*
X145904750Y-101440350D01*
X145752350Y-101478450D01*
X145676150Y-101516550D01*
X145599950Y-101592750D01*
X145561850Y-101707050D01*
X145561850Y-101783250D01*
X145599950Y-101897550D01*
X145638050Y-101935650D01*
X145828550Y-102621450D02*
X146361950Y-102621450D01*
X145523750Y-102430950D02*
X146095250Y-102240450D01*
X146095250Y-102735750D01*
X146361950Y-103459650D02*
X146361950Y-103002450D01*
X146361950Y-103231050D02*
X145561850Y-103231050D01*
X145676150Y-103154850D01*
X145752350Y-103078650D01*
X145790450Y-103002450D01*
X131073030Y-97834050D02*
X131111130Y-97795950D01*
X131149230Y-97681650D01*
X131149230Y-97605450D01*
X131111130Y-97491150D01*
X131034930Y-97414950D01*
X130958730Y-97376850D01*
X130806330Y-97338750D01*
X130692030Y-97338750D01*
X130539630Y-97376850D01*
X130463430Y-97414950D01*
X130387230Y-97491150D01*
X130349130Y-97605450D01*
X130349130Y-97681650D01*
X130387230Y-97795950D01*
X130425330Y-97834050D01*
X130615830Y-98519850D02*
X131149230Y-98519850D01*
X130311030Y-98329350D02*
X130882530Y-98138850D01*
X130882530Y-98634150D01*
X145294350Y-92454730D02*
X145561050Y-92073730D01*
X145751550Y-92454730D02*
X145751550Y-91654630D01*
X145446750Y-91654630D01*
X145370550Y-91692730D01*
X145332450Y-91730830D01*
X145294350Y-91807030D01*
X145294350Y-91921330D01*
X145332450Y-91997530D01*
X145370550Y-92035630D01*
X145446750Y-92073730D01*
X145751550Y-92073730D01*
X144532350Y-92454730D02*
X144989550Y-92454730D01*
X144760950Y-92454730D02*
X144760950Y-91654630D01*
X144837150Y-91768930D01*
X144913350Y-91845130D01*
X144989550Y-91883230D01*
X144151350Y-92454730D02*
X143998950Y-92454730D01*
X143922750Y-92416630D01*
X143884650Y-92378530D01*
X143808450Y-92264230D01*
X143770350Y-92111830D01*
X143770350Y-91807030D01*
X143808450Y-91730830D01*
X143846550Y-91692730D01*
X143922750Y-91654630D01*
X144075150Y-91654630D01*
X144151350Y-91692730D01*
X144189450Y-91730830D01*
X144227550Y-91807030D01*
X144227550Y-91997530D01*
X144189450Y-92073730D01*
X144151350Y-92111830D01*
X144075150Y-92149930D01*
X143922750Y-92149930D01*
X143846550Y-92111830D01*
X143808450Y-92073730D01*
X143770350Y-91997530D01*
X144914350Y-88961950D02*
X145181050Y-88580950D01*
X145371550Y-88961950D02*
X145371550Y-88161850D01*
X145066750Y-88161850D01*
X144990550Y-88199950D01*
X144952450Y-88238050D01*
X144914350Y-88314250D01*
X144914350Y-88428550D01*
X144952450Y-88504750D01*
X144990550Y-88542850D01*
X145066750Y-88580950D01*
X145371550Y-88580950D01*
X144152350Y-88961950D02*
X144609550Y-88961950D01*
X144380950Y-88961950D02*
X144380950Y-88161850D01*
X144457150Y-88276150D01*
X144533350Y-88352350D01*
X144609550Y-88390450D01*
X143695150Y-88504750D02*
X143771350Y-88466650D01*
X143809450Y-88428550D01*
X143847550Y-88352350D01*
X143847550Y-88314250D01*
X143809450Y-88238050D01*
X143771350Y-88199950D01*
X143695150Y-88161850D01*
X143542750Y-88161850D01*
X143466550Y-88199950D01*
X143428450Y-88238050D01*
X143390350Y-88314250D01*
X143390350Y-88352350D01*
X143428450Y-88428550D01*
X143466550Y-88466650D01*
X143542750Y-88504750D01*
X143695150Y-88504750D01*
X143771350Y-88542850D01*
X143809450Y-88580950D01*
X143847550Y-88657150D01*
X143847550Y-88809550D01*
X143809450Y-88885750D01*
X143771350Y-88923850D01*
X143695150Y-88961950D01*
X143542750Y-88961950D01*
X143466550Y-88923850D01*
X143428450Y-88885750D01*
X143390350Y-88809550D01*
X143390350Y-88657150D01*
X143428450Y-88580950D01*
X143466550Y-88542850D01*
X143542750Y-88504750D01*
X147114350Y-93961950D02*
X147381050Y-93580950D01*
X147571550Y-93961950D02*
X147571550Y-93161850D01*
X147266750Y-93161850D01*
X147190550Y-93199950D01*
X147152450Y-93238050D01*
X147114350Y-93314250D01*
X147114350Y-93428550D01*
X147152450Y-93504750D01*
X147190550Y-93542850D01*
X147266750Y-93580950D01*
X147571550Y-93580950D01*
X146352350Y-93961950D02*
X146809550Y-93961950D01*
X146580950Y-93961950D02*
X146580950Y-93161850D01*
X146657150Y-93276150D01*
X146733350Y-93352350D01*
X146809550Y-93390450D01*
X146085650Y-93161850D02*
X145552250Y-93161850D01*
X145895150Y-93961950D01*
X156014350Y-90864690D02*
X156281050Y-90483690D01*
X156471550Y-90864690D02*
X156471550Y-90064590D01*
X156166750Y-90064590D01*
X156090550Y-90102690D01*
X156052450Y-90140790D01*
X156014350Y-90216990D01*
X156014350Y-90331290D01*
X156052450Y-90407490D01*
X156090550Y-90445590D01*
X156166750Y-90483690D01*
X156471550Y-90483690D01*
X155252350Y-90864690D02*
X155709550Y-90864690D01*
X155480950Y-90864690D02*
X155480950Y-90064590D01*
X155557150Y-90178890D01*
X155633350Y-90255090D01*
X155709550Y-90293190D01*
X154566550Y-90064590D02*
X154718950Y-90064590D01*
X154795150Y-90102690D01*
X154833250Y-90140790D01*
X154909450Y-90255090D01*
X154947550Y-90407490D01*
X154947550Y-90712290D01*
X154909450Y-90788490D01*
X154871350Y-90826590D01*
X154795150Y-90864690D01*
X154642750Y-90864690D01*
X154566550Y-90826590D01*
X154528450Y-90788490D01*
X154490350Y-90712290D01*
X154490350Y-90521790D01*
X154528450Y-90445590D01*
X154566550Y-90407490D01*
X154642750Y-90369390D01*
X154795150Y-90369390D01*
X154871350Y-90407490D01*
X154909450Y-90445590D01*
X154947550Y-90521790D01*
X155611950Y-110685650D02*
X155230950Y-110418950D01*
X155611950Y-110228450D02*
X154811850Y-110228450D01*
X154811850Y-110533250D01*
X154849950Y-110609450D01*
X154888050Y-110647550D01*
X154964250Y-110685650D01*
X155078550Y-110685650D01*
X155154750Y-110647550D01*
X155192850Y-110609450D01*
X155230950Y-110533250D01*
X155230950Y-110228450D01*
X154888050Y-110990450D02*
X154849950Y-111028550D01*
X154811850Y-111104750D01*
X154811850Y-111295250D01*
X154849950Y-111371450D01*
X154888050Y-111409550D01*
X154964250Y-111447650D01*
X155040450Y-111447650D01*
X155154750Y-111409550D01*
X155611950Y-110952350D01*
X155611950Y-111447650D01*
X154811850Y-111942950D02*
X154811850Y-112019150D01*
X154849950Y-112095350D01*
X154888050Y-112133450D01*
X154964250Y-112171550D01*
X155116650Y-112209650D01*
X155307150Y-112209650D01*
X155459550Y-112171550D01*
X155535750Y-112133450D01*
X155573850Y-112095350D01*
X155611950Y-112019150D01*
X155611950Y-111942950D01*
X155573850Y-111866750D01*
X155535750Y-111828650D01*
X155459550Y-111790550D01*
X155307150Y-111752450D01*
X155116650Y-111752450D01*
X154964250Y-111790550D01*
X154888050Y-111828650D01*
X154849950Y-111866750D01*
X154811850Y-111942950D01*
X148411950Y-106135650D02*
X148030950Y-105868950D01*
X148411950Y-105678450D02*
X147611850Y-105678450D01*
X147611850Y-105983250D01*
X147649950Y-106059450D01*
X147688050Y-106097550D01*
X147764250Y-106135650D01*
X147878550Y-106135650D01*
X147954750Y-106097550D01*
X147992850Y-106059450D01*
X148030950Y-105983250D01*
X148030950Y-105678450D01*
X147688050Y-106440450D02*
X147649950Y-106478550D01*
X147611850Y-106554750D01*
X147611850Y-106745250D01*
X147649950Y-106821450D01*
X147688050Y-106859550D01*
X147764250Y-106897650D01*
X147840450Y-106897650D01*
X147954750Y-106859550D01*
X148411950Y-106402350D01*
X148411950Y-106897650D01*
X148411950Y-107659650D02*
X148411950Y-107202450D01*
X148411950Y-107431050D02*
X147611850Y-107431050D01*
X147726150Y-107354850D01*
X147802350Y-107278650D01*
X147840450Y-107202450D01*
X155661950Y-108489750D02*
X155280950Y-108223050D01*
X155661950Y-108032550D02*
X154861850Y-108032550D01*
X154861850Y-108337350D01*
X154899950Y-108413550D01*
X154938050Y-108451650D01*
X155014250Y-108489750D01*
X155128550Y-108489750D01*
X155204750Y-108451650D01*
X155242850Y-108413550D01*
X155280950Y-108337350D01*
X155280950Y-108032550D01*
X154938050Y-108794550D02*
X154899950Y-108832650D01*
X154861850Y-108908850D01*
X154861850Y-109099350D01*
X154899950Y-109175550D01*
X154938050Y-109213650D01*
X155014250Y-109251750D01*
X155090450Y-109251750D01*
X155204750Y-109213650D01*
X155661950Y-108756450D01*
X155661950Y-109251750D01*
X154861850Y-109518450D02*
X154861850Y-110013750D01*
X155166650Y-109747050D01*
X155166650Y-109861350D01*
X155204750Y-109937550D01*
X155242850Y-109975650D01*
X155319050Y-110013750D01*
X155509550Y-110013750D01*
X155585750Y-109975650D01*
X155623850Y-109937550D01*
X155661950Y-109861350D01*
X155661950Y-109632750D01*
X155623850Y-109556550D01*
X155585750Y-109518450D01*
X148411950Y-115985650D02*
X148030950Y-115718950D01*
X148411950Y-115528450D02*
X147611850Y-115528450D01*
X147611850Y-115833250D01*
X147649950Y-115909450D01*
X147688050Y-115947550D01*
X147764250Y-115985650D01*
X147878550Y-115985650D01*
X147954750Y-115947550D01*
X147992850Y-115909450D01*
X148030950Y-115833250D01*
X148030950Y-115528450D01*
X147688050Y-116290450D02*
X147649950Y-116328550D01*
X147611850Y-116404750D01*
X147611850Y-116595250D01*
X147649950Y-116671450D01*
X147688050Y-116709550D01*
X147764250Y-116747650D01*
X147840450Y-116747650D01*
X147954750Y-116709550D01*
X148411950Y-116252350D01*
X148411950Y-116747650D01*
X147954750Y-117204850D02*
X147916650Y-117128650D01*
X147878550Y-117090550D01*
X147802350Y-117052450D01*
X147764250Y-117052450D01*
X147688050Y-117090550D01*
X147649950Y-117128650D01*
X147611850Y-117204850D01*
X147611850Y-117357250D01*
X147649950Y-117433450D01*
X147688050Y-117471550D01*
X147764250Y-117509650D01*
X147802350Y-117509650D01*
X147878550Y-117471550D01*
X147916650Y-117433450D01*
X147954750Y-117357250D01*
X147954750Y-117204850D01*
X147992850Y-117128650D01*
X148030950Y-117090550D01*
X148107150Y-117052450D01*
X148259550Y-117052450D01*
X148335750Y-117090550D01*
X148373850Y-117128650D01*
X148411950Y-117204850D01*
X148411950Y-117357250D01*
X148373850Y-117433450D01*
X148335750Y-117471550D01*
X148259550Y-117509650D01*
X148107150Y-117509650D01*
X148030950Y-117471550D01*
X147992850Y-117433450D01*
X147954750Y-117357250D01*
X150264350Y-105961950D02*
X150531050Y-105580950D01*
X150721550Y-105961950D02*
X150721550Y-105161850D01*
X150416750Y-105161850D01*
X150340550Y-105199950D01*
X150302450Y-105238050D01*
X150264350Y-105314250D01*
X150264350Y-105428550D01*
X150302450Y-105504750D01*
X150340550Y-105542850D01*
X150416750Y-105580950D01*
X150721550Y-105580950D01*
X149959550Y-105238050D02*
X149921450Y-105199950D01*
X149845250Y-105161850D01*
X149654750Y-105161850D01*
X149578550Y-105199950D01*
X149540450Y-105238050D01*
X149502350Y-105314250D01*
X149502350Y-105390450D01*
X149540450Y-105504750D01*
X149997650Y-105961950D01*
X149502350Y-105961950D01*
X149121350Y-105961950D02*
X148968950Y-105961950D01*
X148892750Y-105923850D01*
X148854650Y-105885750D01*
X148778450Y-105771450D01*
X148740350Y-105619050D01*
X148740350Y-105314250D01*
X148778450Y-105238050D01*
X148816550Y-105199950D01*
X148892750Y-105161850D01*
X149045150Y-105161850D01*
X149121350Y-105199950D01*
X149159450Y-105238050D01*
X149197550Y-105314250D01*
X149197550Y-105504750D01*
X149159450Y-105580950D01*
X149121350Y-105619050D01*
X149045150Y-105657150D01*
X148892750Y-105657150D01*
X148816550Y-105619050D01*
X148778450Y-105580950D01*
X148740350Y-105504750D01*
D13*
X148100000Y-101566666D02*
X148333333Y-101233333D01*
X148500000Y-101566666D02*
X148500000Y-100866666D01*
X148233333Y-100866666D01*
X148166666Y-100900000D01*
X148133333Y-100933333D01*
X148100000Y-101000000D01*
X148100000Y-101100000D01*
X148133333Y-101166666D01*
X148166666Y-101200000D01*
X148233333Y-101233333D01*
X148500000Y-101233333D01*
X147866666Y-100866666D02*
X147433333Y-100866666D01*
X147666666Y-101133333D01*
X147566666Y-101133333D01*
X147500000Y-101166666D01*
X147466666Y-101200000D01*
X147433333Y-101266666D01*
X147433333Y-101433333D01*
X147466666Y-101500000D01*
X147500000Y-101533333D01*
X147566666Y-101566666D01*
X147766666Y-101566666D01*
X147833333Y-101533333D01*
X147866666Y-101500000D01*
X147000000Y-100866666D02*
X146933333Y-100866666D01*
X146866666Y-100900000D01*
X146833333Y-100933333D01*
X146800000Y-101000000D01*
X146766666Y-101133333D01*
X146766666Y-101300000D01*
X146800000Y-101433333D01*
X146833333Y-101500000D01*
X146866666Y-101533333D01*
X146933333Y-101566666D01*
X147000000Y-101566666D01*
X147066666Y-101533333D01*
X147100000Y-101500000D01*
X147133333Y-101433333D01*
X147166666Y-101300000D01*
X147166666Y-101133333D01*
X147133333Y-101000000D01*
X147100000Y-100933333D01*
X147066666Y-100900000D01*
X147000000Y-100866666D01*
D12*
X143540550Y-113960910D02*
X143540550Y-113160810D01*
X143235750Y-113160810D01*
X143159550Y-113198910D01*
X143121450Y-113237010D01*
X143083350Y-113313210D01*
X143083350Y-113427510D01*
X143121450Y-113503710D01*
X143159550Y-113541810D01*
X143235750Y-113579910D01*
X143540550Y-113579910D01*
X142397550Y-113427510D02*
X142397550Y-113960910D01*
X142588050Y-113122710D02*
X142778550Y-113694210D01*
X142283250Y-113694210D01*
D13*
X143516666Y-110806666D02*
X143516666Y-110106666D01*
X143250000Y-110106666D01*
X143183333Y-110140000D01*
X143150000Y-110173333D01*
X143116666Y-110240000D01*
X143116666Y-110340000D01*
X143150000Y-110406666D01*
X143183333Y-110440000D01*
X143250000Y-110473333D01*
X143516666Y-110473333D01*
X142883333Y-110106666D02*
X142450000Y-110106666D01*
X142683333Y-110373333D01*
X142583333Y-110373333D01*
X142516666Y-110406666D01*
X142483333Y-110440000D01*
X142450000Y-110506666D01*
X142450000Y-110673333D01*
X142483333Y-110740000D01*
X142516666Y-110773333D01*
X142583333Y-110806666D01*
X142783333Y-110806666D01*
X142850000Y-110773333D01*
X142883333Y-110740000D01*
X143516666Y-107716666D02*
X143516666Y-107016666D01*
X143250000Y-107016666D01*
X143183333Y-107050000D01*
X143150000Y-107083333D01*
X143116666Y-107150000D01*
X143116666Y-107250000D01*
X143150000Y-107316666D01*
X143183333Y-107350000D01*
X143250000Y-107383333D01*
X143516666Y-107383333D01*
X142850000Y-107083333D02*
X142816666Y-107050000D01*
X142750000Y-107016666D01*
X142583333Y-107016666D01*
X142516666Y-107050000D01*
X142483333Y-107083333D01*
X142450000Y-107150000D01*
X142450000Y-107216666D01*
X142483333Y-107316666D01*
X142883333Y-107716666D01*
X142450000Y-107716666D01*
D12*
X143465550Y-104910890D02*
X143465550Y-104110790D01*
X143160750Y-104110790D01*
X143084550Y-104148890D01*
X143046450Y-104186990D01*
X143008350Y-104263190D01*
X143008350Y-104377490D01*
X143046450Y-104453690D01*
X143084550Y-104491790D01*
X143160750Y-104529890D01*
X143465550Y-104529890D01*
X142246350Y-104910890D02*
X142703550Y-104910890D01*
X142474950Y-104910890D02*
X142474950Y-104110790D01*
X142551150Y-104225090D01*
X142627350Y-104301290D01*
X142703550Y-104339390D01*
D13*
X147716666Y-102250000D02*
X147383333Y-102016666D01*
X147716666Y-101850000D02*
X147016666Y-101850000D01*
X147016666Y-102116666D01*
X147050000Y-102183333D01*
X147083333Y-102216666D01*
X147150000Y-102250000D01*
X147250000Y-102250000D01*
X147316666Y-102216666D01*
X147350000Y-102183333D01*
X147383333Y-102116666D01*
X147383333Y-101850000D01*
X147016666Y-102483333D02*
X147016666Y-102916666D01*
X147283333Y-102683333D01*
X147283333Y-102783333D01*
X147316666Y-102850000D01*
X147350000Y-102883333D01*
X147416666Y-102916666D01*
X147583333Y-102916666D01*
X147650000Y-102883333D01*
X147683333Y-102850000D01*
X147716666Y-102783333D01*
X147716666Y-102583333D01*
X147683333Y-102516666D01*
X147650000Y-102483333D01*
X147083333Y-103183333D02*
X147050000Y-103216666D01*
X147016666Y-103283333D01*
X147016666Y-103450000D01*
X147050000Y-103516666D01*
X147083333Y-103550000D01*
X147150000Y-103583333D01*
X147216666Y-103583333D01*
X147316666Y-103550000D01*
X147716666Y-103150000D01*
X147716666Y-103583333D01*
D12*
X134109600Y-91561850D02*
X134109600Y-92209550D01*
X134071500Y-92285750D01*
X134033400Y-92323850D01*
X133957200Y-92361950D01*
X133804800Y-92361950D01*
X133728600Y-92323850D01*
X133690500Y-92285750D01*
X133652400Y-92209550D01*
X133652400Y-91561850D01*
X132928500Y-91561850D02*
X133080900Y-91561850D01*
X133157100Y-91599950D01*
X133195200Y-91638050D01*
X133271400Y-91752350D01*
X133309500Y-91904750D01*
X133309500Y-92209550D01*
X133271400Y-92285750D01*
X133233300Y-92323850D01*
X133157100Y-92361950D01*
X133004700Y-92361950D01*
X132928500Y-92323850D01*
X132890400Y-92285750D01*
X132852300Y-92209550D01*
X132852300Y-92019050D01*
X132890400Y-91942850D01*
X132928500Y-91904750D01*
X133004700Y-91866650D01*
X133157100Y-91866650D01*
X133233300Y-91904750D01*
X133271400Y-91942850D01*
X133309500Y-92019050D01*
X136240550Y-85411950D02*
X136240550Y-84611850D01*
X135935750Y-84611850D01*
X135859550Y-84649950D01*
X135821450Y-84688050D01*
X135783350Y-84764250D01*
X135783350Y-84878550D01*
X135821450Y-84954750D01*
X135859550Y-84992850D01*
X135935750Y-85030950D01*
X136240550Y-85030950D01*
X135516650Y-84611850D02*
X134983250Y-84611850D01*
X135326150Y-85411950D01*
X155361950Y-92088970D02*
X154980950Y-91822270D01*
X155361950Y-91631770D02*
X154561850Y-91631770D01*
X154561850Y-91936570D01*
X154599950Y-92012770D01*
X154638050Y-92050870D01*
X154714250Y-92088970D01*
X154828550Y-92088970D01*
X154904750Y-92050870D01*
X154942850Y-92012770D01*
X154980950Y-91936570D01*
X154980950Y-91631770D01*
X154561850Y-92355670D02*
X154561850Y-92850970D01*
X154866650Y-92584270D01*
X154866650Y-92698570D01*
X154904750Y-92774770D01*
X154942850Y-92812870D01*
X155019050Y-92850970D01*
X155209550Y-92850970D01*
X155285750Y-92812870D01*
X155323850Y-92774770D01*
X155361950Y-92698570D01*
X155361950Y-92469970D01*
X155323850Y-92393770D01*
X155285750Y-92355670D01*
X154561850Y-93117670D02*
X154561850Y-93612970D01*
X154866650Y-93346270D01*
X154866650Y-93460570D01*
X154904750Y-93536770D01*
X154942850Y-93574870D01*
X155019050Y-93612970D01*
X155209550Y-93612970D01*
X155285750Y-93574870D01*
X155323850Y-93536770D01*
X155361950Y-93460570D01*
X155361950Y-93231970D01*
X155323850Y-93155770D01*
X155285750Y-93117670D01*
X155530550Y-105771950D02*
X155530550Y-104971850D01*
X155225750Y-104971850D01*
X155149550Y-105009950D01*
X155111450Y-105048050D01*
X155073350Y-105124250D01*
X155073350Y-105238550D01*
X155111450Y-105314750D01*
X155149550Y-105352850D01*
X155225750Y-105390950D01*
X155530550Y-105390950D01*
X154692350Y-105771950D02*
X154539950Y-105771950D01*
X154463750Y-105733850D01*
X154425650Y-105695750D01*
X154349450Y-105581450D01*
X154311350Y-105429050D01*
X154311350Y-105124250D01*
X154349450Y-105048050D01*
X154387550Y-105009950D01*
X154463750Y-104971850D01*
X154616150Y-104971850D01*
X154692350Y-105009950D01*
X154730450Y-105048050D01*
X154768550Y-105124250D01*
X154768550Y-105314750D01*
X154730450Y-105390950D01*
X154692350Y-105429050D01*
X154616150Y-105467150D01*
X154463750Y-105467150D01*
X154387550Y-105429050D01*
X154349450Y-105390950D01*
X154311350Y-105314750D01*
X155626200Y-103138150D02*
X155702400Y-103100050D01*
X155778600Y-103023850D01*
X155892900Y-102909550D01*
X155969100Y-102871450D01*
X156045300Y-102871450D01*
X156007200Y-103061950D02*
X156083400Y-103023850D01*
X156159600Y-102947650D01*
X156197700Y-102795250D01*
X156197700Y-102528550D01*
X156159600Y-102376150D01*
X156083400Y-102299950D01*
X156007200Y-102261850D01*
X155854800Y-102261850D01*
X155778600Y-102299950D01*
X155702400Y-102376150D01*
X155664300Y-102528550D01*
X155664300Y-102795250D01*
X155702400Y-102947650D01*
X155778600Y-103023850D01*
X155854800Y-103061950D01*
X156007200Y-103061950D01*
X154940400Y-102261850D02*
X155321400Y-102261850D01*
X155359500Y-102642850D01*
X155321400Y-102604750D01*
X155245200Y-102566650D01*
X155054700Y-102566650D01*
X154978500Y-102604750D01*
X154940400Y-102642850D01*
X154902300Y-102719050D01*
X154902300Y-102909550D01*
X154940400Y-102985750D01*
X154978500Y-103023850D01*
X155054700Y-103061950D01*
X155245200Y-103061950D01*
X155321400Y-103023850D01*
X155359500Y-102985750D01*
X154938150Y-94923800D02*
X154900050Y-94847600D01*
X154823850Y-94771400D01*
X154709550Y-94657100D01*
X154671450Y-94580900D01*
X154671450Y-94504700D01*
X154861950Y-94542800D02*
X154823850Y-94466600D01*
X154747650Y-94390400D01*
X154595250Y-94352300D01*
X154328550Y-94352300D01*
X154176150Y-94390400D01*
X154099950Y-94466600D01*
X154061850Y-94542800D01*
X154061850Y-94695200D01*
X154099950Y-94771400D01*
X154176150Y-94847600D01*
X154328550Y-94885700D01*
X154595250Y-94885700D01*
X154747650Y-94847600D01*
X154823850Y-94771400D01*
X154861950Y-94695200D01*
X154861950Y-94542800D01*
X154061850Y-95571500D02*
X154061850Y-95419100D01*
X154099950Y-95342900D01*
X154138050Y-95304800D01*
X154252350Y-95228600D01*
X154404750Y-95190500D01*
X154709550Y-95190500D01*
X154785750Y-95228600D01*
X154823850Y-95266700D01*
X154861950Y-95342900D01*
X154861950Y-95495300D01*
X154823850Y-95571500D01*
X154785750Y-95609600D01*
X154709550Y-95647700D01*
X154519050Y-95647700D01*
X154442850Y-95609600D01*
X154404750Y-95571500D01*
X154366650Y-95495300D01*
X154366650Y-95342900D01*
X154404750Y-95266700D01*
X154442850Y-95228600D01*
X154519050Y-95190500D01*
X154556879Y-117846755D02*
X153991123Y-117280999D01*
X153856419Y-117415703D01*
X153802537Y-117523466D01*
X153802537Y-117631229D01*
X153829478Y-117712051D01*
X153910300Y-117846755D01*
X153991123Y-117927577D01*
X154125826Y-118008400D01*
X154206649Y-118035340D01*
X154314412Y-118035340D01*
X154422175Y-117981459D01*
X154556879Y-117846755D01*
X153587011Y-118170044D02*
X153613952Y-118089222D01*
X153613952Y-118035340D01*
X153587011Y-117954518D01*
X153560070Y-117927577D01*
X153479248Y-117900636D01*
X153425366Y-117900636D01*
X153344544Y-117927577D01*
X153236781Y-118035340D01*
X153209840Y-118116163D01*
X153209840Y-118170044D01*
X153236781Y-118250866D01*
X153263722Y-118277807D01*
X153344544Y-118304748D01*
X153398426Y-118304748D01*
X153479248Y-118277807D01*
X153587011Y-118170044D01*
X153667833Y-118143103D01*
X153721715Y-118143103D01*
X153802537Y-118170044D01*
X153910300Y-118277807D01*
X153937241Y-118358629D01*
X153937241Y-118412511D01*
X153910300Y-118493333D01*
X153802537Y-118601096D01*
X153721715Y-118628037D01*
X153667833Y-118628037D01*
X153587011Y-118601096D01*
X153479248Y-118493333D01*
X153452307Y-118412511D01*
X153452307Y-118358629D01*
X153479248Y-118277807D01*
X157361950Y-113485650D02*
X156980950Y-113218950D01*
X157361950Y-113028450D02*
X156561850Y-113028450D01*
X156561850Y-113333250D01*
X156599950Y-113409450D01*
X156638050Y-113447550D01*
X156714250Y-113485650D01*
X156828550Y-113485650D01*
X156904750Y-113447550D01*
X156942850Y-113409450D01*
X156980950Y-113333250D01*
X156980950Y-113028450D01*
X156561850Y-113752350D02*
X156561850Y-114247650D01*
X156866650Y-113980950D01*
X156866650Y-114095250D01*
X156904750Y-114171450D01*
X156942850Y-114209550D01*
X157019050Y-114247650D01*
X157209550Y-114247650D01*
X157285750Y-114209550D01*
X157323850Y-114171450D01*
X157361950Y-114095250D01*
X157361950Y-113866650D01*
X157323850Y-113790450D01*
X157285750Y-113752350D01*
X156904750Y-114704850D02*
X156866650Y-114628650D01*
X156828550Y-114590550D01*
X156752350Y-114552450D01*
X156714250Y-114552450D01*
X156638050Y-114590550D01*
X156599950Y-114628650D01*
X156561850Y-114704850D01*
X156561850Y-114857250D01*
X156599950Y-114933450D01*
X156638050Y-114971550D01*
X156714250Y-115009650D01*
X156752350Y-115009650D01*
X156828550Y-114971550D01*
X156866650Y-114933450D01*
X156904750Y-114857250D01*
X156904750Y-114704850D01*
X156942850Y-114628650D01*
X156980950Y-114590550D01*
X157057150Y-114552450D01*
X157209550Y-114552450D01*
X157285750Y-114590550D01*
X157323850Y-114628650D01*
X157361950Y-114704850D01*
X157361950Y-114857250D01*
X157323850Y-114933450D01*
X157285750Y-114971550D01*
X157209550Y-115009650D01*
X157057150Y-115009650D01*
X156980950Y-114971550D01*
X156942850Y-114933450D01*
X156904750Y-114857250D01*
D14*
X132888095Y-115452380D02*
X132888095Y-116261904D01*
X132840476Y-116357142D01*
X132792857Y-116404761D01*
X132697619Y-116452380D01*
X132507142Y-116452380D01*
X132411904Y-116404761D01*
X132364285Y-116357142D01*
X132316666Y-116261904D01*
X132316666Y-115452380D01*
X131316666Y-116452380D02*
X131888095Y-116452380D01*
X131602380Y-116452380D02*
X131602380Y-115452380D01*
X131697619Y-115595238D01*
X131792857Y-115690476D01*
X131888095Y-115738095D01*
X130364285Y-116452380D02*
X130935714Y-116452380D01*
X130650000Y-116452380D02*
X130650000Y-115452380D01*
X130745238Y-115595238D01*
X130840476Y-115690476D01*
X130935714Y-115738095D01*
X137278571Y-105928571D02*
X137278571Y-106261904D01*
X137802380Y-106404761D02*
X137802380Y-105928571D01*
X136802380Y-105928571D01*
X136802380Y-106404761D01*
X137754761Y-106785714D02*
X137802380Y-106880952D01*
X137802380Y-107071428D01*
X137754761Y-107166666D01*
X137659523Y-107214285D01*
X137611904Y-107214285D01*
X137516666Y-107166666D01*
X137469047Y-107071428D01*
X137469047Y-106928571D01*
X137421428Y-106833333D01*
X137326190Y-106785714D01*
X137278571Y-106785714D01*
X137183333Y-106833333D01*
X137135714Y-106928571D01*
X137135714Y-107071428D01*
X137183333Y-107166666D01*
X137135714Y-107642857D02*
X138135714Y-107642857D01*
X137183333Y-107642857D02*
X137135714Y-107738095D01*
X137135714Y-107928571D01*
X137183333Y-108023809D01*
X137230952Y-108071428D01*
X137326190Y-108119047D01*
X137611904Y-108119047D01*
X137707142Y-108071428D01*
X137754761Y-108023809D01*
X137802380Y-107928571D01*
X137802380Y-107738095D01*
X137754761Y-107642857D01*
X137802380Y-108547619D02*
X137135714Y-108547619D01*
X137326190Y-108547619D02*
X137230952Y-108595238D01*
X137183333Y-108642857D01*
X137135714Y-108738095D01*
X137135714Y-108833333D01*
X137754761Y-109547619D02*
X137802380Y-109452380D01*
X137802380Y-109261904D01*
X137754761Y-109166666D01*
X137659523Y-109119047D01*
X137278571Y-109119047D01*
X137183333Y-109166666D01*
X137135714Y-109261904D01*
X137135714Y-109452380D01*
X137183333Y-109547619D01*
X137278571Y-109595238D01*
X137373809Y-109595238D01*
X137469047Y-109119047D01*
X137754761Y-109976190D02*
X137802380Y-110071428D01*
X137802380Y-110261904D01*
X137754761Y-110357142D01*
X137659523Y-110404761D01*
X137611904Y-110404761D01*
X137516666Y-110357142D01*
X137469047Y-110261904D01*
X137469047Y-110119047D01*
X137421428Y-110023809D01*
X137326190Y-109976190D01*
X137278571Y-109976190D01*
X137183333Y-110023809D01*
X137135714Y-110119047D01*
X137135714Y-110261904D01*
X137183333Y-110357142D01*
X137754761Y-110785714D02*
X137802380Y-110880952D01*
X137802380Y-111071428D01*
X137754761Y-111166666D01*
X137659523Y-111214285D01*
X137611904Y-111214285D01*
X137516666Y-111166666D01*
X137469047Y-111071428D01*
X137469047Y-110928571D01*
X137421428Y-110833333D01*
X137326190Y-110785714D01*
X137278571Y-110785714D01*
X137183333Y-110833333D01*
X137135714Y-110928571D01*
X137135714Y-111071428D01*
X137183333Y-111166666D01*
X137802380Y-111642857D02*
X137135714Y-111642857D01*
X136802380Y-111642857D02*
X136850000Y-111595238D01*
X136897619Y-111642857D01*
X136850000Y-111690476D01*
X136802380Y-111642857D01*
X136897619Y-111642857D01*
X137135714Y-111976190D02*
X137135714Y-112357142D01*
X137802380Y-112119047D02*
X136945238Y-112119047D01*
X136850000Y-112166666D01*
X136802380Y-112261904D01*
X136802380Y-112357142D01*
X137754761Y-113404761D02*
X137802380Y-113547619D01*
X137802380Y-113785714D01*
X137754761Y-113880952D01*
X137707142Y-113928571D01*
X137611904Y-113976190D01*
X137516666Y-113976190D01*
X137421428Y-113928571D01*
X137373809Y-113880952D01*
X137326190Y-113785714D01*
X137278571Y-113595238D01*
X137230952Y-113500000D01*
X137183333Y-113452380D01*
X137088095Y-113404761D01*
X136992857Y-113404761D01*
X136897619Y-113452380D01*
X136850000Y-113500000D01*
X136802380Y-113595238D01*
X136802380Y-113833333D01*
X136850000Y-113976190D01*
X137135714Y-114309523D02*
X137802380Y-114547619D01*
X137135714Y-114785714D02*
X137802380Y-114547619D01*
X138040476Y-114452380D01*
X138088095Y-114404761D01*
X138135714Y-114309523D01*
X137754761Y-115119047D02*
X137802380Y-115214285D01*
X137802380Y-115404761D01*
X137754761Y-115500000D01*
X137659523Y-115547619D01*
X137611904Y-115547619D01*
X137516666Y-115500000D01*
X137469047Y-115404761D01*
X137469047Y-115261904D01*
X137421428Y-115166666D01*
X137326190Y-115119047D01*
X137278571Y-115119047D01*
X137183333Y-115166666D01*
X137135714Y-115261904D01*
X137135714Y-115404761D01*
X137183333Y-115500000D01*
X137135714Y-115833333D02*
X137135714Y-116214285D01*
X136802380Y-115976190D02*
X137659523Y-115976190D01*
X137754761Y-116023809D01*
X137802380Y-116119047D01*
X137802380Y-116214285D01*
X137754761Y-116928571D02*
X137802380Y-116833333D01*
X137802380Y-116642857D01*
X137754761Y-116547619D01*
X137659523Y-116500000D01*
X137278571Y-116500000D01*
X137183333Y-116547619D01*
X137135714Y-116642857D01*
X137135714Y-116833333D01*
X137183333Y-116928571D01*
X137278571Y-116976190D01*
X137373809Y-116976190D01*
X137469047Y-116500000D01*
X137802380Y-117404761D02*
X137135714Y-117404761D01*
X137230952Y-117404761D02*
X137183333Y-117452380D01*
X137135714Y-117547619D01*
X137135714Y-117690476D01*
X137183333Y-117785714D01*
X137278571Y-117833333D01*
X137802380Y-117833333D01*
X137278571Y-117833333D02*
X137183333Y-117880952D01*
X137135714Y-117976190D01*
X137135714Y-118119047D01*
X137183333Y-118214285D01*
X137278571Y-118261904D01*
X137802380Y-118261904D01*
X137754761Y-118690476D02*
X137802380Y-118785714D01*
X137802380Y-118976190D01*
X137754761Y-119071428D01*
X137659523Y-119119047D01*
X137611904Y-119119047D01*
X137516666Y-119071428D01*
X137469047Y-118976190D01*
X137469047Y-118833333D01*
X137421428Y-118738095D01*
X137326190Y-118690476D01*
X137278571Y-118690476D01*
X137183333Y-118738095D01*
X137135714Y-118833333D01*
X137135714Y-118976190D01*
X137183333Y-119071428D01*
X135928571Y-107097619D02*
X135928571Y-107430952D01*
X136452380Y-107573809D02*
X136452380Y-107097619D01*
X135452380Y-107097619D01*
X135452380Y-107573809D01*
X136404761Y-107954761D02*
X136452380Y-108097619D01*
X136452380Y-108335714D01*
X136404761Y-108430952D01*
X136357142Y-108478571D01*
X136261904Y-108526190D01*
X136166666Y-108526190D01*
X136071428Y-108478571D01*
X136023809Y-108430952D01*
X135976190Y-108335714D01*
X135928571Y-108145238D01*
X135880952Y-108050000D01*
X135833333Y-108002380D01*
X135738095Y-107954761D01*
X135642857Y-107954761D01*
X135547619Y-108002380D01*
X135500000Y-108050000D01*
X135452380Y-108145238D01*
X135452380Y-108383333D01*
X135500000Y-108526190D01*
X136452380Y-108954761D02*
X135452380Y-108954761D01*
X135452380Y-109335714D01*
X135500000Y-109430952D01*
X135547619Y-109478571D01*
X135642857Y-109526190D01*
X135785714Y-109526190D01*
X135880952Y-109478571D01*
X135928571Y-109430952D01*
X135976190Y-109335714D01*
X135976190Y-108954761D01*
X135452380Y-109859523D02*
X135452380Y-110478571D01*
X135833333Y-110145238D01*
X135833333Y-110288095D01*
X135880952Y-110383333D01*
X135928571Y-110430952D01*
X136023809Y-110478571D01*
X136261904Y-110478571D01*
X136357142Y-110430952D01*
X136404761Y-110383333D01*
X136452380Y-110288095D01*
X136452380Y-110002380D01*
X136404761Y-109907142D01*
X136357142Y-109859523D01*
X135547619Y-110859523D02*
X135500000Y-110907142D01*
X135452380Y-111002380D01*
X135452380Y-111240476D01*
X135500000Y-111335714D01*
X135547619Y-111383333D01*
X135642857Y-111430952D01*
X135738095Y-111430952D01*
X135880952Y-111383333D01*
X136452380Y-110811904D01*
X136452380Y-111430952D01*
X136071428Y-111859523D02*
X136071428Y-112621428D01*
X135452380Y-113002380D02*
X136452380Y-113240476D01*
X135738095Y-113430952D01*
X136452380Y-113621428D01*
X135452380Y-113859523D01*
X136452380Y-114811904D02*
X135976190Y-114478571D01*
X136452380Y-114240476D02*
X135452380Y-114240476D01*
X135452380Y-114621428D01*
X135500000Y-114716666D01*
X135547619Y-114764285D01*
X135642857Y-114811904D01*
X135785714Y-114811904D01*
X135880952Y-114764285D01*
X135928571Y-114716666D01*
X135976190Y-114621428D01*
X135976190Y-114240476D01*
X135452380Y-115430952D02*
X135452380Y-115621428D01*
X135500000Y-115716666D01*
X135595238Y-115811904D01*
X135785714Y-115859523D01*
X136119047Y-115859523D01*
X136309523Y-115811904D01*
X136404761Y-115716666D01*
X136452380Y-115621428D01*
X136452380Y-115430952D01*
X136404761Y-115335714D01*
X136309523Y-115240476D01*
X136119047Y-115192857D01*
X135785714Y-115192857D01*
X135595238Y-115240476D01*
X135500000Y-115335714D01*
X135452380Y-115430952D01*
X135452380Y-116478571D02*
X135452380Y-116669047D01*
X135500000Y-116764285D01*
X135595238Y-116859523D01*
X135785714Y-116907142D01*
X136119047Y-116907142D01*
X136309523Y-116859523D01*
X136404761Y-116764285D01*
X136452380Y-116669047D01*
X136452380Y-116478571D01*
X136404761Y-116383333D01*
X136309523Y-116288095D01*
X136119047Y-116240476D01*
X135785714Y-116240476D01*
X135595238Y-116288095D01*
X135500000Y-116383333D01*
X135452380Y-116478571D01*
X136452380Y-117335714D02*
X135452380Y-117335714D01*
X136166666Y-117669047D01*
X135452380Y-118002380D01*
X136452380Y-118002380D01*
X129124582Y-98533333D02*
X129172201Y-98485714D01*
X129219820Y-98342857D01*
X129219820Y-98247619D01*
X129172201Y-98104761D01*
X129076963Y-98009523D01*
X128981725Y-97961904D01*
X128791249Y-97914285D01*
X128648392Y-97914285D01*
X128457916Y-97961904D01*
X128362678Y-98009523D01*
X128267440Y-98104761D01*
X128219820Y-98247619D01*
X128219820Y-98342857D01*
X128267440Y-98485714D01*
X128315059Y-98533333D01*
X128219820Y-98866666D02*
X128219820Y-99485714D01*
X128600773Y-99152380D01*
X128600773Y-99295238D01*
X128648392Y-99390476D01*
X128696011Y-99438095D01*
X128791249Y-99485714D01*
X129029344Y-99485714D01*
X129124582Y-99438095D01*
X129172201Y-99390476D01*
X129219820Y-99295238D01*
X129219820Y-99009523D01*
X129172201Y-98914285D01*
X129124582Y-98866666D01*
X121473980Y-96033744D02*
X122283504Y-96033744D01*
X122378742Y-96081363D01*
X122426361Y-96128982D01*
X122473980Y-96224220D01*
X122473980Y-96414697D01*
X122426361Y-96509935D01*
X122378742Y-96557554D01*
X122283504Y-96605173D01*
X121473980Y-96605173D01*
X122473980Y-97605173D02*
X122473980Y-97033744D01*
X122473980Y-97319459D02*
X121473980Y-97319459D01*
X121616838Y-97224220D01*
X121712076Y-97128982D01*
X121759695Y-97033744D01*
X121569219Y-97986125D02*
X121521600Y-98033744D01*
X121473980Y-98128982D01*
X121473980Y-98367078D01*
X121521600Y-98462316D01*
X121569219Y-98509935D01*
X121664457Y-98557554D01*
X121759695Y-98557554D01*
X121902552Y-98509935D01*
X122473980Y-97938506D01*
X122473980Y-98557554D01*
D15*
X148724620Y-89509600D02*
X151264620Y-89509600D01*
X148724620Y-88493600D02*
X148724620Y-89509600D01*
X151264620Y-88493600D02*
X148724620Y-88493600D01*
X151264620Y-89509600D02*
X151264620Y-88493600D01*
X150756620Y-89509600D02*
X151264620Y-89001600D01*
X150728680Y-109496860D02*
X153268680Y-109496860D01*
X150728680Y-110004860D02*
X151236680Y-109496860D01*
X150728680Y-110512860D02*
X150728680Y-109496860D01*
X153268680Y-110512860D02*
X150728680Y-110512860D01*
X153268680Y-109496860D02*
X153268680Y-110512860D01*
D16*
X145199100Y-105303320D02*
X145199100Y-106705400D01*
X146397980Y-106705400D02*
X146397980Y-106504740D01*
X144599660Y-105303320D02*
X146397980Y-105303320D01*
X144599660Y-106504740D02*
X144599660Y-106705400D01*
X146397980Y-106705400D02*
X144599660Y-106705400D01*
X144599660Y-105303320D02*
X144599660Y-105503980D01*
X146397980Y-105503980D02*
X146397980Y-105303320D01*
X146397980Y-109705140D02*
X144599660Y-109705140D01*
X145199100Y-108303060D02*
X145199100Y-109705140D01*
X144599660Y-108303060D02*
X144599660Y-108503720D01*
X144599660Y-109504480D02*
X144599660Y-109705140D01*
X144599660Y-108303060D02*
X146397980Y-108303060D01*
X146397980Y-108503720D02*
X146397980Y-108303060D01*
X146397980Y-109705140D02*
X146397980Y-109504480D01*
X145199100Y-111302800D02*
X145199100Y-112704880D01*
X146397980Y-112704880D02*
X144599660Y-112704880D01*
X144599660Y-111302800D02*
X144599660Y-111503460D01*
X144599660Y-112504220D02*
X144599660Y-112704880D01*
X144599660Y-111302800D02*
X146397980Y-111302800D01*
X146397980Y-112704880D02*
X146397980Y-112504220D01*
X146397980Y-111503460D02*
X146397980Y-111302800D01*
X144599660Y-114302540D02*
X146397980Y-114302540D01*
X144599660Y-115503960D02*
X144599660Y-115704620D01*
X144599660Y-114302540D02*
X144599660Y-114503200D01*
X146397980Y-114503200D02*
X146397980Y-114302540D01*
X146397980Y-115704620D02*
X146397980Y-115503960D01*
X145199100Y-114302540D02*
X145199100Y-115704620D01*
X146397980Y-115704620D02*
X144599660Y-115704620D01*
X151856440Y-88366600D02*
X151856440Y-89636600D01*
X151856440Y-89636600D02*
X154142440Y-89636600D01*
X154142440Y-88366600D02*
X151856440Y-88366600D01*
X154142440Y-89636600D02*
X154142440Y-88366600D01*
X151856440Y-88138000D02*
X154142440Y-88138000D01*
X154142440Y-86868000D02*
X151856440Y-86868000D01*
X154142440Y-88138000D02*
X154142440Y-86868000D01*
X151856440Y-86868000D02*
X151856440Y-88138000D01*
X148851620Y-91366340D02*
X148851620Y-92636340D01*
X151137620Y-92636340D02*
X151137620Y-91366340D01*
X148851620Y-92636340D02*
X151137620Y-92636340D01*
X151137620Y-91366340D02*
X148851620Y-91366340D01*
X148142960Y-89367360D02*
X145856960Y-89367360D01*
X145856960Y-89367360D02*
X145856960Y-90637360D01*
X145856960Y-90637360D02*
X148142960Y-90637360D01*
X148142960Y-90637360D02*
X148142960Y-89367360D01*
X152643840Y-114137440D02*
X152643840Y-112867440D01*
X150357840Y-112867440D02*
X150357840Y-114137440D01*
X152643840Y-112867440D02*
X150357840Y-112867440D01*
X150357840Y-114137440D02*
X152643840Y-114137440D01*
X127657860Y-92567760D02*
X127657860Y-93837760D01*
X129943860Y-93837760D02*
X129943860Y-92567760D01*
X127657860Y-93837760D02*
X129943860Y-93837760D01*
X129943860Y-92567760D02*
X127657860Y-92567760D01*
X150134320Y-115148360D02*
X150134320Y-112862360D01*
X148864320Y-115148360D02*
X150134320Y-115148360D01*
X150134320Y-112862360D02*
X148864320Y-112862360D01*
X148864320Y-112862360D02*
X148864320Y-115148360D01*
X151356060Y-107640120D02*
X153642060Y-107640120D01*
X151356060Y-106370120D02*
X151356060Y-107640120D01*
X153642060Y-107640120D02*
X153642060Y-106370120D01*
X153642060Y-106370120D02*
X151356060Y-106370120D01*
X150263860Y-100342700D02*
X151533860Y-100342700D01*
X151533860Y-100342700D02*
X151533860Y-98056700D01*
X151533860Y-98056700D02*
X150263860Y-98056700D01*
X150263860Y-98056700D02*
X150263860Y-100342700D01*
X153195020Y-112859820D02*
X153195020Y-115145820D01*
X153195020Y-115145820D02*
X154465020Y-115145820D01*
X154465020Y-112859820D02*
X153195020Y-112859820D01*
X154465020Y-115145820D02*
X154465020Y-112859820D01*
X148064220Y-102059740D02*
X148064220Y-104345740D01*
X149334220Y-104345740D02*
X149334220Y-102059740D01*
X149334220Y-102059740D02*
X148064220Y-102059740D01*
X148064220Y-104345740D02*
X149334220Y-104345740D01*
X129565000Y-96893000D02*
X130835000Y-96893000D01*
X129565000Y-94607000D02*
X129565000Y-96893000D01*
X130835000Y-94607000D02*
X129565000Y-94607000D01*
X130835000Y-96893000D02*
X130835000Y-94607000D01*
X148643340Y-92638880D02*
X148643340Y-91368880D01*
X146357340Y-91368880D02*
X146357340Y-92638880D01*
X148643340Y-91368880D02*
X146357340Y-91368880D01*
X146357340Y-92638880D02*
X148643340Y-92638880D01*
X148142960Y-87868760D02*
X145856960Y-87868760D01*
X145856960Y-87868760D02*
X145856960Y-89138760D01*
X148142960Y-89138760D02*
X148142960Y-87868760D01*
X145856960Y-89138760D02*
X148142960Y-89138760D01*
X150342600Y-94137480D02*
X150342600Y-92867480D01*
X148056600Y-94137480D02*
X150342600Y-94137480D01*
X150342600Y-92867480D02*
X148056600Y-92867480D01*
X148056600Y-92867480D02*
X148056600Y-94137480D01*
X151856440Y-91137740D02*
X154142440Y-91137740D01*
X154142440Y-91137740D02*
X154142440Y-89867740D01*
X154142440Y-89867740D02*
X151856440Y-89867740D01*
X151856440Y-89867740D02*
X151856440Y-91137740D01*
X148864320Y-110363000D02*
X148864320Y-112649000D01*
X150134320Y-110363000D02*
X148864320Y-110363000D01*
X150134320Y-112649000D02*
X150134320Y-110363000D01*
X148864320Y-112649000D02*
X150134320Y-112649000D01*
X148635720Y-110147100D02*
X148635720Y-107861100D01*
X148635720Y-107861100D02*
X147365720Y-107861100D01*
X147365720Y-110147100D02*
X148635720Y-110147100D01*
X147365720Y-107861100D02*
X147365720Y-110147100D01*
X150134320Y-107861100D02*
X148864320Y-107861100D01*
X148864320Y-110147100D02*
X150134320Y-110147100D01*
X150134320Y-110147100D02*
X150134320Y-107861100D01*
X148864320Y-107861100D02*
X148864320Y-110147100D01*
X147363180Y-112649000D02*
X148633180Y-112649000D01*
X148633180Y-112649000D02*
X148633180Y-110363000D01*
X148633180Y-110363000D02*
X147363180Y-110363000D01*
X147363180Y-110363000D02*
X147363180Y-112649000D01*
X151142700Y-107640120D02*
X151142700Y-106370120D01*
X148856700Y-106370120D02*
X148856700Y-107640120D01*
X151142700Y-106370120D02*
X148856700Y-106370120D01*
X148856700Y-107640120D02*
X151142700Y-107640120D01*
X149456140Y-101836220D02*
X151742140Y-101836220D01*
X149456140Y-100566220D02*
X149456140Y-101836220D01*
X151742140Y-101836220D02*
X151742140Y-100566220D01*
X151742140Y-100566220D02*
X149456140Y-100566220D01*
D15*
X143799560Y-112801400D02*
X143799560Y-114203480D01*
X147198080Y-114203480D02*
X147198080Y-112801400D01*
X143799560Y-114203480D02*
X147198080Y-114203480D01*
X147198080Y-112801400D02*
X143799560Y-112801400D01*
X143799560Y-109801660D02*
X143799560Y-111203740D01*
X143799560Y-111203740D02*
X147198080Y-111203740D01*
X147198080Y-109801660D02*
X143799560Y-109801660D01*
X147198080Y-111203740D02*
X147198080Y-109801660D01*
X147198080Y-108204000D02*
X147198080Y-106801920D01*
X143799560Y-108204000D02*
X147198080Y-108204000D01*
X143799560Y-106801920D02*
X143799560Y-108204000D01*
X147198080Y-106801920D02*
X143799560Y-106801920D01*
X147198080Y-105204260D02*
X147198080Y-103802180D01*
X143799560Y-105204260D02*
X147198080Y-105204260D01*
X147198080Y-103802180D02*
X143799560Y-103802180D01*
X143799560Y-103802180D02*
X143799560Y-105204260D01*
D16*
X149463760Y-104345740D02*
X150733760Y-104345740D01*
X149463760Y-102059740D02*
X149463760Y-104345740D01*
X150733760Y-104345740D02*
X150733760Y-102059740D01*
X150733760Y-102059740D02*
X149463760Y-102059740D01*
D15*
X130299460Y-92753180D02*
X130299460Y-91854020D01*
X132300980Y-92303600D02*
X132300980Y-91854020D01*
X130299460Y-91854020D02*
X132300980Y-91854020D01*
X131851400Y-92753180D02*
X132300980Y-92303600D01*
X130299460Y-92753180D02*
X131851400Y-92753180D01*
X133598920Y-87751920D02*
X133598920Y-87353140D01*
X125399800Y-87751920D02*
X125399800Y-87353140D01*
D16*
X154035760Y-93746320D02*
X154035760Y-91460320D01*
X152765760Y-91460320D02*
X152765760Y-93746320D01*
X152765760Y-93746320D02*
X154035760Y-93746320D01*
X154035760Y-91460320D02*
X152765760Y-91460320D01*
D15*
X153799540Y-104701340D02*
X152001220Y-104701340D01*
X153799540Y-106103420D02*
X153799540Y-104701340D01*
X152001220Y-104701340D02*
X152001220Y-106103420D01*
X152001220Y-106103420D02*
X153799540Y-106103420D01*
D16*
X154424380Y-102984300D02*
X154424380Y-102222300D01*
X151376380Y-102984300D02*
X154424380Y-102984300D01*
X154424380Y-102222300D02*
X151376380Y-102222300D01*
X151376380Y-102222300D02*
X151376380Y-102984300D01*
X151719280Y-92979240D02*
X151719280Y-96027240D01*
X152481280Y-92979240D02*
X151719280Y-92979240D01*
X152481280Y-96027240D02*
X152481280Y-92979240D01*
X151719280Y-96027240D02*
X152481280Y-96027240D01*
X155816701Y-115548477D02*
X155744859Y-115476635D01*
X155744859Y-115476635D02*
X154473255Y-116748239D01*
X155252741Y-117527725D02*
X155180899Y-117455883D01*
X156452503Y-116184279D02*
X156524345Y-116256121D01*
X155144978Y-116360292D02*
X155640688Y-116856002D01*
X154473255Y-116748239D02*
X154545097Y-116820081D01*
X156524345Y-116256121D02*
X155252741Y-117527725D01*
X154223604Y-116997890D02*
G75*
G03*
X154223604Y-116997890I-68250J0D01*
G01*
X154665680Y-115145820D02*
X155935680Y-115145820D01*
X155935680Y-112859820D02*
X154665680Y-112859820D01*
X155935680Y-115145820D02*
X155935680Y-112859820D01*
X154665680Y-112859820D02*
X154665680Y-115145820D01*
D14*
X141080000Y-101550000D02*
X123080000Y-101550000D01*
D17*
X129050000Y-96077280D02*
X129050000Y-95477280D01*
X128450000Y-96077280D02*
X128450000Y-95477280D01*
D18*
X123147800Y-98937080D02*
X123147800Y-99412080D01*
X127397800Y-99412080D02*
X127397800Y-98912080D01*
X126897800Y-99412080D02*
X127397800Y-99412080D01*
X123547800Y-95162080D02*
X123772800Y-95162080D01*
X127397800Y-95762080D02*
X127397800Y-95162080D01*
X123147800Y-95587080D02*
X123547800Y-95162080D01*
X123147800Y-99412080D02*
X123547800Y-99412080D01*
X127397800Y-95162080D02*
X126947800Y-95162080D01*
X123147800Y-95812080D02*
X123147800Y-95587080D01*
D19*
X149499320Y-99504500D03*
X148498560Y-99504500D03*
X148498560Y-98503740D03*
X149499320Y-98503740D03*
X148998940Y-99004120D03*
D20*
X144663160Y-113502440D03*
D21*
X146334480Y-113502440D03*
D20*
X144663160Y-110502700D03*
D21*
X146334480Y-110502700D03*
D20*
X144663160Y-107502960D03*
D21*
X146334480Y-107502960D03*
D20*
X144663160Y-104503220D03*
D21*
X146334480Y-104503220D03*
D22*
X152900380Y-105402380D03*
%LPC*%
D23*
X149499320Y-99504500D03*
X148498560Y-99504500D03*
X148498560Y-98503740D03*
X149499320Y-98503740D03*
X148998940Y-99004120D03*
D24*
X152699720Y-99250500D03*
D25*
X152699720Y-97350580D03*
D26*
X150947120Y-90271600D03*
X149994620Y-90271600D03*
X149042120Y-90271600D03*
X149042120Y-87731600D03*
X149994620Y-87731600D03*
X150947120Y-87731600D03*
D27*
X151046180Y-108734860D03*
X151998680Y-108734860D03*
X152951180Y-108734860D03*
X152951180Y-111274860D03*
X151998680Y-111274860D03*
X151046180Y-111274860D03*
D28*
X146598640Y-106004360D03*
X144399000Y-106004360D03*
X146598640Y-109004100D03*
X144399000Y-109004100D03*
X146598640Y-112003840D03*
X144399000Y-112003840D03*
X146598640Y-115003580D03*
X144399000Y-115003580D03*
D29*
X153761440Y-89001600D03*
X152237440Y-89001600D03*
D30*
X152237440Y-87503000D03*
X153761440Y-87503000D03*
D29*
X150756620Y-92001340D03*
X149232620Y-92001340D03*
X147761960Y-90002360D03*
X146237960Y-90002360D03*
D30*
X150738840Y-113502440D03*
X152262840Y-113502440D03*
X128038860Y-93202760D03*
X129562860Y-93202760D03*
D31*
X149499320Y-113243360D03*
X149499320Y-114767360D03*
D29*
X153261060Y-107005120D03*
X151737060Y-107005120D03*
D32*
X150898860Y-99961700D03*
X150898860Y-98437700D03*
D31*
X153830020Y-113240820D03*
X153830020Y-114764820D03*
X148699220Y-102440740D03*
X148699220Y-103964740D03*
D32*
X130200000Y-96512000D03*
X130200000Y-94988000D03*
D30*
X146738340Y-92003880D03*
X148262340Y-92003880D03*
X146237960Y-88503760D03*
X147761960Y-88503760D03*
D29*
X149961600Y-93502480D03*
X148437600Y-93502480D03*
D30*
X152237440Y-90502740D03*
X153761440Y-90502740D03*
D31*
X149499320Y-110744000D03*
X149499320Y-112268000D03*
X148000720Y-108242100D03*
X148000720Y-109766100D03*
D32*
X149499320Y-109766100D03*
X149499320Y-108242100D03*
X147998180Y-112268000D03*
X147998180Y-110744000D03*
D30*
X149237700Y-107005120D03*
X150761700Y-107005120D03*
D29*
X151361140Y-101201220D03*
X149837140Y-101201220D03*
D33*
X144663160Y-113502440D03*
D34*
X146334480Y-113502440D03*
D33*
X144663160Y-110502700D03*
D34*
X146334480Y-110502700D03*
D33*
X144663160Y-107502960D03*
D34*
X146334480Y-107502960D03*
D33*
X144663160Y-104503220D03*
D34*
X146334480Y-104503220D03*
D32*
X150098760Y-103964740D03*
X150098760Y-102440740D03*
D35*
X131950460Y-93253560D03*
X131300220Y-93253560D03*
X130649980Y-93253560D03*
X130649980Y-91353640D03*
X131300220Y-91353640D03*
X131950460Y-91353640D03*
D36*
X125498860Y-86202520D03*
D37*
X130698240Y-86202520D03*
D38*
X133449060Y-86601300D03*
D39*
X126400560Y-88752680D03*
X132598160Y-88752680D03*
D40*
X133149340Y-86202520D03*
D37*
X128300480Y-86202520D03*
D41*
X128198880Y-88902540D03*
X128849120Y-88902540D03*
X129499360Y-88902540D03*
X130149600Y-88902540D03*
X130799840Y-88902540D03*
D31*
X153400760Y-91841320D03*
X153400760Y-93365320D03*
D42*
X152900380Y-105402380D03*
D43*
X152900380Y-101587300D03*
X153789380Y-103619300D03*
X152011380Y-103619300D03*
D44*
X153116280Y-94503240D03*
X151084280Y-95392240D03*
X151084280Y-93614240D03*
D45*
X156028635Y-115972345D03*
X154968965Y-117032015D03*
D32*
X155300680Y-114764820D03*
X155300680Y-113240820D03*
D46*
X123080000Y-119550000D03*
X123080000Y-118280000D03*
X123080000Y-117010000D03*
X123080000Y-115740000D03*
X123080000Y-114470000D03*
X123080000Y-113200000D03*
X123080000Y-111930000D03*
X123080000Y-110660000D03*
X123080000Y-109390000D03*
X123080000Y-108120000D03*
X123080000Y-106850000D03*
X123080000Y-105580000D03*
X123080000Y-104310000D03*
X123080000Y-103040000D03*
D47*
X126365000Y-101550000D03*
X127635000Y-101550000D03*
X128905000Y-101550000D03*
X130175000Y-101550000D03*
X131445000Y-101550000D03*
X132715000Y-101550000D03*
X133985000Y-101550000D03*
X135255000Y-101550000D03*
X136525000Y-101550000D03*
X137795000Y-101550000D03*
D46*
X141080000Y-103040000D03*
X141080000Y-104310000D03*
X141080000Y-105580000D03*
X141080000Y-106850000D03*
X141080000Y-108120000D03*
X141080000Y-109390000D03*
X141080000Y-110660000D03*
X141080000Y-111930000D03*
X141080000Y-113200000D03*
X141080000Y-114470000D03*
X141080000Y-115740000D03*
X141080000Y-117010000D03*
X141080000Y-118280000D03*
X141080000Y-119550000D03*
D48*
X131780000Y-111850000D03*
D49*
X128750000Y-96477280D03*
X128750000Y-95077280D03*
D50*
X124022800Y-95287080D03*
X124522800Y-95287080D03*
X125022800Y-95287080D03*
X125522800Y-95287080D03*
X126022800Y-95287080D03*
X126522800Y-95287080D03*
D51*
X127272800Y-96037080D03*
X127272800Y-96537080D03*
X127272800Y-97037080D03*
X127272800Y-97537080D03*
X127272800Y-98037080D03*
X127272800Y-98537080D03*
D50*
X126522800Y-99287080D03*
X126022800Y-99287080D03*
X125522800Y-99287080D03*
X125022800Y-99287080D03*
X124522800Y-99287080D03*
X124022800Y-99287080D03*
D51*
X123272800Y-98537080D03*
X123272800Y-98037080D03*
X123272800Y-97537080D03*
X123272800Y-97037080D03*
X123272800Y-96537080D03*
X123272800Y-96037080D03*
D52*
X124607320Y-96662240D03*
X124607320Y-97932240D03*
X125272800Y-97287080D03*
X125877320Y-97932240D03*
X125877320Y-96662240D03*
D53*
X125272800Y-97287080D03*
D54*
X122500000Y-85500000D03*
X157000000Y-85000000D03*
X156500000Y-118500000D03*
M02*
