G04 #@! TF.GenerationSoftware,KiCad,Pcbnew,5.0.2+dfsg1-1*
G04 #@! TF.CreationDate,2020-05-20T11:42:17+02:00*
G04 #@! TF.ProjectId,Crazyflie contol board,4372617a-7966-46c6-9965-20636f6e746f,2.1*
G04 #@! TF.SameCoordinates,PX85839e8PY6052f5c*
G04 #@! TF.FileFunction,Copper,L3,Inr*
G04 #@! TF.FilePolarity,Positive*
%FSLAX46Y46*%
G04 Gerber Fmt 4.6, Leading zero omitted, Abs format (unit mm)*
G04 Created by KiCad (PCBNEW 5.0.2+dfsg1-1) date wo 20 mei 2020 11:42:17 CEST*
%MOMM*%
%LPD*%
G01*
G04 APERTURE LIST*
%ADD10C,0.150000*%
%ADD11C,0.300000*%
%ADD12C,0.400000*%
G04 #@! TA.AperFunction,NonConductor*
%ADD13C,0.200025*%
G04 #@! TD*
G04 #@! TA.AperFunction,NonConductor*
%ADD14C,0.200660*%
G04 #@! TD*
G04 #@! TA.AperFunction,ViaPad*
%ADD15O,1.600200X1.198880*%
G04 #@! TD*
G04 #@! TA.AperFunction,ViaPad*
%ADD16R,1.399540X1.000760*%
G04 #@! TD*
G04 #@! TA.AperFunction,ViaPad*
%ADD17O,1.399540X1.000760*%
G04 #@! TD*
%ADD18R,1.699260X1.699260*%
G04 #@! TA.AperFunction,ViaPad*
%ADD19C,0.381000*%
G04 #@! TD*
G04 #@! TA.AperFunction,ViaPad*
%ADD20R,1.198880X1.600200*%
G04 #@! TD*
G04 #@! TA.AperFunction,ViaPad*
%ADD21O,1.198880X1.600200*%
G04 #@! TD*
G04 #@! TA.AperFunction,ViaPad*
%ADD22C,0.500000*%
G04 #@! TD*
G04 #@! TA.AperFunction,ViaPad*
%ADD23C,0.380000*%
G04 #@! TD*
G04 #@! TA.AperFunction,ViaPad*
%ADD24C,0.635000*%
G04 #@! TD*
G04 #@! TA.AperFunction,Conductor*
%ADD25C,1.501140*%
G04 #@! TD*
G04 #@! TA.AperFunction,Conductor*
%ADD26C,1.000760*%
G04 #@! TD*
G04 #@! TA.AperFunction,Conductor*
%ADD27C,0.304800*%
G04 #@! TD*
G04 #@! TA.AperFunction,Conductor*
%ADD28C,0.381000*%
G04 #@! TD*
G04 #@! TA.AperFunction,Conductor*
%ADD29C,0.203200*%
G04 #@! TD*
G04 #@! TA.AperFunction,Conductor*
%ADD30C,0.254000*%
G04 #@! TD*
G04 APERTURE END LIST*
D10*
X37002480Y-65004100D02*
X37002480Y-97004100D01*
X145002480Y-97004100D01*
X145002480Y-65004100D01*
X37002480Y-65004100D01*
X-129999720Y91003100D02*
X-129999720Y-99004100D01*
X147002480Y-99004100D01*
X147002480Y91003100D01*
X-129999720Y91003100D01*
X-127999720Y89003100D02*
X-127999720Y-97004100D01*
X145002480Y-97004100D01*
X145002480Y89003100D01*
X-127999720Y89003100D01*
X-79999720Y89003100D02*
X-79999720Y91003100D01*
X-29999720Y89003100D02*
X-29999720Y91003100D01*
X20000280Y89003100D02*
X20000280Y91003100D01*
X70000280Y89003100D02*
X70000280Y91003100D01*
X120000280Y89003100D02*
X120000280Y91003100D01*
X-103934244Y89415005D02*
X-104677101Y89415005D01*
X-104305673Y89415005D02*
X-104305673Y90715005D01*
X-104429482Y90529291D01*
X-104553292Y90405481D01*
X-104677101Y90343577D01*
X-54677101Y90591196D02*
X-54615197Y90653100D01*
X-54491387Y90715005D01*
X-54181863Y90715005D01*
X-54058054Y90653100D01*
X-53996149Y90591196D01*
X-53934244Y90467386D01*
X-53934244Y90343577D01*
X-53996149Y90157862D01*
X-54739006Y89415005D01*
X-53934244Y89415005D01*
X-4739006Y90715005D02*
X-3934244Y90715005D01*
X-4367578Y90219767D01*
X-4181863Y90219767D01*
X-4058054Y90157862D01*
X-3996149Y90095958D01*
X-3934244Y89972148D01*
X-3934244Y89662624D01*
X-3996149Y89538815D01*
X-4058054Y89476910D01*
X-4181863Y89415005D01*
X-4553292Y89415005D01*
X-4677101Y89476910D01*
X-4739006Y89538815D01*
X45941946Y90281672D02*
X45941946Y89415005D01*
X45632422Y90776910D02*
X45322899Y89848339D01*
X46127660Y89848339D01*
X96003851Y90715005D02*
X95384803Y90715005D01*
X95322899Y90095958D01*
X95384803Y90157862D01*
X95508613Y90219767D01*
X95818137Y90219767D01*
X95941946Y90157862D01*
X96003851Y90095958D01*
X96065756Y89972148D01*
X96065756Y89662624D01*
X96003851Y89538815D01*
X95941946Y89476910D01*
X95818137Y89415005D01*
X95508613Y89415005D01*
X95384803Y89476910D01*
X95322899Y89538815D01*
X145941946Y90715005D02*
X145694327Y90715005D01*
X145570518Y90653100D01*
X145508613Y90591196D01*
X145384803Y90405481D01*
X145322899Y90157862D01*
X145322899Y89662624D01*
X145384803Y89538815D01*
X145446708Y89476910D01*
X145570518Y89415005D01*
X145818137Y89415005D01*
X145941946Y89476910D01*
X146003851Y89538815D01*
X146065756Y89662624D01*
X146065756Y89972148D01*
X146003851Y90095958D01*
X145941946Y90157862D01*
X145818137Y90219767D01*
X145570518Y90219767D01*
X145446708Y90157862D01*
X145384803Y90095958D01*
X145322899Y89972148D01*
X-79999720Y-97004100D02*
X-79999720Y-99004100D01*
X-29999720Y-97004100D02*
X-29999720Y-99004100D01*
X20000280Y-97004100D02*
X20000280Y-99004100D01*
X70000280Y-97004100D02*
X70000280Y-99004100D01*
X120000280Y-97004100D02*
X120000280Y-99004100D01*
X-103934244Y-98592195D02*
X-104677101Y-98592195D01*
X-104305673Y-98592195D02*
X-104305673Y-97292195D01*
X-104429482Y-97477909D01*
X-104553292Y-97601719D01*
X-104677101Y-97663623D01*
X-54677101Y-97416004D02*
X-54615197Y-97354100D01*
X-54491387Y-97292195D01*
X-54181863Y-97292195D01*
X-54058054Y-97354100D01*
X-53996149Y-97416004D01*
X-53934244Y-97539814D01*
X-53934244Y-97663623D01*
X-53996149Y-97849338D01*
X-54739006Y-98592195D01*
X-53934244Y-98592195D01*
X-4739006Y-97292195D02*
X-3934244Y-97292195D01*
X-4367578Y-97787433D01*
X-4181863Y-97787433D01*
X-4058054Y-97849338D01*
X-3996149Y-97911242D01*
X-3934244Y-98035052D01*
X-3934244Y-98344576D01*
X-3996149Y-98468385D01*
X-4058054Y-98530290D01*
X-4181863Y-98592195D01*
X-4553292Y-98592195D01*
X-4677101Y-98530290D01*
X-4739006Y-98468385D01*
X45941946Y-97725528D02*
X45941946Y-98592195D01*
X45632422Y-97230290D02*
X45322899Y-98158861D01*
X46127660Y-98158861D01*
X96003851Y-97292195D02*
X95384803Y-97292195D01*
X95322899Y-97911242D01*
X95384803Y-97849338D01*
X95508613Y-97787433D01*
X95818137Y-97787433D01*
X95941946Y-97849338D01*
X96003851Y-97911242D01*
X96065756Y-98035052D01*
X96065756Y-98344576D01*
X96003851Y-98468385D01*
X95941946Y-98530290D01*
X95818137Y-98592195D01*
X95508613Y-98592195D01*
X95384803Y-98530290D01*
X95322899Y-98468385D01*
X145941946Y-97292195D02*
X145694327Y-97292195D01*
X145570518Y-97354100D01*
X145508613Y-97416004D01*
X145384803Y-97601719D01*
X145322899Y-97849338D01*
X145322899Y-98344576D01*
X145384803Y-98468385D01*
X145446708Y-98530290D01*
X145570518Y-98592195D01*
X145818137Y-98592195D01*
X145941946Y-98530290D01*
X146003851Y-98468385D01*
X146065756Y-98344576D01*
X146065756Y-98035052D01*
X146003851Y-97911242D01*
X145941946Y-97849338D01*
X145818137Y-97787433D01*
X145570518Y-97787433D01*
X145446708Y-97849338D01*
X145384803Y-97911242D01*
X145322899Y-98035052D01*
X-129999720Y41003100D02*
X-127999720Y41003100D01*
X-129999720Y-8996900D02*
X-127999720Y-8996900D01*
X-129999720Y-58996900D02*
X-127999720Y-58996900D01*
X-129309244Y65786434D02*
X-128690197Y65786434D01*
X-129433054Y65415005D02*
X-128999720Y66715005D01*
X-128566387Y65415005D01*
X-128906863Y16095958D02*
X-128721149Y16034053D01*
X-128659244Y15972148D01*
X-128597340Y15848339D01*
X-128597340Y15662624D01*
X-128659244Y15538815D01*
X-128721149Y15476910D01*
X-128844959Y15415005D01*
X-129340197Y15415005D01*
X-129340197Y16715005D01*
X-128906863Y16715005D01*
X-128783054Y16653100D01*
X-128721149Y16591196D01*
X-128659244Y16467386D01*
X-128659244Y16343577D01*
X-128721149Y16219767D01*
X-128783054Y16157862D01*
X-128906863Y16095958D01*
X-129340197Y16095958D01*
X-128597340Y-34461185D02*
X-128659244Y-34523090D01*
X-128844959Y-34584995D01*
X-128968768Y-34584995D01*
X-129154482Y-34523090D01*
X-129278292Y-34399280D01*
X-129340197Y-34275471D01*
X-129402101Y-34027852D01*
X-129402101Y-33842138D01*
X-129340197Y-33594519D01*
X-129278292Y-33470709D01*
X-129154482Y-33346900D01*
X-128968768Y-33284995D01*
X-128844959Y-33284995D01*
X-128659244Y-33346900D01*
X-128597340Y-33408804D01*
X-129340197Y-84584995D02*
X-129340197Y-83284995D01*
X-129030673Y-83284995D01*
X-128844959Y-83346900D01*
X-128721149Y-83470709D01*
X-128659244Y-83594519D01*
X-128597340Y-83842138D01*
X-128597340Y-84027852D01*
X-128659244Y-84275471D01*
X-128721149Y-84399280D01*
X-128844959Y-84523090D01*
X-129030673Y-84584995D01*
X-129340197Y-84584995D01*
X147002480Y41003100D02*
X145002480Y41003100D01*
X147002480Y-8996900D02*
X145002480Y-8996900D01*
X147002480Y-58996900D02*
X145002480Y-58996900D01*
X145692956Y65786434D02*
X146312003Y65786434D01*
X145569146Y65415005D02*
X146002480Y66715005D01*
X146435813Y65415005D01*
X146095337Y16095958D02*
X146281051Y16034053D01*
X146342956Y15972148D01*
X146404860Y15848339D01*
X146404860Y15662624D01*
X146342956Y15538815D01*
X146281051Y15476910D01*
X146157241Y15415005D01*
X145662003Y15415005D01*
X145662003Y16715005D01*
X146095337Y16715005D01*
X146219146Y16653100D01*
X146281051Y16591196D01*
X146342956Y16467386D01*
X146342956Y16343577D01*
X146281051Y16219767D01*
X146219146Y16157862D01*
X146095337Y16095958D01*
X145662003Y16095958D01*
X146404860Y-34461185D02*
X146342956Y-34523090D01*
X146157241Y-34584995D01*
X146033432Y-34584995D01*
X145847718Y-34523090D01*
X145723908Y-34399280D01*
X145662003Y-34275471D01*
X145600099Y-34027852D01*
X145600099Y-33842138D01*
X145662003Y-33594519D01*
X145723908Y-33470709D01*
X145847718Y-33346900D01*
X146033432Y-33284995D01*
X146157241Y-33284995D01*
X146342956Y-33346900D01*
X146404860Y-33408804D01*
X145662003Y-84584995D02*
X145662003Y-83284995D01*
X145971527Y-83284995D01*
X146157241Y-83346900D01*
X146281051Y-83470709D01*
X146342956Y-83594519D01*
X146404860Y-83842138D01*
X146404860Y-84027852D01*
X146342956Y-84275471D01*
X146281051Y-84399280D01*
X146157241Y-84523090D01*
X145971527Y-84584995D01*
X145662003Y-84584995D01*
X60434622Y-92782671D02*
X60434622Y-91282671D01*
X60791765Y-91282671D01*
X61006051Y-91354100D01*
X61148908Y-91496957D01*
X61220337Y-91639814D01*
X61291765Y-91925528D01*
X61291765Y-92139814D01*
X61220337Y-92425528D01*
X61148908Y-92568385D01*
X61006051Y-92711242D01*
X60791765Y-92782671D01*
X60434622Y-92782671D01*
X62577480Y-92782671D02*
X62577480Y-91996957D01*
X62506051Y-91854100D01*
X62363194Y-91782671D01*
X62077480Y-91782671D01*
X61934622Y-91854100D01*
X62577480Y-92711242D02*
X62434622Y-92782671D01*
X62077480Y-92782671D01*
X61934622Y-92711242D01*
X61863194Y-92568385D01*
X61863194Y-92425528D01*
X61934622Y-92282671D01*
X62077480Y-92211242D01*
X62434622Y-92211242D01*
X62577480Y-92139814D01*
X63077480Y-91782671D02*
X63648908Y-91782671D01*
X63291765Y-91282671D02*
X63291765Y-92568385D01*
X63363194Y-92711242D01*
X63506051Y-92782671D01*
X63648908Y-92782671D01*
X64720337Y-92711242D02*
X64577480Y-92782671D01*
X64291765Y-92782671D01*
X64148908Y-92711242D01*
X64077480Y-92568385D01*
X64077480Y-91996957D01*
X64148908Y-91854100D01*
X64291765Y-91782671D01*
X64577480Y-91782671D01*
X64720337Y-91854100D01*
X64791765Y-91996957D01*
X64791765Y-92139814D01*
X64077480Y-92282671D01*
X65434622Y-92639814D02*
X65506051Y-92711242D01*
X65434622Y-92782671D01*
X65363194Y-92711242D01*
X65434622Y-92639814D01*
X65434622Y-92782671D01*
X65434622Y-91854100D02*
X65506051Y-91925528D01*
X65434622Y-91996957D01*
X65363194Y-91925528D01*
X65434622Y-91854100D01*
X65434622Y-91996957D01*
X67220337Y-91425528D02*
X67291765Y-91354100D01*
X67434622Y-91282671D01*
X67791765Y-91282671D01*
X67934622Y-91354100D01*
X68006051Y-91425528D01*
X68077480Y-91568385D01*
X68077480Y-91711242D01*
X68006051Y-91925528D01*
X67148908Y-92782671D01*
X68077480Y-92782671D01*
X69006051Y-91282671D02*
X69148908Y-91282671D01*
X69291765Y-91354100D01*
X69363194Y-91425528D01*
X69434622Y-91568385D01*
X69506051Y-91854100D01*
X69506051Y-92211242D01*
X69434622Y-92496957D01*
X69363194Y-92639814D01*
X69291765Y-92711242D01*
X69148908Y-92782671D01*
X69006051Y-92782671D01*
X68863194Y-92711242D01*
X68791765Y-92639814D01*
X68720337Y-92496957D01*
X68648908Y-92211242D01*
X68648908Y-91854100D01*
X68720337Y-91568385D01*
X68791765Y-91425528D01*
X68863194Y-91354100D01*
X69006051Y-91282671D01*
X70077480Y-91425528D02*
X70148908Y-91354100D01*
X70291765Y-91282671D01*
X70648908Y-91282671D01*
X70791765Y-91354100D01*
X70863194Y-91425528D01*
X70934622Y-91568385D01*
X70934622Y-91711242D01*
X70863194Y-91925528D01*
X70006051Y-92782671D01*
X70934622Y-92782671D01*
X71863194Y-91282671D02*
X72006051Y-91282671D01*
X72148908Y-91354100D01*
X72220337Y-91425528D01*
X72291765Y-91568385D01*
X72363194Y-91854100D01*
X72363194Y-92211242D01*
X72291765Y-92496957D01*
X72220337Y-92639814D01*
X72148908Y-92711242D01*
X72006051Y-92782671D01*
X71863194Y-92782671D01*
X71720337Y-92711242D01*
X71648908Y-92639814D01*
X71577480Y-92496957D01*
X71506051Y-92211242D01*
X71506051Y-91854100D01*
X71577480Y-91568385D01*
X71648908Y-91425528D01*
X71720337Y-91354100D01*
X71863194Y-91282671D01*
X73006051Y-92211242D02*
X74148908Y-92211242D01*
X75148908Y-91282671D02*
X75291765Y-91282671D01*
X75434622Y-91354100D01*
X75506051Y-91425528D01*
X75577480Y-91568385D01*
X75648908Y-91854100D01*
X75648908Y-92211242D01*
X75577480Y-92496957D01*
X75506051Y-92639814D01*
X75434622Y-92711242D01*
X75291765Y-92782671D01*
X75148908Y-92782671D01*
X75006051Y-92711242D01*
X74934622Y-92639814D01*
X74863194Y-92496957D01*
X74791765Y-92211242D01*
X74791765Y-91854100D01*
X74863194Y-91568385D01*
X74934622Y-91425528D01*
X75006051Y-91354100D01*
X75148908Y-91282671D01*
X77006051Y-91282671D02*
X76291765Y-91282671D01*
X76220337Y-91996957D01*
X76291765Y-91925528D01*
X76434622Y-91854100D01*
X76791765Y-91854100D01*
X76934622Y-91925528D01*
X77006051Y-91996957D01*
X77077480Y-92139814D01*
X77077480Y-92496957D01*
X77006051Y-92639814D01*
X76934622Y-92711242D01*
X76791765Y-92782671D01*
X76434622Y-92782671D01*
X76291765Y-92711242D01*
X76220337Y-92639814D01*
X77720337Y-92211242D02*
X78863194Y-92211242D01*
X80363194Y-92782671D02*
X79506051Y-92782671D01*
X79934622Y-92782671D02*
X79934622Y-91282671D01*
X79791765Y-91496957D01*
X79648908Y-91639814D01*
X79506051Y-91711242D01*
X80934622Y-91425528D02*
X81006051Y-91354100D01*
X81148908Y-91282671D01*
X81506051Y-91282671D01*
X81648908Y-91354100D01*
X81720337Y-91425528D01*
X81791765Y-91568385D01*
X81791765Y-91711242D01*
X81720337Y-91925528D01*
X80863194Y-92782671D01*
X81791765Y-92782671D01*
X37002480Y-93504100D02*
X145002480Y-93504100D01*
X38434622Y-95582671D02*
X38434622Y-94082671D01*
X39291765Y-95582671D02*
X38648908Y-94725528D01*
X39291765Y-94082671D02*
X38434622Y-94939814D01*
X39934622Y-95582671D02*
X39934622Y-94582671D01*
X39934622Y-94082671D02*
X39863194Y-94154100D01*
X39934622Y-94225528D01*
X40006051Y-94154100D01*
X39934622Y-94082671D01*
X39934622Y-94225528D01*
X41506051Y-95439814D02*
X41434622Y-95511242D01*
X41220337Y-95582671D01*
X41077480Y-95582671D01*
X40863194Y-95511242D01*
X40720337Y-95368385D01*
X40648908Y-95225528D01*
X40577480Y-94939814D01*
X40577480Y-94725528D01*
X40648908Y-94439814D01*
X40720337Y-94296957D01*
X40863194Y-94154100D01*
X41077480Y-94082671D01*
X41220337Y-94082671D01*
X41434622Y-94154100D01*
X41506051Y-94225528D01*
X42791765Y-95582671D02*
X42791765Y-94796957D01*
X42720337Y-94654100D01*
X42577480Y-94582671D01*
X42291765Y-94582671D01*
X42148908Y-94654100D01*
X42791765Y-95511242D02*
X42648908Y-95582671D01*
X42291765Y-95582671D01*
X42148908Y-95511242D01*
X42077480Y-95368385D01*
X42077480Y-95225528D01*
X42148908Y-95082671D01*
X42291765Y-95011242D01*
X42648908Y-95011242D01*
X42791765Y-94939814D01*
X44148908Y-95582671D02*
X44148908Y-94082671D01*
X44148908Y-95511242D02*
X44006051Y-95582671D01*
X43720337Y-95582671D01*
X43577480Y-95511242D01*
X43506051Y-95439814D01*
X43434622Y-95296957D01*
X43434622Y-94868385D01*
X43506051Y-94725528D01*
X43577480Y-94654100D01*
X43720337Y-94582671D01*
X44006051Y-94582671D01*
X44148908Y-94654100D01*
X46006051Y-94796957D02*
X46506051Y-94796957D01*
X46720337Y-95582671D02*
X46006051Y-95582671D01*
X46006051Y-94082671D01*
X46720337Y-94082671D01*
X47363194Y-95439814D02*
X47434622Y-95511242D01*
X47363194Y-95582671D01*
X47291765Y-95511242D01*
X47363194Y-95439814D01*
X47363194Y-95582671D01*
X48077480Y-95582671D02*
X48077480Y-94082671D01*
X48434622Y-94082671D01*
X48648908Y-94154100D01*
X48791765Y-94296957D01*
X48863194Y-94439814D01*
X48934622Y-94725528D01*
X48934622Y-94939814D01*
X48863194Y-95225528D01*
X48791765Y-95368385D01*
X48648908Y-95511242D01*
X48434622Y-95582671D01*
X48077480Y-95582671D01*
X49577480Y-95439814D02*
X49648908Y-95511242D01*
X49577480Y-95582671D01*
X49506051Y-95511242D01*
X49577480Y-95439814D01*
X49577480Y-95582671D01*
X50220337Y-95154100D02*
X50934622Y-95154100D01*
X50077480Y-95582671D02*
X50577480Y-94082671D01*
X51077480Y-95582671D01*
X51577480Y-95439814D02*
X51648908Y-95511242D01*
X51577480Y-95582671D01*
X51506051Y-95511242D01*
X51577480Y-95439814D01*
X51577480Y-95582671D01*
X54577480Y-95582671D02*
X54577480Y-94082671D01*
X54720337Y-95011242D02*
X55148908Y-95582671D01*
X55148908Y-94582671D02*
X54577480Y-95154100D01*
X55791765Y-95582671D02*
X55791765Y-94582671D01*
X55791765Y-94082671D02*
X55720337Y-94154100D01*
X55791765Y-94225528D01*
X55863194Y-94154100D01*
X55791765Y-94082671D01*
X55791765Y-94225528D01*
X57148908Y-95511242D02*
X57006051Y-95582671D01*
X56720337Y-95582671D01*
X56577480Y-95511242D01*
X56506051Y-95439814D01*
X56434622Y-95296957D01*
X56434622Y-94868385D01*
X56506051Y-94725528D01*
X56577480Y-94654100D01*
X56720337Y-94582671D01*
X57006051Y-94582671D01*
X57148908Y-94654100D01*
X58434622Y-95582671D02*
X58434622Y-94796957D01*
X58363194Y-94654100D01*
X58220337Y-94582671D01*
X57934622Y-94582671D01*
X57791765Y-94654100D01*
X58434622Y-95511242D02*
X58291765Y-95582671D01*
X57934622Y-95582671D01*
X57791765Y-95511242D01*
X57720337Y-95368385D01*
X57720337Y-95225528D01*
X57791765Y-95082671D01*
X57934622Y-95011242D01*
X58291765Y-95011242D01*
X58434622Y-94939814D01*
X59791765Y-95582671D02*
X59791765Y-94082671D01*
X59791765Y-95511242D02*
X59648908Y-95582671D01*
X59363194Y-95582671D01*
X59220337Y-95511242D01*
X59148908Y-95439814D01*
X59077480Y-95296957D01*
X59077480Y-94868385D01*
X59148908Y-94725528D01*
X59220337Y-94654100D01*
X59363194Y-94582671D01*
X59648908Y-94582671D01*
X59791765Y-94654100D01*
X62363194Y-94082671D02*
X61648908Y-94082671D01*
X61577480Y-94796957D01*
X61648908Y-94725528D01*
X61791765Y-94654100D01*
X62148908Y-94654100D01*
X62291765Y-94725528D01*
X62363194Y-94796957D01*
X62434622Y-94939814D01*
X62434622Y-95296957D01*
X62363194Y-95439814D01*
X62291765Y-95511242D01*
X62148908Y-95582671D01*
X61791765Y-95582671D01*
X61648908Y-95511242D01*
X61577480Y-95439814D01*
X63077480Y-95439814D02*
X63148908Y-95511242D01*
X63077480Y-95582671D01*
X63006051Y-95511242D01*
X63077480Y-95439814D01*
X63077480Y-95582671D01*
X64077480Y-94082671D02*
X64220337Y-94082671D01*
X64363194Y-94154100D01*
X64434622Y-94225528D01*
X64506051Y-94368385D01*
X64577480Y-94654100D01*
X64577480Y-95011242D01*
X64506051Y-95296957D01*
X64434622Y-95439814D01*
X64363194Y-95511242D01*
X64220337Y-95582671D01*
X64077480Y-95582671D01*
X63934622Y-95511242D01*
X63863194Y-95439814D01*
X63791765Y-95296957D01*
X63720337Y-95011242D01*
X63720337Y-94654100D01*
X63791765Y-94368385D01*
X63863194Y-94225528D01*
X63934622Y-94154100D01*
X64077480Y-94082671D01*
X65220337Y-95439814D02*
X65291765Y-95511242D01*
X65220337Y-95582671D01*
X65148908Y-95511242D01*
X65220337Y-95439814D01*
X65220337Y-95582671D01*
X65863194Y-94225528D02*
X65934622Y-94154100D01*
X66077480Y-94082671D01*
X66434622Y-94082671D01*
X66577480Y-94154100D01*
X66648908Y-94225528D01*
X66720337Y-94368385D01*
X66720337Y-94511242D01*
X66648908Y-94725528D01*
X65791765Y-95582671D01*
X66720337Y-95582671D01*
X67363194Y-95011242D02*
X68506051Y-95011242D01*
X67934622Y-95582671D02*
X67934622Y-94439814D01*
X69863194Y-95582671D02*
X69863194Y-94082671D01*
X69863194Y-95511242D02*
X69720337Y-95582671D01*
X69434622Y-95582671D01*
X69291765Y-95511242D01*
X69220337Y-95439814D01*
X69148908Y-95296957D01*
X69148908Y-94868385D01*
X69220337Y-94725528D01*
X69291765Y-94654100D01*
X69434622Y-94582671D01*
X69720337Y-94582671D01*
X69863194Y-94654100D01*
X70363194Y-94582671D02*
X70934622Y-94582671D01*
X70577480Y-95582671D02*
X70577480Y-94296957D01*
X70648908Y-94154100D01*
X70791765Y-94082671D01*
X70934622Y-94082671D01*
X71363194Y-95511242D02*
X71506051Y-95582671D01*
X71791765Y-95582671D01*
X71934622Y-95511242D01*
X72006051Y-95368385D01*
X72006051Y-95296957D01*
X71934622Y-95154100D01*
X71791765Y-95082671D01*
X71577480Y-95082671D01*
X71434622Y-95011242D01*
X71363194Y-94868385D01*
X71363194Y-94796957D01*
X71434622Y-94654100D01*
X71577480Y-94582671D01*
X71791765Y-94582671D01*
X71934622Y-94654100D01*
X73291765Y-94582671D02*
X73291765Y-95796957D01*
X73220337Y-95939814D01*
X73148908Y-96011242D01*
X73006051Y-96082671D01*
X72791765Y-96082671D01*
X72648908Y-96011242D01*
X73291765Y-95511242D02*
X73148908Y-95582671D01*
X72863194Y-95582671D01*
X72720337Y-95511242D01*
X72648908Y-95439814D01*
X72577480Y-95296957D01*
X72577480Y-94868385D01*
X72648908Y-94725528D01*
X72720337Y-94654100D01*
X72863194Y-94582671D01*
X73148908Y-94582671D01*
X73291765Y-94654100D01*
X74791765Y-95582671D02*
X73934622Y-95582671D01*
X74363194Y-95582671D02*
X74363194Y-94082671D01*
X74220337Y-94296957D01*
X74077480Y-94439814D01*
X73934622Y-94511242D01*
X75434622Y-95011242D02*
X76577480Y-95011242D01*
X78077480Y-95582671D02*
X77220337Y-95582671D01*
X77648908Y-95582671D02*
X77648908Y-94082671D01*
X77506051Y-94296957D01*
X77363194Y-94439814D01*
X77220337Y-94511242D01*
X37002480Y-90504100D02*
X145002480Y-90504100D01*
D11*
X124411765Y-92782671D02*
X123911765Y-92068385D01*
X123554622Y-92782671D02*
X123554622Y-91282671D01*
X124126051Y-91282671D01*
X124268908Y-91354100D01*
X124340337Y-91425528D01*
X124411765Y-91568385D01*
X124411765Y-91782671D01*
X124340337Y-91925528D01*
X124268908Y-91996957D01*
X124126051Y-92068385D01*
X123554622Y-92068385D01*
X125626051Y-92711242D02*
X125483194Y-92782671D01*
X125197480Y-92782671D01*
X125054622Y-92711242D01*
X124983194Y-92568385D01*
X124983194Y-91996957D01*
X125054622Y-91854100D01*
X125197480Y-91782671D01*
X125483194Y-91782671D01*
X125626051Y-91854100D01*
X125697480Y-91996957D01*
X125697480Y-92139814D01*
X124983194Y-92282671D01*
X126197480Y-91782671D02*
X126554622Y-92782671D01*
X126911765Y-91782671D01*
X127483194Y-92639814D02*
X127554622Y-92711242D01*
X127483194Y-92782671D01*
X127411765Y-92711242D01*
X127483194Y-92639814D01*
X127483194Y-92782671D01*
X127483194Y-91854100D02*
X127554622Y-91925528D01*
X127483194Y-91996957D01*
X127411765Y-91925528D01*
X127483194Y-91854100D01*
X127483194Y-91996957D01*
X129268908Y-91425528D02*
X129340337Y-91354100D01*
X129483194Y-91282671D01*
X129840337Y-91282671D01*
X129983194Y-91354100D01*
X130054622Y-91425528D01*
X130126051Y-91568385D01*
X130126051Y-91711242D01*
X130054622Y-91925528D01*
X129197480Y-92782671D01*
X130126051Y-92782671D01*
X130768908Y-92639814D02*
X130840337Y-92711242D01*
X130768908Y-92782671D01*
X130697480Y-92711242D01*
X130768908Y-92639814D01*
X130768908Y-92782671D01*
X132268908Y-92782671D02*
X131411765Y-92782671D01*
X131840337Y-92782671D02*
X131840337Y-91282671D01*
X131697480Y-91496957D01*
X131554622Y-91639814D01*
X131411765Y-91711242D01*
D10*
X38363194Y-92711242D02*
X38577480Y-92782671D01*
X38934622Y-92782671D01*
X39077480Y-92711242D01*
X39148908Y-92639814D01*
X39220337Y-92496957D01*
X39220337Y-92354100D01*
X39148908Y-92211242D01*
X39077480Y-92139814D01*
X38934622Y-92068385D01*
X38648908Y-91996957D01*
X38506051Y-91925528D01*
X38434622Y-91854100D01*
X38363194Y-91711242D01*
X38363194Y-91568385D01*
X38434622Y-91425528D01*
X38506051Y-91354100D01*
X38648908Y-91282671D01*
X39006051Y-91282671D01*
X39220337Y-91354100D01*
X39863194Y-92782671D02*
X39863194Y-91782671D01*
X39863194Y-91282671D02*
X39791765Y-91354100D01*
X39863194Y-91425528D01*
X39934622Y-91354100D01*
X39863194Y-91282671D01*
X39863194Y-91425528D01*
X40434622Y-91782671D02*
X41220337Y-91782671D01*
X40434622Y-92782671D01*
X41220337Y-92782671D01*
X42363194Y-92711242D02*
X42220337Y-92782671D01*
X41934622Y-92782671D01*
X41791765Y-92711242D01*
X41720337Y-92568385D01*
X41720337Y-91996957D01*
X41791765Y-91854100D01*
X41934622Y-91782671D01*
X42220337Y-91782671D01*
X42363194Y-91854100D01*
X42434622Y-91996957D01*
X42434622Y-92139814D01*
X41720337Y-92282671D01*
X43077480Y-92639814D02*
X43148908Y-92711242D01*
X43077480Y-92782671D01*
X43006051Y-92711242D01*
X43077480Y-92639814D01*
X43077480Y-92782671D01*
X43077480Y-91854100D02*
X43148908Y-91925528D01*
X43077480Y-91996957D01*
X43006051Y-91925528D01*
X43077480Y-91854100D01*
X43077480Y-91996957D01*
X44863194Y-92354100D02*
X45577480Y-92354100D01*
X44720337Y-92782671D02*
X45220337Y-91282671D01*
X45720337Y-92782671D01*
X46863194Y-91782671D02*
X46863194Y-92782671D01*
X46506051Y-91211242D02*
X46148908Y-92282671D01*
X47077480Y-92282671D01*
X123434622Y-95582671D02*
X123434622Y-94082671D01*
X124791765Y-95582671D02*
X124791765Y-94082671D01*
X124791765Y-95511242D02*
X124648908Y-95582671D01*
X124363194Y-95582671D01*
X124220337Y-95511242D01*
X124148908Y-95439814D01*
X124077480Y-95296957D01*
X124077480Y-94868385D01*
X124148908Y-94725528D01*
X124220337Y-94654100D01*
X124363194Y-94582671D01*
X124648908Y-94582671D01*
X124791765Y-94654100D01*
X125506051Y-95439814D02*
X125577480Y-95511242D01*
X125506051Y-95582671D01*
X125434622Y-95511242D01*
X125506051Y-95439814D01*
X125506051Y-95582671D01*
X125506051Y-94654100D02*
X125577480Y-94725528D01*
X125506051Y-94796957D01*
X125434622Y-94725528D01*
X125506051Y-94654100D01*
X125506051Y-94796957D01*
X128148908Y-95582671D02*
X127291765Y-95582671D01*
X127720337Y-95582671D02*
X127720337Y-94082671D01*
X127577480Y-94296957D01*
X127434622Y-94439814D01*
X127291765Y-94511242D01*
X129863194Y-94011242D02*
X128577480Y-95939814D01*
X131148908Y-95582671D02*
X130291765Y-95582671D01*
X130720337Y-95582671D02*
X130720337Y-94082671D01*
X130577480Y-94296957D01*
X130434622Y-94439814D01*
X130291765Y-94511242D01*
X37002480Y-86504100D02*
X145002480Y-86504100D01*
D12*
X38714860Y-87208861D02*
X39857718Y-87208861D01*
X39036289Y-89208861D02*
X39286289Y-87208861D01*
X40274384Y-89208861D02*
X40441051Y-87875528D01*
X40524384Y-87208861D02*
X40417241Y-87304100D01*
X40500575Y-87399338D01*
X40607718Y-87304100D01*
X40524384Y-87208861D01*
X40500575Y-87399338D01*
X41107718Y-87875528D02*
X41869622Y-87875528D01*
X41476765Y-87208861D02*
X41262480Y-88923147D01*
X41333908Y-89113623D01*
X41512480Y-89208861D01*
X41702956Y-89208861D01*
X42655337Y-89208861D02*
X42476765Y-89113623D01*
X42405337Y-88923147D01*
X42619622Y-87208861D01*
X44191051Y-89113623D02*
X43988670Y-89208861D01*
X43607718Y-89208861D01*
X43429146Y-89113623D01*
X43357718Y-88923147D01*
X43452956Y-88161242D01*
X43572003Y-87970766D01*
X43774384Y-87875528D01*
X44155337Y-87875528D01*
X44333908Y-87970766D01*
X44405337Y-88161242D01*
X44381527Y-88351719D01*
X43405337Y-88542195D01*
X45155337Y-89018385D02*
X45238670Y-89113623D01*
X45131527Y-89208861D01*
X45048194Y-89113623D01*
X45155337Y-89018385D01*
X45131527Y-89208861D01*
X45286289Y-87970766D02*
X45369622Y-88066004D01*
X45262480Y-88161242D01*
X45179146Y-88066004D01*
X45286289Y-87970766D01*
X45262480Y-88161242D01*
X48774384Y-89018385D02*
X48667241Y-89113623D01*
X48369622Y-89208861D01*
X48179146Y-89208861D01*
X47905337Y-89113623D01*
X47738670Y-88923147D01*
X47667241Y-88732671D01*
X47619622Y-88351719D01*
X47655337Y-88066004D01*
X47798194Y-87685052D01*
X47917241Y-87494576D01*
X48131527Y-87304100D01*
X48429146Y-87208861D01*
X48619622Y-87208861D01*
X48893432Y-87304100D01*
X48976765Y-87399338D01*
X49607718Y-89208861D02*
X49774384Y-87875528D01*
X49726765Y-88256480D02*
X49845813Y-88066004D01*
X49952956Y-87970766D01*
X50155337Y-87875528D01*
X50345813Y-87875528D01*
X51702956Y-89208861D02*
X51833908Y-88161242D01*
X51762480Y-87970766D01*
X51583908Y-87875528D01*
X51202956Y-87875528D01*
X51000575Y-87970766D01*
X51714860Y-89113623D02*
X51512480Y-89208861D01*
X51036289Y-89208861D01*
X50857718Y-89113623D01*
X50786289Y-88923147D01*
X50810099Y-88732671D01*
X50929146Y-88542195D01*
X51131527Y-88446957D01*
X51607718Y-88446957D01*
X51810099Y-88351719D01*
X52631527Y-87875528D02*
X53679146Y-87875528D01*
X52464860Y-89208861D01*
X53512480Y-89208861D01*
X54250575Y-87875528D02*
X54560099Y-89208861D01*
X55202956Y-87875528D02*
X54560099Y-89208861D01*
X54310099Y-89685052D01*
X54202956Y-89780290D01*
X54000575Y-89875528D01*
X55679146Y-87875528D02*
X56441051Y-87875528D01*
X55798194Y-89208861D02*
X56012480Y-87494576D01*
X56131527Y-87304100D01*
X56333908Y-87208861D01*
X56524384Y-87208861D01*
X57226765Y-89208861D02*
X57048194Y-89113623D01*
X56976765Y-88923147D01*
X57191051Y-87208861D01*
X57988670Y-89208861D02*
X58155337Y-87875528D01*
X58238670Y-87208861D02*
X58131527Y-87304100D01*
X58214860Y-87399338D01*
X58322003Y-87304100D01*
X58238670Y-87208861D01*
X58214860Y-87399338D01*
X59714860Y-89113623D02*
X59512480Y-89208861D01*
X59131527Y-89208861D01*
X58952956Y-89113623D01*
X58881527Y-88923147D01*
X58976765Y-88161242D01*
X59095813Y-87970766D01*
X59298194Y-87875528D01*
X59679146Y-87875528D01*
X59857718Y-87970766D01*
X59929146Y-88161242D01*
X59905337Y-88351719D01*
X58929146Y-88542195D01*
X63048194Y-89113623D02*
X62845813Y-89208861D01*
X62464860Y-89208861D01*
X62286289Y-89113623D01*
X62202956Y-89018385D01*
X62131527Y-88827909D01*
X62202956Y-88256480D01*
X62322003Y-88066004D01*
X62429146Y-87970766D01*
X62631527Y-87875528D01*
X63012480Y-87875528D01*
X63191051Y-87970766D01*
X64179146Y-89208861D02*
X64000575Y-89113623D01*
X63917241Y-89018385D01*
X63845813Y-88827909D01*
X63917241Y-88256480D01*
X64036289Y-88066004D01*
X64143432Y-87970766D01*
X64345813Y-87875528D01*
X64631527Y-87875528D01*
X64810099Y-87970766D01*
X64893432Y-88066004D01*
X64964860Y-88256480D01*
X64893432Y-88827909D01*
X64774384Y-89018385D01*
X64667241Y-89113623D01*
X64464860Y-89208861D01*
X64179146Y-89208861D01*
X65869622Y-87875528D02*
X65702956Y-89208861D01*
X65845813Y-88066004D02*
X65952956Y-87970766D01*
X66155337Y-87875528D01*
X66441051Y-87875528D01*
X66619622Y-87970766D01*
X66691051Y-88161242D01*
X66560099Y-89208861D01*
X67393432Y-87875528D02*
X68155337Y-87875528D01*
X67762480Y-87208861D02*
X67548194Y-88923147D01*
X67619622Y-89113623D01*
X67798194Y-89208861D01*
X67988670Y-89208861D01*
X68655337Y-89208861D02*
X68822003Y-87875528D01*
X68774384Y-88256480D02*
X68893432Y-88066004D01*
X69000575Y-87970766D01*
X69202956Y-87875528D01*
X69393432Y-87875528D01*
X70179146Y-89208861D02*
X70000575Y-89113623D01*
X69917241Y-89018385D01*
X69845813Y-88827909D01*
X69917241Y-88256480D01*
X70036289Y-88066004D01*
X70143432Y-87970766D01*
X70345813Y-87875528D01*
X70631527Y-87875528D01*
X70810099Y-87970766D01*
X70893432Y-88066004D01*
X70964860Y-88256480D01*
X70893432Y-88827909D01*
X70774384Y-89018385D01*
X70667241Y-89113623D01*
X70464860Y-89208861D01*
X70179146Y-89208861D01*
X71988670Y-89208861D02*
X71810099Y-89113623D01*
X71738670Y-88923147D01*
X71952956Y-87208861D01*
X74274384Y-89208861D02*
X74524384Y-87208861D01*
X74429146Y-87970766D02*
X74631527Y-87875528D01*
X75012480Y-87875528D01*
X75191051Y-87970766D01*
X75274384Y-88066004D01*
X75345813Y-88256480D01*
X75274384Y-88827909D01*
X75155337Y-89018385D01*
X75048194Y-89113623D01*
X74845813Y-89208861D01*
X74464860Y-89208861D01*
X74286289Y-89113623D01*
X76369622Y-89208861D02*
X76191051Y-89113623D01*
X76107718Y-89018385D01*
X76036289Y-88827909D01*
X76107718Y-88256480D01*
X76226765Y-88066004D01*
X76333908Y-87970766D01*
X76536289Y-87875528D01*
X76822003Y-87875528D01*
X77000575Y-87970766D01*
X77083908Y-88066004D01*
X77155337Y-88256480D01*
X77083908Y-88827909D01*
X76964860Y-89018385D01*
X76857718Y-89113623D01*
X76655337Y-89208861D01*
X76369622Y-89208861D01*
X78750575Y-89208861D02*
X78881527Y-88161242D01*
X78810099Y-87970766D01*
X78631527Y-87875528D01*
X78250575Y-87875528D01*
X78048194Y-87970766D01*
X78762480Y-89113623D02*
X78560099Y-89208861D01*
X78083908Y-89208861D01*
X77905337Y-89113623D01*
X77833908Y-88923147D01*
X77857718Y-88732671D01*
X77976765Y-88542195D01*
X78179146Y-88446957D01*
X78655337Y-88446957D01*
X78857718Y-88351719D01*
X79702956Y-89208861D02*
X79869622Y-87875528D01*
X79822003Y-88256480D02*
X79941051Y-88066004D01*
X80048194Y-87970766D01*
X80250575Y-87875528D01*
X80441051Y-87875528D01*
X81798194Y-89208861D02*
X82048194Y-87208861D01*
X81810099Y-89113623D02*
X81607718Y-89208861D01*
X81226765Y-89208861D01*
X81048194Y-89113623D01*
X80964860Y-89018385D01*
X80893432Y-88827909D01*
X80964860Y-88256480D01*
X81083908Y-88066004D01*
X81191051Y-87970766D01*
X81393432Y-87875528D01*
X81774384Y-87875528D01*
X81952956Y-87970766D01*
D10*
X38934622Y-84596957D02*
X38434622Y-84596957D01*
X38434622Y-85382671D02*
X38434622Y-83882671D01*
X39148908Y-83882671D01*
X39720337Y-85382671D02*
X39720337Y-84382671D01*
X39720337Y-83882671D02*
X39648908Y-83954100D01*
X39720337Y-84025528D01*
X39791765Y-83954100D01*
X39720337Y-83882671D01*
X39720337Y-84025528D01*
X40648908Y-85382671D02*
X40506051Y-85311242D01*
X40434622Y-85168385D01*
X40434622Y-83882671D01*
X41791765Y-85311242D02*
X41648908Y-85382671D01*
X41363194Y-85382671D01*
X41220337Y-85311242D01*
X41148908Y-85168385D01*
X41148908Y-84596957D01*
X41220337Y-84454100D01*
X41363194Y-84382671D01*
X41648908Y-84382671D01*
X41791765Y-84454100D01*
X41863194Y-84596957D01*
X41863194Y-84739814D01*
X41148908Y-84882671D01*
X42506051Y-85239814D02*
X42577480Y-85311242D01*
X42506051Y-85382671D01*
X42434622Y-85311242D01*
X42506051Y-85239814D01*
X42506051Y-85382671D01*
X42506051Y-84454100D02*
X42577480Y-84525528D01*
X42506051Y-84596957D01*
X42434622Y-84525528D01*
X42506051Y-84454100D01*
X42506051Y-84596957D01*
X45220337Y-85239814D02*
X45148908Y-85311242D01*
X44934622Y-85382671D01*
X44791765Y-85382671D01*
X44577480Y-85311242D01*
X44434622Y-85168385D01*
X44363194Y-85025528D01*
X44291765Y-84739814D01*
X44291765Y-84525528D01*
X44363194Y-84239814D01*
X44434622Y-84096957D01*
X44577480Y-83954100D01*
X44791765Y-83882671D01*
X44934622Y-83882671D01*
X45148908Y-83954100D01*
X45220337Y-84025528D01*
X45863194Y-85382671D02*
X45863194Y-84382671D01*
X45863194Y-84668385D02*
X45934622Y-84525528D01*
X46006051Y-84454100D01*
X46148908Y-84382671D01*
X46291765Y-84382671D01*
X47434622Y-85382671D02*
X47434622Y-84596957D01*
X47363194Y-84454100D01*
X47220337Y-84382671D01*
X46934622Y-84382671D01*
X46791765Y-84454100D01*
X47434622Y-85311242D02*
X47291765Y-85382671D01*
X46934622Y-85382671D01*
X46791765Y-85311242D01*
X46720337Y-85168385D01*
X46720337Y-85025528D01*
X46791765Y-84882671D01*
X46934622Y-84811242D01*
X47291765Y-84811242D01*
X47434622Y-84739814D01*
X48006051Y-84382671D02*
X48791765Y-84382671D01*
X48006051Y-85382671D01*
X48791765Y-85382671D01*
X49220337Y-84382671D02*
X49577480Y-85382671D01*
X49934622Y-84382671D02*
X49577480Y-85382671D01*
X49434622Y-85739814D01*
X49363194Y-85811242D01*
X49220337Y-85882671D01*
X50291765Y-84382671D02*
X50863194Y-84382671D01*
X50506051Y-85382671D02*
X50506051Y-84096957D01*
X50577480Y-83954100D01*
X50720337Y-83882671D01*
X50863194Y-83882671D01*
X51577480Y-85382671D02*
X51434622Y-85311242D01*
X51363194Y-85168385D01*
X51363194Y-83882671D01*
X52148908Y-85382671D02*
X52148908Y-84382671D01*
X52148908Y-83882671D02*
X52077480Y-83954100D01*
X52148908Y-84025528D01*
X52220337Y-83954100D01*
X52148908Y-83882671D01*
X52148908Y-84025528D01*
X53434622Y-85311242D02*
X53291765Y-85382671D01*
X53006051Y-85382671D01*
X52863194Y-85311242D01*
X52791765Y-85168385D01*
X52791765Y-84596957D01*
X52863194Y-84454100D01*
X53006051Y-84382671D01*
X53291765Y-84382671D01*
X53434622Y-84454100D01*
X53506051Y-84596957D01*
X53506051Y-84739814D01*
X52791765Y-84882671D01*
X55934622Y-85311242D02*
X55791765Y-85382671D01*
X55506051Y-85382671D01*
X55363194Y-85311242D01*
X55291765Y-85239814D01*
X55220337Y-85096957D01*
X55220337Y-84668385D01*
X55291765Y-84525528D01*
X55363194Y-84454100D01*
X55506051Y-84382671D01*
X55791765Y-84382671D01*
X55934622Y-84454100D01*
X56791765Y-85382671D02*
X56648908Y-85311242D01*
X56577480Y-85239814D01*
X56506051Y-85096957D01*
X56506051Y-84668385D01*
X56577480Y-84525528D01*
X56648908Y-84454100D01*
X56791765Y-84382671D01*
X57006051Y-84382671D01*
X57148908Y-84454100D01*
X57220337Y-84525528D01*
X57291765Y-84668385D01*
X57291765Y-85096957D01*
X57220337Y-85239814D01*
X57148908Y-85311242D01*
X57006051Y-85382671D01*
X56791765Y-85382671D01*
X57934622Y-84382671D02*
X57934622Y-85382671D01*
X57934622Y-84525528D02*
X58006051Y-84454100D01*
X58148908Y-84382671D01*
X58363194Y-84382671D01*
X58506051Y-84454100D01*
X58577480Y-84596957D01*
X58577480Y-85382671D01*
X59077480Y-84382671D02*
X59648908Y-84382671D01*
X59291765Y-83882671D02*
X59291765Y-85168385D01*
X59363194Y-85311242D01*
X59506051Y-85382671D01*
X59648908Y-85382671D01*
X60363194Y-85382671D02*
X60220337Y-85311242D01*
X60148908Y-85239814D01*
X60077480Y-85096957D01*
X60077480Y-84668385D01*
X60148908Y-84525528D01*
X60220337Y-84454100D01*
X60363194Y-84382671D01*
X60577480Y-84382671D01*
X60720337Y-84454100D01*
X60791765Y-84525528D01*
X60863194Y-84668385D01*
X60863194Y-85096957D01*
X60791765Y-85239814D01*
X60720337Y-85311242D01*
X60577480Y-85382671D01*
X60363194Y-85382671D01*
X61720337Y-85382671D02*
X61577480Y-85311242D01*
X61506051Y-85168385D01*
X61506051Y-83882671D01*
X63434622Y-85382671D02*
X63434622Y-83882671D01*
X63434622Y-84454100D02*
X63577480Y-84382671D01*
X63863194Y-84382671D01*
X64006051Y-84454100D01*
X64077480Y-84525528D01*
X64148908Y-84668385D01*
X64148908Y-85096957D01*
X64077480Y-85239814D01*
X64006051Y-85311242D01*
X63863194Y-85382671D01*
X63577480Y-85382671D01*
X63434622Y-85311242D01*
X65006051Y-85382671D02*
X64863194Y-85311242D01*
X64791765Y-85239814D01*
X64720337Y-85096957D01*
X64720337Y-84668385D01*
X64791765Y-84525528D01*
X64863194Y-84454100D01*
X65006051Y-84382671D01*
X65220337Y-84382671D01*
X65363194Y-84454100D01*
X65434622Y-84525528D01*
X65506051Y-84668385D01*
X65506051Y-85096957D01*
X65434622Y-85239814D01*
X65363194Y-85311242D01*
X65220337Y-85382671D01*
X65006051Y-85382671D01*
X66791765Y-85382671D02*
X66791765Y-84596957D01*
X66720337Y-84454100D01*
X66577480Y-84382671D01*
X66291765Y-84382671D01*
X66148908Y-84454100D01*
X66791765Y-85311242D02*
X66648908Y-85382671D01*
X66291765Y-85382671D01*
X66148908Y-85311242D01*
X66077480Y-85168385D01*
X66077480Y-85025528D01*
X66148908Y-84882671D01*
X66291765Y-84811242D01*
X66648908Y-84811242D01*
X66791765Y-84739814D01*
X67506051Y-85382671D02*
X67506051Y-84382671D01*
X67506051Y-84668385D02*
X67577480Y-84525528D01*
X67648908Y-84454100D01*
X67791765Y-84382671D01*
X67934622Y-84382671D01*
X69077480Y-85382671D02*
X69077480Y-83882671D01*
X69077480Y-85311242D02*
X68934622Y-85382671D01*
X68648908Y-85382671D01*
X68506051Y-85311242D01*
X68434622Y-85239814D01*
X68363194Y-85096957D01*
X68363194Y-84668385D01*
X68434622Y-84525528D01*
X68506051Y-84454100D01*
X68648908Y-84382671D01*
X68934622Y-84382671D01*
X69077480Y-84454100D01*
X69791765Y-85239814D02*
X69863194Y-85311242D01*
X69791765Y-85382671D01*
X69720337Y-85311242D01*
X69791765Y-85239814D01*
X69791765Y-85382671D01*
X70506051Y-85382671D02*
X70506051Y-83882671D01*
X70648908Y-84811242D02*
X71077480Y-85382671D01*
X71077480Y-84382671D02*
X70506051Y-84954100D01*
X71720337Y-85382671D02*
X71720337Y-84382671D01*
X71720337Y-83882671D02*
X71648908Y-83954100D01*
X71720337Y-84025528D01*
X71791765Y-83954100D01*
X71720337Y-83882671D01*
X71720337Y-84025528D01*
X73077480Y-85311242D02*
X72934622Y-85382671D01*
X72648908Y-85382671D01*
X72506051Y-85311242D01*
X72434622Y-85239814D01*
X72363194Y-85096957D01*
X72363194Y-84668385D01*
X72434622Y-84525528D01*
X72506051Y-84454100D01*
X72648908Y-84382671D01*
X72934622Y-84382671D01*
X73077480Y-84454100D01*
X74363194Y-85382671D02*
X74363194Y-84596957D01*
X74291765Y-84454100D01*
X74148908Y-84382671D01*
X73863194Y-84382671D01*
X73720337Y-84454100D01*
X74363194Y-85311242D02*
X74220337Y-85382671D01*
X73863194Y-85382671D01*
X73720337Y-85311242D01*
X73648908Y-85168385D01*
X73648908Y-85025528D01*
X73720337Y-84882671D01*
X73863194Y-84811242D01*
X74220337Y-84811242D01*
X74363194Y-84739814D01*
X75720337Y-85382671D02*
X75720337Y-83882671D01*
X75720337Y-85311242D02*
X75577480Y-85382671D01*
X75291765Y-85382671D01*
X75148908Y-85311242D01*
X75077480Y-85239814D01*
X75006051Y-85096957D01*
X75006051Y-84668385D01*
X75077480Y-84525528D01*
X75148908Y-84454100D01*
X75291765Y-84382671D01*
X75577480Y-84382671D01*
X75720337Y-84454100D01*
X76077480Y-85525528D02*
X77220337Y-85525528D01*
X77577480Y-84382671D02*
X77577480Y-85882671D01*
X77577480Y-84454100D02*
X77720337Y-84382671D01*
X78006051Y-84382671D01*
X78148908Y-84454100D01*
X78220337Y-84525528D01*
X78291765Y-84668385D01*
X78291765Y-85096957D01*
X78220337Y-85239814D01*
X78148908Y-85311242D01*
X78006051Y-85382671D01*
X77720337Y-85382671D01*
X77577480Y-85311242D01*
X79577480Y-85311242D02*
X79434622Y-85382671D01*
X79148908Y-85382671D01*
X79006051Y-85311242D01*
X78934622Y-85239814D01*
X78863194Y-85096957D01*
X78863194Y-84668385D01*
X78934622Y-84525528D01*
X79006051Y-84454100D01*
X79148908Y-84382671D01*
X79434622Y-84382671D01*
X79577480Y-84454100D01*
X80220337Y-85382671D02*
X80220337Y-83882671D01*
X80220337Y-84454100D02*
X80363194Y-84382671D01*
X80648908Y-84382671D01*
X80791765Y-84454100D01*
X80863194Y-84525528D01*
X80934622Y-84668385D01*
X80934622Y-85096957D01*
X80863194Y-85239814D01*
X80791765Y-85311242D01*
X80648908Y-85382671D01*
X80363194Y-85382671D01*
X80220337Y-85311242D01*
X37002480Y-80504100D02*
X145002480Y-80504100D01*
X38363194Y-82611242D02*
X38577480Y-82682671D01*
X38934622Y-82682671D01*
X39077480Y-82611242D01*
X39148908Y-82539814D01*
X39220337Y-82396957D01*
X39220337Y-82254100D01*
X39148908Y-82111242D01*
X39077480Y-82039814D01*
X38934622Y-81968385D01*
X38648908Y-81896957D01*
X38506051Y-81825528D01*
X38434622Y-81754100D01*
X38363194Y-81611242D01*
X38363194Y-81468385D01*
X38434622Y-81325528D01*
X38506051Y-81254100D01*
X38648908Y-81182671D01*
X39006051Y-81182671D01*
X39220337Y-81254100D01*
X39863194Y-82682671D02*
X39863194Y-81182671D01*
X40506051Y-82682671D02*
X40506051Y-81896957D01*
X40434622Y-81754100D01*
X40291765Y-81682671D01*
X40077480Y-81682671D01*
X39934622Y-81754100D01*
X39863194Y-81825528D01*
X41791765Y-82611242D02*
X41648908Y-82682671D01*
X41363194Y-82682671D01*
X41220337Y-82611242D01*
X41148908Y-82468385D01*
X41148908Y-81896957D01*
X41220337Y-81754100D01*
X41363194Y-81682671D01*
X41648908Y-81682671D01*
X41791765Y-81754100D01*
X41863194Y-81896957D01*
X41863194Y-82039814D01*
X41148908Y-82182671D01*
X43077480Y-82611242D02*
X42934622Y-82682671D01*
X42648908Y-82682671D01*
X42506051Y-82611242D01*
X42434622Y-82468385D01*
X42434622Y-81896957D01*
X42506051Y-81754100D01*
X42648908Y-81682671D01*
X42934622Y-81682671D01*
X43077480Y-81754100D01*
X43148908Y-81896957D01*
X43148908Y-82039814D01*
X42434622Y-82182671D01*
X43577480Y-81682671D02*
X44148908Y-81682671D01*
X43791765Y-81182671D02*
X43791765Y-82468385D01*
X43863194Y-82611242D01*
X44006051Y-82682671D01*
X44148908Y-82682671D01*
X44648908Y-82539814D02*
X44720337Y-82611242D01*
X44648908Y-82682671D01*
X44577480Y-82611242D01*
X44648908Y-82539814D01*
X44648908Y-82682671D01*
X44648908Y-81754100D02*
X44720337Y-81825528D01*
X44648908Y-81896957D01*
X44577480Y-81825528D01*
X44648908Y-81754100D01*
X44648908Y-81896957D01*
D11*
X39054622Y-78896957D02*
X39268908Y-78968385D01*
X39340337Y-79039814D01*
X39411765Y-79182671D01*
X39411765Y-79396957D01*
X39340337Y-79539814D01*
X39268908Y-79611242D01*
X39126051Y-79682671D01*
X38554622Y-79682671D01*
X38554622Y-78182671D01*
X39054622Y-78182671D01*
X39197480Y-78254100D01*
X39268908Y-78325528D01*
X39340337Y-78468385D01*
X39340337Y-78611242D01*
X39268908Y-78754100D01*
X39197480Y-78825528D01*
X39054622Y-78896957D01*
X38554622Y-78896957D01*
X40054622Y-79682671D02*
X40054622Y-78682671D01*
X40054622Y-78182671D02*
X39983194Y-78254100D01*
X40054622Y-78325528D01*
X40126051Y-78254100D01*
X40054622Y-78182671D01*
X40054622Y-78325528D01*
X40554622Y-78682671D02*
X41126051Y-78682671D01*
X40768908Y-78182671D02*
X40768908Y-79468385D01*
X40840337Y-79611242D01*
X40983194Y-79682671D01*
X41126051Y-79682671D01*
X42268908Y-79611242D02*
X42126051Y-79682671D01*
X41840337Y-79682671D01*
X41697480Y-79611242D01*
X41626051Y-79539814D01*
X41554622Y-79396957D01*
X41554622Y-78968385D01*
X41626051Y-78825528D01*
X41697480Y-78754100D01*
X41840337Y-78682671D01*
X42126051Y-78682671D01*
X42268908Y-78754100D01*
X42911765Y-79682671D02*
X42911765Y-78682671D01*
X42911765Y-78968385D02*
X42983194Y-78825528D01*
X43054622Y-78754100D01*
X43197480Y-78682671D01*
X43340337Y-78682671D01*
X44483194Y-79682671D02*
X44483194Y-78896957D01*
X44411765Y-78754100D01*
X44268908Y-78682671D01*
X43983194Y-78682671D01*
X43840337Y-78754100D01*
X44483194Y-79611242D02*
X44340337Y-79682671D01*
X43983194Y-79682671D01*
X43840337Y-79611242D01*
X43768908Y-79468385D01*
X43768908Y-79325528D01*
X43840337Y-79182671D01*
X43983194Y-79111242D01*
X44340337Y-79111242D01*
X44483194Y-79039814D01*
X45054622Y-78682671D02*
X45840337Y-78682671D01*
X45054622Y-79682671D01*
X45840337Y-79682671D01*
X46983194Y-79611242D02*
X46840337Y-79682671D01*
X46554622Y-79682671D01*
X46411765Y-79611242D01*
X46340337Y-79468385D01*
X46340337Y-78896957D01*
X46411765Y-78754100D01*
X46554622Y-78682671D01*
X46840337Y-78682671D01*
X46983194Y-78754100D01*
X47054622Y-78896957D01*
X47054622Y-79039814D01*
X46340337Y-79182671D01*
X48768908Y-79254100D02*
X49483194Y-79254100D01*
X48626051Y-79682671D02*
X49126051Y-78182671D01*
X49626051Y-79682671D01*
X50626051Y-78896957D02*
X50840337Y-78968385D01*
X50911765Y-79039814D01*
X50983194Y-79182671D01*
X50983194Y-79396957D01*
X50911765Y-79539814D01*
X50840337Y-79611242D01*
X50697480Y-79682671D01*
X50126051Y-79682671D01*
X50126051Y-78182671D01*
X50626051Y-78182671D01*
X50768908Y-78254100D01*
X50840337Y-78325528D01*
X50911765Y-78468385D01*
X50911765Y-78611242D01*
X50840337Y-78754100D01*
X50768908Y-78825528D01*
X50626051Y-78896957D01*
X50126051Y-78896957D01*
X53197480Y-80254100D02*
X53126051Y-80182671D01*
X52983194Y-79968385D01*
X52911765Y-79825528D01*
X52840337Y-79611242D01*
X52768908Y-79254100D01*
X52768908Y-78968385D01*
X52840337Y-78611242D01*
X52911765Y-78396957D01*
X52983194Y-78254100D01*
X53126051Y-78039814D01*
X53197480Y-77968385D01*
X54626051Y-79539814D02*
X54554622Y-79611242D01*
X54340337Y-79682671D01*
X54197480Y-79682671D01*
X53983194Y-79611242D01*
X53840337Y-79468385D01*
X53768908Y-79325528D01*
X53697480Y-79039814D01*
X53697480Y-78825528D01*
X53768908Y-78539814D01*
X53840337Y-78396957D01*
X53983194Y-78254100D01*
X54197480Y-78182671D01*
X54340337Y-78182671D01*
X54554622Y-78254100D01*
X54626051Y-78325528D01*
X56126051Y-79539814D02*
X56054622Y-79611242D01*
X55840337Y-79682671D01*
X55697480Y-79682671D01*
X55483194Y-79611242D01*
X55340337Y-79468385D01*
X55268908Y-79325528D01*
X55197480Y-79039814D01*
X55197480Y-78825528D01*
X55268908Y-78539814D01*
X55340337Y-78396957D01*
X55483194Y-78254100D01*
X55697480Y-78182671D01*
X55840337Y-78182671D01*
X56054622Y-78254100D01*
X56126051Y-78325528D01*
X58411765Y-78896957D02*
X58626051Y-78968385D01*
X58697480Y-79039814D01*
X58768908Y-79182671D01*
X58768908Y-79396957D01*
X58697480Y-79539814D01*
X58626051Y-79611242D01*
X58483194Y-79682671D01*
X57911765Y-79682671D01*
X57911765Y-78182671D01*
X58411765Y-78182671D01*
X58554622Y-78254100D01*
X58626051Y-78325528D01*
X58697480Y-78468385D01*
X58697480Y-78611242D01*
X58626051Y-78754100D01*
X58554622Y-78825528D01*
X58411765Y-78896957D01*
X57911765Y-78896957D01*
X59697480Y-78968385D02*
X59697480Y-79682671D01*
X59197480Y-78182671D02*
X59697480Y-78968385D01*
X60197480Y-78182671D01*
X60697480Y-79111242D02*
X61840337Y-79111242D01*
X62554622Y-79682671D02*
X62554622Y-78182671D01*
X63411765Y-79682671D01*
X63411765Y-78182671D01*
X64983194Y-79539814D02*
X64911765Y-79611242D01*
X64697480Y-79682671D01*
X64554622Y-79682671D01*
X64340337Y-79611242D01*
X64197480Y-79468385D01*
X64126051Y-79325528D01*
X64054622Y-79039814D01*
X64054622Y-78825528D01*
X64126051Y-78539814D01*
X64197480Y-78396957D01*
X64340337Y-78254100D01*
X64554622Y-78182671D01*
X64697480Y-78182671D01*
X64911765Y-78254100D01*
X64983194Y-78325528D01*
X65626051Y-79111242D02*
X66768908Y-79111242D01*
X67411765Y-79611242D02*
X67626051Y-79682671D01*
X67983194Y-79682671D01*
X68126051Y-79611242D01*
X68197480Y-79539814D01*
X68268908Y-79396957D01*
X68268908Y-79254100D01*
X68197480Y-79111242D01*
X68126051Y-79039814D01*
X67983194Y-78968385D01*
X67697480Y-78896957D01*
X67554622Y-78825528D01*
X67483194Y-78754100D01*
X67411765Y-78611242D01*
X67411765Y-78468385D01*
X67483194Y-78325528D01*
X67554622Y-78254100D01*
X67697480Y-78182671D01*
X68054622Y-78182671D01*
X68268908Y-78254100D01*
X68840337Y-79254100D02*
X69554622Y-79254100D01*
X68697480Y-79682671D02*
X69197480Y-78182671D01*
X69697480Y-79682671D01*
X70054622Y-80254100D02*
X70126051Y-80182671D01*
X70268908Y-79968385D01*
X70340337Y-79825528D01*
X70411765Y-79611242D01*
X70483194Y-79254100D01*
X70483194Y-78968385D01*
X70411765Y-78611242D01*
X70340337Y-78396957D01*
X70268908Y-78254100D01*
X70126051Y-78039814D01*
X70054622Y-77968385D01*
D10*
X57002480Y-90504100D02*
X57002480Y-93504100D01*
X121002480Y-90504100D02*
X121002480Y-97004100D01*
D13*
X1973580Y17113250D02*
X2468880Y17113250D01*
X2202180Y16808450D01*
X2316480Y16808450D01*
X2392680Y16770350D01*
X2430780Y16732250D01*
X2468880Y16656050D01*
X2468880Y16465550D01*
X2430780Y16389350D01*
X2392680Y16351250D01*
X2316480Y16313150D01*
X2087880Y16313150D01*
X2011680Y16351250D01*
X1973580Y16389350D01*
D14*
D15*
G04 #@! TO.N,GND*
G04 #@! TO.C,P9*
X12900660Y-4399280D03*
G04 #@! TD*
D16*
G04 #@! TO.N,+BATT*
G04 #@! TO.C,P2*
X4663440Y-6499860D03*
D17*
G04 #@! TO.N,Net-(D2-Pad1)*
X6334760Y-6499860D03*
G04 #@! TD*
D16*
G04 #@! TO.N,+BATT*
G04 #@! TO.C,P4*
X4663440Y-12499340D03*
D17*
G04 #@! TO.N,Net-(D4-Pad1)*
X6334760Y-12499340D03*
G04 #@! TD*
D16*
G04 #@! TO.N,+BATT*
G04 #@! TO.C,P1*
X4663440Y-3500120D03*
D17*
G04 #@! TO.N,Net-(D1-Pad1)*
X6334760Y-3500120D03*
G04 #@! TD*
D16*
G04 #@! TO.N,+BATT*
G04 #@! TO.C,P3*
X4663440Y-9499600D03*
D17*
G04 #@! TO.N,Net-(D3-Pad1)*
X6334760Y-9499600D03*
G04 #@! TD*
D18*
G04 #@! TO.N,GND*
G04 #@! TO.C,U8*
X8999220Y1998980D03*
D19*
X8999220Y1998980D03*
X8498840Y1498600D03*
X9499600Y1498600D03*
X8498840Y2499360D03*
X9499600Y2499360D03*
G04 #@! TD*
D20*
G04 #@! TO.N,+BATT*
G04 #@! TO.C,BT1*
X12700000Y1752600D03*
D21*
G04 #@! TO.N,GND*
X12700000Y3652520D03*
G04 #@! TD*
D22*
G04 #@! TO.N,DGND*
G04 #@! TO.C,U11*
X-5473700Y-8105140D03*
X-6888480Y-8110220D03*
X-8326120Y-8115300D03*
X-9631680Y-8115300D03*
X-10960100Y-8102600D03*
X-5478780Y-9588500D03*
X-6868160Y-9585960D03*
X-8282940Y-9575800D03*
X-9674860Y-9486900D03*
X-10955020Y-9519920D03*
X-5478780Y-10927080D03*
X-6878320Y-10924540D03*
X-8249920Y-10932160D03*
X-9654540Y-10909300D03*
X-10937240Y-10876280D03*
X-5478780Y-12258040D03*
X-6868160Y-12316460D03*
X-8260080Y-12301220D03*
X-9654540Y-12291060D03*
X-10988040Y-12280900D03*
X-5461000Y-13589000D03*
X-6868160Y-13596620D03*
X-8282940Y-13606780D03*
X-9621520Y-13596620D03*
X-10967720Y-13583920D03*
G04 #@! TD*
D23*
G04 #@! TO.N,DGND*
G04 #@! TO.C,U12*
X-14726920Y3716020D03*
X-15392400Y4340860D03*
X-15392400Y3070860D03*
X-14122400Y4340860D03*
X-14122400Y3070860D03*
G04 #@! TD*
D24*
G04 #@! TO.N,/MOTOR1*
X-2439671Y-2736851D03*
G04 #@! TO.N,/MOTOR2*
X1678940Y1440180D03*
X1097280Y-17297400D03*
G04 #@! TO.N,/MOTOR3*
X1049020Y-996900D03*
G04 #@! TO.N,/MOTOR4*
X-1569720Y-4406900D03*
G04 #@! TO.N,AGND*
X8569960Y11739880D03*
X6210300Y13721080D03*
X-5600700Y7299960D03*
X5250280Y11253100D03*
X-2499360Y8600440D03*
X14000280Y14003100D03*
G04 #@! TO.N,DGND*
X8199120Y-4099560D03*
X9500280Y-14896900D03*
X8069580Y-13996900D03*
X8001000Y-10650220D03*
X8999220Y-4399280D03*
X-10563860Y3403100D03*
X-4999720Y-17496900D03*
X-15499720Y-18554700D03*
X-14930120Y368300D03*
X462280Y1816100D03*
X-8554720Y-4279900D03*
G04 #@! TO.N,GND*
X11501120Y-11300460D03*
X12931140Y-11460480D03*
X10010140Y5648960D03*
X12000280Y-7746900D03*
X14201140Y-8699500D03*
X14000480Y-7000240D03*
X10899140Y-2400300D03*
X17000280Y-5996900D03*
G04 #@! TO.N,VCC*
X-11630660Y9298940D03*
X14800580Y769620D03*
X13070840Y-12999720D03*
X3068320Y-11470640D03*
X15430500Y14333220D03*
X8161020Y-12070080D03*
X-16040100Y13479780D03*
X-15194280Y-17264380D03*
X-18999720Y4003100D03*
X-18863939Y-6515100D03*
X-4599940Y8470900D03*
X-3268980Y7350760D03*
X-249720Y6503100D03*
X1000280Y3503100D03*
G04 #@! TO.N,VCCA*
X-7099300Y7299960D03*
X-3700780Y13700760D03*
X4831080Y13609320D03*
X2500280Y8503100D03*
X11000740Y14099540D03*
X10099040Y14300200D03*
X-5100320Y9499600D03*
G04 #@! TO.N,VCOM*
X8509000Y6510020D03*
X14099540Y-10899140D03*
X14800580Y-200660D03*
X14099540Y-9900920D03*
X12760960Y-6850380D03*
X6489700Y2301240D03*
G04 #@! TO.N,Net-(Q6-PadD)*
X8900160Y-599440D03*
G04 #@! TO.N,/I2C_SCK_VCCA*
X-843280Y3451860D03*
X-1813560Y-8851900D03*
G04 #@! TO.N,/I2C_SCL_VCCA*
X-6390640Y10899140D03*
X-934720Y-15836900D03*
X-6649720Y3213100D03*
G04 #@! TO.N,/PGOOD*
X3250280Y4503100D03*
X7858760Y4338320D03*
X2764440Y-8155940D03*
G04 #@! TO.N,/SYSOFF*
X7185660Y5412740D03*
X-12385040Y-6606540D03*
G04 #@! TO.N,Net-(R33-Pad1)*
X14259560Y8823960D03*
G04 #@! TO.N,/EN1*
X-2687320Y6784340D03*
X-15077440Y-4488180D03*
G04 #@! TO.N,/INT_GA*
X500280Y7503100D03*
X-14460220Y-6311900D03*
X-3733800Y2999740D03*
G04 #@! TO.N,/CHG*
X2250280Y358140D03*
G04 #@! TO.N,/EN2*
X10081260Y3929380D03*
X3500280Y-496900D03*
X-16753398Y-4597400D03*
G04 #@! TO.N,Net-(U11-Pad34)*
X-11729720Y-5371280D03*
X-5685340Y-5371280D03*
G04 #@! TO.N,Net-(R7-Pad1)*
X-14417040Y7683500D03*
G04 #@! TO.N,Net-(R7-Pad2)*
X-11475720Y3517900D03*
G04 #@! TO.N,/POWER/VUSB*
X5798820Y5389880D03*
X-12700000Y7800340D03*
X7520940Y541020D03*
G04 #@! TO.N,Net-(Q8-Pad2)*
X-16987520Y-723900D03*
G04 #@! TO.N,Net-(Q7-Pad2)*
X-10718800Y1557020D03*
G04 #@! TO.N,Net-(Q8-Pad3)*
X-2839720Y-4406900D03*
G04 #@! TO.N,Net-(R6-Pad1)*
X7480300Y14300200D03*
G04 #@! TO.N,Net-(C5-Pad2)*
X-14076680Y-15420340D03*
G04 #@! TO.N,/USBD+*
X-16652240Y6718300D03*
X-7980680Y4579620D03*
G04 #@! TO.N,/USBD-*
X-14635480Y6850380D03*
X-12501880Y6576060D03*
G04 #@! TO.N,/Red*
X-17739360Y10284460D03*
X-2172781Y-12820461D03*
G04 #@! TD*
D25*
G04 #@! TO.N,+BATT*
X9448800Y-1948180D02*
X12250420Y853440D01*
X5453380Y-1948180D02*
X9448800Y-1948180D01*
D26*
X4864100Y-6499860D02*
X4864100Y-9499600D01*
D25*
X12250420Y853440D02*
X12600940Y1203960D01*
D26*
X12250420Y1503680D02*
X12700000Y1953260D01*
X4864100Y-3500120D02*
X4864100Y-6499860D01*
D27*
X12700000Y1953260D02*
X12600940Y1203960D01*
D26*
X4864100Y-9499600D02*
X4864100Y-12499340D01*
X12250420Y853440D02*
X12250420Y1503680D01*
X5453380Y-1948180D02*
X4864100Y-2537460D01*
X4864100Y-3500120D02*
X4864100Y-2537460D01*
D28*
G04 #@! TO.N,VCC*
X3068320Y-11470640D02*
X2026540Y-11470640D01*
D29*
G04 #@! TO.N,/I2C_SCK_VCCA*
X-843280Y3002848D02*
X-843280Y3451860D01*
X-843280Y-7881620D02*
X-1813560Y-8851900D01*
X-843280Y-7581900D02*
X-843280Y-7881620D01*
X-843280Y-7581900D02*
X-843280Y3002848D01*
G04 #@! TO.N,/EN1*
X-3441703Y6466841D02*
X-3004819Y6466841D01*
X-5346703Y8371841D02*
X-3441703Y6466841D01*
X-12974321Y8371841D02*
X-5346703Y8371841D01*
X-13271501Y-2233229D02*
X-13271501Y8074661D01*
X-15077440Y-4039168D02*
X-13271501Y-2233229D01*
X-3004819Y6466841D02*
X-2687320Y6784340D01*
X-13271501Y8074661D02*
X-12974321Y8371841D01*
X-15077440Y-4488180D02*
X-15077440Y-4039168D01*
G04 #@! TO.N,/INT_GA*
X-6014720Y2999740D02*
X-3733800Y2999740D01*
X-14462760Y-6385130D02*
X-14402855Y-6445035D01*
X-13253720Y-5105400D02*
X-14460220Y-6311900D01*
X-13253720Y-4239260D02*
X-13253720Y-5105400D01*
X-13253720Y-4239260D02*
X-6014720Y2999740D01*
G04 #@! TO.N,/EN2*
X-16753398Y-4597400D02*
X-16753398Y-4597400D01*
X-14201211Y-7598599D02*
X-16753398Y-5046412D01*
X3500280Y-496900D02*
X-221750Y-4218930D01*
X-221750Y-4218930D02*
X-221750Y-8140420D01*
X-221750Y-8140420D02*
X-1569720Y-9488390D01*
X-16753398Y-5046412D02*
X-16753398Y-4597400D01*
X-1569720Y-9488390D02*
X-3344528Y-9488390D01*
X-5234319Y-7598599D02*
X-14201211Y-7598599D01*
X-3344528Y-9488390D02*
X-5234319Y-7598599D01*
D28*
G04 #@! TO.N,/POWER/VUSB*
X6101080Y5087620D02*
X5798820Y5389880D01*
X6101080Y4599940D02*
X6101080Y5087620D01*
X7520940Y3180080D02*
X7520940Y541020D01*
X-12700000Y7800340D02*
X-8900160Y7800340D01*
X-2801620Y5100320D02*
X2700020Y5100320D01*
X6101080Y4599940D02*
X7520940Y3180080D01*
X-7000240Y5900420D02*
X-3601720Y5900420D01*
X-8900160Y7800340D02*
X-7000240Y5900420D01*
X-3601720Y5900420D02*
X-2801620Y5100320D01*
X2989580Y5389880D02*
X5798820Y5389880D01*
X2700020Y5100320D02*
X2989580Y5389880D01*
G04 #@! TD*
D30*
G04 #@! TO.N,VCCA*
G36*
X19538951Y8130100D02*
X14409702Y8130100D01*
X14655228Y8231801D01*
X14851719Y8428292D01*
X14958060Y8685020D01*
X14958060Y8962900D01*
X14851719Y9219628D01*
X14655228Y9416119D01*
X14398500Y9522460D01*
X14120620Y9522460D01*
X13863892Y9416119D01*
X13667401Y9219628D01*
X13561060Y8962900D01*
X13561060Y8685020D01*
X13667401Y8428292D01*
X13863892Y8231801D01*
X14109418Y8130100D01*
X2000280Y8130100D01*
X1951679Y8120433D01*
X1910477Y8092903D01*
X1882947Y8051701D01*
X1873280Y8003100D01*
X1873280Y5671820D01*
X-2564897Y5671820D01*
X-2890587Y5997509D01*
X-2816518Y6012242D01*
X-2706371Y6085840D01*
X-2548380Y6085840D01*
X-2291652Y6192181D01*
X-2095161Y6388672D01*
X-1990212Y6642040D01*
X-948220Y6642040D01*
X-948220Y6364160D01*
X-841879Y6107432D01*
X-645388Y5910941D01*
X-388660Y5804600D01*
X-110780Y5804600D01*
X145948Y5910941D01*
X342439Y6107432D01*
X448780Y6364160D01*
X448780Y6642040D01*
X381445Y6804600D01*
X639220Y6804600D01*
X895948Y6910941D01*
X1092439Y7107432D01*
X1198780Y7364160D01*
X1198780Y7642040D01*
X1092439Y7898768D01*
X895948Y8095259D01*
X639220Y8201600D01*
X361340Y8201600D01*
X104612Y8095259D01*
X-91879Y7898768D01*
X-198220Y7642040D01*
X-198220Y7364160D01*
X-130885Y7201600D01*
X-388660Y7201600D01*
X-645388Y7095259D01*
X-841879Y6898768D01*
X-948220Y6642040D01*
X-1990212Y6642040D01*
X-1988820Y6645400D01*
X-1988820Y6923280D01*
X-2095161Y7180008D01*
X-2291652Y7376499D01*
X-2548380Y7482840D01*
X-2570480Y7482840D01*
X-2570480Y7489700D01*
X-2676821Y7746428D01*
X-2873312Y7942919D01*
X-3130040Y8049260D01*
X-3407920Y8049260D01*
X-3664648Y7942919D01*
X-3861139Y7746428D01*
X-3913172Y7620809D01*
X-4187688Y7895325D01*
X-4007781Y8075232D01*
X-3901440Y8331960D01*
X-3901440Y8609840D01*
X-3955097Y8739380D01*
X-3197860Y8739380D01*
X-3197860Y8461500D01*
X-3091519Y8204772D01*
X-2895028Y8008281D01*
X-2638300Y7901940D01*
X-2360420Y7901940D01*
X-2103692Y8008281D01*
X-1907201Y8204772D01*
X-1800860Y8461500D01*
X-1800860Y8739380D01*
X-1907201Y8996108D01*
X-2103692Y9192599D01*
X-2360420Y9298940D01*
X-2638300Y9298940D01*
X-2895028Y9192599D01*
X-3091519Y8996108D01*
X-3197860Y8739380D01*
X-3955097Y8739380D01*
X-4007781Y8866568D01*
X-4204272Y9063059D01*
X-4461000Y9169400D01*
X-4738880Y9169400D01*
X-4995608Y9063059D01*
X-5192099Y8866568D01*
X-5204890Y8835687D01*
X-5299174Y8854441D01*
X-5299175Y8854441D01*
X-5346703Y8863895D01*
X-5394231Y8854441D01*
X-11087332Y8854441D01*
X-11038501Y8903272D01*
X-10932160Y9160000D01*
X-10932160Y9437880D01*
X-11038501Y9694608D01*
X-11234992Y9891099D01*
X-11491720Y9997440D01*
X-11769600Y9997440D01*
X-12026328Y9891099D01*
X-12222819Y9694608D01*
X-12329160Y9437880D01*
X-12329160Y9160000D01*
X-12222819Y8903272D01*
X-12173988Y8854441D01*
X-12926793Y8854441D01*
X-12974321Y8863895D01*
X-13021849Y8854441D01*
X-13021850Y8854441D01*
X-13162622Y8826440D01*
X-13322256Y8719776D01*
X-13349183Y8679477D01*
X-13579139Y8449521D01*
X-13619435Y8422596D01*
X-13679996Y8331960D01*
X-13726099Y8262962D01*
X-13763555Y8074661D01*
X-13754100Y8027128D01*
X-13754100Y7908289D01*
X-13824881Y8079168D01*
X-14021372Y8275659D01*
X-14278100Y8382000D01*
X-14555980Y8382000D01*
X-14812708Y8275659D01*
X-15009199Y8079168D01*
X-15115540Y7822440D01*
X-15115540Y7544560D01*
X-15060941Y7412746D01*
X-15227639Y7246048D01*
X-15333980Y6989320D01*
X-15333980Y6711440D01*
X-15227639Y6454712D01*
X-15031148Y6258221D01*
X-14774420Y6151880D01*
X-14496540Y6151880D01*
X-14239812Y6258221D01*
X-14043321Y6454712D01*
X-13936980Y6711440D01*
X-13936980Y6989320D01*
X-13991579Y7121134D01*
X-13824881Y7287832D01*
X-13754100Y7458711D01*
X-13754100Y5630100D01*
X-19630390Y5630100D01*
X-19630390Y6857240D01*
X-17350740Y6857240D01*
X-17350740Y6579360D01*
X-17244399Y6322632D01*
X-17047908Y6126141D01*
X-16791180Y6019800D01*
X-16513300Y6019800D01*
X-16256572Y6126141D01*
X-16060081Y6322632D01*
X-15953740Y6579360D01*
X-15953740Y6857240D01*
X-16060081Y7113968D01*
X-16256572Y7310459D01*
X-16513300Y7416800D01*
X-16791180Y7416800D01*
X-17047908Y7310459D01*
X-17244399Y7113968D01*
X-17350740Y6857240D01*
X-19630390Y6857240D01*
X-19630390Y10423400D01*
X-18437860Y10423400D01*
X-18437860Y10145520D01*
X-18331519Y9888792D01*
X-18135028Y9692301D01*
X-17878300Y9585960D01*
X-17600420Y9585960D01*
X-17343692Y9692301D01*
X-17147201Y9888792D01*
X-17040860Y10145520D01*
X-17040860Y10423400D01*
X-17147201Y10680128D01*
X-17343692Y10876619D01*
X-17600420Y10982960D01*
X-17878300Y10982960D01*
X-18135028Y10876619D01*
X-18331519Y10680128D01*
X-18437860Y10423400D01*
X-19630390Y10423400D01*
X-19630390Y11038080D01*
X-7089140Y11038080D01*
X-7089140Y10760200D01*
X-6982799Y10503472D01*
X-6786308Y10306981D01*
X-6529580Y10200640D01*
X-6251700Y10200640D01*
X-5994972Y10306981D01*
X-5798481Y10503472D01*
X-5692140Y10760200D01*
X-5692140Y11038080D01*
X-5798481Y11294808D01*
X-5895713Y11392040D01*
X4551780Y11392040D01*
X4551780Y11114160D01*
X4658121Y10857432D01*
X4854612Y10660941D01*
X5111340Y10554600D01*
X5389220Y10554600D01*
X5645948Y10660941D01*
X5842439Y10857432D01*
X5948780Y11114160D01*
X5948780Y11392040D01*
X5842439Y11648768D01*
X5645948Y11845259D01*
X5564926Y11878820D01*
X7871460Y11878820D01*
X7871460Y11600940D01*
X7977801Y11344212D01*
X8174292Y11147721D01*
X8431020Y11041380D01*
X8708900Y11041380D01*
X8965628Y11147721D01*
X9162119Y11344212D01*
X9268460Y11600940D01*
X9268460Y11878820D01*
X9162119Y12135548D01*
X8965628Y12332039D01*
X8708900Y12438380D01*
X8431020Y12438380D01*
X8174292Y12332039D01*
X7977801Y12135548D01*
X7871460Y11878820D01*
X5564926Y11878820D01*
X5389220Y11951600D01*
X5111340Y11951600D01*
X4854612Y11845259D01*
X4658121Y11648768D01*
X4551780Y11392040D01*
X-5895713Y11392040D01*
X-5994972Y11491299D01*
X-6251700Y11597640D01*
X-6529580Y11597640D01*
X-6786308Y11491299D01*
X-6982799Y11294808D01*
X-7089140Y11038080D01*
X-19630390Y11038080D01*
X-19630390Y13618720D01*
X-16738600Y13618720D01*
X-16738600Y13340840D01*
X-16632259Y13084112D01*
X-16435768Y12887621D01*
X-16179040Y12781280D01*
X-15901160Y12781280D01*
X-15644432Y12887621D01*
X-15447941Y13084112D01*
X-15341600Y13340840D01*
X-15341600Y13618720D01*
X-15441550Y13860020D01*
X5511800Y13860020D01*
X5511800Y13582140D01*
X5618141Y13325412D01*
X5814632Y13128921D01*
X6071360Y13022580D01*
X6349240Y13022580D01*
X6605968Y13128921D01*
X6802459Y13325412D01*
X6908800Y13582140D01*
X6908800Y13860020D01*
X6891933Y13900740D01*
X7084632Y13708041D01*
X7341360Y13601700D01*
X7619240Y13601700D01*
X7875968Y13708041D01*
X8072459Y13904532D01*
X8170838Y14142040D01*
X13301780Y14142040D01*
X13301780Y13864160D01*
X13408121Y13607432D01*
X13604612Y13410941D01*
X13861340Y13304600D01*
X14139220Y13304600D01*
X14395948Y13410941D01*
X14592439Y13607432D01*
X14698780Y13864160D01*
X14698780Y14142040D01*
X14592439Y14398768D01*
X14519047Y14472160D01*
X14732000Y14472160D01*
X14732000Y14194280D01*
X14838341Y13937552D01*
X15034832Y13741061D01*
X15291560Y13634720D01*
X15569440Y13634720D01*
X15826168Y13741061D01*
X16022659Y13937552D01*
X16129000Y14194280D01*
X16129000Y14472160D01*
X16022659Y14728888D01*
X15826168Y14925379D01*
X15569440Y15031720D01*
X15291560Y15031720D01*
X15034832Y14925379D01*
X14838341Y14728888D01*
X14732000Y14472160D01*
X14519047Y14472160D01*
X14395948Y14595259D01*
X14139220Y14701600D01*
X13861340Y14701600D01*
X13604612Y14595259D01*
X13408121Y14398768D01*
X13301780Y14142040D01*
X8170838Y14142040D01*
X8178800Y14161260D01*
X8178800Y14439140D01*
X8072459Y14695868D01*
X7875968Y14892359D01*
X7619240Y14998700D01*
X7341360Y14998700D01*
X7084632Y14892359D01*
X6888141Y14695868D01*
X6781800Y14439140D01*
X6781800Y14161260D01*
X6798667Y14120540D01*
X6605968Y14313239D01*
X6349240Y14419580D01*
X6071360Y14419580D01*
X5814632Y14313239D01*
X5618141Y14116748D01*
X5511800Y13860020D01*
X-15441550Y13860020D01*
X-15447941Y13875448D01*
X-15644432Y14071939D01*
X-15901160Y14178280D01*
X-16179040Y14178280D01*
X-16435768Y14071939D01*
X-16632259Y13875448D01*
X-16738600Y13618720D01*
X-19630390Y13618720D01*
X-19630390Y17682337D01*
X1377950Y17682337D01*
X1377950Y15519527D01*
X3102610Y15519527D01*
X3102610Y17682337D01*
X1377950Y17682337D01*
X-19630390Y17682337D01*
X-19630390Y17717770D01*
X19538951Y17717770D01*
X19538951Y8130100D01*
X19538951Y8130100D01*
G37*
X19538951Y8130100D02*
X14409702Y8130100D01*
X14655228Y8231801D01*
X14851719Y8428292D01*
X14958060Y8685020D01*
X14958060Y8962900D01*
X14851719Y9219628D01*
X14655228Y9416119D01*
X14398500Y9522460D01*
X14120620Y9522460D01*
X13863892Y9416119D01*
X13667401Y9219628D01*
X13561060Y8962900D01*
X13561060Y8685020D01*
X13667401Y8428292D01*
X13863892Y8231801D01*
X14109418Y8130100D01*
X2000280Y8130100D01*
X1951679Y8120433D01*
X1910477Y8092903D01*
X1882947Y8051701D01*
X1873280Y8003100D01*
X1873280Y5671820D01*
X-2564897Y5671820D01*
X-2890587Y5997509D01*
X-2816518Y6012242D01*
X-2706371Y6085840D01*
X-2548380Y6085840D01*
X-2291652Y6192181D01*
X-2095161Y6388672D01*
X-1990212Y6642040D01*
X-948220Y6642040D01*
X-948220Y6364160D01*
X-841879Y6107432D01*
X-645388Y5910941D01*
X-388660Y5804600D01*
X-110780Y5804600D01*
X145948Y5910941D01*
X342439Y6107432D01*
X448780Y6364160D01*
X448780Y6642040D01*
X381445Y6804600D01*
X639220Y6804600D01*
X895948Y6910941D01*
X1092439Y7107432D01*
X1198780Y7364160D01*
X1198780Y7642040D01*
X1092439Y7898768D01*
X895948Y8095259D01*
X639220Y8201600D01*
X361340Y8201600D01*
X104612Y8095259D01*
X-91879Y7898768D01*
X-198220Y7642040D01*
X-198220Y7364160D01*
X-130885Y7201600D01*
X-388660Y7201600D01*
X-645388Y7095259D01*
X-841879Y6898768D01*
X-948220Y6642040D01*
X-1990212Y6642040D01*
X-1988820Y6645400D01*
X-1988820Y6923280D01*
X-2095161Y7180008D01*
X-2291652Y7376499D01*
X-2548380Y7482840D01*
X-2570480Y7482840D01*
X-2570480Y7489700D01*
X-2676821Y7746428D01*
X-2873312Y7942919D01*
X-3130040Y8049260D01*
X-3407920Y8049260D01*
X-3664648Y7942919D01*
X-3861139Y7746428D01*
X-3913172Y7620809D01*
X-4187688Y7895325D01*
X-4007781Y8075232D01*
X-3901440Y8331960D01*
X-3901440Y8609840D01*
X-3955097Y8739380D01*
X-3197860Y8739380D01*
X-3197860Y8461500D01*
X-3091519Y8204772D01*
X-2895028Y8008281D01*
X-2638300Y7901940D01*
X-2360420Y7901940D01*
X-2103692Y8008281D01*
X-1907201Y8204772D01*
X-1800860Y8461500D01*
X-1800860Y8739380D01*
X-1907201Y8996108D01*
X-2103692Y9192599D01*
X-2360420Y9298940D01*
X-2638300Y9298940D01*
X-2895028Y9192599D01*
X-3091519Y8996108D01*
X-3197860Y8739380D01*
X-3955097Y8739380D01*
X-4007781Y8866568D01*
X-4204272Y9063059D01*
X-4461000Y9169400D01*
X-4738880Y9169400D01*
X-4995608Y9063059D01*
X-5192099Y8866568D01*
X-5204890Y8835687D01*
X-5299174Y8854441D01*
X-5299175Y8854441D01*
X-5346703Y8863895D01*
X-5394231Y8854441D01*
X-11087332Y8854441D01*
X-11038501Y8903272D01*
X-10932160Y9160000D01*
X-10932160Y9437880D01*
X-11038501Y9694608D01*
X-11234992Y9891099D01*
X-11491720Y9997440D01*
X-11769600Y9997440D01*
X-12026328Y9891099D01*
X-12222819Y9694608D01*
X-12329160Y9437880D01*
X-12329160Y9160000D01*
X-12222819Y8903272D01*
X-12173988Y8854441D01*
X-12926793Y8854441D01*
X-12974321Y8863895D01*
X-13021849Y8854441D01*
X-13021850Y8854441D01*
X-13162622Y8826440D01*
X-13322256Y8719776D01*
X-13349183Y8679477D01*
X-13579139Y8449521D01*
X-13619435Y8422596D01*
X-13679996Y8331960D01*
X-13726099Y8262962D01*
X-13763555Y8074661D01*
X-13754100Y8027128D01*
X-13754100Y7908289D01*
X-13824881Y8079168D01*
X-14021372Y8275659D01*
X-14278100Y8382000D01*
X-14555980Y8382000D01*
X-14812708Y8275659D01*
X-15009199Y8079168D01*
X-15115540Y7822440D01*
X-15115540Y7544560D01*
X-15060941Y7412746D01*
X-15227639Y7246048D01*
X-15333980Y6989320D01*
X-15333980Y6711440D01*
X-15227639Y6454712D01*
X-15031148Y6258221D01*
X-14774420Y6151880D01*
X-14496540Y6151880D01*
X-14239812Y6258221D01*
X-14043321Y6454712D01*
X-13936980Y6711440D01*
X-13936980Y6989320D01*
X-13991579Y7121134D01*
X-13824881Y7287832D01*
X-13754100Y7458711D01*
X-13754100Y5630100D01*
X-19630390Y5630100D01*
X-19630390Y6857240D01*
X-17350740Y6857240D01*
X-17350740Y6579360D01*
X-17244399Y6322632D01*
X-17047908Y6126141D01*
X-16791180Y6019800D01*
X-16513300Y6019800D01*
X-16256572Y6126141D01*
X-16060081Y6322632D01*
X-15953740Y6579360D01*
X-15953740Y6857240D01*
X-16060081Y7113968D01*
X-16256572Y7310459D01*
X-16513300Y7416800D01*
X-16791180Y7416800D01*
X-17047908Y7310459D01*
X-17244399Y7113968D01*
X-17350740Y6857240D01*
X-19630390Y6857240D01*
X-19630390Y10423400D01*
X-18437860Y10423400D01*
X-18437860Y10145520D01*
X-18331519Y9888792D01*
X-18135028Y9692301D01*
X-17878300Y9585960D01*
X-17600420Y9585960D01*
X-17343692Y9692301D01*
X-17147201Y9888792D01*
X-17040860Y10145520D01*
X-17040860Y10423400D01*
X-17147201Y10680128D01*
X-17343692Y10876619D01*
X-17600420Y10982960D01*
X-17878300Y10982960D01*
X-18135028Y10876619D01*
X-18331519Y10680128D01*
X-18437860Y10423400D01*
X-19630390Y10423400D01*
X-19630390Y11038080D01*
X-7089140Y11038080D01*
X-7089140Y10760200D01*
X-6982799Y10503472D01*
X-6786308Y10306981D01*
X-6529580Y10200640D01*
X-6251700Y10200640D01*
X-5994972Y10306981D01*
X-5798481Y10503472D01*
X-5692140Y10760200D01*
X-5692140Y11038080D01*
X-5798481Y11294808D01*
X-5895713Y11392040D01*
X4551780Y11392040D01*
X4551780Y11114160D01*
X4658121Y10857432D01*
X4854612Y10660941D01*
X5111340Y10554600D01*
X5389220Y10554600D01*
X5645948Y10660941D01*
X5842439Y10857432D01*
X5948780Y11114160D01*
X5948780Y11392040D01*
X5842439Y11648768D01*
X5645948Y11845259D01*
X5564926Y11878820D01*
X7871460Y11878820D01*
X7871460Y11600940D01*
X7977801Y11344212D01*
X8174292Y11147721D01*
X8431020Y11041380D01*
X8708900Y11041380D01*
X8965628Y11147721D01*
X9162119Y11344212D01*
X9268460Y11600940D01*
X9268460Y11878820D01*
X9162119Y12135548D01*
X8965628Y12332039D01*
X8708900Y12438380D01*
X8431020Y12438380D01*
X8174292Y12332039D01*
X7977801Y12135548D01*
X7871460Y11878820D01*
X5564926Y11878820D01*
X5389220Y11951600D01*
X5111340Y11951600D01*
X4854612Y11845259D01*
X4658121Y11648768D01*
X4551780Y11392040D01*
X-5895713Y11392040D01*
X-5994972Y11491299D01*
X-6251700Y11597640D01*
X-6529580Y11597640D01*
X-6786308Y11491299D01*
X-6982799Y11294808D01*
X-7089140Y11038080D01*
X-19630390Y11038080D01*
X-19630390Y13618720D01*
X-16738600Y13618720D01*
X-16738600Y13340840D01*
X-16632259Y13084112D01*
X-16435768Y12887621D01*
X-16179040Y12781280D01*
X-15901160Y12781280D01*
X-15644432Y12887621D01*
X-15447941Y13084112D01*
X-15341600Y13340840D01*
X-15341600Y13618720D01*
X-15441550Y13860020D01*
X5511800Y13860020D01*
X5511800Y13582140D01*
X5618141Y13325412D01*
X5814632Y13128921D01*
X6071360Y13022580D01*
X6349240Y13022580D01*
X6605968Y13128921D01*
X6802459Y13325412D01*
X6908800Y13582140D01*
X6908800Y13860020D01*
X6891933Y13900740D01*
X7084632Y13708041D01*
X7341360Y13601700D01*
X7619240Y13601700D01*
X7875968Y13708041D01*
X8072459Y13904532D01*
X8170838Y14142040D01*
X13301780Y14142040D01*
X13301780Y13864160D01*
X13408121Y13607432D01*
X13604612Y13410941D01*
X13861340Y13304600D01*
X14139220Y13304600D01*
X14395948Y13410941D01*
X14592439Y13607432D01*
X14698780Y13864160D01*
X14698780Y14142040D01*
X14592439Y14398768D01*
X14519047Y14472160D01*
X14732000Y14472160D01*
X14732000Y14194280D01*
X14838341Y13937552D01*
X15034832Y13741061D01*
X15291560Y13634720D01*
X15569440Y13634720D01*
X15826168Y13741061D01*
X16022659Y13937552D01*
X16129000Y14194280D01*
X16129000Y14472160D01*
X16022659Y14728888D01*
X15826168Y14925379D01*
X15569440Y15031720D01*
X15291560Y15031720D01*
X15034832Y14925379D01*
X14838341Y14728888D01*
X14732000Y14472160D01*
X14519047Y14472160D01*
X14395948Y14595259D01*
X14139220Y14701600D01*
X13861340Y14701600D01*
X13604612Y14595259D01*
X13408121Y14398768D01*
X13301780Y14142040D01*
X8170838Y14142040D01*
X8178800Y14161260D01*
X8178800Y14439140D01*
X8072459Y14695868D01*
X7875968Y14892359D01*
X7619240Y14998700D01*
X7341360Y14998700D01*
X7084632Y14892359D01*
X6888141Y14695868D01*
X6781800Y14439140D01*
X6781800Y14161260D01*
X6798667Y14120540D01*
X6605968Y14313239D01*
X6349240Y14419580D01*
X6071360Y14419580D01*
X5814632Y14313239D01*
X5618141Y14116748D01*
X5511800Y13860020D01*
X-15441550Y13860020D01*
X-15447941Y13875448D01*
X-15644432Y14071939D01*
X-15901160Y14178280D01*
X-16179040Y14178280D01*
X-16435768Y14071939D01*
X-16632259Y13875448D01*
X-16738600Y13618720D01*
X-19630390Y13618720D01*
X-19630390Y17682337D01*
X1377950Y17682337D01*
X1377950Y15519527D01*
X3102610Y15519527D01*
X3102610Y17682337D01*
X1377950Y17682337D01*
X-19630390Y17682337D01*
X-19630390Y17717770D01*
X19538951Y17717770D01*
X19538951Y8130100D01*
G36*
X-6192859Y7695628D02*
X-6299200Y7438900D01*
X-6299200Y7161020D01*
X-6192859Y6904292D01*
X-5996368Y6707801D01*
X-5739640Y6601460D01*
X-5461760Y6601460D01*
X-5205032Y6707801D01*
X-5008541Y6904292D01*
X-4902200Y7161020D01*
X-4902200Y7244840D01*
X-4129281Y6471920D01*
X-6763517Y6471920D01*
X-8180839Y7889241D01*
X-5999246Y7889241D01*
X-6192859Y7695628D01*
X-6192859Y7695628D01*
G37*
X-6192859Y7695628D02*
X-6299200Y7438900D01*
X-6299200Y7161020D01*
X-6192859Y6904292D01*
X-5996368Y6707801D01*
X-5739640Y6601460D01*
X-5461760Y6601460D01*
X-5205032Y6707801D01*
X-5008541Y6904292D01*
X-4902200Y7161020D01*
X-4902200Y7244840D01*
X-4129281Y6471920D01*
X-6763517Y6471920D01*
X-8180839Y7889241D01*
X-5999246Y7889241D01*
X-6192859Y7695628D01*
G04 #@! TO.N,VCC*
G36*
X-15715846Y4824931D02*
X-15876471Y4664306D01*
X-15963400Y4454439D01*
X-15963400Y4227281D01*
X-15876471Y4017414D01*
X-15715846Y3856789D01*
X-15505979Y3769860D01*
X-15297920Y3769860D01*
X-15297920Y3641860D01*
X-15505979Y3641860D01*
X-15715846Y3554931D01*
X-15876471Y3394306D01*
X-15963400Y3184439D01*
X-15963400Y2957281D01*
X-15876471Y2747414D01*
X-15715846Y2586789D01*
X-15505979Y2499860D01*
X-15278821Y2499860D01*
X-15068954Y2586789D01*
X-14908329Y2747414D01*
X-14821400Y2957281D01*
X-14821400Y3145020D01*
X-14693400Y3145020D01*
X-14693400Y2957281D01*
X-14606471Y2747414D01*
X-14445846Y2586789D01*
X-14235979Y2499860D01*
X-14008821Y2499860D01*
X-13798954Y2586789D01*
X-13754101Y2631642D01*
X-13754101Y-2033330D01*
X-15385078Y-3664308D01*
X-15425374Y-3691233D01*
X-15491154Y-3789680D01*
X-15532038Y-3850867D01*
X-15557883Y-3980796D01*
X-15669599Y-4092512D01*
X-15775940Y-4349240D01*
X-15775940Y-4627120D01*
X-15669599Y-4883848D01*
X-15473108Y-5080339D01*
X-15216380Y-5186680D01*
X-14938500Y-5186680D01*
X-14681772Y-5080339D01*
X-14485281Y-4883848D01*
X-14378940Y-4627120D01*
X-14378940Y-4349240D01*
X-14474445Y-4118671D01*
X-12963861Y-2608088D01*
X-12923566Y-2581164D01*
X-12816902Y-2421530D01*
X-12788901Y-2280758D01*
X-12788901Y-2280757D01*
X-12779447Y-2233230D01*
X-12788901Y-2185702D01*
X-12788901Y1695960D01*
X-11417300Y1695960D01*
X-11417300Y1418080D01*
X-11310959Y1161352D01*
X-11114468Y964861D01*
X-10857740Y858520D01*
X-10579860Y858520D01*
X-10323132Y964861D01*
X-10126641Y1161352D01*
X-10020300Y1418080D01*
X-10020300Y1695960D01*
X-10126641Y1952688D01*
X-10323132Y2149179D01*
X-10579860Y2255520D01*
X-10857740Y2255520D01*
X-11114468Y2149179D01*
X-11310959Y1952688D01*
X-11417300Y1695960D01*
X-12788901Y1695960D01*
X-12788901Y3656840D01*
X-12174220Y3656840D01*
X-12174220Y3378960D01*
X-12067879Y3122232D01*
X-11871388Y2925741D01*
X-11614660Y2819400D01*
X-11336780Y2819400D01*
X-11080052Y2925741D01*
X-11077190Y2928603D01*
X-10959528Y2810941D01*
X-10702800Y2704600D01*
X-10424920Y2704600D01*
X-10168192Y2810941D01*
X-9971701Y3007432D01*
X-9865360Y3264160D01*
X-9865360Y3542040D01*
X-9971701Y3798768D01*
X-10168192Y3995259D01*
X-10424920Y4101600D01*
X-10702800Y4101600D01*
X-10959528Y3995259D01*
X-10962390Y3992397D01*
X-11080052Y4110059D01*
X-11336780Y4216400D01*
X-11614660Y4216400D01*
X-11871388Y4110059D01*
X-12067879Y3913568D01*
X-12174220Y3656840D01*
X-12788901Y3656840D01*
X-12788901Y4876100D01*
X-8613924Y4876100D01*
X-8679180Y4718560D01*
X-8679180Y4440680D01*
X-8572839Y4183952D01*
X-8376348Y3987461D01*
X-8119620Y3881120D01*
X-7841740Y3881120D01*
X-7585012Y3987461D01*
X-7388521Y4183952D01*
X-7282180Y4440680D01*
X-7282180Y4718560D01*
X-7347436Y4876100D01*
X-3385623Y4876100D01*
X-3245531Y4736008D01*
X-3213648Y4688292D01*
X-3024608Y4561979D01*
X-2857906Y4528820D01*
X-2857902Y4528820D01*
X-2801621Y4517625D01*
X-2745340Y4528820D01*
X2551780Y4528820D01*
X2551780Y4364160D01*
X2658121Y4107432D01*
X2854612Y3910941D01*
X3111340Y3804600D01*
X3373280Y3804600D01*
X3373280Y201600D01*
X3361340Y201600D01*
X3104612Y95259D01*
X2908121Y-101232D01*
X2801780Y-357960D01*
X2801780Y-512901D01*
X-360680Y-3675362D01*
X-360680Y-857960D01*
X350520Y-857960D01*
X350520Y-1135840D01*
X456861Y-1392568D01*
X653352Y-1589059D01*
X910080Y-1695400D01*
X1187960Y-1695400D01*
X1444688Y-1589059D01*
X1641179Y-1392568D01*
X1747520Y-1135840D01*
X1747520Y-857960D01*
X1641179Y-601232D01*
X1444688Y-404741D01*
X1187960Y-298400D01*
X910080Y-298400D01*
X653352Y-404741D01*
X456861Y-601232D01*
X350520Y-857960D01*
X-360680Y-857960D01*
X-360680Y1955040D01*
X-236220Y1955040D01*
X-236220Y1677160D01*
X-129879Y1420432D01*
X66612Y1223941D01*
X323340Y1117600D01*
X601220Y1117600D01*
X857948Y1223941D01*
X980440Y1346433D01*
X980440Y1301240D01*
X1086781Y1044512D01*
X1283272Y848021D01*
X1540000Y741680D01*
X1653097Y741680D01*
X1551780Y497080D01*
X1551780Y219200D01*
X1658121Y-37528D01*
X1854612Y-234019D01*
X2111340Y-340360D01*
X2389220Y-340360D01*
X2645948Y-234019D01*
X2842439Y-37528D01*
X2948780Y219200D01*
X2948780Y497080D01*
X2842439Y753808D01*
X2645948Y950299D01*
X2389220Y1056640D01*
X2276123Y1056640D01*
X2377440Y1301240D01*
X2377440Y1579120D01*
X2271099Y1835848D01*
X2074608Y2032339D01*
X1817880Y2138680D01*
X1540000Y2138680D01*
X1283272Y2032339D01*
X1160780Y1909847D01*
X1160780Y1955040D01*
X1054439Y2211768D01*
X857948Y2408259D01*
X601220Y2514600D01*
X323340Y2514600D01*
X66612Y2408259D01*
X-129879Y2211768D01*
X-236220Y1955040D01*
X-360680Y1955040D01*
X-360680Y2946633D01*
X-251121Y3056192D01*
X-144780Y3312920D01*
X-144780Y3590800D01*
X-251121Y3847528D01*
X-447612Y4044019D01*
X-704340Y4150360D01*
X-982220Y4150360D01*
X-1238948Y4044019D01*
X-1435439Y3847528D01*
X-1541780Y3590800D01*
X-1541780Y3312920D01*
X-1435439Y3056192D01*
X-1325879Y2946632D01*
X-1325880Y-3751851D01*
X-1430780Y-3708400D01*
X-1708660Y-3708400D01*
X-1965388Y-3814741D01*
X-2161879Y-4011232D01*
X-2204720Y-4114659D01*
X-2247561Y-4011232D01*
X-2444052Y-3814741D01*
X-2700780Y-3708400D01*
X-2978660Y-3708400D01*
X-3235388Y-3814741D01*
X-3431879Y-4011232D01*
X-3538220Y-4267960D01*
X-3538220Y-4545840D01*
X-3431879Y-4802568D01*
X-3235388Y-4999059D01*
X-2978660Y-5105400D01*
X-2700780Y-5105400D01*
X-2444052Y-4999059D01*
X-2247561Y-4802568D01*
X-2204720Y-4699141D01*
X-2161879Y-4802568D01*
X-1965388Y-4999059D01*
X-1708660Y-5105400D01*
X-1430780Y-5105400D01*
X-1325880Y-5061949D01*
X-1325880Y-7681721D01*
X-1797558Y-8153400D01*
X-1952500Y-8153400D01*
X-2209228Y-8259741D01*
X-2405719Y-8456232D01*
X-2512060Y-8712960D01*
X-2512060Y-8990840D01*
X-2505867Y-9005790D01*
X-3144629Y-9005790D01*
X-4859457Y-7290963D01*
X-4886384Y-7250664D01*
X-5046018Y-7144000D01*
X-5186790Y-7115999D01*
X-5186791Y-7115999D01*
X-5234319Y-7106545D01*
X-5281847Y-7115999D01*
X-11906672Y-7115999D01*
X-11792881Y-7002208D01*
X-11686540Y-6745480D01*
X-11686540Y-6467600D01*
X-11792881Y-6210872D01*
X-11980157Y-6023596D01*
X-11868660Y-6069780D01*
X-11590780Y-6069780D01*
X-11334052Y-5963439D01*
X-11137561Y-5766948D01*
X-11031220Y-5510220D01*
X-11031220Y-5232340D01*
X-6383840Y-5232340D01*
X-6383840Y-5510220D01*
X-6277499Y-5766948D01*
X-6081008Y-5963439D01*
X-5824280Y-6069780D01*
X-5546400Y-6069780D01*
X-5289672Y-5963439D01*
X-5093181Y-5766948D01*
X-4986840Y-5510220D01*
X-4986840Y-5232340D01*
X-5093181Y-4975612D01*
X-5289672Y-4779121D01*
X-5546400Y-4672780D01*
X-5824280Y-4672780D01*
X-6081008Y-4779121D01*
X-6277499Y-4975612D01*
X-6383840Y-5232340D01*
X-11031220Y-5232340D01*
X-11137561Y-4975612D01*
X-11334052Y-4779121D01*
X-11590780Y-4672780D01*
X-11868660Y-4672780D01*
X-12125388Y-4779121D01*
X-12321879Y-4975612D01*
X-12428220Y-5232340D01*
X-12428220Y-5510220D01*
X-12321879Y-5766948D01*
X-12134603Y-5954224D01*
X-12246100Y-5908040D01*
X-12523980Y-5908040D01*
X-12780708Y-6014381D01*
X-12977199Y-6210872D01*
X-13083540Y-6467600D01*
X-13083540Y-6745480D01*
X-12977199Y-7002208D01*
X-12863408Y-7115999D01*
X-14001312Y-7115999D01*
X-14169699Y-6947612D01*
X-14064552Y-6904059D01*
X-13868061Y-6707568D01*
X-13761720Y-6450840D01*
X-13761720Y-6295899D01*
X-12946078Y-5480258D01*
X-12905785Y-5453335D01*
X-12799121Y-5293701D01*
X-12771120Y-5152929D01*
X-12761666Y-5105400D01*
X-12771120Y-5057871D01*
X-12771120Y-4439158D01*
X-12472922Y-4140960D01*
X-9253220Y-4140960D01*
X-9253220Y-4418840D01*
X-9146879Y-4675568D01*
X-8950388Y-4872059D01*
X-8693660Y-4978400D01*
X-8415780Y-4978400D01*
X-8159052Y-4872059D01*
X-7962561Y-4675568D01*
X-7856220Y-4418840D01*
X-7856220Y-4140960D01*
X-7962561Y-3884232D01*
X-8159052Y-3687741D01*
X-8415780Y-3581400D01*
X-8693660Y-3581400D01*
X-8950388Y-3687741D01*
X-9146879Y-3884232D01*
X-9253220Y-4140960D01*
X-12472922Y-4140960D01*
X-10929873Y-2597911D01*
X-3138171Y-2597911D01*
X-3138171Y-2875791D01*
X-3031830Y-3132519D01*
X-2835339Y-3329010D01*
X-2578611Y-3435351D01*
X-2300731Y-3435351D01*
X-2044003Y-3329010D01*
X-1847512Y-3132519D01*
X-1741171Y-2875791D01*
X-1741171Y-2597911D01*
X-1847512Y-2341183D01*
X-2044003Y-2144692D01*
X-2300731Y-2038351D01*
X-2578611Y-2038351D01*
X-2835339Y-2144692D01*
X-3031830Y-2341183D01*
X-3138171Y-2597911D01*
X-10929873Y-2597911D01*
X-5814821Y2517140D01*
X-4239027Y2517140D01*
X-4129468Y2407581D01*
X-3872740Y2301240D01*
X-3594860Y2301240D01*
X-3338132Y2407581D01*
X-3141641Y2604072D01*
X-3035300Y2860800D01*
X-3035300Y3138680D01*
X-3141641Y3395408D01*
X-3338132Y3591899D01*
X-3594860Y3698240D01*
X-3872740Y3698240D01*
X-4129468Y3591899D01*
X-4239027Y3482340D01*
X-5967192Y3482340D01*
X-6008605Y3490578D01*
X-6057561Y3608768D01*
X-6254052Y3805259D01*
X-6510780Y3911600D01*
X-6788660Y3911600D01*
X-7045388Y3805259D01*
X-7241879Y3608768D01*
X-7348220Y3352040D01*
X-7348220Y3074160D01*
X-7241879Y2817432D01*
X-7060703Y2636256D01*
X-13561356Y-3864398D01*
X-13601655Y-3891325D01*
X-13708319Y-4050960D01*
X-13721017Y-4114800D01*
X-13745774Y-4239260D01*
X-13736320Y-4286788D01*
X-13736319Y-4905500D01*
X-14444219Y-5613400D01*
X-14599160Y-5613400D01*
X-14855888Y-5719741D01*
X-15052379Y-5916232D01*
X-15095933Y-6021379D01*
X-16150403Y-4966909D01*
X-16054898Y-4736340D01*
X-16054898Y-4458460D01*
X-16161239Y-4201732D01*
X-16357730Y-4005241D01*
X-16614458Y-3898900D01*
X-16892338Y-3898900D01*
X-17149066Y-4005241D01*
X-17345557Y-4201732D01*
X-17451898Y-4458460D01*
X-17451898Y-4736340D01*
X-17345557Y-4993068D01*
X-17233841Y-5104784D01*
X-17207997Y-5234712D01*
X-17101333Y-5394347D01*
X-17061034Y-5421274D01*
X-14576071Y-7906238D01*
X-14549146Y-7946534D01*
X-14389512Y-8053198D01*
X-14248740Y-8081199D01*
X-14201212Y-8090653D01*
X-14153684Y-8081199D01*
X-11591100Y-8081199D01*
X-11591100Y-8228114D01*
X-11495036Y-8460033D01*
X-11317533Y-8637536D01*
X-11085614Y-8733600D01*
X-10834586Y-8733600D01*
X-10602667Y-8637536D01*
X-10425164Y-8460033D01*
X-10329100Y-8228114D01*
X-10329100Y-8081199D01*
X-10262680Y-8081199D01*
X-10262680Y-8240814D01*
X-10166616Y-8472733D01*
X-9989113Y-8650236D01*
X-9757194Y-8746300D01*
X-9506166Y-8746300D01*
X-9274247Y-8650236D01*
X-9096744Y-8472733D01*
X-9000680Y-8240814D01*
X-9000680Y-8081199D01*
X-8957120Y-8081199D01*
X-8957120Y-8240814D01*
X-8861056Y-8472733D01*
X-8683553Y-8650236D01*
X-8451634Y-8746300D01*
X-8200606Y-8746300D01*
X-7968687Y-8650236D01*
X-7791184Y-8472733D01*
X-7695120Y-8240814D01*
X-7695120Y-8081199D01*
X-7519480Y-8081199D01*
X-7519480Y-8235734D01*
X-7423416Y-8467653D01*
X-7245913Y-8645156D01*
X-7013994Y-8741220D01*
X-6762966Y-8741220D01*
X-6531047Y-8645156D01*
X-6353544Y-8467653D01*
X-6257480Y-8235734D01*
X-6257480Y-8081199D01*
X-6104700Y-8081199D01*
X-6104700Y-8230654D01*
X-6008636Y-8462573D01*
X-5831133Y-8640076D01*
X-5599214Y-8736140D01*
X-5348186Y-8736140D01*
X-5116267Y-8640076D01*
X-4995804Y-8519613D01*
X-3719388Y-9796029D01*
X-3692463Y-9836325D01*
X-3532829Y-9942989D01*
X-3392057Y-9970990D01*
X-3344529Y-9980444D01*
X-3297001Y-9970990D01*
X-1617248Y-9970990D01*
X-1569720Y-9980444D01*
X-1522192Y-9970990D01*
X-1522191Y-9970990D01*
X-1381419Y-9942989D01*
X-1221785Y-9836325D01*
X-1194858Y-9796026D01*
X85889Y-8515280D01*
X126185Y-8488355D01*
X232849Y-8328721D01*
X260850Y-8187949D01*
X270304Y-8140421D01*
X260850Y-8092893D01*
X260850Y-4418828D01*
X3373280Y-1306399D01*
X3373280Y-7800543D01*
X3356599Y-7760272D01*
X3160108Y-7563781D01*
X2903380Y-7457440D01*
X2625500Y-7457440D01*
X2368772Y-7563781D01*
X2172281Y-7760272D01*
X2065940Y-8017000D01*
X2065940Y-8294880D01*
X2172281Y-8551608D01*
X2368772Y-8748099D01*
X2625500Y-8854440D01*
X2903380Y-8854440D01*
X3160108Y-8748099D01*
X3356599Y-8551608D01*
X3373280Y-8511337D01*
X3373280Y-19419570D01*
X-19630390Y-19419570D01*
X-19630390Y-18415760D01*
X-16198220Y-18415760D01*
X-16198220Y-18693640D01*
X-16091879Y-18950368D01*
X-15895388Y-19146859D01*
X-15638660Y-19253200D01*
X-15360780Y-19253200D01*
X-15104052Y-19146859D01*
X-14907561Y-18950368D01*
X-14801220Y-18693640D01*
X-14801220Y-18415760D01*
X-14907561Y-18159032D01*
X-15104052Y-17962541D01*
X-15360780Y-17856200D01*
X-15638660Y-17856200D01*
X-15895388Y-17962541D01*
X-16091879Y-18159032D01*
X-16198220Y-18415760D01*
X-19630390Y-18415760D01*
X-19630390Y-17357960D01*
X-5698220Y-17357960D01*
X-5698220Y-17635840D01*
X-5591879Y-17892568D01*
X-5395388Y-18089059D01*
X-5138660Y-18195400D01*
X-4860780Y-18195400D01*
X-4604052Y-18089059D01*
X-4407561Y-17892568D01*
X-4301220Y-17635840D01*
X-4301220Y-17357960D01*
X-4383856Y-17158460D01*
X398780Y-17158460D01*
X398780Y-17436340D01*
X505121Y-17693068D01*
X701612Y-17889559D01*
X958340Y-17995900D01*
X1236220Y-17995900D01*
X1492948Y-17889559D01*
X1689439Y-17693068D01*
X1795780Y-17436340D01*
X1795780Y-17158460D01*
X1689439Y-16901732D01*
X1492948Y-16705241D01*
X1236220Y-16598900D01*
X958340Y-16598900D01*
X701612Y-16705241D01*
X505121Y-16901732D01*
X398780Y-17158460D01*
X-4383856Y-17158460D01*
X-4407561Y-17101232D01*
X-4604052Y-16904741D01*
X-4860780Y-16798400D01*
X-5138660Y-16798400D01*
X-5395388Y-16904741D01*
X-5591879Y-17101232D01*
X-5698220Y-17357960D01*
X-19630390Y-17357960D01*
X-19630390Y-15281400D01*
X-14775180Y-15281400D01*
X-14775180Y-15559280D01*
X-14668839Y-15816008D01*
X-14472348Y-16012499D01*
X-14215620Y-16118840D01*
X-13937740Y-16118840D01*
X-13681012Y-16012499D01*
X-13484521Y-15816008D01*
X-13435624Y-15697960D01*
X-1633220Y-15697960D01*
X-1633220Y-15975840D01*
X-1526879Y-16232568D01*
X-1330388Y-16429059D01*
X-1073660Y-16535400D01*
X-795780Y-16535400D01*
X-539052Y-16429059D01*
X-342561Y-16232568D01*
X-236220Y-15975840D01*
X-236220Y-15697960D01*
X-342561Y-15441232D01*
X-539052Y-15244741D01*
X-795780Y-15138400D01*
X-1073660Y-15138400D01*
X-1330388Y-15244741D01*
X-1526879Y-15441232D01*
X-1633220Y-15697960D01*
X-13435624Y-15697960D01*
X-13378180Y-15559280D01*
X-13378180Y-15281400D01*
X-13484521Y-15024672D01*
X-13681012Y-14828181D01*
X-13937740Y-14721840D01*
X-14215620Y-14721840D01*
X-14472348Y-14828181D01*
X-14668839Y-15024672D01*
X-14775180Y-15281400D01*
X-19630390Y-15281400D01*
X-19630390Y-13458406D01*
X-11598720Y-13458406D01*
X-11598720Y-13709434D01*
X-11502656Y-13941353D01*
X-11325153Y-14118856D01*
X-11093234Y-14214920D01*
X-10842206Y-14214920D01*
X-10610287Y-14118856D01*
X-10432784Y-13941353D01*
X-10336720Y-13709434D01*
X-10336720Y-13471106D01*
X-10252520Y-13471106D01*
X-10252520Y-13722134D01*
X-10156456Y-13954053D01*
X-9978953Y-14131556D01*
X-9747034Y-14227620D01*
X-9496006Y-14227620D01*
X-9264087Y-14131556D01*
X-9086584Y-13954053D01*
X-8990520Y-13722134D01*
X-8990520Y-13481266D01*
X-8913940Y-13481266D01*
X-8913940Y-13732294D01*
X-8817876Y-13964213D01*
X-8640373Y-14141716D01*
X-8408454Y-14237780D01*
X-8157426Y-14237780D01*
X-7925507Y-14141716D01*
X-7748004Y-13964213D01*
X-7651940Y-13732294D01*
X-7651940Y-13481266D01*
X-7656148Y-13471106D01*
X-7499160Y-13471106D01*
X-7499160Y-13722134D01*
X-7403096Y-13954053D01*
X-7225593Y-14131556D01*
X-6993674Y-14227620D01*
X-6742646Y-14227620D01*
X-6510727Y-14131556D01*
X-6333224Y-13954053D01*
X-6237160Y-13722134D01*
X-6237160Y-13471106D01*
X-6240316Y-13463486D01*
X-6092000Y-13463486D01*
X-6092000Y-13714514D01*
X-5995936Y-13946433D01*
X-5818433Y-14123936D01*
X-5586514Y-14220000D01*
X-5335486Y-14220000D01*
X-5103567Y-14123936D01*
X-4926064Y-13946433D01*
X-4830000Y-13714514D01*
X-4830000Y-13463486D01*
X-4926064Y-13231567D01*
X-5103567Y-13054064D01*
X-5335486Y-12958000D01*
X-5586514Y-12958000D01*
X-5818433Y-13054064D01*
X-5995936Y-13231567D01*
X-6092000Y-13463486D01*
X-6240316Y-13463486D01*
X-6333224Y-13239187D01*
X-6510727Y-13061684D01*
X-6742646Y-12965620D01*
X-6993674Y-12965620D01*
X-7225593Y-13061684D01*
X-7403096Y-13239187D01*
X-7499160Y-13471106D01*
X-7656148Y-13471106D01*
X-7748004Y-13249347D01*
X-7925507Y-13071844D01*
X-8157426Y-12975780D01*
X-8408454Y-12975780D01*
X-8640373Y-13071844D01*
X-8817876Y-13249347D01*
X-8913940Y-13481266D01*
X-8990520Y-13481266D01*
X-8990520Y-13471106D01*
X-9086584Y-13239187D01*
X-9264087Y-13061684D01*
X-9496006Y-12965620D01*
X-9747034Y-12965620D01*
X-9978953Y-13061684D01*
X-10156456Y-13239187D01*
X-10252520Y-13471106D01*
X-10336720Y-13471106D01*
X-10336720Y-13458406D01*
X-10432784Y-13226487D01*
X-10610287Y-13048984D01*
X-10842206Y-12952920D01*
X-11093234Y-12952920D01*
X-11325153Y-13048984D01*
X-11502656Y-13226487D01*
X-11598720Y-13458406D01*
X-19630390Y-13458406D01*
X-19630390Y-12155386D01*
X-11619040Y-12155386D01*
X-11619040Y-12406414D01*
X-11522976Y-12638333D01*
X-11345473Y-12815836D01*
X-11113554Y-12911900D01*
X-10862526Y-12911900D01*
X-10630607Y-12815836D01*
X-10453104Y-12638333D01*
X-10357040Y-12406414D01*
X-10357040Y-12165546D01*
X-10285540Y-12165546D01*
X-10285540Y-12416574D01*
X-10189476Y-12648493D01*
X-10011973Y-12825996D01*
X-9780054Y-12922060D01*
X-9529026Y-12922060D01*
X-9297107Y-12825996D01*
X-9119604Y-12648493D01*
X-9023540Y-12416574D01*
X-9023540Y-12175706D01*
X-8891080Y-12175706D01*
X-8891080Y-12426734D01*
X-8795016Y-12658653D01*
X-8617513Y-12836156D01*
X-8385594Y-12932220D01*
X-8134566Y-12932220D01*
X-7902647Y-12836156D01*
X-7725144Y-12658653D01*
X-7629080Y-12426734D01*
X-7629080Y-12190946D01*
X-7499160Y-12190946D01*
X-7499160Y-12441974D01*
X-7403096Y-12673893D01*
X-7225593Y-12851396D01*
X-6993674Y-12947460D01*
X-6742646Y-12947460D01*
X-6510727Y-12851396D01*
X-6333224Y-12673893D01*
X-6237160Y-12441974D01*
X-6237160Y-12190946D01*
X-6261358Y-12132526D01*
X-6109780Y-12132526D01*
X-6109780Y-12383554D01*
X-6013716Y-12615473D01*
X-5836213Y-12792976D01*
X-5604294Y-12889040D01*
X-5353266Y-12889040D01*
X-5121347Y-12792976D01*
X-5009892Y-12681521D01*
X-2871281Y-12681521D01*
X-2871281Y-12959401D01*
X-2764940Y-13216129D01*
X-2568449Y-13412620D01*
X-2311721Y-13518961D01*
X-2033841Y-13518961D01*
X-1777113Y-13412620D01*
X-1580622Y-13216129D01*
X-1474281Y-12959401D01*
X-1474281Y-12681521D01*
X-1580622Y-12424793D01*
X-1777113Y-12228302D01*
X-2033841Y-12121961D01*
X-2311721Y-12121961D01*
X-2568449Y-12228302D01*
X-2764940Y-12424793D01*
X-2871281Y-12681521D01*
X-5009892Y-12681521D01*
X-4943844Y-12615473D01*
X-4847780Y-12383554D01*
X-4847780Y-12132526D01*
X-4943844Y-11900607D01*
X-5121347Y-11723104D01*
X-5353266Y-11627040D01*
X-5604294Y-11627040D01*
X-5836213Y-11723104D01*
X-6013716Y-11900607D01*
X-6109780Y-12132526D01*
X-6261358Y-12132526D01*
X-6333224Y-11959027D01*
X-6510727Y-11781524D01*
X-6742646Y-11685460D01*
X-6993674Y-11685460D01*
X-7225593Y-11781524D01*
X-7403096Y-11959027D01*
X-7499160Y-12190946D01*
X-7629080Y-12190946D01*
X-7629080Y-12175706D01*
X-7725144Y-11943787D01*
X-7902647Y-11766284D01*
X-8134566Y-11670220D01*
X-8385594Y-11670220D01*
X-8617513Y-11766284D01*
X-8795016Y-11943787D01*
X-8891080Y-12175706D01*
X-9023540Y-12175706D01*
X-9023540Y-12165546D01*
X-9119604Y-11933627D01*
X-9297107Y-11756124D01*
X-9529026Y-11660060D01*
X-9780054Y-11660060D01*
X-10011973Y-11756124D01*
X-10189476Y-11933627D01*
X-10285540Y-12165546D01*
X-10357040Y-12165546D01*
X-10357040Y-12155386D01*
X-10453104Y-11923467D01*
X-10630607Y-11745964D01*
X-10862526Y-11649900D01*
X-11113554Y-11649900D01*
X-11345473Y-11745964D01*
X-11522976Y-11923467D01*
X-11619040Y-12155386D01*
X-19630390Y-12155386D01*
X-19630390Y-10750766D01*
X-11568240Y-10750766D01*
X-11568240Y-11001794D01*
X-11472176Y-11233713D01*
X-11294673Y-11411216D01*
X-11062754Y-11507280D01*
X-10811726Y-11507280D01*
X-10579807Y-11411216D01*
X-10402304Y-11233713D01*
X-10306240Y-11001794D01*
X-10306240Y-10783786D01*
X-10285540Y-10783786D01*
X-10285540Y-11034814D01*
X-10189476Y-11266733D01*
X-10011973Y-11444236D01*
X-9780054Y-11540300D01*
X-9529026Y-11540300D01*
X-9297107Y-11444236D01*
X-9119604Y-11266733D01*
X-9023540Y-11034814D01*
X-9023540Y-10806646D01*
X-8880920Y-10806646D01*
X-8880920Y-11057674D01*
X-8784856Y-11289593D01*
X-8607353Y-11467096D01*
X-8375434Y-11563160D01*
X-8124406Y-11563160D01*
X-7892487Y-11467096D01*
X-7714984Y-11289593D01*
X-7618920Y-11057674D01*
X-7618920Y-10806646D01*
X-7622076Y-10799026D01*
X-7509320Y-10799026D01*
X-7509320Y-11050054D01*
X-7413256Y-11281973D01*
X-7235753Y-11459476D01*
X-7003834Y-11555540D01*
X-6752806Y-11555540D01*
X-6520887Y-11459476D01*
X-6343384Y-11281973D01*
X-6247320Y-11050054D01*
X-6247320Y-10801566D01*
X-6109780Y-10801566D01*
X-6109780Y-11052594D01*
X-6013716Y-11284513D01*
X-5836213Y-11462016D01*
X-5604294Y-11558080D01*
X-5353266Y-11558080D01*
X-5121347Y-11462016D01*
X-4943844Y-11284513D01*
X-4847780Y-11052594D01*
X-4847780Y-10801566D01*
X-4943844Y-10569647D01*
X-5121347Y-10392144D01*
X-5353266Y-10296080D01*
X-5604294Y-10296080D01*
X-5836213Y-10392144D01*
X-6013716Y-10569647D01*
X-6109780Y-10801566D01*
X-6247320Y-10801566D01*
X-6247320Y-10799026D01*
X-6343384Y-10567107D01*
X-6520887Y-10389604D01*
X-6752806Y-10293540D01*
X-7003834Y-10293540D01*
X-7235753Y-10389604D01*
X-7413256Y-10567107D01*
X-7509320Y-10799026D01*
X-7622076Y-10799026D01*
X-7714984Y-10574727D01*
X-7892487Y-10397224D01*
X-8124406Y-10301160D01*
X-8375434Y-10301160D01*
X-8607353Y-10397224D01*
X-8784856Y-10574727D01*
X-8880920Y-10806646D01*
X-9023540Y-10806646D01*
X-9023540Y-10783786D01*
X-9119604Y-10551867D01*
X-9297107Y-10374364D01*
X-9529026Y-10278300D01*
X-9780054Y-10278300D01*
X-10011973Y-10374364D01*
X-10189476Y-10551867D01*
X-10285540Y-10783786D01*
X-10306240Y-10783786D01*
X-10306240Y-10750766D01*
X-10402304Y-10518847D01*
X-10579807Y-10341344D01*
X-10811726Y-10245280D01*
X-11062754Y-10245280D01*
X-11294673Y-10341344D01*
X-11472176Y-10518847D01*
X-11568240Y-10750766D01*
X-19630390Y-10750766D01*
X-19630390Y-9394406D01*
X-11586020Y-9394406D01*
X-11586020Y-9645434D01*
X-11489956Y-9877353D01*
X-11312453Y-10054856D01*
X-11080534Y-10150920D01*
X-10829506Y-10150920D01*
X-10597587Y-10054856D01*
X-10420084Y-9877353D01*
X-10324020Y-9645434D01*
X-10324020Y-9394406D01*
X-10337697Y-9361386D01*
X-10305860Y-9361386D01*
X-10305860Y-9612414D01*
X-10209796Y-9844333D01*
X-10032293Y-10021836D01*
X-9800374Y-10117900D01*
X-9549346Y-10117900D01*
X-9317427Y-10021836D01*
X-9139924Y-9844333D01*
X-9043860Y-9612414D01*
X-9043860Y-9450286D01*
X-8913940Y-9450286D01*
X-8913940Y-9701314D01*
X-8817876Y-9933233D01*
X-8640373Y-10110736D01*
X-8408454Y-10206800D01*
X-8157426Y-10206800D01*
X-7925507Y-10110736D01*
X-7748004Y-9933233D01*
X-7651940Y-9701314D01*
X-7651940Y-9460446D01*
X-7499160Y-9460446D01*
X-7499160Y-9711474D01*
X-7403096Y-9943393D01*
X-7225593Y-10120896D01*
X-6993674Y-10216960D01*
X-6742646Y-10216960D01*
X-6510727Y-10120896D01*
X-6333224Y-9943393D01*
X-6237160Y-9711474D01*
X-6237160Y-9462986D01*
X-6109780Y-9462986D01*
X-6109780Y-9714014D01*
X-6013716Y-9945933D01*
X-5836213Y-10123436D01*
X-5604294Y-10219500D01*
X-5353266Y-10219500D01*
X-5121347Y-10123436D01*
X-4943844Y-9945933D01*
X-4847780Y-9714014D01*
X-4847780Y-9462986D01*
X-4943844Y-9231067D01*
X-5121347Y-9053564D01*
X-5353266Y-8957500D01*
X-5604294Y-8957500D01*
X-5836213Y-9053564D01*
X-6013716Y-9231067D01*
X-6109780Y-9462986D01*
X-6237160Y-9462986D01*
X-6237160Y-9460446D01*
X-6333224Y-9228527D01*
X-6510727Y-9051024D01*
X-6742646Y-8954960D01*
X-6993674Y-8954960D01*
X-7225593Y-9051024D01*
X-7403096Y-9228527D01*
X-7499160Y-9460446D01*
X-7651940Y-9460446D01*
X-7651940Y-9450286D01*
X-7748004Y-9218367D01*
X-7925507Y-9040864D01*
X-8157426Y-8944800D01*
X-8408454Y-8944800D01*
X-8640373Y-9040864D01*
X-8817876Y-9218367D01*
X-8913940Y-9450286D01*
X-9043860Y-9450286D01*
X-9043860Y-9361386D01*
X-9139924Y-9129467D01*
X-9317427Y-8951964D01*
X-9549346Y-8855900D01*
X-9800374Y-8855900D01*
X-10032293Y-8951964D01*
X-10209796Y-9129467D01*
X-10305860Y-9361386D01*
X-10337697Y-9361386D01*
X-10420084Y-9162487D01*
X-10597587Y-8984984D01*
X-10829506Y-8888920D01*
X-11080534Y-8888920D01*
X-11312453Y-8984984D01*
X-11489956Y-9162487D01*
X-11586020Y-9394406D01*
X-19630390Y-9394406D01*
X-19630390Y-584960D01*
X-17686020Y-584960D01*
X-17686020Y-862840D01*
X-17579679Y-1119568D01*
X-17383188Y-1316059D01*
X-17126460Y-1422400D01*
X-16848580Y-1422400D01*
X-16591852Y-1316059D01*
X-16395361Y-1119568D01*
X-16289020Y-862840D01*
X-16289020Y-584960D01*
X-16395361Y-328232D01*
X-16591852Y-131741D01*
X-16848580Y-25400D01*
X-17126460Y-25400D01*
X-17383188Y-131741D01*
X-17579679Y-328232D01*
X-17686020Y-584960D01*
X-19630390Y-584960D01*
X-19630390Y507240D01*
X-15628620Y507240D01*
X-15628620Y229360D01*
X-15522279Y-27368D01*
X-15325788Y-223859D01*
X-15069060Y-330200D01*
X-14791180Y-330200D01*
X-14534452Y-223859D01*
X-14337961Y-27368D01*
X-14231620Y229360D01*
X-14231620Y507240D01*
X-14337961Y763968D01*
X-14534452Y960459D01*
X-14791180Y1066800D01*
X-15069060Y1066800D01*
X-15325788Y960459D01*
X-15522279Y763968D01*
X-15628620Y507240D01*
X-19630390Y507240D01*
X-19630390Y4876100D01*
X-15592312Y4876100D01*
X-15715846Y4824931D01*
X-15715846Y4824931D01*
G37*
X-15715846Y4824931D02*
X-15876471Y4664306D01*
X-15963400Y4454439D01*
X-15963400Y4227281D01*
X-15876471Y4017414D01*
X-15715846Y3856789D01*
X-15505979Y3769860D01*
X-15297920Y3769860D01*
X-15297920Y3641860D01*
X-15505979Y3641860D01*
X-15715846Y3554931D01*
X-15876471Y3394306D01*
X-15963400Y3184439D01*
X-15963400Y2957281D01*
X-15876471Y2747414D01*
X-15715846Y2586789D01*
X-15505979Y2499860D01*
X-15278821Y2499860D01*
X-15068954Y2586789D01*
X-14908329Y2747414D01*
X-14821400Y2957281D01*
X-14821400Y3145020D01*
X-14693400Y3145020D01*
X-14693400Y2957281D01*
X-14606471Y2747414D01*
X-14445846Y2586789D01*
X-14235979Y2499860D01*
X-14008821Y2499860D01*
X-13798954Y2586789D01*
X-13754101Y2631642D01*
X-13754101Y-2033330D01*
X-15385078Y-3664308D01*
X-15425374Y-3691233D01*
X-15491154Y-3789680D01*
X-15532038Y-3850867D01*
X-15557883Y-3980796D01*
X-15669599Y-4092512D01*
X-15775940Y-4349240D01*
X-15775940Y-4627120D01*
X-15669599Y-4883848D01*
X-15473108Y-5080339D01*
X-15216380Y-5186680D01*
X-14938500Y-5186680D01*
X-14681772Y-5080339D01*
X-14485281Y-4883848D01*
X-14378940Y-4627120D01*
X-14378940Y-4349240D01*
X-14474445Y-4118671D01*
X-12963861Y-2608088D01*
X-12923566Y-2581164D01*
X-12816902Y-2421530D01*
X-12788901Y-2280758D01*
X-12788901Y-2280757D01*
X-12779447Y-2233230D01*
X-12788901Y-2185702D01*
X-12788901Y1695960D01*
X-11417300Y1695960D01*
X-11417300Y1418080D01*
X-11310959Y1161352D01*
X-11114468Y964861D01*
X-10857740Y858520D01*
X-10579860Y858520D01*
X-10323132Y964861D01*
X-10126641Y1161352D01*
X-10020300Y1418080D01*
X-10020300Y1695960D01*
X-10126641Y1952688D01*
X-10323132Y2149179D01*
X-10579860Y2255520D01*
X-10857740Y2255520D01*
X-11114468Y2149179D01*
X-11310959Y1952688D01*
X-11417300Y1695960D01*
X-12788901Y1695960D01*
X-12788901Y3656840D01*
X-12174220Y3656840D01*
X-12174220Y3378960D01*
X-12067879Y3122232D01*
X-11871388Y2925741D01*
X-11614660Y2819400D01*
X-11336780Y2819400D01*
X-11080052Y2925741D01*
X-11077190Y2928603D01*
X-10959528Y2810941D01*
X-10702800Y2704600D01*
X-10424920Y2704600D01*
X-10168192Y2810941D01*
X-9971701Y3007432D01*
X-9865360Y3264160D01*
X-9865360Y3542040D01*
X-9971701Y3798768D01*
X-10168192Y3995259D01*
X-10424920Y4101600D01*
X-10702800Y4101600D01*
X-10959528Y3995259D01*
X-10962390Y3992397D01*
X-11080052Y4110059D01*
X-11336780Y4216400D01*
X-11614660Y4216400D01*
X-11871388Y4110059D01*
X-12067879Y3913568D01*
X-12174220Y3656840D01*
X-12788901Y3656840D01*
X-12788901Y4876100D01*
X-8613924Y4876100D01*
X-8679180Y4718560D01*
X-8679180Y4440680D01*
X-8572839Y4183952D01*
X-8376348Y3987461D01*
X-8119620Y3881120D01*
X-7841740Y3881120D01*
X-7585012Y3987461D01*
X-7388521Y4183952D01*
X-7282180Y4440680D01*
X-7282180Y4718560D01*
X-7347436Y4876100D01*
X-3385623Y4876100D01*
X-3245531Y4736008D01*
X-3213648Y4688292D01*
X-3024608Y4561979D01*
X-2857906Y4528820D01*
X-2857902Y4528820D01*
X-2801621Y4517625D01*
X-2745340Y4528820D01*
X2551780Y4528820D01*
X2551780Y4364160D01*
X2658121Y4107432D01*
X2854612Y3910941D01*
X3111340Y3804600D01*
X3373280Y3804600D01*
X3373280Y201600D01*
X3361340Y201600D01*
X3104612Y95259D01*
X2908121Y-101232D01*
X2801780Y-357960D01*
X2801780Y-512901D01*
X-360680Y-3675362D01*
X-360680Y-857960D01*
X350520Y-857960D01*
X350520Y-1135840D01*
X456861Y-1392568D01*
X653352Y-1589059D01*
X910080Y-1695400D01*
X1187960Y-1695400D01*
X1444688Y-1589059D01*
X1641179Y-1392568D01*
X1747520Y-1135840D01*
X1747520Y-857960D01*
X1641179Y-601232D01*
X1444688Y-404741D01*
X1187960Y-298400D01*
X910080Y-298400D01*
X653352Y-404741D01*
X456861Y-601232D01*
X350520Y-857960D01*
X-360680Y-857960D01*
X-360680Y1955040D01*
X-236220Y1955040D01*
X-236220Y1677160D01*
X-129879Y1420432D01*
X66612Y1223941D01*
X323340Y1117600D01*
X601220Y1117600D01*
X857948Y1223941D01*
X980440Y1346433D01*
X980440Y1301240D01*
X1086781Y1044512D01*
X1283272Y848021D01*
X1540000Y741680D01*
X1653097Y741680D01*
X1551780Y497080D01*
X1551780Y219200D01*
X1658121Y-37528D01*
X1854612Y-234019D01*
X2111340Y-340360D01*
X2389220Y-340360D01*
X2645948Y-234019D01*
X2842439Y-37528D01*
X2948780Y219200D01*
X2948780Y497080D01*
X2842439Y753808D01*
X2645948Y950299D01*
X2389220Y1056640D01*
X2276123Y1056640D01*
X2377440Y1301240D01*
X2377440Y1579120D01*
X2271099Y1835848D01*
X2074608Y2032339D01*
X1817880Y2138680D01*
X1540000Y2138680D01*
X1283272Y2032339D01*
X1160780Y1909847D01*
X1160780Y1955040D01*
X1054439Y2211768D01*
X857948Y2408259D01*
X601220Y2514600D01*
X323340Y2514600D01*
X66612Y2408259D01*
X-129879Y2211768D01*
X-236220Y1955040D01*
X-360680Y1955040D01*
X-360680Y2946633D01*
X-251121Y3056192D01*
X-144780Y3312920D01*
X-144780Y3590800D01*
X-251121Y3847528D01*
X-447612Y4044019D01*
X-704340Y4150360D01*
X-982220Y4150360D01*
X-1238948Y4044019D01*
X-1435439Y3847528D01*
X-1541780Y3590800D01*
X-1541780Y3312920D01*
X-1435439Y3056192D01*
X-1325879Y2946632D01*
X-1325880Y-3751851D01*
X-1430780Y-3708400D01*
X-1708660Y-3708400D01*
X-1965388Y-3814741D01*
X-2161879Y-4011232D01*
X-2204720Y-4114659D01*
X-2247561Y-4011232D01*
X-2444052Y-3814741D01*
X-2700780Y-3708400D01*
X-2978660Y-3708400D01*
X-3235388Y-3814741D01*
X-3431879Y-4011232D01*
X-3538220Y-4267960D01*
X-3538220Y-4545840D01*
X-3431879Y-4802568D01*
X-3235388Y-4999059D01*
X-2978660Y-5105400D01*
X-2700780Y-5105400D01*
X-2444052Y-4999059D01*
X-2247561Y-4802568D01*
X-2204720Y-4699141D01*
X-2161879Y-4802568D01*
X-1965388Y-4999059D01*
X-1708660Y-5105400D01*
X-1430780Y-5105400D01*
X-1325880Y-5061949D01*
X-1325880Y-7681721D01*
X-1797558Y-8153400D01*
X-1952500Y-8153400D01*
X-2209228Y-8259741D01*
X-2405719Y-8456232D01*
X-2512060Y-8712960D01*
X-2512060Y-8990840D01*
X-2505867Y-9005790D01*
X-3144629Y-9005790D01*
X-4859457Y-7290963D01*
X-4886384Y-7250664D01*
X-5046018Y-7144000D01*
X-5186790Y-7115999D01*
X-5186791Y-7115999D01*
X-5234319Y-7106545D01*
X-5281847Y-7115999D01*
X-11906672Y-7115999D01*
X-11792881Y-7002208D01*
X-11686540Y-6745480D01*
X-11686540Y-6467600D01*
X-11792881Y-6210872D01*
X-11980157Y-6023596D01*
X-11868660Y-6069780D01*
X-11590780Y-6069780D01*
X-11334052Y-5963439D01*
X-11137561Y-5766948D01*
X-11031220Y-5510220D01*
X-11031220Y-5232340D01*
X-6383840Y-5232340D01*
X-6383840Y-5510220D01*
X-6277499Y-5766948D01*
X-6081008Y-5963439D01*
X-5824280Y-6069780D01*
X-5546400Y-6069780D01*
X-5289672Y-5963439D01*
X-5093181Y-5766948D01*
X-4986840Y-5510220D01*
X-4986840Y-5232340D01*
X-5093181Y-4975612D01*
X-5289672Y-4779121D01*
X-5546400Y-4672780D01*
X-5824280Y-4672780D01*
X-6081008Y-4779121D01*
X-6277499Y-4975612D01*
X-6383840Y-5232340D01*
X-11031220Y-5232340D01*
X-11137561Y-4975612D01*
X-11334052Y-4779121D01*
X-11590780Y-4672780D01*
X-11868660Y-4672780D01*
X-12125388Y-4779121D01*
X-12321879Y-4975612D01*
X-12428220Y-5232340D01*
X-12428220Y-5510220D01*
X-12321879Y-5766948D01*
X-12134603Y-5954224D01*
X-12246100Y-5908040D01*
X-12523980Y-5908040D01*
X-12780708Y-6014381D01*
X-12977199Y-6210872D01*
X-13083540Y-6467600D01*
X-13083540Y-6745480D01*
X-12977199Y-7002208D01*
X-12863408Y-7115999D01*
X-14001312Y-7115999D01*
X-14169699Y-6947612D01*
X-14064552Y-6904059D01*
X-13868061Y-6707568D01*
X-13761720Y-6450840D01*
X-13761720Y-6295899D01*
X-12946078Y-5480258D01*
X-12905785Y-5453335D01*
X-12799121Y-5293701D01*
X-12771120Y-5152929D01*
X-12761666Y-5105400D01*
X-12771120Y-5057871D01*
X-12771120Y-4439158D01*
X-12472922Y-4140960D01*
X-9253220Y-4140960D01*
X-9253220Y-4418840D01*
X-9146879Y-4675568D01*
X-8950388Y-4872059D01*
X-8693660Y-4978400D01*
X-8415780Y-4978400D01*
X-8159052Y-4872059D01*
X-7962561Y-4675568D01*
X-7856220Y-4418840D01*
X-7856220Y-4140960D01*
X-7962561Y-3884232D01*
X-8159052Y-3687741D01*
X-8415780Y-3581400D01*
X-8693660Y-3581400D01*
X-8950388Y-3687741D01*
X-9146879Y-3884232D01*
X-9253220Y-4140960D01*
X-12472922Y-4140960D01*
X-10929873Y-2597911D01*
X-3138171Y-2597911D01*
X-3138171Y-2875791D01*
X-3031830Y-3132519D01*
X-2835339Y-3329010D01*
X-2578611Y-3435351D01*
X-2300731Y-3435351D01*
X-2044003Y-3329010D01*
X-1847512Y-3132519D01*
X-1741171Y-2875791D01*
X-1741171Y-2597911D01*
X-1847512Y-2341183D01*
X-2044003Y-2144692D01*
X-2300731Y-2038351D01*
X-2578611Y-2038351D01*
X-2835339Y-2144692D01*
X-3031830Y-2341183D01*
X-3138171Y-2597911D01*
X-10929873Y-2597911D01*
X-5814821Y2517140D01*
X-4239027Y2517140D01*
X-4129468Y2407581D01*
X-3872740Y2301240D01*
X-3594860Y2301240D01*
X-3338132Y2407581D01*
X-3141641Y2604072D01*
X-3035300Y2860800D01*
X-3035300Y3138680D01*
X-3141641Y3395408D01*
X-3338132Y3591899D01*
X-3594860Y3698240D01*
X-3872740Y3698240D01*
X-4129468Y3591899D01*
X-4239027Y3482340D01*
X-5967192Y3482340D01*
X-6008605Y3490578D01*
X-6057561Y3608768D01*
X-6254052Y3805259D01*
X-6510780Y3911600D01*
X-6788660Y3911600D01*
X-7045388Y3805259D01*
X-7241879Y3608768D01*
X-7348220Y3352040D01*
X-7348220Y3074160D01*
X-7241879Y2817432D01*
X-7060703Y2636256D01*
X-13561356Y-3864398D01*
X-13601655Y-3891325D01*
X-13708319Y-4050960D01*
X-13721017Y-4114800D01*
X-13745774Y-4239260D01*
X-13736320Y-4286788D01*
X-13736319Y-4905500D01*
X-14444219Y-5613400D01*
X-14599160Y-5613400D01*
X-14855888Y-5719741D01*
X-15052379Y-5916232D01*
X-15095933Y-6021379D01*
X-16150403Y-4966909D01*
X-16054898Y-4736340D01*
X-16054898Y-4458460D01*
X-16161239Y-4201732D01*
X-16357730Y-4005241D01*
X-16614458Y-3898900D01*
X-16892338Y-3898900D01*
X-17149066Y-4005241D01*
X-17345557Y-4201732D01*
X-17451898Y-4458460D01*
X-17451898Y-4736340D01*
X-17345557Y-4993068D01*
X-17233841Y-5104784D01*
X-17207997Y-5234712D01*
X-17101333Y-5394347D01*
X-17061034Y-5421274D01*
X-14576071Y-7906238D01*
X-14549146Y-7946534D01*
X-14389512Y-8053198D01*
X-14248740Y-8081199D01*
X-14201212Y-8090653D01*
X-14153684Y-8081199D01*
X-11591100Y-8081199D01*
X-11591100Y-8228114D01*
X-11495036Y-8460033D01*
X-11317533Y-8637536D01*
X-11085614Y-8733600D01*
X-10834586Y-8733600D01*
X-10602667Y-8637536D01*
X-10425164Y-8460033D01*
X-10329100Y-8228114D01*
X-10329100Y-8081199D01*
X-10262680Y-8081199D01*
X-10262680Y-8240814D01*
X-10166616Y-8472733D01*
X-9989113Y-8650236D01*
X-9757194Y-8746300D01*
X-9506166Y-8746300D01*
X-9274247Y-8650236D01*
X-9096744Y-8472733D01*
X-9000680Y-8240814D01*
X-9000680Y-8081199D01*
X-8957120Y-8081199D01*
X-8957120Y-8240814D01*
X-8861056Y-8472733D01*
X-8683553Y-8650236D01*
X-8451634Y-8746300D01*
X-8200606Y-8746300D01*
X-7968687Y-8650236D01*
X-7791184Y-8472733D01*
X-7695120Y-8240814D01*
X-7695120Y-8081199D01*
X-7519480Y-8081199D01*
X-7519480Y-8235734D01*
X-7423416Y-8467653D01*
X-7245913Y-8645156D01*
X-7013994Y-8741220D01*
X-6762966Y-8741220D01*
X-6531047Y-8645156D01*
X-6353544Y-8467653D01*
X-6257480Y-8235734D01*
X-6257480Y-8081199D01*
X-6104700Y-8081199D01*
X-6104700Y-8230654D01*
X-6008636Y-8462573D01*
X-5831133Y-8640076D01*
X-5599214Y-8736140D01*
X-5348186Y-8736140D01*
X-5116267Y-8640076D01*
X-4995804Y-8519613D01*
X-3719388Y-9796029D01*
X-3692463Y-9836325D01*
X-3532829Y-9942989D01*
X-3392057Y-9970990D01*
X-3344529Y-9980444D01*
X-3297001Y-9970990D01*
X-1617248Y-9970990D01*
X-1569720Y-9980444D01*
X-1522192Y-9970990D01*
X-1522191Y-9970990D01*
X-1381419Y-9942989D01*
X-1221785Y-9836325D01*
X-1194858Y-9796026D01*
X85889Y-8515280D01*
X126185Y-8488355D01*
X232849Y-8328721D01*
X260850Y-8187949D01*
X270304Y-8140421D01*
X260850Y-8092893D01*
X260850Y-4418828D01*
X3373280Y-1306399D01*
X3373280Y-7800543D01*
X3356599Y-7760272D01*
X3160108Y-7563781D01*
X2903380Y-7457440D01*
X2625500Y-7457440D01*
X2368772Y-7563781D01*
X2172281Y-7760272D01*
X2065940Y-8017000D01*
X2065940Y-8294880D01*
X2172281Y-8551608D01*
X2368772Y-8748099D01*
X2625500Y-8854440D01*
X2903380Y-8854440D01*
X3160108Y-8748099D01*
X3356599Y-8551608D01*
X3373280Y-8511337D01*
X3373280Y-19419570D01*
X-19630390Y-19419570D01*
X-19630390Y-18415760D01*
X-16198220Y-18415760D01*
X-16198220Y-18693640D01*
X-16091879Y-18950368D01*
X-15895388Y-19146859D01*
X-15638660Y-19253200D01*
X-15360780Y-19253200D01*
X-15104052Y-19146859D01*
X-14907561Y-18950368D01*
X-14801220Y-18693640D01*
X-14801220Y-18415760D01*
X-14907561Y-18159032D01*
X-15104052Y-17962541D01*
X-15360780Y-17856200D01*
X-15638660Y-17856200D01*
X-15895388Y-17962541D01*
X-16091879Y-18159032D01*
X-16198220Y-18415760D01*
X-19630390Y-18415760D01*
X-19630390Y-17357960D01*
X-5698220Y-17357960D01*
X-5698220Y-17635840D01*
X-5591879Y-17892568D01*
X-5395388Y-18089059D01*
X-5138660Y-18195400D01*
X-4860780Y-18195400D01*
X-4604052Y-18089059D01*
X-4407561Y-17892568D01*
X-4301220Y-17635840D01*
X-4301220Y-17357960D01*
X-4383856Y-17158460D01*
X398780Y-17158460D01*
X398780Y-17436340D01*
X505121Y-17693068D01*
X701612Y-17889559D01*
X958340Y-17995900D01*
X1236220Y-17995900D01*
X1492948Y-17889559D01*
X1689439Y-17693068D01*
X1795780Y-17436340D01*
X1795780Y-17158460D01*
X1689439Y-16901732D01*
X1492948Y-16705241D01*
X1236220Y-16598900D01*
X958340Y-16598900D01*
X701612Y-16705241D01*
X505121Y-16901732D01*
X398780Y-17158460D01*
X-4383856Y-17158460D01*
X-4407561Y-17101232D01*
X-4604052Y-16904741D01*
X-4860780Y-16798400D01*
X-5138660Y-16798400D01*
X-5395388Y-16904741D01*
X-5591879Y-17101232D01*
X-5698220Y-17357960D01*
X-19630390Y-17357960D01*
X-19630390Y-15281400D01*
X-14775180Y-15281400D01*
X-14775180Y-15559280D01*
X-14668839Y-15816008D01*
X-14472348Y-16012499D01*
X-14215620Y-16118840D01*
X-13937740Y-16118840D01*
X-13681012Y-16012499D01*
X-13484521Y-15816008D01*
X-13435624Y-15697960D01*
X-1633220Y-15697960D01*
X-1633220Y-15975840D01*
X-1526879Y-16232568D01*
X-1330388Y-16429059D01*
X-1073660Y-16535400D01*
X-795780Y-16535400D01*
X-539052Y-16429059D01*
X-342561Y-16232568D01*
X-236220Y-15975840D01*
X-236220Y-15697960D01*
X-342561Y-15441232D01*
X-539052Y-15244741D01*
X-795780Y-15138400D01*
X-1073660Y-15138400D01*
X-1330388Y-15244741D01*
X-1526879Y-15441232D01*
X-1633220Y-15697960D01*
X-13435624Y-15697960D01*
X-13378180Y-15559280D01*
X-13378180Y-15281400D01*
X-13484521Y-15024672D01*
X-13681012Y-14828181D01*
X-13937740Y-14721840D01*
X-14215620Y-14721840D01*
X-14472348Y-14828181D01*
X-14668839Y-15024672D01*
X-14775180Y-15281400D01*
X-19630390Y-15281400D01*
X-19630390Y-13458406D01*
X-11598720Y-13458406D01*
X-11598720Y-13709434D01*
X-11502656Y-13941353D01*
X-11325153Y-14118856D01*
X-11093234Y-14214920D01*
X-10842206Y-14214920D01*
X-10610287Y-14118856D01*
X-10432784Y-13941353D01*
X-10336720Y-13709434D01*
X-10336720Y-13471106D01*
X-10252520Y-13471106D01*
X-10252520Y-13722134D01*
X-10156456Y-13954053D01*
X-9978953Y-14131556D01*
X-9747034Y-14227620D01*
X-9496006Y-14227620D01*
X-9264087Y-14131556D01*
X-9086584Y-13954053D01*
X-8990520Y-13722134D01*
X-8990520Y-13481266D01*
X-8913940Y-13481266D01*
X-8913940Y-13732294D01*
X-8817876Y-13964213D01*
X-8640373Y-14141716D01*
X-8408454Y-14237780D01*
X-8157426Y-14237780D01*
X-7925507Y-14141716D01*
X-7748004Y-13964213D01*
X-7651940Y-13732294D01*
X-7651940Y-13481266D01*
X-7656148Y-13471106D01*
X-7499160Y-13471106D01*
X-7499160Y-13722134D01*
X-7403096Y-13954053D01*
X-7225593Y-14131556D01*
X-6993674Y-14227620D01*
X-6742646Y-14227620D01*
X-6510727Y-14131556D01*
X-6333224Y-13954053D01*
X-6237160Y-13722134D01*
X-6237160Y-13471106D01*
X-6240316Y-13463486D01*
X-6092000Y-13463486D01*
X-6092000Y-13714514D01*
X-5995936Y-13946433D01*
X-5818433Y-14123936D01*
X-5586514Y-14220000D01*
X-5335486Y-14220000D01*
X-5103567Y-14123936D01*
X-4926064Y-13946433D01*
X-4830000Y-13714514D01*
X-4830000Y-13463486D01*
X-4926064Y-13231567D01*
X-5103567Y-13054064D01*
X-5335486Y-12958000D01*
X-5586514Y-12958000D01*
X-5818433Y-13054064D01*
X-5995936Y-13231567D01*
X-6092000Y-13463486D01*
X-6240316Y-13463486D01*
X-6333224Y-13239187D01*
X-6510727Y-13061684D01*
X-6742646Y-12965620D01*
X-6993674Y-12965620D01*
X-7225593Y-13061684D01*
X-7403096Y-13239187D01*
X-7499160Y-13471106D01*
X-7656148Y-13471106D01*
X-7748004Y-13249347D01*
X-7925507Y-13071844D01*
X-8157426Y-12975780D01*
X-8408454Y-12975780D01*
X-8640373Y-13071844D01*
X-8817876Y-13249347D01*
X-8913940Y-13481266D01*
X-8990520Y-13481266D01*
X-8990520Y-13471106D01*
X-9086584Y-13239187D01*
X-9264087Y-13061684D01*
X-9496006Y-12965620D01*
X-9747034Y-12965620D01*
X-9978953Y-13061684D01*
X-10156456Y-13239187D01*
X-10252520Y-13471106D01*
X-10336720Y-13471106D01*
X-10336720Y-13458406D01*
X-10432784Y-13226487D01*
X-10610287Y-13048984D01*
X-10842206Y-12952920D01*
X-11093234Y-12952920D01*
X-11325153Y-13048984D01*
X-11502656Y-13226487D01*
X-11598720Y-13458406D01*
X-19630390Y-13458406D01*
X-19630390Y-12155386D01*
X-11619040Y-12155386D01*
X-11619040Y-12406414D01*
X-11522976Y-12638333D01*
X-11345473Y-12815836D01*
X-11113554Y-12911900D01*
X-10862526Y-12911900D01*
X-10630607Y-12815836D01*
X-10453104Y-12638333D01*
X-10357040Y-12406414D01*
X-10357040Y-12165546D01*
X-10285540Y-12165546D01*
X-10285540Y-12416574D01*
X-10189476Y-12648493D01*
X-10011973Y-12825996D01*
X-9780054Y-12922060D01*
X-9529026Y-12922060D01*
X-9297107Y-12825996D01*
X-9119604Y-12648493D01*
X-9023540Y-12416574D01*
X-9023540Y-12175706D01*
X-8891080Y-12175706D01*
X-8891080Y-12426734D01*
X-8795016Y-12658653D01*
X-8617513Y-12836156D01*
X-8385594Y-12932220D01*
X-8134566Y-12932220D01*
X-7902647Y-12836156D01*
X-7725144Y-12658653D01*
X-7629080Y-12426734D01*
X-7629080Y-12190946D01*
X-7499160Y-12190946D01*
X-7499160Y-12441974D01*
X-7403096Y-12673893D01*
X-7225593Y-12851396D01*
X-6993674Y-12947460D01*
X-6742646Y-12947460D01*
X-6510727Y-12851396D01*
X-6333224Y-12673893D01*
X-6237160Y-12441974D01*
X-6237160Y-12190946D01*
X-6261358Y-12132526D01*
X-6109780Y-12132526D01*
X-6109780Y-12383554D01*
X-6013716Y-12615473D01*
X-5836213Y-12792976D01*
X-5604294Y-12889040D01*
X-5353266Y-12889040D01*
X-5121347Y-12792976D01*
X-5009892Y-12681521D01*
X-2871281Y-12681521D01*
X-2871281Y-12959401D01*
X-2764940Y-13216129D01*
X-2568449Y-13412620D01*
X-2311721Y-13518961D01*
X-2033841Y-13518961D01*
X-1777113Y-13412620D01*
X-1580622Y-13216129D01*
X-1474281Y-12959401D01*
X-1474281Y-12681521D01*
X-1580622Y-12424793D01*
X-1777113Y-12228302D01*
X-2033841Y-12121961D01*
X-2311721Y-12121961D01*
X-2568449Y-12228302D01*
X-2764940Y-12424793D01*
X-2871281Y-12681521D01*
X-5009892Y-12681521D01*
X-4943844Y-12615473D01*
X-4847780Y-12383554D01*
X-4847780Y-12132526D01*
X-4943844Y-11900607D01*
X-5121347Y-11723104D01*
X-5353266Y-11627040D01*
X-5604294Y-11627040D01*
X-5836213Y-11723104D01*
X-6013716Y-11900607D01*
X-6109780Y-12132526D01*
X-6261358Y-12132526D01*
X-6333224Y-11959027D01*
X-6510727Y-11781524D01*
X-6742646Y-11685460D01*
X-6993674Y-11685460D01*
X-7225593Y-11781524D01*
X-7403096Y-11959027D01*
X-7499160Y-12190946D01*
X-7629080Y-12190946D01*
X-7629080Y-12175706D01*
X-7725144Y-11943787D01*
X-7902647Y-11766284D01*
X-8134566Y-11670220D01*
X-8385594Y-11670220D01*
X-8617513Y-11766284D01*
X-8795016Y-11943787D01*
X-8891080Y-12175706D01*
X-9023540Y-12175706D01*
X-9023540Y-12165546D01*
X-9119604Y-11933627D01*
X-9297107Y-11756124D01*
X-9529026Y-11660060D01*
X-9780054Y-11660060D01*
X-10011973Y-11756124D01*
X-10189476Y-11933627D01*
X-10285540Y-12165546D01*
X-10357040Y-12165546D01*
X-10357040Y-12155386D01*
X-10453104Y-11923467D01*
X-10630607Y-11745964D01*
X-10862526Y-11649900D01*
X-11113554Y-11649900D01*
X-11345473Y-11745964D01*
X-11522976Y-11923467D01*
X-11619040Y-12155386D01*
X-19630390Y-12155386D01*
X-19630390Y-10750766D01*
X-11568240Y-10750766D01*
X-11568240Y-11001794D01*
X-11472176Y-11233713D01*
X-11294673Y-11411216D01*
X-11062754Y-11507280D01*
X-10811726Y-11507280D01*
X-10579807Y-11411216D01*
X-10402304Y-11233713D01*
X-10306240Y-11001794D01*
X-10306240Y-10783786D01*
X-10285540Y-10783786D01*
X-10285540Y-11034814D01*
X-10189476Y-11266733D01*
X-10011973Y-11444236D01*
X-9780054Y-11540300D01*
X-9529026Y-11540300D01*
X-9297107Y-11444236D01*
X-9119604Y-11266733D01*
X-9023540Y-11034814D01*
X-9023540Y-10806646D01*
X-8880920Y-10806646D01*
X-8880920Y-11057674D01*
X-8784856Y-11289593D01*
X-8607353Y-11467096D01*
X-8375434Y-11563160D01*
X-8124406Y-11563160D01*
X-7892487Y-11467096D01*
X-7714984Y-11289593D01*
X-7618920Y-11057674D01*
X-7618920Y-10806646D01*
X-7622076Y-10799026D01*
X-7509320Y-10799026D01*
X-7509320Y-11050054D01*
X-7413256Y-11281973D01*
X-7235753Y-11459476D01*
X-7003834Y-11555540D01*
X-6752806Y-11555540D01*
X-6520887Y-11459476D01*
X-6343384Y-11281973D01*
X-6247320Y-11050054D01*
X-6247320Y-10801566D01*
X-6109780Y-10801566D01*
X-6109780Y-11052594D01*
X-6013716Y-11284513D01*
X-5836213Y-11462016D01*
X-5604294Y-11558080D01*
X-5353266Y-11558080D01*
X-5121347Y-11462016D01*
X-4943844Y-11284513D01*
X-4847780Y-11052594D01*
X-4847780Y-10801566D01*
X-4943844Y-10569647D01*
X-5121347Y-10392144D01*
X-5353266Y-10296080D01*
X-5604294Y-10296080D01*
X-5836213Y-10392144D01*
X-6013716Y-10569647D01*
X-6109780Y-10801566D01*
X-6247320Y-10801566D01*
X-6247320Y-10799026D01*
X-6343384Y-10567107D01*
X-6520887Y-10389604D01*
X-6752806Y-10293540D01*
X-7003834Y-10293540D01*
X-7235753Y-10389604D01*
X-7413256Y-10567107D01*
X-7509320Y-10799026D01*
X-7622076Y-10799026D01*
X-7714984Y-10574727D01*
X-7892487Y-10397224D01*
X-8124406Y-10301160D01*
X-8375434Y-10301160D01*
X-8607353Y-10397224D01*
X-8784856Y-10574727D01*
X-8880920Y-10806646D01*
X-9023540Y-10806646D01*
X-9023540Y-10783786D01*
X-9119604Y-10551867D01*
X-9297107Y-10374364D01*
X-9529026Y-10278300D01*
X-9780054Y-10278300D01*
X-10011973Y-10374364D01*
X-10189476Y-10551867D01*
X-10285540Y-10783786D01*
X-10306240Y-10783786D01*
X-10306240Y-10750766D01*
X-10402304Y-10518847D01*
X-10579807Y-10341344D01*
X-10811726Y-10245280D01*
X-11062754Y-10245280D01*
X-11294673Y-10341344D01*
X-11472176Y-10518847D01*
X-11568240Y-10750766D01*
X-19630390Y-10750766D01*
X-19630390Y-9394406D01*
X-11586020Y-9394406D01*
X-11586020Y-9645434D01*
X-11489956Y-9877353D01*
X-11312453Y-10054856D01*
X-11080534Y-10150920D01*
X-10829506Y-10150920D01*
X-10597587Y-10054856D01*
X-10420084Y-9877353D01*
X-10324020Y-9645434D01*
X-10324020Y-9394406D01*
X-10337697Y-9361386D01*
X-10305860Y-9361386D01*
X-10305860Y-9612414D01*
X-10209796Y-9844333D01*
X-10032293Y-10021836D01*
X-9800374Y-10117900D01*
X-9549346Y-10117900D01*
X-9317427Y-10021836D01*
X-9139924Y-9844333D01*
X-9043860Y-9612414D01*
X-9043860Y-9450286D01*
X-8913940Y-9450286D01*
X-8913940Y-9701314D01*
X-8817876Y-9933233D01*
X-8640373Y-10110736D01*
X-8408454Y-10206800D01*
X-8157426Y-10206800D01*
X-7925507Y-10110736D01*
X-7748004Y-9933233D01*
X-7651940Y-9701314D01*
X-7651940Y-9460446D01*
X-7499160Y-9460446D01*
X-7499160Y-9711474D01*
X-7403096Y-9943393D01*
X-7225593Y-10120896D01*
X-6993674Y-10216960D01*
X-6742646Y-10216960D01*
X-6510727Y-10120896D01*
X-6333224Y-9943393D01*
X-6237160Y-9711474D01*
X-6237160Y-9462986D01*
X-6109780Y-9462986D01*
X-6109780Y-9714014D01*
X-6013716Y-9945933D01*
X-5836213Y-10123436D01*
X-5604294Y-10219500D01*
X-5353266Y-10219500D01*
X-5121347Y-10123436D01*
X-4943844Y-9945933D01*
X-4847780Y-9714014D01*
X-4847780Y-9462986D01*
X-4943844Y-9231067D01*
X-5121347Y-9053564D01*
X-5353266Y-8957500D01*
X-5604294Y-8957500D01*
X-5836213Y-9053564D01*
X-6013716Y-9231067D01*
X-6109780Y-9462986D01*
X-6237160Y-9462986D01*
X-6237160Y-9460446D01*
X-6333224Y-9228527D01*
X-6510727Y-9051024D01*
X-6742646Y-8954960D01*
X-6993674Y-8954960D01*
X-7225593Y-9051024D01*
X-7403096Y-9228527D01*
X-7499160Y-9460446D01*
X-7651940Y-9460446D01*
X-7651940Y-9450286D01*
X-7748004Y-9218367D01*
X-7925507Y-9040864D01*
X-8157426Y-8944800D01*
X-8408454Y-8944800D01*
X-8640373Y-9040864D01*
X-8817876Y-9218367D01*
X-8913940Y-9450286D01*
X-9043860Y-9450286D01*
X-9043860Y-9361386D01*
X-9139924Y-9129467D01*
X-9317427Y-8951964D01*
X-9549346Y-8855900D01*
X-9800374Y-8855900D01*
X-10032293Y-8951964D01*
X-10209796Y-9129467D01*
X-10305860Y-9361386D01*
X-10337697Y-9361386D01*
X-10420084Y-9162487D01*
X-10597587Y-8984984D01*
X-10829506Y-8888920D01*
X-11080534Y-8888920D01*
X-11312453Y-8984984D01*
X-11489956Y-9162487D01*
X-11586020Y-9394406D01*
X-19630390Y-9394406D01*
X-19630390Y-584960D01*
X-17686020Y-584960D01*
X-17686020Y-862840D01*
X-17579679Y-1119568D01*
X-17383188Y-1316059D01*
X-17126460Y-1422400D01*
X-16848580Y-1422400D01*
X-16591852Y-1316059D01*
X-16395361Y-1119568D01*
X-16289020Y-862840D01*
X-16289020Y-584960D01*
X-16395361Y-328232D01*
X-16591852Y-131741D01*
X-16848580Y-25400D01*
X-17126460Y-25400D01*
X-17383188Y-131741D01*
X-17579679Y-328232D01*
X-17686020Y-584960D01*
X-19630390Y-584960D01*
X-19630390Y507240D01*
X-15628620Y507240D01*
X-15628620Y229360D01*
X-15522279Y-27368D01*
X-15325788Y-223859D01*
X-15069060Y-330200D01*
X-14791180Y-330200D01*
X-14534452Y-223859D01*
X-14337961Y-27368D01*
X-14231620Y229360D01*
X-14231620Y507240D01*
X-14337961Y763968D01*
X-14534452Y960459D01*
X-14791180Y1066800D01*
X-15069060Y1066800D01*
X-15325788Y960459D01*
X-15522279Y763968D01*
X-15628620Y507240D01*
X-19630390Y507240D01*
X-19630390Y4876100D01*
X-15592312Y4876100D01*
X-15715846Y4824931D01*
G04 #@! TO.N,VCOM*
G36*
X19538950Y-19419570D02*
X5127280Y-19419570D01*
X5127280Y-14757960D01*
X8801780Y-14757960D01*
X8801780Y-15035840D01*
X8908121Y-15292568D01*
X9104612Y-15489059D01*
X9361340Y-15595400D01*
X9639220Y-15595400D01*
X9895948Y-15489059D01*
X10092439Y-15292568D01*
X10198780Y-15035840D01*
X10198780Y-14757960D01*
X10092439Y-14501232D01*
X9895948Y-14304741D01*
X9639220Y-14198400D01*
X9361340Y-14198400D01*
X9104612Y-14304741D01*
X8908121Y-14501232D01*
X8801780Y-14757960D01*
X5127280Y-14757960D01*
X5127280Y-13857960D01*
X7371080Y-13857960D01*
X7371080Y-14135840D01*
X7477421Y-14392568D01*
X7673912Y-14589059D01*
X7930640Y-14695400D01*
X8208520Y-14695400D01*
X8465248Y-14589059D01*
X8661739Y-14392568D01*
X8768080Y-14135840D01*
X8768080Y-13857960D01*
X8661739Y-13601232D01*
X8465248Y-13404741D01*
X8208520Y-13298400D01*
X7930640Y-13298400D01*
X7673912Y-13404741D01*
X7477421Y-13601232D01*
X7371080Y-13857960D01*
X5127280Y-13857960D01*
X5127280Y-13388184D01*
X5363210Y-13388184D01*
X5511869Y-13358614D01*
X5637896Y-13274406D01*
X5659811Y-13241608D01*
X5791473Y-13329582D01*
X6048562Y-13380720D01*
X6620958Y-13380720D01*
X6878047Y-13329582D01*
X7169589Y-13134779D01*
X7352670Y-12860780D01*
X12372340Y-12860780D01*
X12372340Y-13138660D01*
X12478681Y-13395388D01*
X12675172Y-13591879D01*
X12931900Y-13698220D01*
X13209780Y-13698220D01*
X13466508Y-13591879D01*
X13662999Y-13395388D01*
X13769340Y-13138660D01*
X13769340Y-12860780D01*
X13662999Y-12604052D01*
X13466508Y-12407561D01*
X13209780Y-12301220D01*
X12931900Y-12301220D01*
X12675172Y-12407561D01*
X12478681Y-12604052D01*
X12372340Y-12860780D01*
X7352670Y-12860780D01*
X7364392Y-12843237D01*
X7432797Y-12499340D01*
X7364392Y-12155443D01*
X7214517Y-11931140D01*
X7462520Y-11931140D01*
X7462520Y-12209020D01*
X7568861Y-12465748D01*
X7765352Y-12662239D01*
X8022080Y-12768580D01*
X8299960Y-12768580D01*
X8556688Y-12662239D01*
X8753179Y-12465748D01*
X8859520Y-12209020D01*
X8859520Y-11931140D01*
X8753179Y-11674412D01*
X8556688Y-11477921D01*
X8299960Y-11371580D01*
X8022080Y-11371580D01*
X7765352Y-11477921D01*
X7568861Y-11674412D01*
X7462520Y-11931140D01*
X7214517Y-11931140D01*
X7169589Y-11863901D01*
X6878047Y-11669098D01*
X6620958Y-11617960D01*
X6048562Y-11617960D01*
X5791473Y-11669098D01*
X5745480Y-11699830D01*
X5745480Y-10511280D01*
X7302500Y-10511280D01*
X7302500Y-10789160D01*
X7408841Y-11045888D01*
X7605332Y-11242379D01*
X7862060Y-11348720D01*
X8139940Y-11348720D01*
X8396668Y-11242379D01*
X8477527Y-11161520D01*
X10802620Y-11161520D01*
X10802620Y-11439400D01*
X10908961Y-11696128D01*
X11105452Y-11892619D01*
X11362180Y-11998960D01*
X11640060Y-11998960D01*
X11896788Y-11892619D01*
X12093279Y-11696128D01*
X12199620Y-11439400D01*
X12199620Y-11321540D01*
X12232640Y-11321540D01*
X12232640Y-11599420D01*
X12338981Y-11856148D01*
X12535472Y-12052639D01*
X12792200Y-12158980D01*
X13070080Y-12158980D01*
X13326808Y-12052639D01*
X13523299Y-11856148D01*
X13629640Y-11599420D01*
X13629640Y-11321540D01*
X13523299Y-11064812D01*
X13326808Y-10868321D01*
X13070080Y-10761980D01*
X12792200Y-10761980D01*
X12535472Y-10868321D01*
X12338981Y-11064812D01*
X12232640Y-11321540D01*
X12199620Y-11321540D01*
X12199620Y-11161520D01*
X12093279Y-10904792D01*
X11896788Y-10708301D01*
X11640060Y-10601960D01*
X11362180Y-10601960D01*
X11105452Y-10708301D01*
X10908961Y-10904792D01*
X10802620Y-11161520D01*
X8477527Y-11161520D01*
X8593159Y-11045888D01*
X8699500Y-10789160D01*
X8699500Y-10511280D01*
X8593159Y-10254552D01*
X8396668Y-10058061D01*
X8139940Y-9951720D01*
X7862060Y-9951720D01*
X7605332Y-10058061D01*
X7408841Y-10254552D01*
X7302500Y-10511280D01*
X5745480Y-10511280D01*
X5745480Y-10299110D01*
X5791473Y-10329842D01*
X6048562Y-10380980D01*
X6620958Y-10380980D01*
X6878047Y-10329842D01*
X7169589Y-10135039D01*
X7364392Y-9843497D01*
X7432797Y-9499600D01*
X7364392Y-9155703D01*
X7169589Y-8864161D01*
X6878047Y-8669358D01*
X6620958Y-8618220D01*
X6048562Y-8618220D01*
X5791473Y-8669358D01*
X5745480Y-8700090D01*
X5745480Y-8560560D01*
X13502640Y-8560560D01*
X13502640Y-8838440D01*
X13608981Y-9095168D01*
X13805472Y-9291659D01*
X14062200Y-9398000D01*
X14340080Y-9398000D01*
X14596808Y-9291659D01*
X14793299Y-9095168D01*
X14899640Y-8838440D01*
X14899640Y-8560560D01*
X14793299Y-8303832D01*
X14596808Y-8107341D01*
X14340080Y-8001000D01*
X14062200Y-8001000D01*
X13805472Y-8107341D01*
X13608981Y-8303832D01*
X13502640Y-8560560D01*
X5745480Y-8560560D01*
X5745480Y-7607960D01*
X11301780Y-7607960D01*
X11301780Y-7885840D01*
X11408121Y-8142568D01*
X11604612Y-8339059D01*
X11861340Y-8445400D01*
X12139220Y-8445400D01*
X12395948Y-8339059D01*
X12592439Y-8142568D01*
X12698780Y-7885840D01*
X12698780Y-7607960D01*
X12592439Y-7351232D01*
X12395948Y-7154741D01*
X12139220Y-7048400D01*
X11861340Y-7048400D01*
X11604612Y-7154741D01*
X11408121Y-7351232D01*
X11301780Y-7607960D01*
X5745480Y-7607960D01*
X5745480Y-7299370D01*
X5791473Y-7330102D01*
X6048562Y-7381240D01*
X6620958Y-7381240D01*
X6878047Y-7330102D01*
X7169589Y-7135299D01*
X7352670Y-6861300D01*
X13301980Y-6861300D01*
X13301980Y-7139180D01*
X13408321Y-7395908D01*
X13604812Y-7592399D01*
X13861540Y-7698740D01*
X14139420Y-7698740D01*
X14396148Y-7592399D01*
X14592639Y-7395908D01*
X14698980Y-7139180D01*
X14698980Y-6861300D01*
X14592639Y-6604572D01*
X14396148Y-6408081D01*
X14139420Y-6301740D01*
X13861540Y-6301740D01*
X13604812Y-6408081D01*
X13408321Y-6604572D01*
X13301980Y-6861300D01*
X7352670Y-6861300D01*
X7364392Y-6843757D01*
X7432797Y-6499860D01*
X7364392Y-6155963D01*
X7169589Y-5864421D01*
X7159920Y-5857960D01*
X16301780Y-5857960D01*
X16301780Y-6135840D01*
X16408121Y-6392568D01*
X16604612Y-6589059D01*
X16861340Y-6695400D01*
X17139220Y-6695400D01*
X17395948Y-6589059D01*
X17592439Y-6392568D01*
X17698780Y-6135840D01*
X17698780Y-5857960D01*
X17592439Y-5601232D01*
X17395948Y-5404741D01*
X17139220Y-5298400D01*
X16861340Y-5298400D01*
X16604612Y-5404741D01*
X16408121Y-5601232D01*
X16301780Y-5857960D01*
X7159920Y-5857960D01*
X6878047Y-5669618D01*
X6620958Y-5618480D01*
X6048562Y-5618480D01*
X5791473Y-5669618D01*
X5745480Y-5700350D01*
X5745480Y-4299630D01*
X5791473Y-4330362D01*
X6048562Y-4381500D01*
X6620958Y-4381500D01*
X6878047Y-4330362D01*
X7169589Y-4135559D01*
X7286480Y-3960620D01*
X7500620Y-3960620D01*
X7500620Y-4238500D01*
X7606961Y-4495228D01*
X7803452Y-4691719D01*
X8060180Y-4798060D01*
X8338060Y-4798060D01*
X8398056Y-4773209D01*
X8407061Y-4794948D01*
X8603552Y-4991439D01*
X8860280Y-5097780D01*
X9138160Y-5097780D01*
X9394888Y-4991439D01*
X9591379Y-4794948D01*
X9697720Y-4538220D01*
X9697720Y-4399280D01*
X11700353Y-4399280D01*
X11776447Y-4781828D01*
X11993143Y-5106137D01*
X12317452Y-5322833D01*
X12603440Y-5379720D01*
X13197880Y-5379720D01*
X13483868Y-5322833D01*
X13808177Y-5106137D01*
X14024873Y-4781828D01*
X14100967Y-4399280D01*
X14024873Y-4016732D01*
X13808177Y-3692423D01*
X13483868Y-3475727D01*
X13197880Y-3418840D01*
X12603440Y-3418840D01*
X12317452Y-3475727D01*
X11993143Y-3692423D01*
X11776447Y-4016732D01*
X11700353Y-4399280D01*
X9697720Y-4399280D01*
X9697720Y-4260340D01*
X9591379Y-4003612D01*
X9394888Y-3807121D01*
X9138160Y-3700780D01*
X8860280Y-3700780D01*
X8800284Y-3725631D01*
X8791279Y-3703892D01*
X8594788Y-3507401D01*
X8338060Y-3401060D01*
X8060180Y-3401060D01*
X7803452Y-3507401D01*
X7606961Y-3703892D01*
X7500620Y-3960620D01*
X7286480Y-3960620D01*
X7364392Y-3844017D01*
X7432797Y-3500120D01*
X7364392Y-3156223D01*
X7313294Y-3079750D01*
X9337355Y-3079750D01*
X9448800Y-3101918D01*
X9560245Y-3079750D01*
X9560246Y-3079750D01*
X9890316Y-3014095D01*
X10264616Y-2763996D01*
X10282593Y-2737091D01*
X10306981Y-2795968D01*
X10503472Y-2992459D01*
X10760200Y-3098800D01*
X11038080Y-3098800D01*
X11294808Y-2992459D01*
X11491299Y-2795968D01*
X11597640Y-2539240D01*
X11597640Y-2261360D01*
X11491299Y-2004632D01*
X11294808Y-1808141D01*
X11220076Y-1777186D01*
X13129365Y132103D01*
X13129368Y132107D01*
X13479884Y482624D01*
X13666854Y762444D01*
X13695918Y908560D01*
X14102080Y908560D01*
X14102080Y630680D01*
X14208421Y373952D01*
X14404912Y177461D01*
X14661640Y71120D01*
X14939520Y71120D01*
X15196248Y177461D01*
X15392739Y373952D01*
X15499080Y630680D01*
X15499080Y908560D01*
X15392739Y1165288D01*
X15196248Y1361779D01*
X14939520Y1468120D01*
X14661640Y1468120D01*
X14404912Y1361779D01*
X14208421Y1165288D01*
X14102080Y908560D01*
X13695918Y908560D01*
X13754677Y1203959D01*
X13687904Y1539650D01*
X13687904Y2552700D01*
X13658334Y2701359D01*
X13574126Y2827386D01*
X13496542Y2879226D01*
X13623553Y3069312D01*
X13680440Y3355301D01*
X13680440Y3949740D01*
X13623553Y4235728D01*
X13406857Y4560037D01*
X13082547Y4776733D01*
X12700000Y4852827D01*
X12317452Y4776733D01*
X11993143Y4560037D01*
X11776447Y4235727D01*
X11719560Y3949739D01*
X11719560Y3355300D01*
X11776447Y3069312D01*
X11903459Y2879226D01*
X11825874Y2827386D01*
X11741666Y2701359D01*
X11712096Y2552700D01*
X11712096Y2211815D01*
X11688570Y2188289D01*
X11614982Y2139119D01*
X11565812Y2065531D01*
X11565808Y2065527D01*
X11468139Y1919354D01*
X11420179Y1847577D01*
X11369040Y1590488D01*
X11369040Y1590483D01*
X11364536Y1567838D01*
X9521786Y-274912D01*
X9492319Y-203772D01*
X9295828Y-7281D01*
X9039100Y99060D01*
X8761220Y99060D01*
X8504492Y-7281D01*
X8308001Y-203772D01*
X8201660Y-460500D01*
X8201660Y-738380D01*
X8234064Y-816610D01*
X5341934Y-816610D01*
X5127280Y-859307D01*
X5127280Y4818380D01*
X5382493Y4818380D01*
X5403152Y4797721D01*
X5529580Y4745352D01*
X5529580Y4656221D01*
X5518385Y4599940D01*
X5529580Y4543659D01*
X5529580Y4543655D01*
X5562739Y4376953D01*
X5689052Y4187912D01*
X5736771Y4156027D01*
X6949440Y2943357D01*
X6949441Y957348D01*
X6928781Y936688D01*
X6822440Y679960D01*
X6822440Y402080D01*
X6928781Y145352D01*
X7125272Y-51139D01*
X7382000Y-157480D01*
X7659880Y-157480D01*
X7916608Y-51139D01*
X8113099Y145352D01*
X8219440Y402080D01*
X8219440Y679960D01*
X8185919Y760886D01*
X9848850Y760886D01*
X9997509Y790456D01*
X10123536Y874664D01*
X10207744Y1000691D01*
X10237314Y1149350D01*
X10237314Y2848610D01*
X10207744Y2997269D01*
X10123536Y3123296D01*
X9997509Y3207504D01*
X9848850Y3237074D01*
X8149590Y3237074D01*
X8094479Y3226112D01*
X8092440Y3236362D01*
X8092440Y3236366D01*
X8059281Y3403068D01*
X7932968Y3592108D01*
X7885253Y3623990D01*
X7869423Y3639820D01*
X7997700Y3639820D01*
X8254428Y3746161D01*
X8450919Y3942652D01*
X8502972Y4068320D01*
X9382760Y4068320D01*
X9382760Y3790440D01*
X9489101Y3533712D01*
X9685592Y3337221D01*
X9942320Y3230880D01*
X10220200Y3230880D01*
X10476928Y3337221D01*
X10673419Y3533712D01*
X10779760Y3790440D01*
X10779760Y4068320D01*
X10673419Y4325048D01*
X10476928Y4521539D01*
X10220200Y4627880D01*
X9942320Y4627880D01*
X9685592Y4521539D01*
X9489101Y4325048D01*
X9382760Y4068320D01*
X8502972Y4068320D01*
X8557260Y4199380D01*
X8557260Y4477260D01*
X8450919Y4733988D01*
X8254428Y4930479D01*
X7997700Y5036820D01*
X7785999Y5036820D01*
X7884160Y5273800D01*
X7884160Y5551680D01*
X7786314Y5787900D01*
X9311640Y5787900D01*
X9311640Y5510020D01*
X9417981Y5253292D01*
X9614472Y5056801D01*
X9871200Y4950460D01*
X10149080Y4950460D01*
X10405808Y5056801D01*
X10602299Y5253292D01*
X10708640Y5510020D01*
X10708640Y5787900D01*
X10602299Y6044628D01*
X10405808Y6241119D01*
X10149080Y6347460D01*
X9871200Y6347460D01*
X9614472Y6241119D01*
X9417981Y6044628D01*
X9311640Y5787900D01*
X7786314Y5787900D01*
X7777819Y5808408D01*
X7581328Y6004899D01*
X7324600Y6111240D01*
X7046720Y6111240D01*
X6789992Y6004899D01*
X6593501Y5808408D01*
X6487506Y5552514D01*
X6390979Y5785548D01*
X6194488Y5982039D01*
X5937760Y6088380D01*
X5659880Y6088380D01*
X5403152Y5982039D01*
X5382493Y5961380D01*
X5127280Y5961380D01*
X5127280Y6876269D01*
X19538951Y6895459D01*
X19538950Y-19419570D01*
X19538950Y-19419570D01*
G37*
X19538950Y-19419570D02*
X5127280Y-19419570D01*
X5127280Y-14757960D01*
X8801780Y-14757960D01*
X8801780Y-15035840D01*
X8908121Y-15292568D01*
X9104612Y-15489059D01*
X9361340Y-15595400D01*
X9639220Y-15595400D01*
X9895948Y-15489059D01*
X10092439Y-15292568D01*
X10198780Y-15035840D01*
X10198780Y-14757960D01*
X10092439Y-14501232D01*
X9895948Y-14304741D01*
X9639220Y-14198400D01*
X9361340Y-14198400D01*
X9104612Y-14304741D01*
X8908121Y-14501232D01*
X8801780Y-14757960D01*
X5127280Y-14757960D01*
X5127280Y-13857960D01*
X7371080Y-13857960D01*
X7371080Y-14135840D01*
X7477421Y-14392568D01*
X7673912Y-14589059D01*
X7930640Y-14695400D01*
X8208520Y-14695400D01*
X8465248Y-14589059D01*
X8661739Y-14392568D01*
X8768080Y-14135840D01*
X8768080Y-13857960D01*
X8661739Y-13601232D01*
X8465248Y-13404741D01*
X8208520Y-13298400D01*
X7930640Y-13298400D01*
X7673912Y-13404741D01*
X7477421Y-13601232D01*
X7371080Y-13857960D01*
X5127280Y-13857960D01*
X5127280Y-13388184D01*
X5363210Y-13388184D01*
X5511869Y-13358614D01*
X5637896Y-13274406D01*
X5659811Y-13241608D01*
X5791473Y-13329582D01*
X6048562Y-13380720D01*
X6620958Y-13380720D01*
X6878047Y-13329582D01*
X7169589Y-13134779D01*
X7352670Y-12860780D01*
X12372340Y-12860780D01*
X12372340Y-13138660D01*
X12478681Y-13395388D01*
X12675172Y-13591879D01*
X12931900Y-13698220D01*
X13209780Y-13698220D01*
X13466508Y-13591879D01*
X13662999Y-13395388D01*
X13769340Y-13138660D01*
X13769340Y-12860780D01*
X13662999Y-12604052D01*
X13466508Y-12407561D01*
X13209780Y-12301220D01*
X12931900Y-12301220D01*
X12675172Y-12407561D01*
X12478681Y-12604052D01*
X12372340Y-12860780D01*
X7352670Y-12860780D01*
X7364392Y-12843237D01*
X7432797Y-12499340D01*
X7364392Y-12155443D01*
X7214517Y-11931140D01*
X7462520Y-11931140D01*
X7462520Y-12209020D01*
X7568861Y-12465748D01*
X7765352Y-12662239D01*
X8022080Y-12768580D01*
X8299960Y-12768580D01*
X8556688Y-12662239D01*
X8753179Y-12465748D01*
X8859520Y-12209020D01*
X8859520Y-11931140D01*
X8753179Y-11674412D01*
X8556688Y-11477921D01*
X8299960Y-11371580D01*
X8022080Y-11371580D01*
X7765352Y-11477921D01*
X7568861Y-11674412D01*
X7462520Y-11931140D01*
X7214517Y-11931140D01*
X7169589Y-11863901D01*
X6878047Y-11669098D01*
X6620958Y-11617960D01*
X6048562Y-11617960D01*
X5791473Y-11669098D01*
X5745480Y-11699830D01*
X5745480Y-10511280D01*
X7302500Y-10511280D01*
X7302500Y-10789160D01*
X7408841Y-11045888D01*
X7605332Y-11242379D01*
X7862060Y-11348720D01*
X8139940Y-11348720D01*
X8396668Y-11242379D01*
X8477527Y-11161520D01*
X10802620Y-11161520D01*
X10802620Y-11439400D01*
X10908961Y-11696128D01*
X11105452Y-11892619D01*
X11362180Y-11998960D01*
X11640060Y-11998960D01*
X11896788Y-11892619D01*
X12093279Y-11696128D01*
X12199620Y-11439400D01*
X12199620Y-11321540D01*
X12232640Y-11321540D01*
X12232640Y-11599420D01*
X12338981Y-11856148D01*
X12535472Y-12052639D01*
X12792200Y-12158980D01*
X13070080Y-12158980D01*
X13326808Y-12052639D01*
X13523299Y-11856148D01*
X13629640Y-11599420D01*
X13629640Y-11321540D01*
X13523299Y-11064812D01*
X13326808Y-10868321D01*
X13070080Y-10761980D01*
X12792200Y-10761980D01*
X12535472Y-10868321D01*
X12338981Y-11064812D01*
X12232640Y-11321540D01*
X12199620Y-11321540D01*
X12199620Y-11161520D01*
X12093279Y-10904792D01*
X11896788Y-10708301D01*
X11640060Y-10601960D01*
X11362180Y-10601960D01*
X11105452Y-10708301D01*
X10908961Y-10904792D01*
X10802620Y-11161520D01*
X8477527Y-11161520D01*
X8593159Y-11045888D01*
X8699500Y-10789160D01*
X8699500Y-10511280D01*
X8593159Y-10254552D01*
X8396668Y-10058061D01*
X8139940Y-9951720D01*
X7862060Y-9951720D01*
X7605332Y-10058061D01*
X7408841Y-10254552D01*
X7302500Y-10511280D01*
X5745480Y-10511280D01*
X5745480Y-10299110D01*
X5791473Y-10329842D01*
X6048562Y-10380980D01*
X6620958Y-10380980D01*
X6878047Y-10329842D01*
X7169589Y-10135039D01*
X7364392Y-9843497D01*
X7432797Y-9499600D01*
X7364392Y-9155703D01*
X7169589Y-8864161D01*
X6878047Y-8669358D01*
X6620958Y-8618220D01*
X6048562Y-8618220D01*
X5791473Y-8669358D01*
X5745480Y-8700090D01*
X5745480Y-8560560D01*
X13502640Y-8560560D01*
X13502640Y-8838440D01*
X13608981Y-9095168D01*
X13805472Y-9291659D01*
X14062200Y-9398000D01*
X14340080Y-9398000D01*
X14596808Y-9291659D01*
X14793299Y-9095168D01*
X14899640Y-8838440D01*
X14899640Y-8560560D01*
X14793299Y-8303832D01*
X14596808Y-8107341D01*
X14340080Y-8001000D01*
X14062200Y-8001000D01*
X13805472Y-8107341D01*
X13608981Y-8303832D01*
X13502640Y-8560560D01*
X5745480Y-8560560D01*
X5745480Y-7607960D01*
X11301780Y-7607960D01*
X11301780Y-7885840D01*
X11408121Y-8142568D01*
X11604612Y-8339059D01*
X11861340Y-8445400D01*
X12139220Y-8445400D01*
X12395948Y-8339059D01*
X12592439Y-8142568D01*
X12698780Y-7885840D01*
X12698780Y-7607960D01*
X12592439Y-7351232D01*
X12395948Y-7154741D01*
X12139220Y-7048400D01*
X11861340Y-7048400D01*
X11604612Y-7154741D01*
X11408121Y-7351232D01*
X11301780Y-7607960D01*
X5745480Y-7607960D01*
X5745480Y-7299370D01*
X5791473Y-7330102D01*
X6048562Y-7381240D01*
X6620958Y-7381240D01*
X6878047Y-7330102D01*
X7169589Y-7135299D01*
X7352670Y-6861300D01*
X13301980Y-6861300D01*
X13301980Y-7139180D01*
X13408321Y-7395908D01*
X13604812Y-7592399D01*
X13861540Y-7698740D01*
X14139420Y-7698740D01*
X14396148Y-7592399D01*
X14592639Y-7395908D01*
X14698980Y-7139180D01*
X14698980Y-6861300D01*
X14592639Y-6604572D01*
X14396148Y-6408081D01*
X14139420Y-6301740D01*
X13861540Y-6301740D01*
X13604812Y-6408081D01*
X13408321Y-6604572D01*
X13301980Y-6861300D01*
X7352670Y-6861300D01*
X7364392Y-6843757D01*
X7432797Y-6499860D01*
X7364392Y-6155963D01*
X7169589Y-5864421D01*
X7159920Y-5857960D01*
X16301780Y-5857960D01*
X16301780Y-6135840D01*
X16408121Y-6392568D01*
X16604612Y-6589059D01*
X16861340Y-6695400D01*
X17139220Y-6695400D01*
X17395948Y-6589059D01*
X17592439Y-6392568D01*
X17698780Y-6135840D01*
X17698780Y-5857960D01*
X17592439Y-5601232D01*
X17395948Y-5404741D01*
X17139220Y-5298400D01*
X16861340Y-5298400D01*
X16604612Y-5404741D01*
X16408121Y-5601232D01*
X16301780Y-5857960D01*
X7159920Y-5857960D01*
X6878047Y-5669618D01*
X6620958Y-5618480D01*
X6048562Y-5618480D01*
X5791473Y-5669618D01*
X5745480Y-5700350D01*
X5745480Y-4299630D01*
X5791473Y-4330362D01*
X6048562Y-4381500D01*
X6620958Y-4381500D01*
X6878047Y-4330362D01*
X7169589Y-4135559D01*
X7286480Y-3960620D01*
X7500620Y-3960620D01*
X7500620Y-4238500D01*
X7606961Y-4495228D01*
X7803452Y-4691719D01*
X8060180Y-4798060D01*
X8338060Y-4798060D01*
X8398056Y-4773209D01*
X8407061Y-4794948D01*
X8603552Y-4991439D01*
X8860280Y-5097780D01*
X9138160Y-5097780D01*
X9394888Y-4991439D01*
X9591379Y-4794948D01*
X9697720Y-4538220D01*
X9697720Y-4399280D01*
X11700353Y-4399280D01*
X11776447Y-4781828D01*
X11993143Y-5106137D01*
X12317452Y-5322833D01*
X12603440Y-5379720D01*
X13197880Y-5379720D01*
X13483868Y-5322833D01*
X13808177Y-5106137D01*
X14024873Y-4781828D01*
X14100967Y-4399280D01*
X14024873Y-4016732D01*
X13808177Y-3692423D01*
X13483868Y-3475727D01*
X13197880Y-3418840D01*
X12603440Y-3418840D01*
X12317452Y-3475727D01*
X11993143Y-3692423D01*
X11776447Y-4016732D01*
X11700353Y-4399280D01*
X9697720Y-4399280D01*
X9697720Y-4260340D01*
X9591379Y-4003612D01*
X9394888Y-3807121D01*
X9138160Y-3700780D01*
X8860280Y-3700780D01*
X8800284Y-3725631D01*
X8791279Y-3703892D01*
X8594788Y-3507401D01*
X8338060Y-3401060D01*
X8060180Y-3401060D01*
X7803452Y-3507401D01*
X7606961Y-3703892D01*
X7500620Y-3960620D01*
X7286480Y-3960620D01*
X7364392Y-3844017D01*
X7432797Y-3500120D01*
X7364392Y-3156223D01*
X7313294Y-3079750D01*
X9337355Y-3079750D01*
X9448800Y-3101918D01*
X9560245Y-3079750D01*
X9560246Y-3079750D01*
X9890316Y-3014095D01*
X10264616Y-2763996D01*
X10282593Y-2737091D01*
X10306981Y-2795968D01*
X10503472Y-2992459D01*
X10760200Y-3098800D01*
X11038080Y-3098800D01*
X11294808Y-2992459D01*
X11491299Y-2795968D01*
X11597640Y-2539240D01*
X11597640Y-2261360D01*
X11491299Y-2004632D01*
X11294808Y-1808141D01*
X11220076Y-1777186D01*
X13129365Y132103D01*
X13129368Y132107D01*
X13479884Y482624D01*
X13666854Y762444D01*
X13695918Y908560D01*
X14102080Y908560D01*
X14102080Y630680D01*
X14208421Y373952D01*
X14404912Y177461D01*
X14661640Y71120D01*
X14939520Y71120D01*
X15196248Y177461D01*
X15392739Y373952D01*
X15499080Y630680D01*
X15499080Y908560D01*
X15392739Y1165288D01*
X15196248Y1361779D01*
X14939520Y1468120D01*
X14661640Y1468120D01*
X14404912Y1361779D01*
X14208421Y1165288D01*
X14102080Y908560D01*
X13695918Y908560D01*
X13754677Y1203959D01*
X13687904Y1539650D01*
X13687904Y2552700D01*
X13658334Y2701359D01*
X13574126Y2827386D01*
X13496542Y2879226D01*
X13623553Y3069312D01*
X13680440Y3355301D01*
X13680440Y3949740D01*
X13623553Y4235728D01*
X13406857Y4560037D01*
X13082547Y4776733D01*
X12700000Y4852827D01*
X12317452Y4776733D01*
X11993143Y4560037D01*
X11776447Y4235727D01*
X11719560Y3949739D01*
X11719560Y3355300D01*
X11776447Y3069312D01*
X11903459Y2879226D01*
X11825874Y2827386D01*
X11741666Y2701359D01*
X11712096Y2552700D01*
X11712096Y2211815D01*
X11688570Y2188289D01*
X11614982Y2139119D01*
X11565812Y2065531D01*
X11565808Y2065527D01*
X11468139Y1919354D01*
X11420179Y1847577D01*
X11369040Y1590488D01*
X11369040Y1590483D01*
X11364536Y1567838D01*
X9521786Y-274912D01*
X9492319Y-203772D01*
X9295828Y-7281D01*
X9039100Y99060D01*
X8761220Y99060D01*
X8504492Y-7281D01*
X8308001Y-203772D01*
X8201660Y-460500D01*
X8201660Y-738380D01*
X8234064Y-816610D01*
X5341934Y-816610D01*
X5127280Y-859307D01*
X5127280Y4818380D01*
X5382493Y4818380D01*
X5403152Y4797721D01*
X5529580Y4745352D01*
X5529580Y4656221D01*
X5518385Y4599940D01*
X5529580Y4543659D01*
X5529580Y4543655D01*
X5562739Y4376953D01*
X5689052Y4187912D01*
X5736771Y4156027D01*
X6949440Y2943357D01*
X6949441Y957348D01*
X6928781Y936688D01*
X6822440Y679960D01*
X6822440Y402080D01*
X6928781Y145352D01*
X7125272Y-51139D01*
X7382000Y-157480D01*
X7659880Y-157480D01*
X7916608Y-51139D01*
X8113099Y145352D01*
X8219440Y402080D01*
X8219440Y679960D01*
X8185919Y760886D01*
X9848850Y760886D01*
X9997509Y790456D01*
X10123536Y874664D01*
X10207744Y1000691D01*
X10237314Y1149350D01*
X10237314Y2848610D01*
X10207744Y2997269D01*
X10123536Y3123296D01*
X9997509Y3207504D01*
X9848850Y3237074D01*
X8149590Y3237074D01*
X8094479Y3226112D01*
X8092440Y3236362D01*
X8092440Y3236366D01*
X8059281Y3403068D01*
X7932968Y3592108D01*
X7885253Y3623990D01*
X7869423Y3639820D01*
X7997700Y3639820D01*
X8254428Y3746161D01*
X8450919Y3942652D01*
X8502972Y4068320D01*
X9382760Y4068320D01*
X9382760Y3790440D01*
X9489101Y3533712D01*
X9685592Y3337221D01*
X9942320Y3230880D01*
X10220200Y3230880D01*
X10476928Y3337221D01*
X10673419Y3533712D01*
X10779760Y3790440D01*
X10779760Y4068320D01*
X10673419Y4325048D01*
X10476928Y4521539D01*
X10220200Y4627880D01*
X9942320Y4627880D01*
X9685592Y4521539D01*
X9489101Y4325048D01*
X9382760Y4068320D01*
X8502972Y4068320D01*
X8557260Y4199380D01*
X8557260Y4477260D01*
X8450919Y4733988D01*
X8254428Y4930479D01*
X7997700Y5036820D01*
X7785999Y5036820D01*
X7884160Y5273800D01*
X7884160Y5551680D01*
X7786314Y5787900D01*
X9311640Y5787900D01*
X9311640Y5510020D01*
X9417981Y5253292D01*
X9614472Y5056801D01*
X9871200Y4950460D01*
X10149080Y4950460D01*
X10405808Y5056801D01*
X10602299Y5253292D01*
X10708640Y5510020D01*
X10708640Y5787900D01*
X10602299Y6044628D01*
X10405808Y6241119D01*
X10149080Y6347460D01*
X9871200Y6347460D01*
X9614472Y6241119D01*
X9417981Y6044628D01*
X9311640Y5787900D01*
X7786314Y5787900D01*
X7777819Y5808408D01*
X7581328Y6004899D01*
X7324600Y6111240D01*
X7046720Y6111240D01*
X6789992Y6004899D01*
X6593501Y5808408D01*
X6487506Y5552514D01*
X6390979Y5785548D01*
X6194488Y5982039D01*
X5937760Y6088380D01*
X5659880Y6088380D01*
X5403152Y5982039D01*
X5382493Y5961380D01*
X5127280Y5961380D01*
X5127280Y6876269D01*
X19538951Y6895459D01*
X19538950Y-19419570D01*
G04 #@! TD*
M02*
