G04 #@! TF.GenerationSoftware,KiCad,Pcbnew,(6.0.2-0)*
G04 #@! TF.CreationDate,2022-07-16T10:45:31+02:00*
G04 #@! TF.ProjectId,Crazyflie contol board,4372617a-7966-46c6-9965-20636f6e746f,2.2*
G04 #@! TF.SameCoordinates,Original*
G04 #@! TF.FileFunction,Paste,Top*
G04 #@! TF.FilePolarity,Positive*
%FSLAX46Y46*%
G04 Gerber Fmt 4.6, Leading zero omitted, Abs format (unit mm)*
G04 Created by KiCad (PCBNEW (6.0.2-0)) date 2022-07-16 10:45:31*
%MOMM*%
%LPD*%
G01*
G04 APERTURE LIST*
G04 Aperture macros list*
%AMRotRect*
0 Rectangle, with rotation*
0 The origin of the aperture is its center*
0 $1 length*
0 $2 width*
0 $3 Rotation angle, in degrees counterclockwise*
0 Add horizontal line*
21,1,$1,$2,0,0,$3*%
G04 Aperture macros list end*
%ADD10R,0.816864X0.816864*%
%ADD11R,0.899770X0.612038*%
%ADD12R,1.036320X0.548640*%
%ADD13R,0.548640X1.036320*%
%ADD14O,0.707136X0.178004*%
%ADD15O,0.178004X0.707136*%
%ADD16R,1.570330X1.570330*%
%ADD17RotRect,0.704698X0.704698X225.000000*%
%ADD18RotRect,0.704698X0.704698X135.000000*%
%ADD19RotRect,0.704698X0.704698X45.000000*%
%ADD20RotRect,1.570330X0.899770X162.000000*%
%ADD21R,0.899770X0.419404*%
%ADD22R,0.514502X0.321868*%
%ADD23R,0.707040X0.515040*%
%ADD24R,1.571040X0.707040*%
%ADD25R,0.515040X0.707040*%
%ADD26R,0.515040X1.187040*%
%ADD27R,0.179040X0.587040*%
%ADD28R,0.587040X0.179040*%
G04 APERTURE END LIST*
D10*
X147985480Y-103502460D03*
X150017480Y-104391460D03*
X150017480Y-102613460D03*
X147985480Y-107002580D03*
X150017480Y-107891580D03*
X150017480Y-106113580D03*
X147985480Y-110502700D03*
X150017480Y-111391700D03*
X150017480Y-109613700D03*
X147985480Y-114002820D03*
X150017480Y-114891820D03*
X150017480Y-113113820D03*
D11*
X151429720Y-93251020D03*
X151429720Y-94203520D03*
X151429720Y-95156020D03*
X153969720Y-95156020D03*
X153969720Y-94203520D03*
X153969720Y-93251020D03*
D12*
X152999440Y-111264700D03*
X152999440Y-109740700D03*
X143000000Y-91262000D03*
X143000000Y-89738000D03*
D13*
X140662660Y-88000000D03*
X139138660Y-88000000D03*
D12*
X131500880Y-85641180D03*
X131500880Y-87165180D03*
X129999740Y-85641180D03*
X129999740Y-87165180D03*
D13*
X155661360Y-113502440D03*
X154137360Y-113502440D03*
X152760680Y-101503480D03*
X151236680Y-101503480D03*
D12*
X152999440Y-104264460D03*
X152999440Y-102740460D03*
D13*
X125437900Y-87904320D03*
X126961900Y-87904320D03*
D12*
X151500840Y-114764820D03*
X151500840Y-113240820D03*
X151500840Y-111264700D03*
X151500840Y-109740700D03*
X151500840Y-107764580D03*
X151500840Y-106240580D03*
X151500840Y-104264460D03*
X151500840Y-102740460D03*
D14*
X150500080Y-99755960D03*
X150500080Y-99253040D03*
X150500080Y-98755200D03*
X150500080Y-98254820D03*
D15*
X149748240Y-97502980D03*
X149247860Y-97502980D03*
X148747480Y-97502980D03*
X148249640Y-97502980D03*
D14*
X147497800Y-98257360D03*
X147497800Y-98755200D03*
X147497800Y-99255580D03*
X147497800Y-99755960D03*
D15*
X148249640Y-100505260D03*
X148747480Y-100505260D03*
X149247860Y-100505260D03*
X149748240Y-100505260D03*
D16*
X148998940Y-99004120D03*
D17*
X156028635Y-115972345D03*
X154968965Y-117032015D03*
D18*
X155929575Y-86132915D03*
X154869905Y-85073245D03*
D19*
X124069865Y-86033855D03*
X125129535Y-84974185D03*
D12*
X149999700Y-94742000D03*
X149999700Y-96266000D03*
X144899380Y-102765860D03*
X144899380Y-101241860D03*
D13*
X145361660Y-99603560D03*
X143837660Y-99603560D03*
X151338280Y-85803740D03*
X152862280Y-85803740D03*
D12*
X146400520Y-102765860D03*
X146400520Y-101241860D03*
D13*
X143837660Y-98102420D03*
X145361660Y-98102420D03*
X144838420Y-95603060D03*
X146362420Y-95603060D03*
D20*
X154543524Y-91214700D03*
X155656516Y-87789260D03*
D12*
X133799580Y-91340940D03*
X133799580Y-92864940D03*
D21*
X129550160Y-89029540D03*
X129550160Y-90279220D03*
X129550160Y-91528900D03*
X129550160Y-92778580D03*
X132049520Y-92778580D03*
X132049520Y-91528900D03*
X132059680Y-90279220D03*
X132049520Y-89029540D03*
D22*
X142400020Y-103299260D03*
X142400020Y-104198420D03*
X141500860Y-103299260D03*
X141500860Y-104198420D03*
X140599160Y-103299260D03*
X140599160Y-104198420D03*
D23*
X138430000Y-107250000D03*
X138430000Y-108650000D03*
D24*
X137160000Y-115140000D03*
X137160000Y-118540000D03*
D23*
X127150000Y-118150000D03*
X127150000Y-119550000D03*
X125684280Y-118150000D03*
X125684280Y-119550000D03*
D25*
X125645720Y-90713560D03*
X127045720Y-90713560D03*
D23*
X123139200Y-109227160D03*
X123139200Y-110627160D03*
X126888240Y-104129840D03*
X126888240Y-102729840D03*
X121889520Y-109231200D03*
X121889520Y-110631200D03*
D25*
X133082840Y-101086920D03*
X134482840Y-101086920D03*
D26*
X126832400Y-112819760D03*
X124932400Y-112819760D03*
X125882400Y-114919760D03*
X134655560Y-102676960D03*
X132755560Y-102676960D03*
X133705560Y-104776960D03*
D27*
X139200000Y-92175000D03*
X139750000Y-92175000D03*
X140250000Y-92175000D03*
X140800000Y-92175000D03*
D28*
X140925000Y-91500000D03*
X140925000Y-91000000D03*
X140925000Y-90500000D03*
D27*
X140800000Y-89825000D03*
X140250000Y-89825000D03*
X139750000Y-89825000D03*
X139200000Y-89825000D03*
D28*
X139075000Y-90500000D03*
X139075000Y-91000000D03*
X139075000Y-91500000D03*
M02*
