M48
; DRILL file {KiCad (7.0.0-0)} date Monday, 04 December 2023 at 12:02:06
; FORMAT={-:-/ absolute / inch / decimal}
; #@! TF.CreationDate,2023-12-04T12:02:06+01:00
; #@! TF.GenerationSoftware,Kicad,Pcbnew,(7.0.0-0)
; #@! TF.FileFunction,Plated,1,2,PTH
FMAT,2
INCH
; #@! TA.AperFunction,Plated,PTH,ComponentDrill
T1C0.0079
; #@! TA.AperFunction,Plated,PTH,ViaDrill
T2C0.0150
; #@! TA.AperFunction,Plated,PTH,ComponentDrill
T3C0.0236
; #@! TA.AperFunction,Plated,PTH,ComponentDrill
T4C0.0394
%
G90
G05
T1
X5.9533Y-4.5115
X5.954Y-4.354
X5.954Y-4.4067
X5.954Y-4.4591
X6.0087Y-4.3539
X6.0087Y-4.4614
X6.0087Y-4.5118
X6.0091Y-4.4066
X6.0631Y-4.4069
X6.0635Y-4.4608
X6.0644Y-4.3535
X6.0644Y-4.5122
X6.1171Y-4.5118
X6.1184Y-4.406
X6.1184Y-4.4604
X6.1192Y-4.35
T2
X5.0118Y-3.8976
X5.0218Y-4.3386
X5.0236Y-3.5669
X5.0827Y-3.9488
X5.1232Y-4.3268
X5.1535Y-3.5699
X5.1654Y-3.9685
X5.1772Y-3.9921
X5.2165Y-3.4291
X5.2698Y-3.6102
X5.3228Y-3.9764
X5.3504Y-3.9764
X5.3928Y-4.3731
X5.3976Y-3.4252
X5.4488Y-3.9724
X5.4488Y-4.2913
X5.4724Y-3.9882
X5.4803Y-4.2913
X5.4843Y-4.1378
X5.4882Y-3.4449
X5.5Y-4.1614
X5.5472Y-3.5748
X5.5984Y-3.6929
X5.6142Y-3.4528
X5.6181Y-3.5484
X5.6517Y-3.8819
X5.6535Y-3.5157
X5.6951Y-4.6575
X5.6969Y-3.5709
X5.7362Y-4.7559
X5.7402Y-3.685
X5.7441Y-3.5709
X5.7541Y-3.6378
X5.7816Y-4.2835
X5.7935Y-4.5512
X5.8436Y-4.2795
X5.8937Y-4.1535
X5.947Y-3.7402
X5.9477Y-3.8701
X6.0157Y-3.7047
X6.0354Y-3.6378
X6.1102Y-3.7126
X6.1458Y-3.8465
X6.2244Y-4.2598
X6.2383Y-3.6694
X6.2589Y-4.1015
X6.2598Y-4.5787
X6.2736Y-4.25
X6.3171Y-4.4055
X6.3346Y-3.7008
X6.3407Y-4.7598
X6.4055Y-4.1575
X6.4234Y-4.4567
X6.4313Y-3.6457
T4
X5.0226Y-3.6827
X5.0226Y-3.7827
X5.1226Y-3.6827
X5.1226Y-3.7827
X5.1234Y-4.6811
X5.1234Y-4.7811
X5.2226Y-3.6827
X5.2226Y-3.7827
X5.2234Y-4.6811
X5.2234Y-4.7811
X5.3226Y-3.6827
X5.3226Y-3.7827
X5.3234Y-4.6811
X5.3234Y-4.7811
X5.4226Y-3.6827
X5.4226Y-3.7827
X5.4234Y-4.6811
X5.4234Y-4.7811
X5.5234Y-4.6811
X5.5234Y-4.7811
T3
G00X6.0012Y-3.3309
M15
G01X6.0012Y-3.3073
M16
G05
G00X6.0012Y-3.5053
M15
G01X6.0012Y-3.462
M16
G05
G00X6.3413Y-3.3309
M15
G01X6.3413Y-3.3073
M16
G05
G00X6.3413Y-3.5053
M15
G01X6.3413Y-3.462
M16
G05
T0
M30
