G04 #@! TF.GenerationSoftware,KiCad,Pcbnew,(6.0.2-0)*
G04 #@! TF.CreationDate,2022-07-16T10:45:31+02:00*
G04 #@! TF.ProjectId,Crazyflie contol board,4372617a-7966-46c6-9965-20636f6e746f,2.2*
G04 #@! TF.SameCoordinates,Original*
G04 #@! TF.FileFunction,Paste,Bot*
G04 #@! TF.FilePolarity,Positive*
%FSLAX46Y46*%
G04 Gerber Fmt 4.6, Leading zero omitted, Abs format (unit mm)*
G04 Created by KiCad (PCBNEW (6.0.2-0)) date 2022-07-16 10:45:31*
%MOMM*%
%LPD*%
G01*
G04 APERTURE LIST*
G04 Aperture macros list*
%AMRotRect*
0 Rectangle, with rotation*
0 The origin of the aperture is its center*
0 $1 length*
0 $2 width*
0 $3 Rotation angle, in degrees counterclockwise*
0 Add horizontal line*
21,1,$1,$2,0,0,$3*%
G04 Aperture macros list end*
%ADD10R,0.612038X0.899770*%
%ADD11R,0.899770X0.514502*%
%ADD12R,0.548640X1.036320*%
%ADD13R,1.036320X0.548640*%
%ADD14R,0.321868X0.426720*%
%ADD15R,1.667866X1.762964*%
%ADD16R,1.762964X1.762964*%
%ADD17R,1.667866X0.994868*%
%ADD18R,1.955596X1.475232*%
%ADD19R,1.089964X1.762964*%
%ADD20R,0.321868X1.282598*%
%ADD21R,0.816864X0.816864*%
%ADD22RotRect,0.704698X0.704698X225.000000*%
%ADD23O,2.339040X0.803040*%
%ADD24O,0.803040X2.339040*%
%ADD25R,1.091040X1.091040*%
%ADD26R,0.707040X0.515040*%
%ADD27R,0.227040X0.707040*%
%ADD28R,0.755040X0.227040*%
%ADD29R,2.387040X2.387040*%
G04 APERTURE END LIST*
D10*
X150947120Y-90271600D03*
X149994620Y-90271600D03*
X149042120Y-90271600D03*
X149042120Y-87731600D03*
X149994620Y-87731600D03*
X150947120Y-87731600D03*
X151046180Y-108734860D03*
X151998680Y-108734860D03*
X152951180Y-108734860D03*
X152951180Y-111274860D03*
X151998680Y-111274860D03*
X151046180Y-111274860D03*
D11*
X146598640Y-106004360D03*
X144399000Y-106004360D03*
X146598640Y-109004100D03*
X144399000Y-109004100D03*
X146598640Y-112003840D03*
X144399000Y-112003840D03*
X146598640Y-115003580D03*
X144399000Y-115003580D03*
D12*
X153761440Y-89001600D03*
X152237440Y-89001600D03*
X152237440Y-87503000D03*
X153761440Y-87503000D03*
X150756620Y-92001340D03*
X149232620Y-92001340D03*
X147761960Y-90002360D03*
X146237960Y-90002360D03*
X150738840Y-113502440D03*
X152262840Y-113502440D03*
X128038860Y-93202760D03*
X129562860Y-93202760D03*
D13*
X149499320Y-113243360D03*
X149499320Y-114767360D03*
D12*
X153261060Y-107005120D03*
X151737060Y-107005120D03*
D13*
X150898860Y-99961700D03*
X150898860Y-98437700D03*
X153830020Y-113240820D03*
X153830020Y-114764820D03*
X148699220Y-102440740D03*
X148699220Y-103964740D03*
X130200000Y-96512000D03*
X130200000Y-94988000D03*
D12*
X146738340Y-92003880D03*
X148262340Y-92003880D03*
X146237960Y-88503760D03*
X147761960Y-88503760D03*
X149961600Y-93502480D03*
X148437600Y-93502480D03*
X152237440Y-90502740D03*
X153761440Y-90502740D03*
D13*
X149499320Y-110744000D03*
X149499320Y-112268000D03*
X148000720Y-108242100D03*
X148000720Y-109766100D03*
X149499320Y-109766100D03*
X149499320Y-108242100D03*
X147998180Y-112268000D03*
X147998180Y-110744000D03*
D12*
X149237700Y-107005120D03*
X150761700Y-107005120D03*
X151361140Y-101201220D03*
X149837140Y-101201220D03*
D13*
X150098760Y-103964740D03*
X150098760Y-102440740D03*
D14*
X131950460Y-93253560D03*
X131300220Y-93253560D03*
X130649980Y-93253560D03*
X130649980Y-91353640D03*
X131300220Y-91353640D03*
X131950460Y-91353640D03*
D15*
X125498860Y-86202520D03*
D16*
X130698240Y-86202520D03*
D17*
X133449060Y-86601300D03*
D18*
X126400560Y-88752680D03*
X132598160Y-88752680D03*
D19*
X133149340Y-86202520D03*
D16*
X128300480Y-86202520D03*
D20*
X128198880Y-88902540D03*
X128849120Y-88902540D03*
X129499360Y-88902540D03*
X130149600Y-88902540D03*
X130799840Y-88902540D03*
D13*
X153400760Y-91841320D03*
X153400760Y-93365320D03*
D21*
X152900380Y-101587300D03*
X153789380Y-103619300D03*
X152011380Y-103619300D03*
X153116280Y-94503240D03*
X151084280Y-95392240D03*
X151084280Y-93614240D03*
D22*
X156028635Y-115972345D03*
X154968965Y-117032015D03*
D13*
X155300680Y-114764820D03*
X155300680Y-113240820D03*
D23*
X123080000Y-119550000D03*
X123080000Y-118280000D03*
X123080000Y-117010000D03*
X123080000Y-115740000D03*
X123080000Y-114470000D03*
X123080000Y-113200000D03*
X123080000Y-111930000D03*
X123080000Y-110660000D03*
X123080000Y-109390000D03*
X123080000Y-108120000D03*
X123080000Y-106850000D03*
X123080000Y-105580000D03*
X123080000Y-104310000D03*
X123080000Y-103040000D03*
D24*
X126365000Y-101550000D03*
X127635000Y-101550000D03*
X128905000Y-101550000D03*
X130175000Y-101550000D03*
X131445000Y-101550000D03*
X132715000Y-101550000D03*
X133985000Y-101550000D03*
X135255000Y-101550000D03*
X136525000Y-101550000D03*
X137795000Y-101550000D03*
D23*
X141080000Y-103040000D03*
X141080000Y-104310000D03*
X141080000Y-105580000D03*
X141080000Y-106850000D03*
X141080000Y-108120000D03*
X141080000Y-109390000D03*
X141080000Y-110660000D03*
X141080000Y-111930000D03*
X141080000Y-113200000D03*
X141080000Y-114470000D03*
X141080000Y-115740000D03*
X141080000Y-117010000D03*
X141080000Y-118280000D03*
X141080000Y-119550000D03*
D25*
X133802120Y-112638840D03*
X132407660Y-112659160D03*
X131025900Y-111244380D03*
X133812280Y-111269780D03*
X129667000Y-109788960D03*
X129644140Y-112636300D03*
X133822440Y-109855000D03*
X131058920Y-109821980D03*
X132397500Y-113974880D03*
X129677160Y-111188500D03*
X133789420Y-113952020D03*
X131015740Y-114007900D03*
X132420360Y-111274860D03*
X131015740Y-112646460D03*
X129646680Y-113985040D03*
X132430520Y-109832140D03*
D26*
X128750000Y-96477280D03*
X128750000Y-95077280D03*
D27*
X124022800Y-95287080D03*
X124522800Y-95287080D03*
X125022800Y-95287080D03*
X125522800Y-95287080D03*
X126022800Y-95287080D03*
X126522800Y-95287080D03*
D28*
X127272800Y-96037080D03*
X127272800Y-96537080D03*
X127272800Y-97037080D03*
X127272800Y-97537080D03*
X127272800Y-98037080D03*
X127272800Y-98537080D03*
D27*
X126522800Y-99287080D03*
X126022800Y-99287080D03*
X125522800Y-99287080D03*
X125022800Y-99287080D03*
X124522800Y-99287080D03*
X124022800Y-99287080D03*
D28*
X123272800Y-98537080D03*
X123272800Y-98037080D03*
X123272800Y-97537080D03*
X123272800Y-97037080D03*
X123272800Y-96537080D03*
X123272800Y-96037080D03*
D29*
X125272800Y-97287080D03*
M02*
