M48
; DRILL file {KiCad (6.0.2-0)} date 2022 July 16, Saturday 10:45:34
; FORMAT={-:-/ absolute / metric / decimal}
; #@! TF.CreationDate,2022-07-16T10:45:34+02:00
; #@! TF.GenerationSoftware,Kicad,Pcbnew,(6.0.2-0)
; #@! TF.FileFunction,Plated,1,4,PTH
FMAT,2
METRIC
; #@! TA.AperFunction,Plated,PTH,ComponentDrill
T1C0.200
; #@! TA.AperFunction,Plated,PTH,ComponentDrill
T2C0.380
; #@! TA.AperFunction,Plated,PTH,ViaDrill
T3C0.381
; #@! TA.AperFunction,Plated,PTH,ComponentDrill
T4C0.381
; #@! TA.AperFunction,Plated,PTH,ComponentDrill
T5C0.599
; #@! TA.AperFunction,Plated,PTH,ComponentDrill
T6C0.701
%
G90
G05
T1
X129.012Y-113.284
X129.032Y-114.587
X129.04Y-109.106
X129.045Y-110.523
X129.062Y-111.879
X130.325Y-110.49
X130.345Y-111.912
X130.345Y-113.294
X130.368Y-109.118
X130.378Y-114.6
X131.674Y-109.118
X131.717Y-110.579
X131.717Y-114.61
X131.74Y-113.304
X131.75Y-111.935
X133.111Y-109.113
X133.121Y-111.928
X133.132Y-110.589
X133.132Y-113.32
X133.132Y-114.6
X134.521Y-110.592
X134.521Y-111.93
X134.521Y-113.261
X134.526Y-109.108
X134.539Y-114.592
T2
X124.607Y-96.662
X124.607Y-97.932
X125.273Y-97.287
X125.877Y-96.662
X125.877Y-97.932
T3
X121.0Y-97.0
X121.136Y-107.518
X122.26Y-90.719
X123.012Y-101.727
X123.246Y-105.6
X123.347Y-94.285
X124.1Y-87.55
X124.7Y-119.558
X124.75Y-118.25
X125.0Y-106.1
X125.07Y-100.635
X125.364Y-94.153
X125.583Y-93.32
X125.923Y-116.423
X125.95Y-107.45
X127.3Y-93.203
X127.498Y-94.427
X127.615Y-107.61
X128.27Y-106.374
X128.369Y-91.704
X128.524Y-97.485
X129.281Y-99.446
X129.65Y-97.7
X131.1Y-105.0
X131.8Y-118.0
X132.019Y-96.423
X132.9Y-93.703
X133.6Y-98.05
X133.609Y-90.104
X134.314Y-106.374
X134.399Y-93.703
X134.899Y-91.504
X135.4Y-92.532
X136.299Y-87.302
X136.35Y-97.15
X136.731Y-93.652
X137.15Y-104.8
X137.4Y-94.55
X137.5Y-92.403
X137.56Y-103.74
X138.186Y-109.855
X138.2Y-112.75
X138.43Y-105.41
X139.065Y-116.84
X139.156Y-97.551
X139.75Y-94.5
X140.462Y-99.187
X140.5Y-93.5
X141.0Y-97.5
X141.049Y-102.0
X141.097Y-118.3
X141.679Y-99.563
X142.25Y-100.645
X142.5Y-92.5
X142.95Y-109.15
X143.068Y-112.474
X143.25Y-96.5
X143.4Y-101.6
X144.831Y-87.394
X144.85Y-89.65
X145.799Y-95.613
X146.21Y-87.282
X146.489Y-98.702
X147.185Y-95.59
X147.45Y-86.6
X147.521Y-100.462
X147.858Y-96.665
X148.001Y-111.653
X148.069Y-115.0
X148.161Y-113.073
X148.199Y-105.103
X148.509Y-94.493
X148.57Y-89.263
X148.9Y-101.603
X149.5Y-115.9
X150.01Y-95.354
X150.081Y-97.074
X150.099Y-86.703
X150.899Y-103.403
X151.0Y-86.904
X151.496Y-112.294
X152.0Y-108.65
X152.761Y-107.853
X152.931Y-112.464
X153.071Y-114.003
X153.832Y-108.244
X154.0Y-87.0
X154.099Y-110.904
X154.099Y-111.902
X154.25Y-109.75
X154.259Y-92.179
X154.8Y-100.233
X154.8Y-101.204
X155.43Y-86.67
X157.0Y-107.0
T4
X148.499Y-98.504
X148.499Y-99.504
X148.999Y-99.004
X149.499Y-98.504
X149.499Y-99.504
T5
X144.864Y-104.503
X144.864Y-107.503
X144.864Y-110.503
X144.864Y-113.502
X146.134Y-104.503
X146.134Y-107.503
X146.134Y-110.503
X146.134Y-113.502
T6
X152.7Y-97.551
X152.7Y-99.05
X152.9Y-105.402
T0
M30
