G04 #@! TF.GenerationSoftware,KiCad,Pcbnew,5.0.2+dfsg1-1*
G04 #@! TF.CreationDate,2020-05-20T11:42:17+02:00*
G04 #@! TF.ProjectId,Crazyflie contol board,4372617a-7966-46c6-9965-20636f6e746f,2.1*
G04 #@! TF.SameCoordinates,PX85839e8PY6052f5c*
G04 #@! TF.FileFunction,Legend,Bot*
G04 #@! TF.FilePolarity,Positive*
%FSLAX46Y46*%
G04 Gerber Fmt 4.6, Leading zero omitted, Abs format (unit mm)*
G04 Created by KiCad (PCBNEW 5.0.2+dfsg1-1) date wo 20 mei 2020 11:42:17 CEST*
%MOMM*%
%LPD*%
G01*
G04 APERTURE LIST*
%ADD10C,0.150000*%
%ADD11C,0.300000*%
%ADD12C,0.400000*%
%ADD13C,0.248920*%
%ADD14C,0.250190*%
%ADD15C,0.251460*%
%ADD16C,0.200660*%
%ADD17C,0.127000*%
%ADD18C,0.100000*%
%ADD19C,0.120000*%
G04 APERTURE END LIST*
D10*
X37002480Y-65004100D02*
X37002480Y-97004100D01*
X145002480Y-97004100D01*
X145002480Y-65004100D01*
X37002480Y-65004100D01*
X-129999720Y91003100D02*
X-129999720Y-99004100D01*
X147002480Y-99004100D01*
X147002480Y91003100D01*
X-129999720Y91003100D01*
X-127999720Y89003100D02*
X-127999720Y-97004100D01*
X145002480Y-97004100D01*
X145002480Y89003100D01*
X-127999720Y89003100D01*
X-79999720Y89003100D02*
X-79999720Y91003100D01*
X-29999720Y89003100D02*
X-29999720Y91003100D01*
X20000280Y89003100D02*
X20000280Y91003100D01*
X70000280Y89003100D02*
X70000280Y91003100D01*
X120000280Y89003100D02*
X120000280Y91003100D01*
X-103934244Y89415005D02*
X-104677101Y89415005D01*
X-104305673Y89415005D02*
X-104305673Y90715005D01*
X-104429482Y90529291D01*
X-104553292Y90405481D01*
X-104677101Y90343577D01*
X-54677101Y90591196D02*
X-54615197Y90653100D01*
X-54491387Y90715005D01*
X-54181863Y90715005D01*
X-54058054Y90653100D01*
X-53996149Y90591196D01*
X-53934244Y90467386D01*
X-53934244Y90343577D01*
X-53996149Y90157862D01*
X-54739006Y89415005D01*
X-53934244Y89415005D01*
X-4739006Y90715005D02*
X-3934244Y90715005D01*
X-4367578Y90219767D01*
X-4181863Y90219767D01*
X-4058054Y90157862D01*
X-3996149Y90095958D01*
X-3934244Y89972148D01*
X-3934244Y89662624D01*
X-3996149Y89538815D01*
X-4058054Y89476910D01*
X-4181863Y89415005D01*
X-4553292Y89415005D01*
X-4677101Y89476910D01*
X-4739006Y89538815D01*
X45941946Y90281672D02*
X45941946Y89415005D01*
X45632422Y90776910D02*
X45322899Y89848339D01*
X46127660Y89848339D01*
X96003851Y90715005D02*
X95384803Y90715005D01*
X95322899Y90095958D01*
X95384803Y90157862D01*
X95508613Y90219767D01*
X95818137Y90219767D01*
X95941946Y90157862D01*
X96003851Y90095958D01*
X96065756Y89972148D01*
X96065756Y89662624D01*
X96003851Y89538815D01*
X95941946Y89476910D01*
X95818137Y89415005D01*
X95508613Y89415005D01*
X95384803Y89476910D01*
X95322899Y89538815D01*
X145941946Y90715005D02*
X145694327Y90715005D01*
X145570518Y90653100D01*
X145508613Y90591196D01*
X145384803Y90405481D01*
X145322899Y90157862D01*
X145322899Y89662624D01*
X145384803Y89538815D01*
X145446708Y89476910D01*
X145570518Y89415005D01*
X145818137Y89415005D01*
X145941946Y89476910D01*
X146003851Y89538815D01*
X146065756Y89662624D01*
X146065756Y89972148D01*
X146003851Y90095958D01*
X145941946Y90157862D01*
X145818137Y90219767D01*
X145570518Y90219767D01*
X145446708Y90157862D01*
X145384803Y90095958D01*
X145322899Y89972148D01*
X-79999720Y-97004100D02*
X-79999720Y-99004100D01*
X-29999720Y-97004100D02*
X-29999720Y-99004100D01*
X20000280Y-97004100D02*
X20000280Y-99004100D01*
X70000280Y-97004100D02*
X70000280Y-99004100D01*
X120000280Y-97004100D02*
X120000280Y-99004100D01*
X-103934244Y-98592195D02*
X-104677101Y-98592195D01*
X-104305673Y-98592195D02*
X-104305673Y-97292195D01*
X-104429482Y-97477909D01*
X-104553292Y-97601719D01*
X-104677101Y-97663623D01*
X-54677101Y-97416004D02*
X-54615197Y-97354100D01*
X-54491387Y-97292195D01*
X-54181863Y-97292195D01*
X-54058054Y-97354100D01*
X-53996149Y-97416004D01*
X-53934244Y-97539814D01*
X-53934244Y-97663623D01*
X-53996149Y-97849338D01*
X-54739006Y-98592195D01*
X-53934244Y-98592195D01*
X-4739006Y-97292195D02*
X-3934244Y-97292195D01*
X-4367578Y-97787433D01*
X-4181863Y-97787433D01*
X-4058054Y-97849338D01*
X-3996149Y-97911242D01*
X-3934244Y-98035052D01*
X-3934244Y-98344576D01*
X-3996149Y-98468385D01*
X-4058054Y-98530290D01*
X-4181863Y-98592195D01*
X-4553292Y-98592195D01*
X-4677101Y-98530290D01*
X-4739006Y-98468385D01*
X45941946Y-97725528D02*
X45941946Y-98592195D01*
X45632422Y-97230290D02*
X45322899Y-98158861D01*
X46127660Y-98158861D01*
X96003851Y-97292195D02*
X95384803Y-97292195D01*
X95322899Y-97911242D01*
X95384803Y-97849338D01*
X95508613Y-97787433D01*
X95818137Y-97787433D01*
X95941946Y-97849338D01*
X96003851Y-97911242D01*
X96065756Y-98035052D01*
X96065756Y-98344576D01*
X96003851Y-98468385D01*
X95941946Y-98530290D01*
X95818137Y-98592195D01*
X95508613Y-98592195D01*
X95384803Y-98530290D01*
X95322899Y-98468385D01*
X145941946Y-97292195D02*
X145694327Y-97292195D01*
X145570518Y-97354100D01*
X145508613Y-97416004D01*
X145384803Y-97601719D01*
X145322899Y-97849338D01*
X145322899Y-98344576D01*
X145384803Y-98468385D01*
X145446708Y-98530290D01*
X145570518Y-98592195D01*
X145818137Y-98592195D01*
X145941946Y-98530290D01*
X146003851Y-98468385D01*
X146065756Y-98344576D01*
X146065756Y-98035052D01*
X146003851Y-97911242D01*
X145941946Y-97849338D01*
X145818137Y-97787433D01*
X145570518Y-97787433D01*
X145446708Y-97849338D01*
X145384803Y-97911242D01*
X145322899Y-98035052D01*
X-129999720Y41003100D02*
X-127999720Y41003100D01*
X-129999720Y-8996900D02*
X-127999720Y-8996900D01*
X-129999720Y-58996900D02*
X-127999720Y-58996900D01*
X-129309244Y65786434D02*
X-128690197Y65786434D01*
X-129433054Y65415005D02*
X-128999720Y66715005D01*
X-128566387Y65415005D01*
X-128906863Y16095958D02*
X-128721149Y16034053D01*
X-128659244Y15972148D01*
X-128597340Y15848339D01*
X-128597340Y15662624D01*
X-128659244Y15538815D01*
X-128721149Y15476910D01*
X-128844959Y15415005D01*
X-129340197Y15415005D01*
X-129340197Y16715005D01*
X-128906863Y16715005D01*
X-128783054Y16653100D01*
X-128721149Y16591196D01*
X-128659244Y16467386D01*
X-128659244Y16343577D01*
X-128721149Y16219767D01*
X-128783054Y16157862D01*
X-128906863Y16095958D01*
X-129340197Y16095958D01*
X-128597340Y-34461185D02*
X-128659244Y-34523090D01*
X-128844959Y-34584995D01*
X-128968768Y-34584995D01*
X-129154482Y-34523090D01*
X-129278292Y-34399280D01*
X-129340197Y-34275471D01*
X-129402101Y-34027852D01*
X-129402101Y-33842138D01*
X-129340197Y-33594519D01*
X-129278292Y-33470709D01*
X-129154482Y-33346900D01*
X-128968768Y-33284995D01*
X-128844959Y-33284995D01*
X-128659244Y-33346900D01*
X-128597340Y-33408804D01*
X-129340197Y-84584995D02*
X-129340197Y-83284995D01*
X-129030673Y-83284995D01*
X-128844959Y-83346900D01*
X-128721149Y-83470709D01*
X-128659244Y-83594519D01*
X-128597340Y-83842138D01*
X-128597340Y-84027852D01*
X-128659244Y-84275471D01*
X-128721149Y-84399280D01*
X-128844959Y-84523090D01*
X-129030673Y-84584995D01*
X-129340197Y-84584995D01*
X147002480Y41003100D02*
X145002480Y41003100D01*
X147002480Y-8996900D02*
X145002480Y-8996900D01*
X147002480Y-58996900D02*
X145002480Y-58996900D01*
X145692956Y65786434D02*
X146312003Y65786434D01*
X145569146Y65415005D02*
X146002480Y66715005D01*
X146435813Y65415005D01*
X146095337Y16095958D02*
X146281051Y16034053D01*
X146342956Y15972148D01*
X146404860Y15848339D01*
X146404860Y15662624D01*
X146342956Y15538815D01*
X146281051Y15476910D01*
X146157241Y15415005D01*
X145662003Y15415005D01*
X145662003Y16715005D01*
X146095337Y16715005D01*
X146219146Y16653100D01*
X146281051Y16591196D01*
X146342956Y16467386D01*
X146342956Y16343577D01*
X146281051Y16219767D01*
X146219146Y16157862D01*
X146095337Y16095958D01*
X145662003Y16095958D01*
X146404860Y-34461185D02*
X146342956Y-34523090D01*
X146157241Y-34584995D01*
X146033432Y-34584995D01*
X145847718Y-34523090D01*
X145723908Y-34399280D01*
X145662003Y-34275471D01*
X145600099Y-34027852D01*
X145600099Y-33842138D01*
X145662003Y-33594519D01*
X145723908Y-33470709D01*
X145847718Y-33346900D01*
X146033432Y-33284995D01*
X146157241Y-33284995D01*
X146342956Y-33346900D01*
X146404860Y-33408804D01*
X145662003Y-84584995D02*
X145662003Y-83284995D01*
X145971527Y-83284995D01*
X146157241Y-83346900D01*
X146281051Y-83470709D01*
X146342956Y-83594519D01*
X146404860Y-83842138D01*
X146404860Y-84027852D01*
X146342956Y-84275471D01*
X146281051Y-84399280D01*
X146157241Y-84523090D01*
X145971527Y-84584995D01*
X145662003Y-84584995D01*
X60434622Y-92782671D02*
X60434622Y-91282671D01*
X60791765Y-91282671D01*
X61006051Y-91354100D01*
X61148908Y-91496957D01*
X61220337Y-91639814D01*
X61291765Y-91925528D01*
X61291765Y-92139814D01*
X61220337Y-92425528D01*
X61148908Y-92568385D01*
X61006051Y-92711242D01*
X60791765Y-92782671D01*
X60434622Y-92782671D01*
X62577480Y-92782671D02*
X62577480Y-91996957D01*
X62506051Y-91854100D01*
X62363194Y-91782671D01*
X62077480Y-91782671D01*
X61934622Y-91854100D01*
X62577480Y-92711242D02*
X62434622Y-92782671D01*
X62077480Y-92782671D01*
X61934622Y-92711242D01*
X61863194Y-92568385D01*
X61863194Y-92425528D01*
X61934622Y-92282671D01*
X62077480Y-92211242D01*
X62434622Y-92211242D01*
X62577480Y-92139814D01*
X63077480Y-91782671D02*
X63648908Y-91782671D01*
X63291765Y-91282671D02*
X63291765Y-92568385D01*
X63363194Y-92711242D01*
X63506051Y-92782671D01*
X63648908Y-92782671D01*
X64720337Y-92711242D02*
X64577480Y-92782671D01*
X64291765Y-92782671D01*
X64148908Y-92711242D01*
X64077480Y-92568385D01*
X64077480Y-91996957D01*
X64148908Y-91854100D01*
X64291765Y-91782671D01*
X64577480Y-91782671D01*
X64720337Y-91854100D01*
X64791765Y-91996957D01*
X64791765Y-92139814D01*
X64077480Y-92282671D01*
X65434622Y-92639814D02*
X65506051Y-92711242D01*
X65434622Y-92782671D01*
X65363194Y-92711242D01*
X65434622Y-92639814D01*
X65434622Y-92782671D01*
X65434622Y-91854100D02*
X65506051Y-91925528D01*
X65434622Y-91996957D01*
X65363194Y-91925528D01*
X65434622Y-91854100D01*
X65434622Y-91996957D01*
X67220337Y-91425528D02*
X67291765Y-91354100D01*
X67434622Y-91282671D01*
X67791765Y-91282671D01*
X67934622Y-91354100D01*
X68006051Y-91425528D01*
X68077480Y-91568385D01*
X68077480Y-91711242D01*
X68006051Y-91925528D01*
X67148908Y-92782671D01*
X68077480Y-92782671D01*
X69006051Y-91282671D02*
X69148908Y-91282671D01*
X69291765Y-91354100D01*
X69363194Y-91425528D01*
X69434622Y-91568385D01*
X69506051Y-91854100D01*
X69506051Y-92211242D01*
X69434622Y-92496957D01*
X69363194Y-92639814D01*
X69291765Y-92711242D01*
X69148908Y-92782671D01*
X69006051Y-92782671D01*
X68863194Y-92711242D01*
X68791765Y-92639814D01*
X68720337Y-92496957D01*
X68648908Y-92211242D01*
X68648908Y-91854100D01*
X68720337Y-91568385D01*
X68791765Y-91425528D01*
X68863194Y-91354100D01*
X69006051Y-91282671D01*
X70077480Y-91425528D02*
X70148908Y-91354100D01*
X70291765Y-91282671D01*
X70648908Y-91282671D01*
X70791765Y-91354100D01*
X70863194Y-91425528D01*
X70934622Y-91568385D01*
X70934622Y-91711242D01*
X70863194Y-91925528D01*
X70006051Y-92782671D01*
X70934622Y-92782671D01*
X71863194Y-91282671D02*
X72006051Y-91282671D01*
X72148908Y-91354100D01*
X72220337Y-91425528D01*
X72291765Y-91568385D01*
X72363194Y-91854100D01*
X72363194Y-92211242D01*
X72291765Y-92496957D01*
X72220337Y-92639814D01*
X72148908Y-92711242D01*
X72006051Y-92782671D01*
X71863194Y-92782671D01*
X71720337Y-92711242D01*
X71648908Y-92639814D01*
X71577480Y-92496957D01*
X71506051Y-92211242D01*
X71506051Y-91854100D01*
X71577480Y-91568385D01*
X71648908Y-91425528D01*
X71720337Y-91354100D01*
X71863194Y-91282671D01*
X73006051Y-92211242D02*
X74148908Y-92211242D01*
X75148908Y-91282671D02*
X75291765Y-91282671D01*
X75434622Y-91354100D01*
X75506051Y-91425528D01*
X75577480Y-91568385D01*
X75648908Y-91854100D01*
X75648908Y-92211242D01*
X75577480Y-92496957D01*
X75506051Y-92639814D01*
X75434622Y-92711242D01*
X75291765Y-92782671D01*
X75148908Y-92782671D01*
X75006051Y-92711242D01*
X74934622Y-92639814D01*
X74863194Y-92496957D01*
X74791765Y-92211242D01*
X74791765Y-91854100D01*
X74863194Y-91568385D01*
X74934622Y-91425528D01*
X75006051Y-91354100D01*
X75148908Y-91282671D01*
X77006051Y-91282671D02*
X76291765Y-91282671D01*
X76220337Y-91996957D01*
X76291765Y-91925528D01*
X76434622Y-91854100D01*
X76791765Y-91854100D01*
X76934622Y-91925528D01*
X77006051Y-91996957D01*
X77077480Y-92139814D01*
X77077480Y-92496957D01*
X77006051Y-92639814D01*
X76934622Y-92711242D01*
X76791765Y-92782671D01*
X76434622Y-92782671D01*
X76291765Y-92711242D01*
X76220337Y-92639814D01*
X77720337Y-92211242D02*
X78863194Y-92211242D01*
X80363194Y-92782671D02*
X79506051Y-92782671D01*
X79934622Y-92782671D02*
X79934622Y-91282671D01*
X79791765Y-91496957D01*
X79648908Y-91639814D01*
X79506051Y-91711242D01*
X80934622Y-91425528D02*
X81006051Y-91354100D01*
X81148908Y-91282671D01*
X81506051Y-91282671D01*
X81648908Y-91354100D01*
X81720337Y-91425528D01*
X81791765Y-91568385D01*
X81791765Y-91711242D01*
X81720337Y-91925528D01*
X80863194Y-92782671D01*
X81791765Y-92782671D01*
X37002480Y-93504100D02*
X145002480Y-93504100D01*
X38434622Y-95582671D02*
X38434622Y-94082671D01*
X39291765Y-95582671D02*
X38648908Y-94725528D01*
X39291765Y-94082671D02*
X38434622Y-94939814D01*
X39934622Y-95582671D02*
X39934622Y-94582671D01*
X39934622Y-94082671D02*
X39863194Y-94154100D01*
X39934622Y-94225528D01*
X40006051Y-94154100D01*
X39934622Y-94082671D01*
X39934622Y-94225528D01*
X41506051Y-95439814D02*
X41434622Y-95511242D01*
X41220337Y-95582671D01*
X41077480Y-95582671D01*
X40863194Y-95511242D01*
X40720337Y-95368385D01*
X40648908Y-95225528D01*
X40577480Y-94939814D01*
X40577480Y-94725528D01*
X40648908Y-94439814D01*
X40720337Y-94296957D01*
X40863194Y-94154100D01*
X41077480Y-94082671D01*
X41220337Y-94082671D01*
X41434622Y-94154100D01*
X41506051Y-94225528D01*
X42791765Y-95582671D02*
X42791765Y-94796957D01*
X42720337Y-94654100D01*
X42577480Y-94582671D01*
X42291765Y-94582671D01*
X42148908Y-94654100D01*
X42791765Y-95511242D02*
X42648908Y-95582671D01*
X42291765Y-95582671D01*
X42148908Y-95511242D01*
X42077480Y-95368385D01*
X42077480Y-95225528D01*
X42148908Y-95082671D01*
X42291765Y-95011242D01*
X42648908Y-95011242D01*
X42791765Y-94939814D01*
X44148908Y-95582671D02*
X44148908Y-94082671D01*
X44148908Y-95511242D02*
X44006051Y-95582671D01*
X43720337Y-95582671D01*
X43577480Y-95511242D01*
X43506051Y-95439814D01*
X43434622Y-95296957D01*
X43434622Y-94868385D01*
X43506051Y-94725528D01*
X43577480Y-94654100D01*
X43720337Y-94582671D01*
X44006051Y-94582671D01*
X44148908Y-94654100D01*
X46006051Y-94796957D02*
X46506051Y-94796957D01*
X46720337Y-95582671D02*
X46006051Y-95582671D01*
X46006051Y-94082671D01*
X46720337Y-94082671D01*
X47363194Y-95439814D02*
X47434622Y-95511242D01*
X47363194Y-95582671D01*
X47291765Y-95511242D01*
X47363194Y-95439814D01*
X47363194Y-95582671D01*
X48077480Y-95582671D02*
X48077480Y-94082671D01*
X48434622Y-94082671D01*
X48648908Y-94154100D01*
X48791765Y-94296957D01*
X48863194Y-94439814D01*
X48934622Y-94725528D01*
X48934622Y-94939814D01*
X48863194Y-95225528D01*
X48791765Y-95368385D01*
X48648908Y-95511242D01*
X48434622Y-95582671D01*
X48077480Y-95582671D01*
X49577480Y-95439814D02*
X49648908Y-95511242D01*
X49577480Y-95582671D01*
X49506051Y-95511242D01*
X49577480Y-95439814D01*
X49577480Y-95582671D01*
X50220337Y-95154100D02*
X50934622Y-95154100D01*
X50077480Y-95582671D02*
X50577480Y-94082671D01*
X51077480Y-95582671D01*
X51577480Y-95439814D02*
X51648908Y-95511242D01*
X51577480Y-95582671D01*
X51506051Y-95511242D01*
X51577480Y-95439814D01*
X51577480Y-95582671D01*
X54577480Y-95582671D02*
X54577480Y-94082671D01*
X54720337Y-95011242D02*
X55148908Y-95582671D01*
X55148908Y-94582671D02*
X54577480Y-95154100D01*
X55791765Y-95582671D02*
X55791765Y-94582671D01*
X55791765Y-94082671D02*
X55720337Y-94154100D01*
X55791765Y-94225528D01*
X55863194Y-94154100D01*
X55791765Y-94082671D01*
X55791765Y-94225528D01*
X57148908Y-95511242D02*
X57006051Y-95582671D01*
X56720337Y-95582671D01*
X56577480Y-95511242D01*
X56506051Y-95439814D01*
X56434622Y-95296957D01*
X56434622Y-94868385D01*
X56506051Y-94725528D01*
X56577480Y-94654100D01*
X56720337Y-94582671D01*
X57006051Y-94582671D01*
X57148908Y-94654100D01*
X58434622Y-95582671D02*
X58434622Y-94796957D01*
X58363194Y-94654100D01*
X58220337Y-94582671D01*
X57934622Y-94582671D01*
X57791765Y-94654100D01*
X58434622Y-95511242D02*
X58291765Y-95582671D01*
X57934622Y-95582671D01*
X57791765Y-95511242D01*
X57720337Y-95368385D01*
X57720337Y-95225528D01*
X57791765Y-95082671D01*
X57934622Y-95011242D01*
X58291765Y-95011242D01*
X58434622Y-94939814D01*
X59791765Y-95582671D02*
X59791765Y-94082671D01*
X59791765Y-95511242D02*
X59648908Y-95582671D01*
X59363194Y-95582671D01*
X59220337Y-95511242D01*
X59148908Y-95439814D01*
X59077480Y-95296957D01*
X59077480Y-94868385D01*
X59148908Y-94725528D01*
X59220337Y-94654100D01*
X59363194Y-94582671D01*
X59648908Y-94582671D01*
X59791765Y-94654100D01*
X62363194Y-94082671D02*
X61648908Y-94082671D01*
X61577480Y-94796957D01*
X61648908Y-94725528D01*
X61791765Y-94654100D01*
X62148908Y-94654100D01*
X62291765Y-94725528D01*
X62363194Y-94796957D01*
X62434622Y-94939814D01*
X62434622Y-95296957D01*
X62363194Y-95439814D01*
X62291765Y-95511242D01*
X62148908Y-95582671D01*
X61791765Y-95582671D01*
X61648908Y-95511242D01*
X61577480Y-95439814D01*
X63077480Y-95439814D02*
X63148908Y-95511242D01*
X63077480Y-95582671D01*
X63006051Y-95511242D01*
X63077480Y-95439814D01*
X63077480Y-95582671D01*
X64077480Y-94082671D02*
X64220337Y-94082671D01*
X64363194Y-94154100D01*
X64434622Y-94225528D01*
X64506051Y-94368385D01*
X64577480Y-94654100D01*
X64577480Y-95011242D01*
X64506051Y-95296957D01*
X64434622Y-95439814D01*
X64363194Y-95511242D01*
X64220337Y-95582671D01*
X64077480Y-95582671D01*
X63934622Y-95511242D01*
X63863194Y-95439814D01*
X63791765Y-95296957D01*
X63720337Y-95011242D01*
X63720337Y-94654100D01*
X63791765Y-94368385D01*
X63863194Y-94225528D01*
X63934622Y-94154100D01*
X64077480Y-94082671D01*
X65220337Y-95439814D02*
X65291765Y-95511242D01*
X65220337Y-95582671D01*
X65148908Y-95511242D01*
X65220337Y-95439814D01*
X65220337Y-95582671D01*
X65863194Y-94225528D02*
X65934622Y-94154100D01*
X66077480Y-94082671D01*
X66434622Y-94082671D01*
X66577480Y-94154100D01*
X66648908Y-94225528D01*
X66720337Y-94368385D01*
X66720337Y-94511242D01*
X66648908Y-94725528D01*
X65791765Y-95582671D01*
X66720337Y-95582671D01*
X67363194Y-95011242D02*
X68506051Y-95011242D01*
X67934622Y-95582671D02*
X67934622Y-94439814D01*
X69863194Y-95582671D02*
X69863194Y-94082671D01*
X69863194Y-95511242D02*
X69720337Y-95582671D01*
X69434622Y-95582671D01*
X69291765Y-95511242D01*
X69220337Y-95439814D01*
X69148908Y-95296957D01*
X69148908Y-94868385D01*
X69220337Y-94725528D01*
X69291765Y-94654100D01*
X69434622Y-94582671D01*
X69720337Y-94582671D01*
X69863194Y-94654100D01*
X70363194Y-94582671D02*
X70934622Y-94582671D01*
X70577480Y-95582671D02*
X70577480Y-94296957D01*
X70648908Y-94154100D01*
X70791765Y-94082671D01*
X70934622Y-94082671D01*
X71363194Y-95511242D02*
X71506051Y-95582671D01*
X71791765Y-95582671D01*
X71934622Y-95511242D01*
X72006051Y-95368385D01*
X72006051Y-95296957D01*
X71934622Y-95154100D01*
X71791765Y-95082671D01*
X71577480Y-95082671D01*
X71434622Y-95011242D01*
X71363194Y-94868385D01*
X71363194Y-94796957D01*
X71434622Y-94654100D01*
X71577480Y-94582671D01*
X71791765Y-94582671D01*
X71934622Y-94654100D01*
X73291765Y-94582671D02*
X73291765Y-95796957D01*
X73220337Y-95939814D01*
X73148908Y-96011242D01*
X73006051Y-96082671D01*
X72791765Y-96082671D01*
X72648908Y-96011242D01*
X73291765Y-95511242D02*
X73148908Y-95582671D01*
X72863194Y-95582671D01*
X72720337Y-95511242D01*
X72648908Y-95439814D01*
X72577480Y-95296957D01*
X72577480Y-94868385D01*
X72648908Y-94725528D01*
X72720337Y-94654100D01*
X72863194Y-94582671D01*
X73148908Y-94582671D01*
X73291765Y-94654100D01*
X74791765Y-95582671D02*
X73934622Y-95582671D01*
X74363194Y-95582671D02*
X74363194Y-94082671D01*
X74220337Y-94296957D01*
X74077480Y-94439814D01*
X73934622Y-94511242D01*
X75434622Y-95011242D02*
X76577480Y-95011242D01*
X78077480Y-95582671D02*
X77220337Y-95582671D01*
X77648908Y-95582671D02*
X77648908Y-94082671D01*
X77506051Y-94296957D01*
X77363194Y-94439814D01*
X77220337Y-94511242D01*
X37002480Y-90504100D02*
X145002480Y-90504100D01*
D11*
X124411765Y-92782671D02*
X123911765Y-92068385D01*
X123554622Y-92782671D02*
X123554622Y-91282671D01*
X124126051Y-91282671D01*
X124268908Y-91354100D01*
X124340337Y-91425528D01*
X124411765Y-91568385D01*
X124411765Y-91782671D01*
X124340337Y-91925528D01*
X124268908Y-91996957D01*
X124126051Y-92068385D01*
X123554622Y-92068385D01*
X125626051Y-92711242D02*
X125483194Y-92782671D01*
X125197480Y-92782671D01*
X125054622Y-92711242D01*
X124983194Y-92568385D01*
X124983194Y-91996957D01*
X125054622Y-91854100D01*
X125197480Y-91782671D01*
X125483194Y-91782671D01*
X125626051Y-91854100D01*
X125697480Y-91996957D01*
X125697480Y-92139814D01*
X124983194Y-92282671D01*
X126197480Y-91782671D02*
X126554622Y-92782671D01*
X126911765Y-91782671D01*
X127483194Y-92639814D02*
X127554622Y-92711242D01*
X127483194Y-92782671D01*
X127411765Y-92711242D01*
X127483194Y-92639814D01*
X127483194Y-92782671D01*
X127483194Y-91854100D02*
X127554622Y-91925528D01*
X127483194Y-91996957D01*
X127411765Y-91925528D01*
X127483194Y-91854100D01*
X127483194Y-91996957D01*
X129268908Y-91425528D02*
X129340337Y-91354100D01*
X129483194Y-91282671D01*
X129840337Y-91282671D01*
X129983194Y-91354100D01*
X130054622Y-91425528D01*
X130126051Y-91568385D01*
X130126051Y-91711242D01*
X130054622Y-91925528D01*
X129197480Y-92782671D01*
X130126051Y-92782671D01*
X130768908Y-92639814D02*
X130840337Y-92711242D01*
X130768908Y-92782671D01*
X130697480Y-92711242D01*
X130768908Y-92639814D01*
X130768908Y-92782671D01*
X132268908Y-92782671D02*
X131411765Y-92782671D01*
X131840337Y-92782671D02*
X131840337Y-91282671D01*
X131697480Y-91496957D01*
X131554622Y-91639814D01*
X131411765Y-91711242D01*
D10*
X38363194Y-92711242D02*
X38577480Y-92782671D01*
X38934622Y-92782671D01*
X39077480Y-92711242D01*
X39148908Y-92639814D01*
X39220337Y-92496957D01*
X39220337Y-92354100D01*
X39148908Y-92211242D01*
X39077480Y-92139814D01*
X38934622Y-92068385D01*
X38648908Y-91996957D01*
X38506051Y-91925528D01*
X38434622Y-91854100D01*
X38363194Y-91711242D01*
X38363194Y-91568385D01*
X38434622Y-91425528D01*
X38506051Y-91354100D01*
X38648908Y-91282671D01*
X39006051Y-91282671D01*
X39220337Y-91354100D01*
X39863194Y-92782671D02*
X39863194Y-91782671D01*
X39863194Y-91282671D02*
X39791765Y-91354100D01*
X39863194Y-91425528D01*
X39934622Y-91354100D01*
X39863194Y-91282671D01*
X39863194Y-91425528D01*
X40434622Y-91782671D02*
X41220337Y-91782671D01*
X40434622Y-92782671D01*
X41220337Y-92782671D01*
X42363194Y-92711242D02*
X42220337Y-92782671D01*
X41934622Y-92782671D01*
X41791765Y-92711242D01*
X41720337Y-92568385D01*
X41720337Y-91996957D01*
X41791765Y-91854100D01*
X41934622Y-91782671D01*
X42220337Y-91782671D01*
X42363194Y-91854100D01*
X42434622Y-91996957D01*
X42434622Y-92139814D01*
X41720337Y-92282671D01*
X43077480Y-92639814D02*
X43148908Y-92711242D01*
X43077480Y-92782671D01*
X43006051Y-92711242D01*
X43077480Y-92639814D01*
X43077480Y-92782671D01*
X43077480Y-91854100D02*
X43148908Y-91925528D01*
X43077480Y-91996957D01*
X43006051Y-91925528D01*
X43077480Y-91854100D01*
X43077480Y-91996957D01*
X44863194Y-92354100D02*
X45577480Y-92354100D01*
X44720337Y-92782671D02*
X45220337Y-91282671D01*
X45720337Y-92782671D01*
X46863194Y-91782671D02*
X46863194Y-92782671D01*
X46506051Y-91211242D02*
X46148908Y-92282671D01*
X47077480Y-92282671D01*
X123434622Y-95582671D02*
X123434622Y-94082671D01*
X124791765Y-95582671D02*
X124791765Y-94082671D01*
X124791765Y-95511242D02*
X124648908Y-95582671D01*
X124363194Y-95582671D01*
X124220337Y-95511242D01*
X124148908Y-95439814D01*
X124077480Y-95296957D01*
X124077480Y-94868385D01*
X124148908Y-94725528D01*
X124220337Y-94654100D01*
X124363194Y-94582671D01*
X124648908Y-94582671D01*
X124791765Y-94654100D01*
X125506051Y-95439814D02*
X125577480Y-95511242D01*
X125506051Y-95582671D01*
X125434622Y-95511242D01*
X125506051Y-95439814D01*
X125506051Y-95582671D01*
X125506051Y-94654100D02*
X125577480Y-94725528D01*
X125506051Y-94796957D01*
X125434622Y-94725528D01*
X125506051Y-94654100D01*
X125506051Y-94796957D01*
X128148908Y-95582671D02*
X127291765Y-95582671D01*
X127720337Y-95582671D02*
X127720337Y-94082671D01*
X127577480Y-94296957D01*
X127434622Y-94439814D01*
X127291765Y-94511242D01*
X129863194Y-94011242D02*
X128577480Y-95939814D01*
X131148908Y-95582671D02*
X130291765Y-95582671D01*
X130720337Y-95582671D02*
X130720337Y-94082671D01*
X130577480Y-94296957D01*
X130434622Y-94439814D01*
X130291765Y-94511242D01*
X37002480Y-86504100D02*
X145002480Y-86504100D01*
D12*
X38714860Y-87208861D02*
X39857718Y-87208861D01*
X39036289Y-89208861D02*
X39286289Y-87208861D01*
X40274384Y-89208861D02*
X40441051Y-87875528D01*
X40524384Y-87208861D02*
X40417241Y-87304100D01*
X40500575Y-87399338D01*
X40607718Y-87304100D01*
X40524384Y-87208861D01*
X40500575Y-87399338D01*
X41107718Y-87875528D02*
X41869622Y-87875528D01*
X41476765Y-87208861D02*
X41262480Y-88923147D01*
X41333908Y-89113623D01*
X41512480Y-89208861D01*
X41702956Y-89208861D01*
X42655337Y-89208861D02*
X42476765Y-89113623D01*
X42405337Y-88923147D01*
X42619622Y-87208861D01*
X44191051Y-89113623D02*
X43988670Y-89208861D01*
X43607718Y-89208861D01*
X43429146Y-89113623D01*
X43357718Y-88923147D01*
X43452956Y-88161242D01*
X43572003Y-87970766D01*
X43774384Y-87875528D01*
X44155337Y-87875528D01*
X44333908Y-87970766D01*
X44405337Y-88161242D01*
X44381527Y-88351719D01*
X43405337Y-88542195D01*
X45155337Y-89018385D02*
X45238670Y-89113623D01*
X45131527Y-89208861D01*
X45048194Y-89113623D01*
X45155337Y-89018385D01*
X45131527Y-89208861D01*
X45286289Y-87970766D02*
X45369622Y-88066004D01*
X45262480Y-88161242D01*
X45179146Y-88066004D01*
X45286289Y-87970766D01*
X45262480Y-88161242D01*
X48774384Y-89018385D02*
X48667241Y-89113623D01*
X48369622Y-89208861D01*
X48179146Y-89208861D01*
X47905337Y-89113623D01*
X47738670Y-88923147D01*
X47667241Y-88732671D01*
X47619622Y-88351719D01*
X47655337Y-88066004D01*
X47798194Y-87685052D01*
X47917241Y-87494576D01*
X48131527Y-87304100D01*
X48429146Y-87208861D01*
X48619622Y-87208861D01*
X48893432Y-87304100D01*
X48976765Y-87399338D01*
X49607718Y-89208861D02*
X49774384Y-87875528D01*
X49726765Y-88256480D02*
X49845813Y-88066004D01*
X49952956Y-87970766D01*
X50155337Y-87875528D01*
X50345813Y-87875528D01*
X51702956Y-89208861D02*
X51833908Y-88161242D01*
X51762480Y-87970766D01*
X51583908Y-87875528D01*
X51202956Y-87875528D01*
X51000575Y-87970766D01*
X51714860Y-89113623D02*
X51512480Y-89208861D01*
X51036289Y-89208861D01*
X50857718Y-89113623D01*
X50786289Y-88923147D01*
X50810099Y-88732671D01*
X50929146Y-88542195D01*
X51131527Y-88446957D01*
X51607718Y-88446957D01*
X51810099Y-88351719D01*
X52631527Y-87875528D02*
X53679146Y-87875528D01*
X52464860Y-89208861D01*
X53512480Y-89208861D01*
X54250575Y-87875528D02*
X54560099Y-89208861D01*
X55202956Y-87875528D02*
X54560099Y-89208861D01*
X54310099Y-89685052D01*
X54202956Y-89780290D01*
X54000575Y-89875528D01*
X55679146Y-87875528D02*
X56441051Y-87875528D01*
X55798194Y-89208861D02*
X56012480Y-87494576D01*
X56131527Y-87304100D01*
X56333908Y-87208861D01*
X56524384Y-87208861D01*
X57226765Y-89208861D02*
X57048194Y-89113623D01*
X56976765Y-88923147D01*
X57191051Y-87208861D01*
X57988670Y-89208861D02*
X58155337Y-87875528D01*
X58238670Y-87208861D02*
X58131527Y-87304100D01*
X58214860Y-87399338D01*
X58322003Y-87304100D01*
X58238670Y-87208861D01*
X58214860Y-87399338D01*
X59714860Y-89113623D02*
X59512480Y-89208861D01*
X59131527Y-89208861D01*
X58952956Y-89113623D01*
X58881527Y-88923147D01*
X58976765Y-88161242D01*
X59095813Y-87970766D01*
X59298194Y-87875528D01*
X59679146Y-87875528D01*
X59857718Y-87970766D01*
X59929146Y-88161242D01*
X59905337Y-88351719D01*
X58929146Y-88542195D01*
X63048194Y-89113623D02*
X62845813Y-89208861D01*
X62464860Y-89208861D01*
X62286289Y-89113623D01*
X62202956Y-89018385D01*
X62131527Y-88827909D01*
X62202956Y-88256480D01*
X62322003Y-88066004D01*
X62429146Y-87970766D01*
X62631527Y-87875528D01*
X63012480Y-87875528D01*
X63191051Y-87970766D01*
X64179146Y-89208861D02*
X64000575Y-89113623D01*
X63917241Y-89018385D01*
X63845813Y-88827909D01*
X63917241Y-88256480D01*
X64036289Y-88066004D01*
X64143432Y-87970766D01*
X64345813Y-87875528D01*
X64631527Y-87875528D01*
X64810099Y-87970766D01*
X64893432Y-88066004D01*
X64964860Y-88256480D01*
X64893432Y-88827909D01*
X64774384Y-89018385D01*
X64667241Y-89113623D01*
X64464860Y-89208861D01*
X64179146Y-89208861D01*
X65869622Y-87875528D02*
X65702956Y-89208861D01*
X65845813Y-88066004D02*
X65952956Y-87970766D01*
X66155337Y-87875528D01*
X66441051Y-87875528D01*
X66619622Y-87970766D01*
X66691051Y-88161242D01*
X66560099Y-89208861D01*
X67393432Y-87875528D02*
X68155337Y-87875528D01*
X67762480Y-87208861D02*
X67548194Y-88923147D01*
X67619622Y-89113623D01*
X67798194Y-89208861D01*
X67988670Y-89208861D01*
X68655337Y-89208861D02*
X68822003Y-87875528D01*
X68774384Y-88256480D02*
X68893432Y-88066004D01*
X69000575Y-87970766D01*
X69202956Y-87875528D01*
X69393432Y-87875528D01*
X70179146Y-89208861D02*
X70000575Y-89113623D01*
X69917241Y-89018385D01*
X69845813Y-88827909D01*
X69917241Y-88256480D01*
X70036289Y-88066004D01*
X70143432Y-87970766D01*
X70345813Y-87875528D01*
X70631527Y-87875528D01*
X70810099Y-87970766D01*
X70893432Y-88066004D01*
X70964860Y-88256480D01*
X70893432Y-88827909D01*
X70774384Y-89018385D01*
X70667241Y-89113623D01*
X70464860Y-89208861D01*
X70179146Y-89208861D01*
X71988670Y-89208861D02*
X71810099Y-89113623D01*
X71738670Y-88923147D01*
X71952956Y-87208861D01*
X74274384Y-89208861D02*
X74524384Y-87208861D01*
X74429146Y-87970766D02*
X74631527Y-87875528D01*
X75012480Y-87875528D01*
X75191051Y-87970766D01*
X75274384Y-88066004D01*
X75345813Y-88256480D01*
X75274384Y-88827909D01*
X75155337Y-89018385D01*
X75048194Y-89113623D01*
X74845813Y-89208861D01*
X74464860Y-89208861D01*
X74286289Y-89113623D01*
X76369622Y-89208861D02*
X76191051Y-89113623D01*
X76107718Y-89018385D01*
X76036289Y-88827909D01*
X76107718Y-88256480D01*
X76226765Y-88066004D01*
X76333908Y-87970766D01*
X76536289Y-87875528D01*
X76822003Y-87875528D01*
X77000575Y-87970766D01*
X77083908Y-88066004D01*
X77155337Y-88256480D01*
X77083908Y-88827909D01*
X76964860Y-89018385D01*
X76857718Y-89113623D01*
X76655337Y-89208861D01*
X76369622Y-89208861D01*
X78750575Y-89208861D02*
X78881527Y-88161242D01*
X78810099Y-87970766D01*
X78631527Y-87875528D01*
X78250575Y-87875528D01*
X78048194Y-87970766D01*
X78762480Y-89113623D02*
X78560099Y-89208861D01*
X78083908Y-89208861D01*
X77905337Y-89113623D01*
X77833908Y-88923147D01*
X77857718Y-88732671D01*
X77976765Y-88542195D01*
X78179146Y-88446957D01*
X78655337Y-88446957D01*
X78857718Y-88351719D01*
X79702956Y-89208861D02*
X79869622Y-87875528D01*
X79822003Y-88256480D02*
X79941051Y-88066004D01*
X80048194Y-87970766D01*
X80250575Y-87875528D01*
X80441051Y-87875528D01*
X81798194Y-89208861D02*
X82048194Y-87208861D01*
X81810099Y-89113623D02*
X81607718Y-89208861D01*
X81226765Y-89208861D01*
X81048194Y-89113623D01*
X80964860Y-89018385D01*
X80893432Y-88827909D01*
X80964860Y-88256480D01*
X81083908Y-88066004D01*
X81191051Y-87970766D01*
X81393432Y-87875528D01*
X81774384Y-87875528D01*
X81952956Y-87970766D01*
D10*
X38934622Y-84596957D02*
X38434622Y-84596957D01*
X38434622Y-85382671D02*
X38434622Y-83882671D01*
X39148908Y-83882671D01*
X39720337Y-85382671D02*
X39720337Y-84382671D01*
X39720337Y-83882671D02*
X39648908Y-83954100D01*
X39720337Y-84025528D01*
X39791765Y-83954100D01*
X39720337Y-83882671D01*
X39720337Y-84025528D01*
X40648908Y-85382671D02*
X40506051Y-85311242D01*
X40434622Y-85168385D01*
X40434622Y-83882671D01*
X41791765Y-85311242D02*
X41648908Y-85382671D01*
X41363194Y-85382671D01*
X41220337Y-85311242D01*
X41148908Y-85168385D01*
X41148908Y-84596957D01*
X41220337Y-84454100D01*
X41363194Y-84382671D01*
X41648908Y-84382671D01*
X41791765Y-84454100D01*
X41863194Y-84596957D01*
X41863194Y-84739814D01*
X41148908Y-84882671D01*
X42506051Y-85239814D02*
X42577480Y-85311242D01*
X42506051Y-85382671D01*
X42434622Y-85311242D01*
X42506051Y-85239814D01*
X42506051Y-85382671D01*
X42506051Y-84454100D02*
X42577480Y-84525528D01*
X42506051Y-84596957D01*
X42434622Y-84525528D01*
X42506051Y-84454100D01*
X42506051Y-84596957D01*
X45220337Y-85239814D02*
X45148908Y-85311242D01*
X44934622Y-85382671D01*
X44791765Y-85382671D01*
X44577480Y-85311242D01*
X44434622Y-85168385D01*
X44363194Y-85025528D01*
X44291765Y-84739814D01*
X44291765Y-84525528D01*
X44363194Y-84239814D01*
X44434622Y-84096957D01*
X44577480Y-83954100D01*
X44791765Y-83882671D01*
X44934622Y-83882671D01*
X45148908Y-83954100D01*
X45220337Y-84025528D01*
X45863194Y-85382671D02*
X45863194Y-84382671D01*
X45863194Y-84668385D02*
X45934622Y-84525528D01*
X46006051Y-84454100D01*
X46148908Y-84382671D01*
X46291765Y-84382671D01*
X47434622Y-85382671D02*
X47434622Y-84596957D01*
X47363194Y-84454100D01*
X47220337Y-84382671D01*
X46934622Y-84382671D01*
X46791765Y-84454100D01*
X47434622Y-85311242D02*
X47291765Y-85382671D01*
X46934622Y-85382671D01*
X46791765Y-85311242D01*
X46720337Y-85168385D01*
X46720337Y-85025528D01*
X46791765Y-84882671D01*
X46934622Y-84811242D01*
X47291765Y-84811242D01*
X47434622Y-84739814D01*
X48006051Y-84382671D02*
X48791765Y-84382671D01*
X48006051Y-85382671D01*
X48791765Y-85382671D01*
X49220337Y-84382671D02*
X49577480Y-85382671D01*
X49934622Y-84382671D02*
X49577480Y-85382671D01*
X49434622Y-85739814D01*
X49363194Y-85811242D01*
X49220337Y-85882671D01*
X50291765Y-84382671D02*
X50863194Y-84382671D01*
X50506051Y-85382671D02*
X50506051Y-84096957D01*
X50577480Y-83954100D01*
X50720337Y-83882671D01*
X50863194Y-83882671D01*
X51577480Y-85382671D02*
X51434622Y-85311242D01*
X51363194Y-85168385D01*
X51363194Y-83882671D01*
X52148908Y-85382671D02*
X52148908Y-84382671D01*
X52148908Y-83882671D02*
X52077480Y-83954100D01*
X52148908Y-84025528D01*
X52220337Y-83954100D01*
X52148908Y-83882671D01*
X52148908Y-84025528D01*
X53434622Y-85311242D02*
X53291765Y-85382671D01*
X53006051Y-85382671D01*
X52863194Y-85311242D01*
X52791765Y-85168385D01*
X52791765Y-84596957D01*
X52863194Y-84454100D01*
X53006051Y-84382671D01*
X53291765Y-84382671D01*
X53434622Y-84454100D01*
X53506051Y-84596957D01*
X53506051Y-84739814D01*
X52791765Y-84882671D01*
X55934622Y-85311242D02*
X55791765Y-85382671D01*
X55506051Y-85382671D01*
X55363194Y-85311242D01*
X55291765Y-85239814D01*
X55220337Y-85096957D01*
X55220337Y-84668385D01*
X55291765Y-84525528D01*
X55363194Y-84454100D01*
X55506051Y-84382671D01*
X55791765Y-84382671D01*
X55934622Y-84454100D01*
X56791765Y-85382671D02*
X56648908Y-85311242D01*
X56577480Y-85239814D01*
X56506051Y-85096957D01*
X56506051Y-84668385D01*
X56577480Y-84525528D01*
X56648908Y-84454100D01*
X56791765Y-84382671D01*
X57006051Y-84382671D01*
X57148908Y-84454100D01*
X57220337Y-84525528D01*
X57291765Y-84668385D01*
X57291765Y-85096957D01*
X57220337Y-85239814D01*
X57148908Y-85311242D01*
X57006051Y-85382671D01*
X56791765Y-85382671D01*
X57934622Y-84382671D02*
X57934622Y-85382671D01*
X57934622Y-84525528D02*
X58006051Y-84454100D01*
X58148908Y-84382671D01*
X58363194Y-84382671D01*
X58506051Y-84454100D01*
X58577480Y-84596957D01*
X58577480Y-85382671D01*
X59077480Y-84382671D02*
X59648908Y-84382671D01*
X59291765Y-83882671D02*
X59291765Y-85168385D01*
X59363194Y-85311242D01*
X59506051Y-85382671D01*
X59648908Y-85382671D01*
X60363194Y-85382671D02*
X60220337Y-85311242D01*
X60148908Y-85239814D01*
X60077480Y-85096957D01*
X60077480Y-84668385D01*
X60148908Y-84525528D01*
X60220337Y-84454100D01*
X60363194Y-84382671D01*
X60577480Y-84382671D01*
X60720337Y-84454100D01*
X60791765Y-84525528D01*
X60863194Y-84668385D01*
X60863194Y-85096957D01*
X60791765Y-85239814D01*
X60720337Y-85311242D01*
X60577480Y-85382671D01*
X60363194Y-85382671D01*
X61720337Y-85382671D02*
X61577480Y-85311242D01*
X61506051Y-85168385D01*
X61506051Y-83882671D01*
X63434622Y-85382671D02*
X63434622Y-83882671D01*
X63434622Y-84454100D02*
X63577480Y-84382671D01*
X63863194Y-84382671D01*
X64006051Y-84454100D01*
X64077480Y-84525528D01*
X64148908Y-84668385D01*
X64148908Y-85096957D01*
X64077480Y-85239814D01*
X64006051Y-85311242D01*
X63863194Y-85382671D01*
X63577480Y-85382671D01*
X63434622Y-85311242D01*
X65006051Y-85382671D02*
X64863194Y-85311242D01*
X64791765Y-85239814D01*
X64720337Y-85096957D01*
X64720337Y-84668385D01*
X64791765Y-84525528D01*
X64863194Y-84454100D01*
X65006051Y-84382671D01*
X65220337Y-84382671D01*
X65363194Y-84454100D01*
X65434622Y-84525528D01*
X65506051Y-84668385D01*
X65506051Y-85096957D01*
X65434622Y-85239814D01*
X65363194Y-85311242D01*
X65220337Y-85382671D01*
X65006051Y-85382671D01*
X66791765Y-85382671D02*
X66791765Y-84596957D01*
X66720337Y-84454100D01*
X66577480Y-84382671D01*
X66291765Y-84382671D01*
X66148908Y-84454100D01*
X66791765Y-85311242D02*
X66648908Y-85382671D01*
X66291765Y-85382671D01*
X66148908Y-85311242D01*
X66077480Y-85168385D01*
X66077480Y-85025528D01*
X66148908Y-84882671D01*
X66291765Y-84811242D01*
X66648908Y-84811242D01*
X66791765Y-84739814D01*
X67506051Y-85382671D02*
X67506051Y-84382671D01*
X67506051Y-84668385D02*
X67577480Y-84525528D01*
X67648908Y-84454100D01*
X67791765Y-84382671D01*
X67934622Y-84382671D01*
X69077480Y-85382671D02*
X69077480Y-83882671D01*
X69077480Y-85311242D02*
X68934622Y-85382671D01*
X68648908Y-85382671D01*
X68506051Y-85311242D01*
X68434622Y-85239814D01*
X68363194Y-85096957D01*
X68363194Y-84668385D01*
X68434622Y-84525528D01*
X68506051Y-84454100D01*
X68648908Y-84382671D01*
X68934622Y-84382671D01*
X69077480Y-84454100D01*
X69791765Y-85239814D02*
X69863194Y-85311242D01*
X69791765Y-85382671D01*
X69720337Y-85311242D01*
X69791765Y-85239814D01*
X69791765Y-85382671D01*
X70506051Y-85382671D02*
X70506051Y-83882671D01*
X70648908Y-84811242D02*
X71077480Y-85382671D01*
X71077480Y-84382671D02*
X70506051Y-84954100D01*
X71720337Y-85382671D02*
X71720337Y-84382671D01*
X71720337Y-83882671D02*
X71648908Y-83954100D01*
X71720337Y-84025528D01*
X71791765Y-83954100D01*
X71720337Y-83882671D01*
X71720337Y-84025528D01*
X73077480Y-85311242D02*
X72934622Y-85382671D01*
X72648908Y-85382671D01*
X72506051Y-85311242D01*
X72434622Y-85239814D01*
X72363194Y-85096957D01*
X72363194Y-84668385D01*
X72434622Y-84525528D01*
X72506051Y-84454100D01*
X72648908Y-84382671D01*
X72934622Y-84382671D01*
X73077480Y-84454100D01*
X74363194Y-85382671D02*
X74363194Y-84596957D01*
X74291765Y-84454100D01*
X74148908Y-84382671D01*
X73863194Y-84382671D01*
X73720337Y-84454100D01*
X74363194Y-85311242D02*
X74220337Y-85382671D01*
X73863194Y-85382671D01*
X73720337Y-85311242D01*
X73648908Y-85168385D01*
X73648908Y-85025528D01*
X73720337Y-84882671D01*
X73863194Y-84811242D01*
X74220337Y-84811242D01*
X74363194Y-84739814D01*
X75720337Y-85382671D02*
X75720337Y-83882671D01*
X75720337Y-85311242D02*
X75577480Y-85382671D01*
X75291765Y-85382671D01*
X75148908Y-85311242D01*
X75077480Y-85239814D01*
X75006051Y-85096957D01*
X75006051Y-84668385D01*
X75077480Y-84525528D01*
X75148908Y-84454100D01*
X75291765Y-84382671D01*
X75577480Y-84382671D01*
X75720337Y-84454100D01*
X76077480Y-85525528D02*
X77220337Y-85525528D01*
X77577480Y-84382671D02*
X77577480Y-85882671D01*
X77577480Y-84454100D02*
X77720337Y-84382671D01*
X78006051Y-84382671D01*
X78148908Y-84454100D01*
X78220337Y-84525528D01*
X78291765Y-84668385D01*
X78291765Y-85096957D01*
X78220337Y-85239814D01*
X78148908Y-85311242D01*
X78006051Y-85382671D01*
X77720337Y-85382671D01*
X77577480Y-85311242D01*
X79577480Y-85311242D02*
X79434622Y-85382671D01*
X79148908Y-85382671D01*
X79006051Y-85311242D01*
X78934622Y-85239814D01*
X78863194Y-85096957D01*
X78863194Y-84668385D01*
X78934622Y-84525528D01*
X79006051Y-84454100D01*
X79148908Y-84382671D01*
X79434622Y-84382671D01*
X79577480Y-84454100D01*
X80220337Y-85382671D02*
X80220337Y-83882671D01*
X80220337Y-84454100D02*
X80363194Y-84382671D01*
X80648908Y-84382671D01*
X80791765Y-84454100D01*
X80863194Y-84525528D01*
X80934622Y-84668385D01*
X80934622Y-85096957D01*
X80863194Y-85239814D01*
X80791765Y-85311242D01*
X80648908Y-85382671D01*
X80363194Y-85382671D01*
X80220337Y-85311242D01*
X37002480Y-80504100D02*
X145002480Y-80504100D01*
X38363194Y-82611242D02*
X38577480Y-82682671D01*
X38934622Y-82682671D01*
X39077480Y-82611242D01*
X39148908Y-82539814D01*
X39220337Y-82396957D01*
X39220337Y-82254100D01*
X39148908Y-82111242D01*
X39077480Y-82039814D01*
X38934622Y-81968385D01*
X38648908Y-81896957D01*
X38506051Y-81825528D01*
X38434622Y-81754100D01*
X38363194Y-81611242D01*
X38363194Y-81468385D01*
X38434622Y-81325528D01*
X38506051Y-81254100D01*
X38648908Y-81182671D01*
X39006051Y-81182671D01*
X39220337Y-81254100D01*
X39863194Y-82682671D02*
X39863194Y-81182671D01*
X40506051Y-82682671D02*
X40506051Y-81896957D01*
X40434622Y-81754100D01*
X40291765Y-81682671D01*
X40077480Y-81682671D01*
X39934622Y-81754100D01*
X39863194Y-81825528D01*
X41791765Y-82611242D02*
X41648908Y-82682671D01*
X41363194Y-82682671D01*
X41220337Y-82611242D01*
X41148908Y-82468385D01*
X41148908Y-81896957D01*
X41220337Y-81754100D01*
X41363194Y-81682671D01*
X41648908Y-81682671D01*
X41791765Y-81754100D01*
X41863194Y-81896957D01*
X41863194Y-82039814D01*
X41148908Y-82182671D01*
X43077480Y-82611242D02*
X42934622Y-82682671D01*
X42648908Y-82682671D01*
X42506051Y-82611242D01*
X42434622Y-82468385D01*
X42434622Y-81896957D01*
X42506051Y-81754100D01*
X42648908Y-81682671D01*
X42934622Y-81682671D01*
X43077480Y-81754100D01*
X43148908Y-81896957D01*
X43148908Y-82039814D01*
X42434622Y-82182671D01*
X43577480Y-81682671D02*
X44148908Y-81682671D01*
X43791765Y-81182671D02*
X43791765Y-82468385D01*
X43863194Y-82611242D01*
X44006051Y-82682671D01*
X44148908Y-82682671D01*
X44648908Y-82539814D02*
X44720337Y-82611242D01*
X44648908Y-82682671D01*
X44577480Y-82611242D01*
X44648908Y-82539814D01*
X44648908Y-82682671D01*
X44648908Y-81754100D02*
X44720337Y-81825528D01*
X44648908Y-81896957D01*
X44577480Y-81825528D01*
X44648908Y-81754100D01*
X44648908Y-81896957D01*
D11*
X39054622Y-78896957D02*
X39268908Y-78968385D01*
X39340337Y-79039814D01*
X39411765Y-79182671D01*
X39411765Y-79396957D01*
X39340337Y-79539814D01*
X39268908Y-79611242D01*
X39126051Y-79682671D01*
X38554622Y-79682671D01*
X38554622Y-78182671D01*
X39054622Y-78182671D01*
X39197480Y-78254100D01*
X39268908Y-78325528D01*
X39340337Y-78468385D01*
X39340337Y-78611242D01*
X39268908Y-78754100D01*
X39197480Y-78825528D01*
X39054622Y-78896957D01*
X38554622Y-78896957D01*
X40054622Y-79682671D02*
X40054622Y-78682671D01*
X40054622Y-78182671D02*
X39983194Y-78254100D01*
X40054622Y-78325528D01*
X40126051Y-78254100D01*
X40054622Y-78182671D01*
X40054622Y-78325528D01*
X40554622Y-78682671D02*
X41126051Y-78682671D01*
X40768908Y-78182671D02*
X40768908Y-79468385D01*
X40840337Y-79611242D01*
X40983194Y-79682671D01*
X41126051Y-79682671D01*
X42268908Y-79611242D02*
X42126051Y-79682671D01*
X41840337Y-79682671D01*
X41697480Y-79611242D01*
X41626051Y-79539814D01*
X41554622Y-79396957D01*
X41554622Y-78968385D01*
X41626051Y-78825528D01*
X41697480Y-78754100D01*
X41840337Y-78682671D01*
X42126051Y-78682671D01*
X42268908Y-78754100D01*
X42911765Y-79682671D02*
X42911765Y-78682671D01*
X42911765Y-78968385D02*
X42983194Y-78825528D01*
X43054622Y-78754100D01*
X43197480Y-78682671D01*
X43340337Y-78682671D01*
X44483194Y-79682671D02*
X44483194Y-78896957D01*
X44411765Y-78754100D01*
X44268908Y-78682671D01*
X43983194Y-78682671D01*
X43840337Y-78754100D01*
X44483194Y-79611242D02*
X44340337Y-79682671D01*
X43983194Y-79682671D01*
X43840337Y-79611242D01*
X43768908Y-79468385D01*
X43768908Y-79325528D01*
X43840337Y-79182671D01*
X43983194Y-79111242D01*
X44340337Y-79111242D01*
X44483194Y-79039814D01*
X45054622Y-78682671D02*
X45840337Y-78682671D01*
X45054622Y-79682671D01*
X45840337Y-79682671D01*
X46983194Y-79611242D02*
X46840337Y-79682671D01*
X46554622Y-79682671D01*
X46411765Y-79611242D01*
X46340337Y-79468385D01*
X46340337Y-78896957D01*
X46411765Y-78754100D01*
X46554622Y-78682671D01*
X46840337Y-78682671D01*
X46983194Y-78754100D01*
X47054622Y-78896957D01*
X47054622Y-79039814D01*
X46340337Y-79182671D01*
X48768908Y-79254100D02*
X49483194Y-79254100D01*
X48626051Y-79682671D02*
X49126051Y-78182671D01*
X49626051Y-79682671D01*
X50626051Y-78896957D02*
X50840337Y-78968385D01*
X50911765Y-79039814D01*
X50983194Y-79182671D01*
X50983194Y-79396957D01*
X50911765Y-79539814D01*
X50840337Y-79611242D01*
X50697480Y-79682671D01*
X50126051Y-79682671D01*
X50126051Y-78182671D01*
X50626051Y-78182671D01*
X50768908Y-78254100D01*
X50840337Y-78325528D01*
X50911765Y-78468385D01*
X50911765Y-78611242D01*
X50840337Y-78754100D01*
X50768908Y-78825528D01*
X50626051Y-78896957D01*
X50126051Y-78896957D01*
X53197480Y-80254100D02*
X53126051Y-80182671D01*
X52983194Y-79968385D01*
X52911765Y-79825528D01*
X52840337Y-79611242D01*
X52768908Y-79254100D01*
X52768908Y-78968385D01*
X52840337Y-78611242D01*
X52911765Y-78396957D01*
X52983194Y-78254100D01*
X53126051Y-78039814D01*
X53197480Y-77968385D01*
X54626051Y-79539814D02*
X54554622Y-79611242D01*
X54340337Y-79682671D01*
X54197480Y-79682671D01*
X53983194Y-79611242D01*
X53840337Y-79468385D01*
X53768908Y-79325528D01*
X53697480Y-79039814D01*
X53697480Y-78825528D01*
X53768908Y-78539814D01*
X53840337Y-78396957D01*
X53983194Y-78254100D01*
X54197480Y-78182671D01*
X54340337Y-78182671D01*
X54554622Y-78254100D01*
X54626051Y-78325528D01*
X56126051Y-79539814D02*
X56054622Y-79611242D01*
X55840337Y-79682671D01*
X55697480Y-79682671D01*
X55483194Y-79611242D01*
X55340337Y-79468385D01*
X55268908Y-79325528D01*
X55197480Y-79039814D01*
X55197480Y-78825528D01*
X55268908Y-78539814D01*
X55340337Y-78396957D01*
X55483194Y-78254100D01*
X55697480Y-78182671D01*
X55840337Y-78182671D01*
X56054622Y-78254100D01*
X56126051Y-78325528D01*
X58411765Y-78896957D02*
X58626051Y-78968385D01*
X58697480Y-79039814D01*
X58768908Y-79182671D01*
X58768908Y-79396957D01*
X58697480Y-79539814D01*
X58626051Y-79611242D01*
X58483194Y-79682671D01*
X57911765Y-79682671D01*
X57911765Y-78182671D01*
X58411765Y-78182671D01*
X58554622Y-78254100D01*
X58626051Y-78325528D01*
X58697480Y-78468385D01*
X58697480Y-78611242D01*
X58626051Y-78754100D01*
X58554622Y-78825528D01*
X58411765Y-78896957D01*
X57911765Y-78896957D01*
X59697480Y-78968385D02*
X59697480Y-79682671D01*
X59197480Y-78182671D02*
X59697480Y-78968385D01*
X60197480Y-78182671D01*
X60697480Y-79111242D02*
X61840337Y-79111242D01*
X62554622Y-79682671D02*
X62554622Y-78182671D01*
X63411765Y-79682671D01*
X63411765Y-78182671D01*
X64983194Y-79539814D02*
X64911765Y-79611242D01*
X64697480Y-79682671D01*
X64554622Y-79682671D01*
X64340337Y-79611242D01*
X64197480Y-79468385D01*
X64126051Y-79325528D01*
X64054622Y-79039814D01*
X64054622Y-78825528D01*
X64126051Y-78539814D01*
X64197480Y-78396957D01*
X64340337Y-78254100D01*
X64554622Y-78182671D01*
X64697480Y-78182671D01*
X64911765Y-78254100D01*
X64983194Y-78325528D01*
X65626051Y-79111242D02*
X66768908Y-79111242D01*
X67411765Y-79611242D02*
X67626051Y-79682671D01*
X67983194Y-79682671D01*
X68126051Y-79611242D01*
X68197480Y-79539814D01*
X68268908Y-79396957D01*
X68268908Y-79254100D01*
X68197480Y-79111242D01*
X68126051Y-79039814D01*
X67983194Y-78968385D01*
X67697480Y-78896957D01*
X67554622Y-78825528D01*
X67483194Y-78754100D01*
X67411765Y-78611242D01*
X67411765Y-78468385D01*
X67483194Y-78325528D01*
X67554622Y-78254100D01*
X67697480Y-78182671D01*
X68054622Y-78182671D01*
X68268908Y-78254100D01*
X68840337Y-79254100D02*
X69554622Y-79254100D01*
X68697480Y-79682671D02*
X69197480Y-78182671D01*
X69697480Y-79682671D01*
X70054622Y-80254100D02*
X70126051Y-80182671D01*
X70268908Y-79968385D01*
X70340337Y-79825528D01*
X70411765Y-79611242D01*
X70483194Y-79254100D01*
X70483194Y-78968385D01*
X70411765Y-78611242D01*
X70340337Y-78396957D01*
X70268908Y-78254100D01*
X70126051Y-78039814D01*
X70054622Y-77968385D01*
D10*
X57002480Y-90504100D02*
X57002480Y-93504100D01*
X121002480Y-90504100D02*
X121002480Y-97004100D01*
D13*
X11201762Y-4788141D02*
X11201762Y-4025658D01*
D14*
X14272622Y3421139D02*
X14272622Y4183622D01*
D15*
D14*
X13819898Y1731918D02*
X14582381Y1731918D01*
X14201140Y1350676D02*
X14201140Y2113160D01*
D15*
D16*
G04 #@! TO.C,U9*
X10728960Y-9001760D02*
X11236960Y-8493760D01*
X10728960Y-9509760D02*
X10728960Y-8493760D01*
X10728960Y-8493760D02*
X13268960Y-8493760D01*
X13268960Y-8493760D02*
X13268960Y-9509760D01*
X13268960Y-9509760D02*
X10728960Y-9509760D01*
G04 #@! TO.C,U7*
X10756900Y11493500D02*
X11264900Y12001500D01*
X11264900Y11493500D02*
X11264900Y12509500D01*
X11264900Y12509500D02*
X8724900Y12509500D01*
X8724900Y12509500D02*
X8724900Y11493500D01*
X8724900Y11493500D02*
X11264900Y11493500D01*
D17*
G04 #@! TO.C,R38*
X15935960Y-14142720D02*
X15935960Y-11856720D01*
X15935960Y-11856720D02*
X14665960Y-11856720D01*
X14665960Y-11856720D02*
X14665960Y-14142720D01*
X14665960Y-14142720D02*
X15935960Y-14142720D01*
G04 #@! TO.C,Q6*
X11719560Y8023860D02*
X11719560Y4975860D01*
X11719560Y4975860D02*
X12481560Y4975860D01*
X12481560Y4975860D02*
X12481560Y8023860D01*
X12481560Y8023860D02*
X11719560Y8023860D01*
G04 #@! TO.C,Q5*
X11376660Y-1981200D02*
X14424660Y-1981200D01*
X14424660Y-1981200D02*
X14424660Y-1219200D01*
X14424660Y-1219200D02*
X11376660Y-1219200D01*
X11376660Y-1219200D02*
X11376660Y-1981200D01*
D16*
G04 #@! TO.C,P9*
X12001500Y-5100320D02*
X13799820Y-5100320D01*
X13799820Y-5100320D02*
X13799820Y-3698240D01*
X13799820Y-3698240D02*
X12001500Y-3698240D01*
X12001500Y-3698240D02*
X12001500Y-5100320D01*
D17*
G04 #@! TO.C,R33*
X12766040Y9542780D02*
X12766040Y7256780D01*
X12766040Y7256780D02*
X14036040Y7256780D01*
X14036040Y7256780D02*
X14036040Y9542780D01*
X14036040Y9542780D02*
X12766040Y9542780D01*
D16*
G04 #@! TO.C,P2*
X7198360Y-7200900D02*
X7198360Y-5798820D01*
X7198360Y-5798820D02*
X3799840Y-5798820D01*
X3799840Y-5798820D02*
X3799840Y-7200900D01*
X3799840Y-7200900D02*
X7198360Y-7200900D01*
G04 #@! TO.C,P4*
X7198360Y-13200380D02*
X7198360Y-11798300D01*
X7198360Y-11798300D02*
X3799840Y-11798300D01*
X3799840Y-11798300D02*
X3799840Y-13200380D01*
X3799840Y-13200380D02*
X7198360Y-13200380D01*
G04 #@! TO.C,P1*
X7198360Y-4201160D02*
X7198360Y-2799080D01*
X7198360Y-2799080D02*
X3799840Y-2799080D01*
X3799840Y-2799080D02*
X3799840Y-4201160D01*
X3799840Y-4201160D02*
X7198360Y-4201160D01*
G04 #@! TO.C,P3*
X7198360Y-10200640D02*
X7198360Y-8798560D01*
X7198360Y-8798560D02*
X3799840Y-8798560D01*
X3799840Y-8798560D02*
X3799840Y-10200640D01*
X3799840Y-10200640D02*
X7198360Y-10200640D01*
D17*
G04 #@! TO.C,D4*
X5199380Y-13299440D02*
X5199380Y-14701520D01*
X6398260Y-13500100D02*
X6398260Y-13299440D01*
X6398260Y-14701520D02*
X6398260Y-14500860D01*
X4599940Y-14500860D02*
X4599940Y-14701520D01*
X4599940Y-13299440D02*
X4599940Y-13500100D01*
X4599940Y-13299440D02*
X6398260Y-13299440D01*
X6398260Y-14701520D02*
X4599940Y-14701520D01*
G04 #@! TO.C,D3*
X5199380Y-10299700D02*
X5199380Y-11701780D01*
X6398260Y-10500360D02*
X6398260Y-10299700D01*
X6398260Y-11701780D02*
X6398260Y-11501120D01*
X4599940Y-11501120D02*
X4599940Y-11701780D01*
X4599940Y-10299700D02*
X4599940Y-10500360D01*
X4599940Y-10299700D02*
X6398260Y-10299700D01*
X6398260Y-11701780D02*
X4599940Y-11701780D01*
G04 #@! TO.C,D2*
X5199380Y-7299960D02*
X5199380Y-8702040D01*
X6398260Y-7500620D02*
X6398260Y-7299960D01*
X6398260Y-8702040D02*
X6398260Y-8501380D01*
X4599940Y-8501380D02*
X4599940Y-8702040D01*
X4599940Y-7299960D02*
X4599940Y-7500620D01*
X4599940Y-7299960D02*
X6398260Y-7299960D01*
X6398260Y-8702040D02*
X4599940Y-8702040D01*
G04 #@! TO.C,D1*
X5199380Y-4300220D02*
X5199380Y-5702300D01*
X6398260Y-4500880D02*
X6398260Y-4300220D01*
X6398260Y-5702300D02*
X6398260Y-5501640D01*
X4599940Y-5501640D02*
X4599940Y-5702300D01*
X4599940Y-4300220D02*
X4599940Y-4500880D01*
X4599940Y-4300220D02*
X6398260Y-4300220D01*
X6398260Y-5702300D02*
X4599940Y-5702300D01*
G04 #@! TO.C,R32*
X10734040Y-3342640D02*
X10734040Y-1056640D01*
X10734040Y-1056640D02*
X9464040Y-1056640D01*
X9464040Y-1056640D02*
X9464040Y-3342640D01*
X9464040Y-3342640D02*
X10734040Y-3342640D01*
G04 #@! TO.C,R30*
X11742420Y436880D02*
X9456420Y436880D01*
X9456420Y436880D02*
X9456420Y-833120D01*
X9456420Y-833120D02*
X11742420Y-833120D01*
X11742420Y-833120D02*
X11742420Y436880D01*
G04 #@! TO.C,R29*
X8856980Y-6637020D02*
X11142980Y-6637020D01*
X11142980Y-6637020D02*
X11142980Y-5367020D01*
X11142980Y-5367020D02*
X8856980Y-5367020D01*
X8856980Y-5367020D02*
X8856980Y-6637020D01*
G04 #@! TO.C,R28*
X8633460Y-11645900D02*
X8633460Y-9359900D01*
X8633460Y-9359900D02*
X7363460Y-9359900D01*
X7363460Y-9359900D02*
X7363460Y-11645900D01*
X7363460Y-11645900D02*
X8633460Y-11645900D01*
G04 #@! TO.C,R23*
X10134600Y-9144000D02*
X10134600Y-6858000D01*
X10134600Y-6858000D02*
X8864600Y-6858000D01*
X8864600Y-6858000D02*
X8864600Y-9144000D01*
X8864600Y-9144000D02*
X10134600Y-9144000D01*
G04 #@! TO.C,R21*
X7366000Y-6858000D02*
X7366000Y-9144000D01*
X7366000Y-9144000D02*
X8636000Y-9144000D01*
X8636000Y-9144000D02*
X8636000Y-6858000D01*
X8636000Y-6858000D02*
X7366000Y-6858000D01*
G04 #@! TO.C,R20*
X8864600Y-9359900D02*
X8864600Y-11645900D01*
X8864600Y-11645900D02*
X10134600Y-11645900D01*
X10134600Y-11645900D02*
X10134600Y-9359900D01*
X10134600Y-9359900D02*
X8864600Y-9359900D01*
G04 #@! TO.C,R16*
X11856720Y9865360D02*
X14142720Y9865360D01*
X14142720Y9865360D02*
X14142720Y11135360D01*
X14142720Y11135360D02*
X11856720Y11135360D01*
X11856720Y11135360D02*
X11856720Y9865360D01*
G04 #@! TO.C,R17*
X10342880Y8135620D02*
X8056880Y8135620D01*
X8056880Y8135620D02*
X8056880Y6865620D01*
X8056880Y6865620D02*
X10342880Y6865620D01*
X10342880Y6865620D02*
X10342880Y8135620D01*
G04 #@! TO.C,R18*
X5857240Y11864340D02*
X8143240Y11864340D01*
X8143240Y11864340D02*
X8143240Y13134340D01*
X8143240Y13134340D02*
X5857240Y13134340D01*
X5857240Y13134340D02*
X5857240Y11864340D01*
G04 #@! TO.C,R19*
X6357620Y8364220D02*
X8643620Y8364220D01*
X8643620Y8364220D02*
X8643620Y9634220D01*
X8643620Y9634220D02*
X6357620Y9634220D01*
X6357620Y9634220D02*
X6357620Y8364220D01*
G04 #@! TO.C,C4*
X-9652000Y4127500D02*
X-9652000Y6413500D01*
X-9652000Y6413500D02*
X-10922000Y6413500D01*
X-10922000Y6413500D02*
X-10922000Y4127500D01*
X-10922000Y4127500D02*
X-9652000Y4127500D01*
G04 #@! TO.C,C41*
X8064500Y-1056640D02*
X8064500Y-3342640D01*
X8064500Y-3342640D02*
X9334500Y-3342640D01*
X9334500Y-3342640D02*
X9334500Y-1056640D01*
X9334500Y-1056640D02*
X8064500Y-1056640D01*
G04 #@! TO.C,C40*
X13195300Y-11856720D02*
X13195300Y-14142720D01*
X13195300Y-14142720D02*
X14465300Y-14142720D01*
X14465300Y-14142720D02*
X14465300Y-11856720D01*
X14465300Y-11856720D02*
X13195300Y-11856720D01*
G04 #@! TO.C,C39*
X11534140Y660400D02*
X11534140Y2946400D01*
X11534140Y2946400D02*
X10264140Y2946400D01*
X10264140Y2946400D02*
X10264140Y660400D01*
X10264140Y660400D02*
X11534140Y660400D01*
G04 #@! TO.C,C38*
X13642340Y-5367020D02*
X11356340Y-5367020D01*
X11356340Y-5367020D02*
X11356340Y-6637020D01*
X11356340Y-6637020D02*
X13642340Y-6637020D01*
X13642340Y-6637020D02*
X13642340Y-5367020D01*
G04 #@! TO.C,C37*
X8864600Y-11859260D02*
X8864600Y-14145260D01*
X8864600Y-14145260D02*
X10134600Y-14145260D01*
X10134600Y-14145260D02*
X10134600Y-11859260D01*
X10134600Y-11859260D02*
X8864600Y-11859260D01*
G04 #@! TO.C,C36*
X-12341860Y7165340D02*
X-10055860Y7165340D01*
X-10055860Y7165340D02*
X-10055860Y8435340D01*
X-10055860Y8435340D02*
X-12341860Y8435340D01*
X-12341860Y8435340D02*
X-12341860Y7165340D01*
G04 #@! TO.C,C35*
X10358120Y-13134340D02*
X12644120Y-13134340D01*
X12644120Y-13134340D02*
X12644120Y-11864340D01*
X12644120Y-11864340D02*
X10358120Y-11864340D01*
X10358120Y-11864340D02*
X10358120Y-13134340D01*
G04 #@! TO.C,C32*
X8143240Y11635740D02*
X5857240Y11635740D01*
X5857240Y11635740D02*
X5857240Y10365740D01*
X5857240Y10365740D02*
X8143240Y10365740D01*
X8143240Y10365740D02*
X8143240Y11635740D01*
G04 #@! TO.C,C31*
X11137900Y9636760D02*
X8851900Y9636760D01*
X8851900Y9636760D02*
X8851900Y8366760D01*
X8851900Y8366760D02*
X11137900Y8366760D01*
X11137900Y8366760D02*
X11137900Y9636760D01*
G04 #@! TO.C,C30*
X11856720Y12865100D02*
X14142720Y12865100D01*
X14142720Y12865100D02*
X14142720Y14135100D01*
X14142720Y14135100D02*
X11856720Y14135100D01*
X11856720Y14135100D02*
X11856720Y12865100D01*
G04 #@! TO.C,C29*
X14142720Y12636500D02*
X11856720Y12636500D01*
X11856720Y12636500D02*
X11856720Y11366500D01*
X11856720Y11366500D02*
X14142720Y11366500D01*
X14142720Y11366500D02*
X14142720Y12636500D01*
D16*
G04 #@! TO.C,U6*
X-9700260Y8249920D02*
X-8148320Y8249920D01*
X-8148320Y8249920D02*
X-7698740Y8699500D01*
X-7698740Y8699500D02*
X-7698740Y9149080D01*
X-9700260Y8249920D02*
X-9700260Y9149080D01*
X-9700260Y9149080D02*
X-7698740Y9149080D01*
D17*
G04 #@! TO.C,D8*
X15145258Y-15357192D02*
X15640968Y-15852902D01*
X14223884Y-15994790D02*
G75*
G03X14223884Y-15994790I-68250J0D01*
G01*
X16524625Y-15253021D02*
X15253021Y-16524625D01*
X15253021Y-16524625D02*
X15181179Y-16452783D01*
X16452783Y-15181179D02*
X16524625Y-15253021D01*
X15816981Y-14545377D02*
X15745139Y-14473535D01*
X15745139Y-14473535D02*
X14473535Y-15745139D01*
X14473535Y-15745139D02*
X14545377Y-15816981D01*
D16*
G04 #@! TO.C,P7*
X-6400800Y13251180D02*
X-6400800Y13649960D01*
X-14599920Y13251180D02*
X-14599920Y13649960D01*
D10*
G04 #@! TO.C,U11*
X1080280Y-546900D02*
X-16919720Y-546900D01*
D18*
G04 #@! TO.C,U12*
X-16851920Y5191020D02*
X-16851920Y5416020D01*
X-16851920Y5416020D02*
X-16451920Y5841020D01*
X-16451920Y5841020D02*
X-16226920Y5841020D01*
X-12601920Y5241020D02*
X-12601920Y5841020D01*
X-12601920Y5841020D02*
X-13051920Y5841020D01*
X-13101920Y1591020D02*
X-12601920Y1591020D01*
X-12601920Y1591020D02*
X-12601920Y2091020D01*
X-16851920Y2066020D02*
X-16851920Y1591020D01*
X-16851920Y1591020D02*
X-16451920Y1591020D01*
D19*
G04 #@! TO.C,C3*
X-11267160Y4925820D02*
X-11267160Y5525820D01*
X-11867160Y4925820D02*
X-11867160Y5525820D01*
G04 #@! TO.C,U11*
D10*
X-1509069Y-4845871D02*
X-1509069Y-5179204D01*
X-985260Y-5322061D02*
X-985260Y-4845871D01*
X-1985260Y-4845871D01*
X-1985260Y-5322061D01*
X-1032879Y-5703014D02*
X-985260Y-5798252D01*
X-985260Y-5988728D01*
X-1032879Y-6083966D01*
X-1128117Y-6131585D01*
X-1175736Y-6131585D01*
X-1270974Y-6083966D01*
X-1318593Y-5988728D01*
X-1318593Y-5845871D01*
X-1366212Y-5750633D01*
X-1461450Y-5703014D01*
X-1509069Y-5703014D01*
X-1604307Y-5750633D01*
X-1651926Y-5845871D01*
X-1651926Y-5988728D01*
X-1604307Y-6083966D01*
X-1651926Y-6560157D02*
X-651926Y-6560157D01*
X-1604307Y-6560157D02*
X-1651926Y-6655395D01*
X-1651926Y-6845871D01*
X-1604307Y-6941109D01*
X-1556688Y-6988728D01*
X-1461450Y-7036347D01*
X-1175736Y-7036347D01*
X-1080498Y-6988728D01*
X-1032879Y-6941109D01*
X-985260Y-6845871D01*
X-985260Y-6655395D01*
X-1032879Y-6560157D01*
X-985260Y-7464919D02*
X-1651926Y-7464919D01*
X-1461450Y-7464919D02*
X-1556688Y-7512538D01*
X-1604307Y-7560157D01*
X-1651926Y-7655395D01*
X-1651926Y-7750633D01*
X-1032879Y-8464919D02*
X-985260Y-8369680D01*
X-985260Y-8179204D01*
X-1032879Y-8083966D01*
X-1128117Y-8036347D01*
X-1509069Y-8036347D01*
X-1604307Y-8083966D01*
X-1651926Y-8179204D01*
X-1651926Y-8369680D01*
X-1604307Y-8464919D01*
X-1509069Y-8512538D01*
X-1413831Y-8512538D01*
X-1318593Y-8036347D01*
X-1032879Y-8893490D02*
X-985260Y-8988728D01*
X-985260Y-9179204D01*
X-1032879Y-9274442D01*
X-1128117Y-9322061D01*
X-1175736Y-9322061D01*
X-1270974Y-9274442D01*
X-1318593Y-9179204D01*
X-1318593Y-9036347D01*
X-1366212Y-8941109D01*
X-1461450Y-8893490D01*
X-1509069Y-8893490D01*
X-1604307Y-8941109D01*
X-1651926Y-9036347D01*
X-1651926Y-9179204D01*
X-1604307Y-9274442D01*
X-1032879Y-9703014D02*
X-985260Y-9798252D01*
X-985260Y-9988728D01*
X-1032879Y-10083966D01*
X-1128117Y-10131585D01*
X-1175736Y-10131585D01*
X-1270974Y-10083966D01*
X-1318593Y-9988728D01*
X-1318593Y-9845871D01*
X-1366212Y-9750633D01*
X-1461450Y-9703014D01*
X-1509069Y-9703014D01*
X-1604307Y-9750633D01*
X-1651926Y-9845871D01*
X-1651926Y-9988728D01*
X-1604307Y-10083966D01*
X-985260Y-10560157D02*
X-1651926Y-10560157D01*
X-1985260Y-10560157D02*
X-1937640Y-10512538D01*
X-1890021Y-10560157D01*
X-1937640Y-10607776D01*
X-1985260Y-10560157D01*
X-1890021Y-10560157D01*
X-1651926Y-10893490D02*
X-1651926Y-11274442D01*
X-985260Y-11036347D02*
X-1842402Y-11036347D01*
X-1937640Y-11083966D01*
X-1985260Y-11179204D01*
X-1985260Y-11274442D01*
X-1032879Y-12322061D02*
X-985260Y-12464919D01*
X-985260Y-12703014D01*
X-1032879Y-12798252D01*
X-1080498Y-12845871D01*
X-1175736Y-12893490D01*
X-1270974Y-12893490D01*
X-1366212Y-12845871D01*
X-1413831Y-12798252D01*
X-1461450Y-12703014D01*
X-1509069Y-12512538D01*
X-1556688Y-12417300D01*
X-1604307Y-12369680D01*
X-1699545Y-12322061D01*
X-1794783Y-12322061D01*
X-1890021Y-12369680D01*
X-1937640Y-12417300D01*
X-1985260Y-12512538D01*
X-1985260Y-12750633D01*
X-1937640Y-12893490D01*
X-1651926Y-13226823D02*
X-985260Y-13464919D01*
X-1651926Y-13703014D02*
X-985260Y-13464919D01*
X-747164Y-13369680D01*
X-699545Y-13322061D01*
X-651926Y-13226823D01*
X-1032879Y-14036347D02*
X-985260Y-14131585D01*
X-985260Y-14322061D01*
X-1032879Y-14417300D01*
X-1128117Y-14464919D01*
X-1175736Y-14464919D01*
X-1270974Y-14417300D01*
X-1318593Y-14322061D01*
X-1318593Y-14179204D01*
X-1366212Y-14083966D01*
X-1461450Y-14036347D01*
X-1509069Y-14036347D01*
X-1604307Y-14083966D01*
X-1651926Y-14179204D01*
X-1651926Y-14322061D01*
X-1604307Y-14417300D01*
X-1651926Y-14750633D02*
X-1651926Y-15131585D01*
X-1985260Y-14893490D02*
X-1128117Y-14893490D01*
X-1032879Y-14941109D01*
X-985260Y-15036347D01*
X-985260Y-15131585D01*
X-1032879Y-15845871D02*
X-985260Y-15750633D01*
X-985260Y-15560157D01*
X-1032879Y-15464919D01*
X-1128117Y-15417300D01*
X-1509069Y-15417300D01*
X-1604307Y-15464919D01*
X-1651926Y-15560157D01*
X-1651926Y-15750633D01*
X-1604307Y-15845871D01*
X-1509069Y-15893490D01*
X-1413831Y-15893490D01*
X-1318593Y-15417300D01*
X-985260Y-16322061D02*
X-1651926Y-16322061D01*
X-1556688Y-16322061D02*
X-1604307Y-16369680D01*
X-1651926Y-16464919D01*
X-1651926Y-16607776D01*
X-1604307Y-16703014D01*
X-1509069Y-16750633D01*
X-985260Y-16750633D01*
X-1509069Y-16750633D02*
X-1604307Y-16798252D01*
X-1651926Y-16893490D01*
X-1651926Y-17036347D01*
X-1604307Y-17131585D01*
X-1509069Y-17179204D01*
X-985260Y-17179204D01*
X-1032879Y-17607776D02*
X-985260Y-17703014D01*
X-985260Y-17893490D01*
X-1032879Y-17988728D01*
X-1128117Y-18036347D01*
X-1175736Y-18036347D01*
X-1270974Y-17988728D01*
X-1318593Y-17893490D01*
X-1318593Y-17750633D01*
X-1366212Y-17655395D01*
X-1461450Y-17607776D01*
X-1509069Y-17607776D01*
X-1604307Y-17655395D01*
X-1651926Y-17750633D01*
X-1651926Y-17893490D01*
X-1604307Y-17988728D01*
X-3561389Y-6452599D02*
X-3561389Y-6785932D01*
X-3037580Y-6928789D02*
X-3037580Y-6452599D01*
X-4037580Y-6452599D01*
X-4037580Y-6928789D01*
X-3085199Y-7309741D02*
X-3037580Y-7452599D01*
X-3037580Y-7690694D01*
X-3085199Y-7785932D01*
X-3132818Y-7833551D01*
X-3228056Y-7881170D01*
X-3323294Y-7881170D01*
X-3418532Y-7833551D01*
X-3466151Y-7785932D01*
X-3513770Y-7690694D01*
X-3561389Y-7500218D01*
X-3609008Y-7404980D01*
X-3656627Y-7357360D01*
X-3751865Y-7309741D01*
X-3847103Y-7309741D01*
X-3942341Y-7357360D01*
X-3989960Y-7404980D01*
X-4037580Y-7500218D01*
X-4037580Y-7738313D01*
X-3989960Y-7881170D01*
X-3037580Y-8309741D02*
X-4037580Y-8309741D01*
X-4037580Y-8690694D01*
X-3989960Y-8785932D01*
X-3942341Y-8833551D01*
X-3847103Y-8881170D01*
X-3704246Y-8881170D01*
X-3609008Y-8833551D01*
X-3561389Y-8785932D01*
X-3513770Y-8690694D01*
X-3513770Y-8309741D01*
X-4037580Y-9214503D02*
X-4037580Y-9833551D01*
X-3656627Y-9500218D01*
X-3656627Y-9643075D01*
X-3609008Y-9738313D01*
X-3561389Y-9785932D01*
X-3466151Y-9833551D01*
X-3228056Y-9833551D01*
X-3132818Y-9785932D01*
X-3085199Y-9738313D01*
X-3037580Y-9643075D01*
X-3037580Y-9357360D01*
X-3085199Y-9262122D01*
X-3132818Y-9214503D01*
X-3942341Y-10214503D02*
X-3989960Y-10262122D01*
X-4037580Y-10357360D01*
X-4037580Y-10595456D01*
X-3989960Y-10690694D01*
X-3942341Y-10738313D01*
X-3847103Y-10785932D01*
X-3751865Y-10785932D01*
X-3609008Y-10738313D01*
X-3037580Y-10166884D01*
X-3037580Y-10785932D01*
X-3418532Y-11214503D02*
X-3418532Y-11976408D01*
X-4037580Y-12357360D02*
X-3037580Y-12595456D01*
X-3751865Y-12785932D01*
X-3037580Y-12976408D01*
X-4037580Y-13214503D01*
X-3037580Y-14166884D02*
X-3513770Y-13833551D01*
X-3037580Y-13595456D02*
X-4037580Y-13595456D01*
X-4037580Y-13976408D01*
X-3989960Y-14071646D01*
X-3942341Y-14119265D01*
X-3847103Y-14166884D01*
X-3704246Y-14166884D01*
X-3609008Y-14119265D01*
X-3561389Y-14071646D01*
X-3513770Y-13976408D01*
X-3513770Y-13595456D01*
X-4037580Y-14785932D02*
X-4037580Y-14976408D01*
X-3989960Y-15071646D01*
X-3894722Y-15166884D01*
X-3704246Y-15214503D01*
X-3370913Y-15214503D01*
X-3180437Y-15166884D01*
X-3085199Y-15071646D01*
X-3037580Y-14976408D01*
X-3037580Y-14785932D01*
X-3085199Y-14690694D01*
X-3180437Y-14595456D01*
X-3370913Y-14547837D01*
X-3704246Y-14547837D01*
X-3894722Y-14595456D01*
X-3989960Y-14690694D01*
X-4037580Y-14785932D01*
X-4037580Y-15833551D02*
X-4037580Y-16024027D01*
X-3989960Y-16119265D01*
X-3894722Y-16214503D01*
X-3704246Y-16262122D01*
X-3370913Y-16262122D01*
X-3180437Y-16214503D01*
X-3085199Y-16119265D01*
X-3037580Y-16024027D01*
X-3037580Y-15833551D01*
X-3085199Y-15738313D01*
X-3180437Y-15643075D01*
X-3370913Y-15595456D01*
X-3704246Y-15595456D01*
X-3894722Y-15643075D01*
X-3989960Y-15738313D01*
X-4037580Y-15833551D01*
X-3037580Y-16690694D02*
X-4037580Y-16690694D01*
X-3323294Y-17024027D01*
X-4037580Y-17357360D01*
X-3037580Y-17357360D01*
G04 #@! TD*
M02*
