G04 #@! TF.GenerationSoftware,KiCad,Pcbnew,9.0.4*
G04 #@! TF.CreationDate,2025-09-03T20:16:39+02:00*
G04 #@! TF.ProjectId,Crazyflie contol board,4372617a-7966-46c6-9965-20636f6e746f,2.4*
G04 #@! TF.SameCoordinates,Original*
G04 #@! TF.FileFunction,Soldermask,Bot*
G04 #@! TF.FilePolarity,Negative*
%FSLAX46Y46*%
G04 Gerber Fmt 4.6, Leading zero omitted, Abs format (unit mm)*
G04 Created by KiCad (PCBNEW 9.0.4) date 2025-09-03 20:16:39*
%MOMM*%
%LPD*%
G01*
G04 APERTURE LIST*
G04 APERTURE END LIST*
G36*
X138402439Y-119087969D02*
G01*
X138411112Y-119091798D01*
X138418679Y-119092901D01*
X138465977Y-119116023D01*
X138503295Y-119132501D01*
X138506750Y-119135956D01*
X138507674Y-119136408D01*
X138577345Y-119206079D01*
X138577796Y-119207002D01*
X138581253Y-119210459D01*
X138597732Y-119247782D01*
X138620852Y-119295073D01*
X138621954Y-119302639D01*
X138625785Y-119311315D01*
X138633754Y-119380000D01*
X138633754Y-120580000D01*
X138625785Y-120648685D01*
X138621953Y-120657361D01*
X138620852Y-120664925D01*
X138597739Y-120712202D01*
X138581253Y-120749541D01*
X138577795Y-120752998D01*
X138577345Y-120753920D01*
X138507674Y-120823591D01*
X138506752Y-120824041D01*
X138503295Y-120827499D01*
X138465961Y-120843983D01*
X138418680Y-120867098D01*
X138411115Y-120868200D01*
X138402439Y-120872031D01*
X138333754Y-120880000D01*
X137133754Y-120880000D01*
X137065069Y-120872031D01*
X137056392Y-120868200D01*
X137048828Y-120867098D01*
X137001541Y-120843981D01*
X136964213Y-120827499D01*
X136960756Y-120824042D01*
X136959833Y-120823591D01*
X136890162Y-120753920D01*
X136889710Y-120752996D01*
X136886255Y-120749541D01*
X136869779Y-120712228D01*
X136846655Y-120664926D01*
X136845552Y-120657357D01*
X136841723Y-120648685D01*
X136833754Y-120580000D01*
X136833754Y-119380000D01*
X136841723Y-119311315D01*
X136845552Y-119302642D01*
X136846655Y-119295074D01*
X136869782Y-119247766D01*
X136886255Y-119210459D01*
X136889709Y-119207004D01*
X136890162Y-119206079D01*
X136959833Y-119136408D01*
X136960758Y-119135955D01*
X136964213Y-119132501D01*
X137001515Y-119116030D01*
X137048827Y-119092901D01*
X137056396Y-119091798D01*
X137065069Y-119087969D01*
X137133754Y-119080000D01*
X138333754Y-119080000D01*
X138402439Y-119087969D01*
G37*
G36*
X127835010Y-119118754D02*
G01*
X127998011Y-119186271D01*
X128144708Y-119284291D01*
X128269463Y-119409046D01*
X128367483Y-119555743D01*
X128435000Y-119718744D01*
X128469420Y-119891785D01*
X128469420Y-120068215D01*
X128435000Y-120241256D01*
X128367483Y-120404257D01*
X128269463Y-120550954D01*
X128144708Y-120675709D01*
X127998011Y-120773729D01*
X127835010Y-120841246D01*
X127661969Y-120875666D01*
X127485539Y-120875666D01*
X127312498Y-120841246D01*
X127149497Y-120773729D01*
X127002800Y-120675709D01*
X126878045Y-120550954D01*
X126780025Y-120404257D01*
X126712508Y-120241256D01*
X126678088Y-120068215D01*
X126678088Y-119891785D01*
X126712508Y-119718744D01*
X126780025Y-119555743D01*
X126878045Y-119409046D01*
X127002800Y-119284291D01*
X127149497Y-119186271D01*
X127312498Y-119118754D01*
X127485539Y-119084334D01*
X127661969Y-119084334D01*
X127835010Y-119118754D01*
G37*
G36*
X130375010Y-119118754D02*
G01*
X130538011Y-119186271D01*
X130684708Y-119284291D01*
X130809463Y-119409046D01*
X130907483Y-119555743D01*
X130975000Y-119718744D01*
X131009420Y-119891785D01*
X131009420Y-120068215D01*
X130975000Y-120241256D01*
X130907483Y-120404257D01*
X130809463Y-120550954D01*
X130684708Y-120675709D01*
X130538011Y-120773729D01*
X130375010Y-120841246D01*
X130201969Y-120875666D01*
X130025539Y-120875666D01*
X129852498Y-120841246D01*
X129689497Y-120773729D01*
X129542800Y-120675709D01*
X129418045Y-120550954D01*
X129320025Y-120404257D01*
X129252508Y-120241256D01*
X129218088Y-120068215D01*
X129218088Y-119891785D01*
X129252508Y-119718744D01*
X129320025Y-119555743D01*
X129418045Y-119409046D01*
X129542800Y-119284291D01*
X129689497Y-119186271D01*
X129852498Y-119118754D01*
X130025539Y-119084334D01*
X130201969Y-119084334D01*
X130375010Y-119118754D01*
G37*
G36*
X132915010Y-119118754D02*
G01*
X133078011Y-119186271D01*
X133224708Y-119284291D01*
X133349463Y-119409046D01*
X133447483Y-119555743D01*
X133515000Y-119718744D01*
X133549420Y-119891785D01*
X133549420Y-120068215D01*
X133515000Y-120241256D01*
X133447483Y-120404257D01*
X133349463Y-120550954D01*
X133224708Y-120675709D01*
X133078011Y-120773729D01*
X132915010Y-120841246D01*
X132741969Y-120875666D01*
X132565539Y-120875666D01*
X132392498Y-120841246D01*
X132229497Y-120773729D01*
X132082800Y-120675709D01*
X131958045Y-120550954D01*
X131860025Y-120404257D01*
X131792508Y-120241256D01*
X131758088Y-120068215D01*
X131758088Y-119891785D01*
X131792508Y-119718744D01*
X131860025Y-119555743D01*
X131958045Y-119409046D01*
X132082800Y-119284291D01*
X132229497Y-119186271D01*
X132392498Y-119118754D01*
X132565539Y-119084334D01*
X132741969Y-119084334D01*
X132915010Y-119118754D01*
G37*
G36*
X135455010Y-119118754D02*
G01*
X135618011Y-119186271D01*
X135764708Y-119284291D01*
X135889463Y-119409046D01*
X135987483Y-119555743D01*
X136055000Y-119718744D01*
X136089420Y-119891785D01*
X136089420Y-120068215D01*
X136055000Y-120241256D01*
X135987483Y-120404257D01*
X135889463Y-120550954D01*
X135764708Y-120675709D01*
X135618011Y-120773729D01*
X135455010Y-120841246D01*
X135281969Y-120875666D01*
X135105539Y-120875666D01*
X134932498Y-120841246D01*
X134769497Y-120773729D01*
X134622800Y-120675709D01*
X134498045Y-120550954D01*
X134400025Y-120404257D01*
X134332508Y-120241256D01*
X134298088Y-120068215D01*
X134298088Y-119891785D01*
X134332508Y-119718744D01*
X134400025Y-119555743D01*
X134498045Y-119409046D01*
X134622800Y-119284291D01*
X134769497Y-119186271D01*
X134932498Y-119118754D01*
X135105539Y-119084334D01*
X135281969Y-119084334D01*
X135455010Y-119118754D01*
G37*
G36*
X127835010Y-116578754D02*
G01*
X127998011Y-116646271D01*
X128144708Y-116744291D01*
X128269463Y-116869046D01*
X128367483Y-117015743D01*
X128435000Y-117178744D01*
X128469420Y-117351785D01*
X128469420Y-117528215D01*
X128435000Y-117701256D01*
X128367483Y-117864257D01*
X128269463Y-118010954D01*
X128144708Y-118135709D01*
X127998011Y-118233729D01*
X127835010Y-118301246D01*
X127661969Y-118335666D01*
X127485539Y-118335666D01*
X127312498Y-118301246D01*
X127149497Y-118233729D01*
X127002800Y-118135709D01*
X126878045Y-118010954D01*
X126780025Y-117864257D01*
X126712508Y-117701256D01*
X126678088Y-117528215D01*
X126678088Y-117351785D01*
X126712508Y-117178744D01*
X126780025Y-117015743D01*
X126878045Y-116869046D01*
X127002800Y-116744291D01*
X127149497Y-116646271D01*
X127312498Y-116578754D01*
X127485539Y-116544334D01*
X127661969Y-116544334D01*
X127835010Y-116578754D01*
G37*
G36*
X130375010Y-116578754D02*
G01*
X130538011Y-116646271D01*
X130684708Y-116744291D01*
X130809463Y-116869046D01*
X130907483Y-117015743D01*
X130975000Y-117178744D01*
X131009420Y-117351785D01*
X131009420Y-117528215D01*
X130975000Y-117701256D01*
X130907483Y-117864257D01*
X130809463Y-118010954D01*
X130684708Y-118135709D01*
X130538011Y-118233729D01*
X130375010Y-118301246D01*
X130201969Y-118335666D01*
X130025539Y-118335666D01*
X129852498Y-118301246D01*
X129689497Y-118233729D01*
X129542800Y-118135709D01*
X129418045Y-118010954D01*
X129320025Y-117864257D01*
X129252508Y-117701256D01*
X129218088Y-117528215D01*
X129218088Y-117351785D01*
X129252508Y-117178744D01*
X129320025Y-117015743D01*
X129418045Y-116869046D01*
X129542800Y-116744291D01*
X129689497Y-116646271D01*
X129852498Y-116578754D01*
X130025539Y-116544334D01*
X130201969Y-116544334D01*
X130375010Y-116578754D01*
G37*
G36*
X132915010Y-116578754D02*
G01*
X133078011Y-116646271D01*
X133224708Y-116744291D01*
X133349463Y-116869046D01*
X133447483Y-117015743D01*
X133515000Y-117178744D01*
X133549420Y-117351785D01*
X133549420Y-117528215D01*
X133515000Y-117701256D01*
X133447483Y-117864257D01*
X133349463Y-118010954D01*
X133224708Y-118135709D01*
X133078011Y-118233729D01*
X132915010Y-118301246D01*
X132741969Y-118335666D01*
X132565539Y-118335666D01*
X132392498Y-118301246D01*
X132229497Y-118233729D01*
X132082800Y-118135709D01*
X131958045Y-118010954D01*
X131860025Y-117864257D01*
X131792508Y-117701256D01*
X131758088Y-117528215D01*
X131758088Y-117351785D01*
X131792508Y-117178744D01*
X131860025Y-117015743D01*
X131958045Y-116869046D01*
X132082800Y-116744291D01*
X132229497Y-116646271D01*
X132392498Y-116578754D01*
X132565539Y-116544334D01*
X132741969Y-116544334D01*
X132915010Y-116578754D01*
G37*
G36*
X135455010Y-116578754D02*
G01*
X135618011Y-116646271D01*
X135764708Y-116744291D01*
X135889463Y-116869046D01*
X135987483Y-117015743D01*
X136055000Y-117178744D01*
X136089420Y-117351785D01*
X136089420Y-117528215D01*
X136055000Y-117701256D01*
X135987483Y-117864257D01*
X135889463Y-118010954D01*
X135764708Y-118135709D01*
X135618011Y-118233729D01*
X135455010Y-118301246D01*
X135281969Y-118335666D01*
X135105539Y-118335666D01*
X134932498Y-118301246D01*
X134769497Y-118233729D01*
X134622800Y-118135709D01*
X134498045Y-118010954D01*
X134400025Y-117864257D01*
X134332508Y-117701256D01*
X134298088Y-117528215D01*
X134298088Y-117351785D01*
X134332508Y-117178744D01*
X134400025Y-117015743D01*
X134498045Y-116869046D01*
X134622800Y-116744291D01*
X134769497Y-116646271D01*
X134932498Y-116578754D01*
X135105539Y-116544334D01*
X135281969Y-116544334D01*
X135455010Y-116578754D01*
G37*
G36*
X137995010Y-116578754D02*
G01*
X138158011Y-116646271D01*
X138304708Y-116744291D01*
X138429463Y-116869046D01*
X138527483Y-117015743D01*
X138595000Y-117178744D01*
X138629420Y-117351785D01*
X138629420Y-117528215D01*
X138595000Y-117701256D01*
X138527483Y-117864257D01*
X138429463Y-118010954D01*
X138304708Y-118135709D01*
X138158011Y-118233729D01*
X137995010Y-118301246D01*
X137821969Y-118335666D01*
X137645539Y-118335666D01*
X137472498Y-118301246D01*
X137309497Y-118233729D01*
X137162800Y-118135709D01*
X137038045Y-118010954D01*
X136940025Y-117864257D01*
X136872508Y-117701256D01*
X136838088Y-117528215D01*
X136838088Y-117351785D01*
X136872508Y-117178744D01*
X136940025Y-117015743D01*
X137038045Y-116869046D01*
X137162800Y-116744291D01*
X137309497Y-116646271D01*
X137472498Y-116578754D01*
X137645539Y-116544334D01*
X137821969Y-116544334D01*
X137995010Y-116578754D01*
G37*
G36*
X138402439Y-95187969D02*
G01*
X138411112Y-95191798D01*
X138418679Y-95192901D01*
X138465977Y-95216023D01*
X138503295Y-95232501D01*
X138506750Y-95235956D01*
X138507674Y-95236408D01*
X138577345Y-95306079D01*
X138577796Y-95307002D01*
X138581253Y-95310459D01*
X138597732Y-95347782D01*
X138620852Y-95395073D01*
X138621954Y-95402639D01*
X138625785Y-95411315D01*
X138633754Y-95480000D01*
X138633754Y-96680000D01*
X138625785Y-96748685D01*
X138621953Y-96757361D01*
X138620852Y-96764925D01*
X138597739Y-96812202D01*
X138581253Y-96849541D01*
X138577795Y-96852998D01*
X138577345Y-96853920D01*
X138507674Y-96923591D01*
X138506752Y-96924041D01*
X138503295Y-96927499D01*
X138465961Y-96943983D01*
X138418680Y-96967098D01*
X138411115Y-96968200D01*
X138402439Y-96972031D01*
X138333754Y-96980000D01*
X137133754Y-96980000D01*
X137065069Y-96972031D01*
X137056392Y-96968200D01*
X137048828Y-96967098D01*
X137001541Y-96943981D01*
X136964213Y-96927499D01*
X136960756Y-96924042D01*
X136959833Y-96923591D01*
X136890162Y-96853920D01*
X136889710Y-96852996D01*
X136886255Y-96849541D01*
X136869779Y-96812228D01*
X136846655Y-96764926D01*
X136845552Y-96757357D01*
X136841723Y-96748685D01*
X136833754Y-96680000D01*
X136833754Y-95480000D01*
X136841723Y-95411315D01*
X136845552Y-95402642D01*
X136846655Y-95395074D01*
X136869782Y-95347766D01*
X136886255Y-95310459D01*
X136889709Y-95307004D01*
X136890162Y-95306079D01*
X136959833Y-95236408D01*
X136960758Y-95235955D01*
X136964213Y-95232501D01*
X137001515Y-95216030D01*
X137048827Y-95192901D01*
X137056396Y-95191798D01*
X137065069Y-95187969D01*
X137133754Y-95180000D01*
X138333754Y-95180000D01*
X138402439Y-95187969D01*
G37*
G36*
X127835010Y-95218754D02*
G01*
X127998011Y-95286271D01*
X128144708Y-95384291D01*
X128269463Y-95509046D01*
X128367483Y-95655743D01*
X128435000Y-95818744D01*
X128469420Y-95991785D01*
X128469420Y-96168215D01*
X128435000Y-96341256D01*
X128367483Y-96504257D01*
X128269463Y-96650954D01*
X128144708Y-96775709D01*
X127998011Y-96873729D01*
X127835010Y-96941246D01*
X127661969Y-96975666D01*
X127485539Y-96975666D01*
X127312498Y-96941246D01*
X127149497Y-96873729D01*
X127002800Y-96775709D01*
X126878045Y-96650954D01*
X126780025Y-96504257D01*
X126712508Y-96341256D01*
X126678088Y-96168215D01*
X126678088Y-95991785D01*
X126712508Y-95818744D01*
X126780025Y-95655743D01*
X126878045Y-95509046D01*
X127002800Y-95384291D01*
X127149497Y-95286271D01*
X127312498Y-95218754D01*
X127485539Y-95184334D01*
X127661969Y-95184334D01*
X127835010Y-95218754D01*
G37*
G36*
X130375010Y-95218754D02*
G01*
X130538011Y-95286271D01*
X130684708Y-95384291D01*
X130809463Y-95509046D01*
X130907483Y-95655743D01*
X130975000Y-95818744D01*
X131009420Y-95991785D01*
X131009420Y-96168215D01*
X130975000Y-96341256D01*
X130907483Y-96504257D01*
X130809463Y-96650954D01*
X130684708Y-96775709D01*
X130538011Y-96873729D01*
X130375010Y-96941246D01*
X130201969Y-96975666D01*
X130025539Y-96975666D01*
X129852498Y-96941246D01*
X129689497Y-96873729D01*
X129542800Y-96775709D01*
X129418045Y-96650954D01*
X129320025Y-96504257D01*
X129252508Y-96341256D01*
X129218088Y-96168215D01*
X129218088Y-95991785D01*
X129252508Y-95818744D01*
X129320025Y-95655743D01*
X129418045Y-95509046D01*
X129542800Y-95384291D01*
X129689497Y-95286271D01*
X129852498Y-95218754D01*
X130025539Y-95184334D01*
X130201969Y-95184334D01*
X130375010Y-95218754D01*
G37*
G36*
X132915010Y-95218754D02*
G01*
X133078011Y-95286271D01*
X133224708Y-95384291D01*
X133349463Y-95509046D01*
X133447483Y-95655743D01*
X133515000Y-95818744D01*
X133549420Y-95991785D01*
X133549420Y-96168215D01*
X133515000Y-96341256D01*
X133447483Y-96504257D01*
X133349463Y-96650954D01*
X133224708Y-96775709D01*
X133078011Y-96873729D01*
X132915010Y-96941246D01*
X132741969Y-96975666D01*
X132565539Y-96975666D01*
X132392498Y-96941246D01*
X132229497Y-96873729D01*
X132082800Y-96775709D01*
X131958045Y-96650954D01*
X131860025Y-96504257D01*
X131792508Y-96341256D01*
X131758088Y-96168215D01*
X131758088Y-95991785D01*
X131792508Y-95818744D01*
X131860025Y-95655743D01*
X131958045Y-95509046D01*
X132082800Y-95384291D01*
X132229497Y-95286271D01*
X132392498Y-95218754D01*
X132565539Y-95184334D01*
X132741969Y-95184334D01*
X132915010Y-95218754D01*
G37*
G36*
X135455010Y-95218754D02*
G01*
X135618011Y-95286271D01*
X135764708Y-95384291D01*
X135889463Y-95509046D01*
X135987483Y-95655743D01*
X136055000Y-95818744D01*
X136089420Y-95991785D01*
X136089420Y-96168215D01*
X136055000Y-96341256D01*
X135987483Y-96504257D01*
X135889463Y-96650954D01*
X135764708Y-96775709D01*
X135618011Y-96873729D01*
X135455010Y-96941246D01*
X135281969Y-96975666D01*
X135105539Y-96975666D01*
X134932498Y-96941246D01*
X134769497Y-96873729D01*
X134622800Y-96775709D01*
X134498045Y-96650954D01*
X134400025Y-96504257D01*
X134332508Y-96341256D01*
X134298088Y-96168215D01*
X134298088Y-95991785D01*
X134332508Y-95818744D01*
X134400025Y-95655743D01*
X134498045Y-95509046D01*
X134622800Y-95384291D01*
X134769497Y-95286271D01*
X134932498Y-95218754D01*
X135105539Y-95184334D01*
X135281969Y-95184334D01*
X135455010Y-95218754D01*
G37*
G36*
X127835010Y-92678754D02*
G01*
X127998011Y-92746271D01*
X128144708Y-92844291D01*
X128269463Y-92969046D01*
X128367483Y-93115743D01*
X128435000Y-93278744D01*
X128469420Y-93451785D01*
X128469420Y-93628215D01*
X128435000Y-93801256D01*
X128367483Y-93964257D01*
X128269463Y-94110954D01*
X128144708Y-94235709D01*
X127998011Y-94333729D01*
X127835010Y-94401246D01*
X127661969Y-94435666D01*
X127485539Y-94435666D01*
X127312498Y-94401246D01*
X127149497Y-94333729D01*
X127002800Y-94235709D01*
X126878045Y-94110954D01*
X126780025Y-93964257D01*
X126712508Y-93801256D01*
X126678088Y-93628215D01*
X126678088Y-93451785D01*
X126712508Y-93278744D01*
X126780025Y-93115743D01*
X126878045Y-92969046D01*
X127002800Y-92844291D01*
X127149497Y-92746271D01*
X127312498Y-92678754D01*
X127485539Y-92644334D01*
X127661969Y-92644334D01*
X127835010Y-92678754D01*
G37*
G36*
X130375010Y-92678754D02*
G01*
X130538011Y-92746271D01*
X130684708Y-92844291D01*
X130809463Y-92969046D01*
X130907483Y-93115743D01*
X130975000Y-93278744D01*
X131009420Y-93451785D01*
X131009420Y-93628215D01*
X130975000Y-93801256D01*
X130907483Y-93964257D01*
X130809463Y-94110954D01*
X130684708Y-94235709D01*
X130538011Y-94333729D01*
X130375010Y-94401246D01*
X130201969Y-94435666D01*
X130025539Y-94435666D01*
X129852498Y-94401246D01*
X129689497Y-94333729D01*
X129542800Y-94235709D01*
X129418045Y-94110954D01*
X129320025Y-93964257D01*
X129252508Y-93801256D01*
X129218088Y-93628215D01*
X129218088Y-93451785D01*
X129252508Y-93278744D01*
X129320025Y-93115743D01*
X129418045Y-92969046D01*
X129542800Y-92844291D01*
X129689497Y-92746271D01*
X129852498Y-92678754D01*
X130025539Y-92644334D01*
X130201969Y-92644334D01*
X130375010Y-92678754D01*
G37*
G36*
X132915010Y-92678754D02*
G01*
X133078011Y-92746271D01*
X133224708Y-92844291D01*
X133349463Y-92969046D01*
X133447483Y-93115743D01*
X133515000Y-93278744D01*
X133549420Y-93451785D01*
X133549420Y-93628215D01*
X133515000Y-93801256D01*
X133447483Y-93964257D01*
X133349463Y-94110954D01*
X133224708Y-94235709D01*
X133078011Y-94333729D01*
X132915010Y-94401246D01*
X132741969Y-94435666D01*
X132565539Y-94435666D01*
X132392498Y-94401246D01*
X132229497Y-94333729D01*
X132082800Y-94235709D01*
X131958045Y-94110954D01*
X131860025Y-93964257D01*
X131792508Y-93801256D01*
X131758088Y-93628215D01*
X131758088Y-93451785D01*
X131792508Y-93278744D01*
X131860025Y-93115743D01*
X131958045Y-92969046D01*
X132082800Y-92844291D01*
X132229497Y-92746271D01*
X132392498Y-92678754D01*
X132565539Y-92644334D01*
X132741969Y-92644334D01*
X132915010Y-92678754D01*
G37*
G36*
X135455010Y-92678754D02*
G01*
X135618011Y-92746271D01*
X135764708Y-92844291D01*
X135889463Y-92969046D01*
X135987483Y-93115743D01*
X136055000Y-93278744D01*
X136089420Y-93451785D01*
X136089420Y-93628215D01*
X136055000Y-93801256D01*
X135987483Y-93964257D01*
X135889463Y-94110954D01*
X135764708Y-94235709D01*
X135618011Y-94333729D01*
X135455010Y-94401246D01*
X135281969Y-94435666D01*
X135105539Y-94435666D01*
X134932498Y-94401246D01*
X134769497Y-94333729D01*
X134622800Y-94235709D01*
X134498045Y-94110954D01*
X134400025Y-93964257D01*
X134332508Y-93801256D01*
X134298088Y-93628215D01*
X134298088Y-93451785D01*
X134332508Y-93278744D01*
X134400025Y-93115743D01*
X134498045Y-92969046D01*
X134622800Y-92844291D01*
X134769497Y-92746271D01*
X134932498Y-92678754D01*
X135105539Y-92644334D01*
X135281969Y-92644334D01*
X135455010Y-92678754D01*
G37*
G36*
X137995010Y-92678754D02*
G01*
X138158011Y-92746271D01*
X138304708Y-92844291D01*
X138429463Y-92969046D01*
X138527483Y-93115743D01*
X138595000Y-93278744D01*
X138629420Y-93451785D01*
X138629420Y-93628215D01*
X138595000Y-93801256D01*
X138527483Y-93964257D01*
X138429463Y-94110954D01*
X138304708Y-94235709D01*
X138158011Y-94333729D01*
X137995010Y-94401246D01*
X137821969Y-94435666D01*
X137645539Y-94435666D01*
X137472498Y-94401246D01*
X137309497Y-94333729D01*
X137162800Y-94235709D01*
X137038045Y-94110954D01*
X136940025Y-93964257D01*
X136872508Y-93801256D01*
X136838088Y-93628215D01*
X136838088Y-93451785D01*
X136872508Y-93278744D01*
X136940025Y-93115743D01*
X137038045Y-92969046D01*
X137162800Y-92844291D01*
X137309497Y-92746271D01*
X137472498Y-92678754D01*
X137645539Y-92644334D01*
X137821969Y-92644334D01*
X137995010Y-92678754D01*
G37*
G36*
X152640476Y-87426866D02*
G01*
X152764819Y-87498656D01*
X152866344Y-87600181D01*
X152938134Y-87724524D01*
X152975295Y-87863211D01*
X152980000Y-87935000D01*
X152980000Y-89035000D01*
X152975295Y-89106789D01*
X152938134Y-89245476D01*
X152866344Y-89369819D01*
X152764819Y-89471344D01*
X152640476Y-89543134D01*
X152501789Y-89580295D01*
X152358211Y-89580295D01*
X152219524Y-89543134D01*
X152095181Y-89471344D01*
X151993656Y-89369819D01*
X151921866Y-89245476D01*
X151884705Y-89106789D01*
X151880000Y-89035000D01*
X151880000Y-87935000D01*
X151884705Y-87863211D01*
X151921866Y-87724524D01*
X151993656Y-87600181D01*
X152095181Y-87498656D01*
X152219524Y-87426866D01*
X152358211Y-87389705D01*
X152501789Y-87389705D01*
X152640476Y-87426866D01*
G37*
G36*
X161280476Y-87426866D02*
G01*
X161404819Y-87498656D01*
X161506344Y-87600181D01*
X161578134Y-87724524D01*
X161615295Y-87863211D01*
X161620000Y-87935000D01*
X161620000Y-89035000D01*
X161615295Y-89106789D01*
X161578134Y-89245476D01*
X161506344Y-89369819D01*
X161404819Y-89471344D01*
X161280476Y-89543134D01*
X161141789Y-89580295D01*
X160998211Y-89580295D01*
X160859524Y-89543134D01*
X160735181Y-89471344D01*
X160633656Y-89369819D01*
X160561866Y-89245476D01*
X160524705Y-89106789D01*
X160520000Y-89035000D01*
X160520000Y-87935000D01*
X160524705Y-87863211D01*
X160561866Y-87724524D01*
X160633656Y-87600181D01*
X160735181Y-87498656D01*
X160859524Y-87426866D01*
X160998211Y-87389705D01*
X161141789Y-87389705D01*
X161280476Y-87426866D01*
G37*
G36*
X154003506Y-87608545D02*
G01*
X154088286Y-87657492D01*
X154157508Y-87726714D01*
X154206455Y-87811494D01*
X154231792Y-87906053D01*
X154231792Y-88003947D01*
X154206455Y-88098506D01*
X154157508Y-88183286D01*
X154088286Y-88252508D01*
X154003506Y-88301455D01*
X153908947Y-88326792D01*
X153811053Y-88326792D01*
X153716494Y-88301455D01*
X153631714Y-88252508D01*
X153562492Y-88183286D01*
X153513545Y-88098506D01*
X153488208Y-88003947D01*
X153488208Y-87906053D01*
X153513545Y-87811494D01*
X153562492Y-87726714D01*
X153631714Y-87657492D01*
X153716494Y-87608545D01*
X153811053Y-87583208D01*
X153908947Y-87583208D01*
X154003506Y-87608545D01*
G37*
G36*
X159783506Y-87608545D02*
G01*
X159868286Y-87657492D01*
X159937508Y-87726714D01*
X159986455Y-87811494D01*
X160011792Y-87906053D01*
X160011792Y-88003947D01*
X159986455Y-88098506D01*
X159937508Y-88183286D01*
X159868286Y-88252508D01*
X159783506Y-88301455D01*
X159688947Y-88326792D01*
X159591053Y-88326792D01*
X159496494Y-88301455D01*
X159411714Y-88252508D01*
X159342492Y-88183286D01*
X159293545Y-88098506D01*
X159268208Y-88003947D01*
X159268208Y-87906053D01*
X159293545Y-87811494D01*
X159342492Y-87726714D01*
X159411714Y-87657492D01*
X159496494Y-87608545D01*
X159591053Y-87583208D01*
X159688947Y-87583208D01*
X159783506Y-87608545D01*
G37*
G36*
X152640476Y-83496866D02*
G01*
X152764819Y-83568656D01*
X152866344Y-83670181D01*
X152938134Y-83794524D01*
X152975295Y-83933211D01*
X152980000Y-84005000D01*
X152980000Y-84605000D01*
X152975295Y-84676789D01*
X152938134Y-84815476D01*
X152866344Y-84939819D01*
X152764819Y-85041344D01*
X152640476Y-85113134D01*
X152501789Y-85150295D01*
X152358211Y-85150295D01*
X152219524Y-85113134D01*
X152095181Y-85041344D01*
X151993656Y-84939819D01*
X151921866Y-84815476D01*
X151884705Y-84676789D01*
X151880000Y-84605000D01*
X151880000Y-84005000D01*
X151884705Y-83933211D01*
X151921866Y-83794524D01*
X151993656Y-83670181D01*
X152095181Y-83568656D01*
X152219524Y-83496866D01*
X152358211Y-83459705D01*
X152501789Y-83459705D01*
X152640476Y-83496866D01*
G37*
G36*
X161280476Y-83496866D02*
G01*
X161404819Y-83568656D01*
X161506344Y-83670181D01*
X161578134Y-83794524D01*
X161615295Y-83933211D01*
X161620000Y-84005000D01*
X161620000Y-84605000D01*
X161615295Y-84676789D01*
X161578134Y-84815476D01*
X161506344Y-84939819D01*
X161404819Y-85041344D01*
X161280476Y-85113134D01*
X161141789Y-85150295D01*
X160998211Y-85150295D01*
X160859524Y-85113134D01*
X160735181Y-85041344D01*
X160633656Y-84939819D01*
X160561866Y-84815476D01*
X160524705Y-84676789D01*
X160520000Y-84605000D01*
X160520000Y-84005000D01*
X160524705Y-83933211D01*
X160561866Y-83794524D01*
X160633656Y-83670181D01*
X160735181Y-83568656D01*
X160859524Y-83496866D01*
X160998211Y-83459705D01*
X161141789Y-83459705D01*
X161280476Y-83496866D01*
G37*
M02*
