G04 #@! TF.GenerationSoftware,KiCad,Pcbnew,(6.0.2-0)*
G04 #@! TF.CreationDate,2022-07-16T10:45:31+02:00*
G04 #@! TF.ProjectId,Crazyflie contol board,4372617a-7966-46c6-9965-20636f6e746f,2.2*
G04 #@! TF.SameCoordinates,Original*
G04 #@! TF.FileFunction,Legend,Top*
G04 #@! TF.FilePolarity,Positive*
%FSLAX46Y46*%
G04 Gerber Fmt 4.6, Leading zero omitted, Abs format (unit mm)*
G04 Created by KiCad (PCBNEW (6.0.2-0)) date 2022-07-16 10:45:31*
%MOMM*%
%LPD*%
G01*
G04 APERTURE LIST*
G04 Aperture macros list*
%AMRoundRect*
0 Rectangle with rounded corners*
0 $1 Rounding radius*
0 $2 $3 $4 $5 $6 $7 $8 $9 X,Y pos of 4 corners*
0 Add a 4 corners polygon primitive as box body*
4,1,4,$2,$3,$4,$5,$6,$7,$8,$9,$2,$3,0*
0 Add four circle primitives for the rounded corners*
1,1,$1+$1,$2,$3*
1,1,$1+$1,$4,$5*
1,1,$1+$1,$6,$7*
1,1,$1+$1,$8,$9*
0 Add four rect primitives between the rounded corners*
20,1,$1+$1,$2,$3,$4,$5,0*
20,1,$1+$1,$4,$5,$6,$7,0*
20,1,$1+$1,$6,$7,$8,$9,0*
20,1,$1+$1,$8,$9,$2,$3,0*%
G04 Aperture macros list end*
%ADD10C,0.200660*%
%ADD11C,0.200025*%
%ADD12C,0.250190*%
%ADD13C,0.175000*%
%ADD14C,0.099060*%
%ADD15C,0.150000*%
%ADD16C,0.127000*%
%ADD17C,0.120000*%
%ADD18C,0.100000*%
%ADD19C,0.381000*%
%ADD20R,1.198880X1.600200*%
%ADD21O,1.198880X1.600200*%
%ADD22RoundRect,0.071120X-0.457200X0.457200X-0.457200X-0.457200X0.457200X-0.457200X0.457200X0.457200X0*%
%ADD23RoundRect,0.071120X-0.500380X0.350520X-0.500380X-0.350520X0.500380X-0.350520X0.500380X0.350520X0*%
%ADD24RoundRect,0.071120X0.571500X-0.317500X0.571500X0.317500X-0.571500X0.317500X-0.571500X-0.317500X0*%
%ADD25RoundRect,0.071120X0.317500X0.571500X-0.317500X0.571500X-0.317500X-0.571500X0.317500X-0.571500X0*%
%ADD26RoundRect,0.071120X-0.571500X0.317500X-0.571500X-0.317500X0.571500X-0.317500X0.571500X0.317500X0*%
%ADD27RoundRect,0.071120X-0.317500X-0.571500X0.317500X-0.571500X0.317500X0.571500X-0.317500X0.571500X0*%
%ADD28O,0.942340X0.391160*%
%ADD29O,0.391160X0.942340*%
%ADD30C,0.523240*%
%ADD31RoundRect,0.071120X0.849630X-0.849630X0.849630X0.849630X-0.849630X0.849630X-0.849630X-0.849630X0*%
%ADD32RoundRect,0.071120X0.000000X0.563960X-0.563960X0.000000X0.000000X-0.563960X0.563960X0.000000X0*%
%ADD33RoundRect,0.071120X0.563960X0.000000X0.000000X0.563960X-0.563960X0.000000X0.000000X-0.563960X0*%
%ADD34RoundRect,0.071120X0.000000X-0.563960X0.563960X0.000000X0.000000X0.563960X-0.563960X0.000000X0*%
%ADD35RoundRect,0.071120X0.599440X-0.800100X0.599440X0.800100X-0.599440X0.800100X-0.599440X-0.800100X0*%
%ADD36O,1.341120X1.742440*%
%ADD37RoundRect,0.071120X0.962672X0.213340X-0.653420X0.738440X-0.962672X-0.213340X0.653420X-0.738440X0*%
%ADD38RoundRect,0.071120X0.500380X-0.250190X0.500380X0.250190X-0.500380X0.250190X-0.500380X-0.250190X0*%
%ADD39RoundRect,0.071120X-0.299720X0.199390X-0.299720X-0.199390X0.299720X-0.199390X0.299720X0.199390X0*%
%ADD40RoundRect,0.071120X-0.400000X0.300000X-0.400000X-0.300000X0.400000X-0.300000X0.400000X0.300000X0*%
%ADD41RoundRect,0.071120X-0.850000X0.400000X-0.850000X-0.400000X0.850000X-0.400000X0.850000X0.400000X0*%
%ADD42RoundRect,0.071120X-0.300000X-0.400000X0.300000X-0.400000X0.300000X0.400000X-0.300000X0.400000X0*%
%ADD43RoundRect,0.071120X0.400000X-0.300000X0.400000X0.300000X-0.400000X0.300000X-0.400000X-0.300000X0*%
%ADD44RoundRect,0.070000X-0.300000X0.650000X-0.300000X-0.650000X0.300000X-0.650000X0.300000X0.650000X0*%
%ADD45C,1.500000*%
%ADD46RoundRect,0.071120X0.125000X-0.337500X0.125000X0.337500X-0.125000X0.337500X-0.125000X-0.337500X0*%
%ADD47RoundRect,0.071120X0.337500X-0.125000X0.337500X0.125000X-0.337500X0.125000X-0.337500X-0.125000X0*%
%ADD48RoundRect,0.071120X0.699770X-0.500380X0.699770X0.500380X-0.699770X0.500380X-0.699770X-0.500380X0*%
%ADD49O,1.541780X1.143000*%
%ADD50O,1.742440X1.341120*%
%ADD51C,0.522240*%
G04 APERTURE END LIST*
D10*
X133700520Y-99702620D02*
X134000240Y-99402900D01*
X133700520Y-99702620D02*
X134000240Y-100002340D01*
X136700260Y-99702620D02*
X133700520Y-99702620D01*
X151998680Y-104703880D02*
X151998680Y-105803700D01*
X136700260Y-96801940D02*
X136400540Y-97101660D01*
X153799540Y-104703880D02*
X151998680Y-104703880D01*
X153799540Y-106103420D02*
X153799540Y-104703880D01*
X136700260Y-99702620D02*
X133700520Y-99702620D01*
X136700260Y-96801940D02*
X136999980Y-97101660D01*
X136700260Y-96801940D02*
X136700260Y-99702620D01*
X152199340Y-106103420D02*
X153799540Y-106103420D01*
X137239375Y-99702620D02*
G75*
G03*
X137239375Y-99702620I-539115J0D01*
G01*
X136700260Y-96801940D02*
X136700260Y-99702620D01*
X136400540Y-97101660D02*
X136400540Y-97104200D01*
X136999980Y-97101660D02*
X136999980Y-97104200D01*
X137239375Y-99702620D02*
G75*
G03*
X137239375Y-99702620I-539115J0D01*
G01*
X136700260Y-96801940D02*
X136999980Y-97101660D01*
X136400540Y-97101660D02*
X136400540Y-97104200D01*
X136999980Y-97101660D02*
X136999980Y-97104200D01*
X136700260Y-96801940D02*
X136400540Y-97101660D01*
D11*
X136490710Y-96363790D02*
X136909810Y-95830390D01*
X136490710Y-95830390D02*
X136909810Y-96363790D01*
X133859270Y-95338710D02*
X133783070Y-95300610D01*
X133668770Y-95300610D01*
X133554470Y-95338710D01*
X133478270Y-95414910D01*
X133440170Y-95491110D01*
X133402070Y-95643510D01*
X133402070Y-95757810D01*
X133440170Y-95910210D01*
X133478270Y-95986410D01*
X133554470Y-96062610D01*
X133668770Y-96100710D01*
X133744970Y-96100710D01*
X133859270Y-96062610D01*
X133897370Y-96024510D01*
X133897370Y-95757810D01*
X133744970Y-95757810D01*
X134164070Y-95567310D02*
X134354570Y-96100710D01*
X134545070Y-95567310D02*
X134354570Y-96100710D01*
X134278370Y-96291210D01*
X134240270Y-96329310D01*
X134164070Y-96367410D01*
X134849870Y-96100710D02*
X134849870Y-95567310D01*
X134849870Y-95719710D02*
X134887970Y-95643510D01*
X134926070Y-95605410D01*
X135002270Y-95567310D01*
X135078470Y-95567310D01*
X135459470Y-96100710D02*
X135383270Y-96062610D01*
X135345170Y-96024510D01*
X135307070Y-95948310D01*
X135307070Y-95719710D01*
X135345170Y-95643510D01*
X135383270Y-95605410D01*
X135459470Y-95567310D01*
X135573770Y-95567310D01*
X135649970Y-95605410D01*
X135688070Y-95643510D01*
X135726170Y-95719710D01*
X135726170Y-95948310D01*
X135688070Y-96024510D01*
X135649970Y-96062610D01*
X135573770Y-96100710D01*
X135459470Y-96100710D01*
X133687820Y-97160271D02*
X134068820Y-97160271D01*
X133611620Y-97388871D02*
X133878320Y-96588771D01*
X134145020Y-97388871D01*
X134754620Y-97350771D02*
X134678420Y-97388871D01*
X134526020Y-97388871D01*
X134449820Y-97350771D01*
X134411720Y-97312671D01*
X134373620Y-97236471D01*
X134373620Y-97007871D01*
X134411720Y-96931671D01*
X134449820Y-96893571D01*
X134526020Y-96855471D01*
X134678420Y-96855471D01*
X134754620Y-96893571D01*
X135440420Y-97350771D02*
X135364220Y-97388871D01*
X135211820Y-97388871D01*
X135135620Y-97350771D01*
X135097520Y-97312671D01*
X135059420Y-97236471D01*
X135059420Y-97007871D01*
X135097520Y-96931671D01*
X135135620Y-96893571D01*
X135211820Y-96855471D01*
X135364220Y-96855471D01*
X135440420Y-96893571D01*
D12*
X153819618Y-99271182D02*
X154582101Y-99271182D01*
X154200860Y-99652424D02*
X154200860Y-98889940D01*
D11*
X133628130Y-98993960D02*
X134161530Y-98803460D01*
X133628130Y-98612960D02*
X134161530Y-98803460D01*
X134352030Y-98879660D01*
X134390130Y-98917760D01*
X134428230Y-98993960D01*
X154001595Y-116760278D02*
X153435839Y-116194522D01*
X153651365Y-115978996D01*
X153732188Y-115952055D01*
X153786069Y-115952055D01*
X153866891Y-115978996D01*
X153947714Y-116059818D01*
X153974655Y-116140641D01*
X153974655Y-116194522D01*
X153947714Y-116275344D01*
X153732188Y-116490871D01*
X153947714Y-115682648D02*
X154648174Y-116113700D01*
X154351825Y-115601825D01*
X154863700Y-115898174D01*
X154432648Y-115197714D01*
X155537219Y-115224655D02*
X155079226Y-115143832D01*
X155213930Y-115547944D02*
X154648174Y-114982188D01*
X154863700Y-114766661D01*
X154944522Y-114739721D01*
X154998404Y-114739721D01*
X155079226Y-114766661D01*
X155160048Y-114847484D01*
X155186989Y-114928306D01*
X155186989Y-114982188D01*
X155160048Y-115063010D01*
X154944522Y-115278536D01*
X137509400Y-96161950D02*
X137509400Y-95361850D01*
X137776100Y-95933350D01*
X138042800Y-95361850D01*
X138042800Y-96161950D01*
X138766700Y-96161950D02*
X138766700Y-95742850D01*
X138728600Y-95666650D01*
X138652400Y-95628550D01*
X138500000Y-95628550D01*
X138423800Y-95666650D01*
X138766700Y-96123850D02*
X138690500Y-96161950D01*
X138500000Y-96161950D01*
X138423800Y-96123850D01*
X138385700Y-96047650D01*
X138385700Y-95971450D01*
X138423800Y-95895250D01*
X138500000Y-95857150D01*
X138690500Y-95857150D01*
X138766700Y-95819050D01*
X139490600Y-95628550D02*
X139490600Y-96276250D01*
X139452500Y-96352450D01*
X139414400Y-96390550D01*
X139338200Y-96428650D01*
X139223900Y-96428650D01*
X139147700Y-96390550D01*
X139490600Y-96123850D02*
X139414400Y-96161950D01*
X139262000Y-96161950D01*
X139185800Y-96123850D01*
X139147700Y-96085750D01*
X139109600Y-96009550D01*
X139109600Y-95780950D01*
X139147700Y-95704750D01*
X139185800Y-95666650D01*
X139262000Y-95628550D01*
X139414400Y-95628550D01*
X139490600Y-95666650D01*
D12*
X154470462Y-105783621D02*
X154470462Y-105021138D01*
D11*
X134692850Y-117885850D02*
X134730950Y-117771550D01*
X134769050Y-117733450D01*
X134845250Y-117695350D01*
X134959550Y-117695350D01*
X135035750Y-117733450D01*
X135073850Y-117771550D01*
X135111950Y-117847750D01*
X135111950Y-118152550D01*
X134311850Y-118152550D01*
X134311850Y-117885850D01*
X134349950Y-117809650D01*
X134388050Y-117771550D01*
X134464250Y-117733450D01*
X134540450Y-117733450D01*
X134616650Y-117771550D01*
X134654750Y-117809650D01*
X134692850Y-117885850D01*
X134692850Y-118152550D01*
X134311850Y-117200050D02*
X134311850Y-117047650D01*
X134349950Y-116971450D01*
X134426150Y-116895250D01*
X134578550Y-116857150D01*
X134845250Y-116857150D01*
X134997650Y-116895250D01*
X135073850Y-116971450D01*
X135111950Y-117047650D01*
X135111950Y-117200050D01*
X135073850Y-117276250D01*
X134997650Y-117352450D01*
X134845250Y-117390550D01*
X134578550Y-117390550D01*
X134426150Y-117352450D01*
X134349950Y-117276250D01*
X134311850Y-117200050D01*
X134311850Y-116361850D02*
X134311850Y-116209450D01*
X134349950Y-116133250D01*
X134426150Y-116057050D01*
X134578550Y-116018950D01*
X134845250Y-116018950D01*
X134997650Y-116057050D01*
X135073850Y-116133250D01*
X135111950Y-116209450D01*
X135111950Y-116361850D01*
X135073850Y-116438050D01*
X134997650Y-116514250D01*
X134845250Y-116552350D01*
X134578550Y-116552350D01*
X134426150Y-116514250D01*
X134349950Y-116438050D01*
X134311850Y-116361850D01*
X134311850Y-115790350D02*
X134311850Y-115333150D01*
X135111950Y-115561750D02*
X134311850Y-115561750D01*
X135589010Y-98530410D02*
X136008110Y-98530410D01*
X135589010Y-99063810D01*
X136008110Y-99063810D01*
X156147632Y-92247665D02*
X156199756Y-92104456D01*
X156261620Y-92045882D01*
X156359287Y-92000339D01*
X156515527Y-92016661D01*
X156766143Y-92107878D01*
X156896321Y-92195804D01*
X156941863Y-92293470D01*
X156951604Y-92378106D01*
X156899480Y-92521315D01*
X156837616Y-92579889D01*
X156739949Y-92625431D01*
X156583709Y-92609110D01*
X156333093Y-92517893D01*
X156202915Y-92429967D01*
X156157372Y-92332300D01*
X156147632Y-92247665D01*
X157134037Y-91876874D02*
X156382189Y-91603223D01*
X157290409Y-91447246D01*
X156538561Y-91173596D01*
X156828533Y-90265508D02*
X157560637Y-91261785D01*
X157007676Y-89884714D02*
X157059800Y-89741504D01*
X157121664Y-89682931D01*
X157219330Y-89637388D01*
X157375570Y-89653710D01*
X157626187Y-89744927D01*
X157756365Y-89832853D01*
X157801907Y-89930519D01*
X157811648Y-90015155D01*
X157759524Y-90158364D01*
X157697660Y-90216938D01*
X157599993Y-90262480D01*
X157443753Y-90246159D01*
X157193137Y-90154942D01*
X157062959Y-90067016D01*
X157017416Y-89969349D01*
X157007676Y-89884714D01*
X157691473Y-89119966D02*
X157600256Y-89370582D01*
X157994081Y-89513923D02*
X157242233Y-89240272D01*
X157372543Y-88882250D01*
X157926030Y-88475525D02*
X157834813Y-88726141D01*
X158228639Y-88869482D02*
X157476791Y-88595831D01*
X157607100Y-88237808D01*
D12*
X154272342Y-97581961D02*
X154272342Y-96819478D01*
D11*
X147788150Y-105626200D02*
X147750050Y-105702400D01*
X147673850Y-105778600D01*
X147559550Y-105892900D01*
X147521450Y-105969100D01*
X147521450Y-106045300D01*
X147711950Y-106007200D02*
X147673850Y-106083400D01*
X147597650Y-106159600D01*
X147445250Y-106197700D01*
X147178550Y-106197700D01*
X147026150Y-106159600D01*
X146949950Y-106083400D01*
X146911850Y-106007200D01*
X146911850Y-105854800D01*
X146949950Y-105778600D01*
X147026150Y-105702400D01*
X147178550Y-105664300D01*
X147445250Y-105664300D01*
X147597650Y-105702400D01*
X147673850Y-105778600D01*
X147711950Y-105854800D01*
X147711950Y-106007200D01*
X147711950Y-104902300D02*
X147711950Y-105359500D01*
X147711950Y-105130900D02*
X146911850Y-105130900D01*
X147026150Y-105207100D01*
X147102350Y-105283300D01*
X147140450Y-105359500D01*
X148393150Y-108661200D02*
X148355050Y-108737400D01*
X148278850Y-108813600D01*
X148164550Y-108927900D01*
X148126450Y-109004100D01*
X148126450Y-109080300D01*
X148316950Y-109042200D02*
X148278850Y-109118400D01*
X148202650Y-109194600D01*
X148050250Y-109232700D01*
X147783550Y-109232700D01*
X147631150Y-109194600D01*
X147554950Y-109118400D01*
X147516850Y-109042200D01*
X147516850Y-108889800D01*
X147554950Y-108813600D01*
X147631150Y-108737400D01*
X147783550Y-108699300D01*
X148050250Y-108699300D01*
X148202650Y-108737400D01*
X148278850Y-108813600D01*
X148316950Y-108889800D01*
X148316950Y-109042200D01*
X147593050Y-108394500D02*
X147554950Y-108356400D01*
X147516850Y-108280200D01*
X147516850Y-108089700D01*
X147554950Y-108013500D01*
X147593050Y-107975400D01*
X147669250Y-107937300D01*
X147745450Y-107937300D01*
X147859750Y-107975400D01*
X148316950Y-108432600D01*
X148316950Y-107937300D01*
X147588150Y-112076200D02*
X147550050Y-112152400D01*
X147473850Y-112228600D01*
X147359550Y-112342900D01*
X147321450Y-112419100D01*
X147321450Y-112495300D01*
X147511950Y-112457200D02*
X147473850Y-112533400D01*
X147397650Y-112609600D01*
X147245250Y-112647700D01*
X146978550Y-112647700D01*
X146826150Y-112609600D01*
X146749950Y-112533400D01*
X146711850Y-112457200D01*
X146711850Y-112304800D01*
X146749950Y-112228600D01*
X146826150Y-112152400D01*
X146978550Y-112114300D01*
X147245250Y-112114300D01*
X147397650Y-112152400D01*
X147473850Y-112228600D01*
X147511950Y-112304800D01*
X147511950Y-112457200D01*
X146711850Y-111847600D02*
X146711850Y-111352300D01*
X147016650Y-111619000D01*
X147016650Y-111504700D01*
X147054750Y-111428500D01*
X147092850Y-111390400D01*
X147169050Y-111352300D01*
X147359550Y-111352300D01*
X147435750Y-111390400D01*
X147473850Y-111428500D01*
X147511950Y-111504700D01*
X147511950Y-111733300D01*
X147473850Y-111809500D01*
X147435750Y-111847600D01*
X147888150Y-116226200D02*
X147850050Y-116302400D01*
X147773850Y-116378600D01*
X147659550Y-116492900D01*
X147621450Y-116569100D01*
X147621450Y-116645300D01*
X147811950Y-116607200D02*
X147773850Y-116683400D01*
X147697650Y-116759600D01*
X147545250Y-116797700D01*
X147278550Y-116797700D01*
X147126150Y-116759600D01*
X147049950Y-116683400D01*
X147011850Y-116607200D01*
X147011850Y-116454800D01*
X147049950Y-116378600D01*
X147126150Y-116302400D01*
X147278550Y-116264300D01*
X147545250Y-116264300D01*
X147697650Y-116302400D01*
X147773850Y-116378600D01*
X147811950Y-116454800D01*
X147811950Y-116607200D01*
X147278550Y-115578500D02*
X147811950Y-115578500D01*
X146973750Y-115769000D02*
X147545250Y-115959500D01*
X147545250Y-115464200D01*
X155136850Y-95095060D02*
X155784550Y-95095060D01*
X155860750Y-95056960D01*
X155898850Y-95018860D01*
X155936950Y-94942660D01*
X155936950Y-94790260D01*
X155898850Y-94714060D01*
X155860750Y-94675960D01*
X155784550Y-94637860D01*
X155136850Y-94637860D01*
X155936950Y-93837760D02*
X155936950Y-94294960D01*
X155936950Y-94066360D02*
X155136850Y-94066360D01*
X155251150Y-94142560D01*
X155327350Y-94218760D01*
X155365450Y-94294960D01*
X155136850Y-93342460D02*
X155136850Y-93266260D01*
X155174950Y-93190060D01*
X155213050Y-93151960D01*
X155289250Y-93113860D01*
X155441650Y-93075760D01*
X155632150Y-93075760D01*
X155784550Y-93113860D01*
X155860750Y-93151960D01*
X155898850Y-93190060D01*
X155936950Y-93266260D01*
X155936950Y-93342460D01*
X155898850Y-93418660D01*
X155860750Y-93456760D01*
X155784550Y-93494860D01*
X155632150Y-93532960D01*
X155441650Y-93532960D01*
X155289250Y-93494860D01*
X155213050Y-93456760D01*
X155174950Y-93418660D01*
X155136850Y-93342460D01*
X156285750Y-111014350D02*
X156323850Y-111052450D01*
X156361950Y-111166750D01*
X156361950Y-111242950D01*
X156323850Y-111357250D01*
X156247650Y-111433450D01*
X156171450Y-111471550D01*
X156019050Y-111509650D01*
X155904750Y-111509650D01*
X155752350Y-111471550D01*
X155676150Y-111433450D01*
X155599950Y-111357250D01*
X155561850Y-111242950D01*
X155561850Y-111166750D01*
X155599950Y-111052450D01*
X155638050Y-111014350D01*
X155561850Y-110747650D02*
X155561850Y-110252350D01*
X155866650Y-110519050D01*
X155866650Y-110404750D01*
X155904750Y-110328550D01*
X155942850Y-110290450D01*
X156019050Y-110252350D01*
X156209550Y-110252350D01*
X156285750Y-110290450D01*
X156323850Y-110328550D01*
X156361950Y-110404750D01*
X156361950Y-110633350D01*
X156323850Y-110709550D01*
X156285750Y-110747650D01*
X155828550Y-109566550D02*
X156361950Y-109566550D01*
X155523750Y-109757050D02*
X156095250Y-109947550D01*
X156095250Y-109452250D01*
X144557750Y-91014350D02*
X144595850Y-91052450D01*
X144633950Y-91166750D01*
X144633950Y-91242950D01*
X144595850Y-91357250D01*
X144519650Y-91433450D01*
X144443450Y-91471550D01*
X144291050Y-91509650D01*
X144176750Y-91509650D01*
X144024350Y-91471550D01*
X143948150Y-91433450D01*
X143871950Y-91357250D01*
X143833850Y-91242950D01*
X143833850Y-91166750D01*
X143871950Y-91052450D01*
X143910050Y-91014350D01*
X144633950Y-90252350D02*
X144633950Y-90709550D01*
X144633950Y-90480950D02*
X143833850Y-90480950D01*
X143948150Y-90557150D01*
X144024350Y-90633350D01*
X144062450Y-90709550D01*
X144176750Y-89795150D02*
X144138650Y-89871350D01*
X144100550Y-89909450D01*
X144024350Y-89947550D01*
X143986250Y-89947550D01*
X143910050Y-89909450D01*
X143871950Y-89871350D01*
X143833850Y-89795150D01*
X143833850Y-89642750D01*
X143871950Y-89566550D01*
X143910050Y-89528450D01*
X143986250Y-89490350D01*
X144024350Y-89490350D01*
X144100550Y-89528450D01*
X144138650Y-89566550D01*
X144176750Y-89642750D01*
X144176750Y-89795150D01*
X144214850Y-89871350D01*
X144252950Y-89909450D01*
X144329150Y-89947550D01*
X144481550Y-89947550D01*
X144557750Y-89909450D01*
X144595850Y-89871350D01*
X144633950Y-89795150D01*
X144633950Y-89642750D01*
X144595850Y-89566550D01*
X144557750Y-89528450D01*
X144481550Y-89490350D01*
X144329150Y-89490350D01*
X144252950Y-89528450D01*
X144214850Y-89566550D01*
X144176750Y-89642750D01*
X136935650Y-88385750D02*
X136897550Y-88423850D01*
X136783250Y-88461950D01*
X136707050Y-88461950D01*
X136592750Y-88423850D01*
X136516550Y-88347650D01*
X136478450Y-88271450D01*
X136440350Y-88119050D01*
X136440350Y-88004750D01*
X136478450Y-87852350D01*
X136516550Y-87776150D01*
X136592750Y-87699950D01*
X136707050Y-87661850D01*
X136783250Y-87661850D01*
X136897550Y-87699950D01*
X136935650Y-87738050D01*
X137240450Y-87738050D02*
X137278550Y-87699950D01*
X137354750Y-87661850D01*
X137545250Y-87661850D01*
X137621450Y-87699950D01*
X137659550Y-87738050D01*
X137697650Y-87814250D01*
X137697650Y-87890450D01*
X137659550Y-88004750D01*
X137202350Y-88461950D01*
X137697650Y-88461950D01*
X138192950Y-87661850D02*
X138269150Y-87661850D01*
X138345350Y-87699950D01*
X138383450Y-87738050D01*
X138421550Y-87814250D01*
X138459650Y-87966650D01*
X138459650Y-88157150D01*
X138421550Y-88309550D01*
X138383450Y-88385750D01*
X138345350Y-88423850D01*
X138269150Y-88461950D01*
X138192950Y-88461950D01*
X138116750Y-88423850D01*
X138078650Y-88385750D01*
X138040550Y-88309550D01*
X138002450Y-88157150D01*
X138002450Y-87966650D01*
X138040550Y-87814250D01*
X138078650Y-87738050D01*
X138116750Y-87699950D01*
X138192950Y-87661850D01*
X133361950Y-87014350D02*
X132980950Y-87281050D01*
X133361950Y-87471550D02*
X132561850Y-87471550D01*
X132561850Y-87166750D01*
X132599950Y-87090550D01*
X132638050Y-87052450D01*
X132714250Y-87014350D01*
X132828550Y-87014350D01*
X132904750Y-87052450D01*
X132942850Y-87090550D01*
X132980950Y-87166750D01*
X132980950Y-87471550D01*
X133361950Y-86252350D02*
X133361950Y-86709550D01*
X133361950Y-86480950D02*
X132561850Y-86480950D01*
X132676150Y-86557150D01*
X132752350Y-86633350D01*
X132790450Y-86709550D01*
X132828550Y-85566550D02*
X133361950Y-85566550D01*
X132523750Y-85757050D02*
X133095250Y-85947550D01*
X133095250Y-85452250D01*
X128861950Y-86874350D02*
X128480950Y-87141050D01*
X128861950Y-87331550D02*
X128061850Y-87331550D01*
X128061850Y-87026750D01*
X128099950Y-86950550D01*
X128138050Y-86912450D01*
X128214250Y-86874350D01*
X128328550Y-86874350D01*
X128404750Y-86912450D01*
X128442850Y-86950550D01*
X128480950Y-87026750D01*
X128480950Y-87331550D01*
X128861950Y-86112350D02*
X128861950Y-86569550D01*
X128861950Y-86340950D02*
X128061850Y-86340950D01*
X128176150Y-86417150D01*
X128252350Y-86493350D01*
X128290450Y-86569550D01*
X128061850Y-85845650D02*
X128061850Y-85350350D01*
X128366650Y-85617050D01*
X128366650Y-85502750D01*
X128404750Y-85426550D01*
X128442850Y-85388450D01*
X128519050Y-85350350D01*
X128709550Y-85350350D01*
X128785750Y-85388450D01*
X128823850Y-85426550D01*
X128861950Y-85502750D01*
X128861950Y-85731350D01*
X128823850Y-85807550D01*
X128785750Y-85845650D01*
X156965650Y-114026950D02*
X156698950Y-113645950D01*
X156508450Y-114026950D02*
X156508450Y-113226850D01*
X156813250Y-113226850D01*
X156889450Y-113264950D01*
X156927550Y-113303050D01*
X156965650Y-113379250D01*
X156965650Y-113493550D01*
X156927550Y-113569750D01*
X156889450Y-113607850D01*
X156813250Y-113645950D01*
X156508450Y-113645950D01*
X157270450Y-113303050D02*
X157308550Y-113264950D01*
X157384750Y-113226850D01*
X157575250Y-113226850D01*
X157651450Y-113264950D01*
X157689550Y-113303050D01*
X157727650Y-113379250D01*
X157727650Y-113455450D01*
X157689550Y-113569750D01*
X157232350Y-114026950D01*
X157727650Y-114026950D01*
X158032450Y-113303050D02*
X158070550Y-113264950D01*
X158146750Y-113226850D01*
X158337250Y-113226850D01*
X158413450Y-113264950D01*
X158451550Y-113303050D01*
X158489650Y-113379250D01*
X158489650Y-113455450D01*
X158451550Y-113569750D01*
X157994350Y-114026950D01*
X158489650Y-114026950D01*
X155935650Y-101911950D02*
X155668950Y-101530950D01*
X155478450Y-101911950D02*
X155478450Y-101111850D01*
X155783250Y-101111850D01*
X155859450Y-101149950D01*
X155897550Y-101188050D01*
X155935650Y-101264250D01*
X155935650Y-101378550D01*
X155897550Y-101454750D01*
X155859450Y-101492850D01*
X155783250Y-101530950D01*
X155478450Y-101530950D01*
X156240450Y-101188050D02*
X156278550Y-101149950D01*
X156354750Y-101111850D01*
X156545250Y-101111850D01*
X156621450Y-101149950D01*
X156659550Y-101188050D01*
X156697650Y-101264250D01*
X156697650Y-101340450D01*
X156659550Y-101454750D01*
X156202350Y-101911950D01*
X156697650Y-101911950D01*
X157383450Y-101111850D02*
X157231050Y-101111850D01*
X157154850Y-101149950D01*
X157116750Y-101188050D01*
X157040550Y-101302350D01*
X157002450Y-101454750D01*
X157002450Y-101759550D01*
X157040550Y-101835750D01*
X157078650Y-101873850D01*
X157154850Y-101911950D01*
X157307250Y-101911950D01*
X157383450Y-101873850D01*
X157421550Y-101835750D01*
X157459650Y-101759550D01*
X157459650Y-101569050D01*
X157421550Y-101492850D01*
X157383450Y-101454750D01*
X157307250Y-101416650D01*
X157154850Y-101416650D01*
X157078650Y-101454750D01*
X157040550Y-101492850D01*
X157002450Y-101569050D01*
X156111950Y-104016810D02*
X155730950Y-104283510D01*
X156111950Y-104474010D02*
X155311850Y-104474010D01*
X155311850Y-104169210D01*
X155349950Y-104093010D01*
X155388050Y-104054910D01*
X155464250Y-104016810D01*
X155578550Y-104016810D01*
X155654750Y-104054910D01*
X155692850Y-104093010D01*
X155730950Y-104169210D01*
X155730950Y-104474010D01*
X155388050Y-103712010D02*
X155349950Y-103673910D01*
X155311850Y-103597710D01*
X155311850Y-103407210D01*
X155349950Y-103331010D01*
X155388050Y-103292910D01*
X155464250Y-103254810D01*
X155540450Y-103254810D01*
X155654750Y-103292910D01*
X156111950Y-103750110D01*
X156111950Y-103254810D01*
X155311850Y-102988110D02*
X155311850Y-102454710D01*
X156111950Y-102797610D01*
X123916650Y-88761950D02*
X123649950Y-88380950D01*
X123459450Y-88761950D02*
X123459450Y-87961850D01*
X123764250Y-87961850D01*
X123840450Y-87999950D01*
X123878550Y-88038050D01*
X123916650Y-88114250D01*
X123916650Y-88228550D01*
X123878550Y-88304750D01*
X123840450Y-88342850D01*
X123764250Y-88380950D01*
X123459450Y-88380950D01*
X124640550Y-87961850D02*
X124259550Y-87961850D01*
X124221450Y-88342850D01*
X124259550Y-88304750D01*
X124335750Y-88266650D01*
X124526250Y-88266650D01*
X124602450Y-88304750D01*
X124640550Y-88342850D01*
X124678650Y-88419050D01*
X124678650Y-88609550D01*
X124640550Y-88685750D01*
X124602450Y-88723850D01*
X124526250Y-88761950D01*
X124335750Y-88761950D01*
X124259550Y-88723850D01*
X124221450Y-88685750D01*
X151861950Y-116283350D02*
X151480950Y-116550050D01*
X151861950Y-116740550D02*
X151061850Y-116740550D01*
X151061850Y-116435750D01*
X151099950Y-116359550D01*
X151138050Y-116321450D01*
X151214250Y-116283350D01*
X151328550Y-116283350D01*
X151404750Y-116321450D01*
X151442850Y-116359550D01*
X151480950Y-116435750D01*
X151480950Y-116740550D01*
X151328550Y-115597550D02*
X151861950Y-115597550D01*
X151023750Y-115788050D02*
X151595250Y-115978550D01*
X151595250Y-115483250D01*
X155311950Y-110733350D02*
X154930950Y-111000050D01*
X155311950Y-111190550D02*
X154511850Y-111190550D01*
X154511850Y-110885750D01*
X154549950Y-110809550D01*
X154588050Y-110771450D01*
X154664250Y-110733350D01*
X154778550Y-110733350D01*
X154854750Y-110771450D01*
X154892850Y-110809550D01*
X154930950Y-110885750D01*
X154930950Y-111190550D01*
X154511850Y-110466650D02*
X154511850Y-109971350D01*
X154816650Y-110238050D01*
X154816650Y-110123750D01*
X154854750Y-110047550D01*
X154892850Y-110009450D01*
X154969050Y-109971350D01*
X155159550Y-109971350D01*
X155235750Y-110009450D01*
X155273850Y-110047550D01*
X155311950Y-110123750D01*
X155311950Y-110352350D01*
X155273850Y-110428550D01*
X155235750Y-110466650D01*
X153911950Y-107083350D02*
X153530950Y-107350050D01*
X153911950Y-107540550D02*
X153111850Y-107540550D01*
X153111850Y-107235750D01*
X153149950Y-107159550D01*
X153188050Y-107121450D01*
X153264250Y-107083350D01*
X153378550Y-107083350D01*
X153454750Y-107121450D01*
X153492850Y-107159550D01*
X153530950Y-107235750D01*
X153530950Y-107540550D01*
X153188050Y-106778550D02*
X153149950Y-106740450D01*
X153111850Y-106664250D01*
X153111850Y-106473750D01*
X153149950Y-106397550D01*
X153188050Y-106359450D01*
X153264250Y-106321350D01*
X153340450Y-106321350D01*
X153454750Y-106359450D01*
X153911950Y-106816650D01*
X153911950Y-106321350D01*
X154861950Y-103635810D02*
X154480950Y-103902510D01*
X154861950Y-104093010D02*
X154061850Y-104093010D01*
X154061850Y-103788210D01*
X154099950Y-103712010D01*
X154138050Y-103673910D01*
X154214250Y-103635810D01*
X154328550Y-103635810D01*
X154404750Y-103673910D01*
X154442850Y-103712010D01*
X154480950Y-103788210D01*
X154480950Y-104093010D01*
X154861950Y-102873810D02*
X154861950Y-103331010D01*
X154861950Y-103102410D02*
X154061850Y-103102410D01*
X154176150Y-103178610D01*
X154252350Y-103254810D01*
X154290450Y-103331010D01*
X145890400Y-96561850D02*
X145890400Y-97209550D01*
X145928500Y-97285750D01*
X145966600Y-97323850D01*
X146042800Y-97361950D01*
X146195200Y-97361950D01*
X146271400Y-97323850D01*
X146309500Y-97285750D01*
X146347600Y-97209550D01*
X146347600Y-96561850D01*
X146842900Y-96904750D02*
X146766700Y-96866650D01*
X146728600Y-96828550D01*
X146690500Y-96752350D01*
X146690500Y-96714250D01*
X146728600Y-96638050D01*
X146766700Y-96599950D01*
X146842900Y-96561850D01*
X146995300Y-96561850D01*
X147071500Y-96599950D01*
X147109600Y-96638050D01*
X147147700Y-96714250D01*
X147147700Y-96752350D01*
X147109600Y-96828550D01*
X147071500Y-96866650D01*
X146995300Y-96904750D01*
X146842900Y-96904750D01*
X146766700Y-96942850D01*
X146728600Y-96980950D01*
X146690500Y-97057150D01*
X146690500Y-97209550D01*
X146728600Y-97285750D01*
X146766700Y-97323850D01*
X146842900Y-97361950D01*
X146995300Y-97361950D01*
X147071500Y-97323850D01*
X147109600Y-97285750D01*
X147147700Y-97209550D01*
X147147700Y-97057150D01*
X147109600Y-96980950D01*
X147071500Y-96942850D01*
X146995300Y-96904750D01*
X153691235Y-118702239D02*
X153125479Y-118136483D01*
X153260183Y-118001779D01*
X153367946Y-117947897D01*
X153475709Y-117947897D01*
X153556531Y-117974838D01*
X153691235Y-118055660D01*
X153772057Y-118136483D01*
X153852880Y-118271186D01*
X153879820Y-118352009D01*
X153879820Y-118459772D01*
X153825939Y-118567535D01*
X153691235Y-118702239D01*
X153637353Y-117624608D02*
X154014524Y-117247437D01*
X154337813Y-118055660D01*
X155153681Y-86684302D02*
X154587925Y-87250058D01*
X154453221Y-87115354D01*
X154399339Y-87007591D01*
X154399339Y-86899828D01*
X154426280Y-86819006D01*
X154507102Y-86684302D01*
X154587925Y-86603480D01*
X154722628Y-86522658D01*
X154803451Y-86495717D01*
X154911214Y-86495717D01*
X155018977Y-86549598D01*
X155153681Y-86684302D01*
X153779702Y-86441835D02*
X153887465Y-86549598D01*
X153968287Y-86576539D01*
X154022168Y-86576539D01*
X154156872Y-86549598D01*
X154291576Y-86468776D01*
X154507102Y-86253250D01*
X154534043Y-86172428D01*
X154534043Y-86118546D01*
X154507102Y-86037724D01*
X154399339Y-85929961D01*
X154318517Y-85903020D01*
X154264635Y-85903020D01*
X154183813Y-85929961D01*
X154049109Y-86064664D01*
X154022168Y-86145487D01*
X154022168Y-86199368D01*
X154049109Y-86280191D01*
X154156872Y-86387954D01*
X154237695Y-86414894D01*
X154291576Y-86414894D01*
X154372398Y-86387954D01*
X125441355Y-86936999D02*
X124875599Y-86371243D01*
X125010303Y-86236539D01*
X125118066Y-86182657D01*
X125225829Y-86182657D01*
X125306651Y-86209598D01*
X125441355Y-86290420D01*
X125522177Y-86371243D01*
X125603000Y-86505946D01*
X125629940Y-86586769D01*
X125629940Y-86694532D01*
X125576059Y-86802295D01*
X125441355Y-86936999D01*
X125710763Y-85536079D02*
X125441355Y-85805486D01*
X125683822Y-86101835D01*
X125683822Y-86047953D01*
X125710763Y-85967131D01*
X125845466Y-85832427D01*
X125926289Y-85805486D01*
X125980170Y-85805486D01*
X126060993Y-85832427D01*
X126195696Y-85967131D01*
X126222637Y-86047953D01*
X126222637Y-86101835D01*
X126195696Y-86182657D01*
X126060993Y-86317361D01*
X125980170Y-86344302D01*
X125926289Y-86344302D01*
X149111950Y-96214350D02*
X148730950Y-96481050D01*
X149111950Y-96671550D02*
X148311850Y-96671550D01*
X148311850Y-96366750D01*
X148349950Y-96290550D01*
X148388050Y-96252450D01*
X148464250Y-96214350D01*
X148578550Y-96214350D01*
X148654750Y-96252450D01*
X148692850Y-96290550D01*
X148730950Y-96366750D01*
X148730950Y-96671550D01*
X148311850Y-95947650D02*
X148311850Y-95452350D01*
X148616650Y-95719050D01*
X148616650Y-95604750D01*
X148654750Y-95528550D01*
X148692850Y-95490450D01*
X148769050Y-95452350D01*
X148959550Y-95452350D01*
X149035750Y-95490450D01*
X149073850Y-95528550D01*
X149111950Y-95604750D01*
X149111950Y-95833350D01*
X149073850Y-95909550D01*
X149035750Y-95947650D01*
X149111950Y-94690350D02*
X149111950Y-95147550D01*
X149111950Y-94918950D02*
X148311850Y-94918950D01*
X148426150Y-94995150D01*
X148502350Y-95071350D01*
X148540450Y-95147550D01*
X143811950Y-103564350D02*
X143430950Y-103831050D01*
X143811950Y-104021550D02*
X143011850Y-104021550D01*
X143011850Y-103716750D01*
X143049950Y-103640550D01*
X143088050Y-103602450D01*
X143164250Y-103564350D01*
X143278550Y-103564350D01*
X143354750Y-103602450D01*
X143392850Y-103640550D01*
X143430950Y-103716750D01*
X143430950Y-104021550D01*
X143088050Y-103259550D02*
X143049950Y-103221450D01*
X143011850Y-103145250D01*
X143011850Y-102954750D01*
X143049950Y-102878550D01*
X143088050Y-102840450D01*
X143164250Y-102802350D01*
X143240450Y-102802350D01*
X143354750Y-102840450D01*
X143811950Y-103297650D01*
X143811950Y-102802350D01*
X143278550Y-102116550D02*
X143811950Y-102116550D01*
X142973750Y-102307050D02*
X143545250Y-102497550D01*
X143545250Y-102002250D01*
X141725650Y-99980750D02*
X141687550Y-100018850D01*
X141573250Y-100056950D01*
X141497050Y-100056950D01*
X141382750Y-100018850D01*
X141306550Y-99942650D01*
X141268450Y-99866450D01*
X141230350Y-99714050D01*
X141230350Y-99599750D01*
X141268450Y-99447350D01*
X141306550Y-99371150D01*
X141382750Y-99294950D01*
X141497050Y-99256850D01*
X141573250Y-99256850D01*
X141687550Y-99294950D01*
X141725650Y-99333050D01*
X141992350Y-99256850D02*
X142487650Y-99256850D01*
X142220950Y-99561650D01*
X142335250Y-99561650D01*
X142411450Y-99599750D01*
X142449550Y-99637850D01*
X142487650Y-99714050D01*
X142487650Y-99904550D01*
X142449550Y-99980750D01*
X142411450Y-100018850D01*
X142335250Y-100056950D01*
X142106650Y-100056950D01*
X142030450Y-100018850D01*
X141992350Y-99980750D01*
X142754350Y-99256850D02*
X143249650Y-99256850D01*
X142982950Y-99561650D01*
X143097250Y-99561650D01*
X143173450Y-99599750D01*
X143211550Y-99637850D01*
X143249650Y-99714050D01*
X143249650Y-99904550D01*
X143211550Y-99980750D01*
X143173450Y-100018850D01*
X143097250Y-100056950D01*
X142868650Y-100056950D01*
X142792450Y-100018850D01*
X142754350Y-99980750D01*
X152068530Y-84861950D02*
X151801830Y-84480950D01*
X151611330Y-84861950D02*
X151611330Y-84061850D01*
X151916130Y-84061850D01*
X151992330Y-84099950D01*
X152030430Y-84138050D01*
X152068530Y-84214250D01*
X152068530Y-84328550D01*
X152030430Y-84404750D01*
X151992330Y-84442850D01*
X151916130Y-84480950D01*
X151611330Y-84480950D01*
X152754330Y-84061850D02*
X152601930Y-84061850D01*
X152525730Y-84099950D01*
X152487630Y-84138050D01*
X152411430Y-84252350D01*
X152373330Y-84404750D01*
X152373330Y-84709550D01*
X152411430Y-84785750D01*
X152449530Y-84823850D01*
X152525730Y-84861950D01*
X152678130Y-84861950D01*
X152754330Y-84823850D01*
X152792430Y-84785750D01*
X152830530Y-84709550D01*
X152830530Y-84519050D01*
X152792430Y-84442850D01*
X152754330Y-84404750D01*
X152678130Y-84366650D01*
X152525730Y-84366650D01*
X152449530Y-84404750D01*
X152411430Y-84442850D01*
X152373330Y-84519050D01*
D13*
X148066666Y-102450000D02*
X147733333Y-102683333D01*
X148066666Y-102850000D02*
X147366666Y-102850000D01*
X147366666Y-102583333D01*
X147400000Y-102516666D01*
X147433333Y-102483333D01*
X147500000Y-102450000D01*
X147600000Y-102450000D01*
X147666666Y-102483333D01*
X147700000Y-102516666D01*
X147733333Y-102583333D01*
X147733333Y-102850000D01*
X147433333Y-102183333D02*
X147400000Y-102150000D01*
X147366666Y-102083333D01*
X147366666Y-101916666D01*
X147400000Y-101850000D01*
X147433333Y-101816666D01*
X147500000Y-101783333D01*
X147566666Y-101783333D01*
X147666666Y-101816666D01*
X148066666Y-102216666D01*
X148066666Y-101783333D01*
X147366666Y-101150000D02*
X147366666Y-101483333D01*
X147700000Y-101516666D01*
X147666666Y-101483333D01*
X147633333Y-101416666D01*
X147633333Y-101250000D01*
X147666666Y-101183333D01*
X147700000Y-101150000D01*
X147766666Y-101116666D01*
X147933333Y-101116666D01*
X148000000Y-101150000D01*
X148033333Y-101183333D01*
X148066666Y-101250000D01*
X148066666Y-101416666D01*
X148033333Y-101483333D01*
X148000000Y-101516666D01*
D11*
X155942850Y-98878390D02*
X155980950Y-98764090D01*
X156019050Y-98725990D01*
X156095250Y-98687890D01*
X156209550Y-98687890D01*
X156285750Y-98725990D01*
X156323850Y-98764090D01*
X156361950Y-98840290D01*
X156361950Y-99145090D01*
X155561850Y-99145090D01*
X155561850Y-98878390D01*
X155599950Y-98802190D01*
X155638050Y-98764090D01*
X155714250Y-98725990D01*
X155790450Y-98725990D01*
X155866650Y-98764090D01*
X155904750Y-98802190D01*
X155942850Y-98878390D01*
X155942850Y-99145090D01*
X155561850Y-98459290D02*
X155561850Y-98002090D01*
X156361950Y-98230690D02*
X155561850Y-98230690D01*
X156361950Y-97316290D02*
X156361950Y-97773490D01*
X156361950Y-97544890D02*
X155561850Y-97544890D01*
X155676150Y-97621090D01*
X155752350Y-97697290D01*
X155790450Y-97773490D01*
X141725650Y-98555810D02*
X141458950Y-98174810D01*
X141268450Y-98555810D02*
X141268450Y-97755710D01*
X141573250Y-97755710D01*
X141649450Y-97793810D01*
X141687550Y-97831910D01*
X141725650Y-97908110D01*
X141725650Y-98022410D01*
X141687550Y-98098610D01*
X141649450Y-98136710D01*
X141573250Y-98174810D01*
X141268450Y-98174810D01*
X141992350Y-97755710D02*
X142487650Y-97755710D01*
X142220950Y-98060510D01*
X142335250Y-98060510D01*
X142411450Y-98098610D01*
X142449550Y-98136710D01*
X142487650Y-98212910D01*
X142487650Y-98403410D01*
X142449550Y-98479610D01*
X142411450Y-98517710D01*
X142335250Y-98555810D01*
X142106650Y-98555810D01*
X142030450Y-98517710D01*
X141992350Y-98479610D01*
X143173450Y-97755710D02*
X143021050Y-97755710D01*
X142944850Y-97793810D01*
X142906750Y-97831910D01*
X142830550Y-97946210D01*
X142792450Y-98098610D01*
X142792450Y-98403410D01*
X142830550Y-98479610D01*
X142868650Y-98517710D01*
X142944850Y-98555810D01*
X143097250Y-98555810D01*
X143173450Y-98517710D01*
X143211550Y-98479610D01*
X143249650Y-98403410D01*
X143249650Y-98212910D01*
X143211550Y-98136710D01*
X143173450Y-98098610D01*
X143097250Y-98060510D01*
X142944850Y-98060510D01*
X142868650Y-98098610D01*
X142830550Y-98136710D01*
X142792450Y-98212910D01*
X145086070Y-94611950D02*
X144819370Y-94230950D01*
X144628870Y-94611950D02*
X144628870Y-93811850D01*
X144933670Y-93811850D01*
X145009870Y-93849950D01*
X145047970Y-93888050D01*
X145086070Y-93964250D01*
X145086070Y-94078550D01*
X145047970Y-94154750D01*
X145009870Y-94192850D01*
X144933670Y-94230950D01*
X144628870Y-94230950D01*
X145352770Y-93811850D02*
X145848070Y-93811850D01*
X145581370Y-94116650D01*
X145695670Y-94116650D01*
X145771870Y-94154750D01*
X145809970Y-94192850D01*
X145848070Y-94269050D01*
X145848070Y-94459550D01*
X145809970Y-94535750D01*
X145771870Y-94573850D01*
X145695670Y-94611950D01*
X145467070Y-94611950D01*
X145390870Y-94573850D01*
X145352770Y-94535750D01*
X146114770Y-93811850D02*
X146648170Y-93811850D01*
X146305270Y-94611950D01*
X155129806Y-90515846D02*
X155201362Y-90418914D01*
X155260229Y-90237737D01*
X155247541Y-90153493D01*
X155223080Y-90105484D01*
X155162383Y-90045702D01*
X155089912Y-90022155D01*
X155005668Y-90034843D01*
X154957659Y-90059305D01*
X154897877Y-90120002D01*
X154814547Y-90253169D01*
X154754765Y-90313866D01*
X154706756Y-90338328D01*
X154622512Y-90351016D01*
X154550042Y-90327469D01*
X154489345Y-90267687D01*
X154464883Y-90219678D01*
X154452195Y-90135434D01*
X154511063Y-89954258D01*
X154582619Y-89857325D01*
X154628798Y-89591905D02*
X155448606Y-89657973D01*
X154952172Y-89336429D01*
X155542795Y-89368091D01*
X154840722Y-88939670D01*
X155825360Y-88498445D02*
X155684077Y-88933268D01*
X155754718Y-88715857D02*
X154993778Y-88468612D01*
X155078937Y-88576403D01*
X155127860Y-88672421D01*
X155140548Y-88756665D01*
X135535750Y-92617290D02*
X135573850Y-92655390D01*
X135611950Y-92769690D01*
X135611950Y-92845890D01*
X135573850Y-92960190D01*
X135497650Y-93036390D01*
X135421450Y-93074490D01*
X135269050Y-93112590D01*
X135154750Y-93112590D01*
X135002350Y-93074490D01*
X134926150Y-93036390D01*
X134849950Y-92960190D01*
X134811850Y-92845890D01*
X134811850Y-92769690D01*
X134849950Y-92655390D01*
X134888050Y-92617290D01*
X134888050Y-92312490D02*
X134849950Y-92274390D01*
X134811850Y-92198190D01*
X134811850Y-92007690D01*
X134849950Y-91931490D01*
X134888050Y-91893390D01*
X134964250Y-91855290D01*
X135040450Y-91855290D01*
X135154750Y-91893390D01*
X135611950Y-92350590D01*
X135611950Y-91855290D01*
X135078550Y-91169490D02*
X135611950Y-91169490D01*
X134773750Y-91359990D02*
X135345250Y-91550490D01*
X135345250Y-91055190D01*
X130139440Y-94061850D02*
X130139440Y-94709550D01*
X130177540Y-94785750D01*
X130215640Y-94823850D01*
X130291840Y-94861950D01*
X130444240Y-94861950D01*
X130520440Y-94823850D01*
X130558540Y-94785750D01*
X130596640Y-94709550D01*
X130596640Y-94061850D01*
X131358640Y-94061850D02*
X130977640Y-94061850D01*
X130939540Y-94442850D01*
X130977640Y-94404750D01*
X131053840Y-94366650D01*
X131244340Y-94366650D01*
X131320540Y-94404750D01*
X131358640Y-94442850D01*
X131396740Y-94519050D01*
X131396740Y-94709550D01*
X131358640Y-94785750D01*
X131320540Y-94823850D01*
X131244340Y-94861950D01*
X131053840Y-94861950D01*
X130977640Y-94823850D01*
X130939540Y-94785750D01*
D14*
X142680400Y-105506358D02*
X142490505Y-105639285D01*
X142680400Y-105734232D02*
X142281620Y-105734232D01*
X142281620Y-105582316D01*
X142300610Y-105544337D01*
X142319599Y-105525348D01*
X142357578Y-105506358D01*
X142414547Y-105506358D01*
X142452526Y-105525348D01*
X142471515Y-105544337D01*
X142490505Y-105582316D01*
X142490505Y-105734232D01*
X142281620Y-105373431D02*
X142281620Y-105126568D01*
X142433536Y-105259494D01*
X142433536Y-105202526D01*
X142452526Y-105164547D01*
X142471515Y-105145557D01*
X142509494Y-105126568D01*
X142604442Y-105126568D01*
X142642421Y-105145557D01*
X142661410Y-105164547D01*
X142680400Y-105202526D01*
X142680400Y-105316463D01*
X142661410Y-105354442D01*
X142642421Y-105373431D01*
X142680400Y-104936672D02*
X142680400Y-104860714D01*
X142661410Y-104822735D01*
X142642421Y-104803746D01*
X142585452Y-104765767D01*
X142509494Y-104746777D01*
X142357578Y-104746777D01*
X142319599Y-104765767D01*
X142300610Y-104784756D01*
X142281620Y-104822735D01*
X142281620Y-104898693D01*
X142300610Y-104936672D01*
X142319599Y-104955662D01*
X142357578Y-104974651D01*
X142452526Y-104974651D01*
X142490505Y-104955662D01*
X142509494Y-104936672D01*
X142528484Y-104898693D01*
X142528484Y-104822735D01*
X142509494Y-104784756D01*
X142490505Y-104765767D01*
X142452526Y-104746777D01*
X141729520Y-105506358D02*
X141539625Y-105639285D01*
X141729520Y-105734232D02*
X141330740Y-105734232D01*
X141330740Y-105582316D01*
X141349730Y-105544337D01*
X141368719Y-105525348D01*
X141406698Y-105506358D01*
X141463667Y-105506358D01*
X141501646Y-105525348D01*
X141520635Y-105544337D01*
X141539625Y-105582316D01*
X141539625Y-105734232D01*
X141463667Y-105164547D02*
X141729520Y-105164547D01*
X141311750Y-105259494D02*
X141596593Y-105354442D01*
X141596593Y-105107578D01*
X141330740Y-104879704D02*
X141330740Y-104841725D01*
X141349730Y-104803746D01*
X141368719Y-104784756D01*
X141406698Y-104765767D01*
X141482656Y-104746777D01*
X141577604Y-104746777D01*
X141653562Y-104765767D01*
X141691541Y-104784756D01*
X141710530Y-104803746D01*
X141729520Y-104841725D01*
X141729520Y-104879704D01*
X141710530Y-104917683D01*
X141691541Y-104936672D01*
X141653562Y-104955662D01*
X141577604Y-104974651D01*
X141482656Y-104974651D01*
X141406698Y-104955662D01*
X141368719Y-104936672D01*
X141349730Y-104917683D01*
X141330740Y-104879704D01*
X140830360Y-105506358D02*
X140640465Y-105639285D01*
X140830360Y-105734232D02*
X140431580Y-105734232D01*
X140431580Y-105582316D01*
X140450570Y-105544337D01*
X140469559Y-105525348D01*
X140507538Y-105506358D01*
X140564507Y-105506358D01*
X140602486Y-105525348D01*
X140621475Y-105544337D01*
X140640465Y-105582316D01*
X140640465Y-105734232D01*
X140564507Y-105164547D02*
X140830360Y-105164547D01*
X140412590Y-105259494D02*
X140697433Y-105354442D01*
X140697433Y-105107578D01*
X140830360Y-104746777D02*
X140830360Y-104974651D01*
X140830360Y-104860714D02*
X140431580Y-104860714D01*
X140488549Y-104898693D01*
X140526528Y-104936672D01*
X140545517Y-104974651D01*
D15*
X140375900Y-108526817D02*
X139899710Y-108860150D01*
X140375900Y-109098245D02*
X139375900Y-109098245D01*
X139375900Y-108717293D01*
X139423520Y-108622055D01*
X139471139Y-108574436D01*
X139566377Y-108526817D01*
X139709234Y-108526817D01*
X139804472Y-108574436D01*
X139852091Y-108622055D01*
X139899710Y-108717293D01*
X139899710Y-109098245D01*
X139709234Y-107669674D02*
X140375900Y-107669674D01*
X139328281Y-107907769D02*
X140042567Y-108145864D01*
X140042567Y-107526817D01*
X139471139Y-107193483D02*
X139423520Y-107145864D01*
X139375900Y-107050626D01*
X139375900Y-106812531D01*
X139423520Y-106717293D01*
X139471139Y-106669674D01*
X139566377Y-106622055D01*
X139661615Y-106622055D01*
X139804472Y-106669674D01*
X140375900Y-107241102D01*
X140375900Y-106622055D01*
X140264761Y-118173333D02*
X140312380Y-118030476D01*
X140312380Y-117792380D01*
X140264761Y-117697142D01*
X140217142Y-117649523D01*
X140121904Y-117601904D01*
X140026666Y-117601904D01*
X139931428Y-117649523D01*
X139883809Y-117697142D01*
X139836190Y-117792380D01*
X139788571Y-117982857D01*
X139740952Y-118078095D01*
X139693333Y-118125714D01*
X139598095Y-118173333D01*
X139502857Y-118173333D01*
X139407619Y-118125714D01*
X139360000Y-118078095D01*
X139312380Y-117982857D01*
X139312380Y-117744761D01*
X139360000Y-117601904D01*
X139312380Y-117268571D02*
X140312380Y-117030476D01*
X139598095Y-116840000D01*
X140312380Y-116649523D01*
X139312380Y-116411428D01*
X139407619Y-116078095D02*
X139360000Y-116030476D01*
X139312380Y-115935238D01*
X139312380Y-115697142D01*
X139360000Y-115601904D01*
X139407619Y-115554285D01*
X139502857Y-115506666D01*
X139598095Y-115506666D01*
X139740952Y-115554285D01*
X140312380Y-116125714D01*
X140312380Y-115506666D01*
X127700182Y-116716826D02*
X127747801Y-116764445D01*
X127795420Y-116907302D01*
X127795420Y-117002540D01*
X127747801Y-117145398D01*
X127652563Y-117240636D01*
X127557325Y-117288255D01*
X127366849Y-117335874D01*
X127223992Y-117335874D01*
X127033516Y-117288255D01*
X126938278Y-117240636D01*
X126843040Y-117145398D01*
X126795420Y-117002540D01*
X126795420Y-116907302D01*
X126843040Y-116764445D01*
X126890659Y-116716826D01*
X127795420Y-115764445D02*
X127795420Y-116335874D01*
X127795420Y-116050160D02*
X126795420Y-116050160D01*
X126938278Y-116145398D01*
X127033516Y-116240636D01*
X127081135Y-116335874D01*
X125357142Y-116746506D02*
X125404761Y-116794125D01*
X125452380Y-116936982D01*
X125452380Y-117032220D01*
X125404761Y-117175078D01*
X125309523Y-117270316D01*
X125214285Y-117317935D01*
X125023809Y-117365554D01*
X124880952Y-117365554D01*
X124690476Y-117317935D01*
X124595238Y-117270316D01*
X124500000Y-117175078D01*
X124452380Y-117032220D01*
X124452380Y-116936982D01*
X124500000Y-116794125D01*
X124547619Y-116746506D01*
X124547619Y-116365554D02*
X124500000Y-116317935D01*
X124452380Y-116222697D01*
X124452380Y-115984601D01*
X124500000Y-115889363D01*
X124547619Y-115841744D01*
X124642857Y-115794125D01*
X124738095Y-115794125D01*
X124880952Y-115841744D01*
X125452380Y-116413173D01*
X125452380Y-115794125D01*
X123933333Y-91202380D02*
X123600000Y-90726190D01*
X123361904Y-91202380D02*
X123361904Y-90202380D01*
X123742857Y-90202380D01*
X123838095Y-90250000D01*
X123885714Y-90297619D01*
X123933333Y-90392857D01*
X123933333Y-90535714D01*
X123885714Y-90630952D01*
X123838095Y-90678571D01*
X123742857Y-90726190D01*
X123361904Y-90726190D01*
X124266666Y-90202380D02*
X124933333Y-90202380D01*
X124504761Y-91202380D01*
X123607142Y-108166666D02*
X123654761Y-108214285D01*
X123702380Y-108357142D01*
X123702380Y-108452380D01*
X123654761Y-108595238D01*
X123559523Y-108690476D01*
X123464285Y-108738095D01*
X123273809Y-108785714D01*
X123130952Y-108785714D01*
X122940476Y-108738095D01*
X122845238Y-108690476D01*
X122750000Y-108595238D01*
X122702380Y-108452380D01*
X122702380Y-108357142D01*
X122750000Y-108214285D01*
X122797619Y-108166666D01*
X122702380Y-107261904D02*
X122702380Y-107738095D01*
X123178571Y-107785714D01*
X123130952Y-107738095D01*
X123083333Y-107642857D01*
X123083333Y-107404761D01*
X123130952Y-107309523D01*
X123178571Y-107261904D01*
X123273809Y-107214285D01*
X123511904Y-107214285D01*
X123607142Y-107261904D01*
X123654761Y-107309523D01*
X123702380Y-107404761D01*
X123702380Y-107642857D01*
X123654761Y-107738095D01*
X123607142Y-107785714D01*
X125952380Y-103766666D02*
X125476190Y-104100000D01*
X125952380Y-104338095D02*
X124952380Y-104338095D01*
X124952380Y-103957142D01*
X125000000Y-103861904D01*
X125047619Y-103814285D01*
X125142857Y-103766666D01*
X125285714Y-103766666D01*
X125380952Y-103814285D01*
X125428571Y-103861904D01*
X125476190Y-103957142D01*
X125476190Y-104338095D01*
X125380952Y-103195238D02*
X125333333Y-103290476D01*
X125285714Y-103338095D01*
X125190476Y-103385714D01*
X125142857Y-103385714D01*
X125047619Y-103338095D01*
X125000000Y-103290476D01*
X124952380Y-103195238D01*
X124952380Y-103004761D01*
X125000000Y-102909523D01*
X125047619Y-102861904D01*
X125142857Y-102814285D01*
X125190476Y-102814285D01*
X125285714Y-102861904D01*
X125333333Y-102909523D01*
X125380952Y-103004761D01*
X125380952Y-103195238D01*
X125428571Y-103290476D01*
X125476190Y-103338095D01*
X125571428Y-103385714D01*
X125761904Y-103385714D01*
X125857142Y-103338095D01*
X125904761Y-103290476D01*
X125952380Y-103195238D01*
X125952380Y-103004761D01*
X125904761Y-102909523D01*
X125857142Y-102861904D01*
X125761904Y-102814285D01*
X125571428Y-102814285D01*
X125476190Y-102861904D01*
X125428571Y-102909523D01*
X125380952Y-103004761D01*
X122452380Y-108166666D02*
X121976190Y-108500000D01*
X122452380Y-108738095D02*
X121452380Y-108738095D01*
X121452380Y-108357142D01*
X121500000Y-108261904D01*
X121547619Y-108214285D01*
X121642857Y-108166666D01*
X121785714Y-108166666D01*
X121880952Y-108214285D01*
X121928571Y-108261904D01*
X121976190Y-108357142D01*
X121976190Y-108738095D01*
X122452380Y-107690476D02*
X122452380Y-107500000D01*
X122404761Y-107404761D01*
X122357142Y-107357142D01*
X122214285Y-107261904D01*
X122023809Y-107214285D01*
X121642857Y-107214285D01*
X121547619Y-107261904D01*
X121500000Y-107309523D01*
X121452380Y-107404761D01*
X121452380Y-107595238D01*
X121500000Y-107690476D01*
X121547619Y-107738095D01*
X121642857Y-107785714D01*
X121880952Y-107785714D01*
X121976190Y-107738095D01*
X122023809Y-107690476D01*
X122071428Y-107595238D01*
X122071428Y-107404761D01*
X122023809Y-107309523D01*
X121976190Y-107261904D01*
X121880952Y-107214285D01*
X130466862Y-101518980D02*
X130133529Y-101042790D01*
X129895434Y-101518980D02*
X129895434Y-100518980D01*
X130276386Y-100518980D01*
X130371624Y-100566600D01*
X130419243Y-100614219D01*
X130466862Y-100709457D01*
X130466862Y-100852314D01*
X130419243Y-100947552D01*
X130371624Y-100995171D01*
X130276386Y-101042790D01*
X129895434Y-101042790D01*
X131419243Y-101518980D02*
X130847815Y-101518980D01*
X131133529Y-101518980D02*
X131133529Y-100518980D01*
X131038291Y-100661838D01*
X130943053Y-100757076D01*
X130847815Y-100804695D01*
X132038291Y-100518980D02*
X132133529Y-100518980D01*
X132228767Y-100566600D01*
X132276386Y-100614219D01*
X132324005Y-100709457D01*
X132371624Y-100899933D01*
X132371624Y-101138028D01*
X132324005Y-101328504D01*
X132276386Y-101423742D01*
X132228767Y-101471361D01*
X132133529Y-101518980D01*
X132038291Y-101518980D01*
X131943053Y-101471361D01*
X131895434Y-101423742D01*
X131847815Y-101328504D01*
X131800196Y-101138028D01*
X131800196Y-100899933D01*
X131847815Y-100709457D01*
X131895434Y-100614219D01*
X131943053Y-100566600D01*
X132038291Y-100518980D01*
X123547619Y-114095238D02*
X123500000Y-114190476D01*
X123404761Y-114285714D01*
X123261904Y-114428571D01*
X123214285Y-114523809D01*
X123214285Y-114619047D01*
X123452380Y-114571428D02*
X123404761Y-114666666D01*
X123309523Y-114761904D01*
X123119047Y-114809523D01*
X122785714Y-114809523D01*
X122595238Y-114761904D01*
X122500000Y-114666666D01*
X122452380Y-114571428D01*
X122452380Y-114380952D01*
X122500000Y-114285714D01*
X122595238Y-114190476D01*
X122785714Y-114142857D01*
X123119047Y-114142857D01*
X123309523Y-114190476D01*
X123404761Y-114285714D01*
X123452380Y-114380952D01*
X123452380Y-114571428D01*
X122452380Y-113809523D02*
X122452380Y-113142857D01*
X123452380Y-113571428D01*
X131697619Y-103845238D02*
X131650000Y-103940476D01*
X131554761Y-104035714D01*
X131411904Y-104178571D01*
X131364285Y-104273809D01*
X131364285Y-104369047D01*
X131602380Y-104321428D02*
X131554761Y-104416666D01*
X131459523Y-104511904D01*
X131269047Y-104559523D01*
X130935714Y-104559523D01*
X130745238Y-104511904D01*
X130650000Y-104416666D01*
X130602380Y-104321428D01*
X130602380Y-104130952D01*
X130650000Y-104035714D01*
X130745238Y-103940476D01*
X130935714Y-103892857D01*
X131269047Y-103892857D01*
X131459523Y-103940476D01*
X131554761Y-104035714D01*
X131602380Y-104130952D01*
X131602380Y-104321428D01*
X131030952Y-103321428D02*
X130983333Y-103416666D01*
X130935714Y-103464285D01*
X130840476Y-103511904D01*
X130792857Y-103511904D01*
X130697619Y-103464285D01*
X130650000Y-103416666D01*
X130602380Y-103321428D01*
X130602380Y-103130952D01*
X130650000Y-103035714D01*
X130697619Y-102988095D01*
X130792857Y-102940476D01*
X130840476Y-102940476D01*
X130935714Y-102988095D01*
X130983333Y-103035714D01*
X131030952Y-103130952D01*
X131030952Y-103321428D01*
X131078571Y-103416666D01*
X131126190Y-103464285D01*
X131221428Y-103511904D01*
X131411904Y-103511904D01*
X131507142Y-103464285D01*
X131554761Y-103416666D01*
X131602380Y-103321428D01*
X131602380Y-103130952D01*
X131554761Y-103035714D01*
X131507142Y-102988095D01*
X131411904Y-102940476D01*
X131221428Y-102940476D01*
X131126190Y-102988095D01*
X131078571Y-103035714D01*
X131030952Y-103130952D01*
X136952380Y-91761904D02*
X137761904Y-91761904D01*
X137857142Y-91714285D01*
X137904761Y-91666666D01*
X137952380Y-91571428D01*
X137952380Y-91380952D01*
X137904761Y-91285714D01*
X137857142Y-91238095D01*
X137761904Y-91190476D01*
X136952380Y-91190476D01*
X137952380Y-90190476D02*
X137952380Y-90761904D01*
X137952380Y-90476190D02*
X136952380Y-90476190D01*
X137095238Y-90571428D01*
X137190476Y-90666666D01*
X137238095Y-90761904D01*
D16*
X149382480Y-101978460D02*
X149382480Y-105026460D01*
X148620480Y-105026460D02*
X148620480Y-101978460D01*
X148620480Y-101978460D02*
X149382480Y-101978460D01*
X149382480Y-105026460D02*
X148620480Y-105026460D01*
X148620480Y-108526580D02*
X148620480Y-105478580D01*
X149382480Y-105478580D02*
X149382480Y-108526580D01*
X149382480Y-108526580D02*
X148620480Y-108526580D01*
X148620480Y-105478580D02*
X149382480Y-105478580D01*
X148620480Y-112026700D02*
X148620480Y-108978700D01*
X149382480Y-112026700D02*
X148620480Y-112026700D01*
X149382480Y-108978700D02*
X149382480Y-112026700D01*
X148620480Y-108978700D02*
X149382480Y-108978700D01*
X148620480Y-112478820D02*
X149382480Y-112478820D01*
X149382480Y-112478820D02*
X149382480Y-115526820D01*
X148620480Y-115526820D02*
X148620480Y-112478820D01*
X149382480Y-115526820D02*
X148620480Y-115526820D01*
X151937720Y-92870020D02*
X153461720Y-92870020D01*
X153461720Y-95473520D02*
X151937720Y-95473520D01*
X151937720Y-93695520D02*
X152445720Y-92933520D01*
X151937720Y-95473520D02*
X151937720Y-92870020D01*
X153461720Y-92870020D02*
X153461720Y-95473520D01*
X152364440Y-111645700D02*
X152364440Y-109359700D01*
X153634440Y-109359700D02*
X153634440Y-111645700D01*
X152364440Y-109359700D02*
X153634440Y-109359700D01*
X153634440Y-111645700D02*
X152364440Y-111645700D01*
X143635000Y-91643000D02*
X142365000Y-91643000D01*
X142365000Y-91643000D02*
X142365000Y-89357000D01*
X143635000Y-89357000D02*
X143635000Y-91643000D01*
X142365000Y-89357000D02*
X143635000Y-89357000D01*
X141043660Y-88635000D02*
X138757660Y-88635000D01*
X138757660Y-88635000D02*
X138757660Y-87365000D01*
X141043660Y-87365000D02*
X141043660Y-88635000D01*
X138757660Y-87365000D02*
X141043660Y-87365000D01*
X130865880Y-87546180D02*
X130865880Y-85260180D01*
X130865880Y-85260180D02*
X132135880Y-85260180D01*
X132135880Y-87546180D02*
X130865880Y-87546180D01*
X132135880Y-85260180D02*
X132135880Y-87546180D01*
X130634740Y-85260180D02*
X130634740Y-87546180D01*
X130634740Y-87546180D02*
X129364740Y-87546180D01*
X129364740Y-87546180D02*
X129364740Y-85260180D01*
X129364740Y-85260180D02*
X130634740Y-85260180D01*
X156042360Y-112867440D02*
X156042360Y-114137440D01*
X153756360Y-114137440D02*
X153756360Y-112867440D01*
X153756360Y-112867440D02*
X156042360Y-112867440D01*
X156042360Y-114137440D02*
X153756360Y-114137440D01*
X150855680Y-100868480D02*
X153141680Y-100868480D01*
X153141680Y-100868480D02*
X153141680Y-102138480D01*
X150855680Y-102138480D02*
X150855680Y-100868480D01*
X153141680Y-102138480D02*
X150855680Y-102138480D01*
X153634440Y-104645460D02*
X152364440Y-104645460D01*
X152364440Y-104645460D02*
X152364440Y-102359460D01*
X153634440Y-102359460D02*
X153634440Y-104645460D01*
X152364440Y-102359460D02*
X153634440Y-102359460D01*
X127342900Y-88539320D02*
X125056900Y-88539320D01*
X127342900Y-87269320D02*
X127342900Y-88539320D01*
X125056900Y-88539320D02*
X125056900Y-87269320D01*
X125056900Y-87269320D02*
X127342900Y-87269320D01*
X150865840Y-112859820D02*
X152135840Y-112859820D01*
X152135840Y-115145820D02*
X150865840Y-115145820D01*
X152135840Y-112859820D02*
X152135840Y-115145820D01*
X150865840Y-115145820D02*
X150865840Y-112859820D01*
X150865840Y-109359700D02*
X152135840Y-109359700D01*
X152135840Y-111645700D02*
X150865840Y-111645700D01*
X150865840Y-111645700D02*
X150865840Y-109359700D01*
X152135840Y-109359700D02*
X152135840Y-111645700D01*
X152135840Y-108145580D02*
X150865840Y-108145580D01*
X152135840Y-105859580D02*
X152135840Y-108145580D01*
X150865840Y-105859580D02*
X152135840Y-105859580D01*
X150865840Y-108145580D02*
X150865840Y-105859580D01*
X152135840Y-104645460D02*
X150865840Y-104645460D01*
X150865840Y-104645460D02*
X150865840Y-102359460D01*
X152135840Y-102359460D02*
X152135840Y-104645460D01*
X150865840Y-102359460D02*
X152135840Y-102359460D01*
D10*
X150347680Y-100606860D02*
X150649940Y-100304600D01*
X150639780Y-97363280D02*
X150639780Y-97612200D01*
X147355560Y-97363280D02*
X147604480Y-97363280D01*
X147607020Y-100644960D02*
X147358100Y-100644960D01*
X147358100Y-97612200D02*
X147358100Y-97363280D01*
X150393400Y-97363280D02*
X150642320Y-97363280D01*
X147358100Y-100647500D02*
X147358100Y-100398580D01*
D16*
X154473255Y-116748239D02*
X154545097Y-116820081D01*
X155816701Y-115548477D02*
X155744859Y-115476635D01*
X155252741Y-117527725D02*
X155180899Y-117455883D01*
X155640688Y-116856002D02*
X155144978Y-116360292D01*
X155744859Y-115476635D02*
X154473255Y-116748239D01*
X156524345Y-116256121D02*
X155252741Y-117527725D01*
X156452503Y-116184279D02*
X156524345Y-116256121D01*
X155071340Y-117845626D02*
G75*
G03*
X155071340Y-117845626I-68250J0D01*
G01*
X155645799Y-86628625D02*
X154374195Y-85357021D01*
X154374195Y-85357021D02*
X154446037Y-85285179D01*
X155045918Y-85744968D02*
X155541628Y-85249258D01*
X155153681Y-84577535D02*
X155081839Y-84649377D01*
X156353443Y-85920981D02*
X156425285Y-85849139D01*
X155717641Y-86556783D02*
X155645799Y-86628625D01*
X156425285Y-85849139D02*
X155153681Y-84577535D01*
X154124544Y-85107370D02*
G75*
G03*
X154124544Y-85107370I-68250J0D01*
G01*
X124845759Y-84478475D02*
X124917601Y-84550317D01*
X123574155Y-85750079D02*
X124845759Y-84478475D01*
X124457812Y-85150198D02*
X124953522Y-85645908D01*
X124353641Y-86529565D02*
X125625245Y-85257961D01*
X124281799Y-86457723D02*
X124353641Y-86529565D01*
X125625245Y-85257961D02*
X125553403Y-85186119D01*
X123645997Y-85821921D02*
X123574155Y-85750079D01*
X125163660Y-84160574D02*
G75*
G03*
X125163660Y-84160574I-68250J0D01*
G01*
X150634700Y-94361000D02*
X150634700Y-96647000D01*
X150634700Y-96647000D02*
X149364700Y-96647000D01*
X149364700Y-94361000D02*
X150634700Y-94361000D01*
X149364700Y-96647000D02*
X149364700Y-94361000D01*
X144264380Y-100860860D02*
X145534380Y-100860860D01*
X145534380Y-103146860D02*
X144264380Y-103146860D01*
X145534380Y-100860860D02*
X145534380Y-103146860D01*
X144264380Y-103146860D02*
X144264380Y-100860860D01*
X145742660Y-98968560D02*
X145742660Y-100238560D01*
X143456660Y-98968560D02*
X145742660Y-98968560D01*
X143456660Y-100238560D02*
X143456660Y-98968560D01*
X145742660Y-100238560D02*
X143456660Y-100238560D01*
X150957280Y-86438740D02*
X150957280Y-85168740D01*
X150957280Y-85168740D02*
X153243280Y-85168740D01*
X153243280Y-86438740D02*
X150957280Y-86438740D01*
X153243280Y-85168740D02*
X153243280Y-86438740D01*
X147035520Y-103146860D02*
X145765520Y-103146860D01*
X145765520Y-103146860D02*
X145765520Y-100860860D01*
X147035520Y-100860860D02*
X147035520Y-103146860D01*
X145765520Y-100860860D02*
X147035520Y-100860860D01*
D10*
X151348440Y-100550980D02*
X151348440Y-96050100D01*
X151348440Y-96050100D02*
X154848560Y-96050100D01*
X154848560Y-100550980D02*
X151348440Y-100550980D01*
X154950160Y-96050100D02*
X154950160Y-100550980D01*
D16*
X145742660Y-97467420D02*
X145742660Y-98737420D01*
X143456660Y-98737420D02*
X143456660Y-97467420D01*
X143456660Y-97467420D02*
X145742660Y-97467420D01*
X145742660Y-98737420D02*
X143456660Y-98737420D01*
X146743420Y-96238060D02*
X144457420Y-96238060D01*
X146743420Y-94968060D02*
X146743420Y-96238060D01*
X144457420Y-96238060D02*
X144457420Y-94968060D01*
X144457420Y-94968060D02*
X146743420Y-94968060D01*
D10*
X153399312Y-90527779D02*
X154327068Y-87672441D01*
X155872972Y-91331519D02*
X156800728Y-88476181D01*
D16*
X133164580Y-90959940D02*
X134434580Y-90959940D01*
X134434580Y-93245940D02*
X133164580Y-93245940D01*
X133164580Y-93245940D02*
X133164580Y-90959940D01*
X134434580Y-90959940D02*
X134434580Y-93245940D01*
D10*
X132400040Y-88303100D02*
X132400040Y-88602820D01*
X129199640Y-88303100D02*
X129199640Y-88602820D01*
X129199640Y-93505020D02*
X132400040Y-93505020D01*
X129199640Y-93505020D02*
X129199640Y-93205300D01*
X129199640Y-88303100D02*
X132400040Y-88303100D01*
X132400040Y-93505020D02*
X132400040Y-93205300D01*
X129351006Y-88003380D02*
G75*
G03*
X129351006Y-88003380I-352026J0D01*
G01*
D16*
X142019020Y-104510840D02*
X142019020Y-104002840D01*
X142781020Y-102986840D02*
X142019020Y-102986840D01*
X142781020Y-104002840D02*
X142781020Y-104510840D01*
X142781020Y-103494840D02*
X142781020Y-102986840D01*
X142781020Y-104510840D02*
X142019020Y-104510840D01*
X142019020Y-102986840D02*
X142019020Y-103494840D01*
X141119860Y-104510840D02*
X141119860Y-104002840D01*
X141881860Y-104002840D02*
X141881860Y-104510840D01*
X141881860Y-104510840D02*
X141119860Y-104510840D01*
X141881860Y-103494840D02*
X141881860Y-102986840D01*
X141881860Y-102986840D02*
X141119860Y-102986840D01*
X141119860Y-102986840D02*
X141119860Y-103494840D01*
X140980160Y-104002840D02*
X140980160Y-104510840D01*
X140980160Y-104510840D02*
X140218160Y-104510840D01*
X140218160Y-102986840D02*
X140218160Y-103494840D01*
X140980160Y-103494840D02*
X140980160Y-102986840D01*
X140218160Y-104510840D02*
X140218160Y-104002840D01*
X140980160Y-102986840D02*
X140218160Y-102986840D01*
D17*
X138730000Y-107650000D02*
X138730000Y-108250000D01*
X138130000Y-107650000D02*
X138130000Y-108250000D01*
D18*
X138760000Y-118440000D02*
X138260000Y-118440000D01*
X138760000Y-118440000D02*
X138760000Y-117940000D01*
X138260000Y-115240000D02*
X138260000Y-114840000D01*
X135560000Y-118440000D02*
X135560000Y-118040000D01*
X135560000Y-115240000D02*
X135560000Y-115740000D01*
X138760000Y-115240000D02*
X138760000Y-115740000D01*
X135560000Y-118440000D02*
X136060000Y-118440000D01*
X138760000Y-115240000D02*
X138260000Y-115240000D01*
X135560000Y-115240000D02*
X136060000Y-115240000D01*
D17*
X127450000Y-118550000D02*
X127450000Y-119150000D01*
X126850000Y-118550000D02*
X126850000Y-119150000D01*
X125984280Y-118550000D02*
X125984280Y-119150000D01*
X125384280Y-118550000D02*
X125384280Y-119150000D01*
X126045720Y-90413560D02*
X126645720Y-90413560D01*
X126045720Y-91013560D02*
X126645720Y-91013560D01*
X122839200Y-109627160D02*
X122839200Y-110227160D01*
X123439200Y-109627160D02*
X123439200Y-110227160D01*
X127188240Y-103729840D02*
X127188240Y-103129840D01*
X126588240Y-103729840D02*
X126588240Y-103129840D01*
X121589520Y-109631200D02*
X121589520Y-110231200D01*
X122189520Y-109631200D02*
X122189520Y-110231200D01*
X133482840Y-101386920D02*
X134082840Y-101386920D01*
X133482840Y-100786920D02*
X134082840Y-100786920D01*
D18*
X127532400Y-113694760D02*
X127532400Y-113419760D01*
X124457400Y-114694760D02*
X124582400Y-114694760D01*
X124232400Y-113044760D02*
X124582400Y-113044760D01*
X124232400Y-114694760D02*
X124232400Y-114244760D01*
X124232400Y-113519760D02*
X124232400Y-113044760D01*
X127257400Y-113044760D02*
X127207400Y-113044760D01*
X127207400Y-113044760D02*
X127207400Y-112269760D01*
X127532400Y-114694760D02*
X127232400Y-114694760D01*
X127532400Y-114319760D02*
X127532400Y-114694760D01*
X124532400Y-114694760D02*
X124232400Y-114694760D01*
X127532400Y-113419760D02*
X127257400Y-113044760D01*
X135355560Y-104551960D02*
X135055560Y-104551960D01*
X132280560Y-104551960D02*
X132405560Y-104551960D01*
X135355560Y-104176960D02*
X135355560Y-104551960D01*
X135355560Y-103551960D02*
X135355560Y-103276960D01*
X132055560Y-104551960D02*
X132055560Y-104101960D01*
X132355560Y-104551960D02*
X132055560Y-104551960D01*
X132055560Y-102901960D02*
X132405560Y-102901960D01*
X135355560Y-103276960D02*
X135080560Y-102901960D01*
X135080560Y-102901960D02*
X135030560Y-102901960D01*
X132055560Y-103376960D02*
X132055560Y-102901960D01*
X135030560Y-102901960D02*
X135030560Y-102126960D01*
X141350000Y-89400000D02*
X140900000Y-89400000D01*
X141350000Y-92200000D02*
X141350000Y-92600000D01*
X138650000Y-92350000D02*
X138900000Y-92600000D01*
X138900000Y-92600000D02*
X139250000Y-92600000D01*
X138650000Y-89400000D02*
X139300000Y-89400000D01*
X141350000Y-89800000D02*
X141350000Y-89400000D01*
X138650000Y-89800000D02*
X138650000Y-89400000D01*
X141350000Y-92600000D02*
X140700000Y-92600000D01*
X138650000Y-92050000D02*
X138650000Y-92350000D01*
X139250000Y-92600000D02*
X139250000Y-92750000D01*
D19*
X149499320Y-99504500D03*
X148498560Y-99504500D03*
X148498560Y-98503740D03*
X149499320Y-98503740D03*
X148998940Y-99004120D03*
D20*
X152699720Y-99250500D03*
D21*
X152699720Y-97350580D03*
%LPC*%
D22*
X147985480Y-103502460D03*
X150017480Y-104391460D03*
X150017480Y-102613460D03*
X147985480Y-107002580D03*
X150017480Y-107891580D03*
X150017480Y-106113580D03*
X147985480Y-110502700D03*
X150017480Y-111391700D03*
X150017480Y-109613700D03*
X147985480Y-114002820D03*
X150017480Y-114891820D03*
X150017480Y-113113820D03*
D23*
X151429720Y-93251020D03*
X151429720Y-94203520D03*
X151429720Y-95156020D03*
X153969720Y-95156020D03*
X153969720Y-94203520D03*
X153969720Y-93251020D03*
D24*
X152999440Y-111264700D03*
X152999440Y-109740700D03*
X143000000Y-91262000D03*
X143000000Y-89738000D03*
D25*
X140662660Y-88000000D03*
X139138660Y-88000000D03*
D26*
X131500880Y-85641180D03*
X131500880Y-87165180D03*
X129999740Y-85641180D03*
X129999740Y-87165180D03*
D25*
X155661360Y-113502440D03*
X154137360Y-113502440D03*
X152760680Y-101503480D03*
X151236680Y-101503480D03*
D24*
X152999440Y-104264460D03*
X152999440Y-102740460D03*
D27*
X125437900Y-87904320D03*
X126961900Y-87904320D03*
D24*
X151500840Y-114764820D03*
X151500840Y-113240820D03*
X151500840Y-111264700D03*
X151500840Y-109740700D03*
X151500840Y-107764580D03*
X151500840Y-106240580D03*
X151500840Y-104264460D03*
X151500840Y-102740460D03*
D28*
X150500080Y-99755960D03*
X150500080Y-99253040D03*
X150500080Y-98755200D03*
X150500080Y-98254820D03*
D29*
X149748240Y-97502980D03*
X149247860Y-97502980D03*
X148747480Y-97502980D03*
X148249640Y-97502980D03*
D28*
X147497800Y-98257360D03*
X147497800Y-98755200D03*
X147497800Y-99255580D03*
X147497800Y-99755960D03*
D29*
X148249640Y-100505260D03*
X148747480Y-100505260D03*
X149247860Y-100505260D03*
X149748240Y-100505260D03*
D30*
X149499320Y-99504500D03*
X148498560Y-99504500D03*
X148498560Y-98503740D03*
X149499320Y-98503740D03*
X148998940Y-99004120D03*
D31*
X148998940Y-99004120D03*
D32*
X156028635Y-115972345D03*
X154968965Y-117032015D03*
D33*
X155929575Y-86132915D03*
X154869905Y-85073245D03*
D34*
X124069865Y-86033855D03*
X125129535Y-84974185D03*
D26*
X149999700Y-94742000D03*
X149999700Y-96266000D03*
D24*
X144899380Y-102765860D03*
X144899380Y-101241860D03*
D25*
X145361660Y-99603560D03*
X143837660Y-99603560D03*
D27*
X151338280Y-85803740D03*
X152862280Y-85803740D03*
D24*
X146400520Y-102765860D03*
X146400520Y-101241860D03*
D35*
X152699720Y-99250500D03*
D36*
X152699720Y-97350580D03*
D27*
X143837660Y-98102420D03*
X145361660Y-98102420D03*
X144838420Y-95603060D03*
X146362420Y-95603060D03*
D37*
X154543524Y-91214700D03*
X155656516Y-87789260D03*
D26*
X133799580Y-91340940D03*
X133799580Y-92864940D03*
D38*
X129550160Y-89029540D03*
X129550160Y-90279220D03*
X129550160Y-91528900D03*
X129550160Y-92778580D03*
X132049520Y-92778580D03*
X132049520Y-91528900D03*
X132059680Y-90279220D03*
X132049520Y-89029540D03*
D39*
X142400020Y-103299260D03*
X142400020Y-104198420D03*
X141500860Y-103299260D03*
X141500860Y-104198420D03*
X140599160Y-103299260D03*
X140599160Y-104198420D03*
D40*
X138430000Y-107250000D03*
X138430000Y-108650000D03*
D41*
X137160000Y-115140000D03*
X137160000Y-118540000D03*
D40*
X127150000Y-118150000D03*
X127150000Y-119550000D03*
X125684280Y-118150000D03*
X125684280Y-119550000D03*
D42*
X125645720Y-90713560D03*
X127045720Y-90713560D03*
D40*
X123139200Y-109227160D03*
X123139200Y-110627160D03*
D43*
X126888240Y-104129840D03*
X126888240Y-102729840D03*
D40*
X121889520Y-109231200D03*
X121889520Y-110631200D03*
D42*
X133082840Y-101086920D03*
X134482840Y-101086920D03*
D44*
X126832400Y-112819760D03*
X124932400Y-112819760D03*
X125882400Y-114919760D03*
X134655560Y-102676960D03*
X132755560Y-102676960D03*
X133705560Y-104776960D03*
D45*
X157000000Y-85000000D03*
X156500000Y-118500000D03*
X122500000Y-85500000D03*
D46*
X139200000Y-92175000D03*
X139750000Y-92175000D03*
X140250000Y-92175000D03*
X140800000Y-92175000D03*
D47*
X140925000Y-91500000D03*
X140925000Y-91000000D03*
X140925000Y-90500000D03*
D46*
X140800000Y-89825000D03*
X140250000Y-89825000D03*
X139750000Y-89825000D03*
X139200000Y-89825000D03*
D47*
X139075000Y-90500000D03*
X139075000Y-91000000D03*
X139075000Y-91500000D03*
D48*
X144663160Y-113502440D03*
D49*
X146334480Y-113502440D03*
D48*
X144663160Y-110502700D03*
D49*
X146334480Y-110502700D03*
D48*
X144663160Y-107502960D03*
D49*
X146334480Y-107502960D03*
D48*
X144663160Y-104503220D03*
D49*
X146334480Y-104503220D03*
D50*
X152900380Y-105402380D03*
D51*
X124607320Y-96662240D03*
X124607320Y-97932240D03*
X125272800Y-97287080D03*
X125877320Y-97932240D03*
X125877320Y-96662240D03*
M02*
