G04 #@! TF.GenerationSoftware,KiCad,Pcbnew,9.0.4*
G04 #@! TF.CreationDate,2025-09-03T20:16:38+02:00*
G04 #@! TF.ProjectId,Crazyflie contol board,4372617a-7966-46c6-9965-20636f6e746f,2.4*
G04 #@! TF.SameCoordinates,Original*
G04 #@! TF.FileFunction,Paste,Top*
G04 #@! TF.FilePolarity,Positive*
%FSLAX46Y46*%
G04 Gerber Fmt 4.6, Leading zero omitted, Abs format (unit mm)*
G04 Created by KiCad (PCBNEW 9.0.4) date 2025-09-03 20:16:38*
%MOMM*%
%LPD*%
G01*
G04 APERTURE LIST*
G04 Aperture macros list*
%AMRoundRect*
0 Rectangle with rounded corners*
0 $1 Rounding radius*
0 $2 $3 $4 $5 $6 $7 $8 $9 X,Y pos of 4 corners*
0 Add a 4 corners polygon primitive as box body*
4,1,4,$2,$3,$4,$5,$6,$7,$8,$9,$2,$3,0*
0 Add four circle primitives for the rounded corners*
1,1,$1+$1,$2,$3*
1,1,$1+$1,$4,$5*
1,1,$1+$1,$6,$7*
1,1,$1+$1,$8,$9*
0 Add four rect primitives between the rounded corners*
20,1,$1+$1,$2,$3,$4,$5,0*
20,1,$1+$1,$4,$5,$6,$7,0*
20,1,$1+$1,$6,$7,$8,$9,0*
20,1,$1+$1,$8,$9,$2,$3,0*%
%AMRotRect*
0 Rectangle, with rotation*
0 The origin of the aperture is its center*
0 $1 length*
0 $2 width*
0 $3 Rotation angle, in degrees counterclockwise*
0 Add horizontal line*
21,1,$1,$2,0,0,$3*%
G04 Aperture macros list end*
%ADD10R,0.816864X0.816864*%
%ADD11R,0.612038X0.899770*%
%ADD12RoundRect,0.092760X0.092760X-0.164760X0.092760X0.164760X-0.092760X0.164760X-0.092760X-0.164760X0*%
%ADD13RoundRect,0.092760X-0.164760X-0.092760X0.164760X-0.092760X0.164760X0.092760X-0.164760X0.092760X0*%
%ADD14RoundRect,0.092760X-0.092760X0.164760X-0.092760X-0.164760X0.092760X-0.164760X0.092760X0.164760X0*%
%ADD15RoundRect,0.092760X0.164760X0.092760X-0.164760X0.092760X-0.164760X-0.092760X0.164760X-0.092760X0*%
%ADD16RoundRect,0.200760X0.200760X0.224760X-0.200760X0.224760X-0.200760X-0.224760X0.200760X-0.224760X0*%
%ADD17RoundRect,0.200760X-0.224760X0.200760X-0.224760X-0.200760X0.224760X-0.200760X0.224760X0.200760X0*%
%ADD18RoundRect,0.200760X-0.200760X-0.224760X0.200760X-0.224760X0.200760X0.224760X-0.200760X0.224760X0*%
%ADD19RoundRect,0.176760X-0.176760X-0.248760X0.176760X-0.248760X0.176760X0.248760X-0.176760X0.248760X0*%
%ADD20RoundRect,0.176760X0.176760X0.248760X-0.176760X0.248760X-0.176760X-0.248760X0.176760X-0.248760X0*%
%ADD21RoundRect,0.176760X-0.248760X0.176760X-0.248760X-0.176760X0.248760X-0.176760X0.248760X0.176760X0*%
%ADD22RoundRect,0.176760X0.248760X-0.176760X0.248760X0.176760X-0.248760X0.176760X-0.248760X-0.176760X0*%
%ADD23RoundRect,0.114360X-0.114360X-0.162360X0.114360X-0.162360X0.114360X0.162360X-0.114360X0.162360X0*%
%ADD24RoundRect,0.114360X-0.162360X0.114360X-0.162360X-0.114360X0.162360X-0.114360X0.162360X0.114360X0*%
%ADD25R,0.704698X0.704698*%
%ADD26RotRect,0.704698X0.704698X315.000000*%
%ADD27R,0.321868X0.426720*%
%ADD28RoundRect,0.114360X0.162360X-0.114360X0.162360X0.114360X-0.162360X0.114360X-0.162360X-0.114360X0*%
%ADD29O,2.339040X0.803040*%
%ADD30O,0.803040X2.339040*%
%ADD31R,1.091040X1.091040*%
%ADD32RoundRect,0.200760X0.224760X-0.200760X0.224760X0.200760X-0.224760X0.200760X-0.224760X-0.200760X0*%
%ADD33RoundRect,0.114360X0.114360X0.162360X-0.114360X0.162360X-0.114360X-0.162360X0.114360X-0.162360X0*%
%ADD34R,0.587040X0.182880*%
%ADD35R,0.182880X0.587040*%
%ADD36R,0.515040X1.331040*%
%ADD37R,0.227040X1.331040*%
%ADD38RoundRect,0.068760X-0.104760X-0.068760X0.104760X-0.068760X0.104760X0.068760X-0.104760X0.068760X0*%
%ADD39RoundRect,0.068760X-0.068760X-0.104760X0.068760X-0.104760X0.068760X0.104760X-0.068760X0.104760X0*%
G04 APERTURE END LIST*
D10*
X141089000Y-97368000D03*
X140200000Y-99400000D03*
X141978000Y-99400000D03*
X137153754Y-101484000D03*
X136264754Y-103516000D03*
X138042754Y-103516000D03*
X133053754Y-101784000D03*
X132164754Y-103816000D03*
X133942754Y-103816000D03*
X130316000Y-102700000D03*
X128284000Y-101811000D03*
X128284000Y-103589000D03*
D11*
X134707574Y-108734860D03*
X133755074Y-108734860D03*
X132802574Y-108734860D03*
X132802574Y-111274860D03*
X133755074Y-111274860D03*
X134707574Y-111274860D03*
D12*
X140953754Y-95850000D03*
X140953754Y-93750000D03*
D13*
X135850000Y-98700000D03*
X137950000Y-98700000D03*
D14*
X131953754Y-98150000D03*
X131953754Y-100250000D03*
D15*
X129903754Y-98600000D03*
X127803754Y-98600000D03*
D16*
X132675000Y-106200000D03*
X131125000Y-106200000D03*
D17*
X157400000Y-91825000D03*
X157400000Y-93375000D03*
D18*
X134725000Y-113600000D03*
X136275000Y-113600000D03*
D17*
X135400000Y-87225000D03*
X135400000Y-88775000D03*
D18*
X134425000Y-84200000D03*
X135975000Y-84200000D03*
D19*
X130128754Y-108400000D03*
X131778754Y-108400000D03*
D20*
X152178754Y-96800000D03*
X150528754Y-96800000D03*
D21*
X146753754Y-96675000D03*
X146753754Y-98325000D03*
D19*
X131528754Y-115000000D03*
X133178754Y-115000000D03*
D22*
X163353754Y-90525000D03*
X163353754Y-88875000D03*
D23*
X126890000Y-105700000D03*
X127910000Y-105700000D03*
D24*
X136953754Y-107300000D03*
X136953754Y-108320000D03*
D23*
X136533754Y-105000000D03*
X137553754Y-105000000D03*
X140643754Y-100800000D03*
X141663754Y-100800000D03*
D25*
X129100000Y-114050700D03*
X129100000Y-115549300D03*
D26*
X162923919Y-85170165D03*
X163983589Y-86229835D03*
D27*
X154449760Y-93449960D03*
X155100000Y-93449960D03*
X155750240Y-93449960D03*
X155750240Y-91550040D03*
X155100000Y-91550040D03*
X154449760Y-91550040D03*
D28*
X127653754Y-109310000D03*
X127653754Y-108290000D03*
D29*
X162673754Y-119550000D03*
X162673754Y-118280000D03*
X162673754Y-117010000D03*
X162673754Y-115740000D03*
X162673754Y-114470000D03*
X162673754Y-113200000D03*
X162673754Y-111930000D03*
X162673754Y-110660000D03*
X162673754Y-109390000D03*
X162673754Y-108120000D03*
X162673754Y-106850000D03*
X162673754Y-105580000D03*
X162673754Y-104310000D03*
X162673754Y-103040000D03*
D30*
X159388754Y-101550000D03*
X158118754Y-101550000D03*
X156848754Y-101550000D03*
X155578754Y-101550000D03*
X154308754Y-101550000D03*
X153038754Y-101550000D03*
X151768754Y-101550000D03*
X150498754Y-101550000D03*
X149228754Y-101550000D03*
X147958754Y-101550000D03*
D29*
X144673754Y-103040000D03*
X144673754Y-104310000D03*
X144673754Y-105580000D03*
X144673754Y-106850000D03*
X144673754Y-108120000D03*
X144673754Y-109390000D03*
X144673754Y-110660000D03*
X144673754Y-111930000D03*
X144673754Y-113200000D03*
X144673754Y-114470000D03*
X144673754Y-115740000D03*
X144673754Y-117010000D03*
X144673754Y-118280000D03*
X144673754Y-119550000D03*
D31*
X153163214Y-111132620D03*
X153173374Y-112501680D03*
X153186074Y-113814860D03*
X154555134Y-111137700D03*
X154567834Y-112522000D03*
X154577994Y-113837720D03*
X155949594Y-111107220D03*
X155959754Y-112509300D03*
X155959754Y-113870740D03*
D32*
X164853754Y-116875000D03*
X164853754Y-115325000D03*
D24*
X164853754Y-112390000D03*
X164853754Y-113410000D03*
D21*
X151800000Y-91475000D03*
X151800000Y-93125000D03*
D33*
X141663754Y-103000000D03*
X140643754Y-103000000D03*
D34*
X133062500Y-86150000D03*
D35*
X132150000Y-86012500D03*
X131650000Y-86012500D03*
X131150000Y-86012500D03*
X130650000Y-86012500D03*
D34*
X129737500Y-86150000D03*
X129737500Y-86650000D03*
X129737500Y-87150000D03*
X129737500Y-87650000D03*
X129737500Y-88150000D03*
X129737500Y-88650000D03*
X129737500Y-89150000D03*
X129737500Y-89650000D03*
X129737500Y-90150000D03*
X129737500Y-90650000D03*
D35*
X130650000Y-90787500D03*
X131150000Y-90787500D03*
X131650000Y-90787500D03*
X132150000Y-90787500D03*
D34*
X133062500Y-90650000D03*
X133062500Y-90150000D03*
X133062500Y-89650000D03*
X133062500Y-89150000D03*
X133062500Y-88650000D03*
X133062500Y-88150000D03*
X133062500Y-87650000D03*
X133062500Y-87150000D03*
X133062500Y-86650000D03*
D36*
X160000000Y-89400000D03*
X159200000Y-89400000D03*
D37*
X158000000Y-89400000D03*
X157000000Y-89400000D03*
X156500000Y-89400000D03*
X155500000Y-89400000D03*
D36*
X154300000Y-89400000D03*
X153500000Y-89400000D03*
X153500000Y-89400000D03*
X154300000Y-89400000D03*
D37*
X155000000Y-89400000D03*
X156000000Y-89400000D03*
X157500000Y-89400000D03*
X158500000Y-89400000D03*
D36*
X159200000Y-89400000D03*
X160000000Y-89400000D03*
D32*
X138300000Y-89775000D03*
X138300000Y-88225000D03*
D33*
X140910000Y-107900000D03*
X139890000Y-107900000D03*
D17*
X128000000Y-87625000D03*
X128000000Y-89175000D03*
D38*
X140337500Y-88650000D03*
X140337500Y-89150000D03*
D39*
X140600000Y-89662500D03*
X141100000Y-89662500D03*
X141600000Y-89662500D03*
D38*
X141862500Y-89150000D03*
X141862500Y-88650000D03*
D39*
X141600000Y-88137500D03*
X141100000Y-88137500D03*
X140600000Y-88137500D03*
D16*
X139975000Y-86100000D03*
X138425000Y-86100000D03*
D19*
X129175000Y-84200000D03*
X130825000Y-84200000D03*
D21*
X160400000Y-91575000D03*
X160400000Y-93225000D03*
D33*
X140910000Y-106700000D03*
X139890000Y-106700000D03*
M02*
