G04 #@! TF.GenerationSoftware,KiCad,Pcbnew,9.0.7*
G04 #@! TF.CreationDate,2026-04-04T17:39:50+02:00*
G04 #@! TF.ProjectId,Crazyflie contol board,4372617a-7966-46c6-9965-20636f6e746f,1.0*
G04 #@! TF.SameCoordinates,Original*
G04 #@! TF.FileFunction,Paste,Top*
G04 #@! TF.FilePolarity,Positive*
%FSLAX46Y46*%
G04 Gerber Fmt 4.6, Leading zero omitted, Abs format (unit mm)*
G04 Created by KiCad (PCBNEW 9.0.7) date 2026-04-04 17:39:50*
%MOMM*%
%LPD*%
G01*
G04 APERTURE LIST*
G04 Aperture macros list*
%AMRoundRect*
0 Rectangle with rounded corners*
0 $1 Rounding radius*
0 $2 $3 $4 $5 $6 $7 $8 $9 X,Y pos of 4 corners*
0 Add a 4 corners polygon primitive as box body*
4,1,4,$2,$3,$4,$5,$6,$7,$8,$9,$2,$3,0*
0 Add four circle primitives for the rounded corners*
1,1,$1+$1,$2,$3*
1,1,$1+$1,$4,$5*
1,1,$1+$1,$6,$7*
1,1,$1+$1,$8,$9*
0 Add four rect primitives between the rounded corners*
20,1,$1+$1,$2,$3,$4,$5,0*
20,1,$1+$1,$4,$5,$6,$7,0*
20,1,$1+$1,$6,$7,$8,$9,0*
20,1,$1+$1,$8,$9,$2,$3,0*%
G04 Aperture macros list end*
%ADD10RoundRect,0.200760X-0.224760X0.200760X-0.224760X-0.200760X0.224760X-0.200760X0.224760X0.200760X0*%
%ADD11RoundRect,0.200760X-0.200760X-0.224760X0.200760X-0.224760X0.200760X0.224760X-0.200760X0.224760X0*%
%ADD12RoundRect,0.176760X-0.248760X0.176760X-0.248760X-0.176760X0.248760X-0.176760X0.248760X0.176760X0*%
%ADD13RoundRect,0.176760X-0.176760X-0.248760X0.176760X-0.248760X0.176760X0.248760X-0.176760X0.248760X0*%
%ADD14R,0.704698X0.704698*%
%ADD15R,0.899040X0.659040*%
%ADD16R,0.587040X0.182880*%
%ADD17R,0.182880X0.587040*%
%ADD18R,0.900000X0.900000*%
%ADD19R,1.379040X0.803040*%
%ADD20R,0.803040X1.379040*%
%ADD21RoundRect,0.176760X0.248760X-0.176760X0.248760X0.176760X-0.248760X0.176760X-0.248760X-0.176760X0*%
%ADD22RoundRect,0.200760X0.224760X-0.200760X0.224760X0.200760X-0.224760X0.200760X-0.224760X-0.200760X0*%
%ADD23RoundRect,0.025000X-0.100000X-0.145000X0.100000X-0.145000X0.100000X0.145000X-0.100000X0.145000X0*%
%ADD24RoundRect,0.106000X-0.644000X-0.424000X0.644000X-0.424000X0.644000X0.424000X-0.644000X0.424000X0*%
%ADD25RoundRect,0.042360X-0.215160X-0.042360X0.215160X-0.042360X0.215160X0.042360X-0.215160X0.042360X0*%
%ADD26RoundRect,0.068760X-0.104760X-0.068760X0.104760X-0.068760X0.104760X0.068760X-0.104760X0.068760X0*%
%ADD27RoundRect,0.068760X-0.068760X-0.104760X0.068760X-0.104760X0.068760X0.104760X-0.068760X0.104760X0*%
%ADD28R,1.331040X0.515040*%
%ADD29R,1.331040X0.227040*%
%ADD30RoundRect,0.080760X-0.524760X-0.080760X0.524760X-0.080760X0.524760X0.080760X-0.524760X0.080760X0*%
%ADD31RoundRect,0.225485X0.320035X-0.248035X0.320035X0.248035X-0.320035X0.248035X-0.320035X-0.248035X0*%
G04 APERTURE END LIST*
D10*
X135400000Y-87225000D03*
X135400000Y-88775000D03*
D11*
X134425000Y-84200000D03*
X135975000Y-84200000D03*
D12*
X145000000Y-95875000D03*
X145000000Y-97525000D03*
X146900000Y-95875000D03*
X146900000Y-97525000D03*
D13*
X132316745Y-108657925D03*
X133966745Y-108657925D03*
D14*
X130900000Y-107049300D03*
X130900000Y-105550700D03*
D15*
X162000000Y-101125000D03*
X168000000Y-101125000D03*
X162000000Y-104875000D03*
X168000000Y-104875000D03*
D13*
X136475000Y-100400000D03*
X138125000Y-100400000D03*
D15*
X106000000Y-115125000D03*
X112000000Y-115125000D03*
X106000000Y-118875000D03*
X112000000Y-118875000D03*
D16*
X133062500Y-86150000D03*
D17*
X132150000Y-86012500D03*
X131650000Y-86012500D03*
X131150000Y-86012500D03*
X130650000Y-86012500D03*
D16*
X129737500Y-86150000D03*
X129737500Y-86650000D03*
X129737500Y-87150000D03*
X129737500Y-87650000D03*
X129737500Y-88150000D03*
X129737500Y-88650000D03*
X129737500Y-89150000D03*
X129737500Y-89650000D03*
X129737500Y-90150000D03*
X129737500Y-90650000D03*
D17*
X130650000Y-90787500D03*
X131150000Y-90787500D03*
X131650000Y-90787500D03*
X132150000Y-90787500D03*
D16*
X133062500Y-90650000D03*
X133062500Y-90150000D03*
X133062500Y-89650000D03*
X133062500Y-89150000D03*
X133062500Y-88650000D03*
X133062500Y-88150000D03*
X133062500Y-87650000D03*
X133062500Y-87150000D03*
X133062500Y-86650000D03*
D18*
X141395000Y-126190000D03*
X141395000Y-124790000D03*
X141395000Y-123390000D03*
X139995000Y-126190000D03*
X139995000Y-124790000D03*
X139995000Y-123390000D03*
X138595000Y-126190000D03*
X138595000Y-124790000D03*
X138595000Y-123390000D03*
D19*
X147245000Y-132510000D03*
X147245000Y-131240000D03*
X147245000Y-129970000D03*
X147245000Y-128700000D03*
X147245000Y-127430000D03*
X147245000Y-126160000D03*
X147245000Y-124890000D03*
X147245000Y-123620000D03*
X147245000Y-122350000D03*
X147245000Y-121080000D03*
X147245000Y-119810000D03*
X147245000Y-118540000D03*
X147245000Y-117270000D03*
X147245000Y-116000000D03*
D20*
X145480000Y-114750000D03*
X144210000Y-114750000D03*
X142940000Y-114750000D03*
X141670000Y-114750000D03*
X140400000Y-114750000D03*
X139130000Y-114750000D03*
X137860000Y-114750000D03*
X136590000Y-114750000D03*
X135320000Y-114750000D03*
X134050000Y-114750000D03*
X132780000Y-114750000D03*
X131510000Y-114750000D03*
D19*
X129745000Y-116000000D03*
X129745000Y-117270000D03*
X129745000Y-118540000D03*
X129745000Y-119810000D03*
X129745000Y-121080000D03*
X129745000Y-122350000D03*
X129745000Y-123620000D03*
X129745000Y-124890000D03*
X129745000Y-126160000D03*
X129745000Y-127430000D03*
X129745000Y-128700000D03*
X129745000Y-129970000D03*
X129745000Y-131240000D03*
X129745000Y-132510000D03*
D15*
X154000000Y-108125000D03*
X160000000Y-108125000D03*
X154000000Y-111875000D03*
X160000000Y-111875000D03*
X170000000Y-108125000D03*
X176000000Y-108125000D03*
X170000000Y-111875000D03*
X176000000Y-111875000D03*
D21*
X169300000Y-89725000D03*
X169300000Y-88075000D03*
D22*
X138300000Y-89775000D03*
X138300000Y-88225000D03*
D15*
X106000000Y-101125000D03*
X112000000Y-101125000D03*
X106000000Y-104875000D03*
X112000000Y-104875000D03*
X162000000Y-115125000D03*
X168000000Y-115125000D03*
X162000000Y-118875000D03*
X168000000Y-118875000D03*
D23*
X136750000Y-96170000D03*
X136750000Y-99230000D03*
D24*
X137000000Y-97070000D03*
X137000000Y-98330000D03*
D23*
X137250000Y-96170000D03*
X137250000Y-99230000D03*
D25*
X135600000Y-96700000D03*
X135600000Y-97200000D03*
X135600000Y-97700000D03*
X135600000Y-98200000D03*
X135600000Y-98700000D03*
X138400000Y-98700000D03*
X138400000Y-98200000D03*
X138400000Y-97700000D03*
X138400000Y-97200000D03*
X138400000Y-96700000D03*
D15*
X98000000Y-108125000D03*
X104000000Y-108125000D03*
X98000000Y-111875000D03*
X104000000Y-111875000D03*
D10*
X128100000Y-87625000D03*
X128100000Y-89175000D03*
D26*
X140337500Y-88650000D03*
X140337500Y-89150000D03*
D27*
X140600000Y-89662500D03*
X141100000Y-89662500D03*
X141600000Y-89662500D03*
D26*
X141862500Y-89150000D03*
X141862500Y-88650000D03*
D27*
X141600000Y-88137500D03*
X141100000Y-88137500D03*
X140600000Y-88137500D03*
D13*
X165975000Y-96900000D03*
X167625000Y-96900000D03*
D10*
X140400000Y-99725000D03*
X140400000Y-101275000D03*
X140100000Y-96325000D03*
X140100000Y-97875000D03*
D28*
X171755000Y-94650000D03*
X171755000Y-93850000D03*
D29*
X171755000Y-92650000D03*
X171755000Y-91650000D03*
X171755000Y-91150000D03*
X171755000Y-90150000D03*
D28*
X171755000Y-88950000D03*
X171755000Y-88150000D03*
X171755000Y-88150000D03*
X171755000Y-88950000D03*
D29*
X171755000Y-89650000D03*
X171755000Y-90650000D03*
X171755000Y-92150000D03*
X171755000Y-93150000D03*
D28*
X171755000Y-93850000D03*
X171755000Y-94650000D03*
D21*
X151400000Y-131525000D03*
X151400000Y-129875000D03*
D30*
X166012500Y-93450000D03*
X166012500Y-94100000D03*
X166012500Y-94750000D03*
X167787500Y-94750000D03*
X167787500Y-94100000D03*
X167787500Y-93450000D03*
D15*
X113000000Y-108125000D03*
X119000000Y-108125000D03*
X113000000Y-111875000D03*
X119000000Y-111875000D03*
D10*
X134200000Y-99725000D03*
X134200000Y-101275000D03*
D31*
X132600000Y-98850000D03*
X132600000Y-96550000D03*
D11*
X138625000Y-94800000D03*
X140175000Y-94800000D03*
M02*
