M48
; DRILL file {KiCad 9.0.7} date 2026-04-04T17:39:55+0200
; FORMAT={-:-/ absolute / metric / decimal}
; #@! TF.CreationDate,2026-04-04T17:39:55+02:00
; #@! TF.GenerationSoftware,Kicad,Pcbnew,9.0.7
; #@! TF.FileFunction,Plated,1,2,PTH
FMAT,2
METRIC
; #@! TA.AperFunction,Plated,PTH,ComponentDrill
T1C0.200
; #@! TA.AperFunction,Plated,PTH,ViaDrill
T2C0.381
; #@! TA.AperFunction,Plated,PTH,ComponentDrill
T3C0.600
; #@! TA.AperFunction,Plated,PTH,ComponentDrill
T4C1.000
%
G90
G05
T1
X136.425Y-97.7
X137.0Y-96.75
X137.0Y-98.65
X137.575Y-97.7
X138.595Y-124.09
X138.595Y-125.49
X139.295Y-123.39
X139.295Y-124.79
X139.295Y-126.19
X139.995Y-124.09
X139.995Y-125.49
X140.695Y-123.39
X140.695Y-124.79
X140.695Y-126.19
X141.395Y-124.09
X141.395Y-125.49
T2
X127.3Y-116.0
X127.6Y-90.6
X128.6Y-85.8
X128.8Y-91.8
X129.1Y-100.3
X130.9Y-105.551
X131.0Y-87.5
X131.15Y-88.503
X131.2Y-100.8
X131.5Y-101.4
X131.6Y-128.7
X131.77Y-127.43
X131.91Y-88.71
X132.15Y-87.6
X132.435Y-84.635
X134.5Y-91.2
X135.2Y-101.0
X136.588Y-88.8
X137.0Y-87.6
X137.2Y-84.2
X138.4Y-109.0
X139.0Y-101.3
X139.2Y-109.0
X139.3Y-105.1
X139.4Y-87.5
X139.5Y-90.6
X139.7Y-105.7
X140.1Y-96.125
X140.6Y-110.2
X141.1Y-90.8
X142.6Y-87.7
X142.7Y-90.129
X143.554Y-98.6
X143.6Y-89.3
X144.769Y-96.745
X144.8Y-104.4
X145.098Y-93.594
X145.4Y-117.0
X147.3Y-119.8
X147.3Y-121.0
X147.3Y-122.4
X147.3Y-131.3
X148.4Y-110.6
X150.1Y-108.8
X157.2Y-104.4
X164.9Y-98.2
X165.85Y-94.1
X168.15Y-94.1
X170.3Y-93.85
T4
X107.14Y-128.9
X109.68Y-128.9
X111.6Y-77.44
X111.6Y-79.98
X111.6Y-82.52
X111.6Y-85.06
X111.6Y-87.6
X111.6Y-90.14
X111.6Y-92.68
X111.6Y-95.22
X112.22Y-128.9
X114.76Y-128.9
X117.3Y-128.9
X127.2Y-93.6
X127.2Y-96.14
X164.94Y-82.17
X164.94Y-84.71
X164.94Y-87.25
X164.94Y-89.79
T3
X172.12Y-87.08G85X173.22Y-87.08
G05
X172.12Y-95.72G85X173.22Y-95.72
G05
X176.55Y-87.08G85X177.15Y-87.08
G05
X176.55Y-95.72G85X177.15Y-95.72
G05
M30
