G04 #@! TF.GenerationSoftware,KiCad,Pcbnew,5.0.2+dfsg1-1*
G04 #@! TF.CreationDate,2020-05-20T11:42:17+02:00*
G04 #@! TF.ProjectId,Crazyflie contol board,4372617a-7966-46c6-9965-20636f6e746f,2.1*
G04 #@! TF.SameCoordinates,PX85839e8PY6052f5c*
G04 #@! TF.FileFunction,Soldermask,Top*
G04 #@! TF.FilePolarity,Negative*
%FSLAX46Y46*%
G04 Gerber Fmt 4.6, Leading zero omitted, Abs format (unit mm)*
G04 Created by KiCad (PCBNEW 5.0.2+dfsg1-1) date wo 20 mei 2020 11:42:17 CEST*
%MOMM*%
%LPD*%
G01*
G04 APERTURE LIST*
%ADD10C,0.150000*%
%ADD11C,0.300000*%
%ADD12C,0.400000*%
G04 APERTURE END LIST*
D10*
X37002480Y-65004100D02*
X37002480Y-97004100D01*
X145002480Y-97004100D01*
X145002480Y-65004100D01*
X37002480Y-65004100D01*
X-129999720Y91003100D02*
X-129999720Y-99004100D01*
X147002480Y-99004100D01*
X147002480Y91003100D01*
X-129999720Y91003100D01*
X-127999720Y89003100D02*
X-127999720Y-97004100D01*
X145002480Y-97004100D01*
X145002480Y89003100D01*
X-127999720Y89003100D01*
X-79999720Y89003100D02*
X-79999720Y91003100D01*
X-29999720Y89003100D02*
X-29999720Y91003100D01*
X20000280Y89003100D02*
X20000280Y91003100D01*
X70000280Y89003100D02*
X70000280Y91003100D01*
X120000280Y89003100D02*
X120000280Y91003100D01*
X-103934244Y89415005D02*
X-104677101Y89415005D01*
X-104305673Y89415005D02*
X-104305673Y90715005D01*
X-104429482Y90529291D01*
X-104553292Y90405481D01*
X-104677101Y90343577D01*
X-54677101Y90591196D02*
X-54615197Y90653100D01*
X-54491387Y90715005D01*
X-54181863Y90715005D01*
X-54058054Y90653100D01*
X-53996149Y90591196D01*
X-53934244Y90467386D01*
X-53934244Y90343577D01*
X-53996149Y90157862D01*
X-54739006Y89415005D01*
X-53934244Y89415005D01*
X-4739006Y90715005D02*
X-3934244Y90715005D01*
X-4367578Y90219767D01*
X-4181863Y90219767D01*
X-4058054Y90157862D01*
X-3996149Y90095958D01*
X-3934244Y89972148D01*
X-3934244Y89662624D01*
X-3996149Y89538815D01*
X-4058054Y89476910D01*
X-4181863Y89415005D01*
X-4553292Y89415005D01*
X-4677101Y89476910D01*
X-4739006Y89538815D01*
X45941946Y90281672D02*
X45941946Y89415005D01*
X45632422Y90776910D02*
X45322899Y89848339D01*
X46127660Y89848339D01*
X96003851Y90715005D02*
X95384803Y90715005D01*
X95322899Y90095958D01*
X95384803Y90157862D01*
X95508613Y90219767D01*
X95818137Y90219767D01*
X95941946Y90157862D01*
X96003851Y90095958D01*
X96065756Y89972148D01*
X96065756Y89662624D01*
X96003851Y89538815D01*
X95941946Y89476910D01*
X95818137Y89415005D01*
X95508613Y89415005D01*
X95384803Y89476910D01*
X95322899Y89538815D01*
X145941946Y90715005D02*
X145694327Y90715005D01*
X145570518Y90653100D01*
X145508613Y90591196D01*
X145384803Y90405481D01*
X145322899Y90157862D01*
X145322899Y89662624D01*
X145384803Y89538815D01*
X145446708Y89476910D01*
X145570518Y89415005D01*
X145818137Y89415005D01*
X145941946Y89476910D01*
X146003851Y89538815D01*
X146065756Y89662624D01*
X146065756Y89972148D01*
X146003851Y90095958D01*
X145941946Y90157862D01*
X145818137Y90219767D01*
X145570518Y90219767D01*
X145446708Y90157862D01*
X145384803Y90095958D01*
X145322899Y89972148D01*
X-79999720Y-97004100D02*
X-79999720Y-99004100D01*
X-29999720Y-97004100D02*
X-29999720Y-99004100D01*
X20000280Y-97004100D02*
X20000280Y-99004100D01*
X70000280Y-97004100D02*
X70000280Y-99004100D01*
X120000280Y-97004100D02*
X120000280Y-99004100D01*
X-103934244Y-98592195D02*
X-104677101Y-98592195D01*
X-104305673Y-98592195D02*
X-104305673Y-97292195D01*
X-104429482Y-97477909D01*
X-104553292Y-97601719D01*
X-104677101Y-97663623D01*
X-54677101Y-97416004D02*
X-54615197Y-97354100D01*
X-54491387Y-97292195D01*
X-54181863Y-97292195D01*
X-54058054Y-97354100D01*
X-53996149Y-97416004D01*
X-53934244Y-97539814D01*
X-53934244Y-97663623D01*
X-53996149Y-97849338D01*
X-54739006Y-98592195D01*
X-53934244Y-98592195D01*
X-4739006Y-97292195D02*
X-3934244Y-97292195D01*
X-4367578Y-97787433D01*
X-4181863Y-97787433D01*
X-4058054Y-97849338D01*
X-3996149Y-97911242D01*
X-3934244Y-98035052D01*
X-3934244Y-98344576D01*
X-3996149Y-98468385D01*
X-4058054Y-98530290D01*
X-4181863Y-98592195D01*
X-4553292Y-98592195D01*
X-4677101Y-98530290D01*
X-4739006Y-98468385D01*
X45941946Y-97725528D02*
X45941946Y-98592195D01*
X45632422Y-97230290D02*
X45322899Y-98158861D01*
X46127660Y-98158861D01*
X96003851Y-97292195D02*
X95384803Y-97292195D01*
X95322899Y-97911242D01*
X95384803Y-97849338D01*
X95508613Y-97787433D01*
X95818137Y-97787433D01*
X95941946Y-97849338D01*
X96003851Y-97911242D01*
X96065756Y-98035052D01*
X96065756Y-98344576D01*
X96003851Y-98468385D01*
X95941946Y-98530290D01*
X95818137Y-98592195D01*
X95508613Y-98592195D01*
X95384803Y-98530290D01*
X95322899Y-98468385D01*
X145941946Y-97292195D02*
X145694327Y-97292195D01*
X145570518Y-97354100D01*
X145508613Y-97416004D01*
X145384803Y-97601719D01*
X145322899Y-97849338D01*
X145322899Y-98344576D01*
X145384803Y-98468385D01*
X145446708Y-98530290D01*
X145570518Y-98592195D01*
X145818137Y-98592195D01*
X145941946Y-98530290D01*
X146003851Y-98468385D01*
X146065756Y-98344576D01*
X146065756Y-98035052D01*
X146003851Y-97911242D01*
X145941946Y-97849338D01*
X145818137Y-97787433D01*
X145570518Y-97787433D01*
X145446708Y-97849338D01*
X145384803Y-97911242D01*
X145322899Y-98035052D01*
X-129999720Y41003100D02*
X-127999720Y41003100D01*
X-129999720Y-8996900D02*
X-127999720Y-8996900D01*
X-129999720Y-58996900D02*
X-127999720Y-58996900D01*
X-129309244Y65786434D02*
X-128690197Y65786434D01*
X-129433054Y65415005D02*
X-128999720Y66715005D01*
X-128566387Y65415005D01*
X-128906863Y16095958D02*
X-128721149Y16034053D01*
X-128659244Y15972148D01*
X-128597340Y15848339D01*
X-128597340Y15662624D01*
X-128659244Y15538815D01*
X-128721149Y15476910D01*
X-128844959Y15415005D01*
X-129340197Y15415005D01*
X-129340197Y16715005D01*
X-128906863Y16715005D01*
X-128783054Y16653100D01*
X-128721149Y16591196D01*
X-128659244Y16467386D01*
X-128659244Y16343577D01*
X-128721149Y16219767D01*
X-128783054Y16157862D01*
X-128906863Y16095958D01*
X-129340197Y16095958D01*
X-128597340Y-34461185D02*
X-128659244Y-34523090D01*
X-128844959Y-34584995D01*
X-128968768Y-34584995D01*
X-129154482Y-34523090D01*
X-129278292Y-34399280D01*
X-129340197Y-34275471D01*
X-129402101Y-34027852D01*
X-129402101Y-33842138D01*
X-129340197Y-33594519D01*
X-129278292Y-33470709D01*
X-129154482Y-33346900D01*
X-128968768Y-33284995D01*
X-128844959Y-33284995D01*
X-128659244Y-33346900D01*
X-128597340Y-33408804D01*
X-129340197Y-84584995D02*
X-129340197Y-83284995D01*
X-129030673Y-83284995D01*
X-128844959Y-83346900D01*
X-128721149Y-83470709D01*
X-128659244Y-83594519D01*
X-128597340Y-83842138D01*
X-128597340Y-84027852D01*
X-128659244Y-84275471D01*
X-128721149Y-84399280D01*
X-128844959Y-84523090D01*
X-129030673Y-84584995D01*
X-129340197Y-84584995D01*
X147002480Y41003100D02*
X145002480Y41003100D01*
X147002480Y-8996900D02*
X145002480Y-8996900D01*
X147002480Y-58996900D02*
X145002480Y-58996900D01*
X145692956Y65786434D02*
X146312003Y65786434D01*
X145569146Y65415005D02*
X146002480Y66715005D01*
X146435813Y65415005D01*
X146095337Y16095958D02*
X146281051Y16034053D01*
X146342956Y15972148D01*
X146404860Y15848339D01*
X146404860Y15662624D01*
X146342956Y15538815D01*
X146281051Y15476910D01*
X146157241Y15415005D01*
X145662003Y15415005D01*
X145662003Y16715005D01*
X146095337Y16715005D01*
X146219146Y16653100D01*
X146281051Y16591196D01*
X146342956Y16467386D01*
X146342956Y16343577D01*
X146281051Y16219767D01*
X146219146Y16157862D01*
X146095337Y16095958D01*
X145662003Y16095958D01*
X146404860Y-34461185D02*
X146342956Y-34523090D01*
X146157241Y-34584995D01*
X146033432Y-34584995D01*
X145847718Y-34523090D01*
X145723908Y-34399280D01*
X145662003Y-34275471D01*
X145600099Y-34027852D01*
X145600099Y-33842138D01*
X145662003Y-33594519D01*
X145723908Y-33470709D01*
X145847718Y-33346900D01*
X146033432Y-33284995D01*
X146157241Y-33284995D01*
X146342956Y-33346900D01*
X146404860Y-33408804D01*
X145662003Y-84584995D02*
X145662003Y-83284995D01*
X145971527Y-83284995D01*
X146157241Y-83346900D01*
X146281051Y-83470709D01*
X146342956Y-83594519D01*
X146404860Y-83842138D01*
X146404860Y-84027852D01*
X146342956Y-84275471D01*
X146281051Y-84399280D01*
X146157241Y-84523090D01*
X145971527Y-84584995D01*
X145662003Y-84584995D01*
X60434622Y-92782671D02*
X60434622Y-91282671D01*
X60791765Y-91282671D01*
X61006051Y-91354100D01*
X61148908Y-91496957D01*
X61220337Y-91639814D01*
X61291765Y-91925528D01*
X61291765Y-92139814D01*
X61220337Y-92425528D01*
X61148908Y-92568385D01*
X61006051Y-92711242D01*
X60791765Y-92782671D01*
X60434622Y-92782671D01*
X62577480Y-92782671D02*
X62577480Y-91996957D01*
X62506051Y-91854100D01*
X62363194Y-91782671D01*
X62077480Y-91782671D01*
X61934622Y-91854100D01*
X62577480Y-92711242D02*
X62434622Y-92782671D01*
X62077480Y-92782671D01*
X61934622Y-92711242D01*
X61863194Y-92568385D01*
X61863194Y-92425528D01*
X61934622Y-92282671D01*
X62077480Y-92211242D01*
X62434622Y-92211242D01*
X62577480Y-92139814D01*
X63077480Y-91782671D02*
X63648908Y-91782671D01*
X63291765Y-91282671D02*
X63291765Y-92568385D01*
X63363194Y-92711242D01*
X63506051Y-92782671D01*
X63648908Y-92782671D01*
X64720337Y-92711242D02*
X64577480Y-92782671D01*
X64291765Y-92782671D01*
X64148908Y-92711242D01*
X64077480Y-92568385D01*
X64077480Y-91996957D01*
X64148908Y-91854100D01*
X64291765Y-91782671D01*
X64577480Y-91782671D01*
X64720337Y-91854100D01*
X64791765Y-91996957D01*
X64791765Y-92139814D01*
X64077480Y-92282671D01*
X65434622Y-92639814D02*
X65506051Y-92711242D01*
X65434622Y-92782671D01*
X65363194Y-92711242D01*
X65434622Y-92639814D01*
X65434622Y-92782671D01*
X65434622Y-91854100D02*
X65506051Y-91925528D01*
X65434622Y-91996957D01*
X65363194Y-91925528D01*
X65434622Y-91854100D01*
X65434622Y-91996957D01*
X67220337Y-91425528D02*
X67291765Y-91354100D01*
X67434622Y-91282671D01*
X67791765Y-91282671D01*
X67934622Y-91354100D01*
X68006051Y-91425528D01*
X68077480Y-91568385D01*
X68077480Y-91711242D01*
X68006051Y-91925528D01*
X67148908Y-92782671D01*
X68077480Y-92782671D01*
X69006051Y-91282671D02*
X69148908Y-91282671D01*
X69291765Y-91354100D01*
X69363194Y-91425528D01*
X69434622Y-91568385D01*
X69506051Y-91854100D01*
X69506051Y-92211242D01*
X69434622Y-92496957D01*
X69363194Y-92639814D01*
X69291765Y-92711242D01*
X69148908Y-92782671D01*
X69006051Y-92782671D01*
X68863194Y-92711242D01*
X68791765Y-92639814D01*
X68720337Y-92496957D01*
X68648908Y-92211242D01*
X68648908Y-91854100D01*
X68720337Y-91568385D01*
X68791765Y-91425528D01*
X68863194Y-91354100D01*
X69006051Y-91282671D01*
X70077480Y-91425528D02*
X70148908Y-91354100D01*
X70291765Y-91282671D01*
X70648908Y-91282671D01*
X70791765Y-91354100D01*
X70863194Y-91425528D01*
X70934622Y-91568385D01*
X70934622Y-91711242D01*
X70863194Y-91925528D01*
X70006051Y-92782671D01*
X70934622Y-92782671D01*
X71863194Y-91282671D02*
X72006051Y-91282671D01*
X72148908Y-91354100D01*
X72220337Y-91425528D01*
X72291765Y-91568385D01*
X72363194Y-91854100D01*
X72363194Y-92211242D01*
X72291765Y-92496957D01*
X72220337Y-92639814D01*
X72148908Y-92711242D01*
X72006051Y-92782671D01*
X71863194Y-92782671D01*
X71720337Y-92711242D01*
X71648908Y-92639814D01*
X71577480Y-92496957D01*
X71506051Y-92211242D01*
X71506051Y-91854100D01*
X71577480Y-91568385D01*
X71648908Y-91425528D01*
X71720337Y-91354100D01*
X71863194Y-91282671D01*
X73006051Y-92211242D02*
X74148908Y-92211242D01*
X75148908Y-91282671D02*
X75291765Y-91282671D01*
X75434622Y-91354100D01*
X75506051Y-91425528D01*
X75577480Y-91568385D01*
X75648908Y-91854100D01*
X75648908Y-92211242D01*
X75577480Y-92496957D01*
X75506051Y-92639814D01*
X75434622Y-92711242D01*
X75291765Y-92782671D01*
X75148908Y-92782671D01*
X75006051Y-92711242D01*
X74934622Y-92639814D01*
X74863194Y-92496957D01*
X74791765Y-92211242D01*
X74791765Y-91854100D01*
X74863194Y-91568385D01*
X74934622Y-91425528D01*
X75006051Y-91354100D01*
X75148908Y-91282671D01*
X77006051Y-91282671D02*
X76291765Y-91282671D01*
X76220337Y-91996957D01*
X76291765Y-91925528D01*
X76434622Y-91854100D01*
X76791765Y-91854100D01*
X76934622Y-91925528D01*
X77006051Y-91996957D01*
X77077480Y-92139814D01*
X77077480Y-92496957D01*
X77006051Y-92639814D01*
X76934622Y-92711242D01*
X76791765Y-92782671D01*
X76434622Y-92782671D01*
X76291765Y-92711242D01*
X76220337Y-92639814D01*
X77720337Y-92211242D02*
X78863194Y-92211242D01*
X80363194Y-92782671D02*
X79506051Y-92782671D01*
X79934622Y-92782671D02*
X79934622Y-91282671D01*
X79791765Y-91496957D01*
X79648908Y-91639814D01*
X79506051Y-91711242D01*
X80934622Y-91425528D02*
X81006051Y-91354100D01*
X81148908Y-91282671D01*
X81506051Y-91282671D01*
X81648908Y-91354100D01*
X81720337Y-91425528D01*
X81791765Y-91568385D01*
X81791765Y-91711242D01*
X81720337Y-91925528D01*
X80863194Y-92782671D01*
X81791765Y-92782671D01*
X37002480Y-93504100D02*
X145002480Y-93504100D01*
X38434622Y-95582671D02*
X38434622Y-94082671D01*
X39291765Y-95582671D02*
X38648908Y-94725528D01*
X39291765Y-94082671D02*
X38434622Y-94939814D01*
X39934622Y-95582671D02*
X39934622Y-94582671D01*
X39934622Y-94082671D02*
X39863194Y-94154100D01*
X39934622Y-94225528D01*
X40006051Y-94154100D01*
X39934622Y-94082671D01*
X39934622Y-94225528D01*
X41506051Y-95439814D02*
X41434622Y-95511242D01*
X41220337Y-95582671D01*
X41077480Y-95582671D01*
X40863194Y-95511242D01*
X40720337Y-95368385D01*
X40648908Y-95225528D01*
X40577480Y-94939814D01*
X40577480Y-94725528D01*
X40648908Y-94439814D01*
X40720337Y-94296957D01*
X40863194Y-94154100D01*
X41077480Y-94082671D01*
X41220337Y-94082671D01*
X41434622Y-94154100D01*
X41506051Y-94225528D01*
X42791765Y-95582671D02*
X42791765Y-94796957D01*
X42720337Y-94654100D01*
X42577480Y-94582671D01*
X42291765Y-94582671D01*
X42148908Y-94654100D01*
X42791765Y-95511242D02*
X42648908Y-95582671D01*
X42291765Y-95582671D01*
X42148908Y-95511242D01*
X42077480Y-95368385D01*
X42077480Y-95225528D01*
X42148908Y-95082671D01*
X42291765Y-95011242D01*
X42648908Y-95011242D01*
X42791765Y-94939814D01*
X44148908Y-95582671D02*
X44148908Y-94082671D01*
X44148908Y-95511242D02*
X44006051Y-95582671D01*
X43720337Y-95582671D01*
X43577480Y-95511242D01*
X43506051Y-95439814D01*
X43434622Y-95296957D01*
X43434622Y-94868385D01*
X43506051Y-94725528D01*
X43577480Y-94654100D01*
X43720337Y-94582671D01*
X44006051Y-94582671D01*
X44148908Y-94654100D01*
X46006051Y-94796957D02*
X46506051Y-94796957D01*
X46720337Y-95582671D02*
X46006051Y-95582671D01*
X46006051Y-94082671D01*
X46720337Y-94082671D01*
X47363194Y-95439814D02*
X47434622Y-95511242D01*
X47363194Y-95582671D01*
X47291765Y-95511242D01*
X47363194Y-95439814D01*
X47363194Y-95582671D01*
X48077480Y-95582671D02*
X48077480Y-94082671D01*
X48434622Y-94082671D01*
X48648908Y-94154100D01*
X48791765Y-94296957D01*
X48863194Y-94439814D01*
X48934622Y-94725528D01*
X48934622Y-94939814D01*
X48863194Y-95225528D01*
X48791765Y-95368385D01*
X48648908Y-95511242D01*
X48434622Y-95582671D01*
X48077480Y-95582671D01*
X49577480Y-95439814D02*
X49648908Y-95511242D01*
X49577480Y-95582671D01*
X49506051Y-95511242D01*
X49577480Y-95439814D01*
X49577480Y-95582671D01*
X50220337Y-95154100D02*
X50934622Y-95154100D01*
X50077480Y-95582671D02*
X50577480Y-94082671D01*
X51077480Y-95582671D01*
X51577480Y-95439814D02*
X51648908Y-95511242D01*
X51577480Y-95582671D01*
X51506051Y-95511242D01*
X51577480Y-95439814D01*
X51577480Y-95582671D01*
X54577480Y-95582671D02*
X54577480Y-94082671D01*
X54720337Y-95011242D02*
X55148908Y-95582671D01*
X55148908Y-94582671D02*
X54577480Y-95154100D01*
X55791765Y-95582671D02*
X55791765Y-94582671D01*
X55791765Y-94082671D02*
X55720337Y-94154100D01*
X55791765Y-94225528D01*
X55863194Y-94154100D01*
X55791765Y-94082671D01*
X55791765Y-94225528D01*
X57148908Y-95511242D02*
X57006051Y-95582671D01*
X56720337Y-95582671D01*
X56577480Y-95511242D01*
X56506051Y-95439814D01*
X56434622Y-95296957D01*
X56434622Y-94868385D01*
X56506051Y-94725528D01*
X56577480Y-94654100D01*
X56720337Y-94582671D01*
X57006051Y-94582671D01*
X57148908Y-94654100D01*
X58434622Y-95582671D02*
X58434622Y-94796957D01*
X58363194Y-94654100D01*
X58220337Y-94582671D01*
X57934622Y-94582671D01*
X57791765Y-94654100D01*
X58434622Y-95511242D02*
X58291765Y-95582671D01*
X57934622Y-95582671D01*
X57791765Y-95511242D01*
X57720337Y-95368385D01*
X57720337Y-95225528D01*
X57791765Y-95082671D01*
X57934622Y-95011242D01*
X58291765Y-95011242D01*
X58434622Y-94939814D01*
X59791765Y-95582671D02*
X59791765Y-94082671D01*
X59791765Y-95511242D02*
X59648908Y-95582671D01*
X59363194Y-95582671D01*
X59220337Y-95511242D01*
X59148908Y-95439814D01*
X59077480Y-95296957D01*
X59077480Y-94868385D01*
X59148908Y-94725528D01*
X59220337Y-94654100D01*
X59363194Y-94582671D01*
X59648908Y-94582671D01*
X59791765Y-94654100D01*
X62363194Y-94082671D02*
X61648908Y-94082671D01*
X61577480Y-94796957D01*
X61648908Y-94725528D01*
X61791765Y-94654100D01*
X62148908Y-94654100D01*
X62291765Y-94725528D01*
X62363194Y-94796957D01*
X62434622Y-94939814D01*
X62434622Y-95296957D01*
X62363194Y-95439814D01*
X62291765Y-95511242D01*
X62148908Y-95582671D01*
X61791765Y-95582671D01*
X61648908Y-95511242D01*
X61577480Y-95439814D01*
X63077480Y-95439814D02*
X63148908Y-95511242D01*
X63077480Y-95582671D01*
X63006051Y-95511242D01*
X63077480Y-95439814D01*
X63077480Y-95582671D01*
X64077480Y-94082671D02*
X64220337Y-94082671D01*
X64363194Y-94154100D01*
X64434622Y-94225528D01*
X64506051Y-94368385D01*
X64577480Y-94654100D01*
X64577480Y-95011242D01*
X64506051Y-95296957D01*
X64434622Y-95439814D01*
X64363194Y-95511242D01*
X64220337Y-95582671D01*
X64077480Y-95582671D01*
X63934622Y-95511242D01*
X63863194Y-95439814D01*
X63791765Y-95296957D01*
X63720337Y-95011242D01*
X63720337Y-94654100D01*
X63791765Y-94368385D01*
X63863194Y-94225528D01*
X63934622Y-94154100D01*
X64077480Y-94082671D01*
X65220337Y-95439814D02*
X65291765Y-95511242D01*
X65220337Y-95582671D01*
X65148908Y-95511242D01*
X65220337Y-95439814D01*
X65220337Y-95582671D01*
X65863194Y-94225528D02*
X65934622Y-94154100D01*
X66077480Y-94082671D01*
X66434622Y-94082671D01*
X66577480Y-94154100D01*
X66648908Y-94225528D01*
X66720337Y-94368385D01*
X66720337Y-94511242D01*
X66648908Y-94725528D01*
X65791765Y-95582671D01*
X66720337Y-95582671D01*
X67363194Y-95011242D02*
X68506051Y-95011242D01*
X67934622Y-95582671D02*
X67934622Y-94439814D01*
X69863194Y-95582671D02*
X69863194Y-94082671D01*
X69863194Y-95511242D02*
X69720337Y-95582671D01*
X69434622Y-95582671D01*
X69291765Y-95511242D01*
X69220337Y-95439814D01*
X69148908Y-95296957D01*
X69148908Y-94868385D01*
X69220337Y-94725528D01*
X69291765Y-94654100D01*
X69434622Y-94582671D01*
X69720337Y-94582671D01*
X69863194Y-94654100D01*
X70363194Y-94582671D02*
X70934622Y-94582671D01*
X70577480Y-95582671D02*
X70577480Y-94296957D01*
X70648908Y-94154100D01*
X70791765Y-94082671D01*
X70934622Y-94082671D01*
X71363194Y-95511242D02*
X71506051Y-95582671D01*
X71791765Y-95582671D01*
X71934622Y-95511242D01*
X72006051Y-95368385D01*
X72006051Y-95296957D01*
X71934622Y-95154100D01*
X71791765Y-95082671D01*
X71577480Y-95082671D01*
X71434622Y-95011242D01*
X71363194Y-94868385D01*
X71363194Y-94796957D01*
X71434622Y-94654100D01*
X71577480Y-94582671D01*
X71791765Y-94582671D01*
X71934622Y-94654100D01*
X73291765Y-94582671D02*
X73291765Y-95796957D01*
X73220337Y-95939814D01*
X73148908Y-96011242D01*
X73006051Y-96082671D01*
X72791765Y-96082671D01*
X72648908Y-96011242D01*
X73291765Y-95511242D02*
X73148908Y-95582671D01*
X72863194Y-95582671D01*
X72720337Y-95511242D01*
X72648908Y-95439814D01*
X72577480Y-95296957D01*
X72577480Y-94868385D01*
X72648908Y-94725528D01*
X72720337Y-94654100D01*
X72863194Y-94582671D01*
X73148908Y-94582671D01*
X73291765Y-94654100D01*
X74791765Y-95582671D02*
X73934622Y-95582671D01*
X74363194Y-95582671D02*
X74363194Y-94082671D01*
X74220337Y-94296957D01*
X74077480Y-94439814D01*
X73934622Y-94511242D01*
X75434622Y-95011242D02*
X76577480Y-95011242D01*
X78077480Y-95582671D02*
X77220337Y-95582671D01*
X77648908Y-95582671D02*
X77648908Y-94082671D01*
X77506051Y-94296957D01*
X77363194Y-94439814D01*
X77220337Y-94511242D01*
X37002480Y-90504100D02*
X145002480Y-90504100D01*
D11*
X124411765Y-92782671D02*
X123911765Y-92068385D01*
X123554622Y-92782671D02*
X123554622Y-91282671D01*
X124126051Y-91282671D01*
X124268908Y-91354100D01*
X124340337Y-91425528D01*
X124411765Y-91568385D01*
X124411765Y-91782671D01*
X124340337Y-91925528D01*
X124268908Y-91996957D01*
X124126051Y-92068385D01*
X123554622Y-92068385D01*
X125626051Y-92711242D02*
X125483194Y-92782671D01*
X125197480Y-92782671D01*
X125054622Y-92711242D01*
X124983194Y-92568385D01*
X124983194Y-91996957D01*
X125054622Y-91854100D01*
X125197480Y-91782671D01*
X125483194Y-91782671D01*
X125626051Y-91854100D01*
X125697480Y-91996957D01*
X125697480Y-92139814D01*
X124983194Y-92282671D01*
X126197480Y-91782671D02*
X126554622Y-92782671D01*
X126911765Y-91782671D01*
X127483194Y-92639814D02*
X127554622Y-92711242D01*
X127483194Y-92782671D01*
X127411765Y-92711242D01*
X127483194Y-92639814D01*
X127483194Y-92782671D01*
X127483194Y-91854100D02*
X127554622Y-91925528D01*
X127483194Y-91996957D01*
X127411765Y-91925528D01*
X127483194Y-91854100D01*
X127483194Y-91996957D01*
X129268908Y-91425528D02*
X129340337Y-91354100D01*
X129483194Y-91282671D01*
X129840337Y-91282671D01*
X129983194Y-91354100D01*
X130054622Y-91425528D01*
X130126051Y-91568385D01*
X130126051Y-91711242D01*
X130054622Y-91925528D01*
X129197480Y-92782671D01*
X130126051Y-92782671D01*
X130768908Y-92639814D02*
X130840337Y-92711242D01*
X130768908Y-92782671D01*
X130697480Y-92711242D01*
X130768908Y-92639814D01*
X130768908Y-92782671D01*
X132268908Y-92782671D02*
X131411765Y-92782671D01*
X131840337Y-92782671D02*
X131840337Y-91282671D01*
X131697480Y-91496957D01*
X131554622Y-91639814D01*
X131411765Y-91711242D01*
D10*
X38363194Y-92711242D02*
X38577480Y-92782671D01*
X38934622Y-92782671D01*
X39077480Y-92711242D01*
X39148908Y-92639814D01*
X39220337Y-92496957D01*
X39220337Y-92354100D01*
X39148908Y-92211242D01*
X39077480Y-92139814D01*
X38934622Y-92068385D01*
X38648908Y-91996957D01*
X38506051Y-91925528D01*
X38434622Y-91854100D01*
X38363194Y-91711242D01*
X38363194Y-91568385D01*
X38434622Y-91425528D01*
X38506051Y-91354100D01*
X38648908Y-91282671D01*
X39006051Y-91282671D01*
X39220337Y-91354100D01*
X39863194Y-92782671D02*
X39863194Y-91782671D01*
X39863194Y-91282671D02*
X39791765Y-91354100D01*
X39863194Y-91425528D01*
X39934622Y-91354100D01*
X39863194Y-91282671D01*
X39863194Y-91425528D01*
X40434622Y-91782671D02*
X41220337Y-91782671D01*
X40434622Y-92782671D01*
X41220337Y-92782671D01*
X42363194Y-92711242D02*
X42220337Y-92782671D01*
X41934622Y-92782671D01*
X41791765Y-92711242D01*
X41720337Y-92568385D01*
X41720337Y-91996957D01*
X41791765Y-91854100D01*
X41934622Y-91782671D01*
X42220337Y-91782671D01*
X42363194Y-91854100D01*
X42434622Y-91996957D01*
X42434622Y-92139814D01*
X41720337Y-92282671D01*
X43077480Y-92639814D02*
X43148908Y-92711242D01*
X43077480Y-92782671D01*
X43006051Y-92711242D01*
X43077480Y-92639814D01*
X43077480Y-92782671D01*
X43077480Y-91854100D02*
X43148908Y-91925528D01*
X43077480Y-91996957D01*
X43006051Y-91925528D01*
X43077480Y-91854100D01*
X43077480Y-91996957D01*
X44863194Y-92354100D02*
X45577480Y-92354100D01*
X44720337Y-92782671D02*
X45220337Y-91282671D01*
X45720337Y-92782671D01*
X46863194Y-91782671D02*
X46863194Y-92782671D01*
X46506051Y-91211242D02*
X46148908Y-92282671D01*
X47077480Y-92282671D01*
X123434622Y-95582671D02*
X123434622Y-94082671D01*
X124791765Y-95582671D02*
X124791765Y-94082671D01*
X124791765Y-95511242D02*
X124648908Y-95582671D01*
X124363194Y-95582671D01*
X124220337Y-95511242D01*
X124148908Y-95439814D01*
X124077480Y-95296957D01*
X124077480Y-94868385D01*
X124148908Y-94725528D01*
X124220337Y-94654100D01*
X124363194Y-94582671D01*
X124648908Y-94582671D01*
X124791765Y-94654100D01*
X125506051Y-95439814D02*
X125577480Y-95511242D01*
X125506051Y-95582671D01*
X125434622Y-95511242D01*
X125506051Y-95439814D01*
X125506051Y-95582671D01*
X125506051Y-94654100D02*
X125577480Y-94725528D01*
X125506051Y-94796957D01*
X125434622Y-94725528D01*
X125506051Y-94654100D01*
X125506051Y-94796957D01*
X128148908Y-95582671D02*
X127291765Y-95582671D01*
X127720337Y-95582671D02*
X127720337Y-94082671D01*
X127577480Y-94296957D01*
X127434622Y-94439814D01*
X127291765Y-94511242D01*
X129863194Y-94011242D02*
X128577480Y-95939814D01*
X131148908Y-95582671D02*
X130291765Y-95582671D01*
X130720337Y-95582671D02*
X130720337Y-94082671D01*
X130577480Y-94296957D01*
X130434622Y-94439814D01*
X130291765Y-94511242D01*
X37002480Y-86504100D02*
X145002480Y-86504100D01*
D12*
X38714860Y-87208861D02*
X39857718Y-87208861D01*
X39036289Y-89208861D02*
X39286289Y-87208861D01*
X40274384Y-89208861D02*
X40441051Y-87875528D01*
X40524384Y-87208861D02*
X40417241Y-87304100D01*
X40500575Y-87399338D01*
X40607718Y-87304100D01*
X40524384Y-87208861D01*
X40500575Y-87399338D01*
X41107718Y-87875528D02*
X41869622Y-87875528D01*
X41476765Y-87208861D02*
X41262480Y-88923147D01*
X41333908Y-89113623D01*
X41512480Y-89208861D01*
X41702956Y-89208861D01*
X42655337Y-89208861D02*
X42476765Y-89113623D01*
X42405337Y-88923147D01*
X42619622Y-87208861D01*
X44191051Y-89113623D02*
X43988670Y-89208861D01*
X43607718Y-89208861D01*
X43429146Y-89113623D01*
X43357718Y-88923147D01*
X43452956Y-88161242D01*
X43572003Y-87970766D01*
X43774384Y-87875528D01*
X44155337Y-87875528D01*
X44333908Y-87970766D01*
X44405337Y-88161242D01*
X44381527Y-88351719D01*
X43405337Y-88542195D01*
X45155337Y-89018385D02*
X45238670Y-89113623D01*
X45131527Y-89208861D01*
X45048194Y-89113623D01*
X45155337Y-89018385D01*
X45131527Y-89208861D01*
X45286289Y-87970766D02*
X45369622Y-88066004D01*
X45262480Y-88161242D01*
X45179146Y-88066004D01*
X45286289Y-87970766D01*
X45262480Y-88161242D01*
X48774384Y-89018385D02*
X48667241Y-89113623D01*
X48369622Y-89208861D01*
X48179146Y-89208861D01*
X47905337Y-89113623D01*
X47738670Y-88923147D01*
X47667241Y-88732671D01*
X47619622Y-88351719D01*
X47655337Y-88066004D01*
X47798194Y-87685052D01*
X47917241Y-87494576D01*
X48131527Y-87304100D01*
X48429146Y-87208861D01*
X48619622Y-87208861D01*
X48893432Y-87304100D01*
X48976765Y-87399338D01*
X49607718Y-89208861D02*
X49774384Y-87875528D01*
X49726765Y-88256480D02*
X49845813Y-88066004D01*
X49952956Y-87970766D01*
X50155337Y-87875528D01*
X50345813Y-87875528D01*
X51702956Y-89208861D02*
X51833908Y-88161242D01*
X51762480Y-87970766D01*
X51583908Y-87875528D01*
X51202956Y-87875528D01*
X51000575Y-87970766D01*
X51714860Y-89113623D02*
X51512480Y-89208861D01*
X51036289Y-89208861D01*
X50857718Y-89113623D01*
X50786289Y-88923147D01*
X50810099Y-88732671D01*
X50929146Y-88542195D01*
X51131527Y-88446957D01*
X51607718Y-88446957D01*
X51810099Y-88351719D01*
X52631527Y-87875528D02*
X53679146Y-87875528D01*
X52464860Y-89208861D01*
X53512480Y-89208861D01*
X54250575Y-87875528D02*
X54560099Y-89208861D01*
X55202956Y-87875528D02*
X54560099Y-89208861D01*
X54310099Y-89685052D01*
X54202956Y-89780290D01*
X54000575Y-89875528D01*
X55679146Y-87875528D02*
X56441051Y-87875528D01*
X55798194Y-89208861D02*
X56012480Y-87494576D01*
X56131527Y-87304100D01*
X56333908Y-87208861D01*
X56524384Y-87208861D01*
X57226765Y-89208861D02*
X57048194Y-89113623D01*
X56976765Y-88923147D01*
X57191051Y-87208861D01*
X57988670Y-89208861D02*
X58155337Y-87875528D01*
X58238670Y-87208861D02*
X58131527Y-87304100D01*
X58214860Y-87399338D01*
X58322003Y-87304100D01*
X58238670Y-87208861D01*
X58214860Y-87399338D01*
X59714860Y-89113623D02*
X59512480Y-89208861D01*
X59131527Y-89208861D01*
X58952956Y-89113623D01*
X58881527Y-88923147D01*
X58976765Y-88161242D01*
X59095813Y-87970766D01*
X59298194Y-87875528D01*
X59679146Y-87875528D01*
X59857718Y-87970766D01*
X59929146Y-88161242D01*
X59905337Y-88351719D01*
X58929146Y-88542195D01*
X63048194Y-89113623D02*
X62845813Y-89208861D01*
X62464860Y-89208861D01*
X62286289Y-89113623D01*
X62202956Y-89018385D01*
X62131527Y-88827909D01*
X62202956Y-88256480D01*
X62322003Y-88066004D01*
X62429146Y-87970766D01*
X62631527Y-87875528D01*
X63012480Y-87875528D01*
X63191051Y-87970766D01*
X64179146Y-89208861D02*
X64000575Y-89113623D01*
X63917241Y-89018385D01*
X63845813Y-88827909D01*
X63917241Y-88256480D01*
X64036289Y-88066004D01*
X64143432Y-87970766D01*
X64345813Y-87875528D01*
X64631527Y-87875528D01*
X64810099Y-87970766D01*
X64893432Y-88066004D01*
X64964860Y-88256480D01*
X64893432Y-88827909D01*
X64774384Y-89018385D01*
X64667241Y-89113623D01*
X64464860Y-89208861D01*
X64179146Y-89208861D01*
X65869622Y-87875528D02*
X65702956Y-89208861D01*
X65845813Y-88066004D02*
X65952956Y-87970766D01*
X66155337Y-87875528D01*
X66441051Y-87875528D01*
X66619622Y-87970766D01*
X66691051Y-88161242D01*
X66560099Y-89208861D01*
X67393432Y-87875528D02*
X68155337Y-87875528D01*
X67762480Y-87208861D02*
X67548194Y-88923147D01*
X67619622Y-89113623D01*
X67798194Y-89208861D01*
X67988670Y-89208861D01*
X68655337Y-89208861D02*
X68822003Y-87875528D01*
X68774384Y-88256480D02*
X68893432Y-88066004D01*
X69000575Y-87970766D01*
X69202956Y-87875528D01*
X69393432Y-87875528D01*
X70179146Y-89208861D02*
X70000575Y-89113623D01*
X69917241Y-89018385D01*
X69845813Y-88827909D01*
X69917241Y-88256480D01*
X70036289Y-88066004D01*
X70143432Y-87970766D01*
X70345813Y-87875528D01*
X70631527Y-87875528D01*
X70810099Y-87970766D01*
X70893432Y-88066004D01*
X70964860Y-88256480D01*
X70893432Y-88827909D01*
X70774384Y-89018385D01*
X70667241Y-89113623D01*
X70464860Y-89208861D01*
X70179146Y-89208861D01*
X71988670Y-89208861D02*
X71810099Y-89113623D01*
X71738670Y-88923147D01*
X71952956Y-87208861D01*
X74274384Y-89208861D02*
X74524384Y-87208861D01*
X74429146Y-87970766D02*
X74631527Y-87875528D01*
X75012480Y-87875528D01*
X75191051Y-87970766D01*
X75274384Y-88066004D01*
X75345813Y-88256480D01*
X75274384Y-88827909D01*
X75155337Y-89018385D01*
X75048194Y-89113623D01*
X74845813Y-89208861D01*
X74464860Y-89208861D01*
X74286289Y-89113623D01*
X76369622Y-89208861D02*
X76191051Y-89113623D01*
X76107718Y-89018385D01*
X76036289Y-88827909D01*
X76107718Y-88256480D01*
X76226765Y-88066004D01*
X76333908Y-87970766D01*
X76536289Y-87875528D01*
X76822003Y-87875528D01*
X77000575Y-87970766D01*
X77083908Y-88066004D01*
X77155337Y-88256480D01*
X77083908Y-88827909D01*
X76964860Y-89018385D01*
X76857718Y-89113623D01*
X76655337Y-89208861D01*
X76369622Y-89208861D01*
X78750575Y-89208861D02*
X78881527Y-88161242D01*
X78810099Y-87970766D01*
X78631527Y-87875528D01*
X78250575Y-87875528D01*
X78048194Y-87970766D01*
X78762480Y-89113623D02*
X78560099Y-89208861D01*
X78083908Y-89208861D01*
X77905337Y-89113623D01*
X77833908Y-88923147D01*
X77857718Y-88732671D01*
X77976765Y-88542195D01*
X78179146Y-88446957D01*
X78655337Y-88446957D01*
X78857718Y-88351719D01*
X79702956Y-89208861D02*
X79869622Y-87875528D01*
X79822003Y-88256480D02*
X79941051Y-88066004D01*
X80048194Y-87970766D01*
X80250575Y-87875528D01*
X80441051Y-87875528D01*
X81798194Y-89208861D02*
X82048194Y-87208861D01*
X81810099Y-89113623D02*
X81607718Y-89208861D01*
X81226765Y-89208861D01*
X81048194Y-89113623D01*
X80964860Y-89018385D01*
X80893432Y-88827909D01*
X80964860Y-88256480D01*
X81083908Y-88066004D01*
X81191051Y-87970766D01*
X81393432Y-87875528D01*
X81774384Y-87875528D01*
X81952956Y-87970766D01*
D10*
X38934622Y-84596957D02*
X38434622Y-84596957D01*
X38434622Y-85382671D02*
X38434622Y-83882671D01*
X39148908Y-83882671D01*
X39720337Y-85382671D02*
X39720337Y-84382671D01*
X39720337Y-83882671D02*
X39648908Y-83954100D01*
X39720337Y-84025528D01*
X39791765Y-83954100D01*
X39720337Y-83882671D01*
X39720337Y-84025528D01*
X40648908Y-85382671D02*
X40506051Y-85311242D01*
X40434622Y-85168385D01*
X40434622Y-83882671D01*
X41791765Y-85311242D02*
X41648908Y-85382671D01*
X41363194Y-85382671D01*
X41220337Y-85311242D01*
X41148908Y-85168385D01*
X41148908Y-84596957D01*
X41220337Y-84454100D01*
X41363194Y-84382671D01*
X41648908Y-84382671D01*
X41791765Y-84454100D01*
X41863194Y-84596957D01*
X41863194Y-84739814D01*
X41148908Y-84882671D01*
X42506051Y-85239814D02*
X42577480Y-85311242D01*
X42506051Y-85382671D01*
X42434622Y-85311242D01*
X42506051Y-85239814D01*
X42506051Y-85382671D01*
X42506051Y-84454100D02*
X42577480Y-84525528D01*
X42506051Y-84596957D01*
X42434622Y-84525528D01*
X42506051Y-84454100D01*
X42506051Y-84596957D01*
X45220337Y-85239814D02*
X45148908Y-85311242D01*
X44934622Y-85382671D01*
X44791765Y-85382671D01*
X44577480Y-85311242D01*
X44434622Y-85168385D01*
X44363194Y-85025528D01*
X44291765Y-84739814D01*
X44291765Y-84525528D01*
X44363194Y-84239814D01*
X44434622Y-84096957D01*
X44577480Y-83954100D01*
X44791765Y-83882671D01*
X44934622Y-83882671D01*
X45148908Y-83954100D01*
X45220337Y-84025528D01*
X45863194Y-85382671D02*
X45863194Y-84382671D01*
X45863194Y-84668385D02*
X45934622Y-84525528D01*
X46006051Y-84454100D01*
X46148908Y-84382671D01*
X46291765Y-84382671D01*
X47434622Y-85382671D02*
X47434622Y-84596957D01*
X47363194Y-84454100D01*
X47220337Y-84382671D01*
X46934622Y-84382671D01*
X46791765Y-84454100D01*
X47434622Y-85311242D02*
X47291765Y-85382671D01*
X46934622Y-85382671D01*
X46791765Y-85311242D01*
X46720337Y-85168385D01*
X46720337Y-85025528D01*
X46791765Y-84882671D01*
X46934622Y-84811242D01*
X47291765Y-84811242D01*
X47434622Y-84739814D01*
X48006051Y-84382671D02*
X48791765Y-84382671D01*
X48006051Y-85382671D01*
X48791765Y-85382671D01*
X49220337Y-84382671D02*
X49577480Y-85382671D01*
X49934622Y-84382671D02*
X49577480Y-85382671D01*
X49434622Y-85739814D01*
X49363194Y-85811242D01*
X49220337Y-85882671D01*
X50291765Y-84382671D02*
X50863194Y-84382671D01*
X50506051Y-85382671D02*
X50506051Y-84096957D01*
X50577480Y-83954100D01*
X50720337Y-83882671D01*
X50863194Y-83882671D01*
X51577480Y-85382671D02*
X51434622Y-85311242D01*
X51363194Y-85168385D01*
X51363194Y-83882671D01*
X52148908Y-85382671D02*
X52148908Y-84382671D01*
X52148908Y-83882671D02*
X52077480Y-83954100D01*
X52148908Y-84025528D01*
X52220337Y-83954100D01*
X52148908Y-83882671D01*
X52148908Y-84025528D01*
X53434622Y-85311242D02*
X53291765Y-85382671D01*
X53006051Y-85382671D01*
X52863194Y-85311242D01*
X52791765Y-85168385D01*
X52791765Y-84596957D01*
X52863194Y-84454100D01*
X53006051Y-84382671D01*
X53291765Y-84382671D01*
X53434622Y-84454100D01*
X53506051Y-84596957D01*
X53506051Y-84739814D01*
X52791765Y-84882671D01*
X55934622Y-85311242D02*
X55791765Y-85382671D01*
X55506051Y-85382671D01*
X55363194Y-85311242D01*
X55291765Y-85239814D01*
X55220337Y-85096957D01*
X55220337Y-84668385D01*
X55291765Y-84525528D01*
X55363194Y-84454100D01*
X55506051Y-84382671D01*
X55791765Y-84382671D01*
X55934622Y-84454100D01*
X56791765Y-85382671D02*
X56648908Y-85311242D01*
X56577480Y-85239814D01*
X56506051Y-85096957D01*
X56506051Y-84668385D01*
X56577480Y-84525528D01*
X56648908Y-84454100D01*
X56791765Y-84382671D01*
X57006051Y-84382671D01*
X57148908Y-84454100D01*
X57220337Y-84525528D01*
X57291765Y-84668385D01*
X57291765Y-85096957D01*
X57220337Y-85239814D01*
X57148908Y-85311242D01*
X57006051Y-85382671D01*
X56791765Y-85382671D01*
X57934622Y-84382671D02*
X57934622Y-85382671D01*
X57934622Y-84525528D02*
X58006051Y-84454100D01*
X58148908Y-84382671D01*
X58363194Y-84382671D01*
X58506051Y-84454100D01*
X58577480Y-84596957D01*
X58577480Y-85382671D01*
X59077480Y-84382671D02*
X59648908Y-84382671D01*
X59291765Y-83882671D02*
X59291765Y-85168385D01*
X59363194Y-85311242D01*
X59506051Y-85382671D01*
X59648908Y-85382671D01*
X60363194Y-85382671D02*
X60220337Y-85311242D01*
X60148908Y-85239814D01*
X60077480Y-85096957D01*
X60077480Y-84668385D01*
X60148908Y-84525528D01*
X60220337Y-84454100D01*
X60363194Y-84382671D01*
X60577480Y-84382671D01*
X60720337Y-84454100D01*
X60791765Y-84525528D01*
X60863194Y-84668385D01*
X60863194Y-85096957D01*
X60791765Y-85239814D01*
X60720337Y-85311242D01*
X60577480Y-85382671D01*
X60363194Y-85382671D01*
X61720337Y-85382671D02*
X61577480Y-85311242D01*
X61506051Y-85168385D01*
X61506051Y-83882671D01*
X63434622Y-85382671D02*
X63434622Y-83882671D01*
X63434622Y-84454100D02*
X63577480Y-84382671D01*
X63863194Y-84382671D01*
X64006051Y-84454100D01*
X64077480Y-84525528D01*
X64148908Y-84668385D01*
X64148908Y-85096957D01*
X64077480Y-85239814D01*
X64006051Y-85311242D01*
X63863194Y-85382671D01*
X63577480Y-85382671D01*
X63434622Y-85311242D01*
X65006051Y-85382671D02*
X64863194Y-85311242D01*
X64791765Y-85239814D01*
X64720337Y-85096957D01*
X64720337Y-84668385D01*
X64791765Y-84525528D01*
X64863194Y-84454100D01*
X65006051Y-84382671D01*
X65220337Y-84382671D01*
X65363194Y-84454100D01*
X65434622Y-84525528D01*
X65506051Y-84668385D01*
X65506051Y-85096957D01*
X65434622Y-85239814D01*
X65363194Y-85311242D01*
X65220337Y-85382671D01*
X65006051Y-85382671D01*
X66791765Y-85382671D02*
X66791765Y-84596957D01*
X66720337Y-84454100D01*
X66577480Y-84382671D01*
X66291765Y-84382671D01*
X66148908Y-84454100D01*
X66791765Y-85311242D02*
X66648908Y-85382671D01*
X66291765Y-85382671D01*
X66148908Y-85311242D01*
X66077480Y-85168385D01*
X66077480Y-85025528D01*
X66148908Y-84882671D01*
X66291765Y-84811242D01*
X66648908Y-84811242D01*
X66791765Y-84739814D01*
X67506051Y-85382671D02*
X67506051Y-84382671D01*
X67506051Y-84668385D02*
X67577480Y-84525528D01*
X67648908Y-84454100D01*
X67791765Y-84382671D01*
X67934622Y-84382671D01*
X69077480Y-85382671D02*
X69077480Y-83882671D01*
X69077480Y-85311242D02*
X68934622Y-85382671D01*
X68648908Y-85382671D01*
X68506051Y-85311242D01*
X68434622Y-85239814D01*
X68363194Y-85096957D01*
X68363194Y-84668385D01*
X68434622Y-84525528D01*
X68506051Y-84454100D01*
X68648908Y-84382671D01*
X68934622Y-84382671D01*
X69077480Y-84454100D01*
X69791765Y-85239814D02*
X69863194Y-85311242D01*
X69791765Y-85382671D01*
X69720337Y-85311242D01*
X69791765Y-85239814D01*
X69791765Y-85382671D01*
X70506051Y-85382671D02*
X70506051Y-83882671D01*
X70648908Y-84811242D02*
X71077480Y-85382671D01*
X71077480Y-84382671D02*
X70506051Y-84954100D01*
X71720337Y-85382671D02*
X71720337Y-84382671D01*
X71720337Y-83882671D02*
X71648908Y-83954100D01*
X71720337Y-84025528D01*
X71791765Y-83954100D01*
X71720337Y-83882671D01*
X71720337Y-84025528D01*
X73077480Y-85311242D02*
X72934622Y-85382671D01*
X72648908Y-85382671D01*
X72506051Y-85311242D01*
X72434622Y-85239814D01*
X72363194Y-85096957D01*
X72363194Y-84668385D01*
X72434622Y-84525528D01*
X72506051Y-84454100D01*
X72648908Y-84382671D01*
X72934622Y-84382671D01*
X73077480Y-84454100D01*
X74363194Y-85382671D02*
X74363194Y-84596957D01*
X74291765Y-84454100D01*
X74148908Y-84382671D01*
X73863194Y-84382671D01*
X73720337Y-84454100D01*
X74363194Y-85311242D02*
X74220337Y-85382671D01*
X73863194Y-85382671D01*
X73720337Y-85311242D01*
X73648908Y-85168385D01*
X73648908Y-85025528D01*
X73720337Y-84882671D01*
X73863194Y-84811242D01*
X74220337Y-84811242D01*
X74363194Y-84739814D01*
X75720337Y-85382671D02*
X75720337Y-83882671D01*
X75720337Y-85311242D02*
X75577480Y-85382671D01*
X75291765Y-85382671D01*
X75148908Y-85311242D01*
X75077480Y-85239814D01*
X75006051Y-85096957D01*
X75006051Y-84668385D01*
X75077480Y-84525528D01*
X75148908Y-84454100D01*
X75291765Y-84382671D01*
X75577480Y-84382671D01*
X75720337Y-84454100D01*
X76077480Y-85525528D02*
X77220337Y-85525528D01*
X77577480Y-84382671D02*
X77577480Y-85882671D01*
X77577480Y-84454100D02*
X77720337Y-84382671D01*
X78006051Y-84382671D01*
X78148908Y-84454100D01*
X78220337Y-84525528D01*
X78291765Y-84668385D01*
X78291765Y-85096957D01*
X78220337Y-85239814D01*
X78148908Y-85311242D01*
X78006051Y-85382671D01*
X77720337Y-85382671D01*
X77577480Y-85311242D01*
X79577480Y-85311242D02*
X79434622Y-85382671D01*
X79148908Y-85382671D01*
X79006051Y-85311242D01*
X78934622Y-85239814D01*
X78863194Y-85096957D01*
X78863194Y-84668385D01*
X78934622Y-84525528D01*
X79006051Y-84454100D01*
X79148908Y-84382671D01*
X79434622Y-84382671D01*
X79577480Y-84454100D01*
X80220337Y-85382671D02*
X80220337Y-83882671D01*
X80220337Y-84454100D02*
X80363194Y-84382671D01*
X80648908Y-84382671D01*
X80791765Y-84454100D01*
X80863194Y-84525528D01*
X80934622Y-84668385D01*
X80934622Y-85096957D01*
X80863194Y-85239814D01*
X80791765Y-85311242D01*
X80648908Y-85382671D01*
X80363194Y-85382671D01*
X80220337Y-85311242D01*
X37002480Y-80504100D02*
X145002480Y-80504100D01*
X38363194Y-82611242D02*
X38577480Y-82682671D01*
X38934622Y-82682671D01*
X39077480Y-82611242D01*
X39148908Y-82539814D01*
X39220337Y-82396957D01*
X39220337Y-82254100D01*
X39148908Y-82111242D01*
X39077480Y-82039814D01*
X38934622Y-81968385D01*
X38648908Y-81896957D01*
X38506051Y-81825528D01*
X38434622Y-81754100D01*
X38363194Y-81611242D01*
X38363194Y-81468385D01*
X38434622Y-81325528D01*
X38506051Y-81254100D01*
X38648908Y-81182671D01*
X39006051Y-81182671D01*
X39220337Y-81254100D01*
X39863194Y-82682671D02*
X39863194Y-81182671D01*
X40506051Y-82682671D02*
X40506051Y-81896957D01*
X40434622Y-81754100D01*
X40291765Y-81682671D01*
X40077480Y-81682671D01*
X39934622Y-81754100D01*
X39863194Y-81825528D01*
X41791765Y-82611242D02*
X41648908Y-82682671D01*
X41363194Y-82682671D01*
X41220337Y-82611242D01*
X41148908Y-82468385D01*
X41148908Y-81896957D01*
X41220337Y-81754100D01*
X41363194Y-81682671D01*
X41648908Y-81682671D01*
X41791765Y-81754100D01*
X41863194Y-81896957D01*
X41863194Y-82039814D01*
X41148908Y-82182671D01*
X43077480Y-82611242D02*
X42934622Y-82682671D01*
X42648908Y-82682671D01*
X42506051Y-82611242D01*
X42434622Y-82468385D01*
X42434622Y-81896957D01*
X42506051Y-81754100D01*
X42648908Y-81682671D01*
X42934622Y-81682671D01*
X43077480Y-81754100D01*
X43148908Y-81896957D01*
X43148908Y-82039814D01*
X42434622Y-82182671D01*
X43577480Y-81682671D02*
X44148908Y-81682671D01*
X43791765Y-81182671D02*
X43791765Y-82468385D01*
X43863194Y-82611242D01*
X44006051Y-82682671D01*
X44148908Y-82682671D01*
X44648908Y-82539814D02*
X44720337Y-82611242D01*
X44648908Y-82682671D01*
X44577480Y-82611242D01*
X44648908Y-82539814D01*
X44648908Y-82682671D01*
X44648908Y-81754100D02*
X44720337Y-81825528D01*
X44648908Y-81896957D01*
X44577480Y-81825528D01*
X44648908Y-81754100D01*
X44648908Y-81896957D01*
D11*
X39054622Y-78896957D02*
X39268908Y-78968385D01*
X39340337Y-79039814D01*
X39411765Y-79182671D01*
X39411765Y-79396957D01*
X39340337Y-79539814D01*
X39268908Y-79611242D01*
X39126051Y-79682671D01*
X38554622Y-79682671D01*
X38554622Y-78182671D01*
X39054622Y-78182671D01*
X39197480Y-78254100D01*
X39268908Y-78325528D01*
X39340337Y-78468385D01*
X39340337Y-78611242D01*
X39268908Y-78754100D01*
X39197480Y-78825528D01*
X39054622Y-78896957D01*
X38554622Y-78896957D01*
X40054622Y-79682671D02*
X40054622Y-78682671D01*
X40054622Y-78182671D02*
X39983194Y-78254100D01*
X40054622Y-78325528D01*
X40126051Y-78254100D01*
X40054622Y-78182671D01*
X40054622Y-78325528D01*
X40554622Y-78682671D02*
X41126051Y-78682671D01*
X40768908Y-78182671D02*
X40768908Y-79468385D01*
X40840337Y-79611242D01*
X40983194Y-79682671D01*
X41126051Y-79682671D01*
X42268908Y-79611242D02*
X42126051Y-79682671D01*
X41840337Y-79682671D01*
X41697480Y-79611242D01*
X41626051Y-79539814D01*
X41554622Y-79396957D01*
X41554622Y-78968385D01*
X41626051Y-78825528D01*
X41697480Y-78754100D01*
X41840337Y-78682671D01*
X42126051Y-78682671D01*
X42268908Y-78754100D01*
X42911765Y-79682671D02*
X42911765Y-78682671D01*
X42911765Y-78968385D02*
X42983194Y-78825528D01*
X43054622Y-78754100D01*
X43197480Y-78682671D01*
X43340337Y-78682671D01*
X44483194Y-79682671D02*
X44483194Y-78896957D01*
X44411765Y-78754100D01*
X44268908Y-78682671D01*
X43983194Y-78682671D01*
X43840337Y-78754100D01*
X44483194Y-79611242D02*
X44340337Y-79682671D01*
X43983194Y-79682671D01*
X43840337Y-79611242D01*
X43768908Y-79468385D01*
X43768908Y-79325528D01*
X43840337Y-79182671D01*
X43983194Y-79111242D01*
X44340337Y-79111242D01*
X44483194Y-79039814D01*
X45054622Y-78682671D02*
X45840337Y-78682671D01*
X45054622Y-79682671D01*
X45840337Y-79682671D01*
X46983194Y-79611242D02*
X46840337Y-79682671D01*
X46554622Y-79682671D01*
X46411765Y-79611242D01*
X46340337Y-79468385D01*
X46340337Y-78896957D01*
X46411765Y-78754100D01*
X46554622Y-78682671D01*
X46840337Y-78682671D01*
X46983194Y-78754100D01*
X47054622Y-78896957D01*
X47054622Y-79039814D01*
X46340337Y-79182671D01*
X48768908Y-79254100D02*
X49483194Y-79254100D01*
X48626051Y-79682671D02*
X49126051Y-78182671D01*
X49626051Y-79682671D01*
X50626051Y-78896957D02*
X50840337Y-78968385D01*
X50911765Y-79039814D01*
X50983194Y-79182671D01*
X50983194Y-79396957D01*
X50911765Y-79539814D01*
X50840337Y-79611242D01*
X50697480Y-79682671D01*
X50126051Y-79682671D01*
X50126051Y-78182671D01*
X50626051Y-78182671D01*
X50768908Y-78254100D01*
X50840337Y-78325528D01*
X50911765Y-78468385D01*
X50911765Y-78611242D01*
X50840337Y-78754100D01*
X50768908Y-78825528D01*
X50626051Y-78896957D01*
X50126051Y-78896957D01*
X53197480Y-80254100D02*
X53126051Y-80182671D01*
X52983194Y-79968385D01*
X52911765Y-79825528D01*
X52840337Y-79611242D01*
X52768908Y-79254100D01*
X52768908Y-78968385D01*
X52840337Y-78611242D01*
X52911765Y-78396957D01*
X52983194Y-78254100D01*
X53126051Y-78039814D01*
X53197480Y-77968385D01*
X54626051Y-79539814D02*
X54554622Y-79611242D01*
X54340337Y-79682671D01*
X54197480Y-79682671D01*
X53983194Y-79611242D01*
X53840337Y-79468385D01*
X53768908Y-79325528D01*
X53697480Y-79039814D01*
X53697480Y-78825528D01*
X53768908Y-78539814D01*
X53840337Y-78396957D01*
X53983194Y-78254100D01*
X54197480Y-78182671D01*
X54340337Y-78182671D01*
X54554622Y-78254100D01*
X54626051Y-78325528D01*
X56126051Y-79539814D02*
X56054622Y-79611242D01*
X55840337Y-79682671D01*
X55697480Y-79682671D01*
X55483194Y-79611242D01*
X55340337Y-79468385D01*
X55268908Y-79325528D01*
X55197480Y-79039814D01*
X55197480Y-78825528D01*
X55268908Y-78539814D01*
X55340337Y-78396957D01*
X55483194Y-78254100D01*
X55697480Y-78182671D01*
X55840337Y-78182671D01*
X56054622Y-78254100D01*
X56126051Y-78325528D01*
X58411765Y-78896957D02*
X58626051Y-78968385D01*
X58697480Y-79039814D01*
X58768908Y-79182671D01*
X58768908Y-79396957D01*
X58697480Y-79539814D01*
X58626051Y-79611242D01*
X58483194Y-79682671D01*
X57911765Y-79682671D01*
X57911765Y-78182671D01*
X58411765Y-78182671D01*
X58554622Y-78254100D01*
X58626051Y-78325528D01*
X58697480Y-78468385D01*
X58697480Y-78611242D01*
X58626051Y-78754100D01*
X58554622Y-78825528D01*
X58411765Y-78896957D01*
X57911765Y-78896957D01*
X59697480Y-78968385D02*
X59697480Y-79682671D01*
X59197480Y-78182671D02*
X59697480Y-78968385D01*
X60197480Y-78182671D01*
X60697480Y-79111242D02*
X61840337Y-79111242D01*
X62554622Y-79682671D02*
X62554622Y-78182671D01*
X63411765Y-79682671D01*
X63411765Y-78182671D01*
X64983194Y-79539814D02*
X64911765Y-79611242D01*
X64697480Y-79682671D01*
X64554622Y-79682671D01*
X64340337Y-79611242D01*
X64197480Y-79468385D01*
X64126051Y-79325528D01*
X64054622Y-79039814D01*
X64054622Y-78825528D01*
X64126051Y-78539814D01*
X64197480Y-78396957D01*
X64340337Y-78254100D01*
X64554622Y-78182671D01*
X64697480Y-78182671D01*
X64911765Y-78254100D01*
X64983194Y-78325528D01*
X65626051Y-79111242D02*
X66768908Y-79111242D01*
X67411765Y-79611242D02*
X67626051Y-79682671D01*
X67983194Y-79682671D01*
X68126051Y-79611242D01*
X68197480Y-79539814D01*
X68268908Y-79396957D01*
X68268908Y-79254100D01*
X68197480Y-79111242D01*
X68126051Y-79039814D01*
X67983194Y-78968385D01*
X67697480Y-78896957D01*
X67554622Y-78825528D01*
X67483194Y-78754100D01*
X67411765Y-78611242D01*
X67411765Y-78468385D01*
X67483194Y-78325528D01*
X67554622Y-78254100D01*
X67697480Y-78182671D01*
X68054622Y-78182671D01*
X68268908Y-78254100D01*
X68840337Y-79254100D02*
X69554622Y-79254100D01*
X68697480Y-79682671D02*
X69197480Y-78182671D01*
X69697480Y-79682671D01*
X70054622Y-80254100D02*
X70126051Y-80182671D01*
X70268908Y-79968385D01*
X70340337Y-79825528D01*
X70411765Y-79611242D01*
X70483194Y-79254100D01*
X70483194Y-78968385D01*
X70411765Y-78611242D01*
X70340337Y-78396957D01*
X70268908Y-78254100D01*
X70126051Y-78039814D01*
X70054622Y-77968385D01*
D10*
X57002480Y-90504100D02*
X57002480Y-93504100D01*
X121002480Y-90504100D02*
X121002480Y-97004100D01*
G36*
X-12721640Y-18867860D02*
X-13719320Y-18867860D01*
X-13743706Y-18870262D01*
X-13767155Y-18877375D01*
X-13787370Y-18888180D01*
X-14786560Y-18888180D01*
X-14786560Y-18145940D01*
X-13788880Y-18145940D01*
X-13764494Y-18143538D01*
X-13741045Y-18136425D01*
X-13720830Y-18125620D01*
X-12721640Y-18125620D01*
X-12721640Y-18867860D01*
X-12721640Y-18867860D01*
G37*
G36*
X16646598Y-16761311D02*
X16719047Y-16775722D01*
X16775583Y-16799140D01*
X16855537Y-16832258D01*
X16978380Y-16914339D01*
X17082841Y-17018800D01*
X17164922Y-17141643D01*
X17221458Y-17278134D01*
X17250280Y-17423030D01*
X17250280Y-17570770D01*
X17221458Y-17715666D01*
X17164922Y-17852157D01*
X17082841Y-17975000D01*
X16978380Y-18079461D01*
X16855537Y-18161542D01*
X16775583Y-18194660D01*
X16719047Y-18218078D01*
X16646598Y-18232489D01*
X16574150Y-18246900D01*
X16426410Y-18246900D01*
X16353962Y-18232489D01*
X16281513Y-18218078D01*
X16224977Y-18194660D01*
X16145023Y-18161542D01*
X16022180Y-18079461D01*
X15917719Y-17975000D01*
X15835638Y-17852157D01*
X15779102Y-17715666D01*
X15750280Y-17570770D01*
X15750280Y-17423030D01*
X15779102Y-17278134D01*
X15835638Y-17141643D01*
X15917719Y-17018800D01*
X16022180Y-16914339D01*
X16145023Y-16832258D01*
X16224977Y-16799140D01*
X16281513Y-16775722D01*
X16353962Y-16761311D01*
X16426410Y-16746900D01*
X16574150Y-16746900D01*
X16646598Y-16761311D01*
X16646598Y-16761311D01*
G37*
G36*
X-1918600Y-18008020D02*
X-3760840Y-18008020D01*
X-3760840Y-17065780D01*
X-1918600Y-17065780D01*
X-1918600Y-18008020D01*
X-1918600Y-18008020D01*
G37*
G36*
X-12721640Y-17467860D02*
X-13719320Y-17467860D01*
X-13743706Y-17470262D01*
X-13767155Y-17477375D01*
X-13787370Y-17488180D01*
X-14786560Y-17488180D01*
X-14786560Y-16745940D01*
X-13788880Y-16745940D01*
X-13764494Y-16743538D01*
X-13741045Y-16736425D01*
X-13720830Y-16725620D01*
X-12721640Y-16725620D01*
X-12721640Y-17467860D01*
X-12721640Y-17467860D01*
G37*
G36*
X15633785Y-16028915D02*
X14969245Y-16693455D01*
X14304705Y-16028915D01*
X14969245Y-15364375D01*
X15633785Y-16028915D01*
X15633785Y-16028915D01*
G37*
G36*
X16693455Y-14969245D02*
X16028915Y-15633785D01*
X15364375Y-14969245D01*
X16028915Y-14304705D01*
X16693455Y-14969245D01*
X16693455Y-14969245D01*
G37*
G36*
X-13747320Y-14636660D02*
X-14487320Y-14636660D01*
X-14487320Y-13196660D01*
X-13747320Y-13196660D01*
X-13747320Y-14636660D01*
X-13747320Y-14636660D01*
G37*
G36*
X-1918600Y-14608020D02*
X-3760840Y-14608020D01*
X-3760840Y-13665780D01*
X-1918600Y-13665780D01*
X-1918600Y-14608020D01*
X-1918600Y-14608020D01*
G37*
G36*
X10546080Y-14417040D02*
X9489440Y-14417040D01*
X9489440Y-13360400D01*
X10546080Y-13360400D01*
X10546080Y-14417040D01*
X10546080Y-14417040D01*
G37*
G36*
X12143740Y-14150340D02*
X10858500Y-14150340D01*
X10858500Y-13373100D01*
X12143740Y-13373100D01*
X12143740Y-14150340D01*
X12143740Y-14150340D01*
G37*
G36*
X8514080Y-13528040D02*
X7457440Y-13528040D01*
X7457440Y-12471400D01*
X8514080Y-12471400D01*
X8514080Y-13528040D01*
X8514080Y-13528040D01*
G37*
G36*
X14526260Y-13141960D02*
X13749020Y-13141960D01*
X13749020Y-11856720D01*
X14526260Y-11856720D01*
X14526260Y-13141960D01*
X14526260Y-13141960D01*
G37*
G36*
X16050260Y-13141960D02*
X15273020Y-13141960D01*
X15273020Y-11856720D01*
X16050260Y-11856720D01*
X16050260Y-13141960D01*
X16050260Y-13141960D01*
G37*
G36*
X5434330Y-12103347D02*
X5436732Y-12127733D01*
X5443845Y-12151182D01*
X5455396Y-12172793D01*
X5470942Y-12191735D01*
X5489884Y-12207281D01*
X5511495Y-12218832D01*
X5534944Y-12225945D01*
X5559330Y-12228347D01*
X5583716Y-12225945D01*
X5607165Y-12218832D01*
X5628776Y-12207281D01*
X5655956Y-12182646D01*
X5729303Y-12093273D01*
X5816324Y-12021857D01*
X5816323Y-12021857D01*
X5816325Y-12021856D01*
X5862539Y-11997154D01*
X5915607Y-11968788D01*
X5951517Y-11957895D01*
X6023336Y-11936109D01*
X6065316Y-11931974D01*
X6107294Y-11927840D01*
X6562226Y-11927840D01*
X6604204Y-11931974D01*
X6646184Y-11936109D01*
X6718003Y-11957895D01*
X6753913Y-11968788D01*
X6806981Y-11997154D01*
X6853195Y-12021856D01*
X6940217Y-12093273D01*
X7011634Y-12180295D01*
X7036034Y-12225945D01*
X7064702Y-12279577D01*
X7064702Y-12279578D01*
X7097381Y-12387306D01*
X7108415Y-12499340D01*
X7097381Y-12611374D01*
X7075595Y-12683193D01*
X7064702Y-12719103D01*
X7036997Y-12770935D01*
X7011634Y-12818385D01*
X6940217Y-12905407D01*
X6853195Y-12976824D01*
X6806981Y-13001526D01*
X6753913Y-13029892D01*
X6718003Y-13040785D01*
X6646184Y-13062571D01*
X6604204Y-13066706D01*
X6562226Y-13070840D01*
X6107294Y-13070840D01*
X6065316Y-13066706D01*
X6023336Y-13062571D01*
X5951517Y-13040785D01*
X5915607Y-13029892D01*
X5862539Y-13001526D01*
X5816325Y-12976824D01*
X5729303Y-12905407D01*
X5672677Y-12836408D01*
X5655956Y-12816034D01*
X5638629Y-12798707D01*
X5618255Y-12785093D01*
X5595616Y-12775715D01*
X5571582Y-12770935D01*
X5547078Y-12770935D01*
X5523044Y-12775715D01*
X5500405Y-12785093D01*
X5480031Y-12798707D01*
X5462704Y-12816034D01*
X5449090Y-12836408D01*
X5439712Y-12859047D01*
X5434330Y-12895333D01*
X5434330Y-13070840D01*
X3892550Y-13070840D01*
X3892550Y-11927840D01*
X5434330Y-11927840D01*
X5434330Y-12103347D01*
X5434330Y-12103347D01*
G37*
G36*
X10546080Y-12639040D02*
X9489440Y-12639040D01*
X9489440Y-11582400D01*
X10546080Y-11582400D01*
X10546080Y-12639040D01*
X10546080Y-12639040D01*
G37*
G36*
X12143740Y-12626340D02*
X10858500Y-12626340D01*
X10858500Y-11849100D01*
X12143740Y-11849100D01*
X12143740Y-12626340D01*
X12143740Y-12626340D01*
G37*
G36*
X-14697320Y-12536660D02*
X-15437320Y-12536660D01*
X-15437320Y-11096660D01*
X-14697320Y-11096660D01*
X-14697320Y-12536660D01*
X-14697320Y-12536660D01*
G37*
G36*
X-12797320Y-12536660D02*
X-13537320Y-12536660D01*
X-13537320Y-11096660D01*
X-12797320Y-11096660D01*
X-12797320Y-12536660D01*
X-12797320Y-12536660D01*
G37*
G36*
X10546080Y-10916920D02*
X9489440Y-10916920D01*
X9489440Y-9860280D01*
X10546080Y-9860280D01*
X10546080Y-10916920D01*
X10546080Y-10916920D01*
G37*
G36*
X13642340Y-10650220D02*
X10858500Y-10650220D01*
X10858500Y-9872980D01*
X13642340Y-9872980D01*
X13642340Y-10650220D01*
X13642340Y-10650220D01*
G37*
G36*
X5434330Y-9103607D02*
X5436732Y-9127993D01*
X5443845Y-9151442D01*
X5455396Y-9173053D01*
X5470942Y-9191995D01*
X5489884Y-9207541D01*
X5511495Y-9219092D01*
X5534944Y-9226205D01*
X5559330Y-9228607D01*
X5583716Y-9226205D01*
X5607165Y-9219092D01*
X5628776Y-9207541D01*
X5655956Y-9182906D01*
X5729303Y-9093533D01*
X5816324Y-9022117D01*
X5816323Y-9022117D01*
X5816325Y-9022116D01*
X5862539Y-8997414D01*
X5915607Y-8969048D01*
X5951517Y-8958155D01*
X6023336Y-8936369D01*
X6065316Y-8932235D01*
X6107294Y-8928100D01*
X6562226Y-8928100D01*
X6604204Y-8932235D01*
X6646184Y-8936369D01*
X6718003Y-8958155D01*
X6753913Y-8969048D01*
X6806981Y-8997414D01*
X6853195Y-9022116D01*
X6940217Y-9093533D01*
X7011634Y-9180555D01*
X7036034Y-9226205D01*
X7064702Y-9279837D01*
X7064702Y-9279838D01*
X7097381Y-9387566D01*
X7108415Y-9499600D01*
X7097381Y-9611634D01*
X7075595Y-9683453D01*
X7064702Y-9719363D01*
X7036997Y-9771195D01*
X7011634Y-9818645D01*
X6940217Y-9905667D01*
X6853195Y-9977084D01*
X6806981Y-10001786D01*
X6753913Y-10030152D01*
X6718003Y-10041045D01*
X6646184Y-10062831D01*
X6604204Y-10066965D01*
X6562226Y-10071100D01*
X6107294Y-10071100D01*
X6065316Y-10066965D01*
X6023336Y-10062831D01*
X5951517Y-10041045D01*
X5915607Y-10030152D01*
X5862539Y-10001786D01*
X5816325Y-9977084D01*
X5729303Y-9905667D01*
X5721035Y-9895593D01*
X5655956Y-9816294D01*
X5638629Y-9798967D01*
X5618255Y-9785353D01*
X5595616Y-9775975D01*
X5571582Y-9771195D01*
X5547078Y-9771195D01*
X5523044Y-9775975D01*
X5500405Y-9785353D01*
X5480031Y-9798967D01*
X5462704Y-9816294D01*
X5449090Y-9836668D01*
X5439712Y-9859307D01*
X5434330Y-9895593D01*
X5434330Y-10071100D01*
X3892550Y-10071100D01*
X3892550Y-8928100D01*
X5434330Y-8928100D01*
X5434330Y-9103607D01*
X5434330Y-9103607D01*
G37*
G36*
X8514080Y-10027920D02*
X7457440Y-10027920D01*
X7457440Y-8971280D01*
X8514080Y-8971280D01*
X8514080Y-10027920D01*
X8514080Y-10027920D01*
G37*
G36*
X-17639080Y-9999220D02*
X-18581320Y-9999220D01*
X-18581320Y-9256980D01*
X-17639080Y-9256980D01*
X-17639080Y-9999220D01*
X-17639080Y-9999220D01*
G37*
G36*
X-16389400Y-9995180D02*
X-17331640Y-9995180D01*
X-17331640Y-9252940D01*
X-16389400Y-9252940D01*
X-16389400Y-9995180D01*
X-16389400Y-9995180D01*
G37*
G36*
X10546080Y-9138920D02*
X9489440Y-9138920D01*
X9489440Y-8082280D01*
X10546080Y-8082280D01*
X10546080Y-9138920D01*
X10546080Y-9138920D01*
G37*
G36*
X13642340Y-9126220D02*
X10858500Y-9126220D01*
X10858500Y-8348980D01*
X13642340Y-8348980D01*
X13642340Y-9126220D01*
X13642340Y-9126220D01*
G37*
G36*
X-17639080Y-8599220D02*
X-18581320Y-8599220D01*
X-18581320Y-7856980D01*
X-17639080Y-7856980D01*
X-17639080Y-8599220D01*
X-17639080Y-8599220D01*
G37*
G36*
X-16389400Y-8595180D02*
X-17331640Y-8595180D01*
X-17331640Y-7852940D01*
X-16389400Y-7852940D01*
X-16389400Y-8595180D01*
X-16389400Y-8595180D01*
G37*
G36*
X-1098600Y-8018020D02*
X-2040840Y-8018020D01*
X-2040840Y-7275780D01*
X-1098600Y-7275780D01*
X-1098600Y-8018020D01*
X-1098600Y-8018020D01*
G37*
G36*
X10546080Y-7416800D02*
X9489440Y-7416800D01*
X9489440Y-6360160D01*
X10546080Y-6360160D01*
X10546080Y-7416800D01*
X10546080Y-7416800D01*
G37*
G36*
X12143740Y-7150100D02*
X10858500Y-7150100D01*
X10858500Y-6372860D01*
X12143740Y-6372860D01*
X12143740Y-7150100D01*
X12143740Y-7150100D01*
G37*
G36*
X5434330Y-6103867D02*
X5436732Y-6128253D01*
X5443845Y-6151702D01*
X5455396Y-6173313D01*
X5470942Y-6192255D01*
X5489884Y-6207801D01*
X5511495Y-6219352D01*
X5534944Y-6226465D01*
X5559330Y-6228867D01*
X5583716Y-6226465D01*
X5607165Y-6219352D01*
X5628776Y-6207801D01*
X5655956Y-6183166D01*
X5729303Y-6093793D01*
X5816324Y-6022377D01*
X5816323Y-6022377D01*
X5816325Y-6022376D01*
X5862539Y-5997674D01*
X5915607Y-5969308D01*
X5951517Y-5958415D01*
X6023336Y-5936629D01*
X6065316Y-5932494D01*
X6107294Y-5928360D01*
X6562226Y-5928360D01*
X6604204Y-5932494D01*
X6646184Y-5936629D01*
X6718003Y-5958415D01*
X6753913Y-5969308D01*
X6806981Y-5997674D01*
X6853195Y-6022376D01*
X6940217Y-6093793D01*
X7011634Y-6180815D01*
X7036034Y-6226465D01*
X7064702Y-6280097D01*
X7064702Y-6280098D01*
X7097381Y-6387826D01*
X7108415Y-6499860D01*
X7097381Y-6611894D01*
X7075595Y-6683713D01*
X7064702Y-6719623D01*
X7036997Y-6771455D01*
X7011634Y-6818905D01*
X6940217Y-6905927D01*
X6853195Y-6977344D01*
X6806981Y-7002046D01*
X6753913Y-7030412D01*
X6718003Y-7041305D01*
X6646184Y-7063091D01*
X6604204Y-7067226D01*
X6562226Y-7071360D01*
X6107294Y-7071360D01*
X6065316Y-7067226D01*
X6023336Y-7063091D01*
X5951517Y-7041305D01*
X5915607Y-7030412D01*
X5862539Y-7002046D01*
X5816325Y-6977344D01*
X5729303Y-6905927D01*
X5672677Y-6836928D01*
X5655956Y-6816554D01*
X5638629Y-6799227D01*
X5618255Y-6785613D01*
X5595616Y-6776235D01*
X5571582Y-6771455D01*
X5547078Y-6771455D01*
X5523044Y-6776235D01*
X5500405Y-6785613D01*
X5480031Y-6799227D01*
X5462704Y-6816554D01*
X5449090Y-6836928D01*
X5439712Y-6859567D01*
X5434330Y-6895853D01*
X5434330Y-7071360D01*
X3892550Y-7071360D01*
X3892550Y-5928360D01*
X5434330Y-5928360D01*
X5434330Y-6103867D01*
X5434330Y-6103867D01*
G37*
G36*
X-1098600Y-6618020D02*
X-2040840Y-6618020D01*
X-2040840Y-5875780D01*
X-1098600Y-5875780D01*
X-1098600Y-6618020D01*
X-1098600Y-6618020D01*
G37*
G36*
X8514080Y-6527800D02*
X7457440Y-6527800D01*
X7457440Y-5471160D01*
X8514080Y-5471160D01*
X8514080Y-6527800D01*
X8514080Y-6527800D01*
G37*
G36*
X10546080Y-5638800D02*
X9489440Y-5638800D01*
X9489440Y-4582160D01*
X10546080Y-4582160D01*
X10546080Y-5638800D01*
X10546080Y-5638800D01*
G37*
G36*
X13642340Y-3649980D02*
X13594657Y-3649980D01*
X13570271Y-3652382D01*
X13546822Y-3659495D01*
X13525211Y-3671046D01*
X13506269Y-3686592D01*
X13490723Y-3705534D01*
X13479172Y-3727145D01*
X13472059Y-3750594D01*
X13469657Y-3774980D01*
X13472059Y-3799366D01*
X13479172Y-3822815D01*
X13490723Y-3844426D01*
X13506269Y-3863368D01*
X13515358Y-3871606D01*
X13577769Y-3922825D01*
X13622723Y-3977603D01*
X13661568Y-4024935D01*
X13716712Y-4128101D01*
X13723833Y-4141424D01*
X13762178Y-4267830D01*
X13775124Y-4399280D01*
X13762178Y-4530730D01*
X13762177Y-4530733D01*
X13723834Y-4657134D01*
X13661568Y-4773625D01*
X13645416Y-4793306D01*
X13577772Y-4875732D01*
X13507389Y-4933492D01*
X13475665Y-4959528D01*
X13359174Y-5021794D01*
X13256302Y-5053000D01*
X13232770Y-5060138D01*
X13134261Y-5069840D01*
X12667059Y-5069840D01*
X12568550Y-5060138D01*
X12545018Y-5053000D01*
X12442146Y-5021794D01*
X12327662Y-4960601D01*
X12305026Y-4951225D01*
X12280993Y-4946444D01*
X12256489Y-4946444D01*
X12232455Y-4951224D01*
X12209816Y-4960602D01*
X12189441Y-4974215D01*
X12172114Y-4991542D01*
X12158500Y-5011917D01*
X12149123Y-5034556D01*
X12144342Y-5058589D01*
X12143740Y-5070842D01*
X12143740Y-5626100D01*
X10858500Y-5626100D01*
X10858500Y-4848860D01*
X11971416Y-4848860D01*
X11995802Y-4846458D01*
X12019251Y-4839345D01*
X12040862Y-4827794D01*
X12059804Y-4812248D01*
X12075350Y-4793306D01*
X12086901Y-4771695D01*
X12094014Y-4748246D01*
X12096416Y-4723860D01*
X12094014Y-4699474D01*
X12086901Y-4676025D01*
X12081655Y-4664933D01*
X12077486Y-4657135D01*
X12039142Y-4530730D01*
X12026196Y-4399280D01*
X12039142Y-4267830D01*
X12077487Y-4141424D01*
X12084608Y-4128101D01*
X12139752Y-4024935D01*
X12178597Y-3977603D01*
X12223551Y-3922825D01*
X12285962Y-3871606D01*
X12303289Y-3854279D01*
X12316903Y-3833905D01*
X12326280Y-3811266D01*
X12331061Y-3787232D01*
X12331061Y-3762728D01*
X12326281Y-3738695D01*
X12316903Y-3716056D01*
X12303289Y-3695681D01*
X12285962Y-3678354D01*
X12265588Y-3664740D01*
X12242949Y-3655363D01*
X12218915Y-3650582D01*
X12206663Y-3649980D01*
X10858500Y-3649980D01*
X10858500Y-2872740D01*
X13642340Y-2872740D01*
X13642340Y-3649980D01*
X13642340Y-3649980D01*
G37*
G36*
X-5924160Y-4493860D02*
X-6664160Y-4493860D01*
X-6664160Y-3053860D01*
X-5924160Y-3053860D01*
X-5924160Y-4493860D01*
X-5924160Y-4493860D01*
G37*
G36*
X5434330Y-3104127D02*
X5436732Y-3128513D01*
X5443845Y-3151962D01*
X5455396Y-3173573D01*
X5470942Y-3192515D01*
X5489884Y-3208061D01*
X5511495Y-3219612D01*
X5534944Y-3226725D01*
X5559330Y-3229127D01*
X5583716Y-3226725D01*
X5607165Y-3219612D01*
X5628776Y-3208061D01*
X5655956Y-3183426D01*
X5729303Y-3094053D01*
X5816325Y-3022636D01*
X5862539Y-2997934D01*
X5915607Y-2969568D01*
X5951517Y-2958675D01*
X6023336Y-2936889D01*
X6065316Y-2932755D01*
X6107294Y-2928620D01*
X6562226Y-2928620D01*
X6604204Y-2932754D01*
X6646184Y-2936889D01*
X6718003Y-2958675D01*
X6753913Y-2969568D01*
X6806981Y-2997934D01*
X6853195Y-3022636D01*
X6940217Y-3094053D01*
X7011634Y-3181075D01*
X7036034Y-3226725D01*
X7064702Y-3280357D01*
X7064702Y-3280358D01*
X7097381Y-3388086D01*
X7108415Y-3500120D01*
X7097381Y-3612154D01*
X7083020Y-3659495D01*
X7064702Y-3719883D01*
X7048286Y-3750594D01*
X7011634Y-3819165D01*
X6940217Y-3906187D01*
X6853195Y-3977604D01*
X6806981Y-4002306D01*
X6753913Y-4030672D01*
X6718003Y-4041565D01*
X6646184Y-4063351D01*
X6604204Y-4067486D01*
X6562226Y-4071620D01*
X6107294Y-4071620D01*
X6065316Y-4067486D01*
X6023336Y-4063351D01*
X5951517Y-4041565D01*
X5915607Y-4030672D01*
X5862539Y-4002306D01*
X5816325Y-3977604D01*
X5729303Y-3906187D01*
X5672677Y-3837188D01*
X5655956Y-3816814D01*
X5638629Y-3799487D01*
X5618255Y-3785873D01*
X5595616Y-3776495D01*
X5571582Y-3771715D01*
X5547078Y-3771715D01*
X5523044Y-3776495D01*
X5500405Y-3785873D01*
X5480031Y-3799487D01*
X5462704Y-3816814D01*
X5449090Y-3837188D01*
X5439712Y-3859827D01*
X5434330Y-3896113D01*
X5434330Y-4071620D01*
X3892550Y-4071620D01*
X3892550Y-2928620D01*
X5434330Y-2928620D01*
X5434330Y-3104127D01*
X5434330Y-3104127D01*
G37*
G36*
X10546080Y-3916680D02*
X9489440Y-3916680D01*
X9489440Y-2860040D01*
X10546080Y-2860040D01*
X10546080Y-3916680D01*
X10546080Y-3916680D01*
G37*
G36*
X-12640360Y-3497860D02*
X-13582600Y-3497860D01*
X-13582600Y-2755620D01*
X-12640360Y-2755620D01*
X-12640360Y-3497860D01*
X-12640360Y-3497860D01*
G37*
G36*
X2771140Y-3465830D02*
X228600Y-3465830D01*
X228600Y-2924810D01*
X2771140Y-2924810D01*
X2771140Y-3465830D01*
X2771140Y-3465830D01*
G37*
G36*
X8514080Y-3027680D02*
X7457440Y-3027680D01*
X7457440Y-1971040D01*
X8514080Y-1971040D01*
X8514080Y-3027680D01*
X8514080Y-3027680D01*
G37*
G36*
X2771140Y-2566670D02*
X228600Y-2566670D01*
X228600Y-2025650D01*
X2771140Y-2025650D01*
X2771140Y-2566670D01*
X2771140Y-2566670D01*
G37*
G36*
X-6874160Y-2393860D02*
X-7614160Y-2393860D01*
X-7614160Y-953860D01*
X-6874160Y-953860D01*
X-6874160Y-2393860D01*
X-6874160Y-2393860D01*
G37*
G36*
X-4974160Y-2393860D02*
X-5714160Y-2393860D01*
X-5714160Y-953860D01*
X-4974160Y-953860D01*
X-4974160Y-2393860D01*
X-4974160Y-2393860D01*
G37*
G36*
X7043420Y-2151380D02*
X4257040Y-2151380D01*
X4257040Y-1374140D01*
X7043420Y-1374140D01*
X7043420Y-2151380D01*
X7043420Y-2151380D01*
G37*
G36*
X10546080Y-2138680D02*
X9489440Y-2138680D01*
X9489440Y-1082040D01*
X10546080Y-1082040D01*
X10546080Y-2138680D01*
X10546080Y-2138680D01*
G37*
G36*
X11625580Y-1223740D02*
X11627982Y-1248126D01*
X11635095Y-1271575D01*
X11646646Y-1293186D01*
X11662192Y-1312128D01*
X11681134Y-1327674D01*
X11702745Y-1339225D01*
X11726194Y-1346338D01*
X11750580Y-1348740D01*
X12247340Y-1348740D01*
X12271726Y-1346338D01*
X12295175Y-1339225D01*
X12316786Y-1327674D01*
X12335728Y-1312128D01*
X12351274Y-1293186D01*
X12362825Y-1271575D01*
X12369938Y-1248126D01*
X12372340Y-1223740D01*
X12372340Y142240D01*
X13149580Y142240D01*
X13149580Y-1223740D01*
X13151982Y-1248126D01*
X13159095Y-1271575D01*
X13170646Y-1293186D01*
X13186192Y-1312128D01*
X13205134Y-1327674D01*
X13226745Y-1339225D01*
X13250194Y-1346338D01*
X13274580Y-1348740D01*
X13642340Y-1348740D01*
X13642340Y-2125980D01*
X10858500Y-2125980D01*
X10858500Y-1268000D01*
X10856098Y-1243614D01*
X10848985Y-1220165D01*
X10848340Y-1218958D01*
X10848340Y142240D01*
X11625580Y142240D01*
X11625580Y-1223740D01*
X11625580Y-1223740D01*
G37*
G36*
X-12640360Y-2097860D02*
X-13582600Y-2097860D01*
X-13582600Y-1355620D01*
X-12640360Y-1355620D01*
X-12640360Y-2097860D01*
X-12640360Y-2097860D01*
G37*
G36*
X7043420Y-627380D02*
X4257040Y-627380D01*
X4257040Y149860D01*
X7043420Y149860D01*
X7043420Y-627380D01*
X7043420Y-627380D01*
G37*
G36*
X-5145760Y-554940D02*
X-5888000Y-554940D01*
X-5888000Y387300D01*
X-5145760Y387300D01*
X-5145760Y-554940D01*
X-5145760Y-554940D01*
G37*
G36*
X-6545760Y-554940D02*
X-7288000Y-554940D01*
X-7288000Y387300D01*
X-6545760Y387300D01*
X-6545760Y-554940D01*
X-6545760Y-554940D01*
G37*
G36*
X9786860Y3968460D02*
X9823727Y3957276D01*
X9857704Y3939115D01*
X9887485Y3914675D01*
X9911925Y3884894D01*
X9913950Y3881106D01*
X9927066Y3856568D01*
X9930086Y3850917D01*
X9941270Y3814050D01*
X9944100Y3785315D01*
X9944100Y3214925D01*
X9941270Y3186190D01*
X9930086Y3149324D01*
X9930085Y3149321D01*
X9906612Y3105406D01*
X9905419Y3103619D01*
X9896049Y3080977D01*
X9891276Y3056942D01*
X9891284Y3032438D01*
X9896072Y3008406D01*
X9905457Y2985770D01*
X9919077Y2965400D01*
X9936410Y2948078D01*
X9942857Y2943774D01*
X9956582Y2927050D01*
X9975524Y2911504D01*
X9997135Y2899953D01*
X10020584Y2892840D01*
X10044970Y2890438D01*
X10069356Y2892840D01*
X10092805Y2899953D01*
X10104237Y2906802D01*
X10104729Y2905882D01*
X10149561Y2929845D01*
X10149563Y2929846D01*
X10186430Y2941030D01*
X10207981Y2943152D01*
X10215164Y2943860D01*
X10785556Y2943860D01*
X10792739Y2943152D01*
X10814290Y2941030D01*
X10851157Y2929846D01*
X10885134Y2911685D01*
X10914915Y2887245D01*
X10939355Y2857464D01*
X10957516Y2823487D01*
X10968700Y2786620D01*
X10972476Y2748280D01*
X10968700Y2709940D01*
X10957516Y2673073D01*
X10939355Y2639096D01*
X10914915Y2609315D01*
X10914913Y2609313D01*
X10897127Y2594717D01*
X10879799Y2577390D01*
X10866185Y2557016D01*
X10856808Y2534377D01*
X10852027Y2510343D01*
X10852027Y2485839D01*
X10856807Y2461806D01*
X10866184Y2439167D01*
X10879798Y2418792D01*
X10897127Y2401463D01*
X10914912Y2386868D01*
X10914915Y2386865D01*
X10939355Y2357084D01*
X10957516Y2323107D01*
X10968700Y2286240D01*
X10972476Y2247900D01*
X10968700Y2209560D01*
X10957516Y2172693D01*
X10939355Y2138716D01*
X10914915Y2108935D01*
X10914913Y2108934D01*
X10914912Y2108932D01*
X10898674Y2095606D01*
X10881347Y2078279D01*
X10867733Y2057905D01*
X10858355Y2035266D01*
X10853575Y2011232D01*
X10853575Y1986728D01*
X10858355Y1962695D01*
X10867733Y1940056D01*
X10881347Y1919681D01*
X10898674Y1902354D01*
X10914912Y1889028D01*
X10914913Y1889026D01*
X10914915Y1889025D01*
X10939355Y1859244D01*
X10957516Y1825267D01*
X10968700Y1788400D01*
X10972476Y1750060D01*
X10968700Y1711720D01*
X10957516Y1674853D01*
X10939355Y1640876D01*
X10914915Y1611095D01*
X10914913Y1611094D01*
X10914912Y1611092D01*
X10895579Y1595226D01*
X10878252Y1577899D01*
X10864638Y1557525D01*
X10855260Y1534886D01*
X10850480Y1510852D01*
X10850480Y1486348D01*
X10855260Y1462315D01*
X10864638Y1439676D01*
X10878252Y1419301D01*
X10895579Y1401974D01*
X10914912Y1386108D01*
X10914915Y1386105D01*
X10939355Y1356324D01*
X10957516Y1322347D01*
X10968700Y1285480D01*
X10972476Y1247140D01*
X10968700Y1208800D01*
X10957516Y1171933D01*
X10939355Y1137956D01*
X10914915Y1108175D01*
X10885134Y1083735D01*
X10851157Y1065574D01*
X10814290Y1054390D01*
X10792739Y1052268D01*
X10785556Y1051560D01*
X10215164Y1051560D01*
X10207981Y1052268D01*
X10186430Y1054390D01*
X10149563Y1065574D01*
X10128967Y1076583D01*
X10105646Y1089048D01*
X10103859Y1090241D01*
X10081217Y1099611D01*
X10057182Y1104384D01*
X10032678Y1104376D01*
X10008646Y1099588D01*
X9986010Y1090203D01*
X9965640Y1076583D01*
X9948318Y1059250D01*
X9947310Y1057740D01*
X9946232Y1057164D01*
X9927290Y1041618D01*
X9911744Y1022676D01*
X9900193Y1001065D01*
X9893080Y977616D01*
X9890678Y953230D01*
X9893080Y928844D01*
X9900193Y905395D01*
X9907042Y893963D01*
X9906122Y893471D01*
X9911925Y882614D01*
X9930086Y848637D01*
X9941270Y811770D01*
X9944100Y783035D01*
X9944100Y212645D01*
X9941270Y183910D01*
X9930086Y147043D01*
X9930085Y147041D01*
X9926239Y139846D01*
X9911925Y113066D01*
X9887485Y83285D01*
X9857704Y58845D01*
X9823727Y40684D01*
X9786860Y29500D01*
X9748520Y25724D01*
X9710181Y29500D01*
X9673314Y40684D01*
X9639337Y58845D01*
X9609556Y83285D01*
X9609554Y83288D01*
X9594958Y101073D01*
X9577631Y118401D01*
X9557257Y132015D01*
X9534618Y141392D01*
X9510584Y146173D01*
X9486080Y146173D01*
X9462047Y141393D01*
X9439408Y132016D01*
X9419033Y118402D01*
X9401706Y101075D01*
X9387109Y83289D01*
X9387105Y83285D01*
X9357324Y58845D01*
X9323347Y40684D01*
X9286480Y29500D01*
X9248140Y25724D01*
X9209801Y29500D01*
X9172934Y40684D01*
X9138957Y58845D01*
X9109176Y83285D01*
X9109174Y83288D01*
X9094578Y101073D01*
X9077251Y118401D01*
X9056877Y132015D01*
X9034238Y141392D01*
X9010204Y146173D01*
X8985700Y146173D01*
X8961667Y141393D01*
X8939028Y132016D01*
X8918653Y118402D01*
X8901326Y101075D01*
X8886729Y83289D01*
X8886725Y83285D01*
X8856944Y58845D01*
X8822967Y40684D01*
X8786100Y29500D01*
X8747760Y25724D01*
X8709421Y29500D01*
X8672554Y40684D01*
X8638577Y58845D01*
X8608796Y83285D01*
X8608794Y83288D01*
X8595469Y99525D01*
X8578142Y116853D01*
X8557768Y130467D01*
X8535129Y139845D01*
X8511096Y144626D01*
X8486591Y144626D01*
X8462558Y139846D01*
X8439919Y130469D01*
X8419544Y116856D01*
X8402215Y99527D01*
X8388888Y83288D01*
X8388886Y83287D01*
X8388885Y83285D01*
X8359104Y58845D01*
X8325127Y40684D01*
X8288260Y29500D01*
X8249920Y25724D01*
X8211581Y29500D01*
X8174714Y40684D01*
X8140737Y58845D01*
X8110956Y83285D01*
X8086516Y113066D01*
X8072202Y139846D01*
X8068356Y147041D01*
X8068355Y147043D01*
X8057171Y183910D01*
X8054341Y212645D01*
X8054340Y783034D01*
X8057170Y811769D01*
X8068354Y848636D01*
X8086515Y882613D01*
X8086516Y882614D01*
X8091820Y892538D01*
X8093014Y894326D01*
X8102387Y916967D01*
X8107163Y941002D01*
X8107159Y965506D01*
X8102374Y989538D01*
X8092992Y1012176D01*
X8079374Y1032548D01*
X8062044Y1049871D01*
X8050970Y1057267D01*
X8041858Y1068370D01*
X8022916Y1083916D01*
X8001305Y1095467D01*
X7977856Y1102580D01*
X7953470Y1104982D01*
X7929084Y1102580D01*
X7905635Y1095467D01*
X7894203Y1088618D01*
X7893711Y1089538D01*
X7854108Y1068370D01*
X7848877Y1065574D01*
X7812010Y1054390D01*
X7790459Y1052268D01*
X7783276Y1051560D01*
X7212884Y1051560D01*
X7205701Y1052268D01*
X7184150Y1054390D01*
X7147283Y1065574D01*
X7113306Y1083735D01*
X7083525Y1108175D01*
X7059085Y1137956D01*
X7040924Y1171933D01*
X7029740Y1208800D01*
X7025964Y1247140D01*
X7029740Y1285480D01*
X7040924Y1322347D01*
X7059085Y1356324D01*
X7083525Y1386105D01*
X7083529Y1386108D01*
X7101313Y1400703D01*
X7118641Y1418030D01*
X7132255Y1438404D01*
X7141632Y1461043D01*
X7146413Y1485077D01*
X7146413Y1509581D01*
X7141633Y1533614D01*
X7132256Y1556253D01*
X7118642Y1576628D01*
X7101313Y1593957D01*
X7083527Y1608553D01*
X7081441Y1611095D01*
X7059085Y1638336D01*
X7040924Y1672313D01*
X7029740Y1709180D01*
X7025964Y1747520D01*
X7029740Y1785860D01*
X7040924Y1822727D01*
X7059085Y1856704D01*
X7083525Y1886485D01*
X7086624Y1889028D01*
X7101313Y1901083D01*
X7118641Y1918410D01*
X7132255Y1938784D01*
X7141632Y1961423D01*
X7146413Y1985457D01*
X7146413Y2009961D01*
X7141633Y2033994D01*
X7132256Y2056633D01*
X7118642Y2077008D01*
X7101313Y2094337D01*
X7083527Y2108933D01*
X7083525Y2108935D01*
X7059085Y2138716D01*
X7040924Y2172693D01*
X7029740Y2209560D01*
X7025964Y2247900D01*
X7029740Y2286240D01*
X7040924Y2323107D01*
X7059085Y2357084D01*
X7083525Y2386865D01*
X7083528Y2386868D01*
X7099766Y2400194D01*
X7117093Y2417521D01*
X7130707Y2437895D01*
X7140085Y2460534D01*
X7144865Y2484568D01*
X7144865Y2509072D01*
X7140085Y2533105D01*
X7130707Y2555744D01*
X7117093Y2576119D01*
X7099766Y2593446D01*
X7083528Y2606772D01*
X7083527Y2606774D01*
X7083525Y2606775D01*
X7059085Y2636556D01*
X7040924Y2670533D01*
X7029740Y2707400D01*
X7025964Y2745740D01*
X7029740Y2784080D01*
X7040924Y2820947D01*
X7059085Y2854924D01*
X7083525Y2884705D01*
X7113306Y2909145D01*
X7147283Y2927306D01*
X7184150Y2938490D01*
X7209940Y2941030D01*
X7212884Y2941320D01*
X7783276Y2941320D01*
X7786220Y2941030D01*
X7812010Y2938490D01*
X7848877Y2927306D01*
X7848879Y2927305D01*
X7892794Y2903832D01*
X7894581Y2902639D01*
X7917223Y2893269D01*
X7941258Y2888496D01*
X7965762Y2888504D01*
X7989794Y2893292D01*
X8012430Y2902677D01*
X8032800Y2916297D01*
X8050122Y2933630D01*
X8058177Y2945694D01*
X8071151Y2956342D01*
X8086697Y2975284D01*
X8098248Y2996895D01*
X8105361Y3020344D01*
X8107763Y3044730D01*
X8105361Y3069116D01*
X8098248Y3092565D01*
X8091397Y3103998D01*
X8092318Y3104490D01*
X8068355Y3149322D01*
X8068354Y3149324D01*
X8057170Y3186191D01*
X8054340Y3214926D01*
X8054341Y3785315D01*
X8057171Y3814050D01*
X8068355Y3850917D01*
X8071376Y3856568D01*
X8084491Y3881106D01*
X8086516Y3884894D01*
X8110956Y3914675D01*
X8140737Y3939115D01*
X8174714Y3957276D01*
X8211581Y3968460D01*
X8249920Y3972236D01*
X8288260Y3968460D01*
X8325127Y3957276D01*
X8359104Y3939115D01*
X8388885Y3914675D01*
X8388888Y3914672D01*
X8402215Y3898433D01*
X8419542Y3881105D01*
X8439917Y3867492D01*
X8462556Y3858114D01*
X8486589Y3853334D01*
X8511094Y3853334D01*
X8535127Y3858115D01*
X8557766Y3867492D01*
X8578140Y3881106D01*
X8595469Y3898435D01*
X8608795Y3914674D01*
X8613875Y3918843D01*
X8638577Y3939115D01*
X8672554Y3957276D01*
X8709421Y3968460D01*
X8747760Y3972236D01*
X8786100Y3968460D01*
X8822967Y3957276D01*
X8856944Y3939115D01*
X8886725Y3914675D01*
X8886729Y3914671D01*
X8901326Y3896885D01*
X8918653Y3879558D01*
X8939028Y3865944D01*
X8961667Y3856567D01*
X8985700Y3851787D01*
X9010205Y3851787D01*
X9034238Y3856568D01*
X9056877Y3865946D01*
X9077251Y3879560D01*
X9094578Y3896887D01*
X9109174Y3914673D01*
X9114255Y3918843D01*
X9138957Y3939115D01*
X9172934Y3957276D01*
X9209801Y3968460D01*
X9248140Y3972236D01*
X9286480Y3968460D01*
X9323347Y3957276D01*
X9357324Y3939115D01*
X9387105Y3914675D01*
X9387109Y3914671D01*
X9401706Y3896885D01*
X9419033Y3879558D01*
X9439408Y3865944D01*
X9462047Y3856567D01*
X9486080Y3851787D01*
X9510585Y3851787D01*
X9534618Y3856568D01*
X9557257Y3865946D01*
X9577631Y3879560D01*
X9594958Y3896887D01*
X9609554Y3914673D01*
X9614635Y3918843D01*
X9639337Y3939115D01*
X9673314Y3957276D01*
X9710181Y3968460D01*
X9748520Y3972236D01*
X9786860Y3968460D01*
X9786860Y3968460D01*
G37*
G36*
X5750560Y756920D02*
X4973320Y756920D01*
X4973320Y3543300D01*
X5750560Y3543300D01*
X5750560Y756920D01*
X5750560Y756920D01*
G37*
G36*
X4226560Y756920D02*
X3449320Y756920D01*
X3449320Y3543300D01*
X4226560Y3543300D01*
X4226560Y756920D01*
X4226560Y756920D01*
G37*
G36*
X12831449Y4514038D02*
X12831452Y4514037D01*
X12957853Y4475694D01*
X12957855Y4475693D01*
X13074346Y4413427D01*
X13176450Y4329634D01*
X13229744Y4264694D01*
X13260248Y4227525D01*
X13322514Y4111034D01*
X13332007Y4079740D01*
X13360858Y3984630D01*
X13370560Y3886121D01*
X13370560Y3418920D01*
X13360858Y3320410D01*
X13360857Y3320407D01*
X13322514Y3194006D01*
X13260248Y3077515D01*
X13246797Y3061125D01*
X13176452Y2975408D01*
X13125544Y2933630D01*
X13074345Y2891612D01*
X13030239Y2868037D01*
X13013445Y2859060D01*
X12993070Y2845446D01*
X12975743Y2828119D01*
X12962129Y2807744D01*
X12952752Y2785105D01*
X12947972Y2761071D01*
X12947972Y2736567D01*
X12952753Y2712534D01*
X12962130Y2689895D01*
X12975744Y2669520D01*
X12993071Y2652193D01*
X13013446Y2638579D01*
X13036085Y2629202D01*
X13072370Y2623820D01*
X13370560Y2623820D01*
X13370560Y881380D01*
X12029440Y881380D01*
X12029440Y2623820D01*
X12327631Y2623820D01*
X12352017Y2626222D01*
X12375466Y2633335D01*
X12397077Y2644886D01*
X12416019Y2660432D01*
X12431565Y2679374D01*
X12443116Y2700985D01*
X12450229Y2724434D01*
X12452631Y2748820D01*
X12450229Y2773206D01*
X12443116Y2796655D01*
X12431565Y2818266D01*
X12416019Y2837208D01*
X12386556Y2859060D01*
X12369762Y2868037D01*
X12325656Y2891612D01*
X12274457Y2933630D01*
X12223546Y2975411D01*
X12139753Y3077513D01*
X12077487Y3194004D01*
X12077323Y3194546D01*
X12039143Y3320407D01*
X12039142Y3320410D01*
X12029440Y3418919D01*
X12029440Y3886120D01*
X12039142Y3984629D01*
X12046280Y4008161D01*
X12077486Y4111033D01*
X12139752Y4227524D01*
X12139753Y4227526D01*
X12223546Y4329630D01*
X12300128Y4392478D01*
X12325655Y4413428D01*
X12442146Y4475694D01*
X12568547Y4514037D01*
X12568550Y4514038D01*
X12700000Y4526984D01*
X12831449Y4514038D01*
X12831449Y4514038D01*
G37*
G36*
X-14046234Y3321945D02*
X-13998714Y3302262D01*
X-13955943Y3273683D01*
X-13919577Y3237317D01*
X-13890998Y3194546D01*
X-13872267Y3149324D01*
X-13871315Y3147026D01*
X-13865013Y3115347D01*
X-13861280Y3096577D01*
X-13861280Y3045143D01*
X-13871315Y2994694D01*
X-13890998Y2947174D01*
X-13919577Y2904403D01*
X-13955943Y2868037D01*
X-13998714Y2839458D01*
X-14046234Y2819775D01*
X-14096682Y2809740D01*
X-14148118Y2809740D01*
X-14198566Y2819775D01*
X-14246086Y2839458D01*
X-14288857Y2868037D01*
X-14325223Y2904403D01*
X-14353802Y2947174D01*
X-14373485Y2994694D01*
X-14383520Y3045143D01*
X-14383520Y3096577D01*
X-14379786Y3115347D01*
X-14373485Y3147026D01*
X-14372533Y3149324D01*
X-14353802Y3194546D01*
X-14325223Y3237317D01*
X-14288857Y3273683D01*
X-14246086Y3302262D01*
X-14198566Y3321945D01*
X-14148118Y3331980D01*
X-14096682Y3331980D01*
X-14046234Y3321945D01*
X-14046234Y3321945D01*
G37*
G36*
X-15316234Y3321945D02*
X-15268714Y3302262D01*
X-15225943Y3273683D01*
X-15189577Y3237317D01*
X-15160998Y3194546D01*
X-15142267Y3149324D01*
X-15141315Y3147026D01*
X-15135013Y3115347D01*
X-15131280Y3096577D01*
X-15131280Y3045143D01*
X-15141315Y2994694D01*
X-15160998Y2947174D01*
X-15189577Y2904403D01*
X-15225943Y2868037D01*
X-15268714Y2839458D01*
X-15316234Y2819775D01*
X-15366682Y2809740D01*
X-15418118Y2809740D01*
X-15468566Y2819775D01*
X-15516086Y2839458D01*
X-15558857Y2868037D01*
X-15595223Y2904403D01*
X-15623802Y2947174D01*
X-15643485Y2994694D01*
X-15653520Y3045143D01*
X-15653520Y3096577D01*
X-15649786Y3115347D01*
X-15643485Y3147026D01*
X-15642533Y3149324D01*
X-15623802Y3194546D01*
X-15595223Y3237317D01*
X-15558857Y3273683D01*
X-15516086Y3302262D01*
X-15468566Y3321945D01*
X-15418118Y3331980D01*
X-15366682Y3331980D01*
X-15316234Y3321945D01*
X-15316234Y3321945D01*
G37*
G36*
X-14676549Y3972236D02*
X-14650754Y3967105D01*
X-14603234Y3947422D01*
X-14560463Y3918843D01*
X-14524097Y3882477D01*
X-14495518Y3839706D01*
X-14475835Y3792186D01*
X-14465800Y3741737D01*
X-14465800Y3690303D01*
X-14475835Y3639854D01*
X-14495518Y3592334D01*
X-14524097Y3549563D01*
X-14560463Y3513197D01*
X-14603234Y3484618D01*
X-14650754Y3464935D01*
X-14701202Y3454900D01*
X-14752638Y3454900D01*
X-14803086Y3464935D01*
X-14850606Y3484618D01*
X-14893377Y3513197D01*
X-14929743Y3549563D01*
X-14958322Y3592334D01*
X-14978005Y3639854D01*
X-14988040Y3690303D01*
X-14988040Y3741737D01*
X-14978005Y3792186D01*
X-14958322Y3839706D01*
X-14929743Y3882477D01*
X-14893377Y3918843D01*
X-14850606Y3947422D01*
X-14803086Y3967105D01*
X-14777291Y3972236D01*
X-14752638Y3977140D01*
X-14701202Y3977140D01*
X-14676549Y3972236D01*
X-14676549Y3972236D01*
G37*
G36*
X-14046234Y4591945D02*
X-13998714Y4572262D01*
X-13955943Y4543683D01*
X-13919577Y4507317D01*
X-13890998Y4464546D01*
X-13871315Y4417026D01*
X-13861280Y4366577D01*
X-13861280Y4315143D01*
X-13871315Y4264694D01*
X-13890998Y4217174D01*
X-13919577Y4174403D01*
X-13955943Y4138037D01*
X-13998714Y4109458D01*
X-14046234Y4089775D01*
X-14096682Y4079740D01*
X-14148118Y4079740D01*
X-14198566Y4089775D01*
X-14246086Y4109458D01*
X-14288857Y4138037D01*
X-14325223Y4174403D01*
X-14353802Y4217174D01*
X-14373485Y4264694D01*
X-14383520Y4315143D01*
X-14383520Y4366577D01*
X-14373485Y4417026D01*
X-14353802Y4464546D01*
X-14325223Y4507317D01*
X-14288857Y4543683D01*
X-14246086Y4572262D01*
X-14198566Y4591945D01*
X-14148118Y4601980D01*
X-14096682Y4601980D01*
X-14046234Y4591945D01*
X-14046234Y4591945D01*
G37*
G36*
X-15316234Y4591945D02*
X-15268714Y4572262D01*
X-15225943Y4543683D01*
X-15189577Y4507317D01*
X-15160998Y4464546D01*
X-15141315Y4417026D01*
X-15131280Y4366577D01*
X-15131280Y4315143D01*
X-15141315Y4264694D01*
X-15160998Y4217174D01*
X-15189577Y4174403D01*
X-15225943Y4138037D01*
X-15268714Y4109458D01*
X-15316234Y4089775D01*
X-15366682Y4079740D01*
X-15418118Y4079740D01*
X-15468566Y4089775D01*
X-15516086Y4109458D01*
X-15558857Y4138037D01*
X-15595223Y4174403D01*
X-15623802Y4217174D01*
X-15643485Y4264694D01*
X-15653520Y4315143D01*
X-15653520Y4366577D01*
X-15643485Y4417026D01*
X-15623802Y4464546D01*
X-15595223Y4507317D01*
X-15558857Y4543683D01*
X-15516086Y4572262D01*
X-15468566Y4591945D01*
X-15418118Y4601980D01*
X-15366682Y4601980D01*
X-15316234Y4591945D01*
X-15316234Y4591945D01*
G37*
G36*
X10642600Y4348480D02*
X9357360Y4348480D01*
X9357360Y5125720D01*
X10642600Y5125720D01*
X10642600Y4348480D01*
X10642600Y4348480D01*
G37*
G36*
X5227320Y4757420D02*
X4450080Y4757420D01*
X4450080Y6042660D01*
X5227320Y6042660D01*
X5227320Y4757420D01*
X5227320Y4757420D01*
G37*
G36*
X6751320Y4757420D02*
X5974080Y4757420D01*
X5974080Y6042660D01*
X6751320Y6042660D01*
X6751320Y4757420D01*
X6751320Y4757420D01*
G37*
G36*
X14541500Y5425440D02*
X13398500Y5425440D01*
X13398500Y8173720D01*
X14541500Y8173720D01*
X14541500Y5425440D01*
X14541500Y5425440D01*
G37*
G36*
X12001500Y5425440D02*
X10858500Y5425440D01*
X10858500Y5747480D01*
X10856098Y5771866D01*
X10848985Y5795315D01*
X10837434Y5816926D01*
X10821888Y5835868D01*
X10802946Y5851414D01*
X10781335Y5862965D01*
X10757886Y5870078D01*
X10733500Y5872480D01*
X9357360Y5872480D01*
X9357360Y6649720D01*
X10733500Y6649720D01*
X10757886Y6652122D01*
X10781335Y6659235D01*
X10802946Y6670786D01*
X10821888Y6686332D01*
X10837434Y6705274D01*
X10848985Y6726885D01*
X10856098Y6750334D01*
X10858500Y6774720D01*
X10858500Y8173720D01*
X12001500Y8173720D01*
X12001500Y5425440D01*
X12001500Y5425440D01*
G37*
G36*
X-5557520Y7749540D02*
X-6842760Y7749540D01*
X-6842760Y8526780D01*
X-5557520Y8526780D01*
X-5557520Y7749540D01*
X-5557520Y7749540D01*
G37*
G36*
X-9878060Y7903210D02*
X-11021060Y7903210D01*
X-11021060Y8545830D01*
X-9878060Y8545830D01*
X-9878060Y7903210D01*
X-9878060Y7903210D01*
G37*
G36*
X-7378700Y7903210D02*
X-8521700Y7903210D01*
X-8521700Y8545830D01*
X-7378700Y8545830D01*
X-7378700Y7903210D01*
X-7378700Y7903210D01*
G37*
G36*
X996400Y10824220D02*
X998802Y10799834D01*
X1005915Y10776385D01*
X1017466Y10754774D01*
X1033012Y10735832D01*
X1051954Y10720286D01*
X1073565Y10708735D01*
X1097014Y10701622D01*
X1121400Y10699220D01*
X1333900Y10699220D01*
X1333900Y9306980D01*
X1121400Y9306980D01*
X1097014Y9304578D01*
X1073565Y9297465D01*
X1051954Y9285914D01*
X1033012Y9270368D01*
X1017466Y9251426D01*
X1005915Y9229815D01*
X998802Y9206366D01*
X996400Y9181980D01*
X996400Y8419480D01*
X-995840Y8419480D01*
X-995840Y9181980D01*
X-998242Y9206366D01*
X-1005355Y9229815D01*
X-1016906Y9251426D01*
X-1032452Y9270368D01*
X-1051394Y9285914D01*
X-1073005Y9297465D01*
X-1096454Y9304578D01*
X-1120840Y9306980D01*
X-1333340Y9306980D01*
X-1333340Y10644480D01*
X-516100Y10644480D01*
X-516100Y9361720D01*
X-513698Y9337334D01*
X-506585Y9313885D01*
X-495034Y9292274D01*
X-479488Y9273332D01*
X-460546Y9257786D01*
X-438935Y9246235D01*
X-415486Y9239122D01*
X-391100Y9236720D01*
X391660Y9236720D01*
X416046Y9239122D01*
X439495Y9246235D01*
X461106Y9257786D01*
X480048Y9273332D01*
X495594Y9292274D01*
X507145Y9313885D01*
X514258Y9337334D01*
X516660Y9361720D01*
X516660Y10644480D01*
X514258Y10668866D01*
X507145Y10692315D01*
X495594Y10713926D01*
X480048Y10732868D01*
X461106Y10748414D01*
X439495Y10759965D01*
X416046Y10767078D01*
X391660Y10769480D01*
X-391100Y10769480D01*
X-415486Y10767078D01*
X-438935Y10759965D01*
X-460546Y10748414D01*
X-479488Y10732868D01*
X-495034Y10713926D01*
X-506585Y10692315D01*
X-513698Y10668866D01*
X-516100Y10644480D01*
X-1333340Y10644480D01*
X-1333340Y10699220D01*
X-1120840Y10699220D01*
X-1096454Y10701622D01*
X-1073005Y10708735D01*
X-1051394Y10720286D01*
X-1032452Y10735832D01*
X-1016906Y10754774D01*
X-1005355Y10776385D01*
X-998242Y10799834D01*
X-995840Y10824220D01*
X-995840Y11586720D01*
X996400Y11586720D01*
X996400Y10824220D01*
X996400Y10824220D01*
G37*
G36*
X15596093Y10047401D02*
X15242886Y8960344D01*
X13491515Y9529399D01*
X13844722Y10616456D01*
X15596093Y10047401D01*
X15596093Y10047401D01*
G37*
G36*
X-7378700Y9152890D02*
X-8521700Y9152890D01*
X-8521700Y9795510D01*
X-7378700Y9795510D01*
X-7378700Y9152890D01*
X-7378700Y9152890D01*
G37*
G36*
X-9878060Y9152890D02*
X-11021060Y9152890D01*
X-11021060Y9795510D01*
X-9878060Y9795510D01*
X-9878060Y9152890D01*
X-9878060Y9152890D01*
G37*
G36*
X-5557520Y9273540D02*
X-6842760Y9273540D01*
X-6842760Y10050780D01*
X-5557520Y10050780D01*
X-5557520Y9273540D01*
X-5557520Y9273540D01*
G37*
G36*
X3642900Y9352480D02*
X2357660Y9352480D01*
X2357660Y10129720D01*
X3642900Y10129720D01*
X3642900Y9352480D01*
X3642900Y9352480D01*
G37*
G36*
X-12582880Y9818420D02*
X-13325120Y9818420D01*
X-13325120Y10760660D01*
X-12582880Y10760660D01*
X-12582880Y9818420D01*
X-12582880Y9818420D01*
G37*
G36*
X-13982880Y9818420D02*
X-14725120Y9818420D01*
X-14725120Y10760660D01*
X-13982880Y10760660D01*
X-13982880Y9818420D01*
X-13982880Y9818420D01*
G37*
G36*
X-7368540Y10402570D02*
X-8511540Y10402570D01*
X-8511540Y11045190D01*
X-7368540Y11045190D01*
X-7368540Y10402570D01*
X-7368540Y10402570D01*
G37*
G36*
X-9878060Y10402570D02*
X-11021060Y10402570D01*
X-11021060Y11045190D01*
X-9878060Y11045190D01*
X-9878060Y10402570D01*
X-9878060Y10402570D01*
G37*
G36*
X3642900Y10876480D02*
X2357660Y10876480D01*
X2357660Y11653720D01*
X3642900Y11653720D01*
X3642900Y10876480D01*
X3642900Y10876480D01*
G37*
G36*
X-7378700Y11652250D02*
X-8521700Y11652250D01*
X-8521700Y12294870D01*
X-7378700Y12294870D01*
X-7378700Y11652250D01*
X-7378700Y11652250D01*
G37*
G36*
X-9878060Y11652250D02*
X-11021060Y11652250D01*
X-11021060Y12294870D01*
X-9878060Y12294870D01*
X-9878060Y11652250D01*
X-9878060Y11652250D01*
G37*
G36*
X1051560Y12360480D02*
X274320Y12360480D01*
X274320Y13645720D01*
X1051560Y13645720D01*
X1051560Y12360480D01*
X1051560Y12360480D01*
G37*
G36*
X-472440Y12360480D02*
X-1249680Y12360480D01*
X-1249680Y13645720D01*
X-472440Y13645720D01*
X-472440Y12360480D01*
X-472440Y12360480D01*
G37*
G36*
X16709085Y13472841D02*
X16355878Y12385784D01*
X14604507Y12954839D01*
X14957714Y14041896D01*
X16709085Y13472841D01*
X16709085Y13472841D01*
G37*
G36*
X-12649200Y12456160D02*
X-13426440Y12456160D01*
X-13426440Y13741400D01*
X-12649200Y13741400D01*
X-12649200Y12456160D01*
X-12649200Y12456160D01*
G37*
G36*
X-14173200Y12456160D02*
X-14950440Y12456160D01*
X-14950440Y13741400D01*
X-14173200Y13741400D01*
X-14173200Y12456160D01*
X-14173200Y12456160D01*
G37*
G36*
X-7856220Y13449300D02*
X-10642600Y13449300D01*
X-10642600Y14226540D01*
X-7856220Y14226540D01*
X-7856220Y13449300D01*
X-7856220Y13449300D01*
G37*
G36*
X16594395Y14870185D02*
X15929855Y14205645D01*
X15265315Y14870185D01*
X15929855Y15534725D01*
X16594395Y14870185D01*
X16594395Y14870185D01*
G37*
G36*
X-15265315Y14969245D02*
X-15929855Y14304705D01*
X-16594395Y14969245D01*
X-15929855Y15633785D01*
X-15265315Y14969245D01*
X-15265315Y14969245D01*
G37*
G36*
X11727180Y14556740D02*
X10949940Y14556740D01*
X10949940Y15841980D01*
X11727180Y15841980D01*
X11727180Y14556740D01*
X11727180Y14556740D01*
G37*
G36*
X13251180Y14556740D02*
X12473940Y14556740D01*
X12473940Y15841980D01*
X13251180Y15841980D01*
X13251180Y14556740D01*
X13251180Y14556740D01*
G37*
G36*
X-17353402Y16238689D02*
X-17280953Y16224278D01*
X-17224417Y16200860D01*
X-17144463Y16167742D01*
X-17021620Y16085661D01*
X-16917159Y15981200D01*
X-16835078Y15858357D01*
X-16778542Y15721866D01*
X-16749720Y15576970D01*
X-16749720Y15429230D01*
X-16778542Y15284334D01*
X-16835078Y15147843D01*
X-16917159Y15025000D01*
X-17021620Y14920539D01*
X-17144463Y14838458D01*
X-17224417Y14805340D01*
X-17280953Y14781922D01*
X-17353402Y14767511D01*
X-17425850Y14753100D01*
X-17573590Y14753100D01*
X-17646038Y14767511D01*
X-17718487Y14781922D01*
X-17775023Y14805340D01*
X-17854977Y14838458D01*
X-17977820Y14920539D01*
X-18082281Y15025000D01*
X-18164362Y15147843D01*
X-18220898Y15284334D01*
X-18249720Y15429230D01*
X-18249720Y15576970D01*
X-18220898Y15721866D01*
X-18164362Y15858357D01*
X-18082281Y15981200D01*
X-17977820Y16085661D01*
X-17854977Y16167742D01*
X-17775023Y16200860D01*
X-17718487Y16224278D01*
X-17646038Y16238689D01*
X-17573590Y16253100D01*
X-17425850Y16253100D01*
X-17353402Y16238689D01*
X-17353402Y16238689D01*
G37*
G36*
X-7856220Y14973300D02*
X-10642600Y14973300D01*
X-10642600Y15750540D01*
X-7856220Y15750540D01*
X-7856220Y14973300D01*
X-7856220Y14973300D01*
G37*
G36*
X17146598Y16738689D02*
X17219047Y16724278D01*
X17275583Y16700860D01*
X17355537Y16667742D01*
X17478380Y16585661D01*
X17582841Y16481200D01*
X17664922Y16358357D01*
X17721458Y16221866D01*
X17750280Y16076970D01*
X17750280Y15929230D01*
X17721458Y15784334D01*
X17664922Y15647843D01*
X17582841Y15525000D01*
X17478380Y15420539D01*
X17355537Y15338458D01*
X17275583Y15305340D01*
X17219047Y15281922D01*
X17146598Y15267511D01*
X17074150Y15253100D01*
X16926410Y15253100D01*
X16853962Y15267511D01*
X16781513Y15281922D01*
X16724977Y15305340D01*
X16645023Y15338458D01*
X16522180Y15420539D01*
X16417719Y15525000D01*
X16335638Y15647843D01*
X16279102Y15784334D01*
X16250280Y15929230D01*
X16250280Y16076970D01*
X16279102Y16221866D01*
X16335638Y16358357D01*
X16417719Y16481200D01*
X16522180Y16585661D01*
X16645023Y16667742D01*
X16724977Y16700860D01*
X16781513Y16724278D01*
X16853962Y16738689D01*
X16926410Y16753100D01*
X17074150Y16753100D01*
X17146598Y16738689D01*
X17146598Y16738689D01*
G37*
G36*
X15534725Y15929855D02*
X14870185Y15265315D01*
X14205645Y15929855D01*
X14870185Y16594395D01*
X15534725Y15929855D01*
X15534725Y15929855D01*
G37*
G36*
X-14205645Y16028915D02*
X-14870185Y15364375D01*
X-15534725Y16028915D01*
X-14870185Y16693455D01*
X-14205645Y16028915D01*
X-14205645Y16028915D01*
G37*
M02*
