G04 #@! TF.GenerationSoftware,KiCad,Pcbnew,9.0.7*
G04 #@! TF.CreationDate,2026-04-04T17:39:50+02:00*
G04 #@! TF.ProjectId,Crazyflie contol board,4372617a-7966-46c6-9965-20636f6e746f,1.0*
G04 #@! TF.SameCoordinates,Original*
G04 #@! TF.FileFunction,Copper,L2,Bot*
G04 #@! TF.FilePolarity,Positive*
%FSLAX46Y46*%
G04 Gerber Fmt 4.6, Leading zero omitted, Abs format (unit mm)*
G04 Created by KiCad (PCBNEW 9.0.7) date 2026-04-04 17:39:50*
%MOMM*%
%LPD*%
G01*
G04 APERTURE LIST*
G04 #@! TA.AperFunction,HeatsinkPad*
%ADD10C,0.600000*%
G04 #@! TD*
G04 #@! TA.AperFunction,ComponentPad*
%ADD11R,1.700000X1.700000*%
G04 #@! TD*
G04 #@! TA.AperFunction,ComponentPad*
%ADD12C,1.700000*%
G04 #@! TD*
G04 #@! TA.AperFunction,ComponentPad*
%ADD13C,0.500000*%
G04 #@! TD*
G04 #@! TA.AperFunction,HeatsinkPad*
%ADD14O,2.100000X1.000000*%
G04 #@! TD*
G04 #@! TA.AperFunction,HeatsinkPad*
%ADD15O,1.600000X1.000000*%
G04 #@! TD*
G04 #@! TA.AperFunction,ViaPad*
%ADD16C,0.635000*%
G04 #@! TD*
G04 #@! TA.AperFunction,Conductor*
%ADD17C,0.304800*%
G04 #@! TD*
G04 #@! TA.AperFunction,Conductor*
%ADD18C,1.000760*%
G04 #@! TD*
G04 #@! TA.AperFunction,Conductor*
%ADD19C,0.254000*%
G04 #@! TD*
G04 #@! TA.AperFunction,Conductor*
%ADD20C,0.381000*%
G04 #@! TD*
G04 #@! TA.AperFunction,Conductor*
%ADD21C,0.152400*%
G04 #@! TD*
G04 #@! TA.AperFunction,Conductor*
%ADD22C,0.203200*%
G04 #@! TD*
G04 APERTURE END LIST*
D10*
X141395000Y-125490000D03*
X141395000Y-124090000D03*
X140695000Y-126190000D03*
X140695000Y-124790000D03*
X140695000Y-123390000D03*
X139995000Y-125490000D03*
X139995000Y-124090000D03*
X139295000Y-126190000D03*
X139295000Y-124790000D03*
X139295000Y-123390000D03*
X138595000Y-125490000D03*
X138595000Y-124090000D03*
D11*
X164940000Y-82170000D03*
D12*
X164940000Y-84710000D03*
X164940000Y-87250000D03*
X164940000Y-89790000D03*
D11*
X127200000Y-96140000D03*
D12*
X127200000Y-93600000D03*
D13*
X136425000Y-97700000D03*
X137000000Y-96750000D03*
X137000000Y-98650000D03*
X137575000Y-97700000D03*
D11*
X117300000Y-128900000D03*
D12*
X114760000Y-128900000D03*
X112220000Y-128900000D03*
X109680000Y-128900000D03*
X107140000Y-128900000D03*
D11*
X111600000Y-77440000D03*
D12*
X111600000Y-79980000D03*
X111600000Y-82520000D03*
X111600000Y-85060000D03*
X111600000Y-87600000D03*
X111600000Y-90140000D03*
X111600000Y-92680000D03*
X111600000Y-95220000D03*
D14*
X172670000Y-95720000D03*
D15*
X176850000Y-95720000D03*
D14*
X172670000Y-87080000D03*
D15*
X176850000Y-87080000D03*
D16*
X164900000Y-98200000D03*
X142700000Y-90129000D03*
X165850000Y-94100000D03*
X131000000Y-87500000D03*
X137200000Y-84200000D03*
X139300000Y-105100000D03*
X131150000Y-88503200D03*
X139700000Y-105700000D03*
X139000000Y-101300000D03*
X130900000Y-105550700D03*
X131200000Y-100800000D03*
X135200000Y-101000000D03*
X141100000Y-90800000D03*
X136587500Y-88800000D03*
X138400000Y-109000000D03*
X131910500Y-88710500D03*
X142600000Y-87700000D03*
X129100000Y-100300000D03*
X132150000Y-87600000D03*
X131500000Y-101400000D03*
X137000000Y-87600000D03*
X127600000Y-90600000D03*
X139200000Y-109000000D03*
X140100000Y-96125000D03*
X145097674Y-93593920D03*
X147300000Y-131300000D03*
X140600000Y-110200000D03*
X139400000Y-87500000D03*
X128600000Y-85800000D03*
X143600000Y-89300000D03*
X143553754Y-98600000D03*
X132435500Y-84635500D03*
X139500000Y-90600000D03*
X144768851Y-96744900D03*
X134500000Y-91200000D03*
X147300000Y-122400000D03*
X128800000Y-91800000D03*
X131600000Y-128700000D03*
X168150000Y-94100000D03*
X170300000Y-93850000D03*
X144800000Y-104400000D03*
X157200000Y-104400000D03*
X131770000Y-127430000D03*
X147300000Y-119800000D03*
X150100000Y-108800000D03*
X145400000Y-117000000D03*
X148400000Y-110600000D03*
X147300000Y-121000000D03*
X127300000Y-116000000D03*
D17*
X126018800Y-94958800D02*
X126018800Y-92181200D01*
X176850000Y-93850000D02*
X176800000Y-93800000D01*
X138500000Y-109000000D02*
X138400000Y-109000000D01*
D18*
X139300000Y-105100000D02*
X139300000Y-105300000D01*
X138300000Y-101000000D02*
X135900000Y-101000000D01*
X135900000Y-101000000D02*
X135200000Y-101000000D01*
D17*
X176850000Y-95720000D02*
X176850000Y-93850000D01*
D18*
X130400000Y-100300000D02*
X130900000Y-100800000D01*
D17*
X126018800Y-92181200D02*
X127600000Y-90600000D01*
D18*
X139700000Y-105700000D02*
X139300000Y-106100000D01*
X131200000Y-101100000D02*
X131500000Y-101400000D01*
X139300000Y-108200000D02*
X139200000Y-108300000D01*
D17*
X127200000Y-96140000D02*
X126018800Y-94958800D01*
D18*
X139300000Y-105300000D02*
X139700000Y-105700000D01*
X130900000Y-100800000D02*
X131200000Y-100800000D01*
X139300000Y-106100000D02*
X139300000Y-108200000D01*
D17*
X139000000Y-101300000D02*
X138700000Y-101000000D01*
D18*
X129100000Y-100300000D02*
X130400000Y-100300000D01*
X138400000Y-100900000D02*
X138300000Y-101000000D01*
X138700000Y-101000000D02*
X138500000Y-101000000D01*
X138500000Y-101000000D02*
X138400000Y-100900000D01*
X139200000Y-108300000D02*
X139200000Y-109000000D01*
X139200000Y-109000000D02*
X138500000Y-109000000D01*
X131200000Y-100800000D02*
X131200000Y-101100000D01*
D19*
X110790400Y-89009600D02*
X110300000Y-89500000D01*
D20*
X142600000Y-98600000D02*
X140200000Y-96200000D01*
D19*
X110350400Y-91549600D02*
X112749600Y-91549600D01*
D20*
X142064300Y-111664300D02*
X142064300Y-126064300D01*
X143600000Y-92096246D02*
X145097674Y-93593920D01*
D19*
X132435500Y-84635500D02*
X131271000Y-85800000D01*
D20*
X143553754Y-98600000D02*
X142600000Y-98600000D01*
D19*
X113000000Y-93820000D02*
X111600000Y-95220000D01*
X131200000Y-85800000D02*
X128600000Y-85800000D01*
X112749600Y-91549600D02*
X113000000Y-91800000D01*
D20*
X140600000Y-110200000D02*
X142064300Y-111664300D01*
D19*
X131271000Y-85800000D02*
X131200000Y-85800000D01*
D20*
X140600000Y-110200000D02*
X130800000Y-110200000D01*
X141200000Y-89300000D02*
X139400000Y-87500000D01*
D19*
X113560000Y-79400000D02*
X111600000Y-77440000D01*
D20*
X141850000Y-108850000D02*
X143500000Y-107200000D01*
X143500000Y-107200000D02*
X143553754Y-107200000D01*
D19*
X113744200Y-88600000D02*
X113334600Y-89009600D01*
D20*
X143553754Y-98600000D02*
X143553754Y-107200000D01*
X114440000Y-126560000D02*
X114420000Y-126560000D01*
D19*
X110300000Y-89500000D02*
X110300000Y-91600000D01*
D20*
X114420000Y-126560000D02*
X112080000Y-128900000D01*
X130800000Y-110200000D02*
X114440000Y-126560000D01*
X142064300Y-126064300D02*
X147300000Y-131300000D01*
D19*
X113000000Y-91800000D02*
X113000000Y-93820000D01*
D20*
X143600000Y-89300000D02*
X141200000Y-89300000D01*
D19*
X113744200Y-88600000D02*
X113744200Y-79900000D01*
D20*
X141600000Y-109100000D02*
X141850000Y-108850000D01*
X140600000Y-110200000D02*
X141600000Y-109200000D01*
X143600000Y-89300000D02*
X143600000Y-92096246D01*
D19*
X113334600Y-89009600D02*
X110790400Y-89009600D01*
X113744200Y-79584200D02*
X113560000Y-79400000D01*
X110300000Y-91600000D02*
X110350400Y-91549600D01*
X113744200Y-79900000D02*
X113744200Y-79584200D01*
D20*
X141600000Y-109200000D02*
X141600000Y-109100000D01*
D21*
X140081567Y-91197367D02*
X144768851Y-95884651D01*
D22*
X139500000Y-90600000D02*
X138900000Y-91200000D01*
D21*
X144768851Y-95884651D02*
X144768851Y-96744900D01*
X139500000Y-90600000D02*
X140081567Y-91181567D01*
X140081567Y-91181567D02*
X140081567Y-91197367D01*
D22*
X138900000Y-91200000D02*
X134500000Y-91200000D01*
X147071532Y-122400000D02*
X147300000Y-122400000D01*
X144157570Y-114642430D02*
X144157570Y-119486038D01*
X144200000Y-114600000D02*
X144157570Y-114642430D01*
X128800000Y-91800000D02*
X137853754Y-91800000D01*
X137853754Y-91800000D02*
X144200000Y-98146246D01*
X144157570Y-119486038D02*
X147071532Y-122400000D01*
X144200000Y-98146246D02*
X144200000Y-114600000D01*
X128000000Y-132300000D02*
X110020000Y-132300000D01*
X131600000Y-128700000D02*
X128000000Y-132300000D01*
X110020000Y-132300000D02*
X106820000Y-129100000D01*
D17*
X156800000Y-104400000D02*
X157200000Y-104400000D01*
X144800000Y-104400000D02*
X156800000Y-104400000D01*
X170300000Y-93850000D02*
X168400000Y-93850000D01*
X168400000Y-93850000D02*
X168150000Y-94100000D01*
D22*
X111163998Y-86547400D02*
X109917999Y-87793399D01*
X110165000Y-76335000D02*
X110100000Y-76400000D01*
X110100000Y-78150000D02*
X110495000Y-78545000D01*
X110100000Y-76400000D02*
X110100000Y-78150000D01*
X113362200Y-86100000D02*
X112914800Y-86547400D01*
X114900000Y-77135000D02*
X154345000Y-77135000D01*
X110397919Y-92680000D02*
X111600000Y-92680000D01*
X114900000Y-77135000D02*
X114100000Y-76335000D01*
X112914800Y-86547400D02*
X111163998Y-86547400D01*
X154345000Y-77135000D02*
X159380000Y-82170000D01*
X114100000Y-76335000D02*
X110165000Y-76335000D01*
X159380000Y-82170000D02*
X164940000Y-82170000D01*
X109917999Y-87793399D02*
X109917999Y-92200080D01*
X111763628Y-78545000D02*
X113362200Y-80143572D01*
X109917999Y-92200080D02*
X110397919Y-92680000D01*
X113362200Y-86100000D02*
X113362200Y-80143572D01*
X110495000Y-78545000D02*
X111763628Y-78545000D01*
X128200000Y-131000000D02*
X111260000Y-131000000D01*
X131770000Y-127430000D02*
X128200000Y-131000000D01*
X111260000Y-131000000D02*
X109360000Y-129100000D01*
X158630000Y-86500000D02*
X159380000Y-87250000D01*
X141700000Y-86500000D02*
X158630000Y-86500000D01*
X137300000Y-86500000D02*
X138900000Y-84900000D01*
X140100000Y-84900000D02*
X141700000Y-86500000D01*
X159380000Y-87250000D02*
X164940000Y-87250000D01*
X119340000Y-86500000D02*
X137300000Y-86500000D01*
X138900000Y-84900000D02*
X140100000Y-84900000D01*
X115700000Y-90140000D02*
X111600000Y-90140000D01*
X119340000Y-86500000D02*
X115700000Y-90140000D01*
X145331940Y-119800000D02*
X147300000Y-119800000D01*
X144768060Y-119231940D02*
X144765970Y-119234030D01*
X144768060Y-116300000D02*
X144768060Y-119231940D01*
X144765970Y-119234030D02*
X145331940Y-119800000D01*
X150100000Y-110968060D02*
X144768060Y-116300000D01*
X150100000Y-108800000D02*
X150100000Y-110968060D01*
X160552600Y-89100000D02*
X161350000Y-88302600D01*
X145500000Y-117000000D02*
X160552600Y-101947400D01*
X160552600Y-101947400D02*
X160552600Y-89100000D01*
X145400000Y-117000000D02*
X145500000Y-117000000D01*
X161350000Y-88302600D02*
X165376002Y-88302600D01*
X165376002Y-88302600D02*
X166200000Y-87478602D01*
X166200000Y-85970000D02*
X164940000Y-84710000D01*
X166200000Y-87478602D02*
X166200000Y-85970000D01*
X148400000Y-110600000D02*
X148400000Y-111900000D01*
X148400000Y-111900000D02*
X145600000Y-114700000D01*
X144461770Y-115838230D02*
X144461770Y-119360034D01*
X144461770Y-119360034D02*
X146101736Y-121000000D01*
X145600000Y-114700000D02*
X144461770Y-115838230D01*
X146101736Y-121000000D02*
X147300000Y-121000000D01*
X127300000Y-118780000D02*
X127300000Y-116000000D01*
X116980000Y-129100000D02*
X127300000Y-118780000D01*
G04 #@! TA.AperFunction,Conductor*
G36*
X178840698Y-94824237D02*
G01*
X178887490Y-94877632D01*
X178899170Y-94930613D01*
X178899170Y-133773170D01*
X178879168Y-133841291D01*
X178825512Y-133887784D01*
X178773170Y-133899170D01*
X144274399Y-133899170D01*
X144206278Y-133879168D01*
X144159785Y-133825512D01*
X144148406Y-133774452D01*
X144100166Y-129034956D01*
X144119473Y-128966636D01*
X144172653Y-128919599D01*
X144242820Y-128908780D01*
X144307698Y-128937615D01*
X144315254Y-128944579D01*
X146697545Y-131326870D01*
X146730157Y-131383354D01*
X146766980Y-131520781D01*
X146766983Y-131520788D01*
X146842283Y-131651212D01*
X146842291Y-131651222D01*
X146948777Y-131757708D01*
X146948782Y-131757712D01*
X146948784Y-131757714D01*
X147079216Y-131833019D01*
X147224695Y-131872000D01*
X147224697Y-131872000D01*
X147375303Y-131872000D01*
X147375305Y-131872000D01*
X147520784Y-131833019D01*
X147651216Y-131757714D01*
X147757714Y-131651216D01*
X147833019Y-131520784D01*
X147872000Y-131375305D01*
X147872000Y-131224695D01*
X147833019Y-131079216D01*
X147757714Y-130948784D01*
X147757712Y-130948782D01*
X147757708Y-130948777D01*
X147651222Y-130842291D01*
X147651212Y-130842283D01*
X147520788Y-130766983D01*
X147520785Y-130766982D01*
X147520784Y-130766981D01*
X147520782Y-130766980D01*
X147520781Y-130766980D01*
X147463672Y-130751678D01*
X147383353Y-130730156D01*
X147326870Y-130697545D01*
X144120456Y-127491131D01*
X144086430Y-127428819D01*
X144083559Y-127403328D01*
X144009705Y-120147237D01*
X144029012Y-120078920D01*
X144082192Y-120031883D01*
X144152359Y-120021064D01*
X144217237Y-120049899D01*
X144224793Y-120056863D01*
X146735152Y-122567222D01*
X146762086Y-122613869D01*
X146763819Y-122613152D01*
X146766978Y-122620779D01*
X146842283Y-122751212D01*
X146842291Y-122751222D01*
X146948777Y-122857708D01*
X146948782Y-122857712D01*
X146948784Y-122857714D01*
X147079216Y-122933019D01*
X147224695Y-122972000D01*
X147224697Y-122972000D01*
X147375303Y-122972000D01*
X147375305Y-122972000D01*
X147520784Y-122933019D01*
X147651216Y-122857714D01*
X147757714Y-122751216D01*
X147833019Y-122620784D01*
X147872000Y-122475305D01*
X147872000Y-122324695D01*
X147833019Y-122179216D01*
X147757714Y-122048784D01*
X147757712Y-122048782D01*
X147757708Y-122048777D01*
X147651222Y-121942291D01*
X147651212Y-121942283D01*
X147520788Y-121866983D01*
X147520785Y-121866982D01*
X147520784Y-121866981D01*
X147520782Y-121866980D01*
X147520781Y-121866980D01*
X147473469Y-121854303D01*
X147375305Y-121828000D01*
X147224695Y-121828000D01*
X147224694Y-121828000D01*
X147120220Y-121855993D01*
X147049244Y-121854303D01*
X146998515Y-121823381D01*
X146878016Y-121702882D01*
X146843990Y-121640570D01*
X146849055Y-121569755D01*
X146891602Y-121512919D01*
X146958122Y-121488108D01*
X147027496Y-121503199D01*
X147030098Y-121504660D01*
X147079216Y-121533019D01*
X147224695Y-121572000D01*
X147224697Y-121572000D01*
X147375303Y-121572000D01*
X147375305Y-121572000D01*
X147520784Y-121533019D01*
X147651216Y-121457714D01*
X147757714Y-121351216D01*
X147833019Y-121220784D01*
X147872000Y-121075305D01*
X147872000Y-120924695D01*
X147833019Y-120779216D01*
X147757714Y-120648784D01*
X147757712Y-120648782D01*
X147757708Y-120648777D01*
X147651222Y-120542291D01*
X147651212Y-120542283D01*
X147593769Y-120509119D01*
X147544776Y-120457737D01*
X147531340Y-120388023D01*
X147557726Y-120322112D01*
X147593769Y-120290881D01*
X147651216Y-120257714D01*
X147757714Y-120151216D01*
X147833019Y-120020784D01*
X147872000Y-119875305D01*
X147872000Y-119724695D01*
X147833019Y-119579216D01*
X147757714Y-119448784D01*
X147757712Y-119448782D01*
X147757708Y-119448777D01*
X147651222Y-119342291D01*
X147651212Y-119342283D01*
X147520788Y-119266983D01*
X147520785Y-119266982D01*
X147520784Y-119266981D01*
X147520782Y-119266980D01*
X147520781Y-119266980D01*
X147481800Y-119256535D01*
X147375305Y-119228000D01*
X147224695Y-119228000D01*
X147146735Y-119248889D01*
X147079218Y-119266980D01*
X147079211Y-119266983D01*
X146948787Y-119342283D01*
X146948782Y-119342287D01*
X146916429Y-119374641D01*
X146884073Y-119406996D01*
X146821764Y-119441020D01*
X146794980Y-119443900D01*
X145531632Y-119443900D01*
X145463511Y-119423898D01*
X145442536Y-119406995D01*
X145161064Y-119125522D01*
X145127039Y-119063210D01*
X145124160Y-119036427D01*
X145124160Y-117682473D01*
X145144162Y-117614352D01*
X145197818Y-117567859D01*
X145268092Y-117557755D01*
X145282763Y-117560764D01*
X145324695Y-117572000D01*
X145324697Y-117572000D01*
X145475303Y-117572000D01*
X145475305Y-117572000D01*
X145620784Y-117533019D01*
X145751216Y-117457714D01*
X145857714Y-117351216D01*
X145933019Y-117220784D01*
X145972000Y-117075305D01*
X145972000Y-117075301D01*
X145973043Y-117067382D01*
X146001764Y-117002454D01*
X146008858Y-116994743D01*
X160837551Y-102166051D01*
X160884433Y-102084850D01*
X160908700Y-101994281D01*
X160908700Y-101900519D01*
X160908700Y-95029583D01*
X160928702Y-94961462D01*
X160982358Y-94914969D01*
X161033989Y-94903586D01*
X171263068Y-94846514D01*
X171331298Y-94866136D01*
X171378090Y-94919531D01*
X171388586Y-94989748D01*
X171359453Y-95054492D01*
X171352868Y-95061605D01*
X171337034Y-95077439D01*
X171337032Y-95077442D01*
X171226722Y-95242533D01*
X171150739Y-95425971D01*
X171150737Y-95425976D01*
X171142776Y-95465999D01*
X171142776Y-95466000D01*
X171959940Y-95466000D01*
X171935795Y-95479940D01*
X171879940Y-95535795D01*
X171840444Y-95604204D01*
X171820000Y-95680504D01*
X171820000Y-95759496D01*
X171840444Y-95835796D01*
X171879940Y-95904205D01*
X171935795Y-95960060D01*
X171959940Y-95974000D01*
X171142776Y-95974000D01*
X171150737Y-96014023D01*
X171150739Y-96014028D01*
X171226722Y-96197466D01*
X171337032Y-96362557D01*
X171337037Y-96362564D01*
X171477435Y-96502962D01*
X171477442Y-96502967D01*
X171642533Y-96613277D01*
X171825971Y-96689260D01*
X171825976Y-96689262D01*
X172020718Y-96727999D01*
X172020722Y-96728000D01*
X172416000Y-96728000D01*
X172416000Y-96020000D01*
X172924000Y-96020000D01*
X172924000Y-96728000D01*
X173319278Y-96728000D01*
X173319281Y-96727999D01*
X173514023Y-96689262D01*
X173514028Y-96689260D01*
X173697466Y-96613277D01*
X173862557Y-96502967D01*
X173862564Y-96502962D01*
X174002962Y-96362564D01*
X174002967Y-96362557D01*
X174113277Y-96197466D01*
X174189260Y-96014028D01*
X174189262Y-96014023D01*
X174197224Y-95974000D01*
X173380060Y-95974000D01*
X173404205Y-95960060D01*
X173460060Y-95904205D01*
X173499556Y-95835796D01*
X173520000Y-95759496D01*
X173520000Y-95680504D01*
X173499556Y-95604204D01*
X173460060Y-95535795D01*
X173404205Y-95479940D01*
X173380060Y-95466000D01*
X174197224Y-95466000D01*
X174197223Y-95465999D01*
X174189262Y-95425976D01*
X174189260Y-95425971D01*
X174113277Y-95242533D01*
X174002967Y-95077442D01*
X174002962Y-95077435D01*
X173971529Y-95046002D01*
X173937503Y-94983690D01*
X173942568Y-94912875D01*
X173985115Y-94856039D01*
X174051635Y-94831228D01*
X174059900Y-94830909D01*
X175717926Y-94821659D01*
X175786154Y-94841280D01*
X175832946Y-94894675D01*
X175843442Y-94964892D01*
X175814309Y-95029636D01*
X175807722Y-95036750D01*
X175767038Y-95077434D01*
X175767032Y-95077442D01*
X175656722Y-95242533D01*
X175580739Y-95425971D01*
X175580737Y-95425976D01*
X175572776Y-95465999D01*
X175572776Y-95466000D01*
X176389940Y-95466000D01*
X176365795Y-95479940D01*
X176309940Y-95535795D01*
X176270444Y-95604204D01*
X176250000Y-95680504D01*
X176250000Y-95759496D01*
X176270444Y-95835796D01*
X176309940Y-95904205D01*
X176365795Y-95960060D01*
X176389940Y-95974000D01*
X175572776Y-95974000D01*
X175580737Y-96014023D01*
X175580739Y-96014028D01*
X175656722Y-96197466D01*
X175767032Y-96362557D01*
X175767037Y-96362564D01*
X175907435Y-96502962D01*
X175907442Y-96502967D01*
X176072533Y-96613277D01*
X176255971Y-96689260D01*
X176255976Y-96689262D01*
X176450718Y-96727999D01*
X176450722Y-96728000D01*
X176596000Y-96728000D01*
X176596000Y-96020000D01*
X177104000Y-96020000D01*
X177104000Y-96728000D01*
X177249278Y-96728000D01*
X177249281Y-96727999D01*
X177444023Y-96689262D01*
X177444028Y-96689260D01*
X177627466Y-96613277D01*
X177792557Y-96502967D01*
X177792564Y-96502962D01*
X177932962Y-96362564D01*
X177932967Y-96362557D01*
X178043277Y-96197466D01*
X178119260Y-96014028D01*
X178119262Y-96014023D01*
X178127224Y-95974000D01*
X177310060Y-95974000D01*
X177334205Y-95960060D01*
X177390060Y-95904205D01*
X177429556Y-95835796D01*
X177450000Y-95759496D01*
X177450000Y-95680504D01*
X177429556Y-95604204D01*
X177390060Y-95535795D01*
X177334205Y-95479940D01*
X177310060Y-95466000D01*
X178127224Y-95466000D01*
X178127223Y-95465999D01*
X178119262Y-95425976D01*
X178119260Y-95425971D01*
X178043277Y-95242533D01*
X177932967Y-95077442D01*
X177932962Y-95077435D01*
X177879723Y-95024196D01*
X177845697Y-94961884D01*
X177850762Y-94891069D01*
X177893309Y-94834233D01*
X177959829Y-94809422D01*
X177968075Y-94809104D01*
X178772472Y-94804616D01*
X178840698Y-94824237D01*
G37*
G04 #@! TD.AperFunction*
G04 #@! TA.AperFunction,Conductor*
G36*
X139968429Y-85276102D02*
G01*
X139989403Y-85293005D01*
X141415049Y-86718651D01*
X141481349Y-86784951D01*
X141481350Y-86784952D01*
X141481352Y-86784953D01*
X141483124Y-86785976D01*
X141562550Y-86831833D01*
X141562555Y-86831834D01*
X141562557Y-86831835D01*
X141572638Y-86834536D01*
X141581689Y-86836961D01*
X141653119Y-86856101D01*
X141746881Y-86856101D01*
X141746885Y-86856100D01*
X158430307Y-86856100D01*
X158498428Y-86876102D01*
X158519402Y-86893004D01*
X159090643Y-87464244D01*
X159090664Y-87464267D01*
X159161342Y-87534945D01*
X159161347Y-87534949D01*
X159161349Y-87534951D01*
X159161350Y-87534952D01*
X159161352Y-87534953D01*
X159218427Y-87567905D01*
X159242550Y-87581833D01*
X159333119Y-87606100D01*
X163804620Y-87606100D01*
X163819459Y-87610457D01*
X163834908Y-87609795D01*
X163852828Y-87620255D01*
X163872741Y-87626102D01*
X163883815Y-87638342D01*
X163896223Y-87645585D01*
X163916886Y-87674895D01*
X163961929Y-87763297D01*
X163975033Y-87833074D01*
X163948333Y-87898859D01*
X163890305Y-87939765D01*
X163849662Y-87946500D01*
X161303119Y-87946500D01*
X161212553Y-87970766D01*
X161212545Y-87970769D01*
X161141048Y-88012049D01*
X161141046Y-88012050D01*
X161131353Y-88017645D01*
X161131348Y-88017649D01*
X160861138Y-88287860D01*
X160333949Y-88815049D01*
X160314755Y-88834243D01*
X160267650Y-88881347D01*
X160267646Y-88881352D01*
X160220769Y-88962545D01*
X160220766Y-88962553D01*
X160196500Y-89053119D01*
X160196500Y-94238118D01*
X160176498Y-94306239D01*
X160122842Y-94352732D01*
X160071543Y-94364114D01*
X143903053Y-94497935D01*
X143834769Y-94478497D01*
X143812915Y-94461034D01*
X143690659Y-94338778D01*
X143656633Y-94276466D01*
X143653754Y-94249683D01*
X143653754Y-93083515D01*
X143673756Y-93015394D01*
X143727412Y-92968901D01*
X143797686Y-92958797D01*
X143862266Y-92988291D01*
X143868849Y-92994420D01*
X144495219Y-93620790D01*
X144527830Y-93677273D01*
X144546990Y-93748777D01*
X144564654Y-93814701D01*
X144564657Y-93814708D01*
X144639957Y-93945132D01*
X144639965Y-93945142D01*
X144746451Y-94051628D01*
X144746456Y-94051632D01*
X144746458Y-94051634D01*
X144746459Y-94051635D01*
X144746461Y-94051636D01*
X144801341Y-94083321D01*
X144876890Y-94126939D01*
X145022369Y-94165920D01*
X145022371Y-94165920D01*
X145172977Y-94165920D01*
X145172979Y-94165920D01*
X145318458Y-94126939D01*
X145448890Y-94051634D01*
X145555388Y-93945136D01*
X145630693Y-93814704D01*
X145669674Y-93669225D01*
X145669674Y-93518615D01*
X145630693Y-93373136D01*
X145555388Y-93242704D01*
X145555386Y-93242702D01*
X145555382Y-93242697D01*
X145448896Y-93136211D01*
X145448886Y-93136203D01*
X145318462Y-93060903D01*
X145318459Y-93060902D01*
X145318458Y-93060901D01*
X145318456Y-93060900D01*
X145318455Y-93060900D01*
X145225899Y-93036100D01*
X145181027Y-93024076D01*
X145124544Y-92991465D01*
X144081905Y-91948826D01*
X144047879Y-91886514D01*
X144045000Y-91859731D01*
X144045000Y-89706998D01*
X144061881Y-89643998D01*
X144133019Y-89520784D01*
X144172000Y-89375305D01*
X144172000Y-89224695D01*
X144133019Y-89079216D01*
X144070262Y-88970517D01*
X144057716Y-88948787D01*
X144057708Y-88948777D01*
X143951222Y-88842291D01*
X143951212Y-88842283D01*
X143820788Y-88766983D01*
X143820785Y-88766982D01*
X143820784Y-88766981D01*
X143820782Y-88766980D01*
X143820781Y-88766980D01*
X143781800Y-88756535D01*
X143675305Y-88728000D01*
X143524695Y-88728000D01*
X143452842Y-88747253D01*
X143379218Y-88766980D01*
X143379211Y-88766983D01*
X143256001Y-88838119D01*
X143193001Y-88855000D01*
X141436515Y-88855000D01*
X141368394Y-88834998D01*
X141347420Y-88818095D01*
X140002454Y-87473129D01*
X139969843Y-87416648D01*
X139933019Y-87279216D01*
X139910645Y-87240464D01*
X139857716Y-87148787D01*
X139857708Y-87148777D01*
X139751222Y-87042291D01*
X139751212Y-87042283D01*
X139620788Y-86966983D01*
X139620785Y-86966982D01*
X139620784Y-86966981D01*
X139620782Y-86966980D01*
X139620781Y-86966980D01*
X139561668Y-86951141D01*
X139475305Y-86928000D01*
X139324695Y-86928000D01*
X139246735Y-86948889D01*
X139179218Y-86966980D01*
X139179211Y-86966983D01*
X139048787Y-87042283D01*
X139048777Y-87042291D01*
X138942291Y-87148777D01*
X138942283Y-87148787D01*
X138866983Y-87279211D01*
X138866980Y-87279218D01*
X138850330Y-87341357D01*
X138828000Y-87424695D01*
X138828000Y-87575305D01*
X138849607Y-87655944D01*
X138866980Y-87720781D01*
X138866983Y-87720788D01*
X138942283Y-87851212D01*
X138942291Y-87851222D01*
X139048777Y-87957708D01*
X139048782Y-87957712D01*
X139048784Y-87957714D01*
X139048785Y-87957715D01*
X139048787Y-87957716D01*
X139071392Y-87970767D01*
X139179216Y-88033019D01*
X139316648Y-88069843D01*
X139373129Y-88102454D01*
X140843911Y-89573236D01*
X140926764Y-89656089D01*
X141008144Y-89703074D01*
X141015984Y-89707600D01*
X141015985Y-89707601D01*
X141028232Y-89714672D01*
X141028236Y-89714674D01*
X141141414Y-89745000D01*
X141141415Y-89745000D01*
X143029000Y-89745000D01*
X143097121Y-89765002D01*
X143143614Y-89818658D01*
X143155000Y-89871000D01*
X143155000Y-91571446D01*
X143134998Y-91639567D01*
X143081342Y-91686060D01*
X143028485Y-91697445D01*
X141093093Y-91689537D01*
X141025055Y-91669257D01*
X141004513Y-91652633D01*
X140379508Y-91027628D01*
X140373200Y-91020839D01*
X140365432Y-91011835D01*
X140346193Y-90978512D01*
X140284622Y-90916941D01*
X140284619Y-90916939D01*
X140108905Y-90741225D01*
X140074879Y-90678913D01*
X140072000Y-90652130D01*
X140072000Y-90524696D01*
X140064338Y-90496100D01*
X140033019Y-90379216D01*
X139957714Y-90248784D01*
X139957712Y-90248782D01*
X139957708Y-90248777D01*
X139851222Y-90142291D01*
X139851212Y-90142283D01*
X139720788Y-90066983D01*
X139720785Y-90066982D01*
X139720784Y-90066981D01*
X139720782Y-90066980D01*
X139720781Y-90066980D01*
X139681800Y-90056535D01*
X139575305Y-90028000D01*
X139424695Y-90028000D01*
X139347673Y-90048638D01*
X139279218Y-90066980D01*
X139279211Y-90066983D01*
X139148787Y-90142283D01*
X139148777Y-90142291D01*
X139042291Y-90248777D01*
X139042283Y-90248787D01*
X138966983Y-90379211D01*
X138966980Y-90379218D01*
X138928000Y-90524696D01*
X138928000Y-90616208D01*
X138919216Y-90646123D01*
X138912588Y-90676593D01*
X138908773Y-90681688D01*
X138907998Y-90684329D01*
X138891095Y-90705303D01*
X138789403Y-90806995D01*
X138727091Y-90841021D01*
X138700308Y-90843900D01*
X135005020Y-90843900D01*
X134936899Y-90823898D01*
X134915929Y-90806999D01*
X134851216Y-90742286D01*
X134851215Y-90742285D01*
X134851212Y-90742283D01*
X134720788Y-90666983D01*
X134720785Y-90666982D01*
X134720784Y-90666981D01*
X134720782Y-90666980D01*
X134720781Y-90666980D01*
X134665359Y-90652130D01*
X134575305Y-90628000D01*
X134424695Y-90628000D01*
X134357059Y-90646123D01*
X134279218Y-90666980D01*
X134279211Y-90666983D01*
X134148787Y-90742283D01*
X134148777Y-90742291D01*
X134042291Y-90848777D01*
X134042283Y-90848787D01*
X133966983Y-90979211D01*
X133966981Y-90979216D01*
X133928000Y-91124695D01*
X133928000Y-91275305D01*
X133930674Y-91285288D01*
X133928987Y-91356263D01*
X133889194Y-91415060D01*
X133823930Y-91443009D01*
X133808969Y-91443900D01*
X129305020Y-91443900D01*
X129236899Y-91423898D01*
X129215929Y-91406999D01*
X129151216Y-91342286D01*
X129151215Y-91342285D01*
X129151212Y-91342283D01*
X129020788Y-91266983D01*
X129020785Y-91266982D01*
X129020784Y-91266981D01*
X129020782Y-91266980D01*
X129020781Y-91266980D01*
X128936234Y-91244326D01*
X128875305Y-91228000D01*
X128724695Y-91228000D01*
X128663773Y-91244324D01*
X128579218Y-91266980D01*
X128579211Y-91266983D01*
X128448787Y-91342283D01*
X128448777Y-91342291D01*
X128342291Y-91448777D01*
X128342283Y-91448787D01*
X128270163Y-91573703D01*
X128218780Y-91622697D01*
X128160529Y-91636702D01*
X113367464Y-91576264D01*
X113337817Y-91567427D01*
X113307595Y-91560853D01*
X113302192Y-91556808D01*
X113299426Y-91555984D01*
X113278885Y-91539361D01*
X113234248Y-91494725D01*
X113234247Y-91494724D01*
X112983847Y-91244324D01*
X112982256Y-91243406D01*
X112977921Y-91240902D01*
X112977921Y-91240903D01*
X112977919Y-91240902D01*
X112896854Y-91194099D01*
X112896852Y-91194098D01*
X112896851Y-91194098D01*
X112870853Y-91187132D01*
X112799825Y-91168100D01*
X112799823Y-91168100D01*
X112438089Y-91168100D01*
X112369968Y-91148098D01*
X112323475Y-91094442D01*
X112313371Y-91024168D01*
X112342865Y-90959588D01*
X112348994Y-90953005D01*
X112442460Y-90859538D01*
X112442463Y-90859535D01*
X112442465Y-90859533D01*
X112544653Y-90718884D01*
X112623113Y-90564896D01*
X112671861Y-90513282D01*
X112735380Y-90496100D01*
X115746879Y-90496100D01*
X115746881Y-90496100D01*
X115837450Y-90471833D01*
X115918651Y-90424951D01*
X119450596Y-86893004D01*
X119512908Y-86858980D01*
X119539691Y-86856100D01*
X137346879Y-86856100D01*
X137346881Y-86856100D01*
X137437450Y-86831833D01*
X137518651Y-86784951D01*
X139010597Y-85293005D01*
X139072909Y-85258980D01*
X139099692Y-85256100D01*
X139900308Y-85256100D01*
X139968429Y-85276102D01*
G37*
G04 #@! TD.AperFunction*
G04 #@! TA.AperFunction,Conductor*
G36*
X178841291Y-75120832D02*
G01*
X178887784Y-75174488D01*
X178899170Y-75226830D01*
X178899170Y-94083321D01*
X178879168Y-94151442D01*
X178825512Y-94197935D01*
X178774213Y-94209317D01*
X173882757Y-94249802D01*
X173814473Y-94230364D01*
X173767537Y-94177095D01*
X173760010Y-94156425D01*
X173736281Y-94067865D01*
X173660515Y-93936635D01*
X173660513Y-93936633D01*
X173660509Y-93936628D01*
X173553371Y-93829490D01*
X173553361Y-93829482D01*
X173422139Y-93753721D01*
X173422136Y-93753720D01*
X173422135Y-93753719D01*
X173422133Y-93753718D01*
X173422132Y-93753718D01*
X173382911Y-93743209D01*
X173275766Y-93714500D01*
X173124234Y-93714500D01*
X173045798Y-93735516D01*
X172977867Y-93753718D01*
X172977860Y-93753721D01*
X172846638Y-93829482D01*
X172846628Y-93829490D01*
X172739490Y-93936628D01*
X172739482Y-93936638D01*
X172663721Y-94067860D01*
X172663716Y-94067872D01*
X172636960Y-94167728D01*
X172600009Y-94228350D01*
X172536148Y-94259372D01*
X172516297Y-94261112D01*
X170934854Y-94274201D01*
X170866570Y-94254763D01*
X170819634Y-94201494D01*
X170808949Y-94131306D01*
X170824692Y-94085205D01*
X170833019Y-94070784D01*
X170872000Y-93925305D01*
X170872000Y-93774695D01*
X170833019Y-93629216D01*
X170774582Y-93528000D01*
X170757716Y-93498787D01*
X170757708Y-93498777D01*
X170651222Y-93392291D01*
X170651212Y-93392283D01*
X170520788Y-93316983D01*
X170520785Y-93316982D01*
X170520784Y-93316981D01*
X170520782Y-93316980D01*
X170520781Y-93316980D01*
X170481800Y-93306535D01*
X170375305Y-93278000D01*
X170224695Y-93278000D01*
X170146735Y-93298889D01*
X170079218Y-93316980D01*
X170079211Y-93316983D01*
X169948787Y-93392283D01*
X169948777Y-93392291D01*
X169934874Y-93406195D01*
X169872562Y-93440221D01*
X169845779Y-93443100D01*
X168346427Y-93443100D01*
X168242943Y-93470829D01*
X168242940Y-93470830D01*
X168173159Y-93511119D01*
X168110159Y-93528000D01*
X168074695Y-93528000D01*
X167996735Y-93548889D01*
X167929218Y-93566980D01*
X167929211Y-93566983D01*
X167798787Y-93642283D01*
X167798777Y-93642291D01*
X167692291Y-93748777D01*
X167692283Y-93748787D01*
X167616983Y-93879211D01*
X167616980Y-93879218D01*
X167601595Y-93936638D01*
X167578192Y-94023981D01*
X167578000Y-94024696D01*
X167578000Y-94177023D01*
X167557998Y-94245144D01*
X167504342Y-94291637D01*
X167453043Y-94303019D01*
X161035743Y-94356133D01*
X160967459Y-94336695D01*
X160920524Y-94283426D01*
X160908700Y-94230137D01*
X160908700Y-89299692D01*
X160928702Y-89231571D01*
X160945605Y-89210597D01*
X161460597Y-88695605D01*
X161522909Y-88661579D01*
X161549692Y-88658700D01*
X164230226Y-88658700D01*
X164298347Y-88678702D01*
X164344840Y-88732358D01*
X164354944Y-88802632D01*
X164325450Y-88867212D01*
X164304287Y-88886636D01*
X164220464Y-88947536D01*
X164097536Y-89070464D01*
X163995349Y-89211112D01*
X163916421Y-89366017D01*
X163916418Y-89366023D01*
X163862698Y-89531357D01*
X163862697Y-89531360D01*
X163862697Y-89531362D01*
X163835500Y-89703074D01*
X163835500Y-89876926D01*
X163862697Y-90048638D01*
X163862698Y-90048642D01*
X163893126Y-90142291D01*
X163916420Y-90213981D01*
X163934153Y-90248784D01*
X163995349Y-90368887D01*
X164097536Y-90509535D01*
X164220464Y-90632463D01*
X164267974Y-90666981D01*
X164361116Y-90734653D01*
X164516019Y-90813580D01*
X164681362Y-90867303D01*
X164853074Y-90894500D01*
X164853077Y-90894500D01*
X165026923Y-90894500D01*
X165026926Y-90894500D01*
X165198638Y-90867303D01*
X165363981Y-90813580D01*
X165518884Y-90734653D01*
X165659533Y-90632465D01*
X165782465Y-90509533D01*
X165884653Y-90368884D01*
X165963580Y-90213981D01*
X166017303Y-90048638D01*
X166044500Y-89876926D01*
X166044500Y-89703074D01*
X166017303Y-89531362D01*
X165963580Y-89366019D01*
X165884653Y-89211116D01*
X165782465Y-89070467D01*
X165782463Y-89070464D01*
X165659535Y-88947536D01*
X165514879Y-88842437D01*
X165515633Y-88841398D01*
X165471976Y-88793138D01*
X165460373Y-88723096D01*
X165488479Y-88657900D01*
X165522441Y-88629242D01*
X165594653Y-88587551D01*
X166408275Y-87773926D01*
X166408285Y-87773919D01*
X166484945Y-87697259D01*
X166484951Y-87697253D01*
X166531833Y-87616052D01*
X166556100Y-87525483D01*
X166556100Y-86825999D01*
X171142776Y-86825999D01*
X171142776Y-86826000D01*
X171959940Y-86826000D01*
X171935795Y-86839940D01*
X171879940Y-86895795D01*
X171840444Y-86964204D01*
X171820000Y-87040504D01*
X171820000Y-87119496D01*
X171840444Y-87195796D01*
X171879940Y-87264205D01*
X171935795Y-87320060D01*
X171959940Y-87334000D01*
X171142776Y-87334000D01*
X171150737Y-87374023D01*
X171150739Y-87374028D01*
X171226722Y-87557466D01*
X171337032Y-87722557D01*
X171337037Y-87722564D01*
X171477435Y-87862962D01*
X171477442Y-87862967D01*
X171642533Y-87973277D01*
X171825971Y-88049260D01*
X171825976Y-88049262D01*
X172020718Y-88087999D01*
X172020722Y-88088000D01*
X172416000Y-88088000D01*
X172416000Y-87380000D01*
X172924000Y-87380000D01*
X172924000Y-87932072D01*
X172903998Y-88000193D01*
X172861001Y-88041191D01*
X172846635Y-88049484D01*
X172846628Y-88049490D01*
X172739490Y-88156628D01*
X172739482Y-88156638D01*
X172663721Y-88287860D01*
X172663718Y-88287867D01*
X172655233Y-88319535D01*
X172624500Y-88434234D01*
X172624500Y-88585766D01*
X172644814Y-88661579D01*
X172663718Y-88732132D01*
X172663721Y-88732139D01*
X172739482Y-88863361D01*
X172739490Y-88863371D01*
X172846628Y-88970509D01*
X172846633Y-88970513D01*
X172846635Y-88970515D01*
X172977865Y-89046281D01*
X173124234Y-89085500D01*
X173124236Y-89085500D01*
X173275764Y-89085500D01*
X173275766Y-89085500D01*
X173422135Y-89046281D01*
X173553365Y-88970515D01*
X173660515Y-88863365D01*
X173736281Y-88732135D01*
X173775500Y-88585766D01*
X173775500Y-88434234D01*
X173736281Y-88287865D01*
X173660515Y-88156635D01*
X173656386Y-88149483D01*
X173658063Y-88148514D01*
X173636295Y-88092229D01*
X173650552Y-88022678D01*
X173693580Y-87978602D01*
X173692320Y-87976717D01*
X173862557Y-87862967D01*
X173862564Y-87862962D01*
X174002962Y-87722564D01*
X174002967Y-87722557D01*
X174113277Y-87557466D01*
X174189260Y-87374028D01*
X174189262Y-87374023D01*
X174197224Y-87334000D01*
X173380060Y-87334000D01*
X173404205Y-87320060D01*
X173460060Y-87264205D01*
X173499556Y-87195796D01*
X173520000Y-87119496D01*
X173520000Y-87040504D01*
X173499556Y-86964204D01*
X173460060Y-86895795D01*
X173404205Y-86839940D01*
X173380060Y-86826000D01*
X174197224Y-86826000D01*
X174197223Y-86825999D01*
X175572776Y-86825999D01*
X175572776Y-86826000D01*
X176389940Y-86826000D01*
X176365795Y-86839940D01*
X176309940Y-86895795D01*
X176270444Y-86964204D01*
X176250000Y-87040504D01*
X176250000Y-87119496D01*
X176270444Y-87195796D01*
X176309940Y-87264205D01*
X176365795Y-87320060D01*
X176389940Y-87334000D01*
X175572776Y-87334000D01*
X175580737Y-87374023D01*
X175580739Y-87374028D01*
X175656722Y-87557466D01*
X175767032Y-87722557D01*
X175767037Y-87722564D01*
X175907435Y-87862962D01*
X175907442Y-87862967D01*
X176072533Y-87973277D01*
X176255971Y-88049260D01*
X176255976Y-88049262D01*
X176450718Y-88087999D01*
X176450722Y-88088000D01*
X176596000Y-88088000D01*
X176596000Y-87380000D01*
X177104000Y-87380000D01*
X177104000Y-88088000D01*
X177249278Y-88088000D01*
X177249281Y-88087999D01*
X177444023Y-88049262D01*
X177444028Y-88049260D01*
X177627466Y-87973277D01*
X177792557Y-87862967D01*
X177792564Y-87862962D01*
X177932962Y-87722564D01*
X177932967Y-87722557D01*
X178043277Y-87557466D01*
X178119260Y-87374028D01*
X178119262Y-87374023D01*
X178127224Y-87334000D01*
X177310060Y-87334000D01*
X177334205Y-87320060D01*
X177390060Y-87264205D01*
X177429556Y-87195796D01*
X177450000Y-87119496D01*
X177450000Y-87040504D01*
X177429556Y-86964204D01*
X177390060Y-86895795D01*
X177334205Y-86839940D01*
X177310060Y-86826000D01*
X178127224Y-86826000D01*
X178127223Y-86825999D01*
X178119262Y-86785976D01*
X178119260Y-86785971D01*
X178043277Y-86602533D01*
X177932967Y-86437442D01*
X177932962Y-86437435D01*
X177792564Y-86297037D01*
X177792557Y-86297032D01*
X177627466Y-86186722D01*
X177444028Y-86110739D01*
X177444023Y-86110737D01*
X177249281Y-86072000D01*
X177104000Y-86072000D01*
X177104000Y-86780000D01*
X176596000Y-86780000D01*
X176596000Y-86072000D01*
X176450718Y-86072000D01*
X176255976Y-86110737D01*
X176255971Y-86110739D01*
X176072533Y-86186722D01*
X175907442Y-86297032D01*
X175907435Y-86297037D01*
X175767037Y-86437435D01*
X175767032Y-86437442D01*
X175656722Y-86602533D01*
X175580739Y-86785971D01*
X175580737Y-86785976D01*
X175572776Y-86825999D01*
X174197223Y-86825999D01*
X174189262Y-86785976D01*
X174189260Y-86785971D01*
X174113277Y-86602533D01*
X174002967Y-86437442D01*
X174002962Y-86437435D01*
X173862564Y-86297037D01*
X173862557Y-86297032D01*
X173697466Y-86186722D01*
X173514028Y-86110739D01*
X173514023Y-86110737D01*
X173319281Y-86072000D01*
X172924000Y-86072000D01*
X172924000Y-86780000D01*
X172416000Y-86780000D01*
X172416000Y-86072000D01*
X172020718Y-86072000D01*
X171825976Y-86110737D01*
X171825971Y-86110739D01*
X171642533Y-86186722D01*
X171477442Y-86297032D01*
X171477435Y-86297037D01*
X171337037Y-86437435D01*
X171337032Y-86437442D01*
X171226722Y-86602533D01*
X171150739Y-86785971D01*
X171150737Y-86785976D01*
X171142776Y-86825999D01*
X166556100Y-86825999D01*
X166556100Y-85923119D01*
X166531833Y-85832550D01*
X166505708Y-85787301D01*
X166484953Y-85751352D01*
X166484949Y-85751347D01*
X166458297Y-85724695D01*
X166418651Y-85685049D01*
X165994635Y-85261033D01*
X165960609Y-85198721D01*
X165963896Y-85133006D01*
X166017303Y-84968638D01*
X166044500Y-84796926D01*
X166044500Y-84623074D01*
X166017303Y-84451362D01*
X165963580Y-84286019D01*
X165884653Y-84131116D01*
X165782465Y-83990467D01*
X165782463Y-83990464D01*
X165659535Y-83867536D01*
X165518887Y-83765349D01*
X165518886Y-83765348D01*
X165518884Y-83765347D01*
X165363981Y-83686420D01*
X165363978Y-83686419D01*
X165363976Y-83686418D01*
X165198642Y-83632698D01*
X165198640Y-83632697D01*
X165198638Y-83632697D01*
X165026926Y-83605500D01*
X164853074Y-83605500D01*
X164681362Y-83632697D01*
X164681360Y-83632697D01*
X164681357Y-83632698D01*
X164516023Y-83686418D01*
X164516017Y-83686421D01*
X164361112Y-83765349D01*
X164220464Y-83867536D01*
X164097536Y-83990464D01*
X163995349Y-84131112D01*
X163916421Y-84286017D01*
X163916418Y-84286023D01*
X163862698Y-84451357D01*
X163862697Y-84451360D01*
X163862697Y-84451362D01*
X163835500Y-84623074D01*
X163835500Y-84796926D01*
X163862697Y-84968638D01*
X163862698Y-84968642D01*
X163916101Y-85133001D01*
X163916420Y-85133981D01*
X163995347Y-85288884D01*
X163995349Y-85288887D01*
X164097536Y-85429535D01*
X164220464Y-85552463D01*
X164257286Y-85579216D01*
X164361116Y-85654653D01*
X164516019Y-85733580D01*
X164681362Y-85787303D01*
X164853074Y-85814500D01*
X164853077Y-85814500D01*
X165026923Y-85814500D01*
X165026926Y-85814500D01*
X165198638Y-85787303D01*
X165363005Y-85733896D01*
X165433969Y-85731869D01*
X165491033Y-85764635D01*
X165806995Y-86080597D01*
X165821939Y-86107965D01*
X165838796Y-86134194D01*
X165839701Y-86140492D01*
X165841021Y-86142909D01*
X165843900Y-86169692D01*
X165843900Y-86294196D01*
X165823898Y-86362317D01*
X165770242Y-86408810D01*
X165699968Y-86418914D01*
X165643839Y-86396132D01*
X165518887Y-86305349D01*
X165518886Y-86305348D01*
X165518884Y-86305347D01*
X165363981Y-86226420D01*
X165363978Y-86226419D01*
X165363976Y-86226418D01*
X165198642Y-86172698D01*
X165198640Y-86172697D01*
X165198638Y-86172697D01*
X165026926Y-86145500D01*
X164853074Y-86145500D01*
X164681362Y-86172697D01*
X164681360Y-86172697D01*
X164681357Y-86172698D01*
X164516023Y-86226418D01*
X164516017Y-86226421D01*
X164361112Y-86305349D01*
X164220464Y-86407536D01*
X164097536Y-86530464D01*
X164036100Y-86615024D01*
X163995347Y-86671116D01*
X163916887Y-86825103D01*
X163868139Y-86876718D01*
X163804620Y-86893900D01*
X159579692Y-86893900D01*
X159511571Y-86873898D01*
X159490596Y-86856995D01*
X158848653Y-86215051D01*
X158848647Y-86215046D01*
X158767454Y-86168169D01*
X158767452Y-86168168D01*
X158767450Y-86168167D01*
X158676881Y-86143900D01*
X158676880Y-86143900D01*
X141899692Y-86143900D01*
X141831571Y-86123898D01*
X141810597Y-86106995D01*
X140318657Y-84615054D01*
X140318647Y-84615046D01*
X140237454Y-84568169D01*
X140237452Y-84568168D01*
X140237450Y-84568167D01*
X140146881Y-84543900D01*
X140146880Y-84543900D01*
X138954615Y-84543900D01*
X138954599Y-84543899D01*
X138946881Y-84543899D01*
X138853119Y-84543899D01*
X138781689Y-84563037D01*
X138781689Y-84563038D01*
X138777644Y-84564121D01*
X138762550Y-84568166D01*
X138681349Y-84615048D01*
X138681342Y-84615054D01*
X137189403Y-86106995D01*
X137127091Y-86141020D01*
X137100308Y-86143900D01*
X131770813Y-86143900D01*
X131702692Y-86123898D01*
X131656199Y-86070242D01*
X131646095Y-85999968D01*
X131675589Y-85935388D01*
X131681718Y-85928805D01*
X132366118Y-85244405D01*
X132428430Y-85210379D01*
X132455213Y-85207500D01*
X132510803Y-85207500D01*
X132510805Y-85207500D01*
X132656284Y-85168519D01*
X132786716Y-85093214D01*
X132893214Y-84986716D01*
X132968519Y-84856284D01*
X133007500Y-84710805D01*
X133007500Y-84560195D01*
X132968519Y-84414716D01*
X132893214Y-84284284D01*
X132893212Y-84284282D01*
X132893208Y-84284277D01*
X132786722Y-84177791D01*
X132786712Y-84177783D01*
X132656288Y-84102483D01*
X132656285Y-84102482D01*
X132656284Y-84102481D01*
X132656282Y-84102480D01*
X132656281Y-84102480D01*
X132617300Y-84092035D01*
X132510805Y-84063500D01*
X132360195Y-84063500D01*
X132282235Y-84084389D01*
X132214718Y-84102480D01*
X132214711Y-84102483D01*
X132084287Y-84177783D01*
X132084277Y-84177791D01*
X131977791Y-84284277D01*
X131977783Y-84284287D01*
X131902483Y-84414711D01*
X131902480Y-84414718D01*
X131863500Y-84560196D01*
X131863500Y-84615787D01*
X131843498Y-84683908D01*
X131826595Y-84704882D01*
X131149882Y-85381595D01*
X131087570Y-85415621D01*
X131060787Y-85418500D01*
X129079620Y-85418500D01*
X129011499Y-85398498D01*
X128990524Y-85381594D01*
X128951221Y-85342291D01*
X128951216Y-85342286D01*
X128951214Y-85342284D01*
X128951212Y-85342283D01*
X128820788Y-85266983D01*
X128820785Y-85266982D01*
X128820784Y-85266981D01*
X128820782Y-85266980D01*
X128820781Y-85266980D01*
X128780176Y-85256100D01*
X128675305Y-85228000D01*
X128524695Y-85228000D01*
X128463471Y-85244405D01*
X128379218Y-85266980D01*
X128379211Y-85266983D01*
X128248787Y-85342283D01*
X128248777Y-85342291D01*
X128142291Y-85448777D01*
X128142283Y-85448787D01*
X128066983Y-85579211D01*
X128066980Y-85579218D01*
X128046768Y-85654653D01*
X128028000Y-85724695D01*
X128028000Y-85875305D01*
X128057470Y-85985291D01*
X128055781Y-86056265D01*
X128015987Y-86115061D01*
X127950723Y-86143009D01*
X127935764Y-86143900D01*
X119293119Y-86143900D01*
X119202553Y-86168166D01*
X119202545Y-86168169D01*
X119121352Y-86215046D01*
X119121347Y-86215050D01*
X119088198Y-86248199D01*
X119055049Y-86281349D01*
X115589403Y-89746995D01*
X115527091Y-89781021D01*
X115500308Y-89783900D01*
X112735380Y-89783900D01*
X112720540Y-89779542D01*
X112705092Y-89780205D01*
X112687171Y-89769744D01*
X112667259Y-89763898D01*
X112656184Y-89751657D01*
X112643777Y-89744415D01*
X112623113Y-89715103D01*
X112622894Y-89714674D01*
X112551371Y-89574302D01*
X112538268Y-89504526D01*
X112564968Y-89438741D01*
X112622996Y-89397835D01*
X112663639Y-89391100D01*
X113384823Y-89391100D01*
X113384825Y-89391100D01*
X113481854Y-89365101D01*
X113481857Y-89365099D01*
X113481858Y-89365099D01*
X113525350Y-89339988D01*
X113568847Y-89314876D01*
X113639876Y-89243847D01*
X114049476Y-88834247D01*
X114083477Y-88775355D01*
X114099700Y-88747257D01*
X114099700Y-88747256D01*
X114099702Y-88747253D01*
X114125700Y-88650225D01*
X114125700Y-88549775D01*
X114125700Y-79849775D01*
X114125700Y-79533975D01*
X114099701Y-79436946D01*
X114099699Y-79436943D01*
X114099699Y-79436941D01*
X114049478Y-79349956D01*
X114049474Y-79349951D01*
X113978447Y-79278924D01*
X113794247Y-79094724D01*
X112741404Y-78041881D01*
X112707378Y-77979569D01*
X112704499Y-77952786D01*
X112704499Y-76817100D01*
X112724501Y-76748979D01*
X112778157Y-76702486D01*
X112830499Y-76691100D01*
X113900308Y-76691100D01*
X113968429Y-76711102D01*
X113989403Y-76728005D01*
X114615049Y-77353651D01*
X114681349Y-77419951D01*
X114762550Y-77466833D01*
X114853119Y-77491100D01*
X114946881Y-77491100D01*
X154145308Y-77491100D01*
X154213429Y-77511102D01*
X154234403Y-77528005D01*
X159090638Y-82384239D01*
X159090659Y-82384262D01*
X159161342Y-82454945D01*
X159161347Y-82454949D01*
X159161349Y-82454951D01*
X159242550Y-82501833D01*
X159333119Y-82526100D01*
X163709501Y-82526100D01*
X163777622Y-82546102D01*
X163824115Y-82599758D01*
X163835501Y-82652100D01*
X163835501Y-83045072D01*
X163850265Y-83119300D01*
X163906516Y-83203484D01*
X163990697Y-83259733D01*
X163990699Y-83259734D01*
X164064933Y-83274500D01*
X165815066Y-83274499D01*
X165815069Y-83274498D01*
X165815073Y-83274498D01*
X165864326Y-83264701D01*
X165889301Y-83259734D01*
X165973484Y-83203484D01*
X166029734Y-83119301D01*
X166044500Y-83045067D01*
X166044499Y-81294934D01*
X166044498Y-81294930D01*
X166044498Y-81294926D01*
X166029734Y-81220699D01*
X165976790Y-81141464D01*
X165973484Y-81136516D01*
X165973483Y-81136515D01*
X165889302Y-81080266D01*
X165815067Y-81065500D01*
X164064936Y-81065500D01*
X164064926Y-81065501D01*
X163990699Y-81080265D01*
X163906515Y-81136516D01*
X163850266Y-81220697D01*
X163835500Y-81294930D01*
X163835500Y-81687900D01*
X163815498Y-81756021D01*
X163761842Y-81802514D01*
X163709500Y-81813900D01*
X159579691Y-81813900D01*
X159511570Y-81793898D01*
X159490596Y-81776995D01*
X154563657Y-76850054D01*
X154563647Y-76850046D01*
X154482454Y-76803169D01*
X154482452Y-76803168D01*
X154482450Y-76803167D01*
X154391881Y-76778900D01*
X154391880Y-76778900D01*
X115099692Y-76778900D01*
X115031571Y-76758898D01*
X115010601Y-76741999D01*
X114318651Y-76050049D01*
X114318649Y-76050048D01*
X114318647Y-76050046D01*
X114237454Y-76003169D01*
X114237452Y-76003168D01*
X114237450Y-76003167D01*
X114146881Y-75978900D01*
X110118119Y-75978900D01*
X110027553Y-76003166D01*
X110027545Y-76003169D01*
X109957002Y-76043897D01*
X109956999Y-76043900D01*
X109946354Y-76050046D01*
X109946349Y-76050049D01*
X109946345Y-76050052D01*
X109913847Y-76082550D01*
X109881349Y-76115049D01*
X109848199Y-76148198D01*
X109815050Y-76181347D01*
X109815046Y-76181352D01*
X109768169Y-76262545D01*
X109768166Y-76262553D01*
X109743900Y-76353119D01*
X109743900Y-78196880D01*
X109768166Y-78287446D01*
X109768169Y-78287454D01*
X109815047Y-78368649D01*
X110205643Y-78759244D01*
X110205664Y-78759267D01*
X110276342Y-78829945D01*
X110276347Y-78829949D01*
X110276349Y-78829951D01*
X110357550Y-78876833D01*
X110448119Y-78901100D01*
X110828120Y-78901100D01*
X110896241Y-78921102D01*
X110917215Y-78938005D01*
X111475052Y-79495842D01*
X111407007Y-79514075D01*
X111292993Y-79579901D01*
X111199901Y-79672993D01*
X111134075Y-79787007D01*
X111115842Y-79855051D01*
X110476622Y-79215831D01*
X110476621Y-79215831D01*
X110438534Y-79268253D01*
X110341493Y-79458707D01*
X110341490Y-79458713D01*
X110275440Y-79661996D01*
X110242000Y-79873126D01*
X110242000Y-80086873D01*
X110275440Y-80298003D01*
X110341490Y-80501286D01*
X110341493Y-80501292D01*
X110438535Y-80691748D01*
X110438536Y-80691750D01*
X110476620Y-80744167D01*
X110476621Y-80744168D01*
X111115841Y-80104947D01*
X111134075Y-80172993D01*
X111199901Y-80287007D01*
X111292993Y-80380099D01*
X111407007Y-80445925D01*
X111475051Y-80464157D01*
X110835831Y-81103378D01*
X110888249Y-81141463D01*
X110888251Y-81141464D01*
X111078707Y-81238506D01*
X111078709Y-81238507D01*
X111157908Y-81264241D01*
X111216513Y-81304315D01*
X111244150Y-81369711D01*
X111232043Y-81439668D01*
X111184037Y-81491974D01*
X111176174Y-81496341D01*
X111021113Y-81575348D01*
X110880464Y-81677536D01*
X110757536Y-81800464D01*
X110655349Y-81941112D01*
X110576421Y-82096017D01*
X110576418Y-82096023D01*
X110522698Y-82261357D01*
X110522697Y-82261360D01*
X110522697Y-82261362D01*
X110495500Y-82433074D01*
X110495500Y-82606926D01*
X110522697Y-82778638D01*
X110576420Y-82943981D01*
X110655347Y-83098884D01*
X110655349Y-83098887D01*
X110757536Y-83239535D01*
X110880464Y-83362463D01*
X110880467Y-83362465D01*
X111021116Y-83464653D01*
X111176019Y-83543580D01*
X111341362Y-83597303D01*
X111513074Y-83624500D01*
X111513077Y-83624500D01*
X111686923Y-83624500D01*
X111686926Y-83624500D01*
X111858638Y-83597303D01*
X112023981Y-83543580D01*
X112178884Y-83464653D01*
X112319533Y-83362465D01*
X112442465Y-83239533D01*
X112544653Y-83098884D01*
X112623580Y-82943981D01*
X112677303Y-82778638D01*
X112704500Y-82606926D01*
X112704500Y-82433074D01*
X112677303Y-82261362D01*
X112623580Y-82096019D01*
X112544653Y-81941116D01*
X112442465Y-81800467D01*
X112442463Y-81800464D01*
X112319535Y-81677536D01*
X112178887Y-81575349D01*
X112178886Y-81575348D01*
X112178884Y-81575347D01*
X112023981Y-81496420D01*
X112023978Y-81496419D01*
X112023825Y-81496341D01*
X111972210Y-81447593D01*
X111955144Y-81378678D01*
X111978045Y-81311476D01*
X112033642Y-81267324D01*
X112042092Y-81264241D01*
X112121286Y-81238509D01*
X112121292Y-81238506D01*
X112311750Y-81141463D01*
X112364167Y-81103378D01*
X112364167Y-81103376D01*
X111724948Y-80464157D01*
X111792993Y-80445925D01*
X111907007Y-80380099D01*
X112000099Y-80287007D01*
X112065925Y-80172993D01*
X112084157Y-80104948D01*
X112723376Y-80744167D01*
X112723378Y-80744167D01*
X112761463Y-80691750D01*
X112767833Y-80679250D01*
X112816581Y-80627635D01*
X112885496Y-80610569D01*
X112952698Y-80633470D01*
X112996850Y-80689067D01*
X113006100Y-80736453D01*
X113006100Y-85900308D01*
X112986098Y-85968429D01*
X112969195Y-85989403D01*
X112804203Y-86154395D01*
X112741891Y-86188421D01*
X112715108Y-86191300D01*
X112309774Y-86191300D01*
X112241653Y-86171298D01*
X112195160Y-86117642D01*
X112185056Y-86047368D01*
X112214550Y-85982788D01*
X112235713Y-85963364D01*
X112250669Y-85952498D01*
X112319533Y-85902465D01*
X112442465Y-85779533D01*
X112544653Y-85638884D01*
X112623580Y-85483981D01*
X112677303Y-85318638D01*
X112704500Y-85146926D01*
X112704500Y-84973074D01*
X112677303Y-84801362D01*
X112623580Y-84636019D01*
X112544653Y-84481116D01*
X112442465Y-84340467D01*
X112442463Y-84340464D01*
X112319535Y-84217536D01*
X112178887Y-84115349D01*
X112178886Y-84115348D01*
X112178884Y-84115347D01*
X112023981Y-84036420D01*
X112023978Y-84036419D01*
X112023976Y-84036418D01*
X111858642Y-83982698D01*
X111858640Y-83982697D01*
X111858638Y-83982697D01*
X111686926Y-83955500D01*
X111513074Y-83955500D01*
X111341362Y-83982697D01*
X111341360Y-83982697D01*
X111341357Y-83982698D01*
X111176023Y-84036418D01*
X111176017Y-84036421D01*
X111021112Y-84115349D01*
X110880464Y-84217536D01*
X110757536Y-84340464D01*
X110655349Y-84481112D01*
X110576421Y-84636017D01*
X110576418Y-84636023D01*
X110522698Y-84801357D01*
X110522697Y-84801360D01*
X110522697Y-84801362D01*
X110495500Y-84973074D01*
X110495500Y-85146926D01*
X110517985Y-85288887D01*
X110522698Y-85318642D01*
X110564984Y-85448787D01*
X110576420Y-85483981D01*
X110624945Y-85579216D01*
X110655349Y-85638887D01*
X110757536Y-85779535D01*
X110880464Y-85902463D01*
X111025121Y-86007563D01*
X111024792Y-86008015D01*
X111027637Y-86009000D01*
X111047001Y-86033622D01*
X111068013Y-86056842D01*
X111068747Y-86061273D01*
X111071526Y-86064806D01*
X111074504Y-86095985D01*
X111079628Y-86126882D01*
X111077849Y-86131008D01*
X111078277Y-86135481D01*
X111063925Y-86163320D01*
X111051531Y-86192083D01*
X111047224Y-86195717D01*
X111045746Y-86198586D01*
X111017556Y-86220756D01*
X110958336Y-86254949D01*
X110958334Y-86254950D01*
X110945353Y-86262444D01*
X110945340Y-86262454D01*
X109943591Y-87264205D01*
X109699348Y-87508448D01*
X109682316Y-87525480D01*
X109633049Y-87574746D01*
X109633045Y-87574751D01*
X109586168Y-87655944D01*
X109586165Y-87655952D01*
X109561899Y-87746518D01*
X109561899Y-91434202D01*
X109541897Y-91502323D01*
X109488241Y-91548816D01*
X109435384Y-91560201D01*
X96226315Y-91506234D01*
X96158277Y-91485954D01*
X96112003Y-91432109D01*
X96100830Y-91380235D01*
X96100830Y-75226830D01*
X96120832Y-75158709D01*
X96174488Y-75112216D01*
X96226830Y-75100830D01*
X178773170Y-75100830D01*
X178841291Y-75120832D01*
G37*
G04 #@! TD.AperFunction*
G04 #@! TA.AperFunction,Conductor*
G36*
X137722183Y-92176102D02*
G01*
X137743157Y-92193005D01*
X140594187Y-95044035D01*
X143318643Y-97768490D01*
X143352669Y-97830802D01*
X143355528Y-97855357D01*
X143357692Y-97977721D01*
X143354170Y-97990550D01*
X143355435Y-98003794D01*
X143344953Y-98024125D01*
X143338898Y-98046185D01*
X143328257Y-98056512D01*
X143322903Y-98066898D01*
X143294713Y-98089068D01*
X143244438Y-98118095D01*
X143209754Y-98138119D01*
X143146755Y-98155000D01*
X142836515Y-98155000D01*
X142768394Y-98134998D01*
X142747420Y-98118095D01*
X140693304Y-96063979D01*
X140660692Y-96007495D01*
X140656540Y-95992000D01*
X140633019Y-95904216D01*
X140557714Y-95773784D01*
X140557712Y-95773782D01*
X140557708Y-95773777D01*
X140451222Y-95667291D01*
X140451212Y-95667283D01*
X140320788Y-95591983D01*
X140320785Y-95591982D01*
X140320784Y-95591981D01*
X140320782Y-95591980D01*
X140320781Y-95591980D01*
X140281800Y-95581535D01*
X140175305Y-95553000D01*
X140024695Y-95553000D01*
X139946735Y-95573889D01*
X139879218Y-95591980D01*
X139879211Y-95591983D01*
X139748787Y-95667283D01*
X139748777Y-95667291D01*
X139642291Y-95773777D01*
X139642283Y-95773787D01*
X139566983Y-95904211D01*
X139566981Y-95904216D01*
X139528000Y-96049695D01*
X139528000Y-96200305D01*
X139532032Y-96215352D01*
X139566980Y-96345781D01*
X139566983Y-96345788D01*
X139642283Y-96476212D01*
X139642291Y-96476222D01*
X139748777Y-96582708D01*
X139748782Y-96582712D01*
X139748784Y-96582714D01*
X139748785Y-96582715D01*
X139748787Y-96582716D01*
X139840464Y-96635645D01*
X139879216Y-96658019D01*
X140024695Y-96697000D01*
X140024707Y-96697000D01*
X140031782Y-96697932D01*
X140096710Y-96726653D01*
X140104435Y-96733760D01*
X142326757Y-98956083D01*
X142326762Y-98956087D01*
X142326764Y-98956089D01*
X142326765Y-98956090D01*
X142326767Y-98956091D01*
X142368433Y-98980147D01*
X142428237Y-99014675D01*
X142541414Y-99045000D01*
X142541415Y-99045000D01*
X142982754Y-99045000D01*
X143050875Y-99065002D01*
X143097368Y-99118658D01*
X143108754Y-99171000D01*
X143108754Y-106909731D01*
X143088752Y-106977852D01*
X143071849Y-106998826D01*
X141576763Y-108493912D01*
X141326764Y-108743911D01*
X141285338Y-108785337D01*
X141243912Y-108826762D01*
X141243908Y-108826767D01*
X141185324Y-108928238D01*
X141173159Y-108973641D01*
X141140549Y-109030124D01*
X140573129Y-109597545D01*
X140516645Y-109630156D01*
X140379223Y-109666978D01*
X140379211Y-109666983D01*
X140256001Y-109738119D01*
X140193001Y-109755000D01*
X130741413Y-109755000D01*
X130684824Y-109770163D01*
X130684823Y-109770162D01*
X130628243Y-109785323D01*
X130628231Y-109785328D01*
X130526767Y-109843908D01*
X130526763Y-109843912D01*
X114205813Y-126164860D01*
X114179720Y-126184883D01*
X114146767Y-126203909D01*
X114146756Y-126203917D01*
X112566627Y-127784046D01*
X112504315Y-127818072D01*
X112457821Y-127819399D01*
X112306926Y-127795500D01*
X112133074Y-127795500D01*
X111961362Y-127822697D01*
X111961360Y-127822697D01*
X111961357Y-127822698D01*
X111796023Y-127876418D01*
X111796017Y-127876421D01*
X111641112Y-127955349D01*
X111500464Y-128057536D01*
X111377536Y-128180464D01*
X111275349Y-128321112D01*
X111196421Y-128476017D01*
X111196418Y-128476023D01*
X111142698Y-128641357D01*
X111142697Y-128641360D01*
X111142697Y-128641362D01*
X111115500Y-128813074D01*
X111115500Y-128986926D01*
X111125683Y-129051216D01*
X111142698Y-129158642D01*
X111196369Y-129323826D01*
X111196420Y-129323981D01*
X111275347Y-129478884D01*
X111275349Y-129478887D01*
X111377536Y-129619535D01*
X111500464Y-129742463D01*
X111545342Y-129775069D01*
X111641116Y-129844653D01*
X111796019Y-129923580D01*
X111961362Y-129977303D01*
X112133074Y-130004500D01*
X112133077Y-130004500D01*
X112306923Y-130004500D01*
X112306926Y-130004500D01*
X112478638Y-129977303D01*
X112643981Y-129923580D01*
X112798884Y-129844653D01*
X112939533Y-129742465D01*
X113062465Y-129619533D01*
X113164653Y-129478884D01*
X113243580Y-129323981D01*
X113243581Y-129323975D01*
X113243658Y-129323826D01*
X113292406Y-129272210D01*
X113361321Y-129255144D01*
X113428522Y-129278044D01*
X113472675Y-129333642D01*
X113475758Y-129342091D01*
X113501492Y-129421289D01*
X113501493Y-129421292D01*
X113598535Y-129611748D01*
X113598536Y-129611750D01*
X113636620Y-129664167D01*
X113636621Y-129664168D01*
X114275841Y-129024947D01*
X114294075Y-129092993D01*
X114359901Y-129207007D01*
X114452993Y-129300099D01*
X114567007Y-129365925D01*
X114635051Y-129384157D01*
X113995831Y-130023378D01*
X114048249Y-130061463D01*
X114048251Y-130061464D01*
X114238707Y-130158506D01*
X114238713Y-130158509D01*
X114441996Y-130224559D01*
X114653126Y-130258000D01*
X114866874Y-130258000D01*
X115078003Y-130224559D01*
X115281286Y-130158509D01*
X115281292Y-130158506D01*
X115471750Y-130061463D01*
X115524167Y-130023378D01*
X115524167Y-130023376D01*
X114884948Y-129384157D01*
X114952993Y-129365925D01*
X115067007Y-129300099D01*
X115160099Y-129207007D01*
X115225925Y-129092993D01*
X115244157Y-129024948D01*
X115883376Y-129664167D01*
X115883378Y-129664167D01*
X115921463Y-129611750D01*
X115957232Y-129541549D01*
X116005980Y-129489933D01*
X116074895Y-129472866D01*
X116142096Y-129495766D01*
X116186250Y-129551363D01*
X116195500Y-129598749D01*
X116195500Y-129775063D01*
X116195501Y-129775073D01*
X116210265Y-129849300D01*
X116266516Y-129933484D01*
X116350697Y-129989733D01*
X116350699Y-129989734D01*
X116424933Y-130004500D01*
X118175066Y-130004499D01*
X118175069Y-130004498D01*
X118175073Y-130004498D01*
X118224326Y-129994701D01*
X118249301Y-129989734D01*
X118333484Y-129933484D01*
X118389734Y-129849301D01*
X118404500Y-129775067D01*
X118404499Y-128231290D01*
X118424501Y-128163170D01*
X118441399Y-128142201D01*
X127584951Y-118998651D01*
X127631833Y-118917450D01*
X127656100Y-118826881D01*
X127656100Y-118733119D01*
X127656100Y-116505020D01*
X127676102Y-116436899D01*
X127693000Y-116415929D01*
X127757714Y-116351216D01*
X127833019Y-116220784D01*
X127872000Y-116075305D01*
X127872000Y-115924695D01*
X127833019Y-115779216D01*
X127757714Y-115648784D01*
X127757712Y-115648782D01*
X127757708Y-115648777D01*
X127651222Y-115542291D01*
X127651212Y-115542283D01*
X127520788Y-115466983D01*
X127520785Y-115466982D01*
X127520784Y-115466981D01*
X127520782Y-115466980D01*
X127520781Y-115466980D01*
X127481800Y-115456535D01*
X127375305Y-115428000D01*
X127224695Y-115428000D01*
X127146735Y-115448889D01*
X127079218Y-115466980D01*
X127079211Y-115466983D01*
X126948787Y-115542283D01*
X126948777Y-115542291D01*
X126842291Y-115648777D01*
X126842283Y-115648787D01*
X126766983Y-115779211D01*
X126766981Y-115779216D01*
X126728000Y-115924695D01*
X126728000Y-116075305D01*
X126756535Y-116181800D01*
X126766980Y-116220781D01*
X126766983Y-116220788D01*
X126842283Y-116351212D01*
X126842285Y-116351215D01*
X126842286Y-116351216D01*
X126906996Y-116415926D01*
X126941020Y-116478236D01*
X126943900Y-116505020D01*
X126943900Y-118580307D01*
X126923898Y-118648428D01*
X126906995Y-118669402D01*
X117817801Y-127758595D01*
X117755489Y-127792621D01*
X117728706Y-127795500D01*
X116424936Y-127795500D01*
X116424926Y-127795501D01*
X116350699Y-127810265D01*
X116266515Y-127866516D01*
X116210266Y-127950697D01*
X116195500Y-128024930D01*
X116195500Y-128201247D01*
X116175498Y-128269368D01*
X116121842Y-128315861D01*
X116051568Y-128325965D01*
X115986988Y-128296471D01*
X115957233Y-128258450D01*
X115921464Y-128188251D01*
X115921463Y-128188249D01*
X115883378Y-128135831D01*
X115244157Y-128775051D01*
X115225925Y-128707007D01*
X115160099Y-128592993D01*
X115067007Y-128499901D01*
X114952993Y-128434075D01*
X114884947Y-128415841D01*
X115524168Y-127776621D01*
X115524167Y-127776620D01*
X115471750Y-127738536D01*
X115471748Y-127738535D01*
X115281292Y-127641493D01*
X115281286Y-127641490D01*
X115078003Y-127575440D01*
X114866874Y-127542000D01*
X114653126Y-127542000D01*
X114441994Y-127575440D01*
X114336595Y-127609686D01*
X114265628Y-127611713D01*
X114204830Y-127575050D01*
X114173505Y-127511338D01*
X114181599Y-127440804D01*
X114208562Y-127400761D01*
X114654195Y-126955128D01*
X114661172Y-126948660D01*
X114670091Y-126940997D01*
X114713236Y-126916089D01*
X114796089Y-126833236D01*
X130947420Y-110681905D01*
X131009732Y-110647879D01*
X131036515Y-110645000D01*
X140193001Y-110645000D01*
X140256001Y-110661881D01*
X140379216Y-110733019D01*
X140516648Y-110769843D01*
X140573129Y-110802454D01*
X141582395Y-111811720D01*
X141616421Y-111874032D01*
X141619300Y-111900815D01*
X141619300Y-126122885D01*
X141630547Y-126164860D01*
X141649625Y-126236061D01*
X141649627Y-126236066D01*
X141678897Y-126286763D01*
X141678898Y-126286764D01*
X141708209Y-126337533D01*
X141708217Y-126337543D01*
X143861931Y-128491256D01*
X143895956Y-128553568D01*
X143898816Y-128578123D01*
X143990644Y-133770942D01*
X143971850Y-133839406D01*
X143919025Y-133886840D01*
X143864664Y-133899170D01*
X96226830Y-133899170D01*
X96158709Y-133879168D01*
X96112216Y-133825512D01*
X96100830Y-133773170D01*
X96100830Y-128813074D01*
X106035500Y-128813074D01*
X106035500Y-128986926D01*
X106045683Y-129051216D01*
X106062698Y-129158642D01*
X106116369Y-129323826D01*
X106116420Y-129323981D01*
X106195347Y-129478884D01*
X106195349Y-129478887D01*
X106297536Y-129619535D01*
X106420464Y-129742463D01*
X106465342Y-129775069D01*
X106561116Y-129844653D01*
X106716019Y-129923580D01*
X106881362Y-129977303D01*
X107053074Y-130004500D01*
X107168708Y-130004500D01*
X107236829Y-130024502D01*
X107257803Y-130041405D01*
X109730638Y-132514239D01*
X109730659Y-132514262D01*
X109801342Y-132584945D01*
X109801347Y-132584949D01*
X109801349Y-132584951D01*
X109882550Y-132631833D01*
X109973119Y-132656100D01*
X109973121Y-132656100D01*
X128046879Y-132656100D01*
X128046881Y-132656100D01*
X128137450Y-132631833D01*
X128218651Y-132584951D01*
X131494697Y-129308905D01*
X131557009Y-129274879D01*
X131583792Y-129272000D01*
X131675303Y-129272000D01*
X131675305Y-129272000D01*
X131820784Y-129233019D01*
X131951216Y-129157714D01*
X132057714Y-129051216D01*
X132133019Y-128920784D01*
X132172000Y-128775305D01*
X132172000Y-128624695D01*
X132133019Y-128479216D01*
X132057714Y-128348784D01*
X132057712Y-128348782D01*
X132057708Y-128348777D01*
X131951222Y-128242291D01*
X131951212Y-128242283D01*
X131896818Y-128210879D01*
X131847825Y-128159496D01*
X131834389Y-128089783D01*
X131860775Y-128023872D01*
X131918608Y-127982690D01*
X131927178Y-127980062D01*
X131990784Y-127963019D01*
X132121216Y-127887714D01*
X132227714Y-127781216D01*
X132303019Y-127650784D01*
X132342000Y-127505305D01*
X132342000Y-127354695D01*
X132303019Y-127209216D01*
X132227714Y-127078784D01*
X132227712Y-127078782D01*
X132227708Y-127078777D01*
X132121222Y-126972291D01*
X132121212Y-126972283D01*
X131990788Y-126896983D01*
X131990785Y-126896982D01*
X131990784Y-126896981D01*
X131990782Y-126896980D01*
X131990781Y-126896980D01*
X131951800Y-126886535D01*
X131845305Y-126858000D01*
X131694695Y-126858000D01*
X131616735Y-126878889D01*
X131549218Y-126896980D01*
X131549211Y-126896983D01*
X131418787Y-126972283D01*
X131418777Y-126972291D01*
X131312291Y-127078777D01*
X131312283Y-127078787D01*
X131236983Y-127209211D01*
X131236980Y-127209218D01*
X131198000Y-127354696D01*
X131198000Y-127446208D01*
X131177998Y-127514329D01*
X131161095Y-127535303D01*
X128089403Y-130606995D01*
X128027091Y-130641021D01*
X128000308Y-130643900D01*
X111459692Y-130643900D01*
X111391571Y-130623898D01*
X111370597Y-130606995D01*
X110539928Y-129776326D01*
X110505902Y-129714014D01*
X110510967Y-129643199D01*
X110527082Y-129613178D01*
X110624653Y-129478884D01*
X110703580Y-129323981D01*
X110757303Y-129158638D01*
X110784500Y-128986926D01*
X110784500Y-128813074D01*
X110757303Y-128641362D01*
X110703580Y-128476019D01*
X110624653Y-128321116D01*
X110537563Y-128201247D01*
X110522463Y-128180464D01*
X110399535Y-128057536D01*
X110258887Y-127955349D01*
X110258886Y-127955348D01*
X110258884Y-127955347D01*
X110103981Y-127876420D01*
X110103978Y-127876419D01*
X110103976Y-127876418D01*
X109938642Y-127822698D01*
X109938640Y-127822697D01*
X109938638Y-127822697D01*
X109766926Y-127795500D01*
X109593074Y-127795500D01*
X109421362Y-127822697D01*
X109421360Y-127822697D01*
X109421357Y-127822698D01*
X109256023Y-127876418D01*
X109256017Y-127876421D01*
X109101112Y-127955349D01*
X108960464Y-128057536D01*
X108837536Y-128180464D01*
X108735349Y-128321112D01*
X108656421Y-128476017D01*
X108656418Y-128476023D01*
X108602698Y-128641357D01*
X108602697Y-128641360D01*
X108602697Y-128641362D01*
X108575500Y-128813074D01*
X108575500Y-128986926D01*
X108585683Y-129051216D01*
X108602698Y-129158642D01*
X108656369Y-129323826D01*
X108656420Y-129323981D01*
X108735347Y-129478884D01*
X108735349Y-129478887D01*
X108837536Y-129619535D01*
X108960464Y-129742463D01*
X109005342Y-129775069D01*
X109101116Y-129844653D01*
X109256019Y-129923580D01*
X109421362Y-129977303D01*
X109593074Y-130004500D01*
X109708708Y-130004500D01*
X109776829Y-130024502D01*
X109797803Y-130041405D01*
X110975049Y-131218651D01*
X111041349Y-131284951D01*
X111122550Y-131331833D01*
X111141689Y-131336961D01*
X111213119Y-131356101D01*
X111306881Y-131356101D01*
X111306885Y-131356100D01*
X111321775Y-131356100D01*
X128136108Y-131356100D01*
X128204229Y-131376102D01*
X128250722Y-131429758D01*
X128260826Y-131500032D01*
X128231332Y-131564612D01*
X128225203Y-131571195D01*
X127889403Y-131906995D01*
X127827091Y-131941021D01*
X127800308Y-131943900D01*
X110219691Y-131943900D01*
X110151570Y-131923898D01*
X110130596Y-131906995D01*
X107999928Y-129776327D01*
X107965902Y-129714015D01*
X107970967Y-129643200D01*
X107987087Y-129613171D01*
X108084653Y-129478884D01*
X108163580Y-129323981D01*
X108217303Y-129158638D01*
X108244500Y-128986926D01*
X108244500Y-128813074D01*
X108217303Y-128641362D01*
X108163580Y-128476019D01*
X108084653Y-128321116D01*
X107997563Y-128201247D01*
X107982463Y-128180464D01*
X107859535Y-128057536D01*
X107718887Y-127955349D01*
X107718886Y-127955348D01*
X107718884Y-127955347D01*
X107563981Y-127876420D01*
X107563978Y-127876419D01*
X107563976Y-127876418D01*
X107398642Y-127822698D01*
X107398640Y-127822697D01*
X107398638Y-127822697D01*
X107226926Y-127795500D01*
X107053074Y-127795500D01*
X106881362Y-127822697D01*
X106881360Y-127822697D01*
X106881357Y-127822698D01*
X106716023Y-127876418D01*
X106716017Y-127876421D01*
X106561112Y-127955349D01*
X106420464Y-128057536D01*
X106297536Y-128180464D01*
X106195349Y-128321112D01*
X106116421Y-128476017D01*
X106116418Y-128476023D01*
X106062698Y-128641357D01*
X106062697Y-128641360D01*
X106062697Y-128641362D01*
X106035500Y-128813074D01*
X96100830Y-128813074D01*
X96100830Y-99333700D01*
X136669852Y-99333700D01*
X136778901Y-99378870D01*
X136778900Y-99378870D01*
X136925340Y-99407999D01*
X136925344Y-99408000D01*
X137074656Y-99408000D01*
X137074662Y-99407999D01*
X137221098Y-99378871D01*
X137221101Y-99378870D01*
X137330147Y-99333700D01*
X137000001Y-99003554D01*
X137000000Y-99003554D01*
X136669852Y-99333700D01*
X96100830Y-99333700D01*
X96100830Y-98348327D01*
X136130225Y-98348327D01*
X136217444Y-98448873D01*
X136220341Y-98455207D01*
X136225763Y-98459577D01*
X136234915Y-98487076D01*
X136246972Y-98513438D01*
X136245984Y-98520331D01*
X136248184Y-98526940D01*
X136245844Y-98556015D01*
X136242000Y-98575340D01*
X136242000Y-98724659D01*
X136271131Y-98871108D01*
X136316297Y-98980146D01*
X136316298Y-98980147D01*
X136734128Y-98562318D01*
X136796440Y-98528292D01*
X136867255Y-98533357D01*
X136912319Y-98562318D01*
X136929290Y-98579289D01*
X136915224Y-98593355D01*
X136900000Y-98630109D01*
X136900000Y-98669891D01*
X136915224Y-98706645D01*
X136943355Y-98734776D01*
X136980109Y-98750000D01*
X137019891Y-98750000D01*
X137056645Y-98734776D01*
X137084776Y-98706645D01*
X137100000Y-98669891D01*
X137100000Y-98630109D01*
X137084776Y-98593355D01*
X137070710Y-98579289D01*
X137087681Y-98562318D01*
X137149993Y-98528293D01*
X137220809Y-98533357D01*
X137265873Y-98562318D01*
X137683700Y-98980146D01*
X137728870Y-98871101D01*
X137728871Y-98871098D01*
X137757999Y-98724662D01*
X137758000Y-98724655D01*
X137758000Y-98575344D01*
X137757999Y-98575342D01*
X137754156Y-98556020D01*
X137760483Y-98485306D01*
X137804037Y-98429238D01*
X137829516Y-98415029D01*
X137905147Y-98383700D01*
X137575001Y-98053554D01*
X137574999Y-98053554D01*
X137211547Y-98417006D01*
X137149235Y-98451032D01*
X137122452Y-98453911D01*
X136877547Y-98453911D01*
X136855956Y-98447571D01*
X136833514Y-98445966D01*
X136819233Y-98436788D01*
X136809426Y-98433909D01*
X136802732Y-98426183D01*
X136788451Y-98417006D01*
X136425000Y-98053554D01*
X136130225Y-98348327D01*
X96100830Y-98348327D01*
X96100830Y-97625340D01*
X135667000Y-97625340D01*
X135667000Y-97774659D01*
X135696131Y-97921108D01*
X135741297Y-98030146D01*
X135741298Y-98030147D01*
X136071446Y-97699999D01*
X136051556Y-97680109D01*
X136325000Y-97680109D01*
X136325000Y-97719891D01*
X136340224Y-97756645D01*
X136368355Y-97784776D01*
X136405109Y-97800000D01*
X136444891Y-97800000D01*
X136481645Y-97784776D01*
X136509776Y-97756645D01*
X136525000Y-97719891D01*
X136525000Y-97699999D01*
X136778554Y-97699999D01*
X136778554Y-97700001D01*
X136999999Y-97921446D01*
X137000001Y-97921446D01*
X137221446Y-97700001D01*
X137221446Y-97699999D01*
X137201556Y-97680109D01*
X137475000Y-97680109D01*
X137475000Y-97719891D01*
X137490224Y-97756645D01*
X137518355Y-97784776D01*
X137555109Y-97800000D01*
X137594891Y-97800000D01*
X137631645Y-97784776D01*
X137659776Y-97756645D01*
X137675000Y-97719891D01*
X137675000Y-97699999D01*
X137928554Y-97699999D01*
X137928554Y-97700001D01*
X138258700Y-98030147D01*
X138303870Y-97921101D01*
X138303871Y-97921098D01*
X138332999Y-97774662D01*
X138333000Y-97774655D01*
X138333000Y-97625344D01*
X138332999Y-97625340D01*
X138303870Y-97478900D01*
X138258700Y-97369852D01*
X137928554Y-97699999D01*
X137675000Y-97699999D01*
X137675000Y-97680109D01*
X137659776Y-97643355D01*
X137631645Y-97615224D01*
X137594891Y-97600000D01*
X137555109Y-97600000D01*
X137518355Y-97615224D01*
X137490224Y-97643355D01*
X137475000Y-97680109D01*
X137201556Y-97680109D01*
X137000001Y-97478554D01*
X136999999Y-97478554D01*
X136778554Y-97699999D01*
X136525000Y-97699999D01*
X136525000Y-97680109D01*
X136509776Y-97643355D01*
X136481645Y-97615224D01*
X136444891Y-97600000D01*
X136405109Y-97600000D01*
X136368355Y-97615224D01*
X136340224Y-97643355D01*
X136325000Y-97680109D01*
X136051556Y-97680109D01*
X135741298Y-97369851D01*
X135741297Y-97369851D01*
X135696131Y-97478893D01*
X135696129Y-97478898D01*
X135667000Y-97625340D01*
X96100830Y-97625340D01*
X96100830Y-92515970D01*
X96120832Y-92447849D01*
X96174488Y-92401356D01*
X96226047Y-92389973D01*
X109495685Y-92308152D01*
X109563923Y-92327733D01*
X109605576Y-92371149D01*
X109633045Y-92418727D01*
X109633050Y-92418733D01*
X110108562Y-92894244D01*
X110108583Y-92894267D01*
X110179261Y-92964945D01*
X110179266Y-92964949D01*
X110179268Y-92964951D01*
X110260469Y-93011833D01*
X110351038Y-93036100D01*
X110444800Y-93036100D01*
X110464620Y-93036100D01*
X110532741Y-93056102D01*
X110576886Y-93104896D01*
X110655347Y-93258884D01*
X110700247Y-93320683D01*
X110757536Y-93399535D01*
X110880464Y-93522463D01*
X110972859Y-93589592D01*
X111021116Y-93624653D01*
X111176019Y-93703580D01*
X111341362Y-93757303D01*
X111513074Y-93784500D01*
X111513077Y-93784500D01*
X111686923Y-93784500D01*
X111686926Y-93784500D01*
X111858638Y-93757303D01*
X112023981Y-93703580D01*
X112178884Y-93624653D01*
X112319533Y-93522465D01*
X112349807Y-93492191D01*
X112403405Y-93438594D01*
X112423151Y-93427811D01*
X112440158Y-93413075D01*
X112453705Y-93411127D01*
X112465717Y-93404568D01*
X112488160Y-93406173D01*
X112510432Y-93402971D01*
X112522881Y-93408656D01*
X112536532Y-93409633D01*
X112554545Y-93423117D01*
X112575012Y-93432465D01*
X112582410Y-93443977D01*
X112593368Y-93452180D01*
X112601231Y-93473263D01*
X112613396Y-93492191D01*
X112616598Y-93514461D01*
X112618179Y-93518700D01*
X112618500Y-93527689D01*
X112618500Y-93609785D01*
X112598498Y-93677906D01*
X112581595Y-93698881D01*
X112123920Y-94156555D01*
X112061608Y-94190580D01*
X111995889Y-94187292D01*
X111858642Y-94142698D01*
X111858640Y-94142697D01*
X111858638Y-94142697D01*
X111686926Y-94115500D01*
X111513074Y-94115500D01*
X111341362Y-94142697D01*
X111341360Y-94142697D01*
X111341357Y-94142698D01*
X111176023Y-94196418D01*
X111176017Y-94196421D01*
X111021112Y-94275349D01*
X110880464Y-94377536D01*
X110757536Y-94500464D01*
X110655349Y-94641112D01*
X110576421Y-94796017D01*
X110576418Y-94796023D01*
X110522698Y-94961357D01*
X110522697Y-94961360D01*
X110522697Y-94961362D01*
X110495500Y-95133074D01*
X110495500Y-95306926D01*
X110522697Y-95478638D01*
X110522698Y-95478642D01*
X110546858Y-95553000D01*
X110576420Y-95643981D01*
X110655347Y-95798884D01*
X110655349Y-95798887D01*
X110757536Y-95939535D01*
X110880464Y-96062463D01*
X110896583Y-96074174D01*
X111021116Y-96164653D01*
X111176019Y-96243580D01*
X111341362Y-96297303D01*
X111513074Y-96324500D01*
X111513077Y-96324500D01*
X111686923Y-96324500D01*
X111686926Y-96324500D01*
X111858638Y-96297303D01*
X112023981Y-96243580D01*
X112178884Y-96164653D01*
X112319533Y-96062465D01*
X112332303Y-96049695D01*
X112363323Y-96018676D01*
X112442460Y-95939538D01*
X112442463Y-95939535D01*
X112442465Y-95939533D01*
X112544653Y-95798884D01*
X112623580Y-95643981D01*
X112677303Y-95478638D01*
X112704500Y-95306926D01*
X112704500Y-95241402D01*
X125842000Y-95241402D01*
X125842000Y-95886000D01*
X126769297Y-95886000D01*
X126734075Y-95947007D01*
X126700000Y-96074174D01*
X126700000Y-96205826D01*
X126734075Y-96332993D01*
X126769297Y-96394000D01*
X125842000Y-96394000D01*
X125842000Y-97038597D01*
X125848505Y-97099093D01*
X125899555Y-97235964D01*
X125899555Y-97235965D01*
X125987095Y-97352904D01*
X126104034Y-97440444D01*
X126240906Y-97491494D01*
X126301402Y-97497999D01*
X126301415Y-97498000D01*
X126946000Y-97498000D01*
X126946000Y-96570702D01*
X127007007Y-96605925D01*
X127134174Y-96640000D01*
X127265826Y-96640000D01*
X127392993Y-96605925D01*
X127454000Y-96570702D01*
X127454000Y-97498000D01*
X128098585Y-97498000D01*
X128098597Y-97497999D01*
X128136955Y-97493875D01*
X128159093Y-97491494D01*
X128295964Y-97440444D01*
X128295965Y-97440444D01*
X128412904Y-97352904D01*
X128500444Y-97235965D01*
X128500444Y-97235964D01*
X128551494Y-97099093D01*
X128556593Y-97051671D01*
X136130224Y-97051671D01*
X136424999Y-97346446D01*
X136425000Y-97346446D01*
X136788451Y-96982993D01*
X136850763Y-96948968D01*
X136877547Y-96946088D01*
X137122452Y-96946088D01*
X137144041Y-96952427D01*
X137166484Y-96954032D01*
X137180765Y-96963210D01*
X137190573Y-96966090D01*
X137197266Y-96973814D01*
X137211548Y-96982993D01*
X137575000Y-97346445D01*
X137905147Y-97016298D01*
X137829516Y-96984971D01*
X137774236Y-96940422D01*
X137751815Y-96873059D01*
X137754157Y-96843978D01*
X137757999Y-96824664D01*
X137758000Y-96824655D01*
X137758000Y-96675344D01*
X137757999Y-96675340D01*
X137728870Y-96528900D01*
X137728868Y-96528892D01*
X137683701Y-96419852D01*
X137683700Y-96419851D01*
X137265871Y-96837681D01*
X137203559Y-96871707D01*
X137132744Y-96866642D01*
X137087680Y-96837681D01*
X137070710Y-96820710D01*
X137084776Y-96806645D01*
X137100000Y-96769891D01*
X137100000Y-96730109D01*
X137084776Y-96693355D01*
X137056645Y-96665224D01*
X137019891Y-96650000D01*
X136980109Y-96650000D01*
X136943355Y-96665224D01*
X136915224Y-96693355D01*
X136900000Y-96730109D01*
X136900000Y-96769891D01*
X136915224Y-96806645D01*
X136929289Y-96820710D01*
X136912317Y-96837682D01*
X136850005Y-96871707D01*
X136779189Y-96866641D01*
X136734126Y-96837681D01*
X136316297Y-96419851D01*
X136271131Y-96528893D01*
X136271129Y-96528898D01*
X136242000Y-96675340D01*
X136242000Y-96824662D01*
X136245843Y-96843980D01*
X136239515Y-96914694D01*
X136217444Y-96951125D01*
X136130224Y-97051671D01*
X128556593Y-97051671D01*
X128557386Y-97044301D01*
X128557386Y-97044300D01*
X128557999Y-97038595D01*
X128558000Y-97038585D01*
X128558000Y-96394000D01*
X127630703Y-96394000D01*
X127665925Y-96332993D01*
X127700000Y-96205826D01*
X127700000Y-96074174D01*
X127697889Y-96066297D01*
X136669851Y-96066297D01*
X136669851Y-96066298D01*
X136999999Y-96396446D01*
X137000000Y-96396446D01*
X137330147Y-96066298D01*
X137330146Y-96066297D01*
X137221108Y-96021131D01*
X137074659Y-95992000D01*
X136925340Y-95992000D01*
X136778898Y-96021129D01*
X136778893Y-96021131D01*
X136669851Y-96066297D01*
X127697889Y-96066297D01*
X127665925Y-95947007D01*
X127630703Y-95886000D01*
X128558000Y-95886000D01*
X128558000Y-95241414D01*
X128557999Y-95241402D01*
X128551494Y-95180906D01*
X128500444Y-95044035D01*
X128500444Y-95044034D01*
X128412904Y-94927095D01*
X128295965Y-94839555D01*
X128159093Y-94788505D01*
X128098597Y-94782000D01*
X127837892Y-94782000D01*
X127769771Y-94761998D01*
X127723278Y-94708342D01*
X127713174Y-94638068D01*
X127742668Y-94573488D01*
X127775165Y-94548053D01*
X127774666Y-94547238D01*
X127778882Y-94544654D01*
X127778881Y-94544654D01*
X127778884Y-94544653D01*
X127919533Y-94442465D01*
X128042465Y-94319533D01*
X128144653Y-94178884D01*
X128223580Y-94023981D01*
X128277303Y-93858638D01*
X128304500Y-93686926D01*
X128304500Y-93513074D01*
X128277303Y-93341362D01*
X128223580Y-93176019D01*
X128144653Y-93021116D01*
X128042465Y-92880467D01*
X128042463Y-92880464D01*
X127919535Y-92757536D01*
X127778887Y-92655349D01*
X127778886Y-92655348D01*
X127778884Y-92655347D01*
X127623981Y-92576420D01*
X127623978Y-92576419D01*
X127623976Y-92576418D01*
X127458642Y-92522698D01*
X127458640Y-92522697D01*
X127458638Y-92522697D01*
X127286926Y-92495500D01*
X127113074Y-92495500D01*
X126941362Y-92522697D01*
X126941360Y-92522697D01*
X126941357Y-92522698D01*
X126776023Y-92576418D01*
X126776017Y-92576421D01*
X126621112Y-92655349D01*
X126480464Y-92757536D01*
X126357536Y-92880464D01*
X126255349Y-93021112D01*
X126176421Y-93176017D01*
X126176418Y-93176023D01*
X126122698Y-93341357D01*
X126122697Y-93341360D01*
X126122697Y-93341362D01*
X126095500Y-93513074D01*
X126095500Y-93686926D01*
X126122697Y-93858638D01*
X126122698Y-93858642D01*
X126152384Y-93950008D01*
X126176420Y-94023981D01*
X126243970Y-94156555D01*
X126255349Y-94178887D01*
X126357536Y-94319535D01*
X126480464Y-94442463D01*
X126621117Y-94544654D01*
X126625334Y-94547238D01*
X126624487Y-94548619D01*
X126670930Y-94592487D01*
X126687992Y-94661403D01*
X126665087Y-94728603D01*
X126609487Y-94772753D01*
X126562108Y-94782000D01*
X126301402Y-94782000D01*
X126240906Y-94788505D01*
X126104035Y-94839555D01*
X126104034Y-94839555D01*
X125987095Y-94927095D01*
X125899555Y-95044034D01*
X125899555Y-95044035D01*
X125848505Y-95180906D01*
X125842000Y-95241402D01*
X112704500Y-95241402D01*
X112704500Y-95133074D01*
X112677303Y-94961362D01*
X112632707Y-94824109D01*
X112630679Y-94753142D01*
X112663445Y-94696077D01*
X112917059Y-94442463D01*
X113305276Y-94054247D01*
X113322750Y-94023981D01*
X113355501Y-93967254D01*
X113381500Y-93870225D01*
X113381500Y-92409417D01*
X113401502Y-92341296D01*
X113455158Y-92294803D01*
X113506716Y-92283420D01*
X128330123Y-92192019D01*
X128398362Y-92211600D01*
X128419987Y-92228917D01*
X128448784Y-92257714D01*
X128579216Y-92333019D01*
X128724695Y-92372000D01*
X128724697Y-92372000D01*
X128875303Y-92372000D01*
X128875305Y-92372000D01*
X129020784Y-92333019D01*
X129151216Y-92257714D01*
X129185829Y-92223100D01*
X129248139Y-92189076D01*
X129274143Y-92186198D01*
X134155160Y-92156102D01*
X134155937Y-92156100D01*
X137654062Y-92156100D01*
X137722183Y-92176102D01*
G37*
G04 #@! TD.AperFunction*
M02*
