G04 #@! TF.GenerationSoftware,KiCad,Pcbnew,5.0.2+dfsg1-1*
G04 #@! TF.CreationDate,2020-05-20T11:42:17+02:00*
G04 #@! TF.ProjectId,Crazyflie contol board,4372617a-7966-46c6-9965-20636f6e746f,2.1*
G04 #@! TF.SameCoordinates,PX85839e8PY6052f5c*
G04 #@! TF.FileFunction,Soldermask,Bot*
G04 #@! TF.FilePolarity,Negative*
%FSLAX46Y46*%
G04 Gerber Fmt 4.6, Leading zero omitted, Abs format (unit mm)*
G04 Created by KiCad (PCBNEW 5.0.2+dfsg1-1) date wo 20 mei 2020 11:42:17 CEST*
%MOMM*%
%LPD*%
G01*
G04 APERTURE LIST*
%ADD10C,0.150000*%
%ADD11C,0.300000*%
%ADD12C,0.400000*%
G04 APERTURE END LIST*
D10*
X37002480Y-65004100D02*
X37002480Y-97004100D01*
X145002480Y-97004100D01*
X145002480Y-65004100D01*
X37002480Y-65004100D01*
X-129999720Y91003100D02*
X-129999720Y-99004100D01*
X147002480Y-99004100D01*
X147002480Y91003100D01*
X-129999720Y91003100D01*
X-127999720Y89003100D02*
X-127999720Y-97004100D01*
X145002480Y-97004100D01*
X145002480Y89003100D01*
X-127999720Y89003100D01*
X-79999720Y89003100D02*
X-79999720Y91003100D01*
X-29999720Y89003100D02*
X-29999720Y91003100D01*
X20000280Y89003100D02*
X20000280Y91003100D01*
X70000280Y89003100D02*
X70000280Y91003100D01*
X120000280Y89003100D02*
X120000280Y91003100D01*
X-103934244Y89415005D02*
X-104677101Y89415005D01*
X-104305673Y89415005D02*
X-104305673Y90715005D01*
X-104429482Y90529291D01*
X-104553292Y90405481D01*
X-104677101Y90343577D01*
X-54677101Y90591196D02*
X-54615197Y90653100D01*
X-54491387Y90715005D01*
X-54181863Y90715005D01*
X-54058054Y90653100D01*
X-53996149Y90591196D01*
X-53934244Y90467386D01*
X-53934244Y90343577D01*
X-53996149Y90157862D01*
X-54739006Y89415005D01*
X-53934244Y89415005D01*
X-4739006Y90715005D02*
X-3934244Y90715005D01*
X-4367578Y90219767D01*
X-4181863Y90219767D01*
X-4058054Y90157862D01*
X-3996149Y90095958D01*
X-3934244Y89972148D01*
X-3934244Y89662624D01*
X-3996149Y89538815D01*
X-4058054Y89476910D01*
X-4181863Y89415005D01*
X-4553292Y89415005D01*
X-4677101Y89476910D01*
X-4739006Y89538815D01*
X45941946Y90281672D02*
X45941946Y89415005D01*
X45632422Y90776910D02*
X45322899Y89848339D01*
X46127660Y89848339D01*
X96003851Y90715005D02*
X95384803Y90715005D01*
X95322899Y90095958D01*
X95384803Y90157862D01*
X95508613Y90219767D01*
X95818137Y90219767D01*
X95941946Y90157862D01*
X96003851Y90095958D01*
X96065756Y89972148D01*
X96065756Y89662624D01*
X96003851Y89538815D01*
X95941946Y89476910D01*
X95818137Y89415005D01*
X95508613Y89415005D01*
X95384803Y89476910D01*
X95322899Y89538815D01*
X145941946Y90715005D02*
X145694327Y90715005D01*
X145570518Y90653100D01*
X145508613Y90591196D01*
X145384803Y90405481D01*
X145322899Y90157862D01*
X145322899Y89662624D01*
X145384803Y89538815D01*
X145446708Y89476910D01*
X145570518Y89415005D01*
X145818137Y89415005D01*
X145941946Y89476910D01*
X146003851Y89538815D01*
X146065756Y89662624D01*
X146065756Y89972148D01*
X146003851Y90095958D01*
X145941946Y90157862D01*
X145818137Y90219767D01*
X145570518Y90219767D01*
X145446708Y90157862D01*
X145384803Y90095958D01*
X145322899Y89972148D01*
X-79999720Y-97004100D02*
X-79999720Y-99004100D01*
X-29999720Y-97004100D02*
X-29999720Y-99004100D01*
X20000280Y-97004100D02*
X20000280Y-99004100D01*
X70000280Y-97004100D02*
X70000280Y-99004100D01*
X120000280Y-97004100D02*
X120000280Y-99004100D01*
X-103934244Y-98592195D02*
X-104677101Y-98592195D01*
X-104305673Y-98592195D02*
X-104305673Y-97292195D01*
X-104429482Y-97477909D01*
X-104553292Y-97601719D01*
X-104677101Y-97663623D01*
X-54677101Y-97416004D02*
X-54615197Y-97354100D01*
X-54491387Y-97292195D01*
X-54181863Y-97292195D01*
X-54058054Y-97354100D01*
X-53996149Y-97416004D01*
X-53934244Y-97539814D01*
X-53934244Y-97663623D01*
X-53996149Y-97849338D01*
X-54739006Y-98592195D01*
X-53934244Y-98592195D01*
X-4739006Y-97292195D02*
X-3934244Y-97292195D01*
X-4367578Y-97787433D01*
X-4181863Y-97787433D01*
X-4058054Y-97849338D01*
X-3996149Y-97911242D01*
X-3934244Y-98035052D01*
X-3934244Y-98344576D01*
X-3996149Y-98468385D01*
X-4058054Y-98530290D01*
X-4181863Y-98592195D01*
X-4553292Y-98592195D01*
X-4677101Y-98530290D01*
X-4739006Y-98468385D01*
X45941946Y-97725528D02*
X45941946Y-98592195D01*
X45632422Y-97230290D02*
X45322899Y-98158861D01*
X46127660Y-98158861D01*
X96003851Y-97292195D02*
X95384803Y-97292195D01*
X95322899Y-97911242D01*
X95384803Y-97849338D01*
X95508613Y-97787433D01*
X95818137Y-97787433D01*
X95941946Y-97849338D01*
X96003851Y-97911242D01*
X96065756Y-98035052D01*
X96065756Y-98344576D01*
X96003851Y-98468385D01*
X95941946Y-98530290D01*
X95818137Y-98592195D01*
X95508613Y-98592195D01*
X95384803Y-98530290D01*
X95322899Y-98468385D01*
X145941946Y-97292195D02*
X145694327Y-97292195D01*
X145570518Y-97354100D01*
X145508613Y-97416004D01*
X145384803Y-97601719D01*
X145322899Y-97849338D01*
X145322899Y-98344576D01*
X145384803Y-98468385D01*
X145446708Y-98530290D01*
X145570518Y-98592195D01*
X145818137Y-98592195D01*
X145941946Y-98530290D01*
X146003851Y-98468385D01*
X146065756Y-98344576D01*
X146065756Y-98035052D01*
X146003851Y-97911242D01*
X145941946Y-97849338D01*
X145818137Y-97787433D01*
X145570518Y-97787433D01*
X145446708Y-97849338D01*
X145384803Y-97911242D01*
X145322899Y-98035052D01*
X-129999720Y41003100D02*
X-127999720Y41003100D01*
X-129999720Y-8996900D02*
X-127999720Y-8996900D01*
X-129999720Y-58996900D02*
X-127999720Y-58996900D01*
X-129309244Y65786434D02*
X-128690197Y65786434D01*
X-129433054Y65415005D02*
X-128999720Y66715005D01*
X-128566387Y65415005D01*
X-128906863Y16095958D02*
X-128721149Y16034053D01*
X-128659244Y15972148D01*
X-128597340Y15848339D01*
X-128597340Y15662624D01*
X-128659244Y15538815D01*
X-128721149Y15476910D01*
X-128844959Y15415005D01*
X-129340197Y15415005D01*
X-129340197Y16715005D01*
X-128906863Y16715005D01*
X-128783054Y16653100D01*
X-128721149Y16591196D01*
X-128659244Y16467386D01*
X-128659244Y16343577D01*
X-128721149Y16219767D01*
X-128783054Y16157862D01*
X-128906863Y16095958D01*
X-129340197Y16095958D01*
X-128597340Y-34461185D02*
X-128659244Y-34523090D01*
X-128844959Y-34584995D01*
X-128968768Y-34584995D01*
X-129154482Y-34523090D01*
X-129278292Y-34399280D01*
X-129340197Y-34275471D01*
X-129402101Y-34027852D01*
X-129402101Y-33842138D01*
X-129340197Y-33594519D01*
X-129278292Y-33470709D01*
X-129154482Y-33346900D01*
X-128968768Y-33284995D01*
X-128844959Y-33284995D01*
X-128659244Y-33346900D01*
X-128597340Y-33408804D01*
X-129340197Y-84584995D02*
X-129340197Y-83284995D01*
X-129030673Y-83284995D01*
X-128844959Y-83346900D01*
X-128721149Y-83470709D01*
X-128659244Y-83594519D01*
X-128597340Y-83842138D01*
X-128597340Y-84027852D01*
X-128659244Y-84275471D01*
X-128721149Y-84399280D01*
X-128844959Y-84523090D01*
X-129030673Y-84584995D01*
X-129340197Y-84584995D01*
X147002480Y41003100D02*
X145002480Y41003100D01*
X147002480Y-8996900D02*
X145002480Y-8996900D01*
X147002480Y-58996900D02*
X145002480Y-58996900D01*
X145692956Y65786434D02*
X146312003Y65786434D01*
X145569146Y65415005D02*
X146002480Y66715005D01*
X146435813Y65415005D01*
X146095337Y16095958D02*
X146281051Y16034053D01*
X146342956Y15972148D01*
X146404860Y15848339D01*
X146404860Y15662624D01*
X146342956Y15538815D01*
X146281051Y15476910D01*
X146157241Y15415005D01*
X145662003Y15415005D01*
X145662003Y16715005D01*
X146095337Y16715005D01*
X146219146Y16653100D01*
X146281051Y16591196D01*
X146342956Y16467386D01*
X146342956Y16343577D01*
X146281051Y16219767D01*
X146219146Y16157862D01*
X146095337Y16095958D01*
X145662003Y16095958D01*
X146404860Y-34461185D02*
X146342956Y-34523090D01*
X146157241Y-34584995D01*
X146033432Y-34584995D01*
X145847718Y-34523090D01*
X145723908Y-34399280D01*
X145662003Y-34275471D01*
X145600099Y-34027852D01*
X145600099Y-33842138D01*
X145662003Y-33594519D01*
X145723908Y-33470709D01*
X145847718Y-33346900D01*
X146033432Y-33284995D01*
X146157241Y-33284995D01*
X146342956Y-33346900D01*
X146404860Y-33408804D01*
X145662003Y-84584995D02*
X145662003Y-83284995D01*
X145971527Y-83284995D01*
X146157241Y-83346900D01*
X146281051Y-83470709D01*
X146342956Y-83594519D01*
X146404860Y-83842138D01*
X146404860Y-84027852D01*
X146342956Y-84275471D01*
X146281051Y-84399280D01*
X146157241Y-84523090D01*
X145971527Y-84584995D01*
X145662003Y-84584995D01*
X60434622Y-92782671D02*
X60434622Y-91282671D01*
X60791765Y-91282671D01*
X61006051Y-91354100D01*
X61148908Y-91496957D01*
X61220337Y-91639814D01*
X61291765Y-91925528D01*
X61291765Y-92139814D01*
X61220337Y-92425528D01*
X61148908Y-92568385D01*
X61006051Y-92711242D01*
X60791765Y-92782671D01*
X60434622Y-92782671D01*
X62577480Y-92782671D02*
X62577480Y-91996957D01*
X62506051Y-91854100D01*
X62363194Y-91782671D01*
X62077480Y-91782671D01*
X61934622Y-91854100D01*
X62577480Y-92711242D02*
X62434622Y-92782671D01*
X62077480Y-92782671D01*
X61934622Y-92711242D01*
X61863194Y-92568385D01*
X61863194Y-92425528D01*
X61934622Y-92282671D01*
X62077480Y-92211242D01*
X62434622Y-92211242D01*
X62577480Y-92139814D01*
X63077480Y-91782671D02*
X63648908Y-91782671D01*
X63291765Y-91282671D02*
X63291765Y-92568385D01*
X63363194Y-92711242D01*
X63506051Y-92782671D01*
X63648908Y-92782671D01*
X64720337Y-92711242D02*
X64577480Y-92782671D01*
X64291765Y-92782671D01*
X64148908Y-92711242D01*
X64077480Y-92568385D01*
X64077480Y-91996957D01*
X64148908Y-91854100D01*
X64291765Y-91782671D01*
X64577480Y-91782671D01*
X64720337Y-91854100D01*
X64791765Y-91996957D01*
X64791765Y-92139814D01*
X64077480Y-92282671D01*
X65434622Y-92639814D02*
X65506051Y-92711242D01*
X65434622Y-92782671D01*
X65363194Y-92711242D01*
X65434622Y-92639814D01*
X65434622Y-92782671D01*
X65434622Y-91854100D02*
X65506051Y-91925528D01*
X65434622Y-91996957D01*
X65363194Y-91925528D01*
X65434622Y-91854100D01*
X65434622Y-91996957D01*
X67220337Y-91425528D02*
X67291765Y-91354100D01*
X67434622Y-91282671D01*
X67791765Y-91282671D01*
X67934622Y-91354100D01*
X68006051Y-91425528D01*
X68077480Y-91568385D01*
X68077480Y-91711242D01*
X68006051Y-91925528D01*
X67148908Y-92782671D01*
X68077480Y-92782671D01*
X69006051Y-91282671D02*
X69148908Y-91282671D01*
X69291765Y-91354100D01*
X69363194Y-91425528D01*
X69434622Y-91568385D01*
X69506051Y-91854100D01*
X69506051Y-92211242D01*
X69434622Y-92496957D01*
X69363194Y-92639814D01*
X69291765Y-92711242D01*
X69148908Y-92782671D01*
X69006051Y-92782671D01*
X68863194Y-92711242D01*
X68791765Y-92639814D01*
X68720337Y-92496957D01*
X68648908Y-92211242D01*
X68648908Y-91854100D01*
X68720337Y-91568385D01*
X68791765Y-91425528D01*
X68863194Y-91354100D01*
X69006051Y-91282671D01*
X70077480Y-91425528D02*
X70148908Y-91354100D01*
X70291765Y-91282671D01*
X70648908Y-91282671D01*
X70791765Y-91354100D01*
X70863194Y-91425528D01*
X70934622Y-91568385D01*
X70934622Y-91711242D01*
X70863194Y-91925528D01*
X70006051Y-92782671D01*
X70934622Y-92782671D01*
X71863194Y-91282671D02*
X72006051Y-91282671D01*
X72148908Y-91354100D01*
X72220337Y-91425528D01*
X72291765Y-91568385D01*
X72363194Y-91854100D01*
X72363194Y-92211242D01*
X72291765Y-92496957D01*
X72220337Y-92639814D01*
X72148908Y-92711242D01*
X72006051Y-92782671D01*
X71863194Y-92782671D01*
X71720337Y-92711242D01*
X71648908Y-92639814D01*
X71577480Y-92496957D01*
X71506051Y-92211242D01*
X71506051Y-91854100D01*
X71577480Y-91568385D01*
X71648908Y-91425528D01*
X71720337Y-91354100D01*
X71863194Y-91282671D01*
X73006051Y-92211242D02*
X74148908Y-92211242D01*
X75148908Y-91282671D02*
X75291765Y-91282671D01*
X75434622Y-91354100D01*
X75506051Y-91425528D01*
X75577480Y-91568385D01*
X75648908Y-91854100D01*
X75648908Y-92211242D01*
X75577480Y-92496957D01*
X75506051Y-92639814D01*
X75434622Y-92711242D01*
X75291765Y-92782671D01*
X75148908Y-92782671D01*
X75006051Y-92711242D01*
X74934622Y-92639814D01*
X74863194Y-92496957D01*
X74791765Y-92211242D01*
X74791765Y-91854100D01*
X74863194Y-91568385D01*
X74934622Y-91425528D01*
X75006051Y-91354100D01*
X75148908Y-91282671D01*
X77006051Y-91282671D02*
X76291765Y-91282671D01*
X76220337Y-91996957D01*
X76291765Y-91925528D01*
X76434622Y-91854100D01*
X76791765Y-91854100D01*
X76934622Y-91925528D01*
X77006051Y-91996957D01*
X77077480Y-92139814D01*
X77077480Y-92496957D01*
X77006051Y-92639814D01*
X76934622Y-92711242D01*
X76791765Y-92782671D01*
X76434622Y-92782671D01*
X76291765Y-92711242D01*
X76220337Y-92639814D01*
X77720337Y-92211242D02*
X78863194Y-92211242D01*
X80363194Y-92782671D02*
X79506051Y-92782671D01*
X79934622Y-92782671D02*
X79934622Y-91282671D01*
X79791765Y-91496957D01*
X79648908Y-91639814D01*
X79506051Y-91711242D01*
X80934622Y-91425528D02*
X81006051Y-91354100D01*
X81148908Y-91282671D01*
X81506051Y-91282671D01*
X81648908Y-91354100D01*
X81720337Y-91425528D01*
X81791765Y-91568385D01*
X81791765Y-91711242D01*
X81720337Y-91925528D01*
X80863194Y-92782671D01*
X81791765Y-92782671D01*
X37002480Y-93504100D02*
X145002480Y-93504100D01*
X38434622Y-95582671D02*
X38434622Y-94082671D01*
X39291765Y-95582671D02*
X38648908Y-94725528D01*
X39291765Y-94082671D02*
X38434622Y-94939814D01*
X39934622Y-95582671D02*
X39934622Y-94582671D01*
X39934622Y-94082671D02*
X39863194Y-94154100D01*
X39934622Y-94225528D01*
X40006051Y-94154100D01*
X39934622Y-94082671D01*
X39934622Y-94225528D01*
X41506051Y-95439814D02*
X41434622Y-95511242D01*
X41220337Y-95582671D01*
X41077480Y-95582671D01*
X40863194Y-95511242D01*
X40720337Y-95368385D01*
X40648908Y-95225528D01*
X40577480Y-94939814D01*
X40577480Y-94725528D01*
X40648908Y-94439814D01*
X40720337Y-94296957D01*
X40863194Y-94154100D01*
X41077480Y-94082671D01*
X41220337Y-94082671D01*
X41434622Y-94154100D01*
X41506051Y-94225528D01*
X42791765Y-95582671D02*
X42791765Y-94796957D01*
X42720337Y-94654100D01*
X42577480Y-94582671D01*
X42291765Y-94582671D01*
X42148908Y-94654100D01*
X42791765Y-95511242D02*
X42648908Y-95582671D01*
X42291765Y-95582671D01*
X42148908Y-95511242D01*
X42077480Y-95368385D01*
X42077480Y-95225528D01*
X42148908Y-95082671D01*
X42291765Y-95011242D01*
X42648908Y-95011242D01*
X42791765Y-94939814D01*
X44148908Y-95582671D02*
X44148908Y-94082671D01*
X44148908Y-95511242D02*
X44006051Y-95582671D01*
X43720337Y-95582671D01*
X43577480Y-95511242D01*
X43506051Y-95439814D01*
X43434622Y-95296957D01*
X43434622Y-94868385D01*
X43506051Y-94725528D01*
X43577480Y-94654100D01*
X43720337Y-94582671D01*
X44006051Y-94582671D01*
X44148908Y-94654100D01*
X46006051Y-94796957D02*
X46506051Y-94796957D01*
X46720337Y-95582671D02*
X46006051Y-95582671D01*
X46006051Y-94082671D01*
X46720337Y-94082671D01*
X47363194Y-95439814D02*
X47434622Y-95511242D01*
X47363194Y-95582671D01*
X47291765Y-95511242D01*
X47363194Y-95439814D01*
X47363194Y-95582671D01*
X48077480Y-95582671D02*
X48077480Y-94082671D01*
X48434622Y-94082671D01*
X48648908Y-94154100D01*
X48791765Y-94296957D01*
X48863194Y-94439814D01*
X48934622Y-94725528D01*
X48934622Y-94939814D01*
X48863194Y-95225528D01*
X48791765Y-95368385D01*
X48648908Y-95511242D01*
X48434622Y-95582671D01*
X48077480Y-95582671D01*
X49577480Y-95439814D02*
X49648908Y-95511242D01*
X49577480Y-95582671D01*
X49506051Y-95511242D01*
X49577480Y-95439814D01*
X49577480Y-95582671D01*
X50220337Y-95154100D02*
X50934622Y-95154100D01*
X50077480Y-95582671D02*
X50577480Y-94082671D01*
X51077480Y-95582671D01*
X51577480Y-95439814D02*
X51648908Y-95511242D01*
X51577480Y-95582671D01*
X51506051Y-95511242D01*
X51577480Y-95439814D01*
X51577480Y-95582671D01*
X54577480Y-95582671D02*
X54577480Y-94082671D01*
X54720337Y-95011242D02*
X55148908Y-95582671D01*
X55148908Y-94582671D02*
X54577480Y-95154100D01*
X55791765Y-95582671D02*
X55791765Y-94582671D01*
X55791765Y-94082671D02*
X55720337Y-94154100D01*
X55791765Y-94225528D01*
X55863194Y-94154100D01*
X55791765Y-94082671D01*
X55791765Y-94225528D01*
X57148908Y-95511242D02*
X57006051Y-95582671D01*
X56720337Y-95582671D01*
X56577480Y-95511242D01*
X56506051Y-95439814D01*
X56434622Y-95296957D01*
X56434622Y-94868385D01*
X56506051Y-94725528D01*
X56577480Y-94654100D01*
X56720337Y-94582671D01*
X57006051Y-94582671D01*
X57148908Y-94654100D01*
X58434622Y-95582671D02*
X58434622Y-94796957D01*
X58363194Y-94654100D01*
X58220337Y-94582671D01*
X57934622Y-94582671D01*
X57791765Y-94654100D01*
X58434622Y-95511242D02*
X58291765Y-95582671D01*
X57934622Y-95582671D01*
X57791765Y-95511242D01*
X57720337Y-95368385D01*
X57720337Y-95225528D01*
X57791765Y-95082671D01*
X57934622Y-95011242D01*
X58291765Y-95011242D01*
X58434622Y-94939814D01*
X59791765Y-95582671D02*
X59791765Y-94082671D01*
X59791765Y-95511242D02*
X59648908Y-95582671D01*
X59363194Y-95582671D01*
X59220337Y-95511242D01*
X59148908Y-95439814D01*
X59077480Y-95296957D01*
X59077480Y-94868385D01*
X59148908Y-94725528D01*
X59220337Y-94654100D01*
X59363194Y-94582671D01*
X59648908Y-94582671D01*
X59791765Y-94654100D01*
X62363194Y-94082671D02*
X61648908Y-94082671D01*
X61577480Y-94796957D01*
X61648908Y-94725528D01*
X61791765Y-94654100D01*
X62148908Y-94654100D01*
X62291765Y-94725528D01*
X62363194Y-94796957D01*
X62434622Y-94939814D01*
X62434622Y-95296957D01*
X62363194Y-95439814D01*
X62291765Y-95511242D01*
X62148908Y-95582671D01*
X61791765Y-95582671D01*
X61648908Y-95511242D01*
X61577480Y-95439814D01*
X63077480Y-95439814D02*
X63148908Y-95511242D01*
X63077480Y-95582671D01*
X63006051Y-95511242D01*
X63077480Y-95439814D01*
X63077480Y-95582671D01*
X64077480Y-94082671D02*
X64220337Y-94082671D01*
X64363194Y-94154100D01*
X64434622Y-94225528D01*
X64506051Y-94368385D01*
X64577480Y-94654100D01*
X64577480Y-95011242D01*
X64506051Y-95296957D01*
X64434622Y-95439814D01*
X64363194Y-95511242D01*
X64220337Y-95582671D01*
X64077480Y-95582671D01*
X63934622Y-95511242D01*
X63863194Y-95439814D01*
X63791765Y-95296957D01*
X63720337Y-95011242D01*
X63720337Y-94654100D01*
X63791765Y-94368385D01*
X63863194Y-94225528D01*
X63934622Y-94154100D01*
X64077480Y-94082671D01*
X65220337Y-95439814D02*
X65291765Y-95511242D01*
X65220337Y-95582671D01*
X65148908Y-95511242D01*
X65220337Y-95439814D01*
X65220337Y-95582671D01*
X65863194Y-94225528D02*
X65934622Y-94154100D01*
X66077480Y-94082671D01*
X66434622Y-94082671D01*
X66577480Y-94154100D01*
X66648908Y-94225528D01*
X66720337Y-94368385D01*
X66720337Y-94511242D01*
X66648908Y-94725528D01*
X65791765Y-95582671D01*
X66720337Y-95582671D01*
X67363194Y-95011242D02*
X68506051Y-95011242D01*
X67934622Y-95582671D02*
X67934622Y-94439814D01*
X69863194Y-95582671D02*
X69863194Y-94082671D01*
X69863194Y-95511242D02*
X69720337Y-95582671D01*
X69434622Y-95582671D01*
X69291765Y-95511242D01*
X69220337Y-95439814D01*
X69148908Y-95296957D01*
X69148908Y-94868385D01*
X69220337Y-94725528D01*
X69291765Y-94654100D01*
X69434622Y-94582671D01*
X69720337Y-94582671D01*
X69863194Y-94654100D01*
X70363194Y-94582671D02*
X70934622Y-94582671D01*
X70577480Y-95582671D02*
X70577480Y-94296957D01*
X70648908Y-94154100D01*
X70791765Y-94082671D01*
X70934622Y-94082671D01*
X71363194Y-95511242D02*
X71506051Y-95582671D01*
X71791765Y-95582671D01*
X71934622Y-95511242D01*
X72006051Y-95368385D01*
X72006051Y-95296957D01*
X71934622Y-95154100D01*
X71791765Y-95082671D01*
X71577480Y-95082671D01*
X71434622Y-95011242D01*
X71363194Y-94868385D01*
X71363194Y-94796957D01*
X71434622Y-94654100D01*
X71577480Y-94582671D01*
X71791765Y-94582671D01*
X71934622Y-94654100D01*
X73291765Y-94582671D02*
X73291765Y-95796957D01*
X73220337Y-95939814D01*
X73148908Y-96011242D01*
X73006051Y-96082671D01*
X72791765Y-96082671D01*
X72648908Y-96011242D01*
X73291765Y-95511242D02*
X73148908Y-95582671D01*
X72863194Y-95582671D01*
X72720337Y-95511242D01*
X72648908Y-95439814D01*
X72577480Y-95296957D01*
X72577480Y-94868385D01*
X72648908Y-94725528D01*
X72720337Y-94654100D01*
X72863194Y-94582671D01*
X73148908Y-94582671D01*
X73291765Y-94654100D01*
X74791765Y-95582671D02*
X73934622Y-95582671D01*
X74363194Y-95582671D02*
X74363194Y-94082671D01*
X74220337Y-94296957D01*
X74077480Y-94439814D01*
X73934622Y-94511242D01*
X75434622Y-95011242D02*
X76577480Y-95011242D01*
X78077480Y-95582671D02*
X77220337Y-95582671D01*
X77648908Y-95582671D02*
X77648908Y-94082671D01*
X77506051Y-94296957D01*
X77363194Y-94439814D01*
X77220337Y-94511242D01*
X37002480Y-90504100D02*
X145002480Y-90504100D01*
D11*
X124411765Y-92782671D02*
X123911765Y-92068385D01*
X123554622Y-92782671D02*
X123554622Y-91282671D01*
X124126051Y-91282671D01*
X124268908Y-91354100D01*
X124340337Y-91425528D01*
X124411765Y-91568385D01*
X124411765Y-91782671D01*
X124340337Y-91925528D01*
X124268908Y-91996957D01*
X124126051Y-92068385D01*
X123554622Y-92068385D01*
X125626051Y-92711242D02*
X125483194Y-92782671D01*
X125197480Y-92782671D01*
X125054622Y-92711242D01*
X124983194Y-92568385D01*
X124983194Y-91996957D01*
X125054622Y-91854100D01*
X125197480Y-91782671D01*
X125483194Y-91782671D01*
X125626051Y-91854100D01*
X125697480Y-91996957D01*
X125697480Y-92139814D01*
X124983194Y-92282671D01*
X126197480Y-91782671D02*
X126554622Y-92782671D01*
X126911765Y-91782671D01*
X127483194Y-92639814D02*
X127554622Y-92711242D01*
X127483194Y-92782671D01*
X127411765Y-92711242D01*
X127483194Y-92639814D01*
X127483194Y-92782671D01*
X127483194Y-91854100D02*
X127554622Y-91925528D01*
X127483194Y-91996957D01*
X127411765Y-91925528D01*
X127483194Y-91854100D01*
X127483194Y-91996957D01*
X129268908Y-91425528D02*
X129340337Y-91354100D01*
X129483194Y-91282671D01*
X129840337Y-91282671D01*
X129983194Y-91354100D01*
X130054622Y-91425528D01*
X130126051Y-91568385D01*
X130126051Y-91711242D01*
X130054622Y-91925528D01*
X129197480Y-92782671D01*
X130126051Y-92782671D01*
X130768908Y-92639814D02*
X130840337Y-92711242D01*
X130768908Y-92782671D01*
X130697480Y-92711242D01*
X130768908Y-92639814D01*
X130768908Y-92782671D01*
X132268908Y-92782671D02*
X131411765Y-92782671D01*
X131840337Y-92782671D02*
X131840337Y-91282671D01*
X131697480Y-91496957D01*
X131554622Y-91639814D01*
X131411765Y-91711242D01*
D10*
X38363194Y-92711242D02*
X38577480Y-92782671D01*
X38934622Y-92782671D01*
X39077480Y-92711242D01*
X39148908Y-92639814D01*
X39220337Y-92496957D01*
X39220337Y-92354100D01*
X39148908Y-92211242D01*
X39077480Y-92139814D01*
X38934622Y-92068385D01*
X38648908Y-91996957D01*
X38506051Y-91925528D01*
X38434622Y-91854100D01*
X38363194Y-91711242D01*
X38363194Y-91568385D01*
X38434622Y-91425528D01*
X38506051Y-91354100D01*
X38648908Y-91282671D01*
X39006051Y-91282671D01*
X39220337Y-91354100D01*
X39863194Y-92782671D02*
X39863194Y-91782671D01*
X39863194Y-91282671D02*
X39791765Y-91354100D01*
X39863194Y-91425528D01*
X39934622Y-91354100D01*
X39863194Y-91282671D01*
X39863194Y-91425528D01*
X40434622Y-91782671D02*
X41220337Y-91782671D01*
X40434622Y-92782671D01*
X41220337Y-92782671D01*
X42363194Y-92711242D02*
X42220337Y-92782671D01*
X41934622Y-92782671D01*
X41791765Y-92711242D01*
X41720337Y-92568385D01*
X41720337Y-91996957D01*
X41791765Y-91854100D01*
X41934622Y-91782671D01*
X42220337Y-91782671D01*
X42363194Y-91854100D01*
X42434622Y-91996957D01*
X42434622Y-92139814D01*
X41720337Y-92282671D01*
X43077480Y-92639814D02*
X43148908Y-92711242D01*
X43077480Y-92782671D01*
X43006051Y-92711242D01*
X43077480Y-92639814D01*
X43077480Y-92782671D01*
X43077480Y-91854100D02*
X43148908Y-91925528D01*
X43077480Y-91996957D01*
X43006051Y-91925528D01*
X43077480Y-91854100D01*
X43077480Y-91996957D01*
X44863194Y-92354100D02*
X45577480Y-92354100D01*
X44720337Y-92782671D02*
X45220337Y-91282671D01*
X45720337Y-92782671D01*
X46863194Y-91782671D02*
X46863194Y-92782671D01*
X46506051Y-91211242D02*
X46148908Y-92282671D01*
X47077480Y-92282671D01*
X123434622Y-95582671D02*
X123434622Y-94082671D01*
X124791765Y-95582671D02*
X124791765Y-94082671D01*
X124791765Y-95511242D02*
X124648908Y-95582671D01*
X124363194Y-95582671D01*
X124220337Y-95511242D01*
X124148908Y-95439814D01*
X124077480Y-95296957D01*
X124077480Y-94868385D01*
X124148908Y-94725528D01*
X124220337Y-94654100D01*
X124363194Y-94582671D01*
X124648908Y-94582671D01*
X124791765Y-94654100D01*
X125506051Y-95439814D02*
X125577480Y-95511242D01*
X125506051Y-95582671D01*
X125434622Y-95511242D01*
X125506051Y-95439814D01*
X125506051Y-95582671D01*
X125506051Y-94654100D02*
X125577480Y-94725528D01*
X125506051Y-94796957D01*
X125434622Y-94725528D01*
X125506051Y-94654100D01*
X125506051Y-94796957D01*
X128148908Y-95582671D02*
X127291765Y-95582671D01*
X127720337Y-95582671D02*
X127720337Y-94082671D01*
X127577480Y-94296957D01*
X127434622Y-94439814D01*
X127291765Y-94511242D01*
X129863194Y-94011242D02*
X128577480Y-95939814D01*
X131148908Y-95582671D02*
X130291765Y-95582671D01*
X130720337Y-95582671D02*
X130720337Y-94082671D01*
X130577480Y-94296957D01*
X130434622Y-94439814D01*
X130291765Y-94511242D01*
X37002480Y-86504100D02*
X145002480Y-86504100D01*
D12*
X38714860Y-87208861D02*
X39857718Y-87208861D01*
X39036289Y-89208861D02*
X39286289Y-87208861D01*
X40274384Y-89208861D02*
X40441051Y-87875528D01*
X40524384Y-87208861D02*
X40417241Y-87304100D01*
X40500575Y-87399338D01*
X40607718Y-87304100D01*
X40524384Y-87208861D01*
X40500575Y-87399338D01*
X41107718Y-87875528D02*
X41869622Y-87875528D01*
X41476765Y-87208861D02*
X41262480Y-88923147D01*
X41333908Y-89113623D01*
X41512480Y-89208861D01*
X41702956Y-89208861D01*
X42655337Y-89208861D02*
X42476765Y-89113623D01*
X42405337Y-88923147D01*
X42619622Y-87208861D01*
X44191051Y-89113623D02*
X43988670Y-89208861D01*
X43607718Y-89208861D01*
X43429146Y-89113623D01*
X43357718Y-88923147D01*
X43452956Y-88161242D01*
X43572003Y-87970766D01*
X43774384Y-87875528D01*
X44155337Y-87875528D01*
X44333908Y-87970766D01*
X44405337Y-88161242D01*
X44381527Y-88351719D01*
X43405337Y-88542195D01*
X45155337Y-89018385D02*
X45238670Y-89113623D01*
X45131527Y-89208861D01*
X45048194Y-89113623D01*
X45155337Y-89018385D01*
X45131527Y-89208861D01*
X45286289Y-87970766D02*
X45369622Y-88066004D01*
X45262480Y-88161242D01*
X45179146Y-88066004D01*
X45286289Y-87970766D01*
X45262480Y-88161242D01*
X48774384Y-89018385D02*
X48667241Y-89113623D01*
X48369622Y-89208861D01*
X48179146Y-89208861D01*
X47905337Y-89113623D01*
X47738670Y-88923147D01*
X47667241Y-88732671D01*
X47619622Y-88351719D01*
X47655337Y-88066004D01*
X47798194Y-87685052D01*
X47917241Y-87494576D01*
X48131527Y-87304100D01*
X48429146Y-87208861D01*
X48619622Y-87208861D01*
X48893432Y-87304100D01*
X48976765Y-87399338D01*
X49607718Y-89208861D02*
X49774384Y-87875528D01*
X49726765Y-88256480D02*
X49845813Y-88066004D01*
X49952956Y-87970766D01*
X50155337Y-87875528D01*
X50345813Y-87875528D01*
X51702956Y-89208861D02*
X51833908Y-88161242D01*
X51762480Y-87970766D01*
X51583908Y-87875528D01*
X51202956Y-87875528D01*
X51000575Y-87970766D01*
X51714860Y-89113623D02*
X51512480Y-89208861D01*
X51036289Y-89208861D01*
X50857718Y-89113623D01*
X50786289Y-88923147D01*
X50810099Y-88732671D01*
X50929146Y-88542195D01*
X51131527Y-88446957D01*
X51607718Y-88446957D01*
X51810099Y-88351719D01*
X52631527Y-87875528D02*
X53679146Y-87875528D01*
X52464860Y-89208861D01*
X53512480Y-89208861D01*
X54250575Y-87875528D02*
X54560099Y-89208861D01*
X55202956Y-87875528D02*
X54560099Y-89208861D01*
X54310099Y-89685052D01*
X54202956Y-89780290D01*
X54000575Y-89875528D01*
X55679146Y-87875528D02*
X56441051Y-87875528D01*
X55798194Y-89208861D02*
X56012480Y-87494576D01*
X56131527Y-87304100D01*
X56333908Y-87208861D01*
X56524384Y-87208861D01*
X57226765Y-89208861D02*
X57048194Y-89113623D01*
X56976765Y-88923147D01*
X57191051Y-87208861D01*
X57988670Y-89208861D02*
X58155337Y-87875528D01*
X58238670Y-87208861D02*
X58131527Y-87304100D01*
X58214860Y-87399338D01*
X58322003Y-87304100D01*
X58238670Y-87208861D01*
X58214860Y-87399338D01*
X59714860Y-89113623D02*
X59512480Y-89208861D01*
X59131527Y-89208861D01*
X58952956Y-89113623D01*
X58881527Y-88923147D01*
X58976765Y-88161242D01*
X59095813Y-87970766D01*
X59298194Y-87875528D01*
X59679146Y-87875528D01*
X59857718Y-87970766D01*
X59929146Y-88161242D01*
X59905337Y-88351719D01*
X58929146Y-88542195D01*
X63048194Y-89113623D02*
X62845813Y-89208861D01*
X62464860Y-89208861D01*
X62286289Y-89113623D01*
X62202956Y-89018385D01*
X62131527Y-88827909D01*
X62202956Y-88256480D01*
X62322003Y-88066004D01*
X62429146Y-87970766D01*
X62631527Y-87875528D01*
X63012480Y-87875528D01*
X63191051Y-87970766D01*
X64179146Y-89208861D02*
X64000575Y-89113623D01*
X63917241Y-89018385D01*
X63845813Y-88827909D01*
X63917241Y-88256480D01*
X64036289Y-88066004D01*
X64143432Y-87970766D01*
X64345813Y-87875528D01*
X64631527Y-87875528D01*
X64810099Y-87970766D01*
X64893432Y-88066004D01*
X64964860Y-88256480D01*
X64893432Y-88827909D01*
X64774384Y-89018385D01*
X64667241Y-89113623D01*
X64464860Y-89208861D01*
X64179146Y-89208861D01*
X65869622Y-87875528D02*
X65702956Y-89208861D01*
X65845813Y-88066004D02*
X65952956Y-87970766D01*
X66155337Y-87875528D01*
X66441051Y-87875528D01*
X66619622Y-87970766D01*
X66691051Y-88161242D01*
X66560099Y-89208861D01*
X67393432Y-87875528D02*
X68155337Y-87875528D01*
X67762480Y-87208861D02*
X67548194Y-88923147D01*
X67619622Y-89113623D01*
X67798194Y-89208861D01*
X67988670Y-89208861D01*
X68655337Y-89208861D02*
X68822003Y-87875528D01*
X68774384Y-88256480D02*
X68893432Y-88066004D01*
X69000575Y-87970766D01*
X69202956Y-87875528D01*
X69393432Y-87875528D01*
X70179146Y-89208861D02*
X70000575Y-89113623D01*
X69917241Y-89018385D01*
X69845813Y-88827909D01*
X69917241Y-88256480D01*
X70036289Y-88066004D01*
X70143432Y-87970766D01*
X70345813Y-87875528D01*
X70631527Y-87875528D01*
X70810099Y-87970766D01*
X70893432Y-88066004D01*
X70964860Y-88256480D01*
X70893432Y-88827909D01*
X70774384Y-89018385D01*
X70667241Y-89113623D01*
X70464860Y-89208861D01*
X70179146Y-89208861D01*
X71988670Y-89208861D02*
X71810099Y-89113623D01*
X71738670Y-88923147D01*
X71952956Y-87208861D01*
X74274384Y-89208861D02*
X74524384Y-87208861D01*
X74429146Y-87970766D02*
X74631527Y-87875528D01*
X75012480Y-87875528D01*
X75191051Y-87970766D01*
X75274384Y-88066004D01*
X75345813Y-88256480D01*
X75274384Y-88827909D01*
X75155337Y-89018385D01*
X75048194Y-89113623D01*
X74845813Y-89208861D01*
X74464860Y-89208861D01*
X74286289Y-89113623D01*
X76369622Y-89208861D02*
X76191051Y-89113623D01*
X76107718Y-89018385D01*
X76036289Y-88827909D01*
X76107718Y-88256480D01*
X76226765Y-88066004D01*
X76333908Y-87970766D01*
X76536289Y-87875528D01*
X76822003Y-87875528D01*
X77000575Y-87970766D01*
X77083908Y-88066004D01*
X77155337Y-88256480D01*
X77083908Y-88827909D01*
X76964860Y-89018385D01*
X76857718Y-89113623D01*
X76655337Y-89208861D01*
X76369622Y-89208861D01*
X78750575Y-89208861D02*
X78881527Y-88161242D01*
X78810099Y-87970766D01*
X78631527Y-87875528D01*
X78250575Y-87875528D01*
X78048194Y-87970766D01*
X78762480Y-89113623D02*
X78560099Y-89208861D01*
X78083908Y-89208861D01*
X77905337Y-89113623D01*
X77833908Y-88923147D01*
X77857718Y-88732671D01*
X77976765Y-88542195D01*
X78179146Y-88446957D01*
X78655337Y-88446957D01*
X78857718Y-88351719D01*
X79702956Y-89208861D02*
X79869622Y-87875528D01*
X79822003Y-88256480D02*
X79941051Y-88066004D01*
X80048194Y-87970766D01*
X80250575Y-87875528D01*
X80441051Y-87875528D01*
X81798194Y-89208861D02*
X82048194Y-87208861D01*
X81810099Y-89113623D02*
X81607718Y-89208861D01*
X81226765Y-89208861D01*
X81048194Y-89113623D01*
X80964860Y-89018385D01*
X80893432Y-88827909D01*
X80964860Y-88256480D01*
X81083908Y-88066004D01*
X81191051Y-87970766D01*
X81393432Y-87875528D01*
X81774384Y-87875528D01*
X81952956Y-87970766D01*
D10*
X38934622Y-84596957D02*
X38434622Y-84596957D01*
X38434622Y-85382671D02*
X38434622Y-83882671D01*
X39148908Y-83882671D01*
X39720337Y-85382671D02*
X39720337Y-84382671D01*
X39720337Y-83882671D02*
X39648908Y-83954100D01*
X39720337Y-84025528D01*
X39791765Y-83954100D01*
X39720337Y-83882671D01*
X39720337Y-84025528D01*
X40648908Y-85382671D02*
X40506051Y-85311242D01*
X40434622Y-85168385D01*
X40434622Y-83882671D01*
X41791765Y-85311242D02*
X41648908Y-85382671D01*
X41363194Y-85382671D01*
X41220337Y-85311242D01*
X41148908Y-85168385D01*
X41148908Y-84596957D01*
X41220337Y-84454100D01*
X41363194Y-84382671D01*
X41648908Y-84382671D01*
X41791765Y-84454100D01*
X41863194Y-84596957D01*
X41863194Y-84739814D01*
X41148908Y-84882671D01*
X42506051Y-85239814D02*
X42577480Y-85311242D01*
X42506051Y-85382671D01*
X42434622Y-85311242D01*
X42506051Y-85239814D01*
X42506051Y-85382671D01*
X42506051Y-84454100D02*
X42577480Y-84525528D01*
X42506051Y-84596957D01*
X42434622Y-84525528D01*
X42506051Y-84454100D01*
X42506051Y-84596957D01*
X45220337Y-85239814D02*
X45148908Y-85311242D01*
X44934622Y-85382671D01*
X44791765Y-85382671D01*
X44577480Y-85311242D01*
X44434622Y-85168385D01*
X44363194Y-85025528D01*
X44291765Y-84739814D01*
X44291765Y-84525528D01*
X44363194Y-84239814D01*
X44434622Y-84096957D01*
X44577480Y-83954100D01*
X44791765Y-83882671D01*
X44934622Y-83882671D01*
X45148908Y-83954100D01*
X45220337Y-84025528D01*
X45863194Y-85382671D02*
X45863194Y-84382671D01*
X45863194Y-84668385D02*
X45934622Y-84525528D01*
X46006051Y-84454100D01*
X46148908Y-84382671D01*
X46291765Y-84382671D01*
X47434622Y-85382671D02*
X47434622Y-84596957D01*
X47363194Y-84454100D01*
X47220337Y-84382671D01*
X46934622Y-84382671D01*
X46791765Y-84454100D01*
X47434622Y-85311242D02*
X47291765Y-85382671D01*
X46934622Y-85382671D01*
X46791765Y-85311242D01*
X46720337Y-85168385D01*
X46720337Y-85025528D01*
X46791765Y-84882671D01*
X46934622Y-84811242D01*
X47291765Y-84811242D01*
X47434622Y-84739814D01*
X48006051Y-84382671D02*
X48791765Y-84382671D01*
X48006051Y-85382671D01*
X48791765Y-85382671D01*
X49220337Y-84382671D02*
X49577480Y-85382671D01*
X49934622Y-84382671D02*
X49577480Y-85382671D01*
X49434622Y-85739814D01*
X49363194Y-85811242D01*
X49220337Y-85882671D01*
X50291765Y-84382671D02*
X50863194Y-84382671D01*
X50506051Y-85382671D02*
X50506051Y-84096957D01*
X50577480Y-83954100D01*
X50720337Y-83882671D01*
X50863194Y-83882671D01*
X51577480Y-85382671D02*
X51434622Y-85311242D01*
X51363194Y-85168385D01*
X51363194Y-83882671D01*
X52148908Y-85382671D02*
X52148908Y-84382671D01*
X52148908Y-83882671D02*
X52077480Y-83954100D01*
X52148908Y-84025528D01*
X52220337Y-83954100D01*
X52148908Y-83882671D01*
X52148908Y-84025528D01*
X53434622Y-85311242D02*
X53291765Y-85382671D01*
X53006051Y-85382671D01*
X52863194Y-85311242D01*
X52791765Y-85168385D01*
X52791765Y-84596957D01*
X52863194Y-84454100D01*
X53006051Y-84382671D01*
X53291765Y-84382671D01*
X53434622Y-84454100D01*
X53506051Y-84596957D01*
X53506051Y-84739814D01*
X52791765Y-84882671D01*
X55934622Y-85311242D02*
X55791765Y-85382671D01*
X55506051Y-85382671D01*
X55363194Y-85311242D01*
X55291765Y-85239814D01*
X55220337Y-85096957D01*
X55220337Y-84668385D01*
X55291765Y-84525528D01*
X55363194Y-84454100D01*
X55506051Y-84382671D01*
X55791765Y-84382671D01*
X55934622Y-84454100D01*
X56791765Y-85382671D02*
X56648908Y-85311242D01*
X56577480Y-85239814D01*
X56506051Y-85096957D01*
X56506051Y-84668385D01*
X56577480Y-84525528D01*
X56648908Y-84454100D01*
X56791765Y-84382671D01*
X57006051Y-84382671D01*
X57148908Y-84454100D01*
X57220337Y-84525528D01*
X57291765Y-84668385D01*
X57291765Y-85096957D01*
X57220337Y-85239814D01*
X57148908Y-85311242D01*
X57006051Y-85382671D01*
X56791765Y-85382671D01*
X57934622Y-84382671D02*
X57934622Y-85382671D01*
X57934622Y-84525528D02*
X58006051Y-84454100D01*
X58148908Y-84382671D01*
X58363194Y-84382671D01*
X58506051Y-84454100D01*
X58577480Y-84596957D01*
X58577480Y-85382671D01*
X59077480Y-84382671D02*
X59648908Y-84382671D01*
X59291765Y-83882671D02*
X59291765Y-85168385D01*
X59363194Y-85311242D01*
X59506051Y-85382671D01*
X59648908Y-85382671D01*
X60363194Y-85382671D02*
X60220337Y-85311242D01*
X60148908Y-85239814D01*
X60077480Y-85096957D01*
X60077480Y-84668385D01*
X60148908Y-84525528D01*
X60220337Y-84454100D01*
X60363194Y-84382671D01*
X60577480Y-84382671D01*
X60720337Y-84454100D01*
X60791765Y-84525528D01*
X60863194Y-84668385D01*
X60863194Y-85096957D01*
X60791765Y-85239814D01*
X60720337Y-85311242D01*
X60577480Y-85382671D01*
X60363194Y-85382671D01*
X61720337Y-85382671D02*
X61577480Y-85311242D01*
X61506051Y-85168385D01*
X61506051Y-83882671D01*
X63434622Y-85382671D02*
X63434622Y-83882671D01*
X63434622Y-84454100D02*
X63577480Y-84382671D01*
X63863194Y-84382671D01*
X64006051Y-84454100D01*
X64077480Y-84525528D01*
X64148908Y-84668385D01*
X64148908Y-85096957D01*
X64077480Y-85239814D01*
X64006051Y-85311242D01*
X63863194Y-85382671D01*
X63577480Y-85382671D01*
X63434622Y-85311242D01*
X65006051Y-85382671D02*
X64863194Y-85311242D01*
X64791765Y-85239814D01*
X64720337Y-85096957D01*
X64720337Y-84668385D01*
X64791765Y-84525528D01*
X64863194Y-84454100D01*
X65006051Y-84382671D01*
X65220337Y-84382671D01*
X65363194Y-84454100D01*
X65434622Y-84525528D01*
X65506051Y-84668385D01*
X65506051Y-85096957D01*
X65434622Y-85239814D01*
X65363194Y-85311242D01*
X65220337Y-85382671D01*
X65006051Y-85382671D01*
X66791765Y-85382671D02*
X66791765Y-84596957D01*
X66720337Y-84454100D01*
X66577480Y-84382671D01*
X66291765Y-84382671D01*
X66148908Y-84454100D01*
X66791765Y-85311242D02*
X66648908Y-85382671D01*
X66291765Y-85382671D01*
X66148908Y-85311242D01*
X66077480Y-85168385D01*
X66077480Y-85025528D01*
X66148908Y-84882671D01*
X66291765Y-84811242D01*
X66648908Y-84811242D01*
X66791765Y-84739814D01*
X67506051Y-85382671D02*
X67506051Y-84382671D01*
X67506051Y-84668385D02*
X67577480Y-84525528D01*
X67648908Y-84454100D01*
X67791765Y-84382671D01*
X67934622Y-84382671D01*
X69077480Y-85382671D02*
X69077480Y-83882671D01*
X69077480Y-85311242D02*
X68934622Y-85382671D01*
X68648908Y-85382671D01*
X68506051Y-85311242D01*
X68434622Y-85239814D01*
X68363194Y-85096957D01*
X68363194Y-84668385D01*
X68434622Y-84525528D01*
X68506051Y-84454100D01*
X68648908Y-84382671D01*
X68934622Y-84382671D01*
X69077480Y-84454100D01*
X69791765Y-85239814D02*
X69863194Y-85311242D01*
X69791765Y-85382671D01*
X69720337Y-85311242D01*
X69791765Y-85239814D01*
X69791765Y-85382671D01*
X70506051Y-85382671D02*
X70506051Y-83882671D01*
X70648908Y-84811242D02*
X71077480Y-85382671D01*
X71077480Y-84382671D02*
X70506051Y-84954100D01*
X71720337Y-85382671D02*
X71720337Y-84382671D01*
X71720337Y-83882671D02*
X71648908Y-83954100D01*
X71720337Y-84025528D01*
X71791765Y-83954100D01*
X71720337Y-83882671D01*
X71720337Y-84025528D01*
X73077480Y-85311242D02*
X72934622Y-85382671D01*
X72648908Y-85382671D01*
X72506051Y-85311242D01*
X72434622Y-85239814D01*
X72363194Y-85096957D01*
X72363194Y-84668385D01*
X72434622Y-84525528D01*
X72506051Y-84454100D01*
X72648908Y-84382671D01*
X72934622Y-84382671D01*
X73077480Y-84454100D01*
X74363194Y-85382671D02*
X74363194Y-84596957D01*
X74291765Y-84454100D01*
X74148908Y-84382671D01*
X73863194Y-84382671D01*
X73720337Y-84454100D01*
X74363194Y-85311242D02*
X74220337Y-85382671D01*
X73863194Y-85382671D01*
X73720337Y-85311242D01*
X73648908Y-85168385D01*
X73648908Y-85025528D01*
X73720337Y-84882671D01*
X73863194Y-84811242D01*
X74220337Y-84811242D01*
X74363194Y-84739814D01*
X75720337Y-85382671D02*
X75720337Y-83882671D01*
X75720337Y-85311242D02*
X75577480Y-85382671D01*
X75291765Y-85382671D01*
X75148908Y-85311242D01*
X75077480Y-85239814D01*
X75006051Y-85096957D01*
X75006051Y-84668385D01*
X75077480Y-84525528D01*
X75148908Y-84454100D01*
X75291765Y-84382671D01*
X75577480Y-84382671D01*
X75720337Y-84454100D01*
X76077480Y-85525528D02*
X77220337Y-85525528D01*
X77577480Y-84382671D02*
X77577480Y-85882671D01*
X77577480Y-84454100D02*
X77720337Y-84382671D01*
X78006051Y-84382671D01*
X78148908Y-84454100D01*
X78220337Y-84525528D01*
X78291765Y-84668385D01*
X78291765Y-85096957D01*
X78220337Y-85239814D01*
X78148908Y-85311242D01*
X78006051Y-85382671D01*
X77720337Y-85382671D01*
X77577480Y-85311242D01*
X79577480Y-85311242D02*
X79434622Y-85382671D01*
X79148908Y-85382671D01*
X79006051Y-85311242D01*
X78934622Y-85239814D01*
X78863194Y-85096957D01*
X78863194Y-84668385D01*
X78934622Y-84525528D01*
X79006051Y-84454100D01*
X79148908Y-84382671D01*
X79434622Y-84382671D01*
X79577480Y-84454100D01*
X80220337Y-85382671D02*
X80220337Y-83882671D01*
X80220337Y-84454100D02*
X80363194Y-84382671D01*
X80648908Y-84382671D01*
X80791765Y-84454100D01*
X80863194Y-84525528D01*
X80934622Y-84668385D01*
X80934622Y-85096957D01*
X80863194Y-85239814D01*
X80791765Y-85311242D01*
X80648908Y-85382671D01*
X80363194Y-85382671D01*
X80220337Y-85311242D01*
X37002480Y-80504100D02*
X145002480Y-80504100D01*
X38363194Y-82611242D02*
X38577480Y-82682671D01*
X38934622Y-82682671D01*
X39077480Y-82611242D01*
X39148908Y-82539814D01*
X39220337Y-82396957D01*
X39220337Y-82254100D01*
X39148908Y-82111242D01*
X39077480Y-82039814D01*
X38934622Y-81968385D01*
X38648908Y-81896957D01*
X38506051Y-81825528D01*
X38434622Y-81754100D01*
X38363194Y-81611242D01*
X38363194Y-81468385D01*
X38434622Y-81325528D01*
X38506051Y-81254100D01*
X38648908Y-81182671D01*
X39006051Y-81182671D01*
X39220337Y-81254100D01*
X39863194Y-82682671D02*
X39863194Y-81182671D01*
X40506051Y-82682671D02*
X40506051Y-81896957D01*
X40434622Y-81754100D01*
X40291765Y-81682671D01*
X40077480Y-81682671D01*
X39934622Y-81754100D01*
X39863194Y-81825528D01*
X41791765Y-82611242D02*
X41648908Y-82682671D01*
X41363194Y-82682671D01*
X41220337Y-82611242D01*
X41148908Y-82468385D01*
X41148908Y-81896957D01*
X41220337Y-81754100D01*
X41363194Y-81682671D01*
X41648908Y-81682671D01*
X41791765Y-81754100D01*
X41863194Y-81896957D01*
X41863194Y-82039814D01*
X41148908Y-82182671D01*
X43077480Y-82611242D02*
X42934622Y-82682671D01*
X42648908Y-82682671D01*
X42506051Y-82611242D01*
X42434622Y-82468385D01*
X42434622Y-81896957D01*
X42506051Y-81754100D01*
X42648908Y-81682671D01*
X42934622Y-81682671D01*
X43077480Y-81754100D01*
X43148908Y-81896957D01*
X43148908Y-82039814D01*
X42434622Y-82182671D01*
X43577480Y-81682671D02*
X44148908Y-81682671D01*
X43791765Y-81182671D02*
X43791765Y-82468385D01*
X43863194Y-82611242D01*
X44006051Y-82682671D01*
X44148908Y-82682671D01*
X44648908Y-82539814D02*
X44720337Y-82611242D01*
X44648908Y-82682671D01*
X44577480Y-82611242D01*
X44648908Y-82539814D01*
X44648908Y-82682671D01*
X44648908Y-81754100D02*
X44720337Y-81825528D01*
X44648908Y-81896957D01*
X44577480Y-81825528D01*
X44648908Y-81754100D01*
X44648908Y-81896957D01*
D11*
X39054622Y-78896957D02*
X39268908Y-78968385D01*
X39340337Y-79039814D01*
X39411765Y-79182671D01*
X39411765Y-79396957D01*
X39340337Y-79539814D01*
X39268908Y-79611242D01*
X39126051Y-79682671D01*
X38554622Y-79682671D01*
X38554622Y-78182671D01*
X39054622Y-78182671D01*
X39197480Y-78254100D01*
X39268908Y-78325528D01*
X39340337Y-78468385D01*
X39340337Y-78611242D01*
X39268908Y-78754100D01*
X39197480Y-78825528D01*
X39054622Y-78896957D01*
X38554622Y-78896957D01*
X40054622Y-79682671D02*
X40054622Y-78682671D01*
X40054622Y-78182671D02*
X39983194Y-78254100D01*
X40054622Y-78325528D01*
X40126051Y-78254100D01*
X40054622Y-78182671D01*
X40054622Y-78325528D01*
X40554622Y-78682671D02*
X41126051Y-78682671D01*
X40768908Y-78182671D02*
X40768908Y-79468385D01*
X40840337Y-79611242D01*
X40983194Y-79682671D01*
X41126051Y-79682671D01*
X42268908Y-79611242D02*
X42126051Y-79682671D01*
X41840337Y-79682671D01*
X41697480Y-79611242D01*
X41626051Y-79539814D01*
X41554622Y-79396957D01*
X41554622Y-78968385D01*
X41626051Y-78825528D01*
X41697480Y-78754100D01*
X41840337Y-78682671D01*
X42126051Y-78682671D01*
X42268908Y-78754100D01*
X42911765Y-79682671D02*
X42911765Y-78682671D01*
X42911765Y-78968385D02*
X42983194Y-78825528D01*
X43054622Y-78754100D01*
X43197480Y-78682671D01*
X43340337Y-78682671D01*
X44483194Y-79682671D02*
X44483194Y-78896957D01*
X44411765Y-78754100D01*
X44268908Y-78682671D01*
X43983194Y-78682671D01*
X43840337Y-78754100D01*
X44483194Y-79611242D02*
X44340337Y-79682671D01*
X43983194Y-79682671D01*
X43840337Y-79611242D01*
X43768908Y-79468385D01*
X43768908Y-79325528D01*
X43840337Y-79182671D01*
X43983194Y-79111242D01*
X44340337Y-79111242D01*
X44483194Y-79039814D01*
X45054622Y-78682671D02*
X45840337Y-78682671D01*
X45054622Y-79682671D01*
X45840337Y-79682671D01*
X46983194Y-79611242D02*
X46840337Y-79682671D01*
X46554622Y-79682671D01*
X46411765Y-79611242D01*
X46340337Y-79468385D01*
X46340337Y-78896957D01*
X46411765Y-78754100D01*
X46554622Y-78682671D01*
X46840337Y-78682671D01*
X46983194Y-78754100D01*
X47054622Y-78896957D01*
X47054622Y-79039814D01*
X46340337Y-79182671D01*
X48768908Y-79254100D02*
X49483194Y-79254100D01*
X48626051Y-79682671D02*
X49126051Y-78182671D01*
X49626051Y-79682671D01*
X50626051Y-78896957D02*
X50840337Y-78968385D01*
X50911765Y-79039814D01*
X50983194Y-79182671D01*
X50983194Y-79396957D01*
X50911765Y-79539814D01*
X50840337Y-79611242D01*
X50697480Y-79682671D01*
X50126051Y-79682671D01*
X50126051Y-78182671D01*
X50626051Y-78182671D01*
X50768908Y-78254100D01*
X50840337Y-78325528D01*
X50911765Y-78468385D01*
X50911765Y-78611242D01*
X50840337Y-78754100D01*
X50768908Y-78825528D01*
X50626051Y-78896957D01*
X50126051Y-78896957D01*
X53197480Y-80254100D02*
X53126051Y-80182671D01*
X52983194Y-79968385D01*
X52911765Y-79825528D01*
X52840337Y-79611242D01*
X52768908Y-79254100D01*
X52768908Y-78968385D01*
X52840337Y-78611242D01*
X52911765Y-78396957D01*
X52983194Y-78254100D01*
X53126051Y-78039814D01*
X53197480Y-77968385D01*
X54626051Y-79539814D02*
X54554622Y-79611242D01*
X54340337Y-79682671D01*
X54197480Y-79682671D01*
X53983194Y-79611242D01*
X53840337Y-79468385D01*
X53768908Y-79325528D01*
X53697480Y-79039814D01*
X53697480Y-78825528D01*
X53768908Y-78539814D01*
X53840337Y-78396957D01*
X53983194Y-78254100D01*
X54197480Y-78182671D01*
X54340337Y-78182671D01*
X54554622Y-78254100D01*
X54626051Y-78325528D01*
X56126051Y-79539814D02*
X56054622Y-79611242D01*
X55840337Y-79682671D01*
X55697480Y-79682671D01*
X55483194Y-79611242D01*
X55340337Y-79468385D01*
X55268908Y-79325528D01*
X55197480Y-79039814D01*
X55197480Y-78825528D01*
X55268908Y-78539814D01*
X55340337Y-78396957D01*
X55483194Y-78254100D01*
X55697480Y-78182671D01*
X55840337Y-78182671D01*
X56054622Y-78254100D01*
X56126051Y-78325528D01*
X58411765Y-78896957D02*
X58626051Y-78968385D01*
X58697480Y-79039814D01*
X58768908Y-79182671D01*
X58768908Y-79396957D01*
X58697480Y-79539814D01*
X58626051Y-79611242D01*
X58483194Y-79682671D01*
X57911765Y-79682671D01*
X57911765Y-78182671D01*
X58411765Y-78182671D01*
X58554622Y-78254100D01*
X58626051Y-78325528D01*
X58697480Y-78468385D01*
X58697480Y-78611242D01*
X58626051Y-78754100D01*
X58554622Y-78825528D01*
X58411765Y-78896957D01*
X57911765Y-78896957D01*
X59697480Y-78968385D02*
X59697480Y-79682671D01*
X59197480Y-78182671D02*
X59697480Y-78968385D01*
X60197480Y-78182671D01*
X60697480Y-79111242D02*
X61840337Y-79111242D01*
X62554622Y-79682671D02*
X62554622Y-78182671D01*
X63411765Y-79682671D01*
X63411765Y-78182671D01*
X64983194Y-79539814D02*
X64911765Y-79611242D01*
X64697480Y-79682671D01*
X64554622Y-79682671D01*
X64340337Y-79611242D01*
X64197480Y-79468385D01*
X64126051Y-79325528D01*
X64054622Y-79039814D01*
X64054622Y-78825528D01*
X64126051Y-78539814D01*
X64197480Y-78396957D01*
X64340337Y-78254100D01*
X64554622Y-78182671D01*
X64697480Y-78182671D01*
X64911765Y-78254100D01*
X64983194Y-78325528D01*
X65626051Y-79111242D02*
X66768908Y-79111242D01*
X67411765Y-79611242D02*
X67626051Y-79682671D01*
X67983194Y-79682671D01*
X68126051Y-79611242D01*
X68197480Y-79539814D01*
X68268908Y-79396957D01*
X68268908Y-79254100D01*
X68197480Y-79111242D01*
X68126051Y-79039814D01*
X67983194Y-78968385D01*
X67697480Y-78896957D01*
X67554622Y-78825528D01*
X67483194Y-78754100D01*
X67411765Y-78611242D01*
X67411765Y-78468385D01*
X67483194Y-78325528D01*
X67554622Y-78254100D01*
X67697480Y-78182671D01*
X68054622Y-78182671D01*
X68268908Y-78254100D01*
X68840337Y-79254100D02*
X69554622Y-79254100D01*
X68697480Y-79682671D02*
X69197480Y-78182671D01*
X69697480Y-79682671D01*
X70054622Y-80254100D02*
X70126051Y-80182671D01*
X70268908Y-79968385D01*
X70340337Y-79825528D01*
X70411765Y-79611242D01*
X70483194Y-79254100D01*
X70483194Y-78968385D01*
X70411765Y-78611242D01*
X70340337Y-78396957D01*
X70268908Y-78254100D01*
X70126051Y-78039814D01*
X70054622Y-77968385D01*
D10*
X57002480Y-90504100D02*
X57002480Y-93504100D01*
X121002480Y-90504100D02*
X121002480Y-97004100D01*
G36*
X1982439Y-1523320D02*
X2080667Y-1553118D01*
X2171201Y-1601509D01*
X2250550Y-1666630D01*
X2315671Y-1745979D01*
X2364062Y-1836513D01*
X2393860Y-1934741D01*
X2403921Y-2036900D01*
X2393860Y-2139059D01*
X2364062Y-2237287D01*
X2315671Y-2327821D01*
X2250550Y-2407170D01*
X2171201Y-2472291D01*
X2171199Y-2472292D01*
X2080669Y-2520681D01*
X2015137Y-2540560D01*
X1976494Y-2552282D01*
X1953855Y-2561660D01*
X1933481Y-2575274D01*
X1916154Y-2592601D01*
X1902540Y-2612976D01*
X1893162Y-2635615D01*
X1888382Y-2659648D01*
X1888382Y-2684152D01*
X1893162Y-2708186D01*
X1902540Y-2730825D01*
X1916154Y-2751199D01*
X1933481Y-2768526D01*
X1953856Y-2782140D01*
X1976494Y-2791518D01*
X2015137Y-2803240D01*
X2080669Y-2823119D01*
X2080671Y-2823120D01*
X2171201Y-2871509D01*
X2250550Y-2936630D01*
X2315671Y-3015979D01*
X2364062Y-3106513D01*
X2393860Y-3204741D01*
X2403921Y-3306900D01*
X2393860Y-3409059D01*
X2364062Y-3507287D01*
X2315671Y-3597821D01*
X2250550Y-3677170D01*
X2171201Y-3742291D01*
X2089664Y-3785873D01*
X2080669Y-3790681D01*
X2015137Y-3810560D01*
X1976494Y-3822282D01*
X1953855Y-3831660D01*
X1933481Y-3845274D01*
X1916154Y-3862601D01*
X1902540Y-3882976D01*
X1893162Y-3905615D01*
X1888382Y-3929648D01*
X1888382Y-3954152D01*
X1893162Y-3978186D01*
X1902540Y-4000825D01*
X1916154Y-4021199D01*
X1933481Y-4038526D01*
X1953856Y-4052140D01*
X1976494Y-4061518D01*
X2015137Y-4073240D01*
X2080669Y-4093119D01*
X2080671Y-4093120D01*
X2171201Y-4141509D01*
X2250550Y-4206630D01*
X2315671Y-4285979D01*
X2364062Y-4376513D01*
X2393860Y-4474741D01*
X2403921Y-4576900D01*
X2393860Y-4679059D01*
X2364062Y-4777287D01*
X2315671Y-4867821D01*
X2250550Y-4947170D01*
X2171201Y-5012291D01*
X2171199Y-5012292D01*
X2080669Y-5060681D01*
X2050475Y-5069840D01*
X1976494Y-5092282D01*
X1953855Y-5101660D01*
X1933481Y-5115274D01*
X1916154Y-5132601D01*
X1902540Y-5152976D01*
X1893162Y-5175615D01*
X1888382Y-5199648D01*
X1888382Y-5224152D01*
X1893162Y-5248186D01*
X1902540Y-5270825D01*
X1916154Y-5291199D01*
X1933481Y-5308526D01*
X1953856Y-5322140D01*
X1976494Y-5331518D01*
X2015137Y-5343240D01*
X2080669Y-5363119D01*
X2080671Y-5363120D01*
X2171201Y-5411509D01*
X2250550Y-5476630D01*
X2315671Y-5555979D01*
X2364062Y-5646513D01*
X2393860Y-5744741D01*
X2403921Y-5846900D01*
X2393860Y-5949059D01*
X2364062Y-6047287D01*
X2315671Y-6137821D01*
X2250550Y-6217170D01*
X2171201Y-6282291D01*
X2171199Y-6282292D01*
X2080669Y-6330681D01*
X2015137Y-6350560D01*
X1976494Y-6362282D01*
X1953855Y-6371660D01*
X1933481Y-6385274D01*
X1916154Y-6402601D01*
X1902540Y-6422976D01*
X1893162Y-6445615D01*
X1888382Y-6469648D01*
X1888382Y-6494152D01*
X1893162Y-6518186D01*
X1902540Y-6540825D01*
X1916154Y-6561199D01*
X1933481Y-6578526D01*
X1953856Y-6592140D01*
X1976494Y-6601518D01*
X2010692Y-6611892D01*
X2080669Y-6633119D01*
X2080671Y-6633120D01*
X2171201Y-6681509D01*
X2250550Y-6746630D01*
X2315671Y-6825979D01*
X2364062Y-6916513D01*
X2393860Y-7014741D01*
X2403921Y-7116900D01*
X2393860Y-7219059D01*
X2364062Y-7317287D01*
X2315671Y-7407821D01*
X2250550Y-7487170D01*
X2171201Y-7552291D01*
X2171199Y-7552292D01*
X2080669Y-7600681D01*
X2015137Y-7620560D01*
X1976494Y-7632282D01*
X1953855Y-7641660D01*
X1933481Y-7655274D01*
X1916154Y-7672601D01*
X1902540Y-7692976D01*
X1893162Y-7715615D01*
X1888382Y-7739648D01*
X1888382Y-7764152D01*
X1893162Y-7788186D01*
X1902540Y-7810825D01*
X1916154Y-7831199D01*
X1933481Y-7848526D01*
X1953856Y-7862140D01*
X1976494Y-7871518D01*
X2015137Y-7883240D01*
X2080669Y-7903119D01*
X2080671Y-7903120D01*
X2171201Y-7951509D01*
X2250550Y-8016630D01*
X2315671Y-8095979D01*
X2364062Y-8186513D01*
X2393860Y-8284741D01*
X2403921Y-8386900D01*
X2393860Y-8489059D01*
X2364062Y-8587287D01*
X2315671Y-8677821D01*
X2250550Y-8757170D01*
X2171201Y-8822291D01*
X2171199Y-8822292D01*
X2080669Y-8870681D01*
X2015137Y-8890560D01*
X1976494Y-8902282D01*
X1953855Y-8911660D01*
X1933481Y-8925274D01*
X1916154Y-8942601D01*
X1902540Y-8962976D01*
X1893162Y-8985615D01*
X1888382Y-9009648D01*
X1888382Y-9034152D01*
X1893162Y-9058186D01*
X1902540Y-9080825D01*
X1916154Y-9101199D01*
X1933481Y-9118526D01*
X1953856Y-9132140D01*
X1976494Y-9141518D01*
X2015137Y-9153240D01*
X2080669Y-9173119D01*
X2080671Y-9173120D01*
X2171201Y-9221509D01*
X2250550Y-9286630D01*
X2315671Y-9365979D01*
X2364062Y-9456513D01*
X2393860Y-9554741D01*
X2403921Y-9656900D01*
X2393860Y-9759059D01*
X2364062Y-9857287D01*
X2315671Y-9947821D01*
X2250550Y-10027170D01*
X2171201Y-10092291D01*
X2171199Y-10092292D01*
X2080669Y-10140681D01*
X2015137Y-10160560D01*
X1976494Y-10172282D01*
X1953855Y-10181660D01*
X1933481Y-10195274D01*
X1916154Y-10212601D01*
X1902540Y-10232976D01*
X1893162Y-10255615D01*
X1888382Y-10279648D01*
X1888382Y-10304152D01*
X1893162Y-10328186D01*
X1902540Y-10350825D01*
X1916154Y-10371199D01*
X1933481Y-10388526D01*
X1953856Y-10402140D01*
X1976494Y-10411518D01*
X2015137Y-10423240D01*
X2080669Y-10443119D01*
X2080671Y-10443120D01*
X2171201Y-10491509D01*
X2250550Y-10556630D01*
X2315671Y-10635979D01*
X2364062Y-10726513D01*
X2393860Y-10824741D01*
X2403921Y-10926900D01*
X2393860Y-11029059D01*
X2364062Y-11127287D01*
X2315671Y-11217821D01*
X2250550Y-11297170D01*
X2171201Y-11362291D01*
X2136021Y-11381095D01*
X2080669Y-11410681D01*
X2026430Y-11427134D01*
X1976494Y-11442282D01*
X1953855Y-11451660D01*
X1933481Y-11465274D01*
X1916154Y-11482601D01*
X1902540Y-11502976D01*
X1893162Y-11525615D01*
X1888382Y-11549648D01*
X1888382Y-11574152D01*
X1893162Y-11598186D01*
X1902540Y-11620825D01*
X1916154Y-11641199D01*
X1933481Y-11658526D01*
X1953856Y-11672140D01*
X1976494Y-11681518D01*
X2004890Y-11690132D01*
X2080669Y-11713119D01*
X2080671Y-11713120D01*
X2171201Y-11761509D01*
X2250550Y-11826630D01*
X2315671Y-11905979D01*
X2364062Y-11996513D01*
X2393860Y-12094741D01*
X2403921Y-12196900D01*
X2393860Y-12299059D01*
X2364062Y-12397287D01*
X2315671Y-12487821D01*
X2250550Y-12567170D01*
X2171201Y-12632291D01*
X2109086Y-12665492D01*
X2080669Y-12680681D01*
X2015137Y-12700560D01*
X1976494Y-12712282D01*
X1953855Y-12721660D01*
X1933481Y-12735274D01*
X1916154Y-12752601D01*
X1902540Y-12772976D01*
X1893162Y-12795615D01*
X1888382Y-12819648D01*
X1888382Y-12844152D01*
X1893162Y-12868186D01*
X1902540Y-12890825D01*
X1916154Y-12911199D01*
X1933481Y-12928526D01*
X1953856Y-12942140D01*
X1976494Y-12951518D01*
X2015137Y-12963240D01*
X2080669Y-12983119D01*
X2080671Y-12983120D01*
X2171201Y-13031509D01*
X2250550Y-13096630D01*
X2315671Y-13175979D01*
X2364062Y-13266513D01*
X2393860Y-13364741D01*
X2403921Y-13466900D01*
X2393860Y-13569059D01*
X2364062Y-13667287D01*
X2315671Y-13757821D01*
X2250550Y-13837170D01*
X2171201Y-13902291D01*
X2171199Y-13902292D01*
X2080669Y-13950681D01*
X2015137Y-13970560D01*
X1976494Y-13982282D01*
X1953855Y-13991660D01*
X1933481Y-14005274D01*
X1916154Y-14022601D01*
X1902540Y-14042976D01*
X1893162Y-14065615D01*
X1888382Y-14089648D01*
X1888382Y-14114152D01*
X1893162Y-14138186D01*
X1902540Y-14160825D01*
X1916154Y-14181199D01*
X1933481Y-14198526D01*
X1953856Y-14212140D01*
X1976494Y-14221518D01*
X2015137Y-14233240D01*
X2080669Y-14253119D01*
X2080671Y-14253120D01*
X2171201Y-14301509D01*
X2250550Y-14366630D01*
X2315671Y-14445979D01*
X2364062Y-14536513D01*
X2393860Y-14634741D01*
X2403921Y-14736900D01*
X2393860Y-14839059D01*
X2364062Y-14937287D01*
X2315671Y-15027821D01*
X2250550Y-15107170D01*
X2171201Y-15172291D01*
X2171199Y-15172292D01*
X2080669Y-15220681D01*
X2015137Y-15240560D01*
X1976494Y-15252282D01*
X1953855Y-15261660D01*
X1933481Y-15275274D01*
X1916154Y-15292601D01*
X1902540Y-15312976D01*
X1893162Y-15335615D01*
X1888382Y-15359648D01*
X1888382Y-15384152D01*
X1893162Y-15408186D01*
X1902540Y-15430825D01*
X1916154Y-15451199D01*
X1933481Y-15468526D01*
X1953856Y-15482140D01*
X1976494Y-15491518D01*
X2015137Y-15503240D01*
X2080669Y-15523119D01*
X2080671Y-15523120D01*
X2171201Y-15571509D01*
X2250550Y-15636630D01*
X2315671Y-15715979D01*
X2364062Y-15806513D01*
X2393860Y-15904741D01*
X2403921Y-16006900D01*
X2393860Y-16109059D01*
X2364062Y-16207287D01*
X2315671Y-16297821D01*
X2250550Y-16377170D01*
X2171201Y-16442291D01*
X2171199Y-16442292D01*
X2080669Y-16490681D01*
X2015137Y-16510560D01*
X1976494Y-16522282D01*
X1953855Y-16531660D01*
X1933481Y-16545274D01*
X1916154Y-16562601D01*
X1902540Y-16582976D01*
X1893162Y-16605615D01*
X1888382Y-16629648D01*
X1888382Y-16654152D01*
X1893162Y-16678186D01*
X1902540Y-16700825D01*
X1916154Y-16721199D01*
X1933481Y-16738526D01*
X1953856Y-16752140D01*
X1976494Y-16761518D01*
X2015137Y-16773240D01*
X2080669Y-16793119D01*
X2080671Y-16793120D01*
X2171201Y-16841509D01*
X2250550Y-16906630D01*
X2315671Y-16985979D01*
X2364062Y-17076513D01*
X2393860Y-17174741D01*
X2403921Y-17276900D01*
X2393860Y-17379059D01*
X2364062Y-17477287D01*
X2315671Y-17567821D01*
X2250550Y-17647170D01*
X2171201Y-17712291D01*
X2171199Y-17712292D01*
X2080669Y-17760681D01*
X2015137Y-17780560D01*
X1976494Y-17792282D01*
X1953855Y-17801660D01*
X1933481Y-17815274D01*
X1916154Y-17832601D01*
X1902540Y-17852976D01*
X1893162Y-17875615D01*
X1888382Y-17899648D01*
X1888382Y-17924152D01*
X1893162Y-17948186D01*
X1902540Y-17970825D01*
X1916154Y-17991199D01*
X1933481Y-18008526D01*
X1953856Y-18022140D01*
X1976494Y-18031518D01*
X2015137Y-18043240D01*
X2080669Y-18063119D01*
X2080671Y-18063120D01*
X2171201Y-18111509D01*
X2250550Y-18176630D01*
X2315671Y-18255979D01*
X2364062Y-18346513D01*
X2393860Y-18444741D01*
X2403921Y-18546900D01*
X2393860Y-18649059D01*
X2364062Y-18747287D01*
X2315671Y-18837821D01*
X2250550Y-18917170D01*
X2171201Y-18982291D01*
X2080667Y-19030682D01*
X1982439Y-19060480D01*
X1905879Y-19068020D01*
X254681Y-19068020D01*
X178121Y-19060480D01*
X79893Y-19030682D01*
X-10641Y-18982291D01*
X-89990Y-18917170D01*
X-155111Y-18837821D01*
X-203502Y-18747287D01*
X-233300Y-18649059D01*
X-243361Y-18546900D01*
X-233300Y-18444741D01*
X-203502Y-18346513D01*
X-155111Y-18255979D01*
X-89990Y-18176630D01*
X-10641Y-18111509D01*
X79889Y-18063120D01*
X79891Y-18063119D01*
X145423Y-18043240D01*
X184066Y-18031518D01*
X206705Y-18022140D01*
X227079Y-18008526D01*
X244406Y-17991199D01*
X258020Y-17970824D01*
X267398Y-17948185D01*
X272178Y-17924152D01*
X272178Y-17899648D01*
X267398Y-17875614D01*
X258020Y-17852975D01*
X244406Y-17832601D01*
X227079Y-17815274D01*
X206704Y-17801660D01*
X184066Y-17792282D01*
X145423Y-17780560D01*
X79891Y-17760681D01*
X-10639Y-17712292D01*
X-10641Y-17712291D01*
X-89990Y-17647170D01*
X-155111Y-17567821D01*
X-203502Y-17477287D01*
X-233300Y-17379059D01*
X-243361Y-17276900D01*
X-233300Y-17174741D01*
X-203502Y-17076513D01*
X-155111Y-16985979D01*
X-89990Y-16906630D01*
X-10641Y-16841509D01*
X79889Y-16793120D01*
X79891Y-16793119D01*
X145423Y-16773240D01*
X184066Y-16761518D01*
X206705Y-16752140D01*
X227079Y-16738526D01*
X244406Y-16721199D01*
X258020Y-16700824D01*
X267398Y-16678185D01*
X272178Y-16654152D01*
X272178Y-16629648D01*
X267398Y-16605614D01*
X258020Y-16582975D01*
X244406Y-16562601D01*
X227079Y-16545274D01*
X206704Y-16531660D01*
X184066Y-16522282D01*
X145423Y-16510560D01*
X79891Y-16490681D01*
X-10639Y-16442292D01*
X-10641Y-16442291D01*
X-89990Y-16377170D01*
X-155111Y-16297821D01*
X-203502Y-16207287D01*
X-233300Y-16109059D01*
X-243361Y-16006900D01*
X-233300Y-15904741D01*
X-203502Y-15806513D01*
X-155111Y-15715979D01*
X-89990Y-15636630D01*
X-10641Y-15571509D01*
X79889Y-15523120D01*
X79891Y-15523119D01*
X145423Y-15503240D01*
X184066Y-15491518D01*
X206705Y-15482140D01*
X227079Y-15468526D01*
X244406Y-15451199D01*
X258020Y-15430824D01*
X267398Y-15408185D01*
X272178Y-15384152D01*
X272178Y-15359648D01*
X267398Y-15335614D01*
X258020Y-15312975D01*
X244406Y-15292601D01*
X227079Y-15275274D01*
X206704Y-15261660D01*
X184066Y-15252282D01*
X145423Y-15240560D01*
X79891Y-15220681D01*
X-10639Y-15172292D01*
X-10641Y-15172291D01*
X-89990Y-15107170D01*
X-155111Y-15027821D01*
X-203502Y-14937287D01*
X-233300Y-14839059D01*
X-243361Y-14736900D01*
X-233300Y-14634741D01*
X-203502Y-14536513D01*
X-155111Y-14445979D01*
X-89990Y-14366630D01*
X-10641Y-14301509D01*
X79889Y-14253120D01*
X79891Y-14253119D01*
X145423Y-14233240D01*
X184066Y-14221518D01*
X206705Y-14212140D01*
X227079Y-14198526D01*
X244406Y-14181199D01*
X258020Y-14160824D01*
X267398Y-14138185D01*
X272178Y-14114152D01*
X272178Y-14089648D01*
X267398Y-14065614D01*
X258020Y-14042975D01*
X244406Y-14022601D01*
X227079Y-14005274D01*
X206704Y-13991660D01*
X184066Y-13982282D01*
X145423Y-13970560D01*
X79891Y-13950681D01*
X-10639Y-13902292D01*
X-10641Y-13902291D01*
X-89990Y-13837170D01*
X-155111Y-13757821D01*
X-203502Y-13667287D01*
X-233300Y-13569059D01*
X-243361Y-13466900D01*
X-233300Y-13364741D01*
X-203502Y-13266513D01*
X-155111Y-13175979D01*
X-89990Y-13096630D01*
X-10641Y-13031509D01*
X79889Y-12983120D01*
X79891Y-12983119D01*
X145423Y-12963240D01*
X184066Y-12951518D01*
X206705Y-12942140D01*
X227079Y-12928526D01*
X244406Y-12911199D01*
X258020Y-12890824D01*
X267398Y-12868185D01*
X272178Y-12844152D01*
X272178Y-12819648D01*
X267398Y-12795614D01*
X258020Y-12772975D01*
X244406Y-12752601D01*
X227079Y-12735274D01*
X206704Y-12721660D01*
X184066Y-12712282D01*
X145423Y-12700560D01*
X79891Y-12680681D01*
X51474Y-12665492D01*
X-10641Y-12632291D01*
X-89990Y-12567170D01*
X-155111Y-12487821D01*
X-203502Y-12397287D01*
X-233300Y-12299059D01*
X-243361Y-12196900D01*
X-233300Y-12094741D01*
X-203502Y-11996513D01*
X-155111Y-11905979D01*
X-89990Y-11826630D01*
X-10641Y-11761509D01*
X79889Y-11713120D01*
X79891Y-11713119D01*
X155670Y-11690132D01*
X184066Y-11681518D01*
X206705Y-11672140D01*
X227079Y-11658526D01*
X244406Y-11641199D01*
X258020Y-11620824D01*
X267398Y-11598185D01*
X272178Y-11574152D01*
X272178Y-11549648D01*
X267398Y-11525614D01*
X258020Y-11502975D01*
X244406Y-11482601D01*
X227079Y-11465274D01*
X206704Y-11451660D01*
X184066Y-11442282D01*
X134130Y-11427134D01*
X79891Y-11410681D01*
X24539Y-11381095D01*
X-10641Y-11362291D01*
X-89990Y-11297170D01*
X-155111Y-11217821D01*
X-203502Y-11127287D01*
X-233300Y-11029059D01*
X-243361Y-10926900D01*
X-233300Y-10824741D01*
X-203502Y-10726513D01*
X-155111Y-10635979D01*
X-89990Y-10556630D01*
X-10641Y-10491509D01*
X79889Y-10443120D01*
X79891Y-10443119D01*
X145423Y-10423240D01*
X184066Y-10411518D01*
X206705Y-10402140D01*
X227079Y-10388526D01*
X244406Y-10371199D01*
X258020Y-10350824D01*
X267398Y-10328185D01*
X272178Y-10304152D01*
X272178Y-10279648D01*
X267398Y-10255614D01*
X258020Y-10232975D01*
X244406Y-10212601D01*
X227079Y-10195274D01*
X206704Y-10181660D01*
X184066Y-10172282D01*
X145423Y-10160560D01*
X79891Y-10140681D01*
X-10639Y-10092292D01*
X-10641Y-10092291D01*
X-89990Y-10027170D01*
X-155111Y-9947821D01*
X-203502Y-9857287D01*
X-233300Y-9759059D01*
X-243361Y-9656900D01*
X-233300Y-9554741D01*
X-203502Y-9456513D01*
X-155111Y-9365979D01*
X-89990Y-9286630D01*
X-10641Y-9221509D01*
X79889Y-9173120D01*
X79891Y-9173119D01*
X145423Y-9153240D01*
X184066Y-9141518D01*
X206705Y-9132140D01*
X227079Y-9118526D01*
X244406Y-9101199D01*
X258020Y-9080824D01*
X267398Y-9058185D01*
X272178Y-9034152D01*
X272178Y-9009648D01*
X267398Y-8985614D01*
X258020Y-8962975D01*
X244406Y-8942601D01*
X227079Y-8925274D01*
X206704Y-8911660D01*
X184066Y-8902282D01*
X145423Y-8890560D01*
X79891Y-8870681D01*
X-10639Y-8822292D01*
X-10641Y-8822291D01*
X-89990Y-8757170D01*
X-155111Y-8677821D01*
X-203502Y-8587287D01*
X-233300Y-8489059D01*
X-243361Y-8386900D01*
X-233300Y-8284741D01*
X-203502Y-8186513D01*
X-155111Y-8095979D01*
X-89990Y-8016630D01*
X-10641Y-7951509D01*
X79889Y-7903120D01*
X79891Y-7903119D01*
X145423Y-7883240D01*
X184066Y-7871518D01*
X206705Y-7862140D01*
X227079Y-7848526D01*
X244406Y-7831199D01*
X258020Y-7810824D01*
X267398Y-7788185D01*
X272178Y-7764152D01*
X272178Y-7739648D01*
X267398Y-7715614D01*
X258020Y-7692975D01*
X244406Y-7672601D01*
X227079Y-7655274D01*
X206704Y-7641660D01*
X184066Y-7632282D01*
X145423Y-7620560D01*
X79891Y-7600681D01*
X-10639Y-7552292D01*
X-10641Y-7552291D01*
X-89990Y-7487170D01*
X-155111Y-7407821D01*
X-203502Y-7317287D01*
X-233300Y-7219059D01*
X-243361Y-7116900D01*
X-233300Y-7014741D01*
X-203502Y-6916513D01*
X-155111Y-6825979D01*
X-89990Y-6746630D01*
X-10641Y-6681509D01*
X79889Y-6633120D01*
X79891Y-6633119D01*
X149868Y-6611892D01*
X184066Y-6601518D01*
X206705Y-6592140D01*
X227079Y-6578526D01*
X244406Y-6561199D01*
X258020Y-6540824D01*
X267398Y-6518185D01*
X272178Y-6494152D01*
X272178Y-6469648D01*
X267398Y-6445614D01*
X258020Y-6422975D01*
X244406Y-6402601D01*
X227079Y-6385274D01*
X206704Y-6371660D01*
X184066Y-6362282D01*
X145423Y-6350560D01*
X79891Y-6330681D01*
X-10639Y-6282292D01*
X-10641Y-6282291D01*
X-89990Y-6217170D01*
X-155111Y-6137821D01*
X-203502Y-6047287D01*
X-233300Y-5949059D01*
X-243361Y-5846900D01*
X-233300Y-5744741D01*
X-203502Y-5646513D01*
X-155111Y-5555979D01*
X-89990Y-5476630D01*
X-10641Y-5411509D01*
X79889Y-5363120D01*
X79891Y-5363119D01*
X145423Y-5343240D01*
X184066Y-5331518D01*
X206705Y-5322140D01*
X227079Y-5308526D01*
X244406Y-5291199D01*
X258020Y-5270824D01*
X267398Y-5248185D01*
X272178Y-5224152D01*
X272178Y-5199648D01*
X267398Y-5175614D01*
X258020Y-5152975D01*
X244406Y-5132601D01*
X227079Y-5115274D01*
X206704Y-5101660D01*
X184066Y-5092282D01*
X110085Y-5069840D01*
X79891Y-5060681D01*
X-10639Y-5012292D01*
X-10641Y-5012291D01*
X-89990Y-4947170D01*
X-155111Y-4867821D01*
X-203502Y-4777287D01*
X-233300Y-4679059D01*
X-243361Y-4576900D01*
X-233300Y-4474741D01*
X-203502Y-4376513D01*
X-155111Y-4285979D01*
X-89990Y-4206630D01*
X-10641Y-4141509D01*
X79889Y-4093120D01*
X79891Y-4093119D01*
X145423Y-4073240D01*
X184066Y-4061518D01*
X206705Y-4052140D01*
X227079Y-4038526D01*
X244406Y-4021199D01*
X258020Y-4000824D01*
X267398Y-3978185D01*
X272178Y-3954152D01*
X272178Y-3929648D01*
X267398Y-3905614D01*
X258020Y-3882975D01*
X244406Y-3862601D01*
X227079Y-3845274D01*
X206704Y-3831660D01*
X184066Y-3822282D01*
X145423Y-3810560D01*
X79891Y-3790681D01*
X70896Y-3785873D01*
X-10641Y-3742291D01*
X-89990Y-3677170D01*
X-155111Y-3597821D01*
X-203502Y-3507287D01*
X-233300Y-3409059D01*
X-243361Y-3306900D01*
X-233300Y-3204741D01*
X-203502Y-3106513D01*
X-155111Y-3015979D01*
X-89990Y-2936630D01*
X-10641Y-2871509D01*
X79889Y-2823120D01*
X79891Y-2823119D01*
X145423Y-2803240D01*
X184066Y-2791518D01*
X206705Y-2782140D01*
X227079Y-2768526D01*
X244406Y-2751199D01*
X258020Y-2730824D01*
X267398Y-2708185D01*
X272178Y-2684152D01*
X272178Y-2659648D01*
X267398Y-2635614D01*
X258020Y-2612975D01*
X244406Y-2592601D01*
X227079Y-2575274D01*
X206704Y-2561660D01*
X184066Y-2552282D01*
X145423Y-2540560D01*
X79891Y-2520681D01*
X-10639Y-2472292D01*
X-10641Y-2472291D01*
X-89990Y-2407170D01*
X-155111Y-2327821D01*
X-203502Y-2237287D01*
X-233300Y-2139059D01*
X-243361Y-2036900D01*
X-233300Y-1934741D01*
X-203502Y-1836513D01*
X-155111Y-1745979D01*
X-89990Y-1666630D01*
X-10641Y-1601509D01*
X79893Y-1553118D01*
X178121Y-1523320D01*
X254681Y-1515780D01*
X1905879Y-1515780D01*
X1982439Y-1523320D01*
X1982439Y-1523320D01*
G37*
G36*
X-16017561Y-1523320D02*
X-15919333Y-1553118D01*
X-15828799Y-1601509D01*
X-15749450Y-1666630D01*
X-15684329Y-1745979D01*
X-15635938Y-1836513D01*
X-15606140Y-1934741D01*
X-15596079Y-2036900D01*
X-15606140Y-2139059D01*
X-15635938Y-2237287D01*
X-15684329Y-2327821D01*
X-15749450Y-2407170D01*
X-15828799Y-2472291D01*
X-15828801Y-2472292D01*
X-15919331Y-2520681D01*
X-15984863Y-2540560D01*
X-16023506Y-2552282D01*
X-16046145Y-2561660D01*
X-16066519Y-2575274D01*
X-16083846Y-2592601D01*
X-16097460Y-2612976D01*
X-16106838Y-2635615D01*
X-16111618Y-2659648D01*
X-16111618Y-2684152D01*
X-16106838Y-2708186D01*
X-16097460Y-2730825D01*
X-16083846Y-2751199D01*
X-16066519Y-2768526D01*
X-16046144Y-2782140D01*
X-16023506Y-2791518D01*
X-15984863Y-2803240D01*
X-15919331Y-2823119D01*
X-15919329Y-2823120D01*
X-15828799Y-2871509D01*
X-15749450Y-2936630D01*
X-15684329Y-3015979D01*
X-15635938Y-3106513D01*
X-15606140Y-3204741D01*
X-15596079Y-3306900D01*
X-15606140Y-3409059D01*
X-15635938Y-3507287D01*
X-15684329Y-3597821D01*
X-15749450Y-3677170D01*
X-15828799Y-3742291D01*
X-15910336Y-3785873D01*
X-15919331Y-3790681D01*
X-15984863Y-3810560D01*
X-16023506Y-3822282D01*
X-16046145Y-3831660D01*
X-16066519Y-3845274D01*
X-16083846Y-3862601D01*
X-16097460Y-3882976D01*
X-16106838Y-3905615D01*
X-16111618Y-3929648D01*
X-16111618Y-3954152D01*
X-16106838Y-3978186D01*
X-16097460Y-4000825D01*
X-16083846Y-4021199D01*
X-16066519Y-4038526D01*
X-16046144Y-4052140D01*
X-16023506Y-4061518D01*
X-15984863Y-4073240D01*
X-15919331Y-4093119D01*
X-15919329Y-4093120D01*
X-15828799Y-4141509D01*
X-15749450Y-4206630D01*
X-15684329Y-4285979D01*
X-15635938Y-4376513D01*
X-15606140Y-4474741D01*
X-15596079Y-4576900D01*
X-15606140Y-4679059D01*
X-15635938Y-4777287D01*
X-15684329Y-4867821D01*
X-15749450Y-4947170D01*
X-15828799Y-5012291D01*
X-15828801Y-5012292D01*
X-15919331Y-5060681D01*
X-15949525Y-5069840D01*
X-16023506Y-5092282D01*
X-16046145Y-5101660D01*
X-16066519Y-5115274D01*
X-16083846Y-5132601D01*
X-16097460Y-5152976D01*
X-16106838Y-5175615D01*
X-16111618Y-5199648D01*
X-16111618Y-5224152D01*
X-16106838Y-5248186D01*
X-16097460Y-5270825D01*
X-16083846Y-5291199D01*
X-16066519Y-5308526D01*
X-16046144Y-5322140D01*
X-16023506Y-5331518D01*
X-15984863Y-5343240D01*
X-15919331Y-5363119D01*
X-15919329Y-5363120D01*
X-15828799Y-5411509D01*
X-15749450Y-5476630D01*
X-15684329Y-5555979D01*
X-15635938Y-5646513D01*
X-15606140Y-5744741D01*
X-15596079Y-5846900D01*
X-15606140Y-5949059D01*
X-15635938Y-6047287D01*
X-15684329Y-6137821D01*
X-15749450Y-6217170D01*
X-15828799Y-6282291D01*
X-15828801Y-6282292D01*
X-15919331Y-6330681D01*
X-15984863Y-6350560D01*
X-16023506Y-6362282D01*
X-16046145Y-6371660D01*
X-16066519Y-6385274D01*
X-16083846Y-6402601D01*
X-16097460Y-6422976D01*
X-16106838Y-6445615D01*
X-16111618Y-6469648D01*
X-16111618Y-6494152D01*
X-16106838Y-6518186D01*
X-16097460Y-6540825D01*
X-16083846Y-6561199D01*
X-16066519Y-6578526D01*
X-16046144Y-6592140D01*
X-16023506Y-6601518D01*
X-15989308Y-6611892D01*
X-15919331Y-6633119D01*
X-15919329Y-6633120D01*
X-15828799Y-6681509D01*
X-15749450Y-6746630D01*
X-15684329Y-6825979D01*
X-15635938Y-6916513D01*
X-15606140Y-7014741D01*
X-15596079Y-7116900D01*
X-15606140Y-7219059D01*
X-15635938Y-7317287D01*
X-15684329Y-7407821D01*
X-15749450Y-7487170D01*
X-15828799Y-7552291D01*
X-15828801Y-7552292D01*
X-15919331Y-7600681D01*
X-15984863Y-7620560D01*
X-16023506Y-7632282D01*
X-16046145Y-7641660D01*
X-16066519Y-7655274D01*
X-16083846Y-7672601D01*
X-16097460Y-7692976D01*
X-16106838Y-7715615D01*
X-16111618Y-7739648D01*
X-16111618Y-7764152D01*
X-16106838Y-7788186D01*
X-16097460Y-7810825D01*
X-16083846Y-7831199D01*
X-16066519Y-7848526D01*
X-16046144Y-7862140D01*
X-16023506Y-7871518D01*
X-15984863Y-7883240D01*
X-15919331Y-7903119D01*
X-15919329Y-7903120D01*
X-15828799Y-7951509D01*
X-15749450Y-8016630D01*
X-15684329Y-8095979D01*
X-15635938Y-8186513D01*
X-15606140Y-8284741D01*
X-15596079Y-8386900D01*
X-15606140Y-8489059D01*
X-15635938Y-8587287D01*
X-15684329Y-8677821D01*
X-15749450Y-8757170D01*
X-15828799Y-8822291D01*
X-15828801Y-8822292D01*
X-15919331Y-8870681D01*
X-15984863Y-8890560D01*
X-16023506Y-8902282D01*
X-16046145Y-8911660D01*
X-16066519Y-8925274D01*
X-16083846Y-8942601D01*
X-16097460Y-8962976D01*
X-16106838Y-8985615D01*
X-16111618Y-9009648D01*
X-16111618Y-9034152D01*
X-16106838Y-9058186D01*
X-16097460Y-9080825D01*
X-16083846Y-9101199D01*
X-16066519Y-9118526D01*
X-16046144Y-9132140D01*
X-16023506Y-9141518D01*
X-15984863Y-9153240D01*
X-15919331Y-9173119D01*
X-15919329Y-9173120D01*
X-15828799Y-9221509D01*
X-15749450Y-9286630D01*
X-15684329Y-9365979D01*
X-15635938Y-9456513D01*
X-15606140Y-9554741D01*
X-15596079Y-9656900D01*
X-15606140Y-9759059D01*
X-15635938Y-9857287D01*
X-15684329Y-9947821D01*
X-15749450Y-10027170D01*
X-15828799Y-10092291D01*
X-15828801Y-10092292D01*
X-15919331Y-10140681D01*
X-15984863Y-10160560D01*
X-16023506Y-10172282D01*
X-16046145Y-10181660D01*
X-16066519Y-10195274D01*
X-16083846Y-10212601D01*
X-16097460Y-10232976D01*
X-16106838Y-10255615D01*
X-16111618Y-10279648D01*
X-16111618Y-10304152D01*
X-16106838Y-10328186D01*
X-16097460Y-10350825D01*
X-16083846Y-10371199D01*
X-16066519Y-10388526D01*
X-16046144Y-10402140D01*
X-16023506Y-10411518D01*
X-15984863Y-10423240D01*
X-15919331Y-10443119D01*
X-15919329Y-10443120D01*
X-15828799Y-10491509D01*
X-15749450Y-10556630D01*
X-15684329Y-10635979D01*
X-15635938Y-10726513D01*
X-15606140Y-10824741D01*
X-15596079Y-10926900D01*
X-15606140Y-11029059D01*
X-15635938Y-11127287D01*
X-15684329Y-11217821D01*
X-15749450Y-11297170D01*
X-15828799Y-11362291D01*
X-15863979Y-11381095D01*
X-15919331Y-11410681D01*
X-15973570Y-11427134D01*
X-16023506Y-11442282D01*
X-16046145Y-11451660D01*
X-16066519Y-11465274D01*
X-16083846Y-11482601D01*
X-16097460Y-11502976D01*
X-16106838Y-11525615D01*
X-16111618Y-11549648D01*
X-16111618Y-11574152D01*
X-16106838Y-11598186D01*
X-16097460Y-11620825D01*
X-16083846Y-11641199D01*
X-16066519Y-11658526D01*
X-16046144Y-11672140D01*
X-16023506Y-11681518D01*
X-15995110Y-11690132D01*
X-15919331Y-11713119D01*
X-15919329Y-11713120D01*
X-15828799Y-11761509D01*
X-15749450Y-11826630D01*
X-15684329Y-11905979D01*
X-15635938Y-11996513D01*
X-15606140Y-12094741D01*
X-15596079Y-12196900D01*
X-15606140Y-12299059D01*
X-15635938Y-12397287D01*
X-15684329Y-12487821D01*
X-15749450Y-12567170D01*
X-15828799Y-12632291D01*
X-15890914Y-12665492D01*
X-15919331Y-12680681D01*
X-15984863Y-12700560D01*
X-16023506Y-12712282D01*
X-16046145Y-12721660D01*
X-16066519Y-12735274D01*
X-16083846Y-12752601D01*
X-16097460Y-12772976D01*
X-16106838Y-12795615D01*
X-16111618Y-12819648D01*
X-16111618Y-12844152D01*
X-16106838Y-12868186D01*
X-16097460Y-12890825D01*
X-16083846Y-12911199D01*
X-16066519Y-12928526D01*
X-16046144Y-12942140D01*
X-16023506Y-12951518D01*
X-15984863Y-12963240D01*
X-15919331Y-12983119D01*
X-15919329Y-12983120D01*
X-15828799Y-13031509D01*
X-15749450Y-13096630D01*
X-15684329Y-13175979D01*
X-15635938Y-13266513D01*
X-15606140Y-13364741D01*
X-15596079Y-13466900D01*
X-15606140Y-13569059D01*
X-15635938Y-13667287D01*
X-15684329Y-13757821D01*
X-15749450Y-13837170D01*
X-15828799Y-13902291D01*
X-15828801Y-13902292D01*
X-15919331Y-13950681D01*
X-15984863Y-13970560D01*
X-16023506Y-13982282D01*
X-16046145Y-13991660D01*
X-16066519Y-14005274D01*
X-16083846Y-14022601D01*
X-16097460Y-14042976D01*
X-16106838Y-14065615D01*
X-16111618Y-14089648D01*
X-16111618Y-14114152D01*
X-16106838Y-14138186D01*
X-16097460Y-14160825D01*
X-16083846Y-14181199D01*
X-16066519Y-14198526D01*
X-16046144Y-14212140D01*
X-16023506Y-14221518D01*
X-15984863Y-14233240D01*
X-15919331Y-14253119D01*
X-15919329Y-14253120D01*
X-15828799Y-14301509D01*
X-15749450Y-14366630D01*
X-15684329Y-14445979D01*
X-15635938Y-14536513D01*
X-15606140Y-14634741D01*
X-15596079Y-14736900D01*
X-15606140Y-14839059D01*
X-15635938Y-14937287D01*
X-15684329Y-15027821D01*
X-15749450Y-15107170D01*
X-15828799Y-15172291D01*
X-15828801Y-15172292D01*
X-15919331Y-15220681D01*
X-15984863Y-15240560D01*
X-16023506Y-15252282D01*
X-16046145Y-15261660D01*
X-16066519Y-15275274D01*
X-16083846Y-15292601D01*
X-16097460Y-15312976D01*
X-16106838Y-15335615D01*
X-16111618Y-15359648D01*
X-16111618Y-15384152D01*
X-16106838Y-15408186D01*
X-16097460Y-15430825D01*
X-16083846Y-15451199D01*
X-16066519Y-15468526D01*
X-16046144Y-15482140D01*
X-16023506Y-15491518D01*
X-15984863Y-15503240D01*
X-15919331Y-15523119D01*
X-15919329Y-15523120D01*
X-15828799Y-15571509D01*
X-15749450Y-15636630D01*
X-15684329Y-15715979D01*
X-15635938Y-15806513D01*
X-15606140Y-15904741D01*
X-15596079Y-16006900D01*
X-15606140Y-16109059D01*
X-15635938Y-16207287D01*
X-15684329Y-16297821D01*
X-15749450Y-16377170D01*
X-15828799Y-16442291D01*
X-15828801Y-16442292D01*
X-15919331Y-16490681D01*
X-15984863Y-16510560D01*
X-16023506Y-16522282D01*
X-16046145Y-16531660D01*
X-16066519Y-16545274D01*
X-16083846Y-16562601D01*
X-16097460Y-16582976D01*
X-16106838Y-16605615D01*
X-16111618Y-16629648D01*
X-16111618Y-16654152D01*
X-16106838Y-16678186D01*
X-16097460Y-16700825D01*
X-16083846Y-16721199D01*
X-16066519Y-16738526D01*
X-16046144Y-16752140D01*
X-16023506Y-16761518D01*
X-15984863Y-16773240D01*
X-15919331Y-16793119D01*
X-15919329Y-16793120D01*
X-15828799Y-16841509D01*
X-15749450Y-16906630D01*
X-15684329Y-16985979D01*
X-15635938Y-17076513D01*
X-15606140Y-17174741D01*
X-15596079Y-17276900D01*
X-15606140Y-17379059D01*
X-15635938Y-17477287D01*
X-15684329Y-17567821D01*
X-15749450Y-17647170D01*
X-15828799Y-17712291D01*
X-15828801Y-17712292D01*
X-15919331Y-17760681D01*
X-15984863Y-17780560D01*
X-16023506Y-17792282D01*
X-16046145Y-17801660D01*
X-16066519Y-17815274D01*
X-16083846Y-17832601D01*
X-16097460Y-17852976D01*
X-16106838Y-17875615D01*
X-16111618Y-17899648D01*
X-16111618Y-17924152D01*
X-16106838Y-17948186D01*
X-16097460Y-17970825D01*
X-16083846Y-17991199D01*
X-16066519Y-18008526D01*
X-16046144Y-18022140D01*
X-16023506Y-18031518D01*
X-15984863Y-18043240D01*
X-15919331Y-18063119D01*
X-15919329Y-18063120D01*
X-15828799Y-18111509D01*
X-15749450Y-18176630D01*
X-15684329Y-18255979D01*
X-15635938Y-18346513D01*
X-15606140Y-18444741D01*
X-15596079Y-18546900D01*
X-15606140Y-18649059D01*
X-15635938Y-18747287D01*
X-15684329Y-18837821D01*
X-15749450Y-18917170D01*
X-15828799Y-18982291D01*
X-15919333Y-19030682D01*
X-16017561Y-19060480D01*
X-16094121Y-19068020D01*
X-17745319Y-19068020D01*
X-17821879Y-19060480D01*
X-17920107Y-19030682D01*
X-18010641Y-18982291D01*
X-18089990Y-18917170D01*
X-18155111Y-18837821D01*
X-18203502Y-18747287D01*
X-18233300Y-18649059D01*
X-18243361Y-18546900D01*
X-18233300Y-18444741D01*
X-18203502Y-18346513D01*
X-18155111Y-18255979D01*
X-18089990Y-18176630D01*
X-18010641Y-18111509D01*
X-17920111Y-18063120D01*
X-17920109Y-18063119D01*
X-17854577Y-18043240D01*
X-17815934Y-18031518D01*
X-17793295Y-18022140D01*
X-17772921Y-18008526D01*
X-17755594Y-17991199D01*
X-17741980Y-17970824D01*
X-17732602Y-17948185D01*
X-17727822Y-17924152D01*
X-17727822Y-17899648D01*
X-17732602Y-17875614D01*
X-17741980Y-17852975D01*
X-17755594Y-17832601D01*
X-17772921Y-17815274D01*
X-17793296Y-17801660D01*
X-17815934Y-17792282D01*
X-17854577Y-17780560D01*
X-17920109Y-17760681D01*
X-18010639Y-17712292D01*
X-18010641Y-17712291D01*
X-18089990Y-17647170D01*
X-18155111Y-17567821D01*
X-18203502Y-17477287D01*
X-18233300Y-17379059D01*
X-18243361Y-17276900D01*
X-18233300Y-17174741D01*
X-18203502Y-17076513D01*
X-18155111Y-16985979D01*
X-18089990Y-16906630D01*
X-18010641Y-16841509D01*
X-17920111Y-16793120D01*
X-17920109Y-16793119D01*
X-17854577Y-16773240D01*
X-17815934Y-16761518D01*
X-17793295Y-16752140D01*
X-17772921Y-16738526D01*
X-17755594Y-16721199D01*
X-17741980Y-16700824D01*
X-17732602Y-16678185D01*
X-17727822Y-16654152D01*
X-17727822Y-16629648D01*
X-17732602Y-16605614D01*
X-17741980Y-16582975D01*
X-17755594Y-16562601D01*
X-17772921Y-16545274D01*
X-17793296Y-16531660D01*
X-17815934Y-16522282D01*
X-17854577Y-16510560D01*
X-17920109Y-16490681D01*
X-18010639Y-16442292D01*
X-18010641Y-16442291D01*
X-18089990Y-16377170D01*
X-18155111Y-16297821D01*
X-18203502Y-16207287D01*
X-18233300Y-16109059D01*
X-18243361Y-16006900D01*
X-18233300Y-15904741D01*
X-18203502Y-15806513D01*
X-18155111Y-15715979D01*
X-18089990Y-15636630D01*
X-18010641Y-15571509D01*
X-17920111Y-15523120D01*
X-17920109Y-15523119D01*
X-17854577Y-15503240D01*
X-17815934Y-15491518D01*
X-17793295Y-15482140D01*
X-17772921Y-15468526D01*
X-17755594Y-15451199D01*
X-17741980Y-15430824D01*
X-17732602Y-15408185D01*
X-17727822Y-15384152D01*
X-17727822Y-15359648D01*
X-17732602Y-15335614D01*
X-17741980Y-15312975D01*
X-17755594Y-15292601D01*
X-17772921Y-15275274D01*
X-17793296Y-15261660D01*
X-17815934Y-15252282D01*
X-17854577Y-15240560D01*
X-17920109Y-15220681D01*
X-18010639Y-15172292D01*
X-18010641Y-15172291D01*
X-18089990Y-15107170D01*
X-18155111Y-15027821D01*
X-18203502Y-14937287D01*
X-18233300Y-14839059D01*
X-18243361Y-14736900D01*
X-18233300Y-14634741D01*
X-18203502Y-14536513D01*
X-18155111Y-14445979D01*
X-18089990Y-14366630D01*
X-18010641Y-14301509D01*
X-17920111Y-14253120D01*
X-17920109Y-14253119D01*
X-17854577Y-14233240D01*
X-17815934Y-14221518D01*
X-17793295Y-14212140D01*
X-17772921Y-14198526D01*
X-17755594Y-14181199D01*
X-17741980Y-14160824D01*
X-17732602Y-14138185D01*
X-17727822Y-14114152D01*
X-17727822Y-14089648D01*
X-17732602Y-14065614D01*
X-17741980Y-14042975D01*
X-17755594Y-14022601D01*
X-17772921Y-14005274D01*
X-17793296Y-13991660D01*
X-17815934Y-13982282D01*
X-17854577Y-13970560D01*
X-17920109Y-13950681D01*
X-18010639Y-13902292D01*
X-18010641Y-13902291D01*
X-18089990Y-13837170D01*
X-18155111Y-13757821D01*
X-18203502Y-13667287D01*
X-18233300Y-13569059D01*
X-18243361Y-13466900D01*
X-18233300Y-13364741D01*
X-18203502Y-13266513D01*
X-18155111Y-13175979D01*
X-18089990Y-13096630D01*
X-18010641Y-13031509D01*
X-17920111Y-12983120D01*
X-17920109Y-12983119D01*
X-17854577Y-12963240D01*
X-17815934Y-12951518D01*
X-17793295Y-12942140D01*
X-17772921Y-12928526D01*
X-17755594Y-12911199D01*
X-17741980Y-12890824D01*
X-17732602Y-12868185D01*
X-17727822Y-12844152D01*
X-17727822Y-12819648D01*
X-17732602Y-12795614D01*
X-17741980Y-12772975D01*
X-17755594Y-12752601D01*
X-17772921Y-12735274D01*
X-17793296Y-12721660D01*
X-17815934Y-12712282D01*
X-17854577Y-12700560D01*
X-17920109Y-12680681D01*
X-17948526Y-12665492D01*
X-18010641Y-12632291D01*
X-18089990Y-12567170D01*
X-18155111Y-12487821D01*
X-18203502Y-12397287D01*
X-18233300Y-12299059D01*
X-18243361Y-12196900D01*
X-18233300Y-12094741D01*
X-18203502Y-11996513D01*
X-18155111Y-11905979D01*
X-18089990Y-11826630D01*
X-18010641Y-11761509D01*
X-17920111Y-11713120D01*
X-17920109Y-11713119D01*
X-17844330Y-11690132D01*
X-17815934Y-11681518D01*
X-17793295Y-11672140D01*
X-17772921Y-11658526D01*
X-17755594Y-11641199D01*
X-17741980Y-11620824D01*
X-17732602Y-11598185D01*
X-17727822Y-11574152D01*
X-17727822Y-11549648D01*
X-17732602Y-11525614D01*
X-17741980Y-11502975D01*
X-17755594Y-11482601D01*
X-17772921Y-11465274D01*
X-17793296Y-11451660D01*
X-17815934Y-11442282D01*
X-17865870Y-11427134D01*
X-17920109Y-11410681D01*
X-17975461Y-11381095D01*
X-18010641Y-11362291D01*
X-18089990Y-11297170D01*
X-18155111Y-11217821D01*
X-18203502Y-11127287D01*
X-18233300Y-11029059D01*
X-18243361Y-10926900D01*
X-18233300Y-10824741D01*
X-18203502Y-10726513D01*
X-18155111Y-10635979D01*
X-18089990Y-10556630D01*
X-18010641Y-10491509D01*
X-17920111Y-10443120D01*
X-17920109Y-10443119D01*
X-17854577Y-10423240D01*
X-17815934Y-10411518D01*
X-17793295Y-10402140D01*
X-17772921Y-10388526D01*
X-17755594Y-10371199D01*
X-17741980Y-10350824D01*
X-17732602Y-10328185D01*
X-17727822Y-10304152D01*
X-17727822Y-10279648D01*
X-17732602Y-10255614D01*
X-17741980Y-10232975D01*
X-17755594Y-10212601D01*
X-17772921Y-10195274D01*
X-17793296Y-10181660D01*
X-17815934Y-10172282D01*
X-17854577Y-10160560D01*
X-17920109Y-10140681D01*
X-18010639Y-10092292D01*
X-18010641Y-10092291D01*
X-18089990Y-10027170D01*
X-18155111Y-9947821D01*
X-18203502Y-9857287D01*
X-18233300Y-9759059D01*
X-18243361Y-9656900D01*
X-18233300Y-9554741D01*
X-18203502Y-9456513D01*
X-18155111Y-9365979D01*
X-18089990Y-9286630D01*
X-18010641Y-9221509D01*
X-17920111Y-9173120D01*
X-17920109Y-9173119D01*
X-17854577Y-9153240D01*
X-17815934Y-9141518D01*
X-17793295Y-9132140D01*
X-17772921Y-9118526D01*
X-17755594Y-9101199D01*
X-17741980Y-9080824D01*
X-17732602Y-9058185D01*
X-17727822Y-9034152D01*
X-17727822Y-9009648D01*
X-17732602Y-8985614D01*
X-17741980Y-8962975D01*
X-17755594Y-8942601D01*
X-17772921Y-8925274D01*
X-17793296Y-8911660D01*
X-17815934Y-8902282D01*
X-17854577Y-8890560D01*
X-17920109Y-8870681D01*
X-18010639Y-8822292D01*
X-18010641Y-8822291D01*
X-18089990Y-8757170D01*
X-18155111Y-8677821D01*
X-18203502Y-8587287D01*
X-18233300Y-8489059D01*
X-18243361Y-8386900D01*
X-18233300Y-8284741D01*
X-18203502Y-8186513D01*
X-18155111Y-8095979D01*
X-18089990Y-8016630D01*
X-18010641Y-7951509D01*
X-17920111Y-7903120D01*
X-17920109Y-7903119D01*
X-17854577Y-7883240D01*
X-17815934Y-7871518D01*
X-17793295Y-7862140D01*
X-17772921Y-7848526D01*
X-17755594Y-7831199D01*
X-17741980Y-7810824D01*
X-17732602Y-7788185D01*
X-17727822Y-7764152D01*
X-17727822Y-7739648D01*
X-17732602Y-7715614D01*
X-17741980Y-7692975D01*
X-17755594Y-7672601D01*
X-17772921Y-7655274D01*
X-17793296Y-7641660D01*
X-17815934Y-7632282D01*
X-17854577Y-7620560D01*
X-17920109Y-7600681D01*
X-18010639Y-7552292D01*
X-18010641Y-7552291D01*
X-18089990Y-7487170D01*
X-18155111Y-7407821D01*
X-18203502Y-7317287D01*
X-18233300Y-7219059D01*
X-18243361Y-7116900D01*
X-18233300Y-7014741D01*
X-18203502Y-6916513D01*
X-18155111Y-6825979D01*
X-18089990Y-6746630D01*
X-18010641Y-6681509D01*
X-17920111Y-6633120D01*
X-17920109Y-6633119D01*
X-17850132Y-6611892D01*
X-17815934Y-6601518D01*
X-17793295Y-6592140D01*
X-17772921Y-6578526D01*
X-17755594Y-6561199D01*
X-17741980Y-6540824D01*
X-17732602Y-6518185D01*
X-17727822Y-6494152D01*
X-17727822Y-6469648D01*
X-17732602Y-6445614D01*
X-17741980Y-6422975D01*
X-17755594Y-6402601D01*
X-17772921Y-6385274D01*
X-17793296Y-6371660D01*
X-17815934Y-6362282D01*
X-17854577Y-6350560D01*
X-17920109Y-6330681D01*
X-18010639Y-6282292D01*
X-18010641Y-6282291D01*
X-18089990Y-6217170D01*
X-18155111Y-6137821D01*
X-18203502Y-6047287D01*
X-18233300Y-5949059D01*
X-18243361Y-5846900D01*
X-18233300Y-5744741D01*
X-18203502Y-5646513D01*
X-18155111Y-5555979D01*
X-18089990Y-5476630D01*
X-18010641Y-5411509D01*
X-17920111Y-5363120D01*
X-17920109Y-5363119D01*
X-17854577Y-5343240D01*
X-17815934Y-5331518D01*
X-17793295Y-5322140D01*
X-17772921Y-5308526D01*
X-17755594Y-5291199D01*
X-17741980Y-5270824D01*
X-17732602Y-5248185D01*
X-17727822Y-5224152D01*
X-17727822Y-5199648D01*
X-17732602Y-5175614D01*
X-17741980Y-5152975D01*
X-17755594Y-5132601D01*
X-17772921Y-5115274D01*
X-17793296Y-5101660D01*
X-17815934Y-5092282D01*
X-17889915Y-5069840D01*
X-17920109Y-5060681D01*
X-18010639Y-5012292D01*
X-18010641Y-5012291D01*
X-18089990Y-4947170D01*
X-18155111Y-4867821D01*
X-18203502Y-4777287D01*
X-18233300Y-4679059D01*
X-18243361Y-4576900D01*
X-18233300Y-4474741D01*
X-18203502Y-4376513D01*
X-18155111Y-4285979D01*
X-18089990Y-4206630D01*
X-18010641Y-4141509D01*
X-17920111Y-4093120D01*
X-17920109Y-4093119D01*
X-17854577Y-4073240D01*
X-17815934Y-4061518D01*
X-17793295Y-4052140D01*
X-17772921Y-4038526D01*
X-17755594Y-4021199D01*
X-17741980Y-4000824D01*
X-17732602Y-3978185D01*
X-17727822Y-3954152D01*
X-17727822Y-3929648D01*
X-17732602Y-3905614D01*
X-17741980Y-3882975D01*
X-17755594Y-3862601D01*
X-17772921Y-3845274D01*
X-17793296Y-3831660D01*
X-17815934Y-3822282D01*
X-17854577Y-3810560D01*
X-17920109Y-3790681D01*
X-17929104Y-3785873D01*
X-18010641Y-3742291D01*
X-18089990Y-3677170D01*
X-18155111Y-3597821D01*
X-18203502Y-3507287D01*
X-18233300Y-3409059D01*
X-18243361Y-3306900D01*
X-18233300Y-3204741D01*
X-18203502Y-3106513D01*
X-18155111Y-3015979D01*
X-18089990Y-2936630D01*
X-18010641Y-2871509D01*
X-17920111Y-2823120D01*
X-17920109Y-2823119D01*
X-17854577Y-2803240D01*
X-17815934Y-2791518D01*
X-17793295Y-2782140D01*
X-17772921Y-2768526D01*
X-17755594Y-2751199D01*
X-17741980Y-2730824D01*
X-17732602Y-2708185D01*
X-17727822Y-2684152D01*
X-17727822Y-2659648D01*
X-17732602Y-2635614D01*
X-17741980Y-2612975D01*
X-17755594Y-2592601D01*
X-17772921Y-2575274D01*
X-17793296Y-2561660D01*
X-17815934Y-2552282D01*
X-17854577Y-2540560D01*
X-17920109Y-2520681D01*
X-18010639Y-2472292D01*
X-18010641Y-2472291D01*
X-18089990Y-2407170D01*
X-18155111Y-2327821D01*
X-18203502Y-2237287D01*
X-18233300Y-2139059D01*
X-18243361Y-2036900D01*
X-18233300Y-1934741D01*
X-18203502Y-1836513D01*
X-18155111Y-1745979D01*
X-18089990Y-1666630D01*
X-18010641Y-1601509D01*
X-17920107Y-1553118D01*
X-17821879Y-1523320D01*
X-17745319Y-1515780D01*
X-16094121Y-1515780D01*
X-16017561Y-1523320D01*
X-16017561Y-1523320D01*
G37*
G36*
X16618792Y-16755780D02*
X16719047Y-16775722D01*
X16761049Y-16793120D01*
X16855537Y-16832258D01*
X16978380Y-16914339D01*
X17082841Y-17018800D01*
X17164922Y-17141643D01*
X17221458Y-17278134D01*
X17241534Y-17379059D01*
X17250280Y-17423031D01*
X17250280Y-17570769D01*
X17222130Y-17712291D01*
X17221458Y-17715666D01*
X17164922Y-17852157D01*
X17082841Y-17975000D01*
X16978380Y-18079461D01*
X16855537Y-18161542D01*
X16775583Y-18194660D01*
X16719047Y-18218078D01*
X16646598Y-18232489D01*
X16574150Y-18246900D01*
X16426410Y-18246900D01*
X16353962Y-18232489D01*
X16281513Y-18218078D01*
X16224977Y-18194660D01*
X16145023Y-18161542D01*
X16022180Y-18079461D01*
X15917719Y-17975000D01*
X15835638Y-17852157D01*
X15779102Y-17715666D01*
X15778431Y-17712291D01*
X15750280Y-17570769D01*
X15750280Y-17423031D01*
X15759027Y-17379059D01*
X15779102Y-17278134D01*
X15835638Y-17141643D01*
X15917719Y-17018800D01*
X16022180Y-16914339D01*
X16145023Y-16832258D01*
X16239511Y-16793120D01*
X16281513Y-16775722D01*
X16381768Y-16755780D01*
X16426410Y-16746900D01*
X16574150Y-16746900D01*
X16618792Y-16755780D01*
X16618792Y-16755780D01*
G37*
G36*
X15633785Y-16028915D02*
X14969245Y-16693455D01*
X14304705Y-16028915D01*
X14969245Y-15364375D01*
X15633785Y-16028915D01*
X15633785Y-16028915D01*
G37*
G36*
X16693455Y-14969245D02*
X16028915Y-15633785D01*
X15364375Y-14969245D01*
X15969892Y-14363728D01*
X15985438Y-14344786D01*
X15996989Y-14323175D01*
X16004102Y-14299726D01*
X16005880Y-14281670D01*
X16693455Y-14969245D01*
X16693455Y-14969245D01*
G37*
G36*
X4970780Y-14371320D02*
X3827780Y-14371320D01*
X3827780Y-13629640D01*
X4970780Y-13629640D01*
X4970780Y-14371320D01*
X4970780Y-14371320D01*
G37*
G36*
X7170420Y-14371320D02*
X6027420Y-14371320D01*
X6027420Y-13629640D01*
X7170420Y-13629640D01*
X7170420Y-14371320D01*
X7170420Y-14371320D01*
G37*
G36*
X15943580Y-14167467D02*
X15929339Y-14159855D01*
X15905890Y-14152742D01*
X15881504Y-14150340D01*
X13187680Y-14150340D01*
X13187680Y-13373100D01*
X15943580Y-13373100D01*
X15943580Y-14167467D01*
X15943580Y-14167467D01*
G37*
G36*
X10142220Y-14152880D02*
X8856980Y-14152880D01*
X8856980Y-13375640D01*
X10142220Y-13375640D01*
X10142220Y-14152880D01*
X10142220Y-14152880D01*
G37*
G36*
X-5148600Y-13918020D02*
X-11290840Y-13918020D01*
X-11290840Y-7775780D01*
X-5148600Y-7775780D01*
X-5148600Y-13918020D01*
X-5148600Y-13918020D01*
G37*
G36*
X12651740Y-13141960D02*
X11874500Y-13141960D01*
X11874500Y-11856720D01*
X12651740Y-11856720D01*
X12651740Y-13141960D01*
X12651740Y-13141960D01*
G37*
G36*
X7170420Y-10751280D02*
X7172822Y-10775666D01*
X7179935Y-10799115D01*
X7191486Y-10820726D01*
X7207032Y-10839668D01*
X7225974Y-10855214D01*
X7247585Y-10866765D01*
X7271034Y-10873878D01*
X7295420Y-10876280D01*
X10142220Y-10876280D01*
X10142220Y-11731720D01*
X10144622Y-11756106D01*
X10151735Y-11779555D01*
X10163286Y-11801166D01*
X10178832Y-11820108D01*
X10197774Y-11835654D01*
X10219385Y-11847205D01*
X10242834Y-11854318D01*
X10267220Y-11856720D01*
X11127740Y-11856720D01*
X11127740Y-13141960D01*
X10350500Y-13141960D01*
X10350500Y-12753880D01*
X10348098Y-12729494D01*
X10340985Y-12706045D01*
X10329434Y-12684434D01*
X10313888Y-12665492D01*
X10294946Y-12649946D01*
X10273335Y-12638395D01*
X10249886Y-12631282D01*
X10225500Y-12628880D01*
X8856980Y-12628880D01*
X8856980Y-11778520D01*
X8854578Y-11754134D01*
X8847465Y-11730685D01*
X8835914Y-11709074D01*
X8820368Y-11690132D01*
X8801426Y-11674586D01*
X8779815Y-11663035D01*
X8756366Y-11655922D01*
X8731980Y-11653520D01*
X7355840Y-11653520D01*
X7355840Y-11496580D01*
X7353438Y-11472194D01*
X7346325Y-11448745D01*
X7334774Y-11427134D01*
X7319228Y-11408192D01*
X7300286Y-11392646D01*
X7278675Y-11381095D01*
X7255226Y-11373982D01*
X7230840Y-11371580D01*
X6027420Y-11371580D01*
X6027420Y-10629900D01*
X7170420Y-10629900D01*
X7170420Y-10751280D01*
X7170420Y-10751280D01*
G37*
G36*
X5434330Y-12103347D02*
X5436732Y-12127733D01*
X5443845Y-12151182D01*
X5455396Y-12172793D01*
X5470942Y-12191735D01*
X5489884Y-12207281D01*
X5511495Y-12218832D01*
X5534944Y-12225945D01*
X5559330Y-12228347D01*
X5583716Y-12225945D01*
X5607165Y-12218832D01*
X5628776Y-12207281D01*
X5655956Y-12182646D01*
X5729303Y-12093273D01*
X5816324Y-12021857D01*
X5816323Y-12021857D01*
X5816325Y-12021856D01*
X5863742Y-11996511D01*
X5915607Y-11968788D01*
X5951517Y-11957895D01*
X6023336Y-11936109D01*
X6065316Y-11931974D01*
X6107294Y-11927840D01*
X6562226Y-11927840D01*
X6604204Y-11931974D01*
X6646184Y-11936109D01*
X6718003Y-11957895D01*
X6753913Y-11968788D01*
X6805778Y-11996511D01*
X6853195Y-12021856D01*
X6940217Y-12093273D01*
X7011634Y-12180295D01*
X7036034Y-12225945D01*
X7064702Y-12279577D01*
X7064702Y-12279578D01*
X7097381Y-12387306D01*
X7108415Y-12499340D01*
X7097381Y-12611374D01*
X7089184Y-12638395D01*
X7064702Y-12719103D01*
X7046113Y-12753880D01*
X7011634Y-12818385D01*
X6940217Y-12905407D01*
X6853195Y-12976824D01*
X6806981Y-13001526D01*
X6753913Y-13029892D01*
X6718003Y-13040785D01*
X6646184Y-13062571D01*
X6604204Y-13066706D01*
X6562226Y-13070840D01*
X6107294Y-13070840D01*
X6065316Y-13066706D01*
X6023336Y-13062571D01*
X5951517Y-13040785D01*
X5915607Y-13029892D01*
X5862539Y-13001526D01*
X5816325Y-12976824D01*
X5729303Y-12905407D01*
X5717335Y-12890824D01*
X5655956Y-12816034D01*
X5638629Y-12798707D01*
X5618255Y-12785093D01*
X5595616Y-12775715D01*
X5571582Y-12770935D01*
X5547078Y-12770935D01*
X5523044Y-12775715D01*
X5500405Y-12785093D01*
X5480031Y-12798707D01*
X5462704Y-12816034D01*
X5449090Y-12836408D01*
X5439712Y-12859047D01*
X5434330Y-12895333D01*
X5434330Y-13070840D01*
X3892550Y-13070840D01*
X3892550Y-11927840D01*
X5434330Y-11927840D01*
X5434330Y-12103347D01*
X5434330Y-12103347D01*
G37*
G36*
X15943580Y-12626340D02*
X13187680Y-12626340D01*
X13187680Y-11849100D01*
X15943580Y-11849100D01*
X15943580Y-12626340D01*
X15943580Y-12626340D01*
G37*
G36*
X4970780Y-11371580D02*
X3827780Y-11371580D01*
X3827780Y-10629900D01*
X4970780Y-10629900D01*
X4970780Y-11371580D01*
X4970780Y-11371580D01*
G37*
G36*
X13373100Y-10843260D02*
X10624820Y-10843260D01*
X10624820Y-9700260D01*
X13373100Y-9700260D01*
X13373100Y-10843260D01*
X13373100Y-10843260D01*
G37*
G36*
X9626600Y-6725380D02*
X9629002Y-6749766D01*
X9636115Y-6773215D01*
X9647666Y-6794826D01*
X9663212Y-6813768D01*
X9682154Y-6829314D01*
X9703765Y-6840865D01*
X9727214Y-6847978D01*
X9751600Y-6850380D01*
X10142220Y-6850380D01*
X10142220Y-7627620D01*
X7295420Y-7627620D01*
X7271034Y-7630022D01*
X7247585Y-7637135D01*
X7225974Y-7648686D01*
X7207032Y-7664232D01*
X7191486Y-7683174D01*
X7179935Y-7704785D01*
X7172822Y-7728234D01*
X7170420Y-7752620D01*
X7170420Y-8249380D01*
X7172822Y-8273766D01*
X7179935Y-8297215D01*
X7191486Y-8318826D01*
X7207032Y-8337768D01*
X7225974Y-8353314D01*
X7247585Y-8364865D01*
X7271034Y-8371978D01*
X7295420Y-8374380D01*
X10142220Y-8374380D01*
X10142220Y-10129520D01*
X7355840Y-10129520D01*
X7355840Y-9531887D01*
X7353438Y-9507501D01*
X7351048Y-9499621D01*
X7355840Y-9467313D01*
X7355840Y-9252121D01*
X7355978Y-9251666D01*
X7358380Y-9227280D01*
X7358380Y-8496840D01*
X7355978Y-8472454D01*
X7348865Y-8449005D01*
X7337314Y-8427394D01*
X7321768Y-8408452D01*
X7302826Y-8392906D01*
X7281215Y-8381355D01*
X7257766Y-8374242D01*
X7233380Y-8371840D01*
X6027420Y-8371840D01*
X6027420Y-7630160D01*
X7233380Y-7630160D01*
X7257766Y-7627758D01*
X7281215Y-7620645D01*
X7302826Y-7609094D01*
X7321768Y-7593548D01*
X7337314Y-7574606D01*
X7348865Y-7552995D01*
X7355978Y-7529546D01*
X7358380Y-7505160D01*
X7358380Y-6850380D01*
X8724360Y-6850380D01*
X8748746Y-6847978D01*
X8772195Y-6840865D01*
X8793806Y-6829314D01*
X8812748Y-6813768D01*
X8828294Y-6794826D01*
X8839845Y-6773215D01*
X8846958Y-6749766D01*
X8849360Y-6725380D01*
X8849360Y-5359400D01*
X9626600Y-5359400D01*
X9626600Y-6725380D01*
X9626600Y-6725380D01*
G37*
G36*
X5434330Y-9103607D02*
X5436732Y-9127993D01*
X5443845Y-9151442D01*
X5455396Y-9173053D01*
X5470942Y-9191995D01*
X5489884Y-9207541D01*
X5511495Y-9219092D01*
X5534944Y-9226205D01*
X5559330Y-9228607D01*
X5583716Y-9226205D01*
X5607165Y-9219092D01*
X5628776Y-9207541D01*
X5655956Y-9182906D01*
X5729303Y-9093533D01*
X5816324Y-9022117D01*
X5816323Y-9022117D01*
X5816325Y-9022116D01*
X5884615Y-8985614D01*
X5915607Y-8969048D01*
X5951517Y-8958155D01*
X6023336Y-8936369D01*
X6065316Y-8932235D01*
X6107294Y-8928100D01*
X6562226Y-8928100D01*
X6604204Y-8932235D01*
X6646184Y-8936369D01*
X6718003Y-8958155D01*
X6753913Y-8969048D01*
X6784905Y-8985614D01*
X6853195Y-9022116D01*
X6940217Y-9093533D01*
X7011634Y-9180555D01*
X7033524Y-9221508D01*
X7064702Y-9279837D01*
X7075595Y-9315747D01*
X7097381Y-9387566D01*
X7097381Y-9387568D01*
X7106442Y-9479565D01*
X7110885Y-9501898D01*
X7106442Y-9519635D01*
X7097381Y-9611634D01*
X7075595Y-9683453D01*
X7064702Y-9719363D01*
X7036997Y-9771195D01*
X7011634Y-9818645D01*
X6940217Y-9905667D01*
X6853195Y-9977084D01*
X6806981Y-10001786D01*
X6753913Y-10030152D01*
X6718003Y-10041045D01*
X6646184Y-10062831D01*
X6604204Y-10066965D01*
X6562226Y-10071100D01*
X6107294Y-10071100D01*
X6065316Y-10066965D01*
X6023336Y-10062831D01*
X5951517Y-10041045D01*
X5915607Y-10030152D01*
X5862539Y-10001786D01*
X5816325Y-9977084D01*
X5729303Y-9905667D01*
X5689600Y-9857289D01*
X5655956Y-9816294D01*
X5638629Y-9798967D01*
X5618255Y-9785353D01*
X5595616Y-9775975D01*
X5571582Y-9771195D01*
X5547078Y-9771195D01*
X5523044Y-9775975D01*
X5500405Y-9785353D01*
X5480031Y-9798967D01*
X5462704Y-9816294D01*
X5449090Y-9836668D01*
X5439712Y-9859307D01*
X5434330Y-9895593D01*
X5434330Y-10071100D01*
X3892550Y-10071100D01*
X3892550Y-8928100D01*
X5434330Y-8928100D01*
X5434330Y-9103607D01*
X5434330Y-9103607D01*
G37*
G36*
X4970780Y-8371840D02*
X3827780Y-8371840D01*
X3827780Y-7630160D01*
X4970780Y-7630160D01*
X4970780Y-8371840D01*
X4970780Y-8371840D01*
G37*
G36*
X13373100Y-8303260D02*
X10624820Y-8303260D01*
X10624820Y-7160260D01*
X13373100Y-7160260D01*
X13373100Y-8303260D01*
X13373100Y-8303260D01*
G37*
G36*
X5434330Y-6103867D02*
X5436732Y-6128253D01*
X5443845Y-6151702D01*
X5455396Y-6173313D01*
X5470942Y-6192255D01*
X5489884Y-6207801D01*
X5511495Y-6219352D01*
X5534944Y-6226465D01*
X5559330Y-6228867D01*
X5583716Y-6226465D01*
X5607165Y-6219352D01*
X5628776Y-6207801D01*
X5655956Y-6183166D01*
X5729303Y-6093793D01*
X5816325Y-6022376D01*
X5862539Y-5997674D01*
X5915607Y-5969308D01*
X5951517Y-5958415D01*
X6023336Y-5936629D01*
X6065316Y-5932494D01*
X6107294Y-5928360D01*
X6562226Y-5928360D01*
X6604204Y-5932494D01*
X6646184Y-5936629D01*
X6718003Y-5958415D01*
X6753913Y-5969308D01*
X6806981Y-5997674D01*
X6853195Y-6022376D01*
X6940217Y-6093793D01*
X7011634Y-6180815D01*
X7036034Y-6226465D01*
X7064702Y-6280097D01*
X7065368Y-6282292D01*
X7097381Y-6387826D01*
X7108415Y-6499860D01*
X7097381Y-6611894D01*
X7076264Y-6681508D01*
X7064702Y-6719623D01*
X7050266Y-6746630D01*
X7011634Y-6818905D01*
X6940217Y-6905927D01*
X6853195Y-6977344D01*
X6806981Y-7002046D01*
X6753913Y-7030412D01*
X6718003Y-7041305D01*
X6646184Y-7063091D01*
X6604204Y-7067226D01*
X6562226Y-7071360D01*
X6107294Y-7071360D01*
X6065316Y-7067226D01*
X6023336Y-7063091D01*
X5951517Y-7041305D01*
X5915607Y-7030412D01*
X5862539Y-7002046D01*
X5816325Y-6977344D01*
X5729303Y-6905927D01*
X5691256Y-6859567D01*
X5655956Y-6816554D01*
X5638629Y-6799227D01*
X5618255Y-6785613D01*
X5595616Y-6776235D01*
X5571582Y-6771455D01*
X5547078Y-6771455D01*
X5523044Y-6776235D01*
X5500405Y-6785613D01*
X5480031Y-6799227D01*
X5462704Y-6816554D01*
X5449090Y-6836928D01*
X5439712Y-6859567D01*
X5434330Y-6895853D01*
X5434330Y-7071360D01*
X3892550Y-7071360D01*
X3892550Y-5928360D01*
X5434330Y-5928360D01*
X5434330Y-6103867D01*
X5434330Y-6103867D01*
G37*
G36*
X13649960Y-6644640D02*
X12872720Y-6644640D01*
X12872720Y-5359400D01*
X13649960Y-5359400D01*
X13649960Y-6644640D01*
X13649960Y-6644640D01*
G37*
G36*
X12125960Y-6644640D02*
X10373360Y-6644640D01*
X10373360Y-5359400D01*
X12125960Y-5359400D01*
X12125960Y-6644640D01*
X12125960Y-6644640D01*
G37*
G36*
X4970780Y-5372100D02*
X3827780Y-5372100D01*
X3827780Y-4630420D01*
X4970780Y-4630420D01*
X4970780Y-5372100D01*
X4970780Y-5372100D01*
G37*
G36*
X7170420Y-5372100D02*
X6027420Y-5372100D01*
X6027420Y-4630420D01*
X7170420Y-4630420D01*
X7170420Y-5372100D01*
X7170420Y-5372100D01*
G37*
G36*
X13232770Y-3738422D02*
X13256302Y-3745560D01*
X13359174Y-3776766D01*
X13475665Y-3839032D01*
X13504384Y-3862601D01*
X13577772Y-3922828D01*
X13622724Y-3977604D01*
X13661568Y-4024935D01*
X13723834Y-4141426D01*
X13723859Y-4141509D01*
X13762178Y-4267830D01*
X13775124Y-4399280D01*
X13762178Y-4530730D01*
X13762177Y-4530733D01*
X13723834Y-4657134D01*
X13661568Y-4773625D01*
X13635532Y-4805349D01*
X13577772Y-4875732D01*
X13507389Y-4933492D01*
X13475665Y-4959528D01*
X13359174Y-5021794D01*
X13256302Y-5053000D01*
X13232770Y-5060138D01*
X13134261Y-5069840D01*
X12667059Y-5069840D01*
X12568550Y-5060138D01*
X12545018Y-5053000D01*
X12442146Y-5021794D01*
X12325655Y-4959528D01*
X12293931Y-4933492D01*
X12223548Y-4875732D01*
X12165788Y-4805349D01*
X12139752Y-4773625D01*
X12077486Y-4657134D01*
X12039143Y-4530733D01*
X12039142Y-4530730D01*
X12026196Y-4399280D01*
X12039142Y-4267830D01*
X12077461Y-4141509D01*
X12077486Y-4141426D01*
X12139752Y-4024935D01*
X12178596Y-3977604D01*
X12223548Y-3922828D01*
X12296936Y-3862601D01*
X12325655Y-3839032D01*
X12442146Y-3776766D01*
X12545018Y-3745560D01*
X12568550Y-3738422D01*
X12667059Y-3728720D01*
X13134261Y-3728720D01*
X13232770Y-3738422D01*
X13232770Y-3738422D01*
G37*
G36*
X5434330Y-3104127D02*
X5436732Y-3128513D01*
X5443845Y-3151962D01*
X5455396Y-3173573D01*
X5470942Y-3192515D01*
X5489884Y-3208061D01*
X5511495Y-3219612D01*
X5534944Y-3226725D01*
X5559330Y-3229127D01*
X5583716Y-3226725D01*
X5607165Y-3219612D01*
X5628776Y-3208061D01*
X5655956Y-3183426D01*
X5729303Y-3094053D01*
X5816324Y-3022637D01*
X5816323Y-3022637D01*
X5816325Y-3022636D01*
X5862539Y-2997934D01*
X5915607Y-2969568D01*
X5951517Y-2958675D01*
X6023336Y-2936889D01*
X6065316Y-2932755D01*
X6107294Y-2928620D01*
X6562226Y-2928620D01*
X6604204Y-2932754D01*
X6646184Y-2936889D01*
X6718003Y-2958675D01*
X6753913Y-2969568D01*
X6806981Y-2997934D01*
X6853195Y-3022636D01*
X6940217Y-3094053D01*
X7011634Y-3181075D01*
X7036034Y-3226725D01*
X7064702Y-3280357D01*
X7075595Y-3316267D01*
X7097381Y-3388086D01*
X7108415Y-3500120D01*
X7097381Y-3612154D01*
X7077659Y-3677170D01*
X7064702Y-3719883D01*
X7059978Y-3728720D01*
X7011634Y-3819165D01*
X6940217Y-3906187D01*
X6853195Y-3977604D01*
X6809752Y-4000825D01*
X6753913Y-4030672D01*
X6728021Y-4038526D01*
X6646184Y-4063351D01*
X6604204Y-4067486D01*
X6562226Y-4071620D01*
X6107294Y-4071620D01*
X6065316Y-4067486D01*
X6023336Y-4063351D01*
X5941499Y-4038526D01*
X5915607Y-4030672D01*
X5859768Y-4000825D01*
X5816325Y-3977604D01*
X5729303Y-3906187D01*
X5658964Y-3820479D01*
X5655956Y-3816814D01*
X5638629Y-3799487D01*
X5618255Y-3785873D01*
X5595616Y-3776495D01*
X5571582Y-3771715D01*
X5547078Y-3771715D01*
X5523044Y-3776495D01*
X5500405Y-3785873D01*
X5480031Y-3799487D01*
X5462704Y-3816814D01*
X5449090Y-3837188D01*
X5439712Y-3859827D01*
X5434330Y-3896113D01*
X5434330Y-4071620D01*
X3892550Y-4071620D01*
X3892550Y-2928620D01*
X5434330Y-2928620D01*
X5434330Y-3104127D01*
X5434330Y-3104127D01*
G37*
G36*
X10741660Y-3350260D02*
X8056880Y-3350260D01*
X8056880Y-2573020D01*
X10741660Y-2573020D01*
X10741660Y-3350260D01*
X10741660Y-3350260D01*
G37*
G36*
X14317980Y-3144520D02*
X13261340Y-3144520D01*
X13261340Y-2087880D01*
X14317980Y-2087880D01*
X14317980Y-3144520D01*
X14317980Y-3144520D01*
G37*
G36*
X12539980Y-3144520D02*
X11483340Y-3144520D01*
X11483340Y-2087880D01*
X12539980Y-2087880D01*
X12539980Y-3144520D01*
X12539980Y-3144520D01*
G37*
G36*
X-2102561Y766680D02*
X-2004333Y736882D01*
X-1913799Y688491D01*
X-1834450Y623370D01*
X-1769329Y544021D01*
X-1720938Y453487D01*
X-1691140Y355259D01*
X-1683600Y278699D01*
X-1683600Y-1372499D01*
X-1691140Y-1449059D01*
X-1720938Y-1547287D01*
X-1769329Y-1637821D01*
X-1834447Y-1717167D01*
X-1834449Y-1717168D01*
X-1834450Y-1717170D01*
X-1913801Y-1782292D01*
X-1996061Y-1826260D01*
X-2004334Y-1830682D01*
X-2102562Y-1860480D01*
X-2204720Y-1870541D01*
X-2306879Y-1860480D01*
X-2405107Y-1830682D01*
X-2495641Y-1782291D01*
X-2574987Y-1717173D01*
X-2574988Y-1717171D01*
X-2574990Y-1717170D01*
X-2640112Y-1637819D01*
X-2688501Y-1547288D01*
X-2688502Y-1547286D01*
X-2720103Y-1443114D01*
X-2729480Y-1420475D01*
X-2743094Y-1400101D01*
X-2760421Y-1382773D01*
X-2780796Y-1369160D01*
X-2803435Y-1359782D01*
X-2827468Y-1355002D01*
X-2851973Y-1355002D01*
X-2876006Y-1359783D01*
X-2898645Y-1369160D01*
X-2919019Y-1382774D01*
X-2936347Y-1400101D01*
X-2949960Y-1420476D01*
X-2959338Y-1443114D01*
X-2971060Y-1481757D01*
X-2990938Y-1547287D01*
X-2990940Y-1547291D01*
X-3039329Y-1637821D01*
X-3104447Y-1717167D01*
X-3104449Y-1717168D01*
X-3104450Y-1717170D01*
X-3183801Y-1782292D01*
X-3266061Y-1826260D01*
X-3274334Y-1830682D01*
X-3372562Y-1860480D01*
X-3474720Y-1870541D01*
X-3576879Y-1860480D01*
X-3675107Y-1830682D01*
X-3765641Y-1782291D01*
X-3844987Y-1717173D01*
X-3844988Y-1717171D01*
X-3844990Y-1717170D01*
X-3910112Y-1637819D01*
X-3958501Y-1547288D01*
X-3958502Y-1547286D01*
X-3990103Y-1443114D01*
X-3999480Y-1420475D01*
X-4013094Y-1400101D01*
X-4030421Y-1382773D01*
X-4050796Y-1369160D01*
X-4073435Y-1359782D01*
X-4097468Y-1355002D01*
X-4121973Y-1355002D01*
X-4146006Y-1359783D01*
X-4168645Y-1369160D01*
X-4189019Y-1382774D01*
X-4206347Y-1400101D01*
X-4219960Y-1420476D01*
X-4229338Y-1443114D01*
X-4241060Y-1481757D01*
X-4260938Y-1547287D01*
X-4260940Y-1547291D01*
X-4309329Y-1637821D01*
X-4374447Y-1717167D01*
X-4374449Y-1717168D01*
X-4374450Y-1717170D01*
X-4453801Y-1782292D01*
X-4536061Y-1826260D01*
X-4544334Y-1830682D01*
X-4642562Y-1860480D01*
X-4744720Y-1870541D01*
X-4846879Y-1860480D01*
X-4945107Y-1830682D01*
X-5035641Y-1782291D01*
X-5114987Y-1717173D01*
X-5114988Y-1717171D01*
X-5114990Y-1717170D01*
X-5180112Y-1637819D01*
X-5228501Y-1547288D01*
X-5228502Y-1547286D01*
X-5260103Y-1443114D01*
X-5269480Y-1420475D01*
X-5283094Y-1400101D01*
X-5300421Y-1382773D01*
X-5320796Y-1369160D01*
X-5343435Y-1359782D01*
X-5367468Y-1355002D01*
X-5391973Y-1355002D01*
X-5416006Y-1359783D01*
X-5438645Y-1369160D01*
X-5459019Y-1382774D01*
X-5476347Y-1400101D01*
X-5489960Y-1420476D01*
X-5499338Y-1443114D01*
X-5511060Y-1481757D01*
X-5530938Y-1547287D01*
X-5530940Y-1547291D01*
X-5579329Y-1637821D01*
X-5644447Y-1717167D01*
X-5644449Y-1717168D01*
X-5644450Y-1717170D01*
X-5723801Y-1782292D01*
X-5806061Y-1826260D01*
X-5814334Y-1830682D01*
X-5912562Y-1860480D01*
X-6014720Y-1870541D01*
X-6116879Y-1860480D01*
X-6215107Y-1830682D01*
X-6305641Y-1782291D01*
X-6384987Y-1717173D01*
X-6384988Y-1717171D01*
X-6384990Y-1717170D01*
X-6450112Y-1637819D01*
X-6498501Y-1547288D01*
X-6498502Y-1547286D01*
X-6530103Y-1443114D01*
X-6539480Y-1420475D01*
X-6553094Y-1400101D01*
X-6570421Y-1382773D01*
X-6590796Y-1369160D01*
X-6613435Y-1359782D01*
X-6637468Y-1355002D01*
X-6661973Y-1355002D01*
X-6686006Y-1359783D01*
X-6708645Y-1369160D01*
X-6729019Y-1382774D01*
X-6746347Y-1400101D01*
X-6759960Y-1420476D01*
X-6769338Y-1443114D01*
X-6781060Y-1481757D01*
X-6800938Y-1547287D01*
X-6800940Y-1547291D01*
X-6849329Y-1637821D01*
X-6914447Y-1717167D01*
X-6914449Y-1717168D01*
X-6914450Y-1717170D01*
X-6993801Y-1782292D01*
X-7076061Y-1826260D01*
X-7084334Y-1830682D01*
X-7182562Y-1860480D01*
X-7284720Y-1870541D01*
X-7386879Y-1860480D01*
X-7485107Y-1830682D01*
X-7575641Y-1782291D01*
X-7654987Y-1717173D01*
X-7654988Y-1717171D01*
X-7654990Y-1717170D01*
X-7720112Y-1637819D01*
X-7768501Y-1547288D01*
X-7768502Y-1547286D01*
X-7800103Y-1443114D01*
X-7809480Y-1420475D01*
X-7823094Y-1400101D01*
X-7840421Y-1382773D01*
X-7860796Y-1369160D01*
X-7883435Y-1359782D01*
X-7907468Y-1355002D01*
X-7931973Y-1355002D01*
X-7956006Y-1359783D01*
X-7978645Y-1369160D01*
X-7999019Y-1382774D01*
X-8016347Y-1400101D01*
X-8029960Y-1420476D01*
X-8039338Y-1443114D01*
X-8051060Y-1481757D01*
X-8070938Y-1547287D01*
X-8070940Y-1547291D01*
X-8119329Y-1637821D01*
X-8184447Y-1717167D01*
X-8184449Y-1717168D01*
X-8184450Y-1717170D01*
X-8263801Y-1782292D01*
X-8346061Y-1826260D01*
X-8354334Y-1830682D01*
X-8452562Y-1860480D01*
X-8554720Y-1870541D01*
X-8656879Y-1860480D01*
X-8755107Y-1830682D01*
X-8845641Y-1782291D01*
X-8924987Y-1717173D01*
X-8924988Y-1717171D01*
X-8924990Y-1717170D01*
X-8990112Y-1637819D01*
X-9038501Y-1547288D01*
X-9038502Y-1547286D01*
X-9070103Y-1443114D01*
X-9079480Y-1420475D01*
X-9093094Y-1400101D01*
X-9110421Y-1382773D01*
X-9130796Y-1369160D01*
X-9153435Y-1359782D01*
X-9177468Y-1355002D01*
X-9201973Y-1355002D01*
X-9226006Y-1359783D01*
X-9248645Y-1369160D01*
X-9269019Y-1382774D01*
X-9286347Y-1400101D01*
X-9299960Y-1420476D01*
X-9309338Y-1443114D01*
X-9321060Y-1481757D01*
X-9340938Y-1547287D01*
X-9340940Y-1547291D01*
X-9389329Y-1637821D01*
X-9454447Y-1717167D01*
X-9454449Y-1717168D01*
X-9454450Y-1717170D01*
X-9533801Y-1782292D01*
X-9616061Y-1826260D01*
X-9624334Y-1830682D01*
X-9722562Y-1860480D01*
X-9824720Y-1870541D01*
X-9926879Y-1860480D01*
X-10025107Y-1830682D01*
X-10115641Y-1782291D01*
X-10194987Y-1717173D01*
X-10194988Y-1717171D01*
X-10194990Y-1717170D01*
X-10260112Y-1637819D01*
X-10308501Y-1547288D01*
X-10308502Y-1547286D01*
X-10340103Y-1443114D01*
X-10349480Y-1420475D01*
X-10363094Y-1400101D01*
X-10380421Y-1382773D01*
X-10400796Y-1369160D01*
X-10423435Y-1359782D01*
X-10447468Y-1355002D01*
X-10471973Y-1355002D01*
X-10496006Y-1359783D01*
X-10518645Y-1369160D01*
X-10539019Y-1382774D01*
X-10556347Y-1400101D01*
X-10569960Y-1420476D01*
X-10579338Y-1443114D01*
X-10591060Y-1481757D01*
X-10610938Y-1547287D01*
X-10610940Y-1547291D01*
X-10659329Y-1637821D01*
X-10724447Y-1717167D01*
X-10724449Y-1717168D01*
X-10724450Y-1717170D01*
X-10803801Y-1782292D01*
X-10886061Y-1826260D01*
X-10894334Y-1830682D01*
X-10992562Y-1860480D01*
X-11094720Y-1870541D01*
X-11196879Y-1860480D01*
X-11295107Y-1830682D01*
X-11385641Y-1782291D01*
X-11464987Y-1717173D01*
X-11464988Y-1717171D01*
X-11464990Y-1717170D01*
X-11530112Y-1637819D01*
X-11578501Y-1547288D01*
X-11578502Y-1547286D01*
X-11610103Y-1443114D01*
X-11619480Y-1420475D01*
X-11633094Y-1400101D01*
X-11650421Y-1382773D01*
X-11670796Y-1369160D01*
X-11693435Y-1359782D01*
X-11717468Y-1355002D01*
X-11741973Y-1355002D01*
X-11766006Y-1359783D01*
X-11788645Y-1369160D01*
X-11809019Y-1382774D01*
X-11826347Y-1400101D01*
X-11839960Y-1420476D01*
X-11849338Y-1443114D01*
X-11861060Y-1481757D01*
X-11880938Y-1547287D01*
X-11880940Y-1547291D01*
X-11929329Y-1637821D01*
X-11994447Y-1717167D01*
X-11994449Y-1717168D01*
X-11994450Y-1717170D01*
X-12073801Y-1782292D01*
X-12156061Y-1826260D01*
X-12164334Y-1830682D01*
X-12262562Y-1860480D01*
X-12364720Y-1870541D01*
X-12466879Y-1860480D01*
X-12565107Y-1830682D01*
X-12655641Y-1782291D01*
X-12734987Y-1717173D01*
X-12734988Y-1717171D01*
X-12734990Y-1717170D01*
X-12800112Y-1637819D01*
X-12848501Y-1547288D01*
X-12848502Y-1547286D01*
X-12880103Y-1443114D01*
X-12889480Y-1420475D01*
X-12903094Y-1400101D01*
X-12920421Y-1382773D01*
X-12940796Y-1369160D01*
X-12963435Y-1359782D01*
X-12987468Y-1355002D01*
X-13011973Y-1355002D01*
X-13036006Y-1359783D01*
X-13058645Y-1369160D01*
X-13079019Y-1382774D01*
X-13096347Y-1400101D01*
X-13109960Y-1420476D01*
X-13119338Y-1443114D01*
X-13131060Y-1481757D01*
X-13150938Y-1547287D01*
X-13150940Y-1547291D01*
X-13199329Y-1637821D01*
X-13264447Y-1717167D01*
X-13264449Y-1717168D01*
X-13264450Y-1717170D01*
X-13343801Y-1782292D01*
X-13426061Y-1826260D01*
X-13434334Y-1830682D01*
X-13532562Y-1860480D01*
X-13634720Y-1870541D01*
X-13736879Y-1860480D01*
X-13835107Y-1830682D01*
X-13925641Y-1782291D01*
X-14004987Y-1717173D01*
X-14004988Y-1717171D01*
X-14004990Y-1717170D01*
X-14070112Y-1637819D01*
X-14118501Y-1547288D01*
X-14118502Y-1547286D01*
X-14148300Y-1449058D01*
X-14155840Y-1372498D01*
X-14155839Y278699D01*
X-14148299Y355259D01*
X-14118501Y453487D01*
X-14070110Y544021D01*
X-14004989Y623370D01*
X-13925640Y688491D01*
X-13835106Y736882D01*
X-13736878Y766680D01*
X-13634720Y776741D01*
X-13532561Y766680D01*
X-13434333Y736882D01*
X-13343799Y688491D01*
X-13264450Y623370D01*
X-13199329Y544021D01*
X-13150937Y453487D01*
X-13119336Y349313D01*
X-13109959Y326674D01*
X-13096345Y306299D01*
X-13079018Y288972D01*
X-13058643Y275358D01*
X-13036004Y265981D01*
X-13011970Y261201D01*
X-12987466Y261201D01*
X-12963433Y265982D01*
X-12940794Y275359D01*
X-12920419Y288973D01*
X-12903092Y306300D01*
X-12889478Y326675D01*
X-12880101Y349314D01*
X-12848500Y453490D01*
X-12800110Y544021D01*
X-12734989Y623370D01*
X-12655640Y688491D01*
X-12565106Y736882D01*
X-12466878Y766680D01*
X-12364720Y776741D01*
X-12262561Y766680D01*
X-12164333Y736882D01*
X-12073799Y688491D01*
X-11994450Y623370D01*
X-11929329Y544021D01*
X-11880937Y453487D01*
X-11849336Y349313D01*
X-11839959Y326674D01*
X-11826345Y306299D01*
X-11809018Y288972D01*
X-11788643Y275358D01*
X-11766004Y265981D01*
X-11741970Y261201D01*
X-11717466Y261201D01*
X-11693433Y265982D01*
X-11670794Y275359D01*
X-11650419Y288973D01*
X-11633092Y306300D01*
X-11619478Y326675D01*
X-11610101Y349314D01*
X-11578500Y453490D01*
X-11530110Y544021D01*
X-11464989Y623370D01*
X-11385640Y688491D01*
X-11295106Y736882D01*
X-11196878Y766680D01*
X-11094720Y776741D01*
X-10992561Y766680D01*
X-10894333Y736882D01*
X-10803799Y688491D01*
X-10724450Y623370D01*
X-10659329Y544021D01*
X-10610937Y453487D01*
X-10579336Y349313D01*
X-10569959Y326674D01*
X-10556345Y306299D01*
X-10539018Y288972D01*
X-10518643Y275358D01*
X-10496004Y265981D01*
X-10471970Y261201D01*
X-10447466Y261201D01*
X-10423433Y265982D01*
X-10400794Y275359D01*
X-10380419Y288973D01*
X-10363092Y306300D01*
X-10349478Y326675D01*
X-10340101Y349314D01*
X-10308500Y453490D01*
X-10260110Y544021D01*
X-10194989Y623370D01*
X-10115640Y688491D01*
X-10025106Y736882D01*
X-9926878Y766680D01*
X-9824720Y776741D01*
X-9722561Y766680D01*
X-9624333Y736882D01*
X-9533799Y688491D01*
X-9454450Y623370D01*
X-9389329Y544021D01*
X-9340937Y453487D01*
X-9309336Y349313D01*
X-9299959Y326674D01*
X-9286345Y306299D01*
X-9269018Y288972D01*
X-9248643Y275358D01*
X-9226004Y265981D01*
X-9201970Y261201D01*
X-9177466Y261201D01*
X-9153433Y265982D01*
X-9130794Y275359D01*
X-9110419Y288973D01*
X-9093092Y306300D01*
X-9079478Y326675D01*
X-9070101Y349314D01*
X-9038500Y453490D01*
X-8990110Y544021D01*
X-8924989Y623370D01*
X-8845640Y688491D01*
X-8755106Y736882D01*
X-8656878Y766680D01*
X-8554720Y776741D01*
X-8452561Y766680D01*
X-8354333Y736882D01*
X-8263799Y688491D01*
X-8184450Y623370D01*
X-8119329Y544021D01*
X-8070937Y453487D01*
X-8039336Y349313D01*
X-8029959Y326674D01*
X-8016345Y306299D01*
X-7999018Y288972D01*
X-7978643Y275358D01*
X-7956004Y265981D01*
X-7931970Y261201D01*
X-7907466Y261201D01*
X-7883433Y265982D01*
X-7860794Y275359D01*
X-7840419Y288973D01*
X-7823092Y306300D01*
X-7809478Y326675D01*
X-7800101Y349314D01*
X-7768500Y453490D01*
X-7720110Y544021D01*
X-7654989Y623370D01*
X-7575640Y688491D01*
X-7485106Y736882D01*
X-7386878Y766680D01*
X-7284720Y776741D01*
X-7182561Y766680D01*
X-7084333Y736882D01*
X-6993799Y688491D01*
X-6914450Y623370D01*
X-6849329Y544021D01*
X-6800937Y453487D01*
X-6769336Y349313D01*
X-6759959Y326674D01*
X-6746345Y306299D01*
X-6729018Y288972D01*
X-6708643Y275358D01*
X-6686004Y265981D01*
X-6661970Y261201D01*
X-6637466Y261201D01*
X-6613433Y265982D01*
X-6590794Y275359D01*
X-6570419Y288973D01*
X-6553092Y306300D01*
X-6539478Y326675D01*
X-6530101Y349314D01*
X-6498500Y453490D01*
X-6450110Y544021D01*
X-6384989Y623370D01*
X-6305640Y688491D01*
X-6215106Y736882D01*
X-6116878Y766680D01*
X-6014720Y776741D01*
X-5912561Y766680D01*
X-5814333Y736882D01*
X-5723799Y688491D01*
X-5644450Y623370D01*
X-5579329Y544021D01*
X-5530937Y453487D01*
X-5499336Y349313D01*
X-5489959Y326674D01*
X-5476345Y306299D01*
X-5459018Y288972D01*
X-5438643Y275358D01*
X-5416004Y265981D01*
X-5391970Y261201D01*
X-5367466Y261201D01*
X-5343433Y265982D01*
X-5320794Y275359D01*
X-5300419Y288973D01*
X-5283092Y306300D01*
X-5269478Y326675D01*
X-5260101Y349314D01*
X-5228500Y453490D01*
X-5180110Y544021D01*
X-5114989Y623370D01*
X-5035640Y688491D01*
X-4945106Y736882D01*
X-4846878Y766680D01*
X-4744720Y776741D01*
X-4642561Y766680D01*
X-4544333Y736882D01*
X-4453799Y688491D01*
X-4374450Y623370D01*
X-4309329Y544021D01*
X-4260937Y453487D01*
X-4229336Y349313D01*
X-4219959Y326674D01*
X-4206345Y306299D01*
X-4189018Y288972D01*
X-4168643Y275358D01*
X-4146004Y265981D01*
X-4121970Y261201D01*
X-4097466Y261201D01*
X-4073433Y265982D01*
X-4050794Y275359D01*
X-4030419Y288973D01*
X-4013092Y306300D01*
X-3999478Y326675D01*
X-3990101Y349314D01*
X-3958500Y453490D01*
X-3910110Y544021D01*
X-3844989Y623370D01*
X-3765640Y688491D01*
X-3675106Y736882D01*
X-3576878Y766680D01*
X-3474720Y776741D01*
X-3372561Y766680D01*
X-3274333Y736882D01*
X-3183799Y688491D01*
X-3104450Y623370D01*
X-3039329Y544021D01*
X-2990937Y453487D01*
X-2959336Y349313D01*
X-2949959Y326674D01*
X-2936345Y306299D01*
X-2919018Y288972D01*
X-2898643Y275358D01*
X-2876004Y265981D01*
X-2851970Y261201D01*
X-2827466Y261201D01*
X-2803433Y265982D01*
X-2780794Y275359D01*
X-2760419Y288973D01*
X-2743092Y306300D01*
X-2729478Y326675D01*
X-2720101Y349314D01*
X-2688500Y453490D01*
X-2640110Y544021D01*
X-2574989Y623370D01*
X-2495640Y688491D01*
X-2405106Y736882D01*
X-2306878Y766680D01*
X-2204720Y776741D01*
X-2102561Y766680D01*
X-2102561Y766680D01*
G37*
G36*
X10226040Y-924020D02*
X10228442Y-948406D01*
X10235555Y-971855D01*
X10247106Y-993466D01*
X10262652Y-1012408D01*
X10281594Y-1027954D01*
X10303205Y-1039505D01*
X10326654Y-1046618D01*
X10351040Y-1049020D01*
X10741660Y-1049020D01*
X10741660Y-1826260D01*
X8056880Y-1826260D01*
X8056880Y-1049020D01*
X9323800Y-1049020D01*
X9348186Y-1046618D01*
X9371635Y-1039505D01*
X9393246Y-1027954D01*
X9412188Y-1012408D01*
X9427734Y-993466D01*
X9439285Y-971855D01*
X9446398Y-948406D01*
X9448800Y-924020D01*
X9448800Y444500D01*
X10131520Y444500D01*
X10155906Y446902D01*
X10179355Y454015D01*
X10200966Y465566D01*
X10219908Y481112D01*
X10226040Y488584D01*
X10226040Y-924020D01*
X10226040Y-924020D01*
G37*
G36*
X13428980Y-1112520D02*
X12372340Y-1112520D01*
X12372340Y-55880D01*
X13428980Y-55880D01*
X13428980Y-1112520D01*
X13428980Y-1112520D01*
G37*
G36*
X11541760Y569500D02*
X11544162Y545114D01*
X11551275Y521665D01*
X11562826Y500054D01*
X11578372Y481112D01*
X11597314Y465566D01*
X11618925Y454015D01*
X11642374Y446902D01*
X11666760Y444500D01*
X11750040Y444500D01*
X11750040Y-840740D01*
X10972800Y-840740D01*
X10972800Y527780D01*
X10970398Y552166D01*
X10963285Y575615D01*
X10951734Y597226D01*
X10936188Y616168D01*
X10917246Y631714D01*
X10895635Y643265D01*
X10872186Y650378D01*
X10847800Y652780D01*
X10351040Y652780D01*
X10326654Y650378D01*
X10303205Y643265D01*
X10281594Y631714D01*
X10262652Y616168D01*
X10256520Y608696D01*
X10256520Y1430020D01*
X11541760Y1430020D01*
X11541760Y569500D01*
X11541760Y569500D01*
G37*
G36*
X12831449Y4514038D02*
X12831452Y4514037D01*
X12957853Y4475694D01*
X12957855Y4475693D01*
X13074346Y4413427D01*
X13176450Y4329634D01*
X13229744Y4264694D01*
X13260248Y4227525D01*
X13322514Y4111034D01*
X13339789Y4054086D01*
X13360858Y3984630D01*
X13370560Y3886121D01*
X13370560Y3418920D01*
X13360858Y3320410D01*
X13360857Y3320407D01*
X13322514Y3194006D01*
X13260248Y3077515D01*
X13260246Y3077513D01*
X13176452Y2975408D01*
X13106069Y2917648D01*
X13074345Y2891612D01*
X13030236Y2868035D01*
X13013445Y2859060D01*
X12993070Y2845446D01*
X12975743Y2828119D01*
X12962129Y2807744D01*
X12952752Y2785105D01*
X12947972Y2761071D01*
X12947972Y2736567D01*
X12952753Y2712534D01*
X12962130Y2689895D01*
X12975744Y2669520D01*
X12993071Y2652193D01*
X13013446Y2638579D01*
X13036085Y2629202D01*
X13072370Y2623820D01*
X13370560Y2623820D01*
X13370560Y881380D01*
X12029440Y881380D01*
X12029440Y2623820D01*
X12327631Y2623820D01*
X12352017Y2626222D01*
X12375466Y2633335D01*
X12397077Y2644886D01*
X12416019Y2660432D01*
X12431565Y2679374D01*
X12443116Y2700985D01*
X12450229Y2724434D01*
X12452631Y2748820D01*
X12450229Y2773206D01*
X12443116Y2796655D01*
X12431565Y2818266D01*
X12416019Y2837208D01*
X12386556Y2859060D01*
X12369765Y2868035D01*
X12325656Y2891612D01*
X12285817Y2924307D01*
X12223546Y2975411D01*
X12139753Y3077513D01*
X12077487Y3194004D01*
X12077323Y3194546D01*
X12039143Y3320407D01*
X12039142Y3320410D01*
X12029440Y3418919D01*
X12029440Y3886120D01*
X12039142Y3984629D01*
X12052814Y4029700D01*
X12077486Y4111033D01*
X12082215Y4119880D01*
X12139753Y4227526D01*
X12223546Y4329630D01*
X12300128Y4392478D01*
X12325655Y4413428D01*
X12442146Y4475694D01*
X12568547Y4514037D01*
X12568550Y4514038D01*
X12700000Y4526984D01*
X12831449Y4514038D01*
X12831449Y4514038D01*
G37*
G36*
X8575151Y2750927D02*
X8597595Y2741630D01*
X8622764Y2731205D01*
X8665613Y2702574D01*
X8665617Y2702571D01*
X8702051Y2666137D01*
X8702053Y2666134D01*
X8702054Y2666133D01*
X8730685Y2623284D01*
X8741110Y2598115D01*
X8750407Y2575671D01*
X8760460Y2525130D01*
X8760460Y2473590D01*
X8750407Y2423049D01*
X8743915Y2407376D01*
X8736801Y2383927D01*
X8734399Y2359540D01*
X8736801Y2335154D01*
X8743914Y2311705D01*
X8755465Y2290094D01*
X8771010Y2271152D01*
X8789952Y2255606D01*
X8811562Y2244055D01*
X8835011Y2236941D01*
X8859398Y2234539D01*
X8883784Y2236941D01*
X8907236Y2244055D01*
X8922909Y2250547D01*
X8973450Y2260600D01*
X9024990Y2260600D01*
X9075531Y2250547D01*
X9091204Y2244055D01*
X9114653Y2236941D01*
X9139040Y2234539D01*
X9163426Y2236941D01*
X9186875Y2244054D01*
X9208486Y2255605D01*
X9227428Y2271150D01*
X9242974Y2290092D01*
X9254525Y2311702D01*
X9261639Y2335151D01*
X9264041Y2359538D01*
X9261639Y2383924D01*
X9254525Y2407376D01*
X9248033Y2423049D01*
X9237980Y2473590D01*
X9237980Y2525130D01*
X9248033Y2575671D01*
X9257330Y2598115D01*
X9267755Y2623284D01*
X9296386Y2666133D01*
X9296387Y2666134D01*
X9296389Y2666137D01*
X9332823Y2702571D01*
X9332827Y2702574D01*
X9375676Y2731205D01*
X9400845Y2741630D01*
X9423289Y2750927D01*
X9473830Y2760980D01*
X9525370Y2760980D01*
X9575911Y2750927D01*
X9598355Y2741630D01*
X9623524Y2731205D01*
X9666373Y2702574D01*
X9666377Y2702571D01*
X9702811Y2666137D01*
X9702813Y2666134D01*
X9702814Y2666133D01*
X9731445Y2623284D01*
X9741870Y2598115D01*
X9751167Y2575671D01*
X9761220Y2525130D01*
X9761220Y2473590D01*
X9751167Y2423049D01*
X9744675Y2407376D01*
X9731445Y2375436D01*
X9704529Y2335154D01*
X9702811Y2332583D01*
X9666377Y2296149D01*
X9666374Y2296147D01*
X9666373Y2296146D01*
X9623524Y2267515D01*
X9608758Y2261399D01*
X9575911Y2247793D01*
X9525370Y2237740D01*
X9473830Y2237740D01*
X9423289Y2247793D01*
X9407616Y2254285D01*
X9384167Y2261399D01*
X9359780Y2263801D01*
X9335394Y2261399D01*
X9311945Y2254286D01*
X9290334Y2242735D01*
X9271392Y2227190D01*
X9255846Y2208248D01*
X9244295Y2186638D01*
X9237181Y2163189D01*
X9234779Y2138802D01*
X9237181Y2114416D01*
X9244295Y2090964D01*
X9250787Y2075291D01*
X9260840Y2024750D01*
X9260840Y1973210D01*
X9250787Y1922669D01*
X9244295Y1906996D01*
X9237181Y1883547D01*
X9234779Y1859160D01*
X9237181Y1834774D01*
X9244294Y1811325D01*
X9255845Y1789714D01*
X9271390Y1770772D01*
X9290332Y1755226D01*
X9311942Y1743675D01*
X9335391Y1736561D01*
X9359778Y1734159D01*
X9384164Y1736561D01*
X9407616Y1743675D01*
X9423289Y1750167D01*
X9473830Y1760220D01*
X9525370Y1760220D01*
X9575911Y1750167D01*
X9598355Y1740870D01*
X9623524Y1730445D01*
X9666373Y1701814D01*
X9666377Y1701811D01*
X9702811Y1665377D01*
X9702813Y1665374D01*
X9702814Y1665373D01*
X9731445Y1622524D01*
X9734962Y1614033D01*
X9751167Y1574911D01*
X9761220Y1524370D01*
X9761220Y1472830D01*
X9751167Y1422289D01*
X9741870Y1399845D01*
X9731445Y1374676D01*
X9702814Y1331827D01*
X9702811Y1331823D01*
X9666377Y1295389D01*
X9666374Y1295387D01*
X9666373Y1295386D01*
X9623524Y1266755D01*
X9598355Y1256330D01*
X9575911Y1247033D01*
X9525370Y1236980D01*
X9473830Y1236980D01*
X9423289Y1247033D01*
X9400845Y1256330D01*
X9375676Y1266755D01*
X9332827Y1295386D01*
X9332826Y1295387D01*
X9332823Y1295389D01*
X9296389Y1331823D01*
X9296386Y1331827D01*
X9267755Y1374676D01*
X9257330Y1399845D01*
X9248033Y1422289D01*
X9237980Y1472830D01*
X9237980Y1524370D01*
X9248033Y1574911D01*
X9254525Y1590584D01*
X9261639Y1614033D01*
X9264041Y1638420D01*
X9261639Y1662806D01*
X9254526Y1686255D01*
X9242975Y1707866D01*
X9227430Y1726808D01*
X9208488Y1742354D01*
X9186878Y1753905D01*
X9163429Y1761019D01*
X9139042Y1763421D01*
X9114656Y1761019D01*
X9091204Y1753905D01*
X9075531Y1747413D01*
X9024990Y1737360D01*
X8973450Y1737360D01*
X8922909Y1747413D01*
X8907236Y1753905D01*
X8883787Y1761019D01*
X8859400Y1763421D01*
X8835014Y1761019D01*
X8811565Y1753906D01*
X8789954Y1742355D01*
X8771012Y1726810D01*
X8755466Y1707868D01*
X8743915Y1686258D01*
X8736801Y1662809D01*
X8734399Y1638422D01*
X8736801Y1614036D01*
X8743915Y1590584D01*
X8750407Y1574911D01*
X8760460Y1524370D01*
X8760460Y1472830D01*
X8750407Y1422289D01*
X8741110Y1399845D01*
X8730685Y1374676D01*
X8702054Y1331827D01*
X8702051Y1331823D01*
X8665617Y1295389D01*
X8665614Y1295387D01*
X8665613Y1295386D01*
X8622764Y1266755D01*
X8597595Y1256330D01*
X8575151Y1247033D01*
X8524610Y1236980D01*
X8473070Y1236980D01*
X8422529Y1247033D01*
X8400085Y1256330D01*
X8374916Y1266755D01*
X8332067Y1295386D01*
X8332066Y1295387D01*
X8332063Y1295389D01*
X8295629Y1331823D01*
X8295626Y1331827D01*
X8266995Y1374676D01*
X8256570Y1399845D01*
X8247273Y1422289D01*
X8237220Y1472830D01*
X8237220Y1524370D01*
X8247273Y1574911D01*
X8263478Y1614033D01*
X8266995Y1622524D01*
X8295626Y1665373D01*
X8295627Y1665374D01*
X8295629Y1665377D01*
X8332063Y1701811D01*
X8332067Y1701814D01*
X8374916Y1730445D01*
X8400085Y1740870D01*
X8422529Y1750167D01*
X8473070Y1760220D01*
X8524610Y1760220D01*
X8575151Y1750167D01*
X8590824Y1743675D01*
X8614273Y1736561D01*
X8638660Y1734159D01*
X8663046Y1736561D01*
X8686495Y1743674D01*
X8708106Y1755225D01*
X8727048Y1770770D01*
X8742594Y1789712D01*
X8754145Y1811322D01*
X8761259Y1834771D01*
X8763661Y1859158D01*
X8761259Y1883544D01*
X8754145Y1906996D01*
X8747653Y1922669D01*
X8737600Y1973210D01*
X8737600Y2024750D01*
X8747653Y2075291D01*
X8754145Y2090964D01*
X8761259Y2114413D01*
X8763661Y2138800D01*
X8761259Y2163186D01*
X8754146Y2186635D01*
X8742595Y2208246D01*
X8727050Y2227188D01*
X8708108Y2242734D01*
X8686498Y2254285D01*
X8663049Y2261399D01*
X8638662Y2263801D01*
X8614276Y2261399D01*
X8590824Y2254285D01*
X8575151Y2247793D01*
X8524610Y2237740D01*
X8473070Y2237740D01*
X8422529Y2247793D01*
X8389682Y2261399D01*
X8374916Y2267515D01*
X8332067Y2296146D01*
X8332066Y2296147D01*
X8332063Y2296149D01*
X8295629Y2332583D01*
X8293911Y2335154D01*
X8266995Y2375436D01*
X8253765Y2407376D01*
X8247273Y2423049D01*
X8237220Y2473590D01*
X8237220Y2525130D01*
X8247273Y2575671D01*
X8256570Y2598115D01*
X8266995Y2623284D01*
X8295626Y2666133D01*
X8295627Y2666134D01*
X8295629Y2666137D01*
X8332063Y2702571D01*
X8332067Y2702574D01*
X8374916Y2731205D01*
X8400085Y2741630D01*
X8422529Y2750927D01*
X8473070Y2760980D01*
X8524610Y2760980D01*
X8575151Y2750927D01*
X8575151Y2750927D01*
G37*
G36*
X-13255800Y5312140D02*
X-13253398Y5287754D01*
X-13246285Y5264305D01*
X-13234734Y5242694D01*
X-13219188Y5223752D01*
X-13200246Y5208206D01*
X-13178635Y5196655D01*
X-13155186Y5189542D01*
X-13130800Y5187140D01*
X-12230800Y5187140D01*
X-12230800Y5021940D01*
X-12228398Y4997554D01*
X-12221285Y4974105D01*
X-12209734Y4952494D01*
X-12194188Y4933552D01*
X-12175246Y4918006D01*
X-12153635Y4906455D01*
X-12130186Y4899342D01*
X-12105800Y4896940D01*
X-11054620Y4896940D01*
X-11052793Y4897120D01*
X-9644380Y4897120D01*
X-9644380Y4119880D01*
X-10968415Y4119880D01*
X-10985174Y4133634D01*
X-11006785Y4145185D01*
X-11030234Y4152298D01*
X-11054620Y4154700D01*
X-12105800Y4154700D01*
X-12130186Y4152298D01*
X-12153635Y4145185D01*
X-12175246Y4133634D01*
X-12194188Y4118088D01*
X-12209734Y4099146D01*
X-12221285Y4077535D01*
X-12228398Y4054086D01*
X-12230800Y4029700D01*
X-12230800Y2244900D01*
X-13130800Y2244900D01*
X-13155186Y2242498D01*
X-13178635Y2235385D01*
X-13200246Y2223834D01*
X-13219188Y2208288D01*
X-13234734Y2189346D01*
X-13246285Y2167735D01*
X-13253398Y2144286D01*
X-13255800Y2119900D01*
X-13255800Y1244900D01*
X-16198040Y1244900D01*
X-16198040Y2119900D01*
X-16200442Y2144286D01*
X-16207555Y2167735D01*
X-16219106Y2189346D01*
X-16234652Y2208288D01*
X-16253594Y2223834D01*
X-16275205Y2235385D01*
X-16298654Y2242498D01*
X-16323040Y2244900D01*
X-17223040Y2244900D01*
X-17223040Y5187140D01*
X-16323040Y5187140D01*
X-16298654Y5189542D01*
X-16275205Y5196655D01*
X-16253594Y5208206D01*
X-16234652Y5223752D01*
X-16219106Y5242694D01*
X-16207555Y5264305D01*
X-16200442Y5287754D01*
X-16198040Y5312140D01*
X-16198040Y6187140D01*
X-13255800Y6187140D01*
X-13255800Y5312140D01*
X-13255800Y5312140D01*
G37*
G36*
X11541760Y2176780D02*
X10256520Y2176780D01*
X10256520Y2954020D01*
X11541760Y2954020D01*
X11541760Y2176780D01*
X11541760Y2176780D01*
G37*
G36*
X11612880Y5082540D02*
X10556240Y5082540D01*
X10556240Y6139180D01*
X11612880Y6139180D01*
X11612880Y5082540D01*
X11612880Y5082540D01*
G37*
G36*
X-9644380Y5643880D02*
X-10971040Y5643880D01*
X-10995426Y5641478D01*
X-11018875Y5634365D01*
X-11040486Y5622814D01*
X-11059428Y5607268D01*
X-11074974Y5588326D01*
X-11086525Y5566715D01*
X-11090170Y5554700D01*
X-12038280Y5554700D01*
X-12038280Y6296940D01*
X-11054620Y6296940D01*
X-11030234Y6299342D01*
X-11006785Y6306455D01*
X-10985174Y6318006D01*
X-10966232Y6333552D01*
X-10950686Y6352494D01*
X-10939135Y6374105D01*
X-10932022Y6397554D01*
X-10929701Y6421120D01*
X-9644380Y6421120D01*
X-9644380Y5643880D01*
X-9644380Y5643880D01*
G37*
G36*
X14043660Y7249160D02*
X13769880Y7249160D01*
X13745494Y7246758D01*
X13722045Y7239645D01*
X13700434Y7228094D01*
X13681492Y7212548D01*
X13665946Y7193606D01*
X13654395Y7171995D01*
X13647282Y7148546D01*
X13644880Y7124160D01*
X13644880Y5971540D01*
X12588240Y5971540D01*
X12588240Y7028180D01*
X12633420Y7028180D01*
X12657806Y7030582D01*
X12681255Y7037695D01*
X12702866Y7049246D01*
X12721808Y7064792D01*
X12737354Y7083734D01*
X12748905Y7105345D01*
X12756018Y7128794D01*
X12758420Y7153180D01*
X12758420Y8026400D01*
X14043660Y8026400D01*
X14043660Y7249160D01*
X14043660Y7249160D01*
G37*
G36*
X9621520Y8268240D02*
X9623922Y8243854D01*
X9631035Y8220405D01*
X9642586Y8198794D01*
X9658132Y8179852D01*
X9677074Y8164306D01*
X9698685Y8152755D01*
X9722134Y8145642D01*
X9746520Y8143240D01*
X10243280Y8143240D01*
X10267666Y8145642D01*
X10291115Y8152755D01*
X10312726Y8164306D01*
X10331668Y8179852D01*
X10347214Y8198794D01*
X10350500Y8204942D01*
X10350500Y8042180D01*
X10352902Y8017794D01*
X10360015Y7994345D01*
X10371566Y7972734D01*
X10387112Y7953792D01*
X10406054Y7938246D01*
X10427665Y7926695D01*
X10451114Y7919582D01*
X10475500Y7917180D01*
X11612880Y7917180D01*
X11612880Y6860540D01*
X10475500Y6860540D01*
X10451114Y6858138D01*
X10450659Y6858000D01*
X9573260Y6858000D01*
X9573260Y8234140D01*
X9570858Y8258526D01*
X9563745Y8281975D01*
X9552194Y8303586D01*
X9536648Y8322528D01*
X9517706Y8338074D01*
X9496095Y8349625D01*
X9472646Y8356738D01*
X9448260Y8359140D01*
X8951500Y8359140D01*
X8927114Y8356738D01*
X8903665Y8349625D01*
X8882054Y8338074D01*
X8863112Y8322528D01*
X8847566Y8303586D01*
X8836015Y8281975D01*
X8828902Y8258526D01*
X8826500Y8234140D01*
X8826500Y6858000D01*
X8049260Y6858000D01*
X8049260Y8231600D01*
X8046858Y8255986D01*
X8039745Y8279435D01*
X8028194Y8301046D01*
X8012648Y8319988D01*
X7993706Y8335534D01*
X7972095Y8347085D01*
X7948646Y8354198D01*
X7924260Y8356600D01*
X7874000Y8356600D01*
X7874000Y9641840D01*
X8719280Y9641840D01*
X8743666Y9644242D01*
X8744121Y9644380D01*
X9621520Y9644380D01*
X9621520Y8268240D01*
X9621520Y8268240D01*
G37*
G36*
X-10048240Y7157720D02*
X-10825480Y7157720D01*
X-10825480Y8442960D01*
X-10048240Y8442960D01*
X-10048240Y7157720D01*
X-10048240Y7157720D01*
G37*
G36*
X-11572240Y7157720D02*
X-12349480Y7157720D01*
X-12349480Y8442960D01*
X-11572240Y8442960D01*
X-11572240Y7157720D01*
X-11572240Y7157720D01*
G37*
G36*
X-7778750Y7424420D02*
X-9620250Y7424420D01*
X-9620250Y8074660D01*
X-7778750Y8074660D01*
X-7778750Y7424420D01*
X-7778750Y7424420D01*
G37*
G36*
X11145520Y8359140D02*
X10475500Y8359140D01*
X10451114Y8356738D01*
X10427665Y8349625D01*
X10406054Y8338074D01*
X10387112Y8322528D01*
X10371566Y8303586D01*
X10368280Y8297438D01*
X10368280Y9644380D01*
X11145520Y9644380D01*
X11145520Y8359140D01*
X11145520Y8359140D01*
G37*
G36*
X7127240Y8356600D02*
X6350000Y8356600D01*
X6350000Y9641840D01*
X7127240Y9641840D01*
X7127240Y8356600D01*
X7127240Y8356600D01*
G37*
G36*
X14043660Y8773160D02*
X12758420Y8773160D01*
X12758420Y9550400D01*
X14043660Y9550400D01*
X14043660Y8773160D01*
X14043660Y8773160D01*
G37*
G36*
X-7778750Y9324340D02*
X-9620250Y9324340D01*
X-9620250Y9974580D01*
X-7778750Y9974580D01*
X-7778750Y9324340D01*
X-7778750Y9324340D01*
G37*
G36*
X12626340Y9857740D02*
X11849100Y9857740D01*
X11849100Y14142720D01*
X12626340Y14142720D01*
X12626340Y9857740D01*
X12626340Y9857740D01*
G37*
G36*
X14150340Y9857740D02*
X13373100Y9857740D01*
X13373100Y14142720D01*
X14150340Y14142720D01*
X14150340Y9857740D01*
X14150340Y9857740D01*
G37*
G36*
X11369040Y10160000D02*
X8620760Y10160000D01*
X8620760Y11303000D01*
X11369040Y11303000D01*
X11369040Y10160000D01*
X11369040Y10160000D01*
G37*
G36*
X8150860Y10358120D02*
X7373620Y10358120D01*
X7373620Y13141960D01*
X8150860Y13141960D01*
X8150860Y10358120D01*
X8150860Y10358120D01*
G37*
G36*
X6626860Y10358120D02*
X5849620Y10358120D01*
X5849620Y13141960D01*
X6626860Y13141960D01*
X6626860Y10358120D01*
X6626860Y10358120D01*
G37*
G36*
X-8929370Y11329670D02*
X-12071350Y11329670D01*
X-12071350Y12871450D01*
X-8929370Y12871450D01*
X-8929370Y11329670D01*
X-8929370Y11329670D01*
G37*
G36*
X-12477750Y11379200D02*
X-14720570Y11379200D01*
X-14720570Y13121640D01*
X-12477750Y13121640D01*
X-12477750Y11379200D01*
X-12477750Y11379200D01*
G37*
G36*
X-6280150Y11379200D02*
X-8522970Y11379200D01*
X-8522970Y13121640D01*
X-6280150Y13121640D01*
X-6280150Y11379200D01*
X-6280150Y11379200D01*
G37*
G36*
X11369040Y12700000D02*
X8620760Y12700000D01*
X8620760Y13843000D01*
X11369040Y13843000D01*
X11369040Y12700000D01*
X11369040Y12700000D01*
G37*
G36*
X-8280400Y13779500D02*
X-10322560Y13779500D01*
X-10322560Y15821660D01*
X-8280400Y15821660D01*
X-8280400Y13779500D01*
X-8280400Y13779500D01*
G37*
G36*
X-10678160Y13779500D02*
X-12720320Y13779500D01*
X-12720320Y15821660D01*
X-10678160Y15821660D01*
X-10678160Y13779500D01*
X-10678160Y13779500D01*
G37*
G36*
X-6179820Y15147830D02*
X-6177418Y15123444D01*
X-6170305Y15099995D01*
X-6158754Y15078384D01*
X-6143208Y15059442D01*
X-6124266Y15043896D01*
X-6102655Y15032345D01*
X-6079206Y15025232D01*
X-6054820Y15022830D01*
X-5579110Y15022830D01*
X-5579110Y13780770D01*
X-6054820Y13780770D01*
X-6067714Y13779500D01*
X-7522210Y13779500D01*
X-7522210Y15134936D01*
X-7520940Y15147830D01*
X-7520940Y15821660D01*
X-6179820Y15821660D01*
X-6179820Y15147830D01*
X-6179820Y15147830D01*
G37*
G36*
X-13529310Y13779500D02*
X-15472410Y13779500D01*
X-15472410Y15821660D01*
X-13529310Y15821660D01*
X-13529310Y13779500D01*
X-13529310Y13779500D01*
G37*
G36*
X-17353402Y16238689D02*
X-17280953Y16224278D01*
X-17224417Y16200860D01*
X-17144463Y16167742D01*
X-17021620Y16085661D01*
X-16917159Y15981200D01*
X-16835078Y15858357D01*
X-16778542Y15721866D01*
X-16749720Y15576970D01*
X-16749720Y15429230D01*
X-16778542Y15284334D01*
X-16835078Y15147843D01*
X-16917159Y15025000D01*
X-17021620Y14920539D01*
X-17144463Y14838458D01*
X-17224417Y14805340D01*
X-17280953Y14781922D01*
X-17353402Y14767511D01*
X-17425850Y14753100D01*
X-17573590Y14753100D01*
X-17646038Y14767511D01*
X-17718487Y14781922D01*
X-17775023Y14805340D01*
X-17854977Y14838458D01*
X-17977820Y14920539D01*
X-18082281Y15025000D01*
X-18164362Y15147843D01*
X-18220898Y15284334D01*
X-18249720Y15429230D01*
X-18249720Y15576970D01*
X-18220898Y15721866D01*
X-18164362Y15858357D01*
X-18082281Y15981200D01*
X-17977820Y16085661D01*
X-17854977Y16167742D01*
X-17775023Y16200860D01*
X-17718487Y16224278D01*
X-17646038Y16238689D01*
X-17573590Y16253100D01*
X-17425850Y16253100D01*
X-17353402Y16238689D01*
X-17353402Y16238689D01*
G37*
G36*
X17146598Y16738689D02*
X17219047Y16724278D01*
X17275583Y16700860D01*
X17355537Y16667742D01*
X17478380Y16585661D01*
X17582841Y16481200D01*
X17664922Y16358357D01*
X17721458Y16221866D01*
X17750280Y16076970D01*
X17750280Y15929230D01*
X17721458Y15784334D01*
X17664922Y15647843D01*
X17582841Y15525000D01*
X17478380Y15420539D01*
X17355537Y15338458D01*
X17275583Y15305340D01*
X17219047Y15281922D01*
X17146598Y15267511D01*
X17074150Y15253100D01*
X16926410Y15253100D01*
X16853962Y15267511D01*
X16781513Y15281922D01*
X16724977Y15305340D01*
X16645023Y15338458D01*
X16522180Y15420539D01*
X16417719Y15525000D01*
X16335638Y15647843D01*
X16279102Y15784334D01*
X16250280Y15929230D01*
X16250280Y16076970D01*
X16279102Y16221866D01*
X16335638Y16358357D01*
X16417719Y16481200D01*
X16522180Y16585661D01*
X16645023Y16667742D01*
X16724977Y16700860D01*
X16781513Y16724278D01*
X16853962Y16738689D01*
X16926410Y16753100D01*
X17074150Y16753100D01*
X17146598Y16738689D01*
X17146598Y16738689D01*
G37*
M02*
