M48
; DRILL file {KiCad 9.0.4} date 2025-09-03T20:16:42+0200
; FORMAT={-:-/ absolute / metric / decimal}
; #@! TF.CreationDate,2025-09-03T20:16:42+02:00
; #@! TF.GenerationSoftware,Kicad,Pcbnew,9.0.4
; #@! TF.FileFunction,Plated,1,2,PTH
FMAT,2
METRIC
; #@! TA.AperFunction,Plated,PTH,ComponentDrill
T1C0.200
; #@! TA.AperFunction,Plated,PTH,ViaDrill
T2C0.381
; #@! TA.AperFunction,Plated,PTH,ComponentDrill
T3C0.600
; #@! TA.AperFunction,Plated,PTH,ComponentDrill
T4C1.000
%
G90
G05
T1
X152.437Y-114.455
X152.455Y-110.454
X152.455Y-111.793
X152.455Y-113.124
X153.844Y-110.452
X153.844Y-113.182
X153.844Y-114.463
X153.854Y-111.79
X155.226Y-111.798
X155.236Y-113.167
X155.259Y-110.442
X155.259Y-114.473
X156.597Y-114.463
X156.63Y-111.775
X156.63Y-113.157
X156.651Y-110.353
T2
X127.3Y-99.0
X127.554Y-110.2
X127.6Y-90.6
X128.6Y-85.8
X128.8Y-91.8
X129.1Y-100.3
X130.129Y-109.9
X131.2Y-100.8
X131.5Y-101.4
X132.435Y-84.635
X134.6Y-91.2
X135.2Y-101.0
X135.9Y-101.0
X136.977Y-111.077
X137.1Y-87.0
X138.4Y-100.9
X138.4Y-109.0
X139.0Y-101.3
X139.2Y-109.0
X139.3Y-105.1
X139.4Y-87.5
X139.7Y-105.7
X140.1Y-91.1
X140.9Y-90.8
X142.2Y-93.8
X142.6Y-87.7
X142.7Y-90.129
X143.554Y-98.6
X143.6Y-89.3
X144.657Y-118.3
X144.7Y-90.7
X145.7Y-120.8
X145.8Y-93.6
X145.9Y-90.7
X146.154Y-92.4
X146.854Y-108.8
X147.154Y-115.6
X148.429Y-108.7
X149.7Y-105.5
X151.054Y-95.0
X151.07Y-98.3
X152.8Y-94.1
X153.3Y-92.4
X155.2Y-94.3
X156.104Y-97.7
X158.1Y-108.2
X158.454Y-93.203
X158.977Y-104.177
X159.0Y-116.3
X160.454Y-111.9
X160.9Y-94.0
X161.054Y-120.9
X162.7Y-105.6
X163.154Y-113.2
X163.354Y-92.6
T4
X127.574Y-93.54
X127.574Y-96.08
X127.574Y-117.44
X127.574Y-119.98
X130.114Y-93.54
X130.114Y-96.08
X130.114Y-117.44
X130.114Y-119.98
X132.654Y-93.54
X132.654Y-96.08
X132.654Y-117.44
X132.654Y-119.98
X135.194Y-93.54
X135.194Y-96.08
X135.194Y-117.44
X135.194Y-119.98
X137.734Y-93.54
X137.734Y-96.08
X137.734Y-117.44
X137.734Y-119.98
T3
X152.43Y-84.605G85X152.43Y-84.005
G05
X152.43Y-89.035G85X152.43Y-87.935
G05
X161.07Y-84.605G85X161.07Y-84.005
G05
X161.07Y-89.035G85X161.07Y-87.935
G05
M30
