G04 #@! TF.GenerationSoftware,KiCad,Pcbnew,(7.0.0-0)*
G04 #@! TF.CreationDate,2023-04-13T10:18:22+02:00*
G04 #@! TF.ProjectId,klepcontroller,6b6c6570-636f-46e7-9472-6f6c6c65722e,1.12*
G04 #@! TF.SameCoordinates,PX9868e0PY98ae54*
G04 #@! TF.FileFunction,Legend,Top*
G04 #@! TF.FilePolarity,Positive*
%FSLAX46Y46*%
G04 Gerber Fmt 4.6, Leading zero omitted, Abs format (unit mm)*
G04 Created by KiCad (PCBNEW (7.0.0-0)) date 2023-04-13 10:18:22*
%MOMM*%
%LPD*%
G01*
G04 APERTURE LIST*
G04 Aperture macros list*
%AMRoundRect*
0 Rectangle with rounded corners*
0 $1 Rounding radius*
0 $2 $3 $4 $5 $6 $7 $8 $9 X,Y pos of 4 corners*
0 Add a 4 corners polygon primitive as box body*
4,1,4,$2,$3,$4,$5,$6,$7,$8,$9,$2,$3,0*
0 Add four circle primitives for the rounded corners*
1,1,$1+$1,$2,$3*
1,1,$1+$1,$4,$5*
1,1,$1+$1,$6,$7*
1,1,$1+$1,$8,$9*
0 Add four rect primitives between the rounded corners*
20,1,$1+$1,$2,$3,$4,$5,0*
20,1,$1+$1,$4,$5,$6,$7,0*
20,1,$1+$1,$6,$7,$8,$9,0*
20,1,$1+$1,$8,$9,$2,$3,0*%
G04 Aperture macros list end*
%ADD10C,0.300000*%
%ADD11C,0.150000*%
%ADD12C,0.250000*%
%ADD13C,0.120000*%
%ADD14C,0.100000*%
%ADD15R,1.600000X3.500000*%
%ADD16R,1.500000X0.520000*%
%ADD17R,0.520000X1.500000*%
%ADD18R,1.524000X1.524000*%
%ADD19C,1.524000*%
%ADD20R,0.600000X0.800000*%
%ADD21R,0.800000X0.600000*%
%ADD22RoundRect,0.250000X-0.600000X-0.600000X0.600000X-0.600000X0.600000X0.600000X-0.600000X0.600000X0*%
%ADD23C,1.700000*%
%ADD24C,2.100000*%
G04 APERTURE END LIST*
D10*
X131479642Y-77335713D02*
X131551071Y-77121428D01*
X131551071Y-77121428D02*
X131551071Y-76764285D01*
X131551071Y-76764285D02*
X131479642Y-76621428D01*
X131479642Y-76621428D02*
X131408214Y-76549999D01*
X131408214Y-76549999D02*
X131265357Y-76478570D01*
X131265357Y-76478570D02*
X131122500Y-76478570D01*
X131122500Y-76478570D02*
X130979642Y-76549999D01*
X130979642Y-76549999D02*
X130908214Y-76621428D01*
X130908214Y-76621428D02*
X130836785Y-76764285D01*
X130836785Y-76764285D02*
X130765357Y-77049999D01*
X130765357Y-77049999D02*
X130693928Y-77192856D01*
X130693928Y-77192856D02*
X130622500Y-77264285D01*
X130622500Y-77264285D02*
X130479642Y-77335713D01*
X130479642Y-77335713D02*
X130336785Y-77335713D01*
X130336785Y-77335713D02*
X130193928Y-77264285D01*
X130193928Y-77264285D02*
X130122500Y-77192856D01*
X130122500Y-77192856D02*
X130051071Y-77049999D01*
X130051071Y-77049999D02*
X130051071Y-76692856D01*
X130051071Y-76692856D02*
X130122500Y-76478570D01*
X131551071Y-75835714D02*
X130051071Y-75835714D01*
X130051071Y-75835714D02*
X130051071Y-75264285D01*
X130051071Y-75264285D02*
X130122500Y-75121428D01*
X130122500Y-75121428D02*
X130193928Y-75049999D01*
X130193928Y-75049999D02*
X130336785Y-74978571D01*
X130336785Y-74978571D02*
X130551071Y-74978571D01*
X130551071Y-74978571D02*
X130693928Y-75049999D01*
X130693928Y-75049999D02*
X130765357Y-75121428D01*
X130765357Y-75121428D02*
X130836785Y-75264285D01*
X130836785Y-75264285D02*
X130836785Y-75835714D01*
X131551071Y-74335714D02*
X130051071Y-74335714D01*
X144150000Y-92008214D02*
X144078572Y-92079642D01*
X144078572Y-92079642D02*
X143864286Y-92151071D01*
X143864286Y-92151071D02*
X143721429Y-92151071D01*
X143721429Y-92151071D02*
X143507143Y-92079642D01*
X143507143Y-92079642D02*
X143364286Y-91936785D01*
X143364286Y-91936785D02*
X143292857Y-91793928D01*
X143292857Y-91793928D02*
X143221429Y-91508214D01*
X143221429Y-91508214D02*
X143221429Y-91293928D01*
X143221429Y-91293928D02*
X143292857Y-91008214D01*
X143292857Y-91008214D02*
X143364286Y-90865357D01*
X143364286Y-90865357D02*
X143507143Y-90722500D01*
X143507143Y-90722500D02*
X143721429Y-90651071D01*
X143721429Y-90651071D02*
X143864286Y-90651071D01*
X143864286Y-90651071D02*
X144078572Y-90722500D01*
X144078572Y-90722500D02*
X144150000Y-90793928D01*
X144721429Y-92079642D02*
X144935715Y-92151071D01*
X144935715Y-92151071D02*
X145292857Y-92151071D01*
X145292857Y-92151071D02*
X145435715Y-92079642D01*
X145435715Y-92079642D02*
X145507143Y-92008214D01*
X145507143Y-92008214D02*
X145578572Y-91865357D01*
X145578572Y-91865357D02*
X145578572Y-91722500D01*
X145578572Y-91722500D02*
X145507143Y-91579642D01*
X145507143Y-91579642D02*
X145435715Y-91508214D01*
X145435715Y-91508214D02*
X145292857Y-91436785D01*
X145292857Y-91436785D02*
X145007143Y-91365357D01*
X145007143Y-91365357D02*
X144864286Y-91293928D01*
X144864286Y-91293928D02*
X144792857Y-91222500D01*
X144792857Y-91222500D02*
X144721429Y-91079642D01*
X144721429Y-91079642D02*
X144721429Y-90936785D01*
X144721429Y-90936785D02*
X144792857Y-90793928D01*
X144792857Y-90793928D02*
X144864286Y-90722500D01*
X144864286Y-90722500D02*
X145007143Y-90651071D01*
X145007143Y-90651071D02*
X145364286Y-90651071D01*
X145364286Y-90651071D02*
X145578572Y-90722500D01*
X125000000Y-71051071D02*
X125000000Y-71408214D01*
X124642857Y-71265357D02*
X125000000Y-71408214D01*
X125000000Y-71408214D02*
X125357143Y-71265357D01*
X124785714Y-71693928D02*
X125000000Y-71408214D01*
X125000000Y-71408214D02*
X125214286Y-71693928D01*
X143492856Y-79165357D02*
X143992856Y-79165357D01*
X144207142Y-79951071D02*
X143492856Y-79951071D01*
X143492856Y-79951071D02*
X143492856Y-78451071D01*
X143492856Y-78451071D02*
X144207142Y-78451071D01*
X144849999Y-79951071D02*
X144849999Y-78451071D01*
X144849999Y-78451071D02*
X145707142Y-79951071D01*
X145707142Y-79951071D02*
X145707142Y-78451071D01*
X138449999Y-87151071D02*
X138449999Y-85651071D01*
X138449999Y-85651071D02*
X138807142Y-85651071D01*
X138807142Y-85651071D02*
X139021428Y-85722500D01*
X139021428Y-85722500D02*
X139164285Y-85865357D01*
X139164285Y-85865357D02*
X139235714Y-86008214D01*
X139235714Y-86008214D02*
X139307142Y-86293928D01*
X139307142Y-86293928D02*
X139307142Y-86508214D01*
X139307142Y-86508214D02*
X139235714Y-86793928D01*
X139235714Y-86793928D02*
X139164285Y-86936785D01*
X139164285Y-86936785D02*
X139021428Y-87079642D01*
X139021428Y-87079642D02*
X138807142Y-87151071D01*
X138807142Y-87151071D02*
X138449999Y-87151071D01*
X139949999Y-87151071D02*
X139949999Y-85651071D01*
D11*
X116400000Y-101167380D02*
X116400000Y-101405476D01*
X116161905Y-101310238D02*
X116400000Y-101405476D01*
X116400000Y-101405476D02*
X116638095Y-101310238D01*
X116257143Y-101595952D02*
X116400000Y-101405476D01*
X116400000Y-101405476D02*
X116542857Y-101595952D01*
X104200000Y-90567380D02*
X104200000Y-90805476D01*
X103961905Y-90710238D02*
X104200000Y-90805476D01*
X104200000Y-90805476D02*
X104438095Y-90710238D01*
X104057143Y-90995952D02*
X104200000Y-90805476D01*
X104200000Y-90805476D02*
X104342857Y-90995952D01*
D10*
X128059999Y-105961071D02*
X128059999Y-104461071D01*
X128059999Y-104461071D02*
X128559999Y-105532500D01*
X128559999Y-105532500D02*
X129059999Y-104461071D01*
X129059999Y-104461071D02*
X129059999Y-105961071D01*
X129988571Y-105961071D02*
X129845714Y-105889642D01*
X129845714Y-105889642D02*
X129774285Y-105818214D01*
X129774285Y-105818214D02*
X129702857Y-105675357D01*
X129702857Y-105675357D02*
X129702857Y-105246785D01*
X129702857Y-105246785D02*
X129774285Y-105103928D01*
X129774285Y-105103928D02*
X129845714Y-105032500D01*
X129845714Y-105032500D02*
X129988571Y-104961071D01*
X129988571Y-104961071D02*
X130202857Y-104961071D01*
X130202857Y-104961071D02*
X130345714Y-105032500D01*
X130345714Y-105032500D02*
X130417143Y-105103928D01*
X130417143Y-105103928D02*
X130488571Y-105246785D01*
X130488571Y-105246785D02*
X130488571Y-105675357D01*
X130488571Y-105675357D02*
X130417143Y-105818214D01*
X130417143Y-105818214D02*
X130345714Y-105889642D01*
X130345714Y-105889642D02*
X130202857Y-105961071D01*
X130202857Y-105961071D02*
X129988571Y-105961071D01*
X130917143Y-104961071D02*
X131488571Y-104961071D01*
X131131428Y-104461071D02*
X131131428Y-105746785D01*
X131131428Y-105746785D02*
X131202857Y-105889642D01*
X131202857Y-105889642D02*
X131345714Y-105961071D01*
X131345714Y-105961071D02*
X131488571Y-105961071D01*
X132202857Y-105961071D02*
X132060000Y-105889642D01*
X132060000Y-105889642D02*
X131988571Y-105818214D01*
X131988571Y-105818214D02*
X131917143Y-105675357D01*
X131917143Y-105675357D02*
X131917143Y-105246785D01*
X131917143Y-105246785D02*
X131988571Y-105103928D01*
X131988571Y-105103928D02*
X132060000Y-105032500D01*
X132060000Y-105032500D02*
X132202857Y-104961071D01*
X132202857Y-104961071D02*
X132417143Y-104961071D01*
X132417143Y-104961071D02*
X132560000Y-105032500D01*
X132560000Y-105032500D02*
X132631429Y-105103928D01*
X132631429Y-105103928D02*
X132702857Y-105246785D01*
X132702857Y-105246785D02*
X132702857Y-105675357D01*
X132702857Y-105675357D02*
X132631429Y-105818214D01*
X132631429Y-105818214D02*
X132560000Y-105889642D01*
X132560000Y-105889642D02*
X132417143Y-105961071D01*
X132417143Y-105961071D02*
X132202857Y-105961071D01*
X133345714Y-105961071D02*
X133345714Y-104961071D01*
X133345714Y-105246785D02*
X133417143Y-105103928D01*
X133417143Y-105103928D02*
X133488572Y-105032500D01*
X133488572Y-105032500D02*
X133631429Y-104961071D01*
X133631429Y-104961071D02*
X133774286Y-104961071D01*
X101389999Y-76151071D02*
X101389999Y-74651071D01*
X101389999Y-74651071D02*
X101889999Y-75722500D01*
X101889999Y-75722500D02*
X102389999Y-74651071D01*
X102389999Y-74651071D02*
X102389999Y-76151071D01*
X103318571Y-76151071D02*
X103175714Y-76079642D01*
X103175714Y-76079642D02*
X103104285Y-76008214D01*
X103104285Y-76008214D02*
X103032857Y-75865357D01*
X103032857Y-75865357D02*
X103032857Y-75436785D01*
X103032857Y-75436785D02*
X103104285Y-75293928D01*
X103104285Y-75293928D02*
X103175714Y-75222500D01*
X103175714Y-75222500D02*
X103318571Y-75151071D01*
X103318571Y-75151071D02*
X103532857Y-75151071D01*
X103532857Y-75151071D02*
X103675714Y-75222500D01*
X103675714Y-75222500D02*
X103747143Y-75293928D01*
X103747143Y-75293928D02*
X103818571Y-75436785D01*
X103818571Y-75436785D02*
X103818571Y-75865357D01*
X103818571Y-75865357D02*
X103747143Y-76008214D01*
X103747143Y-76008214D02*
X103675714Y-76079642D01*
X103675714Y-76079642D02*
X103532857Y-76151071D01*
X103532857Y-76151071D02*
X103318571Y-76151071D01*
X104247143Y-75151071D02*
X104818571Y-75151071D01*
X104461428Y-74651071D02*
X104461428Y-75936785D01*
X104461428Y-75936785D02*
X104532857Y-76079642D01*
X104532857Y-76079642D02*
X104675714Y-76151071D01*
X104675714Y-76151071D02*
X104818571Y-76151071D01*
X105532857Y-76151071D02*
X105390000Y-76079642D01*
X105390000Y-76079642D02*
X105318571Y-76008214D01*
X105318571Y-76008214D02*
X105247143Y-75865357D01*
X105247143Y-75865357D02*
X105247143Y-75436785D01*
X105247143Y-75436785D02*
X105318571Y-75293928D01*
X105318571Y-75293928D02*
X105390000Y-75222500D01*
X105390000Y-75222500D02*
X105532857Y-75151071D01*
X105532857Y-75151071D02*
X105747143Y-75151071D01*
X105747143Y-75151071D02*
X105890000Y-75222500D01*
X105890000Y-75222500D02*
X105961429Y-75293928D01*
X105961429Y-75293928D02*
X106032857Y-75436785D01*
X106032857Y-75436785D02*
X106032857Y-75865357D01*
X106032857Y-75865357D02*
X105961429Y-76008214D01*
X105961429Y-76008214D02*
X105890000Y-76079642D01*
X105890000Y-76079642D02*
X105747143Y-76151071D01*
X105747143Y-76151071D02*
X105532857Y-76151071D01*
X106675714Y-76151071D02*
X106675714Y-75151071D01*
X106675714Y-75436785D02*
X106747143Y-75293928D01*
X106747143Y-75293928D02*
X106818572Y-75222500D01*
X106818572Y-75222500D02*
X106961429Y-75151071D01*
X106961429Y-75151071D02*
X107104286Y-75151071D01*
X136185714Y-88251071D02*
X137114286Y-88251071D01*
X137114286Y-88251071D02*
X136614286Y-88822500D01*
X136614286Y-88822500D02*
X136828571Y-88822500D01*
X136828571Y-88822500D02*
X136971429Y-88893928D01*
X136971429Y-88893928D02*
X137042857Y-88965357D01*
X137042857Y-88965357D02*
X137114286Y-89108214D01*
X137114286Y-89108214D02*
X137114286Y-89465357D01*
X137114286Y-89465357D02*
X137042857Y-89608214D01*
X137042857Y-89608214D02*
X136971429Y-89679642D01*
X136971429Y-89679642D02*
X136828571Y-89751071D01*
X136828571Y-89751071D02*
X136400000Y-89751071D01*
X136400000Y-89751071D02*
X136257143Y-89679642D01*
X136257143Y-89679642D02*
X136185714Y-89608214D01*
X137757142Y-89608214D02*
X137828571Y-89679642D01*
X137828571Y-89679642D02*
X137757142Y-89751071D01*
X137757142Y-89751071D02*
X137685714Y-89679642D01*
X137685714Y-89679642D02*
X137757142Y-89608214D01*
X137757142Y-89608214D02*
X137757142Y-89751071D01*
X138328571Y-88251071D02*
X139257143Y-88251071D01*
X139257143Y-88251071D02*
X138757143Y-88822500D01*
X138757143Y-88822500D02*
X138971428Y-88822500D01*
X138971428Y-88822500D02*
X139114286Y-88893928D01*
X139114286Y-88893928D02*
X139185714Y-88965357D01*
X139185714Y-88965357D02*
X139257143Y-89108214D01*
X139257143Y-89108214D02*
X139257143Y-89465357D01*
X139257143Y-89465357D02*
X139185714Y-89608214D01*
X139185714Y-89608214D02*
X139114286Y-89679642D01*
X139114286Y-89679642D02*
X138971428Y-89751071D01*
X138971428Y-89751071D02*
X138542857Y-89751071D01*
X138542857Y-89751071D02*
X138400000Y-89679642D01*
X138400000Y-89679642D02*
X138328571Y-89608214D01*
X139685714Y-88251071D02*
X140185714Y-89751071D01*
X140185714Y-89751071D02*
X140685714Y-88251071D01*
X103857143Y-98522500D02*
X103714286Y-98451071D01*
X103714286Y-98451071D02*
X103500000Y-98451071D01*
X103500000Y-98451071D02*
X103285714Y-98522500D01*
X103285714Y-98522500D02*
X103142857Y-98665357D01*
X103142857Y-98665357D02*
X103071428Y-98808214D01*
X103071428Y-98808214D02*
X103000000Y-99093928D01*
X103000000Y-99093928D02*
X103000000Y-99308214D01*
X103000000Y-99308214D02*
X103071428Y-99593928D01*
X103071428Y-99593928D02*
X103142857Y-99736785D01*
X103142857Y-99736785D02*
X103285714Y-99879642D01*
X103285714Y-99879642D02*
X103500000Y-99951071D01*
X103500000Y-99951071D02*
X103642857Y-99951071D01*
X103642857Y-99951071D02*
X103857143Y-99879642D01*
X103857143Y-99879642D02*
X103928571Y-99808214D01*
X103928571Y-99808214D02*
X103928571Y-99308214D01*
X103928571Y-99308214D02*
X103642857Y-99308214D01*
X104571428Y-99951071D02*
X104571428Y-98451071D01*
X104571428Y-98451071D02*
X105428571Y-99951071D01*
X105428571Y-99951071D02*
X105428571Y-98451071D01*
X106142857Y-99951071D02*
X106142857Y-98451071D01*
X106142857Y-98451071D02*
X106500000Y-98451071D01*
X106500000Y-98451071D02*
X106714286Y-98522500D01*
X106714286Y-98522500D02*
X106857143Y-98665357D01*
X106857143Y-98665357D02*
X106928572Y-98808214D01*
X106928572Y-98808214D02*
X107000000Y-99093928D01*
X107000000Y-99093928D02*
X107000000Y-99308214D01*
X107000000Y-99308214D02*
X106928572Y-99593928D01*
X106928572Y-99593928D02*
X106857143Y-99736785D01*
X106857143Y-99736785D02*
X106714286Y-99879642D01*
X106714286Y-99879642D02*
X106500000Y-99951071D01*
X106500000Y-99951071D02*
X106142857Y-99951071D01*
D12*
X101642857Y-92267380D02*
X101071429Y-92267380D01*
X101357143Y-92267380D02*
X101357143Y-91267380D01*
X101357143Y-91267380D02*
X101261905Y-91410238D01*
X101261905Y-91410238D02*
X101166667Y-91505476D01*
X101166667Y-91505476D02*
X101071429Y-91553095D01*
X102023810Y-91362619D02*
X102071429Y-91315000D01*
X102071429Y-91315000D02*
X102166667Y-91267380D01*
X102166667Y-91267380D02*
X102404762Y-91267380D01*
X102404762Y-91267380D02*
X102500000Y-91315000D01*
X102500000Y-91315000D02*
X102547619Y-91362619D01*
X102547619Y-91362619D02*
X102595238Y-91457857D01*
X102595238Y-91457857D02*
X102595238Y-91553095D01*
X102595238Y-91553095D02*
X102547619Y-91695952D01*
X102547619Y-91695952D02*
X101976191Y-92267380D01*
X101976191Y-92267380D02*
X102595238Y-92267380D01*
X103023810Y-91886428D02*
X103785715Y-91886428D01*
X104214286Y-91362619D02*
X104261905Y-91315000D01*
X104261905Y-91315000D02*
X104357143Y-91267380D01*
X104357143Y-91267380D02*
X104595238Y-91267380D01*
X104595238Y-91267380D02*
X104690476Y-91315000D01*
X104690476Y-91315000D02*
X104738095Y-91362619D01*
X104738095Y-91362619D02*
X104785714Y-91457857D01*
X104785714Y-91457857D02*
X104785714Y-91553095D01*
X104785714Y-91553095D02*
X104738095Y-91695952D01*
X104738095Y-91695952D02*
X104166667Y-92267380D01*
X104166667Y-92267380D02*
X104785714Y-92267380D01*
X105642857Y-91600714D02*
X105642857Y-92267380D01*
X105404762Y-91219761D02*
X105166667Y-91934047D01*
X105166667Y-91934047D02*
X105785714Y-91934047D01*
X106023810Y-91267380D02*
X106357143Y-92267380D01*
X106357143Y-92267380D02*
X106690476Y-91267380D01*
X107023810Y-92267380D02*
X107023810Y-91600714D01*
X107023810Y-91695952D02*
X107071429Y-91648333D01*
X107071429Y-91648333D02*
X107166667Y-91600714D01*
X107166667Y-91600714D02*
X107309524Y-91600714D01*
X107309524Y-91600714D02*
X107404762Y-91648333D01*
X107404762Y-91648333D02*
X107452381Y-91743571D01*
X107452381Y-91743571D02*
X107452381Y-92267380D01*
X107452381Y-91743571D02*
X107500000Y-91648333D01*
X107500000Y-91648333D02*
X107595238Y-91600714D01*
X107595238Y-91600714D02*
X107738095Y-91600714D01*
X107738095Y-91600714D02*
X107833334Y-91648333D01*
X107833334Y-91648333D02*
X107880953Y-91743571D01*
X107880953Y-91743571D02*
X107880953Y-92267380D01*
D10*
X135771429Y-84679642D02*
X135985715Y-84751071D01*
X135985715Y-84751071D02*
X136342857Y-84751071D01*
X136342857Y-84751071D02*
X136485715Y-84679642D01*
X136485715Y-84679642D02*
X136557143Y-84608214D01*
X136557143Y-84608214D02*
X136628572Y-84465357D01*
X136628572Y-84465357D02*
X136628572Y-84322500D01*
X136628572Y-84322500D02*
X136557143Y-84179642D01*
X136557143Y-84179642D02*
X136485715Y-84108214D01*
X136485715Y-84108214D02*
X136342857Y-84036785D01*
X136342857Y-84036785D02*
X136057143Y-83965357D01*
X136057143Y-83965357D02*
X135914286Y-83893928D01*
X135914286Y-83893928D02*
X135842857Y-83822500D01*
X135842857Y-83822500D02*
X135771429Y-83679642D01*
X135771429Y-83679642D02*
X135771429Y-83536785D01*
X135771429Y-83536785D02*
X135842857Y-83393928D01*
X135842857Y-83393928D02*
X135914286Y-83322500D01*
X135914286Y-83322500D02*
X136057143Y-83251071D01*
X136057143Y-83251071D02*
X136414286Y-83251071D01*
X136414286Y-83251071D02*
X136628572Y-83322500D01*
X137057143Y-83251071D02*
X137914286Y-83251071D01*
X137485714Y-84751071D02*
X137485714Y-83251071D01*
X138414285Y-83965357D02*
X138914285Y-83965357D01*
X139128571Y-84751071D02*
X138414285Y-84751071D01*
X138414285Y-84751071D02*
X138414285Y-83251071D01*
X138414285Y-83251071D02*
X139128571Y-83251071D01*
X139771428Y-84751071D02*
X139771428Y-83251071D01*
X139771428Y-83251071D02*
X140342857Y-83251071D01*
X140342857Y-83251071D02*
X140485714Y-83322500D01*
X140485714Y-83322500D02*
X140557143Y-83393928D01*
X140557143Y-83393928D02*
X140628571Y-83536785D01*
X140628571Y-83536785D02*
X140628571Y-83751071D01*
X140628571Y-83751071D02*
X140557143Y-83893928D01*
X140557143Y-83893928D02*
X140485714Y-83965357D01*
X140485714Y-83965357D02*
X140342857Y-84036785D01*
X140342857Y-84036785D02*
X139771428Y-84036785D01*
D11*
G04 #@! TO.C,C20*
X123817142Y-65042142D02*
X123769523Y-65089761D01*
X123769523Y-65089761D02*
X123626666Y-65137380D01*
X123626666Y-65137380D02*
X123531428Y-65137380D01*
X123531428Y-65137380D02*
X123388571Y-65089761D01*
X123388571Y-65089761D02*
X123293333Y-64994523D01*
X123293333Y-64994523D02*
X123245714Y-64899285D01*
X123245714Y-64899285D02*
X123198095Y-64708809D01*
X123198095Y-64708809D02*
X123198095Y-64565952D01*
X123198095Y-64565952D02*
X123245714Y-64375476D01*
X123245714Y-64375476D02*
X123293333Y-64280238D01*
X123293333Y-64280238D02*
X123388571Y-64185000D01*
X123388571Y-64185000D02*
X123531428Y-64137380D01*
X123531428Y-64137380D02*
X123626666Y-64137380D01*
X123626666Y-64137380D02*
X123769523Y-64185000D01*
X123769523Y-64185000D02*
X123817142Y-64232619D01*
X124198095Y-64232619D02*
X124245714Y-64185000D01*
X124245714Y-64185000D02*
X124340952Y-64137380D01*
X124340952Y-64137380D02*
X124579047Y-64137380D01*
X124579047Y-64137380D02*
X124674285Y-64185000D01*
X124674285Y-64185000D02*
X124721904Y-64232619D01*
X124721904Y-64232619D02*
X124769523Y-64327857D01*
X124769523Y-64327857D02*
X124769523Y-64423095D01*
X124769523Y-64423095D02*
X124721904Y-64565952D01*
X124721904Y-64565952D02*
X124150476Y-65137380D01*
X124150476Y-65137380D02*
X124769523Y-65137380D01*
X125388571Y-64137380D02*
X125483809Y-64137380D01*
X125483809Y-64137380D02*
X125579047Y-64185000D01*
X125579047Y-64185000D02*
X125626666Y-64232619D01*
X125626666Y-64232619D02*
X125674285Y-64327857D01*
X125674285Y-64327857D02*
X125721904Y-64518333D01*
X125721904Y-64518333D02*
X125721904Y-64756428D01*
X125721904Y-64756428D02*
X125674285Y-64946904D01*
X125674285Y-64946904D02*
X125626666Y-65042142D01*
X125626666Y-65042142D02*
X125579047Y-65089761D01*
X125579047Y-65089761D02*
X125483809Y-65137380D01*
X125483809Y-65137380D02*
X125388571Y-65137380D01*
X125388571Y-65137380D02*
X125293333Y-65089761D01*
X125293333Y-65089761D02*
X125245714Y-65042142D01*
X125245714Y-65042142D02*
X125198095Y-64946904D01*
X125198095Y-64946904D02*
X125150476Y-64756428D01*
X125150476Y-64756428D02*
X125150476Y-64518333D01*
X125150476Y-64518333D02*
X125198095Y-64327857D01*
X125198095Y-64327857D02*
X125245714Y-64232619D01*
X125245714Y-64232619D02*
X125293333Y-64185000D01*
X125293333Y-64185000D02*
X125388571Y-64137380D01*
X117437428Y-65424131D02*
X117437428Y-64662227D01*
X117818380Y-65043179D02*
X117056476Y-65043179D01*
G04 #@! TO.C,C19*
X114927142Y-65042142D02*
X114879523Y-65089761D01*
X114879523Y-65089761D02*
X114736666Y-65137380D01*
X114736666Y-65137380D02*
X114641428Y-65137380D01*
X114641428Y-65137380D02*
X114498571Y-65089761D01*
X114498571Y-65089761D02*
X114403333Y-64994523D01*
X114403333Y-64994523D02*
X114355714Y-64899285D01*
X114355714Y-64899285D02*
X114308095Y-64708809D01*
X114308095Y-64708809D02*
X114308095Y-64565952D01*
X114308095Y-64565952D02*
X114355714Y-64375476D01*
X114355714Y-64375476D02*
X114403333Y-64280238D01*
X114403333Y-64280238D02*
X114498571Y-64185000D01*
X114498571Y-64185000D02*
X114641428Y-64137380D01*
X114641428Y-64137380D02*
X114736666Y-64137380D01*
X114736666Y-64137380D02*
X114879523Y-64185000D01*
X114879523Y-64185000D02*
X114927142Y-64232619D01*
X115879523Y-65137380D02*
X115308095Y-65137380D01*
X115593809Y-65137380D02*
X115593809Y-64137380D01*
X115593809Y-64137380D02*
X115498571Y-64280238D01*
X115498571Y-64280238D02*
X115403333Y-64375476D01*
X115403333Y-64375476D02*
X115308095Y-64423095D01*
X116355714Y-65137380D02*
X116546190Y-65137380D01*
X116546190Y-65137380D02*
X116641428Y-65089761D01*
X116641428Y-65089761D02*
X116689047Y-65042142D01*
X116689047Y-65042142D02*
X116784285Y-64899285D01*
X116784285Y-64899285D02*
X116831904Y-64708809D01*
X116831904Y-64708809D02*
X116831904Y-64327857D01*
X116831904Y-64327857D02*
X116784285Y-64232619D01*
X116784285Y-64232619D02*
X116736666Y-64185000D01*
X116736666Y-64185000D02*
X116641428Y-64137380D01*
X116641428Y-64137380D02*
X116450952Y-64137380D01*
X116450952Y-64137380D02*
X116355714Y-64185000D01*
X116355714Y-64185000D02*
X116308095Y-64232619D01*
X116308095Y-64232619D02*
X116260476Y-64327857D01*
X116260476Y-64327857D02*
X116260476Y-64565952D01*
X116260476Y-64565952D02*
X116308095Y-64661190D01*
X116308095Y-64661190D02*
X116355714Y-64708809D01*
X116355714Y-64708809D02*
X116450952Y-64756428D01*
X116450952Y-64756428D02*
X116641428Y-64756428D01*
X116641428Y-64756428D02*
X116736666Y-64708809D01*
X116736666Y-64708809D02*
X116784285Y-64661190D01*
X116784285Y-64661190D02*
X116831904Y-64565952D01*
X109563428Y-65373331D02*
X109563428Y-64611427D01*
X109944380Y-64992379D02*
X109182476Y-64992379D01*
G04 #@! TO.C,U1*
X119838095Y-80167380D02*
X119838095Y-80976904D01*
X119838095Y-80976904D02*
X119885714Y-81072142D01*
X119885714Y-81072142D02*
X119933333Y-81119761D01*
X119933333Y-81119761D02*
X120028571Y-81167380D01*
X120028571Y-81167380D02*
X120219047Y-81167380D01*
X120219047Y-81167380D02*
X120314285Y-81119761D01*
X120314285Y-81119761D02*
X120361904Y-81072142D01*
X120361904Y-81072142D02*
X120409523Y-80976904D01*
X120409523Y-80976904D02*
X120409523Y-80167380D01*
X121409523Y-81167380D02*
X120838095Y-81167380D01*
X121123809Y-81167380D02*
X121123809Y-80167380D01*
X121123809Y-80167380D02*
X121028571Y-80310238D01*
X121028571Y-80310238D02*
X120933333Y-80405476D01*
X120933333Y-80405476D02*
X120838095Y-80453095D01*
G04 #@! TO.C,J3*
X122207380Y-75833333D02*
X122921666Y-75833333D01*
X122921666Y-75833333D02*
X123064523Y-75880952D01*
X123064523Y-75880952D02*
X123159761Y-75976190D01*
X123159761Y-75976190D02*
X123207380Y-76119047D01*
X123207380Y-76119047D02*
X123207380Y-76214285D01*
X122207380Y-75452380D02*
X122207380Y-74833333D01*
X122207380Y-74833333D02*
X122588333Y-75166666D01*
X122588333Y-75166666D02*
X122588333Y-75023809D01*
X122588333Y-75023809D02*
X122635952Y-74928571D01*
X122635952Y-74928571D02*
X122683571Y-74880952D01*
X122683571Y-74880952D02*
X122778809Y-74833333D01*
X122778809Y-74833333D02*
X123016904Y-74833333D01*
X123016904Y-74833333D02*
X123112142Y-74880952D01*
X123112142Y-74880952D02*
X123159761Y-74928571D01*
X123159761Y-74928571D02*
X123207380Y-75023809D01*
X123207380Y-75023809D02*
X123207380Y-75309523D01*
X123207380Y-75309523D02*
X123159761Y-75404761D01*
X123159761Y-75404761D02*
X123112142Y-75452380D01*
G04 #@! TO.C,C1*
X128233333Y-81872142D02*
X128185714Y-81919761D01*
X128185714Y-81919761D02*
X128042857Y-81967380D01*
X128042857Y-81967380D02*
X127947619Y-81967380D01*
X127947619Y-81967380D02*
X127804762Y-81919761D01*
X127804762Y-81919761D02*
X127709524Y-81824523D01*
X127709524Y-81824523D02*
X127661905Y-81729285D01*
X127661905Y-81729285D02*
X127614286Y-81538809D01*
X127614286Y-81538809D02*
X127614286Y-81395952D01*
X127614286Y-81395952D02*
X127661905Y-81205476D01*
X127661905Y-81205476D02*
X127709524Y-81110238D01*
X127709524Y-81110238D02*
X127804762Y-81015000D01*
X127804762Y-81015000D02*
X127947619Y-80967380D01*
X127947619Y-80967380D02*
X128042857Y-80967380D01*
X128042857Y-80967380D02*
X128185714Y-81015000D01*
X128185714Y-81015000D02*
X128233333Y-81062619D01*
X129185714Y-81967380D02*
X128614286Y-81967380D01*
X128900000Y-81967380D02*
X128900000Y-80967380D01*
X128900000Y-80967380D02*
X128804762Y-81110238D01*
X128804762Y-81110238D02*
X128709524Y-81205476D01*
X128709524Y-81205476D02*
X128614286Y-81253095D01*
G04 #@! TO.C,C3*
X126002142Y-97956666D02*
X126049761Y-98004285D01*
X126049761Y-98004285D02*
X126097380Y-98147142D01*
X126097380Y-98147142D02*
X126097380Y-98242380D01*
X126097380Y-98242380D02*
X126049761Y-98385237D01*
X126049761Y-98385237D02*
X125954523Y-98480475D01*
X125954523Y-98480475D02*
X125859285Y-98528094D01*
X125859285Y-98528094D02*
X125668809Y-98575713D01*
X125668809Y-98575713D02*
X125525952Y-98575713D01*
X125525952Y-98575713D02*
X125335476Y-98528094D01*
X125335476Y-98528094D02*
X125240238Y-98480475D01*
X125240238Y-98480475D02*
X125145000Y-98385237D01*
X125145000Y-98385237D02*
X125097380Y-98242380D01*
X125097380Y-98242380D02*
X125097380Y-98147142D01*
X125097380Y-98147142D02*
X125145000Y-98004285D01*
X125145000Y-98004285D02*
X125192619Y-97956666D01*
X125097380Y-97623332D02*
X125097380Y-97004285D01*
X125097380Y-97004285D02*
X125478333Y-97337618D01*
X125478333Y-97337618D02*
X125478333Y-97194761D01*
X125478333Y-97194761D02*
X125525952Y-97099523D01*
X125525952Y-97099523D02*
X125573571Y-97051904D01*
X125573571Y-97051904D02*
X125668809Y-97004285D01*
X125668809Y-97004285D02*
X125906904Y-97004285D01*
X125906904Y-97004285D02*
X126002142Y-97051904D01*
X126002142Y-97051904D02*
X126049761Y-97099523D01*
X126049761Y-97099523D02*
X126097380Y-97194761D01*
X126097380Y-97194761D02*
X126097380Y-97480475D01*
X126097380Y-97480475D02*
X126049761Y-97575713D01*
X126049761Y-97575713D02*
X126002142Y-97623332D01*
G04 #@! TO.C,C8*
X131872142Y-81366666D02*
X131919761Y-81414285D01*
X131919761Y-81414285D02*
X131967380Y-81557142D01*
X131967380Y-81557142D02*
X131967380Y-81652380D01*
X131967380Y-81652380D02*
X131919761Y-81795237D01*
X131919761Y-81795237D02*
X131824523Y-81890475D01*
X131824523Y-81890475D02*
X131729285Y-81938094D01*
X131729285Y-81938094D02*
X131538809Y-81985713D01*
X131538809Y-81985713D02*
X131395952Y-81985713D01*
X131395952Y-81985713D02*
X131205476Y-81938094D01*
X131205476Y-81938094D02*
X131110238Y-81890475D01*
X131110238Y-81890475D02*
X131015000Y-81795237D01*
X131015000Y-81795237D02*
X130967380Y-81652380D01*
X130967380Y-81652380D02*
X130967380Y-81557142D01*
X130967380Y-81557142D02*
X131015000Y-81414285D01*
X131015000Y-81414285D02*
X131062619Y-81366666D01*
X131395952Y-80795237D02*
X131348333Y-80890475D01*
X131348333Y-80890475D02*
X131300714Y-80938094D01*
X131300714Y-80938094D02*
X131205476Y-80985713D01*
X131205476Y-80985713D02*
X131157857Y-80985713D01*
X131157857Y-80985713D02*
X131062619Y-80938094D01*
X131062619Y-80938094D02*
X131015000Y-80890475D01*
X131015000Y-80890475D02*
X130967380Y-80795237D01*
X130967380Y-80795237D02*
X130967380Y-80604761D01*
X130967380Y-80604761D02*
X131015000Y-80509523D01*
X131015000Y-80509523D02*
X131062619Y-80461904D01*
X131062619Y-80461904D02*
X131157857Y-80414285D01*
X131157857Y-80414285D02*
X131205476Y-80414285D01*
X131205476Y-80414285D02*
X131300714Y-80461904D01*
X131300714Y-80461904D02*
X131348333Y-80509523D01*
X131348333Y-80509523D02*
X131395952Y-80604761D01*
X131395952Y-80604761D02*
X131395952Y-80795237D01*
X131395952Y-80795237D02*
X131443571Y-80890475D01*
X131443571Y-80890475D02*
X131491190Y-80938094D01*
X131491190Y-80938094D02*
X131586428Y-80985713D01*
X131586428Y-80985713D02*
X131776904Y-80985713D01*
X131776904Y-80985713D02*
X131872142Y-80938094D01*
X131872142Y-80938094D02*
X131919761Y-80890475D01*
X131919761Y-80890475D02*
X131967380Y-80795237D01*
X131967380Y-80795237D02*
X131967380Y-80604761D01*
X131967380Y-80604761D02*
X131919761Y-80509523D01*
X131919761Y-80509523D02*
X131872142Y-80461904D01*
X131872142Y-80461904D02*
X131776904Y-80414285D01*
X131776904Y-80414285D02*
X131586428Y-80414285D01*
X131586428Y-80414285D02*
X131491190Y-80461904D01*
X131491190Y-80461904D02*
X131443571Y-80509523D01*
X131443571Y-80509523D02*
X131395952Y-80604761D01*
G04 #@! TO.C,C16*
X132352142Y-89542857D02*
X132399761Y-89590476D01*
X132399761Y-89590476D02*
X132447380Y-89733333D01*
X132447380Y-89733333D02*
X132447380Y-89828571D01*
X132447380Y-89828571D02*
X132399761Y-89971428D01*
X132399761Y-89971428D02*
X132304523Y-90066666D01*
X132304523Y-90066666D02*
X132209285Y-90114285D01*
X132209285Y-90114285D02*
X132018809Y-90161904D01*
X132018809Y-90161904D02*
X131875952Y-90161904D01*
X131875952Y-90161904D02*
X131685476Y-90114285D01*
X131685476Y-90114285D02*
X131590238Y-90066666D01*
X131590238Y-90066666D02*
X131495000Y-89971428D01*
X131495000Y-89971428D02*
X131447380Y-89828571D01*
X131447380Y-89828571D02*
X131447380Y-89733333D01*
X131447380Y-89733333D02*
X131495000Y-89590476D01*
X131495000Y-89590476D02*
X131542619Y-89542857D01*
X132447380Y-88590476D02*
X132447380Y-89161904D01*
X132447380Y-88876190D02*
X131447380Y-88876190D01*
X131447380Y-88876190D02*
X131590238Y-88971428D01*
X131590238Y-88971428D02*
X131685476Y-89066666D01*
X131685476Y-89066666D02*
X131733095Y-89161904D01*
X131447380Y-87733333D02*
X131447380Y-87923809D01*
X131447380Y-87923809D02*
X131495000Y-88019047D01*
X131495000Y-88019047D02*
X131542619Y-88066666D01*
X131542619Y-88066666D02*
X131685476Y-88161904D01*
X131685476Y-88161904D02*
X131875952Y-88209523D01*
X131875952Y-88209523D02*
X132256904Y-88209523D01*
X132256904Y-88209523D02*
X132352142Y-88161904D01*
X132352142Y-88161904D02*
X132399761Y-88114285D01*
X132399761Y-88114285D02*
X132447380Y-88019047D01*
X132447380Y-88019047D02*
X132447380Y-87828571D01*
X132447380Y-87828571D02*
X132399761Y-87733333D01*
X132399761Y-87733333D02*
X132352142Y-87685714D01*
X132352142Y-87685714D02*
X132256904Y-87638095D01*
X132256904Y-87638095D02*
X132018809Y-87638095D01*
X132018809Y-87638095D02*
X131923571Y-87685714D01*
X131923571Y-87685714D02*
X131875952Y-87733333D01*
X131875952Y-87733333D02*
X131828333Y-87828571D01*
X131828333Y-87828571D02*
X131828333Y-88019047D01*
X131828333Y-88019047D02*
X131875952Y-88114285D01*
X131875952Y-88114285D02*
X131923571Y-88161904D01*
X131923571Y-88161904D02*
X132018809Y-88209523D01*
G04 #@! TO.C,C17*
X117112142Y-79382857D02*
X117159761Y-79430476D01*
X117159761Y-79430476D02*
X117207380Y-79573333D01*
X117207380Y-79573333D02*
X117207380Y-79668571D01*
X117207380Y-79668571D02*
X117159761Y-79811428D01*
X117159761Y-79811428D02*
X117064523Y-79906666D01*
X117064523Y-79906666D02*
X116969285Y-79954285D01*
X116969285Y-79954285D02*
X116778809Y-80001904D01*
X116778809Y-80001904D02*
X116635952Y-80001904D01*
X116635952Y-80001904D02*
X116445476Y-79954285D01*
X116445476Y-79954285D02*
X116350238Y-79906666D01*
X116350238Y-79906666D02*
X116255000Y-79811428D01*
X116255000Y-79811428D02*
X116207380Y-79668571D01*
X116207380Y-79668571D02*
X116207380Y-79573333D01*
X116207380Y-79573333D02*
X116255000Y-79430476D01*
X116255000Y-79430476D02*
X116302619Y-79382857D01*
X117207380Y-78430476D02*
X117207380Y-79001904D01*
X117207380Y-78716190D02*
X116207380Y-78716190D01*
X116207380Y-78716190D02*
X116350238Y-78811428D01*
X116350238Y-78811428D02*
X116445476Y-78906666D01*
X116445476Y-78906666D02*
X116493095Y-79001904D01*
X116207380Y-78097142D02*
X116207380Y-77430476D01*
X116207380Y-77430476D02*
X117207380Y-77859047D01*
G04 #@! TO.C,C6*
X114572142Y-95416666D02*
X114619761Y-95464285D01*
X114619761Y-95464285D02*
X114667380Y-95607142D01*
X114667380Y-95607142D02*
X114667380Y-95702380D01*
X114667380Y-95702380D02*
X114619761Y-95845237D01*
X114619761Y-95845237D02*
X114524523Y-95940475D01*
X114524523Y-95940475D02*
X114429285Y-95988094D01*
X114429285Y-95988094D02*
X114238809Y-96035713D01*
X114238809Y-96035713D02*
X114095952Y-96035713D01*
X114095952Y-96035713D02*
X113905476Y-95988094D01*
X113905476Y-95988094D02*
X113810238Y-95940475D01*
X113810238Y-95940475D02*
X113715000Y-95845237D01*
X113715000Y-95845237D02*
X113667380Y-95702380D01*
X113667380Y-95702380D02*
X113667380Y-95607142D01*
X113667380Y-95607142D02*
X113715000Y-95464285D01*
X113715000Y-95464285D02*
X113762619Y-95416666D01*
X113667380Y-94559523D02*
X113667380Y-94749999D01*
X113667380Y-94749999D02*
X113715000Y-94845237D01*
X113715000Y-94845237D02*
X113762619Y-94892856D01*
X113762619Y-94892856D02*
X113905476Y-94988094D01*
X113905476Y-94988094D02*
X114095952Y-95035713D01*
X114095952Y-95035713D02*
X114476904Y-95035713D01*
X114476904Y-95035713D02*
X114572142Y-94988094D01*
X114572142Y-94988094D02*
X114619761Y-94940475D01*
X114619761Y-94940475D02*
X114667380Y-94845237D01*
X114667380Y-94845237D02*
X114667380Y-94654761D01*
X114667380Y-94654761D02*
X114619761Y-94559523D01*
X114619761Y-94559523D02*
X114572142Y-94511904D01*
X114572142Y-94511904D02*
X114476904Y-94464285D01*
X114476904Y-94464285D02*
X114238809Y-94464285D01*
X114238809Y-94464285D02*
X114143571Y-94511904D01*
X114143571Y-94511904D02*
X114095952Y-94559523D01*
X114095952Y-94559523D02*
X114048333Y-94654761D01*
X114048333Y-94654761D02*
X114048333Y-94845237D01*
X114048333Y-94845237D02*
X114095952Y-94940475D01*
X114095952Y-94940475D02*
X114143571Y-94988094D01*
X114143571Y-94988094D02*
X114238809Y-95035713D01*
G04 #@! TO.C,J2*
X147893346Y-74261280D02*
X147893346Y-74975566D01*
X147893346Y-74975566D02*
X147845727Y-75118423D01*
X147845727Y-75118423D02*
X147750489Y-75213661D01*
X147750489Y-75213661D02*
X147607632Y-75261280D01*
X147607632Y-75261280D02*
X147512394Y-75261280D01*
X148321918Y-74356519D02*
X148369537Y-74308900D01*
X148369537Y-74308900D02*
X148464775Y-74261280D01*
X148464775Y-74261280D02*
X148702870Y-74261280D01*
X148702870Y-74261280D02*
X148798108Y-74308900D01*
X148798108Y-74308900D02*
X148845727Y-74356519D01*
X148845727Y-74356519D02*
X148893346Y-74451757D01*
X148893346Y-74451757D02*
X148893346Y-74546995D01*
X148893346Y-74546995D02*
X148845727Y-74689852D01*
X148845727Y-74689852D02*
X148274299Y-75261280D01*
X148274299Y-75261280D02*
X148893346Y-75261280D01*
G04 #@! TO.C,R5*
X110323333Y-76567380D02*
X109990000Y-76091190D01*
X109751905Y-76567380D02*
X109751905Y-75567380D01*
X109751905Y-75567380D02*
X110132857Y-75567380D01*
X110132857Y-75567380D02*
X110228095Y-75615000D01*
X110228095Y-75615000D02*
X110275714Y-75662619D01*
X110275714Y-75662619D02*
X110323333Y-75757857D01*
X110323333Y-75757857D02*
X110323333Y-75900714D01*
X110323333Y-75900714D02*
X110275714Y-75995952D01*
X110275714Y-75995952D02*
X110228095Y-76043571D01*
X110228095Y-76043571D02*
X110132857Y-76091190D01*
X110132857Y-76091190D02*
X109751905Y-76091190D01*
X111228095Y-75567380D02*
X110751905Y-75567380D01*
X110751905Y-75567380D02*
X110704286Y-76043571D01*
X110704286Y-76043571D02*
X110751905Y-75995952D01*
X110751905Y-75995952D02*
X110847143Y-75948333D01*
X110847143Y-75948333D02*
X111085238Y-75948333D01*
X111085238Y-75948333D02*
X111180476Y-75995952D01*
X111180476Y-75995952D02*
X111228095Y-76043571D01*
X111228095Y-76043571D02*
X111275714Y-76138809D01*
X111275714Y-76138809D02*
X111275714Y-76376904D01*
X111275714Y-76376904D02*
X111228095Y-76472142D01*
X111228095Y-76472142D02*
X111180476Y-76519761D01*
X111180476Y-76519761D02*
X111085238Y-76567380D01*
X111085238Y-76567380D02*
X110847143Y-76567380D01*
X110847143Y-76567380D02*
X110751905Y-76519761D01*
X110751905Y-76519761D02*
X110704286Y-76472142D01*
G04 #@! TO.C,R6*
X134453333Y-86727380D02*
X134120000Y-86251190D01*
X133881905Y-86727380D02*
X133881905Y-85727380D01*
X133881905Y-85727380D02*
X134262857Y-85727380D01*
X134262857Y-85727380D02*
X134358095Y-85775000D01*
X134358095Y-85775000D02*
X134405714Y-85822619D01*
X134405714Y-85822619D02*
X134453333Y-85917857D01*
X134453333Y-85917857D02*
X134453333Y-86060714D01*
X134453333Y-86060714D02*
X134405714Y-86155952D01*
X134405714Y-86155952D02*
X134358095Y-86203571D01*
X134358095Y-86203571D02*
X134262857Y-86251190D01*
X134262857Y-86251190D02*
X133881905Y-86251190D01*
X135310476Y-85727380D02*
X135120000Y-85727380D01*
X135120000Y-85727380D02*
X135024762Y-85775000D01*
X135024762Y-85775000D02*
X134977143Y-85822619D01*
X134977143Y-85822619D02*
X134881905Y-85965476D01*
X134881905Y-85965476D02*
X134834286Y-86155952D01*
X134834286Y-86155952D02*
X134834286Y-86536904D01*
X134834286Y-86536904D02*
X134881905Y-86632142D01*
X134881905Y-86632142D02*
X134929524Y-86679761D01*
X134929524Y-86679761D02*
X135024762Y-86727380D01*
X135024762Y-86727380D02*
X135215238Y-86727380D01*
X135215238Y-86727380D02*
X135310476Y-86679761D01*
X135310476Y-86679761D02*
X135358095Y-86632142D01*
X135358095Y-86632142D02*
X135405714Y-86536904D01*
X135405714Y-86536904D02*
X135405714Y-86298809D01*
X135405714Y-86298809D02*
X135358095Y-86203571D01*
X135358095Y-86203571D02*
X135310476Y-86155952D01*
X135310476Y-86155952D02*
X135215238Y-86108333D01*
X135215238Y-86108333D02*
X135024762Y-86108333D01*
X135024762Y-86108333D02*
X134929524Y-86155952D01*
X134929524Y-86155952D02*
X134881905Y-86203571D01*
X134881905Y-86203571D02*
X134834286Y-86298809D01*
G04 #@! TO.C,R7*
X132447380Y-83986666D02*
X131971190Y-84319999D01*
X132447380Y-84558094D02*
X131447380Y-84558094D01*
X131447380Y-84558094D02*
X131447380Y-84177142D01*
X131447380Y-84177142D02*
X131495000Y-84081904D01*
X131495000Y-84081904D02*
X131542619Y-84034285D01*
X131542619Y-84034285D02*
X131637857Y-83986666D01*
X131637857Y-83986666D02*
X131780714Y-83986666D01*
X131780714Y-83986666D02*
X131875952Y-84034285D01*
X131875952Y-84034285D02*
X131923571Y-84081904D01*
X131923571Y-84081904D02*
X131971190Y-84177142D01*
X131971190Y-84177142D02*
X131971190Y-84558094D01*
X131447380Y-83653332D02*
X131447380Y-82986666D01*
X131447380Y-82986666D02*
X132447380Y-83415237D01*
G04 #@! TO.C,R8*
X112863333Y-79107380D02*
X112530000Y-78631190D01*
X112291905Y-79107380D02*
X112291905Y-78107380D01*
X112291905Y-78107380D02*
X112672857Y-78107380D01*
X112672857Y-78107380D02*
X112768095Y-78155000D01*
X112768095Y-78155000D02*
X112815714Y-78202619D01*
X112815714Y-78202619D02*
X112863333Y-78297857D01*
X112863333Y-78297857D02*
X112863333Y-78440714D01*
X112863333Y-78440714D02*
X112815714Y-78535952D01*
X112815714Y-78535952D02*
X112768095Y-78583571D01*
X112768095Y-78583571D02*
X112672857Y-78631190D01*
X112672857Y-78631190D02*
X112291905Y-78631190D01*
X113434762Y-78535952D02*
X113339524Y-78488333D01*
X113339524Y-78488333D02*
X113291905Y-78440714D01*
X113291905Y-78440714D02*
X113244286Y-78345476D01*
X113244286Y-78345476D02*
X113244286Y-78297857D01*
X113244286Y-78297857D02*
X113291905Y-78202619D01*
X113291905Y-78202619D02*
X113339524Y-78155000D01*
X113339524Y-78155000D02*
X113434762Y-78107380D01*
X113434762Y-78107380D02*
X113625238Y-78107380D01*
X113625238Y-78107380D02*
X113720476Y-78155000D01*
X113720476Y-78155000D02*
X113768095Y-78202619D01*
X113768095Y-78202619D02*
X113815714Y-78297857D01*
X113815714Y-78297857D02*
X113815714Y-78345476D01*
X113815714Y-78345476D02*
X113768095Y-78440714D01*
X113768095Y-78440714D02*
X113720476Y-78488333D01*
X113720476Y-78488333D02*
X113625238Y-78535952D01*
X113625238Y-78535952D02*
X113434762Y-78535952D01*
X113434762Y-78535952D02*
X113339524Y-78583571D01*
X113339524Y-78583571D02*
X113291905Y-78631190D01*
X113291905Y-78631190D02*
X113244286Y-78726428D01*
X113244286Y-78726428D02*
X113244286Y-78916904D01*
X113244286Y-78916904D02*
X113291905Y-79012142D01*
X113291905Y-79012142D02*
X113339524Y-79059761D01*
X113339524Y-79059761D02*
X113434762Y-79107380D01*
X113434762Y-79107380D02*
X113625238Y-79107380D01*
X113625238Y-79107380D02*
X113720476Y-79059761D01*
X113720476Y-79059761D02*
X113768095Y-79012142D01*
X113768095Y-79012142D02*
X113815714Y-78916904D01*
X113815714Y-78916904D02*
X113815714Y-78726428D01*
X113815714Y-78726428D02*
X113768095Y-78631190D01*
X113768095Y-78631190D02*
X113720476Y-78583571D01*
X113720476Y-78583571D02*
X113625238Y-78535952D01*
G04 #@! TO.C,C12*
X118737142Y-99332142D02*
X118689523Y-99379761D01*
X118689523Y-99379761D02*
X118546666Y-99427380D01*
X118546666Y-99427380D02*
X118451428Y-99427380D01*
X118451428Y-99427380D02*
X118308571Y-99379761D01*
X118308571Y-99379761D02*
X118213333Y-99284523D01*
X118213333Y-99284523D02*
X118165714Y-99189285D01*
X118165714Y-99189285D02*
X118118095Y-98998809D01*
X118118095Y-98998809D02*
X118118095Y-98855952D01*
X118118095Y-98855952D02*
X118165714Y-98665476D01*
X118165714Y-98665476D02*
X118213333Y-98570238D01*
X118213333Y-98570238D02*
X118308571Y-98475000D01*
X118308571Y-98475000D02*
X118451428Y-98427380D01*
X118451428Y-98427380D02*
X118546666Y-98427380D01*
X118546666Y-98427380D02*
X118689523Y-98475000D01*
X118689523Y-98475000D02*
X118737142Y-98522619D01*
X119689523Y-99427380D02*
X119118095Y-99427380D01*
X119403809Y-99427380D02*
X119403809Y-98427380D01*
X119403809Y-98427380D02*
X119308571Y-98570238D01*
X119308571Y-98570238D02*
X119213333Y-98665476D01*
X119213333Y-98665476D02*
X119118095Y-98713095D01*
X120070476Y-98522619D02*
X120118095Y-98475000D01*
X120118095Y-98475000D02*
X120213333Y-98427380D01*
X120213333Y-98427380D02*
X120451428Y-98427380D01*
X120451428Y-98427380D02*
X120546666Y-98475000D01*
X120546666Y-98475000D02*
X120594285Y-98522619D01*
X120594285Y-98522619D02*
X120641904Y-98617857D01*
X120641904Y-98617857D02*
X120641904Y-98713095D01*
X120641904Y-98713095D02*
X120594285Y-98855952D01*
X120594285Y-98855952D02*
X120022857Y-99427380D01*
X120022857Y-99427380D02*
X120641904Y-99427380D01*
G04 #@! TO.C,C7*
X111593333Y-89172142D02*
X111545714Y-89219761D01*
X111545714Y-89219761D02*
X111402857Y-89267380D01*
X111402857Y-89267380D02*
X111307619Y-89267380D01*
X111307619Y-89267380D02*
X111164762Y-89219761D01*
X111164762Y-89219761D02*
X111069524Y-89124523D01*
X111069524Y-89124523D02*
X111021905Y-89029285D01*
X111021905Y-89029285D02*
X110974286Y-88838809D01*
X110974286Y-88838809D02*
X110974286Y-88695952D01*
X110974286Y-88695952D02*
X111021905Y-88505476D01*
X111021905Y-88505476D02*
X111069524Y-88410238D01*
X111069524Y-88410238D02*
X111164762Y-88315000D01*
X111164762Y-88315000D02*
X111307619Y-88267380D01*
X111307619Y-88267380D02*
X111402857Y-88267380D01*
X111402857Y-88267380D02*
X111545714Y-88315000D01*
X111545714Y-88315000D02*
X111593333Y-88362619D01*
X111926667Y-88267380D02*
X112593333Y-88267380D01*
X112593333Y-88267380D02*
X112164762Y-89267380D01*
G04 #@! TO.C,J4*
X99607380Y-84563333D02*
X100321666Y-84563333D01*
X100321666Y-84563333D02*
X100464523Y-84610952D01*
X100464523Y-84610952D02*
X100559761Y-84706190D01*
X100559761Y-84706190D02*
X100607380Y-84849047D01*
X100607380Y-84849047D02*
X100607380Y-84944285D01*
X99940714Y-83658571D02*
X100607380Y-83658571D01*
X99559761Y-83896666D02*
X100274047Y-84134761D01*
X100274047Y-84134761D02*
X100274047Y-83515714D01*
G04 #@! TO.C,J5*
X119986666Y-100877380D02*
X119986666Y-101591666D01*
X119986666Y-101591666D02*
X119939047Y-101734523D01*
X119939047Y-101734523D02*
X119843809Y-101829761D01*
X119843809Y-101829761D02*
X119700952Y-101877380D01*
X119700952Y-101877380D02*
X119605714Y-101877380D01*
X120939047Y-100877380D02*
X120462857Y-100877380D01*
X120462857Y-100877380D02*
X120415238Y-101353571D01*
X120415238Y-101353571D02*
X120462857Y-101305952D01*
X120462857Y-101305952D02*
X120558095Y-101258333D01*
X120558095Y-101258333D02*
X120796190Y-101258333D01*
X120796190Y-101258333D02*
X120891428Y-101305952D01*
X120891428Y-101305952D02*
X120939047Y-101353571D01*
X120939047Y-101353571D02*
X120986666Y-101448809D01*
X120986666Y-101448809D02*
X120986666Y-101686904D01*
X120986666Y-101686904D02*
X120939047Y-101782142D01*
X120939047Y-101782142D02*
X120891428Y-101829761D01*
X120891428Y-101829761D02*
X120796190Y-101877380D01*
X120796190Y-101877380D02*
X120558095Y-101877380D01*
X120558095Y-101877380D02*
X120462857Y-101829761D01*
X120462857Y-101829761D02*
X120415238Y-101782142D01*
G04 #@! TO.C,J6*
X108990026Y-94015180D02*
X108990026Y-94729466D01*
X108990026Y-94729466D02*
X108942407Y-94872323D01*
X108942407Y-94872323D02*
X108847169Y-94967561D01*
X108847169Y-94967561D02*
X108704312Y-95015180D01*
X108704312Y-95015180D02*
X108609074Y-95015180D01*
X109894788Y-94015180D02*
X109704312Y-94015180D01*
X109704312Y-94015180D02*
X109609074Y-94062800D01*
X109609074Y-94062800D02*
X109561455Y-94110419D01*
X109561455Y-94110419D02*
X109466217Y-94253276D01*
X109466217Y-94253276D02*
X109418598Y-94443752D01*
X109418598Y-94443752D02*
X109418598Y-94824704D01*
X109418598Y-94824704D02*
X109466217Y-94919942D01*
X109466217Y-94919942D02*
X109513836Y-94967561D01*
X109513836Y-94967561D02*
X109609074Y-95015180D01*
X109609074Y-95015180D02*
X109799550Y-95015180D01*
X109799550Y-95015180D02*
X109894788Y-94967561D01*
X109894788Y-94967561D02*
X109942407Y-94919942D01*
X109942407Y-94919942D02*
X109990026Y-94824704D01*
X109990026Y-94824704D02*
X109990026Y-94586609D01*
X109990026Y-94586609D02*
X109942407Y-94491371D01*
X109942407Y-94491371D02*
X109894788Y-94443752D01*
X109894788Y-94443752D02*
X109799550Y-94396133D01*
X109799550Y-94396133D02*
X109609074Y-94396133D01*
X109609074Y-94396133D02*
X109513836Y-94443752D01*
X109513836Y-94443752D02*
X109466217Y-94491371D01*
X109466217Y-94491371D02*
X109418598Y-94586609D01*
D13*
G04 #@! TO.C,C20*
X123001000Y-66023180D02*
X121581000Y-66023180D01*
X123001000Y-66023180D02*
X123761000Y-66783180D01*
X117921000Y-66023180D02*
X119341000Y-66023180D01*
X123761000Y-66783180D02*
X123761000Y-72623180D01*
X117161000Y-66783180D02*
X117921000Y-66023180D01*
X123761000Y-72623180D02*
X121581000Y-72623180D01*
X117161000Y-72623180D02*
X117161000Y-66783180D01*
X117161000Y-72623180D02*
X119341000Y-72623180D01*
G04 #@! TO.C,C19*
X115127000Y-65972380D02*
X113707000Y-65972380D01*
X115127000Y-65972380D02*
X115887000Y-66732380D01*
X110047000Y-65972380D02*
X111467000Y-65972380D01*
X115887000Y-66732380D02*
X115887000Y-72572380D01*
X109287000Y-66732380D02*
X110047000Y-65972380D01*
X115887000Y-72572380D02*
X113707000Y-72572380D01*
X109287000Y-72572380D02*
X109287000Y-66732380D01*
X109287000Y-72572380D02*
X111467000Y-72572380D01*
D11*
G04 #@! TO.C,U1*
X127095000Y-94075000D02*
X127095000Y-93500000D01*
X127095000Y-94075000D02*
X126420000Y-94075000D01*
X127095000Y-93500000D02*
X128370000Y-93500000D01*
X127095000Y-83725000D02*
X127095000Y-84400000D01*
X127095000Y-83725000D02*
X126420000Y-83725000D01*
X116745000Y-94075000D02*
X117420000Y-94075000D01*
X116745000Y-94075000D02*
X116745000Y-93400000D01*
X116745000Y-83725000D02*
X117420000Y-83725000D01*
X116745000Y-83725000D02*
X116745000Y-84400000D01*
D13*
G04 #@! TO.C,C1*
X127900000Y-80700000D02*
X127300000Y-80700000D01*
X127900000Y-80100000D02*
X127300000Y-80100000D01*
G04 #@! TO.C,C3*
X124160000Y-98090000D02*
X124160000Y-97490000D01*
X124760000Y-98090000D02*
X124760000Y-97490000D01*
G04 #@! TO.C,C8*
X130300000Y-80900000D02*
X130300000Y-81500000D01*
X129700000Y-80900000D02*
X129700000Y-81500000D01*
G04 #@! TO.C,C16*
X131110000Y-88600000D02*
X131110000Y-89200000D01*
X130510000Y-88600000D02*
X130510000Y-89200000D01*
G04 #@! TO.C,C17*
X115870000Y-78440000D02*
X115870000Y-79040000D01*
X115270000Y-78440000D02*
X115270000Y-79040000D01*
G04 #@! TO.C,C6*
X113330000Y-94950000D02*
X113330000Y-95550000D01*
X112730000Y-94950000D02*
X112730000Y-95550000D01*
G04 #@! TO.C,J2*
X139661680Y-80493900D02*
X139661680Y-81493900D01*
X139661680Y-81493900D02*
X140661680Y-80993900D01*
X140661680Y-80993900D02*
X139661680Y-80493900D01*
X146281680Y-75783900D02*
X155401680Y-75783900D01*
X146281680Y-82753900D02*
X155401680Y-82753900D01*
X146281680Y-86853900D02*
X155401680Y-86853900D01*
X146281680Y-93823900D02*
X146281680Y-75783900D01*
X155401680Y-75783900D02*
X155401680Y-93823900D01*
X155401680Y-93823900D02*
X146281680Y-93823900D01*
G04 #@! TO.C,R5*
X110790000Y-77770000D02*
X110190000Y-77770000D01*
X110790000Y-77170000D02*
X110190000Y-77170000D01*
G04 #@! TO.C,R6*
X131780000Y-86060000D02*
X132380000Y-86060000D01*
X131780000Y-86660000D02*
X132380000Y-86660000D01*
G04 #@! TO.C,R7*
X130510000Y-84120000D02*
X130510000Y-83520000D01*
X131110000Y-84120000D02*
X131110000Y-83520000D01*
G04 #@! TO.C,R8*
X112730000Y-79710000D02*
X113330000Y-79710000D01*
X112730000Y-80310000D02*
X113330000Y-80310000D01*
G04 #@! TO.C,C12*
X119680000Y-98090000D02*
X119080000Y-98090000D01*
X119680000Y-97490000D02*
X119080000Y-97490000D01*
G04 #@! TO.C,C7*
X111460000Y-89870000D02*
X112060000Y-89870000D01*
X111460000Y-90470000D02*
X112060000Y-90470000D01*
D14*
G04 #@! TO.C,J4*
X101140000Y-90230000D02*
X101640000Y-90230000D01*
X101140000Y-90230000D02*
X101140000Y-89730000D01*
X107140000Y-90230000D02*
X106640000Y-90230000D01*
X107140000Y-90230000D02*
X107140000Y-89730000D01*
X101140000Y-77530000D02*
X101140000Y-78030000D01*
X101140000Y-77530000D02*
X101640000Y-77530000D01*
X107140000Y-77530000D02*
X107140000Y-78030000D01*
X107140000Y-77530000D02*
X106640000Y-77530000D01*
G04 #@! TO.C,J5*
X114320000Y-102410000D02*
X114320000Y-102910000D01*
X114320000Y-102410000D02*
X114820000Y-102410000D01*
X114320000Y-108410000D02*
X114320000Y-107910000D01*
X114320000Y-108410000D02*
X114820000Y-108410000D01*
X127020000Y-102410000D02*
X126520000Y-102410000D01*
X127020000Y-102410000D02*
X127020000Y-102910000D01*
X127020000Y-108410000D02*
X126520000Y-108410000D01*
X127020000Y-108410000D02*
X127020000Y-107910000D01*
G04 #@! TD*
%LPC*%
D15*
G04 #@! TO.C,C20*
X120460999Y-66623179D03*
X120460999Y-72023179D03*
G04 #@! TD*
G04 #@! TO.C,C19*
X112586999Y-66572379D03*
X112586999Y-71972379D03*
G04 #@! TD*
D16*
G04 #@! TO.C,U1*
X127969999Y-92899999D03*
X127969999Y-92099999D03*
X127969999Y-91299999D03*
X127969999Y-90499999D03*
X127969999Y-89699999D03*
X127969999Y-88899999D03*
X127969999Y-88099999D03*
X127969999Y-87299999D03*
X127969999Y-86499999D03*
X127969999Y-85699999D03*
X127969999Y-84899999D03*
D17*
X125919999Y-82849999D03*
X125119999Y-82849999D03*
X124319999Y-82849999D03*
X123519999Y-82849999D03*
X122719999Y-82849999D03*
X121919999Y-82849999D03*
X121119999Y-82849999D03*
X120319999Y-82849999D03*
X119519999Y-82849999D03*
X118719999Y-82849999D03*
X117919999Y-82849999D03*
D16*
X115869999Y-84899999D03*
X115869999Y-85699999D03*
X115869999Y-86499999D03*
X115869999Y-87299999D03*
X115869999Y-88099999D03*
X115869999Y-88899999D03*
X115869999Y-89699999D03*
X115869999Y-90499999D03*
X115869999Y-91299999D03*
X115869999Y-92099999D03*
X115869999Y-92899999D03*
D17*
X117919999Y-94949999D03*
X118719999Y-94949999D03*
X119519999Y-94949999D03*
X120319999Y-94949999D03*
X121119999Y-94949999D03*
X121919999Y-94949999D03*
X122719999Y-94949999D03*
X123519999Y-94949999D03*
X124319999Y-94949999D03*
X125119999Y-94949999D03*
X125919999Y-94949999D03*
G04 #@! TD*
D18*
G04 #@! TO.C,J3*
X125011679Y-72993899D03*
D19*
X127551680Y-72993900D03*
X125011680Y-75533900D03*
X127551680Y-75533900D03*
X125011680Y-78073900D03*
X127551680Y-78073900D03*
G04 #@! TD*
D20*
G04 #@! TO.C,C1*
X128299999Y-80399999D03*
X126899999Y-80399999D03*
G04 #@! TD*
D21*
G04 #@! TO.C,C3*
X124459999Y-98489999D03*
X124459999Y-97089999D03*
G04 #@! TD*
G04 #@! TO.C,C8*
X129999999Y-80499999D03*
X129999999Y-81899999D03*
G04 #@! TD*
G04 #@! TO.C,C16*
X130809999Y-88199999D03*
X130809999Y-89599999D03*
G04 #@! TD*
G04 #@! TO.C,C17*
X115569999Y-78039999D03*
X115569999Y-79439999D03*
G04 #@! TD*
G04 #@! TO.C,C6*
X113029999Y-94549999D03*
X113029999Y-95949999D03*
G04 #@! TD*
D22*
G04 #@! TO.C,J2*
X142011680Y-80993900D03*
D23*
X144551680Y-80993900D03*
X142011680Y-83533900D03*
X144551680Y-83533900D03*
X142011680Y-86073900D03*
X144551680Y-86073900D03*
X142011680Y-88613900D03*
X144551680Y-88613900D03*
G04 #@! TD*
D20*
G04 #@! TO.C,R5*
X111189999Y-77469999D03*
X109789999Y-77469999D03*
G04 #@! TD*
G04 #@! TO.C,R6*
X131379999Y-86359999D03*
X132779999Y-86359999D03*
G04 #@! TD*
D21*
G04 #@! TO.C,R7*
X130809999Y-84519999D03*
X130809999Y-83119999D03*
G04 #@! TD*
D20*
G04 #@! TO.C,R8*
X112329999Y-80009999D03*
X113729999Y-80009999D03*
G04 #@! TD*
G04 #@! TO.C,C12*
X120079999Y-97789999D03*
X118679999Y-97789999D03*
G04 #@! TD*
G04 #@! TO.C,C7*
X111059999Y-90169999D03*
X112459999Y-90169999D03*
G04 #@! TD*
D24*
G04 #@! TO.C,J4*
X104140000Y-87630000D03*
X104140000Y-85130000D03*
X104140000Y-82630000D03*
X104140000Y-80130000D03*
G04 #@! TD*
G04 #@! TO.C,J5*
X116920000Y-105410000D03*
X119420000Y-105410000D03*
X121920000Y-105410000D03*
X124420000Y-105410000D03*
G04 #@! TD*
D18*
G04 #@! TO.C,J6*
X102011679Y-95993899D03*
D19*
X102011680Y-93453900D03*
X104551680Y-95993900D03*
X104551680Y-93453900D03*
X107091680Y-95993900D03*
X107091680Y-93453900D03*
G04 #@! TD*
M02*
