G04 #@! TF.GenerationSoftware,KiCad,Pcbnew,(7.0.0-0)*
G04 #@! TF.CreationDate,2023-04-13T10:18:22+02:00*
G04 #@! TF.ProjectId,klepcontroller,6b6c6570-636f-46e7-9472-6f6c6c65722e,1.12*
G04 #@! TF.SameCoordinates,PX9868e0PY98ae54*
G04 #@! TF.FileFunction,Copper,L2,Bot*
G04 #@! TF.FilePolarity,Positive*
%FSLAX46Y46*%
G04 Gerber Fmt 4.6, Leading zero omitted, Abs format (unit mm)*
G04 Created by KiCad (PCBNEW (7.0.0-0)) date 2023-04-13 10:18:22*
%MOMM*%
%LPD*%
G01*
G04 APERTURE LIST*
G04 Aperture macros list*
%AMRoundRect*
0 Rectangle with rounded corners*
0 $1 Rounding radius*
0 $2 $3 $4 $5 $6 $7 $8 $9 X,Y pos of 4 corners*
0 Add a 4 corners polygon primitive as box body*
4,1,4,$2,$3,$4,$5,$6,$7,$8,$9,$2,$3,0*
0 Add four circle primitives for the rounded corners*
1,1,$1+$1,$2,$3*
1,1,$1+$1,$4,$5*
1,1,$1+$1,$6,$7*
1,1,$1+$1,$8,$9*
0 Add four rect primitives between the rounded corners*
20,1,$1+$1,$2,$3,$4,$5,0*
20,1,$1+$1,$4,$5,$6,$7,0*
20,1,$1+$1,$6,$7,$8,$9,0*
20,1,$1+$1,$8,$9,$2,$3,0*%
G04 Aperture macros list end*
G04 #@! TA.AperFunction,ComponentPad*
%ADD10R,1.524000X1.524000*%
G04 #@! TD*
G04 #@! TA.AperFunction,ComponentPad*
%ADD11C,1.524000*%
G04 #@! TD*
G04 #@! TA.AperFunction,ComponentPad*
%ADD12RoundRect,0.250000X-0.600000X-0.600000X0.600000X-0.600000X0.600000X0.600000X-0.600000X0.600000X0*%
G04 #@! TD*
G04 #@! TA.AperFunction,ComponentPad*
%ADD13C,1.700000*%
G04 #@! TD*
G04 #@! TA.AperFunction,ComponentPad*
%ADD14C,2.100000*%
G04 #@! TD*
G04 #@! TA.AperFunction,ViaPad*
%ADD15C,0.600000*%
G04 #@! TD*
G04 #@! TA.AperFunction,Conductor*
%ADD16C,0.150000*%
G04 #@! TD*
G04 #@! TA.AperFunction,Conductor*
%ADD17C,0.800000*%
G04 #@! TD*
G04 #@! TA.AperFunction,Conductor*
%ADD18C,0.300000*%
G04 #@! TD*
G04 APERTURE END LIST*
D10*
G04 #@! TO.P,J3,1*
G04 #@! TO.N,SDO*
X125011679Y-72993899D03*
D11*
G04 #@! TO.P,J3,2*
G04 #@! TO.N,5V*
X127551680Y-72993900D03*
G04 #@! TO.P,J3,3*
G04 #@! TO.N,SCK*
X125011680Y-75533900D03*
G04 #@! TO.P,J3,4*
G04 #@! TO.N,SDI*
X127551680Y-75533900D03*
G04 #@! TO.P,J3,5*
G04 #@! TO.N,unconnected-(J3-Pad5)*
X125011680Y-78073900D03*
G04 #@! TO.P,J3,6*
G04 #@! TO.N,GND*
X127551680Y-78073900D03*
G04 #@! TD*
D12*
G04 #@! TO.P,J2,1,Pin_1*
G04 #@! TO.N,+24V*
X142011680Y-80993900D03*
D13*
G04 #@! TO.P,J2,2,Pin_2*
G04 #@! TO.N,ENABLE*
X144551680Y-80993900D03*
G04 #@! TO.P,J2,3,Pin_3*
G04 #@! TO.N,GND*
X142011680Y-83533900D03*
G04 #@! TO.P,J2,4,Pin_4*
G04 #@! TO.N,DIRECTION*
X144551680Y-83533900D03*
G04 #@! TO.P,J2,5,Pin_5*
G04 #@! TO.N,GND*
X142011680Y-86073900D03*
G04 #@! TO.P,J2,6,Pin_6*
G04 #@! TO.N,STEP*
X144551680Y-86073900D03*
G04 #@! TO.P,J2,7,Pin_7*
G04 #@! TO.N,+3V3*
X142011680Y-88613900D03*
G04 #@! TO.P,J2,8,Pin_8*
G04 #@! TO.N,CS*
X144551680Y-88613900D03*
G04 #@! TD*
D14*
G04 #@! TO.P,J4,1*
G04 #@! TO.N,B1*
X104140000Y-87630000D03*
G04 #@! TO.P,J4,2*
G04 #@! TO.N,A1*
X104140000Y-85130000D03*
G04 #@! TO.P,J4,3*
G04 #@! TO.N,A2*
X104140000Y-82630000D03*
G04 #@! TO.P,J4,4*
G04 #@! TO.N,B2*
X104140000Y-80130000D03*
G04 #@! TD*
G04 #@! TO.P,J5,1*
G04 #@! TO.N,B2*
X116920000Y-105410000D03*
G04 #@! TO.P,J5,2*
G04 #@! TO.N,A2*
X119420000Y-105410000D03*
G04 #@! TO.P,J5,3*
G04 #@! TO.N,A1*
X121920000Y-105410000D03*
G04 #@! TO.P,J5,4*
G04 #@! TO.N,B1*
X124420000Y-105410000D03*
G04 #@! TD*
D10*
G04 #@! TO.P,J6,1,Pin_1*
G04 #@! TO.N,GND*
X102011679Y-95993899D03*
D11*
G04 #@! TO.P,J6,2,Pin_2*
G04 #@! TO.N,+24V*
X102011680Y-93453900D03*
G04 #@! TO.P,J6,3,Pin_3*
G04 #@! TO.N,GND*
X104551680Y-95993900D03*
G04 #@! TO.P,J6,4,Pin_4*
G04 #@! TO.N,+24V*
X104551680Y-93453900D03*
G04 #@! TO.P,J6,5,Pin_5*
G04 #@! TO.N,GND*
X107091680Y-95993900D03*
G04 #@! TO.P,J6,6,Pin_6*
G04 #@! TO.N,+24V*
X107091680Y-93453900D03*
G04 #@! TD*
D15*
G04 #@! TO.N,GND*
X116000000Y-96800000D03*
X118000000Y-101400000D03*
X113030000Y-92710000D03*
X110032800Y-79914780D03*
X137000000Y-92600000D03*
X109220000Y-90170000D03*
X100000000Y-68200000D03*
X120461000Y-74682580D03*
X120000000Y-85090000D03*
X111800000Y-83600000D03*
X113400000Y-85800000D03*
X142600000Y-78200000D03*
X124200000Y-87600000D03*
X112532800Y-74814780D03*
X119000000Y-89800000D03*
X136200000Y-88000000D03*
X116200000Y-81400000D03*
X134600000Y-100000000D03*
G04 #@! TO.N,ENABLE*
X122800000Y-85614500D03*
G04 #@! TO.N,Net-(U1-BRB)*
X114200000Y-83600000D03*
X112400000Y-81200000D03*
G04 #@! TO.N,Net-(U1-BRA)*
X128130000Y-86500000D03*
X130200000Y-86500000D03*
G04 #@! TO.N,CS*
X124460000Y-85090000D03*
G04 #@! TO.N,B1*
X116920001Y-95169999D03*
X121600000Y-98200000D03*
G04 #@! TO.N,A2*
X121200000Y-87000000D03*
G04 #@! TD*
D16*
G04 #@! TO.N,ENABLE*
X143745580Y-82300000D02*
X144551680Y-81493900D01*
X126114500Y-82300000D02*
X143745580Y-82300000D01*
X122800000Y-85614500D02*
X126114500Y-82300000D01*
G04 #@! TO.N,Net-(U1-BRB)*
X112400000Y-81920000D02*
X114080000Y-83600000D01*
X112400000Y-81200000D02*
X112400000Y-81920000D01*
X114080000Y-83600000D02*
X114200000Y-83600000D01*
G04 #@! TO.N,Net-(U1-BRA)*
X128130000Y-86500000D02*
X130200000Y-86500000D01*
G04 #@! TO.N,CS*
X142837780Y-87400000D02*
X144551680Y-89113900D01*
X137160000Y-85090000D02*
X139470000Y-87400000D01*
X124460000Y-85090000D02*
X137160000Y-85090000D01*
X139470000Y-87400000D02*
X142837780Y-87400000D01*
D17*
G04 #@! TO.N,B1*
X118598041Y-95169999D02*
X121569021Y-98140979D01*
X104140000Y-87630000D02*
X111679999Y-95169999D01*
X111679999Y-95169999D02*
X116920001Y-95169999D01*
X116920001Y-95169999D02*
X118598041Y-95169999D01*
G04 #@! TO.N,A1*
X121920000Y-105410000D02*
X122969999Y-104360001D01*
X122969999Y-98181995D02*
X113688004Y-88900000D01*
X107910000Y-88900000D02*
X104140000Y-85130000D01*
X122969999Y-104360001D02*
X122969999Y-98181995D01*
X113688004Y-88900000D02*
X107910000Y-88900000D01*
D18*
G04 #@! TO.N,A2*
X120883711Y-86683711D02*
X109543711Y-86683711D01*
X121200000Y-87000000D02*
X121200000Y-91909998D01*
D17*
X104140000Y-82630000D02*
X108193711Y-86683711D01*
D18*
X121200000Y-91909998D02*
X125770001Y-96479999D01*
D17*
X121020001Y-107010001D02*
X125188001Y-107010001D01*
X119420000Y-105410000D02*
X121020001Y-107010001D01*
X126020001Y-106178001D02*
X126020001Y-96729999D01*
D18*
X121200000Y-87000000D02*
X120883711Y-86683711D01*
D17*
X126020001Y-96729999D02*
X125770001Y-96479999D01*
X125188001Y-107010001D02*
X126020001Y-106178001D01*
D18*
X125770001Y-96479999D02*
X125770001Y-106058001D01*
D17*
X108193711Y-86683711D02*
X109543711Y-86683711D01*
G04 #@! TO.N,B2*
X100699680Y-90132369D02*
X100699680Y-97099680D01*
X100699680Y-97099680D02*
X109010000Y-105410000D01*
X102539999Y-88292050D02*
X100699680Y-90132369D01*
X102539999Y-81730001D02*
X102539999Y-88292050D01*
X109010000Y-105410000D02*
X116920000Y-105410000D01*
X104140000Y-80130000D02*
X102539999Y-81730001D01*
G04 #@! TD*
G04 #@! TA.AperFunction,Conductor*
G04 #@! TO.N,GND*
G36*
X103207669Y-88482677D02*
G01*
X103248934Y-88507409D01*
X103333123Y-88591598D01*
X103336661Y-88594075D01*
X103336663Y-88594077D01*
X103371890Y-88618743D01*
X103512361Y-88717102D01*
X103516283Y-88718930D01*
X103516285Y-88718932D01*
X103571118Y-88744501D01*
X103710670Y-88809575D01*
X103922023Y-88866207D01*
X104140000Y-88885277D01*
X104357977Y-88866207D01*
X104436047Y-88845287D01*
X104487294Y-88845287D01*
X104531675Y-88870910D01*
X111222963Y-95562198D01*
X111231501Y-95571935D01*
X111251717Y-95598281D01*
X111292992Y-95629952D01*
X111377158Y-95694535D01*
X111523237Y-95755043D01*
X111679999Y-95775681D01*
X111712926Y-95771345D01*
X111725848Y-95770499D01*
X116880640Y-95770499D01*
X116959362Y-95770499D01*
X118308298Y-95770499D01*
X118346184Y-95778035D01*
X118378302Y-95799495D01*
X121172236Y-98593429D01*
X121266180Y-98665515D01*
X121412259Y-98726023D01*
X121569021Y-98746661D01*
X121725783Y-98726023D01*
X121871862Y-98665515D01*
X121997303Y-98569261D01*
X122093557Y-98443820D01*
X122121512Y-98376329D01*
X122150171Y-98337687D01*
X122193662Y-98317117D01*
X122241714Y-98319478D01*
X122282980Y-98344211D01*
X122340503Y-98401734D01*
X122361963Y-98433852D01*
X122369499Y-98471738D01*
X122369499Y-104070259D01*
X122361962Y-104108146D01*
X122340500Y-104140265D01*
X122311673Y-104169090D01*
X122267294Y-104194711D01*
X122216050Y-104194711D01*
X122142157Y-104174912D01*
X122142146Y-104174910D01*
X122137977Y-104173793D01*
X122133673Y-104173416D01*
X122133665Y-104173415D01*
X121924309Y-104155100D01*
X121920000Y-104154723D01*
X121915691Y-104155100D01*
X121706334Y-104173415D01*
X121706324Y-104173416D01*
X121702023Y-104173793D01*
X121697848Y-104174911D01*
X121697846Y-104174912D01*
X121494843Y-104229306D01*
X121494834Y-104229309D01*
X121490670Y-104230425D01*
X121486759Y-104232248D01*
X121486750Y-104232252D01*
X121296286Y-104321067D01*
X121296275Y-104321073D01*
X121292362Y-104322898D01*
X121288823Y-104325375D01*
X121288816Y-104325380D01*
X121116663Y-104445922D01*
X121116653Y-104445929D01*
X121113123Y-104448402D01*
X121110075Y-104451449D01*
X121110069Y-104451455D01*
X120961455Y-104600069D01*
X120961449Y-104600075D01*
X120958402Y-104603123D01*
X120955929Y-104606653D01*
X120955922Y-104606663D01*
X120835380Y-104778816D01*
X120835375Y-104778823D01*
X120832898Y-104782362D01*
X120831073Y-104786275D01*
X120831067Y-104786286D01*
X120759724Y-104939283D01*
X120723193Y-104980940D01*
X120670000Y-104996444D01*
X120616807Y-104980940D01*
X120580276Y-104939283D01*
X120508932Y-104786286D01*
X120508930Y-104786284D01*
X120507102Y-104782362D01*
X120381598Y-104603123D01*
X120226877Y-104448402D01*
X120223340Y-104445925D01*
X120223336Y-104445922D01*
X120051184Y-104325380D01*
X120051182Y-104325378D01*
X120047639Y-104322898D01*
X120043720Y-104321070D01*
X120043714Y-104321067D01*
X119853249Y-104232252D01*
X119853244Y-104232250D01*
X119849330Y-104230425D01*
X119845162Y-104229308D01*
X119845156Y-104229306D01*
X119642153Y-104174912D01*
X119637977Y-104173793D01*
X119633673Y-104173416D01*
X119633665Y-104173415D01*
X119424309Y-104155100D01*
X119420000Y-104154723D01*
X119415691Y-104155100D01*
X119206334Y-104173415D01*
X119206324Y-104173416D01*
X119202023Y-104173793D01*
X119197848Y-104174911D01*
X119197846Y-104174912D01*
X118994843Y-104229306D01*
X118994834Y-104229309D01*
X118990670Y-104230425D01*
X118986759Y-104232248D01*
X118986750Y-104232252D01*
X118796286Y-104321067D01*
X118796275Y-104321073D01*
X118792362Y-104322898D01*
X118788823Y-104325375D01*
X118788816Y-104325380D01*
X118616663Y-104445922D01*
X118616653Y-104445929D01*
X118613123Y-104448402D01*
X118610075Y-104451449D01*
X118610069Y-104451455D01*
X118461455Y-104600069D01*
X118461449Y-104600075D01*
X118458402Y-104603123D01*
X118455929Y-104606653D01*
X118455922Y-104606663D01*
X118335380Y-104778816D01*
X118335375Y-104778823D01*
X118332898Y-104782362D01*
X118331073Y-104786275D01*
X118331067Y-104786286D01*
X118259724Y-104939283D01*
X118223193Y-104980940D01*
X118170000Y-104996444D01*
X118116807Y-104980940D01*
X118080276Y-104939283D01*
X118008932Y-104786286D01*
X118008930Y-104786284D01*
X118007102Y-104782362D01*
X117881598Y-104603123D01*
X117726877Y-104448402D01*
X117723340Y-104445925D01*
X117723336Y-104445922D01*
X117551184Y-104325380D01*
X117551182Y-104325378D01*
X117547639Y-104322898D01*
X117543720Y-104321070D01*
X117543714Y-104321067D01*
X117353249Y-104232252D01*
X117353244Y-104232250D01*
X117349330Y-104230425D01*
X117345162Y-104229308D01*
X117345156Y-104229306D01*
X117142153Y-104174912D01*
X117137977Y-104173793D01*
X117133673Y-104173416D01*
X117133665Y-104173415D01*
X116924309Y-104155100D01*
X116920000Y-104154723D01*
X116915691Y-104155100D01*
X116706334Y-104173415D01*
X116706324Y-104173416D01*
X116702023Y-104173793D01*
X116697848Y-104174911D01*
X116697846Y-104174912D01*
X116494843Y-104229306D01*
X116494834Y-104229309D01*
X116490670Y-104230425D01*
X116486759Y-104232248D01*
X116486750Y-104232252D01*
X116296286Y-104321067D01*
X116296275Y-104321073D01*
X116292362Y-104322898D01*
X116288823Y-104325375D01*
X116288816Y-104325380D01*
X116116663Y-104445922D01*
X116116653Y-104445929D01*
X116113123Y-104448402D01*
X116110075Y-104451449D01*
X116110069Y-104451455D01*
X115961455Y-104600069D01*
X115961449Y-104600075D01*
X115958402Y-104603123D01*
X115955929Y-104606653D01*
X115955922Y-104606663D01*
X115843456Y-104767284D01*
X115808073Y-104798314D01*
X115762360Y-104809500D01*
X109299743Y-104809500D01*
X109261857Y-104801964D01*
X109229739Y-104780504D01*
X101624139Y-97174904D01*
X101597045Y-97124214D01*
X101602679Y-97067014D01*
X101639142Y-97022585D01*
X101694143Y-97005900D01*
X101873647Y-97005900D01*
X101883925Y-97003145D01*
X101886680Y-96992867D01*
X102136680Y-96992867D01*
X102139434Y-97003145D01*
X102149713Y-97005900D01*
X102793446Y-97005900D01*
X102803067Y-97004952D01*
X102861662Y-96993297D01*
X102879331Y-96985978D01*
X102945810Y-96941558D01*
X102959338Y-96928030D01*
X103003758Y-96861551D01*
X103011077Y-96843882D01*
X103021314Y-96792416D01*
X103934194Y-96792416D01*
X103940431Y-96801428D01*
X103982959Y-96836330D01*
X103991015Y-96841713D01*
X104158237Y-96931095D01*
X104167186Y-96934802D01*
X104348638Y-96989845D01*
X104358135Y-96991734D01*
X104546837Y-97010320D01*
X104556523Y-97010320D01*
X104745224Y-96991734D01*
X104754721Y-96989845D01*
X104936173Y-96934802D01*
X104945122Y-96931095D01*
X105112344Y-96841713D01*
X105120400Y-96836331D01*
X105162926Y-96801429D01*
X105169164Y-96792416D01*
X106474194Y-96792416D01*
X106480431Y-96801428D01*
X106522959Y-96836330D01*
X106531015Y-96841713D01*
X106698237Y-96931095D01*
X106707186Y-96934802D01*
X106888638Y-96989845D01*
X106898135Y-96991734D01*
X107086837Y-97010320D01*
X107096523Y-97010320D01*
X107285224Y-96991734D01*
X107294721Y-96989845D01*
X107476173Y-96934802D01*
X107485122Y-96931095D01*
X107652344Y-96841713D01*
X107660400Y-96836331D01*
X107702926Y-96801429D01*
X107709164Y-96792416D01*
X107703842Y-96782839D01*
X107100894Y-96179891D01*
X107091680Y-96174571D01*
X107082465Y-96179891D01*
X106479516Y-96782839D01*
X106474194Y-96792416D01*
X105169164Y-96792416D01*
X105163842Y-96782839D01*
X104560894Y-96179891D01*
X104551680Y-96174571D01*
X104542465Y-96179891D01*
X103939516Y-96782839D01*
X103934194Y-96792416D01*
X103021314Y-96792416D01*
X103022732Y-96785287D01*
X103023680Y-96775666D01*
X103023680Y-96131933D01*
X103020925Y-96121654D01*
X103010647Y-96118900D01*
X102149713Y-96118900D01*
X102139434Y-96121654D01*
X102136680Y-96131933D01*
X102136680Y-96992867D01*
X101886680Y-96992867D01*
X101886680Y-95998743D01*
X103535260Y-95998743D01*
X103553845Y-96187444D01*
X103555734Y-96196941D01*
X103610777Y-96378393D01*
X103614484Y-96387342D01*
X103703869Y-96554570D01*
X103709244Y-96562614D01*
X103744150Y-96605147D01*
X103753162Y-96611384D01*
X103762739Y-96606062D01*
X104365688Y-96003114D01*
X104371008Y-95993899D01*
X104732351Y-95993899D01*
X104737671Y-96003114D01*
X105340619Y-96606062D01*
X105350196Y-96611384D01*
X105359209Y-96605146D01*
X105394111Y-96562620D01*
X105399493Y-96554564D01*
X105488875Y-96387342D01*
X105492582Y-96378393D01*
X105547625Y-96196941D01*
X105549514Y-96187444D01*
X105568100Y-95998743D01*
X106075260Y-95998743D01*
X106093845Y-96187444D01*
X106095734Y-96196941D01*
X106150777Y-96378393D01*
X106154484Y-96387342D01*
X106243869Y-96554570D01*
X106249244Y-96562614D01*
X106284150Y-96605147D01*
X106293162Y-96611384D01*
X106302739Y-96606062D01*
X106905688Y-96003114D01*
X106911008Y-95993899D01*
X107272351Y-95993899D01*
X107277671Y-96003114D01*
X107880619Y-96606062D01*
X107890196Y-96611384D01*
X107899209Y-96605146D01*
X107934111Y-96562620D01*
X107939493Y-96554564D01*
X108028875Y-96387342D01*
X108032582Y-96378393D01*
X108087625Y-96196941D01*
X108089514Y-96187444D01*
X108108100Y-95998743D01*
X108108100Y-95989057D01*
X108089514Y-95800355D01*
X108087625Y-95790858D01*
X108032582Y-95609406D01*
X108028875Y-95600457D01*
X107939493Y-95433235D01*
X107934110Y-95425179D01*
X107899208Y-95382651D01*
X107890196Y-95376414D01*
X107880619Y-95381736D01*
X107277671Y-95984685D01*
X107272351Y-95993899D01*
X106911008Y-95993899D01*
X106905688Y-95984685D01*
X106302740Y-95381737D01*
X106293161Y-95376414D01*
X106284151Y-95382650D01*
X106249244Y-95425184D01*
X106243869Y-95433229D01*
X106154484Y-95600457D01*
X106150777Y-95609406D01*
X106095734Y-95790858D01*
X106093845Y-95800355D01*
X106075260Y-95989057D01*
X106075260Y-95998743D01*
X105568100Y-95998743D01*
X105568100Y-95989057D01*
X105549514Y-95800355D01*
X105547625Y-95790858D01*
X105492582Y-95609406D01*
X105488875Y-95600457D01*
X105399493Y-95433235D01*
X105394110Y-95425179D01*
X105359208Y-95382651D01*
X105350196Y-95376414D01*
X105340619Y-95381736D01*
X104737671Y-95984685D01*
X104732351Y-95993899D01*
X104371008Y-95993899D01*
X104365688Y-95984685D01*
X103762740Y-95381737D01*
X103753161Y-95376414D01*
X103744151Y-95382650D01*
X103709244Y-95425184D01*
X103703869Y-95433229D01*
X103614484Y-95600457D01*
X103610777Y-95609406D01*
X103555734Y-95790858D01*
X103553845Y-95800355D01*
X103535260Y-95989057D01*
X103535260Y-95998743D01*
X101886680Y-95998743D01*
X101886680Y-95855867D01*
X102136680Y-95855867D01*
X102139434Y-95866145D01*
X102149713Y-95868900D01*
X103010647Y-95868900D01*
X103020925Y-95866145D01*
X103023680Y-95855867D01*
X103023680Y-95212134D01*
X103022732Y-95202512D01*
X103021314Y-95195381D01*
X103934194Y-95195381D01*
X103939517Y-95204960D01*
X104542465Y-95807908D01*
X104551680Y-95813228D01*
X104560894Y-95807908D01*
X105163842Y-95204959D01*
X105169164Y-95195382D01*
X105169163Y-95195381D01*
X106474194Y-95195381D01*
X106479517Y-95204960D01*
X107082465Y-95807908D01*
X107091680Y-95813228D01*
X107100894Y-95807908D01*
X107703842Y-95204959D01*
X107709164Y-95195382D01*
X107702927Y-95186370D01*
X107660394Y-95151464D01*
X107652350Y-95146089D01*
X107485122Y-95056704D01*
X107476173Y-95052997D01*
X107294721Y-94997954D01*
X107285224Y-94996065D01*
X107096523Y-94977480D01*
X107086837Y-94977480D01*
X106898135Y-94996065D01*
X106888638Y-94997954D01*
X106707186Y-95052997D01*
X106698237Y-95056704D01*
X106531009Y-95146089D01*
X106522964Y-95151464D01*
X106480430Y-95186371D01*
X106474194Y-95195381D01*
X105169163Y-95195381D01*
X105162927Y-95186370D01*
X105120394Y-95151464D01*
X105112350Y-95146089D01*
X104945122Y-95056704D01*
X104936173Y-95052997D01*
X104754721Y-94997954D01*
X104745224Y-94996065D01*
X104556523Y-94977480D01*
X104546837Y-94977480D01*
X104358135Y-94996065D01*
X104348638Y-94997954D01*
X104167186Y-95052997D01*
X104158237Y-95056704D01*
X103991009Y-95146089D01*
X103982964Y-95151464D01*
X103940430Y-95186371D01*
X103934194Y-95195381D01*
X103021314Y-95195381D01*
X103011077Y-95143917D01*
X103003758Y-95126248D01*
X102959338Y-95059769D01*
X102945810Y-95046241D01*
X102879331Y-95001821D01*
X102861662Y-94994502D01*
X102803067Y-94982847D01*
X102793446Y-94981900D01*
X102149713Y-94981900D01*
X102139434Y-94984654D01*
X102136680Y-94994933D01*
X102136680Y-95855867D01*
X101886680Y-95855867D01*
X101886680Y-94994933D01*
X101883925Y-94984654D01*
X101873647Y-94981900D01*
X101399180Y-94981900D01*
X101349680Y-94968637D01*
X101313443Y-94932400D01*
X101300180Y-94882900D01*
X101300180Y-94324437D01*
X101315540Y-94271472D01*
X101356853Y-94234942D01*
X101411300Y-94226182D01*
X101461985Y-94247909D01*
X101474356Y-94258062D01*
X101641565Y-94347437D01*
X101822997Y-94402473D01*
X102011680Y-94421057D01*
X102200363Y-94402473D01*
X102381795Y-94347437D01*
X102549004Y-94258062D01*
X102695563Y-94137783D01*
X102815842Y-93991224D01*
X102905217Y-93824015D01*
X102960253Y-93642583D01*
X102978837Y-93453900D01*
X103584523Y-93453900D01*
X103603107Y-93642583D01*
X103658143Y-93824015D01*
X103747518Y-93991224D01*
X103867797Y-94137783D01*
X104014356Y-94258062D01*
X104181565Y-94347437D01*
X104362997Y-94402473D01*
X104551680Y-94421057D01*
X104740363Y-94402473D01*
X104921795Y-94347437D01*
X105089004Y-94258062D01*
X105235563Y-94137783D01*
X105355842Y-93991224D01*
X105445217Y-93824015D01*
X105500253Y-93642583D01*
X105518837Y-93453900D01*
X106124523Y-93453900D01*
X106143107Y-93642583D01*
X106198143Y-93824015D01*
X106287518Y-93991224D01*
X106407797Y-94137783D01*
X106554356Y-94258062D01*
X106721565Y-94347437D01*
X106902997Y-94402473D01*
X107091680Y-94421057D01*
X107280363Y-94402473D01*
X107461795Y-94347437D01*
X107629004Y-94258062D01*
X107775563Y-94137783D01*
X107895842Y-93991224D01*
X107985217Y-93824015D01*
X108040253Y-93642583D01*
X108058837Y-93453900D01*
X108040253Y-93265217D01*
X107985217Y-93083785D01*
X107895842Y-92916576D01*
X107775563Y-92770017D01*
X107629004Y-92649738D01*
X107461795Y-92560363D01*
X107457141Y-92558951D01*
X107457138Y-92558950D01*
X107285019Y-92506739D01*
X107285015Y-92506738D01*
X107280363Y-92505327D01*
X107091680Y-92486743D01*
X107086837Y-92487220D01*
X106907839Y-92504850D01*
X106907838Y-92504850D01*
X106902997Y-92505327D01*
X106898346Y-92506737D01*
X106898340Y-92506739D01*
X106726221Y-92558950D01*
X106726215Y-92558952D01*
X106721565Y-92560363D01*
X106717277Y-92562654D01*
X106717272Y-92562657D01*
X106558643Y-92647446D01*
X106558638Y-92647448D01*
X106554356Y-92649738D01*
X106550601Y-92652819D01*
X106550599Y-92652821D01*
X106411561Y-92766927D01*
X106411555Y-92766932D01*
X106407797Y-92770017D01*
X106404712Y-92773775D01*
X106404707Y-92773781D01*
X106290601Y-92912819D01*
X106287518Y-92916576D01*
X106285228Y-92920858D01*
X106285226Y-92920863D01*
X106200437Y-93079492D01*
X106200434Y-93079497D01*
X106198143Y-93083785D01*
X106196732Y-93088435D01*
X106196730Y-93088441D01*
X106144519Y-93260560D01*
X106144517Y-93260566D01*
X106143107Y-93265217D01*
X106124523Y-93453900D01*
X105518837Y-93453900D01*
X105500253Y-93265217D01*
X105445217Y-93083785D01*
X105355842Y-92916576D01*
X105235563Y-92770017D01*
X105089004Y-92649738D01*
X104921795Y-92560363D01*
X104917141Y-92558951D01*
X104917138Y-92558950D01*
X104745019Y-92506739D01*
X104745015Y-92506738D01*
X104740363Y-92505327D01*
X104551680Y-92486743D01*
X104546837Y-92487220D01*
X104367839Y-92504850D01*
X104367838Y-92504850D01*
X104362997Y-92505327D01*
X104358346Y-92506737D01*
X104358340Y-92506739D01*
X104186221Y-92558950D01*
X104186215Y-92558952D01*
X104181565Y-92560363D01*
X104177277Y-92562654D01*
X104177272Y-92562657D01*
X104018643Y-92647446D01*
X104018638Y-92647448D01*
X104014356Y-92649738D01*
X104010601Y-92652819D01*
X104010599Y-92652821D01*
X103871561Y-92766927D01*
X103871555Y-92766932D01*
X103867797Y-92770017D01*
X103864712Y-92773775D01*
X103864707Y-92773781D01*
X103750601Y-92912819D01*
X103747518Y-92916576D01*
X103745228Y-92920858D01*
X103745226Y-92920863D01*
X103660437Y-93079492D01*
X103660434Y-93079497D01*
X103658143Y-93083785D01*
X103656732Y-93088435D01*
X103656730Y-93088441D01*
X103604519Y-93260560D01*
X103604517Y-93260566D01*
X103603107Y-93265217D01*
X103584523Y-93453900D01*
X102978837Y-93453900D01*
X102960253Y-93265217D01*
X102905217Y-93083785D01*
X102815842Y-92916576D01*
X102695563Y-92770017D01*
X102549004Y-92649738D01*
X102381795Y-92560363D01*
X102377141Y-92558951D01*
X102377138Y-92558950D01*
X102205019Y-92506739D01*
X102205015Y-92506738D01*
X102200363Y-92505327D01*
X102011680Y-92486743D01*
X102006837Y-92487220D01*
X101827839Y-92504850D01*
X101827838Y-92504850D01*
X101822997Y-92505327D01*
X101818346Y-92506737D01*
X101818340Y-92506739D01*
X101646221Y-92558950D01*
X101646215Y-92558952D01*
X101641565Y-92560363D01*
X101637277Y-92562654D01*
X101637272Y-92562657D01*
X101478643Y-92647446D01*
X101478638Y-92647448D01*
X101474356Y-92649738D01*
X101470605Y-92652816D01*
X101470598Y-92652821D01*
X101461986Y-92659890D01*
X101411300Y-92681618D01*
X101356853Y-92672858D01*
X101315540Y-92636328D01*
X101300180Y-92583363D01*
X101300180Y-90422112D01*
X101307716Y-90384226D01*
X101329176Y-90352108D01*
X101711675Y-89969609D01*
X102932204Y-88749078D01*
X102941923Y-88740555D01*
X102968281Y-88720332D01*
X103064535Y-88594891D01*
X103087467Y-88539527D01*
X103116126Y-88500886D01*
X103159617Y-88480316D01*
X103207669Y-88482677D01*
G37*
G04 #@! TD.AperFunction*
G04 #@! TA.AperFunction,Conductor*
G36*
X105549692Y-84888927D02*
G01*
X107736675Y-87075910D01*
X107745213Y-87085647D01*
X107752776Y-87095504D01*
X107765429Y-87111993D01*
X107802561Y-87140485D01*
X107890870Y-87208247D01*
X108036949Y-87268755D01*
X108193711Y-87289393D01*
X108226638Y-87285057D01*
X108239560Y-87284211D01*
X109579831Y-87284211D01*
X109583072Y-87284211D01*
X109700473Y-87268755D01*
X109846552Y-87208247D01*
X109971993Y-87111993D01*
X110001956Y-87072943D01*
X110036711Y-87044421D01*
X110080498Y-87034211D01*
X120613488Y-87034211D01*
X120658853Y-87045216D01*
X120694131Y-87075786D01*
X120711480Y-87119122D01*
X120713826Y-87135443D01*
X120713827Y-87135446D01*
X120714835Y-87142457D01*
X120717777Y-87148899D01*
X120717778Y-87148902D01*
X120771379Y-87266270D01*
X120774623Y-87273373D01*
X120825321Y-87331882D01*
X120843258Y-87362114D01*
X120849500Y-87396711D01*
X120849500Y-91863378D01*
X120847393Y-91883694D01*
X120846639Y-91887285D01*
X120846638Y-91887292D01*
X120844957Y-91895313D01*
X120845971Y-91903447D01*
X120845971Y-91903449D01*
X120848740Y-91925660D01*
X120849063Y-91930871D01*
X120849162Y-91930863D01*
X120849500Y-91934945D01*
X120849500Y-91939038D01*
X120850172Y-91943071D01*
X120850173Y-91943072D01*
X120852752Y-91958528D01*
X120853340Y-91962570D01*
X120859427Y-92011391D01*
X120862686Y-92018058D01*
X120863908Y-92025379D01*
X120867812Y-92032592D01*
X120887322Y-92068644D01*
X120889194Y-92072282D01*
X120910802Y-92116482D01*
X120916050Y-92121730D01*
X120919582Y-92128256D01*
X120955764Y-92161564D01*
X120958717Y-92164397D01*
X125142594Y-96348274D01*
X125166336Y-96386455D01*
X125170743Y-96431199D01*
X125164319Y-96479999D01*
X125165166Y-96486433D01*
X125184109Y-96630325D01*
X125184110Y-96630330D01*
X125184957Y-96636761D01*
X125187440Y-96642757D01*
X125187441Y-96642758D01*
X125223577Y-96729999D01*
X125245465Y-96782840D01*
X125249413Y-96787985D01*
X125315583Y-96874220D01*
X125315587Y-96874225D01*
X125317551Y-96876784D01*
X125319834Y-96879067D01*
X125390505Y-96949738D01*
X125411965Y-96981856D01*
X125419501Y-97019742D01*
X125419501Y-104402018D01*
X125402816Y-104457019D01*
X125358387Y-104493482D01*
X125301187Y-104499116D01*
X125250497Y-104472022D01*
X125229930Y-104451455D01*
X125226877Y-104448402D01*
X125223340Y-104445925D01*
X125223336Y-104445922D01*
X125051184Y-104325380D01*
X125051182Y-104325378D01*
X125047639Y-104322898D01*
X125043720Y-104321070D01*
X125043714Y-104321067D01*
X124853249Y-104232252D01*
X124853244Y-104232250D01*
X124849330Y-104230425D01*
X124845162Y-104229308D01*
X124845156Y-104229306D01*
X124642153Y-104174912D01*
X124637977Y-104173793D01*
X124633673Y-104173416D01*
X124633665Y-104173415D01*
X124424309Y-104155100D01*
X124420000Y-104154723D01*
X124415691Y-104155100D01*
X124206334Y-104173415D01*
X124206324Y-104173416D01*
X124202023Y-104173793D01*
X124197848Y-104174911D01*
X124197846Y-104174912D01*
X123994843Y-104229306D01*
X123994834Y-104229309D01*
X123990670Y-104230425D01*
X123986759Y-104232248D01*
X123986750Y-104232252D01*
X123796286Y-104321067D01*
X123796275Y-104321073D01*
X123792362Y-104322898D01*
X123788823Y-104325375D01*
X123788816Y-104325380D01*
X123726283Y-104369167D01*
X123675974Y-104386859D01*
X123623786Y-104375885D01*
X123584863Y-104339430D01*
X123570499Y-104288071D01*
X123570499Y-98227844D01*
X123571346Y-98214922D01*
X123574834Y-98188428D01*
X123575681Y-98181995D01*
X123555043Y-98025233D01*
X123494535Y-97879154D01*
X123447500Y-97817857D01*
X123398281Y-97753713D01*
X123371935Y-97733497D01*
X123362198Y-97724959D01*
X114145042Y-88507803D01*
X114136503Y-88498065D01*
X114120237Y-88476866D01*
X114120233Y-88476862D01*
X114116286Y-88471718D01*
X114033203Y-88407966D01*
X113995993Y-88379414D01*
X113995992Y-88379413D01*
X113990845Y-88375464D01*
X113984851Y-88372981D01*
X113984849Y-88372980D01*
X113850763Y-88317440D01*
X113850762Y-88317439D01*
X113844766Y-88314956D01*
X113838335Y-88314109D01*
X113838330Y-88314108D01*
X113727365Y-88299500D01*
X113694438Y-88295165D01*
X113688004Y-88294318D01*
X113655077Y-88298653D01*
X113642155Y-88299500D01*
X108199743Y-88299500D01*
X108161857Y-88291964D01*
X108129739Y-88270504D01*
X105380910Y-85521675D01*
X105355287Y-85477294D01*
X105355288Y-85426047D01*
X105375086Y-85352161D01*
X105375086Y-85352159D01*
X105376207Y-85347977D01*
X105395277Y-85130000D01*
X105381065Y-84967557D01*
X105393951Y-84909431D01*
X105437849Y-84869207D01*
X105496879Y-84861435D01*
X105549692Y-84888927D01*
G37*
G04 #@! TD.AperFunction*
G04 #@! TA.AperFunction,Conductor*
G36*
X105549692Y-87388927D02*
G01*
X107452964Y-89292199D01*
X107461502Y-89301936D01*
X107481718Y-89328282D01*
X107607159Y-89424536D01*
X107753238Y-89485044D01*
X107910000Y-89505682D01*
X107942927Y-89501346D01*
X107955849Y-89500500D01*
X113398261Y-89500500D01*
X113436147Y-89508036D01*
X113468265Y-89529496D01*
X118339264Y-94400495D01*
X118366358Y-94451185D01*
X118360724Y-94508385D01*
X118324261Y-94552814D01*
X118269260Y-94569499D01*
X116959362Y-94569499D01*
X111969742Y-94569499D01*
X111931856Y-94561963D01*
X111899738Y-94540503D01*
X105380910Y-88021675D01*
X105355287Y-87977294D01*
X105355288Y-87926047D01*
X105375086Y-87852161D01*
X105375086Y-87852159D01*
X105376207Y-87847977D01*
X105395277Y-87630000D01*
X105381065Y-87467557D01*
X105393951Y-87409431D01*
X105437849Y-87369207D01*
X105496879Y-87361435D01*
X105549692Y-87388927D01*
G37*
G04 #@! TD.AperFunction*
G04 #@! TA.AperFunction,Conductor*
G36*
X146111680Y-62057663D02*
G01*
X146147917Y-62093900D01*
X146161180Y-62143400D01*
X146161180Y-108844400D01*
X146147917Y-108893900D01*
X146111680Y-108930137D01*
X146062180Y-108943400D01*
X98161180Y-108943400D01*
X98111680Y-108930137D01*
X98075443Y-108893900D01*
X98062180Y-108844400D01*
X98062180Y-97099680D01*
X100093998Y-97099680D01*
X100094845Y-97106114D01*
X100099180Y-97139041D01*
X100113788Y-97250006D01*
X100113789Y-97250011D01*
X100114636Y-97256442D01*
X100175144Y-97402521D01*
X100271398Y-97527962D01*
X100276550Y-97531915D01*
X100297743Y-97548177D01*
X100307480Y-97556715D01*
X108552964Y-105802199D01*
X108561502Y-105811936D01*
X108570417Y-105823555D01*
X108581718Y-105838282D01*
X108678131Y-105912262D01*
X108707159Y-105934536D01*
X108853238Y-105995044D01*
X109010000Y-106015682D01*
X109042927Y-106011346D01*
X109055849Y-106010500D01*
X115762359Y-106010500D01*
X115808072Y-106021686D01*
X115843455Y-106052716D01*
X115955922Y-106213336D01*
X115955925Y-106213340D01*
X115958402Y-106216877D01*
X116113123Y-106371598D01*
X116292361Y-106497102D01*
X116490670Y-106589575D01*
X116702023Y-106646207D01*
X116920000Y-106665277D01*
X117137977Y-106646207D01*
X117349330Y-106589575D01*
X117547639Y-106497102D01*
X117726877Y-106371598D01*
X117881598Y-106216877D01*
X118007102Y-106037639D01*
X118080277Y-105880712D01*
X118116807Y-105839059D01*
X118170000Y-105823555D01*
X118223193Y-105839059D01*
X118259722Y-105880712D01*
X118332898Y-106037639D01*
X118335378Y-106041182D01*
X118335380Y-106041184D01*
X118455922Y-106213336D01*
X118455925Y-106213340D01*
X118458402Y-106216877D01*
X118613123Y-106371598D01*
X118792361Y-106497102D01*
X118990670Y-106589575D01*
X119202023Y-106646207D01*
X119420000Y-106665277D01*
X119637977Y-106646207D01*
X119716047Y-106625287D01*
X119767294Y-106625287D01*
X119811675Y-106650910D01*
X120562965Y-107402200D01*
X120571503Y-107411937D01*
X120591719Y-107438283D01*
X120717160Y-107534537D01*
X120863239Y-107595045D01*
X121020001Y-107615683D01*
X121052928Y-107611347D01*
X121065850Y-107610501D01*
X125142152Y-107610501D01*
X125155073Y-107611347D01*
X125188001Y-107615683D01*
X125344763Y-107595045D01*
X125490842Y-107534537D01*
X125490841Y-107534537D01*
X125616283Y-107438283D01*
X125636506Y-107411925D01*
X125645029Y-107402206D01*
X126412206Y-106635029D01*
X126421925Y-106626506D01*
X126448283Y-106606283D01*
X126544537Y-106480842D01*
X126605045Y-106334763D01*
X126620501Y-106217362D01*
X126625683Y-106178001D01*
X126621347Y-106145073D01*
X126620501Y-106132152D01*
X126620501Y-96775848D01*
X126621348Y-96762926D01*
X126624836Y-96736432D01*
X126625683Y-96729999D01*
X126605045Y-96573237D01*
X126544537Y-96427158D01*
X126540588Y-96422011D01*
X126540586Y-96422008D01*
X126507282Y-96378606D01*
X126452237Y-96306870D01*
X126448283Y-96301717D01*
X126421937Y-96281501D01*
X126412200Y-96272963D01*
X126169069Y-96029832D01*
X126166786Y-96027549D01*
X126164227Y-96025585D01*
X126164222Y-96025581D01*
X126077987Y-95959411D01*
X126072842Y-95955463D01*
X125926763Y-95894955D01*
X125920332Y-95894108D01*
X125920327Y-95894107D01*
X125776435Y-95875164D01*
X125770001Y-95874317D01*
X125721201Y-95880741D01*
X125676457Y-95876334D01*
X125638276Y-95852592D01*
X121579496Y-91793812D01*
X121558036Y-91761694D01*
X121550500Y-91723808D01*
X121550500Y-87396711D01*
X121556742Y-87362114D01*
X121574678Y-87331882D01*
X121625377Y-87273373D01*
X121685165Y-87142457D01*
X121705647Y-87000000D01*
X121685165Y-86857543D01*
X121625377Y-86726627D01*
X121531128Y-86617857D01*
X121525174Y-86614030D01*
X121525171Y-86614028D01*
X121416010Y-86543875D01*
X121416008Y-86543874D01*
X121410053Y-86540047D01*
X121273664Y-86500000D01*
X127624353Y-86500000D01*
X127625361Y-86507011D01*
X127643826Y-86635443D01*
X127643827Y-86635446D01*
X127644835Y-86642457D01*
X127647777Y-86648899D01*
X127647778Y-86648902D01*
X127695685Y-86753802D01*
X127704623Y-86773373D01*
X127798872Y-86882143D01*
X127919947Y-86959953D01*
X128058039Y-87000500D01*
X128194883Y-87000500D01*
X128201961Y-87000500D01*
X128340053Y-86959953D01*
X128461128Y-86882143D01*
X128523925Y-86809669D01*
X128557620Y-86784446D01*
X128598746Y-86775500D01*
X129731254Y-86775500D01*
X129772380Y-86784446D01*
X129806074Y-86809669D01*
X129868872Y-86882143D01*
X129989947Y-86959953D01*
X130128039Y-87000500D01*
X130264883Y-87000500D01*
X130271961Y-87000500D01*
X130410053Y-86959953D01*
X130531128Y-86882143D01*
X130625377Y-86773373D01*
X130685165Y-86642457D01*
X130705647Y-86500000D01*
X130685165Y-86357543D01*
X130625377Y-86226627D01*
X130531128Y-86117857D01*
X130525174Y-86114030D01*
X130525171Y-86114028D01*
X130416010Y-86043875D01*
X130416008Y-86043874D01*
X130410053Y-86040047D01*
X130271961Y-85999500D01*
X130128039Y-85999500D01*
X130121248Y-86001493D01*
X130121247Y-86001494D01*
X129996740Y-86038052D01*
X129996737Y-86038053D01*
X129989947Y-86040047D01*
X129983994Y-86043872D01*
X129983989Y-86043875D01*
X129874828Y-86114028D01*
X129874822Y-86114033D01*
X129868872Y-86117857D01*
X129864236Y-86123206D01*
X129864235Y-86123208D01*
X129806073Y-86190331D01*
X129772380Y-86215554D01*
X129731254Y-86224500D01*
X128598746Y-86224500D01*
X128557620Y-86215554D01*
X128523927Y-86190331D01*
X128496930Y-86159175D01*
X128461128Y-86117857D01*
X128455174Y-86114030D01*
X128455171Y-86114028D01*
X128346010Y-86043875D01*
X128346008Y-86043874D01*
X128340053Y-86040047D01*
X128201961Y-85999500D01*
X128058039Y-85999500D01*
X128051248Y-86001493D01*
X128051247Y-86001494D01*
X127926740Y-86038052D01*
X127926737Y-86038053D01*
X127919947Y-86040047D01*
X127913994Y-86043872D01*
X127913989Y-86043875D01*
X127804828Y-86114028D01*
X127804822Y-86114033D01*
X127798872Y-86117857D01*
X127794236Y-86123206D01*
X127794235Y-86123208D01*
X127709263Y-86221271D01*
X127709260Y-86221275D01*
X127704623Y-86226627D01*
X127701680Y-86233070D01*
X127701678Y-86233074D01*
X127647778Y-86351097D01*
X127647776Y-86351102D01*
X127644835Y-86357543D01*
X127643827Y-86364551D01*
X127643826Y-86364556D01*
X127628706Y-86469724D01*
X127624353Y-86500000D01*
X121273664Y-86500000D01*
X121271961Y-86499500D01*
X121264883Y-86499500D01*
X121236190Y-86499500D01*
X121198304Y-86491964D01*
X121166186Y-86470504D01*
X121164512Y-86468830D01*
X121151636Y-86452972D01*
X121149635Y-86449910D01*
X121149634Y-86449909D01*
X121145148Y-86443042D01*
X121121022Y-86424264D01*
X121117106Y-86420806D01*
X121117043Y-86420881D01*
X121113907Y-86418225D01*
X121111018Y-86415336D01*
X121094920Y-86403843D01*
X121091658Y-86401410D01*
X121059309Y-86376231D01*
X121059307Y-86376230D01*
X121052837Y-86371194D01*
X121045818Y-86368784D01*
X121039777Y-86364471D01*
X121031918Y-86362131D01*
X121031916Y-86362130D01*
X120992620Y-86350431D01*
X120988725Y-86349183D01*
X120949955Y-86335873D01*
X120949951Y-86335872D01*
X120942199Y-86333211D01*
X120934776Y-86333211D01*
X120927665Y-86331094D01*
X120919465Y-86331433D01*
X120878535Y-86333126D01*
X120874444Y-86333211D01*
X110080498Y-86333211D01*
X110036711Y-86323001D01*
X110001956Y-86294478D01*
X109994292Y-86284490D01*
X109971993Y-86255429D01*
X109942859Y-86233074D01*
X109851700Y-86163125D01*
X109851699Y-86163124D01*
X109846552Y-86159175D01*
X109840558Y-86156692D01*
X109840556Y-86156691D01*
X109706470Y-86101151D01*
X109706469Y-86101150D01*
X109700473Y-86098667D01*
X109694042Y-86097820D01*
X109694037Y-86097819D01*
X109586285Y-86083634D01*
X109583072Y-86083211D01*
X109579831Y-86083211D01*
X108483454Y-86083211D01*
X108445568Y-86075675D01*
X108413450Y-86054215D01*
X107973735Y-85614500D01*
X122294353Y-85614500D01*
X122295361Y-85621511D01*
X122313826Y-85749943D01*
X122313827Y-85749946D01*
X122314835Y-85756957D01*
X122317777Y-85763399D01*
X122317778Y-85763402D01*
X122371678Y-85881425D01*
X122374623Y-85887873D01*
X122468872Y-85996643D01*
X122474826Y-86000469D01*
X122474828Y-86000471D01*
X122546479Y-86046518D01*
X122589947Y-86074453D01*
X122728039Y-86115000D01*
X122864883Y-86115000D01*
X122871961Y-86115000D01*
X123010053Y-86074453D01*
X123131128Y-85996643D01*
X123225377Y-85887873D01*
X123285165Y-85756957D01*
X123305647Y-85614500D01*
X123298113Y-85562103D01*
X123302171Y-85516754D01*
X123326102Y-85478013D01*
X123786358Y-85017758D01*
X123837047Y-84990664D01*
X123894247Y-84996298D01*
X123938677Y-85032761D01*
X123954895Y-85086227D01*
X123954353Y-85090000D01*
X123955361Y-85097011D01*
X123973826Y-85225443D01*
X123973827Y-85225446D01*
X123974835Y-85232457D01*
X123977777Y-85238899D01*
X123977778Y-85238902D01*
X124031678Y-85356925D01*
X124034623Y-85363373D01*
X124128872Y-85472143D01*
X124134826Y-85475969D01*
X124134828Y-85475971D01*
X124146841Y-85483691D01*
X124249947Y-85549953D01*
X124388039Y-85590500D01*
X124524883Y-85590500D01*
X124531961Y-85590500D01*
X124670053Y-85549953D01*
X124791128Y-85472143D01*
X124853925Y-85399669D01*
X124887620Y-85374446D01*
X124928746Y-85365500D01*
X137004876Y-85365500D01*
X137042762Y-85373036D01*
X137074880Y-85394496D01*
X139249112Y-87568728D01*
X139261422Y-87583729D01*
X139265956Y-87590515D01*
X139265960Y-87590519D01*
X139271376Y-87598624D01*
X139279479Y-87604038D01*
X139279481Y-87604040D01*
X139294376Y-87613992D01*
X139292262Y-87617154D01*
X139292265Y-87617155D01*
X139294378Y-87613994D01*
X139362505Y-87659515D01*
X139470000Y-87680897D01*
X139487571Y-87677401D01*
X139506884Y-87675500D01*
X141222524Y-87675500D01*
X141279529Y-87693559D01*
X141315737Y-87741148D01*
X141317938Y-87800905D01*
X141285329Y-87851028D01*
X141269034Y-87864400D01*
X141269028Y-87864405D01*
X141265270Y-87867490D01*
X141262185Y-87871248D01*
X141262180Y-87871254D01*
X141137079Y-88023691D01*
X141137074Y-88023696D01*
X141133995Y-88027450D01*
X141131708Y-88031728D01*
X141131703Y-88031736D01*
X141038743Y-88205651D01*
X141038740Y-88205657D01*
X141036448Y-88209946D01*
X141035035Y-88214602D01*
X141035034Y-88214606D01*
X140977792Y-88403309D01*
X140977790Y-88403315D01*
X140976380Y-88407966D01*
X140975903Y-88412807D01*
X140975903Y-88412808D01*
X140967506Y-88498065D01*
X140956097Y-88613900D01*
X140976380Y-88819834D01*
X140977791Y-88824486D01*
X140977792Y-88824490D01*
X141035034Y-89013193D01*
X141036448Y-89017854D01*
X141038742Y-89022146D01*
X141038743Y-89022148D01*
X141131703Y-89196063D01*
X141131705Y-89196066D01*
X141133995Y-89200350D01*
X141265270Y-89360310D01*
X141425230Y-89491585D01*
X141607726Y-89589132D01*
X141805746Y-89649200D01*
X142011680Y-89669483D01*
X142217614Y-89649200D01*
X142415634Y-89589132D01*
X142598130Y-89491585D01*
X142758090Y-89360310D01*
X142889365Y-89200350D01*
X142986912Y-89017854D01*
X143046980Y-88819834D01*
X143067263Y-88613900D01*
X143046980Y-88407966D01*
X142986912Y-88209946D01*
X142984719Y-88205844D01*
X142978413Y-88152550D01*
X143000914Y-88103742D01*
X143045602Y-88073883D01*
X143099305Y-88071773D01*
X143146198Y-88098034D01*
X143477868Y-88429704D01*
X143501077Y-88466355D01*
X143506387Y-88509411D01*
X143498293Y-88591598D01*
X143496097Y-88613900D01*
X143516380Y-88819834D01*
X143517791Y-88824486D01*
X143517792Y-88824490D01*
X143575034Y-89013193D01*
X143576448Y-89017854D01*
X143578742Y-89022146D01*
X143578743Y-89022148D01*
X143671703Y-89196063D01*
X143671705Y-89196066D01*
X143673995Y-89200350D01*
X143805270Y-89360310D01*
X143965230Y-89491585D01*
X144147726Y-89589132D01*
X144345746Y-89649200D01*
X144551680Y-89669483D01*
X144757614Y-89649200D01*
X144955634Y-89589132D01*
X145138130Y-89491585D01*
X145298090Y-89360310D01*
X145429365Y-89200350D01*
X145526912Y-89017854D01*
X145586980Y-88819834D01*
X145607263Y-88613900D01*
X145586980Y-88407966D01*
X145526912Y-88209946D01*
X145429365Y-88027450D01*
X145298090Y-87867490D01*
X145279411Y-87852161D01*
X145141888Y-87739299D01*
X145141887Y-87739298D01*
X145138130Y-87736215D01*
X145133846Y-87733925D01*
X145133843Y-87733923D01*
X144959928Y-87640963D01*
X144959926Y-87640962D01*
X144955634Y-87638668D01*
X144950973Y-87637254D01*
X144762270Y-87580012D01*
X144762266Y-87580011D01*
X144757614Y-87578600D01*
X144551680Y-87558317D01*
X144546837Y-87558794D01*
X144350588Y-87578123D01*
X144350587Y-87578123D01*
X144345746Y-87578600D01*
X144341095Y-87580010D01*
X144341089Y-87580012D01*
X144152386Y-87637254D01*
X144152382Y-87637255D01*
X144147726Y-87638668D01*
X144143437Y-87640960D01*
X144143431Y-87640963D01*
X143969516Y-87733923D01*
X143969508Y-87733928D01*
X143965230Y-87736215D01*
X143961472Y-87739298D01*
X143961466Y-87739303D01*
X143814002Y-87860322D01*
X143770511Y-87880892D01*
X143722460Y-87878531D01*
X143681194Y-87853798D01*
X143058665Y-87231269D01*
X143046353Y-87216266D01*
X143041822Y-87209485D01*
X143036404Y-87201376D01*
X143013403Y-87186007D01*
X143013402Y-87186006D01*
X142987245Y-87168528D01*
X142945275Y-87140485D01*
X142935715Y-87138583D01*
X142935712Y-87138582D01*
X142864913Y-87124500D01*
X142864906Y-87124497D01*
X142847345Y-87121005D01*
X142847342Y-87121005D01*
X142837780Y-87119103D01*
X142820208Y-87122598D01*
X142800896Y-87124500D01*
X142747560Y-87124500D01*
X142691612Y-87107175D01*
X142655246Y-87061264D01*
X142651189Y-87002835D01*
X142680863Y-86952340D01*
X142687932Y-86945894D01*
X142693690Y-86936753D01*
X142688364Y-86927361D01*
X142020894Y-86259891D01*
X142011680Y-86254571D01*
X142002465Y-86259891D01*
X141334994Y-86927361D01*
X141329668Y-86936753D01*
X141335425Y-86945892D01*
X141342496Y-86952339D01*
X141372170Y-87002835D01*
X141368113Y-87061264D01*
X141331747Y-87107175D01*
X141275799Y-87124500D01*
X139625124Y-87124500D01*
X139587238Y-87116964D01*
X139555120Y-87095504D01*
X138538070Y-86078454D01*
X140907389Y-86078454D01*
X140925355Y-86272338D01*
X140927028Y-86281286D01*
X140980312Y-86468563D01*
X140983608Y-86477069D01*
X141070394Y-86651360D01*
X141075189Y-86659105D01*
X141141715Y-86747199D01*
X141150600Y-86753801D01*
X141160311Y-86748490D01*
X141825688Y-86083114D01*
X141831008Y-86073900D01*
X142192351Y-86073900D01*
X142197671Y-86083114D01*
X142863048Y-86748491D01*
X142872758Y-86753802D01*
X142881644Y-86747198D01*
X142948163Y-86659113D01*
X142952968Y-86651354D01*
X143039751Y-86477069D01*
X143043047Y-86468563D01*
X143096331Y-86281286D01*
X143098004Y-86272338D01*
X143115971Y-86078454D01*
X143115971Y-86073900D01*
X143496097Y-86073900D01*
X143516380Y-86279834D01*
X143517791Y-86284486D01*
X143517792Y-86284490D01*
X143568900Y-86452972D01*
X143576448Y-86477854D01*
X143578742Y-86482146D01*
X143578743Y-86482148D01*
X143671703Y-86656063D01*
X143671705Y-86656066D01*
X143673995Y-86660350D01*
X143677078Y-86664107D01*
X143677079Y-86664108D01*
X143768495Y-86775500D01*
X143805270Y-86820310D01*
X143965230Y-86951585D01*
X144147726Y-87049132D01*
X144345746Y-87109200D01*
X144551680Y-87129483D01*
X144757614Y-87109200D01*
X144955634Y-87049132D01*
X145138130Y-86951585D01*
X145298090Y-86820310D01*
X145429365Y-86660350D01*
X145526912Y-86477854D01*
X145586980Y-86279834D01*
X145607263Y-86073900D01*
X145586980Y-85867966D01*
X145526912Y-85669946D01*
X145429365Y-85487450D01*
X145298090Y-85327490D01*
X145182169Y-85232357D01*
X145141888Y-85199299D01*
X145141887Y-85199298D01*
X145138130Y-85196215D01*
X145133846Y-85193925D01*
X145133843Y-85193923D01*
X144959928Y-85100963D01*
X144959926Y-85100962D01*
X144955634Y-85098668D01*
X144950172Y-85097011D01*
X144762270Y-85040012D01*
X144762266Y-85040011D01*
X144757614Y-85038600D01*
X144551680Y-85018317D01*
X144546837Y-85018794D01*
X144350588Y-85038123D01*
X144350587Y-85038123D01*
X144345746Y-85038600D01*
X144341095Y-85040010D01*
X144341089Y-85040012D01*
X144152386Y-85097254D01*
X144152382Y-85097255D01*
X144147726Y-85098668D01*
X144143437Y-85100960D01*
X144143431Y-85100963D01*
X143969516Y-85193923D01*
X143969508Y-85193928D01*
X143965230Y-85196215D01*
X143961476Y-85199294D01*
X143961471Y-85199299D01*
X143809034Y-85324400D01*
X143809028Y-85324405D01*
X143805270Y-85327490D01*
X143802185Y-85331248D01*
X143802180Y-85331254D01*
X143677079Y-85483691D01*
X143677074Y-85483696D01*
X143673995Y-85487450D01*
X143671708Y-85491728D01*
X143671703Y-85491736D01*
X143578743Y-85665651D01*
X143578740Y-85665657D01*
X143576448Y-85669946D01*
X143575035Y-85674602D01*
X143575034Y-85674606D01*
X143517792Y-85863309D01*
X143517790Y-85863315D01*
X143516380Y-85867966D01*
X143496097Y-86073900D01*
X143115971Y-86073900D01*
X143115971Y-86069346D01*
X143098004Y-85875461D01*
X143096331Y-85866513D01*
X143043047Y-85679236D01*
X143039751Y-85670730D01*
X142952965Y-85496439D01*
X142948170Y-85488694D01*
X142881643Y-85400599D01*
X142872758Y-85393997D01*
X142863047Y-85399308D01*
X142197671Y-86064685D01*
X142192351Y-86073900D01*
X141831008Y-86073900D01*
X141825688Y-86064685D01*
X141160311Y-85399308D01*
X141150600Y-85393997D01*
X141141714Y-85400600D01*
X141075189Y-85488694D01*
X141070394Y-85496439D01*
X140983608Y-85670730D01*
X140980312Y-85679236D01*
X140927028Y-85866513D01*
X140925355Y-85875461D01*
X140907389Y-86069346D01*
X140907389Y-86078454D01*
X138538070Y-86078454D01*
X137670661Y-85211045D01*
X141329668Y-85211045D01*
X141334995Y-85220438D01*
X142002465Y-85887908D01*
X142011679Y-85893228D01*
X142020894Y-85887908D01*
X142688363Y-85220438D01*
X142693690Y-85211045D01*
X142687934Y-85201907D01*
X142680799Y-85195402D01*
X142673525Y-85189909D01*
X142507988Y-85087412D01*
X142499823Y-85083347D01*
X142318268Y-85013012D01*
X142309495Y-85010517D01*
X142118116Y-84974742D01*
X142109027Y-84973900D01*
X141914333Y-84973900D01*
X141905243Y-84974742D01*
X141713864Y-85010517D01*
X141705091Y-85013012D01*
X141523536Y-85083347D01*
X141515371Y-85087412D01*
X141349839Y-85189907D01*
X141342553Y-85195408D01*
X141335425Y-85201906D01*
X141329668Y-85211045D01*
X137670661Y-85211045D01*
X137380885Y-84921269D01*
X137368573Y-84906266D01*
X137364042Y-84899485D01*
X137358624Y-84891376D01*
X137335623Y-84876007D01*
X137335622Y-84876006D01*
X137309465Y-84858528D01*
X137267495Y-84830485D01*
X137257935Y-84828583D01*
X137257932Y-84828582D01*
X137187133Y-84814500D01*
X137187126Y-84814497D01*
X137169565Y-84811005D01*
X137169562Y-84811005D01*
X137160000Y-84809103D01*
X137142428Y-84812598D01*
X137123116Y-84814500D01*
X124928746Y-84814500D01*
X124887620Y-84805554D01*
X124853927Y-84780331D01*
X124831856Y-84754860D01*
X124791128Y-84707857D01*
X124785174Y-84704030D01*
X124785171Y-84704028D01*
X124676010Y-84633875D01*
X124676008Y-84633874D01*
X124670053Y-84630047D01*
X124531961Y-84589500D01*
X124453623Y-84589500D01*
X124398622Y-84572815D01*
X124362159Y-84528386D01*
X124356525Y-84471186D01*
X124383619Y-84420496D01*
X124407362Y-84396753D01*
X141329668Y-84396753D01*
X141335424Y-84405892D01*
X141342560Y-84412397D01*
X141349834Y-84417890D01*
X141515371Y-84520387D01*
X141523536Y-84524452D01*
X141705091Y-84594787D01*
X141713864Y-84597282D01*
X141905243Y-84633057D01*
X141914333Y-84633900D01*
X142109027Y-84633900D01*
X142118116Y-84633057D01*
X142309495Y-84597282D01*
X142318268Y-84594787D01*
X142499823Y-84524452D01*
X142507988Y-84520387D01*
X142673520Y-84417892D01*
X142680803Y-84412393D01*
X142687934Y-84405892D01*
X142693690Y-84396753D01*
X142688364Y-84387361D01*
X142020894Y-83719891D01*
X142011680Y-83714571D01*
X142002465Y-83719891D01*
X141334994Y-84387361D01*
X141329668Y-84396753D01*
X124407362Y-84396753D01*
X124761218Y-84042898D01*
X125265662Y-83538454D01*
X140907389Y-83538454D01*
X140925355Y-83732338D01*
X140927028Y-83741286D01*
X140980312Y-83928563D01*
X140983608Y-83937069D01*
X141070394Y-84111360D01*
X141075189Y-84119105D01*
X141141715Y-84207199D01*
X141150600Y-84213801D01*
X141160311Y-84208490D01*
X141825688Y-83543114D01*
X141831008Y-83533900D01*
X142192351Y-83533900D01*
X142197671Y-83543114D01*
X142863048Y-84208491D01*
X142872758Y-84213802D01*
X142881644Y-84207198D01*
X142948163Y-84119113D01*
X142952968Y-84111354D01*
X143039751Y-83937069D01*
X143043047Y-83928563D01*
X143096331Y-83741286D01*
X143098004Y-83732338D01*
X143115971Y-83538454D01*
X143115971Y-83529346D01*
X143098004Y-83335461D01*
X143096331Y-83326513D01*
X143043047Y-83139236D01*
X143039751Y-83130730D01*
X142952965Y-82956439D01*
X142948170Y-82948694D01*
X142881643Y-82860599D01*
X142872758Y-82853997D01*
X142863047Y-82859308D01*
X142197671Y-83524685D01*
X142192351Y-83533900D01*
X141831008Y-83533900D01*
X141825688Y-83524685D01*
X141160311Y-82859308D01*
X141150600Y-82853997D01*
X141141714Y-82860600D01*
X141075189Y-82948694D01*
X141070394Y-82956439D01*
X140983608Y-83130730D01*
X140980312Y-83139236D01*
X140927028Y-83326513D01*
X140925355Y-83335461D01*
X140907389Y-83529346D01*
X140907389Y-83538454D01*
X125265662Y-83538454D01*
X126199619Y-82604496D01*
X126231738Y-82583036D01*
X126269624Y-82575500D01*
X141229972Y-82575500D01*
X141280131Y-82589147D01*
X141316461Y-82626327D01*
X141325866Y-82664341D01*
X141334995Y-82680438D01*
X142002465Y-83347908D01*
X142011679Y-83353228D01*
X142020894Y-83347908D01*
X142688363Y-82680438D01*
X142697492Y-82664341D01*
X142706898Y-82626327D01*
X142743228Y-82589147D01*
X142793387Y-82575500D01*
X143708696Y-82575500D01*
X143728008Y-82577401D01*
X143745580Y-82580897D01*
X143768995Y-82576239D01*
X143820743Y-82579799D01*
X143863589Y-82609038D01*
X143885769Y-82655930D01*
X143881193Y-82707600D01*
X143851117Y-82749863D01*
X143809035Y-82784399D01*
X143809028Y-82784405D01*
X143805270Y-82787490D01*
X143802185Y-82791248D01*
X143802180Y-82791254D01*
X143677079Y-82943691D01*
X143677074Y-82943696D01*
X143673995Y-82947450D01*
X143671708Y-82951728D01*
X143671703Y-82951736D01*
X143578743Y-83125651D01*
X143578740Y-83125657D01*
X143576448Y-83129946D01*
X143575035Y-83134602D01*
X143575034Y-83134606D01*
X143517792Y-83323309D01*
X143517790Y-83323315D01*
X143516380Y-83327966D01*
X143515903Y-83332807D01*
X143515903Y-83332808D01*
X143505653Y-83436877D01*
X143496097Y-83533900D01*
X143516380Y-83739834D01*
X143517791Y-83744486D01*
X143517792Y-83744490D01*
X143531681Y-83790276D01*
X143576448Y-83937854D01*
X143578742Y-83942146D01*
X143578743Y-83942148D01*
X143671703Y-84116063D01*
X143671705Y-84116066D01*
X143673995Y-84120350D01*
X143677078Y-84124107D01*
X143677079Y-84124108D01*
X143750688Y-84213802D01*
X143805270Y-84280310D01*
X143965230Y-84411585D01*
X144147726Y-84509132D01*
X144345746Y-84569200D01*
X144551680Y-84589483D01*
X144757614Y-84569200D01*
X144955634Y-84509132D01*
X145138130Y-84411585D01*
X145298090Y-84280310D01*
X145429365Y-84120350D01*
X145526912Y-83937854D01*
X145586980Y-83739834D01*
X145607263Y-83533900D01*
X145586980Y-83327966D01*
X145526912Y-83129946D01*
X145429365Y-82947450D01*
X145298090Y-82787490D01*
X145138130Y-82656215D01*
X145133846Y-82653925D01*
X145133843Y-82653923D01*
X144959928Y-82560963D01*
X144959926Y-82560962D01*
X144955634Y-82558668D01*
X144950973Y-82557254D01*
X144762270Y-82500012D01*
X144762266Y-82500011D01*
X144757614Y-82498600D01*
X144551680Y-82478317D01*
X144546837Y-82478794D01*
X144350588Y-82498123D01*
X144350587Y-82498123D01*
X144345746Y-82498600D01*
X144341095Y-82500010D01*
X144341089Y-82500012D01*
X144152380Y-82557256D01*
X144152377Y-82557256D01*
X144147726Y-82558668D01*
X144143620Y-82560862D01*
X144090321Y-82567166D01*
X144041515Y-82544663D01*
X144011659Y-82499975D01*
X144009551Y-82446273D01*
X144035807Y-82399388D01*
X144367488Y-82067706D01*
X144404135Y-82044501D01*
X144447188Y-82039191D01*
X144551680Y-82049483D01*
X144757614Y-82029200D01*
X144955634Y-81969132D01*
X145138130Y-81871585D01*
X145298090Y-81740310D01*
X145429365Y-81580350D01*
X145526912Y-81397854D01*
X145586980Y-81199834D01*
X145607263Y-80993900D01*
X145586980Y-80787966D01*
X145526912Y-80589946D01*
X145429365Y-80407450D01*
X145298090Y-80247490D01*
X145138130Y-80116215D01*
X145133846Y-80113925D01*
X145133843Y-80113923D01*
X144959928Y-80020963D01*
X144959926Y-80020962D01*
X144955634Y-80018668D01*
X144950973Y-80017254D01*
X144762270Y-79960012D01*
X144762266Y-79960011D01*
X144757614Y-79958600D01*
X144551680Y-79938317D01*
X144546837Y-79938794D01*
X144350588Y-79958123D01*
X144350587Y-79958123D01*
X144345746Y-79958600D01*
X144341095Y-79960010D01*
X144341089Y-79960012D01*
X144152386Y-80017254D01*
X144152382Y-80017255D01*
X144147726Y-80018668D01*
X144143437Y-80020960D01*
X144143431Y-80020963D01*
X143969516Y-80113923D01*
X143969508Y-80113928D01*
X143965230Y-80116215D01*
X143961476Y-80119294D01*
X143961471Y-80119299D01*
X143809034Y-80244400D01*
X143809028Y-80244405D01*
X143805270Y-80247490D01*
X143802185Y-80251248D01*
X143802180Y-80251254D01*
X143677079Y-80403691D01*
X143677074Y-80403696D01*
X143673995Y-80407450D01*
X143671708Y-80411728D01*
X143671703Y-80411736D01*
X143578743Y-80585651D01*
X143578740Y-80585657D01*
X143576448Y-80589946D01*
X143575035Y-80594602D01*
X143575034Y-80594606D01*
X143517792Y-80783309D01*
X143517790Y-80783315D01*
X143516380Y-80787966D01*
X143496097Y-80993900D01*
X143516380Y-81199834D01*
X143517791Y-81204486D01*
X143517792Y-81204490D01*
X143547286Y-81301719D01*
X143576448Y-81397854D01*
X143578742Y-81402146D01*
X143578743Y-81402148D01*
X143671703Y-81576063D01*
X143671705Y-81576066D01*
X143673995Y-81580350D01*
X143677078Y-81584107D01*
X143677079Y-81584108D01*
X143798102Y-81731576D01*
X143818672Y-81775067D01*
X143816311Y-81823119D01*
X143791578Y-81864384D01*
X143660461Y-81995503D01*
X143628343Y-82016964D01*
X143590457Y-82024500D01*
X143049898Y-82024500D01*
X142998013Y-82009815D01*
X142961521Y-81970115D01*
X142951248Y-81917179D01*
X142970243Y-81866712D01*
X142975374Y-81859759D01*
X143014473Y-81806782D01*
X143059326Y-81678599D01*
X143062180Y-81648166D01*
X143062180Y-80339634D01*
X143059326Y-80309201D01*
X143014473Y-80181018D01*
X142933830Y-80071750D01*
X142824562Y-79991107D01*
X142817562Y-79988657D01*
X142817559Y-79988656D01*
X142702067Y-79948244D01*
X142702064Y-79948243D01*
X142696379Y-79946254D01*
X142690386Y-79945692D01*
X142690382Y-79945691D01*
X142668241Y-79943615D01*
X142668236Y-79943614D01*
X142665946Y-79943400D01*
X141357414Y-79943400D01*
X141355124Y-79943614D01*
X141355118Y-79943615D01*
X141332977Y-79945691D01*
X141332971Y-79945692D01*
X141326981Y-79946254D01*
X141321297Y-79948242D01*
X141321292Y-79948244D01*
X141205800Y-79988656D01*
X141205794Y-79988658D01*
X141198798Y-79991107D01*
X141192832Y-79995509D01*
X141192828Y-79995512D01*
X141095503Y-80067341D01*
X141095500Y-80067343D01*
X141089530Y-80071750D01*
X141085123Y-80077720D01*
X141085121Y-80077723D01*
X141013292Y-80175048D01*
X141013289Y-80175052D01*
X141008887Y-80181018D01*
X141006438Y-80188014D01*
X141006436Y-80188020D01*
X140966024Y-80303512D01*
X140966022Y-80303517D01*
X140964034Y-80309201D01*
X140963472Y-80315191D01*
X140963471Y-80315197D01*
X140961395Y-80337338D01*
X140961180Y-80339634D01*
X140961180Y-81648166D01*
X140961394Y-81650456D01*
X140961395Y-81650461D01*
X140963471Y-81672602D01*
X140963472Y-81672606D01*
X140964034Y-81678599D01*
X140966023Y-81684284D01*
X140966024Y-81684287D01*
X141006436Y-81799779D01*
X141006437Y-81799782D01*
X141008887Y-81806782D01*
X141013291Y-81812749D01*
X141013292Y-81812751D01*
X141053117Y-81866712D01*
X141072112Y-81917179D01*
X141061839Y-81970115D01*
X141025347Y-82009815D01*
X140973462Y-82024500D01*
X126151384Y-82024500D01*
X126132071Y-82022598D01*
X126114500Y-82019103D01*
X126104938Y-82021005D01*
X126104933Y-82021005D01*
X126087371Y-82024497D01*
X126087367Y-82024500D01*
X126016567Y-82038582D01*
X126016562Y-82038583D01*
X126007005Y-82040485D01*
X125998902Y-82045899D01*
X125998898Y-82045901D01*
X125993539Y-82049483D01*
X125993538Y-82049484D01*
X125938880Y-82086003D01*
X125938876Y-82086007D01*
X125923983Y-82095958D01*
X125923980Y-82095960D01*
X125915876Y-82101376D01*
X125910460Y-82109480D01*
X125910456Y-82109485D01*
X125905922Y-82116271D01*
X125893614Y-82131268D01*
X122939879Y-85085004D01*
X122907761Y-85106464D01*
X122869875Y-85114000D01*
X122728039Y-85114000D01*
X122721248Y-85115993D01*
X122721247Y-85115994D01*
X122596740Y-85152552D01*
X122596737Y-85152553D01*
X122589947Y-85154547D01*
X122583994Y-85158372D01*
X122583989Y-85158375D01*
X122474828Y-85228528D01*
X122474822Y-85228533D01*
X122468872Y-85232357D01*
X122464236Y-85237706D01*
X122464235Y-85237708D01*
X122379263Y-85335771D01*
X122379260Y-85335775D01*
X122374623Y-85341127D01*
X122371680Y-85347570D01*
X122371678Y-85347574D01*
X122317778Y-85465597D01*
X122317776Y-85465602D01*
X122314835Y-85472043D01*
X122313827Y-85479051D01*
X122313826Y-85479056D01*
X122298090Y-85588505D01*
X122294353Y-85614500D01*
X107973735Y-85614500D01*
X105380910Y-83021675D01*
X105355287Y-82977294D01*
X105355288Y-82926047D01*
X105375086Y-82852161D01*
X105375086Y-82852159D01*
X105376207Y-82847977D01*
X105395277Y-82630000D01*
X105376207Y-82412023D01*
X105319575Y-82200670D01*
X105270747Y-82095958D01*
X105228932Y-82006286D01*
X105228930Y-82006284D01*
X105227102Y-82002362D01*
X105169432Y-81920000D01*
X105104077Y-81826663D01*
X105104075Y-81826661D01*
X105101598Y-81823123D01*
X104946877Y-81668402D01*
X104943340Y-81665925D01*
X104943336Y-81665922D01*
X104771184Y-81545380D01*
X104771182Y-81545378D01*
X104767639Y-81542898D01*
X104610712Y-81469722D01*
X104569059Y-81433193D01*
X104553555Y-81380000D01*
X104569059Y-81326807D01*
X104610712Y-81290277D01*
X104767639Y-81217102D01*
X104792063Y-81200000D01*
X111894353Y-81200000D01*
X111895361Y-81207011D01*
X111913826Y-81335443D01*
X111913827Y-81335446D01*
X111914835Y-81342457D01*
X111917777Y-81348899D01*
X111917778Y-81348902D01*
X111940134Y-81397854D01*
X111974623Y-81473373D01*
X112068872Y-81582143D01*
X112078727Y-81588476D01*
X112079025Y-81588668D01*
X112112391Y-81624506D01*
X112124500Y-81671951D01*
X112124500Y-81883116D01*
X112122598Y-81902428D01*
X112119103Y-81920000D01*
X112121005Y-81929562D01*
X112124500Y-81947132D01*
X112124500Y-81947133D01*
X112135485Y-82002362D01*
X112140485Y-82027495D01*
X112145902Y-82035602D01*
X112145903Y-82035604D01*
X112167356Y-82067710D01*
X112201376Y-82118624D01*
X112209485Y-82124042D01*
X112216266Y-82128573D01*
X112231269Y-82140885D01*
X113671720Y-83581336D01*
X113690244Y-83607026D01*
X113699708Y-83637250D01*
X113713826Y-83735444D01*
X113713827Y-83735448D01*
X113714835Y-83742457D01*
X113717777Y-83748899D01*
X113717778Y-83748902D01*
X113771350Y-83866207D01*
X113774623Y-83873373D01*
X113868872Y-83982143D01*
X113989947Y-84059953D01*
X114128039Y-84100500D01*
X114264883Y-84100500D01*
X114271961Y-84100500D01*
X114410053Y-84059953D01*
X114531128Y-83982143D01*
X114625377Y-83873373D01*
X114685165Y-83742457D01*
X114705647Y-83600000D01*
X114685165Y-83457543D01*
X114625377Y-83326627D01*
X114531128Y-83217857D01*
X114525174Y-83214030D01*
X114525171Y-83214028D01*
X114416010Y-83143875D01*
X114416008Y-83143874D01*
X114410053Y-83140047D01*
X114391522Y-83134606D01*
X114278752Y-83101494D01*
X114271961Y-83099500D01*
X114128039Y-83099500D01*
X114121252Y-83101492D01*
X114121250Y-83101493D01*
X114061545Y-83119023D01*
X114009171Y-83119956D01*
X113963652Y-83094036D01*
X112704496Y-81834880D01*
X112683036Y-81802762D01*
X112675500Y-81764876D01*
X112675500Y-81671951D01*
X112687609Y-81624506D01*
X112720975Y-81588668D01*
X112721135Y-81588565D01*
X112731128Y-81582143D01*
X112825377Y-81473373D01*
X112885165Y-81342457D01*
X112905647Y-81200000D01*
X112885165Y-81057543D01*
X112825377Y-80926627D01*
X112731128Y-80817857D01*
X112725174Y-80814030D01*
X112725171Y-80814028D01*
X112616010Y-80743875D01*
X112616008Y-80743874D01*
X112610053Y-80740047D01*
X112471961Y-80699500D01*
X112328039Y-80699500D01*
X112321248Y-80701493D01*
X112321247Y-80701494D01*
X112196740Y-80738052D01*
X112196737Y-80738053D01*
X112189947Y-80740047D01*
X112183994Y-80743872D01*
X112183989Y-80743875D01*
X112074828Y-80814028D01*
X112074822Y-80814033D01*
X112068872Y-80817857D01*
X112064236Y-80823206D01*
X112064235Y-80823208D01*
X111979263Y-80921271D01*
X111979260Y-80921275D01*
X111974623Y-80926627D01*
X111971680Y-80933070D01*
X111971678Y-80933074D01*
X111917778Y-81051097D01*
X111917776Y-81051102D01*
X111914835Y-81057543D01*
X111913827Y-81064551D01*
X111913826Y-81064556D01*
X111909582Y-81094077D01*
X111894353Y-81200000D01*
X104792063Y-81200000D01*
X104946877Y-81091598D01*
X105101598Y-80936877D01*
X105227102Y-80757639D01*
X105319575Y-80559330D01*
X105376207Y-80347977D01*
X105395277Y-80130000D01*
X105376207Y-79912023D01*
X105319575Y-79700670D01*
X105227102Y-79502362D01*
X105101598Y-79323123D01*
X104946877Y-79168402D01*
X104943340Y-79165925D01*
X104943336Y-79165922D01*
X104771184Y-79045380D01*
X104771182Y-79045378D01*
X104767639Y-79042898D01*
X104763720Y-79041070D01*
X104763714Y-79041067D01*
X104573249Y-78952252D01*
X104573244Y-78952250D01*
X104569330Y-78950425D01*
X104565162Y-78949308D01*
X104565156Y-78949306D01*
X104362153Y-78894912D01*
X104357977Y-78893793D01*
X104353673Y-78893416D01*
X104353665Y-78893415D01*
X104144309Y-78875100D01*
X104140000Y-78874723D01*
X104135691Y-78875100D01*
X103926334Y-78893415D01*
X103926324Y-78893416D01*
X103922023Y-78893793D01*
X103917848Y-78894911D01*
X103917846Y-78894912D01*
X103714843Y-78949306D01*
X103714834Y-78949309D01*
X103710670Y-78950425D01*
X103706759Y-78952248D01*
X103706750Y-78952252D01*
X103516286Y-79041067D01*
X103516275Y-79041073D01*
X103512362Y-79042898D01*
X103508823Y-79045375D01*
X103508816Y-79045380D01*
X103336663Y-79165922D01*
X103336653Y-79165929D01*
X103333123Y-79168402D01*
X103330075Y-79171449D01*
X103330069Y-79171455D01*
X103181455Y-79320069D01*
X103181449Y-79320075D01*
X103178402Y-79323123D01*
X103175929Y-79326653D01*
X103175922Y-79326663D01*
X103055380Y-79498816D01*
X103055375Y-79498823D01*
X103052898Y-79502362D01*
X103051073Y-79506275D01*
X103051067Y-79506286D01*
X102962252Y-79696750D01*
X102962248Y-79696759D01*
X102960425Y-79700670D01*
X102959309Y-79704834D01*
X102959306Y-79704843D01*
X102904912Y-79907846D01*
X102903793Y-79912023D01*
X102903416Y-79916324D01*
X102903415Y-79916334D01*
X102885929Y-80116215D01*
X102884723Y-80130000D01*
X102885100Y-80134309D01*
X102903415Y-80343665D01*
X102903416Y-80343673D01*
X102903793Y-80347977D01*
X102904910Y-80352146D01*
X102904912Y-80352157D01*
X102924711Y-80426049D01*
X102924710Y-80477295D01*
X102899088Y-80521675D01*
X102147800Y-81272963D01*
X102138066Y-81281499D01*
X102116864Y-81297768D01*
X102116857Y-81297774D01*
X102111717Y-81301719D01*
X102107772Y-81306859D01*
X102107766Y-81306866D01*
X102041066Y-81393793D01*
X102019414Y-81422010D01*
X102019411Y-81422013D01*
X102015463Y-81427160D01*
X102012981Y-81433150D01*
X102012979Y-81433155D01*
X101957439Y-81567241D01*
X101954955Y-81573239D01*
X101954108Y-81579667D01*
X101954107Y-81579674D01*
X101941084Y-81678599D01*
X101934317Y-81730001D01*
X101935164Y-81736434D01*
X101938652Y-81762928D01*
X101939499Y-81775850D01*
X101939499Y-88002307D01*
X101931963Y-88040193D01*
X101910503Y-88072311D01*
X100307481Y-89675331D01*
X100297747Y-89683867D01*
X100276549Y-89700133D01*
X100276543Y-89700138D01*
X100271398Y-89704087D01*
X100267450Y-89709231D01*
X100267447Y-89709235D01*
X100247230Y-89735584D01*
X100247229Y-89735584D01*
X100179094Y-89824378D01*
X100179088Y-89824387D01*
X100175144Y-89829528D01*
X100172663Y-89835517D01*
X100172661Y-89835521D01*
X100117120Y-89969609D01*
X100114636Y-89975607D01*
X100113789Y-89982035D01*
X100113788Y-89982042D01*
X100094845Y-90125935D01*
X100093998Y-90132369D01*
X100094845Y-90138802D01*
X100098333Y-90165296D01*
X100099180Y-90178218D01*
X100099180Y-97053831D01*
X100098333Y-97066752D01*
X100093998Y-97099680D01*
X98062180Y-97099680D01*
X98062180Y-78073900D01*
X124044523Y-78073900D01*
X124063107Y-78262583D01*
X124064518Y-78267235D01*
X124064519Y-78267239D01*
X124067462Y-78276941D01*
X124118143Y-78444015D01*
X124120436Y-78448306D01*
X124120437Y-78448307D01*
X124205226Y-78606936D01*
X124207518Y-78611224D01*
X124327797Y-78757783D01*
X124474356Y-78878062D01*
X124641565Y-78967437D01*
X124822997Y-79022473D01*
X125011680Y-79041057D01*
X125200363Y-79022473D01*
X125381795Y-78967437D01*
X125549004Y-78878062D01*
X125555884Y-78872416D01*
X126934194Y-78872416D01*
X126940431Y-78881428D01*
X126982959Y-78916330D01*
X126991015Y-78921713D01*
X127158237Y-79011095D01*
X127167186Y-79014802D01*
X127348638Y-79069845D01*
X127358135Y-79071734D01*
X127546837Y-79090320D01*
X127556523Y-79090320D01*
X127745224Y-79071734D01*
X127754721Y-79069845D01*
X127936173Y-79014802D01*
X127945122Y-79011095D01*
X128112344Y-78921713D01*
X128120400Y-78916331D01*
X128162926Y-78881429D01*
X128169164Y-78872416D01*
X128163842Y-78862839D01*
X127560894Y-78259891D01*
X127551679Y-78254571D01*
X127542465Y-78259891D01*
X126939516Y-78862839D01*
X126934194Y-78872416D01*
X125555884Y-78872416D01*
X125695563Y-78757783D01*
X125815842Y-78611224D01*
X125905217Y-78444015D01*
X125960253Y-78262583D01*
X125978360Y-78078743D01*
X126535260Y-78078743D01*
X126553845Y-78267444D01*
X126555734Y-78276941D01*
X126610777Y-78458393D01*
X126614484Y-78467342D01*
X126703869Y-78634570D01*
X126709244Y-78642614D01*
X126744150Y-78685147D01*
X126753162Y-78691384D01*
X126762739Y-78686062D01*
X127365688Y-78083114D01*
X127371008Y-78073900D01*
X127732351Y-78073900D01*
X127737671Y-78083114D01*
X128340619Y-78686062D01*
X128350196Y-78691384D01*
X128359209Y-78685146D01*
X128394111Y-78642620D01*
X128399493Y-78634564D01*
X128488875Y-78467342D01*
X128492582Y-78458393D01*
X128547625Y-78276941D01*
X128549514Y-78267444D01*
X128568100Y-78078743D01*
X128568100Y-78069057D01*
X128549514Y-77880355D01*
X128547625Y-77870858D01*
X128492582Y-77689406D01*
X128488875Y-77680457D01*
X128399493Y-77513235D01*
X128394110Y-77505179D01*
X128359208Y-77462651D01*
X128350196Y-77456414D01*
X128340619Y-77461736D01*
X127737671Y-78064685D01*
X127732351Y-78073900D01*
X127371008Y-78073900D01*
X127365688Y-78064685D01*
X126762740Y-77461737D01*
X126753161Y-77456414D01*
X126744151Y-77462650D01*
X126709244Y-77505184D01*
X126703869Y-77513229D01*
X126614484Y-77680457D01*
X126610777Y-77689406D01*
X126555734Y-77870858D01*
X126553845Y-77880355D01*
X126535260Y-78069057D01*
X126535260Y-78078743D01*
X125978360Y-78078743D01*
X125978837Y-78073900D01*
X125960253Y-77885217D01*
X125905217Y-77703785D01*
X125815842Y-77536576D01*
X125695563Y-77390017D01*
X125555880Y-77275381D01*
X126934194Y-77275381D01*
X126939517Y-77284960D01*
X127542465Y-77887908D01*
X127551680Y-77893228D01*
X127560894Y-77887908D01*
X128163842Y-77284959D01*
X128169164Y-77275382D01*
X128162927Y-77266370D01*
X128120394Y-77231464D01*
X128112350Y-77226089D01*
X127945122Y-77136704D01*
X127936173Y-77132997D01*
X127754721Y-77077954D01*
X127745224Y-77076065D01*
X127556523Y-77057480D01*
X127546837Y-77057480D01*
X127358135Y-77076065D01*
X127348638Y-77077954D01*
X127167186Y-77132997D01*
X127158237Y-77136704D01*
X126991009Y-77226089D01*
X126982964Y-77231464D01*
X126940430Y-77266371D01*
X126934194Y-77275381D01*
X125555880Y-77275381D01*
X125549004Y-77269738D01*
X125477398Y-77231464D01*
X125386087Y-77182657D01*
X125386086Y-77182656D01*
X125381795Y-77180363D01*
X125377141Y-77178951D01*
X125377138Y-77178950D01*
X125205019Y-77126739D01*
X125205015Y-77126738D01*
X125200363Y-77125327D01*
X125011680Y-77106743D01*
X125006837Y-77107220D01*
X124827839Y-77124850D01*
X124827838Y-77124850D01*
X124822997Y-77125327D01*
X124818346Y-77126737D01*
X124818340Y-77126739D01*
X124646221Y-77178950D01*
X124646215Y-77178952D01*
X124641565Y-77180363D01*
X124637277Y-77182654D01*
X124637272Y-77182657D01*
X124478643Y-77267446D01*
X124478638Y-77267448D01*
X124474356Y-77269738D01*
X124470601Y-77272819D01*
X124470599Y-77272821D01*
X124331561Y-77386927D01*
X124331555Y-77386932D01*
X124327797Y-77390017D01*
X124324712Y-77393775D01*
X124324707Y-77393781D01*
X124210601Y-77532819D01*
X124207518Y-77536576D01*
X124205228Y-77540858D01*
X124205226Y-77540863D01*
X124120437Y-77699492D01*
X124120434Y-77699497D01*
X124118143Y-77703785D01*
X124116732Y-77708435D01*
X124116730Y-77708441D01*
X124064519Y-77880560D01*
X124064517Y-77880566D01*
X124063107Y-77885217D01*
X124044523Y-78073900D01*
X98062180Y-78073900D01*
X98062180Y-75533900D01*
X124044523Y-75533900D01*
X124063107Y-75722583D01*
X124118143Y-75904015D01*
X124207518Y-76071224D01*
X124327797Y-76217783D01*
X124474356Y-76338062D01*
X124641565Y-76427437D01*
X124822997Y-76482473D01*
X125011680Y-76501057D01*
X125200363Y-76482473D01*
X125381795Y-76427437D01*
X125549004Y-76338062D01*
X125695563Y-76217783D01*
X125815842Y-76071224D01*
X125905217Y-75904015D01*
X125960253Y-75722583D01*
X125978837Y-75533900D01*
X126584523Y-75533900D01*
X126603107Y-75722583D01*
X126658143Y-75904015D01*
X126747518Y-76071224D01*
X126867797Y-76217783D01*
X127014356Y-76338062D01*
X127181565Y-76427437D01*
X127362997Y-76482473D01*
X127551680Y-76501057D01*
X127740363Y-76482473D01*
X127921795Y-76427437D01*
X128089004Y-76338062D01*
X128235563Y-76217783D01*
X128355842Y-76071224D01*
X128445217Y-75904015D01*
X128500253Y-75722583D01*
X128518837Y-75533900D01*
X128500253Y-75345217D01*
X128445217Y-75163785D01*
X128355842Y-74996576D01*
X128235563Y-74850017D01*
X128089004Y-74729738D01*
X127921795Y-74640363D01*
X127917141Y-74638951D01*
X127917138Y-74638950D01*
X127745019Y-74586739D01*
X127745015Y-74586738D01*
X127740363Y-74585327D01*
X127551680Y-74566743D01*
X127546837Y-74567220D01*
X127367839Y-74584850D01*
X127367838Y-74584850D01*
X127362997Y-74585327D01*
X127358346Y-74586737D01*
X127358340Y-74586739D01*
X127186221Y-74638950D01*
X127186215Y-74638952D01*
X127181565Y-74640363D01*
X127177277Y-74642654D01*
X127177272Y-74642657D01*
X127018643Y-74727446D01*
X127018638Y-74727448D01*
X127014356Y-74729738D01*
X127010601Y-74732819D01*
X127010599Y-74732821D01*
X126871561Y-74846927D01*
X126871555Y-74846932D01*
X126867797Y-74850017D01*
X126864712Y-74853775D01*
X126864707Y-74853781D01*
X126750601Y-74992819D01*
X126747518Y-74996576D01*
X126745228Y-75000858D01*
X126745226Y-75000863D01*
X126660437Y-75159492D01*
X126660434Y-75159497D01*
X126658143Y-75163785D01*
X126656732Y-75168435D01*
X126656730Y-75168441D01*
X126604519Y-75340560D01*
X126604517Y-75340566D01*
X126603107Y-75345217D01*
X126584523Y-75533900D01*
X125978837Y-75533900D01*
X125960253Y-75345217D01*
X125905217Y-75163785D01*
X125815842Y-74996576D01*
X125695563Y-74850017D01*
X125549004Y-74729738D01*
X125381795Y-74640363D01*
X125377141Y-74638951D01*
X125377138Y-74638950D01*
X125205019Y-74586739D01*
X125205015Y-74586738D01*
X125200363Y-74585327D01*
X125011680Y-74566743D01*
X125006837Y-74567220D01*
X124827839Y-74584850D01*
X124827838Y-74584850D01*
X124822997Y-74585327D01*
X124818346Y-74586737D01*
X124818340Y-74586739D01*
X124646221Y-74638950D01*
X124646215Y-74638952D01*
X124641565Y-74640363D01*
X124637277Y-74642654D01*
X124637272Y-74642657D01*
X124478643Y-74727446D01*
X124478638Y-74727448D01*
X124474356Y-74729738D01*
X124470601Y-74732819D01*
X124470599Y-74732821D01*
X124331561Y-74846927D01*
X124331555Y-74846932D01*
X124327797Y-74850017D01*
X124324712Y-74853775D01*
X124324707Y-74853781D01*
X124210601Y-74992819D01*
X124207518Y-74996576D01*
X124205228Y-75000858D01*
X124205226Y-75000863D01*
X124120437Y-75159492D01*
X124120434Y-75159497D01*
X124118143Y-75163785D01*
X124116732Y-75168435D01*
X124116730Y-75168441D01*
X124064519Y-75340560D01*
X124064517Y-75340566D01*
X124063107Y-75345217D01*
X124044523Y-75533900D01*
X98062180Y-75533900D01*
X98062180Y-73775648D01*
X124049180Y-73775648D01*
X124060813Y-73834131D01*
X124066230Y-73842238D01*
X124066231Y-73842240D01*
X124097375Y-73888849D01*
X124105128Y-73900452D01*
X124171449Y-73944767D01*
X124229932Y-73956400D01*
X125788570Y-73956400D01*
X125793428Y-73956400D01*
X125851911Y-73944767D01*
X125918232Y-73900452D01*
X125962547Y-73834131D01*
X125974180Y-73775648D01*
X125974180Y-72993900D01*
X126584523Y-72993900D01*
X126603107Y-73182583D01*
X126658143Y-73364015D01*
X126747518Y-73531224D01*
X126867797Y-73677783D01*
X127014356Y-73798062D01*
X127181565Y-73887437D01*
X127362997Y-73942473D01*
X127551680Y-73961057D01*
X127740363Y-73942473D01*
X127921795Y-73887437D01*
X128089004Y-73798062D01*
X128235563Y-73677783D01*
X128355842Y-73531224D01*
X128445217Y-73364015D01*
X128500253Y-73182583D01*
X128518837Y-72993900D01*
X128500253Y-72805217D01*
X128445217Y-72623785D01*
X128355842Y-72456576D01*
X128235563Y-72310017D01*
X128089004Y-72189738D01*
X127921795Y-72100363D01*
X127917141Y-72098951D01*
X127917138Y-72098950D01*
X127745019Y-72046739D01*
X127745015Y-72046738D01*
X127740363Y-72045327D01*
X127551680Y-72026743D01*
X127546837Y-72027220D01*
X127367839Y-72044850D01*
X127367838Y-72044850D01*
X127362997Y-72045327D01*
X127358346Y-72046737D01*
X127358340Y-72046739D01*
X127186221Y-72098950D01*
X127186215Y-72098952D01*
X127181565Y-72100363D01*
X127177277Y-72102654D01*
X127177272Y-72102657D01*
X127018643Y-72187446D01*
X127018638Y-72187448D01*
X127014356Y-72189738D01*
X127010601Y-72192819D01*
X127010599Y-72192821D01*
X126871561Y-72306927D01*
X126871555Y-72306932D01*
X126867797Y-72310017D01*
X126864712Y-72313775D01*
X126864707Y-72313781D01*
X126750601Y-72452819D01*
X126747518Y-72456576D01*
X126745228Y-72460858D01*
X126745226Y-72460863D01*
X126660437Y-72619492D01*
X126660434Y-72619497D01*
X126658143Y-72623785D01*
X126656732Y-72628435D01*
X126656730Y-72628441D01*
X126604519Y-72800560D01*
X126604517Y-72800566D01*
X126603107Y-72805217D01*
X126584523Y-72993900D01*
X125974180Y-72993900D01*
X125974180Y-72212152D01*
X125962547Y-72153669D01*
X125918232Y-72087348D01*
X125910121Y-72081928D01*
X125860020Y-72048451D01*
X125860018Y-72048450D01*
X125851911Y-72043033D01*
X125842347Y-72041130D01*
X125842346Y-72041130D01*
X125798191Y-72032347D01*
X125798186Y-72032346D01*
X125793428Y-72031400D01*
X124229932Y-72031400D01*
X124225174Y-72032346D01*
X124225168Y-72032347D01*
X124181013Y-72041130D01*
X124181010Y-72041131D01*
X124171449Y-72043033D01*
X124163343Y-72048449D01*
X124163339Y-72048451D01*
X124113238Y-72081928D01*
X124113235Y-72081930D01*
X124105128Y-72087348D01*
X124099710Y-72095455D01*
X124099708Y-72095458D01*
X124066231Y-72145559D01*
X124066229Y-72145563D01*
X124060813Y-72153669D01*
X124058911Y-72163230D01*
X124058910Y-72163233D01*
X124050127Y-72207388D01*
X124050126Y-72207394D01*
X124049180Y-72212152D01*
X124049180Y-73775648D01*
X98062180Y-73775648D01*
X98062180Y-62143400D01*
X98075443Y-62093900D01*
X98111680Y-62057663D01*
X98161180Y-62044400D01*
X146062180Y-62044400D01*
X146111680Y-62057663D01*
G37*
G04 #@! TD.AperFunction*
G04 #@! TD*
M02*
