M48
; DRILL file {KiCad (7.0.0-0)} date Thursday, 13 April 2023 at 10:18:23
; FORMAT={-:-/ absolute / inch / decimal}
; #@! TF.CreationDate,2023-04-13T10:18:23+02:00
; #@! TF.GenerationSoftware,Kicad,Pcbnew,(7.0.0-0)
; #@! TF.FileFunction,Plated,1,2,PTH
FMAT,2
INCH
; #@! TA.AperFunction,Plated,PTH,ViaDrill
T1C0.0138
; #@! TA.AperFunction,Plated,PTH,ComponentDrill
T2C0.0394
; #@! TA.AperFunction,Plated,PTH,ComponentDrill
T3C0.0433
%
G90
G05
T1
X3.937Y-2.685
X4.3Y-3.55
X4.332Y-3.1463
X4.4016Y-3.2913
X4.4252Y-3.1969
X4.4304Y-2.9455
X4.45Y-3.65
X4.4646Y-3.378
X4.4961Y-3.2913
X4.5669Y-3.811
X4.5748Y-3.2047
X4.6031Y-3.7469
X4.6457Y-3.9921
X4.685Y-3.5354
X4.7244Y-3.35
X4.7426Y-2.9403
X4.7717Y-3.4252
X4.7874Y-3.8661
X4.8346Y-3.3706
X4.8898Y-3.4488
X4.9Y-3.35
X5.0445Y-3.4055
X5.126Y-3.4055
X5.2992Y-3.937
X5.3622Y-3.4646
X5.3937Y-3.6457
X5.6142Y-3.0787
T2
X4.0162Y-3.6793
X4.0162Y-3.7793
X4.1162Y-3.6793
X4.1162Y-3.7793
X4.2162Y-3.6793
X4.2162Y-3.7793
X4.9217Y-2.8738
X4.9217Y-2.9738
X4.9217Y-3.0738
X5.0217Y-2.8738
X5.0217Y-2.9738
X5.0217Y-3.0738
X5.591Y-3.1887
X5.591Y-3.2887
X5.591Y-3.3887
X5.591Y-3.4887
X5.691Y-3.1887
X5.691Y-3.2887
X5.691Y-3.3887
X5.691Y-3.4887
T3
X4.1Y-3.1547
X4.1Y-3.2531
X4.1Y-3.3516
X4.1Y-3.45
X4.6031Y-4.15
X4.7016Y-4.15
X4.8Y-4.15
X4.8984Y-4.15
T0
M30
