G04 #@! TF.GenerationSoftware,KiCad,Pcbnew,5.0.2+dfsg1-1*
G04 #@! TF.CreationDate,2020-05-20T11:42:17+02:00*
G04 #@! TF.ProjectId,Crazyflie contol board,4372617a-7966-46c6-9965-20636f6e746f,2.1*
G04 #@! TF.SameCoordinates,PX85839e8PY6052f5c*
G04 #@! TF.FileFunction,Copper,L4,Bot*
G04 #@! TF.FilePolarity,Positive*
%FSLAX46Y46*%
G04 Gerber Fmt 4.6, Leading zero omitted, Abs format (unit mm)*
G04 Created by KiCad (PCBNEW 5.0.2+dfsg1-1) date wo 20 mei 2020 11:42:17 CEST*
%MOMM*%
%LPD*%
G01*
G04 APERTURE LIST*
%ADD10C,0.150000*%
%ADD11C,0.300000*%
%ADD12C,0.400000*%
G04 #@! TA.AperFunction,NonConductor*
%ADD13C,0.200025*%
G04 #@! TD*
G04 #@! TA.AperFunction,BGAPad,CuDef*
%ADD14C,0.750000*%
G04 #@! TD*
G04 #@! TA.AperFunction,SMDPad,CuDef*
%ADD15R,0.701040X1.000760*%
G04 #@! TD*
G04 #@! TA.AperFunction,SMDPad,CuDef*
%ADD16R,1.143000X0.635000*%
G04 #@! TD*
G04 #@! TA.AperFunction,SMDPad,CuDef*
%ADD17R,0.914400X0.914400*%
G04 #@! TD*
G04 #@! TA.AperFunction,ComponentPad*
%ADD18O,1.600200X1.198880*%
G04 #@! TD*
G04 #@! TA.AperFunction,ComponentPad*
%ADD19R,1.399540X1.000760*%
G04 #@! TD*
G04 #@! TA.AperFunction,ComponentPad*
%ADD20O,1.399540X1.000760*%
G04 #@! TD*
G04 #@! TA.AperFunction,SMDPad,CuDef*
%ADD21R,1.000760X0.599440*%
G04 #@! TD*
G04 #@! TA.AperFunction,SMDPad,CuDef*
%ADD22R,0.635000X1.143000*%
G04 #@! TD*
G04 #@! TA.AperFunction,SMDPad,CuDef*
%ADD23R,1.699260X1.699260*%
G04 #@! TD*
G04 #@! TA.AperFunction,ComponentPad*
%ADD24C,0.381000*%
G04 #@! TD*
G04 #@! TA.AperFunction,SMDPad,CuDef*
%ADD25R,0.398780X0.508000*%
G04 #@! TD*
G04 #@! TA.AperFunction,SMDPad,CuDef*
%ADD26C,0.797560*%
G04 #@! TD*
G04 #@! TA.AperFunction,Conductor*
%ADD27C,0.150000*%
G04 #@! TD*
G04 #@! TA.AperFunction,ComponentPad*
%ADD28R,1.198880X1.600200*%
G04 #@! TD*
G04 #@! TA.AperFunction,ComponentPad*
%ADD29O,1.198880X1.600200*%
G04 #@! TD*
G04 #@! TA.AperFunction,SMDPad,CuDef*
%ADD30R,1.800860X1.899920*%
G04 #@! TD*
G04 #@! TA.AperFunction,SMDPad,CuDef*
%ADD31R,1.800860X1.099820*%
G04 #@! TD*
G04 #@! TA.AperFunction,SMDPad,CuDef*
%ADD32R,1.899920X1.899920*%
G04 #@! TD*
G04 #@! TA.AperFunction,SMDPad,CuDef*
%ADD33R,2.100580X1.600200*%
G04 #@! TD*
G04 #@! TA.AperFunction,SMDPad,CuDef*
%ADD34R,0.398780X1.399540*%
G04 #@! TD*
G04 #@! TA.AperFunction,SMDPad,CuDef*
%ADD35R,1.198880X1.899920*%
G04 #@! TD*
G04 #@! TA.AperFunction,SMDPad,CuDef*
%ADD36O,2.500000X0.900000*%
G04 #@! TD*
G04 #@! TA.AperFunction,SMDPad,CuDef*
%ADD37O,0.900000X2.500000*%
G04 #@! TD*
G04 #@! TA.AperFunction,SMDPad,CuDef*
%ADD38R,6.000000X6.000000*%
G04 #@! TD*
G04 #@! TA.AperFunction,ViaPad*
%ADD39C,0.500000*%
G04 #@! TD*
G04 #@! TA.AperFunction,SMDPad,CuDef*
%ADD40R,1.200000X1.200000*%
G04 #@! TD*
G04 #@! TA.AperFunction,SMDPad,CuDef*
%ADD41R,0.300000X0.800000*%
G04 #@! TD*
G04 #@! TA.AperFunction,SMDPad,CuDef*
%ADD42R,0.850000X0.300000*%
G04 #@! TD*
G04 #@! TA.AperFunction,SMDPad,CuDef*
%ADD43R,2.550000X2.550000*%
G04 #@! TD*
G04 #@! TA.AperFunction,ComponentPad*
%ADD44C,0.380000*%
G04 #@! TD*
G04 #@! TA.AperFunction,SMDPad,CuDef*
%ADD45R,0.800000X0.600000*%
G04 #@! TD*
G04 #@! TA.AperFunction,ViaPad*
%ADD46C,0.635000*%
G04 #@! TD*
G04 #@! TA.AperFunction,Conductor*
%ADD47C,0.254000*%
G04 #@! TD*
G04 #@! TA.AperFunction,Conductor*
%ADD48C,0.381000*%
G04 #@! TD*
G04 #@! TA.AperFunction,Conductor*
%ADD49C,0.177800*%
G04 #@! TD*
G04 #@! TA.AperFunction,Conductor*
%ADD50C,0.203200*%
G04 #@! TD*
G04 #@! TA.AperFunction,Conductor*
%ADD51C,0.152400*%
G04 #@! TD*
G04 #@! TA.AperFunction,Conductor*
%ADD52C,0.304800*%
G04 #@! TD*
G04 APERTURE END LIST*
D10*
X37002480Y-65004100D02*
X37002480Y-97004100D01*
X145002480Y-97004100D01*
X145002480Y-65004100D01*
X37002480Y-65004100D01*
X-129999720Y91003100D02*
X-129999720Y-99004100D01*
X147002480Y-99004100D01*
X147002480Y91003100D01*
X-129999720Y91003100D01*
X-127999720Y89003100D02*
X-127999720Y-97004100D01*
X145002480Y-97004100D01*
X145002480Y89003100D01*
X-127999720Y89003100D01*
X-79999720Y89003100D02*
X-79999720Y91003100D01*
X-29999720Y89003100D02*
X-29999720Y91003100D01*
X20000280Y89003100D02*
X20000280Y91003100D01*
X70000280Y89003100D02*
X70000280Y91003100D01*
X120000280Y89003100D02*
X120000280Y91003100D01*
X-103934244Y89415005D02*
X-104677101Y89415005D01*
X-104305673Y89415005D02*
X-104305673Y90715005D01*
X-104429482Y90529291D01*
X-104553292Y90405481D01*
X-104677101Y90343577D01*
X-54677101Y90591196D02*
X-54615197Y90653100D01*
X-54491387Y90715005D01*
X-54181863Y90715005D01*
X-54058054Y90653100D01*
X-53996149Y90591196D01*
X-53934244Y90467386D01*
X-53934244Y90343577D01*
X-53996149Y90157862D01*
X-54739006Y89415005D01*
X-53934244Y89415005D01*
X-4739006Y90715005D02*
X-3934244Y90715005D01*
X-4367578Y90219767D01*
X-4181863Y90219767D01*
X-4058054Y90157862D01*
X-3996149Y90095958D01*
X-3934244Y89972148D01*
X-3934244Y89662624D01*
X-3996149Y89538815D01*
X-4058054Y89476910D01*
X-4181863Y89415005D01*
X-4553292Y89415005D01*
X-4677101Y89476910D01*
X-4739006Y89538815D01*
X45941946Y90281672D02*
X45941946Y89415005D01*
X45632422Y90776910D02*
X45322899Y89848339D01*
X46127660Y89848339D01*
X96003851Y90715005D02*
X95384803Y90715005D01*
X95322899Y90095958D01*
X95384803Y90157862D01*
X95508613Y90219767D01*
X95818137Y90219767D01*
X95941946Y90157862D01*
X96003851Y90095958D01*
X96065756Y89972148D01*
X96065756Y89662624D01*
X96003851Y89538815D01*
X95941946Y89476910D01*
X95818137Y89415005D01*
X95508613Y89415005D01*
X95384803Y89476910D01*
X95322899Y89538815D01*
X145941946Y90715005D02*
X145694327Y90715005D01*
X145570518Y90653100D01*
X145508613Y90591196D01*
X145384803Y90405481D01*
X145322899Y90157862D01*
X145322899Y89662624D01*
X145384803Y89538815D01*
X145446708Y89476910D01*
X145570518Y89415005D01*
X145818137Y89415005D01*
X145941946Y89476910D01*
X146003851Y89538815D01*
X146065756Y89662624D01*
X146065756Y89972148D01*
X146003851Y90095958D01*
X145941946Y90157862D01*
X145818137Y90219767D01*
X145570518Y90219767D01*
X145446708Y90157862D01*
X145384803Y90095958D01*
X145322899Y89972148D01*
X-79999720Y-97004100D02*
X-79999720Y-99004100D01*
X-29999720Y-97004100D02*
X-29999720Y-99004100D01*
X20000280Y-97004100D02*
X20000280Y-99004100D01*
X70000280Y-97004100D02*
X70000280Y-99004100D01*
X120000280Y-97004100D02*
X120000280Y-99004100D01*
X-103934244Y-98592195D02*
X-104677101Y-98592195D01*
X-104305673Y-98592195D02*
X-104305673Y-97292195D01*
X-104429482Y-97477909D01*
X-104553292Y-97601719D01*
X-104677101Y-97663623D01*
X-54677101Y-97416004D02*
X-54615197Y-97354100D01*
X-54491387Y-97292195D01*
X-54181863Y-97292195D01*
X-54058054Y-97354100D01*
X-53996149Y-97416004D01*
X-53934244Y-97539814D01*
X-53934244Y-97663623D01*
X-53996149Y-97849338D01*
X-54739006Y-98592195D01*
X-53934244Y-98592195D01*
X-4739006Y-97292195D02*
X-3934244Y-97292195D01*
X-4367578Y-97787433D01*
X-4181863Y-97787433D01*
X-4058054Y-97849338D01*
X-3996149Y-97911242D01*
X-3934244Y-98035052D01*
X-3934244Y-98344576D01*
X-3996149Y-98468385D01*
X-4058054Y-98530290D01*
X-4181863Y-98592195D01*
X-4553292Y-98592195D01*
X-4677101Y-98530290D01*
X-4739006Y-98468385D01*
X45941946Y-97725528D02*
X45941946Y-98592195D01*
X45632422Y-97230290D02*
X45322899Y-98158861D01*
X46127660Y-98158861D01*
X96003851Y-97292195D02*
X95384803Y-97292195D01*
X95322899Y-97911242D01*
X95384803Y-97849338D01*
X95508613Y-97787433D01*
X95818137Y-97787433D01*
X95941946Y-97849338D01*
X96003851Y-97911242D01*
X96065756Y-98035052D01*
X96065756Y-98344576D01*
X96003851Y-98468385D01*
X95941946Y-98530290D01*
X95818137Y-98592195D01*
X95508613Y-98592195D01*
X95384803Y-98530290D01*
X95322899Y-98468385D01*
X145941946Y-97292195D02*
X145694327Y-97292195D01*
X145570518Y-97354100D01*
X145508613Y-97416004D01*
X145384803Y-97601719D01*
X145322899Y-97849338D01*
X145322899Y-98344576D01*
X145384803Y-98468385D01*
X145446708Y-98530290D01*
X145570518Y-98592195D01*
X145818137Y-98592195D01*
X145941946Y-98530290D01*
X146003851Y-98468385D01*
X146065756Y-98344576D01*
X146065756Y-98035052D01*
X146003851Y-97911242D01*
X145941946Y-97849338D01*
X145818137Y-97787433D01*
X145570518Y-97787433D01*
X145446708Y-97849338D01*
X145384803Y-97911242D01*
X145322899Y-98035052D01*
X-129999720Y41003100D02*
X-127999720Y41003100D01*
X-129999720Y-8996900D02*
X-127999720Y-8996900D01*
X-129999720Y-58996900D02*
X-127999720Y-58996900D01*
X-129309244Y65786434D02*
X-128690197Y65786434D01*
X-129433054Y65415005D02*
X-128999720Y66715005D01*
X-128566387Y65415005D01*
X-128906863Y16095958D02*
X-128721149Y16034053D01*
X-128659244Y15972148D01*
X-128597340Y15848339D01*
X-128597340Y15662624D01*
X-128659244Y15538815D01*
X-128721149Y15476910D01*
X-128844959Y15415005D01*
X-129340197Y15415005D01*
X-129340197Y16715005D01*
X-128906863Y16715005D01*
X-128783054Y16653100D01*
X-128721149Y16591196D01*
X-128659244Y16467386D01*
X-128659244Y16343577D01*
X-128721149Y16219767D01*
X-128783054Y16157862D01*
X-128906863Y16095958D01*
X-129340197Y16095958D01*
X-128597340Y-34461185D02*
X-128659244Y-34523090D01*
X-128844959Y-34584995D01*
X-128968768Y-34584995D01*
X-129154482Y-34523090D01*
X-129278292Y-34399280D01*
X-129340197Y-34275471D01*
X-129402101Y-34027852D01*
X-129402101Y-33842138D01*
X-129340197Y-33594519D01*
X-129278292Y-33470709D01*
X-129154482Y-33346900D01*
X-128968768Y-33284995D01*
X-128844959Y-33284995D01*
X-128659244Y-33346900D01*
X-128597340Y-33408804D01*
X-129340197Y-84584995D02*
X-129340197Y-83284995D01*
X-129030673Y-83284995D01*
X-128844959Y-83346900D01*
X-128721149Y-83470709D01*
X-128659244Y-83594519D01*
X-128597340Y-83842138D01*
X-128597340Y-84027852D01*
X-128659244Y-84275471D01*
X-128721149Y-84399280D01*
X-128844959Y-84523090D01*
X-129030673Y-84584995D01*
X-129340197Y-84584995D01*
X147002480Y41003100D02*
X145002480Y41003100D01*
X147002480Y-8996900D02*
X145002480Y-8996900D01*
X147002480Y-58996900D02*
X145002480Y-58996900D01*
X145692956Y65786434D02*
X146312003Y65786434D01*
X145569146Y65415005D02*
X146002480Y66715005D01*
X146435813Y65415005D01*
X146095337Y16095958D02*
X146281051Y16034053D01*
X146342956Y15972148D01*
X146404860Y15848339D01*
X146404860Y15662624D01*
X146342956Y15538815D01*
X146281051Y15476910D01*
X146157241Y15415005D01*
X145662003Y15415005D01*
X145662003Y16715005D01*
X146095337Y16715005D01*
X146219146Y16653100D01*
X146281051Y16591196D01*
X146342956Y16467386D01*
X146342956Y16343577D01*
X146281051Y16219767D01*
X146219146Y16157862D01*
X146095337Y16095958D01*
X145662003Y16095958D01*
X146404860Y-34461185D02*
X146342956Y-34523090D01*
X146157241Y-34584995D01*
X146033432Y-34584995D01*
X145847718Y-34523090D01*
X145723908Y-34399280D01*
X145662003Y-34275471D01*
X145600099Y-34027852D01*
X145600099Y-33842138D01*
X145662003Y-33594519D01*
X145723908Y-33470709D01*
X145847718Y-33346900D01*
X146033432Y-33284995D01*
X146157241Y-33284995D01*
X146342956Y-33346900D01*
X146404860Y-33408804D01*
X145662003Y-84584995D02*
X145662003Y-83284995D01*
X145971527Y-83284995D01*
X146157241Y-83346900D01*
X146281051Y-83470709D01*
X146342956Y-83594519D01*
X146404860Y-83842138D01*
X146404860Y-84027852D01*
X146342956Y-84275471D01*
X146281051Y-84399280D01*
X146157241Y-84523090D01*
X145971527Y-84584995D01*
X145662003Y-84584995D01*
X60434622Y-92782671D02*
X60434622Y-91282671D01*
X60791765Y-91282671D01*
X61006051Y-91354100D01*
X61148908Y-91496957D01*
X61220337Y-91639814D01*
X61291765Y-91925528D01*
X61291765Y-92139814D01*
X61220337Y-92425528D01*
X61148908Y-92568385D01*
X61006051Y-92711242D01*
X60791765Y-92782671D01*
X60434622Y-92782671D01*
X62577480Y-92782671D02*
X62577480Y-91996957D01*
X62506051Y-91854100D01*
X62363194Y-91782671D01*
X62077480Y-91782671D01*
X61934622Y-91854100D01*
X62577480Y-92711242D02*
X62434622Y-92782671D01*
X62077480Y-92782671D01*
X61934622Y-92711242D01*
X61863194Y-92568385D01*
X61863194Y-92425528D01*
X61934622Y-92282671D01*
X62077480Y-92211242D01*
X62434622Y-92211242D01*
X62577480Y-92139814D01*
X63077480Y-91782671D02*
X63648908Y-91782671D01*
X63291765Y-91282671D02*
X63291765Y-92568385D01*
X63363194Y-92711242D01*
X63506051Y-92782671D01*
X63648908Y-92782671D01*
X64720337Y-92711242D02*
X64577480Y-92782671D01*
X64291765Y-92782671D01*
X64148908Y-92711242D01*
X64077480Y-92568385D01*
X64077480Y-91996957D01*
X64148908Y-91854100D01*
X64291765Y-91782671D01*
X64577480Y-91782671D01*
X64720337Y-91854100D01*
X64791765Y-91996957D01*
X64791765Y-92139814D01*
X64077480Y-92282671D01*
X65434622Y-92639814D02*
X65506051Y-92711242D01*
X65434622Y-92782671D01*
X65363194Y-92711242D01*
X65434622Y-92639814D01*
X65434622Y-92782671D01*
X65434622Y-91854100D02*
X65506051Y-91925528D01*
X65434622Y-91996957D01*
X65363194Y-91925528D01*
X65434622Y-91854100D01*
X65434622Y-91996957D01*
X67220337Y-91425528D02*
X67291765Y-91354100D01*
X67434622Y-91282671D01*
X67791765Y-91282671D01*
X67934622Y-91354100D01*
X68006051Y-91425528D01*
X68077480Y-91568385D01*
X68077480Y-91711242D01*
X68006051Y-91925528D01*
X67148908Y-92782671D01*
X68077480Y-92782671D01*
X69006051Y-91282671D02*
X69148908Y-91282671D01*
X69291765Y-91354100D01*
X69363194Y-91425528D01*
X69434622Y-91568385D01*
X69506051Y-91854100D01*
X69506051Y-92211242D01*
X69434622Y-92496957D01*
X69363194Y-92639814D01*
X69291765Y-92711242D01*
X69148908Y-92782671D01*
X69006051Y-92782671D01*
X68863194Y-92711242D01*
X68791765Y-92639814D01*
X68720337Y-92496957D01*
X68648908Y-92211242D01*
X68648908Y-91854100D01*
X68720337Y-91568385D01*
X68791765Y-91425528D01*
X68863194Y-91354100D01*
X69006051Y-91282671D01*
X70077480Y-91425528D02*
X70148908Y-91354100D01*
X70291765Y-91282671D01*
X70648908Y-91282671D01*
X70791765Y-91354100D01*
X70863194Y-91425528D01*
X70934622Y-91568385D01*
X70934622Y-91711242D01*
X70863194Y-91925528D01*
X70006051Y-92782671D01*
X70934622Y-92782671D01*
X71863194Y-91282671D02*
X72006051Y-91282671D01*
X72148908Y-91354100D01*
X72220337Y-91425528D01*
X72291765Y-91568385D01*
X72363194Y-91854100D01*
X72363194Y-92211242D01*
X72291765Y-92496957D01*
X72220337Y-92639814D01*
X72148908Y-92711242D01*
X72006051Y-92782671D01*
X71863194Y-92782671D01*
X71720337Y-92711242D01*
X71648908Y-92639814D01*
X71577480Y-92496957D01*
X71506051Y-92211242D01*
X71506051Y-91854100D01*
X71577480Y-91568385D01*
X71648908Y-91425528D01*
X71720337Y-91354100D01*
X71863194Y-91282671D01*
X73006051Y-92211242D02*
X74148908Y-92211242D01*
X75148908Y-91282671D02*
X75291765Y-91282671D01*
X75434622Y-91354100D01*
X75506051Y-91425528D01*
X75577480Y-91568385D01*
X75648908Y-91854100D01*
X75648908Y-92211242D01*
X75577480Y-92496957D01*
X75506051Y-92639814D01*
X75434622Y-92711242D01*
X75291765Y-92782671D01*
X75148908Y-92782671D01*
X75006051Y-92711242D01*
X74934622Y-92639814D01*
X74863194Y-92496957D01*
X74791765Y-92211242D01*
X74791765Y-91854100D01*
X74863194Y-91568385D01*
X74934622Y-91425528D01*
X75006051Y-91354100D01*
X75148908Y-91282671D01*
X77006051Y-91282671D02*
X76291765Y-91282671D01*
X76220337Y-91996957D01*
X76291765Y-91925528D01*
X76434622Y-91854100D01*
X76791765Y-91854100D01*
X76934622Y-91925528D01*
X77006051Y-91996957D01*
X77077480Y-92139814D01*
X77077480Y-92496957D01*
X77006051Y-92639814D01*
X76934622Y-92711242D01*
X76791765Y-92782671D01*
X76434622Y-92782671D01*
X76291765Y-92711242D01*
X76220337Y-92639814D01*
X77720337Y-92211242D02*
X78863194Y-92211242D01*
X80363194Y-92782671D02*
X79506051Y-92782671D01*
X79934622Y-92782671D02*
X79934622Y-91282671D01*
X79791765Y-91496957D01*
X79648908Y-91639814D01*
X79506051Y-91711242D01*
X80934622Y-91425528D02*
X81006051Y-91354100D01*
X81148908Y-91282671D01*
X81506051Y-91282671D01*
X81648908Y-91354100D01*
X81720337Y-91425528D01*
X81791765Y-91568385D01*
X81791765Y-91711242D01*
X81720337Y-91925528D01*
X80863194Y-92782671D01*
X81791765Y-92782671D01*
X37002480Y-93504100D02*
X145002480Y-93504100D01*
X38434622Y-95582671D02*
X38434622Y-94082671D01*
X39291765Y-95582671D02*
X38648908Y-94725528D01*
X39291765Y-94082671D02*
X38434622Y-94939814D01*
X39934622Y-95582671D02*
X39934622Y-94582671D01*
X39934622Y-94082671D02*
X39863194Y-94154100D01*
X39934622Y-94225528D01*
X40006051Y-94154100D01*
X39934622Y-94082671D01*
X39934622Y-94225528D01*
X41506051Y-95439814D02*
X41434622Y-95511242D01*
X41220337Y-95582671D01*
X41077480Y-95582671D01*
X40863194Y-95511242D01*
X40720337Y-95368385D01*
X40648908Y-95225528D01*
X40577480Y-94939814D01*
X40577480Y-94725528D01*
X40648908Y-94439814D01*
X40720337Y-94296957D01*
X40863194Y-94154100D01*
X41077480Y-94082671D01*
X41220337Y-94082671D01*
X41434622Y-94154100D01*
X41506051Y-94225528D01*
X42791765Y-95582671D02*
X42791765Y-94796957D01*
X42720337Y-94654100D01*
X42577480Y-94582671D01*
X42291765Y-94582671D01*
X42148908Y-94654100D01*
X42791765Y-95511242D02*
X42648908Y-95582671D01*
X42291765Y-95582671D01*
X42148908Y-95511242D01*
X42077480Y-95368385D01*
X42077480Y-95225528D01*
X42148908Y-95082671D01*
X42291765Y-95011242D01*
X42648908Y-95011242D01*
X42791765Y-94939814D01*
X44148908Y-95582671D02*
X44148908Y-94082671D01*
X44148908Y-95511242D02*
X44006051Y-95582671D01*
X43720337Y-95582671D01*
X43577480Y-95511242D01*
X43506051Y-95439814D01*
X43434622Y-95296957D01*
X43434622Y-94868385D01*
X43506051Y-94725528D01*
X43577480Y-94654100D01*
X43720337Y-94582671D01*
X44006051Y-94582671D01*
X44148908Y-94654100D01*
X46006051Y-94796957D02*
X46506051Y-94796957D01*
X46720337Y-95582671D02*
X46006051Y-95582671D01*
X46006051Y-94082671D01*
X46720337Y-94082671D01*
X47363194Y-95439814D02*
X47434622Y-95511242D01*
X47363194Y-95582671D01*
X47291765Y-95511242D01*
X47363194Y-95439814D01*
X47363194Y-95582671D01*
X48077480Y-95582671D02*
X48077480Y-94082671D01*
X48434622Y-94082671D01*
X48648908Y-94154100D01*
X48791765Y-94296957D01*
X48863194Y-94439814D01*
X48934622Y-94725528D01*
X48934622Y-94939814D01*
X48863194Y-95225528D01*
X48791765Y-95368385D01*
X48648908Y-95511242D01*
X48434622Y-95582671D01*
X48077480Y-95582671D01*
X49577480Y-95439814D02*
X49648908Y-95511242D01*
X49577480Y-95582671D01*
X49506051Y-95511242D01*
X49577480Y-95439814D01*
X49577480Y-95582671D01*
X50220337Y-95154100D02*
X50934622Y-95154100D01*
X50077480Y-95582671D02*
X50577480Y-94082671D01*
X51077480Y-95582671D01*
X51577480Y-95439814D02*
X51648908Y-95511242D01*
X51577480Y-95582671D01*
X51506051Y-95511242D01*
X51577480Y-95439814D01*
X51577480Y-95582671D01*
X54577480Y-95582671D02*
X54577480Y-94082671D01*
X54720337Y-95011242D02*
X55148908Y-95582671D01*
X55148908Y-94582671D02*
X54577480Y-95154100D01*
X55791765Y-95582671D02*
X55791765Y-94582671D01*
X55791765Y-94082671D02*
X55720337Y-94154100D01*
X55791765Y-94225528D01*
X55863194Y-94154100D01*
X55791765Y-94082671D01*
X55791765Y-94225528D01*
X57148908Y-95511242D02*
X57006051Y-95582671D01*
X56720337Y-95582671D01*
X56577480Y-95511242D01*
X56506051Y-95439814D01*
X56434622Y-95296957D01*
X56434622Y-94868385D01*
X56506051Y-94725528D01*
X56577480Y-94654100D01*
X56720337Y-94582671D01*
X57006051Y-94582671D01*
X57148908Y-94654100D01*
X58434622Y-95582671D02*
X58434622Y-94796957D01*
X58363194Y-94654100D01*
X58220337Y-94582671D01*
X57934622Y-94582671D01*
X57791765Y-94654100D01*
X58434622Y-95511242D02*
X58291765Y-95582671D01*
X57934622Y-95582671D01*
X57791765Y-95511242D01*
X57720337Y-95368385D01*
X57720337Y-95225528D01*
X57791765Y-95082671D01*
X57934622Y-95011242D01*
X58291765Y-95011242D01*
X58434622Y-94939814D01*
X59791765Y-95582671D02*
X59791765Y-94082671D01*
X59791765Y-95511242D02*
X59648908Y-95582671D01*
X59363194Y-95582671D01*
X59220337Y-95511242D01*
X59148908Y-95439814D01*
X59077480Y-95296957D01*
X59077480Y-94868385D01*
X59148908Y-94725528D01*
X59220337Y-94654100D01*
X59363194Y-94582671D01*
X59648908Y-94582671D01*
X59791765Y-94654100D01*
X62363194Y-94082671D02*
X61648908Y-94082671D01*
X61577480Y-94796957D01*
X61648908Y-94725528D01*
X61791765Y-94654100D01*
X62148908Y-94654100D01*
X62291765Y-94725528D01*
X62363194Y-94796957D01*
X62434622Y-94939814D01*
X62434622Y-95296957D01*
X62363194Y-95439814D01*
X62291765Y-95511242D01*
X62148908Y-95582671D01*
X61791765Y-95582671D01*
X61648908Y-95511242D01*
X61577480Y-95439814D01*
X63077480Y-95439814D02*
X63148908Y-95511242D01*
X63077480Y-95582671D01*
X63006051Y-95511242D01*
X63077480Y-95439814D01*
X63077480Y-95582671D01*
X64077480Y-94082671D02*
X64220337Y-94082671D01*
X64363194Y-94154100D01*
X64434622Y-94225528D01*
X64506051Y-94368385D01*
X64577480Y-94654100D01*
X64577480Y-95011242D01*
X64506051Y-95296957D01*
X64434622Y-95439814D01*
X64363194Y-95511242D01*
X64220337Y-95582671D01*
X64077480Y-95582671D01*
X63934622Y-95511242D01*
X63863194Y-95439814D01*
X63791765Y-95296957D01*
X63720337Y-95011242D01*
X63720337Y-94654100D01*
X63791765Y-94368385D01*
X63863194Y-94225528D01*
X63934622Y-94154100D01*
X64077480Y-94082671D01*
X65220337Y-95439814D02*
X65291765Y-95511242D01*
X65220337Y-95582671D01*
X65148908Y-95511242D01*
X65220337Y-95439814D01*
X65220337Y-95582671D01*
X65863194Y-94225528D02*
X65934622Y-94154100D01*
X66077480Y-94082671D01*
X66434622Y-94082671D01*
X66577480Y-94154100D01*
X66648908Y-94225528D01*
X66720337Y-94368385D01*
X66720337Y-94511242D01*
X66648908Y-94725528D01*
X65791765Y-95582671D01*
X66720337Y-95582671D01*
X67363194Y-95011242D02*
X68506051Y-95011242D01*
X67934622Y-95582671D02*
X67934622Y-94439814D01*
X69863194Y-95582671D02*
X69863194Y-94082671D01*
X69863194Y-95511242D02*
X69720337Y-95582671D01*
X69434622Y-95582671D01*
X69291765Y-95511242D01*
X69220337Y-95439814D01*
X69148908Y-95296957D01*
X69148908Y-94868385D01*
X69220337Y-94725528D01*
X69291765Y-94654100D01*
X69434622Y-94582671D01*
X69720337Y-94582671D01*
X69863194Y-94654100D01*
X70363194Y-94582671D02*
X70934622Y-94582671D01*
X70577480Y-95582671D02*
X70577480Y-94296957D01*
X70648908Y-94154100D01*
X70791765Y-94082671D01*
X70934622Y-94082671D01*
X71363194Y-95511242D02*
X71506051Y-95582671D01*
X71791765Y-95582671D01*
X71934622Y-95511242D01*
X72006051Y-95368385D01*
X72006051Y-95296957D01*
X71934622Y-95154100D01*
X71791765Y-95082671D01*
X71577480Y-95082671D01*
X71434622Y-95011242D01*
X71363194Y-94868385D01*
X71363194Y-94796957D01*
X71434622Y-94654100D01*
X71577480Y-94582671D01*
X71791765Y-94582671D01*
X71934622Y-94654100D01*
X73291765Y-94582671D02*
X73291765Y-95796957D01*
X73220337Y-95939814D01*
X73148908Y-96011242D01*
X73006051Y-96082671D01*
X72791765Y-96082671D01*
X72648908Y-96011242D01*
X73291765Y-95511242D02*
X73148908Y-95582671D01*
X72863194Y-95582671D01*
X72720337Y-95511242D01*
X72648908Y-95439814D01*
X72577480Y-95296957D01*
X72577480Y-94868385D01*
X72648908Y-94725528D01*
X72720337Y-94654100D01*
X72863194Y-94582671D01*
X73148908Y-94582671D01*
X73291765Y-94654100D01*
X74791765Y-95582671D02*
X73934622Y-95582671D01*
X74363194Y-95582671D02*
X74363194Y-94082671D01*
X74220337Y-94296957D01*
X74077480Y-94439814D01*
X73934622Y-94511242D01*
X75434622Y-95011242D02*
X76577480Y-95011242D01*
X78077480Y-95582671D02*
X77220337Y-95582671D01*
X77648908Y-95582671D02*
X77648908Y-94082671D01*
X77506051Y-94296957D01*
X77363194Y-94439814D01*
X77220337Y-94511242D01*
X37002480Y-90504100D02*
X145002480Y-90504100D01*
D11*
X124411765Y-92782671D02*
X123911765Y-92068385D01*
X123554622Y-92782671D02*
X123554622Y-91282671D01*
X124126051Y-91282671D01*
X124268908Y-91354100D01*
X124340337Y-91425528D01*
X124411765Y-91568385D01*
X124411765Y-91782671D01*
X124340337Y-91925528D01*
X124268908Y-91996957D01*
X124126051Y-92068385D01*
X123554622Y-92068385D01*
X125626051Y-92711242D02*
X125483194Y-92782671D01*
X125197480Y-92782671D01*
X125054622Y-92711242D01*
X124983194Y-92568385D01*
X124983194Y-91996957D01*
X125054622Y-91854100D01*
X125197480Y-91782671D01*
X125483194Y-91782671D01*
X125626051Y-91854100D01*
X125697480Y-91996957D01*
X125697480Y-92139814D01*
X124983194Y-92282671D01*
X126197480Y-91782671D02*
X126554622Y-92782671D01*
X126911765Y-91782671D01*
X127483194Y-92639814D02*
X127554622Y-92711242D01*
X127483194Y-92782671D01*
X127411765Y-92711242D01*
X127483194Y-92639814D01*
X127483194Y-92782671D01*
X127483194Y-91854100D02*
X127554622Y-91925528D01*
X127483194Y-91996957D01*
X127411765Y-91925528D01*
X127483194Y-91854100D01*
X127483194Y-91996957D01*
X129268908Y-91425528D02*
X129340337Y-91354100D01*
X129483194Y-91282671D01*
X129840337Y-91282671D01*
X129983194Y-91354100D01*
X130054622Y-91425528D01*
X130126051Y-91568385D01*
X130126051Y-91711242D01*
X130054622Y-91925528D01*
X129197480Y-92782671D01*
X130126051Y-92782671D01*
X130768908Y-92639814D02*
X130840337Y-92711242D01*
X130768908Y-92782671D01*
X130697480Y-92711242D01*
X130768908Y-92639814D01*
X130768908Y-92782671D01*
X132268908Y-92782671D02*
X131411765Y-92782671D01*
X131840337Y-92782671D02*
X131840337Y-91282671D01*
X131697480Y-91496957D01*
X131554622Y-91639814D01*
X131411765Y-91711242D01*
D10*
X38363194Y-92711242D02*
X38577480Y-92782671D01*
X38934622Y-92782671D01*
X39077480Y-92711242D01*
X39148908Y-92639814D01*
X39220337Y-92496957D01*
X39220337Y-92354100D01*
X39148908Y-92211242D01*
X39077480Y-92139814D01*
X38934622Y-92068385D01*
X38648908Y-91996957D01*
X38506051Y-91925528D01*
X38434622Y-91854100D01*
X38363194Y-91711242D01*
X38363194Y-91568385D01*
X38434622Y-91425528D01*
X38506051Y-91354100D01*
X38648908Y-91282671D01*
X39006051Y-91282671D01*
X39220337Y-91354100D01*
X39863194Y-92782671D02*
X39863194Y-91782671D01*
X39863194Y-91282671D02*
X39791765Y-91354100D01*
X39863194Y-91425528D01*
X39934622Y-91354100D01*
X39863194Y-91282671D01*
X39863194Y-91425528D01*
X40434622Y-91782671D02*
X41220337Y-91782671D01*
X40434622Y-92782671D01*
X41220337Y-92782671D01*
X42363194Y-92711242D02*
X42220337Y-92782671D01*
X41934622Y-92782671D01*
X41791765Y-92711242D01*
X41720337Y-92568385D01*
X41720337Y-91996957D01*
X41791765Y-91854100D01*
X41934622Y-91782671D01*
X42220337Y-91782671D01*
X42363194Y-91854100D01*
X42434622Y-91996957D01*
X42434622Y-92139814D01*
X41720337Y-92282671D01*
X43077480Y-92639814D02*
X43148908Y-92711242D01*
X43077480Y-92782671D01*
X43006051Y-92711242D01*
X43077480Y-92639814D01*
X43077480Y-92782671D01*
X43077480Y-91854100D02*
X43148908Y-91925528D01*
X43077480Y-91996957D01*
X43006051Y-91925528D01*
X43077480Y-91854100D01*
X43077480Y-91996957D01*
X44863194Y-92354100D02*
X45577480Y-92354100D01*
X44720337Y-92782671D02*
X45220337Y-91282671D01*
X45720337Y-92782671D01*
X46863194Y-91782671D02*
X46863194Y-92782671D01*
X46506051Y-91211242D02*
X46148908Y-92282671D01*
X47077480Y-92282671D01*
X123434622Y-95582671D02*
X123434622Y-94082671D01*
X124791765Y-95582671D02*
X124791765Y-94082671D01*
X124791765Y-95511242D02*
X124648908Y-95582671D01*
X124363194Y-95582671D01*
X124220337Y-95511242D01*
X124148908Y-95439814D01*
X124077480Y-95296957D01*
X124077480Y-94868385D01*
X124148908Y-94725528D01*
X124220337Y-94654100D01*
X124363194Y-94582671D01*
X124648908Y-94582671D01*
X124791765Y-94654100D01*
X125506051Y-95439814D02*
X125577480Y-95511242D01*
X125506051Y-95582671D01*
X125434622Y-95511242D01*
X125506051Y-95439814D01*
X125506051Y-95582671D01*
X125506051Y-94654100D02*
X125577480Y-94725528D01*
X125506051Y-94796957D01*
X125434622Y-94725528D01*
X125506051Y-94654100D01*
X125506051Y-94796957D01*
X128148908Y-95582671D02*
X127291765Y-95582671D01*
X127720337Y-95582671D02*
X127720337Y-94082671D01*
X127577480Y-94296957D01*
X127434622Y-94439814D01*
X127291765Y-94511242D01*
X129863194Y-94011242D02*
X128577480Y-95939814D01*
X131148908Y-95582671D02*
X130291765Y-95582671D01*
X130720337Y-95582671D02*
X130720337Y-94082671D01*
X130577480Y-94296957D01*
X130434622Y-94439814D01*
X130291765Y-94511242D01*
X37002480Y-86504100D02*
X145002480Y-86504100D01*
D12*
X38714860Y-87208861D02*
X39857718Y-87208861D01*
X39036289Y-89208861D02*
X39286289Y-87208861D01*
X40274384Y-89208861D02*
X40441051Y-87875528D01*
X40524384Y-87208861D02*
X40417241Y-87304100D01*
X40500575Y-87399338D01*
X40607718Y-87304100D01*
X40524384Y-87208861D01*
X40500575Y-87399338D01*
X41107718Y-87875528D02*
X41869622Y-87875528D01*
X41476765Y-87208861D02*
X41262480Y-88923147D01*
X41333908Y-89113623D01*
X41512480Y-89208861D01*
X41702956Y-89208861D01*
X42655337Y-89208861D02*
X42476765Y-89113623D01*
X42405337Y-88923147D01*
X42619622Y-87208861D01*
X44191051Y-89113623D02*
X43988670Y-89208861D01*
X43607718Y-89208861D01*
X43429146Y-89113623D01*
X43357718Y-88923147D01*
X43452956Y-88161242D01*
X43572003Y-87970766D01*
X43774384Y-87875528D01*
X44155337Y-87875528D01*
X44333908Y-87970766D01*
X44405337Y-88161242D01*
X44381527Y-88351719D01*
X43405337Y-88542195D01*
X45155337Y-89018385D02*
X45238670Y-89113623D01*
X45131527Y-89208861D01*
X45048194Y-89113623D01*
X45155337Y-89018385D01*
X45131527Y-89208861D01*
X45286289Y-87970766D02*
X45369622Y-88066004D01*
X45262480Y-88161242D01*
X45179146Y-88066004D01*
X45286289Y-87970766D01*
X45262480Y-88161242D01*
X48774384Y-89018385D02*
X48667241Y-89113623D01*
X48369622Y-89208861D01*
X48179146Y-89208861D01*
X47905337Y-89113623D01*
X47738670Y-88923147D01*
X47667241Y-88732671D01*
X47619622Y-88351719D01*
X47655337Y-88066004D01*
X47798194Y-87685052D01*
X47917241Y-87494576D01*
X48131527Y-87304100D01*
X48429146Y-87208861D01*
X48619622Y-87208861D01*
X48893432Y-87304100D01*
X48976765Y-87399338D01*
X49607718Y-89208861D02*
X49774384Y-87875528D01*
X49726765Y-88256480D02*
X49845813Y-88066004D01*
X49952956Y-87970766D01*
X50155337Y-87875528D01*
X50345813Y-87875528D01*
X51702956Y-89208861D02*
X51833908Y-88161242D01*
X51762480Y-87970766D01*
X51583908Y-87875528D01*
X51202956Y-87875528D01*
X51000575Y-87970766D01*
X51714860Y-89113623D02*
X51512480Y-89208861D01*
X51036289Y-89208861D01*
X50857718Y-89113623D01*
X50786289Y-88923147D01*
X50810099Y-88732671D01*
X50929146Y-88542195D01*
X51131527Y-88446957D01*
X51607718Y-88446957D01*
X51810099Y-88351719D01*
X52631527Y-87875528D02*
X53679146Y-87875528D01*
X52464860Y-89208861D01*
X53512480Y-89208861D01*
X54250575Y-87875528D02*
X54560099Y-89208861D01*
X55202956Y-87875528D02*
X54560099Y-89208861D01*
X54310099Y-89685052D01*
X54202956Y-89780290D01*
X54000575Y-89875528D01*
X55679146Y-87875528D02*
X56441051Y-87875528D01*
X55798194Y-89208861D02*
X56012480Y-87494576D01*
X56131527Y-87304100D01*
X56333908Y-87208861D01*
X56524384Y-87208861D01*
X57226765Y-89208861D02*
X57048194Y-89113623D01*
X56976765Y-88923147D01*
X57191051Y-87208861D01*
X57988670Y-89208861D02*
X58155337Y-87875528D01*
X58238670Y-87208861D02*
X58131527Y-87304100D01*
X58214860Y-87399338D01*
X58322003Y-87304100D01*
X58238670Y-87208861D01*
X58214860Y-87399338D01*
X59714860Y-89113623D02*
X59512480Y-89208861D01*
X59131527Y-89208861D01*
X58952956Y-89113623D01*
X58881527Y-88923147D01*
X58976765Y-88161242D01*
X59095813Y-87970766D01*
X59298194Y-87875528D01*
X59679146Y-87875528D01*
X59857718Y-87970766D01*
X59929146Y-88161242D01*
X59905337Y-88351719D01*
X58929146Y-88542195D01*
X63048194Y-89113623D02*
X62845813Y-89208861D01*
X62464860Y-89208861D01*
X62286289Y-89113623D01*
X62202956Y-89018385D01*
X62131527Y-88827909D01*
X62202956Y-88256480D01*
X62322003Y-88066004D01*
X62429146Y-87970766D01*
X62631527Y-87875528D01*
X63012480Y-87875528D01*
X63191051Y-87970766D01*
X64179146Y-89208861D02*
X64000575Y-89113623D01*
X63917241Y-89018385D01*
X63845813Y-88827909D01*
X63917241Y-88256480D01*
X64036289Y-88066004D01*
X64143432Y-87970766D01*
X64345813Y-87875528D01*
X64631527Y-87875528D01*
X64810099Y-87970766D01*
X64893432Y-88066004D01*
X64964860Y-88256480D01*
X64893432Y-88827909D01*
X64774384Y-89018385D01*
X64667241Y-89113623D01*
X64464860Y-89208861D01*
X64179146Y-89208861D01*
X65869622Y-87875528D02*
X65702956Y-89208861D01*
X65845813Y-88066004D02*
X65952956Y-87970766D01*
X66155337Y-87875528D01*
X66441051Y-87875528D01*
X66619622Y-87970766D01*
X66691051Y-88161242D01*
X66560099Y-89208861D01*
X67393432Y-87875528D02*
X68155337Y-87875528D01*
X67762480Y-87208861D02*
X67548194Y-88923147D01*
X67619622Y-89113623D01*
X67798194Y-89208861D01*
X67988670Y-89208861D01*
X68655337Y-89208861D02*
X68822003Y-87875528D01*
X68774384Y-88256480D02*
X68893432Y-88066004D01*
X69000575Y-87970766D01*
X69202956Y-87875528D01*
X69393432Y-87875528D01*
X70179146Y-89208861D02*
X70000575Y-89113623D01*
X69917241Y-89018385D01*
X69845813Y-88827909D01*
X69917241Y-88256480D01*
X70036289Y-88066004D01*
X70143432Y-87970766D01*
X70345813Y-87875528D01*
X70631527Y-87875528D01*
X70810099Y-87970766D01*
X70893432Y-88066004D01*
X70964860Y-88256480D01*
X70893432Y-88827909D01*
X70774384Y-89018385D01*
X70667241Y-89113623D01*
X70464860Y-89208861D01*
X70179146Y-89208861D01*
X71988670Y-89208861D02*
X71810099Y-89113623D01*
X71738670Y-88923147D01*
X71952956Y-87208861D01*
X74274384Y-89208861D02*
X74524384Y-87208861D01*
X74429146Y-87970766D02*
X74631527Y-87875528D01*
X75012480Y-87875528D01*
X75191051Y-87970766D01*
X75274384Y-88066004D01*
X75345813Y-88256480D01*
X75274384Y-88827909D01*
X75155337Y-89018385D01*
X75048194Y-89113623D01*
X74845813Y-89208861D01*
X74464860Y-89208861D01*
X74286289Y-89113623D01*
X76369622Y-89208861D02*
X76191051Y-89113623D01*
X76107718Y-89018385D01*
X76036289Y-88827909D01*
X76107718Y-88256480D01*
X76226765Y-88066004D01*
X76333908Y-87970766D01*
X76536289Y-87875528D01*
X76822003Y-87875528D01*
X77000575Y-87970766D01*
X77083908Y-88066004D01*
X77155337Y-88256480D01*
X77083908Y-88827909D01*
X76964860Y-89018385D01*
X76857718Y-89113623D01*
X76655337Y-89208861D01*
X76369622Y-89208861D01*
X78750575Y-89208861D02*
X78881527Y-88161242D01*
X78810099Y-87970766D01*
X78631527Y-87875528D01*
X78250575Y-87875528D01*
X78048194Y-87970766D01*
X78762480Y-89113623D02*
X78560099Y-89208861D01*
X78083908Y-89208861D01*
X77905337Y-89113623D01*
X77833908Y-88923147D01*
X77857718Y-88732671D01*
X77976765Y-88542195D01*
X78179146Y-88446957D01*
X78655337Y-88446957D01*
X78857718Y-88351719D01*
X79702956Y-89208861D02*
X79869622Y-87875528D01*
X79822003Y-88256480D02*
X79941051Y-88066004D01*
X80048194Y-87970766D01*
X80250575Y-87875528D01*
X80441051Y-87875528D01*
X81798194Y-89208861D02*
X82048194Y-87208861D01*
X81810099Y-89113623D02*
X81607718Y-89208861D01*
X81226765Y-89208861D01*
X81048194Y-89113623D01*
X80964860Y-89018385D01*
X80893432Y-88827909D01*
X80964860Y-88256480D01*
X81083908Y-88066004D01*
X81191051Y-87970766D01*
X81393432Y-87875528D01*
X81774384Y-87875528D01*
X81952956Y-87970766D01*
D10*
X38934622Y-84596957D02*
X38434622Y-84596957D01*
X38434622Y-85382671D02*
X38434622Y-83882671D01*
X39148908Y-83882671D01*
X39720337Y-85382671D02*
X39720337Y-84382671D01*
X39720337Y-83882671D02*
X39648908Y-83954100D01*
X39720337Y-84025528D01*
X39791765Y-83954100D01*
X39720337Y-83882671D01*
X39720337Y-84025528D01*
X40648908Y-85382671D02*
X40506051Y-85311242D01*
X40434622Y-85168385D01*
X40434622Y-83882671D01*
X41791765Y-85311242D02*
X41648908Y-85382671D01*
X41363194Y-85382671D01*
X41220337Y-85311242D01*
X41148908Y-85168385D01*
X41148908Y-84596957D01*
X41220337Y-84454100D01*
X41363194Y-84382671D01*
X41648908Y-84382671D01*
X41791765Y-84454100D01*
X41863194Y-84596957D01*
X41863194Y-84739814D01*
X41148908Y-84882671D01*
X42506051Y-85239814D02*
X42577480Y-85311242D01*
X42506051Y-85382671D01*
X42434622Y-85311242D01*
X42506051Y-85239814D01*
X42506051Y-85382671D01*
X42506051Y-84454100D02*
X42577480Y-84525528D01*
X42506051Y-84596957D01*
X42434622Y-84525528D01*
X42506051Y-84454100D01*
X42506051Y-84596957D01*
X45220337Y-85239814D02*
X45148908Y-85311242D01*
X44934622Y-85382671D01*
X44791765Y-85382671D01*
X44577480Y-85311242D01*
X44434622Y-85168385D01*
X44363194Y-85025528D01*
X44291765Y-84739814D01*
X44291765Y-84525528D01*
X44363194Y-84239814D01*
X44434622Y-84096957D01*
X44577480Y-83954100D01*
X44791765Y-83882671D01*
X44934622Y-83882671D01*
X45148908Y-83954100D01*
X45220337Y-84025528D01*
X45863194Y-85382671D02*
X45863194Y-84382671D01*
X45863194Y-84668385D02*
X45934622Y-84525528D01*
X46006051Y-84454100D01*
X46148908Y-84382671D01*
X46291765Y-84382671D01*
X47434622Y-85382671D02*
X47434622Y-84596957D01*
X47363194Y-84454100D01*
X47220337Y-84382671D01*
X46934622Y-84382671D01*
X46791765Y-84454100D01*
X47434622Y-85311242D02*
X47291765Y-85382671D01*
X46934622Y-85382671D01*
X46791765Y-85311242D01*
X46720337Y-85168385D01*
X46720337Y-85025528D01*
X46791765Y-84882671D01*
X46934622Y-84811242D01*
X47291765Y-84811242D01*
X47434622Y-84739814D01*
X48006051Y-84382671D02*
X48791765Y-84382671D01*
X48006051Y-85382671D01*
X48791765Y-85382671D01*
X49220337Y-84382671D02*
X49577480Y-85382671D01*
X49934622Y-84382671D02*
X49577480Y-85382671D01*
X49434622Y-85739814D01*
X49363194Y-85811242D01*
X49220337Y-85882671D01*
X50291765Y-84382671D02*
X50863194Y-84382671D01*
X50506051Y-85382671D02*
X50506051Y-84096957D01*
X50577480Y-83954100D01*
X50720337Y-83882671D01*
X50863194Y-83882671D01*
X51577480Y-85382671D02*
X51434622Y-85311242D01*
X51363194Y-85168385D01*
X51363194Y-83882671D01*
X52148908Y-85382671D02*
X52148908Y-84382671D01*
X52148908Y-83882671D02*
X52077480Y-83954100D01*
X52148908Y-84025528D01*
X52220337Y-83954100D01*
X52148908Y-83882671D01*
X52148908Y-84025528D01*
X53434622Y-85311242D02*
X53291765Y-85382671D01*
X53006051Y-85382671D01*
X52863194Y-85311242D01*
X52791765Y-85168385D01*
X52791765Y-84596957D01*
X52863194Y-84454100D01*
X53006051Y-84382671D01*
X53291765Y-84382671D01*
X53434622Y-84454100D01*
X53506051Y-84596957D01*
X53506051Y-84739814D01*
X52791765Y-84882671D01*
X55934622Y-85311242D02*
X55791765Y-85382671D01*
X55506051Y-85382671D01*
X55363194Y-85311242D01*
X55291765Y-85239814D01*
X55220337Y-85096957D01*
X55220337Y-84668385D01*
X55291765Y-84525528D01*
X55363194Y-84454100D01*
X55506051Y-84382671D01*
X55791765Y-84382671D01*
X55934622Y-84454100D01*
X56791765Y-85382671D02*
X56648908Y-85311242D01*
X56577480Y-85239814D01*
X56506051Y-85096957D01*
X56506051Y-84668385D01*
X56577480Y-84525528D01*
X56648908Y-84454100D01*
X56791765Y-84382671D01*
X57006051Y-84382671D01*
X57148908Y-84454100D01*
X57220337Y-84525528D01*
X57291765Y-84668385D01*
X57291765Y-85096957D01*
X57220337Y-85239814D01*
X57148908Y-85311242D01*
X57006051Y-85382671D01*
X56791765Y-85382671D01*
X57934622Y-84382671D02*
X57934622Y-85382671D01*
X57934622Y-84525528D02*
X58006051Y-84454100D01*
X58148908Y-84382671D01*
X58363194Y-84382671D01*
X58506051Y-84454100D01*
X58577480Y-84596957D01*
X58577480Y-85382671D01*
X59077480Y-84382671D02*
X59648908Y-84382671D01*
X59291765Y-83882671D02*
X59291765Y-85168385D01*
X59363194Y-85311242D01*
X59506051Y-85382671D01*
X59648908Y-85382671D01*
X60363194Y-85382671D02*
X60220337Y-85311242D01*
X60148908Y-85239814D01*
X60077480Y-85096957D01*
X60077480Y-84668385D01*
X60148908Y-84525528D01*
X60220337Y-84454100D01*
X60363194Y-84382671D01*
X60577480Y-84382671D01*
X60720337Y-84454100D01*
X60791765Y-84525528D01*
X60863194Y-84668385D01*
X60863194Y-85096957D01*
X60791765Y-85239814D01*
X60720337Y-85311242D01*
X60577480Y-85382671D01*
X60363194Y-85382671D01*
X61720337Y-85382671D02*
X61577480Y-85311242D01*
X61506051Y-85168385D01*
X61506051Y-83882671D01*
X63434622Y-85382671D02*
X63434622Y-83882671D01*
X63434622Y-84454100D02*
X63577480Y-84382671D01*
X63863194Y-84382671D01*
X64006051Y-84454100D01*
X64077480Y-84525528D01*
X64148908Y-84668385D01*
X64148908Y-85096957D01*
X64077480Y-85239814D01*
X64006051Y-85311242D01*
X63863194Y-85382671D01*
X63577480Y-85382671D01*
X63434622Y-85311242D01*
X65006051Y-85382671D02*
X64863194Y-85311242D01*
X64791765Y-85239814D01*
X64720337Y-85096957D01*
X64720337Y-84668385D01*
X64791765Y-84525528D01*
X64863194Y-84454100D01*
X65006051Y-84382671D01*
X65220337Y-84382671D01*
X65363194Y-84454100D01*
X65434622Y-84525528D01*
X65506051Y-84668385D01*
X65506051Y-85096957D01*
X65434622Y-85239814D01*
X65363194Y-85311242D01*
X65220337Y-85382671D01*
X65006051Y-85382671D01*
X66791765Y-85382671D02*
X66791765Y-84596957D01*
X66720337Y-84454100D01*
X66577480Y-84382671D01*
X66291765Y-84382671D01*
X66148908Y-84454100D01*
X66791765Y-85311242D02*
X66648908Y-85382671D01*
X66291765Y-85382671D01*
X66148908Y-85311242D01*
X66077480Y-85168385D01*
X66077480Y-85025528D01*
X66148908Y-84882671D01*
X66291765Y-84811242D01*
X66648908Y-84811242D01*
X66791765Y-84739814D01*
X67506051Y-85382671D02*
X67506051Y-84382671D01*
X67506051Y-84668385D02*
X67577480Y-84525528D01*
X67648908Y-84454100D01*
X67791765Y-84382671D01*
X67934622Y-84382671D01*
X69077480Y-85382671D02*
X69077480Y-83882671D01*
X69077480Y-85311242D02*
X68934622Y-85382671D01*
X68648908Y-85382671D01*
X68506051Y-85311242D01*
X68434622Y-85239814D01*
X68363194Y-85096957D01*
X68363194Y-84668385D01*
X68434622Y-84525528D01*
X68506051Y-84454100D01*
X68648908Y-84382671D01*
X68934622Y-84382671D01*
X69077480Y-84454100D01*
X69791765Y-85239814D02*
X69863194Y-85311242D01*
X69791765Y-85382671D01*
X69720337Y-85311242D01*
X69791765Y-85239814D01*
X69791765Y-85382671D01*
X70506051Y-85382671D02*
X70506051Y-83882671D01*
X70648908Y-84811242D02*
X71077480Y-85382671D01*
X71077480Y-84382671D02*
X70506051Y-84954100D01*
X71720337Y-85382671D02*
X71720337Y-84382671D01*
X71720337Y-83882671D02*
X71648908Y-83954100D01*
X71720337Y-84025528D01*
X71791765Y-83954100D01*
X71720337Y-83882671D01*
X71720337Y-84025528D01*
X73077480Y-85311242D02*
X72934622Y-85382671D01*
X72648908Y-85382671D01*
X72506051Y-85311242D01*
X72434622Y-85239814D01*
X72363194Y-85096957D01*
X72363194Y-84668385D01*
X72434622Y-84525528D01*
X72506051Y-84454100D01*
X72648908Y-84382671D01*
X72934622Y-84382671D01*
X73077480Y-84454100D01*
X74363194Y-85382671D02*
X74363194Y-84596957D01*
X74291765Y-84454100D01*
X74148908Y-84382671D01*
X73863194Y-84382671D01*
X73720337Y-84454100D01*
X74363194Y-85311242D02*
X74220337Y-85382671D01*
X73863194Y-85382671D01*
X73720337Y-85311242D01*
X73648908Y-85168385D01*
X73648908Y-85025528D01*
X73720337Y-84882671D01*
X73863194Y-84811242D01*
X74220337Y-84811242D01*
X74363194Y-84739814D01*
X75720337Y-85382671D02*
X75720337Y-83882671D01*
X75720337Y-85311242D02*
X75577480Y-85382671D01*
X75291765Y-85382671D01*
X75148908Y-85311242D01*
X75077480Y-85239814D01*
X75006051Y-85096957D01*
X75006051Y-84668385D01*
X75077480Y-84525528D01*
X75148908Y-84454100D01*
X75291765Y-84382671D01*
X75577480Y-84382671D01*
X75720337Y-84454100D01*
X76077480Y-85525528D02*
X77220337Y-85525528D01*
X77577480Y-84382671D02*
X77577480Y-85882671D01*
X77577480Y-84454100D02*
X77720337Y-84382671D01*
X78006051Y-84382671D01*
X78148908Y-84454100D01*
X78220337Y-84525528D01*
X78291765Y-84668385D01*
X78291765Y-85096957D01*
X78220337Y-85239814D01*
X78148908Y-85311242D01*
X78006051Y-85382671D01*
X77720337Y-85382671D01*
X77577480Y-85311242D01*
X79577480Y-85311242D02*
X79434622Y-85382671D01*
X79148908Y-85382671D01*
X79006051Y-85311242D01*
X78934622Y-85239814D01*
X78863194Y-85096957D01*
X78863194Y-84668385D01*
X78934622Y-84525528D01*
X79006051Y-84454100D01*
X79148908Y-84382671D01*
X79434622Y-84382671D01*
X79577480Y-84454100D01*
X80220337Y-85382671D02*
X80220337Y-83882671D01*
X80220337Y-84454100D02*
X80363194Y-84382671D01*
X80648908Y-84382671D01*
X80791765Y-84454100D01*
X80863194Y-84525528D01*
X80934622Y-84668385D01*
X80934622Y-85096957D01*
X80863194Y-85239814D01*
X80791765Y-85311242D01*
X80648908Y-85382671D01*
X80363194Y-85382671D01*
X80220337Y-85311242D01*
X37002480Y-80504100D02*
X145002480Y-80504100D01*
X38363194Y-82611242D02*
X38577480Y-82682671D01*
X38934622Y-82682671D01*
X39077480Y-82611242D01*
X39148908Y-82539814D01*
X39220337Y-82396957D01*
X39220337Y-82254100D01*
X39148908Y-82111242D01*
X39077480Y-82039814D01*
X38934622Y-81968385D01*
X38648908Y-81896957D01*
X38506051Y-81825528D01*
X38434622Y-81754100D01*
X38363194Y-81611242D01*
X38363194Y-81468385D01*
X38434622Y-81325528D01*
X38506051Y-81254100D01*
X38648908Y-81182671D01*
X39006051Y-81182671D01*
X39220337Y-81254100D01*
X39863194Y-82682671D02*
X39863194Y-81182671D01*
X40506051Y-82682671D02*
X40506051Y-81896957D01*
X40434622Y-81754100D01*
X40291765Y-81682671D01*
X40077480Y-81682671D01*
X39934622Y-81754100D01*
X39863194Y-81825528D01*
X41791765Y-82611242D02*
X41648908Y-82682671D01*
X41363194Y-82682671D01*
X41220337Y-82611242D01*
X41148908Y-82468385D01*
X41148908Y-81896957D01*
X41220337Y-81754100D01*
X41363194Y-81682671D01*
X41648908Y-81682671D01*
X41791765Y-81754100D01*
X41863194Y-81896957D01*
X41863194Y-82039814D01*
X41148908Y-82182671D01*
X43077480Y-82611242D02*
X42934622Y-82682671D01*
X42648908Y-82682671D01*
X42506051Y-82611242D01*
X42434622Y-82468385D01*
X42434622Y-81896957D01*
X42506051Y-81754100D01*
X42648908Y-81682671D01*
X42934622Y-81682671D01*
X43077480Y-81754100D01*
X43148908Y-81896957D01*
X43148908Y-82039814D01*
X42434622Y-82182671D01*
X43577480Y-81682671D02*
X44148908Y-81682671D01*
X43791765Y-81182671D02*
X43791765Y-82468385D01*
X43863194Y-82611242D01*
X44006051Y-82682671D01*
X44148908Y-82682671D01*
X44648908Y-82539814D02*
X44720337Y-82611242D01*
X44648908Y-82682671D01*
X44577480Y-82611242D01*
X44648908Y-82539814D01*
X44648908Y-82682671D01*
X44648908Y-81754100D02*
X44720337Y-81825528D01*
X44648908Y-81896957D01*
X44577480Y-81825528D01*
X44648908Y-81754100D01*
X44648908Y-81896957D01*
D11*
X39054622Y-78896957D02*
X39268908Y-78968385D01*
X39340337Y-79039814D01*
X39411765Y-79182671D01*
X39411765Y-79396957D01*
X39340337Y-79539814D01*
X39268908Y-79611242D01*
X39126051Y-79682671D01*
X38554622Y-79682671D01*
X38554622Y-78182671D01*
X39054622Y-78182671D01*
X39197480Y-78254100D01*
X39268908Y-78325528D01*
X39340337Y-78468385D01*
X39340337Y-78611242D01*
X39268908Y-78754100D01*
X39197480Y-78825528D01*
X39054622Y-78896957D01*
X38554622Y-78896957D01*
X40054622Y-79682671D02*
X40054622Y-78682671D01*
X40054622Y-78182671D02*
X39983194Y-78254100D01*
X40054622Y-78325528D01*
X40126051Y-78254100D01*
X40054622Y-78182671D01*
X40054622Y-78325528D01*
X40554622Y-78682671D02*
X41126051Y-78682671D01*
X40768908Y-78182671D02*
X40768908Y-79468385D01*
X40840337Y-79611242D01*
X40983194Y-79682671D01*
X41126051Y-79682671D01*
X42268908Y-79611242D02*
X42126051Y-79682671D01*
X41840337Y-79682671D01*
X41697480Y-79611242D01*
X41626051Y-79539814D01*
X41554622Y-79396957D01*
X41554622Y-78968385D01*
X41626051Y-78825528D01*
X41697480Y-78754100D01*
X41840337Y-78682671D01*
X42126051Y-78682671D01*
X42268908Y-78754100D01*
X42911765Y-79682671D02*
X42911765Y-78682671D01*
X42911765Y-78968385D02*
X42983194Y-78825528D01*
X43054622Y-78754100D01*
X43197480Y-78682671D01*
X43340337Y-78682671D01*
X44483194Y-79682671D02*
X44483194Y-78896957D01*
X44411765Y-78754100D01*
X44268908Y-78682671D01*
X43983194Y-78682671D01*
X43840337Y-78754100D01*
X44483194Y-79611242D02*
X44340337Y-79682671D01*
X43983194Y-79682671D01*
X43840337Y-79611242D01*
X43768908Y-79468385D01*
X43768908Y-79325528D01*
X43840337Y-79182671D01*
X43983194Y-79111242D01*
X44340337Y-79111242D01*
X44483194Y-79039814D01*
X45054622Y-78682671D02*
X45840337Y-78682671D01*
X45054622Y-79682671D01*
X45840337Y-79682671D01*
X46983194Y-79611242D02*
X46840337Y-79682671D01*
X46554622Y-79682671D01*
X46411765Y-79611242D01*
X46340337Y-79468385D01*
X46340337Y-78896957D01*
X46411765Y-78754100D01*
X46554622Y-78682671D01*
X46840337Y-78682671D01*
X46983194Y-78754100D01*
X47054622Y-78896957D01*
X47054622Y-79039814D01*
X46340337Y-79182671D01*
X48768908Y-79254100D02*
X49483194Y-79254100D01*
X48626051Y-79682671D02*
X49126051Y-78182671D01*
X49626051Y-79682671D01*
X50626051Y-78896957D02*
X50840337Y-78968385D01*
X50911765Y-79039814D01*
X50983194Y-79182671D01*
X50983194Y-79396957D01*
X50911765Y-79539814D01*
X50840337Y-79611242D01*
X50697480Y-79682671D01*
X50126051Y-79682671D01*
X50126051Y-78182671D01*
X50626051Y-78182671D01*
X50768908Y-78254100D01*
X50840337Y-78325528D01*
X50911765Y-78468385D01*
X50911765Y-78611242D01*
X50840337Y-78754100D01*
X50768908Y-78825528D01*
X50626051Y-78896957D01*
X50126051Y-78896957D01*
X53197480Y-80254100D02*
X53126051Y-80182671D01*
X52983194Y-79968385D01*
X52911765Y-79825528D01*
X52840337Y-79611242D01*
X52768908Y-79254100D01*
X52768908Y-78968385D01*
X52840337Y-78611242D01*
X52911765Y-78396957D01*
X52983194Y-78254100D01*
X53126051Y-78039814D01*
X53197480Y-77968385D01*
X54626051Y-79539814D02*
X54554622Y-79611242D01*
X54340337Y-79682671D01*
X54197480Y-79682671D01*
X53983194Y-79611242D01*
X53840337Y-79468385D01*
X53768908Y-79325528D01*
X53697480Y-79039814D01*
X53697480Y-78825528D01*
X53768908Y-78539814D01*
X53840337Y-78396957D01*
X53983194Y-78254100D01*
X54197480Y-78182671D01*
X54340337Y-78182671D01*
X54554622Y-78254100D01*
X54626051Y-78325528D01*
X56126051Y-79539814D02*
X56054622Y-79611242D01*
X55840337Y-79682671D01*
X55697480Y-79682671D01*
X55483194Y-79611242D01*
X55340337Y-79468385D01*
X55268908Y-79325528D01*
X55197480Y-79039814D01*
X55197480Y-78825528D01*
X55268908Y-78539814D01*
X55340337Y-78396957D01*
X55483194Y-78254100D01*
X55697480Y-78182671D01*
X55840337Y-78182671D01*
X56054622Y-78254100D01*
X56126051Y-78325528D01*
X58411765Y-78896957D02*
X58626051Y-78968385D01*
X58697480Y-79039814D01*
X58768908Y-79182671D01*
X58768908Y-79396957D01*
X58697480Y-79539814D01*
X58626051Y-79611242D01*
X58483194Y-79682671D01*
X57911765Y-79682671D01*
X57911765Y-78182671D01*
X58411765Y-78182671D01*
X58554622Y-78254100D01*
X58626051Y-78325528D01*
X58697480Y-78468385D01*
X58697480Y-78611242D01*
X58626051Y-78754100D01*
X58554622Y-78825528D01*
X58411765Y-78896957D01*
X57911765Y-78896957D01*
X59697480Y-78968385D02*
X59697480Y-79682671D01*
X59197480Y-78182671D02*
X59697480Y-78968385D01*
X60197480Y-78182671D01*
X60697480Y-79111242D02*
X61840337Y-79111242D01*
X62554622Y-79682671D02*
X62554622Y-78182671D01*
X63411765Y-79682671D01*
X63411765Y-78182671D01*
X64983194Y-79539814D02*
X64911765Y-79611242D01*
X64697480Y-79682671D01*
X64554622Y-79682671D01*
X64340337Y-79611242D01*
X64197480Y-79468385D01*
X64126051Y-79325528D01*
X64054622Y-79039814D01*
X64054622Y-78825528D01*
X64126051Y-78539814D01*
X64197480Y-78396957D01*
X64340337Y-78254100D01*
X64554622Y-78182671D01*
X64697480Y-78182671D01*
X64911765Y-78254100D01*
X64983194Y-78325528D01*
X65626051Y-79111242D02*
X66768908Y-79111242D01*
X67411765Y-79611242D02*
X67626051Y-79682671D01*
X67983194Y-79682671D01*
X68126051Y-79611242D01*
X68197480Y-79539814D01*
X68268908Y-79396957D01*
X68268908Y-79254100D01*
X68197480Y-79111242D01*
X68126051Y-79039814D01*
X67983194Y-78968385D01*
X67697480Y-78896957D01*
X67554622Y-78825528D01*
X67483194Y-78754100D01*
X67411765Y-78611242D01*
X67411765Y-78468385D01*
X67483194Y-78325528D01*
X67554622Y-78254100D01*
X67697480Y-78182671D01*
X68054622Y-78182671D01*
X68268908Y-78254100D01*
X68840337Y-79254100D02*
X69554622Y-79254100D01*
X68697480Y-79682671D02*
X69197480Y-78182671D01*
X69697480Y-79682671D01*
X70054622Y-80254100D02*
X70126051Y-80182671D01*
X70268908Y-79968385D01*
X70340337Y-79825528D01*
X70411765Y-79611242D01*
X70483194Y-79254100D01*
X70483194Y-78968385D01*
X70411765Y-78611242D01*
X70340337Y-78396957D01*
X70268908Y-78254100D01*
X70126051Y-78039814D01*
X70054622Y-77968385D01*
D10*
X57002480Y-90504100D02*
X57002480Y-93504100D01*
X121002480Y-90504100D02*
X121002480Y-97004100D01*
D13*
X3408680Y16846550D02*
X3408680Y16313150D01*
X3218180Y17151350D02*
X3027680Y16579850D01*
X3522980Y16579850D01*
X13394828Y-18738850D02*
X13613903Y-18357850D01*
X13852028Y-18738850D02*
X13752016Y-17938750D01*
X13447216Y-17938750D01*
X13375778Y-17976850D01*
X13342441Y-18014950D01*
X13313866Y-18091150D01*
X13328153Y-18205450D01*
X13375778Y-18281650D01*
X13418641Y-18319750D01*
X13499603Y-18357850D01*
X13804403Y-18357850D01*
X12742366Y-18700750D02*
X12823328Y-18738850D01*
X12975728Y-18738850D01*
X13047166Y-18700750D01*
X13075741Y-18624550D01*
X13037641Y-18319750D01*
X12990016Y-18243550D01*
X12909053Y-18205450D01*
X12756653Y-18205450D01*
X12685216Y-18243550D01*
X12656641Y-18319750D01*
X12666166Y-18395950D01*
X13056691Y-18472150D01*
X12375653Y-18205450D02*
X12251828Y-18738850D01*
X11994653Y-18205450D01*
X11747003Y-18662650D02*
X11713666Y-18700750D01*
X11756528Y-18738850D01*
X11789866Y-18700750D01*
X11747003Y-18662650D01*
X11756528Y-18738850D01*
X11323141Y-18014950D02*
X11280278Y-17976850D01*
X11199316Y-17938750D01*
X11008816Y-17938750D01*
X10937378Y-17976850D01*
X10904041Y-18014950D01*
X10875466Y-18091150D01*
X10884991Y-18167350D01*
X10937378Y-18281650D01*
X11451728Y-18738850D01*
X10956428Y-18738850D01*
X10604003Y-18662650D02*
X10570666Y-18700750D01*
X10613528Y-18738850D01*
X10646866Y-18700750D01*
X10604003Y-18662650D01*
X10613528Y-18738850D01*
X9813428Y-18738850D02*
X10270628Y-18738850D01*
X10042028Y-18738850D02*
X9942016Y-17938750D01*
X10032503Y-18053050D01*
X10118228Y-18129250D01*
X10199191Y-18167350D01*
D14*
G04 #@! TO.P,,~*
G04 #@! TO.N,N/C*
X16500280Y-17496900D03*
G04 #@! TD*
G04 #@! TO.P,,~*
G04 #@! TO.N,N/C*
X17000280Y16003100D03*
G04 #@! TD*
G04 #@! TO.P,,~*
G04 #@! TO.N,N/C*
X-17499720Y15503100D03*
G04 #@! TD*
D15*
G04 #@! TO.P,U9,6*
G04 #@! TO.N,VCC*
X11046460Y-10271760D03*
G04 #@! TO.P,U9,5*
G04 #@! TO.N,Net-(C35-Pad2)*
X11998960Y-10271760D03*
G04 #@! TO.P,U9,4*
G04 #@! TO.N,Net-(C40-Pad1)*
X12951460Y-10271760D03*
G04 #@! TO.P,U9,3*
G04 #@! TO.N,VCOM*
X12951460Y-7731760D03*
G04 #@! TO.P,U9,2*
G04 #@! TO.N,GND*
X11998960Y-7731760D03*
G04 #@! TO.P,U9,1*
G04 #@! TO.N,VCOM*
X11046460Y-7731760D03*
G04 #@! TD*
G04 #@! TO.P,U7,6*
G04 #@! TO.N,VCCA*
X10947400Y13271500D03*
G04 #@! TO.P,U7,5*
G04 #@! TO.N,Net-(C29-Pad2)*
X9994900Y13271500D03*
G04 #@! TO.P,U7,4*
G04 #@! TO.N,Net-(C32-Pad1)*
X9042400Y13271500D03*
G04 #@! TO.P,U7,3*
G04 #@! TO.N,Net-(C31-Pad1)*
X9042400Y10731500D03*
G04 #@! TO.P,U7,2*
G04 #@! TO.N,GND*
X9994900Y10731500D03*
G04 #@! TO.P,U7,1*
G04 #@! TO.N,Net-(C31-Pad1)*
X10947400Y10731500D03*
G04 #@! TD*
D16*
G04 #@! TO.P,R38,1*
G04 #@! TO.N,Net-(D8-Pad1)*
X15300960Y-13761720D03*
G04 #@! TO.P,R38,2*
G04 #@! TO.N,VCC*
X15300960Y-12237720D03*
G04 #@! TD*
D17*
G04 #@! TO.P,Q6,S*
G04 #@! TO.N,GND*
X11084560Y7388860D03*
G04 #@! TO.P,Q6,G*
G04 #@! TO.N,/POWER/VUSB*
X11084560Y5610860D03*
G04 #@! TO.P,Q6,D*
G04 #@! TO.N,Net-(Q6-PadD)*
X13116560Y6499860D03*
G04 #@! TD*
G04 #@! TO.P,Q5,S*
G04 #@! TO.N,/POWER/VBAT*
X12011660Y-2616200D03*
G04 #@! TO.P,Q5,G*
G04 #@! TO.N,VCOM*
X13789660Y-2616200D03*
G04 #@! TO.P,Q5,D*
G04 #@! TO.N,Net-(Q5-PadD)*
X12900660Y-584200D03*
G04 #@! TD*
D18*
G04 #@! TO.P,P9,1*
G04 #@! TO.N,GND*
X12900660Y-4399280D03*
G04 #@! TD*
D16*
G04 #@! TO.P,R33,1*
G04 #@! TO.N,Net-(R33-Pad1)*
X13401040Y9161780D03*
G04 #@! TO.P,R33,2*
G04 #@! TO.N,Net-(Q6-PadD)*
X13401040Y7637780D03*
G04 #@! TD*
D19*
G04 #@! TO.P,P2,1*
G04 #@! TO.N,+BATT*
X4663440Y-6499860D03*
D20*
G04 #@! TO.P,P2,2*
G04 #@! TO.N,Net-(D2-Pad1)*
X6334760Y-6499860D03*
G04 #@! TD*
D19*
G04 #@! TO.P,P4,1*
G04 #@! TO.N,+BATT*
X4663440Y-12499340D03*
D20*
G04 #@! TO.P,P4,2*
G04 #@! TO.N,Net-(D4-Pad1)*
X6334760Y-12499340D03*
G04 #@! TD*
D19*
G04 #@! TO.P,P1,1*
G04 #@! TO.N,+BATT*
X4663440Y-3500120D03*
D20*
G04 #@! TO.P,P1,2*
G04 #@! TO.N,Net-(D1-Pad1)*
X6334760Y-3500120D03*
G04 #@! TD*
D19*
G04 #@! TO.P,P3,1*
G04 #@! TO.N,+BATT*
X4663440Y-9499600D03*
D20*
G04 #@! TO.P,P3,2*
G04 #@! TO.N,Net-(D3-Pad1)*
X6334760Y-9499600D03*
G04 #@! TD*
D21*
G04 #@! TO.P,D4,2*
G04 #@! TO.N,+BATT*
X4399280Y-14000480D03*
G04 #@! TO.P,D4,1*
G04 #@! TO.N,Net-(D4-Pad1)*
X6598920Y-14000480D03*
G04 #@! TD*
G04 #@! TO.P,D3,2*
G04 #@! TO.N,+BATT*
X4399280Y-11000740D03*
G04 #@! TO.P,D3,1*
G04 #@! TO.N,Net-(D3-Pad1)*
X6598920Y-11000740D03*
G04 #@! TD*
G04 #@! TO.P,D2,2*
G04 #@! TO.N,+BATT*
X4399280Y-8001000D03*
G04 #@! TO.P,D2,1*
G04 #@! TO.N,Net-(D2-Pad1)*
X6598920Y-8001000D03*
G04 #@! TD*
G04 #@! TO.P,D1,2*
G04 #@! TO.N,+BATT*
X4399280Y-5001260D03*
G04 #@! TO.P,D1,1*
G04 #@! TO.N,Net-(D1-Pad1)*
X6598920Y-5001260D03*
G04 #@! TD*
D16*
G04 #@! TO.P,R32,1*
G04 #@! TO.N,GND*
X10099040Y-2961640D03*
G04 #@! TO.P,R32,2*
G04 #@! TO.N,/POWER/VBAT*
X10099040Y-1437640D03*
G04 #@! TD*
D22*
G04 #@! TO.P,R30,1*
G04 #@! TO.N,Net-(Q5-PadD)*
X11361420Y-198120D03*
G04 #@! TO.P,R30,2*
G04 #@! TO.N,+BATT*
X9837420Y-198120D03*
G04 #@! TD*
G04 #@! TO.P,R29,1*
G04 #@! TO.N,DGND*
X9237980Y-6002020D03*
G04 #@! TO.P,R29,2*
G04 #@! TO.N,GND*
X10761980Y-6002020D03*
G04 #@! TD*
D16*
G04 #@! TO.P,R28,1*
G04 #@! TO.N,DGND*
X7998460Y-11264900D03*
G04 #@! TO.P,R28,2*
G04 #@! TO.N,Net-(C35-Pad2)*
X7998460Y-9740900D03*
G04 #@! TD*
G04 #@! TO.P,R23,1*
G04 #@! TO.N,Net-(C35-Pad2)*
X9499600Y-8763000D03*
G04 #@! TO.P,R23,2*
G04 #@! TO.N,/PGOOD*
X9499600Y-7239000D03*
G04 #@! TD*
G04 #@! TO.P,R21,1*
G04 #@! TO.N,/PGOOD*
X8001000Y-7239000D03*
G04 #@! TO.P,R21,2*
G04 #@! TO.N,VCC*
X8001000Y-8763000D03*
G04 #@! TD*
G04 #@! TO.P,R20,1*
G04 #@! TO.N,Net-(C35-Pad2)*
X9499600Y-9740900D03*
G04 #@! TO.P,R20,2*
G04 #@! TO.N,VCC*
X9499600Y-11264900D03*
G04 #@! TD*
D22*
G04 #@! TO.P,R16,1*
G04 #@! TO.N,Net-(C29-Pad2)*
X12237720Y10500360D03*
G04 #@! TO.P,R16,2*
G04 #@! TO.N,VCCA*
X13761720Y10500360D03*
G04 #@! TD*
G04 #@! TO.P,R17,1*
G04 #@! TO.N,Net-(C31-Pad1)*
X9961880Y7500620D03*
G04 #@! TO.P,R17,2*
G04 #@! TO.N,VCOM*
X8437880Y7500620D03*
G04 #@! TD*
G04 #@! TO.P,R18,1*
G04 #@! TO.N,AGND*
X6238240Y12499340D03*
G04 #@! TO.P,R18,2*
G04 #@! TO.N,Net-(C29-Pad2)*
X7762240Y12499340D03*
G04 #@! TD*
G04 #@! TO.P,R19,1*
G04 #@! TO.N,AGND*
X6738620Y8999220D03*
G04 #@! TO.P,R19,2*
G04 #@! TO.N,GND*
X8262620Y8999220D03*
G04 #@! TD*
D16*
G04 #@! TO.P,C4,1*
G04 #@! TO.N,DGND*
X-10287000Y4508500D03*
G04 #@! TO.P,C4,2*
G04 #@! TO.N,VCC*
X-10287000Y6032500D03*
G04 #@! TD*
G04 #@! TO.P,C41,1*
G04 #@! TO.N,/POWER/VBAT*
X8699500Y-1437640D03*
G04 #@! TO.P,C41,2*
G04 #@! TO.N,GND*
X8699500Y-2961640D03*
G04 #@! TD*
G04 #@! TO.P,C40,1*
G04 #@! TO.N,Net-(C40-Pad1)*
X13830300Y-12237720D03*
G04 #@! TO.P,C40,2*
G04 #@! TO.N,DGND*
X13830300Y-13761720D03*
G04 #@! TD*
G04 #@! TO.P,C39,1*
G04 #@! TO.N,+BATT*
X10899140Y1041400D03*
G04 #@! TO.P,C39,2*
G04 #@! TO.N,GND*
X10899140Y2565400D03*
G04 #@! TD*
D22*
G04 #@! TO.P,C38,1*
G04 #@! TO.N,VCOM*
X13261340Y-6002020D03*
G04 #@! TO.P,C38,2*
G04 #@! TO.N,GND*
X11737340Y-6002020D03*
G04 #@! TD*
D16*
G04 #@! TO.P,C37,1*
G04 #@! TO.N,VCC*
X9499600Y-12240260D03*
G04 #@! TO.P,C37,2*
G04 #@! TO.N,DGND*
X9499600Y-13764260D03*
G04 #@! TD*
D22*
G04 #@! TO.P,C36,1*
G04 #@! TO.N,/POWER/VUSB*
X-11960860Y7800340D03*
G04 #@! TO.P,C36,2*
G04 #@! TO.N,DGND*
X-10436860Y7800340D03*
G04 #@! TD*
G04 #@! TO.P,C35,1*
G04 #@! TO.N,VCC*
X10739120Y-12499340D03*
G04 #@! TO.P,C35,2*
G04 #@! TO.N,Net-(C35-Pad2)*
X12263120Y-12499340D03*
G04 #@! TD*
G04 #@! TO.P,C32,1*
G04 #@! TO.N,Net-(C32-Pad1)*
X7762240Y11000740D03*
G04 #@! TO.P,C32,2*
G04 #@! TO.N,AGND*
X6238240Y11000740D03*
G04 #@! TD*
G04 #@! TO.P,C31,1*
G04 #@! TO.N,Net-(C31-Pad1)*
X10756900Y9001760D03*
G04 #@! TO.P,C31,2*
G04 #@! TO.N,GND*
X9232900Y9001760D03*
G04 #@! TD*
G04 #@! TO.P,C30,1*
G04 #@! TO.N,VCCA*
X12237720Y13500100D03*
G04 #@! TO.P,C30,2*
G04 #@! TO.N,AGND*
X13761720Y13500100D03*
G04 #@! TD*
G04 #@! TO.P,C29,1*
G04 #@! TO.N,VCCA*
X13761720Y12001500D03*
G04 #@! TO.P,C29,2*
G04 #@! TO.N,Net-(C29-Pad2)*
X12237720Y12001500D03*
G04 #@! TD*
D23*
G04 #@! TO.P,U8,17*
G04 #@! TO.N,GND*
X8999220Y1998980D03*
D24*
X8999220Y1998980D03*
X8498840Y1498600D03*
X9499600Y1498600D03*
X8498840Y2499360D03*
X9499600Y2499360D03*
G04 #@! TD*
D25*
G04 #@! TO.P,U6,1*
G04 #@! TO.N,/USBD+*
X-8049260Y7749540D03*
G04 #@! TO.P,U6,3*
G04 #@! TO.N,/USBD-*
X-9349740Y7749540D03*
G04 #@! TO.P,U6,5*
G04 #@! TO.N,VCC*
X-8699500Y9649460D03*
G04 #@! TO.P,U6,2*
G04 #@! TO.N,DGND*
X-8699500Y7749540D03*
G04 #@! TO.P,U6,4*
G04 #@! TO.N,/POWER/D-*
X-9349740Y9649460D03*
G04 #@! TO.P,U6,6*
G04 #@! TO.N,/POWER/D+*
X-8049260Y9649460D03*
G04 #@! TD*
D26*
G04 #@! TO.P,D8,1*
G04 #@! TO.N,Net-(D8-Pad1)*
X16028915Y-14969245D03*
D27*
G04 #@! TD*
G04 #@! TO.N,Net-(D8-Pad1)*
G04 #@! TO.C,D8*
G36*
X16028915Y-14405285D02*
X16592875Y-14969245D01*
X16028915Y-15533205D01*
X15464955Y-14969245D01*
X16028915Y-14405285D01*
X16028915Y-14405285D01*
G37*
D26*
G04 #@! TO.P,D8,2*
G04 #@! TO.N,DGND*
X14969245Y-16028915D03*
D27*
G04 #@! TD*
G04 #@! TO.N,DGND*
G04 #@! TO.C,D8*
G36*
X14969245Y-15464955D02*
X15533205Y-16028915D01*
X14969245Y-16592875D01*
X14405285Y-16028915D01*
X14969245Y-15464955D01*
X14969245Y-15464955D01*
G37*
D28*
G04 #@! TO.P,BT1,1*
G04 #@! TO.N,+BATT*
X12700000Y1752600D03*
D29*
G04 #@! TO.P,BT1,2*
G04 #@! TO.N,GND*
X12700000Y3652520D03*
G04 #@! TD*
D30*
G04 #@! TO.P,P7,*
G04 #@! TO.N,*
X-14500860Y14800580D03*
D31*
X-6550660Y14401800D03*
D32*
X-11699240Y14800580D03*
X-9301480Y14800580D03*
D33*
X-7401560Y12250420D03*
X-13599160Y12250420D03*
D34*
G04 #@! TO.P,P7,3*
G04 #@! TO.N,/POWER/D+*
X-10500360Y12100560D03*
G04 #@! TO.P,P7,4*
G04 #@! TO.N,N/C*
X-9850120Y12100560D03*
G04 #@! TO.P,P7,5*
G04 #@! TO.N,DGND*
X-9199880Y12100560D03*
G04 #@! TO.P,P7,2*
G04 #@! TO.N,/POWER/D-*
X-11150600Y12100560D03*
G04 #@! TO.P,P7,1*
G04 #@! TO.N,/POWER/VUSB*
X-11800840Y12100560D03*
D35*
G04 #@! TO.P,P7,*
G04 #@! TO.N,*
X-6850380Y14800580D03*
G04 #@! TD*
D36*
G04 #@! TO.P,U11,38*
G04 #@! TO.N,DGND*
X1080280Y-18546900D03*
G04 #@! TO.P,U11,37*
G04 #@! TO.N,/MOTOR2*
X1080280Y-17276900D03*
G04 #@! TO.P,U11,36*
G04 #@! TO.N,/I2C_SCL_VCCA*
X1080280Y-16006900D03*
G04 #@! TO.P,U11,35*
G04 #@! TO.N,Net-(U11-Pad35)*
X1080280Y-14736900D03*
G04 #@! TO.P,U11,34*
G04 #@! TO.N,Net-(U11-Pad34)*
X1080280Y-13466900D03*
G04 #@! TO.P,U11,33*
G04 #@! TO.N,/I2C_SCK_VCCA*
X1080280Y-12196900D03*
G04 #@! TO.P,U11,32*
G04 #@! TO.N,N/C*
X1080280Y-10926900D03*
G04 #@! TO.P,U11,31*
G04 #@! TO.N,/Red*
X1080280Y-9656900D03*
G04 #@! TO.P,U11,30*
G04 #@! TO.N,/PGOOD*
X1080280Y-8386900D03*
G04 #@! TO.P,U11,29*
G04 #@! TO.N,N/C*
X1080280Y-7116900D03*
G04 #@! TO.P,U11,28*
G04 #@! TO.N,/CHG*
X1080280Y-5846900D03*
G04 #@! TO.P,U11,27*
G04 #@! TO.N,/MOTOR4*
X1080280Y-4576900D03*
G04 #@! TO.P,U11,26*
G04 #@! TO.N,/MOTOR3*
X1080280Y-3306900D03*
G04 #@! TO.P,U11,25*
G04 #@! TO.N,Net-(Q8-Pad3)*
X1080280Y-2036900D03*
D37*
G04 #@! TO.P,U11,24*
G04 #@! TO.N,Net-(R6-Pad1)*
X-2204720Y-546900D03*
G04 #@! TO.P,U11,23*
G04 #@! TO.N,N/C*
X-3474720Y-546900D03*
G04 #@! TO.P,U11,22*
X-4744720Y-546900D03*
G04 #@! TO.P,U11,21*
X-6014720Y-546900D03*
G04 #@! TO.P,U11,20*
X-7284720Y-546900D03*
G04 #@! TO.P,U11,19*
X-8554720Y-546900D03*
G04 #@! TO.P,U11,18*
X-9824720Y-546900D03*
G04 #@! TO.P,U11,17*
X-11094720Y-546900D03*
G04 #@! TO.P,U11,16*
G04 #@! TO.N,/MOTOR1*
X-12364720Y-546900D03*
G04 #@! TO.P,U11,15*
G04 #@! TO.N,DGND*
X-13634720Y-546900D03*
D36*
G04 #@! TO.P,U11,14*
G04 #@! TO.N,N/C*
X-16919720Y-2036900D03*
G04 #@! TO.P,U11,13*
X-16919720Y-3306900D03*
G04 #@! TO.P,U11,12*
G04 #@! TO.N,/EN2*
X-16919720Y-4576900D03*
G04 #@! TO.P,U11,11*
G04 #@! TO.N,N/C*
X-16919720Y-5846900D03*
G04 #@! TO.P,U11,10*
G04 #@! TO.N,/EN1*
X-16919720Y-7116900D03*
G04 #@! TO.P,U11,9*
G04 #@! TO.N,/INT_GA*
X-16919720Y-8386900D03*
G04 #@! TO.P,U11,8*
G04 #@! TO.N,/SYSOFF*
X-16919720Y-9656900D03*
G04 #@! TO.P,U11,7*
G04 #@! TO.N,N/C*
X-16919720Y-10926900D03*
G04 #@! TO.P,U11,6*
X-16919720Y-12196900D03*
G04 #@! TO.P,U11,5*
X-16919720Y-13466900D03*
G04 #@! TO.P,U11,4*
X-16919720Y-14736900D03*
G04 #@! TO.P,U11,3*
G04 #@! TO.N,Net-(C5-Pad2)*
X-16919720Y-16006900D03*
G04 #@! TO.P,U11,2*
G04 #@! TO.N,VCC*
X-16919720Y-17276900D03*
G04 #@! TO.P,U11,1*
G04 #@! TO.N,DGND*
X-16919720Y-18546900D03*
D38*
G04 #@! TO.P,U11,39*
X-8219720Y-10846900D03*
D39*
G04 #@! TD*
G04 #@! TO.N,DGND*
G04 #@! TO.C,U11*
X-5473700Y-8105140D03*
G04 #@! TO.N,DGND*
G04 #@! TO.C,U11*
X-6888480Y-8110220D03*
X-8326120Y-8115300D03*
X-9631680Y-8115300D03*
X-10960100Y-8102600D03*
X-5478780Y-9588500D03*
X-6868160Y-9585960D03*
X-8282940Y-9575800D03*
X-9674860Y-9486900D03*
X-10955020Y-9519920D03*
X-5478780Y-10927080D03*
X-6878320Y-10924540D03*
X-8249920Y-10932160D03*
X-9654540Y-10909300D03*
X-10937240Y-10876280D03*
X-5478780Y-12258040D03*
X-6868160Y-12316460D03*
X-8260080Y-12301220D03*
X-9654540Y-12291060D03*
X-10988040Y-12280900D03*
X-5461000Y-13589000D03*
X-6868160Y-13596620D03*
X-8282940Y-13606780D03*
X-9621520Y-13596620D03*
X-10967720Y-13583920D03*
D40*
G04 #@! TD*
G04 #@! TO.P,U11,39*
G04 #@! TO.N,DGND*
X-10332720Y-8785860D03*
G04 #@! TO.P,U11,39*
G04 #@! TO.N,DGND*
X-8940800Y-8818880D03*
X-7569200Y-8829040D03*
X-6177280Y-8851900D03*
X-6187440Y-10266680D03*
X-6197600Y-11635740D03*
X-6210300Y-12948920D03*
X-7579360Y-10271760D03*
X-7592060Y-11656060D03*
X-7602220Y-12971780D03*
X-8973820Y-10241280D03*
X-10322560Y-10185400D03*
X-8983980Y-11643360D03*
X-8983980Y-13004800D03*
X-10355580Y-11633200D03*
X-10353040Y-12981940D03*
G04 #@! TD*
D41*
G04 #@! TO.P,U12,3*
G04 #@! TO.N,/USBD+*
X-14976920Y5716020D03*
G04 #@! TO.P,U12,4*
G04 #@! TO.N,/USBD-*
X-14476920Y5716020D03*
G04 #@! TO.P,U12,5*
G04 #@! TO.N,Net-(R7-Pad1)*
X-13976920Y5716020D03*
G04 #@! TO.P,U12,6*
G04 #@! TO.N,VCC*
X-13476920Y5716020D03*
G04 #@! TO.P,U12,2*
G04 #@! TO.N,DGND*
X-15476920Y5716020D03*
G04 #@! TO.P,U12,1*
G04 #@! TO.N,N/C*
X-15976920Y5716020D03*
G04 #@! TO.P,U12,16*
X-14976920Y1716020D03*
G04 #@! TO.P,U12,17*
X-15476920Y1716020D03*
G04 #@! TO.P,U12,18*
X-15976920Y1716020D03*
G04 #@! TO.P,U12,15*
X-14476920Y1716020D03*
G04 #@! TO.P,U12,14*
X-13976920Y1716020D03*
G04 #@! TO.P,U12,13*
X-13476920Y1716020D03*
D42*
G04 #@! TO.P,U12,9*
G04 #@! TO.N,Net-(R7-Pad2)*
X-12726920Y3966020D03*
G04 #@! TO.P,U12,8*
G04 #@! TO.N,N/C*
X-12726920Y4466020D03*
G04 #@! TO.P,U12,7*
G04 #@! TO.N,VCC*
X-12726920Y4966020D03*
G04 #@! TO.P,U12,10*
G04 #@! TO.N,N/C*
X-12726920Y3466020D03*
G04 #@! TO.P,U12,11*
X-12726920Y2966020D03*
G04 #@! TO.P,U12,12*
X-12726920Y2466020D03*
G04 #@! TO.P,U12,22*
X-16726920Y3966020D03*
G04 #@! TO.P,U12,21*
G04 #@! TO.N,Net-(U11-Pad34)*
X-16726920Y3466020D03*
G04 #@! TO.P,U12,20*
G04 #@! TO.N,Net-(U11-Pad35)*
X-16726920Y2966020D03*
G04 #@! TO.P,U12,19*
G04 #@! TO.N,Net-(Q7-Pad2)*
X-16726920Y2466020D03*
G04 #@! TO.P,U12,23*
G04 #@! TO.N,Net-(Q8-Pad2)*
X-16726920Y4466020D03*
G04 #@! TO.P,U12,24*
G04 #@! TO.N,N/C*
X-16726920Y4966020D03*
D43*
G04 #@! TO.P,U12,25*
G04 #@! TO.N,DGND*
X-14726920Y3716020D03*
D44*
X-14726920Y3716020D03*
X-15392400Y4340860D03*
X-15392400Y3070860D03*
X-14122400Y4340860D03*
X-14122400Y3070860D03*
G04 #@! TD*
D45*
G04 #@! TO.P,C3,1*
G04 #@! TO.N,DGND*
X-11567160Y4525820D03*
G04 #@! TO.P,C3,2*
G04 #@! TO.N,VCC*
X-11567160Y5925820D03*
G04 #@! TD*
D46*
G04 #@! TO.N,/MOTOR1*
X-2439671Y-2736851D03*
G04 #@! TO.N,/MOTOR2*
X1678940Y1440180D03*
X1097280Y-17297400D03*
G04 #@! TO.N,/MOTOR3*
X1049020Y-996900D03*
G04 #@! TO.N,/MOTOR4*
X-1569720Y-4406900D03*
G04 #@! TO.N,AGND*
X8569960Y11739880D03*
X6210300Y13721080D03*
X-5600700Y7299960D03*
X5250280Y11253100D03*
X-2499360Y8600440D03*
X14000280Y14003100D03*
G04 #@! TO.N,DGND*
X8199120Y-4099560D03*
X9500280Y-14896900D03*
X8069580Y-13996900D03*
X8001000Y-10650220D03*
X8999220Y-4399280D03*
X-10563860Y3403100D03*
X-4999720Y-17496900D03*
X-15499720Y-18554700D03*
X-14930120Y368300D03*
X462280Y1816100D03*
X-8554720Y-4279900D03*
G04 #@! TO.N,GND*
X11501120Y-11300460D03*
X12931140Y-11460480D03*
X10010140Y5648960D03*
X12000280Y-7746900D03*
X14201140Y-8699500D03*
X14000480Y-7000240D03*
X10899140Y-2400300D03*
X17000280Y-5996900D03*
G04 #@! TO.N,VCC*
X-11630660Y9298940D03*
X14800580Y769620D03*
X13070840Y-12999720D03*
X3068320Y-11470640D03*
X15430500Y14333220D03*
X8161020Y-12070080D03*
X-16040100Y13479780D03*
X-15194280Y-17264380D03*
X-18999720Y4003100D03*
X-18863939Y-6515100D03*
X-4599940Y8470900D03*
X-3268980Y7350760D03*
X-249720Y6503100D03*
X1000280Y3503100D03*
G04 #@! TO.N,VCCA*
X-7099300Y7299960D03*
X-3700780Y13700760D03*
X4831080Y13609320D03*
X2500280Y8503100D03*
X11000740Y14099540D03*
X10099040Y14300200D03*
X-5100320Y9499600D03*
G04 #@! TO.N,VCOM*
X8509000Y6510020D03*
X14099540Y-10899140D03*
X14800580Y-200660D03*
X14099540Y-9900920D03*
X12760960Y-6850380D03*
X6489700Y2301240D03*
G04 #@! TO.N,Net-(Q6-PadD)*
X8900160Y-599440D03*
G04 #@! TO.N,/I2C_SCK_VCCA*
X-843280Y3451860D03*
X-1813560Y-8851900D03*
G04 #@! TO.N,/I2C_SCL_VCCA*
X-6390640Y10899140D03*
X-934720Y-15836900D03*
X-6649720Y3213100D03*
G04 #@! TO.N,/PGOOD*
X3250280Y4503100D03*
X7858760Y4338320D03*
X2764440Y-8155940D03*
G04 #@! TO.N,/SYSOFF*
X7185660Y5412740D03*
X-12385040Y-6606540D03*
G04 #@! TO.N,Net-(R33-Pad1)*
X14259560Y8823960D03*
G04 #@! TO.N,/EN1*
X-2687320Y6784340D03*
X-15077440Y-4488180D03*
G04 #@! TO.N,/INT_GA*
X500280Y7503100D03*
X-14460220Y-6311900D03*
X-3733800Y2999740D03*
G04 #@! TO.N,/CHG*
X2250280Y358140D03*
G04 #@! TO.N,/EN2*
X10081260Y3929380D03*
X3500280Y-496900D03*
X-16753398Y-4597400D03*
G04 #@! TO.N,Net-(U11-Pad34)*
X-11729720Y-5371280D03*
X-5685340Y-5371280D03*
G04 #@! TO.N,Net-(R7-Pad1)*
X-14417040Y7683500D03*
G04 #@! TO.N,Net-(R7-Pad2)*
X-11475720Y3517900D03*
G04 #@! TO.N,/POWER/VUSB*
X5798820Y5389880D03*
X-12700000Y7800340D03*
X7520940Y541020D03*
G04 #@! TO.N,Net-(Q8-Pad2)*
X-16987520Y-723900D03*
G04 #@! TO.N,Net-(Q7-Pad2)*
X-10718800Y1557020D03*
G04 #@! TO.N,Net-(Q8-Pad3)*
X-2839720Y-4406900D03*
G04 #@! TO.N,Net-(R6-Pad1)*
X7480300Y14300200D03*
G04 #@! TO.N,Net-(C5-Pad2)*
X-14076680Y-15420340D03*
G04 #@! TO.N,/USBD+*
X-16652240Y6718300D03*
X-7980680Y4579620D03*
G04 #@! TO.N,/USBD-*
X-14635480Y6850380D03*
X-12501880Y6576060D03*
G04 #@! TO.N,/Red*
X-17739360Y10284460D03*
X-2172781Y-12820461D03*
G04 #@! TD*
D47*
G04 #@! TO.N,+BATT*
X10899140Y863600D02*
X9837420Y-198120D01*
D48*
X4399280Y-6964680D02*
X4864100Y-6499860D01*
X4399280Y-5001260D02*
X4399280Y-3964940D01*
X4399280Y-11000740D02*
X4399280Y-9964420D01*
X4399280Y-14000480D02*
X4399280Y-12964160D01*
X10899140Y1041400D02*
X11938000Y1041400D01*
X11938000Y1041400D02*
X12700000Y1953260D01*
X4399280Y-12964160D02*
X4864100Y-12499340D01*
X4399280Y-9964420D02*
X4864100Y-9499600D01*
X4399280Y-3964940D02*
X4864100Y-3500120D01*
D47*
X10899140Y1041400D02*
X10899140Y863600D01*
D48*
X4399280Y-8001000D02*
X4399280Y-6964680D01*
D49*
G04 #@! TO.N,/MOTOR1*
X-3398521Y-3695701D02*
X-9900919Y-3695701D01*
X-2439671Y-2736851D02*
X-3398521Y-3695701D01*
D50*
X-10015919Y-3695701D02*
X-9900919Y-3695701D01*
X-12364720Y-1346900D02*
X-10015919Y-3695701D01*
X-12364720Y-546900D02*
X-12364720Y-1346900D01*
G04 #@! TO.N,/MOTOR3*
X1770280Y-3136900D02*
X970280Y-3136900D01*
D49*
X2941319Y-2075861D02*
X2941319Y-1950280D01*
X1880280Y-3136900D02*
X2941319Y-2075861D01*
X1080280Y-3136900D02*
X1880280Y-3136900D01*
D50*
X2941319Y-1950280D02*
X2941319Y-1687939D01*
X2250280Y-996900D02*
X1049020Y-996900D01*
X2941319Y-1687939D02*
X2250280Y-996900D01*
G04 #@! TO.N,/MOTOR4*
X970280Y-4406900D02*
X-1569720Y-4406900D01*
X-1569720Y-4406900D02*
X-1569720Y-4406900D01*
G04 #@! TO.N,/POWER/D+*
X-8379460Y10449560D02*
X-9768840Y10449560D01*
X-8049260Y9649460D02*
X-8049260Y10119360D01*
X-10500360Y11181080D02*
X-10500360Y12100560D01*
X-9768840Y10449560D02*
X-10500360Y11181080D01*
X-8049260Y10119360D02*
X-8379460Y10449560D01*
G04 #@! TO.N,/POWER/D-*
X-9349740Y9989820D02*
X-9448800Y10088880D01*
X-11150600Y11170920D02*
X-11150600Y12100560D01*
X-9448800Y10088880D02*
X-10068560Y10088880D01*
X-10068560Y10088880D02*
X-11150600Y11170920D01*
X-9349740Y9649460D02*
X-9349740Y9989820D01*
G04 #@! TO.N,/POWER/VBAT*
X12011660Y-2616200D02*
X12011660Y-2011680D01*
X10099040Y-1437640D02*
X8699500Y-1437640D01*
X11437620Y-1437640D02*
X10099040Y-1437640D01*
X12011660Y-2011680D02*
X11437620Y-1437640D01*
D47*
G04 #@! TO.N,AGND*
X6235700Y12496800D02*
X6238240Y12499340D01*
X6238240Y13693140D02*
X6238240Y12499340D01*
X13761720Y13500100D02*
X13761720Y14638020D01*
X6738620Y8569960D02*
X6738620Y8999220D01*
X6238240Y12499340D02*
X6238240Y11000740D01*
X13761720Y13538200D02*
X13761720Y13500100D01*
X6210300Y13721080D02*
X6238240Y13693140D01*
X-2501900Y8602980D02*
X-2499360Y8600440D01*
D51*
G04 #@! TO.N,DGND*
X-17029720Y-18376900D02*
X-17829720Y-18376900D01*
D47*
X4099560Y-749300D02*
X5989320Y-749300D01*
D48*
X-7399020Y10269220D02*
X-8130540Y11000740D01*
D47*
X13497560Y-13764260D02*
X13830300Y-13761720D01*
X7998460Y-11264900D02*
X7998460Y-10652760D01*
X10571480Y-14201140D02*
X10134600Y-13764260D01*
X5989320Y-749300D02*
X5999480Y-739140D01*
X8498840Y-4399280D02*
X8199120Y-4099560D01*
X9237980Y-6002020D02*
X9237980Y-4638040D01*
X-9100820Y8549640D02*
X-9687560Y8549640D01*
X9237980Y-4638040D02*
X8999220Y-4399280D01*
X-8699500Y8148320D02*
X-9100820Y8549640D01*
X13830300Y-13761720D02*
X13208000Y-13761720D01*
X7480300Y-13479780D02*
X8069580Y-14069060D01*
X8199120Y-3949700D02*
X6979920Y-2730500D01*
D48*
X-8001000Y8498840D02*
X-8351520Y8498840D01*
D47*
X6979920Y-970280D02*
X6748780Y-739140D01*
X13208000Y-13761720D02*
X12768580Y-14201140D01*
X7955280Y-11264900D02*
X7480300Y-11739880D01*
X8199120Y-4099560D02*
X8199120Y-3949700D01*
X14968220Y-14899640D02*
X13830300Y-13761720D01*
X12768580Y-14201140D02*
X10571480Y-14201140D01*
D48*
X-9199880Y12100560D02*
X-9199880Y11191240D01*
X9499600Y-13764260D02*
X9499600Y-13782040D01*
D47*
X13497560Y-13764260D02*
X13830300Y-13761720D01*
D48*
X-8351520Y8498840D02*
X-8699500Y8150860D01*
X-7399020Y9100820D02*
X-7399020Y10269220D01*
D47*
X6748780Y-739140D02*
X5999480Y-739140D01*
X14721840Y-16276320D02*
X14968220Y-16029940D01*
X14968220Y-16029940D02*
X14968220Y-14899640D01*
X14721840Y-16276320D02*
X14968220Y-16029940D01*
D48*
X-8699500Y8148320D02*
X-8699500Y8150860D01*
X-7399020Y9100820D02*
X-8001000Y8498840D01*
D47*
X7998460Y-11264900D02*
X7955280Y-11264900D01*
X7998460Y-10652760D02*
X8001000Y-10650220D01*
X8999220Y-4399280D02*
X8498840Y-4399280D01*
D48*
X-8130540Y11000740D02*
X-9009380Y11000740D01*
D47*
X7480300Y-11739880D02*
X7480300Y-13479780D01*
X-9687560Y8549640D02*
X-10436860Y7800340D01*
X10134600Y-13764260D02*
X9499600Y-13764260D01*
X6979920Y-2730500D02*
X6979920Y-970280D01*
D48*
X-9009380Y11000740D02*
X-9199880Y11191240D01*
X-8699500Y7749540D02*
X-8699500Y4800600D01*
D47*
X-10563860Y3317240D02*
X-10563860Y3317240D01*
D51*
X-15476920Y4425380D02*
X-15392400Y4340860D01*
X-15476920Y5716020D02*
X-15476920Y4425380D01*
X-16768654Y-18546900D02*
X-16844187Y-18622433D01*
X-14930120Y146100D02*
X-14930120Y368300D01*
X-14930120Y368300D02*
X-14930120Y146100D01*
X-10054360Y4504460D02*
X-10043160Y4493260D01*
D47*
X-11549840Y4508500D02*
X-11567160Y4525820D01*
X-10287000Y4508500D02*
X-11549840Y4508500D01*
D48*
X-9042400Y4800600D02*
X-8699500Y4800600D01*
X-9334500Y4508500D02*
X-9042400Y4800600D01*
X-10287000Y4508500D02*
X-9334500Y4508500D01*
X-8699500Y7749540D02*
X-8699500Y8148320D01*
D47*
X-10287000Y3779960D02*
X-10563860Y3503100D01*
X-10287000Y4508500D02*
X-10287000Y3779960D01*
X-16911920Y-18554700D02*
X-16919720Y-18546900D01*
X-15499720Y-18554700D02*
X-16911920Y-18554700D01*
D48*
G04 #@! TO.N,GND*
X12352020Y3799840D02*
X12700000Y3451860D01*
X11737340Y-5161280D02*
X12499340Y-4399280D01*
D52*
X9232900Y9001760D02*
X9232900Y6776720D01*
X8265160Y9001760D02*
X8262620Y8999220D01*
X9232900Y6776720D02*
X10010140Y5999480D01*
X9232900Y9001760D02*
X8265160Y9001760D01*
D50*
X10010140Y5999480D02*
X10010140Y5648960D01*
X11084560Y7388860D02*
X11084560Y7086600D01*
D48*
X10899140Y2999740D02*
X11699240Y3799840D01*
X10899140Y2565400D02*
X10899140Y2999740D01*
D52*
X11737340Y-6002020D02*
X10761980Y-6002020D01*
X11998960Y-7731760D02*
X11968480Y-7731760D01*
X10337800Y-2961640D02*
X10899140Y-2400300D01*
X11968480Y-7731760D02*
X11899900Y-7800340D01*
X10099040Y-2961640D02*
X10337800Y-2961640D01*
X9994900Y10731500D02*
X9994900Y9763760D01*
X11899900Y-7800340D02*
X11998960Y-7731760D01*
D48*
X11699240Y3799840D02*
X12352020Y3799840D01*
D52*
X11737340Y-6936740D02*
X11998960Y-7198360D01*
X10099040Y-2961640D02*
X8699500Y-2961640D01*
D48*
X11737340Y-6002020D02*
X11737340Y-5161280D01*
D52*
X11998960Y-7198360D02*
X11998960Y-7731760D01*
D50*
X10010140Y6012180D02*
X10010140Y5999480D01*
X11084560Y7086600D02*
X10010140Y6012180D01*
D52*
X9994900Y9763760D02*
X9232900Y9001760D01*
X11737340Y-6002020D02*
X11737340Y-6936740D01*
D48*
X12499340Y-4399280D02*
X12900660Y-4399280D01*
D50*
G04 #@! TO.N,VCC*
X-8920480Y8999220D02*
X-11330940Y8999220D01*
X-8699500Y9220200D02*
X-8920480Y8999220D01*
X-8699500Y9220200D02*
X-8699500Y9649460D01*
X-11330940Y8999220D02*
X-11630660Y9298940D01*
D48*
X9499600Y-12240260D02*
X10480040Y-12240260D01*
D47*
X14919960Y8590280D02*
X14919960Y11899900D01*
D48*
X9685020Y-10634980D02*
X9499600Y-10820400D01*
D47*
X14625320Y6878320D02*
X14417040Y6670040D01*
D48*
X8821420Y-12240260D02*
X8651240Y-12070080D01*
X9499600Y-10820400D02*
X9499600Y-11264900D01*
D47*
X6987540Y-8658860D02*
X3660140Y-8658860D01*
D48*
X10020300Y-10634980D02*
X9685020Y-10634980D01*
D47*
X12570460Y-13500100D02*
X13070840Y-12999720D01*
D48*
X8651240Y-12070080D02*
X8161020Y-12070080D01*
D47*
X15400020Y-12501880D02*
X14902180Y-12999720D01*
X10739120Y-13159740D02*
X11079480Y-13500100D01*
D48*
X9499600Y-12240260D02*
X8821420Y-12240260D01*
D47*
X3309620Y-9009380D02*
X3309620Y-11229340D01*
X14625320Y8295640D02*
X14625320Y6878320D01*
X15450820Y12430760D02*
X15450820Y14249400D01*
X10739120Y-12499340D02*
X10739120Y-13159740D01*
X11079480Y-13500100D02*
X12570460Y-13500100D01*
X14919960Y11899900D02*
X15450820Y12430760D01*
D48*
X10383520Y-10271760D02*
X10020300Y-10634980D01*
D47*
X3660140Y-8658860D02*
X3309620Y-9009380D01*
X7091680Y-8763000D02*
X6987540Y-8658860D01*
D48*
X11046460Y-10271760D02*
X10383520Y-10271760D01*
D47*
X15450820Y14249400D02*
X15430500Y14333220D01*
X15300960Y-12237720D02*
X15400020Y-12501880D01*
X14417040Y6670040D02*
X14417040Y1153160D01*
D48*
X9499600Y-11264900D02*
X9499600Y-12240260D01*
D47*
X10480040Y-12240260D02*
X10739120Y-12499340D01*
X14417040Y1153160D02*
X14800580Y769620D01*
X14902180Y-12999720D02*
X13070840Y-12999720D01*
X7091680Y-8763000D02*
X8001000Y-8763000D01*
X14919960Y8590280D02*
X14625320Y8295640D01*
X3068320Y-11470640D02*
X3309620Y-11229340D01*
X-16040100Y13479780D02*
X-15280640Y12720320D01*
X-16919720Y-17276900D02*
X-17481261Y-17276900D01*
X-13476920Y7656254D02*
X-13476920Y5716020D01*
X-15135680Y-17276900D02*
X-15097760Y-17238980D01*
X-16919720Y-17276900D02*
X-15135680Y-17276900D01*
D51*
X-10155960Y5904460D02*
X-10043160Y6017260D01*
D50*
X-11460480Y6032500D02*
X-11567160Y5925820D01*
D47*
X-12859080Y5929860D02*
X-12701502Y5929860D01*
X-13072920Y5716020D02*
X-12859080Y5929860D01*
X-13476920Y5716020D02*
X-13072920Y5716020D01*
X-12726920Y5370020D02*
X-13072920Y5716020D01*
X-12726920Y4966020D02*
X-12726920Y5370020D01*
X-15280640Y12720320D02*
X-15280640Y9503100D01*
D48*
X-15280640Y9503100D02*
X-14999720Y9503100D01*
X-13476920Y7980300D02*
X-13476920Y7656254D01*
X-14999720Y9503100D02*
X-13476920Y7980300D01*
D47*
X-12697462Y5925820D02*
X-11567160Y5925820D01*
X-12701502Y5929860D02*
X-12697462Y5925820D01*
X-10393680Y5925820D02*
X-10287000Y6032500D01*
X-11567160Y5925820D02*
X-10393680Y5925820D01*
D48*
X-18999720Y5784020D02*
X-18999720Y4003100D01*
X-15280640Y9503100D02*
X-18999720Y5784020D01*
D50*
X-4599940Y8470900D02*
X-3479800Y7350760D01*
X-3479800Y7350760D02*
X-3268980Y7350760D01*
D47*
X1000280Y3503100D02*
X1000280Y3503100D01*
X1000280Y5253100D02*
X-249720Y6503100D01*
X1000280Y3503100D02*
X1000280Y5253100D01*
G04 #@! TO.N,VCCA*
X13761720Y12001500D02*
X13761720Y10500360D01*
X12499340Y13500100D02*
X12999720Y12999720D01*
X10947400Y13271500D02*
X12009120Y13271500D01*
X10947400Y14046200D02*
X11000740Y14099540D01*
X12999720Y12999720D02*
X12999720Y12763500D01*
X10947400Y13271500D02*
X10947400Y14046200D01*
X11000740Y13324840D02*
X10947400Y13271500D01*
X11000740Y14099540D02*
X11000740Y13324840D01*
X12009120Y13271500D02*
X12237720Y13500100D01*
X10299700Y14099540D02*
X10099040Y14300200D01*
X12999720Y12763500D02*
X13761720Y12001500D01*
X11000740Y14099540D02*
X10299700Y14099540D01*
X12237720Y13500100D02*
X12499340Y13500100D01*
D48*
G04 #@! TO.N,VCOM*
X8437880Y7500620D02*
X8437880Y6581140D01*
X8437880Y6581140D02*
X8509000Y6510020D01*
D52*
X13789660Y-2616200D02*
X13789660Y-1910080D01*
X13789660Y-1910080D02*
X14800580Y-899160D01*
X14800580Y-899160D02*
X14800580Y-200660D01*
X11046460Y-8475980D02*
X11046460Y-7731760D01*
X12951460Y-8376920D02*
X12578080Y-8750300D01*
X12578080Y-8750300D02*
X11320780Y-8750300D01*
X12951460Y-7246620D02*
X12951460Y-7040880D01*
X11320780Y-8750300D02*
X11046460Y-8475980D01*
X12951460Y-7246620D02*
X12951460Y-7731760D01*
X13261340Y-6936740D02*
X12951460Y-7246620D01*
X13261340Y-6002020D02*
X13261340Y-6936740D01*
X12951460Y-7731760D02*
X12951460Y-8376920D01*
X12951460Y-7040880D02*
X12760960Y-6850380D01*
D50*
G04 #@! TO.N,Net-(C29-Pad2)*
X9994900Y12565380D02*
X9994900Y12306300D01*
X10200640Y12100560D02*
X12138660Y12100560D01*
X9819640Y12390120D02*
X7871460Y12390120D01*
X9994900Y12306300D02*
X10200640Y12100560D01*
X9994900Y13271500D02*
X9994900Y12565380D01*
X7871460Y12390120D02*
X7762240Y12499340D01*
X12237720Y12001500D02*
X12237720Y10500360D01*
X12138660Y12100560D02*
X12237720Y12001500D01*
X9994900Y12565380D02*
X9819640Y12390120D01*
D47*
G04 #@! TO.N,Net-(C31-Pad1)*
X9961880Y8562340D02*
X9961880Y7500620D01*
D50*
X10947400Y10731500D02*
X10947400Y10048240D01*
X9398000Y11699240D02*
X10599420Y11699240D01*
D47*
X10756900Y9001760D02*
X10401300Y9001760D01*
D50*
X10947400Y10048240D02*
X10756900Y9857740D01*
X10947400Y11351260D02*
X10947400Y10731500D01*
X10599420Y11699240D02*
X10947400Y11351260D01*
D47*
X10401300Y9001760D02*
X9961880Y8562340D01*
D50*
X10756900Y9857740D02*
X10756900Y9001760D01*
X9042400Y10731500D02*
X9042400Y11343640D01*
X9042400Y11343640D02*
X9398000Y11699240D01*
G04 #@! TO.N,Net-(C32-Pad1)*
X8498840Y13500100D02*
X7299960Y13500100D01*
X7299960Y13500100D02*
X7000240Y13200380D01*
X9042400Y13271500D02*
X8727440Y13271500D01*
X7000240Y11762740D02*
X7762240Y11000740D01*
X7000240Y13200380D02*
X7000240Y11762740D01*
X8727440Y13271500D02*
X8498840Y13500100D01*
G04 #@! TO.N,Net-(C35-Pad2)*
X12263120Y-11643360D02*
X12263120Y-12499340D01*
X11838940Y-9441180D02*
X10414000Y-9441180D01*
X10414000Y-9441180D02*
X10358120Y-9497060D01*
X11998960Y-9601200D02*
X11838940Y-9441180D01*
X10358120Y-9497060D02*
X10353040Y-9497060D01*
X12100560Y-11071860D02*
X12100560Y-11480800D01*
X9499600Y-8763000D02*
X9499600Y-9740900D01*
X12100560Y-11480800D02*
X12263120Y-11643360D01*
X11998960Y-10970260D02*
X12100560Y-11071860D01*
X7998460Y-9740900D02*
X9499600Y-9740900D01*
X11998960Y-10271760D02*
X11998960Y-9601200D01*
X10353040Y-9497060D02*
X10109200Y-9740900D01*
X10109200Y-9740900D02*
X9499600Y-9740900D01*
X11998960Y-10271760D02*
X11998960Y-10970260D01*
G04 #@! TO.N,Net-(C40-Pad1)*
X12951460Y-10271760D02*
X12951460Y-10632440D01*
X13830300Y-11511280D02*
X13830300Y-12237720D01*
X12951460Y-10632440D02*
X13830300Y-11511280D01*
D48*
G04 #@! TO.N,Net-(D1-Pad1)*
X6598920Y-5001260D02*
X6598920Y-3964940D01*
X6598920Y-3964940D02*
X6134100Y-3500120D01*
G04 #@! TO.N,Net-(D2-Pad1)*
X6598920Y-8001000D02*
X6598920Y-6964680D01*
X6598920Y-6964680D02*
X6134100Y-6499860D01*
G04 #@! TO.N,Net-(D3-Pad1)*
X6598920Y-11000740D02*
X6598920Y-9964420D01*
X6598920Y-9964420D02*
X6134100Y-9499600D01*
G04 #@! TO.N,Net-(D4-Pad1)*
X6598920Y-14000480D02*
X6598920Y-12964160D01*
X6598920Y-12964160D02*
X6134100Y-12499340D01*
D50*
G04 #@! TO.N,Net-(D8-Pad1)*
X15400020Y-14338300D02*
X16029940Y-14968220D01*
X15300960Y-13761720D02*
X15400020Y-14338300D01*
D47*
G04 #@! TO.N,Net-(Q5-PadD)*
X11361420Y-198120D02*
X11902440Y-198120D01*
X12288520Y-584200D02*
X12900660Y-584200D01*
X11902440Y-198120D02*
X12288520Y-584200D01*
D50*
G04 #@! TO.N,Net-(Q6-PadD)*
X7399020Y2999740D02*
X7399020Y1399540D01*
X6901180Y160020D02*
X7401560Y-340360D01*
X10899140Y3909060D02*
X10909300Y3909060D01*
X7401560Y-340360D02*
X8641080Y-340360D01*
X7399020Y1399540D02*
X6901180Y901700D01*
X13116560Y7520940D02*
X13401040Y7637780D01*
X10200640Y3210560D02*
X7609840Y3210560D01*
X8641080Y-340360D02*
X8900160Y-599440D01*
X7609840Y3210560D02*
X7399020Y2999740D01*
X12999720Y7637780D02*
X13116560Y7520940D01*
X10909300Y3909060D02*
X11399520Y4399280D01*
X13116560Y6499860D02*
X13116560Y5527040D01*
X6901180Y901700D02*
X6901180Y160020D01*
X13116560Y6499860D02*
X13116560Y7454900D01*
X10200640Y3210560D02*
X10899140Y3909060D01*
X11988800Y4399280D02*
X13116560Y5527040D01*
X13116560Y7454900D02*
X13401040Y7637780D01*
X13401040Y7637780D02*
X12999720Y7637780D01*
X11399520Y4399280D02*
X11988800Y4399280D01*
G04 #@! TO.N,/I2C_SCK_VCCA*
X1080280Y-12196900D02*
X280280Y-12196900D01*
X-2131059Y-9169399D02*
X-1813560Y-8851900D01*
X-2744282Y-9782622D02*
X-2131059Y-9169399D01*
X-2744282Y-13094782D02*
X-2744282Y-9782622D01*
X-2447102Y-13391962D02*
X-2744282Y-13094782D01*
X-1567982Y-13391962D02*
X-2447102Y-13391962D01*
X-372920Y-12196900D02*
X-1567982Y-13391962D01*
X1080280Y-12196900D02*
X-372920Y-12196900D01*
G04 #@! TO.N,/I2C_SCL_VCCA*
X-6009640Y6350000D02*
X-6009640Y6860540D01*
X-6390640Y7241540D02*
X-6390640Y10899140D01*
X-6111240Y6248400D02*
X-6009640Y6350000D01*
X-6009640Y6860540D02*
X-6390640Y7241540D01*
X-6111240Y6248400D02*
X-6111240Y5021580D01*
X-6111240Y5021580D02*
X-6649720Y4483100D01*
X-6649720Y4483100D02*
X-6649720Y3213100D01*
X-6649720Y3213100D02*
X-6649720Y3213100D01*
X910280Y-15836900D02*
X1080280Y-16006900D01*
X-934720Y-15836900D02*
X910280Y-15836900D01*
G04 #@! TO.N,/PGOOD*
X12900660Y-3200400D02*
X12700000Y-3401060D01*
X12900660Y-2095500D02*
X14030960Y-965200D01*
X11788140Y4856480D02*
X10888980Y4856480D01*
X13990320Y8249920D02*
X13840460Y8399780D01*
X11844020Y4912360D02*
X11788140Y4856480D01*
X12400280Y8399780D02*
X11844020Y7843520D01*
X9999980Y-6738620D02*
X9499600Y-7239000D01*
X10888980Y4856480D02*
X10657840Y4625340D01*
X12900660Y-3200400D02*
X12900660Y-2095500D01*
X14239240Y7109460D02*
X14030960Y6901180D01*
X11844020Y7843520D02*
X11844020Y4912360D01*
X13840460Y8399780D02*
X12400280Y8399780D01*
X8145780Y4625340D02*
X7858760Y4338320D01*
X12700000Y-3401060D02*
X11399520Y-3401060D01*
X9999980Y-4800600D02*
X9999980Y-6738620D01*
X14239240Y8150860D02*
X14239240Y7109460D01*
X14140180Y8249920D02*
X14239240Y8150860D01*
X13990320Y8249920D02*
X14140180Y8249920D01*
X11399520Y-3401060D02*
X9999980Y-4800600D01*
X14030960Y-965200D02*
X14030960Y6901180D01*
X10657840Y4625340D02*
X8145780Y4625340D01*
X9499600Y-7239000D02*
X8001000Y-7239000D01*
X2533480Y-8386900D02*
X2764440Y-8155940D01*
X1080280Y-8386900D02*
X2533480Y-8386900D01*
X2764440Y-8155940D02*
X2764440Y-8155940D01*
G04 #@! TO.N,/SYSOFF*
X-12385040Y-7192220D02*
X-12385040Y-6606540D01*
X-12385040Y-6809740D02*
X-12385040Y-6606540D01*
X-12385040Y-6606540D02*
X-12385040Y-6809740D01*
X-14849720Y-9656900D02*
X-16919720Y-9656900D01*
X-12385040Y-7192220D02*
X-14849720Y-9656900D01*
D49*
G04 #@! TO.N,Net-(R33-Pad1)*
X14259560Y8823960D02*
X13967460Y9161780D01*
X13401040Y9161780D02*
X13967460Y9161780D01*
D50*
G04 #@! TO.N,/EN1*
X-16394100Y-7116900D02*
X-15077440Y-5800240D01*
X-16919720Y-7116900D02*
X-16394100Y-7116900D01*
X-15077440Y-5800240D02*
X-15077440Y-4488180D01*
X-15077440Y-4488180D02*
X-15077440Y-4488180D01*
G04 #@! TO.N,/INT_GA*
X-3733800Y2999740D02*
X-3733800Y2999740D01*
X-1750060Y6667500D02*
X-914460Y7503100D01*
X-1750060Y4983480D02*
X-1750060Y6667500D01*
X-914460Y7503100D02*
X500280Y7503100D01*
X-3733800Y2999740D02*
X-1750060Y4983480D01*
X-14460220Y-7380600D02*
X-14460220Y-6502400D01*
X-16919720Y-8386900D02*
X-15466520Y-8386900D01*
X-15466520Y-8386900D02*
X-14460220Y-7380600D01*
G04 #@! TO.N,/CHG*
X2250280Y-493992D02*
X2250280Y358140D01*
X1080280Y-5846900D02*
X1880280Y-5846900D01*
X1880280Y-5846900D02*
X3296929Y-4430251D01*
X3296929Y-4430251D02*
X3296928Y-1540640D01*
X3296928Y-1540640D02*
X2250280Y-493992D01*
G04 #@! TO.N,/EN2*
X5201519Y1204339D02*
X3500280Y-496900D01*
X10081260Y3929380D02*
X9763761Y3611881D01*
X9763761Y3611881D02*
X6916927Y3611881D01*
X5201519Y1896473D02*
X5201519Y1204339D01*
X6916927Y3611881D02*
X5201519Y1896473D01*
G04 #@! TO.N,Net-(U11-Pad35)*
X-10786922Y-14736900D02*
X1080280Y-14736900D01*
X-11492041Y-5979423D02*
X-11492041Y-14031781D01*
X-16809720Y2983100D02*
X-17437920Y2983100D01*
X-17437920Y1460680D02*
X-11158219Y-4819021D01*
X-11492041Y-14031781D02*
X-10786922Y-14736900D01*
X-17437920Y2983100D02*
X-17437920Y1460680D01*
X-11158219Y-5645601D02*
X-11492041Y-5979423D01*
X-11158219Y-4819021D02*
X-11158219Y-5645601D01*
G04 #@! TO.N,Net-(U11-Pad34)*
X-11729720Y-5371280D02*
X-11729720Y-5371280D01*
X170280Y-13296900D02*
X970280Y-13296900D01*
D49*
X-11729720Y-4922268D02*
X-17509118Y857130D01*
X-11729720Y-5371280D02*
X-11729720Y-4922268D01*
D50*
X-17355120Y3466020D02*
X-16726920Y3466020D01*
X-17457908Y3466020D02*
X-17355120Y3466020D01*
X-17793530Y3130398D02*
X-17457908Y3466020D01*
X-17793530Y1141542D02*
X-17793530Y3130398D01*
X-17509118Y857130D02*
X-17793530Y1141542D01*
X-4720109Y-6336511D02*
X-5685340Y-5371280D01*
X-653592Y-13747572D02*
X-2594401Y-13747571D01*
X-372920Y-13466900D02*
X-653592Y-13747572D01*
X-4720109Y-11621863D02*
X-4720109Y-6336511D01*
X-2594401Y-13747571D02*
X-4720109Y-11621863D01*
X1080280Y-13466900D02*
X-372920Y-13466900D01*
G04 #@! TO.N,Net-(R7-Pad1)*
X-13976920Y5716020D02*
X-13976920Y7243380D01*
X-13976920Y7243380D02*
X-14417040Y7683500D01*
G04 #@! TO.N,Net-(R7-Pad2)*
X-11923840Y3966020D02*
X-11475720Y3517900D01*
X-12726920Y3966020D02*
X-11923840Y3966020D01*
G04 #@! TO.N,/POWER/VUSB*
X6428740Y6019800D02*
X5798820Y5389880D01*
X9121140Y5041900D02*
X8143240Y6019800D01*
X10515600Y5041900D02*
X9121140Y5041900D01*
X11084560Y5610860D02*
X10515600Y5041900D01*
X8143240Y6019800D02*
X6428740Y6019800D01*
D52*
X-11960860Y8676640D02*
X-11960860Y7800340D01*
X-12278361Y8994141D02*
X-11960860Y8676640D01*
X-12278361Y9609837D02*
X-12278361Y8994141D01*
X-11800840Y10087358D02*
X-12278361Y9609837D01*
X-11800840Y12100560D02*
X-11800840Y10087358D01*
D48*
X-12700000Y7800340D02*
X-11960860Y7800340D01*
D50*
G04 #@! TO.N,Net-(Q8-Pad2)*
X-18149139Y3576003D02*
X-18149139Y402159D01*
X-17259122Y4466020D02*
X-18149139Y3576003D01*
X-16726920Y4466020D02*
X-17259122Y4466020D01*
X-18149139Y402159D02*
X-18113579Y402159D01*
X-18113579Y402159D02*
X-16987520Y-723900D01*
X-16987520Y-723900D02*
X-16987520Y-723900D01*
G04 #@! TO.N,Net-(Q7-Pad2)*
X-16330121Y1062019D02*
X-11223961Y1062019D01*
X-16726920Y1458818D02*
X-16330121Y1062019D01*
X-16726920Y2466020D02*
X-16726920Y1458818D01*
X-11223961Y1062019D02*
X-11213801Y1062019D01*
X-11213801Y1062019D02*
X-10718800Y1557020D01*
X-10718800Y1557020D02*
X-10718800Y1557020D01*
G04 #@! TO.N,Net-(Q8-Pad3)*
X-299720Y-1866900D02*
X970280Y-1866900D01*
X-2839720Y-4406900D02*
X-299720Y-1866900D01*
G04 #@! TO.N,Net-(R6-Pad1)*
X-2204720Y253100D02*
X-2204720Y-546900D01*
X-4930140Y2978520D02*
X-2204720Y253100D01*
X-4930140Y7701280D02*
X-4930140Y2978520D01*
X-5699760Y13340080D02*
X-5699760Y8470900D01*
X-4879340Y14160500D02*
X-5699760Y13340080D01*
X-4142740Y14660880D02*
X-4643120Y14160500D01*
X7406640Y14373860D02*
X-1965960Y14373860D01*
X-5699760Y8470900D02*
X-4930140Y7701280D01*
X-2252980Y14660880D02*
X-4142740Y14660880D01*
X7480300Y14300200D02*
X7406640Y14373860D01*
X-1965960Y14373860D02*
X-2252980Y14660880D01*
X-4643120Y14160500D02*
X-4879340Y14160500D01*
G04 #@! TO.N,Net-(C5-Pad2)*
X-14076680Y-15420340D02*
X-14076680Y-15420340D01*
X-14663240Y-16006900D02*
X-14076680Y-15420340D01*
X-16919720Y-16006900D02*
X-14663240Y-16006900D01*
G04 #@! TO.N,/USBD+*
X-7980680Y6880860D02*
X-8049260Y6949440D01*
X-7980680Y4579620D02*
X-7980680Y6880860D01*
X-8049260Y7749540D02*
X-8049260Y6949440D01*
X-16639539Y6731001D02*
X-16652240Y6718300D01*
X-15391609Y6731001D02*
X-16639539Y6731001D01*
X-14976920Y6316312D02*
X-15391609Y6731001D01*
X-14976920Y5716020D02*
X-14976920Y6316312D01*
G04 #@! TO.N,/USBD-*
X-12184381Y6893559D02*
X-12501880Y6576060D01*
X-9997439Y6893559D02*
X-12184381Y6893559D01*
X-9349740Y7541258D02*
X-9997439Y6893559D01*
X-9349740Y7749540D02*
X-9349740Y7541258D01*
X-14476920Y6691820D02*
X-14635480Y6850380D01*
X-14476920Y5716020D02*
X-14476920Y6691820D01*
G04 #@! TO.N,/Red*
X280280Y-9656900D02*
X1080280Y-9656900D01*
X-1855282Y-11792462D02*
X280280Y-9656900D01*
X-1855282Y-12502962D02*
X-1855282Y-11792462D01*
X-2172781Y-12820461D02*
X-1855282Y-12502962D01*
G04 #@! TD*
D47*
G04 #@! TO.N,DGND*
G36*
X19538950Y-19419570D02*
X14437043Y-19419570D01*
X14437043Y-17369822D01*
X9093518Y-17369822D01*
X9093518Y-19419570D01*
X2508073Y-19419570D01*
X2737293Y-19224308D01*
X2924688Y-18840901D01*
X2797782Y-18673900D01*
X1207280Y-18673900D01*
X1207280Y-18693900D01*
X953280Y-18693900D01*
X953280Y-18673900D01*
X-637222Y-18673900D01*
X-764128Y-18840901D01*
X-576733Y-19224308D01*
X-347513Y-19419570D01*
X-15491927Y-19419570D01*
X-15262707Y-19224308D01*
X-15075312Y-18840901D01*
X-15202218Y-18673900D01*
X-16792720Y-18673900D01*
X-16792720Y-18693900D01*
X-17046720Y-18693900D01*
X-17046720Y-18673900D01*
X-18637222Y-18673900D01*
X-18764128Y-18840901D01*
X-18576733Y-19224308D01*
X-18347513Y-19419570D01*
X-19630390Y-19419570D01*
X-19630390Y3700405D01*
X-19591879Y3607432D01*
X-19395388Y3410941D01*
X-19138660Y3304600D01*
X-18860780Y3304600D01*
X-18631739Y3399473D01*
X-18631738Y449693D01*
X-18641193Y402159D01*
X-18603738Y213858D01*
X-18497074Y54224D01*
X-18349610Y-44309D01*
X-17686020Y-707899D01*
X-17686020Y-862840D01*
X-17579679Y-1119568D01*
X-17493347Y-1205900D01*
X-17801566Y-1205900D01*
X-18043960Y-1254115D01*
X-18318837Y-1437783D01*
X-18502505Y-1712660D01*
X-18567000Y-2036900D01*
X-18502505Y-2361140D01*
X-18318837Y-2636017D01*
X-18265135Y-2671900D01*
X-18318837Y-2707783D01*
X-18502505Y-2982660D01*
X-18567000Y-3306900D01*
X-18502505Y-3631140D01*
X-18318837Y-3906017D01*
X-18265135Y-3941900D01*
X-18318837Y-3977783D01*
X-18502505Y-4252660D01*
X-18567000Y-4576900D01*
X-18502505Y-4901140D01*
X-18318837Y-5176017D01*
X-18265135Y-5211900D01*
X-18318837Y-5247783D01*
X-18502505Y-5522660D01*
X-18567000Y-5846900D01*
X-18559381Y-5885202D01*
X-18724999Y-5816600D01*
X-19002879Y-5816600D01*
X-19259607Y-5922941D01*
X-19456098Y-6119432D01*
X-19562439Y-6376160D01*
X-19562439Y-6654040D01*
X-19456098Y-6910768D01*
X-19259607Y-7107259D01*
X-19002879Y-7213600D01*
X-18724999Y-7213600D01*
X-18561256Y-7145775D01*
X-18502505Y-7441140D01*
X-18318837Y-7716017D01*
X-18265135Y-7751900D01*
X-18318837Y-7787783D01*
X-18502505Y-8062660D01*
X-18567000Y-8386900D01*
X-18502505Y-8711140D01*
X-18318837Y-8986017D01*
X-18265135Y-9021900D01*
X-18318837Y-9057783D01*
X-18502505Y-9332660D01*
X-18567000Y-9656900D01*
X-18502505Y-9981140D01*
X-18318837Y-10256017D01*
X-18265135Y-10291900D01*
X-18318837Y-10327783D01*
X-18502505Y-10602660D01*
X-18567000Y-10926900D01*
X-18502505Y-11251140D01*
X-18318837Y-11526017D01*
X-18265135Y-11561900D01*
X-18318837Y-11597783D01*
X-18502505Y-11872660D01*
X-18567000Y-12196900D01*
X-18502505Y-12521140D01*
X-18318837Y-12796017D01*
X-18265135Y-12831900D01*
X-18318837Y-12867783D01*
X-18502505Y-13142660D01*
X-18567000Y-13466900D01*
X-18502505Y-13791140D01*
X-18318837Y-14066017D01*
X-18265135Y-14101900D01*
X-18318837Y-14137783D01*
X-18502505Y-14412660D01*
X-18567000Y-14736900D01*
X-18502505Y-15061140D01*
X-18318837Y-15336017D01*
X-18265135Y-15371900D01*
X-18318837Y-15407783D01*
X-18502505Y-15682660D01*
X-18567000Y-16006900D01*
X-18502505Y-16331140D01*
X-18318837Y-16606017D01*
X-18265135Y-16641900D01*
X-18318837Y-16677783D01*
X-18502505Y-16952660D01*
X-18567000Y-17276900D01*
X-18502505Y-17601140D01*
X-18415162Y-17731857D01*
X-18576733Y-17869492D01*
X-18764128Y-18252899D01*
X-18637222Y-18419900D01*
X-17046720Y-18419900D01*
X-17046720Y-18399900D01*
X-16792720Y-18399900D01*
X-16792720Y-18419900D01*
X-15202218Y-18419900D01*
X-15075312Y-18252899D01*
X-15217062Y-17962880D01*
X-15055340Y-17962880D01*
X-14798612Y-17856539D01*
X-14602121Y-17660048D01*
X-14495780Y-17403320D01*
X-14495780Y-17125440D01*
X-14602121Y-16868712D01*
X-14798612Y-16672221D01*
X-15055340Y-16565880D01*
X-15333220Y-16565880D01*
X-15552279Y-16656618D01*
X-15574305Y-16641900D01*
X-15520603Y-16606017D01*
X-15442748Y-16489500D01*
X-14710768Y-16489500D01*
X-14663240Y-16498954D01*
X-14615712Y-16489500D01*
X-14615711Y-16489500D01*
X-14474939Y-16461499D01*
X-14315305Y-16354835D01*
X-14288378Y-16314537D01*
X-14092682Y-16118840D01*
X-13937740Y-16118840D01*
X-13681012Y-16012499D01*
X-13484521Y-15816008D01*
X-13378180Y-15559280D01*
X-13378180Y-15281400D01*
X-13484521Y-15024672D01*
X-13681012Y-14828181D01*
X-13937740Y-14721840D01*
X-14215620Y-14721840D01*
X-14472348Y-14828181D01*
X-14668839Y-15024672D01*
X-14775180Y-15281400D01*
X-14775180Y-15436342D01*
X-14863138Y-15524300D01*
X-15442748Y-15524300D01*
X-15520603Y-15407783D01*
X-15574305Y-15371900D01*
X-15520603Y-15336017D01*
X-15336935Y-15061140D01*
X-15272440Y-14736900D01*
X-15336935Y-14412660D01*
X-15520603Y-14137783D01*
X-15574305Y-14101900D01*
X-15520603Y-14066017D01*
X-15336935Y-13791140D01*
X-15272440Y-13466900D01*
X-15336935Y-13142660D01*
X-15520603Y-12867783D01*
X-15574305Y-12831900D01*
X-15520603Y-12796017D01*
X-15336935Y-12521140D01*
X-15272440Y-12196900D01*
X-15336935Y-11872660D01*
X-15520603Y-11597783D01*
X-15574305Y-11561900D01*
X-15520603Y-11526017D01*
X-15336935Y-11251140D01*
X-15272440Y-10926900D01*
X-15336935Y-10602660D01*
X-15520603Y-10327783D01*
X-15574305Y-10291900D01*
X-15520603Y-10256017D01*
X-15442748Y-10139500D01*
X-14897248Y-10139500D01*
X-14849720Y-10148954D01*
X-14802192Y-10139500D01*
X-14802191Y-10139500D01*
X-14661419Y-10111499D01*
X-14501785Y-10004835D01*
X-14474858Y-9964536D01*
X-12077400Y-7567079D01*
X-12037105Y-7540155D01*
X-11974641Y-7446671D01*
X-11974640Y-13984248D01*
X-11984095Y-14031781D01*
X-11950202Y-14202169D01*
X-11946639Y-14220082D01*
X-11839975Y-14379716D01*
X-11799680Y-14406641D01*
X-11161782Y-15044539D01*
X-11134857Y-15084835D01*
X-11054691Y-15138400D01*
X-10975224Y-15191499D01*
X-10786922Y-15228954D01*
X-10739393Y-15219500D01*
X-1269451Y-15219500D01*
X-1330388Y-15244741D01*
X-1526879Y-15441232D01*
X-1633220Y-15697960D01*
X-1633220Y-15975840D01*
X-1526879Y-16232568D01*
X-1330388Y-16429059D01*
X-1073660Y-16535400D01*
X-795780Y-16535400D01*
X-539052Y-16429059D01*
X-477923Y-16367930D01*
X-318837Y-16606017D01*
X-265135Y-16641900D01*
X-318837Y-16677783D01*
X-502505Y-16952660D01*
X-567000Y-17276900D01*
X-502505Y-17601140D01*
X-415162Y-17731857D01*
X-576733Y-17869492D01*
X-764128Y-18252899D01*
X-637222Y-18419900D01*
X953280Y-18419900D01*
X953280Y-18399900D01*
X1207280Y-18399900D01*
X1207280Y-18419900D01*
X2797782Y-18419900D01*
X2924688Y-18252899D01*
X2737293Y-17869492D01*
X2575722Y-17731857D01*
X2663065Y-17601140D01*
X2718498Y-17322454D01*
X15623280Y-17322454D01*
X15623280Y-17671346D01*
X15756796Y-17993680D01*
X16003500Y-18240384D01*
X16325834Y-18373900D01*
X16674726Y-18373900D01*
X16997060Y-18240384D01*
X17243764Y-17993680D01*
X17377280Y-17671346D01*
X17377280Y-17322454D01*
X17243764Y-17000120D01*
X16997060Y-16753416D01*
X16674726Y-16619900D01*
X16325834Y-16619900D01*
X16003500Y-16753416D01*
X15756796Y-17000120D01*
X15623280Y-17322454D01*
X2718498Y-17322454D01*
X2727560Y-17276900D01*
X2663065Y-16952660D01*
X2519271Y-16737457D01*
X14440308Y-16737457D01*
X14440308Y-16961964D01*
X14609547Y-17131203D01*
X14842936Y-17227875D01*
X15095555Y-17227875D01*
X15328944Y-17131202D01*
X15498182Y-16961964D01*
X15498182Y-16737457D01*
X14969245Y-16208520D01*
X14440308Y-16737457D01*
X2519271Y-16737457D01*
X2479397Y-16677783D01*
X2425695Y-16641900D01*
X2479397Y-16606017D01*
X2663065Y-16331140D01*
X2727560Y-16006900D01*
X2706815Y-15902605D01*
X13770285Y-15902605D01*
X13770285Y-16155224D01*
X13866957Y-16388613D01*
X14036196Y-16557852D01*
X14260703Y-16557852D01*
X14789640Y-16028915D01*
X14260703Y-15499978D01*
X14036196Y-15499978D01*
X13866958Y-15669216D01*
X13770285Y-15902605D01*
X2706815Y-15902605D01*
X2663065Y-15682660D01*
X2479397Y-15407783D01*
X2425695Y-15371900D01*
X2479397Y-15336017D01*
X2663065Y-15061140D01*
X2727560Y-14736900D01*
X2663065Y-14412660D01*
X2479397Y-14137783D01*
X2425695Y-14101900D01*
X2479397Y-14066017D01*
X2663065Y-13791140D01*
X2727560Y-13466900D01*
X2663065Y-13142660D01*
X2479397Y-12867783D01*
X2425695Y-12831900D01*
X2479397Y-12796017D01*
X2663065Y-12521140D01*
X2727560Y-12196900D01*
X2703421Y-12075544D01*
X2929380Y-12169140D01*
X3207260Y-12169140D01*
X3463988Y-12062799D01*
X3586970Y-11939817D01*
X3575206Y-11998960D01*
X3575206Y-12999720D01*
X3604776Y-13148379D01*
X3688984Y-13274406D01*
X3780837Y-13335780D01*
X3750241Y-13341866D01*
X3624214Y-13426074D01*
X3540006Y-13552101D01*
X3510436Y-13700760D01*
X3510436Y-14300200D01*
X3540006Y-14448859D01*
X3624214Y-14574886D01*
X3750241Y-14659094D01*
X3898900Y-14688664D01*
X4899660Y-14688664D01*
X5048319Y-14659094D01*
X5174346Y-14574886D01*
X5258554Y-14448859D01*
X5288124Y-14300200D01*
X5288124Y-13700760D01*
X5258554Y-13552101D01*
X5174346Y-13426074D01*
X5117639Y-13388184D01*
X5363210Y-13388184D01*
X5511869Y-13358614D01*
X5637896Y-13274406D01*
X5659811Y-13241608D01*
X5791473Y-13329582D01*
X5927709Y-13356681D01*
X5823854Y-13426074D01*
X5739646Y-13552101D01*
X5710076Y-13700760D01*
X5710076Y-14300200D01*
X5739646Y-14448859D01*
X5823854Y-14574886D01*
X5949881Y-14659094D01*
X6098540Y-14688664D01*
X7099300Y-14688664D01*
X7247959Y-14659094D01*
X7373986Y-14574886D01*
X7458194Y-14448859D01*
X7487764Y-14300200D01*
X7487764Y-14050010D01*
X8293100Y-14050010D01*
X8293100Y-14208069D01*
X8389773Y-14441458D01*
X8568401Y-14620087D01*
X8801790Y-14716760D01*
X9213850Y-14716760D01*
X9372600Y-14558010D01*
X9372600Y-13891260D01*
X8451850Y-13891260D01*
X8293100Y-14050010D01*
X7487764Y-14050010D01*
X7487764Y-13700760D01*
X7458194Y-13552101D01*
X7373986Y-13426074D01*
X7247959Y-13341866D01*
X7170420Y-13326443D01*
X7170420Y-13133535D01*
X7364392Y-12843237D01*
X7432797Y-12499340D01*
X7376716Y-12217400D01*
X7465991Y-12217400D01*
X7568861Y-12465748D01*
X7765352Y-12662239D01*
X8022080Y-12768580D01*
X8299960Y-12768580D01*
X8474953Y-12696095D01*
X8598432Y-12778601D01*
X8620349Y-12782961D01*
X8653414Y-12832446D01*
X8691084Y-12857616D01*
X8568401Y-12908433D01*
X8389773Y-13087062D01*
X8293100Y-13320451D01*
X8293100Y-13478510D01*
X8451850Y-13637260D01*
X9372600Y-13637260D01*
X9372600Y-13617260D01*
X9626600Y-13617260D01*
X9626600Y-13637260D01*
X9646600Y-13637260D01*
X9646600Y-13891260D01*
X9626600Y-13891260D01*
X9626600Y-14558010D01*
X9785350Y-14716760D01*
X10197410Y-14716760D01*
X10430799Y-14620087D01*
X10609427Y-14441458D01*
X10706100Y-14208069D01*
X10706100Y-14050010D01*
X10547352Y-13891262D01*
X10706100Y-13891262D01*
X10706100Y-13855672D01*
X10713233Y-13866347D01*
X10755645Y-13894686D01*
X10755647Y-13894688D01*
X10860127Y-13964499D01*
X10881268Y-13978625D01*
X11029448Y-14008100D01*
X11029452Y-14008100D01*
X11079480Y-14018051D01*
X11129508Y-14008100D01*
X12520432Y-14008100D01*
X12570460Y-14018051D01*
X12620488Y-14008100D01*
X12620492Y-14008100D01*
X12673767Y-13997503D01*
X12623800Y-14047470D01*
X12623800Y-14205529D01*
X12720473Y-14438918D01*
X12899101Y-14617547D01*
X13132490Y-14714220D01*
X13544550Y-14714220D01*
X13703300Y-14555470D01*
X13703300Y-13888720D01*
X13683300Y-13888720D01*
X13683300Y-13634720D01*
X13703300Y-13634720D01*
X13703300Y-13614720D01*
X13957300Y-13614720D01*
X13957300Y-13634720D01*
X13977300Y-13634720D01*
X13977300Y-13888720D01*
X13957300Y-13888720D01*
X13957300Y-14555470D01*
X14116050Y-14714220D01*
X14528110Y-14714220D01*
X14761499Y-14617547D01*
X14911361Y-14467684D01*
X14932754Y-14467684D01*
X14934723Y-14472815D01*
X14945422Y-14526601D01*
X14968794Y-14561579D01*
X14983870Y-14600857D01*
X15021621Y-14640640D01*
X15025163Y-14645941D01*
X15054295Y-14675073D01*
X15116024Y-14740125D01*
X15122014Y-14742792D01*
X15143611Y-14764389D01*
X15106061Y-14820586D01*
X15103539Y-14833263D01*
X15095554Y-14829955D01*
X14842935Y-14829955D01*
X14609546Y-14926628D01*
X14440308Y-15095866D01*
X14440308Y-15320373D01*
X14969245Y-15849310D01*
X14983388Y-15835168D01*
X15162993Y-16014773D01*
X15148850Y-16028915D01*
X15677787Y-16557852D01*
X15902294Y-16557852D01*
X16071532Y-16388614D01*
X16168205Y-16155225D01*
X16168205Y-15902606D01*
X16164897Y-15894621D01*
X16177574Y-15892099D01*
X16303601Y-15807891D01*
X16867561Y-15243931D01*
X16951769Y-15117904D01*
X16981339Y-14969245D01*
X16951769Y-14820586D01*
X16867561Y-14694559D01*
X16303601Y-14130599D01*
X16256910Y-14099401D01*
X16260924Y-14079220D01*
X16260924Y-13444220D01*
X16231354Y-13295561D01*
X16147146Y-13169534D01*
X16021119Y-13085326D01*
X15872460Y-13055756D01*
X15564565Y-13055756D01*
X15676637Y-12943684D01*
X15872460Y-12943684D01*
X16021119Y-12914114D01*
X16147146Y-12829906D01*
X16231354Y-12703879D01*
X16260924Y-12555220D01*
X16260924Y-11920220D01*
X16231354Y-11771561D01*
X16147146Y-11645534D01*
X16021119Y-11561326D01*
X15872460Y-11531756D01*
X14729460Y-11531756D01*
X14580801Y-11561326D01*
X14565630Y-11571463D01*
X14550459Y-11561326D01*
X14401800Y-11531756D01*
X14397537Y-11531756D01*
X14495208Y-11491299D01*
X14691699Y-11294808D01*
X14798040Y-11038080D01*
X14798040Y-10760200D01*
X14691699Y-10503472D01*
X14588257Y-10400030D01*
X14691699Y-10296588D01*
X14798040Y-10039860D01*
X14798040Y-9761980D01*
X14691699Y-9505252D01*
X14512873Y-9326426D01*
X14596808Y-9291659D01*
X14793299Y-9095168D01*
X14899640Y-8838440D01*
X14899640Y-8560560D01*
X14793299Y-8303832D01*
X14596808Y-8107341D01*
X14340080Y-8001000D01*
X14062200Y-8001000D01*
X13805472Y-8107341D01*
X13690444Y-8222369D01*
X13690444Y-7627869D01*
X13861540Y-7698740D01*
X14139420Y-7698740D01*
X14396148Y-7592399D01*
X14592639Y-7395908D01*
X14698980Y-7139180D01*
X14698980Y-6861300D01*
X14592639Y-6604572D01*
X14396148Y-6408081D01*
X14139420Y-6301740D01*
X13967304Y-6301740D01*
X13967304Y-5857960D01*
X16301780Y-5857960D01*
X16301780Y-6135840D01*
X16408121Y-6392568D01*
X16604612Y-6589059D01*
X16861340Y-6695400D01*
X17139220Y-6695400D01*
X17395948Y-6589059D01*
X17592439Y-6392568D01*
X17698780Y-6135840D01*
X17698780Y-5857960D01*
X17592439Y-5601232D01*
X17395948Y-5404741D01*
X17139220Y-5298400D01*
X16861340Y-5298400D01*
X16604612Y-5404741D01*
X16408121Y-5601232D01*
X16301780Y-5857960D01*
X13967304Y-5857960D01*
X13967304Y-5430520D01*
X13937734Y-5281861D01*
X13853526Y-5155834D01*
X13793663Y-5115835D01*
X13808177Y-5106137D01*
X14024873Y-4781828D01*
X14100967Y-4399280D01*
X14024873Y-4016732D01*
X13808177Y-3692423D01*
X13483868Y-3475727D01*
X13414175Y-3461864D01*
X14246860Y-3461864D01*
X14395519Y-3432294D01*
X14521546Y-3348086D01*
X14605754Y-3222059D01*
X14635324Y-3073400D01*
X14635324Y-2159000D01*
X14605754Y-2010341D01*
X14540860Y-1913220D01*
X15140606Y-1313475D01*
X15185139Y-1283719D01*
X15303031Y-1107282D01*
X15333980Y-951691D01*
X15333980Y-951687D01*
X15344428Y-899160D01*
X15333980Y-846633D01*
X15333980Y-655087D01*
X15392739Y-596328D01*
X15499080Y-339600D01*
X15499080Y-61720D01*
X15392739Y195008D01*
X15303267Y284480D01*
X15392739Y373952D01*
X15499080Y630680D01*
X15499080Y908560D01*
X15392739Y1165288D01*
X15196248Y1361779D01*
X14939520Y1468120D01*
X14925040Y1468120D01*
X14925040Y4876100D01*
X19538951Y4876100D01*
X19538950Y-19419570D01*
X19538950Y-19419570D01*
G37*
X19538950Y-19419570D02*
X14437043Y-19419570D01*
X14437043Y-17369822D01*
X9093518Y-17369822D01*
X9093518Y-19419570D01*
X2508073Y-19419570D01*
X2737293Y-19224308D01*
X2924688Y-18840901D01*
X2797782Y-18673900D01*
X1207280Y-18673900D01*
X1207280Y-18693900D01*
X953280Y-18693900D01*
X953280Y-18673900D01*
X-637222Y-18673900D01*
X-764128Y-18840901D01*
X-576733Y-19224308D01*
X-347513Y-19419570D01*
X-15491927Y-19419570D01*
X-15262707Y-19224308D01*
X-15075312Y-18840901D01*
X-15202218Y-18673900D01*
X-16792720Y-18673900D01*
X-16792720Y-18693900D01*
X-17046720Y-18693900D01*
X-17046720Y-18673900D01*
X-18637222Y-18673900D01*
X-18764128Y-18840901D01*
X-18576733Y-19224308D01*
X-18347513Y-19419570D01*
X-19630390Y-19419570D01*
X-19630390Y3700405D01*
X-19591879Y3607432D01*
X-19395388Y3410941D01*
X-19138660Y3304600D01*
X-18860780Y3304600D01*
X-18631739Y3399473D01*
X-18631738Y449693D01*
X-18641193Y402159D01*
X-18603738Y213858D01*
X-18497074Y54224D01*
X-18349610Y-44309D01*
X-17686020Y-707899D01*
X-17686020Y-862840D01*
X-17579679Y-1119568D01*
X-17493347Y-1205900D01*
X-17801566Y-1205900D01*
X-18043960Y-1254115D01*
X-18318837Y-1437783D01*
X-18502505Y-1712660D01*
X-18567000Y-2036900D01*
X-18502505Y-2361140D01*
X-18318837Y-2636017D01*
X-18265135Y-2671900D01*
X-18318837Y-2707783D01*
X-18502505Y-2982660D01*
X-18567000Y-3306900D01*
X-18502505Y-3631140D01*
X-18318837Y-3906017D01*
X-18265135Y-3941900D01*
X-18318837Y-3977783D01*
X-18502505Y-4252660D01*
X-18567000Y-4576900D01*
X-18502505Y-4901140D01*
X-18318837Y-5176017D01*
X-18265135Y-5211900D01*
X-18318837Y-5247783D01*
X-18502505Y-5522660D01*
X-18567000Y-5846900D01*
X-18559381Y-5885202D01*
X-18724999Y-5816600D01*
X-19002879Y-5816600D01*
X-19259607Y-5922941D01*
X-19456098Y-6119432D01*
X-19562439Y-6376160D01*
X-19562439Y-6654040D01*
X-19456098Y-6910768D01*
X-19259607Y-7107259D01*
X-19002879Y-7213600D01*
X-18724999Y-7213600D01*
X-18561256Y-7145775D01*
X-18502505Y-7441140D01*
X-18318837Y-7716017D01*
X-18265135Y-7751900D01*
X-18318837Y-7787783D01*
X-18502505Y-8062660D01*
X-18567000Y-8386900D01*
X-18502505Y-8711140D01*
X-18318837Y-8986017D01*
X-18265135Y-9021900D01*
X-18318837Y-9057783D01*
X-18502505Y-9332660D01*
X-18567000Y-9656900D01*
X-18502505Y-9981140D01*
X-18318837Y-10256017D01*
X-18265135Y-10291900D01*
X-18318837Y-10327783D01*
X-18502505Y-10602660D01*
X-18567000Y-10926900D01*
X-18502505Y-11251140D01*
X-18318837Y-11526017D01*
X-18265135Y-11561900D01*
X-18318837Y-11597783D01*
X-18502505Y-11872660D01*
X-18567000Y-12196900D01*
X-18502505Y-12521140D01*
X-18318837Y-12796017D01*
X-18265135Y-12831900D01*
X-18318837Y-12867783D01*
X-18502505Y-13142660D01*
X-18567000Y-13466900D01*
X-18502505Y-13791140D01*
X-18318837Y-14066017D01*
X-18265135Y-14101900D01*
X-18318837Y-14137783D01*
X-18502505Y-14412660D01*
X-18567000Y-14736900D01*
X-18502505Y-15061140D01*
X-18318837Y-15336017D01*
X-18265135Y-15371900D01*
X-18318837Y-15407783D01*
X-18502505Y-15682660D01*
X-18567000Y-16006900D01*
X-18502505Y-16331140D01*
X-18318837Y-16606017D01*
X-18265135Y-16641900D01*
X-18318837Y-16677783D01*
X-18502505Y-16952660D01*
X-18567000Y-17276900D01*
X-18502505Y-17601140D01*
X-18415162Y-17731857D01*
X-18576733Y-17869492D01*
X-18764128Y-18252899D01*
X-18637222Y-18419900D01*
X-17046720Y-18419900D01*
X-17046720Y-18399900D01*
X-16792720Y-18399900D01*
X-16792720Y-18419900D01*
X-15202218Y-18419900D01*
X-15075312Y-18252899D01*
X-15217062Y-17962880D01*
X-15055340Y-17962880D01*
X-14798612Y-17856539D01*
X-14602121Y-17660048D01*
X-14495780Y-17403320D01*
X-14495780Y-17125440D01*
X-14602121Y-16868712D01*
X-14798612Y-16672221D01*
X-15055340Y-16565880D01*
X-15333220Y-16565880D01*
X-15552279Y-16656618D01*
X-15574305Y-16641900D01*
X-15520603Y-16606017D01*
X-15442748Y-16489500D01*
X-14710768Y-16489500D01*
X-14663240Y-16498954D01*
X-14615712Y-16489500D01*
X-14615711Y-16489500D01*
X-14474939Y-16461499D01*
X-14315305Y-16354835D01*
X-14288378Y-16314537D01*
X-14092682Y-16118840D01*
X-13937740Y-16118840D01*
X-13681012Y-16012499D01*
X-13484521Y-15816008D01*
X-13378180Y-15559280D01*
X-13378180Y-15281400D01*
X-13484521Y-15024672D01*
X-13681012Y-14828181D01*
X-13937740Y-14721840D01*
X-14215620Y-14721840D01*
X-14472348Y-14828181D01*
X-14668839Y-15024672D01*
X-14775180Y-15281400D01*
X-14775180Y-15436342D01*
X-14863138Y-15524300D01*
X-15442748Y-15524300D01*
X-15520603Y-15407783D01*
X-15574305Y-15371900D01*
X-15520603Y-15336017D01*
X-15336935Y-15061140D01*
X-15272440Y-14736900D01*
X-15336935Y-14412660D01*
X-15520603Y-14137783D01*
X-15574305Y-14101900D01*
X-15520603Y-14066017D01*
X-15336935Y-13791140D01*
X-15272440Y-13466900D01*
X-15336935Y-13142660D01*
X-15520603Y-12867783D01*
X-15574305Y-12831900D01*
X-15520603Y-12796017D01*
X-15336935Y-12521140D01*
X-15272440Y-12196900D01*
X-15336935Y-11872660D01*
X-15520603Y-11597783D01*
X-15574305Y-11561900D01*
X-15520603Y-11526017D01*
X-15336935Y-11251140D01*
X-15272440Y-10926900D01*
X-15336935Y-10602660D01*
X-15520603Y-10327783D01*
X-15574305Y-10291900D01*
X-15520603Y-10256017D01*
X-15442748Y-10139500D01*
X-14897248Y-10139500D01*
X-14849720Y-10148954D01*
X-14802192Y-10139500D01*
X-14802191Y-10139500D01*
X-14661419Y-10111499D01*
X-14501785Y-10004835D01*
X-14474858Y-9964536D01*
X-12077400Y-7567079D01*
X-12037105Y-7540155D01*
X-11974641Y-7446671D01*
X-11974640Y-13984248D01*
X-11984095Y-14031781D01*
X-11950202Y-14202169D01*
X-11946639Y-14220082D01*
X-11839975Y-14379716D01*
X-11799680Y-14406641D01*
X-11161782Y-15044539D01*
X-11134857Y-15084835D01*
X-11054691Y-15138400D01*
X-10975224Y-15191499D01*
X-10786922Y-15228954D01*
X-10739393Y-15219500D01*
X-1269451Y-15219500D01*
X-1330388Y-15244741D01*
X-1526879Y-15441232D01*
X-1633220Y-15697960D01*
X-1633220Y-15975840D01*
X-1526879Y-16232568D01*
X-1330388Y-16429059D01*
X-1073660Y-16535400D01*
X-795780Y-16535400D01*
X-539052Y-16429059D01*
X-477923Y-16367930D01*
X-318837Y-16606017D01*
X-265135Y-16641900D01*
X-318837Y-16677783D01*
X-502505Y-16952660D01*
X-567000Y-17276900D01*
X-502505Y-17601140D01*
X-415162Y-17731857D01*
X-576733Y-17869492D01*
X-764128Y-18252899D01*
X-637222Y-18419900D01*
X953280Y-18419900D01*
X953280Y-18399900D01*
X1207280Y-18399900D01*
X1207280Y-18419900D01*
X2797782Y-18419900D01*
X2924688Y-18252899D01*
X2737293Y-17869492D01*
X2575722Y-17731857D01*
X2663065Y-17601140D01*
X2718498Y-17322454D01*
X15623280Y-17322454D01*
X15623280Y-17671346D01*
X15756796Y-17993680D01*
X16003500Y-18240384D01*
X16325834Y-18373900D01*
X16674726Y-18373900D01*
X16997060Y-18240384D01*
X17243764Y-17993680D01*
X17377280Y-17671346D01*
X17377280Y-17322454D01*
X17243764Y-17000120D01*
X16997060Y-16753416D01*
X16674726Y-16619900D01*
X16325834Y-16619900D01*
X16003500Y-16753416D01*
X15756796Y-17000120D01*
X15623280Y-17322454D01*
X2718498Y-17322454D01*
X2727560Y-17276900D01*
X2663065Y-16952660D01*
X2519271Y-16737457D01*
X14440308Y-16737457D01*
X14440308Y-16961964D01*
X14609547Y-17131203D01*
X14842936Y-17227875D01*
X15095555Y-17227875D01*
X15328944Y-17131202D01*
X15498182Y-16961964D01*
X15498182Y-16737457D01*
X14969245Y-16208520D01*
X14440308Y-16737457D01*
X2519271Y-16737457D01*
X2479397Y-16677783D01*
X2425695Y-16641900D01*
X2479397Y-16606017D01*
X2663065Y-16331140D01*
X2727560Y-16006900D01*
X2706815Y-15902605D01*
X13770285Y-15902605D01*
X13770285Y-16155224D01*
X13866957Y-16388613D01*
X14036196Y-16557852D01*
X14260703Y-16557852D01*
X14789640Y-16028915D01*
X14260703Y-15499978D01*
X14036196Y-15499978D01*
X13866958Y-15669216D01*
X13770285Y-15902605D01*
X2706815Y-15902605D01*
X2663065Y-15682660D01*
X2479397Y-15407783D01*
X2425695Y-15371900D01*
X2479397Y-15336017D01*
X2663065Y-15061140D01*
X2727560Y-14736900D01*
X2663065Y-14412660D01*
X2479397Y-14137783D01*
X2425695Y-14101900D01*
X2479397Y-14066017D01*
X2663065Y-13791140D01*
X2727560Y-13466900D01*
X2663065Y-13142660D01*
X2479397Y-12867783D01*
X2425695Y-12831900D01*
X2479397Y-12796017D01*
X2663065Y-12521140D01*
X2727560Y-12196900D01*
X2703421Y-12075544D01*
X2929380Y-12169140D01*
X3207260Y-12169140D01*
X3463988Y-12062799D01*
X3586970Y-11939817D01*
X3575206Y-11998960D01*
X3575206Y-12999720D01*
X3604776Y-13148379D01*
X3688984Y-13274406D01*
X3780837Y-13335780D01*
X3750241Y-13341866D01*
X3624214Y-13426074D01*
X3540006Y-13552101D01*
X3510436Y-13700760D01*
X3510436Y-14300200D01*
X3540006Y-14448859D01*
X3624214Y-14574886D01*
X3750241Y-14659094D01*
X3898900Y-14688664D01*
X4899660Y-14688664D01*
X5048319Y-14659094D01*
X5174346Y-14574886D01*
X5258554Y-14448859D01*
X5288124Y-14300200D01*
X5288124Y-13700760D01*
X5258554Y-13552101D01*
X5174346Y-13426074D01*
X5117639Y-13388184D01*
X5363210Y-13388184D01*
X5511869Y-13358614D01*
X5637896Y-13274406D01*
X5659811Y-13241608D01*
X5791473Y-13329582D01*
X5927709Y-13356681D01*
X5823854Y-13426074D01*
X5739646Y-13552101D01*
X5710076Y-13700760D01*
X5710076Y-14300200D01*
X5739646Y-14448859D01*
X5823854Y-14574886D01*
X5949881Y-14659094D01*
X6098540Y-14688664D01*
X7099300Y-14688664D01*
X7247959Y-14659094D01*
X7373986Y-14574886D01*
X7458194Y-14448859D01*
X7487764Y-14300200D01*
X7487764Y-14050010D01*
X8293100Y-14050010D01*
X8293100Y-14208069D01*
X8389773Y-14441458D01*
X8568401Y-14620087D01*
X8801790Y-14716760D01*
X9213850Y-14716760D01*
X9372600Y-14558010D01*
X9372600Y-13891260D01*
X8451850Y-13891260D01*
X8293100Y-14050010D01*
X7487764Y-14050010D01*
X7487764Y-13700760D01*
X7458194Y-13552101D01*
X7373986Y-13426074D01*
X7247959Y-13341866D01*
X7170420Y-13326443D01*
X7170420Y-13133535D01*
X7364392Y-12843237D01*
X7432797Y-12499340D01*
X7376716Y-12217400D01*
X7465991Y-12217400D01*
X7568861Y-12465748D01*
X7765352Y-12662239D01*
X8022080Y-12768580D01*
X8299960Y-12768580D01*
X8474953Y-12696095D01*
X8598432Y-12778601D01*
X8620349Y-12782961D01*
X8653414Y-12832446D01*
X8691084Y-12857616D01*
X8568401Y-12908433D01*
X8389773Y-13087062D01*
X8293100Y-13320451D01*
X8293100Y-13478510D01*
X8451850Y-13637260D01*
X9372600Y-13637260D01*
X9372600Y-13617260D01*
X9626600Y-13617260D01*
X9626600Y-13637260D01*
X9646600Y-13637260D01*
X9646600Y-13891260D01*
X9626600Y-13891260D01*
X9626600Y-14558010D01*
X9785350Y-14716760D01*
X10197410Y-14716760D01*
X10430799Y-14620087D01*
X10609427Y-14441458D01*
X10706100Y-14208069D01*
X10706100Y-14050010D01*
X10547352Y-13891262D01*
X10706100Y-13891262D01*
X10706100Y-13855672D01*
X10713233Y-13866347D01*
X10755645Y-13894686D01*
X10755647Y-13894688D01*
X10860127Y-13964499D01*
X10881268Y-13978625D01*
X11029448Y-14008100D01*
X11029452Y-14008100D01*
X11079480Y-14018051D01*
X11129508Y-14008100D01*
X12520432Y-14008100D01*
X12570460Y-14018051D01*
X12620488Y-14008100D01*
X12620492Y-14008100D01*
X12673767Y-13997503D01*
X12623800Y-14047470D01*
X12623800Y-14205529D01*
X12720473Y-14438918D01*
X12899101Y-14617547D01*
X13132490Y-14714220D01*
X13544550Y-14714220D01*
X13703300Y-14555470D01*
X13703300Y-13888720D01*
X13683300Y-13888720D01*
X13683300Y-13634720D01*
X13703300Y-13634720D01*
X13703300Y-13614720D01*
X13957300Y-13614720D01*
X13957300Y-13634720D01*
X13977300Y-13634720D01*
X13977300Y-13888720D01*
X13957300Y-13888720D01*
X13957300Y-14555470D01*
X14116050Y-14714220D01*
X14528110Y-14714220D01*
X14761499Y-14617547D01*
X14911361Y-14467684D01*
X14932754Y-14467684D01*
X14934723Y-14472815D01*
X14945422Y-14526601D01*
X14968794Y-14561579D01*
X14983870Y-14600857D01*
X15021621Y-14640640D01*
X15025163Y-14645941D01*
X15054295Y-14675073D01*
X15116024Y-14740125D01*
X15122014Y-14742792D01*
X15143611Y-14764389D01*
X15106061Y-14820586D01*
X15103539Y-14833263D01*
X15095554Y-14829955D01*
X14842935Y-14829955D01*
X14609546Y-14926628D01*
X14440308Y-15095866D01*
X14440308Y-15320373D01*
X14969245Y-15849310D01*
X14983388Y-15835168D01*
X15162993Y-16014773D01*
X15148850Y-16028915D01*
X15677787Y-16557852D01*
X15902294Y-16557852D01*
X16071532Y-16388614D01*
X16168205Y-16155225D01*
X16168205Y-15902606D01*
X16164897Y-15894621D01*
X16177574Y-15892099D01*
X16303601Y-15807891D01*
X16867561Y-15243931D01*
X16951769Y-15117904D01*
X16981339Y-14969245D01*
X16951769Y-14820586D01*
X16867561Y-14694559D01*
X16303601Y-14130599D01*
X16256910Y-14099401D01*
X16260924Y-14079220D01*
X16260924Y-13444220D01*
X16231354Y-13295561D01*
X16147146Y-13169534D01*
X16021119Y-13085326D01*
X15872460Y-13055756D01*
X15564565Y-13055756D01*
X15676637Y-12943684D01*
X15872460Y-12943684D01*
X16021119Y-12914114D01*
X16147146Y-12829906D01*
X16231354Y-12703879D01*
X16260924Y-12555220D01*
X16260924Y-11920220D01*
X16231354Y-11771561D01*
X16147146Y-11645534D01*
X16021119Y-11561326D01*
X15872460Y-11531756D01*
X14729460Y-11531756D01*
X14580801Y-11561326D01*
X14565630Y-11571463D01*
X14550459Y-11561326D01*
X14401800Y-11531756D01*
X14397537Y-11531756D01*
X14495208Y-11491299D01*
X14691699Y-11294808D01*
X14798040Y-11038080D01*
X14798040Y-10760200D01*
X14691699Y-10503472D01*
X14588257Y-10400030D01*
X14691699Y-10296588D01*
X14798040Y-10039860D01*
X14798040Y-9761980D01*
X14691699Y-9505252D01*
X14512873Y-9326426D01*
X14596808Y-9291659D01*
X14793299Y-9095168D01*
X14899640Y-8838440D01*
X14899640Y-8560560D01*
X14793299Y-8303832D01*
X14596808Y-8107341D01*
X14340080Y-8001000D01*
X14062200Y-8001000D01*
X13805472Y-8107341D01*
X13690444Y-8222369D01*
X13690444Y-7627869D01*
X13861540Y-7698740D01*
X14139420Y-7698740D01*
X14396148Y-7592399D01*
X14592639Y-7395908D01*
X14698980Y-7139180D01*
X14698980Y-6861300D01*
X14592639Y-6604572D01*
X14396148Y-6408081D01*
X14139420Y-6301740D01*
X13967304Y-6301740D01*
X13967304Y-5857960D01*
X16301780Y-5857960D01*
X16301780Y-6135840D01*
X16408121Y-6392568D01*
X16604612Y-6589059D01*
X16861340Y-6695400D01*
X17139220Y-6695400D01*
X17395948Y-6589059D01*
X17592439Y-6392568D01*
X17698780Y-6135840D01*
X17698780Y-5857960D01*
X17592439Y-5601232D01*
X17395948Y-5404741D01*
X17139220Y-5298400D01*
X16861340Y-5298400D01*
X16604612Y-5404741D01*
X16408121Y-5601232D01*
X16301780Y-5857960D01*
X13967304Y-5857960D01*
X13967304Y-5430520D01*
X13937734Y-5281861D01*
X13853526Y-5155834D01*
X13793663Y-5115835D01*
X13808177Y-5106137D01*
X14024873Y-4781828D01*
X14100967Y-4399280D01*
X14024873Y-4016732D01*
X13808177Y-3692423D01*
X13483868Y-3475727D01*
X13414175Y-3461864D01*
X14246860Y-3461864D01*
X14395519Y-3432294D01*
X14521546Y-3348086D01*
X14605754Y-3222059D01*
X14635324Y-3073400D01*
X14635324Y-2159000D01*
X14605754Y-2010341D01*
X14540860Y-1913220D01*
X15140606Y-1313475D01*
X15185139Y-1283719D01*
X15303031Y-1107282D01*
X15333980Y-951691D01*
X15333980Y-951687D01*
X15344428Y-899160D01*
X15333980Y-846633D01*
X15333980Y-655087D01*
X15392739Y-596328D01*
X15499080Y-339600D01*
X15499080Y-61720D01*
X15392739Y195008D01*
X15303267Y284480D01*
X15392739Y373952D01*
X15499080Y630680D01*
X15499080Y908560D01*
X15392739Y1165288D01*
X15196248Y1361779D01*
X14939520Y1468120D01*
X14925040Y1468120D01*
X14925040Y4876100D01*
X19538951Y4876100D01*
X19538950Y-19419570D01*
G36*
X-12688960Y-2129685D02*
X-12364720Y-2194180D01*
X-12227277Y-2166841D01*
X-10390779Y-4003340D01*
X-10363854Y-4043636D01*
X-10204220Y-4150300D01*
X-10063448Y-4178301D01*
X-10015920Y-4187755D01*
X-9968392Y-4178301D01*
X-9853390Y-4178301D01*
X-9789542Y-4165601D01*
X-3495821Y-4165601D01*
X-3538220Y-4267960D01*
X-3538220Y-4545840D01*
X-3431879Y-4802568D01*
X-3235388Y-4999059D01*
X-2978660Y-5105400D01*
X-2700780Y-5105400D01*
X-2444052Y-4999059D01*
X-2247561Y-4802568D01*
X-2204720Y-4699141D01*
X-2161879Y-4802568D01*
X-1965388Y-4999059D01*
X-1708660Y-5105400D01*
X-1430780Y-5105400D01*
X-1174052Y-4999059D01*
X-1064493Y-4889500D01*
X-504820Y-4889500D01*
X-502505Y-4901140D01*
X-318837Y-5176017D01*
X-265135Y-5211900D01*
X-318837Y-5247783D01*
X-502505Y-5522660D01*
X-567000Y-5846900D01*
X-502505Y-6171140D01*
X-318837Y-6446017D01*
X-265135Y-6481900D01*
X-318837Y-6517783D01*
X-502505Y-6792660D01*
X-567000Y-7116900D01*
X-502505Y-7441140D01*
X-318837Y-7716017D01*
X-265135Y-7751900D01*
X-318837Y-7787783D01*
X-502505Y-8062660D01*
X-567000Y-8386900D01*
X-502505Y-8711140D01*
X-318837Y-8986017D01*
X-265135Y-9021900D01*
X-318837Y-9057783D01*
X-502505Y-9332660D01*
X-567000Y-9656900D01*
X-539661Y-9794342D01*
X-2162920Y-11417602D01*
X-2203216Y-11444527D01*
X-2261682Y-11532028D01*
X-2261682Y-9982520D01*
X-1829561Y-9550400D01*
X-1674620Y-9550400D01*
X-1417892Y-9444059D01*
X-1221401Y-9247568D01*
X-1115060Y-8990840D01*
X-1115060Y-8712960D01*
X-1221401Y-8456232D01*
X-1417892Y-8259741D01*
X-1674620Y-8153400D01*
X-1952500Y-8153400D01*
X-2209228Y-8259741D01*
X-2405719Y-8456232D01*
X-2512060Y-8712960D01*
X-2512060Y-8867901D01*
X-3051921Y-9407762D01*
X-3092216Y-9434687D01*
X-3172840Y-9555350D01*
X-3198880Y-9594321D01*
X-3236336Y-9782622D01*
X-3226881Y-9830155D01*
X-3226882Y-12432592D01*
X-4237509Y-11421965D01*
X-4237509Y-6384040D01*
X-4228055Y-6336511D01*
X-4265510Y-6148210D01*
X-4288044Y-6114486D01*
X-4372174Y-5988576D01*
X-4412470Y-5961651D01*
X-4986840Y-5387282D01*
X-4986840Y-5232340D01*
X-5093181Y-4975612D01*
X-5289672Y-4779121D01*
X-5546400Y-4672780D01*
X-5824280Y-4672780D01*
X-6081008Y-4779121D01*
X-6277499Y-4975612D01*
X-6383840Y-5232340D01*
X-6383840Y-5510220D01*
X-6277499Y-5766948D01*
X-6081008Y-5963439D01*
X-5824280Y-6069780D01*
X-5669338Y-6069780D01*
X-5202708Y-6536411D01*
X-5202708Y-7211900D01*
X-5370427Y-7211900D01*
X-5386630Y-7207012D01*
X-5435493Y-7211900D01*
X-7933970Y-7211900D01*
X-8008725Y-7286655D01*
X-8239050Y-7217172D01*
X-8476450Y-7240920D01*
X-8505470Y-7211900D01*
X-10848408Y-7211900D01*
X-10873030Y-7204472D01*
X-10947284Y-7211900D01*
X-11009441Y-7211900D01*
X-11009441Y-6179322D01*
X-10850578Y-6020459D01*
X-10810284Y-5993536D01*
X-10759254Y-5917165D01*
X-10703620Y-5833902D01*
X-10666165Y-5645601D01*
X-10675619Y-5598072D01*
X-10675619Y-4866548D01*
X-10666165Y-4819020D01*
X-10678932Y-4754835D01*
X-10703620Y-4630720D01*
X-10810284Y-4471086D01*
X-10850579Y-4444162D01*
X-13046995Y-2247747D01*
X-12957312Y-2203913D01*
X-12819677Y-2042342D01*
X-12688960Y-2129685D01*
X-12688960Y-2129685D01*
G37*
X-12688960Y-2129685D02*
X-12364720Y-2194180D01*
X-12227277Y-2166841D01*
X-10390779Y-4003340D01*
X-10363854Y-4043636D01*
X-10204220Y-4150300D01*
X-10063448Y-4178301D01*
X-10015920Y-4187755D01*
X-9968392Y-4178301D01*
X-9853390Y-4178301D01*
X-9789542Y-4165601D01*
X-3495821Y-4165601D01*
X-3538220Y-4267960D01*
X-3538220Y-4545840D01*
X-3431879Y-4802568D01*
X-3235388Y-4999059D01*
X-2978660Y-5105400D01*
X-2700780Y-5105400D01*
X-2444052Y-4999059D01*
X-2247561Y-4802568D01*
X-2204720Y-4699141D01*
X-2161879Y-4802568D01*
X-1965388Y-4999059D01*
X-1708660Y-5105400D01*
X-1430780Y-5105400D01*
X-1174052Y-4999059D01*
X-1064493Y-4889500D01*
X-504820Y-4889500D01*
X-502505Y-4901140D01*
X-318837Y-5176017D01*
X-265135Y-5211900D01*
X-318837Y-5247783D01*
X-502505Y-5522660D01*
X-567000Y-5846900D01*
X-502505Y-6171140D01*
X-318837Y-6446017D01*
X-265135Y-6481900D01*
X-318837Y-6517783D01*
X-502505Y-6792660D01*
X-567000Y-7116900D01*
X-502505Y-7441140D01*
X-318837Y-7716017D01*
X-265135Y-7751900D01*
X-318837Y-7787783D01*
X-502505Y-8062660D01*
X-567000Y-8386900D01*
X-502505Y-8711140D01*
X-318837Y-8986017D01*
X-265135Y-9021900D01*
X-318837Y-9057783D01*
X-502505Y-9332660D01*
X-567000Y-9656900D01*
X-539661Y-9794342D01*
X-2162920Y-11417602D01*
X-2203216Y-11444527D01*
X-2261682Y-11532028D01*
X-2261682Y-9982520D01*
X-1829561Y-9550400D01*
X-1674620Y-9550400D01*
X-1417892Y-9444059D01*
X-1221401Y-9247568D01*
X-1115060Y-8990840D01*
X-1115060Y-8712960D01*
X-1221401Y-8456232D01*
X-1417892Y-8259741D01*
X-1674620Y-8153400D01*
X-1952500Y-8153400D01*
X-2209228Y-8259741D01*
X-2405719Y-8456232D01*
X-2512060Y-8712960D01*
X-2512060Y-8867901D01*
X-3051921Y-9407762D01*
X-3092216Y-9434687D01*
X-3172840Y-9555350D01*
X-3198880Y-9594321D01*
X-3236336Y-9782622D01*
X-3226881Y-9830155D01*
X-3226882Y-12432592D01*
X-4237509Y-11421965D01*
X-4237509Y-6384040D01*
X-4228055Y-6336511D01*
X-4265510Y-6148210D01*
X-4288044Y-6114486D01*
X-4372174Y-5988576D01*
X-4412470Y-5961651D01*
X-4986840Y-5387282D01*
X-4986840Y-5232340D01*
X-5093181Y-4975612D01*
X-5289672Y-4779121D01*
X-5546400Y-4672780D01*
X-5824280Y-4672780D01*
X-6081008Y-4779121D01*
X-6277499Y-4975612D01*
X-6383840Y-5232340D01*
X-6383840Y-5510220D01*
X-6277499Y-5766948D01*
X-6081008Y-5963439D01*
X-5824280Y-6069780D01*
X-5669338Y-6069780D01*
X-5202708Y-6536411D01*
X-5202708Y-7211900D01*
X-5370427Y-7211900D01*
X-5386630Y-7207012D01*
X-5435493Y-7211900D01*
X-7933970Y-7211900D01*
X-8008725Y-7286655D01*
X-8239050Y-7217172D01*
X-8476450Y-7240920D01*
X-8505470Y-7211900D01*
X-10848408Y-7211900D01*
X-10873030Y-7204472D01*
X-10947284Y-7211900D01*
X-11009441Y-7211900D01*
X-11009441Y-6179322D01*
X-10850578Y-6020459D01*
X-10810284Y-5993536D01*
X-10759254Y-5917165D01*
X-10703620Y-5833902D01*
X-10666165Y-5645601D01*
X-10675619Y-5598072D01*
X-10675619Y-4866548D01*
X-10666165Y-4819020D01*
X-10678932Y-4754835D01*
X-10703620Y-4630720D01*
X-10810284Y-4471086D01*
X-10850579Y-4444162D01*
X-13046995Y-2247747D01*
X-12957312Y-2203913D01*
X-12819677Y-2042342D01*
X-12688960Y-2129685D01*
G36*
X8125460Y-11137900D02*
X8145460Y-11137900D01*
X8145460Y-11371580D01*
X8022080Y-11371580D01*
X7924739Y-11411900D01*
X7871460Y-11411900D01*
X7871460Y-11391900D01*
X7851460Y-11391900D01*
X7851460Y-11137900D01*
X7871460Y-11137900D01*
X7871460Y-11117900D01*
X8125460Y-11117900D01*
X8125460Y-11137900D01*
X8125460Y-11137900D01*
G37*
X8125460Y-11137900D02*
X8145460Y-11137900D01*
X8145460Y-11371580D01*
X8022080Y-11371580D01*
X7924739Y-11411900D01*
X7871460Y-11411900D01*
X7871460Y-11391900D01*
X7851460Y-11391900D01*
X7851460Y-11137900D01*
X7871460Y-11137900D01*
X7871460Y-11117900D01*
X8125460Y-11117900D01*
X8125460Y-11137900D01*
G36*
X8125462Y-10471148D02*
X8125462Y-10446864D01*
X8149746Y-10446864D01*
X8125462Y-10471148D01*
X8125462Y-10471148D01*
G37*
X8125462Y-10471148D02*
X8125462Y-10446864D01*
X8149746Y-10446864D01*
X8125462Y-10471148D01*
G36*
X7871458Y-10471148D02*
X7847174Y-10446864D01*
X7871458Y-10446864D01*
X7871458Y-10471148D01*
X7871458Y-10471148D01*
G37*
X7871458Y-10471148D02*
X7847174Y-10446864D01*
X7871458Y-10446864D01*
X7871458Y-10471148D01*
G36*
X5897541Y1905572D02*
X6094032Y1709081D01*
X6350760Y1602740D01*
X6628640Y1602740D01*
X6885368Y1709081D01*
X6916421Y1740134D01*
X6916421Y1599440D01*
X6593543Y1276562D01*
X6553245Y1249635D01*
X6446581Y1090000D01*
X6419378Y953241D01*
X6409126Y901700D01*
X6418580Y854172D01*
X6418581Y207552D01*
X6409126Y160020D01*
X6441342Y-1938D01*
X6446582Y-28281D01*
X6553246Y-187915D01*
X6593541Y-214840D01*
X7026700Y-647999D01*
X7053625Y-688295D01*
X7213259Y-794959D01*
X7354031Y-822960D01*
X7401559Y-832414D01*
X7449087Y-822960D01*
X7886979Y-822960D01*
X7853314Y-845454D01*
X7769106Y-971481D01*
X7739536Y-1120140D01*
X7739536Y-1755140D01*
X7769106Y-1903799D01*
X7853314Y-2029826D01*
X7979341Y-2114034D01*
X8128000Y-2143604D01*
X9271000Y-2143604D01*
X9399270Y-2118090D01*
X9527540Y-2143604D01*
X10249416Y-2143604D01*
X10202994Y-2255676D01*
X9527540Y-2255676D01*
X9399270Y-2281190D01*
X9271000Y-2255676D01*
X8128000Y-2255676D01*
X7979341Y-2285246D01*
X7853314Y-2369454D01*
X7769106Y-2495481D01*
X7739536Y-2644140D01*
X7739536Y-3279140D01*
X7769106Y-3427799D01*
X7853314Y-3553826D01*
X7979341Y-3638034D01*
X8128000Y-3667604D01*
X9271000Y-3667604D01*
X9399270Y-3642090D01*
X9527540Y-3667604D01*
X10450477Y-3667604D01*
X9692344Y-4425738D01*
X9652045Y-4452665D01*
X9545381Y-4612300D01*
X9520708Y-4736340D01*
X9507926Y-4800600D01*
X9509705Y-4809545D01*
X9364980Y-4954270D01*
X9364980Y-5875020D01*
X9384980Y-5875020D01*
X9384980Y-6129020D01*
X9364980Y-6129020D01*
X9364980Y-6149020D01*
X9110980Y-6149020D01*
X9110980Y-6129020D01*
X8444230Y-6129020D01*
X8285480Y-6287770D01*
X8285480Y-6533036D01*
X7429500Y-6533036D01*
X7426062Y-6533720D01*
X7432797Y-6499860D01*
X7364392Y-6155963D01*
X7169589Y-5864421D01*
X6907719Y-5689444D01*
X7099300Y-5689444D01*
X7247959Y-5659874D01*
X7373986Y-5575666D01*
X7458194Y-5449639D01*
X7487121Y-5304210D01*
X8285480Y-5304210D01*
X8285480Y-5716270D01*
X8444230Y-5875020D01*
X9110980Y-5875020D01*
X9110980Y-4954270D01*
X8952230Y-4795520D01*
X8794171Y-4795520D01*
X8560782Y-4892193D01*
X8382153Y-5070821D01*
X8285480Y-5304210D01*
X7487121Y-5304210D01*
X7487764Y-5300980D01*
X7487764Y-4701540D01*
X7458194Y-4552881D01*
X7373986Y-4426854D01*
X7247959Y-4342646D01*
X7170420Y-4327223D01*
X7170420Y-4134315D01*
X7364392Y-3844017D01*
X7432797Y-3500120D01*
X7364392Y-3156223D01*
X7169589Y-2864681D01*
X6878047Y-2669878D01*
X6620958Y-2618740D01*
X6048562Y-2618740D01*
X5791473Y-2669878D01*
X5659811Y-2757852D01*
X5637896Y-2725054D01*
X5511869Y-2640846D01*
X5363210Y-2611276D01*
X3963670Y-2611276D01*
X3815011Y-2640846D01*
X3779528Y-2664555D01*
X3779527Y-1588174D01*
X3788982Y-1540640D01*
X3751527Y-1352339D01*
X3671785Y-1232998D01*
X3645049Y-1192985D01*
X3895948Y-1089059D01*
X4092439Y-892568D01*
X4198780Y-635840D01*
X4198780Y-480898D01*
X5509158Y829479D01*
X5549454Y856404D01*
X5656118Y1016038D01*
X5684119Y1156810D01*
X5693573Y1204338D01*
X5684119Y1251866D01*
X5684119Y1696575D01*
X5896245Y1908701D01*
X5897541Y1905572D01*
X5897541Y1905572D01*
G37*
X5897541Y1905572D02*
X6094032Y1709081D01*
X6350760Y1602740D01*
X6628640Y1602740D01*
X6885368Y1709081D01*
X6916421Y1740134D01*
X6916421Y1599440D01*
X6593543Y1276562D01*
X6553245Y1249635D01*
X6446581Y1090000D01*
X6419378Y953241D01*
X6409126Y901700D01*
X6418580Y854172D01*
X6418581Y207552D01*
X6409126Y160020D01*
X6441342Y-1938D01*
X6446582Y-28281D01*
X6553246Y-187915D01*
X6593541Y-214840D01*
X7026700Y-647999D01*
X7053625Y-688295D01*
X7213259Y-794959D01*
X7354031Y-822960D01*
X7401559Y-832414D01*
X7449087Y-822960D01*
X7886979Y-822960D01*
X7853314Y-845454D01*
X7769106Y-971481D01*
X7739536Y-1120140D01*
X7739536Y-1755140D01*
X7769106Y-1903799D01*
X7853314Y-2029826D01*
X7979341Y-2114034D01*
X8128000Y-2143604D01*
X9271000Y-2143604D01*
X9399270Y-2118090D01*
X9527540Y-2143604D01*
X10249416Y-2143604D01*
X10202994Y-2255676D01*
X9527540Y-2255676D01*
X9399270Y-2281190D01*
X9271000Y-2255676D01*
X8128000Y-2255676D01*
X7979341Y-2285246D01*
X7853314Y-2369454D01*
X7769106Y-2495481D01*
X7739536Y-2644140D01*
X7739536Y-3279140D01*
X7769106Y-3427799D01*
X7853314Y-3553826D01*
X7979341Y-3638034D01*
X8128000Y-3667604D01*
X9271000Y-3667604D01*
X9399270Y-3642090D01*
X9527540Y-3667604D01*
X10450477Y-3667604D01*
X9692344Y-4425738D01*
X9652045Y-4452665D01*
X9545381Y-4612300D01*
X9520708Y-4736340D01*
X9507926Y-4800600D01*
X9509705Y-4809545D01*
X9364980Y-4954270D01*
X9364980Y-5875020D01*
X9384980Y-5875020D01*
X9384980Y-6129020D01*
X9364980Y-6129020D01*
X9364980Y-6149020D01*
X9110980Y-6149020D01*
X9110980Y-6129020D01*
X8444230Y-6129020D01*
X8285480Y-6287770D01*
X8285480Y-6533036D01*
X7429500Y-6533036D01*
X7426062Y-6533720D01*
X7432797Y-6499860D01*
X7364392Y-6155963D01*
X7169589Y-5864421D01*
X6907719Y-5689444D01*
X7099300Y-5689444D01*
X7247959Y-5659874D01*
X7373986Y-5575666D01*
X7458194Y-5449639D01*
X7487121Y-5304210D01*
X8285480Y-5304210D01*
X8285480Y-5716270D01*
X8444230Y-5875020D01*
X9110980Y-5875020D01*
X9110980Y-4954270D01*
X8952230Y-4795520D01*
X8794171Y-4795520D01*
X8560782Y-4892193D01*
X8382153Y-5070821D01*
X8285480Y-5304210D01*
X7487121Y-5304210D01*
X7487764Y-5300980D01*
X7487764Y-4701540D01*
X7458194Y-4552881D01*
X7373986Y-4426854D01*
X7247959Y-4342646D01*
X7170420Y-4327223D01*
X7170420Y-4134315D01*
X7364392Y-3844017D01*
X7432797Y-3500120D01*
X7364392Y-3156223D01*
X7169589Y-2864681D01*
X6878047Y-2669878D01*
X6620958Y-2618740D01*
X6048562Y-2618740D01*
X5791473Y-2669878D01*
X5659811Y-2757852D01*
X5637896Y-2725054D01*
X5511869Y-2640846D01*
X5363210Y-2611276D01*
X3963670Y-2611276D01*
X3815011Y-2640846D01*
X3779528Y-2664555D01*
X3779527Y-1588174D01*
X3788982Y-1540640D01*
X3751527Y-1352339D01*
X3671785Y-1232998D01*
X3645049Y-1192985D01*
X3895948Y-1089059D01*
X4092439Y-892568D01*
X4198780Y-635840D01*
X4198780Y-480898D01*
X5509158Y829479D01*
X5549454Y856404D01*
X5656118Y1016038D01*
X5684119Y1156810D01*
X5693573Y1204338D01*
X5684119Y1251866D01*
X5684119Y1696575D01*
X5896245Y1908701D01*
X5897541Y1905572D01*
G36*
X492280Y3982927D02*
X408121Y3898768D01*
X301780Y3642040D01*
X301780Y3364160D01*
X408121Y3107432D01*
X604612Y2910941D01*
X861340Y2804600D01*
X1139220Y2804600D01*
X1395948Y2910941D01*
X1592439Y3107432D01*
X1698780Y3364160D01*
X1698780Y3642040D01*
X1592439Y3898768D01*
X1508280Y3982927D01*
X1508280Y4876100D01*
X2648732Y4876100D01*
X2551780Y4642040D01*
X2551780Y4364160D01*
X2658121Y4107432D01*
X2854612Y3910941D01*
X3111340Y3804600D01*
X3389220Y3804600D01*
X3645948Y3910941D01*
X3842439Y4107432D01*
X3948780Y4364160D01*
X3948780Y4642040D01*
X3851828Y4876100D01*
X5324773Y4876100D01*
X5403152Y4797721D01*
X5659880Y4691380D01*
X5937760Y4691380D01*
X6194488Y4797721D01*
X6272867Y4876100D01*
X6734473Y4876100D01*
X6789992Y4820581D01*
X7046720Y4714240D01*
X7258421Y4714240D01*
X7160260Y4477260D01*
X7160260Y4199380D01*
X7203711Y4094481D01*
X6964454Y4094481D01*
X6916926Y4103935D01*
X6869398Y4094481D01*
X6728626Y4066480D01*
X6568992Y3959816D01*
X6542067Y3919520D01*
X4893883Y2271335D01*
X4853584Y2244408D01*
X4746920Y2084773D01*
X4724730Y1973214D01*
X4709465Y1896473D01*
X4718919Y1848945D01*
X4718920Y1404239D01*
X3516282Y201600D01*
X3361340Y201600D01*
X3104612Y95259D01*
X2908121Y-101232D01*
X2801780Y-357960D01*
X2801780Y-362994D01*
X2732880Y-294094D01*
X2732880Y-147087D01*
X2842439Y-37528D01*
X2948780Y219200D01*
X2948780Y497080D01*
X2842439Y753808D01*
X2645948Y950299D01*
X2389220Y1056640D01*
X2276123Y1056640D01*
X2377440Y1301240D01*
X2377440Y1579120D01*
X2271099Y1835848D01*
X2074608Y2032339D01*
X1817880Y2138680D01*
X1540000Y2138680D01*
X1283272Y2032339D01*
X1086781Y1835848D01*
X980440Y1579120D01*
X980440Y1301240D01*
X1086781Y1044512D01*
X1283272Y848021D01*
X1540000Y741680D01*
X1653097Y741680D01*
X1551780Y497080D01*
X1551780Y219200D01*
X1658121Y-37528D01*
X1767680Y-147087D01*
X1767680Y-446464D01*
X1758226Y-493992D01*
X1762266Y-514300D01*
X1554247Y-514300D01*
X1444688Y-404741D01*
X1187960Y-298400D01*
X910080Y-298400D01*
X653352Y-404741D01*
X456861Y-601232D01*
X350520Y-857960D01*
X350520Y-1135840D01*
X379540Y-1205900D01*
X198434Y-1205900D01*
X-43960Y-1254115D01*
X-238794Y-1384300D01*
X-252193Y-1384300D01*
X-299721Y-1374846D01*
X-347249Y-1384300D01*
X-488021Y-1412301D01*
X-647655Y-1518965D01*
X-674580Y-1559261D01*
X-1741171Y-2625852D01*
X-1741171Y-2597911D01*
X-1847512Y-2341183D01*
X-2029390Y-2159305D01*
X-1880481Y-2129685D01*
X-1605603Y-1946017D01*
X-1421935Y-1671140D01*
X-1373720Y-1428746D01*
X-1373720Y334946D01*
X-1421935Y577340D01*
X-1605603Y852217D01*
X-1880480Y1035885D01*
X-2204720Y1100380D01*
X-2342162Y1073041D01*
X-3577537Y2308415D01*
X-3338132Y2407581D01*
X-3141641Y2604072D01*
X-3035300Y2860800D01*
X-3035300Y3015742D01*
X-2460242Y3590800D01*
X-1541780Y3590800D01*
X-1541780Y3312920D01*
X-1435439Y3056192D01*
X-1238948Y2859701D01*
X-982220Y2753360D01*
X-704340Y2753360D01*
X-447612Y2859701D01*
X-251121Y3056192D01*
X-144780Y3312920D01*
X-144780Y3590800D01*
X-251121Y3847528D01*
X-447612Y4044019D01*
X-704340Y4150360D01*
X-982220Y4150360D01*
X-1238948Y4044019D01*
X-1435439Y3847528D01*
X-1541780Y3590800D01*
X-2460242Y3590800D01*
X-1442420Y4608621D01*
X-1402125Y4635545D01*
X-1295461Y4795179D01*
X-1279365Y4876100D01*
X492281Y4876100D01*
X492280Y3982927D01*
X492280Y3982927D01*
G37*
X492280Y3982927D02*
X408121Y3898768D01*
X301780Y3642040D01*
X301780Y3364160D01*
X408121Y3107432D01*
X604612Y2910941D01*
X861340Y2804600D01*
X1139220Y2804600D01*
X1395948Y2910941D01*
X1592439Y3107432D01*
X1698780Y3364160D01*
X1698780Y3642040D01*
X1592439Y3898768D01*
X1508280Y3982927D01*
X1508280Y4876100D01*
X2648732Y4876100D01*
X2551780Y4642040D01*
X2551780Y4364160D01*
X2658121Y4107432D01*
X2854612Y3910941D01*
X3111340Y3804600D01*
X3389220Y3804600D01*
X3645948Y3910941D01*
X3842439Y4107432D01*
X3948780Y4364160D01*
X3948780Y4642040D01*
X3851828Y4876100D01*
X5324773Y4876100D01*
X5403152Y4797721D01*
X5659880Y4691380D01*
X5937760Y4691380D01*
X6194488Y4797721D01*
X6272867Y4876100D01*
X6734473Y4876100D01*
X6789992Y4820581D01*
X7046720Y4714240D01*
X7258421Y4714240D01*
X7160260Y4477260D01*
X7160260Y4199380D01*
X7203711Y4094481D01*
X6964454Y4094481D01*
X6916926Y4103935D01*
X6869398Y4094481D01*
X6728626Y4066480D01*
X6568992Y3959816D01*
X6542067Y3919520D01*
X4893883Y2271335D01*
X4853584Y2244408D01*
X4746920Y2084773D01*
X4724730Y1973214D01*
X4709465Y1896473D01*
X4718919Y1848945D01*
X4718920Y1404239D01*
X3516282Y201600D01*
X3361340Y201600D01*
X3104612Y95259D01*
X2908121Y-101232D01*
X2801780Y-357960D01*
X2801780Y-362994D01*
X2732880Y-294094D01*
X2732880Y-147087D01*
X2842439Y-37528D01*
X2948780Y219200D01*
X2948780Y497080D01*
X2842439Y753808D01*
X2645948Y950299D01*
X2389220Y1056640D01*
X2276123Y1056640D01*
X2377440Y1301240D01*
X2377440Y1579120D01*
X2271099Y1835848D01*
X2074608Y2032339D01*
X1817880Y2138680D01*
X1540000Y2138680D01*
X1283272Y2032339D01*
X1086781Y1835848D01*
X980440Y1579120D01*
X980440Y1301240D01*
X1086781Y1044512D01*
X1283272Y848021D01*
X1540000Y741680D01*
X1653097Y741680D01*
X1551780Y497080D01*
X1551780Y219200D01*
X1658121Y-37528D01*
X1767680Y-147087D01*
X1767680Y-446464D01*
X1758226Y-493992D01*
X1762266Y-514300D01*
X1554247Y-514300D01*
X1444688Y-404741D01*
X1187960Y-298400D01*
X910080Y-298400D01*
X653352Y-404741D01*
X456861Y-601232D01*
X350520Y-857960D01*
X350520Y-1135840D01*
X379540Y-1205900D01*
X198434Y-1205900D01*
X-43960Y-1254115D01*
X-238794Y-1384300D01*
X-252193Y-1384300D01*
X-299721Y-1374846D01*
X-347249Y-1384300D01*
X-488021Y-1412301D01*
X-647655Y-1518965D01*
X-674580Y-1559261D01*
X-1741171Y-2625852D01*
X-1741171Y-2597911D01*
X-1847512Y-2341183D01*
X-2029390Y-2159305D01*
X-1880481Y-2129685D01*
X-1605603Y-1946017D01*
X-1421935Y-1671140D01*
X-1373720Y-1428746D01*
X-1373720Y334946D01*
X-1421935Y577340D01*
X-1605603Y852217D01*
X-1880480Y1035885D01*
X-2204720Y1100380D01*
X-2342162Y1073041D01*
X-3577537Y2308415D01*
X-3338132Y2407581D01*
X-3141641Y2604072D01*
X-3035300Y2860800D01*
X-3035300Y3015742D01*
X-2460242Y3590800D01*
X-1541780Y3590800D01*
X-1541780Y3312920D01*
X-1435439Y3056192D01*
X-1238948Y2859701D01*
X-982220Y2753360D01*
X-704340Y2753360D01*
X-447612Y2859701D01*
X-251121Y3056192D01*
X-144780Y3312920D01*
X-144780Y3590800D01*
X-251121Y3847528D01*
X-447612Y4044019D01*
X-704340Y4150360D01*
X-982220Y4150360D01*
X-1238948Y4044019D01*
X-1435439Y3847528D01*
X-1541780Y3590800D01*
X-2460242Y3590800D01*
X-1442420Y4608621D01*
X-1402125Y4635545D01*
X-1295461Y4795179D01*
X-1279365Y4876100D01*
X492281Y4876100D01*
X492280Y3982927D01*
G36*
X-14719720Y380100D02*
X-14719720Y-419900D01*
X-13761720Y-419900D01*
X-13761720Y-399900D01*
X-13507720Y-399900D01*
X-13507720Y-419900D01*
X-13487720Y-419900D01*
X-13487720Y-673900D01*
X-13507720Y-673900D01*
X-13507720Y-693900D01*
X-13761720Y-693900D01*
X-13761720Y-673900D01*
X-14620842Y-673900D01*
X-15874161Y579419D01*
X-14655241Y579419D01*
X-14719720Y380100D01*
X-14719720Y380100D01*
G37*
X-14719720Y380100D02*
X-14719720Y-419900D01*
X-13761720Y-419900D01*
X-13761720Y-399900D01*
X-13507720Y-399900D01*
X-13507720Y-419900D01*
X-13487720Y-419900D01*
X-13487720Y-673900D01*
X-13507720Y-673900D01*
X-13507720Y-693900D01*
X-13761720Y-693900D01*
X-13761720Y-673900D01*
X-14620842Y-673900D01*
X-15874161Y579419D01*
X-14655241Y579419D01*
X-14719720Y380100D01*
G36*
X-8679180Y4718560D02*
X-8679180Y4440680D01*
X-8572839Y4183952D01*
X-8376348Y3987461D01*
X-8119620Y3881120D01*
X-7841740Y3881120D01*
X-7585012Y3987461D01*
X-7388521Y4183952D01*
X-7282180Y4440680D01*
X-7282180Y4718560D01*
X-7347436Y4876100D01*
X-6939218Y4876100D01*
X-6957357Y4857961D01*
X-6997655Y4831035D01*
X-7104319Y4671400D01*
X-7130190Y4541334D01*
X-7141774Y4483100D01*
X-7132320Y4435572D01*
X-7132319Y3718328D01*
X-7241879Y3608768D01*
X-7348220Y3352040D01*
X-7348220Y3074160D01*
X-7241879Y2817432D01*
X-7045388Y2620941D01*
X-6788660Y2514600D01*
X-6510780Y2514600D01*
X-6254052Y2620941D01*
X-6057561Y2817432D01*
X-5951220Y3074160D01*
X-5951220Y3352040D01*
X-6057561Y3608768D01*
X-6167120Y3718327D01*
X-6167120Y4283201D01*
X-5803598Y4646722D01*
X-5763305Y4673645D01*
X-5656641Y4833279D01*
X-5648123Y4876100D01*
X-5412739Y4876100D01*
X-5412739Y3026053D01*
X-5422194Y2978520D01*
X-5390151Y2817432D01*
X-5384738Y2790219D01*
X-5278074Y2630585D01*
X-5237778Y2603660D01*
X-3691399Y1057280D01*
X-3798959Y1035885D01*
X-4073836Y852217D01*
X-4109719Y798514D01*
X-4145603Y852217D01*
X-4420480Y1035885D01*
X-4744720Y1100380D01*
X-5068959Y1035885D01*
X-5343836Y852217D01*
X-5379719Y798514D01*
X-5415603Y852217D01*
X-5690480Y1035885D01*
X-6014720Y1100380D01*
X-6338959Y1035885D01*
X-6613836Y852217D01*
X-6649719Y798514D01*
X-6685603Y852217D01*
X-6960480Y1035885D01*
X-7284720Y1100380D01*
X-7608959Y1035885D01*
X-7883836Y852217D01*
X-7919719Y798514D01*
X-7955603Y852217D01*
X-8230480Y1035885D01*
X-8554720Y1100380D01*
X-8878959Y1035885D01*
X-9153836Y852217D01*
X-9189719Y798514D01*
X-9225603Y852217D01*
X-9500480Y1035885D01*
X-9824720Y1100380D01*
X-10148959Y1035885D01*
X-10423836Y852217D01*
X-10459719Y798514D01*
X-10495603Y852217D01*
X-10533670Y877653D01*
X-10323132Y964861D01*
X-10126641Y1161352D01*
X-10020300Y1418080D01*
X-10020300Y1695960D01*
X-10126641Y1952688D01*
X-10323132Y2149179D01*
X-10579860Y2255520D01*
X-10857740Y2255520D01*
X-11114468Y2149179D01*
X-11310959Y1952688D01*
X-11417300Y1695960D01*
X-11417300Y1544619D01*
X-12938456Y1544619D01*
X-12938456Y1927556D01*
X-12301920Y1927556D01*
X-12153261Y1957126D01*
X-12027234Y2041334D01*
X-11943026Y2167361D01*
X-11913456Y2316020D01*
X-11913456Y2616020D01*
X-11933347Y2716020D01*
X-11913456Y2816020D01*
X-11913456Y2967809D01*
X-11871388Y2925741D01*
X-11614660Y2819400D01*
X-11336780Y2819400D01*
X-11080052Y2925741D01*
X-10883561Y3122232D01*
X-10777220Y3378960D01*
X-10777220Y3556000D01*
X-10572750Y3556000D01*
X-10414000Y3714750D01*
X-10414000Y4381500D01*
X-10160000Y4381500D01*
X-10160000Y3714750D01*
X-10001250Y3556000D01*
X-9589190Y3556000D01*
X-9355801Y3652673D01*
X-9177173Y3831302D01*
X-9080500Y4064691D01*
X-9080500Y4222750D01*
X-9239250Y4381500D01*
X-10160000Y4381500D01*
X-10414000Y4381500D01*
X-10673590Y4381500D01*
X-10690910Y4398820D01*
X-11440160Y4398820D01*
X-11440160Y4378820D01*
X-11672983Y4378820D01*
X-11694160Y4392970D01*
X-11694160Y4398820D01*
X-11702914Y4398820D01*
X-11714160Y4406334D01*
X-11714160Y4652820D01*
X-11694160Y4652820D01*
X-11694160Y4672820D01*
X-11440160Y4672820D01*
X-11440160Y4652820D01*
X-11352070Y4652820D01*
X-11334750Y4635500D01*
X-10414000Y4635500D01*
X-10414000Y4655500D01*
X-10160000Y4655500D01*
X-10160000Y4635500D01*
X-9239250Y4635500D01*
X-9080500Y4794250D01*
X-9080500Y4876100D01*
X-8613924Y4876100D01*
X-8679180Y4718560D01*
X-8679180Y4718560D01*
G37*
X-8679180Y4718560D02*
X-8679180Y4440680D01*
X-8572839Y4183952D01*
X-8376348Y3987461D01*
X-8119620Y3881120D01*
X-7841740Y3881120D01*
X-7585012Y3987461D01*
X-7388521Y4183952D01*
X-7282180Y4440680D01*
X-7282180Y4718560D01*
X-7347436Y4876100D01*
X-6939218Y4876100D01*
X-6957357Y4857961D01*
X-6997655Y4831035D01*
X-7104319Y4671400D01*
X-7130190Y4541334D01*
X-7141774Y4483100D01*
X-7132320Y4435572D01*
X-7132319Y3718328D01*
X-7241879Y3608768D01*
X-7348220Y3352040D01*
X-7348220Y3074160D01*
X-7241879Y2817432D01*
X-7045388Y2620941D01*
X-6788660Y2514600D01*
X-6510780Y2514600D01*
X-6254052Y2620941D01*
X-6057561Y2817432D01*
X-5951220Y3074160D01*
X-5951220Y3352040D01*
X-6057561Y3608768D01*
X-6167120Y3718327D01*
X-6167120Y4283201D01*
X-5803598Y4646722D01*
X-5763305Y4673645D01*
X-5656641Y4833279D01*
X-5648123Y4876100D01*
X-5412739Y4876100D01*
X-5412739Y3026053D01*
X-5422194Y2978520D01*
X-5390151Y2817432D01*
X-5384738Y2790219D01*
X-5278074Y2630585D01*
X-5237778Y2603660D01*
X-3691399Y1057280D01*
X-3798959Y1035885D01*
X-4073836Y852217D01*
X-4109719Y798514D01*
X-4145603Y852217D01*
X-4420480Y1035885D01*
X-4744720Y1100380D01*
X-5068959Y1035885D01*
X-5343836Y852217D01*
X-5379719Y798514D01*
X-5415603Y852217D01*
X-5690480Y1035885D01*
X-6014720Y1100380D01*
X-6338959Y1035885D01*
X-6613836Y852217D01*
X-6649719Y798514D01*
X-6685603Y852217D01*
X-6960480Y1035885D01*
X-7284720Y1100380D01*
X-7608959Y1035885D01*
X-7883836Y852217D01*
X-7919719Y798514D01*
X-7955603Y852217D01*
X-8230480Y1035885D01*
X-8554720Y1100380D01*
X-8878959Y1035885D01*
X-9153836Y852217D01*
X-9189719Y798514D01*
X-9225603Y852217D01*
X-9500480Y1035885D01*
X-9824720Y1100380D01*
X-10148959Y1035885D01*
X-10423836Y852217D01*
X-10459719Y798514D01*
X-10495603Y852217D01*
X-10533670Y877653D01*
X-10323132Y964861D01*
X-10126641Y1161352D01*
X-10020300Y1418080D01*
X-10020300Y1695960D01*
X-10126641Y1952688D01*
X-10323132Y2149179D01*
X-10579860Y2255520D01*
X-10857740Y2255520D01*
X-11114468Y2149179D01*
X-11310959Y1952688D01*
X-11417300Y1695960D01*
X-11417300Y1544619D01*
X-12938456Y1544619D01*
X-12938456Y1927556D01*
X-12301920Y1927556D01*
X-12153261Y1957126D01*
X-12027234Y2041334D01*
X-11943026Y2167361D01*
X-11913456Y2316020D01*
X-11913456Y2616020D01*
X-11933347Y2716020D01*
X-11913456Y2816020D01*
X-11913456Y2967809D01*
X-11871388Y2925741D01*
X-11614660Y2819400D01*
X-11336780Y2819400D01*
X-11080052Y2925741D01*
X-10883561Y3122232D01*
X-10777220Y3378960D01*
X-10777220Y3556000D01*
X-10572750Y3556000D01*
X-10414000Y3714750D01*
X-10414000Y4381500D01*
X-10160000Y4381500D01*
X-10160000Y3714750D01*
X-10001250Y3556000D01*
X-9589190Y3556000D01*
X-9355801Y3652673D01*
X-9177173Y3831302D01*
X-9080500Y4064691D01*
X-9080500Y4222750D01*
X-9239250Y4381500D01*
X-10160000Y4381500D01*
X-10414000Y4381500D01*
X-10673590Y4381500D01*
X-10690910Y4398820D01*
X-11440160Y4398820D01*
X-11440160Y4378820D01*
X-11672983Y4378820D01*
X-11694160Y4392970D01*
X-11694160Y4398820D01*
X-11702914Y4398820D01*
X-11714160Y4406334D01*
X-11714160Y4652820D01*
X-11694160Y4652820D01*
X-11694160Y4672820D01*
X-11440160Y4672820D01*
X-11440160Y4652820D01*
X-11352070Y4652820D01*
X-11334750Y4635500D01*
X-10414000Y4635500D01*
X-10414000Y4655500D01*
X-10160000Y4655500D01*
X-10160000Y4635500D01*
X-9239250Y4635500D01*
X-9080500Y4794250D01*
X-9080500Y4876100D01*
X-8613924Y4876100D01*
X-8679180Y4718560D01*
G36*
X-14726920Y3850370D02*
X-14714270Y3863020D01*
X-14666030Y3863020D01*
X-14579920Y3776910D01*
X-14579920Y3728670D01*
X-14592570Y3716020D01*
X-14579920Y3703370D01*
X-14579920Y3655130D01*
X-14666030Y3569020D01*
X-14714270Y3569020D01*
X-14726920Y3581670D01*
X-14739570Y3569020D01*
X-14787810Y3569020D01*
X-14873920Y3655130D01*
X-14873920Y3703370D01*
X-14861270Y3716020D01*
X-14873920Y3728670D01*
X-14873920Y3776910D01*
X-14787810Y3863020D01*
X-14739570Y3863020D01*
X-14726920Y3850370D01*
X-14726920Y3850370D01*
G37*
X-14726920Y3850370D02*
X-14714270Y3863020D01*
X-14666030Y3863020D01*
X-14579920Y3776910D01*
X-14579920Y3728670D01*
X-14592570Y3716020D01*
X-14579920Y3703370D01*
X-14579920Y3655130D01*
X-14666030Y3569020D01*
X-14714270Y3569020D01*
X-14726920Y3581670D01*
X-14739570Y3569020D01*
X-14787810Y3569020D01*
X-14873920Y3655130D01*
X-14873920Y3703370D01*
X-14861270Y3716020D01*
X-14873920Y3728670D01*
X-14873920Y3776910D01*
X-14787810Y3863020D01*
X-14739570Y3863020D01*
X-14726920Y3850370D01*
G04 #@! TO.N,AGND*
G36*
X19538951Y5630100D02*
X14925040Y5630100D01*
X14925040Y6459621D01*
X14949150Y6483731D01*
X14991567Y6512073D01*
X15103845Y6680108D01*
X15133320Y6828288D01*
X15133320Y6828291D01*
X15143271Y6878319D01*
X15133320Y6928347D01*
X15133320Y8085220D01*
X15243793Y8195693D01*
X15286207Y8224033D01*
X15331676Y8292081D01*
X15398485Y8392068D01*
X15400019Y8399780D01*
X15427960Y8540248D01*
X15427960Y8540252D01*
X15437911Y8590280D01*
X15427960Y8640308D01*
X15427960Y11689480D01*
X15774653Y12036173D01*
X15817067Y12064513D01*
X15929345Y12232548D01*
X15958820Y12380728D01*
X15958820Y12380731D01*
X15968771Y12430759D01*
X15958820Y12480787D01*
X15958820Y13873713D01*
X16022659Y13937552D01*
X16129000Y14194280D01*
X16129000Y14472160D01*
X16022659Y14728888D01*
X15826168Y14925379D01*
X15569440Y15031720D01*
X15291560Y15031720D01*
X15034832Y14925379D01*
X14838341Y14728888D01*
X14732000Y14472160D01*
X14732000Y14194280D01*
X14838341Y13937552D01*
X14942821Y13833072D01*
X14942820Y12641180D01*
X14596126Y12294486D01*
X14553714Y12266147D01*
X14525375Y12223735D01*
X14525372Y12223732D01*
X14467684Y12137396D01*
X14467684Y12419039D01*
X14617547Y12568901D01*
X14714220Y12802290D01*
X14714220Y13214350D01*
X14555470Y13373100D01*
X13888720Y13373100D01*
X13888720Y13353100D01*
X13634720Y13353100D01*
X13634720Y13373100D01*
X13614720Y13373100D01*
X13614720Y13627100D01*
X13634720Y13627100D01*
X13634720Y14547850D01*
X13888720Y14547850D01*
X13888720Y13627100D01*
X14555470Y13627100D01*
X14714220Y13785850D01*
X14714220Y14197910D01*
X14617547Y14431299D01*
X14438918Y14609927D01*
X14205529Y14706600D01*
X14047470Y14706600D01*
X13888720Y14547850D01*
X13634720Y14547850D01*
X13475970Y14706600D01*
X13317911Y14706600D01*
X13084522Y14609927D01*
X12905893Y14431299D01*
X12855076Y14308616D01*
X12829906Y14346286D01*
X12703879Y14430494D01*
X12555220Y14460064D01*
X11920220Y14460064D01*
X11771561Y14430494D01*
X11652623Y14351023D01*
X11592899Y14495208D01*
X11396408Y14691699D01*
X11139680Y14798040D01*
X10861800Y14798040D01*
X10668921Y14718146D01*
X10494708Y14892359D01*
X10237980Y14998700D01*
X9960100Y14998700D01*
X9703372Y14892359D01*
X9506881Y14695868D01*
X9400540Y14439140D01*
X9400540Y14161260D01*
X9401638Y14158610D01*
X9392920Y14160344D01*
X8691880Y14160344D01*
X8543221Y14130774D01*
X8417194Y14046566D01*
X8374520Y13982700D01*
X8104837Y13982700D01*
X8178800Y14161260D01*
X8178800Y14439140D01*
X8072459Y14695868D01*
X7875968Y14892359D01*
X7619240Y14998700D01*
X7341360Y14998700D01*
X7084632Y14892359D01*
X7048733Y14856460D01*
X-1766061Y14856460D01*
X-1878119Y14968517D01*
X-1905045Y15008815D01*
X-2064679Y15115479D01*
X-2205451Y15143480D01*
X-2205452Y15143480D01*
X-2252980Y15152934D01*
X-2300508Y15143480D01*
X-4095213Y15143480D01*
X-4142741Y15152934D01*
X-4190269Y15143480D01*
X-4331041Y15115479D01*
X-4490675Y15008815D01*
X-4517600Y14968519D01*
X-4841159Y14644959D01*
X-4879341Y14652554D01*
X-4926869Y14643100D01*
X-5067641Y14615099D01*
X-5227275Y14508435D01*
X-5254200Y14468139D01*
X-5261766Y14460573D01*
X-5261766Y14951710D01*
X-5291336Y15100369D01*
X-5375544Y15226396D01*
X-5501571Y15310604D01*
X-5650230Y15340174D01*
X-5862476Y15340174D01*
X-5862476Y15750540D01*
X-5892046Y15899199D01*
X-5976254Y16025226D01*
X-6102281Y16109434D01*
X-6250940Y16139004D01*
X-7449820Y16139004D01*
X-7598479Y16109434D01*
X-7724506Y16025226D01*
X-7808714Y15899199D01*
X-7838284Y15750540D01*
X-7838284Y14958095D01*
X-7839554Y14951710D01*
X-7839554Y13851890D01*
X-7809984Y13703231D01*
X-7725776Y13577204D01*
X-7725015Y13576695D01*
X-7724506Y13575934D01*
X-7598479Y13491726D01*
X-7449820Y13462156D01*
X-6250940Y13462156D01*
X-6244555Y13463426D01*
X-6167279Y13463426D01*
X-6179688Y13401040D01*
X-6180907Y13394912D01*
X-6202611Y13409414D01*
X-6351270Y13438984D01*
X-8451850Y13438984D01*
X-8600509Y13409414D01*
X-8726536Y13325206D01*
X-8810744Y13199179D01*
X-8822579Y13139679D01*
X-8851831Y13159224D01*
X-9000490Y13188794D01*
X-9399270Y13188794D01*
X-9525000Y13163785D01*
X-9650730Y13188794D01*
X-10049510Y13188794D01*
X-10175240Y13163785D01*
X-10300970Y13188794D01*
X-10699750Y13188794D01*
X-10825480Y13163785D01*
X-10951210Y13188794D01*
X-11349990Y13188794D01*
X-11475720Y13163785D01*
X-11601450Y13188794D01*
X-12000230Y13188794D01*
X-12148889Y13159224D01*
X-12178141Y13139679D01*
X-12189976Y13199179D01*
X-12274184Y13325206D01*
X-12400211Y13409414D01*
X-12548870Y13438984D01*
X-14649450Y13438984D01*
X-14798109Y13409414D01*
X-14924136Y13325206D01*
X-15008344Y13199179D01*
X-15013775Y13171876D01*
X-15304056Y13462156D01*
X-13600430Y13462156D01*
X-13451771Y13491726D01*
X-13325744Y13575934D01*
X-13241536Y13701961D01*
X-13211966Y13850620D01*
X-13211966Y15750540D01*
X-13037664Y15750540D01*
X-13037664Y13850620D01*
X-13008094Y13701961D01*
X-12923886Y13575934D01*
X-12797859Y13491726D01*
X-12649200Y13462156D01*
X-10749280Y13462156D01*
X-10600621Y13491726D01*
X-10500360Y13558718D01*
X-10400099Y13491726D01*
X-10251440Y13462156D01*
X-8351520Y13462156D01*
X-8202861Y13491726D01*
X-8076834Y13575934D01*
X-7992626Y13701961D01*
X-7963056Y13850620D01*
X-7963056Y15750540D01*
X-7992626Y15899199D01*
X-8076834Y16025226D01*
X-8202861Y16109434D01*
X-8351520Y16139004D01*
X-10251440Y16139004D01*
X-10400099Y16109434D01*
X-10500360Y16042442D01*
X-10600621Y16109434D01*
X-10749280Y16139004D01*
X-12649200Y16139004D01*
X-12797859Y16109434D01*
X-12923886Y16025226D01*
X-13008094Y15899199D01*
X-13037664Y15750540D01*
X-13211966Y15750540D01*
X-13241536Y15899199D01*
X-13325744Y16025226D01*
X-13451771Y16109434D01*
X-13600430Y16139004D01*
X-15401290Y16139004D01*
X-15549949Y16109434D01*
X-15675976Y16025226D01*
X-15760184Y15899199D01*
X-15789754Y15750540D01*
X-15789754Y14132134D01*
X-15901160Y14178280D01*
X-16179040Y14178280D01*
X-16435768Y14071939D01*
X-16632259Y13875448D01*
X-16738600Y13618720D01*
X-16738600Y13340840D01*
X-16632259Y13084112D01*
X-16435768Y12887621D01*
X-16179040Y12781280D01*
X-16060020Y12781280D01*
X-15788640Y12509899D01*
X-15788639Y9803324D01*
X-19364029Y6227933D01*
X-19411748Y6196048D01*
X-19538061Y6007007D01*
X-19571220Y5840305D01*
X-19571220Y5840301D01*
X-19582415Y5784020D01*
X-19571220Y5727739D01*
X-19571220Y5630100D01*
X-19630390Y5630100D01*
X-19630390Y10423400D01*
X-18437860Y10423400D01*
X-18437860Y10145520D01*
X-18331519Y9888792D01*
X-18135028Y9692301D01*
X-17878300Y9585960D01*
X-17600420Y9585960D01*
X-17343692Y9692301D01*
X-17147201Y9888792D01*
X-17040860Y10145520D01*
X-17040860Y10423400D01*
X-17147201Y10680128D01*
X-17343692Y10876619D01*
X-17600420Y10982960D01*
X-17878300Y10982960D01*
X-18135028Y10876619D01*
X-18331519Y10680128D01*
X-18437860Y10423400D01*
X-19630390Y10423400D01*
X-19630390Y15677546D01*
X-18376720Y15677546D01*
X-18376720Y15328654D01*
X-18243204Y15006320D01*
X-17996500Y14759616D01*
X-17674166Y14626100D01*
X-17325274Y14626100D01*
X-17002940Y14759616D01*
X-16756236Y15006320D01*
X-16622720Y15328654D01*
X-16622720Y15677546D01*
X-16756236Y15999880D01*
X-17002940Y16246584D01*
X-17325274Y16380100D01*
X-17674166Y16380100D01*
X-17996500Y16246584D01*
X-18243204Y15999880D01*
X-18376720Y15677546D01*
X-19630390Y15677546D01*
X-19630390Y17682178D01*
X2394268Y17682178D01*
X2394268Y15520003D01*
X4118293Y15520003D01*
X4118293Y16177546D01*
X16123280Y16177546D01*
X16123280Y15828654D01*
X16256796Y15506320D01*
X16503500Y15259616D01*
X16825834Y15126100D01*
X17174726Y15126100D01*
X17497060Y15259616D01*
X17743764Y15506320D01*
X17877280Y15828654D01*
X17877280Y16177546D01*
X17743764Y16499880D01*
X17497060Y16746584D01*
X17174726Y16880100D01*
X16825834Y16880100D01*
X16503500Y16746584D01*
X16256796Y16499880D01*
X16123280Y16177546D01*
X4118293Y16177546D01*
X4118293Y17682178D01*
X2394268Y17682178D01*
X-19630390Y17682178D01*
X-19630390Y17717770D01*
X19538951Y17717770D01*
X19538951Y5630100D01*
X19538951Y5630100D01*
G37*
X19538951Y5630100D02*
X14925040Y5630100D01*
X14925040Y6459621D01*
X14949150Y6483731D01*
X14991567Y6512073D01*
X15103845Y6680108D01*
X15133320Y6828288D01*
X15133320Y6828291D01*
X15143271Y6878319D01*
X15133320Y6928347D01*
X15133320Y8085220D01*
X15243793Y8195693D01*
X15286207Y8224033D01*
X15331676Y8292081D01*
X15398485Y8392068D01*
X15400019Y8399780D01*
X15427960Y8540248D01*
X15427960Y8540252D01*
X15437911Y8590280D01*
X15427960Y8640308D01*
X15427960Y11689480D01*
X15774653Y12036173D01*
X15817067Y12064513D01*
X15929345Y12232548D01*
X15958820Y12380728D01*
X15958820Y12380731D01*
X15968771Y12430759D01*
X15958820Y12480787D01*
X15958820Y13873713D01*
X16022659Y13937552D01*
X16129000Y14194280D01*
X16129000Y14472160D01*
X16022659Y14728888D01*
X15826168Y14925379D01*
X15569440Y15031720D01*
X15291560Y15031720D01*
X15034832Y14925379D01*
X14838341Y14728888D01*
X14732000Y14472160D01*
X14732000Y14194280D01*
X14838341Y13937552D01*
X14942821Y13833072D01*
X14942820Y12641180D01*
X14596126Y12294486D01*
X14553714Y12266147D01*
X14525375Y12223735D01*
X14525372Y12223732D01*
X14467684Y12137396D01*
X14467684Y12419039D01*
X14617547Y12568901D01*
X14714220Y12802290D01*
X14714220Y13214350D01*
X14555470Y13373100D01*
X13888720Y13373100D01*
X13888720Y13353100D01*
X13634720Y13353100D01*
X13634720Y13373100D01*
X13614720Y13373100D01*
X13614720Y13627100D01*
X13634720Y13627100D01*
X13634720Y14547850D01*
X13888720Y14547850D01*
X13888720Y13627100D01*
X14555470Y13627100D01*
X14714220Y13785850D01*
X14714220Y14197910D01*
X14617547Y14431299D01*
X14438918Y14609927D01*
X14205529Y14706600D01*
X14047470Y14706600D01*
X13888720Y14547850D01*
X13634720Y14547850D01*
X13475970Y14706600D01*
X13317911Y14706600D01*
X13084522Y14609927D01*
X12905893Y14431299D01*
X12855076Y14308616D01*
X12829906Y14346286D01*
X12703879Y14430494D01*
X12555220Y14460064D01*
X11920220Y14460064D01*
X11771561Y14430494D01*
X11652623Y14351023D01*
X11592899Y14495208D01*
X11396408Y14691699D01*
X11139680Y14798040D01*
X10861800Y14798040D01*
X10668921Y14718146D01*
X10494708Y14892359D01*
X10237980Y14998700D01*
X9960100Y14998700D01*
X9703372Y14892359D01*
X9506881Y14695868D01*
X9400540Y14439140D01*
X9400540Y14161260D01*
X9401638Y14158610D01*
X9392920Y14160344D01*
X8691880Y14160344D01*
X8543221Y14130774D01*
X8417194Y14046566D01*
X8374520Y13982700D01*
X8104837Y13982700D01*
X8178800Y14161260D01*
X8178800Y14439140D01*
X8072459Y14695868D01*
X7875968Y14892359D01*
X7619240Y14998700D01*
X7341360Y14998700D01*
X7084632Y14892359D01*
X7048733Y14856460D01*
X-1766061Y14856460D01*
X-1878119Y14968517D01*
X-1905045Y15008815D01*
X-2064679Y15115479D01*
X-2205451Y15143480D01*
X-2205452Y15143480D01*
X-2252980Y15152934D01*
X-2300508Y15143480D01*
X-4095213Y15143480D01*
X-4142741Y15152934D01*
X-4190269Y15143480D01*
X-4331041Y15115479D01*
X-4490675Y15008815D01*
X-4517600Y14968519D01*
X-4841159Y14644959D01*
X-4879341Y14652554D01*
X-4926869Y14643100D01*
X-5067641Y14615099D01*
X-5227275Y14508435D01*
X-5254200Y14468139D01*
X-5261766Y14460573D01*
X-5261766Y14951710D01*
X-5291336Y15100369D01*
X-5375544Y15226396D01*
X-5501571Y15310604D01*
X-5650230Y15340174D01*
X-5862476Y15340174D01*
X-5862476Y15750540D01*
X-5892046Y15899199D01*
X-5976254Y16025226D01*
X-6102281Y16109434D01*
X-6250940Y16139004D01*
X-7449820Y16139004D01*
X-7598479Y16109434D01*
X-7724506Y16025226D01*
X-7808714Y15899199D01*
X-7838284Y15750540D01*
X-7838284Y14958095D01*
X-7839554Y14951710D01*
X-7839554Y13851890D01*
X-7809984Y13703231D01*
X-7725776Y13577204D01*
X-7725015Y13576695D01*
X-7724506Y13575934D01*
X-7598479Y13491726D01*
X-7449820Y13462156D01*
X-6250940Y13462156D01*
X-6244555Y13463426D01*
X-6167279Y13463426D01*
X-6179688Y13401040D01*
X-6180907Y13394912D01*
X-6202611Y13409414D01*
X-6351270Y13438984D01*
X-8451850Y13438984D01*
X-8600509Y13409414D01*
X-8726536Y13325206D01*
X-8810744Y13199179D01*
X-8822579Y13139679D01*
X-8851831Y13159224D01*
X-9000490Y13188794D01*
X-9399270Y13188794D01*
X-9525000Y13163785D01*
X-9650730Y13188794D01*
X-10049510Y13188794D01*
X-10175240Y13163785D01*
X-10300970Y13188794D01*
X-10699750Y13188794D01*
X-10825480Y13163785D01*
X-10951210Y13188794D01*
X-11349990Y13188794D01*
X-11475720Y13163785D01*
X-11601450Y13188794D01*
X-12000230Y13188794D01*
X-12148889Y13159224D01*
X-12178141Y13139679D01*
X-12189976Y13199179D01*
X-12274184Y13325206D01*
X-12400211Y13409414D01*
X-12548870Y13438984D01*
X-14649450Y13438984D01*
X-14798109Y13409414D01*
X-14924136Y13325206D01*
X-15008344Y13199179D01*
X-15013775Y13171876D01*
X-15304056Y13462156D01*
X-13600430Y13462156D01*
X-13451771Y13491726D01*
X-13325744Y13575934D01*
X-13241536Y13701961D01*
X-13211966Y13850620D01*
X-13211966Y15750540D01*
X-13037664Y15750540D01*
X-13037664Y13850620D01*
X-13008094Y13701961D01*
X-12923886Y13575934D01*
X-12797859Y13491726D01*
X-12649200Y13462156D01*
X-10749280Y13462156D01*
X-10600621Y13491726D01*
X-10500360Y13558718D01*
X-10400099Y13491726D01*
X-10251440Y13462156D01*
X-8351520Y13462156D01*
X-8202861Y13491726D01*
X-8076834Y13575934D01*
X-7992626Y13701961D01*
X-7963056Y13850620D01*
X-7963056Y15750540D01*
X-7992626Y15899199D01*
X-8076834Y16025226D01*
X-8202861Y16109434D01*
X-8351520Y16139004D01*
X-10251440Y16139004D01*
X-10400099Y16109434D01*
X-10500360Y16042442D01*
X-10600621Y16109434D01*
X-10749280Y16139004D01*
X-12649200Y16139004D01*
X-12797859Y16109434D01*
X-12923886Y16025226D01*
X-13008094Y15899199D01*
X-13037664Y15750540D01*
X-13211966Y15750540D01*
X-13241536Y15899199D01*
X-13325744Y16025226D01*
X-13451771Y16109434D01*
X-13600430Y16139004D01*
X-15401290Y16139004D01*
X-15549949Y16109434D01*
X-15675976Y16025226D01*
X-15760184Y15899199D01*
X-15789754Y15750540D01*
X-15789754Y14132134D01*
X-15901160Y14178280D01*
X-16179040Y14178280D01*
X-16435768Y14071939D01*
X-16632259Y13875448D01*
X-16738600Y13618720D01*
X-16738600Y13340840D01*
X-16632259Y13084112D01*
X-16435768Y12887621D01*
X-16179040Y12781280D01*
X-16060020Y12781280D01*
X-15788640Y12509899D01*
X-15788639Y9803324D01*
X-19364029Y6227933D01*
X-19411748Y6196048D01*
X-19538061Y6007007D01*
X-19571220Y5840305D01*
X-19571220Y5840301D01*
X-19582415Y5784020D01*
X-19571220Y5727739D01*
X-19571220Y5630100D01*
X-19630390Y5630100D01*
X-19630390Y10423400D01*
X-18437860Y10423400D01*
X-18437860Y10145520D01*
X-18331519Y9888792D01*
X-18135028Y9692301D01*
X-17878300Y9585960D01*
X-17600420Y9585960D01*
X-17343692Y9692301D01*
X-17147201Y9888792D01*
X-17040860Y10145520D01*
X-17040860Y10423400D01*
X-17147201Y10680128D01*
X-17343692Y10876619D01*
X-17600420Y10982960D01*
X-17878300Y10982960D01*
X-18135028Y10876619D01*
X-18331519Y10680128D01*
X-18437860Y10423400D01*
X-19630390Y10423400D01*
X-19630390Y15677546D01*
X-18376720Y15677546D01*
X-18376720Y15328654D01*
X-18243204Y15006320D01*
X-17996500Y14759616D01*
X-17674166Y14626100D01*
X-17325274Y14626100D01*
X-17002940Y14759616D01*
X-16756236Y15006320D01*
X-16622720Y15328654D01*
X-16622720Y15677546D01*
X-16756236Y15999880D01*
X-17002940Y16246584D01*
X-17325274Y16380100D01*
X-17674166Y16380100D01*
X-17996500Y16246584D01*
X-18243204Y15999880D01*
X-18376720Y15677546D01*
X-19630390Y15677546D01*
X-19630390Y17682178D01*
X2394268Y17682178D01*
X2394268Y15520003D01*
X4118293Y15520003D01*
X4118293Y16177546D01*
X16123280Y16177546D01*
X16123280Y15828654D01*
X16256796Y15506320D01*
X16503500Y15259616D01*
X16825834Y15126100D01*
X17174726Y15126100D01*
X17497060Y15259616D01*
X17743764Y15506320D01*
X17877280Y15828654D01*
X17877280Y16177546D01*
X17743764Y16499880D01*
X17497060Y16746584D01*
X17174726Y16880100D01*
X16825834Y16880100D01*
X16503500Y16746584D01*
X16256796Y16499880D01*
X16123280Y16177546D01*
X4118293Y16177546D01*
X4118293Y17682178D01*
X2394268Y17682178D01*
X-19630390Y17682178D01*
X-19630390Y17717770D01*
X19538951Y17717770D01*
X19538951Y5630100D01*
G36*
X-5412740Y7501381D02*
X-5412740Y5630100D01*
X-5628640Y5630100D01*
X-5628640Y6051550D01*
X-5555041Y6161699D01*
X-5527040Y6302471D01*
X-5527040Y6302472D01*
X-5517586Y6349999D01*
X-5527040Y6397527D01*
X-5527040Y6813013D01*
X-5517586Y6860541D01*
X-5531227Y6929120D01*
X-5555041Y7048841D01*
X-5661705Y7208475D01*
X-5702001Y7235400D01*
X-5908040Y7441438D01*
X-5908040Y7996682D01*
X-5412740Y7501381D01*
X-5412740Y7501381D01*
G37*
X-5412740Y7501381D02*
X-5412740Y5630100D01*
X-5628640Y5630100D01*
X-5628640Y6051550D01*
X-5555041Y6161699D01*
X-5527040Y6302471D01*
X-5527040Y6302472D01*
X-5517586Y6349999D01*
X-5527040Y6397527D01*
X-5527040Y6813013D01*
X-5517586Y6860541D01*
X-5531227Y6929120D01*
X-5555041Y7048841D01*
X-5661705Y7208475D01*
X-5702001Y7235400D01*
X-5908040Y7441438D01*
X-5908040Y7996682D01*
X-5412740Y7501381D01*
G36*
X-2340820Y14066221D02*
X-2313895Y14025925D01*
X-2207296Y13954698D01*
X-2154261Y13919261D01*
X-1965960Y13881806D01*
X-1918431Y13891260D01*
X4191813Y13891260D01*
X4132580Y13748260D01*
X4132580Y13470380D01*
X4238921Y13213652D01*
X4435412Y13017161D01*
X4692140Y12910820D01*
X4970020Y12910820D01*
X5226748Y13017161D01*
X5285740Y13076153D01*
X5285740Y12785090D01*
X5444490Y12626340D01*
X6111240Y12626340D01*
X6111240Y13547090D01*
X5952490Y13705840D01*
X5794431Y13705840D01*
X5561042Y13609167D01*
X5529580Y13577705D01*
X5529580Y13748260D01*
X5470347Y13891260D01*
X6901413Y13891260D01*
X6949066Y13843607D01*
X6925098Y13807736D01*
X6781859Y13664497D01*
X6682049Y13705840D01*
X6523990Y13705840D01*
X6365240Y13547090D01*
X6365240Y12626340D01*
X6385240Y12626340D01*
X6385240Y12372340D01*
X6365240Y12372340D01*
X6365240Y11127740D01*
X6385240Y11127740D01*
X6385240Y10873740D01*
X6365240Y10873740D01*
X6365240Y10853740D01*
X6111240Y10853740D01*
X6111240Y10873740D01*
X5444490Y10873740D01*
X5285740Y10714990D01*
X5285740Y10302930D01*
X5382413Y10069541D01*
X5561042Y9890913D01*
X5794431Y9794240D01*
X5826386Y9794240D01*
X5786120Y9697030D01*
X5786120Y9284970D01*
X5944870Y9126220D01*
X6611620Y9126220D01*
X6611620Y9146220D01*
X6865620Y9146220D01*
X6865620Y9126220D01*
X6885620Y9126220D01*
X6885620Y8872220D01*
X6865620Y8872220D01*
X6865620Y7951470D01*
X7024370Y7792720D01*
X7182429Y7792720D01*
X7415818Y7889393D01*
X7594447Y8068021D01*
X7645264Y8190704D01*
X7670434Y8153034D01*
X7738910Y8107280D01*
X7731916Y8072120D01*
X7731916Y6929120D01*
X7761486Y6780461D01*
X7825368Y6684854D01*
X7810500Y6648960D01*
X7810500Y6502400D01*
X6476267Y6502400D01*
X6428739Y6511854D01*
X6381211Y6502400D01*
X6240439Y6474399D01*
X6080805Y6367735D01*
X6053880Y6327439D01*
X5814821Y6088380D01*
X5659880Y6088380D01*
X5403152Y5982039D01*
X5206661Y5785548D01*
X5142272Y5630100D01*
X1350434Y5630100D01*
X1324115Y5647686D01*
X448780Y6523020D01*
X448780Y6642040D01*
X381445Y6804600D01*
X639220Y6804600D01*
X895948Y6910941D01*
X1092439Y7107432D01*
X1198780Y7364160D01*
X1198780Y7642040D01*
X1092439Y7898768D01*
X895948Y8095259D01*
X639220Y8201600D01*
X361340Y8201600D01*
X104612Y8095259D01*
X-4947Y7985700D01*
X-866931Y7985700D01*
X-914460Y7995154D01*
X-1102762Y7957699D01*
X-1151200Y7925333D01*
X-1262395Y7851035D01*
X-1289320Y7810739D01*
X-2043872Y7056186D01*
X-2095161Y7180008D01*
X-2291652Y7376499D01*
X-2548380Y7482840D01*
X-2570480Y7482840D01*
X-2570480Y7489700D01*
X-2676821Y7746428D01*
X-2873312Y7942919D01*
X-3130040Y8049260D01*
X-3407920Y8049260D01*
X-3470061Y8023520D01*
X-3901440Y8454898D01*
X-3901440Y8609840D01*
X-3914777Y8642040D01*
X1801780Y8642040D01*
X1801780Y8364160D01*
X1908121Y8107432D01*
X2104612Y7910941D01*
X2361340Y7804600D01*
X2639220Y7804600D01*
X2895948Y7910941D01*
X3092439Y8107432D01*
X3198780Y8364160D01*
X3198780Y8642040D01*
X3169193Y8713470D01*
X5786120Y8713470D01*
X5786120Y8301410D01*
X5882793Y8068021D01*
X6061422Y7889393D01*
X6294811Y7792720D01*
X6452870Y7792720D01*
X6611620Y7951470D01*
X6611620Y8872220D01*
X5944870Y8872220D01*
X5786120Y8713470D01*
X3169193Y8713470D01*
X3092439Y8898768D01*
X2895948Y9095259D01*
X2639220Y9201600D01*
X2361340Y9201600D01*
X2104612Y9095259D01*
X1908121Y8898768D01*
X1801780Y8642040D01*
X-3914777Y8642040D01*
X-4007781Y8866568D01*
X-4204272Y9063059D01*
X-4461000Y9169400D01*
X-4481043Y9169400D01*
X-4401820Y9360660D01*
X-4401820Y9638540D01*
X-4508161Y9895268D01*
X-4704652Y10091759D01*
X-4961380Y10198100D01*
X-5217160Y10198100D01*
X-5217160Y12213590D01*
X5285740Y12213590D01*
X5285740Y11801530D01*
X5307068Y11750040D01*
X5285740Y11698550D01*
X5285740Y11286490D01*
X5444490Y11127740D01*
X6111240Y11127740D01*
X6111240Y12372340D01*
X5444490Y12372340D01*
X5285740Y12213590D01*
X-5217160Y12213590D01*
X-5217160Y13140182D01*
X-4681301Y13676041D01*
X-4643120Y13668446D01*
X-4595592Y13677900D01*
X-4595591Y13677900D01*
X-4454819Y13705901D01*
X-4399280Y13743011D01*
X-4399280Y13561820D01*
X-4292939Y13305092D01*
X-4096448Y13108601D01*
X-3839720Y13002260D01*
X-3561840Y13002260D01*
X-3305112Y13108601D01*
X-3108621Y13305092D01*
X-3002280Y13561820D01*
X-3002280Y13839700D01*
X-3108621Y14096428D01*
X-3190473Y14178280D01*
X-2452878Y14178280D01*
X-2340820Y14066221D01*
X-2340820Y14066221D01*
G37*
X-2340820Y14066221D02*
X-2313895Y14025925D01*
X-2207296Y13954698D01*
X-2154261Y13919261D01*
X-1965960Y13881806D01*
X-1918431Y13891260D01*
X4191813Y13891260D01*
X4132580Y13748260D01*
X4132580Y13470380D01*
X4238921Y13213652D01*
X4435412Y13017161D01*
X4692140Y12910820D01*
X4970020Y12910820D01*
X5226748Y13017161D01*
X5285740Y13076153D01*
X5285740Y12785090D01*
X5444490Y12626340D01*
X6111240Y12626340D01*
X6111240Y13547090D01*
X5952490Y13705840D01*
X5794431Y13705840D01*
X5561042Y13609167D01*
X5529580Y13577705D01*
X5529580Y13748260D01*
X5470347Y13891260D01*
X6901413Y13891260D01*
X6949066Y13843607D01*
X6925098Y13807736D01*
X6781859Y13664497D01*
X6682049Y13705840D01*
X6523990Y13705840D01*
X6365240Y13547090D01*
X6365240Y12626340D01*
X6385240Y12626340D01*
X6385240Y12372340D01*
X6365240Y12372340D01*
X6365240Y11127740D01*
X6385240Y11127740D01*
X6385240Y10873740D01*
X6365240Y10873740D01*
X6365240Y10853740D01*
X6111240Y10853740D01*
X6111240Y10873740D01*
X5444490Y10873740D01*
X5285740Y10714990D01*
X5285740Y10302930D01*
X5382413Y10069541D01*
X5561042Y9890913D01*
X5794431Y9794240D01*
X5826386Y9794240D01*
X5786120Y9697030D01*
X5786120Y9284970D01*
X5944870Y9126220D01*
X6611620Y9126220D01*
X6611620Y9146220D01*
X6865620Y9146220D01*
X6865620Y9126220D01*
X6885620Y9126220D01*
X6885620Y8872220D01*
X6865620Y8872220D01*
X6865620Y7951470D01*
X7024370Y7792720D01*
X7182429Y7792720D01*
X7415818Y7889393D01*
X7594447Y8068021D01*
X7645264Y8190704D01*
X7670434Y8153034D01*
X7738910Y8107280D01*
X7731916Y8072120D01*
X7731916Y6929120D01*
X7761486Y6780461D01*
X7825368Y6684854D01*
X7810500Y6648960D01*
X7810500Y6502400D01*
X6476267Y6502400D01*
X6428739Y6511854D01*
X6381211Y6502400D01*
X6240439Y6474399D01*
X6080805Y6367735D01*
X6053880Y6327439D01*
X5814821Y6088380D01*
X5659880Y6088380D01*
X5403152Y5982039D01*
X5206661Y5785548D01*
X5142272Y5630100D01*
X1350434Y5630100D01*
X1324115Y5647686D01*
X448780Y6523020D01*
X448780Y6642040D01*
X381445Y6804600D01*
X639220Y6804600D01*
X895948Y6910941D01*
X1092439Y7107432D01*
X1198780Y7364160D01*
X1198780Y7642040D01*
X1092439Y7898768D01*
X895948Y8095259D01*
X639220Y8201600D01*
X361340Y8201600D01*
X104612Y8095259D01*
X-4947Y7985700D01*
X-866931Y7985700D01*
X-914460Y7995154D01*
X-1102762Y7957699D01*
X-1151200Y7925333D01*
X-1262395Y7851035D01*
X-1289320Y7810739D01*
X-2043872Y7056186D01*
X-2095161Y7180008D01*
X-2291652Y7376499D01*
X-2548380Y7482840D01*
X-2570480Y7482840D01*
X-2570480Y7489700D01*
X-2676821Y7746428D01*
X-2873312Y7942919D01*
X-3130040Y8049260D01*
X-3407920Y8049260D01*
X-3470061Y8023520D01*
X-3901440Y8454898D01*
X-3901440Y8609840D01*
X-3914777Y8642040D01*
X1801780Y8642040D01*
X1801780Y8364160D01*
X1908121Y8107432D01*
X2104612Y7910941D01*
X2361340Y7804600D01*
X2639220Y7804600D01*
X2895948Y7910941D01*
X3092439Y8107432D01*
X3198780Y8364160D01*
X3198780Y8642040D01*
X3169193Y8713470D01*
X5786120Y8713470D01*
X5786120Y8301410D01*
X5882793Y8068021D01*
X6061422Y7889393D01*
X6294811Y7792720D01*
X6452870Y7792720D01*
X6611620Y7951470D01*
X6611620Y8872220D01*
X5944870Y8872220D01*
X5786120Y8713470D01*
X3169193Y8713470D01*
X3092439Y8898768D01*
X2895948Y9095259D01*
X2639220Y9201600D01*
X2361340Y9201600D01*
X2104612Y9095259D01*
X1908121Y8898768D01*
X1801780Y8642040D01*
X-3914777Y8642040D01*
X-4007781Y8866568D01*
X-4204272Y9063059D01*
X-4461000Y9169400D01*
X-4481043Y9169400D01*
X-4401820Y9360660D01*
X-4401820Y9638540D01*
X-4508161Y9895268D01*
X-4704652Y10091759D01*
X-4961380Y10198100D01*
X-5217160Y10198100D01*
X-5217160Y12213590D01*
X5285740Y12213590D01*
X5285740Y11801530D01*
X5307068Y11750040D01*
X5285740Y11698550D01*
X5285740Y11286490D01*
X5444490Y11127740D01*
X6111240Y11127740D01*
X6111240Y12372340D01*
X5444490Y12372340D01*
X5285740Y12213590D01*
X-5217160Y12213590D01*
X-5217160Y13140182D01*
X-4681301Y13676041D01*
X-4643120Y13668446D01*
X-4595592Y13677900D01*
X-4595591Y13677900D01*
X-4454819Y13705901D01*
X-4399280Y13743011D01*
X-4399280Y13561820D01*
X-4292939Y13305092D01*
X-4096448Y13108601D01*
X-3839720Y13002260D01*
X-3561840Y13002260D01*
X-3305112Y13108601D01*
X-3108621Y13305092D01*
X-3002280Y13561820D01*
X-3002280Y13839700D01*
X-3108621Y14096428D01*
X-3190473Y14178280D01*
X-2452878Y14178280D01*
X-2340820Y14066221D01*
G36*
X8734761Y11718499D02*
X8694466Y11691575D01*
X8639972Y11610019D01*
X8543221Y11590774D01*
X8468204Y11540650D01*
X8468204Y11572240D01*
X8438634Y11720899D01*
X8419163Y11750040D01*
X8438634Y11779181D01*
X8464162Y11907520D01*
X8923781Y11907520D01*
X8734761Y11718499D01*
X8734761Y11718499D01*
G37*
X8734761Y11718499D02*
X8694466Y11691575D01*
X8639972Y11610019D01*
X8543221Y11590774D01*
X8468204Y11540650D01*
X8468204Y11572240D01*
X8438634Y11720899D01*
X8419163Y11750040D01*
X8438634Y11779181D01*
X8464162Y11907520D01*
X8923781Y11907520D01*
X8734761Y11718499D01*
G04 #@! TD*
M02*
