G04 #@! TF.GenerationSoftware,KiCad,Pcbnew,5.0.2+dfsg1-1*
G04 #@! TF.CreationDate,2020-05-20T11:42:17+02:00*
G04 #@! TF.ProjectId,Crazyflie contol board,4372617a-7966-46c6-9965-20636f6e746f,2.1*
G04 #@! TF.SameCoordinates,PX85839e8PY6052f5c*
G04 #@! TF.FileFunction,Copper,L2,Inr*
G04 #@! TF.FilePolarity,Positive*
%FSLAX46Y46*%
G04 Gerber Fmt 4.6, Leading zero omitted, Abs format (unit mm)*
G04 Created by KiCad (PCBNEW 5.0.2+dfsg1-1) date wo 20 mei 2020 11:42:17 CEST*
%MOMM*%
%LPD*%
G01*
G04 APERTURE LIST*
%ADD10C,0.150000*%
%ADD11C,0.300000*%
%ADD12C,0.400000*%
G04 #@! TA.AperFunction,NonConductor*
%ADD13C,0.200025*%
G04 #@! TD*
G04 #@! TA.AperFunction,NonConductor*
%ADD14C,0.200660*%
G04 #@! TD*
G04 #@! TA.AperFunction,ViaPad*
%ADD15O,1.600200X1.198880*%
G04 #@! TD*
G04 #@! TA.AperFunction,ViaPad*
%ADD16R,1.399540X1.000760*%
G04 #@! TD*
G04 #@! TA.AperFunction,ViaPad*
%ADD17O,1.399540X1.000760*%
G04 #@! TD*
%ADD18R,1.699260X1.699260*%
G04 #@! TA.AperFunction,ViaPad*
%ADD19C,0.381000*%
G04 #@! TD*
G04 #@! TA.AperFunction,ViaPad*
%ADD20R,1.198880X1.600200*%
G04 #@! TD*
G04 #@! TA.AperFunction,ViaPad*
%ADD21O,1.198880X1.600200*%
G04 #@! TD*
G04 #@! TA.AperFunction,ViaPad*
%ADD22C,0.500000*%
G04 #@! TD*
G04 #@! TA.AperFunction,ViaPad*
%ADD23C,0.380000*%
G04 #@! TD*
G04 #@! TA.AperFunction,ViaPad*
%ADD24C,0.635000*%
G04 #@! TD*
G04 #@! TA.AperFunction,Conductor*
%ADD25C,0.203200*%
G04 #@! TD*
G04 #@! TA.AperFunction,Conductor*
%ADD26C,0.254000*%
G04 #@! TD*
G04 #@! TA.AperFunction,Conductor*
%ADD27C,0.381000*%
G04 #@! TD*
G04 APERTURE END LIST*
D10*
X37002480Y-65004100D02*
X37002480Y-97004100D01*
X145002480Y-97004100D01*
X145002480Y-65004100D01*
X37002480Y-65004100D01*
X-129999720Y91003100D02*
X-129999720Y-99004100D01*
X147002480Y-99004100D01*
X147002480Y91003100D01*
X-129999720Y91003100D01*
X-127999720Y89003100D02*
X-127999720Y-97004100D01*
X145002480Y-97004100D01*
X145002480Y89003100D01*
X-127999720Y89003100D01*
X-79999720Y89003100D02*
X-79999720Y91003100D01*
X-29999720Y89003100D02*
X-29999720Y91003100D01*
X20000280Y89003100D02*
X20000280Y91003100D01*
X70000280Y89003100D02*
X70000280Y91003100D01*
X120000280Y89003100D02*
X120000280Y91003100D01*
X-103934244Y89415005D02*
X-104677101Y89415005D01*
X-104305673Y89415005D02*
X-104305673Y90715005D01*
X-104429482Y90529291D01*
X-104553292Y90405481D01*
X-104677101Y90343577D01*
X-54677101Y90591196D02*
X-54615197Y90653100D01*
X-54491387Y90715005D01*
X-54181863Y90715005D01*
X-54058054Y90653100D01*
X-53996149Y90591196D01*
X-53934244Y90467386D01*
X-53934244Y90343577D01*
X-53996149Y90157862D01*
X-54739006Y89415005D01*
X-53934244Y89415005D01*
X-4739006Y90715005D02*
X-3934244Y90715005D01*
X-4367578Y90219767D01*
X-4181863Y90219767D01*
X-4058054Y90157862D01*
X-3996149Y90095958D01*
X-3934244Y89972148D01*
X-3934244Y89662624D01*
X-3996149Y89538815D01*
X-4058054Y89476910D01*
X-4181863Y89415005D01*
X-4553292Y89415005D01*
X-4677101Y89476910D01*
X-4739006Y89538815D01*
X45941946Y90281672D02*
X45941946Y89415005D01*
X45632422Y90776910D02*
X45322899Y89848339D01*
X46127660Y89848339D01*
X96003851Y90715005D02*
X95384803Y90715005D01*
X95322899Y90095958D01*
X95384803Y90157862D01*
X95508613Y90219767D01*
X95818137Y90219767D01*
X95941946Y90157862D01*
X96003851Y90095958D01*
X96065756Y89972148D01*
X96065756Y89662624D01*
X96003851Y89538815D01*
X95941946Y89476910D01*
X95818137Y89415005D01*
X95508613Y89415005D01*
X95384803Y89476910D01*
X95322899Y89538815D01*
X145941946Y90715005D02*
X145694327Y90715005D01*
X145570518Y90653100D01*
X145508613Y90591196D01*
X145384803Y90405481D01*
X145322899Y90157862D01*
X145322899Y89662624D01*
X145384803Y89538815D01*
X145446708Y89476910D01*
X145570518Y89415005D01*
X145818137Y89415005D01*
X145941946Y89476910D01*
X146003851Y89538815D01*
X146065756Y89662624D01*
X146065756Y89972148D01*
X146003851Y90095958D01*
X145941946Y90157862D01*
X145818137Y90219767D01*
X145570518Y90219767D01*
X145446708Y90157862D01*
X145384803Y90095958D01*
X145322899Y89972148D01*
X-79999720Y-97004100D02*
X-79999720Y-99004100D01*
X-29999720Y-97004100D02*
X-29999720Y-99004100D01*
X20000280Y-97004100D02*
X20000280Y-99004100D01*
X70000280Y-97004100D02*
X70000280Y-99004100D01*
X120000280Y-97004100D02*
X120000280Y-99004100D01*
X-103934244Y-98592195D02*
X-104677101Y-98592195D01*
X-104305673Y-98592195D02*
X-104305673Y-97292195D01*
X-104429482Y-97477909D01*
X-104553292Y-97601719D01*
X-104677101Y-97663623D01*
X-54677101Y-97416004D02*
X-54615197Y-97354100D01*
X-54491387Y-97292195D01*
X-54181863Y-97292195D01*
X-54058054Y-97354100D01*
X-53996149Y-97416004D01*
X-53934244Y-97539814D01*
X-53934244Y-97663623D01*
X-53996149Y-97849338D01*
X-54739006Y-98592195D01*
X-53934244Y-98592195D01*
X-4739006Y-97292195D02*
X-3934244Y-97292195D01*
X-4367578Y-97787433D01*
X-4181863Y-97787433D01*
X-4058054Y-97849338D01*
X-3996149Y-97911242D01*
X-3934244Y-98035052D01*
X-3934244Y-98344576D01*
X-3996149Y-98468385D01*
X-4058054Y-98530290D01*
X-4181863Y-98592195D01*
X-4553292Y-98592195D01*
X-4677101Y-98530290D01*
X-4739006Y-98468385D01*
X45941946Y-97725528D02*
X45941946Y-98592195D01*
X45632422Y-97230290D02*
X45322899Y-98158861D01*
X46127660Y-98158861D01*
X96003851Y-97292195D02*
X95384803Y-97292195D01*
X95322899Y-97911242D01*
X95384803Y-97849338D01*
X95508613Y-97787433D01*
X95818137Y-97787433D01*
X95941946Y-97849338D01*
X96003851Y-97911242D01*
X96065756Y-98035052D01*
X96065756Y-98344576D01*
X96003851Y-98468385D01*
X95941946Y-98530290D01*
X95818137Y-98592195D01*
X95508613Y-98592195D01*
X95384803Y-98530290D01*
X95322899Y-98468385D01*
X145941946Y-97292195D02*
X145694327Y-97292195D01*
X145570518Y-97354100D01*
X145508613Y-97416004D01*
X145384803Y-97601719D01*
X145322899Y-97849338D01*
X145322899Y-98344576D01*
X145384803Y-98468385D01*
X145446708Y-98530290D01*
X145570518Y-98592195D01*
X145818137Y-98592195D01*
X145941946Y-98530290D01*
X146003851Y-98468385D01*
X146065756Y-98344576D01*
X146065756Y-98035052D01*
X146003851Y-97911242D01*
X145941946Y-97849338D01*
X145818137Y-97787433D01*
X145570518Y-97787433D01*
X145446708Y-97849338D01*
X145384803Y-97911242D01*
X145322899Y-98035052D01*
X-129999720Y41003100D02*
X-127999720Y41003100D01*
X-129999720Y-8996900D02*
X-127999720Y-8996900D01*
X-129999720Y-58996900D02*
X-127999720Y-58996900D01*
X-129309244Y65786434D02*
X-128690197Y65786434D01*
X-129433054Y65415005D02*
X-128999720Y66715005D01*
X-128566387Y65415005D01*
X-128906863Y16095958D02*
X-128721149Y16034053D01*
X-128659244Y15972148D01*
X-128597340Y15848339D01*
X-128597340Y15662624D01*
X-128659244Y15538815D01*
X-128721149Y15476910D01*
X-128844959Y15415005D01*
X-129340197Y15415005D01*
X-129340197Y16715005D01*
X-128906863Y16715005D01*
X-128783054Y16653100D01*
X-128721149Y16591196D01*
X-128659244Y16467386D01*
X-128659244Y16343577D01*
X-128721149Y16219767D01*
X-128783054Y16157862D01*
X-128906863Y16095958D01*
X-129340197Y16095958D01*
X-128597340Y-34461185D02*
X-128659244Y-34523090D01*
X-128844959Y-34584995D01*
X-128968768Y-34584995D01*
X-129154482Y-34523090D01*
X-129278292Y-34399280D01*
X-129340197Y-34275471D01*
X-129402101Y-34027852D01*
X-129402101Y-33842138D01*
X-129340197Y-33594519D01*
X-129278292Y-33470709D01*
X-129154482Y-33346900D01*
X-128968768Y-33284995D01*
X-128844959Y-33284995D01*
X-128659244Y-33346900D01*
X-128597340Y-33408804D01*
X-129340197Y-84584995D02*
X-129340197Y-83284995D01*
X-129030673Y-83284995D01*
X-128844959Y-83346900D01*
X-128721149Y-83470709D01*
X-128659244Y-83594519D01*
X-128597340Y-83842138D01*
X-128597340Y-84027852D01*
X-128659244Y-84275471D01*
X-128721149Y-84399280D01*
X-128844959Y-84523090D01*
X-129030673Y-84584995D01*
X-129340197Y-84584995D01*
X147002480Y41003100D02*
X145002480Y41003100D01*
X147002480Y-8996900D02*
X145002480Y-8996900D01*
X147002480Y-58996900D02*
X145002480Y-58996900D01*
X145692956Y65786434D02*
X146312003Y65786434D01*
X145569146Y65415005D02*
X146002480Y66715005D01*
X146435813Y65415005D01*
X146095337Y16095958D02*
X146281051Y16034053D01*
X146342956Y15972148D01*
X146404860Y15848339D01*
X146404860Y15662624D01*
X146342956Y15538815D01*
X146281051Y15476910D01*
X146157241Y15415005D01*
X145662003Y15415005D01*
X145662003Y16715005D01*
X146095337Y16715005D01*
X146219146Y16653100D01*
X146281051Y16591196D01*
X146342956Y16467386D01*
X146342956Y16343577D01*
X146281051Y16219767D01*
X146219146Y16157862D01*
X146095337Y16095958D01*
X145662003Y16095958D01*
X146404860Y-34461185D02*
X146342956Y-34523090D01*
X146157241Y-34584995D01*
X146033432Y-34584995D01*
X145847718Y-34523090D01*
X145723908Y-34399280D01*
X145662003Y-34275471D01*
X145600099Y-34027852D01*
X145600099Y-33842138D01*
X145662003Y-33594519D01*
X145723908Y-33470709D01*
X145847718Y-33346900D01*
X146033432Y-33284995D01*
X146157241Y-33284995D01*
X146342956Y-33346900D01*
X146404860Y-33408804D01*
X145662003Y-84584995D02*
X145662003Y-83284995D01*
X145971527Y-83284995D01*
X146157241Y-83346900D01*
X146281051Y-83470709D01*
X146342956Y-83594519D01*
X146404860Y-83842138D01*
X146404860Y-84027852D01*
X146342956Y-84275471D01*
X146281051Y-84399280D01*
X146157241Y-84523090D01*
X145971527Y-84584995D01*
X145662003Y-84584995D01*
X60434622Y-92782671D02*
X60434622Y-91282671D01*
X60791765Y-91282671D01*
X61006051Y-91354100D01*
X61148908Y-91496957D01*
X61220337Y-91639814D01*
X61291765Y-91925528D01*
X61291765Y-92139814D01*
X61220337Y-92425528D01*
X61148908Y-92568385D01*
X61006051Y-92711242D01*
X60791765Y-92782671D01*
X60434622Y-92782671D01*
X62577480Y-92782671D02*
X62577480Y-91996957D01*
X62506051Y-91854100D01*
X62363194Y-91782671D01*
X62077480Y-91782671D01*
X61934622Y-91854100D01*
X62577480Y-92711242D02*
X62434622Y-92782671D01*
X62077480Y-92782671D01*
X61934622Y-92711242D01*
X61863194Y-92568385D01*
X61863194Y-92425528D01*
X61934622Y-92282671D01*
X62077480Y-92211242D01*
X62434622Y-92211242D01*
X62577480Y-92139814D01*
X63077480Y-91782671D02*
X63648908Y-91782671D01*
X63291765Y-91282671D02*
X63291765Y-92568385D01*
X63363194Y-92711242D01*
X63506051Y-92782671D01*
X63648908Y-92782671D01*
X64720337Y-92711242D02*
X64577480Y-92782671D01*
X64291765Y-92782671D01*
X64148908Y-92711242D01*
X64077480Y-92568385D01*
X64077480Y-91996957D01*
X64148908Y-91854100D01*
X64291765Y-91782671D01*
X64577480Y-91782671D01*
X64720337Y-91854100D01*
X64791765Y-91996957D01*
X64791765Y-92139814D01*
X64077480Y-92282671D01*
X65434622Y-92639814D02*
X65506051Y-92711242D01*
X65434622Y-92782671D01*
X65363194Y-92711242D01*
X65434622Y-92639814D01*
X65434622Y-92782671D01*
X65434622Y-91854100D02*
X65506051Y-91925528D01*
X65434622Y-91996957D01*
X65363194Y-91925528D01*
X65434622Y-91854100D01*
X65434622Y-91996957D01*
X67220337Y-91425528D02*
X67291765Y-91354100D01*
X67434622Y-91282671D01*
X67791765Y-91282671D01*
X67934622Y-91354100D01*
X68006051Y-91425528D01*
X68077480Y-91568385D01*
X68077480Y-91711242D01*
X68006051Y-91925528D01*
X67148908Y-92782671D01*
X68077480Y-92782671D01*
X69006051Y-91282671D02*
X69148908Y-91282671D01*
X69291765Y-91354100D01*
X69363194Y-91425528D01*
X69434622Y-91568385D01*
X69506051Y-91854100D01*
X69506051Y-92211242D01*
X69434622Y-92496957D01*
X69363194Y-92639814D01*
X69291765Y-92711242D01*
X69148908Y-92782671D01*
X69006051Y-92782671D01*
X68863194Y-92711242D01*
X68791765Y-92639814D01*
X68720337Y-92496957D01*
X68648908Y-92211242D01*
X68648908Y-91854100D01*
X68720337Y-91568385D01*
X68791765Y-91425528D01*
X68863194Y-91354100D01*
X69006051Y-91282671D01*
X70077480Y-91425528D02*
X70148908Y-91354100D01*
X70291765Y-91282671D01*
X70648908Y-91282671D01*
X70791765Y-91354100D01*
X70863194Y-91425528D01*
X70934622Y-91568385D01*
X70934622Y-91711242D01*
X70863194Y-91925528D01*
X70006051Y-92782671D01*
X70934622Y-92782671D01*
X71863194Y-91282671D02*
X72006051Y-91282671D01*
X72148908Y-91354100D01*
X72220337Y-91425528D01*
X72291765Y-91568385D01*
X72363194Y-91854100D01*
X72363194Y-92211242D01*
X72291765Y-92496957D01*
X72220337Y-92639814D01*
X72148908Y-92711242D01*
X72006051Y-92782671D01*
X71863194Y-92782671D01*
X71720337Y-92711242D01*
X71648908Y-92639814D01*
X71577480Y-92496957D01*
X71506051Y-92211242D01*
X71506051Y-91854100D01*
X71577480Y-91568385D01*
X71648908Y-91425528D01*
X71720337Y-91354100D01*
X71863194Y-91282671D01*
X73006051Y-92211242D02*
X74148908Y-92211242D01*
X75148908Y-91282671D02*
X75291765Y-91282671D01*
X75434622Y-91354100D01*
X75506051Y-91425528D01*
X75577480Y-91568385D01*
X75648908Y-91854100D01*
X75648908Y-92211242D01*
X75577480Y-92496957D01*
X75506051Y-92639814D01*
X75434622Y-92711242D01*
X75291765Y-92782671D01*
X75148908Y-92782671D01*
X75006051Y-92711242D01*
X74934622Y-92639814D01*
X74863194Y-92496957D01*
X74791765Y-92211242D01*
X74791765Y-91854100D01*
X74863194Y-91568385D01*
X74934622Y-91425528D01*
X75006051Y-91354100D01*
X75148908Y-91282671D01*
X77006051Y-91282671D02*
X76291765Y-91282671D01*
X76220337Y-91996957D01*
X76291765Y-91925528D01*
X76434622Y-91854100D01*
X76791765Y-91854100D01*
X76934622Y-91925528D01*
X77006051Y-91996957D01*
X77077480Y-92139814D01*
X77077480Y-92496957D01*
X77006051Y-92639814D01*
X76934622Y-92711242D01*
X76791765Y-92782671D01*
X76434622Y-92782671D01*
X76291765Y-92711242D01*
X76220337Y-92639814D01*
X77720337Y-92211242D02*
X78863194Y-92211242D01*
X80363194Y-92782671D02*
X79506051Y-92782671D01*
X79934622Y-92782671D02*
X79934622Y-91282671D01*
X79791765Y-91496957D01*
X79648908Y-91639814D01*
X79506051Y-91711242D01*
X80934622Y-91425528D02*
X81006051Y-91354100D01*
X81148908Y-91282671D01*
X81506051Y-91282671D01*
X81648908Y-91354100D01*
X81720337Y-91425528D01*
X81791765Y-91568385D01*
X81791765Y-91711242D01*
X81720337Y-91925528D01*
X80863194Y-92782671D01*
X81791765Y-92782671D01*
X37002480Y-93504100D02*
X145002480Y-93504100D01*
X38434622Y-95582671D02*
X38434622Y-94082671D01*
X39291765Y-95582671D02*
X38648908Y-94725528D01*
X39291765Y-94082671D02*
X38434622Y-94939814D01*
X39934622Y-95582671D02*
X39934622Y-94582671D01*
X39934622Y-94082671D02*
X39863194Y-94154100D01*
X39934622Y-94225528D01*
X40006051Y-94154100D01*
X39934622Y-94082671D01*
X39934622Y-94225528D01*
X41506051Y-95439814D02*
X41434622Y-95511242D01*
X41220337Y-95582671D01*
X41077480Y-95582671D01*
X40863194Y-95511242D01*
X40720337Y-95368385D01*
X40648908Y-95225528D01*
X40577480Y-94939814D01*
X40577480Y-94725528D01*
X40648908Y-94439814D01*
X40720337Y-94296957D01*
X40863194Y-94154100D01*
X41077480Y-94082671D01*
X41220337Y-94082671D01*
X41434622Y-94154100D01*
X41506051Y-94225528D01*
X42791765Y-95582671D02*
X42791765Y-94796957D01*
X42720337Y-94654100D01*
X42577480Y-94582671D01*
X42291765Y-94582671D01*
X42148908Y-94654100D01*
X42791765Y-95511242D02*
X42648908Y-95582671D01*
X42291765Y-95582671D01*
X42148908Y-95511242D01*
X42077480Y-95368385D01*
X42077480Y-95225528D01*
X42148908Y-95082671D01*
X42291765Y-95011242D01*
X42648908Y-95011242D01*
X42791765Y-94939814D01*
X44148908Y-95582671D02*
X44148908Y-94082671D01*
X44148908Y-95511242D02*
X44006051Y-95582671D01*
X43720337Y-95582671D01*
X43577480Y-95511242D01*
X43506051Y-95439814D01*
X43434622Y-95296957D01*
X43434622Y-94868385D01*
X43506051Y-94725528D01*
X43577480Y-94654100D01*
X43720337Y-94582671D01*
X44006051Y-94582671D01*
X44148908Y-94654100D01*
X46006051Y-94796957D02*
X46506051Y-94796957D01*
X46720337Y-95582671D02*
X46006051Y-95582671D01*
X46006051Y-94082671D01*
X46720337Y-94082671D01*
X47363194Y-95439814D02*
X47434622Y-95511242D01*
X47363194Y-95582671D01*
X47291765Y-95511242D01*
X47363194Y-95439814D01*
X47363194Y-95582671D01*
X48077480Y-95582671D02*
X48077480Y-94082671D01*
X48434622Y-94082671D01*
X48648908Y-94154100D01*
X48791765Y-94296957D01*
X48863194Y-94439814D01*
X48934622Y-94725528D01*
X48934622Y-94939814D01*
X48863194Y-95225528D01*
X48791765Y-95368385D01*
X48648908Y-95511242D01*
X48434622Y-95582671D01*
X48077480Y-95582671D01*
X49577480Y-95439814D02*
X49648908Y-95511242D01*
X49577480Y-95582671D01*
X49506051Y-95511242D01*
X49577480Y-95439814D01*
X49577480Y-95582671D01*
X50220337Y-95154100D02*
X50934622Y-95154100D01*
X50077480Y-95582671D02*
X50577480Y-94082671D01*
X51077480Y-95582671D01*
X51577480Y-95439814D02*
X51648908Y-95511242D01*
X51577480Y-95582671D01*
X51506051Y-95511242D01*
X51577480Y-95439814D01*
X51577480Y-95582671D01*
X54577480Y-95582671D02*
X54577480Y-94082671D01*
X54720337Y-95011242D02*
X55148908Y-95582671D01*
X55148908Y-94582671D02*
X54577480Y-95154100D01*
X55791765Y-95582671D02*
X55791765Y-94582671D01*
X55791765Y-94082671D02*
X55720337Y-94154100D01*
X55791765Y-94225528D01*
X55863194Y-94154100D01*
X55791765Y-94082671D01*
X55791765Y-94225528D01*
X57148908Y-95511242D02*
X57006051Y-95582671D01*
X56720337Y-95582671D01*
X56577480Y-95511242D01*
X56506051Y-95439814D01*
X56434622Y-95296957D01*
X56434622Y-94868385D01*
X56506051Y-94725528D01*
X56577480Y-94654100D01*
X56720337Y-94582671D01*
X57006051Y-94582671D01*
X57148908Y-94654100D01*
X58434622Y-95582671D02*
X58434622Y-94796957D01*
X58363194Y-94654100D01*
X58220337Y-94582671D01*
X57934622Y-94582671D01*
X57791765Y-94654100D01*
X58434622Y-95511242D02*
X58291765Y-95582671D01*
X57934622Y-95582671D01*
X57791765Y-95511242D01*
X57720337Y-95368385D01*
X57720337Y-95225528D01*
X57791765Y-95082671D01*
X57934622Y-95011242D01*
X58291765Y-95011242D01*
X58434622Y-94939814D01*
X59791765Y-95582671D02*
X59791765Y-94082671D01*
X59791765Y-95511242D02*
X59648908Y-95582671D01*
X59363194Y-95582671D01*
X59220337Y-95511242D01*
X59148908Y-95439814D01*
X59077480Y-95296957D01*
X59077480Y-94868385D01*
X59148908Y-94725528D01*
X59220337Y-94654100D01*
X59363194Y-94582671D01*
X59648908Y-94582671D01*
X59791765Y-94654100D01*
X62363194Y-94082671D02*
X61648908Y-94082671D01*
X61577480Y-94796957D01*
X61648908Y-94725528D01*
X61791765Y-94654100D01*
X62148908Y-94654100D01*
X62291765Y-94725528D01*
X62363194Y-94796957D01*
X62434622Y-94939814D01*
X62434622Y-95296957D01*
X62363194Y-95439814D01*
X62291765Y-95511242D01*
X62148908Y-95582671D01*
X61791765Y-95582671D01*
X61648908Y-95511242D01*
X61577480Y-95439814D01*
X63077480Y-95439814D02*
X63148908Y-95511242D01*
X63077480Y-95582671D01*
X63006051Y-95511242D01*
X63077480Y-95439814D01*
X63077480Y-95582671D01*
X64077480Y-94082671D02*
X64220337Y-94082671D01*
X64363194Y-94154100D01*
X64434622Y-94225528D01*
X64506051Y-94368385D01*
X64577480Y-94654100D01*
X64577480Y-95011242D01*
X64506051Y-95296957D01*
X64434622Y-95439814D01*
X64363194Y-95511242D01*
X64220337Y-95582671D01*
X64077480Y-95582671D01*
X63934622Y-95511242D01*
X63863194Y-95439814D01*
X63791765Y-95296957D01*
X63720337Y-95011242D01*
X63720337Y-94654100D01*
X63791765Y-94368385D01*
X63863194Y-94225528D01*
X63934622Y-94154100D01*
X64077480Y-94082671D01*
X65220337Y-95439814D02*
X65291765Y-95511242D01*
X65220337Y-95582671D01*
X65148908Y-95511242D01*
X65220337Y-95439814D01*
X65220337Y-95582671D01*
X65863194Y-94225528D02*
X65934622Y-94154100D01*
X66077480Y-94082671D01*
X66434622Y-94082671D01*
X66577480Y-94154100D01*
X66648908Y-94225528D01*
X66720337Y-94368385D01*
X66720337Y-94511242D01*
X66648908Y-94725528D01*
X65791765Y-95582671D01*
X66720337Y-95582671D01*
X67363194Y-95011242D02*
X68506051Y-95011242D01*
X67934622Y-95582671D02*
X67934622Y-94439814D01*
X69863194Y-95582671D02*
X69863194Y-94082671D01*
X69863194Y-95511242D02*
X69720337Y-95582671D01*
X69434622Y-95582671D01*
X69291765Y-95511242D01*
X69220337Y-95439814D01*
X69148908Y-95296957D01*
X69148908Y-94868385D01*
X69220337Y-94725528D01*
X69291765Y-94654100D01*
X69434622Y-94582671D01*
X69720337Y-94582671D01*
X69863194Y-94654100D01*
X70363194Y-94582671D02*
X70934622Y-94582671D01*
X70577480Y-95582671D02*
X70577480Y-94296957D01*
X70648908Y-94154100D01*
X70791765Y-94082671D01*
X70934622Y-94082671D01*
X71363194Y-95511242D02*
X71506051Y-95582671D01*
X71791765Y-95582671D01*
X71934622Y-95511242D01*
X72006051Y-95368385D01*
X72006051Y-95296957D01*
X71934622Y-95154100D01*
X71791765Y-95082671D01*
X71577480Y-95082671D01*
X71434622Y-95011242D01*
X71363194Y-94868385D01*
X71363194Y-94796957D01*
X71434622Y-94654100D01*
X71577480Y-94582671D01*
X71791765Y-94582671D01*
X71934622Y-94654100D01*
X73291765Y-94582671D02*
X73291765Y-95796957D01*
X73220337Y-95939814D01*
X73148908Y-96011242D01*
X73006051Y-96082671D01*
X72791765Y-96082671D01*
X72648908Y-96011242D01*
X73291765Y-95511242D02*
X73148908Y-95582671D01*
X72863194Y-95582671D01*
X72720337Y-95511242D01*
X72648908Y-95439814D01*
X72577480Y-95296957D01*
X72577480Y-94868385D01*
X72648908Y-94725528D01*
X72720337Y-94654100D01*
X72863194Y-94582671D01*
X73148908Y-94582671D01*
X73291765Y-94654100D01*
X74791765Y-95582671D02*
X73934622Y-95582671D01*
X74363194Y-95582671D02*
X74363194Y-94082671D01*
X74220337Y-94296957D01*
X74077480Y-94439814D01*
X73934622Y-94511242D01*
X75434622Y-95011242D02*
X76577480Y-95011242D01*
X78077480Y-95582671D02*
X77220337Y-95582671D01*
X77648908Y-95582671D02*
X77648908Y-94082671D01*
X77506051Y-94296957D01*
X77363194Y-94439814D01*
X77220337Y-94511242D01*
X37002480Y-90504100D02*
X145002480Y-90504100D01*
D11*
X124411765Y-92782671D02*
X123911765Y-92068385D01*
X123554622Y-92782671D02*
X123554622Y-91282671D01*
X124126051Y-91282671D01*
X124268908Y-91354100D01*
X124340337Y-91425528D01*
X124411765Y-91568385D01*
X124411765Y-91782671D01*
X124340337Y-91925528D01*
X124268908Y-91996957D01*
X124126051Y-92068385D01*
X123554622Y-92068385D01*
X125626051Y-92711242D02*
X125483194Y-92782671D01*
X125197480Y-92782671D01*
X125054622Y-92711242D01*
X124983194Y-92568385D01*
X124983194Y-91996957D01*
X125054622Y-91854100D01*
X125197480Y-91782671D01*
X125483194Y-91782671D01*
X125626051Y-91854100D01*
X125697480Y-91996957D01*
X125697480Y-92139814D01*
X124983194Y-92282671D01*
X126197480Y-91782671D02*
X126554622Y-92782671D01*
X126911765Y-91782671D01*
X127483194Y-92639814D02*
X127554622Y-92711242D01*
X127483194Y-92782671D01*
X127411765Y-92711242D01*
X127483194Y-92639814D01*
X127483194Y-92782671D01*
X127483194Y-91854100D02*
X127554622Y-91925528D01*
X127483194Y-91996957D01*
X127411765Y-91925528D01*
X127483194Y-91854100D01*
X127483194Y-91996957D01*
X129268908Y-91425528D02*
X129340337Y-91354100D01*
X129483194Y-91282671D01*
X129840337Y-91282671D01*
X129983194Y-91354100D01*
X130054622Y-91425528D01*
X130126051Y-91568385D01*
X130126051Y-91711242D01*
X130054622Y-91925528D01*
X129197480Y-92782671D01*
X130126051Y-92782671D01*
X130768908Y-92639814D02*
X130840337Y-92711242D01*
X130768908Y-92782671D01*
X130697480Y-92711242D01*
X130768908Y-92639814D01*
X130768908Y-92782671D01*
X132268908Y-92782671D02*
X131411765Y-92782671D01*
X131840337Y-92782671D02*
X131840337Y-91282671D01*
X131697480Y-91496957D01*
X131554622Y-91639814D01*
X131411765Y-91711242D01*
D10*
X38363194Y-92711242D02*
X38577480Y-92782671D01*
X38934622Y-92782671D01*
X39077480Y-92711242D01*
X39148908Y-92639814D01*
X39220337Y-92496957D01*
X39220337Y-92354100D01*
X39148908Y-92211242D01*
X39077480Y-92139814D01*
X38934622Y-92068385D01*
X38648908Y-91996957D01*
X38506051Y-91925528D01*
X38434622Y-91854100D01*
X38363194Y-91711242D01*
X38363194Y-91568385D01*
X38434622Y-91425528D01*
X38506051Y-91354100D01*
X38648908Y-91282671D01*
X39006051Y-91282671D01*
X39220337Y-91354100D01*
X39863194Y-92782671D02*
X39863194Y-91782671D01*
X39863194Y-91282671D02*
X39791765Y-91354100D01*
X39863194Y-91425528D01*
X39934622Y-91354100D01*
X39863194Y-91282671D01*
X39863194Y-91425528D01*
X40434622Y-91782671D02*
X41220337Y-91782671D01*
X40434622Y-92782671D01*
X41220337Y-92782671D01*
X42363194Y-92711242D02*
X42220337Y-92782671D01*
X41934622Y-92782671D01*
X41791765Y-92711242D01*
X41720337Y-92568385D01*
X41720337Y-91996957D01*
X41791765Y-91854100D01*
X41934622Y-91782671D01*
X42220337Y-91782671D01*
X42363194Y-91854100D01*
X42434622Y-91996957D01*
X42434622Y-92139814D01*
X41720337Y-92282671D01*
X43077480Y-92639814D02*
X43148908Y-92711242D01*
X43077480Y-92782671D01*
X43006051Y-92711242D01*
X43077480Y-92639814D01*
X43077480Y-92782671D01*
X43077480Y-91854100D02*
X43148908Y-91925528D01*
X43077480Y-91996957D01*
X43006051Y-91925528D01*
X43077480Y-91854100D01*
X43077480Y-91996957D01*
X44863194Y-92354100D02*
X45577480Y-92354100D01*
X44720337Y-92782671D02*
X45220337Y-91282671D01*
X45720337Y-92782671D01*
X46863194Y-91782671D02*
X46863194Y-92782671D01*
X46506051Y-91211242D02*
X46148908Y-92282671D01*
X47077480Y-92282671D01*
X123434622Y-95582671D02*
X123434622Y-94082671D01*
X124791765Y-95582671D02*
X124791765Y-94082671D01*
X124791765Y-95511242D02*
X124648908Y-95582671D01*
X124363194Y-95582671D01*
X124220337Y-95511242D01*
X124148908Y-95439814D01*
X124077480Y-95296957D01*
X124077480Y-94868385D01*
X124148908Y-94725528D01*
X124220337Y-94654100D01*
X124363194Y-94582671D01*
X124648908Y-94582671D01*
X124791765Y-94654100D01*
X125506051Y-95439814D02*
X125577480Y-95511242D01*
X125506051Y-95582671D01*
X125434622Y-95511242D01*
X125506051Y-95439814D01*
X125506051Y-95582671D01*
X125506051Y-94654100D02*
X125577480Y-94725528D01*
X125506051Y-94796957D01*
X125434622Y-94725528D01*
X125506051Y-94654100D01*
X125506051Y-94796957D01*
X128148908Y-95582671D02*
X127291765Y-95582671D01*
X127720337Y-95582671D02*
X127720337Y-94082671D01*
X127577480Y-94296957D01*
X127434622Y-94439814D01*
X127291765Y-94511242D01*
X129863194Y-94011242D02*
X128577480Y-95939814D01*
X131148908Y-95582671D02*
X130291765Y-95582671D01*
X130720337Y-95582671D02*
X130720337Y-94082671D01*
X130577480Y-94296957D01*
X130434622Y-94439814D01*
X130291765Y-94511242D01*
X37002480Y-86504100D02*
X145002480Y-86504100D01*
D12*
X38714860Y-87208861D02*
X39857718Y-87208861D01*
X39036289Y-89208861D02*
X39286289Y-87208861D01*
X40274384Y-89208861D02*
X40441051Y-87875528D01*
X40524384Y-87208861D02*
X40417241Y-87304100D01*
X40500575Y-87399338D01*
X40607718Y-87304100D01*
X40524384Y-87208861D01*
X40500575Y-87399338D01*
X41107718Y-87875528D02*
X41869622Y-87875528D01*
X41476765Y-87208861D02*
X41262480Y-88923147D01*
X41333908Y-89113623D01*
X41512480Y-89208861D01*
X41702956Y-89208861D01*
X42655337Y-89208861D02*
X42476765Y-89113623D01*
X42405337Y-88923147D01*
X42619622Y-87208861D01*
X44191051Y-89113623D02*
X43988670Y-89208861D01*
X43607718Y-89208861D01*
X43429146Y-89113623D01*
X43357718Y-88923147D01*
X43452956Y-88161242D01*
X43572003Y-87970766D01*
X43774384Y-87875528D01*
X44155337Y-87875528D01*
X44333908Y-87970766D01*
X44405337Y-88161242D01*
X44381527Y-88351719D01*
X43405337Y-88542195D01*
X45155337Y-89018385D02*
X45238670Y-89113623D01*
X45131527Y-89208861D01*
X45048194Y-89113623D01*
X45155337Y-89018385D01*
X45131527Y-89208861D01*
X45286289Y-87970766D02*
X45369622Y-88066004D01*
X45262480Y-88161242D01*
X45179146Y-88066004D01*
X45286289Y-87970766D01*
X45262480Y-88161242D01*
X48774384Y-89018385D02*
X48667241Y-89113623D01*
X48369622Y-89208861D01*
X48179146Y-89208861D01*
X47905337Y-89113623D01*
X47738670Y-88923147D01*
X47667241Y-88732671D01*
X47619622Y-88351719D01*
X47655337Y-88066004D01*
X47798194Y-87685052D01*
X47917241Y-87494576D01*
X48131527Y-87304100D01*
X48429146Y-87208861D01*
X48619622Y-87208861D01*
X48893432Y-87304100D01*
X48976765Y-87399338D01*
X49607718Y-89208861D02*
X49774384Y-87875528D01*
X49726765Y-88256480D02*
X49845813Y-88066004D01*
X49952956Y-87970766D01*
X50155337Y-87875528D01*
X50345813Y-87875528D01*
X51702956Y-89208861D02*
X51833908Y-88161242D01*
X51762480Y-87970766D01*
X51583908Y-87875528D01*
X51202956Y-87875528D01*
X51000575Y-87970766D01*
X51714860Y-89113623D02*
X51512480Y-89208861D01*
X51036289Y-89208861D01*
X50857718Y-89113623D01*
X50786289Y-88923147D01*
X50810099Y-88732671D01*
X50929146Y-88542195D01*
X51131527Y-88446957D01*
X51607718Y-88446957D01*
X51810099Y-88351719D01*
X52631527Y-87875528D02*
X53679146Y-87875528D01*
X52464860Y-89208861D01*
X53512480Y-89208861D01*
X54250575Y-87875528D02*
X54560099Y-89208861D01*
X55202956Y-87875528D02*
X54560099Y-89208861D01*
X54310099Y-89685052D01*
X54202956Y-89780290D01*
X54000575Y-89875528D01*
X55679146Y-87875528D02*
X56441051Y-87875528D01*
X55798194Y-89208861D02*
X56012480Y-87494576D01*
X56131527Y-87304100D01*
X56333908Y-87208861D01*
X56524384Y-87208861D01*
X57226765Y-89208861D02*
X57048194Y-89113623D01*
X56976765Y-88923147D01*
X57191051Y-87208861D01*
X57988670Y-89208861D02*
X58155337Y-87875528D01*
X58238670Y-87208861D02*
X58131527Y-87304100D01*
X58214860Y-87399338D01*
X58322003Y-87304100D01*
X58238670Y-87208861D01*
X58214860Y-87399338D01*
X59714860Y-89113623D02*
X59512480Y-89208861D01*
X59131527Y-89208861D01*
X58952956Y-89113623D01*
X58881527Y-88923147D01*
X58976765Y-88161242D01*
X59095813Y-87970766D01*
X59298194Y-87875528D01*
X59679146Y-87875528D01*
X59857718Y-87970766D01*
X59929146Y-88161242D01*
X59905337Y-88351719D01*
X58929146Y-88542195D01*
X63048194Y-89113623D02*
X62845813Y-89208861D01*
X62464860Y-89208861D01*
X62286289Y-89113623D01*
X62202956Y-89018385D01*
X62131527Y-88827909D01*
X62202956Y-88256480D01*
X62322003Y-88066004D01*
X62429146Y-87970766D01*
X62631527Y-87875528D01*
X63012480Y-87875528D01*
X63191051Y-87970766D01*
X64179146Y-89208861D02*
X64000575Y-89113623D01*
X63917241Y-89018385D01*
X63845813Y-88827909D01*
X63917241Y-88256480D01*
X64036289Y-88066004D01*
X64143432Y-87970766D01*
X64345813Y-87875528D01*
X64631527Y-87875528D01*
X64810099Y-87970766D01*
X64893432Y-88066004D01*
X64964860Y-88256480D01*
X64893432Y-88827909D01*
X64774384Y-89018385D01*
X64667241Y-89113623D01*
X64464860Y-89208861D01*
X64179146Y-89208861D01*
X65869622Y-87875528D02*
X65702956Y-89208861D01*
X65845813Y-88066004D02*
X65952956Y-87970766D01*
X66155337Y-87875528D01*
X66441051Y-87875528D01*
X66619622Y-87970766D01*
X66691051Y-88161242D01*
X66560099Y-89208861D01*
X67393432Y-87875528D02*
X68155337Y-87875528D01*
X67762480Y-87208861D02*
X67548194Y-88923147D01*
X67619622Y-89113623D01*
X67798194Y-89208861D01*
X67988670Y-89208861D01*
X68655337Y-89208861D02*
X68822003Y-87875528D01*
X68774384Y-88256480D02*
X68893432Y-88066004D01*
X69000575Y-87970766D01*
X69202956Y-87875528D01*
X69393432Y-87875528D01*
X70179146Y-89208861D02*
X70000575Y-89113623D01*
X69917241Y-89018385D01*
X69845813Y-88827909D01*
X69917241Y-88256480D01*
X70036289Y-88066004D01*
X70143432Y-87970766D01*
X70345813Y-87875528D01*
X70631527Y-87875528D01*
X70810099Y-87970766D01*
X70893432Y-88066004D01*
X70964860Y-88256480D01*
X70893432Y-88827909D01*
X70774384Y-89018385D01*
X70667241Y-89113623D01*
X70464860Y-89208861D01*
X70179146Y-89208861D01*
X71988670Y-89208861D02*
X71810099Y-89113623D01*
X71738670Y-88923147D01*
X71952956Y-87208861D01*
X74274384Y-89208861D02*
X74524384Y-87208861D01*
X74429146Y-87970766D02*
X74631527Y-87875528D01*
X75012480Y-87875528D01*
X75191051Y-87970766D01*
X75274384Y-88066004D01*
X75345813Y-88256480D01*
X75274384Y-88827909D01*
X75155337Y-89018385D01*
X75048194Y-89113623D01*
X74845813Y-89208861D01*
X74464860Y-89208861D01*
X74286289Y-89113623D01*
X76369622Y-89208861D02*
X76191051Y-89113623D01*
X76107718Y-89018385D01*
X76036289Y-88827909D01*
X76107718Y-88256480D01*
X76226765Y-88066004D01*
X76333908Y-87970766D01*
X76536289Y-87875528D01*
X76822003Y-87875528D01*
X77000575Y-87970766D01*
X77083908Y-88066004D01*
X77155337Y-88256480D01*
X77083908Y-88827909D01*
X76964860Y-89018385D01*
X76857718Y-89113623D01*
X76655337Y-89208861D01*
X76369622Y-89208861D01*
X78750575Y-89208861D02*
X78881527Y-88161242D01*
X78810099Y-87970766D01*
X78631527Y-87875528D01*
X78250575Y-87875528D01*
X78048194Y-87970766D01*
X78762480Y-89113623D02*
X78560099Y-89208861D01*
X78083908Y-89208861D01*
X77905337Y-89113623D01*
X77833908Y-88923147D01*
X77857718Y-88732671D01*
X77976765Y-88542195D01*
X78179146Y-88446957D01*
X78655337Y-88446957D01*
X78857718Y-88351719D01*
X79702956Y-89208861D02*
X79869622Y-87875528D01*
X79822003Y-88256480D02*
X79941051Y-88066004D01*
X80048194Y-87970766D01*
X80250575Y-87875528D01*
X80441051Y-87875528D01*
X81798194Y-89208861D02*
X82048194Y-87208861D01*
X81810099Y-89113623D02*
X81607718Y-89208861D01*
X81226765Y-89208861D01*
X81048194Y-89113623D01*
X80964860Y-89018385D01*
X80893432Y-88827909D01*
X80964860Y-88256480D01*
X81083908Y-88066004D01*
X81191051Y-87970766D01*
X81393432Y-87875528D01*
X81774384Y-87875528D01*
X81952956Y-87970766D01*
D10*
X38934622Y-84596957D02*
X38434622Y-84596957D01*
X38434622Y-85382671D02*
X38434622Y-83882671D01*
X39148908Y-83882671D01*
X39720337Y-85382671D02*
X39720337Y-84382671D01*
X39720337Y-83882671D02*
X39648908Y-83954100D01*
X39720337Y-84025528D01*
X39791765Y-83954100D01*
X39720337Y-83882671D01*
X39720337Y-84025528D01*
X40648908Y-85382671D02*
X40506051Y-85311242D01*
X40434622Y-85168385D01*
X40434622Y-83882671D01*
X41791765Y-85311242D02*
X41648908Y-85382671D01*
X41363194Y-85382671D01*
X41220337Y-85311242D01*
X41148908Y-85168385D01*
X41148908Y-84596957D01*
X41220337Y-84454100D01*
X41363194Y-84382671D01*
X41648908Y-84382671D01*
X41791765Y-84454100D01*
X41863194Y-84596957D01*
X41863194Y-84739814D01*
X41148908Y-84882671D01*
X42506051Y-85239814D02*
X42577480Y-85311242D01*
X42506051Y-85382671D01*
X42434622Y-85311242D01*
X42506051Y-85239814D01*
X42506051Y-85382671D01*
X42506051Y-84454100D02*
X42577480Y-84525528D01*
X42506051Y-84596957D01*
X42434622Y-84525528D01*
X42506051Y-84454100D01*
X42506051Y-84596957D01*
X45220337Y-85239814D02*
X45148908Y-85311242D01*
X44934622Y-85382671D01*
X44791765Y-85382671D01*
X44577480Y-85311242D01*
X44434622Y-85168385D01*
X44363194Y-85025528D01*
X44291765Y-84739814D01*
X44291765Y-84525528D01*
X44363194Y-84239814D01*
X44434622Y-84096957D01*
X44577480Y-83954100D01*
X44791765Y-83882671D01*
X44934622Y-83882671D01*
X45148908Y-83954100D01*
X45220337Y-84025528D01*
X45863194Y-85382671D02*
X45863194Y-84382671D01*
X45863194Y-84668385D02*
X45934622Y-84525528D01*
X46006051Y-84454100D01*
X46148908Y-84382671D01*
X46291765Y-84382671D01*
X47434622Y-85382671D02*
X47434622Y-84596957D01*
X47363194Y-84454100D01*
X47220337Y-84382671D01*
X46934622Y-84382671D01*
X46791765Y-84454100D01*
X47434622Y-85311242D02*
X47291765Y-85382671D01*
X46934622Y-85382671D01*
X46791765Y-85311242D01*
X46720337Y-85168385D01*
X46720337Y-85025528D01*
X46791765Y-84882671D01*
X46934622Y-84811242D01*
X47291765Y-84811242D01*
X47434622Y-84739814D01*
X48006051Y-84382671D02*
X48791765Y-84382671D01*
X48006051Y-85382671D01*
X48791765Y-85382671D01*
X49220337Y-84382671D02*
X49577480Y-85382671D01*
X49934622Y-84382671D02*
X49577480Y-85382671D01*
X49434622Y-85739814D01*
X49363194Y-85811242D01*
X49220337Y-85882671D01*
X50291765Y-84382671D02*
X50863194Y-84382671D01*
X50506051Y-85382671D02*
X50506051Y-84096957D01*
X50577480Y-83954100D01*
X50720337Y-83882671D01*
X50863194Y-83882671D01*
X51577480Y-85382671D02*
X51434622Y-85311242D01*
X51363194Y-85168385D01*
X51363194Y-83882671D01*
X52148908Y-85382671D02*
X52148908Y-84382671D01*
X52148908Y-83882671D02*
X52077480Y-83954100D01*
X52148908Y-84025528D01*
X52220337Y-83954100D01*
X52148908Y-83882671D01*
X52148908Y-84025528D01*
X53434622Y-85311242D02*
X53291765Y-85382671D01*
X53006051Y-85382671D01*
X52863194Y-85311242D01*
X52791765Y-85168385D01*
X52791765Y-84596957D01*
X52863194Y-84454100D01*
X53006051Y-84382671D01*
X53291765Y-84382671D01*
X53434622Y-84454100D01*
X53506051Y-84596957D01*
X53506051Y-84739814D01*
X52791765Y-84882671D01*
X55934622Y-85311242D02*
X55791765Y-85382671D01*
X55506051Y-85382671D01*
X55363194Y-85311242D01*
X55291765Y-85239814D01*
X55220337Y-85096957D01*
X55220337Y-84668385D01*
X55291765Y-84525528D01*
X55363194Y-84454100D01*
X55506051Y-84382671D01*
X55791765Y-84382671D01*
X55934622Y-84454100D01*
X56791765Y-85382671D02*
X56648908Y-85311242D01*
X56577480Y-85239814D01*
X56506051Y-85096957D01*
X56506051Y-84668385D01*
X56577480Y-84525528D01*
X56648908Y-84454100D01*
X56791765Y-84382671D01*
X57006051Y-84382671D01*
X57148908Y-84454100D01*
X57220337Y-84525528D01*
X57291765Y-84668385D01*
X57291765Y-85096957D01*
X57220337Y-85239814D01*
X57148908Y-85311242D01*
X57006051Y-85382671D01*
X56791765Y-85382671D01*
X57934622Y-84382671D02*
X57934622Y-85382671D01*
X57934622Y-84525528D02*
X58006051Y-84454100D01*
X58148908Y-84382671D01*
X58363194Y-84382671D01*
X58506051Y-84454100D01*
X58577480Y-84596957D01*
X58577480Y-85382671D01*
X59077480Y-84382671D02*
X59648908Y-84382671D01*
X59291765Y-83882671D02*
X59291765Y-85168385D01*
X59363194Y-85311242D01*
X59506051Y-85382671D01*
X59648908Y-85382671D01*
X60363194Y-85382671D02*
X60220337Y-85311242D01*
X60148908Y-85239814D01*
X60077480Y-85096957D01*
X60077480Y-84668385D01*
X60148908Y-84525528D01*
X60220337Y-84454100D01*
X60363194Y-84382671D01*
X60577480Y-84382671D01*
X60720337Y-84454100D01*
X60791765Y-84525528D01*
X60863194Y-84668385D01*
X60863194Y-85096957D01*
X60791765Y-85239814D01*
X60720337Y-85311242D01*
X60577480Y-85382671D01*
X60363194Y-85382671D01*
X61720337Y-85382671D02*
X61577480Y-85311242D01*
X61506051Y-85168385D01*
X61506051Y-83882671D01*
X63434622Y-85382671D02*
X63434622Y-83882671D01*
X63434622Y-84454100D02*
X63577480Y-84382671D01*
X63863194Y-84382671D01*
X64006051Y-84454100D01*
X64077480Y-84525528D01*
X64148908Y-84668385D01*
X64148908Y-85096957D01*
X64077480Y-85239814D01*
X64006051Y-85311242D01*
X63863194Y-85382671D01*
X63577480Y-85382671D01*
X63434622Y-85311242D01*
X65006051Y-85382671D02*
X64863194Y-85311242D01*
X64791765Y-85239814D01*
X64720337Y-85096957D01*
X64720337Y-84668385D01*
X64791765Y-84525528D01*
X64863194Y-84454100D01*
X65006051Y-84382671D01*
X65220337Y-84382671D01*
X65363194Y-84454100D01*
X65434622Y-84525528D01*
X65506051Y-84668385D01*
X65506051Y-85096957D01*
X65434622Y-85239814D01*
X65363194Y-85311242D01*
X65220337Y-85382671D01*
X65006051Y-85382671D01*
X66791765Y-85382671D02*
X66791765Y-84596957D01*
X66720337Y-84454100D01*
X66577480Y-84382671D01*
X66291765Y-84382671D01*
X66148908Y-84454100D01*
X66791765Y-85311242D02*
X66648908Y-85382671D01*
X66291765Y-85382671D01*
X66148908Y-85311242D01*
X66077480Y-85168385D01*
X66077480Y-85025528D01*
X66148908Y-84882671D01*
X66291765Y-84811242D01*
X66648908Y-84811242D01*
X66791765Y-84739814D01*
X67506051Y-85382671D02*
X67506051Y-84382671D01*
X67506051Y-84668385D02*
X67577480Y-84525528D01*
X67648908Y-84454100D01*
X67791765Y-84382671D01*
X67934622Y-84382671D01*
X69077480Y-85382671D02*
X69077480Y-83882671D01*
X69077480Y-85311242D02*
X68934622Y-85382671D01*
X68648908Y-85382671D01*
X68506051Y-85311242D01*
X68434622Y-85239814D01*
X68363194Y-85096957D01*
X68363194Y-84668385D01*
X68434622Y-84525528D01*
X68506051Y-84454100D01*
X68648908Y-84382671D01*
X68934622Y-84382671D01*
X69077480Y-84454100D01*
X69791765Y-85239814D02*
X69863194Y-85311242D01*
X69791765Y-85382671D01*
X69720337Y-85311242D01*
X69791765Y-85239814D01*
X69791765Y-85382671D01*
X70506051Y-85382671D02*
X70506051Y-83882671D01*
X70648908Y-84811242D02*
X71077480Y-85382671D01*
X71077480Y-84382671D02*
X70506051Y-84954100D01*
X71720337Y-85382671D02*
X71720337Y-84382671D01*
X71720337Y-83882671D02*
X71648908Y-83954100D01*
X71720337Y-84025528D01*
X71791765Y-83954100D01*
X71720337Y-83882671D01*
X71720337Y-84025528D01*
X73077480Y-85311242D02*
X72934622Y-85382671D01*
X72648908Y-85382671D01*
X72506051Y-85311242D01*
X72434622Y-85239814D01*
X72363194Y-85096957D01*
X72363194Y-84668385D01*
X72434622Y-84525528D01*
X72506051Y-84454100D01*
X72648908Y-84382671D01*
X72934622Y-84382671D01*
X73077480Y-84454100D01*
X74363194Y-85382671D02*
X74363194Y-84596957D01*
X74291765Y-84454100D01*
X74148908Y-84382671D01*
X73863194Y-84382671D01*
X73720337Y-84454100D01*
X74363194Y-85311242D02*
X74220337Y-85382671D01*
X73863194Y-85382671D01*
X73720337Y-85311242D01*
X73648908Y-85168385D01*
X73648908Y-85025528D01*
X73720337Y-84882671D01*
X73863194Y-84811242D01*
X74220337Y-84811242D01*
X74363194Y-84739814D01*
X75720337Y-85382671D02*
X75720337Y-83882671D01*
X75720337Y-85311242D02*
X75577480Y-85382671D01*
X75291765Y-85382671D01*
X75148908Y-85311242D01*
X75077480Y-85239814D01*
X75006051Y-85096957D01*
X75006051Y-84668385D01*
X75077480Y-84525528D01*
X75148908Y-84454100D01*
X75291765Y-84382671D01*
X75577480Y-84382671D01*
X75720337Y-84454100D01*
X76077480Y-85525528D02*
X77220337Y-85525528D01*
X77577480Y-84382671D02*
X77577480Y-85882671D01*
X77577480Y-84454100D02*
X77720337Y-84382671D01*
X78006051Y-84382671D01*
X78148908Y-84454100D01*
X78220337Y-84525528D01*
X78291765Y-84668385D01*
X78291765Y-85096957D01*
X78220337Y-85239814D01*
X78148908Y-85311242D01*
X78006051Y-85382671D01*
X77720337Y-85382671D01*
X77577480Y-85311242D01*
X79577480Y-85311242D02*
X79434622Y-85382671D01*
X79148908Y-85382671D01*
X79006051Y-85311242D01*
X78934622Y-85239814D01*
X78863194Y-85096957D01*
X78863194Y-84668385D01*
X78934622Y-84525528D01*
X79006051Y-84454100D01*
X79148908Y-84382671D01*
X79434622Y-84382671D01*
X79577480Y-84454100D01*
X80220337Y-85382671D02*
X80220337Y-83882671D01*
X80220337Y-84454100D02*
X80363194Y-84382671D01*
X80648908Y-84382671D01*
X80791765Y-84454100D01*
X80863194Y-84525528D01*
X80934622Y-84668385D01*
X80934622Y-85096957D01*
X80863194Y-85239814D01*
X80791765Y-85311242D01*
X80648908Y-85382671D01*
X80363194Y-85382671D01*
X80220337Y-85311242D01*
X37002480Y-80504100D02*
X145002480Y-80504100D01*
X38363194Y-82611242D02*
X38577480Y-82682671D01*
X38934622Y-82682671D01*
X39077480Y-82611242D01*
X39148908Y-82539814D01*
X39220337Y-82396957D01*
X39220337Y-82254100D01*
X39148908Y-82111242D01*
X39077480Y-82039814D01*
X38934622Y-81968385D01*
X38648908Y-81896957D01*
X38506051Y-81825528D01*
X38434622Y-81754100D01*
X38363194Y-81611242D01*
X38363194Y-81468385D01*
X38434622Y-81325528D01*
X38506051Y-81254100D01*
X38648908Y-81182671D01*
X39006051Y-81182671D01*
X39220337Y-81254100D01*
X39863194Y-82682671D02*
X39863194Y-81182671D01*
X40506051Y-82682671D02*
X40506051Y-81896957D01*
X40434622Y-81754100D01*
X40291765Y-81682671D01*
X40077480Y-81682671D01*
X39934622Y-81754100D01*
X39863194Y-81825528D01*
X41791765Y-82611242D02*
X41648908Y-82682671D01*
X41363194Y-82682671D01*
X41220337Y-82611242D01*
X41148908Y-82468385D01*
X41148908Y-81896957D01*
X41220337Y-81754100D01*
X41363194Y-81682671D01*
X41648908Y-81682671D01*
X41791765Y-81754100D01*
X41863194Y-81896957D01*
X41863194Y-82039814D01*
X41148908Y-82182671D01*
X43077480Y-82611242D02*
X42934622Y-82682671D01*
X42648908Y-82682671D01*
X42506051Y-82611242D01*
X42434622Y-82468385D01*
X42434622Y-81896957D01*
X42506051Y-81754100D01*
X42648908Y-81682671D01*
X42934622Y-81682671D01*
X43077480Y-81754100D01*
X43148908Y-81896957D01*
X43148908Y-82039814D01*
X42434622Y-82182671D01*
X43577480Y-81682671D02*
X44148908Y-81682671D01*
X43791765Y-81182671D02*
X43791765Y-82468385D01*
X43863194Y-82611242D01*
X44006051Y-82682671D01*
X44148908Y-82682671D01*
X44648908Y-82539814D02*
X44720337Y-82611242D01*
X44648908Y-82682671D01*
X44577480Y-82611242D01*
X44648908Y-82539814D01*
X44648908Y-82682671D01*
X44648908Y-81754100D02*
X44720337Y-81825528D01*
X44648908Y-81896957D01*
X44577480Y-81825528D01*
X44648908Y-81754100D01*
X44648908Y-81896957D01*
D11*
X39054622Y-78896957D02*
X39268908Y-78968385D01*
X39340337Y-79039814D01*
X39411765Y-79182671D01*
X39411765Y-79396957D01*
X39340337Y-79539814D01*
X39268908Y-79611242D01*
X39126051Y-79682671D01*
X38554622Y-79682671D01*
X38554622Y-78182671D01*
X39054622Y-78182671D01*
X39197480Y-78254100D01*
X39268908Y-78325528D01*
X39340337Y-78468385D01*
X39340337Y-78611242D01*
X39268908Y-78754100D01*
X39197480Y-78825528D01*
X39054622Y-78896957D01*
X38554622Y-78896957D01*
X40054622Y-79682671D02*
X40054622Y-78682671D01*
X40054622Y-78182671D02*
X39983194Y-78254100D01*
X40054622Y-78325528D01*
X40126051Y-78254100D01*
X40054622Y-78182671D01*
X40054622Y-78325528D01*
X40554622Y-78682671D02*
X41126051Y-78682671D01*
X40768908Y-78182671D02*
X40768908Y-79468385D01*
X40840337Y-79611242D01*
X40983194Y-79682671D01*
X41126051Y-79682671D01*
X42268908Y-79611242D02*
X42126051Y-79682671D01*
X41840337Y-79682671D01*
X41697480Y-79611242D01*
X41626051Y-79539814D01*
X41554622Y-79396957D01*
X41554622Y-78968385D01*
X41626051Y-78825528D01*
X41697480Y-78754100D01*
X41840337Y-78682671D01*
X42126051Y-78682671D01*
X42268908Y-78754100D01*
X42911765Y-79682671D02*
X42911765Y-78682671D01*
X42911765Y-78968385D02*
X42983194Y-78825528D01*
X43054622Y-78754100D01*
X43197480Y-78682671D01*
X43340337Y-78682671D01*
X44483194Y-79682671D02*
X44483194Y-78896957D01*
X44411765Y-78754100D01*
X44268908Y-78682671D01*
X43983194Y-78682671D01*
X43840337Y-78754100D01*
X44483194Y-79611242D02*
X44340337Y-79682671D01*
X43983194Y-79682671D01*
X43840337Y-79611242D01*
X43768908Y-79468385D01*
X43768908Y-79325528D01*
X43840337Y-79182671D01*
X43983194Y-79111242D01*
X44340337Y-79111242D01*
X44483194Y-79039814D01*
X45054622Y-78682671D02*
X45840337Y-78682671D01*
X45054622Y-79682671D01*
X45840337Y-79682671D01*
X46983194Y-79611242D02*
X46840337Y-79682671D01*
X46554622Y-79682671D01*
X46411765Y-79611242D01*
X46340337Y-79468385D01*
X46340337Y-78896957D01*
X46411765Y-78754100D01*
X46554622Y-78682671D01*
X46840337Y-78682671D01*
X46983194Y-78754100D01*
X47054622Y-78896957D01*
X47054622Y-79039814D01*
X46340337Y-79182671D01*
X48768908Y-79254100D02*
X49483194Y-79254100D01*
X48626051Y-79682671D02*
X49126051Y-78182671D01*
X49626051Y-79682671D01*
X50626051Y-78896957D02*
X50840337Y-78968385D01*
X50911765Y-79039814D01*
X50983194Y-79182671D01*
X50983194Y-79396957D01*
X50911765Y-79539814D01*
X50840337Y-79611242D01*
X50697480Y-79682671D01*
X50126051Y-79682671D01*
X50126051Y-78182671D01*
X50626051Y-78182671D01*
X50768908Y-78254100D01*
X50840337Y-78325528D01*
X50911765Y-78468385D01*
X50911765Y-78611242D01*
X50840337Y-78754100D01*
X50768908Y-78825528D01*
X50626051Y-78896957D01*
X50126051Y-78896957D01*
X53197480Y-80254100D02*
X53126051Y-80182671D01*
X52983194Y-79968385D01*
X52911765Y-79825528D01*
X52840337Y-79611242D01*
X52768908Y-79254100D01*
X52768908Y-78968385D01*
X52840337Y-78611242D01*
X52911765Y-78396957D01*
X52983194Y-78254100D01*
X53126051Y-78039814D01*
X53197480Y-77968385D01*
X54626051Y-79539814D02*
X54554622Y-79611242D01*
X54340337Y-79682671D01*
X54197480Y-79682671D01*
X53983194Y-79611242D01*
X53840337Y-79468385D01*
X53768908Y-79325528D01*
X53697480Y-79039814D01*
X53697480Y-78825528D01*
X53768908Y-78539814D01*
X53840337Y-78396957D01*
X53983194Y-78254100D01*
X54197480Y-78182671D01*
X54340337Y-78182671D01*
X54554622Y-78254100D01*
X54626051Y-78325528D01*
X56126051Y-79539814D02*
X56054622Y-79611242D01*
X55840337Y-79682671D01*
X55697480Y-79682671D01*
X55483194Y-79611242D01*
X55340337Y-79468385D01*
X55268908Y-79325528D01*
X55197480Y-79039814D01*
X55197480Y-78825528D01*
X55268908Y-78539814D01*
X55340337Y-78396957D01*
X55483194Y-78254100D01*
X55697480Y-78182671D01*
X55840337Y-78182671D01*
X56054622Y-78254100D01*
X56126051Y-78325528D01*
X58411765Y-78896957D02*
X58626051Y-78968385D01*
X58697480Y-79039814D01*
X58768908Y-79182671D01*
X58768908Y-79396957D01*
X58697480Y-79539814D01*
X58626051Y-79611242D01*
X58483194Y-79682671D01*
X57911765Y-79682671D01*
X57911765Y-78182671D01*
X58411765Y-78182671D01*
X58554622Y-78254100D01*
X58626051Y-78325528D01*
X58697480Y-78468385D01*
X58697480Y-78611242D01*
X58626051Y-78754100D01*
X58554622Y-78825528D01*
X58411765Y-78896957D01*
X57911765Y-78896957D01*
X59697480Y-78968385D02*
X59697480Y-79682671D01*
X59197480Y-78182671D02*
X59697480Y-78968385D01*
X60197480Y-78182671D01*
X60697480Y-79111242D02*
X61840337Y-79111242D01*
X62554622Y-79682671D02*
X62554622Y-78182671D01*
X63411765Y-79682671D01*
X63411765Y-78182671D01*
X64983194Y-79539814D02*
X64911765Y-79611242D01*
X64697480Y-79682671D01*
X64554622Y-79682671D01*
X64340337Y-79611242D01*
X64197480Y-79468385D01*
X64126051Y-79325528D01*
X64054622Y-79039814D01*
X64054622Y-78825528D01*
X64126051Y-78539814D01*
X64197480Y-78396957D01*
X64340337Y-78254100D01*
X64554622Y-78182671D01*
X64697480Y-78182671D01*
X64911765Y-78254100D01*
X64983194Y-78325528D01*
X65626051Y-79111242D02*
X66768908Y-79111242D01*
X67411765Y-79611242D02*
X67626051Y-79682671D01*
X67983194Y-79682671D01*
X68126051Y-79611242D01*
X68197480Y-79539814D01*
X68268908Y-79396957D01*
X68268908Y-79254100D01*
X68197480Y-79111242D01*
X68126051Y-79039814D01*
X67983194Y-78968385D01*
X67697480Y-78896957D01*
X67554622Y-78825528D01*
X67483194Y-78754100D01*
X67411765Y-78611242D01*
X67411765Y-78468385D01*
X67483194Y-78325528D01*
X67554622Y-78254100D01*
X67697480Y-78182671D01*
X68054622Y-78182671D01*
X68268908Y-78254100D01*
X68840337Y-79254100D02*
X69554622Y-79254100D01*
X68697480Y-79682671D02*
X69197480Y-78182671D01*
X69697480Y-79682671D01*
X70054622Y-80254100D02*
X70126051Y-80182671D01*
X70268908Y-79968385D01*
X70340337Y-79825528D01*
X70411765Y-79611242D01*
X70483194Y-79254100D01*
X70483194Y-78968385D01*
X70411765Y-78611242D01*
X70340337Y-78396957D01*
X70268908Y-78254100D01*
X70126051Y-78039814D01*
X70054622Y-77968385D01*
D10*
X57002480Y-90504100D02*
X57002480Y-93504100D01*
X121002480Y-90504100D02*
X121002480Y-97004100D01*
D13*
X995680Y17037050D02*
X1033780Y17075150D01*
X1109980Y17113250D01*
X1300480Y17113250D01*
X1376680Y17075150D01*
X1414780Y17037050D01*
X1452880Y16960850D01*
X1452880Y16884650D01*
X1414780Y16770350D01*
X957580Y16313150D01*
X1452880Y16313150D01*
D14*
D15*
G04 #@! TO.N,GND*
G04 #@! TO.C,P9*
X12900660Y-4399280D03*
G04 #@! TD*
D16*
G04 #@! TO.N,+BATT*
G04 #@! TO.C,P2*
X4663440Y-6499860D03*
D17*
G04 #@! TO.N,Net-(D2-Pad1)*
X6334760Y-6499860D03*
G04 #@! TD*
D16*
G04 #@! TO.N,+BATT*
G04 #@! TO.C,P4*
X4663440Y-12499340D03*
D17*
G04 #@! TO.N,Net-(D4-Pad1)*
X6334760Y-12499340D03*
G04 #@! TD*
D16*
G04 #@! TO.N,+BATT*
G04 #@! TO.C,P1*
X4663440Y-3500120D03*
D17*
G04 #@! TO.N,Net-(D1-Pad1)*
X6334760Y-3500120D03*
G04 #@! TD*
D16*
G04 #@! TO.N,+BATT*
G04 #@! TO.C,P3*
X4663440Y-9499600D03*
D17*
G04 #@! TO.N,Net-(D3-Pad1)*
X6334760Y-9499600D03*
G04 #@! TD*
D18*
G04 #@! TO.N,GND*
G04 #@! TO.C,U8*
X8999220Y1998980D03*
D19*
X8999220Y1998980D03*
X8498840Y1498600D03*
X9499600Y1498600D03*
X8498840Y2499360D03*
X9499600Y2499360D03*
G04 #@! TD*
D20*
G04 #@! TO.N,+BATT*
G04 #@! TO.C,BT1*
X12700000Y1752600D03*
D21*
G04 #@! TO.N,GND*
X12700000Y3652520D03*
G04 #@! TD*
D22*
G04 #@! TO.N,DGND*
G04 #@! TO.C,U11*
X-5473700Y-8105140D03*
X-6888480Y-8110220D03*
X-8326120Y-8115300D03*
X-9631680Y-8115300D03*
X-10960100Y-8102600D03*
X-5478780Y-9588500D03*
X-6868160Y-9585960D03*
X-8282940Y-9575800D03*
X-9674860Y-9486900D03*
X-10955020Y-9519920D03*
X-5478780Y-10927080D03*
X-6878320Y-10924540D03*
X-8249920Y-10932160D03*
X-9654540Y-10909300D03*
X-10937240Y-10876280D03*
X-5478780Y-12258040D03*
X-6868160Y-12316460D03*
X-8260080Y-12301220D03*
X-9654540Y-12291060D03*
X-10988040Y-12280900D03*
X-5461000Y-13589000D03*
X-6868160Y-13596620D03*
X-8282940Y-13606780D03*
X-9621520Y-13596620D03*
X-10967720Y-13583920D03*
G04 #@! TD*
D23*
G04 #@! TO.N,DGND*
G04 #@! TO.C,U12*
X-14726920Y3716020D03*
X-15392400Y4340860D03*
X-15392400Y3070860D03*
X-14122400Y4340860D03*
X-14122400Y3070860D03*
G04 #@! TD*
D24*
G04 #@! TO.N,/MOTOR1*
X-2439671Y-2736851D03*
G04 #@! TO.N,/MOTOR2*
X1678940Y1440180D03*
X1097280Y-17297400D03*
G04 #@! TO.N,/MOTOR3*
X1049020Y-996900D03*
G04 #@! TO.N,/MOTOR4*
X-1569720Y-4406900D03*
G04 #@! TO.N,AGND*
X8569960Y11739880D03*
X6210300Y13721080D03*
X-5600700Y7299960D03*
X5250280Y11253100D03*
X-2499360Y8600440D03*
X14000280Y14003100D03*
G04 #@! TO.N,DGND*
X8199120Y-4099560D03*
X9500280Y-14896900D03*
X8069580Y-13996900D03*
X8001000Y-10650220D03*
X8999220Y-4399280D03*
X-10563860Y3403100D03*
X-4999720Y-17496900D03*
X-15499720Y-18554700D03*
X-14930120Y368300D03*
X462280Y1816100D03*
X-8554720Y-4279900D03*
G04 #@! TO.N,GND*
X11501120Y-11300460D03*
X12931140Y-11460480D03*
X10010140Y5648960D03*
X12000280Y-7746900D03*
X14201140Y-8699500D03*
X14000480Y-7000240D03*
X10899140Y-2400300D03*
X17000280Y-5996900D03*
G04 #@! TO.N,VCC*
X-11630660Y9298940D03*
X14800580Y769620D03*
X13070840Y-12999720D03*
X3068320Y-11470640D03*
X15430500Y14333220D03*
X8161020Y-12070080D03*
X-16040100Y13479780D03*
X-15194280Y-17264380D03*
X-18999720Y4003100D03*
X-18863939Y-6515100D03*
X-4599940Y8470900D03*
X-3268980Y7350760D03*
X-249720Y6503100D03*
X1000280Y3503100D03*
G04 #@! TO.N,VCCA*
X-7099300Y7299960D03*
X-3700780Y13700760D03*
X4831080Y13609320D03*
X2500280Y8503100D03*
X11000740Y14099540D03*
X10099040Y14300200D03*
X-5100320Y9499600D03*
G04 #@! TO.N,VCOM*
X8509000Y6510020D03*
X14099540Y-10899140D03*
X14800580Y-200660D03*
X14099540Y-9900920D03*
X12760960Y-6850380D03*
X6489700Y2301240D03*
G04 #@! TO.N,Net-(Q6-PadD)*
X8900160Y-599440D03*
G04 #@! TO.N,/I2C_SCK_VCCA*
X-843280Y3451860D03*
X-1813560Y-8851900D03*
G04 #@! TO.N,/I2C_SCL_VCCA*
X-6390640Y10899140D03*
X-934720Y-15836900D03*
X-6649720Y3213100D03*
G04 #@! TO.N,/PGOOD*
X3250280Y4503100D03*
X7858760Y4338320D03*
X2764440Y-8155940D03*
G04 #@! TO.N,/SYSOFF*
X7185660Y5412740D03*
X-12385040Y-6606540D03*
G04 #@! TO.N,Net-(R33-Pad1)*
X14259560Y8823960D03*
G04 #@! TO.N,/EN1*
X-2687320Y6784340D03*
X-15077440Y-4488180D03*
G04 #@! TO.N,/INT_GA*
X500280Y7503100D03*
X-14460220Y-6311900D03*
X-3733800Y2999740D03*
G04 #@! TO.N,/CHG*
X2250280Y358140D03*
G04 #@! TO.N,/EN2*
X10081260Y3929380D03*
X3500280Y-496900D03*
X-16753398Y-4597400D03*
G04 #@! TO.N,Net-(U11-Pad34)*
X-11729720Y-5371280D03*
X-5685340Y-5371280D03*
G04 #@! TO.N,Net-(R7-Pad1)*
X-14417040Y7683500D03*
G04 #@! TO.N,Net-(R7-Pad2)*
X-11475720Y3517900D03*
G04 #@! TO.N,/POWER/VUSB*
X5798820Y5389880D03*
X-12700000Y7800340D03*
X7520940Y541020D03*
G04 #@! TO.N,Net-(Q8-Pad2)*
X-16987520Y-723900D03*
G04 #@! TO.N,Net-(Q7-Pad2)*
X-10718800Y1557020D03*
G04 #@! TO.N,Net-(Q8-Pad3)*
X-2839720Y-4406900D03*
G04 #@! TO.N,Net-(R6-Pad1)*
X7480300Y14300200D03*
G04 #@! TO.N,Net-(C5-Pad2)*
X-14076680Y-15420340D03*
G04 #@! TO.N,/USBD+*
X-16652240Y6718300D03*
X-7980680Y4579620D03*
G04 #@! TO.N,/USBD-*
X-14635480Y6850380D03*
X-12501880Y6576060D03*
G04 #@! TO.N,/Red*
X-17739360Y10284460D03*
X-2172781Y-12820461D03*
G04 #@! TD*
D25*
G04 #@! TO.N,/MOTOR2*
X1620521Y1381761D02*
X1620521Y-16774159D01*
X1678940Y1440180D02*
X1620521Y1381761D01*
X1620521Y-16774159D02*
X1097280Y-17297400D01*
X1097280Y-17297400D02*
X1097280Y-17297400D01*
D26*
G04 #@! TO.N,VCCA*
X-5100320Y9298940D02*
X-5100320Y9499600D01*
X-7099300Y7299960D02*
X-5100320Y9298940D01*
D27*
G04 #@! TO.N,VCOM*
X8544561Y4009135D02*
X8544561Y6025447D01*
X7154165Y2618739D02*
X8544561Y4009135D01*
X8509000Y6061008D02*
X8509000Y6510020D01*
X8544561Y6025447D02*
X8509000Y6061008D01*
X6807199Y2618739D02*
X7154165Y2618739D01*
X6489700Y2301240D02*
X6807199Y2618739D01*
D25*
G04 #@! TO.N,/I2C_SCL_VCCA*
X-838200Y-2598420D02*
X-838200Y-15760700D01*
X-6649720Y3213100D02*
X-838200Y-2598420D01*
G04 #@! TO.N,/PGOOD*
X4071781Y277421D02*
X3250280Y1098922D01*
X2764440Y-8155940D02*
X3629660Y-7290720D01*
X3629660Y-2830828D02*
X4071781Y-2388707D01*
X3250280Y1098922D02*
X3250280Y4503100D01*
X3629660Y-7290720D02*
X3629660Y-2830828D01*
X4071781Y-2388707D02*
X4071781Y277421D01*
G04 #@! TO.N,/SYSOFF*
X-12385040Y-1676398D02*
X-12385040Y-6157528D01*
X-4843781Y5864861D02*
X-12385040Y-1676398D01*
X3903981Y5864861D02*
X-4843781Y5864861D01*
X4965694Y4803148D02*
X3903981Y5864861D01*
X-12385040Y-6157528D02*
X-12385040Y-6606540D01*
X6576068Y4803148D02*
X4965694Y4803148D01*
X7185660Y5412740D02*
X6576068Y4803148D01*
G04 #@! TO.N,/Red*
X-18372920Y-879940D02*
X-18372920Y9650900D01*
X-18372920Y9650900D02*
X-17739360Y10284460D01*
X-17739360Y10284460D02*
X-17739360Y10284460D01*
X-12477101Y-12820461D02*
X-2172781Y-12820461D01*
X-12956541Y-12341021D02*
X-12477101Y-12820461D01*
X-12956541Y-5763257D02*
X-12956541Y-12341021D01*
X-17424397Y-1295401D02*
X-12956541Y-5763257D01*
X-18372920Y-879940D02*
X-17957459Y-1295401D01*
X-17957459Y-1295401D02*
X-17424397Y-1295401D01*
X-2172781Y-12820461D02*
X-2172781Y-12820461D01*
G04 #@! TD*
D26*
G04 #@! TO.N,AGND*
G36*
X19538951Y7630100D02*
X7500280Y7630100D01*
X7451679Y7620433D01*
X7410477Y7592903D01*
X7382947Y7551701D01*
X7373280Y7503100D01*
X7373280Y6130100D01*
X4321240Y6130100D01*
X4278843Y6172497D01*
X4251916Y6212796D01*
X4092282Y6319460D01*
X3951510Y6347461D01*
X3951509Y6347461D01*
X3903981Y6356915D01*
X3856453Y6347461D01*
X441863Y6347461D01*
X448780Y6364160D01*
X448780Y6642040D01*
X381445Y6804600D01*
X639220Y6804600D01*
X895948Y6910941D01*
X1092439Y7107432D01*
X1198780Y7364160D01*
X1198780Y7642040D01*
X1092439Y7898768D01*
X895948Y8095259D01*
X639220Y8201600D01*
X361340Y8201600D01*
X104612Y8095259D01*
X-91879Y7898768D01*
X-198220Y7642040D01*
X-198220Y7364160D01*
X-130885Y7201600D01*
X-388660Y7201600D01*
X-645388Y7095259D01*
X-841879Y6898768D01*
X-948220Y6642040D01*
X-948220Y6364160D01*
X-941303Y6347461D01*
X-2136372Y6347461D01*
X-2095161Y6388672D01*
X-1988820Y6645400D01*
X-1988820Y6923280D01*
X-2095161Y7180008D01*
X-2291652Y7376499D01*
X-2548380Y7482840D01*
X-2570480Y7482840D01*
X-2570480Y7489700D01*
X-2676821Y7746428D01*
X-2873312Y7942919D01*
X-3130040Y8049260D01*
X-3407920Y8049260D01*
X-3664648Y7942919D01*
X-3861139Y7746428D01*
X-3967480Y7489700D01*
X-3967480Y7211820D01*
X-3861139Y6955092D01*
X-3664648Y6758601D01*
X-3407920Y6652260D01*
X-3385820Y6652260D01*
X-3385820Y6645400D01*
X-3279479Y6388672D01*
X-3238268Y6347461D01*
X-4796252Y6347461D01*
X-4843781Y6356915D01*
X-4891310Y6347461D01*
X-5032082Y6319460D01*
X-5191716Y6212796D01*
X-5218641Y6172500D01*
X-5261041Y6130100D01*
X-11960013Y6130100D01*
X-11909721Y6180392D01*
X-11803380Y6437120D01*
X-11803380Y6715000D01*
X-11909721Y6971728D01*
X-12106212Y7168219D01*
X-12274561Y7237952D01*
X-12107841Y7404672D01*
X-12093664Y7438900D01*
X-7797800Y7438900D01*
X-7797800Y7161020D01*
X-7691459Y6904292D01*
X-7494968Y6707801D01*
X-7238240Y6601460D01*
X-6960360Y6601460D01*
X-6703632Y6707801D01*
X-6507141Y6904292D01*
X-6400800Y7161020D01*
X-6400800Y7280040D01*
X-5298440Y8382399D01*
X-5298440Y8331960D01*
X-5192099Y8075232D01*
X-4995608Y7878741D01*
X-4738880Y7772400D01*
X-4461000Y7772400D01*
X-4204272Y7878741D01*
X-4007781Y8075232D01*
X-3901440Y8331960D01*
X-3901440Y8609840D01*
X-3914777Y8642040D01*
X1801780Y8642040D01*
X1801780Y8364160D01*
X1908121Y8107432D01*
X2104612Y7910941D01*
X2361340Y7804600D01*
X2639220Y7804600D01*
X2895948Y7910941D01*
X3092439Y8107432D01*
X3198780Y8364160D01*
X3198780Y8642040D01*
X3092439Y8898768D01*
X3028307Y8962900D01*
X13561060Y8962900D01*
X13561060Y8685020D01*
X13667401Y8428292D01*
X13863892Y8231801D01*
X14120620Y8125460D01*
X14398500Y8125460D01*
X14655228Y8231801D01*
X14851719Y8428292D01*
X14958060Y8685020D01*
X14958060Y8962900D01*
X14851719Y9219628D01*
X14655228Y9416119D01*
X14398500Y9522460D01*
X14120620Y9522460D01*
X13863892Y9416119D01*
X13667401Y9219628D01*
X13561060Y8962900D01*
X3028307Y8962900D01*
X2895948Y9095259D01*
X2639220Y9201600D01*
X2361340Y9201600D01*
X2104612Y9095259D01*
X1908121Y8898768D01*
X1801780Y8642040D01*
X-3914777Y8642040D01*
X-4007781Y8866568D01*
X-4204272Y9063059D01*
X-4461000Y9169400D01*
X-4481043Y9169400D01*
X-4401820Y9360660D01*
X-4401820Y9638540D01*
X-4508161Y9895268D01*
X-4704652Y10091759D01*
X-4961380Y10198100D01*
X-5239260Y10198100D01*
X-5495988Y10091759D01*
X-5692479Y9895268D01*
X-5798820Y9638540D01*
X-5798820Y9360660D01*
X-5786577Y9331104D01*
X-7119220Y7998460D01*
X-7238240Y7998460D01*
X-7494968Y7892119D01*
X-7691459Y7695628D01*
X-7797800Y7438900D01*
X-12093664Y7438900D01*
X-12001500Y7661400D01*
X-12001500Y7939280D01*
X-12107841Y8196008D01*
X-12304332Y8392499D01*
X-12561060Y8498840D01*
X-12838940Y8498840D01*
X-13095668Y8392499D01*
X-13292159Y8196008D01*
X-13398500Y7939280D01*
X-13398500Y7661400D01*
X-13292159Y7404672D01*
X-13095668Y7208181D01*
X-12927319Y7138448D01*
X-13094039Y6971728D01*
X-13200380Y6715000D01*
X-13200380Y6437120D01*
X-13094039Y6180392D01*
X-13043747Y6130100D01*
X-16252613Y6130100D01*
X-16060081Y6322632D01*
X-15953740Y6579360D01*
X-15953740Y6857240D01*
X-16008449Y6989320D01*
X-15333980Y6989320D01*
X-15333980Y6711440D01*
X-15227639Y6454712D01*
X-15031148Y6258221D01*
X-14774420Y6151880D01*
X-14496540Y6151880D01*
X-14239812Y6258221D01*
X-14043321Y6454712D01*
X-13936980Y6711440D01*
X-13936980Y6989320D01*
X-13991579Y7121134D01*
X-13824881Y7287832D01*
X-13718540Y7544560D01*
X-13718540Y7822440D01*
X-13824881Y8079168D01*
X-14021372Y8275659D01*
X-14278100Y8382000D01*
X-14555980Y8382000D01*
X-14812708Y8275659D01*
X-15009199Y8079168D01*
X-15115540Y7822440D01*
X-15115540Y7544560D01*
X-15060941Y7412746D01*
X-15227639Y7246048D01*
X-15333980Y6989320D01*
X-16008449Y6989320D01*
X-16060081Y7113968D01*
X-16256572Y7310459D01*
X-16513300Y7416800D01*
X-16791180Y7416800D01*
X-17047908Y7310459D01*
X-17244399Y7113968D01*
X-17350740Y6857240D01*
X-17350740Y6579360D01*
X-17244399Y6322632D01*
X-17051867Y6130100D01*
X-17890320Y6130100D01*
X-17890320Y9437880D01*
X-12329160Y9437880D01*
X-12329160Y9160000D01*
X-12222819Y8903272D01*
X-12026328Y8706781D01*
X-11769600Y8600440D01*
X-11491720Y8600440D01*
X-11234992Y8706781D01*
X-11038501Y8903272D01*
X-10932160Y9160000D01*
X-10932160Y9437880D01*
X-11038501Y9694608D01*
X-11234992Y9891099D01*
X-11491720Y9997440D01*
X-11769600Y9997440D01*
X-12026328Y9891099D01*
X-12222819Y9694608D01*
X-12329160Y9437880D01*
X-17890320Y9437880D01*
X-17890320Y9451002D01*
X-17755362Y9585960D01*
X-17600420Y9585960D01*
X-17343692Y9692301D01*
X-17147201Y9888792D01*
X-17040860Y10145520D01*
X-17040860Y10423400D01*
X-17147201Y10680128D01*
X-17343692Y10876619D01*
X-17600420Y10982960D01*
X-17878300Y10982960D01*
X-18135028Y10876619D01*
X-18331519Y10680128D01*
X-18437860Y10423400D01*
X-18437860Y10268458D01*
X-18680559Y10025760D01*
X-18720854Y9998835D01*
X-18762488Y9936525D01*
X-18827518Y9839201D01*
X-18864974Y9650900D01*
X-18855519Y9603367D01*
X-18855519Y6130100D01*
X-19630390Y6130100D01*
X-19630390Y11038080D01*
X-7089140Y11038080D01*
X-7089140Y10760200D01*
X-6982799Y10503472D01*
X-6786308Y10306981D01*
X-6529580Y10200640D01*
X-6251700Y10200640D01*
X-5994972Y10306981D01*
X-5798481Y10503472D01*
X-5692140Y10760200D01*
X-5692140Y11038080D01*
X-5798481Y11294808D01*
X-5994972Y11491299D01*
X-6251700Y11597640D01*
X-6529580Y11597640D01*
X-6786308Y11491299D01*
X-6982799Y11294808D01*
X-7089140Y11038080D01*
X-19630390Y11038080D01*
X-19630390Y13618720D01*
X-16738600Y13618720D01*
X-16738600Y13340840D01*
X-16632259Y13084112D01*
X-16435768Y12887621D01*
X-16179040Y12781280D01*
X-15901160Y12781280D01*
X-15644432Y12887621D01*
X-15447941Y13084112D01*
X-15341600Y13340840D01*
X-15341600Y13618720D01*
X-15433133Y13839700D01*
X-4399280Y13839700D01*
X-4399280Y13561820D01*
X-4292939Y13305092D01*
X-4096448Y13108601D01*
X-3839720Y13002260D01*
X-3561840Y13002260D01*
X-3305112Y13108601D01*
X-3108621Y13305092D01*
X-3002280Y13561820D01*
X-3002280Y13748260D01*
X4132580Y13748260D01*
X4132580Y13470380D01*
X4238921Y13213652D01*
X4435412Y13017161D01*
X4692140Y12910820D01*
X4970020Y12910820D01*
X5226748Y13017161D01*
X5423239Y13213652D01*
X5529580Y13470380D01*
X5529580Y13748260D01*
X5423239Y14004988D01*
X5226748Y14201479D01*
X4970020Y14307820D01*
X4692140Y14307820D01*
X4435412Y14201479D01*
X4238921Y14004988D01*
X4132580Y13748260D01*
X-3002280Y13748260D01*
X-3002280Y13839700D01*
X-3108621Y14096428D01*
X-3305112Y14292919D01*
X-3561840Y14399260D01*
X-3839720Y14399260D01*
X-4096448Y14292919D01*
X-4292939Y14096428D01*
X-4399280Y13839700D01*
X-15433133Y13839700D01*
X-15447941Y13875448D01*
X-15644432Y14071939D01*
X-15901160Y14178280D01*
X-16179040Y14178280D01*
X-16435768Y14071939D01*
X-16632259Y13875448D01*
X-16738600Y13618720D01*
X-19630390Y13618720D01*
X-19630390Y14439140D01*
X6781800Y14439140D01*
X6781800Y14161260D01*
X6888141Y13904532D01*
X7084632Y13708041D01*
X7341360Y13601700D01*
X7619240Y13601700D01*
X7875968Y13708041D01*
X8072459Y13904532D01*
X8178800Y14161260D01*
X8178800Y14439140D01*
X9400540Y14439140D01*
X9400540Y14161260D01*
X9506881Y13904532D01*
X9703372Y13708041D01*
X9960100Y13601700D01*
X10237980Y13601700D01*
X10430859Y13681594D01*
X10605072Y13507381D01*
X10861800Y13401040D01*
X11139680Y13401040D01*
X11396408Y13507381D01*
X11592899Y13703872D01*
X11699240Y13960600D01*
X11699240Y14238480D01*
X11602446Y14472160D01*
X14732000Y14472160D01*
X14732000Y14194280D01*
X14838341Y13937552D01*
X15034832Y13741061D01*
X15291560Y13634720D01*
X15569440Y13634720D01*
X15826168Y13741061D01*
X16022659Y13937552D01*
X16129000Y14194280D01*
X16129000Y14472160D01*
X16022659Y14728888D01*
X15826168Y14925379D01*
X15569440Y15031720D01*
X15291560Y15031720D01*
X15034832Y14925379D01*
X14838341Y14728888D01*
X14732000Y14472160D01*
X11602446Y14472160D01*
X11592899Y14495208D01*
X11396408Y14691699D01*
X11139680Y14798040D01*
X10861800Y14798040D01*
X10668921Y14718146D01*
X10494708Y14892359D01*
X10237980Y14998700D01*
X9960100Y14998700D01*
X9703372Y14892359D01*
X9506881Y14695868D01*
X9400540Y14439140D01*
X8178800Y14439140D01*
X8072459Y14695868D01*
X7875968Y14892359D01*
X7619240Y14998700D01*
X7341360Y14998700D01*
X7084632Y14892359D01*
X6888141Y14695868D01*
X6781800Y14439140D01*
X-19630390Y14439140D01*
X-19630390Y17682337D01*
X361950Y17682337D01*
X361950Y15519527D01*
X2086610Y15519527D01*
X2086610Y17682337D01*
X361950Y17682337D01*
X-19630390Y17682337D01*
X-19630390Y17717770D01*
X19538951Y17717770D01*
X19538951Y7630100D01*
X19538951Y7630100D01*
G37*
X19538951Y7630100D02*
X7500280Y7630100D01*
X7451679Y7620433D01*
X7410477Y7592903D01*
X7382947Y7551701D01*
X7373280Y7503100D01*
X7373280Y6130100D01*
X4321240Y6130100D01*
X4278843Y6172497D01*
X4251916Y6212796D01*
X4092282Y6319460D01*
X3951510Y6347461D01*
X3951509Y6347461D01*
X3903981Y6356915D01*
X3856453Y6347461D01*
X441863Y6347461D01*
X448780Y6364160D01*
X448780Y6642040D01*
X381445Y6804600D01*
X639220Y6804600D01*
X895948Y6910941D01*
X1092439Y7107432D01*
X1198780Y7364160D01*
X1198780Y7642040D01*
X1092439Y7898768D01*
X895948Y8095259D01*
X639220Y8201600D01*
X361340Y8201600D01*
X104612Y8095259D01*
X-91879Y7898768D01*
X-198220Y7642040D01*
X-198220Y7364160D01*
X-130885Y7201600D01*
X-388660Y7201600D01*
X-645388Y7095259D01*
X-841879Y6898768D01*
X-948220Y6642040D01*
X-948220Y6364160D01*
X-941303Y6347461D01*
X-2136372Y6347461D01*
X-2095161Y6388672D01*
X-1988820Y6645400D01*
X-1988820Y6923280D01*
X-2095161Y7180008D01*
X-2291652Y7376499D01*
X-2548380Y7482840D01*
X-2570480Y7482840D01*
X-2570480Y7489700D01*
X-2676821Y7746428D01*
X-2873312Y7942919D01*
X-3130040Y8049260D01*
X-3407920Y8049260D01*
X-3664648Y7942919D01*
X-3861139Y7746428D01*
X-3967480Y7489700D01*
X-3967480Y7211820D01*
X-3861139Y6955092D01*
X-3664648Y6758601D01*
X-3407920Y6652260D01*
X-3385820Y6652260D01*
X-3385820Y6645400D01*
X-3279479Y6388672D01*
X-3238268Y6347461D01*
X-4796252Y6347461D01*
X-4843781Y6356915D01*
X-4891310Y6347461D01*
X-5032082Y6319460D01*
X-5191716Y6212796D01*
X-5218641Y6172500D01*
X-5261041Y6130100D01*
X-11960013Y6130100D01*
X-11909721Y6180392D01*
X-11803380Y6437120D01*
X-11803380Y6715000D01*
X-11909721Y6971728D01*
X-12106212Y7168219D01*
X-12274561Y7237952D01*
X-12107841Y7404672D01*
X-12093664Y7438900D01*
X-7797800Y7438900D01*
X-7797800Y7161020D01*
X-7691459Y6904292D01*
X-7494968Y6707801D01*
X-7238240Y6601460D01*
X-6960360Y6601460D01*
X-6703632Y6707801D01*
X-6507141Y6904292D01*
X-6400800Y7161020D01*
X-6400800Y7280040D01*
X-5298440Y8382399D01*
X-5298440Y8331960D01*
X-5192099Y8075232D01*
X-4995608Y7878741D01*
X-4738880Y7772400D01*
X-4461000Y7772400D01*
X-4204272Y7878741D01*
X-4007781Y8075232D01*
X-3901440Y8331960D01*
X-3901440Y8609840D01*
X-3914777Y8642040D01*
X1801780Y8642040D01*
X1801780Y8364160D01*
X1908121Y8107432D01*
X2104612Y7910941D01*
X2361340Y7804600D01*
X2639220Y7804600D01*
X2895948Y7910941D01*
X3092439Y8107432D01*
X3198780Y8364160D01*
X3198780Y8642040D01*
X3092439Y8898768D01*
X3028307Y8962900D01*
X13561060Y8962900D01*
X13561060Y8685020D01*
X13667401Y8428292D01*
X13863892Y8231801D01*
X14120620Y8125460D01*
X14398500Y8125460D01*
X14655228Y8231801D01*
X14851719Y8428292D01*
X14958060Y8685020D01*
X14958060Y8962900D01*
X14851719Y9219628D01*
X14655228Y9416119D01*
X14398500Y9522460D01*
X14120620Y9522460D01*
X13863892Y9416119D01*
X13667401Y9219628D01*
X13561060Y8962900D01*
X3028307Y8962900D01*
X2895948Y9095259D01*
X2639220Y9201600D01*
X2361340Y9201600D01*
X2104612Y9095259D01*
X1908121Y8898768D01*
X1801780Y8642040D01*
X-3914777Y8642040D01*
X-4007781Y8866568D01*
X-4204272Y9063059D01*
X-4461000Y9169400D01*
X-4481043Y9169400D01*
X-4401820Y9360660D01*
X-4401820Y9638540D01*
X-4508161Y9895268D01*
X-4704652Y10091759D01*
X-4961380Y10198100D01*
X-5239260Y10198100D01*
X-5495988Y10091759D01*
X-5692479Y9895268D01*
X-5798820Y9638540D01*
X-5798820Y9360660D01*
X-5786577Y9331104D01*
X-7119220Y7998460D01*
X-7238240Y7998460D01*
X-7494968Y7892119D01*
X-7691459Y7695628D01*
X-7797800Y7438900D01*
X-12093664Y7438900D01*
X-12001500Y7661400D01*
X-12001500Y7939280D01*
X-12107841Y8196008D01*
X-12304332Y8392499D01*
X-12561060Y8498840D01*
X-12838940Y8498840D01*
X-13095668Y8392499D01*
X-13292159Y8196008D01*
X-13398500Y7939280D01*
X-13398500Y7661400D01*
X-13292159Y7404672D01*
X-13095668Y7208181D01*
X-12927319Y7138448D01*
X-13094039Y6971728D01*
X-13200380Y6715000D01*
X-13200380Y6437120D01*
X-13094039Y6180392D01*
X-13043747Y6130100D01*
X-16252613Y6130100D01*
X-16060081Y6322632D01*
X-15953740Y6579360D01*
X-15953740Y6857240D01*
X-16008449Y6989320D01*
X-15333980Y6989320D01*
X-15333980Y6711440D01*
X-15227639Y6454712D01*
X-15031148Y6258221D01*
X-14774420Y6151880D01*
X-14496540Y6151880D01*
X-14239812Y6258221D01*
X-14043321Y6454712D01*
X-13936980Y6711440D01*
X-13936980Y6989320D01*
X-13991579Y7121134D01*
X-13824881Y7287832D01*
X-13718540Y7544560D01*
X-13718540Y7822440D01*
X-13824881Y8079168D01*
X-14021372Y8275659D01*
X-14278100Y8382000D01*
X-14555980Y8382000D01*
X-14812708Y8275659D01*
X-15009199Y8079168D01*
X-15115540Y7822440D01*
X-15115540Y7544560D01*
X-15060941Y7412746D01*
X-15227639Y7246048D01*
X-15333980Y6989320D01*
X-16008449Y6989320D01*
X-16060081Y7113968D01*
X-16256572Y7310459D01*
X-16513300Y7416800D01*
X-16791180Y7416800D01*
X-17047908Y7310459D01*
X-17244399Y7113968D01*
X-17350740Y6857240D01*
X-17350740Y6579360D01*
X-17244399Y6322632D01*
X-17051867Y6130100D01*
X-17890320Y6130100D01*
X-17890320Y9437880D01*
X-12329160Y9437880D01*
X-12329160Y9160000D01*
X-12222819Y8903272D01*
X-12026328Y8706781D01*
X-11769600Y8600440D01*
X-11491720Y8600440D01*
X-11234992Y8706781D01*
X-11038501Y8903272D01*
X-10932160Y9160000D01*
X-10932160Y9437880D01*
X-11038501Y9694608D01*
X-11234992Y9891099D01*
X-11491720Y9997440D01*
X-11769600Y9997440D01*
X-12026328Y9891099D01*
X-12222819Y9694608D01*
X-12329160Y9437880D01*
X-17890320Y9437880D01*
X-17890320Y9451002D01*
X-17755362Y9585960D01*
X-17600420Y9585960D01*
X-17343692Y9692301D01*
X-17147201Y9888792D01*
X-17040860Y10145520D01*
X-17040860Y10423400D01*
X-17147201Y10680128D01*
X-17343692Y10876619D01*
X-17600420Y10982960D01*
X-17878300Y10982960D01*
X-18135028Y10876619D01*
X-18331519Y10680128D01*
X-18437860Y10423400D01*
X-18437860Y10268458D01*
X-18680559Y10025760D01*
X-18720854Y9998835D01*
X-18762488Y9936525D01*
X-18827518Y9839201D01*
X-18864974Y9650900D01*
X-18855519Y9603367D01*
X-18855519Y6130100D01*
X-19630390Y6130100D01*
X-19630390Y11038080D01*
X-7089140Y11038080D01*
X-7089140Y10760200D01*
X-6982799Y10503472D01*
X-6786308Y10306981D01*
X-6529580Y10200640D01*
X-6251700Y10200640D01*
X-5994972Y10306981D01*
X-5798481Y10503472D01*
X-5692140Y10760200D01*
X-5692140Y11038080D01*
X-5798481Y11294808D01*
X-5994972Y11491299D01*
X-6251700Y11597640D01*
X-6529580Y11597640D01*
X-6786308Y11491299D01*
X-6982799Y11294808D01*
X-7089140Y11038080D01*
X-19630390Y11038080D01*
X-19630390Y13618720D01*
X-16738600Y13618720D01*
X-16738600Y13340840D01*
X-16632259Y13084112D01*
X-16435768Y12887621D01*
X-16179040Y12781280D01*
X-15901160Y12781280D01*
X-15644432Y12887621D01*
X-15447941Y13084112D01*
X-15341600Y13340840D01*
X-15341600Y13618720D01*
X-15433133Y13839700D01*
X-4399280Y13839700D01*
X-4399280Y13561820D01*
X-4292939Y13305092D01*
X-4096448Y13108601D01*
X-3839720Y13002260D01*
X-3561840Y13002260D01*
X-3305112Y13108601D01*
X-3108621Y13305092D01*
X-3002280Y13561820D01*
X-3002280Y13748260D01*
X4132580Y13748260D01*
X4132580Y13470380D01*
X4238921Y13213652D01*
X4435412Y13017161D01*
X4692140Y12910820D01*
X4970020Y12910820D01*
X5226748Y13017161D01*
X5423239Y13213652D01*
X5529580Y13470380D01*
X5529580Y13748260D01*
X5423239Y14004988D01*
X5226748Y14201479D01*
X4970020Y14307820D01*
X4692140Y14307820D01*
X4435412Y14201479D01*
X4238921Y14004988D01*
X4132580Y13748260D01*
X-3002280Y13748260D01*
X-3002280Y13839700D01*
X-3108621Y14096428D01*
X-3305112Y14292919D01*
X-3561840Y14399260D01*
X-3839720Y14399260D01*
X-4096448Y14292919D01*
X-4292939Y14096428D01*
X-4399280Y13839700D01*
X-15433133Y13839700D01*
X-15447941Y13875448D01*
X-15644432Y14071939D01*
X-15901160Y14178280D01*
X-16179040Y14178280D01*
X-16435768Y14071939D01*
X-16632259Y13875448D01*
X-16738600Y13618720D01*
X-19630390Y13618720D01*
X-19630390Y14439140D01*
X6781800Y14439140D01*
X6781800Y14161260D01*
X6888141Y13904532D01*
X7084632Y13708041D01*
X7341360Y13601700D01*
X7619240Y13601700D01*
X7875968Y13708041D01*
X8072459Y13904532D01*
X8178800Y14161260D01*
X8178800Y14439140D01*
X9400540Y14439140D01*
X9400540Y14161260D01*
X9506881Y13904532D01*
X9703372Y13708041D01*
X9960100Y13601700D01*
X10237980Y13601700D01*
X10430859Y13681594D01*
X10605072Y13507381D01*
X10861800Y13401040D01*
X11139680Y13401040D01*
X11396408Y13507381D01*
X11592899Y13703872D01*
X11699240Y13960600D01*
X11699240Y14238480D01*
X11602446Y14472160D01*
X14732000Y14472160D01*
X14732000Y14194280D01*
X14838341Y13937552D01*
X15034832Y13741061D01*
X15291560Y13634720D01*
X15569440Y13634720D01*
X15826168Y13741061D01*
X16022659Y13937552D01*
X16129000Y14194280D01*
X16129000Y14472160D01*
X16022659Y14728888D01*
X15826168Y14925379D01*
X15569440Y15031720D01*
X15291560Y15031720D01*
X15034832Y14925379D01*
X14838341Y14728888D01*
X14732000Y14472160D01*
X11602446Y14472160D01*
X11592899Y14495208D01*
X11396408Y14691699D01*
X11139680Y14798040D01*
X10861800Y14798040D01*
X10668921Y14718146D01*
X10494708Y14892359D01*
X10237980Y14998700D01*
X9960100Y14998700D01*
X9703372Y14892359D01*
X9506881Y14695868D01*
X9400540Y14439140D01*
X8178800Y14439140D01*
X8072459Y14695868D01*
X7875968Y14892359D01*
X7619240Y14998700D01*
X7341360Y14998700D01*
X7084632Y14892359D01*
X6888141Y14695868D01*
X6781800Y14439140D01*
X-19630390Y14439140D01*
X-19630390Y17682337D01*
X361950Y17682337D01*
X361950Y15519527D01*
X2086610Y15519527D01*
X2086610Y17682337D01*
X361950Y17682337D01*
X-19630390Y17682337D01*
X-19630390Y17717770D01*
X19538951Y17717770D01*
X19538951Y7630100D01*
G04 #@! TO.N,DGND*
G36*
X4590834Y4495509D02*
X4617759Y4455213D01*
X4702235Y4398768D01*
X4777392Y4348549D01*
X4965694Y4311094D01*
X5013223Y4320548D01*
X6528540Y4320548D01*
X6576068Y4311094D01*
X6623596Y4320548D01*
X6623597Y4320548D01*
X6764369Y4348549D01*
X6924003Y4455213D01*
X6950930Y4495511D01*
X7169658Y4714240D01*
X7258421Y4714240D01*
X7160260Y4477260D01*
X7160260Y4199380D01*
X7266601Y3942652D01*
X7373280Y3835973D01*
X7373280Y3646076D01*
X6917443Y3190239D01*
X6863479Y3190239D01*
X6807198Y3201434D01*
X6750917Y3190239D01*
X6750913Y3190239D01*
X6584211Y3157080D01*
X6395171Y3030767D01*
X6374439Y2999740D01*
X6350760Y2999740D01*
X6094032Y2893399D01*
X5897541Y2696908D01*
X5791200Y2440180D01*
X5791200Y2162300D01*
X5897541Y1905572D01*
X6094032Y1709081D01*
X6350760Y1602740D01*
X6628640Y1602740D01*
X6885368Y1709081D01*
X7081859Y1905572D01*
X7137293Y2039400D01*
X7154165Y2036044D01*
X7210446Y2047239D01*
X7210451Y2047239D01*
X7373280Y2079628D01*
X7373280Y1235908D01*
X7125272Y1133179D01*
X6928781Y936688D01*
X6822440Y679960D01*
X6822440Y402080D01*
X6928781Y145352D01*
X7125272Y-51139D01*
X7373280Y-153868D01*
X7373280Y-496900D01*
X7382947Y-545501D01*
X7410477Y-586703D01*
X7451679Y-614233D01*
X7500280Y-623900D01*
X8201660Y-623900D01*
X8201660Y-738380D01*
X8308001Y-995108D01*
X8504492Y-1191599D01*
X8761220Y-1297940D01*
X9039100Y-1297940D01*
X9295828Y-1191599D01*
X9492319Y-995108D01*
X9598660Y-738380D01*
X9598660Y-623900D01*
X9873280Y-623900D01*
X9873280Y-19419570D01*
X-19630390Y-19419570D01*
X-19630390Y-17125440D01*
X-15892780Y-17125440D01*
X-15892780Y-17403320D01*
X-15786439Y-17660048D01*
X-15589948Y-17856539D01*
X-15333220Y-17962880D01*
X-15055340Y-17962880D01*
X-14798612Y-17856539D01*
X-14602121Y-17660048D01*
X-14495780Y-17403320D01*
X-14495780Y-17125440D01*
X-14602121Y-16868712D01*
X-14798612Y-16672221D01*
X-15055340Y-16565880D01*
X-15333220Y-16565880D01*
X-15589948Y-16672221D01*
X-15786439Y-16868712D01*
X-15892780Y-17125440D01*
X-19630390Y-17125440D01*
X-19630390Y-15281400D01*
X-14775180Y-15281400D01*
X-14775180Y-15559280D01*
X-14668839Y-15816008D01*
X-14472348Y-16012499D01*
X-14215620Y-16118840D01*
X-13937740Y-16118840D01*
X-13681012Y-16012499D01*
X-13484521Y-15816008D01*
X-13378180Y-15559280D01*
X-13378180Y-15281400D01*
X-13484521Y-15024672D01*
X-13681012Y-14828181D01*
X-13937740Y-14721840D01*
X-14215620Y-14721840D01*
X-14472348Y-14828181D01*
X-14668839Y-15024672D01*
X-14775180Y-15281400D01*
X-19630390Y-15281400D01*
X-19630390Y-14190622D01*
X-11397645Y-14190622D01*
X-11391860Y-14380362D01*
X-11054790Y-14482048D01*
X-10704463Y-14447003D01*
X-10543580Y-14380362D01*
X-10538183Y-14203322D01*
X-10051445Y-14203322D01*
X-10045660Y-14393062D01*
X-9708590Y-14494748D01*
X-9358263Y-14459703D01*
X-9197380Y-14393062D01*
X-9191905Y-14213482D01*
X-8712865Y-14213482D01*
X-8707080Y-14403222D01*
X-8370010Y-14504908D01*
X-8019683Y-14469863D01*
X-7858800Y-14403222D01*
X-7853015Y-14213482D01*
X-7863175Y-14203322D01*
X-7298085Y-14203322D01*
X-7292300Y-14393062D01*
X-6955230Y-14494748D01*
X-6604903Y-14459703D01*
X-6444020Y-14393062D01*
X-6438235Y-14203322D01*
X-6445855Y-14195702D01*
X-5890925Y-14195702D01*
X-5885140Y-14385442D01*
X-5548070Y-14487128D01*
X-5197743Y-14452083D01*
X-5036860Y-14385442D01*
X-5031075Y-14195702D01*
X-5461000Y-13765777D01*
X-5890925Y-14195702D01*
X-6445855Y-14195702D01*
X-6868160Y-13773397D01*
X-7298085Y-14203322D01*
X-7863175Y-14203322D01*
X-8282940Y-13783557D01*
X-8712865Y-14213482D01*
X-9191905Y-14213482D01*
X-9191595Y-14203322D01*
X-9621520Y-13773397D01*
X-10051445Y-14203322D01*
X-10538183Y-14203322D01*
X-10537795Y-14190622D01*
X-10967720Y-13760697D01*
X-11397645Y-14190622D01*
X-19630390Y-14190622D01*
X-19630390Y-6376160D01*
X-19562439Y-6376160D01*
X-19562439Y-6654040D01*
X-19456098Y-6910768D01*
X-19259607Y-7107259D01*
X-19002879Y-7213600D01*
X-18724999Y-7213600D01*
X-18468271Y-7107259D01*
X-18271780Y-6910768D01*
X-18165439Y-6654040D01*
X-18165439Y-6376160D01*
X-18249607Y-6172960D01*
X-15158720Y-6172960D01*
X-15158720Y-6450840D01*
X-15052379Y-6707568D01*
X-14855888Y-6904059D01*
X-14599160Y-7010400D01*
X-14321280Y-7010400D01*
X-14064552Y-6904059D01*
X-13868061Y-6707568D01*
X-13761720Y-6450840D01*
X-13761720Y-6172960D01*
X-13868061Y-5916232D01*
X-14064552Y-5719741D01*
X-14321280Y-5613400D01*
X-14599160Y-5613400D01*
X-14855888Y-5719741D01*
X-15052379Y-5916232D01*
X-15158720Y-6172960D01*
X-18249607Y-6172960D01*
X-18271780Y-6119432D01*
X-18468271Y-5922941D01*
X-18724999Y-5816600D01*
X-19002879Y-5816600D01*
X-19259607Y-5922941D01*
X-19456098Y-6119432D01*
X-19562439Y-6376160D01*
X-19630390Y-6376160D01*
X-19630390Y-4458460D01*
X-17451898Y-4458460D01*
X-17451898Y-4736340D01*
X-17345557Y-4993068D01*
X-17149066Y-5189559D01*
X-16892338Y-5295900D01*
X-16614458Y-5295900D01*
X-16357730Y-5189559D01*
X-16161239Y-4993068D01*
X-16054898Y-4736340D01*
X-16054898Y-4458460D01*
X-16161239Y-4201732D01*
X-16357730Y-4005241D01*
X-16614458Y-3898900D01*
X-16892338Y-3898900D01*
X-17149066Y-4005241D01*
X-17345557Y-4201732D01*
X-17451898Y-4458460D01*
X-19630390Y-4458460D01*
X-19630390Y3700405D01*
X-19591879Y3607432D01*
X-19395388Y3410941D01*
X-19138660Y3304600D01*
X-18860780Y3304600D01*
X-18855520Y3306779D01*
X-18855520Y-832412D01*
X-18864974Y-879940D01*
X-18855520Y-927468D01*
X-18827519Y-1068240D01*
X-18720855Y-1227875D01*
X-18680557Y-1254801D01*
X-18332317Y-1603042D01*
X-18305394Y-1643336D01*
X-18265101Y-1670259D01*
X-18145760Y-1750000D01*
X-17957459Y-1787455D01*
X-17909930Y-1778001D01*
X-17624295Y-1778001D01*
X-15489692Y-3912605D01*
X-15669599Y-4092512D01*
X-15775940Y-4349240D01*
X-15775940Y-4627120D01*
X-15669599Y-4883848D01*
X-15473108Y-5080339D01*
X-15216380Y-5186680D01*
X-14938500Y-5186680D01*
X-14681772Y-5080339D01*
X-14501865Y-4900432D01*
X-13439141Y-5963157D01*
X-13439140Y-12293488D01*
X-13448595Y-12341021D01*
X-13421348Y-12477997D01*
X-13411139Y-12529322D01*
X-13304475Y-12688956D01*
X-13264180Y-12715880D01*
X-12851959Y-13128103D01*
X-12825036Y-13168396D01*
X-12784743Y-13195319D01*
X-12665402Y-13275060D01*
X-12477101Y-13312515D01*
X-12429572Y-13303061D01*
X-11807386Y-13303061D01*
X-11865848Y-13496850D01*
X-11830803Y-13847177D01*
X-11764162Y-14008060D01*
X-11574422Y-14013845D01*
X-11144497Y-13583920D01*
X-11160053Y-13568364D01*
X-10983276Y-13391587D01*
X-10967720Y-13407143D01*
X-10952163Y-13391587D01*
X-10775386Y-13568364D01*
X-10790943Y-13583920D01*
X-10463118Y-13911745D01*
X-10417962Y-14020760D01*
X-10228222Y-14026545D01*
X-10210946Y-14009269D01*
X-10171278Y-14008060D01*
X-10154664Y-13952987D01*
X-9798297Y-13596620D01*
X-9813853Y-13581064D01*
X-9637076Y-13404287D01*
X-9621520Y-13419843D01*
X-9605963Y-13404287D01*
X-9429186Y-13581064D01*
X-9444743Y-13596620D01*
X-9128131Y-13913232D01*
X-9079382Y-14030920D01*
X-8889642Y-14036705D01*
X-8875226Y-14022289D01*
X-8825078Y-14020760D01*
X-8804075Y-13951138D01*
X-8459717Y-13606780D01*
X-8475273Y-13591224D01*
X-8298496Y-13414447D01*
X-8282940Y-13430003D01*
X-8267383Y-13414447D01*
X-8090606Y-13591224D01*
X-8106163Y-13606780D01*
X-7676238Y-14036705D01*
X-7486498Y-14030920D01*
X-7485084Y-14026233D01*
X-7474862Y-14026545D01*
X-7044937Y-13596620D01*
X-7060493Y-13581064D01*
X-6883716Y-13404287D01*
X-6868160Y-13419843D01*
X-6852603Y-13404287D01*
X-6675826Y-13581064D01*
X-6691383Y-13596620D01*
X-6261458Y-14026545D01*
X-6071718Y-14020760D01*
X-6071133Y-14018820D01*
X-6067702Y-14018925D01*
X-5637777Y-13589000D01*
X-5653333Y-13573444D01*
X-5476556Y-13396667D01*
X-5461000Y-13412223D01*
X-5445443Y-13396667D01*
X-5268666Y-13573444D01*
X-5284223Y-13589000D01*
X-4854298Y-14018925D01*
X-4664558Y-14013140D01*
X-4562872Y-13676070D01*
X-4597917Y-13325743D01*
X-4607312Y-13303061D01*
X-2678008Y-13303061D01*
X-2568449Y-13412620D01*
X-2311721Y-13518961D01*
X-2033841Y-13518961D01*
X-1777113Y-13412620D01*
X-1580622Y-13216129D01*
X-1474281Y-12959401D01*
X-1474281Y-12681521D01*
X-1580622Y-12424793D01*
X-1777113Y-12228302D01*
X-2033841Y-12121961D01*
X-2311721Y-12121961D01*
X-2568449Y-12228302D01*
X-2678008Y-12337861D01*
X-4581377Y-12337861D01*
X-4615697Y-11994783D01*
X-4682338Y-11833900D01*
X-4872078Y-11828115D01*
X-5302003Y-12258040D01*
X-5286446Y-12273597D01*
X-5350711Y-12337861D01*
X-5606849Y-12337861D01*
X-5671113Y-12273597D01*
X-5655557Y-12258040D01*
X-6085482Y-11828115D01*
X-6275222Y-11833900D01*
X-6303906Y-11928983D01*
X-6691383Y-12316460D01*
X-6675826Y-12332017D01*
X-6681671Y-12337861D01*
X-7054649Y-12337861D01*
X-7060493Y-12332017D01*
X-7044937Y-12316460D01*
X-7449015Y-11912382D01*
X-7463638Y-11877080D01*
X-7653378Y-11871295D01*
X-8083303Y-12301220D01*
X-8067746Y-12316777D01*
X-8088831Y-12337861D01*
X-8431329Y-12337861D01*
X-8452413Y-12316777D01*
X-8436857Y-12301220D01*
X-8848864Y-11889213D01*
X-8858098Y-11866920D01*
X-9047838Y-11861135D01*
X-9477763Y-12291060D01*
X-9462206Y-12306617D01*
X-9493451Y-12337861D01*
X-9815629Y-12337861D01*
X-9846873Y-12306617D01*
X-9831317Y-12291060D01*
X-10139257Y-11983120D01*
X-10191598Y-11856760D01*
X-10381338Y-11850975D01*
X-10395594Y-11865231D01*
X-10450982Y-11866920D01*
X-10474180Y-11943817D01*
X-10811263Y-12280900D01*
X-10795706Y-12296457D01*
X-10837111Y-12337861D01*
X-11138969Y-12337861D01*
X-11180373Y-12296457D01*
X-11164817Y-12280900D01*
X-11594742Y-11850975D01*
X-11784482Y-11856760D01*
X-11886168Y-12193830D01*
X-11871760Y-12337861D01*
X-12277202Y-12337861D01*
X-12473941Y-12141122D01*
X-12473941Y-11674198D01*
X-11417965Y-11674198D01*
X-10988040Y-12104123D01*
X-10587427Y-11703510D01*
X-10513100Y-11672722D01*
X-10508322Y-11516002D01*
X-10084465Y-11516002D01*
X-10081898Y-11600180D01*
X-10084465Y-11684358D01*
X-10079171Y-11689652D01*
X-10078680Y-11705742D01*
X-10056342Y-11712481D01*
X-9654540Y-12114283D01*
X-9257029Y-11716772D01*
X-9230400Y-11705742D01*
X-9230058Y-11694518D01*
X-8690005Y-11694518D01*
X-8674630Y-11709893D01*
X-8674060Y-11728602D01*
X-8648085Y-11736438D01*
X-8260080Y-12124443D01*
X-7891434Y-11755797D01*
X-7825780Y-11728602D01*
X-7819995Y-11538862D01*
X-7827615Y-11531242D01*
X-7308245Y-11531242D01*
X-7302460Y-11720982D01*
X-7280122Y-11727721D01*
X-6868160Y-12139683D01*
X-6438235Y-11709758D01*
X-6443600Y-11533782D01*
X-5908705Y-11533782D01*
X-5906913Y-11592560D01*
X-5908705Y-11651338D01*
X-5905008Y-11655035D01*
X-5902920Y-11723522D01*
X-5807837Y-11752206D01*
X-5478780Y-12081263D01*
X-5167991Y-11770474D01*
X-5054640Y-11723522D01*
X-5052552Y-11655035D01*
X-5048855Y-11651338D01*
X-5050647Y-11592560D01*
X-5048855Y-11533782D01*
X-5052552Y-11530085D01*
X-5054640Y-11461598D01*
X-5149723Y-11432914D01*
X-5478780Y-11103857D01*
X-5789569Y-11414646D01*
X-5902920Y-11461598D01*
X-5905008Y-11530085D01*
X-5908705Y-11533782D01*
X-6443600Y-11533782D01*
X-6444020Y-11520018D01*
X-6466358Y-11513279D01*
X-6878320Y-11101317D01*
X-7308245Y-11531242D01*
X-7827615Y-11531242D01*
X-7835370Y-11523487D01*
X-7835940Y-11504778D01*
X-7861915Y-11496942D01*
X-8249920Y-11108937D01*
X-8618566Y-11477583D01*
X-8684220Y-11504778D01*
X-8690005Y-11694518D01*
X-9230058Y-11694518D01*
X-9229909Y-11689652D01*
X-9224615Y-11684358D01*
X-9227182Y-11600180D01*
X-9224615Y-11516002D01*
X-9229909Y-11510708D01*
X-9230400Y-11494618D01*
X-9252738Y-11487879D01*
X-9654540Y-11086077D01*
X-10052051Y-11483588D01*
X-10078680Y-11494618D01*
X-10079171Y-11510708D01*
X-10084465Y-11516002D01*
X-10508322Y-11516002D01*
X-10507315Y-11482982D01*
X-10937240Y-11053057D01*
X-11337853Y-11453670D01*
X-11412180Y-11484458D01*
X-11417965Y-11674198D01*
X-12473941Y-11674198D01*
X-12473941Y-10789210D01*
X-11835368Y-10789210D01*
X-11800323Y-11139537D01*
X-11733682Y-11300420D01*
X-11543942Y-11306205D01*
X-11114017Y-10876280D01*
X-10760463Y-10876280D01*
X-10523563Y-11113180D01*
X-10517623Y-11172557D01*
X-10450982Y-11333440D01*
X-10261242Y-11339225D01*
X-10225004Y-11302987D01*
X-10140798Y-11300420D01*
X-10105530Y-11183513D01*
X-9831317Y-10909300D01*
X-9477763Y-10909300D01*
X-9057392Y-11329671D01*
X-9046362Y-11356300D01*
X-8856622Y-11362085D01*
X-8426697Y-10932160D01*
X-8073143Y-10932160D01*
X-7687589Y-11317714D01*
X-7674762Y-11348680D01*
X-7656053Y-11349250D01*
X-7643218Y-11362085D01*
X-7453478Y-11356300D01*
X-7439058Y-11308501D01*
X-7055097Y-10924540D01*
X-6701543Y-10924540D01*
X-6275476Y-11350607D01*
X-6275222Y-11351220D01*
X-6274852Y-11351231D01*
X-6271618Y-11354465D01*
X-6220204Y-11352897D01*
X-6085482Y-11357005D01*
X-5655557Y-10927080D01*
X-5302003Y-10927080D01*
X-4872078Y-11357005D01*
X-4682338Y-11351220D01*
X-4580652Y-11014150D01*
X-4615697Y-10663823D01*
X-4682338Y-10502940D01*
X-4872078Y-10497155D01*
X-5302003Y-10927080D01*
X-5655557Y-10927080D01*
X-6081624Y-10501013D01*
X-6081878Y-10500400D01*
X-6082248Y-10500389D01*
X-6085482Y-10497155D01*
X-6136896Y-10498723D01*
X-6271618Y-10494615D01*
X-6701543Y-10924540D01*
X-7055097Y-10924540D01*
X-7440651Y-10538986D01*
X-7453478Y-10508020D01*
X-7472187Y-10507450D01*
X-7485022Y-10494615D01*
X-7674762Y-10500400D01*
X-7689182Y-10548199D01*
X-8073143Y-10932160D01*
X-8426697Y-10932160D01*
X-8847068Y-10511789D01*
X-8858098Y-10485160D01*
X-9047838Y-10479375D01*
X-9477763Y-10909300D01*
X-9831317Y-10909300D01*
X-10068217Y-10672400D01*
X-10074157Y-10613023D01*
X-10140798Y-10452140D01*
X-10330538Y-10446355D01*
X-10366776Y-10482593D01*
X-10450982Y-10485160D01*
X-10486250Y-10602067D01*
X-10760463Y-10876280D01*
X-11114017Y-10876280D01*
X-11543942Y-10446355D01*
X-11733682Y-10452140D01*
X-11835368Y-10789210D01*
X-12473941Y-10789210D01*
X-12473941Y-10126622D01*
X-11384945Y-10126622D01*
X-11379160Y-10316362D01*
X-11294988Y-10341755D01*
X-10937240Y-10699503D01*
X-10570518Y-10332781D01*
X-10530880Y-10316362D01*
X-10530150Y-10292413D01*
X-10507315Y-10269578D01*
X-10512680Y-10093602D01*
X-10104785Y-10093602D01*
X-10099000Y-10283342D01*
X-10084016Y-10287862D01*
X-10084465Y-10302598D01*
X-9654540Y-10732523D01*
X-9224615Y-10302598D01*
X-9228276Y-10182502D01*
X-8712865Y-10182502D01*
X-8707080Y-10372242D01*
X-8601085Y-10404218D01*
X-8249920Y-10755383D01*
X-7872421Y-10377884D01*
X-7858800Y-10372242D01*
X-7858549Y-10364012D01*
X-7819995Y-10325458D01*
X-7820227Y-10317838D01*
X-7308245Y-10317838D01*
X-7293829Y-10332254D01*
X-7292300Y-10382402D01*
X-7222678Y-10403405D01*
X-6878320Y-10747763D01*
X-6561708Y-10431151D01*
X-6444020Y-10382402D01*
X-6438313Y-10195202D01*
X-5908705Y-10195202D01*
X-5906797Y-10257790D01*
X-5908705Y-10320378D01*
X-5904768Y-10324315D01*
X-5902920Y-10384942D01*
X-5818748Y-10410335D01*
X-5478780Y-10750303D01*
X-5154983Y-10426506D01*
X-5054640Y-10384942D01*
X-5052792Y-10324315D01*
X-5048855Y-10320378D01*
X-5050763Y-10257790D01*
X-5048855Y-10195202D01*
X-5052792Y-10191265D01*
X-5054640Y-10130638D01*
X-5138812Y-10105245D01*
X-5478780Y-9765277D01*
X-5802577Y-10089074D01*
X-5902920Y-10130638D01*
X-5904768Y-10191265D01*
X-5908705Y-10195202D01*
X-6438313Y-10195202D01*
X-6438235Y-10192662D01*
X-6452651Y-10178246D01*
X-6454180Y-10128098D01*
X-6523802Y-10107095D01*
X-6868160Y-9762737D01*
X-7184772Y-10079349D01*
X-7302460Y-10128098D01*
X-7308245Y-10317838D01*
X-7820227Y-10317838D01*
X-7825780Y-10135718D01*
X-7931775Y-10103742D01*
X-8282940Y-9752577D01*
X-8660439Y-10130076D01*
X-8674060Y-10135718D01*
X-8674311Y-10143948D01*
X-8712865Y-10182502D01*
X-9228276Y-10182502D01*
X-9230400Y-10112858D01*
X-9245384Y-10108338D01*
X-9244935Y-10093602D01*
X-9674860Y-9663677D01*
X-10104785Y-10093602D01*
X-10512680Y-10093602D01*
X-10513100Y-10079838D01*
X-10597272Y-10054445D01*
X-10955020Y-9696697D01*
X-11321742Y-10063419D01*
X-11361380Y-10079838D01*
X-11362110Y-10103787D01*
X-11384945Y-10126622D01*
X-12473941Y-10126622D01*
X-12473941Y-9432850D01*
X-11853148Y-9432850D01*
X-11818103Y-9783177D01*
X-11751462Y-9944060D01*
X-11561722Y-9949845D01*
X-11131797Y-9519920D01*
X-10778243Y-9519920D01*
X-10530827Y-9767336D01*
X-10471302Y-9911040D01*
X-10384476Y-9913687D01*
X-10348318Y-9949845D01*
X-10158578Y-9944060D01*
X-10093683Y-9728946D01*
X-9851637Y-9486900D01*
X-9498083Y-9486900D01*
X-9146034Y-9838949D01*
X-9146023Y-9839057D01*
X-9079382Y-9999940D01*
X-8889642Y-10005725D01*
X-8459717Y-9575800D01*
X-8106163Y-9575800D01*
X-7676238Y-10005725D01*
X-7666537Y-10005429D01*
X-7664602Y-10010100D01*
X-7474862Y-10015885D01*
X-7044937Y-9585960D01*
X-6691383Y-9585960D01*
X-6282660Y-9994683D01*
X-6275222Y-10012640D01*
X-6264372Y-10012971D01*
X-6261458Y-10015885D01*
X-6215124Y-10014472D01*
X-6085482Y-10018425D01*
X-6077328Y-10010271D01*
X-6071718Y-10010100D01*
X-6069368Y-10002311D01*
X-5655557Y-9588500D01*
X-5302003Y-9588500D01*
X-4872078Y-10018425D01*
X-4682338Y-10012640D01*
X-4580652Y-9675570D01*
X-4615697Y-9325243D01*
X-4682338Y-9164360D01*
X-4872078Y-9158575D01*
X-5302003Y-9588500D01*
X-5655557Y-9588500D01*
X-6064280Y-9179777D01*
X-6071718Y-9161820D01*
X-6082568Y-9161489D01*
X-6085482Y-9158575D01*
X-6131816Y-9159988D01*
X-6261458Y-9156035D01*
X-6269612Y-9164189D01*
X-6275222Y-9164360D01*
X-6277572Y-9172149D01*
X-6691383Y-9585960D01*
X-7044937Y-9585960D01*
X-7474862Y-9156035D01*
X-7484563Y-9156331D01*
X-7486498Y-9151660D01*
X-7676238Y-9145875D01*
X-8106163Y-9575800D01*
X-8459717Y-9575800D01*
X-8811766Y-9223751D01*
X-8811777Y-9223643D01*
X-8878418Y-9062760D01*
X-9068158Y-9056975D01*
X-9498083Y-9486900D01*
X-9851637Y-9486900D01*
X-10099053Y-9239484D01*
X-10158578Y-9095780D01*
X-10245404Y-9093133D01*
X-10281562Y-9056975D01*
X-10471302Y-9062760D01*
X-10536197Y-9277874D01*
X-10778243Y-9519920D01*
X-11131797Y-9519920D01*
X-11561722Y-9089995D01*
X-11751462Y-9095780D01*
X-11853148Y-9432850D01*
X-12473941Y-9432850D01*
X-12473941Y-8709302D01*
X-11390025Y-8709302D01*
X-11384376Y-8894568D01*
X-11384945Y-8913218D01*
X-10955020Y-9343143D01*
X-10525095Y-8913218D01*
X-10526101Y-8880198D01*
X-10104785Y-8880198D01*
X-9674860Y-9310123D01*
X-9325228Y-8960491D01*
X-9207540Y-8911742D01*
X-9201755Y-8722002D01*
X-8756045Y-8722002D01*
X-8750260Y-8911742D01*
X-8711473Y-8923443D01*
X-8712865Y-8969098D01*
X-8282940Y-9399023D01*
X-7853015Y-8969098D01*
X-7858800Y-8779358D01*
X-7897587Y-8767657D01*
X-7896195Y-8722002D01*
X-7901275Y-8716922D01*
X-7318405Y-8716922D01*
X-7312620Y-8906662D01*
X-7296024Y-8911669D01*
X-7298085Y-8979258D01*
X-6868160Y-9409183D01*
X-6440775Y-8981798D01*
X-5908705Y-8981798D01*
X-5478780Y-9411723D01*
X-5048855Y-8981798D01*
X-5051279Y-8902294D01*
X-5049560Y-8901582D01*
X-5043775Y-8711842D01*
X-5473700Y-8281917D01*
X-5903625Y-8711842D01*
X-5901201Y-8791346D01*
X-5902920Y-8792058D01*
X-5908705Y-8981798D01*
X-6440775Y-8981798D01*
X-6438235Y-8979258D01*
X-6444020Y-8789518D01*
X-6460616Y-8784511D01*
X-6458555Y-8716922D01*
X-6888480Y-8286997D01*
X-7318405Y-8716922D01*
X-7901275Y-8716922D01*
X-8326120Y-8292077D01*
X-8756045Y-8722002D01*
X-9201755Y-8722002D01*
X-9631680Y-8292077D01*
X-9981312Y-8641709D01*
X-10099000Y-8690458D01*
X-10104785Y-8880198D01*
X-10526101Y-8880198D01*
X-10530744Y-8727952D01*
X-10530175Y-8709302D01*
X-10960100Y-8279377D01*
X-11390025Y-8709302D01*
X-12473941Y-8709302D01*
X-12473941Y-8015530D01*
X-11858228Y-8015530D01*
X-11823183Y-8365857D01*
X-11756542Y-8526740D01*
X-11566802Y-8532525D01*
X-11136877Y-8102600D01*
X-10783323Y-8102600D01*
X-10485851Y-8400072D01*
X-10428122Y-8539440D01*
X-10238382Y-8545225D01*
X-10221666Y-8528509D01*
X-10163658Y-8526740D01*
X-10139363Y-8446206D01*
X-9808457Y-8115300D01*
X-9454903Y-8115300D01*
X-9187475Y-8382728D01*
X-9122562Y-8539440D01*
X-9027876Y-8542327D01*
X-9024978Y-8545225D01*
X-8978900Y-8543820D01*
X-8932822Y-8545225D01*
X-8929924Y-8542327D01*
X-8835238Y-8539440D01*
X-8795581Y-8407984D01*
X-8502897Y-8115300D01*
X-8149343Y-8115300D01*
X-7719418Y-8545225D01*
X-7529678Y-8539440D01*
X-7529574Y-8539096D01*
X-7495182Y-8540145D01*
X-7065257Y-8110220D01*
X-6711703Y-8110220D01*
X-6281778Y-8540145D01*
X-6097782Y-8534535D01*
X-6080402Y-8535065D01*
X-5650477Y-8105140D01*
X-5296923Y-8105140D01*
X-4866998Y-8535065D01*
X-4677258Y-8529280D01*
X-4575572Y-8192210D01*
X-4610617Y-7841883D01*
X-4677258Y-7681000D01*
X-4866998Y-7675215D01*
X-5296923Y-8105140D01*
X-5650477Y-8105140D01*
X-6080402Y-7675215D01*
X-6264398Y-7680825D01*
X-6281778Y-7680295D01*
X-6711703Y-8110220D01*
X-7065257Y-8110220D01*
X-7495182Y-7680295D01*
X-7684922Y-7686080D01*
X-7685026Y-7686424D01*
X-7719418Y-7685375D01*
X-8149343Y-8115300D01*
X-8502897Y-8115300D01*
X-8770325Y-7847872D01*
X-8835238Y-7691160D01*
X-8929924Y-7688273D01*
X-8932822Y-7685375D01*
X-8978900Y-7686780D01*
X-9024978Y-7685375D01*
X-9027876Y-7688273D01*
X-9122562Y-7691160D01*
X-9162219Y-7822616D01*
X-9454903Y-8115300D01*
X-9808457Y-8115300D01*
X-10105929Y-7817828D01*
X-10163658Y-7678460D01*
X-10353398Y-7672675D01*
X-10370114Y-7689391D01*
X-10428122Y-7691160D01*
X-10452417Y-7771694D01*
X-10783323Y-8102600D01*
X-11136877Y-8102600D01*
X-11566802Y-7672675D01*
X-11756542Y-7678460D01*
X-11858228Y-8015530D01*
X-12473941Y-8015530D01*
X-12473941Y-7495898D01*
X-11390025Y-7495898D01*
X-10960100Y-7925823D01*
X-10542875Y-7508598D01*
X-10061605Y-7508598D01*
X-9631680Y-7938523D01*
X-9201755Y-7508598D01*
X-8756045Y-7508598D01*
X-8326120Y-7938523D01*
X-7896195Y-7508598D01*
X-7896349Y-7503518D01*
X-7318405Y-7503518D01*
X-6888480Y-7933443D01*
X-6458555Y-7503518D01*
X-6458709Y-7498438D01*
X-5903625Y-7498438D01*
X-5473700Y-7928363D01*
X-5043775Y-7498438D01*
X-5049560Y-7308698D01*
X-5386630Y-7207012D01*
X-5736957Y-7242057D01*
X-5897840Y-7308698D01*
X-5903625Y-7498438D01*
X-6458709Y-7498438D01*
X-6464340Y-7313778D01*
X-6801410Y-7212092D01*
X-7151737Y-7247137D01*
X-7312620Y-7313778D01*
X-7318405Y-7503518D01*
X-7896349Y-7503518D01*
X-7901980Y-7318858D01*
X-8239050Y-7217172D01*
X-8589377Y-7252217D01*
X-8750260Y-7318858D01*
X-8756045Y-7508598D01*
X-9201755Y-7508598D01*
X-9207540Y-7318858D01*
X-9544610Y-7217172D01*
X-9894937Y-7252217D01*
X-10055820Y-7318858D01*
X-10061605Y-7508598D01*
X-10542875Y-7508598D01*
X-10530175Y-7495898D01*
X-10535960Y-7306158D01*
X-10873030Y-7204472D01*
X-11223357Y-7239517D01*
X-11384240Y-7306158D01*
X-11390025Y-7495898D01*
X-12473941Y-7495898D01*
X-12473941Y-7305040D01*
X-12246100Y-7305040D01*
X-11989372Y-7198699D01*
X-11792881Y-7002208D01*
X-11686540Y-6745480D01*
X-11686540Y-6467600D01*
X-11792881Y-6210872D01*
X-11902440Y-6101313D01*
X-11902440Y-6055788D01*
X-11868660Y-6069780D01*
X-11590780Y-6069780D01*
X-11334052Y-5963439D01*
X-11137561Y-5766948D01*
X-11031220Y-5510220D01*
X-11031220Y-5232340D01*
X-6383840Y-5232340D01*
X-6383840Y-5510220D01*
X-6277499Y-5766948D01*
X-6081008Y-5963439D01*
X-5824280Y-6069780D01*
X-5546400Y-6069780D01*
X-5289672Y-5963439D01*
X-5093181Y-5766948D01*
X-4986840Y-5510220D01*
X-4986840Y-5232340D01*
X-5093181Y-4975612D01*
X-5289672Y-4779121D01*
X-5546400Y-4672780D01*
X-5824280Y-4672780D01*
X-6081008Y-4779121D01*
X-6277499Y-4975612D01*
X-6383840Y-5232340D01*
X-11031220Y-5232340D01*
X-11137561Y-4975612D01*
X-11334052Y-4779121D01*
X-11590780Y-4672780D01*
X-11868660Y-4672780D01*
X-11902440Y-4686772D01*
X-11902440Y-2597911D01*
X-3138171Y-2597911D01*
X-3138171Y-2875791D01*
X-3031830Y-3132519D01*
X-2835339Y-3329010D01*
X-2578611Y-3435351D01*
X-2300731Y-3435351D01*
X-2044003Y-3329010D01*
X-1847512Y-3132519D01*
X-1741171Y-2875791D01*
X-1741171Y-2597911D01*
X-1847512Y-2341183D01*
X-2044003Y-2144692D01*
X-2300731Y-2038351D01*
X-2578611Y-2038351D01*
X-2835339Y-2144692D01*
X-3031830Y-2341183D01*
X-3138171Y-2597911D01*
X-11902440Y-2597911D01*
X-11902440Y-1876296D01*
X-7225295Y2800848D01*
X-7045388Y2620941D01*
X-6788660Y2514600D01*
X-6633718Y2514600D01*
X-1320800Y-2798319D01*
X-1320800Y-3753956D01*
X-1430780Y-3708400D01*
X-1708660Y-3708400D01*
X-1965388Y-3814741D01*
X-2161879Y-4011232D01*
X-2204720Y-4114659D01*
X-2247561Y-4011232D01*
X-2444052Y-3814741D01*
X-2700780Y-3708400D01*
X-2978660Y-3708400D01*
X-3235388Y-3814741D01*
X-3431879Y-4011232D01*
X-3538220Y-4267960D01*
X-3538220Y-4545840D01*
X-3431879Y-4802568D01*
X-3235388Y-4999059D01*
X-2978660Y-5105400D01*
X-2700780Y-5105400D01*
X-2444052Y-4999059D01*
X-2247561Y-4802568D01*
X-2204720Y-4699141D01*
X-2161879Y-4802568D01*
X-1965388Y-4999059D01*
X-1708660Y-5105400D01*
X-1430780Y-5105400D01*
X-1320800Y-5059844D01*
X-1320800Y-8356833D01*
X-1417892Y-8259741D01*
X-1674620Y-8153400D01*
X-1952500Y-8153400D01*
X-2209228Y-8259741D01*
X-2405719Y-8456232D01*
X-2512060Y-8712960D01*
X-2512060Y-8990840D01*
X-2405719Y-9247568D01*
X-2209228Y-9444059D01*
X-1952500Y-9550400D01*
X-1674620Y-9550400D01*
X-1417892Y-9444059D01*
X-1320799Y-9346966D01*
X-1320799Y-15240769D01*
X-1330388Y-15244741D01*
X-1526879Y-15441232D01*
X-1633220Y-15697960D01*
X-1633220Y-15975840D01*
X-1526879Y-16232568D01*
X-1330388Y-16429059D01*
X-1073660Y-16535400D01*
X-795780Y-16535400D01*
X-539052Y-16429059D01*
X-342561Y-16232568D01*
X-236220Y-15975840D01*
X-236220Y-15697960D01*
X-342561Y-15441232D01*
X-355600Y-15428193D01*
X-355600Y-2645947D01*
X-346146Y-2598419D01*
X-369126Y-2482893D01*
X-383601Y-2410119D01*
X-490265Y-2250485D01*
X-530560Y-2223561D01*
X-1896161Y-857960D01*
X350520Y-857960D01*
X350520Y-1135840D01*
X456861Y-1392568D01*
X653352Y-1589059D01*
X910080Y-1695400D01*
X1137921Y-1695400D01*
X1137922Y-16574259D01*
X1113281Y-16598900D01*
X958340Y-16598900D01*
X701612Y-16705241D01*
X505121Y-16901732D01*
X398780Y-17158460D01*
X398780Y-17436340D01*
X505121Y-17693068D01*
X701612Y-17889559D01*
X958340Y-17995900D01*
X1236220Y-17995900D01*
X1492948Y-17889559D01*
X1689439Y-17693068D01*
X1795780Y-17436340D01*
X1795780Y-17281399D01*
X1928163Y-17149017D01*
X1968456Y-17122094D01*
X2075120Y-16962460D01*
X2103121Y-16821688D01*
X2112575Y-16774159D01*
X2103121Y-16726630D01*
X2103121Y-11331700D01*
X2369820Y-11331700D01*
X2369820Y-11609580D01*
X2476161Y-11866308D01*
X2672652Y-12062799D01*
X2929380Y-12169140D01*
X3207260Y-12169140D01*
X3463988Y-12062799D01*
X3586970Y-11939817D01*
X3575206Y-11998960D01*
X3575206Y-12999720D01*
X3604776Y-13148379D01*
X3688984Y-13274406D01*
X3815011Y-13358614D01*
X3963670Y-13388184D01*
X5363210Y-13388184D01*
X5511869Y-13358614D01*
X5637896Y-13274406D01*
X5659811Y-13241608D01*
X5791473Y-13329582D01*
X6048562Y-13380720D01*
X6620958Y-13380720D01*
X6878047Y-13329582D01*
X7169589Y-13134779D01*
X7364392Y-12843237D01*
X7432797Y-12499340D01*
X7364392Y-12155443D01*
X7214517Y-11931140D01*
X7462520Y-11931140D01*
X7462520Y-12209020D01*
X7568861Y-12465748D01*
X7765352Y-12662239D01*
X8022080Y-12768580D01*
X8299960Y-12768580D01*
X8556688Y-12662239D01*
X8753179Y-12465748D01*
X8859520Y-12209020D01*
X8859520Y-11931140D01*
X8753179Y-11674412D01*
X8556688Y-11477921D01*
X8299960Y-11371580D01*
X8022080Y-11371580D01*
X7765352Y-11477921D01*
X7568861Y-11674412D01*
X7462520Y-11931140D01*
X7214517Y-11931140D01*
X7169589Y-11863901D01*
X6878047Y-11669098D01*
X6620958Y-11617960D01*
X6048562Y-11617960D01*
X5791473Y-11669098D01*
X5659811Y-11757072D01*
X5637896Y-11724274D01*
X5511869Y-11640066D01*
X5363210Y-11610496D01*
X3963670Y-11610496D01*
X3815011Y-11640066D01*
X3730918Y-11696255D01*
X3766820Y-11609580D01*
X3766820Y-11331700D01*
X3660479Y-11074972D01*
X3463988Y-10878481D01*
X3207260Y-10772140D01*
X2929380Y-10772140D01*
X2672652Y-10878481D01*
X2476161Y-11074972D01*
X2369820Y-11331700D01*
X2103121Y-11331700D01*
X2103121Y-8999220D01*
X3575206Y-8999220D01*
X3575206Y-9999980D01*
X3604776Y-10148639D01*
X3688984Y-10274666D01*
X3815011Y-10358874D01*
X3963670Y-10388444D01*
X5363210Y-10388444D01*
X5511869Y-10358874D01*
X5637896Y-10274666D01*
X5659811Y-10241868D01*
X5791473Y-10329842D01*
X6048562Y-10380980D01*
X6620958Y-10380980D01*
X6878047Y-10329842D01*
X7169589Y-10135039D01*
X7364392Y-9843497D01*
X7432797Y-9499600D01*
X7364392Y-9155703D01*
X7169589Y-8864161D01*
X6878047Y-8669358D01*
X6620958Y-8618220D01*
X6048562Y-8618220D01*
X5791473Y-8669358D01*
X5659811Y-8757332D01*
X5637896Y-8724534D01*
X5511869Y-8640326D01*
X5363210Y-8610756D01*
X3963670Y-8610756D01*
X3815011Y-8640326D01*
X3688984Y-8724534D01*
X3604776Y-8850561D01*
X3575206Y-8999220D01*
X2103121Y-8999220D01*
X2103121Y-8384642D01*
X2172281Y-8551608D01*
X2368772Y-8748099D01*
X2625500Y-8854440D01*
X2903380Y-8854440D01*
X3160108Y-8748099D01*
X3356599Y-8551608D01*
X3462940Y-8294880D01*
X3462940Y-8139938D01*
X3937300Y-7665579D01*
X3977595Y-7638655D01*
X4050596Y-7529401D01*
X4084259Y-7479022D01*
X4102224Y-7388704D01*
X5363210Y-7388704D01*
X5511869Y-7359134D01*
X5637896Y-7274926D01*
X5659811Y-7242128D01*
X5791473Y-7330102D01*
X6048562Y-7381240D01*
X6620958Y-7381240D01*
X6878047Y-7330102D01*
X7169589Y-7135299D01*
X7364392Y-6843757D01*
X7432797Y-6499860D01*
X7364392Y-6155963D01*
X7169589Y-5864421D01*
X6878047Y-5669618D01*
X6620958Y-5618480D01*
X6048562Y-5618480D01*
X5791473Y-5669618D01*
X5659811Y-5757592D01*
X5637896Y-5724794D01*
X5511869Y-5640586D01*
X5363210Y-5611016D01*
X4112260Y-5611016D01*
X4112260Y-4388964D01*
X5363210Y-4388964D01*
X5511869Y-4359394D01*
X5637896Y-4275186D01*
X5659811Y-4242388D01*
X5791473Y-4330362D01*
X6048562Y-4381500D01*
X6620958Y-4381500D01*
X6878047Y-4330362D01*
X7169589Y-4135559D01*
X7364392Y-3844017D01*
X7432797Y-3500120D01*
X7364392Y-3156223D01*
X7169589Y-2864681D01*
X6878047Y-2669878D01*
X6620958Y-2618740D01*
X6048562Y-2618740D01*
X5791473Y-2669878D01*
X5659811Y-2757852D01*
X5637896Y-2725054D01*
X5511869Y-2640846D01*
X5363210Y-2611276D01*
X4503483Y-2611276D01*
X4526380Y-2577008D01*
X4554381Y-2436236D01*
X4554381Y-2436235D01*
X4563835Y-2388707D01*
X4554381Y-2341178D01*
X4554381Y229892D01*
X4563835Y277421D01*
X4526380Y465723D01*
X4492717Y516102D01*
X4419716Y625356D01*
X4379420Y652281D01*
X3732880Y1298820D01*
X3732880Y3997873D01*
X3842439Y4107432D01*
X3948780Y4364160D01*
X3948780Y4642040D01*
X3842439Y4898768D01*
X3645948Y5095259D01*
X3389220Y5201600D01*
X3111340Y5201600D01*
X2854612Y5095259D01*
X2658121Y4898768D01*
X2551780Y4642040D01*
X2551780Y4364160D01*
X2658121Y4107432D01*
X2767681Y3997872D01*
X2767680Y1146450D01*
X2758226Y1098922D01*
X2767680Y1051394D01*
X2795681Y910622D01*
X2902345Y750987D01*
X2942644Y724060D01*
X3465103Y201600D01*
X3361340Y201600D01*
X3104612Y95259D01*
X2908121Y-101232D01*
X2801780Y-357960D01*
X2801780Y-635840D01*
X2908121Y-892568D01*
X3104612Y-1089059D01*
X3361340Y-1195400D01*
X3589181Y-1195400D01*
X3589181Y-2188808D01*
X3322021Y-2455969D01*
X3281726Y-2482893D01*
X3204534Y-2598419D01*
X3175062Y-2642527D01*
X3137606Y-2830828D01*
X3147061Y-2878361D01*
X3147060Y-7090821D01*
X2780442Y-7457440D01*
X2625500Y-7457440D01*
X2368772Y-7563781D01*
X2172281Y-7760272D01*
X2103121Y-7927238D01*
X2103121Y-336956D01*
X2111340Y-340360D01*
X2389220Y-340360D01*
X2645948Y-234019D01*
X2842439Y-37528D01*
X2948780Y219200D01*
X2948780Y497080D01*
X2842439Y753808D01*
X2645948Y950299D01*
X2389220Y1056640D01*
X2276123Y1056640D01*
X2377440Y1301240D01*
X2377440Y1579120D01*
X2271099Y1835848D01*
X2074608Y2032339D01*
X1817880Y2138680D01*
X1540000Y2138680D01*
X1283272Y2032339D01*
X1086781Y1835848D01*
X980440Y1579120D01*
X980440Y1301240D01*
X1086781Y1044512D01*
X1137921Y993372D01*
X1137921Y-298400D01*
X910080Y-298400D01*
X653352Y-404741D01*
X456861Y-601232D01*
X350520Y-857960D01*
X-1896161Y-857960D01*
X-5892801Y3138680D01*
X-4432300Y3138680D01*
X-4432300Y2860800D01*
X-4325959Y2604072D01*
X-4129468Y2407581D01*
X-3872740Y2301240D01*
X-3594860Y2301240D01*
X-3338132Y2407581D01*
X-3141641Y2604072D01*
X-3035300Y2860800D01*
X-3035300Y3138680D01*
X-3141641Y3395408D01*
X-3337033Y3590800D01*
X-1541780Y3590800D01*
X-1541780Y3312920D01*
X-1435439Y3056192D01*
X-1238948Y2859701D01*
X-982220Y2753360D01*
X-704340Y2753360D01*
X-447612Y2859701D01*
X-251121Y3056192D01*
X-144780Y3312920D01*
X-144780Y3590800D01*
X-166004Y3642040D01*
X301780Y3642040D01*
X301780Y3364160D01*
X408121Y3107432D01*
X604612Y2910941D01*
X861340Y2804600D01*
X1139220Y2804600D01*
X1395948Y2910941D01*
X1592439Y3107432D01*
X1698780Y3364160D01*
X1698780Y3642040D01*
X1592439Y3898768D01*
X1395948Y4095259D01*
X1139220Y4201600D01*
X861340Y4201600D01*
X604612Y4095259D01*
X408121Y3898768D01*
X301780Y3642040D01*
X-166004Y3642040D01*
X-251121Y3847528D01*
X-447612Y4044019D01*
X-704340Y4150360D01*
X-982220Y4150360D01*
X-1238948Y4044019D01*
X-1435439Y3847528D01*
X-1541780Y3590800D01*
X-3337033Y3590800D01*
X-3338132Y3591899D01*
X-3594860Y3698240D01*
X-3872740Y3698240D01*
X-4129468Y3591899D01*
X-4325959Y3395408D01*
X-4432300Y3138680D01*
X-5892801Y3138680D01*
X-5951220Y3197098D01*
X-5951220Y3352040D01*
X-6057561Y3608768D01*
X-6237468Y3788675D01*
X-4650043Y5376100D01*
X3710244Y5376100D01*
X4590834Y4495509D01*
X4590834Y4495509D01*
G37*
X4590834Y4495509D02*
X4617759Y4455213D01*
X4702235Y4398768D01*
X4777392Y4348549D01*
X4965694Y4311094D01*
X5013223Y4320548D01*
X6528540Y4320548D01*
X6576068Y4311094D01*
X6623596Y4320548D01*
X6623597Y4320548D01*
X6764369Y4348549D01*
X6924003Y4455213D01*
X6950930Y4495511D01*
X7169658Y4714240D01*
X7258421Y4714240D01*
X7160260Y4477260D01*
X7160260Y4199380D01*
X7266601Y3942652D01*
X7373280Y3835973D01*
X7373280Y3646076D01*
X6917443Y3190239D01*
X6863479Y3190239D01*
X6807198Y3201434D01*
X6750917Y3190239D01*
X6750913Y3190239D01*
X6584211Y3157080D01*
X6395171Y3030767D01*
X6374439Y2999740D01*
X6350760Y2999740D01*
X6094032Y2893399D01*
X5897541Y2696908D01*
X5791200Y2440180D01*
X5791200Y2162300D01*
X5897541Y1905572D01*
X6094032Y1709081D01*
X6350760Y1602740D01*
X6628640Y1602740D01*
X6885368Y1709081D01*
X7081859Y1905572D01*
X7137293Y2039400D01*
X7154165Y2036044D01*
X7210446Y2047239D01*
X7210451Y2047239D01*
X7373280Y2079628D01*
X7373280Y1235908D01*
X7125272Y1133179D01*
X6928781Y936688D01*
X6822440Y679960D01*
X6822440Y402080D01*
X6928781Y145352D01*
X7125272Y-51139D01*
X7373280Y-153868D01*
X7373280Y-496900D01*
X7382947Y-545501D01*
X7410477Y-586703D01*
X7451679Y-614233D01*
X7500280Y-623900D01*
X8201660Y-623900D01*
X8201660Y-738380D01*
X8308001Y-995108D01*
X8504492Y-1191599D01*
X8761220Y-1297940D01*
X9039100Y-1297940D01*
X9295828Y-1191599D01*
X9492319Y-995108D01*
X9598660Y-738380D01*
X9598660Y-623900D01*
X9873280Y-623900D01*
X9873280Y-19419570D01*
X-19630390Y-19419570D01*
X-19630390Y-17125440D01*
X-15892780Y-17125440D01*
X-15892780Y-17403320D01*
X-15786439Y-17660048D01*
X-15589948Y-17856539D01*
X-15333220Y-17962880D01*
X-15055340Y-17962880D01*
X-14798612Y-17856539D01*
X-14602121Y-17660048D01*
X-14495780Y-17403320D01*
X-14495780Y-17125440D01*
X-14602121Y-16868712D01*
X-14798612Y-16672221D01*
X-15055340Y-16565880D01*
X-15333220Y-16565880D01*
X-15589948Y-16672221D01*
X-15786439Y-16868712D01*
X-15892780Y-17125440D01*
X-19630390Y-17125440D01*
X-19630390Y-15281400D01*
X-14775180Y-15281400D01*
X-14775180Y-15559280D01*
X-14668839Y-15816008D01*
X-14472348Y-16012499D01*
X-14215620Y-16118840D01*
X-13937740Y-16118840D01*
X-13681012Y-16012499D01*
X-13484521Y-15816008D01*
X-13378180Y-15559280D01*
X-13378180Y-15281400D01*
X-13484521Y-15024672D01*
X-13681012Y-14828181D01*
X-13937740Y-14721840D01*
X-14215620Y-14721840D01*
X-14472348Y-14828181D01*
X-14668839Y-15024672D01*
X-14775180Y-15281400D01*
X-19630390Y-15281400D01*
X-19630390Y-14190622D01*
X-11397645Y-14190622D01*
X-11391860Y-14380362D01*
X-11054790Y-14482048D01*
X-10704463Y-14447003D01*
X-10543580Y-14380362D01*
X-10538183Y-14203322D01*
X-10051445Y-14203322D01*
X-10045660Y-14393062D01*
X-9708590Y-14494748D01*
X-9358263Y-14459703D01*
X-9197380Y-14393062D01*
X-9191905Y-14213482D01*
X-8712865Y-14213482D01*
X-8707080Y-14403222D01*
X-8370010Y-14504908D01*
X-8019683Y-14469863D01*
X-7858800Y-14403222D01*
X-7853015Y-14213482D01*
X-7863175Y-14203322D01*
X-7298085Y-14203322D01*
X-7292300Y-14393062D01*
X-6955230Y-14494748D01*
X-6604903Y-14459703D01*
X-6444020Y-14393062D01*
X-6438235Y-14203322D01*
X-6445855Y-14195702D01*
X-5890925Y-14195702D01*
X-5885140Y-14385442D01*
X-5548070Y-14487128D01*
X-5197743Y-14452083D01*
X-5036860Y-14385442D01*
X-5031075Y-14195702D01*
X-5461000Y-13765777D01*
X-5890925Y-14195702D01*
X-6445855Y-14195702D01*
X-6868160Y-13773397D01*
X-7298085Y-14203322D01*
X-7863175Y-14203322D01*
X-8282940Y-13783557D01*
X-8712865Y-14213482D01*
X-9191905Y-14213482D01*
X-9191595Y-14203322D01*
X-9621520Y-13773397D01*
X-10051445Y-14203322D01*
X-10538183Y-14203322D01*
X-10537795Y-14190622D01*
X-10967720Y-13760697D01*
X-11397645Y-14190622D01*
X-19630390Y-14190622D01*
X-19630390Y-6376160D01*
X-19562439Y-6376160D01*
X-19562439Y-6654040D01*
X-19456098Y-6910768D01*
X-19259607Y-7107259D01*
X-19002879Y-7213600D01*
X-18724999Y-7213600D01*
X-18468271Y-7107259D01*
X-18271780Y-6910768D01*
X-18165439Y-6654040D01*
X-18165439Y-6376160D01*
X-18249607Y-6172960D01*
X-15158720Y-6172960D01*
X-15158720Y-6450840D01*
X-15052379Y-6707568D01*
X-14855888Y-6904059D01*
X-14599160Y-7010400D01*
X-14321280Y-7010400D01*
X-14064552Y-6904059D01*
X-13868061Y-6707568D01*
X-13761720Y-6450840D01*
X-13761720Y-6172960D01*
X-13868061Y-5916232D01*
X-14064552Y-5719741D01*
X-14321280Y-5613400D01*
X-14599160Y-5613400D01*
X-14855888Y-5719741D01*
X-15052379Y-5916232D01*
X-15158720Y-6172960D01*
X-18249607Y-6172960D01*
X-18271780Y-6119432D01*
X-18468271Y-5922941D01*
X-18724999Y-5816600D01*
X-19002879Y-5816600D01*
X-19259607Y-5922941D01*
X-19456098Y-6119432D01*
X-19562439Y-6376160D01*
X-19630390Y-6376160D01*
X-19630390Y-4458460D01*
X-17451898Y-4458460D01*
X-17451898Y-4736340D01*
X-17345557Y-4993068D01*
X-17149066Y-5189559D01*
X-16892338Y-5295900D01*
X-16614458Y-5295900D01*
X-16357730Y-5189559D01*
X-16161239Y-4993068D01*
X-16054898Y-4736340D01*
X-16054898Y-4458460D01*
X-16161239Y-4201732D01*
X-16357730Y-4005241D01*
X-16614458Y-3898900D01*
X-16892338Y-3898900D01*
X-17149066Y-4005241D01*
X-17345557Y-4201732D01*
X-17451898Y-4458460D01*
X-19630390Y-4458460D01*
X-19630390Y3700405D01*
X-19591879Y3607432D01*
X-19395388Y3410941D01*
X-19138660Y3304600D01*
X-18860780Y3304600D01*
X-18855520Y3306779D01*
X-18855520Y-832412D01*
X-18864974Y-879940D01*
X-18855520Y-927468D01*
X-18827519Y-1068240D01*
X-18720855Y-1227875D01*
X-18680557Y-1254801D01*
X-18332317Y-1603042D01*
X-18305394Y-1643336D01*
X-18265101Y-1670259D01*
X-18145760Y-1750000D01*
X-17957459Y-1787455D01*
X-17909930Y-1778001D01*
X-17624295Y-1778001D01*
X-15489692Y-3912605D01*
X-15669599Y-4092512D01*
X-15775940Y-4349240D01*
X-15775940Y-4627120D01*
X-15669599Y-4883848D01*
X-15473108Y-5080339D01*
X-15216380Y-5186680D01*
X-14938500Y-5186680D01*
X-14681772Y-5080339D01*
X-14501865Y-4900432D01*
X-13439141Y-5963157D01*
X-13439140Y-12293488D01*
X-13448595Y-12341021D01*
X-13421348Y-12477997D01*
X-13411139Y-12529322D01*
X-13304475Y-12688956D01*
X-13264180Y-12715880D01*
X-12851959Y-13128103D01*
X-12825036Y-13168396D01*
X-12784743Y-13195319D01*
X-12665402Y-13275060D01*
X-12477101Y-13312515D01*
X-12429572Y-13303061D01*
X-11807386Y-13303061D01*
X-11865848Y-13496850D01*
X-11830803Y-13847177D01*
X-11764162Y-14008060D01*
X-11574422Y-14013845D01*
X-11144497Y-13583920D01*
X-11160053Y-13568364D01*
X-10983276Y-13391587D01*
X-10967720Y-13407143D01*
X-10952163Y-13391587D01*
X-10775386Y-13568364D01*
X-10790943Y-13583920D01*
X-10463118Y-13911745D01*
X-10417962Y-14020760D01*
X-10228222Y-14026545D01*
X-10210946Y-14009269D01*
X-10171278Y-14008060D01*
X-10154664Y-13952987D01*
X-9798297Y-13596620D01*
X-9813853Y-13581064D01*
X-9637076Y-13404287D01*
X-9621520Y-13419843D01*
X-9605963Y-13404287D01*
X-9429186Y-13581064D01*
X-9444743Y-13596620D01*
X-9128131Y-13913232D01*
X-9079382Y-14030920D01*
X-8889642Y-14036705D01*
X-8875226Y-14022289D01*
X-8825078Y-14020760D01*
X-8804075Y-13951138D01*
X-8459717Y-13606780D01*
X-8475273Y-13591224D01*
X-8298496Y-13414447D01*
X-8282940Y-13430003D01*
X-8267383Y-13414447D01*
X-8090606Y-13591224D01*
X-8106163Y-13606780D01*
X-7676238Y-14036705D01*
X-7486498Y-14030920D01*
X-7485084Y-14026233D01*
X-7474862Y-14026545D01*
X-7044937Y-13596620D01*
X-7060493Y-13581064D01*
X-6883716Y-13404287D01*
X-6868160Y-13419843D01*
X-6852603Y-13404287D01*
X-6675826Y-13581064D01*
X-6691383Y-13596620D01*
X-6261458Y-14026545D01*
X-6071718Y-14020760D01*
X-6071133Y-14018820D01*
X-6067702Y-14018925D01*
X-5637777Y-13589000D01*
X-5653333Y-13573444D01*
X-5476556Y-13396667D01*
X-5461000Y-13412223D01*
X-5445443Y-13396667D01*
X-5268666Y-13573444D01*
X-5284223Y-13589000D01*
X-4854298Y-14018925D01*
X-4664558Y-14013140D01*
X-4562872Y-13676070D01*
X-4597917Y-13325743D01*
X-4607312Y-13303061D01*
X-2678008Y-13303061D01*
X-2568449Y-13412620D01*
X-2311721Y-13518961D01*
X-2033841Y-13518961D01*
X-1777113Y-13412620D01*
X-1580622Y-13216129D01*
X-1474281Y-12959401D01*
X-1474281Y-12681521D01*
X-1580622Y-12424793D01*
X-1777113Y-12228302D01*
X-2033841Y-12121961D01*
X-2311721Y-12121961D01*
X-2568449Y-12228302D01*
X-2678008Y-12337861D01*
X-4581377Y-12337861D01*
X-4615697Y-11994783D01*
X-4682338Y-11833900D01*
X-4872078Y-11828115D01*
X-5302003Y-12258040D01*
X-5286446Y-12273597D01*
X-5350711Y-12337861D01*
X-5606849Y-12337861D01*
X-5671113Y-12273597D01*
X-5655557Y-12258040D01*
X-6085482Y-11828115D01*
X-6275222Y-11833900D01*
X-6303906Y-11928983D01*
X-6691383Y-12316460D01*
X-6675826Y-12332017D01*
X-6681671Y-12337861D01*
X-7054649Y-12337861D01*
X-7060493Y-12332017D01*
X-7044937Y-12316460D01*
X-7449015Y-11912382D01*
X-7463638Y-11877080D01*
X-7653378Y-11871295D01*
X-8083303Y-12301220D01*
X-8067746Y-12316777D01*
X-8088831Y-12337861D01*
X-8431329Y-12337861D01*
X-8452413Y-12316777D01*
X-8436857Y-12301220D01*
X-8848864Y-11889213D01*
X-8858098Y-11866920D01*
X-9047838Y-11861135D01*
X-9477763Y-12291060D01*
X-9462206Y-12306617D01*
X-9493451Y-12337861D01*
X-9815629Y-12337861D01*
X-9846873Y-12306617D01*
X-9831317Y-12291060D01*
X-10139257Y-11983120D01*
X-10191598Y-11856760D01*
X-10381338Y-11850975D01*
X-10395594Y-11865231D01*
X-10450982Y-11866920D01*
X-10474180Y-11943817D01*
X-10811263Y-12280900D01*
X-10795706Y-12296457D01*
X-10837111Y-12337861D01*
X-11138969Y-12337861D01*
X-11180373Y-12296457D01*
X-11164817Y-12280900D01*
X-11594742Y-11850975D01*
X-11784482Y-11856760D01*
X-11886168Y-12193830D01*
X-11871760Y-12337861D01*
X-12277202Y-12337861D01*
X-12473941Y-12141122D01*
X-12473941Y-11674198D01*
X-11417965Y-11674198D01*
X-10988040Y-12104123D01*
X-10587427Y-11703510D01*
X-10513100Y-11672722D01*
X-10508322Y-11516002D01*
X-10084465Y-11516002D01*
X-10081898Y-11600180D01*
X-10084465Y-11684358D01*
X-10079171Y-11689652D01*
X-10078680Y-11705742D01*
X-10056342Y-11712481D01*
X-9654540Y-12114283D01*
X-9257029Y-11716772D01*
X-9230400Y-11705742D01*
X-9230058Y-11694518D01*
X-8690005Y-11694518D01*
X-8674630Y-11709893D01*
X-8674060Y-11728602D01*
X-8648085Y-11736438D01*
X-8260080Y-12124443D01*
X-7891434Y-11755797D01*
X-7825780Y-11728602D01*
X-7819995Y-11538862D01*
X-7827615Y-11531242D01*
X-7308245Y-11531242D01*
X-7302460Y-11720982D01*
X-7280122Y-11727721D01*
X-6868160Y-12139683D01*
X-6438235Y-11709758D01*
X-6443600Y-11533782D01*
X-5908705Y-11533782D01*
X-5906913Y-11592560D01*
X-5908705Y-11651338D01*
X-5905008Y-11655035D01*
X-5902920Y-11723522D01*
X-5807837Y-11752206D01*
X-5478780Y-12081263D01*
X-5167991Y-11770474D01*
X-5054640Y-11723522D01*
X-5052552Y-11655035D01*
X-5048855Y-11651338D01*
X-5050647Y-11592560D01*
X-5048855Y-11533782D01*
X-5052552Y-11530085D01*
X-5054640Y-11461598D01*
X-5149723Y-11432914D01*
X-5478780Y-11103857D01*
X-5789569Y-11414646D01*
X-5902920Y-11461598D01*
X-5905008Y-11530085D01*
X-5908705Y-11533782D01*
X-6443600Y-11533782D01*
X-6444020Y-11520018D01*
X-6466358Y-11513279D01*
X-6878320Y-11101317D01*
X-7308245Y-11531242D01*
X-7827615Y-11531242D01*
X-7835370Y-11523487D01*
X-7835940Y-11504778D01*
X-7861915Y-11496942D01*
X-8249920Y-11108937D01*
X-8618566Y-11477583D01*
X-8684220Y-11504778D01*
X-8690005Y-11694518D01*
X-9230058Y-11694518D01*
X-9229909Y-11689652D01*
X-9224615Y-11684358D01*
X-9227182Y-11600180D01*
X-9224615Y-11516002D01*
X-9229909Y-11510708D01*
X-9230400Y-11494618D01*
X-9252738Y-11487879D01*
X-9654540Y-11086077D01*
X-10052051Y-11483588D01*
X-10078680Y-11494618D01*
X-10079171Y-11510708D01*
X-10084465Y-11516002D01*
X-10508322Y-11516002D01*
X-10507315Y-11482982D01*
X-10937240Y-11053057D01*
X-11337853Y-11453670D01*
X-11412180Y-11484458D01*
X-11417965Y-11674198D01*
X-12473941Y-11674198D01*
X-12473941Y-10789210D01*
X-11835368Y-10789210D01*
X-11800323Y-11139537D01*
X-11733682Y-11300420D01*
X-11543942Y-11306205D01*
X-11114017Y-10876280D01*
X-10760463Y-10876280D01*
X-10523563Y-11113180D01*
X-10517623Y-11172557D01*
X-10450982Y-11333440D01*
X-10261242Y-11339225D01*
X-10225004Y-11302987D01*
X-10140798Y-11300420D01*
X-10105530Y-11183513D01*
X-9831317Y-10909300D01*
X-9477763Y-10909300D01*
X-9057392Y-11329671D01*
X-9046362Y-11356300D01*
X-8856622Y-11362085D01*
X-8426697Y-10932160D01*
X-8073143Y-10932160D01*
X-7687589Y-11317714D01*
X-7674762Y-11348680D01*
X-7656053Y-11349250D01*
X-7643218Y-11362085D01*
X-7453478Y-11356300D01*
X-7439058Y-11308501D01*
X-7055097Y-10924540D01*
X-6701543Y-10924540D01*
X-6275476Y-11350607D01*
X-6275222Y-11351220D01*
X-6274852Y-11351231D01*
X-6271618Y-11354465D01*
X-6220204Y-11352897D01*
X-6085482Y-11357005D01*
X-5655557Y-10927080D01*
X-5302003Y-10927080D01*
X-4872078Y-11357005D01*
X-4682338Y-11351220D01*
X-4580652Y-11014150D01*
X-4615697Y-10663823D01*
X-4682338Y-10502940D01*
X-4872078Y-10497155D01*
X-5302003Y-10927080D01*
X-5655557Y-10927080D01*
X-6081624Y-10501013D01*
X-6081878Y-10500400D01*
X-6082248Y-10500389D01*
X-6085482Y-10497155D01*
X-6136896Y-10498723D01*
X-6271618Y-10494615D01*
X-6701543Y-10924540D01*
X-7055097Y-10924540D01*
X-7440651Y-10538986D01*
X-7453478Y-10508020D01*
X-7472187Y-10507450D01*
X-7485022Y-10494615D01*
X-7674762Y-10500400D01*
X-7689182Y-10548199D01*
X-8073143Y-10932160D01*
X-8426697Y-10932160D01*
X-8847068Y-10511789D01*
X-8858098Y-10485160D01*
X-9047838Y-10479375D01*
X-9477763Y-10909300D01*
X-9831317Y-10909300D01*
X-10068217Y-10672400D01*
X-10074157Y-10613023D01*
X-10140798Y-10452140D01*
X-10330538Y-10446355D01*
X-10366776Y-10482593D01*
X-10450982Y-10485160D01*
X-10486250Y-10602067D01*
X-10760463Y-10876280D01*
X-11114017Y-10876280D01*
X-11543942Y-10446355D01*
X-11733682Y-10452140D01*
X-11835368Y-10789210D01*
X-12473941Y-10789210D01*
X-12473941Y-10126622D01*
X-11384945Y-10126622D01*
X-11379160Y-10316362D01*
X-11294988Y-10341755D01*
X-10937240Y-10699503D01*
X-10570518Y-10332781D01*
X-10530880Y-10316362D01*
X-10530150Y-10292413D01*
X-10507315Y-10269578D01*
X-10512680Y-10093602D01*
X-10104785Y-10093602D01*
X-10099000Y-10283342D01*
X-10084016Y-10287862D01*
X-10084465Y-10302598D01*
X-9654540Y-10732523D01*
X-9224615Y-10302598D01*
X-9228276Y-10182502D01*
X-8712865Y-10182502D01*
X-8707080Y-10372242D01*
X-8601085Y-10404218D01*
X-8249920Y-10755383D01*
X-7872421Y-10377884D01*
X-7858800Y-10372242D01*
X-7858549Y-10364012D01*
X-7819995Y-10325458D01*
X-7820227Y-10317838D01*
X-7308245Y-10317838D01*
X-7293829Y-10332254D01*
X-7292300Y-10382402D01*
X-7222678Y-10403405D01*
X-6878320Y-10747763D01*
X-6561708Y-10431151D01*
X-6444020Y-10382402D01*
X-6438313Y-10195202D01*
X-5908705Y-10195202D01*
X-5906797Y-10257790D01*
X-5908705Y-10320378D01*
X-5904768Y-10324315D01*
X-5902920Y-10384942D01*
X-5818748Y-10410335D01*
X-5478780Y-10750303D01*
X-5154983Y-10426506D01*
X-5054640Y-10384942D01*
X-5052792Y-10324315D01*
X-5048855Y-10320378D01*
X-5050763Y-10257790D01*
X-5048855Y-10195202D01*
X-5052792Y-10191265D01*
X-5054640Y-10130638D01*
X-5138812Y-10105245D01*
X-5478780Y-9765277D01*
X-5802577Y-10089074D01*
X-5902920Y-10130638D01*
X-5904768Y-10191265D01*
X-5908705Y-10195202D01*
X-6438313Y-10195202D01*
X-6438235Y-10192662D01*
X-6452651Y-10178246D01*
X-6454180Y-10128098D01*
X-6523802Y-10107095D01*
X-6868160Y-9762737D01*
X-7184772Y-10079349D01*
X-7302460Y-10128098D01*
X-7308245Y-10317838D01*
X-7820227Y-10317838D01*
X-7825780Y-10135718D01*
X-7931775Y-10103742D01*
X-8282940Y-9752577D01*
X-8660439Y-10130076D01*
X-8674060Y-10135718D01*
X-8674311Y-10143948D01*
X-8712865Y-10182502D01*
X-9228276Y-10182502D01*
X-9230400Y-10112858D01*
X-9245384Y-10108338D01*
X-9244935Y-10093602D01*
X-9674860Y-9663677D01*
X-10104785Y-10093602D01*
X-10512680Y-10093602D01*
X-10513100Y-10079838D01*
X-10597272Y-10054445D01*
X-10955020Y-9696697D01*
X-11321742Y-10063419D01*
X-11361380Y-10079838D01*
X-11362110Y-10103787D01*
X-11384945Y-10126622D01*
X-12473941Y-10126622D01*
X-12473941Y-9432850D01*
X-11853148Y-9432850D01*
X-11818103Y-9783177D01*
X-11751462Y-9944060D01*
X-11561722Y-9949845D01*
X-11131797Y-9519920D01*
X-10778243Y-9519920D01*
X-10530827Y-9767336D01*
X-10471302Y-9911040D01*
X-10384476Y-9913687D01*
X-10348318Y-9949845D01*
X-10158578Y-9944060D01*
X-10093683Y-9728946D01*
X-9851637Y-9486900D01*
X-9498083Y-9486900D01*
X-9146034Y-9838949D01*
X-9146023Y-9839057D01*
X-9079382Y-9999940D01*
X-8889642Y-10005725D01*
X-8459717Y-9575800D01*
X-8106163Y-9575800D01*
X-7676238Y-10005725D01*
X-7666537Y-10005429D01*
X-7664602Y-10010100D01*
X-7474862Y-10015885D01*
X-7044937Y-9585960D01*
X-6691383Y-9585960D01*
X-6282660Y-9994683D01*
X-6275222Y-10012640D01*
X-6264372Y-10012971D01*
X-6261458Y-10015885D01*
X-6215124Y-10014472D01*
X-6085482Y-10018425D01*
X-6077328Y-10010271D01*
X-6071718Y-10010100D01*
X-6069368Y-10002311D01*
X-5655557Y-9588500D01*
X-5302003Y-9588500D01*
X-4872078Y-10018425D01*
X-4682338Y-10012640D01*
X-4580652Y-9675570D01*
X-4615697Y-9325243D01*
X-4682338Y-9164360D01*
X-4872078Y-9158575D01*
X-5302003Y-9588500D01*
X-5655557Y-9588500D01*
X-6064280Y-9179777D01*
X-6071718Y-9161820D01*
X-6082568Y-9161489D01*
X-6085482Y-9158575D01*
X-6131816Y-9159988D01*
X-6261458Y-9156035D01*
X-6269612Y-9164189D01*
X-6275222Y-9164360D01*
X-6277572Y-9172149D01*
X-6691383Y-9585960D01*
X-7044937Y-9585960D01*
X-7474862Y-9156035D01*
X-7484563Y-9156331D01*
X-7486498Y-9151660D01*
X-7676238Y-9145875D01*
X-8106163Y-9575800D01*
X-8459717Y-9575800D01*
X-8811766Y-9223751D01*
X-8811777Y-9223643D01*
X-8878418Y-9062760D01*
X-9068158Y-9056975D01*
X-9498083Y-9486900D01*
X-9851637Y-9486900D01*
X-10099053Y-9239484D01*
X-10158578Y-9095780D01*
X-10245404Y-9093133D01*
X-10281562Y-9056975D01*
X-10471302Y-9062760D01*
X-10536197Y-9277874D01*
X-10778243Y-9519920D01*
X-11131797Y-9519920D01*
X-11561722Y-9089995D01*
X-11751462Y-9095780D01*
X-11853148Y-9432850D01*
X-12473941Y-9432850D01*
X-12473941Y-8709302D01*
X-11390025Y-8709302D01*
X-11384376Y-8894568D01*
X-11384945Y-8913218D01*
X-10955020Y-9343143D01*
X-10525095Y-8913218D01*
X-10526101Y-8880198D01*
X-10104785Y-8880198D01*
X-9674860Y-9310123D01*
X-9325228Y-8960491D01*
X-9207540Y-8911742D01*
X-9201755Y-8722002D01*
X-8756045Y-8722002D01*
X-8750260Y-8911742D01*
X-8711473Y-8923443D01*
X-8712865Y-8969098D01*
X-8282940Y-9399023D01*
X-7853015Y-8969098D01*
X-7858800Y-8779358D01*
X-7897587Y-8767657D01*
X-7896195Y-8722002D01*
X-7901275Y-8716922D01*
X-7318405Y-8716922D01*
X-7312620Y-8906662D01*
X-7296024Y-8911669D01*
X-7298085Y-8979258D01*
X-6868160Y-9409183D01*
X-6440775Y-8981798D01*
X-5908705Y-8981798D01*
X-5478780Y-9411723D01*
X-5048855Y-8981798D01*
X-5051279Y-8902294D01*
X-5049560Y-8901582D01*
X-5043775Y-8711842D01*
X-5473700Y-8281917D01*
X-5903625Y-8711842D01*
X-5901201Y-8791346D01*
X-5902920Y-8792058D01*
X-5908705Y-8981798D01*
X-6440775Y-8981798D01*
X-6438235Y-8979258D01*
X-6444020Y-8789518D01*
X-6460616Y-8784511D01*
X-6458555Y-8716922D01*
X-6888480Y-8286997D01*
X-7318405Y-8716922D01*
X-7901275Y-8716922D01*
X-8326120Y-8292077D01*
X-8756045Y-8722002D01*
X-9201755Y-8722002D01*
X-9631680Y-8292077D01*
X-9981312Y-8641709D01*
X-10099000Y-8690458D01*
X-10104785Y-8880198D01*
X-10526101Y-8880198D01*
X-10530744Y-8727952D01*
X-10530175Y-8709302D01*
X-10960100Y-8279377D01*
X-11390025Y-8709302D01*
X-12473941Y-8709302D01*
X-12473941Y-8015530D01*
X-11858228Y-8015530D01*
X-11823183Y-8365857D01*
X-11756542Y-8526740D01*
X-11566802Y-8532525D01*
X-11136877Y-8102600D01*
X-10783323Y-8102600D01*
X-10485851Y-8400072D01*
X-10428122Y-8539440D01*
X-10238382Y-8545225D01*
X-10221666Y-8528509D01*
X-10163658Y-8526740D01*
X-10139363Y-8446206D01*
X-9808457Y-8115300D01*
X-9454903Y-8115300D01*
X-9187475Y-8382728D01*
X-9122562Y-8539440D01*
X-9027876Y-8542327D01*
X-9024978Y-8545225D01*
X-8978900Y-8543820D01*
X-8932822Y-8545225D01*
X-8929924Y-8542327D01*
X-8835238Y-8539440D01*
X-8795581Y-8407984D01*
X-8502897Y-8115300D01*
X-8149343Y-8115300D01*
X-7719418Y-8545225D01*
X-7529678Y-8539440D01*
X-7529574Y-8539096D01*
X-7495182Y-8540145D01*
X-7065257Y-8110220D01*
X-6711703Y-8110220D01*
X-6281778Y-8540145D01*
X-6097782Y-8534535D01*
X-6080402Y-8535065D01*
X-5650477Y-8105140D01*
X-5296923Y-8105140D01*
X-4866998Y-8535065D01*
X-4677258Y-8529280D01*
X-4575572Y-8192210D01*
X-4610617Y-7841883D01*
X-4677258Y-7681000D01*
X-4866998Y-7675215D01*
X-5296923Y-8105140D01*
X-5650477Y-8105140D01*
X-6080402Y-7675215D01*
X-6264398Y-7680825D01*
X-6281778Y-7680295D01*
X-6711703Y-8110220D01*
X-7065257Y-8110220D01*
X-7495182Y-7680295D01*
X-7684922Y-7686080D01*
X-7685026Y-7686424D01*
X-7719418Y-7685375D01*
X-8149343Y-8115300D01*
X-8502897Y-8115300D01*
X-8770325Y-7847872D01*
X-8835238Y-7691160D01*
X-8929924Y-7688273D01*
X-8932822Y-7685375D01*
X-8978900Y-7686780D01*
X-9024978Y-7685375D01*
X-9027876Y-7688273D01*
X-9122562Y-7691160D01*
X-9162219Y-7822616D01*
X-9454903Y-8115300D01*
X-9808457Y-8115300D01*
X-10105929Y-7817828D01*
X-10163658Y-7678460D01*
X-10353398Y-7672675D01*
X-10370114Y-7689391D01*
X-10428122Y-7691160D01*
X-10452417Y-7771694D01*
X-10783323Y-8102600D01*
X-11136877Y-8102600D01*
X-11566802Y-7672675D01*
X-11756542Y-7678460D01*
X-11858228Y-8015530D01*
X-12473941Y-8015530D01*
X-12473941Y-7495898D01*
X-11390025Y-7495898D01*
X-10960100Y-7925823D01*
X-10542875Y-7508598D01*
X-10061605Y-7508598D01*
X-9631680Y-7938523D01*
X-9201755Y-7508598D01*
X-8756045Y-7508598D01*
X-8326120Y-7938523D01*
X-7896195Y-7508598D01*
X-7896349Y-7503518D01*
X-7318405Y-7503518D01*
X-6888480Y-7933443D01*
X-6458555Y-7503518D01*
X-6458709Y-7498438D01*
X-5903625Y-7498438D01*
X-5473700Y-7928363D01*
X-5043775Y-7498438D01*
X-5049560Y-7308698D01*
X-5386630Y-7207012D01*
X-5736957Y-7242057D01*
X-5897840Y-7308698D01*
X-5903625Y-7498438D01*
X-6458709Y-7498438D01*
X-6464340Y-7313778D01*
X-6801410Y-7212092D01*
X-7151737Y-7247137D01*
X-7312620Y-7313778D01*
X-7318405Y-7503518D01*
X-7896349Y-7503518D01*
X-7901980Y-7318858D01*
X-8239050Y-7217172D01*
X-8589377Y-7252217D01*
X-8750260Y-7318858D01*
X-8756045Y-7508598D01*
X-9201755Y-7508598D01*
X-9207540Y-7318858D01*
X-9544610Y-7217172D01*
X-9894937Y-7252217D01*
X-10055820Y-7318858D01*
X-10061605Y-7508598D01*
X-10542875Y-7508598D01*
X-10530175Y-7495898D01*
X-10535960Y-7306158D01*
X-10873030Y-7204472D01*
X-11223357Y-7239517D01*
X-11384240Y-7306158D01*
X-11390025Y-7495898D01*
X-12473941Y-7495898D01*
X-12473941Y-7305040D01*
X-12246100Y-7305040D01*
X-11989372Y-7198699D01*
X-11792881Y-7002208D01*
X-11686540Y-6745480D01*
X-11686540Y-6467600D01*
X-11792881Y-6210872D01*
X-11902440Y-6101313D01*
X-11902440Y-6055788D01*
X-11868660Y-6069780D01*
X-11590780Y-6069780D01*
X-11334052Y-5963439D01*
X-11137561Y-5766948D01*
X-11031220Y-5510220D01*
X-11031220Y-5232340D01*
X-6383840Y-5232340D01*
X-6383840Y-5510220D01*
X-6277499Y-5766948D01*
X-6081008Y-5963439D01*
X-5824280Y-6069780D01*
X-5546400Y-6069780D01*
X-5289672Y-5963439D01*
X-5093181Y-5766948D01*
X-4986840Y-5510220D01*
X-4986840Y-5232340D01*
X-5093181Y-4975612D01*
X-5289672Y-4779121D01*
X-5546400Y-4672780D01*
X-5824280Y-4672780D01*
X-6081008Y-4779121D01*
X-6277499Y-4975612D01*
X-6383840Y-5232340D01*
X-11031220Y-5232340D01*
X-11137561Y-4975612D01*
X-11334052Y-4779121D01*
X-11590780Y-4672780D01*
X-11868660Y-4672780D01*
X-11902440Y-4686772D01*
X-11902440Y-2597911D01*
X-3138171Y-2597911D01*
X-3138171Y-2875791D01*
X-3031830Y-3132519D01*
X-2835339Y-3329010D01*
X-2578611Y-3435351D01*
X-2300731Y-3435351D01*
X-2044003Y-3329010D01*
X-1847512Y-3132519D01*
X-1741171Y-2875791D01*
X-1741171Y-2597911D01*
X-1847512Y-2341183D01*
X-2044003Y-2144692D01*
X-2300731Y-2038351D01*
X-2578611Y-2038351D01*
X-2835339Y-2144692D01*
X-3031830Y-2341183D01*
X-3138171Y-2597911D01*
X-11902440Y-2597911D01*
X-11902440Y-1876296D01*
X-7225295Y2800848D01*
X-7045388Y2620941D01*
X-6788660Y2514600D01*
X-6633718Y2514600D01*
X-1320800Y-2798319D01*
X-1320800Y-3753956D01*
X-1430780Y-3708400D01*
X-1708660Y-3708400D01*
X-1965388Y-3814741D01*
X-2161879Y-4011232D01*
X-2204720Y-4114659D01*
X-2247561Y-4011232D01*
X-2444052Y-3814741D01*
X-2700780Y-3708400D01*
X-2978660Y-3708400D01*
X-3235388Y-3814741D01*
X-3431879Y-4011232D01*
X-3538220Y-4267960D01*
X-3538220Y-4545840D01*
X-3431879Y-4802568D01*
X-3235388Y-4999059D01*
X-2978660Y-5105400D01*
X-2700780Y-5105400D01*
X-2444052Y-4999059D01*
X-2247561Y-4802568D01*
X-2204720Y-4699141D01*
X-2161879Y-4802568D01*
X-1965388Y-4999059D01*
X-1708660Y-5105400D01*
X-1430780Y-5105400D01*
X-1320800Y-5059844D01*
X-1320800Y-8356833D01*
X-1417892Y-8259741D01*
X-1674620Y-8153400D01*
X-1952500Y-8153400D01*
X-2209228Y-8259741D01*
X-2405719Y-8456232D01*
X-2512060Y-8712960D01*
X-2512060Y-8990840D01*
X-2405719Y-9247568D01*
X-2209228Y-9444059D01*
X-1952500Y-9550400D01*
X-1674620Y-9550400D01*
X-1417892Y-9444059D01*
X-1320799Y-9346966D01*
X-1320799Y-15240769D01*
X-1330388Y-15244741D01*
X-1526879Y-15441232D01*
X-1633220Y-15697960D01*
X-1633220Y-15975840D01*
X-1526879Y-16232568D01*
X-1330388Y-16429059D01*
X-1073660Y-16535400D01*
X-795780Y-16535400D01*
X-539052Y-16429059D01*
X-342561Y-16232568D01*
X-236220Y-15975840D01*
X-236220Y-15697960D01*
X-342561Y-15441232D01*
X-355600Y-15428193D01*
X-355600Y-2645947D01*
X-346146Y-2598419D01*
X-369126Y-2482893D01*
X-383601Y-2410119D01*
X-490265Y-2250485D01*
X-530560Y-2223561D01*
X-1896161Y-857960D01*
X350520Y-857960D01*
X350520Y-1135840D01*
X456861Y-1392568D01*
X653352Y-1589059D01*
X910080Y-1695400D01*
X1137921Y-1695400D01*
X1137922Y-16574259D01*
X1113281Y-16598900D01*
X958340Y-16598900D01*
X701612Y-16705241D01*
X505121Y-16901732D01*
X398780Y-17158460D01*
X398780Y-17436340D01*
X505121Y-17693068D01*
X701612Y-17889559D01*
X958340Y-17995900D01*
X1236220Y-17995900D01*
X1492948Y-17889559D01*
X1689439Y-17693068D01*
X1795780Y-17436340D01*
X1795780Y-17281399D01*
X1928163Y-17149017D01*
X1968456Y-17122094D01*
X2075120Y-16962460D01*
X2103121Y-16821688D01*
X2112575Y-16774159D01*
X2103121Y-16726630D01*
X2103121Y-11331700D01*
X2369820Y-11331700D01*
X2369820Y-11609580D01*
X2476161Y-11866308D01*
X2672652Y-12062799D01*
X2929380Y-12169140D01*
X3207260Y-12169140D01*
X3463988Y-12062799D01*
X3586970Y-11939817D01*
X3575206Y-11998960D01*
X3575206Y-12999720D01*
X3604776Y-13148379D01*
X3688984Y-13274406D01*
X3815011Y-13358614D01*
X3963670Y-13388184D01*
X5363210Y-13388184D01*
X5511869Y-13358614D01*
X5637896Y-13274406D01*
X5659811Y-13241608D01*
X5791473Y-13329582D01*
X6048562Y-13380720D01*
X6620958Y-13380720D01*
X6878047Y-13329582D01*
X7169589Y-13134779D01*
X7364392Y-12843237D01*
X7432797Y-12499340D01*
X7364392Y-12155443D01*
X7214517Y-11931140D01*
X7462520Y-11931140D01*
X7462520Y-12209020D01*
X7568861Y-12465748D01*
X7765352Y-12662239D01*
X8022080Y-12768580D01*
X8299960Y-12768580D01*
X8556688Y-12662239D01*
X8753179Y-12465748D01*
X8859520Y-12209020D01*
X8859520Y-11931140D01*
X8753179Y-11674412D01*
X8556688Y-11477921D01*
X8299960Y-11371580D01*
X8022080Y-11371580D01*
X7765352Y-11477921D01*
X7568861Y-11674412D01*
X7462520Y-11931140D01*
X7214517Y-11931140D01*
X7169589Y-11863901D01*
X6878047Y-11669098D01*
X6620958Y-11617960D01*
X6048562Y-11617960D01*
X5791473Y-11669098D01*
X5659811Y-11757072D01*
X5637896Y-11724274D01*
X5511869Y-11640066D01*
X5363210Y-11610496D01*
X3963670Y-11610496D01*
X3815011Y-11640066D01*
X3730918Y-11696255D01*
X3766820Y-11609580D01*
X3766820Y-11331700D01*
X3660479Y-11074972D01*
X3463988Y-10878481D01*
X3207260Y-10772140D01*
X2929380Y-10772140D01*
X2672652Y-10878481D01*
X2476161Y-11074972D01*
X2369820Y-11331700D01*
X2103121Y-11331700D01*
X2103121Y-8999220D01*
X3575206Y-8999220D01*
X3575206Y-9999980D01*
X3604776Y-10148639D01*
X3688984Y-10274666D01*
X3815011Y-10358874D01*
X3963670Y-10388444D01*
X5363210Y-10388444D01*
X5511869Y-10358874D01*
X5637896Y-10274666D01*
X5659811Y-10241868D01*
X5791473Y-10329842D01*
X6048562Y-10380980D01*
X6620958Y-10380980D01*
X6878047Y-10329842D01*
X7169589Y-10135039D01*
X7364392Y-9843497D01*
X7432797Y-9499600D01*
X7364392Y-9155703D01*
X7169589Y-8864161D01*
X6878047Y-8669358D01*
X6620958Y-8618220D01*
X6048562Y-8618220D01*
X5791473Y-8669358D01*
X5659811Y-8757332D01*
X5637896Y-8724534D01*
X5511869Y-8640326D01*
X5363210Y-8610756D01*
X3963670Y-8610756D01*
X3815011Y-8640326D01*
X3688984Y-8724534D01*
X3604776Y-8850561D01*
X3575206Y-8999220D01*
X2103121Y-8999220D01*
X2103121Y-8384642D01*
X2172281Y-8551608D01*
X2368772Y-8748099D01*
X2625500Y-8854440D01*
X2903380Y-8854440D01*
X3160108Y-8748099D01*
X3356599Y-8551608D01*
X3462940Y-8294880D01*
X3462940Y-8139938D01*
X3937300Y-7665579D01*
X3977595Y-7638655D01*
X4050596Y-7529401D01*
X4084259Y-7479022D01*
X4102224Y-7388704D01*
X5363210Y-7388704D01*
X5511869Y-7359134D01*
X5637896Y-7274926D01*
X5659811Y-7242128D01*
X5791473Y-7330102D01*
X6048562Y-7381240D01*
X6620958Y-7381240D01*
X6878047Y-7330102D01*
X7169589Y-7135299D01*
X7364392Y-6843757D01*
X7432797Y-6499860D01*
X7364392Y-6155963D01*
X7169589Y-5864421D01*
X6878047Y-5669618D01*
X6620958Y-5618480D01*
X6048562Y-5618480D01*
X5791473Y-5669618D01*
X5659811Y-5757592D01*
X5637896Y-5724794D01*
X5511869Y-5640586D01*
X5363210Y-5611016D01*
X4112260Y-5611016D01*
X4112260Y-4388964D01*
X5363210Y-4388964D01*
X5511869Y-4359394D01*
X5637896Y-4275186D01*
X5659811Y-4242388D01*
X5791473Y-4330362D01*
X6048562Y-4381500D01*
X6620958Y-4381500D01*
X6878047Y-4330362D01*
X7169589Y-4135559D01*
X7364392Y-3844017D01*
X7432797Y-3500120D01*
X7364392Y-3156223D01*
X7169589Y-2864681D01*
X6878047Y-2669878D01*
X6620958Y-2618740D01*
X6048562Y-2618740D01*
X5791473Y-2669878D01*
X5659811Y-2757852D01*
X5637896Y-2725054D01*
X5511869Y-2640846D01*
X5363210Y-2611276D01*
X4503483Y-2611276D01*
X4526380Y-2577008D01*
X4554381Y-2436236D01*
X4554381Y-2436235D01*
X4563835Y-2388707D01*
X4554381Y-2341178D01*
X4554381Y229892D01*
X4563835Y277421D01*
X4526380Y465723D01*
X4492717Y516102D01*
X4419716Y625356D01*
X4379420Y652281D01*
X3732880Y1298820D01*
X3732880Y3997873D01*
X3842439Y4107432D01*
X3948780Y4364160D01*
X3948780Y4642040D01*
X3842439Y4898768D01*
X3645948Y5095259D01*
X3389220Y5201600D01*
X3111340Y5201600D01*
X2854612Y5095259D01*
X2658121Y4898768D01*
X2551780Y4642040D01*
X2551780Y4364160D01*
X2658121Y4107432D01*
X2767681Y3997872D01*
X2767680Y1146450D01*
X2758226Y1098922D01*
X2767680Y1051394D01*
X2795681Y910622D01*
X2902345Y750987D01*
X2942644Y724060D01*
X3465103Y201600D01*
X3361340Y201600D01*
X3104612Y95259D01*
X2908121Y-101232D01*
X2801780Y-357960D01*
X2801780Y-635840D01*
X2908121Y-892568D01*
X3104612Y-1089059D01*
X3361340Y-1195400D01*
X3589181Y-1195400D01*
X3589181Y-2188808D01*
X3322021Y-2455969D01*
X3281726Y-2482893D01*
X3204534Y-2598419D01*
X3175062Y-2642527D01*
X3137606Y-2830828D01*
X3147061Y-2878361D01*
X3147060Y-7090821D01*
X2780442Y-7457440D01*
X2625500Y-7457440D01*
X2368772Y-7563781D01*
X2172281Y-7760272D01*
X2103121Y-7927238D01*
X2103121Y-336956D01*
X2111340Y-340360D01*
X2389220Y-340360D01*
X2645948Y-234019D01*
X2842439Y-37528D01*
X2948780Y219200D01*
X2948780Y497080D01*
X2842439Y753808D01*
X2645948Y950299D01*
X2389220Y1056640D01*
X2276123Y1056640D01*
X2377440Y1301240D01*
X2377440Y1579120D01*
X2271099Y1835848D01*
X2074608Y2032339D01*
X1817880Y2138680D01*
X1540000Y2138680D01*
X1283272Y2032339D01*
X1086781Y1835848D01*
X980440Y1579120D01*
X980440Y1301240D01*
X1086781Y1044512D01*
X1137921Y993372D01*
X1137921Y-298400D01*
X910080Y-298400D01*
X653352Y-404741D01*
X456861Y-601232D01*
X350520Y-857960D01*
X-1896161Y-857960D01*
X-5892801Y3138680D01*
X-4432300Y3138680D01*
X-4432300Y2860800D01*
X-4325959Y2604072D01*
X-4129468Y2407581D01*
X-3872740Y2301240D01*
X-3594860Y2301240D01*
X-3338132Y2407581D01*
X-3141641Y2604072D01*
X-3035300Y2860800D01*
X-3035300Y3138680D01*
X-3141641Y3395408D01*
X-3337033Y3590800D01*
X-1541780Y3590800D01*
X-1541780Y3312920D01*
X-1435439Y3056192D01*
X-1238948Y2859701D01*
X-982220Y2753360D01*
X-704340Y2753360D01*
X-447612Y2859701D01*
X-251121Y3056192D01*
X-144780Y3312920D01*
X-144780Y3590800D01*
X-166004Y3642040D01*
X301780Y3642040D01*
X301780Y3364160D01*
X408121Y3107432D01*
X604612Y2910941D01*
X861340Y2804600D01*
X1139220Y2804600D01*
X1395948Y2910941D01*
X1592439Y3107432D01*
X1698780Y3364160D01*
X1698780Y3642040D01*
X1592439Y3898768D01*
X1395948Y4095259D01*
X1139220Y4201600D01*
X861340Y4201600D01*
X604612Y4095259D01*
X408121Y3898768D01*
X301780Y3642040D01*
X-166004Y3642040D01*
X-251121Y3847528D01*
X-447612Y4044019D01*
X-704340Y4150360D01*
X-982220Y4150360D01*
X-1238948Y4044019D01*
X-1435439Y3847528D01*
X-1541780Y3590800D01*
X-3337033Y3590800D01*
X-3338132Y3591899D01*
X-3594860Y3698240D01*
X-3872740Y3698240D01*
X-4129468Y3591899D01*
X-4325959Y3395408D01*
X-4432300Y3138680D01*
X-5892801Y3138680D01*
X-5951220Y3197098D01*
X-5951220Y3352040D01*
X-6057561Y3608768D01*
X-6237468Y3788675D01*
X-4650043Y5376100D01*
X3710244Y5376100D01*
X4590834Y4495509D01*
G36*
X-10053704Y1337436D02*
X-10020300Y1418080D01*
X-10020300Y1695960D01*
X-10126641Y1952688D01*
X-10323132Y2149179D01*
X-10579860Y2255520D01*
X-10857740Y2255520D01*
X-11114468Y2149179D01*
X-11310959Y1952688D01*
X-11417300Y1695960D01*
X-11417300Y1418080D01*
X-11310959Y1161352D01*
X-11114468Y964861D01*
X-10857740Y858520D01*
X-10579860Y858520D01*
X-10499216Y891924D01*
X-12692676Y-1301536D01*
X-12732975Y-1328463D01*
X-12839639Y-1488098D01*
X-12867640Y-1628869D01*
X-12877094Y-1676398D01*
X-12867640Y-1723926D01*
X-12867639Y-5169659D01*
X-16683344Y-1353956D01*
X-16591852Y-1316059D01*
X-16395361Y-1119568D01*
X-16289020Y-862840D01*
X-16289020Y-584960D01*
X-16395361Y-328232D01*
X-16591852Y-131741D01*
X-16848580Y-25400D01*
X-17126460Y-25400D01*
X-17383188Y-131741D01*
X-17579679Y-328232D01*
X-17686020Y-584960D01*
X-17686020Y-812801D01*
X-17757560Y-812801D01*
X-17890320Y-680041D01*
X-17890320Y2338860D01*
X-15806803Y2338860D01*
X-15495134Y2235995D01*
X-15167825Y2260231D01*
X-14977997Y2338860D01*
X-14536803Y2338860D01*
X-14225134Y2235995D01*
X-13897825Y2260231D01*
X-13707997Y2338860D01*
X-13711735Y2525845D01*
X-14122400Y2936510D01*
X-14533065Y2525845D01*
X-14536803Y2338860D01*
X-14977997Y2338860D01*
X-14981735Y2525845D01*
X-15392400Y2936510D01*
X-15803065Y2525845D01*
X-15806803Y2338860D01*
X-17890320Y2338860D01*
X-17890320Y3173594D01*
X-16227265Y3173594D01*
X-16203029Y2846285D01*
X-16124400Y2656457D01*
X-15937415Y2660195D01*
X-15526750Y3070860D01*
X-15258050Y3070860D01*
X-14862003Y2674813D01*
X-14854400Y2656457D01*
X-14757400Y2658396D01*
X-14660400Y2656457D01*
X-14655103Y2672507D01*
X-14365562Y2962048D01*
X-14312517Y2984020D01*
X-14313126Y3014484D01*
X-14256750Y3070860D01*
X-13988050Y3070860D01*
X-13577385Y2660195D01*
X-13390400Y2656457D01*
X-13287535Y2968126D01*
X-13311771Y3295435D01*
X-13390400Y3485263D01*
X-13577385Y3481525D01*
X-13988050Y3070860D01*
X-14256750Y3070860D01*
X-14315426Y3129536D01*
X-14316255Y3171005D01*
X-14726920Y3581670D01*
X-14823936Y3484654D01*
X-14854400Y3485263D01*
X-14859697Y3469213D01*
X-15258050Y3070860D01*
X-15526750Y3070860D01*
X-15937415Y3481525D01*
X-16124400Y3485263D01*
X-16227265Y3173594D01*
X-17890320Y3173594D01*
X-17890320Y3802860D01*
X-15806803Y3802860D01*
X-15804864Y3705860D01*
X-15806803Y3608860D01*
X-15790753Y3603563D01*
X-15392400Y3205210D01*
X-15292670Y3304940D01*
X-15271935Y3305355D01*
X-14861270Y3716020D01*
X-14592570Y3716020D01*
X-14535796Y3659246D01*
X-14536803Y3608860D01*
X-14520753Y3603563D01*
X-14122400Y3205210D01*
X-14025384Y3302226D01*
X-13994920Y3301617D01*
X-13979612Y3347998D01*
X-13726353Y3601257D01*
X-13707997Y3608860D01*
X-13708956Y3656840D01*
X-12174220Y3656840D01*
X-12174220Y3378960D01*
X-12067879Y3122232D01*
X-11871388Y2925741D01*
X-11614660Y2819400D01*
X-11336780Y2819400D01*
X-11080052Y2925741D01*
X-10883561Y3122232D01*
X-10777220Y3378960D01*
X-10777220Y3656840D01*
X-10883561Y3913568D01*
X-11080052Y4110059D01*
X-11336780Y4216400D01*
X-11614660Y4216400D01*
X-11871388Y4110059D01*
X-12067879Y3913568D01*
X-12174220Y3656840D01*
X-13708956Y3656840D01*
X-13709936Y3705860D01*
X-13707997Y3802860D01*
X-13724047Y3808157D01*
X-13958580Y4042690D01*
X-13994920Y4130423D01*
X-14045306Y4129416D01*
X-14122400Y4206510D01*
X-14518447Y3810463D01*
X-14536803Y3802860D01*
X-14536194Y3772396D01*
X-14592570Y3716020D01*
X-14861270Y3716020D01*
X-15271935Y4126685D01*
X-15313404Y4127514D01*
X-15392400Y4206510D01*
X-15788447Y3810463D01*
X-15806803Y3802860D01*
X-17890320Y3802860D01*
X-17890320Y4443594D01*
X-16227265Y4443594D01*
X-16203029Y4116285D01*
X-16124400Y3926457D01*
X-15937415Y3930195D01*
X-15526750Y4340860D01*
X-15258050Y4340860D01*
X-14862003Y3944813D01*
X-14854400Y3926457D01*
X-14804014Y3927464D01*
X-14726920Y3850370D01*
X-14316255Y4261035D01*
X-14315840Y4281770D01*
X-14256750Y4340860D01*
X-13988050Y4340860D01*
X-13577385Y3930195D01*
X-13390400Y3926457D01*
X-13287535Y4238126D01*
X-13311771Y4565435D01*
X-13375197Y4718560D01*
X-8679180Y4718560D01*
X-8679180Y4440680D01*
X-8572839Y4183952D01*
X-8376348Y3987461D01*
X-8119620Y3881120D01*
X-7841740Y3881120D01*
X-7585012Y3987461D01*
X-7388521Y4183952D01*
X-7282180Y4440680D01*
X-7282180Y4718560D01*
X-7388521Y4975288D01*
X-7585012Y5171779D01*
X-7841740Y5278120D01*
X-8119620Y5278120D01*
X-8376348Y5171779D01*
X-8572839Y4975288D01*
X-8679180Y4718560D01*
X-13375197Y4718560D01*
X-13390400Y4755263D01*
X-13577385Y4751525D01*
X-13988050Y4340860D01*
X-14256750Y4340860D01*
X-14313524Y4397634D01*
X-14312517Y4448020D01*
X-14389228Y4473338D01*
X-14652797Y4736907D01*
X-14660400Y4755263D01*
X-14757400Y4753324D01*
X-14854400Y4755263D01*
X-14859697Y4739213D01*
X-15258050Y4340860D01*
X-15526750Y4340860D01*
X-15937415Y4751525D01*
X-16124400Y4755263D01*
X-16227265Y4443594D01*
X-17890320Y4443594D01*
X-17890320Y5072860D01*
X-15806803Y5072860D01*
X-15803065Y4885875D01*
X-15392400Y4475210D01*
X-14981735Y4885875D01*
X-14977997Y5072860D01*
X-14536803Y5072860D01*
X-14533065Y4885875D01*
X-14122400Y4475210D01*
X-13711735Y4885875D01*
X-13707997Y5072860D01*
X-14019666Y5175725D01*
X-14346975Y5151489D01*
X-14536803Y5072860D01*
X-14977997Y5072860D01*
X-15289666Y5175725D01*
X-15616975Y5151489D01*
X-15806803Y5072860D01*
X-17890320Y5072860D01*
X-17890320Y5376100D01*
X-6015041Y5376100D01*
X-10053704Y1337436D01*
X-10053704Y1337436D01*
G37*
X-10053704Y1337436D02*
X-10020300Y1418080D01*
X-10020300Y1695960D01*
X-10126641Y1952688D01*
X-10323132Y2149179D01*
X-10579860Y2255520D01*
X-10857740Y2255520D01*
X-11114468Y2149179D01*
X-11310959Y1952688D01*
X-11417300Y1695960D01*
X-11417300Y1418080D01*
X-11310959Y1161352D01*
X-11114468Y964861D01*
X-10857740Y858520D01*
X-10579860Y858520D01*
X-10499216Y891924D01*
X-12692676Y-1301536D01*
X-12732975Y-1328463D01*
X-12839639Y-1488098D01*
X-12867640Y-1628869D01*
X-12877094Y-1676398D01*
X-12867640Y-1723926D01*
X-12867639Y-5169659D01*
X-16683344Y-1353956D01*
X-16591852Y-1316059D01*
X-16395361Y-1119568D01*
X-16289020Y-862840D01*
X-16289020Y-584960D01*
X-16395361Y-328232D01*
X-16591852Y-131741D01*
X-16848580Y-25400D01*
X-17126460Y-25400D01*
X-17383188Y-131741D01*
X-17579679Y-328232D01*
X-17686020Y-584960D01*
X-17686020Y-812801D01*
X-17757560Y-812801D01*
X-17890320Y-680041D01*
X-17890320Y2338860D01*
X-15806803Y2338860D01*
X-15495134Y2235995D01*
X-15167825Y2260231D01*
X-14977997Y2338860D01*
X-14536803Y2338860D01*
X-14225134Y2235995D01*
X-13897825Y2260231D01*
X-13707997Y2338860D01*
X-13711735Y2525845D01*
X-14122400Y2936510D01*
X-14533065Y2525845D01*
X-14536803Y2338860D01*
X-14977997Y2338860D01*
X-14981735Y2525845D01*
X-15392400Y2936510D01*
X-15803065Y2525845D01*
X-15806803Y2338860D01*
X-17890320Y2338860D01*
X-17890320Y3173594D01*
X-16227265Y3173594D01*
X-16203029Y2846285D01*
X-16124400Y2656457D01*
X-15937415Y2660195D01*
X-15526750Y3070860D01*
X-15258050Y3070860D01*
X-14862003Y2674813D01*
X-14854400Y2656457D01*
X-14757400Y2658396D01*
X-14660400Y2656457D01*
X-14655103Y2672507D01*
X-14365562Y2962048D01*
X-14312517Y2984020D01*
X-14313126Y3014484D01*
X-14256750Y3070860D01*
X-13988050Y3070860D01*
X-13577385Y2660195D01*
X-13390400Y2656457D01*
X-13287535Y2968126D01*
X-13311771Y3295435D01*
X-13390400Y3485263D01*
X-13577385Y3481525D01*
X-13988050Y3070860D01*
X-14256750Y3070860D01*
X-14315426Y3129536D01*
X-14316255Y3171005D01*
X-14726920Y3581670D01*
X-14823936Y3484654D01*
X-14854400Y3485263D01*
X-14859697Y3469213D01*
X-15258050Y3070860D01*
X-15526750Y3070860D01*
X-15937415Y3481525D01*
X-16124400Y3485263D01*
X-16227265Y3173594D01*
X-17890320Y3173594D01*
X-17890320Y3802860D01*
X-15806803Y3802860D01*
X-15804864Y3705860D01*
X-15806803Y3608860D01*
X-15790753Y3603563D01*
X-15392400Y3205210D01*
X-15292670Y3304940D01*
X-15271935Y3305355D01*
X-14861270Y3716020D01*
X-14592570Y3716020D01*
X-14535796Y3659246D01*
X-14536803Y3608860D01*
X-14520753Y3603563D01*
X-14122400Y3205210D01*
X-14025384Y3302226D01*
X-13994920Y3301617D01*
X-13979612Y3347998D01*
X-13726353Y3601257D01*
X-13707997Y3608860D01*
X-13708956Y3656840D01*
X-12174220Y3656840D01*
X-12174220Y3378960D01*
X-12067879Y3122232D01*
X-11871388Y2925741D01*
X-11614660Y2819400D01*
X-11336780Y2819400D01*
X-11080052Y2925741D01*
X-10883561Y3122232D01*
X-10777220Y3378960D01*
X-10777220Y3656840D01*
X-10883561Y3913568D01*
X-11080052Y4110059D01*
X-11336780Y4216400D01*
X-11614660Y4216400D01*
X-11871388Y4110059D01*
X-12067879Y3913568D01*
X-12174220Y3656840D01*
X-13708956Y3656840D01*
X-13709936Y3705860D01*
X-13707997Y3802860D01*
X-13724047Y3808157D01*
X-13958580Y4042690D01*
X-13994920Y4130423D01*
X-14045306Y4129416D01*
X-14122400Y4206510D01*
X-14518447Y3810463D01*
X-14536803Y3802860D01*
X-14536194Y3772396D01*
X-14592570Y3716020D01*
X-14861270Y3716020D01*
X-15271935Y4126685D01*
X-15313404Y4127514D01*
X-15392400Y4206510D01*
X-15788447Y3810463D01*
X-15806803Y3802860D01*
X-17890320Y3802860D01*
X-17890320Y4443594D01*
X-16227265Y4443594D01*
X-16203029Y4116285D01*
X-16124400Y3926457D01*
X-15937415Y3930195D01*
X-15526750Y4340860D01*
X-15258050Y4340860D01*
X-14862003Y3944813D01*
X-14854400Y3926457D01*
X-14804014Y3927464D01*
X-14726920Y3850370D01*
X-14316255Y4261035D01*
X-14315840Y4281770D01*
X-14256750Y4340860D01*
X-13988050Y4340860D01*
X-13577385Y3930195D01*
X-13390400Y3926457D01*
X-13287535Y4238126D01*
X-13311771Y4565435D01*
X-13375197Y4718560D01*
X-8679180Y4718560D01*
X-8679180Y4440680D01*
X-8572839Y4183952D01*
X-8376348Y3987461D01*
X-8119620Y3881120D01*
X-7841740Y3881120D01*
X-7585012Y3987461D01*
X-7388521Y4183952D01*
X-7282180Y4440680D01*
X-7282180Y4718560D01*
X-7388521Y4975288D01*
X-7585012Y5171779D01*
X-7841740Y5278120D01*
X-8119620Y5278120D01*
X-8376348Y5171779D01*
X-8572839Y4975288D01*
X-8679180Y4718560D01*
X-13375197Y4718560D01*
X-13390400Y4755263D01*
X-13577385Y4751525D01*
X-13988050Y4340860D01*
X-14256750Y4340860D01*
X-14313524Y4397634D01*
X-14312517Y4448020D01*
X-14389228Y4473338D01*
X-14652797Y4736907D01*
X-14660400Y4755263D01*
X-14757400Y4753324D01*
X-14854400Y4755263D01*
X-14859697Y4739213D01*
X-15258050Y4340860D01*
X-15526750Y4340860D01*
X-15937415Y4751525D01*
X-16124400Y4755263D01*
X-16227265Y4443594D01*
X-17890320Y4443594D01*
X-17890320Y5072860D01*
X-15806803Y5072860D01*
X-15803065Y4885875D01*
X-15392400Y4475210D01*
X-14981735Y4885875D01*
X-14977997Y5072860D01*
X-14536803Y5072860D01*
X-14533065Y4885875D01*
X-14122400Y4475210D01*
X-13711735Y4885875D01*
X-13707997Y5072860D01*
X-14019666Y5175725D01*
X-14346975Y5151489D01*
X-14536803Y5072860D01*
X-14977997Y5072860D01*
X-15289666Y5175725D01*
X-15616975Y5151489D01*
X-15806803Y5072860D01*
X-17890320Y5072860D01*
X-17890320Y5376100D01*
X-6015041Y5376100D01*
X-10053704Y1337436D01*
G04 #@! TO.N,GND*
G36*
X19538950Y-19419570D02*
X10636755Y-19419570D01*
X10633556Y-12860780D01*
X12372340Y-12860780D01*
X12372340Y-13138660D01*
X12478681Y-13395388D01*
X12675172Y-13591879D01*
X12931900Y-13698220D01*
X13209780Y-13698220D01*
X13466508Y-13591879D01*
X13662999Y-13395388D01*
X13769340Y-13138660D01*
X13769340Y-12860780D01*
X13662999Y-12604052D01*
X13466508Y-12407561D01*
X13209780Y-12301220D01*
X12931900Y-12301220D01*
X12675172Y-12407561D01*
X12478681Y-12604052D01*
X12372340Y-12860780D01*
X10633556Y-12860780D01*
X10632045Y-9761980D01*
X13401040Y-9761980D01*
X13401040Y-10039860D01*
X13507381Y-10296588D01*
X13610823Y-10400030D01*
X13507381Y-10503472D01*
X13401040Y-10760200D01*
X13401040Y-11038080D01*
X13507381Y-11294808D01*
X13703872Y-11491299D01*
X13960600Y-11597640D01*
X14238480Y-11597640D01*
X14495208Y-11491299D01*
X14691699Y-11294808D01*
X14798040Y-11038080D01*
X14798040Y-10760200D01*
X14691699Y-10503472D01*
X14588257Y-10400030D01*
X14691699Y-10296588D01*
X14798040Y-10039860D01*
X14798040Y-9761980D01*
X14691699Y-9505252D01*
X14495208Y-9308761D01*
X14238480Y-9202420D01*
X13960600Y-9202420D01*
X13703872Y-9308761D01*
X13507381Y-9505252D01*
X13401040Y-9761980D01*
X10632045Y-9761980D01*
X10630556Y-6711440D01*
X12062460Y-6711440D01*
X12062460Y-6989320D01*
X12168801Y-7246048D01*
X12365292Y-7442539D01*
X12622020Y-7548880D01*
X12899900Y-7548880D01*
X13156628Y-7442539D01*
X13353119Y-7246048D01*
X13459460Y-6989320D01*
X13459460Y-6711440D01*
X13353119Y-6454712D01*
X13156628Y-6258221D01*
X12899900Y-6151880D01*
X12622020Y-6151880D01*
X12365292Y-6258221D01*
X12168801Y-6454712D01*
X12062460Y-6711440D01*
X10630556Y-6711440D01*
X10629583Y-4716801D01*
X11507095Y-4716801D01*
X11513191Y-4759960D01*
X11741558Y-5186677D01*
X12115839Y-5493520D01*
X12579053Y-5633775D01*
X12773660Y-5478747D01*
X12773660Y-4526280D01*
X13027660Y-4526280D01*
X13027660Y-5478747D01*
X13222267Y-5633775D01*
X13685481Y-5493520D01*
X14059762Y-5186677D01*
X14288129Y-4759960D01*
X14294225Y-4716801D01*
X14169487Y-4526280D01*
X13027660Y-4526280D01*
X12773660Y-4526280D01*
X11631833Y-4526280D01*
X11507095Y-4716801D01*
X10629583Y-4716801D01*
X10629274Y-4081759D01*
X11507095Y-4081759D01*
X11631833Y-4272280D01*
X12773660Y-4272280D01*
X12773660Y-3319813D01*
X13027660Y-3319813D01*
X13027660Y-4272280D01*
X14169487Y-4272280D01*
X14294225Y-4081759D01*
X14288129Y-4038600D01*
X14059762Y-3611883D01*
X13685481Y-3305040D01*
X13222267Y-3164785D01*
X13027660Y-3319813D01*
X12773660Y-3319813D01*
X12579053Y-3164785D01*
X12115839Y-3305040D01*
X11741558Y-3611883D01*
X11513191Y-4038600D01*
X11507095Y-4081759D01*
X10629274Y-4081759D01*
X10627280Y3162D01*
X10617589Y51758D01*
X10590039Y92946D01*
X10548824Y120456D01*
X10500280Y130100D01*
X8127280Y130100D01*
X8127280Y179588D01*
X8219440Y402080D01*
X8219440Y514350D01*
X8713470Y514350D01*
X8872220Y673100D01*
X8872220Y749033D01*
X8913326Y766060D01*
X8910692Y900722D01*
X8996011Y815403D01*
X8999220Y818612D01*
X9002429Y815403D01*
X9087748Y900722D01*
X9085114Y766060D01*
X9126220Y752504D01*
X9126220Y673100D01*
X9284970Y514350D01*
X9975160Y514350D01*
X10208549Y611023D01*
X10387177Y789652D01*
X10483850Y1023041D01*
X10483850Y1713230D01*
X10325100Y1871980D01*
X10249167Y1871980D01*
X10232140Y1913086D01*
X10097478Y1910452D01*
X10182797Y1995771D01*
X10179588Y1998980D01*
X10182797Y2002189D01*
X10097478Y2087508D01*
X10232140Y2084874D01*
X10245696Y2125980D01*
X10325100Y2125980D01*
X10483850Y2284730D01*
X10483850Y2974919D01*
X10387177Y3208308D01*
X10322310Y3273176D01*
X10461699Y3330913D01*
X11465505Y3330913D01*
X11605760Y2867699D01*
X11741874Y2701670D01*
X11741666Y2701359D01*
X11712096Y2552700D01*
X11712096Y952500D01*
X11741666Y803841D01*
X11825874Y677814D01*
X11951901Y593606D01*
X12100560Y564036D01*
X13299440Y564036D01*
X13448099Y593606D01*
X13574126Y677814D01*
X13658334Y803841D01*
X13679163Y908560D01*
X14102080Y908560D01*
X14102080Y630680D01*
X14208421Y373952D01*
X14297893Y284480D01*
X14208421Y195008D01*
X14102080Y-61720D01*
X14102080Y-339600D01*
X14208421Y-596328D01*
X14404912Y-792819D01*
X14661640Y-899160D01*
X14939520Y-899160D01*
X15196248Y-792819D01*
X15392739Y-596328D01*
X15499080Y-339600D01*
X15499080Y-61720D01*
X15392739Y195008D01*
X15303267Y284480D01*
X15392739Y373952D01*
X15499080Y630680D01*
X15499080Y908560D01*
X15392739Y1165288D01*
X15196248Y1361779D01*
X14939520Y1468120D01*
X14661640Y1468120D01*
X14404912Y1361779D01*
X14208421Y1165288D01*
X14102080Y908560D01*
X13679163Y908560D01*
X13687904Y952500D01*
X13687904Y2552700D01*
X13658334Y2701359D01*
X13658126Y2701670D01*
X13794240Y2867699D01*
X13934495Y3330913D01*
X13779467Y3525520D01*
X12827000Y3525520D01*
X12827000Y3505520D01*
X12573000Y3505520D01*
X12573000Y3525520D01*
X11620533Y3525520D01*
X11465505Y3330913D01*
X10461699Y3330913D01*
X10476928Y3337221D01*
X10673419Y3533712D01*
X10779760Y3790440D01*
X10779760Y3974127D01*
X11465505Y3974127D01*
X11620533Y3779520D01*
X12573000Y3779520D01*
X12573000Y4921347D01*
X12827000Y4921347D01*
X12827000Y3779520D01*
X13779467Y3779520D01*
X13934495Y3974127D01*
X13794240Y4437341D01*
X13487397Y4811622D01*
X13060680Y5039989D01*
X13017521Y5046085D01*
X12827000Y4921347D01*
X12573000Y4921347D01*
X12382479Y5046085D01*
X12339320Y5039989D01*
X11912603Y4811622D01*
X11605760Y4437341D01*
X11465505Y3974127D01*
X10779760Y3974127D01*
X10779760Y4068320D01*
X10673419Y4325048D01*
X10476928Y4521539D01*
X10220200Y4627880D01*
X9942320Y4627880D01*
X9685592Y4521539D01*
X9489101Y4325048D01*
X9382760Y4068320D01*
X9382760Y3790440D01*
X9489101Y3533712D01*
X9539203Y3483610D01*
X9284970Y3483610D01*
X9126220Y3324860D01*
X9126220Y3248927D01*
X9085114Y3231900D01*
X9087748Y3097238D01*
X9002429Y3182557D01*
X8999220Y3179348D01*
X8996011Y3182557D01*
X8910692Y3097238D01*
X8913326Y3231900D01*
X8872220Y3245456D01*
X8872220Y3324860D01*
X8770364Y3426716D01*
X8908874Y3565225D01*
X8956589Y3597107D01*
X9082902Y3786147D01*
X9116061Y3952849D01*
X9116061Y3952854D01*
X9127256Y4009135D01*
X9116061Y4065416D01*
X9116061Y5969165D01*
X9127256Y6025447D01*
X9116061Y6081729D01*
X9116061Y6081733D01*
X9106843Y6128075D01*
X9207500Y6371080D01*
X9207500Y6648960D01*
X9105131Y6896100D01*
X19538951Y6896100D01*
X19538950Y-19419570D01*
X19538950Y-19419570D01*
G37*
X19538950Y-19419570D02*
X10636755Y-19419570D01*
X10633556Y-12860780D01*
X12372340Y-12860780D01*
X12372340Y-13138660D01*
X12478681Y-13395388D01*
X12675172Y-13591879D01*
X12931900Y-13698220D01*
X13209780Y-13698220D01*
X13466508Y-13591879D01*
X13662999Y-13395388D01*
X13769340Y-13138660D01*
X13769340Y-12860780D01*
X13662999Y-12604052D01*
X13466508Y-12407561D01*
X13209780Y-12301220D01*
X12931900Y-12301220D01*
X12675172Y-12407561D01*
X12478681Y-12604052D01*
X12372340Y-12860780D01*
X10633556Y-12860780D01*
X10632045Y-9761980D01*
X13401040Y-9761980D01*
X13401040Y-10039860D01*
X13507381Y-10296588D01*
X13610823Y-10400030D01*
X13507381Y-10503472D01*
X13401040Y-10760200D01*
X13401040Y-11038080D01*
X13507381Y-11294808D01*
X13703872Y-11491299D01*
X13960600Y-11597640D01*
X14238480Y-11597640D01*
X14495208Y-11491299D01*
X14691699Y-11294808D01*
X14798040Y-11038080D01*
X14798040Y-10760200D01*
X14691699Y-10503472D01*
X14588257Y-10400030D01*
X14691699Y-10296588D01*
X14798040Y-10039860D01*
X14798040Y-9761980D01*
X14691699Y-9505252D01*
X14495208Y-9308761D01*
X14238480Y-9202420D01*
X13960600Y-9202420D01*
X13703872Y-9308761D01*
X13507381Y-9505252D01*
X13401040Y-9761980D01*
X10632045Y-9761980D01*
X10630556Y-6711440D01*
X12062460Y-6711440D01*
X12062460Y-6989320D01*
X12168801Y-7246048D01*
X12365292Y-7442539D01*
X12622020Y-7548880D01*
X12899900Y-7548880D01*
X13156628Y-7442539D01*
X13353119Y-7246048D01*
X13459460Y-6989320D01*
X13459460Y-6711440D01*
X13353119Y-6454712D01*
X13156628Y-6258221D01*
X12899900Y-6151880D01*
X12622020Y-6151880D01*
X12365292Y-6258221D01*
X12168801Y-6454712D01*
X12062460Y-6711440D01*
X10630556Y-6711440D01*
X10629583Y-4716801D01*
X11507095Y-4716801D01*
X11513191Y-4759960D01*
X11741558Y-5186677D01*
X12115839Y-5493520D01*
X12579053Y-5633775D01*
X12773660Y-5478747D01*
X12773660Y-4526280D01*
X13027660Y-4526280D01*
X13027660Y-5478747D01*
X13222267Y-5633775D01*
X13685481Y-5493520D01*
X14059762Y-5186677D01*
X14288129Y-4759960D01*
X14294225Y-4716801D01*
X14169487Y-4526280D01*
X13027660Y-4526280D01*
X12773660Y-4526280D01*
X11631833Y-4526280D01*
X11507095Y-4716801D01*
X10629583Y-4716801D01*
X10629274Y-4081759D01*
X11507095Y-4081759D01*
X11631833Y-4272280D01*
X12773660Y-4272280D01*
X12773660Y-3319813D01*
X13027660Y-3319813D01*
X13027660Y-4272280D01*
X14169487Y-4272280D01*
X14294225Y-4081759D01*
X14288129Y-4038600D01*
X14059762Y-3611883D01*
X13685481Y-3305040D01*
X13222267Y-3164785D01*
X13027660Y-3319813D01*
X12773660Y-3319813D01*
X12579053Y-3164785D01*
X12115839Y-3305040D01*
X11741558Y-3611883D01*
X11513191Y-4038600D01*
X11507095Y-4081759D01*
X10629274Y-4081759D01*
X10627280Y3162D01*
X10617589Y51758D01*
X10590039Y92946D01*
X10548824Y120456D01*
X10500280Y130100D01*
X8127280Y130100D01*
X8127280Y179588D01*
X8219440Y402080D01*
X8219440Y514350D01*
X8713470Y514350D01*
X8872220Y673100D01*
X8872220Y749033D01*
X8913326Y766060D01*
X8910692Y900722D01*
X8996011Y815403D01*
X8999220Y818612D01*
X9002429Y815403D01*
X9087748Y900722D01*
X9085114Y766060D01*
X9126220Y752504D01*
X9126220Y673100D01*
X9284970Y514350D01*
X9975160Y514350D01*
X10208549Y611023D01*
X10387177Y789652D01*
X10483850Y1023041D01*
X10483850Y1713230D01*
X10325100Y1871980D01*
X10249167Y1871980D01*
X10232140Y1913086D01*
X10097478Y1910452D01*
X10182797Y1995771D01*
X10179588Y1998980D01*
X10182797Y2002189D01*
X10097478Y2087508D01*
X10232140Y2084874D01*
X10245696Y2125980D01*
X10325100Y2125980D01*
X10483850Y2284730D01*
X10483850Y2974919D01*
X10387177Y3208308D01*
X10322310Y3273176D01*
X10461699Y3330913D01*
X11465505Y3330913D01*
X11605760Y2867699D01*
X11741874Y2701670D01*
X11741666Y2701359D01*
X11712096Y2552700D01*
X11712096Y952500D01*
X11741666Y803841D01*
X11825874Y677814D01*
X11951901Y593606D01*
X12100560Y564036D01*
X13299440Y564036D01*
X13448099Y593606D01*
X13574126Y677814D01*
X13658334Y803841D01*
X13679163Y908560D01*
X14102080Y908560D01*
X14102080Y630680D01*
X14208421Y373952D01*
X14297893Y284480D01*
X14208421Y195008D01*
X14102080Y-61720D01*
X14102080Y-339600D01*
X14208421Y-596328D01*
X14404912Y-792819D01*
X14661640Y-899160D01*
X14939520Y-899160D01*
X15196248Y-792819D01*
X15392739Y-596328D01*
X15499080Y-339600D01*
X15499080Y-61720D01*
X15392739Y195008D01*
X15303267Y284480D01*
X15392739Y373952D01*
X15499080Y630680D01*
X15499080Y908560D01*
X15392739Y1165288D01*
X15196248Y1361779D01*
X14939520Y1468120D01*
X14661640Y1468120D01*
X14404912Y1361779D01*
X14208421Y1165288D01*
X14102080Y908560D01*
X13679163Y908560D01*
X13687904Y952500D01*
X13687904Y2552700D01*
X13658334Y2701359D01*
X13658126Y2701670D01*
X13794240Y2867699D01*
X13934495Y3330913D01*
X13779467Y3525520D01*
X12827000Y3525520D01*
X12827000Y3505520D01*
X12573000Y3505520D01*
X12573000Y3525520D01*
X11620533Y3525520D01*
X11465505Y3330913D01*
X10461699Y3330913D01*
X10476928Y3337221D01*
X10673419Y3533712D01*
X10779760Y3790440D01*
X10779760Y3974127D01*
X11465505Y3974127D01*
X11620533Y3779520D01*
X12573000Y3779520D01*
X12573000Y4921347D01*
X12827000Y4921347D01*
X12827000Y3779520D01*
X13779467Y3779520D01*
X13934495Y3974127D01*
X13794240Y4437341D01*
X13487397Y4811622D01*
X13060680Y5039989D01*
X13017521Y5046085D01*
X12827000Y4921347D01*
X12573000Y4921347D01*
X12382479Y5046085D01*
X12339320Y5039989D01*
X11912603Y4811622D01*
X11605760Y4437341D01*
X11465505Y3974127D01*
X10779760Y3974127D01*
X10779760Y4068320D01*
X10673419Y4325048D01*
X10476928Y4521539D01*
X10220200Y4627880D01*
X9942320Y4627880D01*
X9685592Y4521539D01*
X9489101Y4325048D01*
X9382760Y4068320D01*
X9382760Y3790440D01*
X9489101Y3533712D01*
X9539203Y3483610D01*
X9284970Y3483610D01*
X9126220Y3324860D01*
X9126220Y3248927D01*
X9085114Y3231900D01*
X9087748Y3097238D01*
X9002429Y3182557D01*
X8999220Y3179348D01*
X8996011Y3182557D01*
X8910692Y3097238D01*
X8913326Y3231900D01*
X8872220Y3245456D01*
X8872220Y3324860D01*
X8770364Y3426716D01*
X8908874Y3565225D01*
X8956589Y3597107D01*
X9082902Y3786147D01*
X9116061Y3952849D01*
X9116061Y3952854D01*
X9127256Y4009135D01*
X9116061Y4065416D01*
X9116061Y5969165D01*
X9127256Y6025447D01*
X9116061Y6081729D01*
X9116061Y6081733D01*
X9106843Y6128075D01*
X9207500Y6371080D01*
X9207500Y6648960D01*
X9105131Y6896100D01*
X19538951Y6896100D01*
X19538950Y-19419570D01*
G04 #@! TD*
M02*
