M48
;DRILL file {KiCad 5.0.2+dfsg1-1} date wo 20 mei 2020 11:37:04 CEST
;FORMAT={-:-/ absolute / inch / decimal}
FMAT,2
INCH,TZ
T1C0.0079
T2C0.0150
T3C0.0150
T4C0.0236
T5C0.0276
%
G90
G05
T1
X-0.4326Y-0.4835
X-0.4318Y-0.5348
X-0.4315Y-0.319
X-0.4313Y-0.3748
X-0.4306Y-0.4282
X-0.3809Y-0.3735
X-0.3801Y-0.4295
X-0.3801Y-0.4839
X-0.3792Y-0.3195
X-0.3788Y-0.5353
X-0.3278Y-0.3195
X-0.3261Y-0.377
X-0.3261Y-0.5357
X-0.3252Y-0.4843
X-0.3248Y-0.4304
X-0.2712Y-0.3193
X-0.2708Y-0.4301
X-0.2704Y-0.3774
X-0.2704Y-0.4849
X-0.2704Y-0.5353
X-0.2157Y-0.3775
X-0.2157Y-0.4302
X-0.2157Y-0.4826
X-0.2155Y-0.3191
X-0.215Y-0.535
T2
X-0.606Y0.1709
X-0.606Y0.1209
X-0.5798Y0.1463
X-0.556Y0.1709
X-0.556Y0.1209
T3
X-0.748Y0.1576
X-0.7427Y-0.2565
X-0.6984Y0.4049
X-0.6688Y-0.0285
X-0.6596Y-0.181
X-0.6556Y0.2645
X-0.6315Y0.5307
X-0.6102Y-0.7305
X-0.5982Y-0.6797
X-0.5936Y-0.1767
X-0.5878Y0.0145
X-0.5762Y0.2697
X-0.5693Y-0.2485
X-0.5676Y0.3025
X-0.5542Y-0.6071
X-0.5Y0.3071
X-0.4922Y0.2589
X-0.4876Y-0.2601
X-0.4618Y-0.2115
X-0.4579Y0.3661
X-0.4518Y0.1385
X-0.422Y0.0613
X-0.4159Y0.134
X-0.3368Y-0.1685
X-0.3142Y0.1803
X-0.2795Y0.2874
X-0.2618Y0.1265
X-0.2516Y0.4291
X-0.2238Y-0.2115
X-0.2205Y0.2874
X-0.2008Y0.374
X-0.1968Y-0.6889
X-0.1811Y0.3335
X-0.147Y0.1181
X-0.1457Y0.5394
X-0.1287Y0.2894
X-0.1118Y-0.1735
X-0.1058Y0.2671
X-0.0984Y0.3386
X-0.0961Y-0.1078
X-0.0855Y-0.5047
X-0.0714Y-0.3485
X-0.0618Y-0.1735
X-0.0368Y-0.6235
X-0.0332Y0.1359
X-0.0098Y0.256
X0.0182Y0.0715
X0.0197Y0.2954
X0.0394Y0.1379
X0.0413Y-0.0392
X0.0432Y-0.681
X0.0661Y0.0567
X0.0886Y0.0141
X0.0984Y0.3348
X0.1088Y-0.3211
X0.1208Y-0.4516
X0.128Y0.1773
X0.1378Y-0.0196
X0.1902Y0.5358
X0.2067Y0.443
X0.2283Y0.2122
X0.2445Y0.5402
X0.2555Y0.0906
X0.2829Y0.2131
X0.2945Y0.563
X0.2961Y0.0213
X0.3094Y0.1708
X0.315Y-0.4193
X0.3177Y-0.5511
X0.3213Y-0.4752
X0.3228Y-0.1614
X0.335Y0.2563
X0.3374Y0.4622
X0.3504Y-0.0236
X0.3543Y-0.1732
X0.374Y-0.5865
X0.3941Y0.2224
X0.3969Y0.1547
X0.3976Y0.563
X0.4291Y-0.0945
X0.4331Y0.5551
X0.4528Y-0.4449
X0.4725Y-0.305
X0.5024Y-0.2697
X0.5091Y-0.4512
X0.5146Y-0.5118
X0.5512Y0.5513
X0.5512Y-0.2756
X0.5551Y-0.3898
X0.5551Y-0.4291
X0.5591Y-0.3425
X0.5614Y0.3474
X0.5827Y0.0303
X0.5827Y-0.0079
X0.6075Y0.5643
X0.6693Y-0.2361
X0.3346Y0.0984
X0.3346Y0.059
X0.3543Y0.0787
X0.374Y0.0984
X0.374Y0.059
T4
X0.1915Y-0.1378
X0.2415Y-0.1378
X0.1915Y-0.374
X0.2415Y-0.374
X0.1915Y-0.4921
X0.2415Y-0.4921
X0.1915Y-0.2559
X0.2415Y-0.2559
T5
X0.5Y0.1359
X0.5Y0.0769
X0.5079Y-0.1732
T0
M30
