%TF.GenerationSoftware,KiCad,Pcbnew,10.0.1*%
%TF.CreationDate,2026-04-30T18:08:44+02:00*%
%TF.ProjectId,esp32_mine,65737033-325f-46d6-996e-652e6b696361,rev?*%
%TF.SameCoordinates,Original*%
%TF.FileFunction,Copper,L4,Bot*%
%TF.FilePolarity,Positive*%
%FSLAX46Y46*%
G04 Gerber Fmt 4.6, Leading zero omitted, Abs format (unit mm)*
G04 Created by KiCad (PCBNEW 10.0.1) date 2026-04-30 18:08:44*
%MOMM*%
%LPD*%
G01*
G04 APERTURE LIST*
G04 Aperture macros list*
%AMRoundRect*
0 Rectangle with rounded corners*
0 $1 Rounding radius*
0 $2 $3 $4 $5 $6 $7 $8 $9 X,Y pos of 4 corners*
0 Add a 4 corners polygon primitive as box body*
4,1,4,$2,$3,$4,$5,$6,$7,$8,$9,$2,$3,0*
0 Add four circle primitives for the rounded corners*
1,1,$1+$1,$2,$3*
1,1,$1+$1,$4,$5*
1,1,$1+$1,$6,$7*
1,1,$1+$1,$8,$9*
0 Add four rect primitives between the rounded corners*
20,1,$1+$1,$2,$3,$4,$5,0*
20,1,$1+$1,$4,$5,$6,$7,0*
20,1,$1+$1,$6,$7,$8,$9,0*
20,1,$1+$1,$8,$9,$2,$3,0*%
%AMRotRect*
0 Rectangle, with rotation*
0 The origin of the aperture is its center*
0 $1 length*
0 $2 width*
0 $3 Rotation angle, in degrees counterclockwise*
0 Add horizontal line*
21,1,$1,$2,0,0,$3*%
G04 Aperture macros list end*
%TA.AperFunction,NonConductor*%
%ADD10C,0.000000*%
%TD*%
%TA.AperFunction,ComponentPad*%
%ADD11RotRect,1.700000X1.700000X45.000000*%
%TD*%
%TA.AperFunction,ComponentPad*%
%ADD12C,1.700000*%
%TD*%
%TA.AperFunction,ComponentPad*%
%ADD13R,1.700000X1.700000*%
%TD*%
%TA.AperFunction,ComponentPad*%
%ADD14RotRect,1.700000X1.700000X315.000000*%
%TD*%
%TA.AperFunction,ComponentPad*%
%ADD15R,0.900000X0.500000*%
%TD*%
%TA.AperFunction,SMDPad,CuDef*%
%ADD16RoundRect,0.135000X0.185000X-0.135000X0.185000X0.135000X-0.185000X0.135000X-0.185000X-0.135000X0*%
%TD*%
%TA.AperFunction,SMDPad,CuDef*%
%ADD17RoundRect,0.135000X-0.135000X-0.185000X0.135000X-0.185000X0.135000X0.185000X-0.135000X0.185000X0*%
%TD*%
%TA.AperFunction,SMDPad,CuDef*%
%ADD18RoundRect,0.140000X-0.170000X0.140000X-0.170000X-0.140000X0.170000X-0.140000X0.170000X0.140000X0*%
%TD*%
%TA.AperFunction,SMDPad,CuDef*%
%ADD19RoundRect,0.135000X0.135000X0.185000X-0.135000X0.185000X-0.135000X-0.185000X0.135000X-0.185000X0*%
%TD*%
%TA.AperFunction,SMDPad,CuDef*%
%ADD20RoundRect,0.225000X0.225000X0.250000X-0.225000X0.250000X-0.225000X-0.250000X0.225000X-0.250000X0*%
%TD*%
%TA.AperFunction,SMDPad,CuDef*%
%ADD21RoundRect,0.150000X-0.150000X-0.500000X0.150000X-0.500000X0.150000X0.500000X-0.150000X0.500000X0*%
%TD*%
%TA.AperFunction,SMDPad,CuDef*%
%ADD22RoundRect,0.075000X-0.075000X-0.575000X0.075000X-0.575000X0.075000X0.575000X-0.075000X0.575000X0*%
%TD*%
%TA.AperFunction,HeatsinkPad*%
%ADD23O,1.000000X1.600000*%
%TD*%
%TA.AperFunction,HeatsinkPad*%
%ADD24O,1.000000X2.100000*%
%TD*%
%TA.AperFunction,SMDPad,CuDef*%
%ADD25RoundRect,0.135000X-0.035355X0.226274X-0.226274X0.035355X0.035355X-0.226274X0.226274X-0.035355X0*%
%TD*%
%TA.AperFunction,SMDPad,CuDef*%
%ADD26RoundRect,0.250000X0.650000X-1.000000X0.650000X1.000000X-0.650000X1.000000X-0.650000X-1.000000X0*%
%TD*%
%TA.AperFunction,SMDPad,CuDef*%
%ADD27RoundRect,0.150000X0.587500X0.150000X-0.587500X0.150000X-0.587500X-0.150000X0.587500X-0.150000X0*%
%TD*%
%TA.AperFunction,SMDPad,CuDef*%
%ADD28R,1.000000X1.800000*%
%TD*%
%TA.AperFunction,SMDPad,CuDef*%
%ADD29RoundRect,0.140000X0.140000X0.170000X-0.140000X0.170000X-0.140000X-0.170000X0.140000X-0.170000X0*%
%TD*%
%TA.AperFunction,SMDPad,CuDef*%
%ADD30RoundRect,0.140000X0.170000X-0.140000X0.170000X0.140000X-0.170000X0.140000X-0.170000X-0.140000X0*%
%TD*%
%TA.AperFunction,SMDPad,CuDef*%
%ADD31RoundRect,0.218750X-0.218750X-0.256250X0.218750X-0.256250X0.218750X0.256250X-0.218750X0.256250X0*%
%TD*%
%TA.AperFunction,SMDPad,CuDef*%
%ADD32RoundRect,0.150000X0.512500X0.150000X-0.512500X0.150000X-0.512500X-0.150000X0.512500X-0.150000X0*%
%TD*%
%TA.AperFunction,SMDPad,CuDef*%
%ADD33R,0.254000X0.675000*%
%TD*%
%TA.AperFunction,SMDPad,CuDef*%
%ADD34R,0.675000X0.254000*%
%TD*%
%TA.AperFunction,SMDPad,CuDef*%
%ADD35RoundRect,0.140000X-0.021213X0.219203X-0.219203X0.021213X0.021213X-0.219203X0.219203X-0.021213X0*%
%TD*%
%TA.AperFunction,SMDPad,CuDef*%
%ADD36RoundRect,0.225000X0.250000X-0.225000X0.250000X0.225000X-0.250000X0.225000X-0.250000X-0.225000X0*%
%TD*%
%TA.AperFunction,ViaPad*%
%ADD37C,0.600000*%
%TD*%
%TA.AperFunction,ViaPad*%
%ADD38C,0.800000*%
%TD*%
%TA.AperFunction,Conductor*%
%ADD39C,0.600000*%
%TD*%
%TA.AperFunction,Conductor*%
%ADD40C,0.400000*%
%TD*%
%TA.AperFunction,Conductor*%
%ADD41C,0.200000*%
%TD*%
%TA.AperFunction,Conductor*%
%ADD42C,0.500000*%
%TD*%
%TA.AperFunction,Conductor*%
%ADD43C,1.016000*%
%TD*%
%TA.AperFunction,Conductor*%
%ADD44C,1.524000*%
%TD*%
%TA.AperFunction,Conductor*%
%ADD45C,1.300000*%
%TD*%
%TA.AperFunction,Conductor*%
%ADD46C,0.150000*%
%TD*%
%TA.AperFunction,Conductor*%
%ADD47C,0.300000*%
%TD*%
G04 APERTURE END LIST*
D10*
%TA.AperFunction,NonConductor*%
G36*
X66506340Y-47452030D02*
G01*
X62841120Y-51115980D01*
X60718950Y-48993810D01*
X64380360Y-45334940D01*
X66506340Y-47452030D01*
G37*
%TD.AperFunction*%
%TA.AperFunction,NonConductor*%
G36*
X64665090Y-90068150D02*
G01*
X61665100Y-90068150D01*
X61665100Y-88068150D01*
X64665090Y-88068150D01*
X64665090Y-90068150D01*
G37*
%TD.AperFunction*%
%TA.AperFunction,NonConductor*%
G36*
X64665090Y-93801950D02*
G01*
X61665100Y-93801950D01*
X61665100Y-91801950D01*
X64665090Y-91801950D01*
X64665090Y-93801950D01*
G37*
%TD.AperFunction*%
%TA.AperFunction,NonConductor*%
G36*
X64665090Y-100253550D02*
G01*
X61665100Y-100253550D01*
X61665100Y-98253550D01*
X64665090Y-98253550D01*
X64665090Y-100253550D01*
G37*
%TD.AperFunction*%
%TA.AperFunction,NonConductor*%
G36*
X64665090Y-103987350D02*
G01*
X61665100Y-103987350D01*
X61665100Y-101987350D01*
X64665090Y-101987350D01*
X64665090Y-103987350D01*
G37*
%TD.AperFunction*%
%TA.AperFunction,NonConductor*%
G36*
X66517243Y-144611977D02*
G01*
X64395073Y-146734147D01*
X60736203Y-143072737D01*
X62853293Y-140946757D01*
X66517243Y-144611977D01*
G37*
%TD.AperFunction*%
%TA.AperFunction,NonConductor*%
G36*
X78210081Y-59031134D02*
G01*
X74544861Y-62695084D01*
X72422691Y-60572914D01*
X76084101Y-56914044D01*
X78210081Y-59031134D01*
G37*
%TD.AperFunction*%
%TA.AperFunction,NonConductor*%
G36*
X77940000Y-132956988D02*
G01*
X75817830Y-135079158D01*
X72158960Y-131417748D01*
X74276050Y-129291768D01*
X77940000Y-132956988D01*
G37*
%TD.AperFunction*%
%TA.AperFunction,NonConductor*%
G36*
X81225130Y-90068150D02*
G01*
X78225140Y-90068150D01*
X78225140Y-88068150D01*
X81225130Y-88068150D01*
X81225130Y-90068150D01*
G37*
%TD.AperFunction*%
%TA.AperFunction,NonConductor*%
G36*
X81225130Y-93801950D02*
G01*
X78225140Y-93801950D01*
X78225140Y-91801950D01*
X81225130Y-91801950D01*
X81225130Y-93801950D01*
G37*
%TD.AperFunction*%
%TA.AperFunction,NonConductor*%
G36*
X81225130Y-100253550D02*
G01*
X78225140Y-100253550D01*
X78225140Y-98253550D01*
X81225130Y-98253550D01*
X81225130Y-100253550D01*
G37*
%TD.AperFunction*%
%TA.AperFunction,NonConductor*%
G36*
X81225130Y-103987350D02*
G01*
X78225140Y-103987350D01*
X78225140Y-101987350D01*
X81225130Y-101987350D01*
X81225130Y-103987350D01*
G37*
%TD.AperFunction*%
%TA.AperFunction,NonConductor*%
G36*
X144624290Y-90068150D02*
G01*
X141624300Y-90068150D01*
X141624300Y-88068150D01*
X144624290Y-88068150D01*
X144624290Y-90068150D01*
G37*
%TD.AperFunction*%
%TA.AperFunction,NonConductor*%
G36*
X144624290Y-93801950D02*
G01*
X141624300Y-93801950D01*
X141624300Y-91801950D01*
X144624290Y-91801950D01*
X144624290Y-93801950D01*
G37*
%TD.AperFunction*%
%TA.AperFunction,NonConductor*%
G36*
X144624290Y-100253550D02*
G01*
X141624300Y-100253550D01*
X141624300Y-98253550D01*
X144624290Y-98253550D01*
X144624290Y-100253550D01*
G37*
%TD.AperFunction*%
%TA.AperFunction,NonConductor*%
G36*
X144624290Y-103987350D02*
G01*
X141624300Y-103987350D01*
X141624300Y-101987350D01*
X144624290Y-101987350D01*
X144624290Y-103987350D01*
G37*
%TD.AperFunction*%
%TA.AperFunction,NonConductor*%
G36*
X150622853Y-131682562D02*
G01*
X146961443Y-135341432D01*
X144835463Y-133224342D01*
X148500683Y-129560392D01*
X150622853Y-131682562D01*
G37*
%TD.AperFunction*%
%TA.AperFunction,NonConductor*%
G36*
X150879932Y-60081009D02*
G01*
X148757762Y-62203179D01*
X145092542Y-58539229D01*
X147218522Y-56422139D01*
X150879932Y-60081009D01*
G37*
%TD.AperFunction*%
%TA.AperFunction,NonConductor*%
G36*
X161937022Y-142779842D02*
G01*
X158275612Y-146438712D01*
X156149632Y-144321622D01*
X159814852Y-140657672D01*
X161937022Y-142779842D01*
G37*
%TD.AperFunction*%
%TA.AperFunction,NonConductor*%
G36*
X162135763Y-48997618D02*
G01*
X160013593Y-51119788D01*
X156348373Y-47455838D01*
X158474353Y-45338748D01*
X162135763Y-48997618D01*
G37*
%TD.AperFunction*%
%TA.AperFunction,NonConductor*%
G36*
X161185090Y-90068150D02*
G01*
X158185100Y-90068150D01*
X158185100Y-88068150D01*
X161185090Y-88068150D01*
X161185090Y-90068150D01*
G37*
%TD.AperFunction*%
%TA.AperFunction,NonConductor*%
G36*
X161185090Y-93821000D02*
G01*
X158185100Y-93821000D01*
X158185100Y-91821000D01*
X161185090Y-91821000D01*
X161185090Y-93821000D01*
G37*
%TD.AperFunction*%
%TA.AperFunction,NonConductor*%
G36*
X161185090Y-100253550D02*
G01*
X158185100Y-100253550D01*
X158185100Y-98253550D01*
X161185090Y-98253550D01*
X161185090Y-100253550D01*
G37*
%TD.AperFunction*%
%TA.AperFunction,NonConductor*%
G36*
X161185090Y-103981000D02*
G01*
X158185100Y-103981000D01*
X158185100Y-101981000D01*
X161185090Y-101981000D01*
X161185090Y-103981000D01*
G37*
%TD.AperFunction*%
D11*
%TO.P,M3,1*%
%TO.N,VBAT*%
X131998439Y-73898439D03*
D12*
%TO.P,M3,2*%
%TO.N,Net-(D8-A)*%
X133794490Y-75694490D03*
%TD*%
D13*
%TO.P,J3,1,Pin_1*%
%TO.N,GND*%
X91760000Y-96025000D03*
D12*
%TO.P,J3,2,Pin_2*%
%TO.N,VBAT*%
X91760000Y-93485000D03*
%TO.P,J3,3,Pin_3*%
%TO.N,RX*%
X94300000Y-96025000D03*
%TO.P,J3,4,Pin_4*%
%TO.N,GND*%
X94300000Y-93485000D03*
%TO.P,J3,5,Pin_5*%
%TO.N,TX*%
X96840000Y-96025000D03*
%TO.P,J3,6,Pin_6*%
%TO.N,IO0*%
X96840000Y-93485000D03*
%TD*%
D14*
%TO.P,M2,1*%
%TO.N,VBAT*%
X91051561Y-74098439D03*
D12*
%TO.P,M2,2*%
%TO.N,Net-(D6-A)*%
X89255510Y-75894490D03*
%TD*%
D15*
%TO.P,AE1,2,PCB_Trace*%
%TO.N,GND*%
X124530000Y-115680000D03*
%TD*%
D11*
%TO.P,M1,1*%
%TO.N,Net-(D7-A)*%
X89448439Y-116448439D03*
D12*
%TO.P,M1,2*%
%TO.N,VBAT*%
X91244490Y-118244490D03*
%TD*%
D14*
%TO.P,M4,1*%
%TO.N,Net-(D5-A)*%
X133301561Y-116798439D03*
D12*
%TO.P,M4,2*%
%TO.N,VBAT*%
X131505510Y-118594490D03*
%TD*%
D16*
%TO.P,R6,1*%
%TO.N,Net-(U4-COM3)*%
X115050000Y-96410000D03*
%TO.P,R6,2*%
%TO.N,GND*%
X115050000Y-95390000D03*
%TD*%
%TO.P,R18,1*%
%TO.N,USB_D+*%
X101750000Y-84850000D03*
%TO.P,R18,2*%
X101750000Y-83830000D03*
%TD*%
%TO.P,R9,1*%
%TO.N,Net-(U4-PS1)*%
X107291600Y-96078740D03*
%TO.P,R9,2*%
%TO.N,GND*%
X107291600Y-95058740D03*
%TD*%
D17*
%TO.P,R20,1*%
%TO.N,GND*%
X115221600Y-81273300D03*
%TO.P,R20,2*%
%TO.N,5V*%
X116241600Y-81273300D03*
%TD*%
D18*
%TO.P,C1,1*%
%TO.N,Net-(U4-XIN32)*%
X107600000Y-101070000D03*
%TO.P,C1,2*%
%TO.N,GND*%
X107600000Y-102030000D03*
%TD*%
D19*
%TO.P,R1,1*%
%TO.N,GND*%
X109266600Y-82783300D03*
%TO.P,R1,2*%
%TO.N,Net-(U3-PROG)*%
X108246600Y-82783300D03*
%TD*%
D20*
%TO.P,C28,1*%
%TO.N,VDD_CPU*%
X105375000Y-97500000D03*
%TO.P,C28,2*%
%TO.N,GND*%
X103825000Y-97500000D03*
%TD*%
D16*
%TO.P,R2,1*%
%TO.N,USB_D-*%
X102850000Y-84860000D03*
%TO.P,R2,2*%
X102850000Y-83840000D03*
%TD*%
D21*
%TO.P,J1,A1,GND*%
%TO.N,GND*%
X101900000Y-79585000D03*
%TO.P,J1,A4,VBUS*%
%TO.N,5V*%
X102700000Y-79585000D03*
D22*
%TO.P,J1,A5,CC1*%
%TO.N,Net-(J1-CC1)*%
X103850000Y-79585000D03*
%TO.P,J1,A6,D+*%
%TO.N,USB_D+*%
X104850000Y-79585000D03*
%TO.P,J1,A7,D-*%
%TO.N,USB_D-*%
X105350000Y-79585000D03*
%TO.P,J1,A8*%
%TO.N,N/C*%
X106350000Y-79585000D03*
D21*
%TO.P,J1,A9,VBUS*%
%TO.N,5V*%
X107500000Y-79585000D03*
%TO.P,J1,A12,GND*%
%TO.N,GND*%
X108300000Y-79585000D03*
%TO.P,J1,B1,GND*%
X108300000Y-79585000D03*
%TO.P,J1,B4,VBUS*%
%TO.N,5V*%
X107500000Y-79585000D03*
D22*
%TO.P,J1,B5,CC2*%
%TO.N,Net-(J1-CC2)*%
X106850000Y-79585000D03*
%TO.P,J1,B6,D+*%
%TO.N,USB_D+*%
X105850000Y-79585000D03*
%TO.P,J1,B7,D-*%
%TO.N,USB_D-*%
X104350000Y-79585000D03*
%TO.P,J1,B8*%
%TO.N,N/C*%
X103350000Y-79585000D03*
D21*
%TO.P,J1,B9,VBUS*%
%TO.N,5V*%
X102700000Y-79585000D03*
%TO.P,J1,B12,GND*%
%TO.N,GND*%
X101900000Y-79585000D03*
D23*
%TO.P,J1,S1,SHIELD*%
X100780000Y-74765000D03*
D24*
X100780000Y-78945000D03*
D23*
X109420000Y-74765000D03*
D24*
X109420000Y-78945000D03*
%TD*%
D18*
%TO.P,C8,1*%
%TO.N,VBAT*%
X112831600Y-83783300D03*
%TO.P,C8,2*%
%TO.N,GND*%
X112831600Y-84743300D03*
%TD*%
D25*
%TO.P,R27,1*%
%TO.N,Net-(U1-SPIQ)*%
X104760624Y-98939376D03*
%TO.P,R27,2*%
%TO.N,SPIQ*%
X104039376Y-99660624D03*
%TD*%
D26*
%TO.P,D4,1,K*%
%TO.N,VSYS*%
X119306600Y-84123300D03*
%TO.P,D4,2,A*%
%TO.N,5V*%
X119306600Y-80123300D03*
%TD*%
D27*
%TO.P,Q1,1,G*%
%TO.N,5V*%
X116296600Y-82823300D03*
%TO.P,Q1,2,S*%
%TO.N,VSYS*%
X116296600Y-84723300D03*
%TO.P,Q1,3,D*%
%TO.N,VBAT*%
X114421600Y-83773300D03*
%TD*%
D18*
%TO.P,C2,1*%
%TO.N,VBAT*%
X111469100Y-86230800D03*
%TO.P,C2,2*%
%TO.N,GND*%
X111469100Y-87190800D03*
%TD*%
D19*
%TO.P,R17,1*%
%TO.N,GND*%
X108150000Y-81400000D03*
%TO.P,R17,2*%
%TO.N,Net-(J1-CC2)*%
X107130000Y-81400000D03*
%TD*%
D28*
%TO.P,Y3,1,1*%
%TO.N,Net-(U4-XIN32)*%
X108941600Y-100768740D03*
%TO.P,Y3,2,2*%
%TO.N,Net-(U4-XOUT32)*%
X111441600Y-100768740D03*
%TD*%
D17*
%TO.P,R19,1*%
%TO.N,IO12*%
X115851600Y-86213300D03*
%TO.P,R19,2*%
%TO.N,GND*%
X116871600Y-86213300D03*
%TD*%
D29*
%TO.P,C36,1*%
%TO.N,5V*%
X106076600Y-86213300D03*
%TO.P,C36,2*%
%TO.N,GND*%
X105116600Y-86213300D03*
%TD*%
D30*
%TO.P,C16,1*%
%TO.N,5V*%
X115496600Y-79953300D03*
%TO.P,C16,2*%
%TO.N,GND*%
X115496600Y-78993300D03*
%TD*%
D31*
%TO.P,D1,1,K*%
%TO.N,Net-(D1-K)*%
X104376600Y-84303300D03*
%TO.P,D1,2,A*%
%TO.N,5V*%
X105951600Y-84303300D03*
%TD*%
D17*
%TO.P,R12,1*%
%TO.N,VBAT*%
X113821600Y-86203300D03*
%TO.P,R12,2*%
%TO.N,IO12*%
X114841600Y-86203300D03*
%TD*%
D19*
%TO.P,R7,1*%
%TO.N,VDD_CPU*%
X113211600Y-93468740D03*
%TO.P,R7,2*%
%TO.N,Net-(U4-~{RESET})*%
X112191600Y-93468740D03*
%TD*%
%TO.P,R8,1*%
%TO.N,Net-(U4-PS0)*%
X108410000Y-94000000D03*
%TO.P,R8,2*%
%TO.N,GND*%
X107390000Y-94000000D03*
%TD*%
D32*
%TO.P,U3,1,STAT*%
%TO.N,Net-(U3-STAT)*%
X109934100Y-84320800D03*
%TO.P,U3,2,V_{SS}*%
%TO.N,GND*%
X109934100Y-85270800D03*
%TO.P,U3,3,V_{BAT}*%
%TO.N,VBAT*%
X109934100Y-86220800D03*
%TO.P,U3,4,V_{DD}*%
%TO.N,5V*%
X107659100Y-86220800D03*
%TO.P,U3,5,PROG*%
%TO.N,Net-(U3-PROG)*%
X107659100Y-84320800D03*
%TD*%
D30*
%TO.P,C6,1*%
%TO.N,5V*%
X116696600Y-79943300D03*
%TO.P,C6,2*%
%TO.N,GND*%
X116696600Y-78983300D03*
%TD*%
D16*
%TO.P,R15,1*%
%TO.N,Net-(U3-STAT)*%
X111449100Y-84260800D03*
%TO.P,R15,2*%
%TO.N,Net-(D1-K)*%
X111449100Y-83240800D03*
%TD*%
D17*
%TO.P,R14,1*%
%TO.N,GND*%
X102490000Y-81400000D03*
%TO.P,R14,2*%
%TO.N,Net-(J1-CC1)*%
X103510000Y-81400000D03*
%TD*%
D33*
%TO.P,U4,1,PIN1*%
%TO.N,unconnected-(U4-PIN1-Pad1)*%
X108941600Y-98503740D03*
D34*
%TO.P,U4,2,GND*%
%TO.N,GND*%
X108804100Y-97591240D03*
%TO.P,U4,3,VDD*%
%TO.N,VDD_CPU*%
X108804100Y-97091240D03*
%TO.P,U4,4,~{BOOT_LOAD_PIN}*%
X108804100Y-96591240D03*
%TO.P,U4,5,PS1*%
%TO.N,Net-(U4-PS1)*%
X108804100Y-96091240D03*
D33*
%TO.P,U4,6,PS0*%
%TO.N,Net-(U4-PS0)*%
X108941600Y-95178740D03*
%TO.P,U4,7,PIN7*%
%TO.N,unconnected-(U4-PIN7-Pad7)*%
X109441600Y-95178740D03*
%TO.P,U4,8,PIN8*%
%TO.N,unconnected-(U4-PIN8-Pad8)*%
X109941600Y-95178740D03*
%TO.P,U4,9,CAP*%
%TO.N,Net-(U4-CAP)*%
X110441600Y-95178740D03*
%TO.P,U4,10,BL_IND*%
%TO.N,unconnected-(U4-BL_IND-Pad10)*%
X110941600Y-95178740D03*
%TO.P,U4,11,~{RESET}*%
%TO.N,Net-(U4-~{RESET})*%
X111441600Y-95178740D03*
%TO.P,U4,12,PIN12*%
%TO.N,unconnected-(U4-PIN12-Pad12)*%
X111941600Y-95178740D03*
%TO.P,U4,13,PIN13*%
%TO.N,unconnected-(U4-PIN13-Pad13)*%
X112441600Y-95178740D03*
%TO.P,U4,14,INT*%
%TO.N,unconnected-(U4-INT-Pad14)*%
X112941600Y-95178740D03*
%TO.P,U4,15,PIN15*%
%TO.N,unconnected-(U4-PIN15-Pad15)*%
X113441600Y-95178740D03*
D34*
%TO.P,U4,16,PIN16*%
%TO.N,unconnected-(U4-PIN16-Pad16)*%
X113579100Y-96091240D03*
%TO.P,U4,17,COM3*%
%TO.N,Net-(U4-COM3)*%
X113579100Y-96591240D03*
%TO.P,U4,18,COM2*%
%TO.N,GND*%
X113579100Y-97091240D03*
%TO.P,U4,19,COM1*%
%TO.N,IO9*%
X113579100Y-97591240D03*
D33*
%TO.P,U4,20,COM0*%
%TO.N,IO8*%
X113441600Y-98503740D03*
%TO.P,U4,21,PIN21*%
%TO.N,unconnected-(U4-PIN21-Pad21)*%
X112941600Y-98503740D03*
%TO.P,U4,22,PIN22*%
%TO.N,unconnected-(U4-PIN22-Pad22)*%
X112441600Y-98503740D03*
%TO.P,U4,23,PIN23*%
%TO.N,unconnected-(U4-PIN23-Pad23)*%
X111941600Y-98503740D03*
%TO.P,U4,24,PIN24*%
%TO.N,unconnected-(U4-PIN24-Pad24)*%
X111441600Y-98503740D03*
%TO.P,U4,25,GNDIO*%
%TO.N,GND*%
X110941600Y-98503740D03*
%TO.P,U4,26,XOUT32*%
%TO.N,Net-(U4-XOUT32)*%
X110441600Y-98503740D03*
%TO.P,U4,27,XIN32*%
%TO.N,Net-(U4-XIN32)*%
X109941600Y-98503740D03*
%TO.P,U4,28,VDDIO*%
%TO.N,VDD_CPU*%
X109441600Y-98503740D03*
%TD*%
D30*
%TO.P,C22,1*%
%TO.N,5V*%
X121896600Y-79943300D03*
%TO.P,C22,2*%
%TO.N,GND*%
X121896600Y-78983300D03*
%TD*%
D35*
%TO.P,C5,1*%
%TO.N,Net-(U4-XOUT32)*%
X109539411Y-102710589D03*
%TO.P,C5,2*%
%TO.N,GND*%
X108860589Y-103389411D03*
%TD*%
D36*
%TO.P,C9,1*%
%TO.N,Net-(U4-CAP)*%
X110491600Y-92943740D03*
%TO.P,C9,2*%
%TO.N,GND*%
X110491600Y-91393740D03*
%TD*%
D37*
%TO.N,VDD_CPU*%
X117445000Y-106300000D03*
X130925000Y-96385000D03*
X126650000Y-91550000D03*
X110000000Y-96096600D03*
X102462500Y-91650000D03*
X112928611Y-106707601D03*
X118332399Y-105082400D03*
X115517400Y-97190000D03*
X121792400Y-94600000D03*
X125440000Y-95950000D03*
X121475000Y-99530000D03*
%TO.N,GND*%
X117070000Y-108580000D03*
X123830000Y-109050000D03*
X105400000Y-115500000D03*
X125300000Y-114500000D03*
X120370000Y-104550000D03*
X102620000Y-101750000D03*
X118250000Y-115550000D03*
X120930000Y-113480000D03*
X106700000Y-114700000D03*
X116651600Y-77993300D03*
X111500000Y-114600000D03*
X124380000Y-112510000D03*
X102800000Y-115500000D03*
X126200000Y-114500000D03*
X123180000Y-94340000D03*
X107500000Y-115600000D03*
X120070000Y-112420000D03*
X119820000Y-109460000D03*
X98150000Y-116600000D03*
X117100000Y-114600000D03*
X112450000Y-115550000D03*
X106450000Y-115550000D03*
X120780000Y-88240000D03*
X123360000Y-108270000D03*
X110550000Y-90520000D03*
X123830000Y-107047693D03*
X112400000Y-114700000D03*
X124680000Y-94482692D03*
X116180000Y-101930000D03*
X130250000Y-114200000D03*
X105111600Y-85323300D03*
X133500000Y-112250000D03*
X122850000Y-87498846D03*
D38*
X126850000Y-115300000D03*
D37*
X116841600Y-85483300D03*
X122150000Y-106022307D03*
X119790000Y-108360000D03*
X107050000Y-74850000D03*
X100850000Y-115400000D03*
X95941600Y-86343300D03*
X123790000Y-104028846D03*
X112551600Y-87203300D03*
X124680000Y-90478077D03*
X122850000Y-88500000D03*
X98150000Y-117500000D03*
X123350000Y-97470000D03*
X124680000Y-100489615D03*
X101117500Y-92210000D03*
X101600000Y-114700000D03*
X125900000Y-115300000D03*
X100700000Y-114600000D03*
X124680000Y-89476923D03*
X111101600Y-85273300D03*
X113440000Y-99400000D03*
X114390000Y-108770000D03*
X117831600Y-78953300D03*
X122970000Y-100510000D03*
X111961600Y-85123300D03*
X109400000Y-115500000D03*
X112200000Y-79550000D03*
X106300000Y-95250000D03*
X120000000Y-115500000D03*
X114171600Y-81243300D03*
X112450000Y-100150000D03*
X116500000Y-115550000D03*
X104500000Y-115500000D03*
X120540000Y-107800000D03*
X107500000Y-114700000D03*
X123380000Y-98640000D03*
X129600000Y-114800000D03*
X112010000Y-108260000D03*
X123800000Y-114056539D03*
X110300000Y-115500000D03*
X120800000Y-86350000D03*
X113525000Y-110120000D03*
X132950000Y-112650000D03*
X120140000Y-102010000D03*
X114765000Y-101930000D03*
X123450000Y-93500000D03*
X121911600Y-78003300D03*
X107091600Y-97768740D03*
X122920000Y-105528846D03*
X124730000Y-110480000D03*
X124730000Y-111620000D03*
X106299478Y-91249478D03*
X130200000Y-115300000D03*
X110400000Y-114600000D03*
X115300000Y-114500000D03*
X98900000Y-117150000D03*
X104151600Y-86133300D03*
X103800000Y-114800000D03*
X111150000Y-78900000D03*
X113410000Y-100490000D03*
X113360000Y-103340000D03*
X123400000Y-114800000D03*
X121570000Y-104670000D03*
X99700000Y-114600000D03*
X124680000Y-93481538D03*
X121140000Y-112370000D03*
X117840000Y-109220000D03*
X121450000Y-115550000D03*
X124680000Y-101490769D03*
X114450000Y-114600000D03*
X98360000Y-90780000D03*
X115141600Y-82443300D03*
X104850000Y-114750000D03*
X120560000Y-108900000D03*
X120530000Y-97980000D03*
X121091600Y-78943300D03*
X123950000Y-98020000D03*
X105800000Y-114700000D03*
X123800000Y-112054231D03*
X99000000Y-115350000D03*
X101850000Y-88610000D03*
X115501600Y-78023300D03*
X98150000Y-115800000D03*
X97441600Y-86143300D03*
X120700000Y-115500000D03*
X112420000Y-103450000D03*
X103700000Y-115500000D03*
X119470000Y-110220000D03*
X114190000Y-99420000D03*
X132700000Y-111700000D03*
X108731600Y-83795700D03*
X120890000Y-111620000D03*
X124680000Y-103493077D03*
X115400000Y-115450000D03*
X118000000Y-114700000D03*
X132050000Y-112400000D03*
X121400000Y-114800000D03*
X123730000Y-110480000D03*
X110541600Y-87223300D03*
X100800000Y-80800000D03*
X122920000Y-103526539D03*
X122560000Y-99650000D03*
X113500000Y-74600000D03*
X124680000Y-102491923D03*
X119900000Y-114700000D03*
X105150000Y-87250000D03*
D38*
X96761550Y-90803480D03*
D37*
X108781600Y-85283300D03*
X114780000Y-100480000D03*
X111910000Y-110200000D03*
X122600000Y-109330000D03*
X120700000Y-114700000D03*
X121850000Y-88120000D03*
X115625000Y-92435000D03*
X107985000Y-97630000D03*
X99950000Y-115400000D03*
X123010000Y-106560000D03*
X118900000Y-114700000D03*
X115110000Y-108130000D03*
X114550000Y-115500000D03*
X123800000Y-113055385D03*
X106600000Y-88450000D03*
X124030000Y-107960000D03*
X116200000Y-114700000D03*
X113600000Y-115500000D03*
X124400000Y-114800000D03*
X98100000Y-114850000D03*
X98900000Y-114500000D03*
X103250000Y-88800000D03*
X123790000Y-101025385D03*
X124680000Y-92480385D03*
X113500000Y-114650000D03*
X111400000Y-115500000D03*
X108500000Y-115500000D03*
X121010000Y-105250000D03*
X116220000Y-100500000D03*
X123740000Y-88980000D03*
X132450000Y-113150000D03*
X98950000Y-116350000D03*
X121720000Y-113170000D03*
X109400000Y-94000000D03*
X121330000Y-114080000D03*
X123790000Y-100024231D03*
X121700000Y-111600000D03*
X113400000Y-102020000D03*
X101900000Y-115500000D03*
X124680000Y-88475769D03*
X119985000Y-107270000D03*
X122920000Y-104527693D03*
X130800000Y-114800000D03*
X108500000Y-114700000D03*
X122411600Y-80973300D03*
X123350000Y-115500000D03*
X98900000Y-117900000D03*
X129781800Y-96047600D03*
X117450000Y-115500000D03*
X114830000Y-103330000D03*
X122150000Y-104020000D03*
X105000000Y-94900000D03*
X102700000Y-114700000D03*
X112640000Y-99400000D03*
X124680000Y-108498846D03*
X122440000Y-107210000D03*
X119200000Y-115500000D03*
X107155000Y-91530000D03*
X116190000Y-103310000D03*
X117300000Y-89800000D03*
X109500000Y-114600000D03*
D38*
%TO.N,VBAT*%
X97331145Y-79770355D03*
X126799880Y-110348400D03*
X97964240Y-79137260D03*
X124719330Y-77793600D03*
X123876050Y-77793600D03*
X125613410Y-77793600D03*
X96479880Y-111148400D03*
X127069880Y-79588400D03*
X93322390Y-103481890D03*
X127319880Y-78598400D03*
X94591120Y-104750620D03*
X126679880Y-80508400D03*
X126811508Y-111667822D03*
X96684080Y-80417420D03*
X126811508Y-109480882D03*
X96109880Y-111998400D03*
X126811508Y-108623632D03*
X93952310Y-104111810D03*
X127939880Y-112978400D03*
D37*
%TO.N,VSYS*%
X105140000Y-92400000D03*
X119306600Y-84123300D03*
X108850000Y-89552400D03*
%TO.N,RX*%
X114543289Y-104421000D03*
%TO.N,IO0*%
X117365340Y-104400000D03*
%TO.N,IO9*%
X118752400Y-97845540D03*
X126006800Y-94750000D03*
%TO.N,USB_D-*%
X102850000Y-85400000D03*
%TO.N,5V*%
X106616600Y-83043300D03*
X113651600Y-79943300D03*
%TO.N,USB_D+*%
X106050000Y-80800000D03*
X101750000Y-85419082D03*
X104600000Y-80825000D03*
%TO.N,SPICS0*%
X107650000Y-106200000D03*
X107850000Y-100250000D03*
%TO.N,SPIQ*%
X104835000Y-108330000D03*
%TO.N,SPIWP*%
X107850000Y-99300000D03*
X105905000Y-108220000D03*
%TO.N,SPIHD*%
X104875000Y-101330000D03*
X107665000Y-98520000D03*
%TO.N,Net-(U1-U0TXD)*%
X114812600Y-106460777D03*
X113665000Y-108200000D03*
%TO.N,EN*%
X121507600Y-91730000D03*
X98135000Y-90000000D03*
%TO.N,IO8*%
X117250000Y-99350000D03*
X122600000Y-95800000D03*
%TO.N,IO10*%
X119740216Y-95840216D03*
X125837659Y-98862341D03*
%TO.N,IO12*%
X115850000Y-86200000D03*
%TO.N,IO21*%
X102850000Y-96600000D03*
D38*
X96187000Y-89487000D03*
D37*
%TO.N,Net-(U1-SPIQ)*%
X106450000Y-98850000D03*
%TO.N,IO38*%
X107025000Y-110275000D03*
X110548200Y-107027233D03*
%TD*%
%TO.N,VDD_CPU*%
D39*
X108280369Y-88800000D02*
X107903669Y-89176700D01*
X119491021Y-88800000D02*
X121481021Y-90790000D01*
X121792400Y-94600000D02*
X121792400Y-94492400D01*
X120605000Y-99500000D02*
X121475000Y-99500000D01*
D40*
X113367400Y-106187600D02*
X113695000Y-105860000D01*
D39*
X116775000Y-96851206D02*
X116434066Y-97192140D01*
D41*
X109341600Y-97091240D02*
X108804100Y-97091240D01*
X130650000Y-96600000D02*
X130900000Y-96350000D01*
D39*
X122260000Y-91550000D02*
X122260000Y-90790000D01*
X107308201Y-89176699D02*
X104834900Y-91650000D01*
D41*
X115818740Y-93468740D02*
X116742500Y-94392500D01*
D39*
X121481021Y-90790000D02*
X122260000Y-90790000D01*
D41*
X109441600Y-96818740D02*
X109214100Y-96591240D01*
D40*
X115083248Y-105807377D02*
X115135871Y-105860000D01*
X113070047Y-106482553D02*
X113365000Y-106187600D01*
X117005000Y-105860000D02*
X117445000Y-106300000D01*
D39*
X116742500Y-94392500D02*
X116535000Y-94600000D01*
X121792400Y-94492400D02*
X120800000Y-93500000D01*
D40*
X114489329Y-105860000D02*
X114541952Y-105807377D01*
D39*
X116535000Y-95100000D02*
X116775000Y-95340000D01*
D41*
X125450000Y-95950000D02*
X126100000Y-96600000D01*
D39*
X107903669Y-89176700D02*
X107308201Y-89176699D01*
X116535000Y-94600000D02*
X116535000Y-95100000D01*
X119795000Y-100260000D02*
X119845000Y-100260000D01*
D41*
X113211600Y-93468740D02*
X115818740Y-93468740D01*
D40*
X115135871Y-105860000D02*
X117005000Y-105860000D01*
D39*
X122260000Y-91550000D02*
X126650000Y-91550000D01*
X109842832Y-88800000D02*
X108280369Y-88800000D01*
X116775000Y-95340000D02*
X116775000Y-96851206D01*
X119491021Y-88800000D02*
X118349999Y-88800000D01*
X109846231Y-88803399D02*
X109842832Y-88800000D01*
D41*
X109441600Y-96818740D02*
X109441600Y-96655000D01*
D40*
X114541952Y-105807377D02*
X115083248Y-105807377D01*
D39*
X118332399Y-105082400D02*
X118332399Y-101722601D01*
D41*
X108789460Y-97076600D02*
X105798400Y-97076600D01*
D39*
X104834900Y-91650000D02*
X102462500Y-91650000D01*
D40*
X113365000Y-106187600D02*
X113367400Y-106187600D01*
D39*
X119845000Y-100260000D02*
X120605000Y-99500000D01*
D40*
X113070047Y-106566165D02*
X113070047Y-106482553D01*
D39*
X118346599Y-88803400D02*
X109846231Y-88803399D01*
X116434066Y-97192140D02*
X115519540Y-97192140D01*
D41*
X109441600Y-97191240D02*
X109441600Y-96818740D01*
X125440000Y-95950000D02*
X125450000Y-95950000D01*
D40*
X113695000Y-105860000D02*
X114489329Y-105860000D01*
D41*
X108804100Y-97091240D02*
X108789460Y-97076600D01*
X105798400Y-97076600D02*
X105375000Y-97500000D01*
D39*
X118332399Y-101722601D02*
X119795000Y-100260000D01*
X115519540Y-97192140D02*
X115517400Y-97190000D01*
D41*
X109441600Y-98503740D02*
X109441600Y-97191240D01*
D40*
X112928611Y-106707601D02*
X113070047Y-106566165D01*
D39*
X121792400Y-94600000D02*
X121840000Y-94600000D01*
X117635000Y-93500000D02*
X116742500Y-94392500D01*
D41*
X109214100Y-96591240D02*
X108804100Y-96591240D01*
X109441600Y-97191240D02*
X109341600Y-97091240D01*
D39*
X120800000Y-93500000D02*
X117635000Y-93500000D01*
X121840000Y-94600000D02*
X122260000Y-94180000D01*
D41*
X109441600Y-96655000D02*
X110000000Y-96096600D01*
D39*
X118349999Y-88800000D02*
X118346599Y-88803400D01*
D41*
X126100000Y-96600000D02*
X130650000Y-96600000D01*
D39*
X122260000Y-94180000D02*
X122260000Y-91550000D01*
%TO.N,GND*%
D41*
X101700000Y-80800000D02*
X101900000Y-80600000D01*
D40*
X108780000Y-79585000D02*
X109420000Y-78945000D01*
D42*
X100800000Y-80800000D02*
X101700000Y-80800000D01*
D41*
X112200000Y-79550000D02*
X112271600Y-79621600D01*
D40*
X108300000Y-79585000D02*
X108780000Y-79585000D01*
D42*
X101900000Y-80600000D02*
X101900000Y-79585000D01*
%TO.N,VBAT*%
D43*
X94591120Y-109341670D02*
X94591120Y-104750620D01*
X96684080Y-80417420D02*
X96684080Y-80369160D01*
X98707190Y-78426060D02*
X100906850Y-76226400D01*
X93952310Y-104111810D02*
X94591120Y-104750620D01*
D44*
X128326149Y-115415129D02*
X128326149Y-113516179D01*
D39*
X109461600Y-86853300D02*
X109461600Y-87353300D01*
D44*
X129019550Y-105888540D02*
X126794510Y-108113580D01*
X126794510Y-110343030D02*
X126799880Y-110348400D01*
D39*
X109461600Y-87353300D02*
X110158300Y-88050000D01*
D44*
X131505510Y-118594490D02*
X128326149Y-115415129D01*
D45*
X93322390Y-103481890D02*
X90248600Y-100408100D01*
D43*
X90557919Y-93485000D02*
X91760000Y-93485000D01*
D39*
X126616290Y-81779710D02*
X126629880Y-81793300D01*
D43*
X90248600Y-100408100D02*
X90248600Y-93794319D01*
X97331145Y-79770355D02*
X96684080Y-80417420D01*
D44*
X126811508Y-112001538D02*
X128158490Y-113348520D01*
D43*
X96094800Y-110845350D02*
X94591120Y-109341670D01*
D41*
X114111600Y-84083300D02*
X114421600Y-83773300D01*
X109961600Y-86193300D02*
X109934100Y-86220800D01*
D43*
X96094800Y-112043480D02*
X96094800Y-112013480D01*
X96094800Y-112013480D02*
X96109880Y-111998400D01*
D39*
X118034531Y-88050000D02*
X120487931Y-85596600D01*
X109934100Y-86220800D02*
X109934100Y-86380800D01*
D43*
X126811508Y-111667822D02*
X126811508Y-112001538D01*
D39*
X112761600Y-83773300D02*
X112751600Y-83783300D01*
X125920290Y-81779710D02*
X126616290Y-81779710D01*
D44*
X126799880Y-110348400D02*
X126794510Y-110353770D01*
D43*
X96109880Y-111998400D02*
X96094800Y-111983320D01*
D44*
X126629880Y-81793300D02*
X132312660Y-87476080D01*
D43*
X99023420Y-78742290D02*
X99023420Y-78967080D01*
D44*
X126794510Y-108113580D02*
X126794510Y-110343030D01*
X126629880Y-79868310D02*
X126629880Y-81793300D01*
D43*
X95527110Y-105085012D02*
X95527110Y-109053380D01*
D44*
X127739390Y-78758800D02*
X126629880Y-79868310D01*
D43*
X95066100Y-103859080D02*
X95066100Y-104624002D01*
D39*
X113821600Y-86203300D02*
X113821600Y-84373300D01*
D44*
X132312660Y-98274890D02*
X129019550Y-101568000D01*
D39*
X114421600Y-83773300D02*
X112761600Y-83773300D01*
D43*
X126515080Y-77793600D02*
X127319880Y-78598400D01*
X99023420Y-78967080D02*
X93294450Y-84696050D01*
X96094800Y-111983320D02*
X96094800Y-110845350D01*
D45*
X122308850Y-76226400D02*
X123876050Y-77793600D01*
D43*
X98675440Y-78426060D02*
X97964240Y-79137260D01*
D39*
X122103400Y-85596600D02*
X125920290Y-81779710D01*
D43*
X125613410Y-77793600D02*
X126515080Y-77793600D01*
D39*
X111466600Y-86223300D02*
X109891600Y-86223300D01*
D43*
X96880930Y-111257350D02*
X96094800Y-112043480D01*
X95066100Y-104624002D02*
X95527110Y-105085012D01*
D41*
X113794100Y-86230800D02*
X113821600Y-86203300D01*
D43*
X93294450Y-102087430D02*
X95066100Y-103859080D01*
D44*
X126794510Y-110353770D02*
X126794510Y-111590840D01*
D43*
X95527110Y-109053380D02*
X96880930Y-110407200D01*
X98707190Y-78426060D02*
X98675440Y-78426060D01*
X95066100Y-103859080D02*
X95066100Y-104275640D01*
X90248600Y-93794319D02*
X90557919Y-93485000D01*
D39*
X120487931Y-85596600D02*
X122103400Y-85596600D01*
D43*
X96880930Y-110407200D02*
X96880930Y-111257350D01*
D39*
X114331600Y-83863300D02*
X114421600Y-83773300D01*
D45*
X111550000Y-76226400D02*
X122308850Y-76226400D01*
D43*
X100906850Y-76226400D02*
X111550000Y-76226400D01*
X95066100Y-104275640D02*
X94591120Y-104750620D01*
D45*
X91760000Y-85341500D02*
X91760000Y-93485000D01*
X123876050Y-77793600D02*
X125613410Y-77793600D01*
D43*
X97964240Y-79137260D02*
X97331145Y-79770355D01*
D39*
X111469100Y-86230800D02*
X113794100Y-86230800D01*
D43*
X93322390Y-103481890D02*
X93952310Y-104111810D01*
D39*
X113821600Y-84373300D02*
X114331600Y-83863300D01*
D43*
X99023420Y-78742290D02*
X98707190Y-78426060D01*
D44*
X129019550Y-101568000D02*
X129019550Y-105888540D01*
X132312660Y-87476080D02*
X132312660Y-98274890D01*
D45*
X96684080Y-80417420D02*
X91760000Y-85341500D01*
D39*
X110158300Y-88050000D02*
X118034531Y-88050000D01*
X109934100Y-86380800D02*
X109461600Y-86853300D01*
%TO.N,VSYS*%
X107350000Y-92400000D02*
X108850000Y-90900000D01*
X105140000Y-92400000D02*
X107350000Y-92400000D01*
D41*
X118706600Y-84723300D02*
X119306600Y-84123300D01*
D39*
X116296600Y-84723300D02*
X118706600Y-84723300D01*
X119306600Y-84123300D02*
X119316600Y-84113300D01*
X108850000Y-90900000D02*
X108850000Y-89552400D01*
D41*
X119306600Y-84123300D02*
X119306600Y-85198300D01*
%TO.N,RX*%
X94300000Y-96025000D02*
X94300000Y-100400000D01*
X113375000Y-104420000D02*
X113849907Y-104420000D01*
X103563400Y-109663400D02*
X106891600Y-109663400D01*
X94300000Y-100400000D02*
X94400000Y-100500000D01*
X106891600Y-109663400D02*
X111095000Y-105460000D01*
X94400000Y-100500000D02*
X103563400Y-109663400D01*
X111095000Y-105460000D02*
X112335000Y-105460000D01*
X113850907Y-104421000D02*
X114543289Y-104421000D01*
X112335000Y-105460000D02*
X113375000Y-104420000D01*
X113849907Y-104420000D02*
X113850907Y-104421000D01*
%TO.N,IO0*%
X93964556Y-94800000D02*
X95525000Y-94800000D01*
X117535000Y-104569660D02*
X117535000Y-105090000D01*
X103700000Y-111000000D02*
X93196600Y-100496600D01*
X118385000Y-106360000D02*
X118841600Y-106816600D01*
X117365340Y-104400000D02*
X117535000Y-104569660D01*
X118841600Y-109250000D02*
X117091600Y-111000000D01*
X95525000Y-94800000D02*
X96840000Y-93485000D01*
X118385000Y-105940000D02*
X118385000Y-106360000D01*
X117535000Y-105090000D02*
X118385000Y-105940000D01*
X93196600Y-100496600D02*
X93196600Y-95567956D01*
X117091600Y-111000000D02*
X103700000Y-111000000D01*
X118841600Y-106816600D02*
X118841600Y-109250000D01*
X93196600Y-95567956D02*
X93964556Y-94800000D01*
%TO.N,IO9*%
X125720708Y-95036092D02*
X126006800Y-94750000D01*
X118554460Y-97845540D02*
X118454460Y-97745540D01*
X124200000Y-94900000D02*
X124336092Y-95036092D01*
X117817626Y-94100000D02*
X120509774Y-94100000D01*
X121684779Y-95275005D02*
X122416600Y-95275005D01*
X120509774Y-94100000D02*
X121684779Y-95275005D01*
X117500000Y-94417626D02*
X117817626Y-94100000D01*
X113733400Y-97745540D02*
X113579100Y-97591240D01*
X122791605Y-94900000D02*
X124200000Y-94900000D01*
X124336092Y-95036092D02*
X125720708Y-95036092D01*
X118752400Y-97845540D02*
X118554460Y-97845540D01*
X118454460Y-97745540D02*
X118450000Y-97745540D01*
X118450000Y-97745540D02*
X113733400Y-97745540D01*
X118450000Y-97745540D02*
X117500000Y-96795540D01*
X117500000Y-96795540D02*
X117500000Y-94417626D01*
X122416600Y-95275005D02*
X122791605Y-94900000D01*
%TO.N,USB_D-*%
X102850000Y-82868198D02*
X102850000Y-83840000D01*
X105350000Y-80085000D02*
X105375000Y-80110000D01*
X104350000Y-78935001D02*
X104350000Y-79585000D01*
X105325000Y-79610000D02*
X105325000Y-79689985D01*
X105350000Y-79585000D02*
X105350000Y-80085000D01*
X105350000Y-79585000D02*
X105325000Y-79610000D01*
X105350000Y-78968494D02*
X105063106Y-78681600D01*
X104603401Y-78681600D02*
X104350000Y-78935001D01*
D46*
X102850000Y-85400000D02*
X102850000Y-84860000D01*
D41*
X105325000Y-81094390D02*
X103996010Y-82423380D01*
X103294818Y-82423380D02*
X102850000Y-82868198D01*
X103996010Y-82423380D02*
X103294818Y-82423380D01*
X105350000Y-80085000D02*
X105325000Y-80110000D01*
X105063106Y-78681600D02*
X104603401Y-78681600D01*
X105350000Y-79585000D02*
X105350000Y-78968494D01*
X105325000Y-80110000D02*
X105325000Y-81094390D01*
%TO.N,5V*%
D39*
X105824100Y-84293300D02*
X105966600Y-84435800D01*
D41*
X119486600Y-79943300D02*
X119306600Y-80123300D01*
D39*
X112818200Y-80776700D02*
X113651600Y-79943300D01*
X119126600Y-79943300D02*
X119306600Y-80123300D01*
X119306600Y-80723300D02*
X119306600Y-80123300D01*
X117206600Y-82823300D02*
X119306600Y-80723300D01*
X104035001Y-77600000D02*
X106164999Y-77600000D01*
X113651600Y-79943300D02*
X119126600Y-79943300D01*
X105824100Y-83835800D02*
X105824100Y-84293300D01*
D41*
X107500000Y-78935001D02*
X107500000Y-79585000D01*
D39*
X105966600Y-86103300D02*
X106076600Y-86213300D01*
X112818200Y-80776700D02*
X109126700Y-80776700D01*
X105966600Y-84435800D02*
X105966600Y-86103300D01*
X116296600Y-82823300D02*
X117206600Y-82823300D01*
X116241600Y-81273300D02*
X116241600Y-82768300D01*
D47*
X102700000Y-78935001D02*
X103585001Y-78050000D01*
X108041701Y-80776700D02*
X109126700Y-80776700D01*
D41*
X107651600Y-86213300D02*
X107659100Y-86220800D01*
D39*
X106076600Y-86213300D02*
X107651600Y-86213300D01*
D41*
X107500000Y-79585000D02*
X107500000Y-80234999D01*
D39*
X103585001Y-78050000D02*
X104035001Y-77600000D01*
D41*
X116241600Y-82768300D02*
X116296600Y-82823300D01*
D47*
X107500000Y-80234999D02*
X108041701Y-80776700D01*
D39*
X106616600Y-83043300D02*
X105824100Y-83835800D01*
X121896600Y-79943300D02*
X119486600Y-79943300D01*
X106164999Y-77600000D02*
X106614999Y-78050000D01*
D41*
X102700000Y-79585000D02*
X102700000Y-78935001D01*
D47*
X106614999Y-78050000D02*
X107500000Y-78935001D01*
%TO.N,USB_D+*%
D41*
X105850000Y-80085000D02*
X105825000Y-80110000D01*
X105850000Y-79585000D02*
X105850000Y-80085000D01*
X102840901Y-82240901D02*
X103108402Y-81973400D01*
X104850000Y-80085000D02*
X104850000Y-79585000D01*
X104850000Y-79585000D02*
X104875000Y-79610000D01*
X104875000Y-79610000D02*
X104875000Y-79689985D01*
X106050000Y-80800000D02*
X105850000Y-80600000D01*
X104875000Y-80110000D02*
X104850000Y-80085000D01*
X101750000Y-83830000D02*
X101750000Y-83331802D01*
X104875000Y-80908022D02*
X104875000Y-80110000D01*
X105850000Y-80600000D02*
X105850000Y-79585000D01*
X103809622Y-81973400D02*
X104875000Y-80908022D01*
D46*
X101750000Y-85419082D02*
X101750000Y-84850000D01*
D41*
X101750000Y-83331802D02*
X102840901Y-82240901D01*
X103108402Y-81973400D02*
X103809622Y-81973400D01*
%TO.N,SPICS0*%
X107036600Y-105386600D02*
X107036600Y-100763166D01*
X107549766Y-100250000D02*
X107850000Y-100250000D01*
X107650000Y-106000000D02*
X107036600Y-105386600D01*
X107036600Y-100763166D02*
X107549766Y-100250000D01*
X107650000Y-106200000D02*
X107650000Y-106000000D01*
%TO.N,SPIQ*%
X104039376Y-99660624D02*
X104039376Y-102224376D01*
X104835000Y-103020000D02*
X104835000Y-108330000D01*
X104107500Y-102292500D02*
X104835000Y-103020000D01*
X104039376Y-102224376D02*
X104107500Y-102292500D01*
%TO.N,SPIWP*%
X106055000Y-100945000D02*
X106055000Y-108070000D01*
X107320000Y-99830000D02*
X107170000Y-99830000D01*
X106055000Y-108070000D02*
X105905000Y-108220000D01*
X107170000Y-99830000D02*
X106055000Y-100945000D01*
X107850000Y-99300000D02*
X107320000Y-99830000D01*
%TO.N,SPIHD*%
X105095000Y-101110000D02*
X105095000Y-101090000D01*
X105095000Y-101090000D02*
X107665000Y-98520000D01*
X104875000Y-101330000D02*
X105095000Y-101110000D01*
%TO.N,Net-(U1-U0TXD)*%
X113665000Y-108200000D02*
X113665000Y-108010000D01*
X114818177Y-106460777D02*
X114812600Y-106460777D01*
X114848400Y-106826600D02*
X114848400Y-106491000D01*
X113665000Y-108010000D02*
X114848400Y-106826600D01*
X114848400Y-106491000D02*
X114818177Y-106460777D01*
%TO.N,EN*%
X109600000Y-91600000D02*
X109600000Y-90687374D01*
X111934346Y-90200000D02*
X116800000Y-90200000D01*
X102740126Y-93050000D02*
X108150000Y-93050000D01*
X98135000Y-90000000D02*
X99690126Y-90000000D01*
X118330000Y-91730000D02*
X121507600Y-91730000D01*
X121507600Y-91730000D02*
X121486600Y-91709000D01*
X110320774Y-89966600D02*
X111700946Y-89966600D01*
X109600000Y-90687374D02*
X110320774Y-89966600D01*
X99690126Y-90000000D02*
X102740126Y-93050000D01*
X121486600Y-91709000D02*
X121249000Y-91709000D01*
X111700946Y-89966600D02*
X111934346Y-90200000D01*
X116800000Y-90200000D02*
X118330000Y-91730000D01*
X108150000Y-93050000D02*
X109600000Y-91600000D01*
%TO.N,IO8*%
X120250000Y-94950000D02*
X119150000Y-94950000D01*
X115852626Y-99350000D02*
X115006366Y-98503740D01*
X119353400Y-97174784D02*
X119353400Y-98763790D01*
X119150000Y-94950000D02*
X118600000Y-95500000D01*
X118600000Y-95500000D02*
X118600000Y-96421384D01*
X122500000Y-95900000D02*
X121200000Y-95900000D01*
X121200000Y-95900000D02*
X120250000Y-94950000D01*
X122600000Y-95800000D02*
X122700000Y-95700000D01*
X119353400Y-98763790D02*
X118767190Y-99350000D01*
X115006366Y-98503740D02*
X113441600Y-98503740D01*
X118767190Y-99350000D02*
X117250000Y-99350000D01*
X117250000Y-99350000D02*
X115852626Y-99350000D01*
X122600000Y-95800000D02*
X122500000Y-95900000D01*
X118600000Y-96421384D02*
X119353400Y-97174784D01*
X117340189Y-99440189D02*
X117250000Y-99350000D01*
%TO.N,IO10*%
X125837659Y-98862341D02*
X125900000Y-98924682D01*
X119740216Y-95840216D02*
X120449939Y-96549939D01*
X120449939Y-96549939D02*
X123525257Y-96549939D01*
X123525257Y-96549939D02*
X125837659Y-98862341D01*
%TO.N,IO12*%
X115671600Y-86393300D02*
X115851600Y-86213300D01*
X114841600Y-86203300D02*
X115841600Y-86203300D01*
X115841600Y-86203300D02*
X115851600Y-86213300D01*
%TO.N,IO21*%
X97581600Y-91331600D02*
X102850000Y-96600000D01*
X97150000Y-90000000D02*
X97581600Y-90431600D01*
X96700000Y-90000000D02*
X97150000Y-90000000D01*
X97581600Y-90431600D02*
X97581600Y-91331600D01*
X96187000Y-89487000D02*
X96700000Y-90000000D01*
%TO.N,Net-(U1-SPIQ)*%
X106360624Y-98939376D02*
X106450000Y-98850000D01*
X104760624Y-98939376D02*
X106360624Y-98939376D01*
%TO.N,IO38*%
X107025000Y-110275000D02*
X107300432Y-110275000D01*
X107300432Y-110275000D02*
X110548200Y-107027233D01*
X107025000Y-110275000D02*
X107000000Y-110300000D01*
%TO.N,Net-(U4-COM3)*%
X114859100Y-96591240D02*
X115031600Y-96418740D01*
X113579100Y-96591240D02*
X114859100Y-96591240D01*
%TO.N,Net-(U4-PS1)*%
X108920000Y-96097600D02*
X108920000Y-96032400D01*
X108857600Y-95970000D02*
X107435000Y-95970000D01*
X107304100Y-96091240D02*
X107291600Y-96078740D01*
X108920000Y-96032400D02*
X108857600Y-95970000D01*
%TO.N,Net-(U4-XIN32)*%
X107600000Y-101070000D02*
X108640340Y-101070000D01*
X109941600Y-98503740D02*
X109941600Y-99768740D01*
X109941600Y-99768740D02*
X108941600Y-100768740D01*
X108640340Y-101070000D02*
X108941600Y-100768740D01*
%TO.N,Net-(U3-PROG)*%
X107941600Y-84038300D02*
X107659100Y-84320800D01*
X107941600Y-83553300D02*
X107941600Y-84038300D01*
X108246600Y-83248300D02*
X107941600Y-83553300D01*
X108246600Y-82783300D02*
X108246600Y-83248300D01*
%TO.N,Net-(J1-CC1)*%
X103850000Y-79585000D02*
X103850000Y-81060000D01*
X103850000Y-81060000D02*
X103510000Y-81400000D01*
%TO.N,Net-(J1-CC2)*%
X106850000Y-79585000D02*
X106850000Y-81120000D01*
X106850000Y-81120000D02*
X107130000Y-81400000D01*
%TO.N,Net-(U4-XOUT32)*%
X110441600Y-99768740D02*
X111441600Y-100768740D01*
X111571600Y-100888740D02*
X111191600Y-101268740D01*
X109539411Y-102710589D02*
X111441600Y-100808400D01*
X111435000Y-101287662D02*
X111148831Y-101573831D01*
X110441600Y-98503740D02*
X110441600Y-99768740D01*
X111441600Y-100808400D02*
X111441600Y-100768740D01*
%TO.N,Net-(D1-K)*%
X104249100Y-84293300D02*
X104249100Y-83710800D01*
X110271600Y-82063300D02*
X111449100Y-83240800D01*
X104249100Y-83710800D02*
X105896600Y-82063300D01*
X105896600Y-82063300D02*
X110271600Y-82063300D01*
%TO.N,Net-(U4-~{RESET})*%
X111441600Y-94208740D02*
X111441600Y-95178740D01*
X111441600Y-94208740D02*
X111451600Y-94208740D01*
X111451600Y-94208740D02*
X112191600Y-93468740D01*
%TO.N,Net-(U4-PS0)*%
X108941600Y-94531600D02*
X108410000Y-94000000D01*
X108941600Y-95178740D02*
X108941600Y-94531600D01*
%TO.N,Net-(U3-STAT)*%
X109981600Y-84273300D02*
X109934100Y-84320800D01*
X111426600Y-84273300D02*
X109981600Y-84273300D01*
%TO.N,Net-(U4-CAP)*%
X110441600Y-95178740D02*
X110441600Y-92993740D01*
X110441600Y-92993740D02*
X110491600Y-92943740D01*
%TD*%
%TA.AperFunction,Conductor*%
%TO.N,GND*%
G36*
X95125826Y-73647884D02*
G01*
X95141579Y-73654410D01*
X95141586Y-73654410D01*
X95144136Y-73654918D01*
X95144140Y-73654919D01*
X95145369Y-73655163D01*
X95145708Y-73655188D01*
X95148284Y-73655561D01*
X95148286Y-73655562D01*
X95148287Y-73655561D01*
X95148288Y-73655562D01*
X95168307Y-73654513D01*
X95172243Y-73654410D01*
X99983514Y-73654410D01*
X100031852Y-73672003D01*
X100057572Y-73716552D01*
X100048639Y-73767210D01*
X100036688Y-73782784D01*
X99997039Y-73822432D01*
X99997037Y-73822435D01*
X99886721Y-73987534D01*
X99810738Y-74170973D01*
X99810737Y-74170974D01*
X99772000Y-74365720D01*
X99772000Y-74511000D01*
X100480000Y-74511000D01*
X100480000Y-75019000D01*
X99772000Y-75019000D01*
X99772000Y-75164279D01*
X99810737Y-75359025D01*
X99810738Y-75359026D01*
X99886721Y-75542465D01*
X99997037Y-75707564D01*
X99997039Y-75707567D01*
X100137432Y-75847960D01*
X100137439Y-75847965D01*
X100189048Y-75882449D01*
X100219465Y-75923932D01*
X100216102Y-75975262D01*
X100200444Y-75998150D01*
X98355063Y-77843531D01*
X98343669Y-77852883D01*
X98254140Y-77912705D01*
X98254135Y-77912709D01*
X97542941Y-78623905D01*
X96909846Y-79256999D01*
X96909846Y-79257000D01*
X96555375Y-79611469D01*
X96516872Y-79632049D01*
X96449886Y-79645373D01*
X96449883Y-79645374D01*
X96303765Y-79705898D01*
X96172255Y-79793770D01*
X96172254Y-79793771D01*
X92049451Y-83916577D01*
X91248181Y-84717847D01*
X91205135Y-84760893D01*
X91136346Y-84829681D01*
X91136343Y-84829684D01*
X91048480Y-84961181D01*
X90987956Y-85107299D01*
X90987955Y-85107301D01*
X90957100Y-85262420D01*
X90957100Y-92748900D01*
X90939507Y-92797238D01*
X90894958Y-92822958D01*
X90881900Y-92824100D01*
X90492823Y-92824100D01*
X90384296Y-92845687D01*
X90384296Y-92845688D01*
X90365142Y-92849498D01*
X90365141Y-92849498D01*
X90365138Y-92849499D01*
X90244866Y-92899317D01*
X90136618Y-92971646D01*
X90112425Y-92995840D01*
X90044564Y-93063701D01*
X90044562Y-93063702D01*
X90044557Y-93063706D01*
X89735249Y-93373014D01*
X89735247Y-93373017D01*
X89662917Y-93481266D01*
X89613099Y-93601538D01*
X89613098Y-93601540D01*
X89587700Y-93729225D01*
X89587700Y-99929211D01*
X89575027Y-99970989D01*
X89537079Y-100027782D01*
X89476556Y-100173899D01*
X89476555Y-100173901D01*
X89445700Y-100329020D01*
X89445700Y-100487179D01*
X89476555Y-100642298D01*
X89476556Y-100642300D01*
X89537080Y-100788418D01*
X89624943Y-100919915D01*
X89624951Y-100919924D01*
X92810566Y-104105539D01*
X92810569Y-104105541D01*
X92810572Y-104105544D01*
X92942074Y-104193411D01*
X93088193Y-104253936D01*
X93155183Y-104267260D01*
X93193686Y-104287840D01*
X93436323Y-104530476D01*
X93436344Y-104530499D01*
X93908194Y-105002348D01*
X93929934Y-105048968D01*
X93930220Y-105055522D01*
X93930220Y-109406763D01*
X93941684Y-109464399D01*
X93955618Y-109534447D01*
X94005438Y-109654724D01*
X94077765Y-109762969D01*
X94077767Y-109762971D01*
X94077769Y-109762974D01*
X95411874Y-111097078D01*
X95433614Y-111143698D01*
X95433900Y-111150252D01*
X95433900Y-112108573D01*
X95459298Y-112236258D01*
X95459299Y-112236260D01*
X95472614Y-112268406D01*
X95509118Y-112356534D01*
X95581445Y-112464779D01*
X95581447Y-112464781D01*
X95581449Y-112464784D01*
X95673495Y-112556830D01*
X95673498Y-112556832D01*
X95673501Y-112556835D01*
X95781746Y-112629162D01*
X95902023Y-112678982D01*
X95998001Y-112698073D01*
X96029706Y-112704380D01*
X96029707Y-112704380D01*
X96159894Y-112704380D01*
X96185292Y-112699327D01*
X96287577Y-112678982D01*
X96407854Y-112629162D01*
X96516099Y-112556835D01*
X97394285Y-111678649D01*
X97466612Y-111570404D01*
X97516433Y-111450127D01*
X97541830Y-111322443D01*
X97541830Y-111192256D01*
X97541830Y-110342107D01*
X97538488Y-110325305D01*
X97516433Y-110214423D01*
X97466612Y-110094146D01*
X97394285Y-109985901D01*
X97394282Y-109985898D01*
X97394280Y-109985895D01*
X96210036Y-108801651D01*
X96188296Y-108755031D01*
X96188010Y-108748477D01*
X96188010Y-105019918D01*
X96178805Y-104973641D01*
X96178805Y-104973640D01*
X96162613Y-104892235D01*
X96112792Y-104771958D01*
X96040465Y-104663713D01*
X96040462Y-104663710D01*
X96040460Y-104663707D01*
X95749026Y-104372273D01*
X95727286Y-104325653D01*
X95727000Y-104319099D01*
X95727000Y-103793986D01*
X95722690Y-103772321D01*
X95722690Y-103772320D01*
X95701601Y-103666300D01*
X95701600Y-103666299D01*
X95680244Y-103614740D01*
X95651782Y-103546027D01*
X95651782Y-103546026D01*
X95599553Y-103467860D01*
X95587328Y-103417896D01*
X95610079Y-103371761D01*
X95657163Y-103351044D01*
X95706548Y-103365438D01*
X95715253Y-103372907D01*
X99604765Y-107262420D01*
X103481308Y-111138963D01*
X103481321Y-111138978D01*
X103556740Y-111214397D01*
X103556741Y-111214397D01*
X103556743Y-111214399D01*
X103583283Y-111225392D01*
X103649695Y-111252901D01*
X103649696Y-111252901D01*
X103759057Y-111252901D01*
X103759065Y-111252900D01*
X117032535Y-111252900D01*
X117032543Y-111252901D01*
X117041295Y-111252901D01*
X117141905Y-111252901D01*
X117188715Y-111233511D01*
X117234857Y-111214399D01*
X117305999Y-111143257D01*
X117313220Y-111136036D01*
X117313229Y-111136023D01*
X118977623Y-109471629D01*
X118977636Y-109471620D01*
X119055998Y-109393258D01*
X119055999Y-109393257D01*
X119091729Y-109306996D01*
X119094501Y-109300305D01*
X119094501Y-109199695D01*
X119094500Y-109199692D01*
X119094500Y-106875665D01*
X119094501Y-106875656D01*
X119094501Y-106766294D01*
X119094500Y-106766293D01*
X119072705Y-106713677D01*
X119055999Y-106673343D01*
X119055997Y-106673341D01*
X119055997Y-106673340D01*
X118980580Y-106597923D01*
X118980560Y-106597906D01*
X118659926Y-106277272D01*
X118638186Y-106230652D01*
X118637900Y-106224098D01*
X118637900Y-105999065D01*
X118637901Y-105999056D01*
X118637901Y-105889696D01*
X118633041Y-105877964D01*
X118600541Y-105799500D01*
X118600541Y-105799499D01*
X118599400Y-105796744D01*
X118599397Y-105796740D01*
X118523978Y-105721321D01*
X118523963Y-105721308D01*
X118441481Y-105638826D01*
X118419741Y-105592206D01*
X118433055Y-105542519D01*
X118475188Y-105513016D01*
X118507212Y-105504436D01*
X118610486Y-105444810D01*
X118694809Y-105360487D01*
X118754435Y-105257213D01*
X118785299Y-105142025D01*
X118785299Y-101941346D01*
X118802892Y-101893008D01*
X118807325Y-101888172D01*
X119394368Y-101301129D01*
X119998394Y-100697102D01*
X120016020Y-100685328D01*
X120015543Y-100684501D01*
X120019812Y-100682036D01*
X120019813Y-100682036D01*
X120123087Y-100622410D01*
X120428226Y-100317271D01*
X120770572Y-99974926D01*
X120817192Y-99953186D01*
X120823746Y-99952900D01*
X121293511Y-99952900D01*
X121312973Y-99955461D01*
X121415375Y-99982900D01*
X121415377Y-99982900D01*
X121534622Y-99982900D01*
X121534625Y-99982900D01*
X121649813Y-99952036D01*
X121753087Y-99892410D01*
X121837410Y-99808087D01*
X121897036Y-99704813D01*
X121927900Y-99589625D01*
X121927900Y-99470375D01*
X121927900Y-99440375D01*
X121897036Y-99325187D01*
X121885945Y-99305977D01*
X121837410Y-99221912D01*
X121753087Y-99137589D01*
X121649813Y-99077964D01*
X121534625Y-99047100D01*
X120664625Y-99047100D01*
X120545374Y-99047100D01*
X120487780Y-99062532D01*
X120430184Y-99077964D01*
X120326911Y-99137589D01*
X119641606Y-99822895D01*
X119623980Y-99834678D01*
X119624455Y-99835500D01*
X119516911Y-99897589D01*
X118293669Y-101120834D01*
X118054312Y-101360191D01*
X118024881Y-101389622D01*
X117969987Y-101444515D01*
X117910363Y-101547786D01*
X117910363Y-101547787D01*
X117903319Y-101574077D01*
X117879499Y-101662976D01*
X117879499Y-101662978D01*
X117879499Y-104104098D01*
X117861906Y-104152436D01*
X117817357Y-104178156D01*
X117766699Y-104169223D01*
X117739174Y-104141699D01*
X117727749Y-104121911D01*
X117643427Y-104037589D01*
X117540153Y-103977964D01*
X117424965Y-103947100D01*
X117305715Y-103947100D01*
X117227341Y-103968100D01*
X117190526Y-103977964D01*
X117190525Y-103977964D01*
X117087252Y-104037589D01*
X117002929Y-104121912D01*
X116943304Y-104225185D01*
X116943304Y-104225186D01*
X116943304Y-104225187D01*
X116912440Y-104340375D01*
X116912440Y-104459625D01*
X116932129Y-104533106D01*
X116943304Y-104574813D01*
X116943304Y-104574814D01*
X117002929Y-104678087D01*
X117087252Y-104762410D01*
X117087251Y-104762410D01*
X117190519Y-104822032D01*
X117190523Y-104822034D01*
X117190527Y-104822036D01*
X117226363Y-104831637D01*
X117234598Y-104837403D01*
X117244500Y-104839150D01*
X117255052Y-104851725D01*
X117268499Y-104861141D01*
X117271837Y-104871729D01*
X117277565Y-104878555D01*
X117282100Y-104904275D01*
X117282100Y-105033626D01*
X117282099Y-105033640D01*
X117282099Y-105039695D01*
X117282099Y-105140305D01*
X117295312Y-105172202D01*
X117320601Y-105233258D01*
X117397928Y-105310585D01*
X117397941Y-105310595D01*
X118110074Y-106022728D01*
X118131814Y-106069348D01*
X118132100Y-106075902D01*
X118132100Y-106303626D01*
X118132099Y-106303640D01*
X118132099Y-106309695D01*
X118132099Y-106410305D01*
X118146849Y-106445913D01*
X118170601Y-106503258D01*
X118247928Y-106580585D01*
X118247941Y-106580595D01*
X118566674Y-106899328D01*
X118588414Y-106945948D01*
X118588700Y-106952502D01*
X118588700Y-109114098D01*
X118571107Y-109162436D01*
X118566674Y-109167272D01*
X117008872Y-110725074D01*
X116962252Y-110746814D01*
X116955698Y-110747100D01*
X107374946Y-110747100D01*
X107356354Y-110740333D01*
X107336893Y-110736762D01*
X107332736Y-110731737D01*
X107326608Y-110729507D01*
X107316713Y-110712369D01*
X107304104Y-110697127D01*
X107304149Y-110690606D01*
X107300888Y-110684958D01*
X107304324Y-110665471D01*
X107304462Y-110645689D01*
X107309081Y-110638493D01*
X107309821Y-110634300D01*
X107317677Y-110623162D01*
X107319630Y-110620866D01*
X107387410Y-110553087D01*
X107408709Y-110516194D01*
X107413141Y-110510988D01*
X107426900Y-110503171D01*
X107437671Y-110493726D01*
X107437530Y-110493515D01*
X107439136Y-110492441D01*
X107441636Y-110490249D01*
X107443689Y-110489399D01*
X107514831Y-110418257D01*
X107522052Y-110411036D01*
X107522061Y-110411023D01*
X110430927Y-107502159D01*
X110477547Y-107480419D01*
X110484101Y-107480133D01*
X110607822Y-107480133D01*
X110607825Y-107480133D01*
X110723013Y-107449269D01*
X110826287Y-107389643D01*
X110910610Y-107305320D01*
X110970236Y-107202046D01*
X111001100Y-107086858D01*
X111001100Y-106967608D01*
X110970236Y-106852420D01*
X110970235Y-106852418D01*
X110910610Y-106749145D01*
X110826287Y-106664822D01*
X110797109Y-106647976D01*
X112475711Y-106647976D01*
X112475711Y-106767226D01*
X112502420Y-106866907D01*
X112506575Y-106882414D01*
X112506575Y-106882415D01*
X112566200Y-106985688D01*
X112650523Y-107070011D01*
X112687447Y-107091329D01*
X112753798Y-107129637D01*
X112868986Y-107160501D01*
X112868989Y-107160501D01*
X112988233Y-107160501D01*
X112988236Y-107160501D01*
X113103424Y-107129637D01*
X113206698Y-107070011D01*
X113291021Y-106985688D01*
X113350647Y-106882414D01*
X113381511Y-106767226D01*
X113381511Y-106752641D01*
X113385755Y-106727734D01*
X113388076Y-106721120D01*
X113398897Y-106702379D01*
X113412578Y-106651318D01*
X113413518Y-106648642D01*
X113418461Y-106642611D01*
X113431300Y-106620375D01*
X113571401Y-106480274D01*
X113580437Y-106473340D01*
X113580172Y-106472994D01*
X113584082Y-106469993D01*
X113584083Y-106469991D01*
X113584086Y-106469990D01*
X113819150Y-106234925D01*
X113865770Y-106213186D01*
X113872324Y-106212900D01*
X114312139Y-106212900D01*
X114360477Y-106230493D01*
X114386197Y-106275042D01*
X114384777Y-106307561D01*
X114359700Y-106401152D01*
X114359700Y-106520402D01*
X114386487Y-106620375D01*
X114390564Y-106635590D01*
X114390564Y-106635591D01*
X114450189Y-106738864D01*
X114461160Y-106749835D01*
X114482900Y-106796455D01*
X114469586Y-106846142D01*
X114461160Y-106856183D01*
X113571636Y-107745708D01*
X113537926Y-107765171D01*
X113490194Y-107777961D01*
X113490185Y-107777964D01*
X113386912Y-107837589D01*
X113302589Y-107921912D01*
X113242964Y-108025185D01*
X113242964Y-108025186D01*
X113242964Y-108025187D01*
X113212100Y-108140375D01*
X113212100Y-108259625D01*
X113242964Y-108374813D01*
X113242964Y-108374814D01*
X113302589Y-108478087D01*
X113386912Y-108562410D01*
X113446538Y-108596834D01*
X113490187Y-108622036D01*
X113605375Y-108652900D01*
X113605378Y-108652900D01*
X113724622Y-108652900D01*
X113724625Y-108652900D01*
X113839813Y-108622036D01*
X113943087Y-108562410D01*
X114027410Y-108478087D01*
X114087036Y-108374813D01*
X114117900Y-108259625D01*
X114117900Y-108140375D01*
X114087036Y-108025187D01*
X114086762Y-108024713D01*
X114086705Y-108024390D01*
X114085150Y-108020635D01*
X114085982Y-108020290D01*
X114077829Y-107974057D01*
X114098711Y-107933941D01*
X114991655Y-107040999D01*
X114991657Y-107040999D01*
X115062799Y-106969857D01*
X115093799Y-106895015D01*
X115101301Y-106876905D01*
X115101301Y-106837548D01*
X115102306Y-106831465D01*
X115112079Y-106814105D01*
X115118894Y-106795383D01*
X115123316Y-106790557D01*
X115175010Y-106738864D01*
X115234636Y-106635590D01*
X115265500Y-106520402D01*
X115265500Y-106401152D01*
X115240423Y-106307562D01*
X115244907Y-106256319D01*
X115281281Y-106219945D01*
X115313061Y-106212900D01*
X116827676Y-106212900D01*
X116843103Y-106218515D01*
X116859457Y-106219946D01*
X116872901Y-106229360D01*
X116876014Y-106230493D01*
X116880850Y-106234926D01*
X116972928Y-106327004D01*
X116992392Y-106360715D01*
X117022569Y-106473340D01*
X117022964Y-106474812D01*
X117022964Y-106474814D01*
X117082589Y-106578087D01*
X117166912Y-106662410D01*
X117185849Y-106673343D01*
X117270187Y-106722036D01*
X117385375Y-106752900D01*
X117385378Y-106752900D01*
X117504622Y-106752900D01*
X117504625Y-106752900D01*
X117619813Y-106722036D01*
X117723087Y-106662410D01*
X117807410Y-106578087D01*
X117867036Y-106474813D01*
X117897900Y-106359625D01*
X117897900Y-106240375D01*
X117867036Y-106125187D01*
X117834797Y-106069348D01*
X117807410Y-106021912D01*
X117723087Y-105937589D01*
X117619813Y-105877964D01*
X117505713Y-105847391D01*
X117472006Y-105827930D01*
X117221686Y-105577610D01*
X117204679Y-105567791D01*
X117141215Y-105531150D01*
X117111296Y-105523133D01*
X117051460Y-105507100D01*
X117051458Y-105507100D01*
X115289102Y-105507100D01*
X115251502Y-105497025D01*
X115241826Y-105491439D01*
X115219465Y-105478528D01*
X115219462Y-105478527D01*
X115129708Y-105454477D01*
X114588412Y-105454477D01*
X114495492Y-105454477D01*
X114406107Y-105478428D01*
X114405738Y-105478527D01*
X114405734Y-105478528D01*
X114379938Y-105493422D01*
X114373697Y-105497025D01*
X114336098Y-105507100D01*
X113741459Y-105507100D01*
X113648540Y-105507100D01*
X113603663Y-105519125D01*
X113558784Y-105531150D01*
X113478315Y-105577609D01*
X113478313Y-105577610D01*
X113160987Y-105894935D01*
X113151955Y-105901868D01*
X113152220Y-105902213D01*
X113148312Y-105905211D01*
X113086900Y-105966623D01*
X113086899Y-105966622D01*
X113086894Y-105966627D01*
X113086895Y-105966628D01*
X113082608Y-105970914D01*
X113082608Y-105970915D01*
X112853361Y-106200162D01*
X112842785Y-106210739D01*
X112842784Y-106210739D01*
X112842783Y-106210740D01*
X112842783Y-106210741D01*
X112787390Y-106266133D01*
X112758095Y-106283049D01*
X112758356Y-106283677D01*
X112753796Y-106285565D01*
X112650523Y-106345190D01*
X112566200Y-106429513D01*
X112506575Y-106532786D01*
X112506575Y-106532787D01*
X112506575Y-106532788D01*
X112475711Y-106647976D01*
X110797109Y-106647976D01*
X110723013Y-106605197D01*
X110607825Y-106574333D01*
X110519870Y-106574333D01*
X110471532Y-106556740D01*
X110445812Y-106512191D01*
X110454745Y-106461533D01*
X110466696Y-106445959D01*
X111177729Y-105734926D01*
X111224349Y-105713186D01*
X111230903Y-105712900D01*
X112275935Y-105712900D01*
X112275943Y-105712901D01*
X112284695Y-105712901D01*
X112385306Y-105712901D01*
X112423806Y-105696952D01*
X112478257Y-105674399D01*
X112549399Y-105603257D01*
X112556620Y-105596036D01*
X112556629Y-105596023D01*
X113457728Y-104694926D01*
X113504348Y-104673186D01*
X113510902Y-104672900D01*
X113788163Y-104672900D01*
X113788780Y-104672903D01*
X113798382Y-104672981D01*
X113800602Y-104673901D01*
X113901212Y-104673901D01*
X113901214Y-104673900D01*
X114124543Y-104673900D01*
X114172881Y-104691493D01*
X114177717Y-104695926D01*
X114265201Y-104783410D01*
X114324827Y-104817834D01*
X114368476Y-104843036D01*
X114483664Y-104873900D01*
X114483667Y-104873900D01*
X114602911Y-104873900D01*
X114602914Y-104873900D01*
X114718102Y-104843036D01*
X114821376Y-104783410D01*
X114905699Y-104699087D01*
X114965325Y-104595813D01*
X114996189Y-104480625D01*
X114996189Y-104361375D01*
X114965325Y-104246187D01*
X114965324Y-104246185D01*
X114905699Y-104142912D01*
X114821376Y-104058589D01*
X114718102Y-103998964D01*
X114602914Y-103968100D01*
X114483664Y-103968100D01*
X114397273Y-103991248D01*
X114368475Y-103998964D01*
X114368474Y-103998964D01*
X114265201Y-104058589D01*
X114177717Y-104146074D01*
X114131097Y-104167814D01*
X114124543Y-104168100D01*
X113912651Y-104168100D01*
X113912034Y-104168097D01*
X113902431Y-104168018D01*
X113900212Y-104167099D01*
X113799602Y-104167099D01*
X113799600Y-104167100D01*
X113434065Y-104167100D01*
X113434057Y-104167099D01*
X113425305Y-104167099D01*
X113324695Y-104167099D01*
X113324693Y-104167099D01*
X113286192Y-104183047D01*
X113286191Y-104183046D01*
X113231744Y-104205599D01*
X113231740Y-104205602D01*
X113157974Y-104279369D01*
X113157964Y-104279380D01*
X112252272Y-105185074D01*
X112205652Y-105206814D01*
X112199098Y-105207100D01*
X111154065Y-105207100D01*
X111154057Y-105207099D01*
X111145305Y-105207099D01*
X111044695Y-105207099D01*
X111044694Y-105207099D01*
X110998218Y-105226350D01*
X110998217Y-105226349D01*
X110951744Y-105245599D01*
X110951743Y-105245600D01*
X110916172Y-105281171D01*
X110880601Y-105316743D01*
X110880600Y-105316744D01*
X107822532Y-108374814D01*
X106808872Y-109388474D01*
X106762252Y-109410214D01*
X106755698Y-109410500D01*
X103699303Y-109410500D01*
X103650965Y-109392907D01*
X103646129Y-109388474D01*
X94624975Y-100367321D01*
X94614398Y-100356744D01*
X94614398Y-100356743D01*
X94574924Y-100317269D01*
X94553186Y-100270650D01*
X94552900Y-100264097D01*
X94552900Y-97798837D01*
X102867000Y-97798837D01*
X102877256Y-97899236D01*
X102931153Y-98061886D01*
X102931154Y-98061887D01*
X103021107Y-98207726D01*
X103021112Y-98207732D01*
X103142267Y-98328887D01*
X103142273Y-98328892D01*
X103288112Y-98418845D01*
X103288113Y-98418846D01*
X103450763Y-98472743D01*
X103551162Y-98483000D01*
X103571000Y-98483000D01*
X103571000Y-97754000D01*
X102867000Y-97754000D01*
X102867000Y-97798837D01*
X94552900Y-97798837D01*
X94552900Y-97056023D01*
X94570493Y-97007685D01*
X94599321Y-96986547D01*
X94775051Y-96913759D01*
X94939312Y-96804004D01*
X95079004Y-96664312D01*
X95188759Y-96500051D01*
X95264359Y-96317535D01*
X95302900Y-96123777D01*
X95302900Y-95926223D01*
X95302900Y-95926222D01*
X95837100Y-95926222D01*
X95837100Y-96123777D01*
X95875641Y-96317537D01*
X95875642Y-96317538D01*
X95949702Y-96496335D01*
X95951241Y-96500051D01*
X96060996Y-96664312D01*
X96060997Y-96664313D01*
X96061000Y-96664317D01*
X96200682Y-96803999D01*
X96200685Y-96804001D01*
X96200688Y-96804004D01*
X96364949Y-96913759D01*
X96547461Y-96989357D01*
X96547462Y-96989358D01*
X96547463Y-96989358D01*
X96547465Y-96989359D01*
X96667377Y-97013211D01*
X96741222Y-97027900D01*
X96741223Y-97027900D01*
X96938778Y-97027900D01*
X97012623Y-97013211D01*
X97132535Y-96989359D01*
X97315051Y-96913759D01*
X97479312Y-96804004D01*
X97619004Y-96664312D01*
X97728759Y-96500051D01*
X97804359Y-96317535D01*
X97842900Y-96123777D01*
X97842900Y-95926223D01*
X97842017Y-95921786D01*
X97814952Y-95785721D01*
X97804359Y-95732465D01*
X97728759Y-95549949D01*
X97619004Y-95385688D01*
X97619001Y-95385685D01*
X97618999Y-95385682D01*
X97479317Y-95246000D01*
X97479313Y-95245997D01*
X97479312Y-95245996D01*
X97315051Y-95136241D01*
X97315049Y-95136240D01*
X97132538Y-95060642D01*
X97132537Y-95060641D01*
X96938778Y-95022100D01*
X96938777Y-95022100D01*
X96741223Y-95022100D01*
X96741222Y-95022100D01*
X96547462Y-95060641D01*
X96547461Y-95060642D01*
X96364950Y-95136240D01*
X96200682Y-95246000D01*
X96061000Y-95385682D01*
X95951240Y-95549950D01*
X95875642Y-95732461D01*
X95875641Y-95732462D01*
X95837100Y-95926222D01*
X95302900Y-95926222D01*
X95302017Y-95921786D01*
X95274952Y-95785721D01*
X95264359Y-95732465D01*
X95188759Y-95549949D01*
X95079004Y-95385688D01*
X95079001Y-95385685D01*
X95078999Y-95385682D01*
X94939318Y-95246001D01*
X94939314Y-95245998D01*
X94939312Y-95245996D01*
X94900913Y-95220338D01*
X94856445Y-95190626D01*
X94826028Y-95149143D01*
X94829393Y-95097813D01*
X94864964Y-95060655D01*
X94898224Y-95052900D01*
X95465935Y-95052900D01*
X95465943Y-95052901D01*
X95474695Y-95052901D01*
X95575306Y-95052901D01*
X95613806Y-95036952D01*
X95668257Y-95014399D01*
X95739399Y-94943257D01*
X95746620Y-94936036D01*
X95746629Y-94936023D01*
X96289783Y-94392869D01*
X96336402Y-94371130D01*
X96371728Y-94376567D01*
X96547461Y-94449357D01*
X96547462Y-94449358D01*
X96547463Y-94449358D01*
X96547465Y-94449359D01*
X96651767Y-94470106D01*
X96741222Y-94487900D01*
X96741223Y-94487900D01*
X96938778Y-94487900D01*
X96986889Y-94478329D01*
X97132535Y-94449359D01*
X97315051Y-94373759D01*
X97479312Y-94264004D01*
X97619004Y-94124312D01*
X97728759Y-93960051D01*
X97804359Y-93777535D01*
X97842900Y-93583777D01*
X97842900Y-93386223D01*
X97838841Y-93365819D01*
X97822497Y-93283649D01*
X97804359Y-93192465D01*
X97728759Y-93009949D01*
X97619004Y-92845688D01*
X97619001Y-92845685D01*
X97618999Y-92845682D01*
X97479317Y-92706000D01*
X97479313Y-92705997D01*
X97479312Y-92705996D01*
X97315051Y-92596241D01*
X97315049Y-92596240D01*
X97132538Y-92520642D01*
X97132537Y-92520641D01*
X96938778Y-92482100D01*
X96938777Y-92482100D01*
X96741223Y-92482100D01*
X96741222Y-92482100D01*
X96547462Y-92520641D01*
X96547461Y-92520642D01*
X96364950Y-92596240D01*
X96200682Y-92706000D01*
X96061000Y-92845682D01*
X95951240Y-93009950D01*
X95875642Y-93192461D01*
X95875641Y-93192462D01*
X95837100Y-93386222D01*
X95837100Y-93583777D01*
X95875641Y-93777537D01*
X95875642Y-93777538D01*
X95888319Y-93808142D01*
X95943733Y-93941926D01*
X95948430Y-93953264D01*
X95950674Y-94004655D01*
X95932128Y-94035216D01*
X95442271Y-94525074D01*
X95395652Y-94546814D01*
X95389098Y-94547100D01*
X95034038Y-94547100D01*
X94985700Y-94529507D01*
X94980864Y-94525074D01*
X94424948Y-93969157D01*
X94492993Y-93950925D01*
X94607007Y-93885099D01*
X94700099Y-93792007D01*
X94765925Y-93677993D01*
X94784157Y-93609948D01*
X95423377Y-94249168D01*
X95423378Y-94249168D01*
X95461461Y-94196754D01*
X95461464Y-94196748D01*
X95558505Y-94006294D01*
X95558506Y-94006292D01*
X95624562Y-93802992D01*
X95624562Y-93802991D01*
X95657999Y-93591879D01*
X95658000Y-93591872D01*
X95658000Y-93378127D01*
X95657999Y-93378120D01*
X95624562Y-93167008D01*
X95624562Y-93167007D01*
X95558506Y-92963707D01*
X95558505Y-92963705D01*
X95461465Y-92773253D01*
X95423377Y-92720830D01*
X94784157Y-93360050D01*
X94765925Y-93292007D01*
X94700099Y-93177993D01*
X94607007Y-93084901D01*
X94492993Y-93019075D01*
X94424948Y-93000842D01*
X95064168Y-92361621D01*
X95064167Y-92361620D01*
X95011754Y-92323538D01*
X95011748Y-92323535D01*
X94821294Y-92226494D01*
X94821292Y-92226493D01*
X94617991Y-92160437D01*
X94406879Y-92127000D01*
X94193120Y-92127000D01*
X93982008Y-92160437D01*
X93982007Y-92160437D01*
X93778707Y-92226493D01*
X93778705Y-92226494D01*
X93588251Y-92323535D01*
X93535830Y-92361621D01*
X94175051Y-93000842D01*
X94107007Y-93019075D01*
X93992993Y-93084901D01*
X93899901Y-93177993D01*
X93834075Y-93292007D01*
X93815842Y-93360051D01*
X93176621Y-92720830D01*
X93138535Y-92773251D01*
X93041494Y-92963705D01*
X93041493Y-92963707D01*
X92975437Y-93167007D01*
X92975437Y-93167008D01*
X92942000Y-93378120D01*
X92942000Y-93591879D01*
X92975437Y-93802991D01*
X92975437Y-93802992D01*
X93041493Y-94006292D01*
X93041494Y-94006294D01*
X93138535Y-94196748D01*
X93138538Y-94196754D01*
X93176620Y-94249167D01*
X93176621Y-94249168D01*
X93815841Y-93609947D01*
X93834075Y-93677993D01*
X93899901Y-93792007D01*
X93992993Y-93885099D01*
X94107007Y-93950925D01*
X94175050Y-93969157D01*
X93535830Y-94608377D01*
X93588254Y-94646466D01*
X93588257Y-94646468D01*
X93610094Y-94657595D01*
X93645175Y-94695216D01*
X93647867Y-94746585D01*
X93629127Y-94777772D01*
X93244914Y-95161985D01*
X93198294Y-95183725D01*
X93148607Y-95170411D01*
X93119102Y-95128274D01*
X93116971Y-95116848D01*
X93111495Y-95065908D01*
X93111494Y-95065904D01*
X93060444Y-94929036D01*
X93060443Y-94929034D01*
X92972903Y-94812096D01*
X92855965Y-94724556D01*
X92855963Y-94724555D01*
X92719095Y-94673505D01*
X92719092Y-94673504D01*
X92658593Y-94667000D01*
X92014000Y-94667000D01*
X92014000Y-95594297D01*
X91952993Y-95559075D01*
X91825826Y-95525000D01*
X91694174Y-95525000D01*
X91567007Y-95559075D01*
X91506000Y-95594297D01*
X91506000Y-94667000D01*
X90984700Y-94667000D01*
X90936362Y-94649407D01*
X90910642Y-94604858D01*
X90909500Y-94591800D01*
X90909500Y-94234364D01*
X90927093Y-94186026D01*
X90971642Y-94160306D01*
X91022300Y-94169239D01*
X91037870Y-94181186D01*
X91120688Y-94264004D01*
X91284949Y-94373759D01*
X91467461Y-94449357D01*
X91467462Y-94449358D01*
X91467463Y-94449358D01*
X91467465Y-94449359D01*
X91571767Y-94470106D01*
X91661222Y-94487900D01*
X91661223Y-94487900D01*
X91858778Y-94487900D01*
X91906889Y-94478329D01*
X92052535Y-94449359D01*
X92235051Y-94373759D01*
X92399312Y-94264004D01*
X92539004Y-94124312D01*
X92648759Y-93960051D01*
X92724359Y-93777535D01*
X92762900Y-93583777D01*
X92762900Y-93386223D01*
X92724359Y-93192465D01*
X92648759Y-93009949D01*
X92641198Y-92998633D01*
X92575573Y-92900416D01*
X92562900Y-92858638D01*
X92562900Y-86467300D01*
X104330061Y-86467300D01*
X104331490Y-86485471D01*
X104331490Y-86485474D01*
X104377167Y-86642692D01*
X104377170Y-86642699D01*
X104460506Y-86783615D01*
X104460514Y-86783625D01*
X104576274Y-86899385D01*
X104576284Y-86899393D01*
X104717201Y-86982729D01*
X104717205Y-86982731D01*
X104862599Y-87024972D01*
X104862600Y-87024972D01*
X104862600Y-86467300D01*
X104330061Y-86467300D01*
X92562900Y-86467300D01*
X92562900Y-85959299D01*
X104330060Y-85959299D01*
X104330061Y-85959300D01*
X104862600Y-85959300D01*
X104862600Y-85401626D01*
X104717203Y-85443869D01*
X104576281Y-85527208D01*
X104576274Y-85527214D01*
X104460514Y-85642974D01*
X104460506Y-85642984D01*
X104377170Y-85783900D01*
X104377167Y-85783907D01*
X104331490Y-85941125D01*
X104331490Y-85941128D01*
X104330060Y-85959299D01*
X92562900Y-85959299D01*
X92562900Y-85705219D01*
X92580493Y-85656881D01*
X92584915Y-85652056D01*
X92927370Y-85309600D01*
X92973990Y-85287861D01*
X93009321Y-85293298D01*
X93101673Y-85331552D01*
X93197651Y-85350643D01*
X93229356Y-85356950D01*
X93229357Y-85356950D01*
X93359544Y-85356950D01*
X93384942Y-85351897D01*
X93487227Y-85331552D01*
X93607504Y-85281732D01*
X93715749Y-85209405D01*
X94006631Y-84918523D01*
X94253137Y-84672018D01*
X101277100Y-84672018D01*
X101277100Y-85027981D01*
X101279892Y-85052055D01*
X101284308Y-85062057D01*
X101323369Y-85150521D01*
X101323370Y-85150522D01*
X101327308Y-85156271D01*
X101324908Y-85157914D01*
X101341533Y-85193566D01*
X101331746Y-85237716D01*
X101327965Y-85244265D01*
X101327964Y-85244269D01*
X101297100Y-85359457D01*
X101297100Y-85478707D01*
X101322851Y-85574813D01*
X101327964Y-85593895D01*
X101327964Y-85593896D01*
X101387589Y-85697169D01*
X101471912Y-85781492D01*
X101531538Y-85815916D01*
X101575187Y-85841118D01*
X101690375Y-85871982D01*
X101690378Y-85871982D01*
X101809622Y-85871982D01*
X101809625Y-85871982D01*
X101924813Y-85841118D01*
X102028087Y-85781492D01*
X102112410Y-85697169D01*
X102172036Y-85593895D01*
X102202900Y-85478707D01*
X102202900Y-85359457D01*
X102172036Y-85244269D01*
X102168253Y-85237716D01*
X102166062Y-85225289D01*
X102159562Y-85214471D01*
X102161735Y-85200744D01*
X102159323Y-85187061D01*
X102165632Y-85176132D01*
X102167607Y-85163665D01*
X102173016Y-85156488D01*
X102172694Y-85156268D01*
X102176630Y-85150522D01*
X102176630Y-85150521D01*
X102176631Y-85150521D01*
X102220107Y-85052057D01*
X102222900Y-85027984D01*
X102222900Y-84682018D01*
X102377100Y-84682018D01*
X102377100Y-85037981D01*
X102379892Y-85062055D01*
X102379893Y-85062057D01*
X102423369Y-85160521D01*
X102423370Y-85160522D01*
X102426184Y-85166895D01*
X102423175Y-85168223D01*
X102423728Y-85170375D01*
X102431670Y-85183592D01*
X102429936Y-85194537D01*
X102432694Y-85205267D01*
X102428925Y-85220341D01*
X102429240Y-85220426D01*
X102427964Y-85225185D01*
X102427964Y-85225187D01*
X102397100Y-85340375D01*
X102397100Y-85459625D01*
X102421477Y-85550604D01*
X102427964Y-85574813D01*
X102427964Y-85574814D01*
X102487589Y-85678087D01*
X102571912Y-85762410D01*
X102631538Y-85796834D01*
X102675187Y-85822036D01*
X102790375Y-85852900D01*
X102790378Y-85852900D01*
X102909622Y-85852900D01*
X102909625Y-85852900D01*
X103024813Y-85822036D01*
X103128087Y-85762410D01*
X103212410Y-85678087D01*
X103272036Y-85574813D01*
X103302900Y-85459625D01*
X103302900Y-85340375D01*
X103272036Y-85225187D01*
X103272035Y-85225185D01*
X103270760Y-85220426D01*
X103272379Y-85219991D01*
X103270424Y-85175341D01*
X103274411Y-85167158D01*
X103273816Y-85166896D01*
X103277782Y-85157914D01*
X103320107Y-85062057D01*
X103322900Y-85037984D01*
X103322900Y-84682016D01*
X103320107Y-84657943D01*
X103276631Y-84559479D01*
X103276629Y-84559477D01*
X103276627Y-84559474D01*
X103200525Y-84483372D01*
X103200522Y-84483370D01*
X103200521Y-84483369D01*
X103102057Y-84439893D01*
X103102055Y-84439892D01*
X103083568Y-84437747D01*
X103077984Y-84437100D01*
X102622016Y-84437100D01*
X102617012Y-84437680D01*
X102597944Y-84439892D01*
X102499477Y-84483370D01*
X102499474Y-84483372D01*
X102423372Y-84559474D01*
X102423370Y-84559477D01*
X102379892Y-84657944D01*
X102377100Y-84682018D01*
X102222900Y-84682018D01*
X102222900Y-84672016D01*
X102220107Y-84647943D01*
X102176631Y-84549479D01*
X102176629Y-84549477D01*
X102176627Y-84549474D01*
X102100525Y-84473372D01*
X102100522Y-84473370D01*
X102100521Y-84473369D01*
X102002057Y-84429893D01*
X102002055Y-84429892D01*
X101983568Y-84427747D01*
X101977984Y-84427100D01*
X101522016Y-84427100D01*
X101517012Y-84427680D01*
X101497944Y-84429892D01*
X101399477Y-84473370D01*
X101399474Y-84473372D01*
X101323372Y-84549474D01*
X101323370Y-84549477D01*
X101323369Y-84549478D01*
X101323369Y-84549479D01*
X101316737Y-84564500D01*
X101279892Y-84647944D01*
X101277100Y-84672018D01*
X94253137Y-84672018D01*
X94308485Y-84616670D01*
X99536770Y-79388384D01*
X99536775Y-79388379D01*
X99609102Y-79280134D01*
X99627324Y-79236140D01*
X99662076Y-79198216D01*
X99713076Y-79191501D01*
X99756460Y-79219140D01*
X99772000Y-79264919D01*
X99772000Y-79594279D01*
X99810737Y-79789025D01*
X99810738Y-79789026D01*
X99886721Y-79972465D01*
X99997037Y-80137564D01*
X99997039Y-80137567D01*
X100137432Y-80277960D01*
X100137435Y-80277962D01*
X100302534Y-80388278D01*
X100485973Y-80464261D01*
X100485975Y-80464262D01*
X100526000Y-80472223D01*
X100526000Y-79655060D01*
X100539940Y-79679205D01*
X100595795Y-79735060D01*
X100664204Y-79774556D01*
X100740504Y-79795000D01*
X100819496Y-79795000D01*
X100895796Y-79774556D01*
X100964205Y-79735060D01*
X101020060Y-79679205D01*
X101034000Y-79655060D01*
X101034000Y-80472223D01*
X101074019Y-80464263D01*
X101074022Y-80464262D01*
X101122826Y-80444047D01*
X101174217Y-80441803D01*
X101215027Y-80473118D01*
X101216331Y-80475242D01*
X101225943Y-80491495D01*
X101225951Y-80491505D01*
X101343496Y-80609050D01*
X101343506Y-80609058D01*
X101486597Y-80693680D01*
X101486602Y-80693682D01*
X101646250Y-80740065D01*
X101683539Y-80742999D01*
X101755269Y-80742999D01*
X101803607Y-80760592D01*
X101829327Y-80805140D01*
X101820396Y-80855798D01*
X101819998Y-80856479D01*
X101760192Y-80957605D01*
X101714868Y-81113610D01*
X101714866Y-81113620D01*
X101712318Y-81145999D01*
X101712319Y-81146000D01*
X102414800Y-81146000D01*
X102463138Y-81163593D01*
X102488858Y-81208142D01*
X102490000Y-81221200D01*
X102490000Y-81578800D01*
X102472407Y-81627138D01*
X102427858Y-81652858D01*
X102414800Y-81654000D01*
X101712319Y-81654000D01*
X101714866Y-81686379D01*
X101714868Y-81686389D01*
X101760192Y-81842394D01*
X101842892Y-81982232D01*
X101842898Y-81982239D01*
X101957760Y-82097101D01*
X101957767Y-82097107D01*
X102097605Y-82179807D01*
X102253612Y-82225131D01*
X102253617Y-82225132D01*
X102290048Y-82227999D01*
X102290057Y-82228000D01*
X102314600Y-82228000D01*
X102362938Y-82245593D01*
X102388658Y-82290142D01*
X102379725Y-82340800D01*
X102367778Y-82356369D01*
X101783873Y-82940274D01*
X101609380Y-83114767D01*
X101609337Y-83114807D01*
X101535602Y-83188542D01*
X101535599Y-83188546D01*
X101513046Y-83242993D01*
X101513047Y-83242994D01*
X101497099Y-83281495D01*
X101497099Y-83361265D01*
X101479506Y-83409603D01*
X101452274Y-83430057D01*
X101399482Y-83453367D01*
X101399474Y-83453372D01*
X101323372Y-83529474D01*
X101323370Y-83529477D01*
X101323369Y-83529478D01*
X101323369Y-83529479D01*
X101315843Y-83546522D01*
X101279892Y-83627944D01*
X101278394Y-83640864D01*
X101277100Y-83652016D01*
X101277100Y-84007984D01*
X101277970Y-84015489D01*
X101279892Y-84032055D01*
X101284308Y-84042057D01*
X101323369Y-84130521D01*
X101323370Y-84130522D01*
X101323372Y-84130525D01*
X101399474Y-84206627D01*
X101399477Y-84206629D01*
X101399479Y-84206631D01*
X101497943Y-84250107D01*
X101522016Y-84252900D01*
X101522018Y-84252900D01*
X101977982Y-84252900D01*
X101977984Y-84252900D01*
X102002057Y-84250107D01*
X102100521Y-84206631D01*
X102176631Y-84130521D01*
X102220107Y-84032057D01*
X102222900Y-84007984D01*
X102222900Y-83652016D01*
X102220107Y-83627943D01*
X102176631Y-83529479D01*
X102176629Y-83529477D01*
X102176627Y-83529474D01*
X102096478Y-83449325D01*
X102074738Y-83402705D01*
X102088052Y-83353018D01*
X102096478Y-83342977D01*
X102305634Y-83133821D01*
X102468727Y-82970728D01*
X102515346Y-82948989D01*
X102565033Y-82962303D01*
X102594538Y-83004440D01*
X102597100Y-83023903D01*
X102597100Y-83371265D01*
X102579507Y-83419603D01*
X102552277Y-83440056D01*
X102500994Y-83462700D01*
X102499477Y-83463370D01*
X102499474Y-83463372D01*
X102423372Y-83539474D01*
X102423370Y-83539477D01*
X102379892Y-83637944D01*
X102378260Y-83652016D01*
X102377100Y-83662016D01*
X102377100Y-84017984D01*
X102377970Y-84025489D01*
X102379892Y-84042055D01*
X102379893Y-84042057D01*
X102423369Y-84140521D01*
X102423370Y-84140522D01*
X102423372Y-84140525D01*
X102499474Y-84216627D01*
X102499477Y-84216629D01*
X102499479Y-84216631D01*
X102597943Y-84260107D01*
X102622016Y-84262900D01*
X102622018Y-84262900D01*
X103077982Y-84262900D01*
X103077984Y-84262900D01*
X103102057Y-84260107D01*
X103200521Y-84216631D01*
X103276631Y-84140521D01*
X103320107Y-84042057D01*
X103322900Y-84017984D01*
X103322900Y-83662016D01*
X103320107Y-83637943D01*
X103276631Y-83539479D01*
X103276629Y-83539477D01*
X103276627Y-83539474D01*
X103200525Y-83463372D01*
X103200522Y-83463370D01*
X103200521Y-83463369D01*
X103147723Y-83440056D01*
X103110613Y-83404439D01*
X103102900Y-83371265D01*
X103102900Y-83004101D01*
X103120493Y-82955763D01*
X103124926Y-82950926D01*
X103377548Y-82698305D01*
X103424168Y-82676566D01*
X103430722Y-82676280D01*
X103936945Y-82676280D01*
X103936953Y-82676281D01*
X103945705Y-82676281D01*
X104046316Y-82676281D01*
X104084816Y-82660332D01*
X104139267Y-82637779D01*
X104210409Y-82566637D01*
X104217630Y-82559416D01*
X104217639Y-82559403D01*
X105468255Y-81308789D01*
X105468257Y-81308789D01*
X105539399Y-81237647D01*
X105550815Y-81210085D01*
X105577901Y-81144695D01*
X105577901Y-81136515D01*
X105582551Y-81123914D01*
X105591013Y-81113918D01*
X105595494Y-81101609D01*
X105607118Y-81094897D01*
X105615790Y-81084656D01*
X105628698Y-81082438D01*
X105640043Y-81075889D01*
X105653261Y-81078219D01*
X105666488Y-81075948D01*
X105677802Y-81082547D01*
X105690701Y-81084822D01*
X105706275Y-81096773D01*
X105771912Y-81162410D01*
X105831538Y-81196834D01*
X105875187Y-81222036D01*
X105990375Y-81252900D01*
X105990378Y-81252900D01*
X106109622Y-81252900D01*
X106109625Y-81252900D01*
X106224813Y-81222036D01*
X106328087Y-81162410D01*
X106412410Y-81078087D01*
X106456775Y-81001244D01*
X106461971Y-80996884D01*
X106464293Y-80990507D01*
X106481215Y-80980737D01*
X106496180Y-80968180D01*
X106502965Y-80968180D01*
X106508842Y-80964787D01*
X106528083Y-80968180D01*
X106547620Y-80968180D01*
X106552818Y-80972541D01*
X106559500Y-80973720D01*
X106572058Y-80988686D01*
X106587025Y-81001245D01*
X106589102Y-81008998D01*
X106592565Y-81013125D01*
X106597100Y-81038845D01*
X106597100Y-81063626D01*
X106597099Y-81063640D01*
X106597099Y-81069695D01*
X106597099Y-81170305D01*
X106608657Y-81198207D01*
X106635601Y-81263258D01*
X106685074Y-81312731D01*
X106706814Y-81359351D01*
X106707100Y-81365905D01*
X106707100Y-81627981D01*
X106709893Y-81652057D01*
X106709893Y-81652059D01*
X106733192Y-81704825D01*
X106736623Y-81756150D01*
X106706259Y-81797673D01*
X106664400Y-81810400D01*
X105955665Y-81810400D01*
X105955657Y-81810399D01*
X105946905Y-81810399D01*
X105846295Y-81810399D01*
X105846293Y-81810399D01*
X105807792Y-81826347D01*
X105807791Y-81826346D01*
X105753344Y-81848899D01*
X105753340Y-81848902D01*
X105679574Y-81922669D01*
X105679564Y-81922680D01*
X104108480Y-83493764D01*
X104108458Y-83493784D01*
X104034701Y-83567541D01*
X104020918Y-83600817D01*
X104020915Y-83600825D01*
X104019764Y-83603605D01*
X103996199Y-83660495D01*
X103996199Y-83677300D01*
X103992555Y-83688576D01*
X103983594Y-83700081D01*
X103978606Y-83713788D01*
X103964064Y-83725159D01*
X103960948Y-83729161D01*
X103958192Y-83729751D01*
X103954028Y-83733008D01*
X103938909Y-83740399D01*
X103851201Y-83828106D01*
X103796724Y-83939538D01*
X103786200Y-84011767D01*
X103786200Y-84594832D01*
X103796724Y-84667061D01*
X103851202Y-84778495D01*
X103938904Y-84866197D01*
X103938905Y-84866197D01*
X103938907Y-84866199D01*
X104002197Y-84897140D01*
X104050338Y-84920675D01*
X104122567Y-84931199D01*
X104122575Y-84931199D01*
X104122578Y-84931200D01*
X104122580Y-84931200D01*
X104630620Y-84931200D01*
X104630622Y-84931200D01*
X104630624Y-84931199D01*
X104630632Y-84931199D01*
X104685398Y-84923219D01*
X104702862Y-84920675D01*
X104814293Y-84866199D01*
X104901999Y-84778493D01*
X104956475Y-84667062D01*
X104967000Y-84594822D01*
X104967000Y-84011778D01*
X105361200Y-84011778D01*
X105361200Y-84014297D01*
X105361200Y-84594832D01*
X105371724Y-84667061D01*
X105396553Y-84717848D01*
X105426201Y-84778493D01*
X105491674Y-84843966D01*
X105513414Y-84890585D01*
X105513700Y-84897140D01*
X105513700Y-85343043D01*
X105496107Y-85391381D01*
X105451558Y-85417101D01*
X105417520Y-85415257D01*
X105370600Y-85401625D01*
X105370600Y-87024972D01*
X105515994Y-86982731D01*
X105515998Y-86982729D01*
X105656915Y-86899393D01*
X105656925Y-86899385D01*
X105772685Y-86783625D01*
X105772693Y-86783615D01*
X105814987Y-86712099D01*
X105854736Y-86679448D01*
X105888385Y-86675680D01*
X105892866Y-86676200D01*
X106260332Y-86676200D01*
X106260334Y-86676200D01*
X106284821Y-86673359D01*
X106286525Y-86672606D01*
X106316897Y-86666200D01*
X107049856Y-86666200D01*
X107070259Y-86670504D01*
X107070594Y-86669277D01*
X107076048Y-86670761D01*
X107076050Y-86670762D01*
X107101374Y-86673700D01*
X107101376Y-86673700D01*
X108216824Y-86673700D01*
X108216826Y-86673700D01*
X108242150Y-86670762D01*
X108345745Y-86625020D01*
X108425820Y-86544945D01*
X108471562Y-86441350D01*
X108474500Y-86416026D01*
X108474500Y-86025574D01*
X108471562Y-86000250D01*
X108425820Y-85896655D01*
X108425819Y-85896654D01*
X108425817Y-85896651D01*
X108345748Y-85816582D01*
X108345745Y-85816580D01*
X108242148Y-85770837D01*
X108222700Y-85768581D01*
X108216826Y-85767900D01*
X108216824Y-85767900D01*
X107749117Y-85767900D01*
X107729656Y-85765338D01*
X107711225Y-85760400D01*
X106494700Y-85760400D01*
X106446362Y-85742807D01*
X106420642Y-85698258D01*
X106419500Y-85685200D01*
X106419500Y-84867140D01*
X106437093Y-84818802D01*
X106441515Y-84813976D01*
X106476999Y-84778493D01*
X106531475Y-84667062D01*
X106542000Y-84594822D01*
X106542000Y-84011778D01*
X106541999Y-84011776D01*
X106541999Y-84011767D01*
X106531475Y-83939538D01*
X106531474Y-83939535D01*
X106517549Y-83911052D01*
X106499033Y-83873179D01*
X106493609Y-83822028D01*
X106513416Y-83786979D01*
X106979010Y-83321388D01*
X107024271Y-83242994D01*
X107038635Y-83218115D01*
X107043342Y-83200549D01*
X107069500Y-83102926D01*
X107069500Y-82983675D01*
X107038636Y-82868487D01*
X107011042Y-82820693D01*
X106979010Y-82765212D01*
X106894687Y-82680889D01*
X106791413Y-82621264D01*
X106676225Y-82590400D01*
X106556974Y-82590400D01*
X106504352Y-82604500D01*
X106441784Y-82621264D01*
X106338511Y-82680889D01*
X105676426Y-83342977D01*
X105546013Y-83473390D01*
X105523004Y-83496399D01*
X105461688Y-83557714D01*
X105402064Y-83660985D01*
X105402064Y-83660986D01*
X105401337Y-83663700D01*
X105371200Y-83776175D01*
X105371200Y-83776177D01*
X105371200Y-83937693D01*
X105370462Y-83947864D01*
X105370472Y-83948129D01*
X105370439Y-83948358D01*
X105361200Y-84011778D01*
X104967000Y-84011778D01*
X104966999Y-84011776D01*
X104966999Y-84011767D01*
X104956475Y-83939538D01*
X104929406Y-83884169D01*
X104901999Y-83828107D01*
X104901997Y-83828105D01*
X104901997Y-83828104D01*
X104814295Y-83740402D01*
X104814289Y-83740399D01*
X104749637Y-83708792D01*
X104713939Y-83671757D01*
X104710398Y-83620439D01*
X104729490Y-83588062D01*
X105979328Y-82338226D01*
X106025948Y-82316486D01*
X106032502Y-82316200D01*
X107807162Y-82316200D01*
X107855500Y-82333793D01*
X107881220Y-82378342D01*
X107872747Y-82426388D01*
X107872784Y-82426405D01*
X107872718Y-82426553D01*
X107872287Y-82429000D01*
X107870115Y-82432448D01*
X107826492Y-82531244D01*
X107823700Y-82555318D01*
X107823700Y-83011281D01*
X107826492Y-83035355D01*
X107830242Y-83043848D01*
X107869969Y-83133821D01*
X107869970Y-83133822D01*
X107869972Y-83133825D01*
X107883521Y-83147374D01*
X107905261Y-83193994D01*
X107891947Y-83243681D01*
X107883521Y-83253722D01*
X107727201Y-83410041D01*
X107727200Y-83410043D01*
X107710930Y-83449325D01*
X107705391Y-83462699D01*
X107688699Y-83502995D01*
X107688699Y-83612356D01*
X107688700Y-83612365D01*
X107688700Y-83792700D01*
X107671107Y-83841038D01*
X107626558Y-83866758D01*
X107613500Y-83867900D01*
X107101374Y-83867900D01*
X107096110Y-83868510D01*
X107076051Y-83870837D01*
X106972454Y-83916580D01*
X106972451Y-83916582D01*
X106892382Y-83996651D01*
X106892380Y-83996654D01*
X106846637Y-84100251D01*
X106843700Y-84125576D01*
X106843700Y-84516023D01*
X106846637Y-84541348D01*
X106892380Y-84644945D01*
X106892382Y-84644948D01*
X106972451Y-84725017D01*
X106972454Y-84725019D01*
X106972455Y-84725020D01*
X107076050Y-84770762D01*
X107101374Y-84773700D01*
X107101376Y-84773700D01*
X108216824Y-84773700D01*
X108216826Y-84773700D01*
X108242150Y-84770762D01*
X108345745Y-84725020D01*
X108425820Y-84644945D01*
X108471562Y-84541350D01*
X108474500Y-84516026D01*
X108474500Y-84125574D01*
X108471562Y-84100250D01*
X108425820Y-83996655D01*
X108425819Y-83996654D01*
X108425817Y-83996651D01*
X108345748Y-83916582D01*
X108345741Y-83916577D01*
X108239325Y-83869590D01*
X108236270Y-83866658D01*
X108232100Y-83865923D01*
X108218014Y-83849136D01*
X108202213Y-83833971D01*
X108201034Y-83828900D01*
X108199035Y-83826518D01*
X108194500Y-83800798D01*
X108194500Y-83689202D01*
X108212093Y-83640864D01*
X108216515Y-83636038D01*
X108382624Y-83469928D01*
X108382636Y-83469920D01*
X108460994Y-83391562D01*
X108460999Y-83391557D01*
X108475029Y-83357684D01*
X108509780Y-83319760D01*
X108560780Y-83313045D01*
X108604164Y-83340684D01*
X108609231Y-83348182D01*
X108619490Y-83365529D01*
X108619498Y-83365539D01*
X108734360Y-83480401D01*
X108734367Y-83480407D01*
X108874204Y-83563106D01*
X109012600Y-83603313D01*
X109520600Y-83603313D01*
X109658995Y-83563106D01*
X109798832Y-83480407D01*
X109798839Y-83480401D01*
X109913701Y-83365539D01*
X109913707Y-83365532D01*
X109996407Y-83225694D01*
X110041731Y-83069689D01*
X110041733Y-83069679D01*
X110044281Y-83037300D01*
X109520600Y-83037300D01*
X109520600Y-83603313D01*
X109012600Y-83603313D01*
X109012600Y-82858500D01*
X109030193Y-82810162D01*
X109074742Y-82784442D01*
X109087800Y-82783300D01*
X109266600Y-82783300D01*
X109266600Y-82604500D01*
X109284193Y-82556162D01*
X109328742Y-82530442D01*
X109341800Y-82529300D01*
X110044281Y-82529300D01*
X110044281Y-82529299D01*
X110041733Y-82496920D01*
X110041731Y-82496910D01*
X110017173Y-82412380D01*
X110017454Y-82408139D01*
X110015329Y-82404458D01*
X110019131Y-82382895D01*
X110020582Y-82361053D01*
X110023523Y-82357985D01*
X110024262Y-82353800D01*
X110041032Y-82339727D01*
X110056186Y-82323926D01*
X110061275Y-82322741D01*
X110063667Y-82320735D01*
X110089387Y-82316200D01*
X110135698Y-82316200D01*
X110184036Y-82333793D01*
X110188872Y-82338226D01*
X110954174Y-83103528D01*
X110975914Y-83150148D01*
X110976200Y-83156702D01*
X110976200Y-83418781D01*
X110978992Y-83442855D01*
X110978993Y-83442857D01*
X111022469Y-83541321D01*
X111022470Y-83541322D01*
X111022472Y-83541325D01*
X111098574Y-83617427D01*
X111098577Y-83617429D01*
X111098579Y-83617431D01*
X111197043Y-83660907D01*
X111221116Y-83663700D01*
X111221118Y-83663700D01*
X111677082Y-83663700D01*
X111677084Y-83663700D01*
X111701157Y-83660907D01*
X111799621Y-83617431D01*
X111875731Y-83541321D01*
X111919207Y-83442857D01*
X111922000Y-83418784D01*
X111922000Y-83062816D01*
X111919207Y-83038743D01*
X111875731Y-82940279D01*
X111875729Y-82940277D01*
X111875727Y-82940274D01*
X111799625Y-82864172D01*
X111799622Y-82864170D01*
X111799621Y-82864169D01*
X111701157Y-82820693D01*
X111701155Y-82820692D01*
X111682668Y-82818547D01*
X111677084Y-82817900D01*
X111677082Y-82817900D01*
X111415003Y-82817900D01*
X111366665Y-82800307D01*
X111361829Y-82795874D01*
X110492195Y-81926241D01*
X110492185Y-81926228D01*
X110414858Y-81848901D01*
X110360406Y-81826347D01*
X110360404Y-81826346D01*
X110321905Y-81810399D01*
X110221295Y-81810399D01*
X110212543Y-81810399D01*
X110212535Y-81810400D01*
X108989260Y-81810400D01*
X108940922Y-81792807D01*
X108915202Y-81748258D01*
X108917046Y-81714220D01*
X108925131Y-81686389D01*
X108925133Y-81686379D01*
X108927681Y-81654000D01*
X108225200Y-81654000D01*
X108206840Y-81647317D01*
X108187600Y-81643925D01*
X108183239Y-81638728D01*
X108176862Y-81636407D01*
X108167092Y-81619484D01*
X108154535Y-81604520D01*
X108152812Y-81594751D01*
X108151142Y-81591858D01*
X108150000Y-81578800D01*
X108150000Y-81527300D01*
X114443919Y-81527300D01*
X114446466Y-81559679D01*
X114446468Y-81559689D01*
X114491792Y-81715694D01*
X114574492Y-81855532D01*
X114574498Y-81855539D01*
X114689360Y-81970401D01*
X114689367Y-81970407D01*
X114829204Y-82053106D01*
X114967600Y-82093313D01*
X114967600Y-81527300D01*
X114443919Y-81527300D01*
X108150000Y-81527300D01*
X108150000Y-81400000D01*
X107971200Y-81400000D01*
X107922862Y-81382407D01*
X107897142Y-81337858D01*
X107896000Y-81324800D01*
X107896000Y-81149248D01*
X107913593Y-81100910D01*
X107958142Y-81075190D01*
X107974826Y-81074135D01*
X107982874Y-81074523D01*
X108001823Y-81079601D01*
X108081579Y-81079601D01*
X108081583Y-81079600D01*
X108328800Y-81079600D01*
X108377138Y-81097193D01*
X108402858Y-81141742D01*
X108403156Y-81145157D01*
X108403999Y-81146000D01*
X108840397Y-81146000D01*
X108877996Y-81156074D01*
X108951887Y-81198736D01*
X109067075Y-81229600D01*
X109067078Y-81229600D01*
X112877822Y-81229600D01*
X112877825Y-81229600D01*
X112993013Y-81198736D01*
X113096287Y-81139110D01*
X113817171Y-80418226D01*
X113863791Y-80396486D01*
X113870345Y-80396200D01*
X114718833Y-80396200D01*
X114767171Y-80413793D01*
X114792891Y-80458342D01*
X114783958Y-80509000D01*
X114757113Y-80536128D01*
X114689367Y-80576192D01*
X114689360Y-80576198D01*
X114574498Y-80691060D01*
X114574492Y-80691067D01*
X114491792Y-80830905D01*
X114446468Y-80986910D01*
X114446466Y-80986920D01*
X114443918Y-81019299D01*
X114443919Y-81019300D01*
X115146400Y-81019300D01*
X115194738Y-81036893D01*
X115220458Y-81081442D01*
X115221600Y-81094500D01*
X115221600Y-81273300D01*
X115400400Y-81273300D01*
X115448738Y-81290893D01*
X115474458Y-81335442D01*
X115475600Y-81348500D01*
X115475600Y-82093313D01*
X115613997Y-82053106D01*
X115675219Y-82016899D01*
X115725781Y-82007436D01*
X115770597Y-82032687D01*
X115788696Y-82080838D01*
X115788700Y-82081626D01*
X115788700Y-82295200D01*
X115771107Y-82343538D01*
X115726558Y-82369258D01*
X115713500Y-82370400D01*
X115663874Y-82370400D01*
X115658610Y-82371010D01*
X115638551Y-82373337D01*
X115534954Y-82419080D01*
X115534951Y-82419082D01*
X115454882Y-82499151D01*
X115454880Y-82499154D01*
X115409137Y-82602751D01*
X115406200Y-82628076D01*
X115406200Y-83018523D01*
X115409137Y-83043848D01*
X115454880Y-83147445D01*
X115454882Y-83147448D01*
X115534951Y-83227517D01*
X115534954Y-83227519D01*
X115534955Y-83227520D01*
X115638550Y-83273262D01*
X115663874Y-83276200D01*
X115663876Y-83276200D01*
X117266222Y-83276200D01*
X117266225Y-83276200D01*
X117381413Y-83245336D01*
X117484687Y-83185710D01*
X118301139Y-82369258D01*
X119122172Y-81548226D01*
X119168792Y-81526486D01*
X119175346Y-81526200D01*
X119988304Y-81526200D01*
X119988308Y-81526200D01*
X120082655Y-81511257D01*
X120196371Y-81453316D01*
X120286616Y-81363071D01*
X120344557Y-81249355D01*
X120359500Y-81155008D01*
X120359500Y-80471400D01*
X120377093Y-80423062D01*
X120421642Y-80397342D01*
X120434700Y-80396200D01*
X121956224Y-80396200D01*
X121956225Y-80396200D01*
X122002384Y-80383832D01*
X122021306Y-80378762D01*
X122040768Y-80376200D01*
X122110332Y-80376200D01*
X122110334Y-80376200D01*
X122134821Y-80373359D01*
X122234996Y-80329128D01*
X122312428Y-80251696D01*
X122356659Y-80151521D01*
X122359500Y-80127034D01*
X122359500Y-79759566D01*
X122358980Y-79755085D01*
X122370882Y-79705042D01*
X122395399Y-79681687D01*
X122466915Y-79639393D01*
X122466925Y-79639385D01*
X122582685Y-79523625D01*
X122582693Y-79523615D01*
X122666029Y-79382698D01*
X122666031Y-79382694D01*
X122708273Y-79237300D01*
X121084927Y-79237300D01*
X121127168Y-79382694D01*
X121128309Y-79385330D01*
X121128405Y-79386952D01*
X121128489Y-79387240D01*
X121128423Y-79387258D01*
X121131363Y-79436680D01*
X121100696Y-79477978D01*
X121059296Y-79490400D01*
X120434700Y-79490400D01*
X120386362Y-79472807D01*
X120360642Y-79428258D01*
X120359500Y-79415200D01*
X120359500Y-79091596D01*
X120359500Y-79091592D01*
X120344557Y-78997245D01*
X120286616Y-78883529D01*
X120196371Y-78793284D01*
X120082655Y-78735343D01*
X120082657Y-78735343D01*
X120044496Y-78729299D01*
X121084927Y-78729299D01*
X121084927Y-78729300D01*
X121642600Y-78729300D01*
X122150600Y-78729300D01*
X122708273Y-78729300D01*
X122708272Y-78729299D01*
X122666031Y-78583905D01*
X122666029Y-78583901D01*
X122582693Y-78442984D01*
X122582685Y-78442974D01*
X122466925Y-78327214D01*
X122466915Y-78327206D01*
X122325999Y-78243870D01*
X122325992Y-78243867D01*
X122168777Y-78198191D01*
X122168778Y-78198191D01*
X122150600Y-78196760D01*
X122150600Y-78729300D01*
X121642600Y-78729300D01*
X121642600Y-78196760D01*
X121624421Y-78198191D01*
X121467207Y-78243867D01*
X121467200Y-78243870D01*
X121326284Y-78327206D01*
X121326274Y-78327214D01*
X121210514Y-78442974D01*
X121210506Y-78442984D01*
X121127170Y-78583901D01*
X121127168Y-78583905D01*
X121084927Y-78729299D01*
X120044496Y-78729299D01*
X119988310Y-78720400D01*
X119988308Y-78720400D01*
X118624892Y-78720400D01*
X118624889Y-78720400D01*
X118530543Y-78735343D01*
X118416828Y-78793284D01*
X118326584Y-78883528D01*
X118268643Y-78997243D01*
X118253700Y-79091589D01*
X118253700Y-79415200D01*
X118236107Y-79463538D01*
X118191558Y-79489258D01*
X118178500Y-79490400D01*
X117533904Y-79490400D01*
X117485566Y-79472807D01*
X117459846Y-79428258D01*
X117464891Y-79385330D01*
X117466031Y-79382694D01*
X117508273Y-79237300D01*
X116382036Y-79237300D01*
X116361205Y-79247014D01*
X116354651Y-79247300D01*
X114684927Y-79247300D01*
X114727612Y-79394220D01*
X114724203Y-79445546D01*
X114688599Y-79482674D01*
X114655398Y-79490400D01*
X113711226Y-79490400D01*
X113591975Y-79490400D01*
X113517333Y-79510400D01*
X113476786Y-79521264D01*
X113476785Y-79521264D01*
X113373512Y-79580889D01*
X112652629Y-80301774D01*
X112606009Y-80323514D01*
X112599455Y-80323800D01*
X110198276Y-80323800D01*
X110149938Y-80306207D01*
X110124218Y-80261658D01*
X110133151Y-80211000D01*
X110145102Y-80195426D01*
X110202960Y-80137567D01*
X110202962Y-80137564D01*
X110313278Y-79972465D01*
X110389261Y-79789026D01*
X110389262Y-79789025D01*
X110428000Y-79594279D01*
X110428000Y-79199000D01*
X109720000Y-79199000D01*
X109720000Y-78739299D01*
X114684927Y-78739299D01*
X114684927Y-78739300D01*
X115242600Y-78739300D01*
X115242600Y-78206760D01*
X115750600Y-78206760D01*
X115750600Y-78739300D01*
X115811164Y-78739300D01*
X115831995Y-78729586D01*
X115838549Y-78729300D01*
X116442600Y-78729300D01*
X116950600Y-78729300D01*
X117508273Y-78729300D01*
X117508272Y-78729299D01*
X117466031Y-78583905D01*
X117466029Y-78583901D01*
X117382693Y-78442984D01*
X117382685Y-78442974D01*
X117266925Y-78327214D01*
X117266915Y-78327206D01*
X117125999Y-78243870D01*
X117125992Y-78243867D01*
X116968777Y-78198191D01*
X116968778Y-78198191D01*
X116950600Y-78196760D01*
X116950600Y-78729300D01*
X116442600Y-78729300D01*
X116442600Y-78196760D01*
X116424421Y-78198191D01*
X116267207Y-78243867D01*
X116267200Y-78243870D01*
X116126424Y-78327123D01*
X116075862Y-78336585D01*
X116049866Y-78327123D01*
X115925999Y-78253870D01*
X115925992Y-78253867D01*
X115768777Y-78208191D01*
X115768778Y-78208191D01*
X115750600Y-78206760D01*
X115242600Y-78206760D01*
X115224421Y-78208191D01*
X115067207Y-78253867D01*
X115067200Y-78253870D01*
X114926284Y-78337206D01*
X114926274Y-78337214D01*
X114810514Y-78452974D01*
X114810506Y-78452984D01*
X114727170Y-78593901D01*
X114727168Y-78593905D01*
X114684927Y-78739299D01*
X109720000Y-78739299D01*
X109720000Y-78691000D01*
X110428000Y-78691000D01*
X110428000Y-78295720D01*
X110389262Y-78100974D01*
X110389261Y-78100973D01*
X110313278Y-77917534D01*
X110202962Y-77752435D01*
X110202960Y-77752432D01*
X110062567Y-77612039D01*
X110062564Y-77612037D01*
X109897465Y-77501721D01*
X109714020Y-77425736D01*
X109714021Y-77425736D01*
X109674000Y-77417775D01*
X109674000Y-78234939D01*
X109660060Y-78210795D01*
X109604205Y-78154940D01*
X109535796Y-78115444D01*
X109459496Y-78095000D01*
X109380504Y-78095000D01*
X109304204Y-78115444D01*
X109235795Y-78154940D01*
X109179940Y-78210795D01*
X109166000Y-78234939D01*
X109166000Y-77417775D01*
X109165999Y-77417775D01*
X109125979Y-77425736D01*
X108942534Y-77501721D01*
X108777435Y-77612037D01*
X108777432Y-77612039D01*
X108637039Y-77752432D01*
X108637037Y-77752435D01*
X108526721Y-77917534D01*
X108496477Y-77990550D01*
X108461724Y-78028475D01*
X108410724Y-78035189D01*
X108373827Y-78014946D01*
X108343365Y-77984484D01*
X108212142Y-77908722D01*
X108212136Y-77908720D01*
X108212135Y-77908719D01*
X108065766Y-77869500D01*
X107914234Y-77869500D01*
X107767865Y-77908719D01*
X107767857Y-77908722D01*
X107636634Y-77984484D01*
X107529484Y-78091634D01*
X107453722Y-78222857D01*
X107453719Y-78222865D01*
X107437243Y-78284355D01*
X107407738Y-78326492D01*
X107358051Y-78339806D01*
X107311431Y-78318066D01*
X107089925Y-78096560D01*
X107068185Y-78049940D01*
X107067899Y-78043386D01*
X107067899Y-77990377D01*
X107067899Y-77990375D01*
X107037035Y-77875187D01*
X107021783Y-77848770D01*
X106977409Y-77771912D01*
X106443086Y-77237589D01*
X106339812Y-77177964D01*
X106224624Y-77147100D01*
X104094626Y-77147100D01*
X103975376Y-77147100D01*
X103888985Y-77170248D01*
X103860187Y-77177964D01*
X103860186Y-77177964D01*
X103756913Y-77237589D01*
X103222590Y-77771912D01*
X103162965Y-77875185D01*
X103162965Y-77875186D01*
X103161927Y-77879060D01*
X103132101Y-77990375D01*
X103132101Y-77990377D01*
X103132101Y-78043386D01*
X103114508Y-78091724D01*
X103110085Y-78096549D01*
X102998444Y-78208191D01*
X102888568Y-78318067D01*
X102841948Y-78339806D01*
X102792261Y-78326492D01*
X102762757Y-78284357D01*
X102746281Y-78222865D01*
X102746279Y-78222861D01*
X102746277Y-78222857D01*
X102670515Y-78091634D01*
X102563365Y-77984484D01*
X102432142Y-77908722D01*
X102432136Y-77908720D01*
X102432135Y-77908719D01*
X102285766Y-77869500D01*
X102134234Y-77869500D01*
X101987865Y-77908719D01*
X101987857Y-77908722D01*
X101856636Y-77984483D01*
X101826172Y-78014947D01*
X101779551Y-78036686D01*
X101729864Y-78023372D01*
X101703522Y-77990550D01*
X101673278Y-77917534D01*
X101562962Y-77752435D01*
X101562960Y-77752432D01*
X101422567Y-77612039D01*
X101422564Y-77612037D01*
X101257465Y-77501721D01*
X101074020Y-77425736D01*
X101074021Y-77425736D01*
X101034000Y-77417775D01*
X101034000Y-78234939D01*
X101020060Y-78210795D01*
X100964205Y-78154940D01*
X100895796Y-78115444D01*
X100819496Y-78095000D01*
X100740504Y-78095000D01*
X100664204Y-78115444D01*
X100595795Y-78154940D01*
X100539940Y-78210795D01*
X100526000Y-78234939D01*
X100526000Y-77573051D01*
X100543593Y-77524713D01*
X100548019Y-77519884D01*
X101158578Y-76909326D01*
X101205198Y-76887586D01*
X101211752Y-76887300D01*
X111071114Y-76887300D01*
X111112892Y-76899973D01*
X111169684Y-76937921D01*
X111315803Y-76998445D01*
X111431984Y-77021555D01*
X111470920Y-77029300D01*
X111470921Y-77029300D01*
X121945130Y-77029300D01*
X121993468Y-77046893D01*
X121998304Y-77051326D01*
X123252396Y-78305418D01*
X123252397Y-78305419D01*
X123316212Y-78369234D01*
X123364231Y-78417253D01*
X123364234Y-78417256D01*
X123475992Y-78491930D01*
X123495734Y-78505121D01*
X123593897Y-78545781D01*
X123593896Y-78545781D01*
X123620123Y-78556644D01*
X123641852Y-78565645D01*
X123758191Y-78588786D01*
X123796970Y-78596500D01*
X123796971Y-78596500D01*
X125692490Y-78596500D01*
X125723345Y-78590362D01*
X125847607Y-78565645D01*
X125993726Y-78505121D01*
X126050517Y-78467173D01*
X126060477Y-78464152D01*
X126066576Y-78459035D01*
X126092296Y-78454500D01*
X126210178Y-78454500D01*
X126258516Y-78472093D01*
X126263352Y-78476526D01*
X126442402Y-78655576D01*
X126464142Y-78702196D01*
X126450828Y-78751883D01*
X126442402Y-78761924D01*
X126046665Y-79157661D01*
X126012825Y-79191501D01*
X125919230Y-79285095D01*
X125919227Y-79285098D01*
X125819107Y-79434939D01*
X125750140Y-79601439D01*
X125750139Y-79601440D01*
X125714980Y-79778199D01*
X125714980Y-81331864D01*
X125697387Y-81380202D01*
X125677382Y-81396988D01*
X125642200Y-81417301D01*
X121937829Y-85121674D01*
X121891209Y-85143414D01*
X121884655Y-85143700D01*
X120434700Y-85143700D01*
X120386362Y-85126107D01*
X120360642Y-85081558D01*
X120359500Y-85068500D01*
X120359500Y-83091596D01*
X120359500Y-83091592D01*
X120344557Y-82997245D01*
X120286616Y-82883529D01*
X120196371Y-82793284D01*
X120082655Y-82735343D01*
X120082657Y-82735343D01*
X119988310Y-82720400D01*
X119988308Y-82720400D01*
X118624892Y-82720400D01*
X118624889Y-82720400D01*
X118530543Y-82735343D01*
X118416828Y-82793284D01*
X118326584Y-82883528D01*
X118268643Y-82997243D01*
X118253700Y-83091589D01*
X118253700Y-84195200D01*
X118236107Y-84243538D01*
X118191558Y-84269258D01*
X118178500Y-84270400D01*
X116929326Y-84270400D01*
X115663874Y-84270400D01*
X115658610Y-84271010D01*
X115638551Y-84273337D01*
X115534954Y-84319080D01*
X115534951Y-84319082D01*
X115454882Y-84399151D01*
X115454880Y-84399154D01*
X115409137Y-84502751D01*
X115406810Y-84522810D01*
X115406200Y-84528074D01*
X115406200Y-84918526D01*
X115407115Y-84926421D01*
X115409137Y-84943848D01*
X115454880Y-85047445D01*
X115454882Y-85047448D01*
X115534951Y-85127517D01*
X115534954Y-85127519D01*
X115534955Y-85127520D01*
X115638550Y-85173262D01*
X115663874Y-85176200D01*
X116236975Y-85176200D01*
X118192830Y-85176200D01*
X118241168Y-85193793D01*
X118266888Y-85238342D01*
X118267104Y-85239637D01*
X118268642Y-85249352D01*
X118268644Y-85249358D01*
X118299340Y-85309601D01*
X118326584Y-85363071D01*
X118416829Y-85453316D01*
X118530543Y-85511256D01*
X118530545Y-85511257D01*
X118624892Y-85526200D01*
X119736286Y-85526200D01*
X119784624Y-85543793D01*
X119810344Y-85588342D01*
X119801411Y-85639000D01*
X119789460Y-85654574D01*
X117868960Y-87575074D01*
X117822340Y-87596814D01*
X117815786Y-87597100D01*
X112336682Y-87597100D01*
X112288344Y-87579507D01*
X112262624Y-87534958D01*
X112264468Y-87500919D01*
X112280772Y-87444800D01*
X110657428Y-87444800D01*
X110673732Y-87500919D01*
X110670323Y-87552246D01*
X110634720Y-87589374D01*
X110601518Y-87597100D01*
X110377045Y-87597100D01*
X110328707Y-87579507D01*
X110323871Y-87575074D01*
X109936526Y-87187729D01*
X109929588Y-87172852D01*
X109919035Y-87160275D01*
X109916184Y-87144107D01*
X109914786Y-87141109D01*
X109914500Y-87134555D01*
X109914500Y-87072045D01*
X109932093Y-87023707D01*
X109936526Y-87018871D01*
X110257171Y-86698226D01*
X110303791Y-86676486D01*
X110310345Y-86676200D01*
X110635961Y-86676200D01*
X110684299Y-86693793D01*
X110710019Y-86738342D01*
X110701436Y-86787013D01*
X110701548Y-86787062D01*
X110701345Y-86787530D01*
X110701086Y-86789000D01*
X110700688Y-86789682D01*
X110699668Y-86791406D01*
X110657427Y-86936799D01*
X110657427Y-86936800D01*
X112280773Y-86936800D01*
X112280772Y-86936799D01*
X112238531Y-86791405D01*
X112237391Y-86788770D01*
X112237294Y-86787147D01*
X112237211Y-86786860D01*
X112237276Y-86786841D01*
X112234337Y-86737420D01*
X112265004Y-86696122D01*
X112306404Y-86683700D01*
X113853725Y-86683700D01*
X113872156Y-86678762D01*
X113891617Y-86676200D01*
X113999582Y-86676200D01*
X113999584Y-86676200D01*
X114023657Y-86673407D01*
X114122121Y-86629931D01*
X114198231Y-86553821D01*
X114241707Y-86455357D01*
X114244500Y-86431284D01*
X114244500Y-86384789D01*
X114247062Y-86365326D01*
X114270863Y-86276498D01*
X114300366Y-86234363D01*
X114350053Y-86221049D01*
X114396674Y-86242788D01*
X114418414Y-86289408D01*
X114418700Y-86295963D01*
X114418700Y-86431281D01*
X114421492Y-86455355D01*
X114421493Y-86455357D01*
X114464969Y-86553821D01*
X114464970Y-86553822D01*
X114464972Y-86553825D01*
X114541074Y-86629927D01*
X114541077Y-86629929D01*
X114541079Y-86629931D01*
X114639543Y-86673407D01*
X114663616Y-86676200D01*
X114663618Y-86676200D01*
X115019582Y-86676200D01*
X115019584Y-86676200D01*
X115043657Y-86673407D01*
X115142121Y-86629931D01*
X115218231Y-86553821D01*
X115241543Y-86501023D01*
X115244474Y-86497969D01*
X115245210Y-86493800D01*
X115261990Y-86479719D01*
X115277161Y-86463913D01*
X115282232Y-86462733D01*
X115284615Y-86460735D01*
X115310335Y-86456200D01*
X115373670Y-86456200D01*
X115422008Y-86473793D01*
X115443145Y-86502621D01*
X115457201Y-86536554D01*
X115457203Y-86536557D01*
X115457517Y-86536871D01*
X115473135Y-86559668D01*
X115474968Y-86563820D01*
X115474971Y-86563824D01*
X115551074Y-86639927D01*
X115551077Y-86639929D01*
X115551079Y-86639931D01*
X115649543Y-86683407D01*
X115673616Y-86686200D01*
X115673618Y-86686200D01*
X116029582Y-86686200D01*
X116029584Y-86686200D01*
X116053657Y-86683407D01*
X116075435Y-86673790D01*
X116126759Y-86670359D01*
X116168282Y-86700721D01*
X116170539Y-86704302D01*
X116224492Y-86795532D01*
X116224498Y-86795539D01*
X116339360Y-86910401D01*
X116339367Y-86910407D01*
X116479204Y-86993106D01*
X116617600Y-87033313D01*
X117125600Y-87033313D01*
X117263995Y-86993106D01*
X117403832Y-86910407D01*
X117403839Y-86910401D01*
X117518701Y-86795539D01*
X117518707Y-86795532D01*
X117601407Y-86655694D01*
X117646731Y-86499689D01*
X117646733Y-86499679D01*
X117649281Y-86467300D01*
X117125600Y-86467300D01*
X117125600Y-87033313D01*
X116617600Y-87033313D01*
X116617600Y-85959300D01*
X117125600Y-85959300D01*
X117649281Y-85959300D01*
X117649281Y-85959299D01*
X117646733Y-85926920D01*
X117646731Y-85926910D01*
X117601407Y-85770905D01*
X117518707Y-85631067D01*
X117518701Y-85631060D01*
X117403839Y-85516198D01*
X117403832Y-85516192D01*
X117263994Y-85433492D01*
X117125600Y-85393285D01*
X117125600Y-85959300D01*
X116617600Y-85959300D01*
X116617600Y-85393285D01*
X116617599Y-85393285D01*
X116479205Y-85433492D01*
X116339367Y-85516192D01*
X116339360Y-85516198D01*
X116224498Y-85631060D01*
X116224488Y-85631073D01*
X116170538Y-85722297D01*
X116130789Y-85754948D01*
X116079352Y-85754408D01*
X116075437Y-85752810D01*
X116053657Y-85743193D01*
X116053655Y-85743192D01*
X116035168Y-85741047D01*
X116029584Y-85740400D01*
X115673616Y-85740400D01*
X115668612Y-85740980D01*
X115649544Y-85743192D01*
X115587925Y-85770400D01*
X115557335Y-85783907D01*
X115551077Y-85786670D01*
X115551074Y-85786672D01*
X115474972Y-85862774D01*
X115474967Y-85862782D01*
X115456072Y-85905575D01*
X115453140Y-85908629D01*
X115452405Y-85912800D01*
X115435622Y-85926882D01*
X115420453Y-85942688D01*
X115415380Y-85943867D01*
X115413000Y-85945865D01*
X115387280Y-85950400D01*
X115310335Y-85950400D01*
X115261997Y-85932807D01*
X115241543Y-85905577D01*
X115218231Y-85852779D01*
X115218229Y-85852777D01*
X115218227Y-85852774D01*
X115142125Y-85776672D01*
X115142122Y-85776670D01*
X115142121Y-85776669D01*
X115043657Y-85733193D01*
X115043655Y-85733192D01*
X115025168Y-85731047D01*
X115019584Y-85730400D01*
X114663616Y-85730400D01*
X114658612Y-85730980D01*
X114639544Y-85733192D01*
X114566741Y-85765338D01*
X114544094Y-85775338D01*
X114541077Y-85776670D01*
X114541074Y-85776672D01*
X114464972Y-85852774D01*
X114464970Y-85852777D01*
X114464969Y-85852778D01*
X114464969Y-85852779D01*
X114421493Y-85951243D01*
X114421492Y-85951244D01*
X114419209Y-85956417D01*
X114417231Y-85955543D01*
X114392592Y-85990441D01*
X114342853Y-86003561D01*
X114296318Y-85981639D01*
X114274761Y-85934934D01*
X114274500Y-85928673D01*
X114274500Y-84592045D01*
X114292093Y-84543707D01*
X114296526Y-84538871D01*
X114587171Y-84248226D01*
X114633791Y-84226486D01*
X114640345Y-84226200D01*
X115054324Y-84226200D01*
X115054326Y-84226200D01*
X115079650Y-84223262D01*
X115183245Y-84177520D01*
X115263320Y-84097445D01*
X115309062Y-83993850D01*
X115312000Y-83968526D01*
X115312000Y-83578074D01*
X115309062Y-83552750D01*
X115263320Y-83449155D01*
X115263319Y-83449154D01*
X115263317Y-83449151D01*
X115183248Y-83369082D01*
X115183245Y-83369080D01*
X115079648Y-83323337D01*
X115060200Y-83321081D01*
X115054326Y-83320400D01*
X114481225Y-83320400D01*
X112821225Y-83320400D01*
X112701975Y-83320400D01*
X112632935Y-83338899D01*
X112586785Y-83351264D01*
X112554304Y-83370016D01*
X112547083Y-83373681D01*
X112493206Y-83397470D01*
X112493200Y-83397474D01*
X112415773Y-83474901D01*
X112411834Y-83480652D01*
X112410826Y-83479961D01*
X112402889Y-83491513D01*
X112389188Y-83505214D01*
X112329564Y-83608485D01*
X112329564Y-83608486D01*
X112321671Y-83637943D01*
X112298700Y-83723675D01*
X112298700Y-83842925D01*
X112318436Y-83916582D01*
X112329564Y-83958113D01*
X112330538Y-83959800D01*
X112330742Y-83960959D01*
X112331450Y-83962668D01*
X112331071Y-83962824D01*
X112339469Y-84010458D01*
X112313749Y-84055006D01*
X112303693Y-84062126D01*
X112261282Y-84087208D01*
X112261272Y-84087216D01*
X112145514Y-84202974D01*
X112145508Y-84202981D01*
X112061928Y-84344311D01*
X112022179Y-84376961D01*
X111970742Y-84376423D01*
X111931685Y-84342947D01*
X111922000Y-84306031D01*
X111922000Y-84082818D01*
X111919599Y-84062126D01*
X111919207Y-84058743D01*
X111875731Y-83960279D01*
X111875729Y-83960277D01*
X111875727Y-83960274D01*
X111799625Y-83884172D01*
X111799622Y-83884170D01*
X111799621Y-83884169D01*
X111706205Y-83842922D01*
X111701155Y-83840692D01*
X111682668Y-83838547D01*
X111677084Y-83837900D01*
X111221116Y-83837900D01*
X111216112Y-83838480D01*
X111197044Y-83840692D01*
X111098577Y-83884170D01*
X111098574Y-83884172D01*
X111022472Y-83960274D01*
X111022469Y-83960279D01*
X111015716Y-83975574D01*
X110980097Y-84012687D01*
X110946923Y-84020400D01*
X110755714Y-84020400D01*
X110707376Y-84002807D01*
X110702540Y-83998374D01*
X110620748Y-83916582D01*
X110620745Y-83916580D01*
X110517148Y-83870837D01*
X110497700Y-83868581D01*
X110491826Y-83867900D01*
X109376374Y-83867900D01*
X109371110Y-83868510D01*
X109351051Y-83870837D01*
X109247454Y-83916580D01*
X109247451Y-83916582D01*
X109167382Y-83996651D01*
X109167380Y-83996654D01*
X109121637Y-84100251D01*
X109118700Y-84125576D01*
X109118700Y-84492584D01*
X109101107Y-84540922D01*
X109081780Y-84557312D01*
X109015101Y-84596745D01*
X109015094Y-84596751D01*
X108897549Y-84714296D01*
X108897541Y-84714306D01*
X108812919Y-84857397D01*
X108812916Y-84857404D01*
X108766607Y-85016799D01*
X108766607Y-85016800D01*
X111101593Y-85016800D01*
X111101592Y-85016799D01*
X111097635Y-85003177D01*
X111095928Y-84997300D01*
X112019927Y-84997300D01*
X112062168Y-85142694D01*
X112062170Y-85142698D01*
X112145506Y-85283615D01*
X112145514Y-85283625D01*
X112261274Y-85399385D01*
X112261284Y-85399393D01*
X112402200Y-85482729D01*
X112402207Y-85482732D01*
X112559427Y-85528409D01*
X112577599Y-85529839D01*
X112577600Y-85529838D01*
X112577600Y-84997300D01*
X112019927Y-84997300D01*
X111095928Y-84997300D01*
X111055283Y-84857404D01*
X111055280Y-84857397D01*
X110977257Y-84725465D01*
X110967795Y-84674903D01*
X110993047Y-84630088D01*
X111041198Y-84611990D01*
X111089717Y-84629077D01*
X111095159Y-84634012D01*
X111098574Y-84637427D01*
X111098577Y-84637429D01*
X111098579Y-84637431D01*
X111197043Y-84680907D01*
X111221116Y-84683700D01*
X111221118Y-84683700D01*
X111677082Y-84683700D01*
X111677084Y-84683700D01*
X111701157Y-84680907D01*
X111799621Y-84637431D01*
X111875731Y-84561321D01*
X111897301Y-84512468D01*
X111932919Y-84475358D01*
X111984060Y-84469823D01*
X112013530Y-84489300D01*
X112756400Y-84489300D01*
X112804738Y-84506893D01*
X112830458Y-84551442D01*
X112831600Y-84564500D01*
X112831600Y-84743300D01*
X113010400Y-84743300D01*
X113058738Y-84760893D01*
X113084458Y-84805442D01*
X113085600Y-84818500D01*
X113085600Y-85529839D01*
X113103771Y-85528409D01*
X113103774Y-85528409D01*
X113260991Y-85482732D01*
X113263627Y-85481592D01*
X113265250Y-85481495D01*
X113265541Y-85481411D01*
X113265560Y-85481476D01*
X113314976Y-85478536D01*
X113356276Y-85509201D01*
X113368700Y-85550604D01*
X113368700Y-85702700D01*
X113351107Y-85751038D01*
X113306558Y-85776758D01*
X113293500Y-85777900D01*
X111564117Y-85777900D01*
X111544656Y-85775338D01*
X111526225Y-85770400D01*
X111130396Y-85770400D01*
X111082058Y-85752807D01*
X111056338Y-85708258D01*
X111058182Y-85674220D01*
X111101593Y-85524800D01*
X108766607Y-85524800D01*
X108812916Y-85684195D01*
X108812919Y-85684202D01*
X108897541Y-85827293D01*
X108897549Y-85827303D01*
X109015096Y-85944850D01*
X109015106Y-85944858D01*
X109081779Y-85984287D01*
X109114430Y-86024035D01*
X109118700Y-86049015D01*
X109118700Y-86416023D01*
X109121638Y-86441350D01*
X109134957Y-86471515D01*
X109138387Y-86522840D01*
X109119340Y-86555062D01*
X109099188Y-86575214D01*
X109039564Y-86678485D01*
X109039564Y-86678486D01*
X109032647Y-86704302D01*
X109008700Y-86793675D01*
X109008700Y-87293675D01*
X109008700Y-87412925D01*
X109017241Y-87444800D01*
X109039564Y-87528113D01*
X109039564Y-87528114D01*
X109099189Y-87631387D01*
X109686529Y-88218726D01*
X109708269Y-88265346D01*
X109694955Y-88315033D01*
X109652818Y-88344538D01*
X109633355Y-88347100D01*
X108339994Y-88347100D01*
X108220743Y-88347100D01*
X108163149Y-88362532D01*
X108105553Y-88377964D01*
X108002282Y-88437588D01*
X107738096Y-88701774D01*
X107691476Y-88723513D01*
X107684922Y-88723799D01*
X107367826Y-88723799D01*
X107248576Y-88723799D01*
X107162185Y-88746947D01*
X107133387Y-88754663D01*
X107133386Y-88754663D01*
X107030113Y-88814288D01*
X106987955Y-88856446D01*
X106987953Y-88856450D01*
X106945791Y-88898611D01*
X106945789Y-88898613D01*
X105798332Y-90046071D01*
X104669329Y-91175074D01*
X104622709Y-91196814D01*
X104616155Y-91197100D01*
X102402875Y-91197100D01*
X102316484Y-91220248D01*
X102287686Y-91227964D01*
X102287685Y-91227964D01*
X102184412Y-91287589D01*
X102100089Y-91371912D01*
X102040464Y-91475185D01*
X102040464Y-91475186D01*
X102030484Y-91512435D01*
X102009600Y-91590375D01*
X102009600Y-91709625D01*
X102018612Y-91743257D01*
X102029272Y-91783042D01*
X102024788Y-91834286D01*
X101988414Y-91870660D01*
X101937170Y-91875142D01*
X101903460Y-91855679D01*
X99910721Y-89862941D01*
X99910711Y-89862928D01*
X99833384Y-89785601D01*
X99778932Y-89763047D01*
X99740431Y-89747099D01*
X99639821Y-89747099D01*
X99631069Y-89747099D01*
X99631061Y-89747100D01*
X98553746Y-89747100D01*
X98505408Y-89729507D01*
X98500572Y-89725074D01*
X98413087Y-89637589D01*
X98309813Y-89577964D01*
X98194625Y-89547100D01*
X98075375Y-89547100D01*
X97988984Y-89570248D01*
X97960186Y-89577964D01*
X97960185Y-89577964D01*
X97856912Y-89637589D01*
X97772589Y-89721912D01*
X97712964Y-89825185D01*
X97712964Y-89825186D01*
X97702848Y-89862940D01*
X97682100Y-89940375D01*
X97682100Y-89940377D01*
X97682100Y-89992896D01*
X97664507Y-90041234D01*
X97619958Y-90066954D01*
X97569300Y-90058021D01*
X97553726Y-90046071D01*
X97370594Y-89862940D01*
X97370583Y-89862926D01*
X97293258Y-89785601D01*
X97238806Y-89763047D01*
X97200305Y-89747099D01*
X97099695Y-89747099D01*
X97090943Y-89747099D01*
X97090935Y-89747100D01*
X96835903Y-89747100D01*
X96820475Y-89741484D01*
X96804122Y-89740054D01*
X96790677Y-89730639D01*
X96787565Y-89729507D01*
X96782729Y-89725074D01*
X96744722Y-89687067D01*
X96722982Y-89640447D01*
X96725259Y-89614429D01*
X96729465Y-89598736D01*
X96739900Y-89559791D01*
X96739900Y-89414209D01*
X96702221Y-89273589D01*
X96629430Y-89147511D01*
X96629428Y-89147509D01*
X96629426Y-89147506D01*
X96526493Y-89044573D01*
X96526487Y-89044569D01*
X96400412Y-88971779D01*
X96365256Y-88962359D01*
X96259791Y-88934100D01*
X96114209Y-88934100D01*
X96029837Y-88956707D01*
X95973587Y-88971779D01*
X95847512Y-89044569D01*
X95847506Y-89044573D01*
X95744573Y-89147506D01*
X95744569Y-89147512D01*
X95671779Y-89273587D01*
X95660672Y-89315041D01*
X95634100Y-89414209D01*
X95634100Y-89559791D01*
X95662359Y-89665256D01*
X95671779Y-89700412D01*
X95701679Y-89752200D01*
X95742755Y-89823346D01*
X95744569Y-89826487D01*
X95744573Y-89826493D01*
X95847506Y-89929426D01*
X95847509Y-89929428D01*
X95847511Y-89929430D01*
X95944802Y-89985601D01*
X95957437Y-89992896D01*
X95973589Y-90002221D01*
X96114209Y-90039900D01*
X96114212Y-90039900D01*
X96259792Y-90039900D01*
X96279179Y-90034704D01*
X96314433Y-90025258D01*
X96342293Y-90027696D01*
X96365673Y-90029741D01*
X96382002Y-90041175D01*
X96387067Y-90044722D01*
X96481308Y-90138963D01*
X96481321Y-90138978D01*
X96556738Y-90214395D01*
X96556741Y-90214397D01*
X96556743Y-90214399D01*
X96583968Y-90225675D01*
X96649695Y-90252901D01*
X96759057Y-90252901D01*
X96759065Y-90252900D01*
X97014098Y-90252900D01*
X97062436Y-90270493D01*
X97067272Y-90274926D01*
X97306674Y-90514328D01*
X97328414Y-90560948D01*
X97328700Y-90567502D01*
X97328700Y-91275226D01*
X97328699Y-91275240D01*
X97328699Y-91281295D01*
X97328699Y-91381905D01*
X97340138Y-91409520D01*
X97367201Y-91474858D01*
X97444528Y-91552185D01*
X97444540Y-91552194D01*
X102375074Y-96482729D01*
X102396814Y-96529348D01*
X102397100Y-96535902D01*
X102397100Y-96540375D01*
X102397100Y-96659625D01*
X102418616Y-96739926D01*
X102427964Y-96774813D01*
X102427964Y-96774814D01*
X102487589Y-96878087D01*
X102571912Y-96962410D01*
X102586905Y-96971066D01*
X102675187Y-97022036D01*
X102790375Y-97052900D01*
X102790378Y-97052900D01*
X102798872Y-97052900D01*
X102847210Y-97070493D01*
X102872930Y-97115042D01*
X102873683Y-97135742D01*
X102867000Y-97201160D01*
X102867000Y-97246000D01*
X103571000Y-97246000D01*
X103571000Y-96517000D01*
X103551162Y-96517000D01*
X103450765Y-96527256D01*
X103450760Y-96527257D01*
X103387390Y-96548256D01*
X103335972Y-96546760D01*
X103297546Y-96512562D01*
X103291101Y-96496340D01*
X103272036Y-96425187D01*
X103265324Y-96413562D01*
X103212410Y-96321912D01*
X103128087Y-96237589D01*
X103024813Y-96177964D01*
X103017942Y-96176123D01*
X102909625Y-96147100D01*
X102790375Y-96147100D01*
X102785903Y-96147100D01*
X102737565Y-96129507D01*
X102732729Y-96125074D01*
X101412394Y-94804739D01*
X106471585Y-94804739D01*
X106471585Y-94804740D01*
X107037600Y-94804740D01*
X107037600Y-94254000D01*
X106612319Y-94254000D01*
X106614866Y-94286379D01*
X106614868Y-94286389D01*
X106651930Y-94413954D01*
X106648521Y-94465280D01*
X106632891Y-94488108D01*
X106594492Y-94526507D01*
X106511792Y-94666345D01*
X106471585Y-94804739D01*
X101412394Y-94804739D01*
X97856526Y-91248871D01*
X97834786Y-91202251D01*
X97834500Y-91195697D01*
X97834500Y-90490658D01*
X97834501Y-90479714D01*
X97837120Y-90472519D01*
X97837121Y-90472515D01*
X97843231Y-90455735D01*
X97852094Y-90431383D01*
X97852098Y-90431380D01*
X97852099Y-90431378D01*
X97873421Y-90419070D01*
X97896643Y-90405663D01*
X97896646Y-90405663D01*
X97896649Y-90405662D01*
X97922713Y-90410260D01*
X97947300Y-90414595D01*
X97960187Y-90422036D01*
X98075375Y-90452900D01*
X98075378Y-90452900D01*
X98194622Y-90452900D01*
X98194625Y-90452900D01*
X98309813Y-90422036D01*
X98413087Y-90362410D01*
X98455990Y-90319507D01*
X98500572Y-90274926D01*
X98547192Y-90253186D01*
X98553746Y-90252900D01*
X99554224Y-90252900D01*
X99602562Y-90270493D01*
X99607397Y-90274925D01*
X101075728Y-91743257D01*
X102521434Y-93188963D01*
X102521447Y-93188978D01*
X102596867Y-93264398D01*
X102596869Y-93264399D01*
X102643344Y-93283649D01*
X102643347Y-93283650D01*
X102663522Y-93292007D01*
X102689821Y-93302901D01*
X102799183Y-93302901D01*
X102799191Y-93302900D01*
X106678986Y-93302900D01*
X106727324Y-93320493D01*
X106753044Y-93365042D01*
X106744111Y-93415700D01*
X106743714Y-93416380D01*
X106660192Y-93557605D01*
X106614868Y-93713610D01*
X106614866Y-93713620D01*
X106612318Y-93745999D01*
X106612319Y-93746000D01*
X107314800Y-93746000D01*
X107363138Y-93763593D01*
X107388858Y-93808142D01*
X107390000Y-93821200D01*
X107390000Y-94000000D01*
X107568800Y-94000000D01*
X107617138Y-94017593D01*
X107642858Y-94062142D01*
X107644000Y-94075200D01*
X107644000Y-94804740D01*
X108111615Y-94804740D01*
X108111614Y-94804739D01*
X108071407Y-94666346D01*
X108052024Y-94633572D01*
X108051870Y-94632749D01*
X108051236Y-94632206D01*
X108047158Y-94607580D01*
X108042560Y-94583010D01*
X108042925Y-94582006D01*
X108042834Y-94581457D01*
X108052023Y-94557010D01*
X108091060Y-94491002D01*
X108130809Y-94458352D01*
X108182246Y-94458890D01*
X108186144Y-94460481D01*
X108207943Y-94470107D01*
X108232016Y-94472900D01*
X108494098Y-94472900D01*
X108542436Y-94490493D01*
X108547272Y-94494926D01*
X108666674Y-94614328D01*
X108673611Y-94629204D01*
X108684165Y-94641782D01*
X108687015Y-94657949D01*
X108688414Y-94660948D01*
X108688700Y-94667502D01*
X108688700Y-94731639D01*
X108676027Y-94773417D01*
X108670573Y-94781578D01*
X108670572Y-94781582D01*
X108661700Y-94826182D01*
X108661700Y-95531295D01*
X108661701Y-95531297D01*
X108670572Y-95575899D01*
X108686757Y-95600121D01*
X108698984Y-95650086D01*
X108676233Y-95696221D01*
X108629150Y-95716939D01*
X108624231Y-95717100D01*
X108044129Y-95717100D01*
X107995791Y-95699507D01*
X107970071Y-95654958D01*
X107979004Y-95604300D01*
X107986152Y-95594983D01*
X107985805Y-95594714D01*
X107988707Y-95590972D01*
X108071407Y-95451134D01*
X108111615Y-95312740D01*
X106471585Y-95312740D01*
X106511792Y-95451134D01*
X106594492Y-95590972D01*
X106594498Y-95590979D01*
X106709360Y-95705841D01*
X106709367Y-95705847D01*
X106800597Y-95759800D01*
X106833247Y-95799550D01*
X106832709Y-95850987D01*
X106831110Y-95854901D01*
X106821494Y-95876680D01*
X106821492Y-95876684D01*
X106818700Y-95900758D01*
X106818700Y-96256721D01*
X106821492Y-96280795D01*
X106821493Y-96280797D01*
X106864969Y-96379261D01*
X106864970Y-96379262D01*
X106864972Y-96379265D01*
X106941074Y-96455367D01*
X106941077Y-96455369D01*
X106941079Y-96455371D01*
X107039543Y-96498847D01*
X107063616Y-96501640D01*
X107063618Y-96501640D01*
X107519582Y-96501640D01*
X107519584Y-96501640D01*
X107543657Y-96498847D01*
X107642121Y-96455371D01*
X107718231Y-96379261D01*
X107761707Y-96280797D01*
X107761707Y-96280791D01*
X107762371Y-96278356D01*
X107763474Y-96276793D01*
X107763991Y-96275623D01*
X107764226Y-96275727D01*
X107792038Y-96236334D01*
X107834933Y-96222900D01*
X108249918Y-96222900D01*
X108298256Y-96240493D01*
X108315286Y-96260923D01*
X108321298Y-96271494D01*
X108322572Y-96277898D01*
X108338482Y-96301710D01*
X108339821Y-96304063D01*
X108343697Y-96326913D01*
X108349206Y-96349427D01*
X108348053Y-96352593D01*
X108348424Y-96354779D01*
X108345347Y-96360029D01*
X108336980Y-96383018D01*
X108322573Y-96404579D01*
X108322571Y-96404583D01*
X108313700Y-96449182D01*
X108313700Y-96733295D01*
X108313701Y-96733300D01*
X108313807Y-96733831D01*
X108313774Y-96734042D01*
X108314063Y-96736972D01*
X108313312Y-96737045D01*
X108305981Y-96784672D01*
X108267306Y-96818587D01*
X108240052Y-96823700D01*
X105857465Y-96823700D01*
X105857457Y-96823699D01*
X105848705Y-96823699D01*
X105748095Y-96823699D01*
X105748094Y-96823699D01*
X105714114Y-96837774D01*
X105713994Y-96837824D01*
X105713812Y-96837900D01*
X105655143Y-96862201D01*
X105654374Y-96862969D01*
X105646739Y-96866190D01*
X105635082Y-96866773D01*
X105617516Y-96872100D01*
X105114141Y-96872100D01*
X105114136Y-96872101D01*
X105040682Y-96882801D01*
X105040680Y-96882802D01*
X104927374Y-96938194D01*
X104856975Y-97008593D01*
X104810355Y-97030332D01*
X104760668Y-97017018D01*
X104732418Y-96979071D01*
X104718847Y-96938115D01*
X104718845Y-96938112D01*
X104628892Y-96792273D01*
X104628887Y-96792267D01*
X104507732Y-96671112D01*
X104507726Y-96671107D01*
X104361887Y-96581154D01*
X104361886Y-96581153D01*
X104199236Y-96527256D01*
X104098838Y-96517000D01*
X104079000Y-96517000D01*
X104079000Y-98483000D01*
X104098838Y-98483000D01*
X104199236Y-98472743D01*
X104361886Y-98418846D01*
X104361887Y-98418845D01*
X104474468Y-98349405D01*
X104474469Y-98349404D01*
X104507731Y-98328888D01*
X104628887Y-98207732D01*
X104628892Y-98207726D01*
X104718845Y-98061887D01*
X104718847Y-98061884D01*
X104732418Y-98020928D01*
X104764322Y-97980578D01*
X104814699Y-97970175D01*
X104856975Y-97991407D01*
X104927372Y-98061804D01*
X104927373Y-98061804D01*
X104927375Y-98061806D01*
X105040681Y-98117198D01*
X105114137Y-98127900D01*
X105635862Y-98127899D01*
X105709319Y-98117198D01*
X105822625Y-98061806D01*
X105911806Y-97972625D01*
X105967198Y-97859319D01*
X105971858Y-97827332D01*
X105977899Y-97785873D01*
X105977899Y-97785869D01*
X105977900Y-97785863D01*
X105977899Y-97404699D01*
X105995492Y-97356363D01*
X106040040Y-97330642D01*
X106053099Y-97329500D01*
X107884144Y-97329500D01*
X107932482Y-97347093D01*
X107958202Y-97391642D01*
X107958914Y-97412734D01*
X107958600Y-97415654D01*
X107958600Y-97464240D01*
X109113500Y-97464240D01*
X109131859Y-97470922D01*
X109151100Y-97474315D01*
X109155460Y-97479511D01*
X109161838Y-97481833D01*
X109171607Y-97498755D01*
X109184165Y-97513720D01*
X109185887Y-97523488D01*
X109187558Y-97526382D01*
X109188700Y-97539440D01*
X109188700Y-97643040D01*
X109171107Y-97691378D01*
X109126558Y-97717098D01*
X109113500Y-97718240D01*
X107958600Y-97718240D01*
X107958600Y-97766833D01*
X107965104Y-97827332D01*
X107965105Y-97827335D01*
X108016155Y-97964203D01*
X108016156Y-97964205D01*
X108103696Y-98081143D01*
X108220634Y-98168683D01*
X108220636Y-98168684D01*
X108357504Y-98219734D01*
X108357507Y-98219735D01*
X108418006Y-98226239D01*
X108418018Y-98226240D01*
X108586500Y-98226240D01*
X108634838Y-98243833D01*
X108660558Y-98288382D01*
X108661700Y-98301440D01*
X108661700Y-98856295D01*
X108661701Y-98856297D01*
X108670572Y-98900899D01*
X108704364Y-98951472D01*
X108704365Y-98951472D01*
X108704366Y-98951474D01*
X108754942Y-98985268D01*
X108799543Y-98994140D01*
X109083656Y-98994139D01*
X109128258Y-98985268D01*
X109149821Y-98970859D01*
X109199785Y-98958633D01*
X109233377Y-98970859D01*
X109254942Y-98985268D01*
X109299543Y-98994140D01*
X109583656Y-98994139D01*
X109598830Y-98991121D01*
X109649671Y-98998946D01*
X109683587Y-99037621D01*
X109688700Y-99064876D01*
X109688700Y-99632837D01*
X109683085Y-99648264D01*
X109681654Y-99664619D01*
X109672239Y-99678064D01*
X109671107Y-99681175D01*
X109666684Y-99686000D01*
X109642810Y-99709875D01*
X109620857Y-99731828D01*
X109574236Y-99753567D01*
X109525905Y-99741180D01*
X109501260Y-99724713D01*
X109501256Y-99724711D01*
X109456657Y-99715840D01*
X108426544Y-99715840D01*
X108426542Y-99715841D01*
X108381940Y-99724712D01*
X108331367Y-99758504D01*
X108297572Y-99809082D01*
X108297571Y-99809083D01*
X108288700Y-99853682D01*
X108288700Y-99866654D01*
X108271107Y-99914992D01*
X108226558Y-99940712D01*
X108175900Y-99931779D01*
X108160326Y-99919828D01*
X108128087Y-99887589D01*
X108045876Y-99840125D01*
X108012811Y-99800720D01*
X108012811Y-99749280D01*
X108045876Y-99709875D01*
X108085942Y-99686743D01*
X108128087Y-99662410D01*
X108212410Y-99578087D01*
X108212412Y-99578085D01*
X108261388Y-99493255D01*
X108272036Y-99474813D01*
X108302900Y-99359625D01*
X108302900Y-99240375D01*
X108272036Y-99125187D01*
X108250105Y-99087202D01*
X108212410Y-99021912D01*
X108128087Y-98937589D01*
X108057297Y-98896719D01*
X108024232Y-98857314D01*
X108024232Y-98805874D01*
X108029764Y-98794008D01*
X108087036Y-98694813D01*
X108117900Y-98579625D01*
X108117900Y-98460375D01*
X108087036Y-98345187D01*
X108077625Y-98328887D01*
X108027410Y-98241912D01*
X107943087Y-98157589D01*
X107839813Y-98097964D01*
X107724625Y-98067100D01*
X107605375Y-98067100D01*
X107518984Y-98090248D01*
X107490186Y-98097964D01*
X107490185Y-98097964D01*
X107386912Y-98157589D01*
X107302589Y-98241912D01*
X107242964Y-98345185D01*
X107242964Y-98345186D01*
X107238865Y-98360486D01*
X107212100Y-98460375D01*
X107212100Y-98460377D01*
X107212100Y-98584097D01*
X107194507Y-98632435D01*
X107190084Y-98637260D01*
X107096513Y-98730832D01*
X107023332Y-98804013D01*
X106976712Y-98825752D01*
X106927025Y-98812438D01*
X106897522Y-98770303D01*
X106872036Y-98675187D01*
X106872035Y-98675185D01*
X106812410Y-98571912D01*
X106728087Y-98487589D01*
X106624813Y-98427964D01*
X106614505Y-98425202D01*
X106509625Y-98397100D01*
X106390375Y-98397100D01*
X106303984Y-98420248D01*
X106275186Y-98427964D01*
X106275185Y-98427964D01*
X106171912Y-98487589D01*
X106087589Y-98571912D01*
X106043155Y-98648876D01*
X106003750Y-98681941D01*
X105978030Y-98686476D01*
X105136942Y-98686476D01*
X105088604Y-98668883D01*
X105083778Y-98664460D01*
X104898450Y-98479132D01*
X104879453Y-98464084D01*
X104779087Y-98425202D01*
X104671451Y-98425202D01*
X104581713Y-98459965D01*
X104581707Y-98459968D01*
X104571084Y-98464084D01*
X104557187Y-98475091D01*
X104557179Y-98475097D01*
X104552090Y-98479128D01*
X104552081Y-98479136D01*
X104300385Y-98730832D01*
X104289108Y-98745069D01*
X104285335Y-98749833D01*
X104285329Y-98749840D01*
X104260438Y-98814095D01*
X104246450Y-98850203D01*
X104246450Y-98957839D01*
X104285332Y-99058205D01*
X104300380Y-99077202D01*
X104300385Y-99077208D01*
X104622791Y-99399614D01*
X104622795Y-99399617D01*
X104622798Y-99399620D01*
X104641795Y-99414668D01*
X104742161Y-99453550D01*
X104742164Y-99453550D01*
X104849796Y-99453550D01*
X104849797Y-99453550D01*
X104950164Y-99414668D01*
X104969161Y-99399620D01*
X105154479Y-99214301D01*
X105201099Y-99192562D01*
X105207653Y-99192276D01*
X106120630Y-99192276D01*
X106167941Y-99209495D01*
X106168005Y-99209412D01*
X106168269Y-99209614D01*
X106168968Y-99209869D01*
X106170857Y-99211600D01*
X106171911Y-99212409D01*
X106243325Y-99253640D01*
X106275187Y-99272036D01*
X106370302Y-99297521D01*
X106412438Y-99327024D01*
X106425752Y-99376711D01*
X106404013Y-99423332D01*
X106404012Y-99423332D01*
X104972271Y-100855074D01*
X104925651Y-100876814D01*
X104919097Y-100877100D01*
X104815375Y-100877100D01*
X104728984Y-100900248D01*
X104700186Y-100907964D01*
X104700185Y-100907964D01*
X104596912Y-100967589D01*
X104512589Y-101051912D01*
X104452964Y-101155185D01*
X104452964Y-101155187D01*
X104440114Y-101203146D01*
X104410609Y-101245283D01*
X104360922Y-101258597D01*
X104314302Y-101236858D01*
X104292562Y-101190237D01*
X104292276Y-101183683D01*
X104292276Y-100107653D01*
X104309869Y-100059315D01*
X104314291Y-100054489D01*
X104499620Y-99869161D01*
X104514668Y-99850164D01*
X104553550Y-99749797D01*
X104553550Y-99642161D01*
X104514668Y-99541795D01*
X104499620Y-99522798D01*
X104499617Y-99522795D01*
X104499614Y-99522791D01*
X104177208Y-99200385D01*
X104177202Y-99200380D01*
X104158205Y-99185332D01*
X104057839Y-99146450D01*
X103950203Y-99146450D01*
X103929047Y-99154645D01*
X103849840Y-99185329D01*
X103830832Y-99200385D01*
X103579137Y-99452080D01*
X103564081Y-99471088D01*
X103536690Y-99541796D01*
X103525202Y-99571451D01*
X103525202Y-99679087D01*
X103564084Y-99779453D01*
X103579132Y-99798450D01*
X103764450Y-99983768D01*
X103786190Y-100030388D01*
X103786476Y-100036942D01*
X103786476Y-102168002D01*
X103786475Y-102168016D01*
X103786475Y-102174071D01*
X103786475Y-102274681D01*
X103802423Y-102313182D01*
X103802423Y-102313183D01*
X103824976Y-102367633D01*
X103902304Y-102444961D01*
X103902317Y-102444971D01*
X104560074Y-103102728D01*
X104581814Y-103149348D01*
X104582100Y-103155902D01*
X104582100Y-107911254D01*
X104564507Y-107959592D01*
X104560074Y-107964428D01*
X104472589Y-108051912D01*
X104412964Y-108155185D01*
X104412964Y-108155186D01*
X104412964Y-108155187D01*
X104382100Y-108270375D01*
X104382100Y-108389625D01*
X104403775Y-108470518D01*
X104412964Y-108504813D01*
X104412964Y-108504814D01*
X104472589Y-108608087D01*
X104556912Y-108692410D01*
X104616538Y-108726834D01*
X104660187Y-108752036D01*
X104775375Y-108782900D01*
X104775378Y-108782900D01*
X104894622Y-108782900D01*
X104894625Y-108782900D01*
X105009813Y-108752036D01*
X105113087Y-108692410D01*
X105197410Y-108608087D01*
X105257036Y-108504813D01*
X105287900Y-108389625D01*
X105287900Y-108270375D01*
X105257036Y-108155187D01*
X105257035Y-108155185D01*
X105197410Y-108051912D01*
X105109926Y-107964428D01*
X105088186Y-107917808D01*
X105087900Y-107911254D01*
X105087900Y-103079065D01*
X105087901Y-103079056D01*
X105087901Y-102969696D01*
X105057461Y-102896208D01*
X105057461Y-102896207D01*
X105049399Y-102876744D01*
X105049399Y-102876743D01*
X105049397Y-102876741D01*
X105049395Y-102876738D01*
X104973978Y-102801321D01*
X104973963Y-102801308D01*
X104314302Y-102141647D01*
X104292562Y-102095027D01*
X104292276Y-102088473D01*
X104292276Y-101476316D01*
X104309869Y-101427978D01*
X104354418Y-101402258D01*
X104405076Y-101411191D01*
X104438141Y-101450596D01*
X104440114Y-101456854D01*
X104452963Y-101504811D01*
X104452964Y-101504814D01*
X104512589Y-101608087D01*
X104596912Y-101692410D01*
X104656538Y-101726834D01*
X104700187Y-101752036D01*
X104815375Y-101782900D01*
X104815378Y-101782900D01*
X104934622Y-101782900D01*
X104934625Y-101782900D01*
X105049813Y-101752036D01*
X105153087Y-101692410D01*
X105237410Y-101608087D01*
X105297036Y-101504813D01*
X105327900Y-101389625D01*
X105327900Y-101270375D01*
X105327382Y-101268441D01*
X105327487Y-101267238D01*
X105327257Y-101265489D01*
X105327644Y-101265437D01*
X105331866Y-101217198D01*
X105346841Y-101195811D01*
X105673726Y-100868926D01*
X105694243Y-100859359D01*
X105713840Y-100848045D01*
X105717226Y-100848642D01*
X105720345Y-100847188D01*
X105742207Y-100853046D01*
X105764498Y-100856976D01*
X105766709Y-100859611D01*
X105770032Y-100860502D01*
X105783012Y-100879039D01*
X105797564Y-100896381D01*
X105798374Y-100900979D01*
X105799537Y-100902639D01*
X105802099Y-100922101D01*
X105802099Y-100995305D01*
X105802099Y-100995306D01*
X105802100Y-101004061D01*
X105802100Y-107720991D01*
X105784507Y-107769329D01*
X105746366Y-107793628D01*
X105730190Y-107797963D01*
X105730185Y-107797964D01*
X105626912Y-107857589D01*
X105542589Y-107941912D01*
X105482964Y-108045185D01*
X105482964Y-108045186D01*
X105482964Y-108045187D01*
X105452100Y-108160375D01*
X105452100Y-108279625D01*
X105481573Y-108389622D01*
X105482964Y-108394813D01*
X105482964Y-108394814D01*
X105542589Y-108498087D01*
X105626912Y-108582410D01*
X105671386Y-108608087D01*
X105730187Y-108642036D01*
X105845375Y-108672900D01*
X105845378Y-108672900D01*
X105964622Y-108672900D01*
X105964625Y-108672900D01*
X106079813Y-108642036D01*
X106183087Y-108582410D01*
X106267410Y-108498087D01*
X106327036Y-108394813D01*
X106357900Y-108279625D01*
X106357900Y-108160375D01*
X106327036Y-108045187D01*
X106327034Y-108045184D01*
X106327034Y-108045182D01*
X106317975Y-108029491D01*
X106307900Y-107991892D01*
X106307900Y-101080902D01*
X106325493Y-101032564D01*
X106329926Y-101027728D01*
X106655325Y-100702329D01*
X106675838Y-100692763D01*
X106695440Y-100681446D01*
X106698826Y-100682043D01*
X106701945Y-100680589D01*
X106723807Y-100686447D01*
X106746098Y-100690377D01*
X106748309Y-100693012D01*
X106751632Y-100693903D01*
X106764615Y-100712444D01*
X106779163Y-100729782D01*
X106779973Y-100734378D01*
X106781137Y-100736040D01*
X106783699Y-100755502D01*
X106783699Y-100813471D01*
X106783699Y-100813472D01*
X106783700Y-100822227D01*
X106783700Y-105330226D01*
X106783699Y-105330240D01*
X106783699Y-105336295D01*
X106783699Y-105436905D01*
X106790978Y-105454477D01*
X106822201Y-105529858D01*
X106899526Y-105607183D01*
X106899540Y-105607194D01*
X107219946Y-105927601D01*
X107241685Y-105974221D01*
X107231898Y-106018372D01*
X107227964Y-106025185D01*
X107222721Y-106044754D01*
X107197100Y-106140375D01*
X107197100Y-106259625D01*
X107224187Y-106360715D01*
X107227964Y-106374813D01*
X107227964Y-106374814D01*
X107287589Y-106478087D01*
X107371912Y-106562410D01*
X107431538Y-106596834D01*
X107475187Y-106622036D01*
X107590375Y-106652900D01*
X107590378Y-106652900D01*
X107709622Y-106652900D01*
X107709625Y-106652900D01*
X107824813Y-106622036D01*
X107928087Y-106562410D01*
X108012410Y-106478087D01*
X108072036Y-106374813D01*
X108102900Y-106259625D01*
X108102900Y-106140375D01*
X108072036Y-106025187D01*
X108068101Y-106018372D01*
X108012410Y-105921912D01*
X107928087Y-105837589D01*
X107824814Y-105777964D01*
X107824808Y-105777962D01*
X107790732Y-105768831D01*
X107757023Y-105749368D01*
X107311526Y-105303871D01*
X107289786Y-105257251D01*
X107289500Y-105250697D01*
X107289500Y-104125183D01*
X108484025Y-104125183D01*
X108497888Y-104137023D01*
X108641361Y-104215897D01*
X108641360Y-104215897D01*
X108799938Y-104256613D01*
X108799940Y-104256614D01*
X108963664Y-104256614D01*
X108963666Y-104256613D01*
X109122243Y-104215897D01*
X109254922Y-104142956D01*
X109254922Y-104142954D01*
X108860589Y-103748621D01*
X108860587Y-103748621D01*
X108484025Y-104125183D01*
X107289500Y-104125183D01*
X107289500Y-103286333D01*
X107993386Y-103286333D01*
X107993386Y-103450061D01*
X108034102Y-103608638D01*
X108112974Y-103752108D01*
X108124816Y-103765972D01*
X108501378Y-103389411D01*
X108501378Y-103389410D01*
X108107043Y-102995076D01*
X108107042Y-102995076D01*
X108034101Y-103127759D01*
X107993386Y-103286333D01*
X107289500Y-103286333D01*
X107289500Y-102893442D01*
X107307093Y-102845104D01*
X107328416Y-102832792D01*
X107345999Y-102816539D01*
X107854000Y-102816539D01*
X107872171Y-102815109D01*
X107872174Y-102815109D01*
X108029392Y-102769432D01*
X108029399Y-102769429D01*
X108170315Y-102686093D01*
X108170325Y-102686085D01*
X108286085Y-102570325D01*
X108286093Y-102570315D01*
X108369429Y-102429398D01*
X108369431Y-102429394D01*
X108411673Y-102284000D01*
X107854000Y-102284000D01*
X107854000Y-102816539D01*
X107345999Y-102816539D01*
X107346000Y-102816538D01*
X107346000Y-102289575D01*
X107318462Y-102268105D01*
X107317704Y-102266895D01*
X107316362Y-102266407D01*
X107304131Y-102245222D01*
X107291159Y-102224509D01*
X107291356Y-102223095D01*
X107290642Y-102221858D01*
X107289500Y-102208800D01*
X107289500Y-101851200D01*
X107307093Y-101802862D01*
X107351642Y-101777142D01*
X107364700Y-101776000D01*
X108304103Y-101776000D01*
X108345881Y-101788672D01*
X108381942Y-101812768D01*
X108426543Y-101821640D01*
X109456656Y-101821639D01*
X109501258Y-101812768D01*
X109551834Y-101778974D01*
X109585628Y-101728398D01*
X109594500Y-101683797D01*
X109594499Y-100504641D01*
X109612092Y-100456304D01*
X109616514Y-100451480D01*
X110084855Y-99983139D01*
X110084857Y-99983139D01*
X110138428Y-99929567D01*
X110159315Y-99919828D01*
X110185044Y-99907830D01*
X110185046Y-99907830D01*
X110211672Y-99914964D01*
X110234731Y-99921143D01*
X110234733Y-99921144D01*
X110234734Y-99921145D01*
X110244773Y-99929570D01*
X110304528Y-99989325D01*
X110304541Y-99989335D01*
X110766674Y-100451468D01*
X110788414Y-100498088D01*
X110788700Y-100504642D01*
X110788700Y-101072496D01*
X110771107Y-101120834D01*
X110766674Y-101125670D01*
X109694746Y-102197598D01*
X109648126Y-102219338D01*
X109614408Y-102214546D01*
X109572950Y-102198485D01*
X109463445Y-102198485D01*
X109361335Y-102238044D01*
X109361334Y-102238044D01*
X109361333Y-102238045D01*
X109342013Y-102253348D01*
X109342007Y-102253353D01*
X109082175Y-102513185D01*
X109082170Y-102513191D01*
X109079367Y-102516730D01*
X109035561Y-102543695D01*
X109001719Y-102542872D01*
X108921240Y-102522208D01*
X108757511Y-102522208D01*
X108598937Y-102562923D01*
X108466254Y-102635864D01*
X108466254Y-102635865D01*
X109040194Y-103209806D01*
X109614132Y-103783744D01*
X109614134Y-103783744D01*
X109687075Y-103651065D01*
X109727791Y-103492488D01*
X109727792Y-103492486D01*
X109727792Y-103328761D01*
X109707127Y-103248282D01*
X109712146Y-103197087D01*
X109733272Y-103170630D01*
X109736811Y-103167828D01*
X109996650Y-102907989D01*
X110011956Y-102888665D01*
X110051515Y-102786555D01*
X110051515Y-102677050D01*
X110035452Y-102635590D01*
X110034397Y-102584162D01*
X110052399Y-102555253D01*
X110786117Y-101821536D01*
X110832736Y-101799797D01*
X110874828Y-101810585D01*
X110875099Y-101809933D01*
X110879670Y-101811826D01*
X110881069Y-101812185D01*
X110881938Y-101812766D01*
X110881940Y-101812767D01*
X110881942Y-101812768D01*
X110926543Y-101821640D01*
X111071271Y-101821639D01*
X111091199Y-101825602D01*
X111091262Y-101825287D01*
X111098525Y-101826732D01*
X111098526Y-101826732D01*
X111199138Y-101826732D01*
X111206401Y-101825287D01*
X111206463Y-101825603D01*
X111226390Y-101821639D01*
X111956656Y-101821639D01*
X112001258Y-101812768D01*
X112051834Y-101778974D01*
X112085628Y-101728398D01*
X112094500Y-101683797D01*
X112094499Y-99853684D01*
X112085628Y-99809082D01*
X112081497Y-99802900D01*
X112051835Y-99758507D01*
X112044201Y-99753406D01*
X112001258Y-99724712D01*
X112001256Y-99724711D01*
X111956657Y-99715840D01*
X110926544Y-99715840D01*
X110926542Y-99715841D01*
X110881940Y-99724712D01*
X110857294Y-99741180D01*
X110845188Y-99744142D01*
X110834978Y-99751291D01*
X110820978Y-99750065D01*
X110807328Y-99753406D01*
X110795765Y-99747859D01*
X110783734Y-99746807D01*
X110762341Y-99731827D01*
X110752550Y-99722036D01*
X110716525Y-99686010D01*
X110694786Y-99639389D01*
X110694500Y-99632836D01*
X110694500Y-99424440D01*
X110712093Y-99376102D01*
X110756642Y-99350382D01*
X110769700Y-99349240D01*
X110814600Y-99349240D01*
X110814600Y-97658240D01*
X110766006Y-97658240D01*
X110705507Y-97664744D01*
X110705504Y-97664745D01*
X110568636Y-97715795D01*
X110568634Y-97715796D01*
X110451696Y-97803336D01*
X110364156Y-97920274D01*
X110364153Y-97920280D01*
X110346494Y-97967624D01*
X110313117Y-98006765D01*
X110303229Y-98011454D01*
X110297121Y-98013822D01*
X110254942Y-98022212D01*
X110226507Y-98041211D01*
X110218792Y-98044204D01*
X110200845Y-98044579D01*
X110183411Y-98048846D01*
X110173276Y-98045157D01*
X110167364Y-98045281D01*
X110162191Y-98041122D01*
X110149820Y-98036619D01*
X110128261Y-98022213D01*
X110128256Y-98022211D01*
X110083657Y-98013340D01*
X109799544Y-98013340D01*
X109799542Y-98013341D01*
X109784366Y-98016359D01*
X109733526Y-98008531D01*
X109699611Y-97969854D01*
X109694500Y-97942603D01*
X109694500Y-97241547D01*
X109694501Y-97241545D01*
X109694501Y-97140935D01*
X109694500Y-97140932D01*
X109694500Y-96877805D01*
X109694501Y-96877796D01*
X109694501Y-96790901D01*
X109712094Y-96742563D01*
X109716527Y-96737727D01*
X109882728Y-96571526D01*
X109929348Y-96549786D01*
X109935902Y-96549500D01*
X110059622Y-96549500D01*
X110059625Y-96549500D01*
X110174813Y-96518636D01*
X110278087Y-96459010D01*
X110362410Y-96374687D01*
X110422036Y-96271413D01*
X110452900Y-96156225D01*
X110452900Y-96036975D01*
X110422036Y-95921787D01*
X110412103Y-95904582D01*
X110362410Y-95818512D01*
X110341411Y-95797513D01*
X110319671Y-95750893D01*
X110332985Y-95701206D01*
X110375122Y-95671701D01*
X110394579Y-95669139D01*
X110583656Y-95669139D01*
X110628258Y-95660268D01*
X110649821Y-95645859D01*
X110699785Y-95633633D01*
X110733377Y-95645859D01*
X110754942Y-95660268D01*
X110799543Y-95669140D01*
X111083656Y-95669139D01*
X111128258Y-95660268D01*
X111149821Y-95645859D01*
X111199785Y-95633633D01*
X111233377Y-95645859D01*
X111254942Y-95660268D01*
X111299543Y-95669140D01*
X111583656Y-95669139D01*
X111628258Y-95660268D01*
X111649821Y-95645859D01*
X111699785Y-95633633D01*
X111733377Y-95645859D01*
X111754942Y-95660268D01*
X111799543Y-95669140D01*
X112083656Y-95669139D01*
X112128258Y-95660268D01*
X112149821Y-95645859D01*
X112199785Y-95633633D01*
X112233377Y-95645859D01*
X112254942Y-95660268D01*
X112299543Y-95669140D01*
X112583656Y-95669139D01*
X112628258Y-95660268D01*
X112649821Y-95645859D01*
X112699785Y-95633633D01*
X112733377Y-95645859D01*
X112754942Y-95660268D01*
X112799543Y-95669140D01*
X113083656Y-95669139D01*
X113128258Y-95660268D01*
X113149821Y-95645859D01*
X113199785Y-95633633D01*
X113223470Y-95640273D01*
X113228632Y-95642688D01*
X113254942Y-95660268D01*
X113274533Y-95664165D01*
X113282787Y-95668027D01*
X113294900Y-95680172D01*
X113309563Y-95689069D01*
X113312550Y-95697867D01*
X113319113Y-95704448D01*
X113320585Y-95721537D01*
X113326099Y-95737778D01*
X113322731Y-95746439D01*
X113323529Y-95755698D01*
X113313672Y-95769735D01*
X113307457Y-95785721D01*
X113299309Y-95790190D01*
X113293970Y-95797796D01*
X113277396Y-95802213D01*
X113262359Y-95810464D01*
X113250920Y-95811340D01*
X113226545Y-95811340D01*
X113226542Y-95811341D01*
X113181940Y-95820212D01*
X113131367Y-95854004D01*
X113097572Y-95904582D01*
X113097571Y-95904583D01*
X113088700Y-95949182D01*
X113088700Y-96233295D01*
X113088701Y-96233297D01*
X113097572Y-96277899D01*
X113111980Y-96299462D01*
X113124206Y-96349427D01*
X113119564Y-96368434D01*
X113116572Y-96376145D01*
X113097572Y-96404582D01*
X113089180Y-96446765D01*
X113086813Y-96452870D01*
X113073921Y-96467595D01*
X113063770Y-96484324D01*
X113054830Y-96489402D01*
X113052930Y-96491574D01*
X113050289Y-96491982D01*
X113042983Y-96496134D01*
X112995640Y-96513792D01*
X112995634Y-96513796D01*
X112878696Y-96601336D01*
X112791156Y-96718274D01*
X112791155Y-96718276D01*
X112740105Y-96855144D01*
X112740105Y-96855146D01*
X112733600Y-96915646D01*
X112733600Y-96964240D01*
X114424600Y-96964240D01*
X114424600Y-96919340D01*
X114442193Y-96871002D01*
X114486742Y-96845282D01*
X114499800Y-96844140D01*
X114808793Y-96844140D01*
X114808795Y-96844141D01*
X114909405Y-96844141D01*
X114933885Y-96834000D01*
X114945936Y-96833106D01*
X114947808Y-96833634D01*
X114951501Y-96832900D01*
X115070357Y-96832900D01*
X115118695Y-96850493D01*
X115144415Y-96895042D01*
X115135482Y-96945700D01*
X115095364Y-97015185D01*
X115095364Y-97015186D01*
X115091306Y-97030332D01*
X115064500Y-97130375D01*
X115064500Y-97249625D01*
X115086189Y-97330571D01*
X115095364Y-97364813D01*
X115095364Y-97364814D01*
X115104040Y-97379840D01*
X115112973Y-97430498D01*
X115087253Y-97475046D01*
X115038915Y-97492640D01*
X114464748Y-97492640D01*
X114416410Y-97475047D01*
X114390690Y-97430498D01*
X114394289Y-97391160D01*
X114418094Y-97327335D01*
X114418095Y-97327332D01*
X114424599Y-97266833D01*
X114424600Y-97266822D01*
X114424600Y-97218240D01*
X112733600Y-97218240D01*
X112733600Y-97266833D01*
X112740104Y-97327332D01*
X112740105Y-97327335D01*
X112791155Y-97464203D01*
X112791156Y-97464205D01*
X112878696Y-97581143D01*
X112995634Y-97668683D01*
X112995638Y-97668685D01*
X113042982Y-97686344D01*
X113082124Y-97719721D01*
X113090458Y-97742132D01*
X113097572Y-97777900D01*
X113131364Y-97828472D01*
X113131365Y-97828472D01*
X113131366Y-97828474D01*
X113181942Y-97862268D01*
X113226543Y-97871140D01*
X113250915Y-97871139D01*
X113299252Y-97888731D01*
X113324973Y-97933278D01*
X113316042Y-97983937D01*
X113282786Y-98014452D01*
X113274525Y-98018316D01*
X113254942Y-98022212D01*
X113228640Y-98039786D01*
X113223469Y-98042206D01*
X113203186Y-98044007D01*
X113183411Y-98048846D01*
X113176602Y-98046367D01*
X113172230Y-98046756D01*
X113166307Y-98042620D01*
X113149820Y-98036619D01*
X113128261Y-98022213D01*
X113128256Y-98022211D01*
X113083657Y-98013340D01*
X112799544Y-98013340D01*
X112799542Y-98013341D01*
X112754940Y-98022212D01*
X112754938Y-98022213D01*
X112733376Y-98036620D01*
X112683411Y-98048846D01*
X112649820Y-98036619D01*
X112628261Y-98022213D01*
X112628256Y-98022211D01*
X112583657Y-98013340D01*
X112299544Y-98013340D01*
X112299542Y-98013341D01*
X112254940Y-98022212D01*
X112254938Y-98022213D01*
X112233376Y-98036620D01*
X112183411Y-98048846D01*
X112149820Y-98036619D01*
X112128261Y-98022213D01*
X112128256Y-98022211D01*
X112083657Y-98013340D01*
X111799544Y-98013340D01*
X111799542Y-98013341D01*
X111754940Y-98022212D01*
X111754938Y-98022213D01*
X111733376Y-98036620D01*
X111683411Y-98048846D01*
X111664405Y-98044204D01*
X111656696Y-98041214D01*
X111628258Y-98022212D01*
X111586070Y-98013820D01*
X111579968Y-98011453D01*
X111565244Y-97998563D01*
X111548514Y-97988411D01*
X111543434Y-97979470D01*
X111541264Y-97977570D01*
X111540855Y-97974929D01*
X111536703Y-97967621D01*
X111519045Y-97920277D01*
X111519043Y-97920274D01*
X111431503Y-97803336D01*
X111314565Y-97715796D01*
X111314563Y-97715795D01*
X111177695Y-97664745D01*
X111177692Y-97664744D01*
X111117193Y-97658240D01*
X111068600Y-97658240D01*
X111068600Y-99349240D01*
X111117182Y-99349240D01*
X111117193Y-99349239D01*
X111177692Y-99342735D01*
X111177695Y-99342734D01*
X111314563Y-99291684D01*
X111314565Y-99291683D01*
X111431503Y-99204143D01*
X111519043Y-99087205D01*
X111519045Y-99087202D01*
X111536704Y-99039857D01*
X111570080Y-99000715D01*
X111579970Y-98996025D01*
X111586070Y-98993658D01*
X111628258Y-98985268D01*
X111656697Y-98966265D01*
X111664407Y-98963275D01*
X111682351Y-98962899D01*
X111699785Y-98958633D01*
X111709920Y-98962321D01*
X111715835Y-98962198D01*
X111721007Y-98966357D01*
X111733377Y-98970859D01*
X111754942Y-98985268D01*
X111799543Y-98994140D01*
X112083656Y-98994139D01*
X112128258Y-98985268D01*
X112149821Y-98970859D01*
X112199785Y-98958633D01*
X112233377Y-98970859D01*
X112254942Y-98985268D01*
X112299543Y-98994140D01*
X112583656Y-98994139D01*
X112628258Y-98985268D01*
X112649821Y-98970859D01*
X112699785Y-98958633D01*
X112733377Y-98970859D01*
X112754942Y-98985268D01*
X112799543Y-98994140D01*
X113083656Y-98994139D01*
X113128258Y-98985268D01*
X113149821Y-98970859D01*
X113199785Y-98958633D01*
X113233377Y-98970859D01*
X113254942Y-98985268D01*
X113299543Y-98994140D01*
X113583656Y-98994139D01*
X113628258Y-98985268D01*
X113678834Y-98951474D01*
X113712628Y-98900898D01*
X113721500Y-98856297D01*
X113721500Y-98831840D01*
X113739093Y-98783502D01*
X113783642Y-98757782D01*
X113796700Y-98756640D01*
X114870464Y-98756640D01*
X114918802Y-98774233D01*
X114923637Y-98778665D01*
X115282560Y-99137589D01*
X115633934Y-99488963D01*
X115633947Y-99488978D01*
X115709367Y-99564398D01*
X115709368Y-99564398D01*
X115709369Y-99564399D01*
X115742414Y-99578086D01*
X115742415Y-99578087D01*
X115742416Y-99578087D01*
X115802321Y-99602901D01*
X115802322Y-99602901D01*
X115911683Y-99602901D01*
X115911691Y-99602900D01*
X116831254Y-99602900D01*
X116879592Y-99620493D01*
X116884428Y-99624926D01*
X116971912Y-99712410D01*
X117021743Y-99741180D01*
X117075187Y-99772036D01*
X117190375Y-99802900D01*
X117190378Y-99802900D01*
X117309622Y-99802900D01*
X117309625Y-99802900D01*
X117424813Y-99772036D01*
X117528087Y-99712410D01*
X117562433Y-99678064D01*
X117615572Y-99624926D01*
X117662192Y-99603186D01*
X117668746Y-99602900D01*
X118708125Y-99602900D01*
X118708133Y-99602901D01*
X118716885Y-99602901D01*
X118817493Y-99602901D01*
X118817495Y-99602901D01*
X118866198Y-99582727D01*
X118910447Y-99564399D01*
X118981589Y-99493257D01*
X118988810Y-99486036D01*
X118988819Y-99486023D01*
X119489423Y-98985419D01*
X119489436Y-98985410D01*
X119567798Y-98907048D01*
X119567799Y-98907047D01*
X119592629Y-98847100D01*
X119606301Y-98814095D01*
X119606301Y-98713485D01*
X119606301Y-98707430D01*
X119606300Y-98707416D01*
X119606300Y-97233849D01*
X119606301Y-97233840D01*
X119606301Y-97124480D01*
X119584414Y-97071640D01*
X119584414Y-97071639D01*
X119567798Y-97031525D01*
X119492378Y-96956105D01*
X119492363Y-96956092D01*
X118874926Y-96338655D01*
X118853186Y-96292035D01*
X118852900Y-96285481D01*
X118852900Y-95635902D01*
X118870493Y-95587564D01*
X118874914Y-95582739D01*
X119232730Y-95224924D01*
X119279349Y-95203186D01*
X119285903Y-95202900D01*
X120114098Y-95202900D01*
X120162436Y-95220493D01*
X120167272Y-95224926D01*
X120981306Y-96038960D01*
X120981323Y-96038980D01*
X121056741Y-96114398D01*
X121056742Y-96114398D01*
X121056743Y-96114399D01*
X121093218Y-96129507D01*
X121107933Y-96135602D01*
X121107935Y-96135603D01*
X121148398Y-96152364D01*
X121186323Y-96187116D01*
X121193036Y-96238116D01*
X121165397Y-96281500D01*
X121119619Y-96297039D01*
X120585841Y-96297039D01*
X120537503Y-96279446D01*
X120532667Y-96275013D01*
X120215142Y-95957488D01*
X120193402Y-95910868D01*
X120193116Y-95904314D01*
X120193116Y-95780593D01*
X120193116Y-95780591D01*
X120162252Y-95665403D01*
X120147743Y-95640273D01*
X120102626Y-95562128D01*
X120018303Y-95477805D01*
X119915029Y-95418180D01*
X119799841Y-95387316D01*
X119680591Y-95387316D01*
X119594200Y-95410464D01*
X119565402Y-95418180D01*
X119565401Y-95418180D01*
X119462128Y-95477805D01*
X119377805Y-95562128D01*
X119318180Y-95665401D01*
X119318180Y-95665402D01*
X119315725Y-95674564D01*
X119287316Y-95780591D01*
X119287316Y-95899841D01*
X119307405Y-95974814D01*
X119318180Y-96015029D01*
X119318180Y-96015030D01*
X119377805Y-96118303D01*
X119462128Y-96202626D01*
X119497244Y-96222900D01*
X119565403Y-96262252D01*
X119680591Y-96293116D01*
X119680594Y-96293116D01*
X119804314Y-96293116D01*
X119852652Y-96310709D01*
X119857488Y-96315142D01*
X120231245Y-96688899D01*
X120231262Y-96688919D01*
X120306680Y-96764337D01*
X120306681Y-96764337D01*
X120306682Y-96764338D01*
X120357773Y-96785500D01*
X120399634Y-96802840D01*
X120508996Y-96802840D01*
X120509004Y-96802839D01*
X123389355Y-96802839D01*
X123437693Y-96820432D01*
X123442529Y-96824865D01*
X125362733Y-98745069D01*
X125384473Y-98791689D01*
X125384759Y-98798243D01*
X125384759Y-98802716D01*
X125384759Y-98921966D01*
X125411539Y-99021912D01*
X125415623Y-99037154D01*
X125415623Y-99037155D01*
X125475248Y-99140428D01*
X125559571Y-99224751D01*
X125617236Y-99258044D01*
X125662846Y-99284377D01*
X125778034Y-99315241D01*
X125778037Y-99315241D01*
X125897281Y-99315241D01*
X125897284Y-99315241D01*
X126012472Y-99284377D01*
X126115746Y-99224751D01*
X126200069Y-99140428D01*
X126259695Y-99037154D01*
X126290559Y-98921966D01*
X126290559Y-98802716D01*
X126259695Y-98687528D01*
X126253170Y-98676226D01*
X126200069Y-98584253D01*
X126115746Y-98499930D01*
X126012472Y-98440305D01*
X125897284Y-98409441D01*
X125778034Y-98409441D01*
X125773561Y-98409441D01*
X125725223Y-98391848D01*
X125720387Y-98387415D01*
X123745852Y-96412880D01*
X123745842Y-96412867D01*
X123668515Y-96335540D01*
X123610089Y-96311340D01*
X123610087Y-96311339D01*
X123575563Y-96297038D01*
X123575562Y-96297038D01*
X123474952Y-96297038D01*
X123466200Y-96297038D01*
X123466192Y-96297039D01*
X122924168Y-96297039D01*
X122875830Y-96279446D01*
X122850110Y-96234897D01*
X122859043Y-96184239D01*
X122874882Y-96166176D01*
X122874602Y-96165896D01*
X122962410Y-96078087D01*
X122986071Y-96037106D01*
X123022036Y-95974813D01*
X123052900Y-95859625D01*
X123052900Y-95740375D01*
X123022036Y-95625187D01*
X123021871Y-95624901D01*
X122962410Y-95521912D01*
X122878087Y-95437589D01*
X122878088Y-95437589D01*
X122794057Y-95389074D01*
X122791846Y-95386439D01*
X122788523Y-95385549D01*
X122775539Y-95367006D01*
X122760992Y-95349669D01*
X122760992Y-95346228D01*
X122759019Y-95343411D01*
X122760992Y-95320863D01*
X122760992Y-95298229D01*
X122763287Y-95294625D01*
X122763503Y-95292167D01*
X122778479Y-95270778D01*
X122874334Y-95174925D01*
X122920955Y-95153186D01*
X122927508Y-95152900D01*
X124064098Y-95152900D01*
X124112436Y-95170493D01*
X124117272Y-95174926D01*
X124117398Y-95175052D01*
X124117414Y-95175071D01*
X124192833Y-95250490D01*
X124192835Y-95250491D01*
X124247284Y-95273044D01*
X124247286Y-95273044D01*
X124285787Y-95288993D01*
X124395149Y-95288993D01*
X124395157Y-95288992D01*
X125661643Y-95288992D01*
X125661651Y-95288993D01*
X125670403Y-95288993D01*
X125771014Y-95288993D01*
X125781782Y-95284531D01*
X125809514Y-95273044D01*
X125863965Y-95250491D01*
X125895740Y-95218714D01*
X125903219Y-95214101D01*
X125920318Y-95210568D01*
X125936149Y-95203186D01*
X125942704Y-95202900D01*
X126066422Y-95202900D01*
X126066425Y-95202900D01*
X126181613Y-95172036D01*
X126284887Y-95112410D01*
X126369210Y-95028087D01*
X126428836Y-94924813D01*
X126459700Y-94809625D01*
X126459700Y-94690375D01*
X126428836Y-94575187D01*
X126420577Y-94560882D01*
X126369210Y-94471912D01*
X126284887Y-94387589D01*
X126181613Y-94327964D01*
X126164930Y-94323494D01*
X126066425Y-94297100D01*
X125947175Y-94297100D01*
X125872156Y-94317201D01*
X125831986Y-94327964D01*
X125831985Y-94327964D01*
X125728712Y-94387589D01*
X125644389Y-94471912D01*
X125584764Y-94575185D01*
X125584764Y-94575186D01*
X125576814Y-94604858D01*
X125553900Y-94690375D01*
X125553900Y-94690377D01*
X125553900Y-94707992D01*
X125536307Y-94756330D01*
X125491758Y-94782050D01*
X125478700Y-94783192D01*
X124471997Y-94783192D01*
X124423659Y-94765599D01*
X124418823Y-94761166D01*
X124343258Y-94685601D01*
X124280544Y-94659625D01*
X124280542Y-94659624D01*
X124250306Y-94647099D01*
X124250305Y-94647099D01*
X124149695Y-94647099D01*
X124140943Y-94647099D01*
X124140935Y-94647100D01*
X122850670Y-94647100D01*
X122850662Y-94647099D01*
X122841910Y-94647099D01*
X122741300Y-94647099D01*
X122741299Y-94647099D01*
X122711063Y-94659624D01*
X122711061Y-94659625D01*
X122648346Y-94685601D01*
X122574574Y-94759373D01*
X122574575Y-94759374D01*
X122333872Y-95000079D01*
X122318993Y-95007017D01*
X122306417Y-95017570D01*
X122290249Y-95020420D01*
X122287251Y-95021819D01*
X122280697Y-95022105D01*
X122239941Y-95022105D01*
X122191603Y-95004512D01*
X122165883Y-94959963D01*
X122174816Y-94909305D01*
X122186767Y-94893731D01*
X122622410Y-94458087D01*
X122627450Y-94449357D01*
X122682036Y-94354813D01*
X122712900Y-94239625D01*
X122712900Y-94120374D01*
X122712900Y-92078100D01*
X122730493Y-92029762D01*
X122775042Y-92004042D01*
X122788100Y-92002900D01*
X126709622Y-92002900D01*
X126709625Y-92002900D01*
X126824813Y-91972036D01*
X126928087Y-91912410D01*
X127012410Y-91828087D01*
X127072036Y-91724813D01*
X127102900Y-91609625D01*
X127102900Y-91490375D01*
X127072036Y-91375187D01*
X127046870Y-91331598D01*
X127012410Y-91271912D01*
X126928087Y-91187589D01*
X126824813Y-91127964D01*
X126709625Y-91097100D01*
X126709622Y-91097100D01*
X122788100Y-91097100D01*
X122739762Y-91079507D01*
X122714042Y-91034958D01*
X122712900Y-91021900D01*
X122712900Y-90730377D01*
X122712900Y-90730375D01*
X122682036Y-90615187D01*
X122682035Y-90615185D01*
X122622410Y-90511912D01*
X122538087Y-90427589D01*
X122434813Y-90367964D01*
X122319625Y-90337100D01*
X122319622Y-90337100D01*
X121699766Y-90337100D01*
X121651428Y-90319507D01*
X121646592Y-90315074D01*
X119769108Y-88437589D01*
X119665834Y-88377964D01*
X119550646Y-88347100D01*
X119550643Y-88347100D01*
X118559476Y-88347100D01*
X118511138Y-88329507D01*
X118485418Y-88284958D01*
X118494351Y-88234300D01*
X118506302Y-88218726D01*
X120653502Y-86071526D01*
X120700122Y-86049786D01*
X120706676Y-86049500D01*
X122163022Y-86049500D01*
X122163025Y-86049500D01*
X122278213Y-86018636D01*
X122381487Y-85959010D01*
X125888432Y-82452063D01*
X125935052Y-82430324D01*
X125984739Y-82443638D01*
X125994780Y-82452064D01*
X131375734Y-87833018D01*
X131397474Y-87879638D01*
X131397760Y-87886192D01*
X131397760Y-96035714D01*
X131380167Y-96084052D01*
X131335618Y-96109772D01*
X131284960Y-96100839D01*
X131269386Y-96088888D01*
X131203087Y-96022589D01*
X131099813Y-95962964D01*
X131085668Y-95959174D01*
X130984625Y-95932100D01*
X130865375Y-95932100D01*
X130801616Y-95949184D01*
X130750186Y-95962964D01*
X130750185Y-95962964D01*
X130646912Y-96022589D01*
X130562589Y-96106912D01*
X130502964Y-96210185D01*
X130502964Y-96210186D01*
X130496772Y-96233295D01*
X130481212Y-96291364D01*
X130451709Y-96333500D01*
X130408576Y-96347100D01*
X126235902Y-96347100D01*
X126187564Y-96329507D01*
X126182728Y-96325074D01*
X125914926Y-96057272D01*
X125893186Y-96010652D01*
X125892900Y-96004098D01*
X125892900Y-95890377D01*
X125892900Y-95890375D01*
X125862036Y-95775187D01*
X125837370Y-95732465D01*
X125802410Y-95671912D01*
X125718087Y-95587589D01*
X125614813Y-95527964D01*
X125603751Y-95525000D01*
X125499625Y-95497100D01*
X125380375Y-95497100D01*
X125293984Y-95520248D01*
X125265186Y-95527964D01*
X125265185Y-95527964D01*
X125161912Y-95587589D01*
X125077589Y-95671912D01*
X125017964Y-95775185D01*
X125017964Y-95775186D01*
X125008512Y-95810464D01*
X124987100Y-95890375D01*
X124987100Y-96009625D01*
X125008920Y-96091060D01*
X125017964Y-96124813D01*
X125017964Y-96124814D01*
X125077589Y-96228087D01*
X125161912Y-96312410D01*
X125207370Y-96338655D01*
X125265187Y-96372036D01*
X125380375Y-96402900D01*
X125380378Y-96402900D01*
X125499620Y-96402900D01*
X125499625Y-96402900D01*
X125499629Y-96402898D01*
X125503165Y-96402433D01*
X125553386Y-96413562D01*
X125566161Y-96423815D01*
X125881306Y-96738960D01*
X125881323Y-96738980D01*
X125956741Y-96814398D01*
X125956743Y-96814399D01*
X126001409Y-96832900D01*
X126001412Y-96832901D01*
X126025552Y-96842900D01*
X126049695Y-96852901D01*
X126159057Y-96852901D01*
X126159065Y-96852900D01*
X130590935Y-96852900D01*
X130590943Y-96852901D01*
X130599695Y-96852901D01*
X130700303Y-96852901D01*
X130700305Y-96852901D01*
X130748590Y-96832900D01*
X130763553Y-96826701D01*
X130763670Y-96826696D01*
X130811787Y-96823541D01*
X130865375Y-96837900D01*
X130865378Y-96837900D01*
X130984622Y-96837900D01*
X130984625Y-96837900D01*
X131099813Y-96807036D01*
X131203087Y-96747410D01*
X131235674Y-96714823D01*
X131269386Y-96681112D01*
X131316006Y-96659372D01*
X131365693Y-96672686D01*
X131395198Y-96714823D01*
X131397760Y-96734286D01*
X131397760Y-97864778D01*
X131380167Y-97913116D01*
X131375734Y-97917952D01*
X128436335Y-100857351D01*
X128398991Y-100894695D01*
X128308900Y-100984785D01*
X128308897Y-100984788D01*
X128208777Y-101134629D01*
X128139810Y-101301129D01*
X128139809Y-101301130D01*
X128104650Y-101477889D01*
X128104650Y-105478428D01*
X128087057Y-105526766D01*
X128082624Y-105531602D01*
X126211295Y-107402931D01*
X126164958Y-107449268D01*
X126083860Y-107530365D01*
X126083857Y-107530368D01*
X125983737Y-107680209D01*
X125914770Y-107846709D01*
X125914769Y-107846710D01*
X125879610Y-108023469D01*
X125879610Y-111680952D01*
X125908112Y-111824247D01*
X125908112Y-111853586D01*
X125896608Y-111911424D01*
X125896608Y-112091647D01*
X125931767Y-112268406D01*
X125931768Y-112268407D01*
X125989697Y-112408260D01*
X126000734Y-112434905D01*
X126100859Y-112584753D01*
X126100861Y-112584755D01*
X126100863Y-112584758D01*
X127389223Y-113873117D01*
X127410963Y-113919737D01*
X127411249Y-113926291D01*
X127411249Y-115505239D01*
X127446408Y-115681998D01*
X127446409Y-115681999D01*
X127515375Y-115848498D01*
X127545974Y-115894293D01*
X127558200Y-115944259D01*
X127535448Y-115990393D01*
X127488364Y-116011110D01*
X127483549Y-116011271D01*
X99651489Y-116049182D01*
X99618011Y-118315386D01*
X99599705Y-118363458D01*
X99554782Y-118388517D01*
X99542871Y-118389475D01*
X95134552Y-118392517D01*
X95134546Y-118392518D01*
X95110091Y-118402668D01*
X95058702Y-118404947D01*
X95028054Y-118386346D01*
X89063764Y-112412499D01*
X89062485Y-112409750D01*
X89059845Y-112408260D01*
X89051769Y-112386721D01*
X89042063Y-112365862D01*
X89042540Y-112362106D01*
X89041786Y-112360094D01*
X89044720Y-112344961D01*
X89046072Y-112334332D01*
X89046739Y-112332441D01*
X89054930Y-112312671D01*
X89054930Y-112309240D01*
X89056078Y-112305989D01*
X89056082Y-112305965D01*
X89055033Y-112285943D01*
X89054930Y-112282007D01*
X89054930Y-110609420D01*
X89054930Y-110609419D01*
X89035519Y-110562557D01*
X89035517Y-110562555D01*
X89035517Y-110562554D01*
X88999655Y-110526692D01*
X88999653Y-110526691D01*
X88976301Y-110517018D01*
X88938377Y-110482266D01*
X88929880Y-110447543D01*
X88929880Y-107322156D01*
X88947473Y-107273818D01*
X88976302Y-107252681D01*
X88999653Y-107243009D01*
X89035519Y-107207143D01*
X89054930Y-107160281D01*
X89054930Y-84893449D01*
X89035519Y-84846587D01*
X89035517Y-84846585D01*
X89035517Y-84846584D01*
X88999655Y-84810722D01*
X88986908Y-84805442D01*
X88976301Y-84801048D01*
X88938377Y-84766296D01*
X88929880Y-84731573D01*
X88929880Y-81606176D01*
X88947473Y-81557838D01*
X88976302Y-81536701D01*
X88999653Y-81527029D01*
X89035519Y-81491163D01*
X89054930Y-81444301D01*
X89054930Y-79769752D01*
X89056082Y-79747766D01*
X89054930Y-79744512D01*
X89054930Y-79741059D01*
X89047252Y-79722522D01*
X89045844Y-79718855D01*
X89044370Y-79714694D01*
X89044813Y-79663256D01*
X89062117Y-79636374D01*
X95043920Y-73664141D01*
X95090556Y-73642441D01*
X95125826Y-73647884D01*
G37*
%TD.AperFunction*%
%TA.AperFunction,Conductor*%
G36*
X127787619Y-73645497D02*
G01*
X127814409Y-73662714D01*
X132484601Y-78325434D01*
X133793949Y-79632687D01*
X133795276Y-79635526D01*
X133798003Y-79637070D01*
X133806023Y-79658527D01*
X133815726Y-79679290D01*
X133815234Y-79683166D01*
X133816014Y-79685253D01*
X133811702Y-79711011D01*
X133808924Y-79718854D01*
X133807517Y-79722519D01*
X133799840Y-79741056D01*
X133799329Y-79743626D01*
X133799135Y-79744331D01*
X133799116Y-79744442D01*
X133799063Y-79745182D01*
X133798688Y-79747767D01*
X133799737Y-79767786D01*
X133799840Y-79771720D01*
X133799840Y-81393579D01*
X133799840Y-81444301D01*
X133819251Y-81491163D01*
X133819252Y-81491165D01*
X133855115Y-81527028D01*
X133855116Y-81527028D01*
X133855117Y-81527029D01*
X133883458Y-81538768D01*
X133921383Y-81573518D01*
X133929880Y-81608243D01*
X133929880Y-84729506D01*
X133912287Y-84777844D01*
X133883458Y-84798981D01*
X133867862Y-84805442D01*
X133855114Y-84810722D01*
X133819252Y-84846584D01*
X133819251Y-84846587D01*
X133799840Y-84893449D01*
X133799840Y-107109559D01*
X133799840Y-107160281D01*
X133817140Y-107202046D01*
X133819252Y-107207145D01*
X133855115Y-107243008D01*
X133855116Y-107243008D01*
X133855117Y-107243009D01*
X133883458Y-107254748D01*
X133921383Y-107289498D01*
X133929880Y-107324223D01*
X133929880Y-110445476D01*
X133912287Y-110493814D01*
X133883458Y-110514951D01*
X133867751Y-110521457D01*
X133855114Y-110526692D01*
X133819252Y-110562554D01*
X133819251Y-110562557D01*
X133799840Y-110609419D01*
X133799840Y-112283977D01*
X133798688Y-112305964D01*
X133799840Y-112309217D01*
X133799840Y-112312671D01*
X133805733Y-112326898D01*
X133807975Y-112378288D01*
X133789430Y-112408847D01*
X130254755Y-115943523D01*
X130208135Y-115965263D01*
X130158448Y-115951949D01*
X130148407Y-115943523D01*
X129263075Y-115058191D01*
X129241335Y-115011571D01*
X129241049Y-115005017D01*
X129241049Y-113426068D01*
X129205889Y-113249309D01*
X129205888Y-113249308D01*
X129136923Y-113082811D01*
X129136921Y-113082808D01*
X129036801Y-112932967D01*
X129036793Y-112932958D01*
X128909367Y-112805532D01*
X128909362Y-112805528D01*
X128897688Y-112797728D01*
X128876938Y-112776977D01*
X128869141Y-112765307D01*
X128869136Y-112765301D01*
X127731436Y-111627601D01*
X127709696Y-111580981D01*
X127709410Y-111574427D01*
X127709410Y-110472913D01*
X127710855Y-110458241D01*
X127714780Y-110438510D01*
X127714780Y-110258290D01*
X127710855Y-110238558D01*
X127709410Y-110223887D01*
X127709410Y-108523692D01*
X127727003Y-108475354D01*
X127731436Y-108470518D01*
X129730197Y-106471757D01*
X129730200Y-106471754D01*
X129771259Y-106410305D01*
X129830324Y-106321908D01*
X129899291Y-106155407D01*
X129934450Y-105978650D01*
X129934450Y-101978112D01*
X129952043Y-101929774D01*
X129956476Y-101924938D01*
X133023305Y-98858109D01*
X133023310Y-98858104D01*
X133095652Y-98749836D01*
X133123434Y-98708258D01*
X133192401Y-98541757D01*
X133227560Y-98365000D01*
X133227560Y-87385970D01*
X133211693Y-87306200D01*
X133192402Y-87209214D01*
X133123435Y-87042713D01*
X133090289Y-86993106D01*
X133023313Y-86892869D01*
X133023305Y-86892860D01*
X127566806Y-81436361D01*
X127545066Y-81389741D01*
X127544780Y-81383187D01*
X127544780Y-80278422D01*
X127562373Y-80230084D01*
X127566806Y-80225248D01*
X128450034Y-79342020D01*
X128450039Y-79342015D01*
X128550164Y-79192167D01*
X128619131Y-79025666D01*
X128654290Y-78848910D01*
X128654290Y-78668691D01*
X128653980Y-78667135D01*
X128633793Y-78565644D01*
X128619131Y-78491934D01*
X128550164Y-78325433D01*
X128450039Y-78175585D01*
X128450036Y-78175582D01*
X128450034Y-78175579D01*
X128322610Y-78048155D01*
X128322607Y-78048153D01*
X128322605Y-78048151D01*
X128172757Y-77948026D01*
X128099143Y-77917534D01*
X128006259Y-77879060D01*
X128006258Y-77879059D01*
X127829500Y-77843900D01*
X127829499Y-77843900D01*
X127649280Y-77843900D01*
X127649277Y-77843900D01*
X127564216Y-77860819D01*
X127513375Y-77852993D01*
X127496372Y-77840238D01*
X126936384Y-77280249D01*
X126936381Y-77280247D01*
X126936379Y-77280245D01*
X126828134Y-77207918D01*
X126828132Y-77207917D01*
X126707860Y-77158099D01*
X126707858Y-77158098D01*
X126580174Y-77132700D01*
X126580173Y-77132700D01*
X126092296Y-77132700D01*
X126050517Y-77120026D01*
X125993728Y-77082080D01*
X125847610Y-77021556D01*
X125847608Y-77021555D01*
X125692490Y-76990700D01*
X125692489Y-76990700D01*
X124239770Y-76990700D01*
X124191432Y-76973107D01*
X124186596Y-76968674D01*
X122820674Y-75602751D01*
X122820665Y-75602743D01*
X122689168Y-75514880D01*
X122684419Y-75512913D01*
X122560350Y-75461522D01*
X122543050Y-75454356D01*
X122543048Y-75454355D01*
X122387930Y-75423500D01*
X122387929Y-75423500D01*
X111470921Y-75423500D01*
X111470920Y-75423500D01*
X111315801Y-75454355D01*
X111315799Y-75454356D01*
X111169681Y-75514880D01*
X111112893Y-75552826D01*
X111071114Y-75565500D01*
X110416282Y-75565500D01*
X110367944Y-75547907D01*
X110342224Y-75503358D01*
X110346806Y-75461522D01*
X110389261Y-75359026D01*
X110389262Y-75359025D01*
X110428000Y-75164279D01*
X110428000Y-75019000D01*
X109720000Y-75019000D01*
X109720000Y-74511000D01*
X110428000Y-74511000D01*
X110428000Y-74365720D01*
X110389262Y-74170974D01*
X110389261Y-74170973D01*
X110313278Y-73987534D01*
X110202962Y-73822435D01*
X110202960Y-73822432D01*
X110163312Y-73782784D01*
X110141572Y-73736164D01*
X110154886Y-73686477D01*
X110197023Y-73656972D01*
X110216486Y-73654410D01*
X119052129Y-73654410D01*
X127684497Y-73654410D01*
X127706484Y-73655562D01*
X127709737Y-73654410D01*
X127713191Y-73654410D01*
X127731729Y-73646730D01*
X127735367Y-73645333D01*
X127736183Y-73645045D01*
X127787619Y-73645497D01*
G37*
%TD.AperFunction*%
%TA.AperFunction,Conductor*%
G36*
X92014000Y-97383000D02*
G01*
X92658582Y-97383000D01*
X92658593Y-97382999D01*
X92719092Y-97376495D01*
X92719102Y-97376492D01*
X92842220Y-97330571D01*
X92893658Y-97330162D01*
X92933324Y-97362913D01*
X92943700Y-97401029D01*
X92943700Y-100440226D01*
X92943699Y-100440240D01*
X92943699Y-100446295D01*
X92943699Y-100546905D01*
X92959647Y-100585406D01*
X92959647Y-100585407D01*
X92982200Y-100639857D01*
X93059528Y-100717185D01*
X93059541Y-100717195D01*
X93780620Y-101438274D01*
X93802360Y-101484894D01*
X93789046Y-101534581D01*
X93746909Y-101564086D01*
X93695665Y-101559602D01*
X93685667Y-101553975D01*
X93607504Y-101501748D01*
X93607502Y-101501747D01*
X93487230Y-101451929D01*
X93487228Y-101451928D01*
X93359544Y-101426530D01*
X93359543Y-101426530D01*
X93229357Y-101426530D01*
X93229356Y-101426530D01*
X93101671Y-101451928D01*
X93101669Y-101451929D01*
X92981397Y-101501747D01*
X92873148Y-101574077D01*
X92873145Y-101574079D01*
X92781099Y-101666125D01*
X92781092Y-101666133D01*
X92776328Y-101673264D01*
X92734843Y-101703680D01*
X92683514Y-101700313D01*
X92660629Y-101684657D01*
X90931526Y-99955554D01*
X90909786Y-99908934D01*
X90909500Y-99902380D01*
X90909500Y-97458200D01*
X90927093Y-97409862D01*
X90971642Y-97384142D01*
X90984700Y-97383000D01*
X91506000Y-97383000D01*
X91506000Y-96455702D01*
X91567007Y-96490925D01*
X91694174Y-96525000D01*
X91825826Y-96525000D01*
X91952993Y-96490925D01*
X92014000Y-96455702D01*
X92014000Y-97383000D01*
G37*
%TD.AperFunction*%
%TA.AperFunction,Conductor*%
G36*
X111613382Y-90237093D02*
G01*
X111618218Y-90241526D01*
X111713750Y-90337058D01*
X111713761Y-90337072D01*
X111791087Y-90414398D01*
X111791088Y-90414398D01*
X111791089Y-90414399D01*
X111822934Y-90427589D01*
X111822935Y-90427590D01*
X111822936Y-90427590D01*
X111884041Y-90452901D01*
X111884042Y-90452901D01*
X111993403Y-90452901D01*
X111993411Y-90452900D01*
X116664098Y-90452900D01*
X116712436Y-90470493D01*
X116717272Y-90474926D01*
X118111306Y-91868960D01*
X118111323Y-91868980D01*
X118186741Y-91944398D01*
X118186743Y-91944399D01*
X118241192Y-91966952D01*
X118241194Y-91966952D01*
X118279695Y-91982901D01*
X118389057Y-91982901D01*
X118389065Y-91982900D01*
X121088854Y-91982900D01*
X121137192Y-92000493D01*
X121142028Y-92004926D01*
X121229512Y-92092410D01*
X121280613Y-92121913D01*
X121332787Y-92152036D01*
X121447975Y-92182900D01*
X121447978Y-92182900D01*
X121567222Y-92182900D01*
X121567225Y-92182900D01*
X121682413Y-92152036D01*
X121694301Y-92145172D01*
X121744955Y-92136239D01*
X121789505Y-92161957D01*
X121807100Y-92210294D01*
X121807100Y-93685054D01*
X121789507Y-93733392D01*
X121744958Y-93759112D01*
X121694300Y-93750179D01*
X121678726Y-93738228D01*
X121078087Y-93137589D01*
X120974813Y-93077964D01*
X120859625Y-93047100D01*
X117694626Y-93047100D01*
X117575375Y-93047100D01*
X117488984Y-93070248D01*
X117460186Y-93077964D01*
X117460185Y-93077964D01*
X117356912Y-93137589D01*
X116654252Y-93840250D01*
X116607632Y-93861990D01*
X116557945Y-93848676D01*
X116547904Y-93840250D01*
X116039335Y-93331681D01*
X116039325Y-93331668D01*
X115961998Y-93254341D01*
X115907546Y-93231787D01*
X115869045Y-93215839D01*
X115768435Y-93215839D01*
X115759683Y-93215839D01*
X115759675Y-93215840D01*
X113680335Y-93215840D01*
X113631997Y-93198247D01*
X113611543Y-93171017D01*
X113588231Y-93118219D01*
X113588229Y-93118217D01*
X113588227Y-93118214D01*
X113512125Y-93042112D01*
X113512122Y-93042110D01*
X113512121Y-93042109D01*
X113413657Y-92998633D01*
X113413655Y-92998632D01*
X113395168Y-92996487D01*
X113389584Y-92995840D01*
X113033616Y-92995840D01*
X113028612Y-92996420D01*
X113009544Y-92998632D01*
X112911077Y-93042110D01*
X112911074Y-93042112D01*
X112834972Y-93118214D01*
X112834970Y-93118217D01*
X112791492Y-93216684D01*
X112788700Y-93240758D01*
X112788700Y-93696721D01*
X112791492Y-93720795D01*
X112791493Y-93720797D01*
X112834969Y-93819261D01*
X112834970Y-93819262D01*
X112834972Y-93819265D01*
X112911074Y-93895367D01*
X112911077Y-93895369D01*
X112911079Y-93895371D01*
X113009543Y-93938847D01*
X113033616Y-93941640D01*
X113033618Y-93941640D01*
X113389582Y-93941640D01*
X113389584Y-93941640D01*
X113413657Y-93938847D01*
X113512121Y-93895371D01*
X113588231Y-93819261D01*
X113611543Y-93766463D01*
X113647161Y-93729353D01*
X113680335Y-93721640D01*
X115682838Y-93721640D01*
X115731176Y-93739233D01*
X115736012Y-93743666D01*
X116190249Y-94197903D01*
X116211989Y-94244523D01*
X116198675Y-94294210D01*
X116190252Y-94304249D01*
X116172588Y-94321913D01*
X116112964Y-94425185D01*
X116112964Y-94425186D01*
X116106487Y-94449359D01*
X116082100Y-94540375D01*
X116082100Y-95040375D01*
X116082100Y-95159625D01*
X116105243Y-95245996D01*
X116112964Y-95274813D01*
X116112964Y-95274814D01*
X116172588Y-95378085D01*
X116172589Y-95378086D01*
X116172590Y-95378087D01*
X116300074Y-95505571D01*
X116321814Y-95552191D01*
X116322100Y-95558745D01*
X116322100Y-96632459D01*
X116316485Y-96647885D01*
X116315055Y-96664239D01*
X116305639Y-96677686D01*
X116304507Y-96680797D01*
X116300075Y-96685633D01*
X116268495Y-96717214D01*
X116221875Y-96738954D01*
X116215320Y-96739240D01*
X115594911Y-96739240D01*
X115581936Y-96737531D01*
X115581909Y-96737743D01*
X115572136Y-96736456D01*
X115572428Y-96734233D01*
X115531966Y-96719507D01*
X115506246Y-96674958D01*
X115511511Y-96631526D01*
X115513890Y-96626135D01*
X115520107Y-96612057D01*
X115522900Y-96587984D01*
X115522900Y-96232016D01*
X115520107Y-96207943D01*
X115510489Y-96186162D01*
X115507059Y-96134839D01*
X115537422Y-96093316D01*
X115541002Y-96091060D01*
X115632232Y-96037106D01*
X115632239Y-96037101D01*
X115747101Y-95922239D01*
X115747107Y-95922232D01*
X115829807Y-95782394D01*
X115870015Y-95644000D01*
X114229985Y-95644000D01*
X114270192Y-95782394D01*
X114352892Y-95922232D01*
X114352898Y-95922239D01*
X114467760Y-96037101D01*
X114467767Y-96037107D01*
X114558997Y-96091060D01*
X114591647Y-96130810D01*
X114594788Y-96168771D01*
X114593207Y-96177788D01*
X114579893Y-96207943D01*
X114577100Y-96232016D01*
X114577100Y-96269681D01*
X114575971Y-96276123D01*
X114566201Y-96293083D01*
X114559507Y-96311478D01*
X114553663Y-96314851D01*
X114550296Y-96320698D01*
X114531910Y-96327410D01*
X114514958Y-96337198D01*
X114501999Y-96338331D01*
X114501976Y-96338340D01*
X114501961Y-96338334D01*
X114501900Y-96338340D01*
X114140237Y-96338340D01*
X114091899Y-96320747D01*
X114066179Y-96276198D01*
X114066482Y-96248468D01*
X114069500Y-96233297D01*
X114069499Y-95949184D01*
X114060628Y-95904582D01*
X114051136Y-95890377D01*
X114026835Y-95854007D01*
X114026831Y-95854004D01*
X113976258Y-95820212D01*
X113976256Y-95820211D01*
X113931657Y-95811340D01*
X113632281Y-95811340D01*
X113583943Y-95793747D01*
X113558223Y-95749198D01*
X113567156Y-95698540D01*
X113606561Y-95665475D01*
X113617598Y-95662388D01*
X113628258Y-95660268D01*
X113678834Y-95626474D01*
X113712628Y-95575898D01*
X113721500Y-95531297D01*
X113721499Y-95135999D01*
X114229985Y-95135999D01*
X114229985Y-95136000D01*
X114796000Y-95136000D01*
X115304000Y-95136000D01*
X115870015Y-95136000D01*
X115870014Y-95135999D01*
X115829807Y-94997605D01*
X115747107Y-94857767D01*
X115747101Y-94857760D01*
X115632239Y-94742898D01*
X115632232Y-94742892D01*
X115492394Y-94660192D01*
X115336389Y-94614868D01*
X115336379Y-94614866D01*
X115304000Y-94612318D01*
X115304000Y-95136000D01*
X114796000Y-95136000D01*
X114796000Y-94612319D01*
X114795999Y-94612318D01*
X114763620Y-94614866D01*
X114763610Y-94614868D01*
X114607605Y-94660192D01*
X114467767Y-94742892D01*
X114467760Y-94742898D01*
X114352898Y-94857760D01*
X114352892Y-94857767D01*
X114270192Y-94997605D01*
X114229985Y-95135999D01*
X113721499Y-95135999D01*
X113721499Y-94826184D01*
X113712628Y-94781582D01*
X113712625Y-94781578D01*
X113678835Y-94731007D01*
X113678834Y-94731006D01*
X113628258Y-94697212D01*
X113628256Y-94697211D01*
X113583657Y-94688340D01*
X113299544Y-94688340D01*
X113299542Y-94688341D01*
X113254940Y-94697212D01*
X113254938Y-94697213D01*
X113233376Y-94711620D01*
X113183411Y-94723846D01*
X113149820Y-94711619D01*
X113128261Y-94697213D01*
X113128256Y-94697211D01*
X113083657Y-94688340D01*
X112799544Y-94688340D01*
X112799542Y-94688341D01*
X112754940Y-94697212D01*
X112754938Y-94697213D01*
X112733376Y-94711620D01*
X112683411Y-94723846D01*
X112649820Y-94711619D01*
X112628261Y-94697213D01*
X112628256Y-94697211D01*
X112583657Y-94688340D01*
X112299544Y-94688340D01*
X112299542Y-94688341D01*
X112254940Y-94697212D01*
X112254938Y-94697213D01*
X112233376Y-94711620D01*
X112183411Y-94723846D01*
X112149820Y-94711619D01*
X112128261Y-94697213D01*
X112128256Y-94697211D01*
X112083657Y-94688340D01*
X111799544Y-94688340D01*
X111799542Y-94688341D01*
X111784366Y-94691359D01*
X111733526Y-94683531D01*
X111699611Y-94644854D01*
X111694500Y-94617603D01*
X111694500Y-94354642D01*
X111712093Y-94306304D01*
X111716526Y-94301468D01*
X112054328Y-93963666D01*
X112100948Y-93941926D01*
X112107502Y-93941640D01*
X112369582Y-93941640D01*
X112369584Y-93941640D01*
X112393657Y-93938847D01*
X112492121Y-93895371D01*
X112568231Y-93819261D01*
X112611707Y-93720797D01*
X112614500Y-93696724D01*
X112614500Y-93240756D01*
X112611707Y-93216683D01*
X112568231Y-93118219D01*
X112568229Y-93118217D01*
X112568227Y-93118214D01*
X112492125Y-93042112D01*
X112492122Y-93042110D01*
X112492121Y-93042109D01*
X112393657Y-92998633D01*
X112393655Y-92998632D01*
X112375168Y-92996487D01*
X112369584Y-92995840D01*
X112013616Y-92995840D01*
X112008612Y-92996420D01*
X111989544Y-92998632D01*
X111891077Y-93042110D01*
X111891074Y-93042112D01*
X111814972Y-93118214D01*
X111814970Y-93118217D01*
X111771492Y-93216684D01*
X111768700Y-93240758D01*
X111768700Y-93502837D01*
X111751107Y-93551175D01*
X111746674Y-93556011D01*
X111325993Y-93976691D01*
X111301604Y-93992990D01*
X111298343Y-93994341D01*
X111298339Y-93994343D01*
X111227201Y-94065481D01*
X111188700Y-94158434D01*
X111188700Y-94617602D01*
X111171107Y-94665940D01*
X111126558Y-94691660D01*
X111098831Y-94691357D01*
X111083661Y-94688340D01*
X110799544Y-94688340D01*
X110799542Y-94688341D01*
X110784366Y-94691359D01*
X110733526Y-94683531D01*
X110699611Y-94644854D01*
X110694500Y-94617603D01*
X110694500Y-93621839D01*
X110712093Y-93573501D01*
X110756642Y-93547781D01*
X110769700Y-93546639D01*
X110777459Y-93546639D01*
X110777462Y-93546639D01*
X110850919Y-93535938D01*
X110964225Y-93480546D01*
X111053406Y-93391365D01*
X111108798Y-93278059D01*
X111112254Y-93254341D01*
X111119499Y-93204613D01*
X111119499Y-93204609D01*
X111119500Y-93204603D01*
X111119499Y-92682878D01*
X111108798Y-92609421D01*
X111053406Y-92496115D01*
X111053404Y-92496113D01*
X111053404Y-92496112D01*
X110983007Y-92425715D01*
X110961267Y-92379095D01*
X110974581Y-92329408D01*
X111012528Y-92301158D01*
X111053484Y-92287587D01*
X111053487Y-92287585D01*
X111199326Y-92197632D01*
X111199332Y-92197627D01*
X111320487Y-92076472D01*
X111320492Y-92076466D01*
X111410445Y-91930627D01*
X111410446Y-91930626D01*
X111464343Y-91767976D01*
X111474600Y-91667577D01*
X111474600Y-91647740D01*
X110566800Y-91647740D01*
X110518462Y-91630147D01*
X110492742Y-91585598D01*
X110491600Y-91572540D01*
X110491600Y-91393740D01*
X110312800Y-91393740D01*
X110264462Y-91376147D01*
X110238742Y-91331598D01*
X110237600Y-91318540D01*
X110237600Y-91139740D01*
X110745600Y-91139740D01*
X111474600Y-91139740D01*
X111474600Y-91119902D01*
X111464343Y-91019503D01*
X111410446Y-90856853D01*
X111410445Y-90856852D01*
X111320492Y-90711013D01*
X111320487Y-90711007D01*
X111199332Y-90589852D01*
X111199326Y-90589847D01*
X111053487Y-90499894D01*
X111053486Y-90499893D01*
X110890836Y-90445996D01*
X110790438Y-90435740D01*
X110745600Y-90435740D01*
X110745600Y-91139740D01*
X110237600Y-91139740D01*
X110237600Y-90438577D01*
X110243215Y-90423149D01*
X110244646Y-90406796D01*
X110254060Y-90393351D01*
X110255193Y-90390239D01*
X110259626Y-90385403D01*
X110403503Y-90241526D01*
X110450123Y-90219786D01*
X110456677Y-90219500D01*
X111565044Y-90219500D01*
X111613382Y-90237093D01*
G37*
%TD.AperFunction*%
%TA.AperFunction,Conductor*%
G36*
X109622514Y-92023019D02*
G01*
X109643384Y-92045140D01*
X109662704Y-92076461D01*
X109662705Y-92076464D01*
X109783873Y-92197632D01*
X109929712Y-92287585D01*
X109929715Y-92287587D01*
X109970671Y-92301158D01*
X110011022Y-92333062D01*
X110021424Y-92383439D01*
X110000193Y-92425715D01*
X109929794Y-92496114D01*
X109874402Y-92609421D01*
X109874401Y-92609421D01*
X109863700Y-92682866D01*
X109863700Y-93204598D01*
X109863701Y-93204603D01*
X109874401Y-93278057D01*
X109874402Y-93278059D01*
X109929795Y-93391367D01*
X110018972Y-93480544D01*
X110018973Y-93480544D01*
X110018975Y-93480546D01*
X110132281Y-93535938D01*
X110132282Y-93535938D01*
X110135701Y-93536995D01*
X110176690Y-93568075D01*
X110188700Y-93608843D01*
X110188700Y-94617602D01*
X110171107Y-94665940D01*
X110126558Y-94691660D01*
X110098831Y-94691357D01*
X110083661Y-94688340D01*
X109799544Y-94688340D01*
X109799542Y-94688341D01*
X109754940Y-94697212D01*
X109754938Y-94697213D01*
X109733376Y-94711620D01*
X109683411Y-94723846D01*
X109649820Y-94711619D01*
X109628261Y-94697213D01*
X109628256Y-94697211D01*
X109583657Y-94688340D01*
X109299544Y-94688340D01*
X109299542Y-94688341D01*
X109284366Y-94691359D01*
X109283509Y-94691227D01*
X109282758Y-94691661D01*
X109258185Y-94687327D01*
X109233526Y-94683531D01*
X109232953Y-94682878D01*
X109232100Y-94682728D01*
X109216063Y-94663616D01*
X109199611Y-94644854D01*
X109199407Y-94643766D01*
X109199035Y-94643323D01*
X109194500Y-94617603D01*
X109194500Y-94590665D01*
X109194501Y-94590656D01*
X109194501Y-94481294D01*
X109194500Y-94481293D01*
X109191023Y-94472900D01*
X109173179Y-94429821D01*
X109155999Y-94388343D01*
X109155998Y-94388341D01*
X109080580Y-94312923D01*
X109080560Y-94312906D01*
X108854926Y-94087272D01*
X108833186Y-94040652D01*
X108832900Y-94034098D01*
X108832900Y-93772018D01*
X108830107Y-93747944D01*
X108829249Y-93746000D01*
X108786631Y-93649479D01*
X108786629Y-93649477D01*
X108786627Y-93649474D01*
X108710525Y-93573372D01*
X108710522Y-93573370D01*
X108710521Y-93573369D01*
X108621327Y-93533986D01*
X108612055Y-93529892D01*
X108593568Y-93527747D01*
X108587984Y-93527100D01*
X108232016Y-93527100D01*
X108227012Y-93527680D01*
X108207944Y-93529892D01*
X108207940Y-93529894D01*
X108186161Y-93539510D01*
X108170897Y-93540529D01*
X108156576Y-93545913D01*
X108146010Y-93542192D01*
X108134836Y-93542939D01*
X108122487Y-93533909D01*
X108108056Y-93528827D01*
X108095491Y-93514167D01*
X108093314Y-93512575D01*
X108091060Y-93508997D01*
X108036287Y-93416381D01*
X108026825Y-93365819D01*
X108052077Y-93321004D01*
X108100227Y-93302905D01*
X108101015Y-93302901D01*
X108200306Y-93302901D01*
X108238806Y-93286952D01*
X108293257Y-93264399D01*
X108364399Y-93193257D01*
X108371620Y-93186036D01*
X108371629Y-93186023D01*
X109526210Y-92031443D01*
X109572827Y-92009705D01*
X109622514Y-92023019D01*
G37*
%TD.AperFunction*%
%TA.AperFunction,Conductor*%
G36*
X108341859Y-89437526D02*
G01*
X108365016Y-89443731D01*
X108365688Y-89444690D01*
X108366879Y-89445049D01*
X108380819Y-89466301D01*
X108394521Y-89485868D01*
X108394419Y-89487032D01*
X108395094Y-89488061D01*
X108397100Y-89505315D01*
X108397100Y-90681254D01*
X108379507Y-90729592D01*
X108375074Y-90734428D01*
X107184429Y-91925074D01*
X107137809Y-91946814D01*
X107131255Y-91947100D01*
X105359845Y-91947100D01*
X105311507Y-91929507D01*
X105285787Y-91884958D01*
X105294720Y-91834300D01*
X105306671Y-91818726D01*
X107473771Y-89651625D01*
X107520391Y-89629885D01*
X107526945Y-89629599D01*
X107829084Y-89629599D01*
X107829088Y-89629600D01*
X107844044Y-89629600D01*
X107963291Y-89629600D01*
X107963293Y-89629600D01*
X107963294Y-89629600D01*
X108078482Y-89598736D01*
X108181756Y-89539110D01*
X108228158Y-89492707D01*
X108228159Y-89492707D01*
X108228160Y-89492705D01*
X108254565Y-89466301D01*
X108266079Y-89454788D01*
X108266081Y-89454785D01*
X108268709Y-89452156D01*
X108269193Y-89451931D01*
X108270344Y-89450570D01*
X108270361Y-89450554D01*
X108293236Y-89440719D01*
X108315329Y-89430417D01*
X108316481Y-89430725D01*
X108317618Y-89430237D01*
X108341859Y-89437526D01*
G37*
%TD.AperFunction*%
%TA.AperFunction,Conductor*%
G36*
X109783481Y-89255462D02*
G01*
X109786605Y-89256299D01*
X109786606Y-89256299D01*
X118272014Y-89256299D01*
X118272018Y-89256300D01*
X118286974Y-89256300D01*
X118406224Y-89256300D01*
X118409353Y-89255462D01*
X118428813Y-89252900D01*
X119272276Y-89252900D01*
X119320614Y-89270493D01*
X119325450Y-89274926D01*
X121118611Y-91068087D01*
X121170426Y-91119902D01*
X121202935Y-91152411D01*
X121247409Y-91178088D01*
X121280338Y-91197100D01*
X121289773Y-91202547D01*
X121322838Y-91241952D01*
X121322838Y-91293392D01*
X121289774Y-91332797D01*
X121229511Y-91367590D01*
X121142028Y-91455074D01*
X121095408Y-91476814D01*
X121088854Y-91477100D01*
X118465902Y-91477100D01*
X118417564Y-91459507D01*
X118412728Y-91455074D01*
X117020595Y-90062941D01*
X117020585Y-90062928D01*
X116943258Y-89985601D01*
X116888806Y-89963047D01*
X116850305Y-89947099D01*
X116749695Y-89947099D01*
X116740943Y-89947099D01*
X116740935Y-89947100D01*
X112070250Y-89947100D01*
X112054824Y-89941485D01*
X112038469Y-89940055D01*
X112025021Y-89930638D01*
X112021912Y-89929507D01*
X112017076Y-89925075D01*
X111921540Y-89829540D01*
X111921529Y-89829526D01*
X111844204Y-89752201D01*
X111783875Y-89727213D01*
X111783873Y-89727212D01*
X111751252Y-89713699D01*
X111751251Y-89713699D01*
X111650641Y-89713699D01*
X111641889Y-89713699D01*
X111641881Y-89713700D01*
X110379839Y-89713700D01*
X110379831Y-89713699D01*
X110371079Y-89713699D01*
X110270469Y-89713699D01*
X110270468Y-89713699D01*
X110223992Y-89732950D01*
X110223991Y-89732949D01*
X110177518Y-89752199D01*
X110177517Y-89752200D01*
X110144117Y-89785601D01*
X110106375Y-89823343D01*
X109459379Y-90470339D01*
X109431273Y-90498444D01*
X109413207Y-90506868D01*
X109384654Y-90520183D01*
X109384653Y-90520182D01*
X109384653Y-90520183D01*
X109362804Y-90514328D01*
X109334967Y-90506869D01*
X109305462Y-90464732D01*
X109302900Y-90445269D01*
X109302900Y-89492777D01*
X109302900Y-89492775D01*
X109272036Y-89377587D01*
X109265173Y-89365700D01*
X109256241Y-89315041D01*
X109281961Y-89270493D01*
X109330298Y-89252900D01*
X109764020Y-89252900D01*
X109783481Y-89255462D01*
G37*
%TD.AperFunction*%
%TA.AperFunction,Conductor*%
G36*
X108527138Y-79602593D02*
G01*
X108552858Y-79647142D01*
X108554000Y-79660200D01*
X108554000Y-80398600D01*
X108536407Y-80446938D01*
X108491858Y-80472658D01*
X108478800Y-80473800D01*
X108198315Y-80473800D01*
X108149977Y-80456207D01*
X108145141Y-80451774D01*
X108068026Y-80374659D01*
X108046286Y-80328039D01*
X108046000Y-80321485D01*
X108046000Y-79660200D01*
X108063593Y-79611862D01*
X108108142Y-79586142D01*
X108121200Y-79585000D01*
X108478800Y-79585000D01*
X108527138Y-79602593D01*
G37*
%TD.AperFunction*%
%TA.AperFunction,Conductor*%
G36*
X108671852Y-73672003D02*
G01*
X108697572Y-73716552D01*
X108688639Y-73767210D01*
X108676688Y-73782784D01*
X108637039Y-73822432D01*
X108637037Y-73822435D01*
X108526721Y-73987534D01*
X108450738Y-74170973D01*
X108450737Y-74170974D01*
X108412000Y-74365720D01*
X108412000Y-74511000D01*
X109120000Y-74511000D01*
X109120000Y-75019000D01*
X108412000Y-75019000D01*
X108412000Y-75164279D01*
X108450737Y-75359025D01*
X108450738Y-75359026D01*
X108493194Y-75461522D01*
X108495438Y-75512913D01*
X108464123Y-75553723D01*
X108423718Y-75565500D01*
X101776282Y-75565500D01*
X101727944Y-75547907D01*
X101702224Y-75503358D01*
X101706806Y-75461522D01*
X101749261Y-75359026D01*
X101749262Y-75359025D01*
X101788000Y-75164279D01*
X101788000Y-75019000D01*
X101080000Y-75019000D01*
X101080000Y-74511000D01*
X101788000Y-74511000D01*
X101788000Y-74365720D01*
X101749262Y-74170974D01*
X101749261Y-74170973D01*
X101673278Y-73987534D01*
X101562962Y-73822435D01*
X101562960Y-73822432D01*
X101523312Y-73782784D01*
X101501572Y-73736164D01*
X101514886Y-73686477D01*
X101557023Y-73656972D01*
X101576486Y-73654410D01*
X103751929Y-73654410D01*
X108623514Y-73654410D01*
X108671852Y-73672003D01*
G37*
%TD.AperFunction*%
%TD*%
M02*
