%TF.GenerationSoftware,KiCad,Pcbnew,9.0.4*%
%TF.CreationDate,2025-09-22T18:44:03+02:00*%
%TF.ProjectId,esp32_mine,65737033-325f-46d6-996e-652e6b696361,rev?*%
%TF.SameCoordinates,Original*%
%TF.FileFunction,Drillmap*%
%TF.FilePolarity,Positive*%
%FSLAX45Y45*%
G04 Gerber Fmt 4.5, Leading zero omitted, Abs format (unit mm)*
G04 Created by KiCad (PCBNEW 9.0.4) date 2025-09-22 18:44:03*
%MOMM*%
%LPD*%
G01*
G04 APERTURE LIST*
%ADD10C,0.025400*%
%ADD11C,0.050000*%
%ADD12C,0.200000*%
%ADD13C,0.100000*%
G04 APERTURE END LIST*
D10*
X14381328Y-9159215D02*
G75*
G02*
X14331315Y-9109202I2J50015D01*
G01*
X8145577Y-10436175D02*
X8145577Y-9836176D01*
X7034327Y-6046216D02*
G75*
G02*
X6300199Y-5304356I-91587J643536D01*
G01*
X6384138Y-9159215D02*
G75*
G02*
X6334125Y-9109202I2J50015D01*
G01*
X14486331Y-9029218D02*
X14486331Y-8834197D01*
X7613218Y-10471176D02*
G75*
G02*
X7663205Y-10421188I49992J-4D01*
G01*
X7954162Y-10096170D02*
X7954162Y-10126168D01*
X6572199Y-14602689D02*
X6673317Y-14501572D01*
X7361199Y-5266716D02*
G75*
G02*
X7077967Y-4983980I-418465J-135966D01*
G01*
X9516694Y-7352691D02*
X7650277Y-5672151D01*
X15016183Y-7815756D02*
G75*
G02*
X14777376Y-7491839I-3J249987D01*
G01*
X15985439Y-5305502D02*
G75*
G02*
X15250033Y-6046039I-642699J-97178D01*
G01*
X14924176Y-5266970D02*
X14764004Y-5106797D01*
X6489141Y-10176180D02*
X6384138Y-10176180D01*
X7342022Y-6619444D02*
X6946265Y-6619444D01*
X15612161Y-4703801D02*
G75*
G02*
X15440483Y-4760078I-141421J141421D01*
G01*
X15262281Y-11386415D02*
G75*
G02*
X15501086Y-11710331I-11J-249995D01*
G01*
X7799146Y-10176180D02*
X7799146Y-10371176D01*
X14807921Y-13174091D02*
G75*
G02*
X14806093Y-13209346I-18631J-16709D01*
G01*
X14699386Y-5495392D02*
G75*
G02*
X14635212Y-5672163I-198016J-28148D01*
G01*
X14139901Y-9836176D02*
G75*
G02*
X14189913Y-9786161I50019J-4D01*
G01*
X7913218Y-8141894D02*
X7913218Y-7795438D01*
X7913218Y-11409934D02*
G75*
G02*
X7899805Y-11498638I-300048J4D01*
G01*
X14656867Y-6830746D02*
G75*
G02*
X14943430Y-6619465I286563J-88694D01*
G01*
X6384138Y-10046183D02*
X6449162Y-10046183D01*
X6192749Y-9419209D02*
X6249162Y-9419209D01*
X7628611Y-12374652D02*
X7899781Y-11498631D01*
X15746324Y-10421163D02*
X15660370Y-10421163D01*
X7861111Y-6377262D02*
G75*
G02*
X7825862Y-6379083I-18541J16822D01*
G01*
X14372260Y-7795438D02*
X14372260Y-8141894D01*
X7899781Y-7706741D02*
G75*
G02*
X7913192Y-7795438I-286541J-88689D01*
G01*
X7919500Y-6285428D02*
G75*
G02*
X7917662Y-6320699I-18650J-16712D01*
G01*
X7917314Y-12884314D02*
X7860613Y-12827603D01*
X15250414Y-13159283D02*
G75*
G02*
X15073262Y-13095158I-28524J197963D01*
G01*
X6375095Y-8669198D02*
G75*
G02*
X6325083Y-8719205I-50005J-2D01*
G01*
X15960369Y-10486162D02*
X16092729Y-10486162D01*
X15339212Y-6619444D02*
G75*
G02*
X15625820Y-6830732I-2J-300036D01*
G01*
X16142741Y-14173226D02*
X16041624Y-14072108D01*
X6196762Y-14456715D02*
X6314084Y-14339393D01*
X15942742Y-14602689D02*
X15996768Y-14548663D01*
X15262281Y-11386415D02*
X15017281Y-11386415D01*
X15499988Y-7491840D02*
G75*
G02*
X15261183Y-7815750I-238798J-73930D01*
G01*
X7078447Y-4984141D02*
X7238644Y-4823943D01*
X7479360Y-13209347D02*
G75*
G02*
X7477531Y-13174091I16810J18547D01*
G01*
X15910382Y-10536174D02*
G75*
G02*
X15960369Y-10486192I49978J4D01*
G01*
X6375095Y-7795438D02*
X6375095Y-8669198D01*
X7899781Y-7706741D02*
X7628611Y-6830746D01*
X6142736Y-14173226D02*
X6142736Y-14402689D01*
X15610383Y-8269199D02*
X15610383Y-8734197D01*
X6539154Y-8784209D02*
X6625082Y-8784209D01*
X6449162Y-9219210D02*
G75*
G02*
X6249162Y-9419202I-199992J0D01*
G01*
X15560370Y-10986161D02*
X14722272Y-10986161D01*
X14672259Y-8734197D02*
G75*
G02*
X14622272Y-8784189I-49979J-13D01*
G01*
X14536318Y-8784209D02*
X14622272Y-8784209D01*
X12549000Y-11851000D02*
X12768783Y-11852682D01*
X15612161Y-14501572D02*
X15713278Y-14602689D01*
X15996768Y-4656735D02*
X15942742Y-4602684D01*
X7809154Y-9269197D02*
X7959141Y-9419209D01*
X6675095Y-8269199D02*
G75*
G02*
X6725082Y-8219205I49995J-1D01*
G01*
X15951327Y-9079205D02*
X15951327Y-9109202D01*
X15625775Y-12374626D02*
G75*
G02*
X15339212Y-12585905I-286555J88686D01*
G01*
X15996768Y-14548663D02*
X15879445Y-14431341D01*
X16092729Y-8719211D02*
X15960369Y-8719211D01*
D11*
X10965000Y-12145000D02*
X12550000Y-12140029D01*
D10*
X14672259Y-10936174D02*
X14672259Y-10471176D01*
X7571339Y-13267898D02*
X7919138Y-12919566D01*
X15047646Y-4823537D02*
G75*
G02*
X15441065Y-4760167I295104J-579173D01*
G01*
X14722272Y-8219212D02*
X15560370Y-8219212D01*
X6243853Y-14072108D02*
X6142736Y-14173226D01*
X7663205Y-8784209D02*
G75*
G02*
X7613191Y-8734197I5J50019D01*
G01*
X14943430Y-12585929D02*
G75*
G02*
X14656845Y-12374633I0J299999D01*
G01*
X7650277Y-5672151D02*
G75*
G02*
X7586157Y-5495013I133813J148611D01*
G01*
X6334150Y-10126168D02*
X6334150Y-10096170D01*
X16092729Y-9786163D02*
X16036315Y-9786163D01*
X6334150Y-9109202D02*
X6334150Y-9079205D01*
X6300038Y-13899896D02*
G75*
G02*
X7035444Y-13159332I642692J97208D01*
G01*
X14372260Y-11063478D02*
X14372260Y-11409934D01*
X14139901Y-9836176D02*
X14139901Y-10436175D01*
X7505293Y-11712756D02*
X7396488Y-12086447D01*
X6625082Y-10421163D02*
X6539154Y-10421163D01*
X6375095Y-7795438D02*
G75*
G02*
X6388507Y-7706741I300015J-2D01*
G01*
X14368169Y-6321088D02*
X14424870Y-6377799D01*
X15023281Y-12178378D02*
X15262281Y-12178378D01*
X8145577Y-9369197D02*
G75*
G02*
X8095564Y-9419207I-50007J-3D01*
G01*
X14331315Y-9109202D02*
X14331315Y-9079205D01*
X7809154Y-9936176D02*
X7809154Y-10046183D01*
X15951327Y-9109202D02*
G75*
G02*
X15901314Y-9159217I-50017J2D01*
G01*
X7361276Y-13938403D02*
X7521473Y-14098601D01*
X13392734Y-8141894D02*
X13392734Y-7976642D01*
X6384138Y-10176180D02*
G75*
G02*
X6334120Y-10126168I2J50020D01*
G01*
X7477531Y-6031281D02*
G75*
G02*
X7479357Y-5996022I18649J16711D01*
G01*
X7030988Y-7817827D02*
G75*
G02*
X6792185Y-7493911I2J249987D01*
G01*
X10377729Y-7352691D02*
X9516694Y-7352691D01*
X7749159Y-8784209D02*
G75*
G02*
X7799151Y-8834197I1J-49991D01*
G01*
X15901314Y-10176180D02*
X15796311Y-10176180D01*
X7212203Y-6110224D02*
X8892743Y-7976642D01*
X7959141Y-9419209D02*
X8095564Y-9419209D01*
X6142736Y-8769198D02*
G75*
G02*
X6192749Y-8719186I50014J-2D01*
G01*
X7035063Y-6046089D02*
G75*
G02*
X7212219Y-6110210I28527J-197971D01*
G01*
X16041624Y-14072108D02*
G75*
G02*
X15985348Y-13900432I141416J141418D01*
G01*
X14189913Y-10486162D02*
G75*
G02*
X14139918Y-10436175I7J50002D01*
G01*
X6675095Y-8734197D02*
X6675095Y-8269199D01*
X15501086Y-11710331D02*
X15392281Y-12084022D01*
X14699386Y-5495392D02*
G75*
G02*
X14764096Y-5106589I643344J92712D01*
G01*
X6334150Y-9079205D02*
G75*
G02*
X6384138Y-9029220I49980J5D01*
G01*
X7959141Y-9786163D02*
X7809154Y-9936176D01*
X6673317Y-4703801D02*
X6572199Y-4602684D01*
X8095564Y-9786163D02*
X7959141Y-9786163D01*
X15610383Y-10471176D02*
X15610383Y-10936174D01*
X7963205Y-10486162D02*
X8095564Y-10486162D01*
X7563206Y-8219212D02*
G75*
G02*
X7613188Y-8269199I4J-49978D01*
G01*
X7954162Y-10126168D02*
G75*
G02*
X7904150Y-10176172I-50002J-2D01*
G01*
X14536318Y-10421163D02*
G75*
G02*
X14486327Y-10371176I2J49993D01*
G01*
X8892743Y-8491881D02*
X8892743Y-10713492D01*
X6845529Y-4759986D02*
G75*
G02*
X7238850Y-4824042I97211J-642674D01*
G01*
X7027488Y-12180803D02*
X7266488Y-12180803D01*
X16036315Y-9419209D02*
X16092729Y-9419209D01*
X7963205Y-8719211D02*
G75*
G02*
X7913189Y-8669198I5J50021D01*
G01*
X14460003Y-6379477D02*
X14807947Y-6031307D01*
D11*
X12550000Y-12140000D02*
X12549000Y-11851000D01*
D10*
X7036988Y-7025863D02*
X7275988Y-7025863D01*
X14189913Y-9419209D02*
X14326311Y-9419209D01*
X7396488Y-12086447D02*
G75*
G02*
X7266488Y-12180804I-127998J39617D01*
G01*
X14368169Y-6321088D02*
G75*
G02*
X14366341Y-6285833I16831J18548D01*
G01*
X7266488Y-11388840D02*
X7021488Y-11388840D01*
X15440482Y-14445285D02*
G75*
G02*
X15612166Y-14501567I30258J-197695D01*
G01*
X14372260Y-10713492D02*
X13392734Y-10713492D01*
X6792183Y-7493910D02*
X6906988Y-7120220D01*
X15610383Y-10471176D02*
G75*
G02*
X15660370Y-10421183I49997J-4D01*
G01*
X15499988Y-7491840D02*
X15391183Y-7118150D01*
X15971368Y-14339393D02*
X16088690Y-14456715D01*
X6405143Y-14395120D02*
G75*
G02*
X6406052Y-14431335I-16793J-18540D01*
G01*
X14764004Y-14098601D02*
G75*
G02*
X14699387Y-13709981I578736J295911D01*
G01*
X13392734Y-10713492D02*
X13392734Y-8491881D01*
X7266488Y-11388840D02*
G75*
G02*
X7505299Y-11712758I2J-249990D01*
G01*
X7809154Y-9159215D02*
X7809154Y-9269197D01*
X6142736Y-4802683D02*
X6142736Y-5032147D01*
X15942742Y-4602684D02*
X15713278Y-4602684D01*
X15023281Y-12178378D02*
G75*
G02*
X14893276Y-12084023I-2011J133969D01*
G01*
X6350102Y-4865320D02*
G75*
G02*
X6405372Y-4810049I592718J-537440D01*
G01*
X7825480Y-12825925D02*
G75*
G02*
X7860748Y-12827766I16710J-18625D01*
G01*
X6625082Y-10421163D02*
G75*
G02*
X6675097Y-10471176I-2J-50017D01*
G01*
X15392281Y-12084022D02*
G75*
G02*
X15262281Y-12178378I-128001J39622D01*
G01*
X14189913Y-9419209D02*
G75*
G02*
X14139901Y-9369197I7J50019D01*
G01*
X7571334Y-13267894D02*
G75*
G02*
X7536061Y-13266057I-16714J18634D01*
G01*
X7521372Y-5106594D02*
G75*
G02*
X7586079Y-5495390I-578642J-296086D01*
G01*
X14372260Y-10536174D02*
X14372260Y-10713492D01*
X14635201Y-5672151D02*
X12768783Y-7352691D01*
X6375095Y-10536174D02*
X6375095Y-11409934D01*
X14372260Y-8141894D02*
X13392734Y-8141894D01*
X7238644Y-14381430D02*
X7078447Y-14221232D01*
X8145577Y-10436175D02*
G75*
G02*
X8095564Y-10486187I-50027J15D01*
G01*
X7586142Y-13710362D02*
G75*
G02*
X7650264Y-13533208I197978J28522D01*
G01*
X15879445Y-14431315D02*
G75*
G02*
X15880353Y-14395141I17675J17655D01*
G01*
X14424368Y-12828111D02*
X14367657Y-12884812D01*
X12768783Y-7352691D02*
X11907749Y-7352691D01*
X14749399Y-13266065D02*
G75*
G02*
X14714152Y-13267885I-18539J16815D01*
G01*
X15073274Y-13095148D02*
X13392734Y-11228731D01*
X7477526Y-6031287D02*
X7825859Y-6379086D01*
X14372260Y-8491881D02*
X14372260Y-8669198D01*
X6449162Y-10046183D02*
X6449162Y-9986163D01*
X9516000Y-11852000D02*
X10965000Y-11851000D01*
X15207031Y-14221232D02*
X15046833Y-14381430D01*
X6782683Y-11712756D02*
X6897488Y-12086447D01*
X15796311Y-10371176D02*
G75*
G02*
X15746324Y-10421161I-49981J-4D01*
G01*
X6673317Y-14501572D02*
G75*
G02*
X6844994Y-14445293I141423J-141418D01*
G01*
X7913218Y-8491881D02*
X8892743Y-8491881D01*
X14672259Y-8734197D02*
X14672259Y-8269199D01*
X14189913Y-10486162D02*
X14322273Y-10486162D01*
X7613218Y-10471176D02*
X7613218Y-10936174D01*
X14385671Y-11498631D02*
G75*
G02*
X14372258Y-11409934I286529J88691D01*
G01*
X7861111Y-6377262D02*
X7917822Y-6320561D01*
X6388506Y-11498631D02*
G75*
G02*
X6375093Y-11409934I286524J88691D01*
G01*
X7212203Y-13095148D02*
G75*
G02*
X7035065Y-13159267I-148623J133848D01*
G01*
X7913218Y-10713492D02*
X7913218Y-10536174D01*
X6314110Y-14339393D02*
G75*
G02*
X6350279Y-14340305I17650J-17687D01*
G01*
X15880334Y-4810252D02*
G75*
G02*
X15879444Y-4774056I16806J18522D01*
G01*
X16088690Y-4748657D02*
X15971368Y-4865980D01*
X14424368Y-12828111D02*
G75*
G02*
X14459618Y-12826288I18542J-16829D01*
G01*
X14322273Y-10486162D02*
G75*
G02*
X14372288Y-10536174I-13J-50028D01*
G01*
X15660370Y-8784209D02*
X15746324Y-8784209D01*
X15660370Y-8784209D02*
G75*
G02*
X15610361Y-8734197I0J50009D01*
G01*
X6243853Y-5133264D02*
G75*
G02*
X6300130Y-5304942I-141433J-141426D01*
G01*
X14807952Y-13174085D02*
X14459619Y-12826287D01*
X6405651Y-4773651D02*
G75*
G02*
X6405148Y-4810258I-17311J-18069D01*
G01*
X15073274Y-6110224D02*
G75*
G02*
X15250411Y-6046110I148616J-133846D01*
G01*
X14722272Y-10986161D02*
G75*
G02*
X14672279Y-10936174I-12J49981D01*
G01*
X14806117Y-5996026D02*
G75*
G02*
X14807942Y-6031278I-16817J-18544D01*
G01*
X14622272Y-10421163D02*
G75*
G02*
X14672287Y-10471176I-2J-50017D01*
G01*
X14635201Y-13533222D02*
G75*
G02*
X14699321Y-13710360I-133831J-148618D01*
G01*
X15901314Y-9159215D02*
X15836316Y-9159215D01*
X15610383Y-10936174D02*
G75*
G02*
X15560370Y-10986193I-50023J4D01*
G01*
X14656867Y-6830746D02*
X14385671Y-7706741D01*
X6249162Y-9786163D02*
G75*
G02*
X6449157Y-9986163I-12J-200007D01*
G01*
X15261183Y-7023793D02*
G75*
G02*
X15391183Y-7118150I2007J-133967D01*
G01*
X15951327Y-10126168D02*
G75*
G02*
X15901314Y-10176177I-50007J-2D01*
G01*
X6384138Y-9029218D02*
X6489141Y-9029218D01*
X16142741Y-9369197D02*
X16142741Y-8769198D01*
X14331315Y-10096170D02*
G75*
G02*
X14381328Y-10046155I50015J0D01*
G01*
X7237832Y-14381836D02*
G75*
G02*
X6844412Y-14445205I-295102J579176D01*
G01*
X6449162Y-9159215D02*
X6384138Y-9159215D01*
X7514793Y-7493910D02*
G75*
G02*
X7275988Y-7817825I-238803J-73930D01*
G01*
X14139901Y-8769198D02*
G75*
G02*
X14189913Y-8719191I50009J-2D01*
G01*
X6449162Y-9219210D02*
X6449162Y-9159215D01*
X7825480Y-12825925D02*
X7477536Y-13174095D01*
X7913218Y-11063478D02*
X8892743Y-11063478D01*
X6192749Y-10486162D02*
G75*
G02*
X6142758Y-10436175I-9J49982D01*
G01*
X7904150Y-9029218D02*
G75*
G02*
X7954132Y-9079205I-10J-49992D01*
G01*
X14778476Y-11710331D02*
G75*
G02*
X15017281Y-11386413I238804J73932D01*
G01*
X14486331Y-10371176D02*
X14486331Y-10176180D01*
X15901314Y-9029218D02*
G75*
G02*
X15951292Y-9079205I6J-49972D01*
G01*
X7027488Y-12180803D02*
G75*
G02*
X6897485Y-12086448I-1998J133984D01*
G01*
X6782683Y-11712756D02*
G75*
G02*
X7021488Y-11388842I238807J73927D01*
G01*
X15713278Y-14602689D02*
X15942742Y-14602689D01*
X6300140Y-13900430D02*
G75*
G02*
X6243858Y-14072113I-197720J-30250D01*
G01*
X14924278Y-13938657D02*
G75*
G02*
X15207488Y-14221384I418462J135967D01*
G01*
X14365979Y-12919945D02*
G75*
G02*
X14367814Y-12884671I18641J16715D01*
G01*
X14806117Y-5996026D02*
G75*
G02*
X14749399Y-5939308I536593J593306D01*
G01*
X8892743Y-11063478D02*
X8892743Y-11228731D01*
X14139901Y-8769198D02*
X14139901Y-9369197D01*
X7913218Y-8669198D02*
X7913218Y-8491881D01*
X6142736Y-14402689D02*
X6196762Y-14456715D01*
X13392734Y-7976642D02*
X15073274Y-6110224D01*
X13392734Y-8491881D02*
X14372260Y-8491881D01*
X14476324Y-9936176D02*
X14326311Y-9786163D01*
X15910382Y-11409934D02*
G75*
G02*
X15896971Y-11498631I-300042J4D01*
G01*
X6142736Y-5032147D02*
X6243853Y-5133264D01*
X6659677Y-6830746D02*
X6388506Y-7706741D01*
X8095564Y-8719211D02*
X7963205Y-8719211D01*
X14460003Y-6379477D02*
G75*
G02*
X14424731Y-6377640I-16713J18637D01*
G01*
D11*
X10965000Y-11851000D02*
X10965000Y-12145000D01*
D10*
X7904150Y-10046183D02*
G75*
G02*
X7954137Y-10096170I0J-49987D01*
G01*
X8892743Y-10713492D02*
X7913218Y-10713492D01*
X13392734Y-11228731D02*
X13392734Y-11063478D01*
X6844995Y-4760087D02*
G75*
G02*
X6673314Y-4703804I-30245J197727D01*
G01*
X14764004Y-14098601D02*
X14924176Y-13938403D01*
X15796311Y-8834197D02*
X15796311Y-9029218D01*
X6142736Y-8769198D02*
X6142736Y-9369197D01*
X15796311Y-10176180D02*
X15796311Y-10371176D01*
X7913218Y-10536174D02*
G75*
G02*
X7963205Y-10486188I49972J14D01*
G01*
X8892743Y-11228731D02*
X7212203Y-13095148D01*
X7904150Y-9159215D02*
X7809154Y-9159215D01*
X6906988Y-7120220D02*
G75*
G02*
X7036988Y-7025862I128002J-39620D01*
G01*
X14486331Y-10176180D02*
X14381328Y-10176180D01*
X15796311Y-9029218D02*
X15901314Y-9029218D01*
X7749159Y-10421163D02*
X7663205Y-10421163D01*
X14892183Y-7118150D02*
G75*
G02*
X15022182Y-7023793I128007J-39630D01*
G01*
X6249162Y-9786163D02*
X6192749Y-9786163D01*
X7536078Y-5939308D02*
G75*
G02*
X7479780Y-5995505I-592598J537358D01*
G01*
X14322273Y-8719211D02*
X14189913Y-8719211D01*
X7809154Y-10046183D02*
X7904150Y-10046183D01*
X15251151Y-13159182D02*
G75*
G02*
X15985253Y-13901013I91599J-643498D01*
G01*
X6142736Y-9836176D02*
G75*
G02*
X6192749Y-9786156I50024J-4D01*
G01*
X15625775Y-12374652D02*
X15896971Y-11498631D01*
X6288710Y-4656735D02*
X6406032Y-4774057D01*
X7650277Y-13533222D02*
X9516694Y-11852682D01*
X7275988Y-7025863D02*
G75*
G02*
X7405990Y-7120220I2002J-133977D01*
G01*
X15713278Y-4602684D02*
X15612161Y-4703801D01*
X14326311Y-9786163D02*
X14189913Y-9786163D01*
X7275988Y-7817827D02*
X7030988Y-7817827D01*
X6572199Y-4602684D02*
X6342736Y-4602684D01*
X6405372Y-14395323D02*
G75*
G02*
X6350102Y-14340053I537198J592473D01*
G01*
X13392734Y-11063478D02*
X14372260Y-11063478D01*
X14943430Y-12585929D02*
X15339212Y-12585929D01*
X10377729Y-7352691D02*
X11907749Y-7352691D01*
X7919500Y-6285428D02*
X7571329Y-5937484D01*
X15046833Y-4823943D02*
X15207031Y-4984141D01*
X15836316Y-10046183D02*
X15901314Y-10046183D01*
X16092729Y-9786163D02*
G75*
G02*
X16142737Y-9836176I1J-50007D01*
G01*
X6725082Y-8219212D02*
X7563206Y-8219212D01*
X7563206Y-10986161D02*
X6725082Y-10986161D01*
X14331315Y-10126168D02*
X14331315Y-10096170D01*
X15935376Y-14340053D02*
G75*
G02*
X15880106Y-14395324I-592716J537443D01*
G01*
X6406032Y-14431341D02*
X6288710Y-14548663D01*
X7799146Y-8834197D02*
X7799146Y-9029218D01*
X16041624Y-5133264D02*
X16142741Y-5032147D01*
X15746324Y-8784209D02*
G75*
G02*
X15796311Y-8834197I6J-49981D01*
G01*
X15935173Y-14340282D02*
G75*
G02*
X15971364Y-14339397I18517J-16788D01*
G01*
X14486331Y-8834197D02*
G75*
G02*
X14536318Y-8784211I49989J-3D01*
G01*
X16142741Y-14402689D02*
X16142741Y-14173226D01*
X7799146Y-10371176D02*
G75*
G02*
X7749159Y-10421156I-49976J-4D01*
G01*
X6675095Y-8734197D02*
G75*
G02*
X6625082Y-8784215I-50005J-13D01*
G01*
X7628611Y-12374626D02*
G75*
G02*
X7342022Y-12585930I-286581J88686D01*
G01*
X6314084Y-4865980D02*
X6196762Y-4748657D01*
X6196762Y-4748657D02*
X6142736Y-4802683D01*
X15022182Y-7023793D02*
X15261183Y-7023793D01*
X15971368Y-4865980D02*
G75*
G02*
X15935169Y-4865095I-17678J17680D01*
G01*
X16092729Y-8719211D02*
G75*
G02*
X16142719Y-8769198I1J-49989D01*
G01*
X15261183Y-7815756D02*
X15016183Y-7815756D01*
X7913218Y-11409934D02*
X7913218Y-11063478D01*
X7342022Y-6619444D02*
G75*
G02*
X7628608Y-6830747I8J-299986D01*
G01*
X15206777Y-4984217D02*
G75*
G02*
X14924037Y-5267456I135963J-418463D01*
G01*
X14381328Y-10046183D02*
X14476324Y-10046183D01*
X14476324Y-9159215D02*
X14381328Y-9159215D01*
X15896971Y-7706741D02*
X15625775Y-6830746D01*
X14714144Y-5937504D02*
G75*
G02*
X14749394Y-5939313I16716J-18616D01*
G01*
X7536078Y-5939308D02*
G75*
G02*
X7571328Y-5937485I18542J-16822D01*
G01*
X15951327Y-10096170D02*
X15951327Y-10126168D01*
X15339212Y-6619444D02*
X14943430Y-6619444D01*
X16036315Y-9419209D02*
G75*
G02*
X15836321Y-9219210I5J199999D01*
G01*
X14372260Y-7795438D02*
G75*
G02*
X14385671Y-7706741I300030J-2D01*
G01*
X6659677Y-6830746D02*
G75*
G02*
X6946265Y-6619467I286583J-88724D01*
G01*
X8892743Y-7976642D02*
X8892743Y-8141894D01*
X6388506Y-11498631D02*
X6659677Y-12374652D01*
X15896971Y-7706741D02*
G75*
G02*
X15910382Y-7795438I-286551J-88689D01*
G01*
X14381328Y-10176180D02*
G75*
G02*
X14331320Y-10126168I2J50010D01*
G01*
X14778476Y-11710331D02*
X14893281Y-12084022D01*
X14372260Y-8669198D02*
G75*
G02*
X14322273Y-8719190I-49980J-12D01*
G01*
X7917314Y-12884314D02*
G75*
G02*
X7919140Y-12919568I-16824J-18546D01*
G01*
X7514793Y-7493910D02*
X7405988Y-7120220D01*
X15901314Y-10046183D02*
G75*
G02*
X15951297Y-10096170I6J-49977D01*
G01*
X6334150Y-10096170D02*
G75*
G02*
X6384138Y-10046180I49990J0D01*
G01*
X6675095Y-10936174D02*
X6675095Y-10471176D01*
X15985338Y-5304943D02*
G75*
G02*
X16041619Y-5133259I197712J30253D01*
G01*
X6725082Y-10986161D02*
G75*
G02*
X6675089Y-10936174I-12J49981D01*
G01*
X16142741Y-9369197D02*
G75*
G02*
X16092729Y-9419201I-50001J-3D01*
G01*
X14672259Y-8269199D02*
G75*
G02*
X14722272Y-8219179I50021J-1D01*
G01*
X14365979Y-12919945D02*
X14714149Y-13267888D01*
X14326311Y-9419209D02*
X14476324Y-9269197D01*
X7586142Y-13710362D02*
G75*
G02*
X7521366Y-14098801I-643402J-92328D01*
G01*
X6342736Y-4602684D02*
X6288710Y-4656735D01*
X15836316Y-9986163D02*
G75*
G02*
X16036315Y-9786166I199994J3D01*
G01*
X16142741Y-5032147D02*
X16142741Y-4802683D01*
X15960369Y-8719211D02*
G75*
G02*
X15910359Y-8669198I1J50011D01*
G01*
X7479360Y-13209347D02*
X7536061Y-13266058D01*
X6342736Y-14602689D02*
X6572199Y-14602689D01*
X15836316Y-9159215D02*
X15836316Y-9219210D01*
X6288710Y-14548663D02*
X6342736Y-14602689D01*
X16142741Y-10436175D02*
G75*
G02*
X16092729Y-10486191I-50021J5D01*
G01*
X6325083Y-8719211D02*
X6192749Y-8719211D01*
X14476324Y-9269197D02*
X14476324Y-9159215D01*
X14331315Y-9079205D02*
G75*
G02*
X14381328Y-9029185I50025J-5D01*
G01*
X16142741Y-10436175D02*
X16142741Y-9836176D01*
X8145577Y-9369197D02*
X8145577Y-8769198D01*
X6489141Y-8834197D02*
G75*
G02*
X6539154Y-8784181I50019J-3D01*
G01*
X15439923Y-14445387D02*
G75*
G02*
X15046631Y-14381326I-97183J642667D01*
G01*
X7613218Y-8269199D02*
X7613218Y-8734197D01*
X8095564Y-8719211D02*
G75*
G02*
X8145549Y-8769198I6J-49979D01*
G01*
X7799146Y-9029218D02*
X7904150Y-9029218D01*
X8892743Y-8141894D02*
X7913218Y-8141894D01*
X7613218Y-10936174D02*
G75*
G02*
X7563206Y-10986188I-50018J4D01*
G01*
X6192749Y-9419209D02*
G75*
G02*
X6142741Y-9369197I1J50009D01*
G01*
X14806097Y-13209350D02*
X14749399Y-13266065D01*
X15560370Y-8219212D02*
G75*
G02*
X15610358Y-8269199I0J-49988D01*
G01*
X7663205Y-8784209D02*
X7749159Y-8784209D01*
X6192749Y-10486162D02*
X6325083Y-10486162D01*
X6489141Y-10371176D02*
X6489141Y-10176180D01*
X14385671Y-11498631D02*
X14656867Y-12374652D01*
X14622272Y-10421163D02*
X14536318Y-10421163D01*
X7954162Y-9109202D02*
G75*
G02*
X7904150Y-9159212I-50012J2D01*
G01*
X8095564Y-9786163D02*
G75*
G02*
X8145577Y-9836176I6J-50007D01*
G01*
X6489141Y-9029218D02*
X6489141Y-8834197D01*
X6325083Y-10486162D02*
G75*
G02*
X6375088Y-10536174I-13J-50018D01*
G01*
X7954162Y-9079205D02*
X7954162Y-9109202D01*
X12768783Y-11852682D02*
X14635201Y-13533222D01*
X6539154Y-10421163D02*
G75*
G02*
X6489167Y-10371176I6J49993D01*
G01*
X14476324Y-10046183D02*
X14476324Y-9936176D01*
X16088690Y-14456715D02*
X16142741Y-14402689D01*
X6142736Y-9836176D02*
X6142736Y-10436175D01*
X15879445Y-4774057D02*
X15996768Y-4656735D01*
X6946265Y-12585929D02*
G75*
G02*
X6659675Y-12374626I5J300009D01*
G01*
X15910382Y-11409934D02*
X15910382Y-10536174D01*
X15836316Y-9986163D02*
X15836316Y-10046183D01*
X6350305Y-4865091D02*
G75*
G02*
X6314085Y-4866005I-18545J16801D01*
G01*
X14777378Y-7491840D02*
X14892183Y-7118150D01*
X14714144Y-5937504D02*
X14366345Y-6285837D01*
X7078701Y-14221156D02*
G75*
G02*
X7361438Y-13937923I-135967J418466D01*
G01*
X6946265Y-12585929D02*
X7342022Y-12585929D01*
X14381328Y-9029218D02*
X14486331Y-9029218D01*
X7904150Y-10176180D02*
X7799146Y-10176180D01*
X7521473Y-5106797D02*
X7361276Y-5266970D01*
X15880103Y-4810051D02*
G75*
G02*
X15935169Y-4865095I-537344J-592619D01*
G01*
X15910382Y-8669198D02*
X15910382Y-7795438D01*
X16142741Y-4802683D02*
X16088690Y-4748657D01*
D12*
D13*
X9579160Y-8619330D02*
X9609160Y-8649330D01*
X9609160Y-8619330D02*
X9579160Y-8649330D01*
X9729160Y-8599330D02*
X9759160Y-8629330D01*
X9759160Y-8599330D02*
X9729160Y-8629330D01*
X9798500Y-8985000D02*
X9828500Y-9015000D01*
X9828500Y-8985000D02*
X9798500Y-9015000D01*
X9821000Y-9063000D02*
X9851000Y-9093000D01*
X9851000Y-9063000D02*
X9821000Y-9093000D01*
X10065000Y-8105000D02*
X10095000Y-8135000D01*
X10095000Y-8105000D02*
X10065000Y-8135000D01*
X10096750Y-9206000D02*
X10126750Y-9236000D01*
X10126750Y-9206000D02*
X10096750Y-9236000D01*
X10160000Y-8470000D02*
X10190000Y-8500000D01*
X10190000Y-8470000D02*
X10160000Y-8500000D01*
X10160000Y-11525000D02*
X10190000Y-11555000D01*
X10190000Y-11525000D02*
X10160000Y-11555000D01*
X10170000Y-8846000D02*
X10200000Y-8876000D01*
X10200000Y-8846000D02*
X10170000Y-8876000D01*
X10231250Y-9150000D02*
X10261250Y-9180000D01*
X10261250Y-9150000D02*
X10231250Y-9180000D01*
X10247000Y-10160000D02*
X10277000Y-10190000D01*
X10277000Y-10160000D02*
X10247000Y-10190000D01*
X10250000Y-11470000D02*
X10280000Y-11500000D01*
X10280000Y-11470000D02*
X10250000Y-11500000D01*
X10270000Y-8471000D02*
X10300000Y-8501000D01*
X10300000Y-8471000D02*
X10270000Y-8501000D01*
X10270000Y-9645000D02*
X10300000Y-9675000D01*
X10300000Y-9645000D02*
X10270000Y-9675000D01*
X10310000Y-8865000D02*
X10340000Y-8895000D01*
X10340000Y-8865000D02*
X10310000Y-8895000D01*
X10340000Y-11495000D02*
X10370000Y-11525000D01*
X10370000Y-11495000D02*
X10340000Y-11525000D01*
X10400160Y-8598330D02*
X10430160Y-8628330D01*
X10430160Y-8598330D02*
X10400160Y-8628330D01*
X10442500Y-8072500D02*
X10472500Y-8102500D01*
X10472500Y-8072500D02*
X10442500Y-8102500D01*
X10468500Y-10818000D02*
X10498500Y-10848000D01*
X10498500Y-10818000D02*
X10468500Y-10848000D01*
X10470000Y-11460000D02*
X10500000Y-11490000D01*
X10500000Y-11460000D02*
X10470000Y-11490000D01*
X10472500Y-10118000D02*
X10502500Y-10148000D01*
X10502500Y-10118000D02*
X10472500Y-10148000D01*
X10485000Y-9475000D02*
X10515000Y-9505000D01*
X10515000Y-9475000D02*
X10485000Y-9505000D01*
X10496160Y-8517330D02*
X10526160Y-8547330D01*
X10526160Y-8517330D02*
X10496160Y-8547330D01*
X10499000Y-9225000D02*
X10529000Y-9255000D01*
X10529000Y-9225000D02*
X10499000Y-9255000D01*
X10500000Y-8710000D02*
X10530000Y-8740000D01*
X10530000Y-8710000D02*
X10500000Y-8740000D01*
X10505000Y-11355000D02*
X10535000Y-11385000D01*
X10535000Y-11355000D02*
X10505000Y-11385000D01*
X10535000Y-11500000D02*
X10565000Y-11530000D01*
X10565000Y-11500000D02*
X10535000Y-11530000D01*
X10575500Y-10807000D02*
X10605500Y-10837000D01*
X10605500Y-10807000D02*
X10575500Y-10837000D01*
X10590000Y-8065000D02*
X10620000Y-8095000D01*
X10620000Y-8065000D02*
X10590000Y-8095000D01*
X10614948Y-9109948D02*
X10644948Y-9139948D01*
X10644948Y-9109948D02*
X10614948Y-9139948D01*
X10615000Y-9510000D02*
X10645000Y-9540000D01*
X10645000Y-9510000D02*
X10615000Y-9540000D01*
X10630000Y-9870000D02*
X10660000Y-9900000D01*
X10660000Y-9870000D02*
X10630000Y-9900000D01*
X10645000Y-8830000D02*
X10675000Y-8860000D01*
X10675000Y-8830000D02*
X10645000Y-8860000D01*
X10645000Y-11440000D02*
X10675000Y-11470000D01*
X10675000Y-11440000D02*
X10645000Y-11470000D01*
X10646660Y-8289330D02*
X10676660Y-8319330D01*
X10676660Y-8289330D02*
X10646660Y-8319330D01*
X10687500Y-11012500D02*
X10717500Y-11042500D01*
X10717500Y-11012500D02*
X10687500Y-11042500D01*
X10690000Y-7470000D02*
X10720000Y-7500000D01*
X10720000Y-7470000D02*
X10690000Y-7500000D01*
X10694160Y-9761874D02*
X10724160Y-9791874D01*
X10724160Y-9761874D02*
X10694160Y-9791874D01*
X10700500Y-9138000D02*
X10730500Y-9168000D01*
X10730500Y-9138000D02*
X10700500Y-9168000D01*
X10720000Y-11495000D02*
X10750000Y-11525000D01*
X10750000Y-11495000D02*
X10720000Y-11525000D01*
X10745000Y-11360000D02*
X10775000Y-11390000D01*
X10775000Y-11360000D02*
X10745000Y-11390000D01*
X10750000Y-10605000D02*
X10780000Y-10635000D01*
X10780000Y-10605000D02*
X10750000Y-10635000D01*
X10751500Y-9837000D02*
X10781500Y-9867000D01*
X10781500Y-9837000D02*
X10751500Y-9867000D01*
X10770000Y-9915000D02*
X10800000Y-9945000D01*
X10800000Y-9915000D02*
X10770000Y-9945000D01*
X10770000Y-10010000D02*
X10800000Y-10040000D01*
X10800000Y-10010000D02*
X10770000Y-10040000D01*
X10783500Y-9748000D02*
X10813500Y-9778000D01*
X10813500Y-9748000D02*
X10783500Y-9778000D01*
X10830000Y-11495000D02*
X10860000Y-11525000D01*
X10860000Y-11495000D02*
X10830000Y-11525000D01*
X10845000Y-11350000D02*
X10875000Y-11380000D01*
X10875000Y-11350000D02*
X10845000Y-11380000D01*
X10858160Y-8364570D02*
X10888160Y-8394570D01*
X10888160Y-8364570D02*
X10858160Y-8394570D01*
X10863160Y-8513330D02*
X10893160Y-8543330D01*
X10893160Y-8513330D02*
X10863160Y-8543330D01*
X10870000Y-8940240D02*
X10900000Y-8970240D01*
X10900000Y-8940240D02*
X10870000Y-8970240D01*
X10915000Y-11445000D02*
X10945000Y-11475000D01*
X10945000Y-11445000D02*
X10915000Y-11475000D01*
X10985000Y-9594660D02*
X11015000Y-9624660D01*
X11015000Y-9594660D02*
X10985000Y-9624660D01*
X11010000Y-11340000D02*
X11040000Y-11370000D01*
X11040000Y-11340000D02*
X11010000Y-11370000D01*
X11035000Y-11440000D02*
X11065000Y-11470000D01*
X11065000Y-11440000D02*
X11035000Y-11470000D01*
X11039160Y-8707330D02*
X11069160Y-8737330D01*
X11069160Y-8707330D02*
X11039160Y-8737330D01*
X11040000Y-9037000D02*
X11070000Y-9067000D01*
X11070000Y-9037000D02*
X11040000Y-9067000D01*
X11090000Y-11305000D02*
X11120000Y-11335000D01*
X11120000Y-11305000D02*
X11090000Y-11335000D01*
X11095160Y-8512330D02*
X11125160Y-8542330D01*
X11125160Y-8512330D02*
X11095160Y-8542330D01*
X11100000Y-7875000D02*
X11130000Y-7905000D01*
X11130000Y-7875000D02*
X11100000Y-7905000D01*
X11140000Y-11445000D02*
X11170000Y-11475000D01*
X11170000Y-11445000D02*
X11140000Y-11475000D01*
X11176000Y-11005000D02*
X11206000Y-11035000D01*
X11206000Y-11005000D02*
X11176000Y-11035000D01*
X11181160Y-8497330D02*
X11211160Y-8527330D01*
X11211160Y-8497330D02*
X11181160Y-8527330D01*
X11186000Y-10811000D02*
X11216000Y-10841000D01*
X11216000Y-10811000D02*
X11186000Y-10841000D01*
X11190000Y-11320000D02*
X11220000Y-11350000D01*
X11220000Y-11320000D02*
X11190000Y-11350000D01*
X11205000Y-7940000D02*
X11235000Y-7970000D01*
X11235000Y-7940000D02*
X11205000Y-7970000D01*
X11227000Y-10330000D02*
X11257000Y-10360000D01*
X11257000Y-10330000D02*
X11227000Y-10360000D01*
X11230000Y-10000000D02*
X11260000Y-10030000D01*
X11260000Y-10000000D02*
X11230000Y-10030000D01*
X11235000Y-11445000D02*
X11265000Y-11475000D01*
X11265000Y-11445000D02*
X11235000Y-11475000D01*
X11240160Y-8705330D02*
X11270160Y-8735330D01*
X11270160Y-8705330D02*
X11240160Y-8735330D01*
X11249000Y-9925000D02*
X11279000Y-9955000D01*
X11279000Y-9925000D02*
X11249000Y-9955000D01*
X11277861Y-10655760D02*
X11307861Y-10685760D01*
X11307861Y-10655760D02*
X11277861Y-10685760D01*
X11321000Y-10319000D02*
X11351000Y-10349000D01*
X11351000Y-10319000D02*
X11321000Y-10349000D01*
X11325000Y-10187000D02*
X11355000Y-10217000D01*
X11355000Y-10187000D02*
X11325000Y-10217000D01*
X11326000Y-10034000D02*
X11356000Y-10064000D01*
X11356000Y-10034000D02*
X11326000Y-10064000D01*
X11329000Y-9925000D02*
X11359000Y-9955000D01*
X11359000Y-9925000D02*
X11329000Y-9955000D01*
X11335000Y-7445000D02*
X11365000Y-7475000D01*
X11365000Y-7445000D02*
X11335000Y-7475000D01*
X11335000Y-11450000D02*
X11365000Y-11480000D01*
X11365000Y-11450000D02*
X11335000Y-11480000D01*
X11337500Y-10997000D02*
X11367500Y-11027000D01*
X11367500Y-10997000D02*
X11337500Y-11027000D01*
X11350160Y-7979330D02*
X11380160Y-8009330D01*
X11380160Y-7979330D02*
X11350160Y-8009330D01*
X11351500Y-10805000D02*
X11381500Y-10835000D01*
X11381500Y-10805000D02*
X11351500Y-10835000D01*
X11390000Y-11305000D02*
X11420000Y-11335000D01*
X11420000Y-11305000D02*
X11390000Y-11335000D01*
X11402160Y-8109330D02*
X11432160Y-8139330D01*
X11432160Y-8109330D02*
X11402160Y-8139330D01*
X11404000Y-9927000D02*
X11434000Y-9957000D01*
X11434000Y-9927000D02*
X11404000Y-9957000D01*
X11424000Y-10862000D02*
X11454000Y-10892000D01*
X11454000Y-10862000D02*
X11424000Y-10892000D01*
X11430000Y-11445000D02*
X11460000Y-11475000D01*
X11460000Y-11445000D02*
X11430000Y-11475000D01*
X11439329Y-10427100D02*
X11469329Y-10457100D01*
X11469329Y-10427100D02*
X11439329Y-10457100D01*
X11461500Y-10178000D02*
X11491500Y-10208000D01*
X11491500Y-10178000D02*
X11461500Y-10208000D01*
X11463000Y-10033000D02*
X11493000Y-10063000D01*
X11493000Y-10033000D02*
X11463000Y-10063000D01*
X11466260Y-10631078D02*
X11496260Y-10661078D01*
X11496260Y-10631078D02*
X11466260Y-10661078D01*
X11468000Y-10318000D02*
X11498000Y-10348000D01*
X11498000Y-10318000D02*
X11468000Y-10348000D01*
X11496000Y-10798000D02*
X11526000Y-10828000D01*
X11526000Y-10798000D02*
X11496000Y-10828000D01*
X11499160Y-8229330D02*
X11529160Y-8259330D01*
X11529160Y-8229330D02*
X11499160Y-8259330D01*
X11516500Y-10431000D02*
X11546500Y-10461000D01*
X11546500Y-10431000D02*
X11516500Y-10461000D01*
X11535160Y-7787330D02*
X11565160Y-7817330D01*
X11565160Y-7787330D02*
X11535160Y-7817330D01*
X11536740Y-9704000D02*
X11566740Y-9734000D01*
X11566740Y-9704000D02*
X11536740Y-9734000D01*
X11547500Y-9228500D02*
X11577500Y-9258500D01*
X11577500Y-9228500D02*
X11547500Y-9258500D01*
X11570000Y-8605000D02*
X11600000Y-8635000D01*
X11600000Y-8605000D02*
X11570000Y-8635000D01*
X11575000Y-11290000D02*
X11605000Y-11320000D01*
X11605000Y-11290000D02*
X11575000Y-11320000D01*
X11595000Y-11445000D02*
X11625000Y-11475000D01*
X11625000Y-11445000D02*
X11595000Y-11475000D01*
X11603000Y-10178000D02*
X11633000Y-10208000D01*
X11633000Y-10178000D02*
X11603000Y-10208000D01*
X11604000Y-10316000D02*
X11634000Y-10346000D01*
X11634000Y-10316000D02*
X11604000Y-10346000D01*
X11607000Y-10035000D02*
X11637000Y-10065000D01*
X11637000Y-10035000D02*
X11607000Y-10065000D01*
X11650160Y-7784330D02*
X11680160Y-7814330D01*
X11680160Y-7784330D02*
X11650160Y-7814330D01*
X11669160Y-8533330D02*
X11699160Y-8563330D01*
X11699160Y-8533330D02*
X11669160Y-8563330D01*
X11692000Y-10843000D02*
X11722000Y-10873000D01*
X11722000Y-10843000D02*
X11692000Y-10873000D01*
X11710000Y-9920000D02*
X11740000Y-9950000D01*
X11740000Y-9920000D02*
X11710000Y-9950000D01*
X11710000Y-11265000D02*
X11740000Y-11295000D01*
X11740000Y-11265000D02*
X11710000Y-11295000D01*
X11715000Y-8965000D02*
X11745000Y-8995000D01*
X11745000Y-8965000D02*
X11715000Y-8995000D01*
X11720000Y-11425000D02*
X11750000Y-11455000D01*
X11750000Y-11425000D02*
X11720000Y-11455000D01*
X11721534Y-10425000D02*
X11751534Y-10455000D01*
X11751534Y-10425000D02*
X11721534Y-10455000D01*
X11729500Y-10615000D02*
X11759500Y-10645000D01*
X11759500Y-10615000D02*
X11729500Y-10645000D01*
X11768160Y-7880330D02*
X11798160Y-7910330D01*
X11798160Y-7880330D02*
X11768160Y-7910330D01*
X11769000Y-10907000D02*
X11799000Y-10937000D01*
X11799000Y-10907000D02*
X11769000Y-10937000D01*
X11818240Y-10493240D02*
X11848240Y-10523240D01*
X11848240Y-10493240D02*
X11818240Y-10523240D01*
X11830000Y-11255000D02*
X11860000Y-11285000D01*
X11860000Y-11255000D02*
X11830000Y-11285000D01*
X11855000Y-11415000D02*
X11885000Y-11445000D01*
X11885000Y-11415000D02*
X11855000Y-11445000D01*
X11860240Y-9769554D02*
X11890240Y-9799554D01*
X11890240Y-9769554D02*
X11860240Y-9799554D01*
X11915660Y-8397330D02*
X11945660Y-8427330D01*
X11945660Y-8397330D02*
X11915660Y-8427330D01*
X11932000Y-11007000D02*
X11962000Y-11037000D01*
X11962000Y-11007000D02*
X11932000Y-11037000D01*
X11958000Y-11423000D02*
X11988000Y-11453000D01*
X11988000Y-11423000D02*
X11958000Y-11453000D01*
X11959022Y-9569022D02*
X11989022Y-9599022D01*
X11989022Y-9569022D02*
X11959022Y-9599022D01*
X11964000Y-10821000D02*
X11994000Y-10851000D01*
X11994000Y-10821000D02*
X11964000Y-10851000D01*
X11967000Y-10931000D02*
X11997000Y-10961000D01*
X11997000Y-10931000D02*
X11967000Y-10961000D01*
X11983500Y-10712000D02*
X12013500Y-10742000D01*
X12013500Y-10712000D02*
X11983500Y-10742000D01*
X11992000Y-11227000D02*
X12022000Y-11257000D01*
X12022000Y-11227000D02*
X11992000Y-11257000D01*
X11999000Y-10186000D02*
X12029000Y-10216000D01*
X12029000Y-10186000D02*
X11999000Y-10216000D01*
X12022000Y-10440000D02*
X12052000Y-10470000D01*
X12052000Y-10440000D02*
X12022000Y-10470000D01*
X12038000Y-9783000D02*
X12068000Y-9813000D01*
X12068000Y-9783000D02*
X12038000Y-9813000D01*
X12039000Y-10765000D02*
X12069000Y-10795000D01*
X12069000Y-10765000D02*
X12039000Y-10795000D01*
X12041000Y-10875000D02*
X12071000Y-10905000D01*
X12071000Y-10875000D02*
X12041000Y-10905000D01*
X12058000Y-11453000D02*
X12088000Y-11483000D01*
X12088000Y-11453000D02*
X12058000Y-11483000D01*
X12063000Y-8809000D02*
X12093000Y-8839000D01*
X12093000Y-8809000D02*
X12063000Y-8839000D01*
X12065000Y-8620000D02*
X12095000Y-8650000D01*
X12095000Y-8620000D02*
X12065000Y-8650000D01*
X12074000Y-11147000D02*
X12104000Y-11177000D01*
X12104000Y-11147000D02*
X12074000Y-11177000D01*
X12078000Y-11333000D02*
X12108000Y-11363000D01*
X12108000Y-11333000D02*
X12078000Y-11363000D01*
X12086000Y-10510000D02*
X12116000Y-10540000D01*
X12116000Y-10510000D02*
X12086000Y-10540000D01*
X12094160Y-7879330D02*
X12124160Y-7909330D01*
X12124160Y-7879330D02*
X12094160Y-7909330D01*
X12099000Y-11222000D02*
X12129000Y-11252000D01*
X12129000Y-11222000D02*
X12099000Y-11252000D01*
X12118000Y-11393000D02*
X12148000Y-11423000D01*
X12148000Y-11393000D02*
X12118000Y-11423000D01*
X12132500Y-9938000D02*
X12162500Y-9968000D01*
X12162500Y-9938000D02*
X12132500Y-9968000D01*
X12135760Y-9158000D02*
X12165760Y-9188000D01*
X12165760Y-9158000D02*
X12135760Y-9188000D01*
X12142000Y-10452000D02*
X12172000Y-10482000D01*
X12172000Y-10452000D02*
X12142000Y-10482000D01*
X12155000Y-11145000D02*
X12185000Y-11175000D01*
X12185000Y-11145000D02*
X12155000Y-11175000D01*
X12157000Y-11302000D02*
X12187000Y-11332000D01*
X12187000Y-11302000D02*
X12157000Y-11332000D01*
X12164240Y-9445000D02*
X12194240Y-9475000D01*
X12194240Y-9445000D02*
X12164240Y-9475000D01*
X12170000Y-8797000D02*
X12200000Y-8827000D01*
X12200000Y-8797000D02*
X12170000Y-8827000D01*
X12176160Y-7785330D02*
X12206160Y-7815330D01*
X12206160Y-7785330D02*
X12176160Y-7815330D01*
X12200000Y-10387000D02*
X12230000Y-10417000D01*
X12230000Y-10387000D02*
X12200000Y-10417000D01*
X12200000Y-10587231D02*
X12230000Y-10617231D01*
X12230000Y-10587231D02*
X12200000Y-10617231D01*
X12226160Y-8082330D02*
X12256160Y-8112330D01*
X12256160Y-8082330D02*
X12226160Y-8112330D01*
X12229000Y-10706000D02*
X12259000Y-10736000D01*
X12259000Y-10706000D02*
X12229000Y-10736000D01*
X12241000Y-9950000D02*
X12271000Y-9980000D01*
X12271000Y-9950000D02*
X12241000Y-9980000D01*
X12245000Y-9565000D02*
X12275000Y-9595000D01*
X12275000Y-9565000D02*
X12245000Y-9595000D01*
X12245000Y-10918000D02*
X12275000Y-10948000D01*
X12275000Y-10918000D02*
X12245000Y-10948000D01*
X12270000Y-8734885D02*
X12300000Y-8764885D01*
X12300000Y-8734885D02*
X12270000Y-8764885D01*
X12270000Y-8835000D02*
X12300000Y-8865000D01*
X12300000Y-8835000D02*
X12270000Y-8865000D01*
X12277000Y-10337654D02*
X12307000Y-10367654D01*
X12307000Y-10337654D02*
X12277000Y-10367654D01*
X12277000Y-10437769D02*
X12307000Y-10467769D01*
X12307000Y-10437769D02*
X12277000Y-10467769D01*
X12277000Y-10537885D02*
X12307000Y-10567885D01*
X12307000Y-10537885D02*
X12277000Y-10567885D01*
X12282000Y-10036000D02*
X12312000Y-10066000D01*
X12312000Y-10036000D02*
X12282000Y-10066000D01*
X12286000Y-10641000D02*
X12316000Y-10671000D01*
X12316000Y-10641000D02*
X12286000Y-10671000D01*
X12303000Y-9419000D02*
X12333000Y-9449000D01*
X12333000Y-9419000D02*
X12303000Y-9449000D01*
X12320000Y-9732000D02*
X12350000Y-9762000D01*
X12350000Y-9732000D02*
X12320000Y-9762000D01*
X12321000Y-10812000D02*
X12351000Y-10842000D01*
X12351000Y-10812000D02*
X12321000Y-10842000D01*
X12323000Y-9849000D02*
X12353000Y-9879000D01*
X12353000Y-9849000D02*
X12323000Y-9879000D01*
X12330000Y-9335000D02*
X12360000Y-9365000D01*
X12360000Y-9335000D02*
X12330000Y-9365000D01*
X12358000Y-11033000D02*
X12388000Y-11063000D01*
X12388000Y-11033000D02*
X12358000Y-11063000D01*
X12359000Y-8883000D02*
X12389000Y-8913000D01*
X12389000Y-8883000D02*
X12359000Y-8913000D01*
X12364000Y-9987423D02*
X12394000Y-10017423D01*
X12394000Y-9987423D02*
X12364000Y-10017423D01*
X12364000Y-10087539D02*
X12394000Y-10117539D01*
X12394000Y-10087539D02*
X12364000Y-10117539D01*
X12364000Y-10387885D02*
X12394000Y-10417885D01*
X12394000Y-10387885D02*
X12364000Y-10417885D01*
X12365000Y-11190423D02*
X12395000Y-11220423D01*
X12395000Y-11190423D02*
X12365000Y-11220423D01*
X12365000Y-11290538D02*
X12395000Y-11320538D01*
X12395000Y-11290538D02*
X12365000Y-11320538D01*
X12365000Y-11390654D02*
X12395000Y-11420654D01*
X12395000Y-11390654D02*
X12365000Y-11420654D01*
X12365000Y-11490769D02*
X12395000Y-11520769D01*
X12395000Y-11490769D02*
X12365000Y-11520769D01*
X12368000Y-10689769D02*
X12398000Y-10719769D01*
X12398000Y-10689769D02*
X12368000Y-10719769D01*
X12368000Y-10890000D02*
X12398000Y-10920000D01*
X12398000Y-10890000D02*
X12368000Y-10920000D01*
X12380000Y-9787000D02*
X12410000Y-9817000D01*
X12410000Y-9787000D02*
X12380000Y-9817000D01*
X12388000Y-10781000D02*
X12418000Y-10811000D01*
X12418000Y-10781000D02*
X12388000Y-10811000D01*
X12423000Y-11236000D02*
X12453000Y-11266000D01*
X12453000Y-11236000D02*
X12423000Y-11266000D01*
X12453000Y-8832577D02*
X12483000Y-8862577D01*
X12483000Y-8832577D02*
X12453000Y-8862577D01*
X12453000Y-8932692D02*
X12483000Y-8962692D01*
X12483000Y-8932692D02*
X12453000Y-8962692D01*
X12453000Y-9032808D02*
X12483000Y-9062808D01*
X12483000Y-9032808D02*
X12453000Y-9062808D01*
X12453000Y-9233039D02*
X12483000Y-9263039D01*
X12483000Y-9233039D02*
X12453000Y-9263039D01*
X12453000Y-9333154D02*
X12483000Y-9363154D01*
X12483000Y-9333154D02*
X12453000Y-9363154D01*
X12453000Y-9433269D02*
X12483000Y-9463269D01*
X12483000Y-9433269D02*
X12453000Y-9463269D01*
X12453000Y-10033962D02*
X12483000Y-10063962D01*
X12483000Y-10033962D02*
X12453000Y-10063962D01*
X12453000Y-10134077D02*
X12483000Y-10164077D01*
X12483000Y-10134077D02*
X12453000Y-10164077D01*
X12453000Y-10234192D02*
X12483000Y-10264192D01*
X12483000Y-10234192D02*
X12453000Y-10264192D01*
X12453000Y-10334308D02*
X12483000Y-10364308D01*
X12483000Y-10334308D02*
X12453000Y-10364308D01*
X12453000Y-10834885D02*
X12483000Y-10864885D01*
X12483000Y-10834885D02*
X12453000Y-10864885D01*
X12453000Y-11374000D02*
X12483000Y-11404000D01*
X12483000Y-11374000D02*
X12453000Y-11404000D01*
X12453000Y-11464500D02*
X12483000Y-11494500D01*
X12483000Y-11464500D02*
X12453000Y-11494500D01*
X12458000Y-11033000D02*
X12488000Y-11063000D01*
X12488000Y-11033000D02*
X12458000Y-11063000D01*
X12458000Y-11147000D02*
X12488000Y-11177000D01*
X12488000Y-11147000D02*
X12458000Y-11177000D01*
X12529000Y-9580000D02*
X12559000Y-9610000D01*
X12559000Y-9580000D02*
X12529000Y-9610000D01*
X12568766Y-9871234D02*
X12598766Y-9901234D01*
X12598766Y-9871234D02*
X12568766Y-9901234D01*
X12585680Y-9460000D02*
X12615680Y-9490000D01*
X12615680Y-9460000D02*
X12585680Y-9490000D01*
X12650000Y-9140000D02*
X12680000Y-9170000D01*
X12680000Y-9140000D02*
X12650000Y-9170000D01*
X12963180Y-9589760D02*
X12993180Y-9619760D01*
X12993180Y-9589760D02*
X12963180Y-9619760D01*
X13077500Y-9623500D02*
X13107500Y-9653500D01*
X13107500Y-9623500D02*
X13077500Y-9653500D01*
X12468000Y-11568000D02*
G75*
G02*
X12438000Y-11568000I-15000J0D01*
G01*
X12438000Y-11568000D02*
G75*
G02*
X12468000Y-11568000I15000J0D01*
G01*
X9332239Y-10328189D02*
X9332239Y-10368189D01*
X9312239Y-10348189D02*
X9352239Y-10348189D01*
X9395231Y-10391181D02*
X9395231Y-10431181D01*
X9375231Y-10411181D02*
X9415231Y-10411181D01*
X9459112Y-10455062D02*
X9459112Y-10495062D01*
X9439112Y-10475062D02*
X9479112Y-10475062D01*
X9610988Y-11179840D02*
X9610988Y-11219840D01*
X9590988Y-11199840D02*
X9630988Y-11199840D01*
X9618700Y-8928700D02*
X9618700Y-8968700D01*
X9598700Y-8948700D02*
X9638700Y-8948700D01*
X9647988Y-11094840D02*
X9647988Y-11134840D01*
X9627988Y-11114840D02*
X9667988Y-11114840D01*
X9668408Y-8021742D02*
X9668408Y-8061742D01*
X9648408Y-8041742D02*
X9688408Y-8041742D01*
X9676155Y-9060348D02*
X9676155Y-9100348D01*
X9656155Y-9080348D02*
X9696155Y-9080348D01*
X9733115Y-7957035D02*
X9733115Y-7997035D01*
X9713115Y-7977035D02*
X9753115Y-7977035D01*
X9796424Y-7893726D02*
X9796424Y-7933726D01*
X9776424Y-7913726D02*
X9816424Y-7913726D01*
X12387605Y-7759360D02*
X12387605Y-7799360D01*
X12367605Y-7779360D02*
X12407605Y-7779360D01*
X12471933Y-7759360D02*
X12471933Y-7799360D01*
X12451933Y-7779360D02*
X12491933Y-7779360D01*
X12561341Y-7759360D02*
X12561341Y-7799360D01*
X12541341Y-7779360D02*
X12581341Y-7779360D01*
X12667988Y-8030840D02*
X12667988Y-8070840D01*
X12647988Y-8050840D02*
X12687988Y-8050840D01*
X12679988Y-11014840D02*
X12679988Y-11054840D01*
X12659988Y-11034840D02*
X12699988Y-11034840D01*
X12681151Y-10842363D02*
X12681151Y-10882363D01*
X12661151Y-10862363D02*
X12701151Y-10862363D01*
X12681151Y-10928088D02*
X12681151Y-10968088D01*
X12661151Y-10948088D02*
X12701151Y-10948088D01*
X12681151Y-11146782D02*
X12681151Y-11186782D01*
X12661151Y-11166782D02*
X12701151Y-11166782D01*
X12685000Y-11510000D02*
X12685000Y-11550000D01*
X12665000Y-11530000D02*
X12705000Y-11530000D01*
X12706988Y-7938840D02*
X12706988Y-7978840D01*
X12686988Y-7958840D02*
X12726988Y-7958840D01*
X12731988Y-7839840D02*
X12731988Y-7879840D01*
X12711988Y-7859840D02*
X12751988Y-7859840D01*
X12793988Y-11277840D02*
X12793988Y-11317840D01*
X12773988Y-11297840D02*
X12813988Y-11297840D01*
X10099213Y-7497713D02*
X10099213Y-7455287D01*
X10056787Y-7455287D01*
X10056787Y-7497713D01*
X10099213Y-7497713D01*
X10048000Y-7446500D02*
X10048000Y-7506500D01*
X10108000Y-7506500D02*
G75*
G02*
X10048000Y-7506500I-30000J0D01*
G01*
X10108000Y-7506500D02*
X10108000Y-7446500D01*
X10108000Y-7446500D02*
G75*
G03*
X10048000Y-7446500I-30000J0D01*
G01*
X10099213Y-7915713D02*
X10099213Y-7873287D01*
X10056787Y-7873287D01*
X10056787Y-7915713D01*
X10099213Y-7915713D01*
X10048000Y-7839500D02*
X10048000Y-7949500D01*
X10108000Y-7949500D02*
G75*
G02*
X10048000Y-7949500I-30000J0D01*
G01*
X10108000Y-7949500D02*
X10108000Y-7839500D01*
X10108000Y-7839500D02*
G75*
G03*
X10048000Y-7839500I-30000J0D01*
G01*
X10963213Y-7497713D02*
X10963213Y-7455287D01*
X10920787Y-7455287D01*
X10920787Y-7497713D01*
X10963213Y-7497713D01*
X10912000Y-7446500D02*
X10912000Y-7506500D01*
X10972000Y-7506500D02*
G75*
G02*
X10912000Y-7506500I-30000J0D01*
G01*
X10972000Y-7506500D02*
X10972000Y-7446500D01*
X10972000Y-7446500D02*
G75*
G03*
X10912000Y-7446500I-30000J0D01*
G01*
X10963213Y-7915713D02*
X10963213Y-7873287D01*
X10920787Y-7873287D01*
X10920787Y-7915713D01*
X10963213Y-7915713D01*
X10912000Y-7839500D02*
X10912000Y-7949500D01*
X10972000Y-7949500D02*
G75*
G02*
X10912000Y-7949500I-30000J0D01*
G01*
X10972000Y-7949500D02*
X10972000Y-7839500D01*
X10972000Y-7839500D02*
G75*
G03*
X10912000Y-7839500I-30000J0D01*
G01*
X8925551Y-7639449D02*
X8975551Y-7589449D01*
X8925551Y-7539449D01*
X8875551Y-7589449D01*
X8925551Y-7639449D01*
X8944844Y-11694844D02*
X8994844Y-11644844D01*
X8944844Y-11594844D01*
X8894844Y-11644844D01*
X8944844Y-11694844D01*
X9105156Y-7459844D02*
X9155156Y-7409844D01*
X9105156Y-7359844D01*
X9055156Y-7409844D01*
X9105156Y-7459844D01*
X9124449Y-11874449D02*
X9174449Y-11824449D01*
X9124449Y-11774449D01*
X9074449Y-11824449D01*
X9124449Y-11874449D01*
X9176000Y-9398500D02*
X9226000Y-9348500D01*
X9176000Y-9298500D01*
X9126000Y-9348500D01*
X9176000Y-9398500D01*
X9176000Y-9652500D02*
X9226000Y-9602500D01*
X9176000Y-9552500D01*
X9126000Y-9602500D01*
X9176000Y-9652500D01*
X9430000Y-9398500D02*
X9480000Y-9348500D01*
X9430000Y-9298500D01*
X9380000Y-9348500D01*
X9430000Y-9398500D01*
X9430000Y-9652500D02*
X9480000Y-9602500D01*
X9430000Y-9552500D01*
X9380000Y-9602500D01*
X9430000Y-9652500D01*
X9684000Y-9398500D02*
X9734000Y-9348500D01*
X9684000Y-9298500D01*
X9634000Y-9348500D01*
X9684000Y-9398500D01*
X9684000Y-9652500D02*
X9734000Y-9602500D01*
X9684000Y-9552500D01*
X9634000Y-9602500D01*
X9684000Y-9652500D01*
X13150551Y-11909449D02*
X13200551Y-11859449D01*
X13150551Y-11809449D01*
X13100551Y-11859449D01*
X13150551Y-11909449D01*
X13199844Y-7439844D02*
X13249844Y-7389844D01*
X13199844Y-7339844D01*
X13149844Y-7389844D01*
X13199844Y-7439844D01*
X13330156Y-11729844D02*
X13380156Y-11679844D01*
X13330156Y-11629844D01*
X13280156Y-11679844D01*
X13330156Y-11729844D01*
X13379449Y-7619449D02*
X13429449Y-7569449D01*
X13379449Y-7519449D01*
X13329449Y-7569449D01*
X13379449Y-7619449D01*
D12*
X6402243Y-14915443D02*
X6402243Y-14715443D01*
X6402243Y-14715443D02*
X6449862Y-14715443D01*
X6449862Y-14715443D02*
X6478433Y-14724967D01*
X6478433Y-14724967D02*
X6497481Y-14744014D01*
X6497481Y-14744014D02*
X6507005Y-14763062D01*
X6507005Y-14763062D02*
X6516528Y-14801157D01*
X6516528Y-14801157D02*
X6516528Y-14829728D01*
X6516528Y-14829728D02*
X6507005Y-14867824D01*
X6507005Y-14867824D02*
X6497481Y-14886871D01*
X6497481Y-14886871D02*
X6478433Y-14905919D01*
X6478433Y-14905919D02*
X6449862Y-14915443D01*
X6449862Y-14915443D02*
X6402243Y-14915443D01*
X6602243Y-14915443D02*
X6602243Y-14782109D01*
X6602243Y-14820205D02*
X6611767Y-14801157D01*
X6611767Y-14801157D02*
X6621290Y-14791633D01*
X6621290Y-14791633D02*
X6640338Y-14782109D01*
X6640338Y-14782109D02*
X6659386Y-14782109D01*
X6726052Y-14915443D02*
X6726052Y-14782109D01*
X6726052Y-14715443D02*
X6716528Y-14724967D01*
X6716528Y-14724967D02*
X6726052Y-14734490D01*
X6726052Y-14734490D02*
X6735576Y-14724967D01*
X6735576Y-14724967D02*
X6726052Y-14715443D01*
X6726052Y-14715443D02*
X6726052Y-14734490D01*
X6849862Y-14915443D02*
X6830814Y-14905919D01*
X6830814Y-14905919D02*
X6821290Y-14886871D01*
X6821290Y-14886871D02*
X6821290Y-14715443D01*
X6954624Y-14915443D02*
X6935576Y-14905919D01*
X6935576Y-14905919D02*
X6926052Y-14886871D01*
X6926052Y-14886871D02*
X6926052Y-14715443D01*
X7183195Y-14915443D02*
X7183195Y-14715443D01*
X7183195Y-14715443D02*
X7249862Y-14858300D01*
X7249862Y-14858300D02*
X7316528Y-14715443D01*
X7316528Y-14715443D02*
X7316528Y-14915443D01*
X7497481Y-14915443D02*
X7497481Y-14810681D01*
X7497481Y-14810681D02*
X7487957Y-14791633D01*
X7487957Y-14791633D02*
X7468909Y-14782109D01*
X7468909Y-14782109D02*
X7430814Y-14782109D01*
X7430814Y-14782109D02*
X7411767Y-14791633D01*
X7497481Y-14905919D02*
X7478433Y-14915443D01*
X7478433Y-14915443D02*
X7430814Y-14915443D01*
X7430814Y-14915443D02*
X7411767Y-14905919D01*
X7411767Y-14905919D02*
X7402243Y-14886871D01*
X7402243Y-14886871D02*
X7402243Y-14867824D01*
X7402243Y-14867824D02*
X7411767Y-14848776D01*
X7411767Y-14848776D02*
X7430814Y-14839252D01*
X7430814Y-14839252D02*
X7478433Y-14839252D01*
X7478433Y-14839252D02*
X7497481Y-14829728D01*
X7592719Y-14782109D02*
X7592719Y-14982109D01*
X7592719Y-14791633D02*
X7611767Y-14782109D01*
X7611767Y-14782109D02*
X7649862Y-14782109D01*
X7649862Y-14782109D02*
X7668909Y-14791633D01*
X7668909Y-14791633D02*
X7678433Y-14801157D01*
X7678433Y-14801157D02*
X7687957Y-14820205D01*
X7687957Y-14820205D02*
X7687957Y-14877347D01*
X7687957Y-14877347D02*
X7678433Y-14896395D01*
X7678433Y-14896395D02*
X7668909Y-14905919D01*
X7668909Y-14905919D02*
X7649862Y-14915443D01*
X7649862Y-14915443D02*
X7611767Y-14915443D01*
X7611767Y-14915443D02*
X7592719Y-14905919D01*
X7773671Y-14896395D02*
X7783195Y-14905919D01*
X7783195Y-14905919D02*
X7773671Y-14915443D01*
X7773671Y-14915443D02*
X7764148Y-14905919D01*
X7764148Y-14905919D02*
X7773671Y-14896395D01*
X7773671Y-14896395D02*
X7773671Y-14915443D01*
X7773671Y-14791633D02*
X7783195Y-14801157D01*
X7783195Y-14801157D02*
X7773671Y-14810681D01*
X7773671Y-14810681D02*
X7764148Y-14801157D01*
X7764148Y-14801157D02*
X7773671Y-14791633D01*
X7773671Y-14791633D02*
X7773671Y-14810681D01*
D13*
X6111466Y-15228959D02*
X6141466Y-15258959D01*
X6141466Y-15228959D02*
X6111466Y-15258959D01*
D12*
X6440338Y-15135443D02*
X6459386Y-15135443D01*
X6459386Y-15135443D02*
X6478433Y-15144967D01*
X6478433Y-15144967D02*
X6487957Y-15154490D01*
X6487957Y-15154490D02*
X6497481Y-15173538D01*
X6497481Y-15173538D02*
X6507005Y-15211633D01*
X6507005Y-15211633D02*
X6507005Y-15259252D01*
X6507005Y-15259252D02*
X6497481Y-15297347D01*
X6497481Y-15297347D02*
X6487957Y-15316395D01*
X6487957Y-15316395D02*
X6478433Y-15325919D01*
X6478433Y-15325919D02*
X6459386Y-15335443D01*
X6459386Y-15335443D02*
X6440338Y-15335443D01*
X6440338Y-15335443D02*
X6421290Y-15325919D01*
X6421290Y-15325919D02*
X6411767Y-15316395D01*
X6411767Y-15316395D02*
X6402243Y-15297347D01*
X6402243Y-15297347D02*
X6392719Y-15259252D01*
X6392719Y-15259252D02*
X6392719Y-15211633D01*
X6392719Y-15211633D02*
X6402243Y-15173538D01*
X6402243Y-15173538D02*
X6411767Y-15154490D01*
X6411767Y-15154490D02*
X6421290Y-15144967D01*
X6421290Y-15144967D02*
X6440338Y-15135443D01*
X6592719Y-15316395D02*
X6602243Y-15325919D01*
X6602243Y-15325919D02*
X6592719Y-15335443D01*
X6592719Y-15335443D02*
X6583195Y-15325919D01*
X6583195Y-15325919D02*
X6592719Y-15316395D01*
X6592719Y-15316395D02*
X6592719Y-15335443D01*
X6668909Y-15135443D02*
X6792719Y-15135443D01*
X6792719Y-15135443D02*
X6726052Y-15211633D01*
X6726052Y-15211633D02*
X6754624Y-15211633D01*
X6754624Y-15211633D02*
X6773671Y-15221157D01*
X6773671Y-15221157D02*
X6783195Y-15230681D01*
X6783195Y-15230681D02*
X6792719Y-15249728D01*
X6792719Y-15249728D02*
X6792719Y-15297347D01*
X6792719Y-15297347D02*
X6783195Y-15316395D01*
X6783195Y-15316395D02*
X6773671Y-15325919D01*
X6773671Y-15325919D02*
X6754624Y-15335443D01*
X6754624Y-15335443D02*
X6697481Y-15335443D01*
X6697481Y-15335443D02*
X6678433Y-15325919D01*
X6678433Y-15325919D02*
X6668909Y-15316395D01*
X6916528Y-15135443D02*
X6935576Y-15135443D01*
X6935576Y-15135443D02*
X6954624Y-15144967D01*
X6954624Y-15144967D02*
X6964148Y-15154490D01*
X6964148Y-15154490D02*
X6973671Y-15173538D01*
X6973671Y-15173538D02*
X6983195Y-15211633D01*
X6983195Y-15211633D02*
X6983195Y-15259252D01*
X6983195Y-15259252D02*
X6973671Y-15297347D01*
X6973671Y-15297347D02*
X6964148Y-15316395D01*
X6964148Y-15316395D02*
X6954624Y-15325919D01*
X6954624Y-15325919D02*
X6935576Y-15335443D01*
X6935576Y-15335443D02*
X6916528Y-15335443D01*
X6916528Y-15335443D02*
X6897481Y-15325919D01*
X6897481Y-15325919D02*
X6887957Y-15316395D01*
X6887957Y-15316395D02*
X6878433Y-15297347D01*
X6878433Y-15297347D02*
X6868909Y-15259252D01*
X6868909Y-15259252D02*
X6868909Y-15211633D01*
X6868909Y-15211633D02*
X6878433Y-15173538D01*
X6878433Y-15173538D02*
X6887957Y-15154490D01*
X6887957Y-15154490D02*
X6897481Y-15144967D01*
X6897481Y-15144967D02*
X6916528Y-15135443D01*
X7107005Y-15135443D02*
X7126052Y-15135443D01*
X7126052Y-15135443D02*
X7145100Y-15144967D01*
X7145100Y-15144967D02*
X7154624Y-15154490D01*
X7154624Y-15154490D02*
X7164148Y-15173538D01*
X7164148Y-15173538D02*
X7173671Y-15211633D01*
X7173671Y-15211633D02*
X7173671Y-15259252D01*
X7173671Y-15259252D02*
X7164148Y-15297347D01*
X7164148Y-15297347D02*
X7154624Y-15316395D01*
X7154624Y-15316395D02*
X7145100Y-15325919D01*
X7145100Y-15325919D02*
X7126052Y-15335443D01*
X7126052Y-15335443D02*
X7107005Y-15335443D01*
X7107005Y-15335443D02*
X7087957Y-15325919D01*
X7087957Y-15325919D02*
X7078433Y-15316395D01*
X7078433Y-15316395D02*
X7068909Y-15297347D01*
X7068909Y-15297347D02*
X7059386Y-15259252D01*
X7059386Y-15259252D02*
X7059386Y-15211633D01*
X7059386Y-15211633D02*
X7068909Y-15173538D01*
X7068909Y-15173538D02*
X7078433Y-15154490D01*
X7078433Y-15154490D02*
X7087957Y-15144967D01*
X7087957Y-15144967D02*
X7107005Y-15135443D01*
X7259386Y-15335443D02*
X7259386Y-15202109D01*
X7259386Y-15221157D02*
X7268909Y-15211633D01*
X7268909Y-15211633D02*
X7287957Y-15202109D01*
X7287957Y-15202109D02*
X7316529Y-15202109D01*
X7316529Y-15202109D02*
X7335576Y-15211633D01*
X7335576Y-15211633D02*
X7345100Y-15230681D01*
X7345100Y-15230681D02*
X7345100Y-15335443D01*
X7345100Y-15230681D02*
X7354624Y-15211633D01*
X7354624Y-15211633D02*
X7373671Y-15202109D01*
X7373671Y-15202109D02*
X7402243Y-15202109D01*
X7402243Y-15202109D02*
X7421290Y-15211633D01*
X7421290Y-15211633D02*
X7430814Y-15230681D01*
X7430814Y-15230681D02*
X7430814Y-15335443D01*
X7526052Y-15335443D02*
X7526052Y-15202109D01*
X7526052Y-15221157D02*
X7535576Y-15211633D01*
X7535576Y-15211633D02*
X7554624Y-15202109D01*
X7554624Y-15202109D02*
X7583195Y-15202109D01*
X7583195Y-15202109D02*
X7602243Y-15211633D01*
X7602243Y-15211633D02*
X7611767Y-15230681D01*
X7611767Y-15230681D02*
X7611767Y-15335443D01*
X7611767Y-15230681D02*
X7621290Y-15211633D01*
X7621290Y-15211633D02*
X7640338Y-15202109D01*
X7640338Y-15202109D02*
X7668909Y-15202109D01*
X7668909Y-15202109D02*
X7687957Y-15211633D01*
X7687957Y-15211633D02*
X7697481Y-15230681D01*
X7697481Y-15230681D02*
X7697481Y-15335443D01*
X8087957Y-15125919D02*
X7916529Y-15383062D01*
X8345100Y-15135443D02*
X8364148Y-15135443D01*
X8364148Y-15135443D02*
X8383195Y-15144967D01*
X8383195Y-15144967D02*
X8392719Y-15154490D01*
X8392719Y-15154490D02*
X8402243Y-15173538D01*
X8402243Y-15173538D02*
X8411767Y-15211633D01*
X8411767Y-15211633D02*
X8411767Y-15259252D01*
X8411767Y-15259252D02*
X8402243Y-15297347D01*
X8402243Y-15297347D02*
X8392719Y-15316395D01*
X8392719Y-15316395D02*
X8383195Y-15325919D01*
X8383195Y-15325919D02*
X8364148Y-15335443D01*
X8364148Y-15335443D02*
X8345100Y-15335443D01*
X8345100Y-15335443D02*
X8326052Y-15325919D01*
X8326052Y-15325919D02*
X8316529Y-15316395D01*
X8316529Y-15316395D02*
X8307005Y-15297347D01*
X8307005Y-15297347D02*
X8297481Y-15259252D01*
X8297481Y-15259252D02*
X8297481Y-15211633D01*
X8297481Y-15211633D02*
X8307005Y-15173538D01*
X8307005Y-15173538D02*
X8316529Y-15154490D01*
X8316529Y-15154490D02*
X8326052Y-15144967D01*
X8326052Y-15144967D02*
X8345100Y-15135443D01*
X8497481Y-15316395D02*
X8507005Y-15325919D01*
X8507005Y-15325919D02*
X8497481Y-15335443D01*
X8497481Y-15335443D02*
X8487957Y-15325919D01*
X8487957Y-15325919D02*
X8497481Y-15316395D01*
X8497481Y-15316395D02*
X8497481Y-15335443D01*
X8630814Y-15135443D02*
X8649862Y-15135443D01*
X8649862Y-15135443D02*
X8668910Y-15144967D01*
X8668910Y-15144967D02*
X8678434Y-15154490D01*
X8678434Y-15154490D02*
X8687957Y-15173538D01*
X8687957Y-15173538D02*
X8697481Y-15211633D01*
X8697481Y-15211633D02*
X8697481Y-15259252D01*
X8697481Y-15259252D02*
X8687957Y-15297347D01*
X8687957Y-15297347D02*
X8678434Y-15316395D01*
X8678434Y-15316395D02*
X8668910Y-15325919D01*
X8668910Y-15325919D02*
X8649862Y-15335443D01*
X8649862Y-15335443D02*
X8630814Y-15335443D01*
X8630814Y-15335443D02*
X8611767Y-15325919D01*
X8611767Y-15325919D02*
X8602243Y-15316395D01*
X8602243Y-15316395D02*
X8592719Y-15297347D01*
X8592719Y-15297347D02*
X8583195Y-15259252D01*
X8583195Y-15259252D02*
X8583195Y-15211633D01*
X8583195Y-15211633D02*
X8592719Y-15173538D01*
X8592719Y-15173538D02*
X8602243Y-15154490D01*
X8602243Y-15154490D02*
X8611767Y-15144967D01*
X8611767Y-15144967D02*
X8630814Y-15135443D01*
X8887957Y-15335443D02*
X8773672Y-15335443D01*
X8830814Y-15335443D02*
X8830814Y-15135443D01*
X8830814Y-15135443D02*
X8811767Y-15164014D01*
X8811767Y-15164014D02*
X8792719Y-15183062D01*
X8792719Y-15183062D02*
X8773672Y-15192586D01*
X9078434Y-15335443D02*
X8964148Y-15335443D01*
X9021291Y-15335443D02*
X9021291Y-15135443D01*
X9021291Y-15135443D02*
X9002243Y-15164014D01*
X9002243Y-15164014D02*
X8983195Y-15183062D01*
X8983195Y-15183062D02*
X8964148Y-15192586D01*
X9192719Y-15221157D02*
X9173672Y-15211633D01*
X9173672Y-15211633D02*
X9164148Y-15202109D01*
X9164148Y-15202109D02*
X9154624Y-15183062D01*
X9154624Y-15183062D02*
X9154624Y-15173538D01*
X9154624Y-15173538D02*
X9164148Y-15154490D01*
X9164148Y-15154490D02*
X9173672Y-15144967D01*
X9173672Y-15144967D02*
X9192719Y-15135443D01*
X9192719Y-15135443D02*
X9230815Y-15135443D01*
X9230815Y-15135443D02*
X9249862Y-15144967D01*
X9249862Y-15144967D02*
X9259386Y-15154490D01*
X9259386Y-15154490D02*
X9268910Y-15173538D01*
X9268910Y-15173538D02*
X9268910Y-15183062D01*
X9268910Y-15183062D02*
X9259386Y-15202109D01*
X9259386Y-15202109D02*
X9249862Y-15211633D01*
X9249862Y-15211633D02*
X9230815Y-15221157D01*
X9230815Y-15221157D02*
X9192719Y-15221157D01*
X9192719Y-15221157D02*
X9173672Y-15230681D01*
X9173672Y-15230681D02*
X9164148Y-15240205D01*
X9164148Y-15240205D02*
X9154624Y-15259252D01*
X9154624Y-15259252D02*
X9154624Y-15297347D01*
X9154624Y-15297347D02*
X9164148Y-15316395D01*
X9164148Y-15316395D02*
X9173672Y-15325919D01*
X9173672Y-15325919D02*
X9192719Y-15335443D01*
X9192719Y-15335443D02*
X9230815Y-15335443D01*
X9230815Y-15335443D02*
X9249862Y-15325919D01*
X9249862Y-15325919D02*
X9259386Y-15316395D01*
X9259386Y-15316395D02*
X9268910Y-15297347D01*
X9268910Y-15297347D02*
X9268910Y-15259252D01*
X9268910Y-15259252D02*
X9259386Y-15240205D01*
X9259386Y-15240205D02*
X9249862Y-15230681D01*
X9249862Y-15230681D02*
X9230815Y-15221157D01*
X9345100Y-15135443D02*
X9345100Y-15173538D01*
X9421291Y-15135443D02*
X9421291Y-15173538D01*
X9716529Y-15411633D02*
X9707005Y-15402109D01*
X9707005Y-15402109D02*
X9687957Y-15373538D01*
X9687957Y-15373538D02*
X9678434Y-15354490D01*
X9678434Y-15354490D02*
X9668910Y-15325919D01*
X9668910Y-15325919D02*
X9659386Y-15278300D01*
X9659386Y-15278300D02*
X9659386Y-15240205D01*
X9659386Y-15240205D02*
X9668910Y-15192586D01*
X9668910Y-15192586D02*
X9678434Y-15164014D01*
X9678434Y-15164014D02*
X9687957Y-15144967D01*
X9687957Y-15144967D02*
X9707005Y-15116395D01*
X9707005Y-15116395D02*
X9716529Y-15106871D01*
X9783196Y-15154490D02*
X9792719Y-15144967D01*
X9792719Y-15144967D02*
X9811767Y-15135443D01*
X9811767Y-15135443D02*
X9859386Y-15135443D01*
X9859386Y-15135443D02*
X9878434Y-15144967D01*
X9878434Y-15144967D02*
X9887957Y-15154490D01*
X9887957Y-15154490D02*
X9897481Y-15173538D01*
X9897481Y-15173538D02*
X9897481Y-15192586D01*
X9897481Y-15192586D02*
X9887957Y-15221157D01*
X9887957Y-15221157D02*
X9773672Y-15335443D01*
X9773672Y-15335443D02*
X9897481Y-15335443D01*
X10021291Y-15135443D02*
X10040338Y-15135443D01*
X10040338Y-15135443D02*
X10059386Y-15144967D01*
X10059386Y-15144967D02*
X10068910Y-15154490D01*
X10068910Y-15154490D02*
X10078434Y-15173538D01*
X10078434Y-15173538D02*
X10087957Y-15211633D01*
X10087957Y-15211633D02*
X10087957Y-15259252D01*
X10087957Y-15259252D02*
X10078434Y-15297347D01*
X10078434Y-15297347D02*
X10068910Y-15316395D01*
X10068910Y-15316395D02*
X10059386Y-15325919D01*
X10059386Y-15325919D02*
X10040338Y-15335443D01*
X10040338Y-15335443D02*
X10021291Y-15335443D01*
X10021291Y-15335443D02*
X10002243Y-15325919D01*
X10002243Y-15325919D02*
X9992719Y-15316395D01*
X9992719Y-15316395D02*
X9983196Y-15297347D01*
X9983196Y-15297347D02*
X9973672Y-15259252D01*
X9973672Y-15259252D02*
X9973672Y-15211633D01*
X9973672Y-15211633D02*
X9983196Y-15173538D01*
X9983196Y-15173538D02*
X9992719Y-15154490D01*
X9992719Y-15154490D02*
X10002243Y-15144967D01*
X10002243Y-15144967D02*
X10021291Y-15135443D01*
X10164148Y-15154490D02*
X10173672Y-15144967D01*
X10173672Y-15144967D02*
X10192719Y-15135443D01*
X10192719Y-15135443D02*
X10240338Y-15135443D01*
X10240338Y-15135443D02*
X10259386Y-15144967D01*
X10259386Y-15144967D02*
X10268910Y-15154490D01*
X10268910Y-15154490D02*
X10278434Y-15173538D01*
X10278434Y-15173538D02*
X10278434Y-15192586D01*
X10278434Y-15192586D02*
X10268910Y-15221157D01*
X10268910Y-15221157D02*
X10154624Y-15335443D01*
X10154624Y-15335443D02*
X10278434Y-15335443D01*
X10516529Y-15335443D02*
X10516529Y-15135443D01*
X10602243Y-15335443D02*
X10602243Y-15230681D01*
X10602243Y-15230681D02*
X10592719Y-15211633D01*
X10592719Y-15211633D02*
X10573672Y-15202109D01*
X10573672Y-15202109D02*
X10545100Y-15202109D01*
X10545100Y-15202109D02*
X10526053Y-15211633D01*
X10526053Y-15211633D02*
X10516529Y-15221157D01*
X10726053Y-15335443D02*
X10707005Y-15325919D01*
X10707005Y-15325919D02*
X10697481Y-15316395D01*
X10697481Y-15316395D02*
X10687958Y-15297347D01*
X10687958Y-15297347D02*
X10687958Y-15240205D01*
X10687958Y-15240205D02*
X10697481Y-15221157D01*
X10697481Y-15221157D02*
X10707005Y-15211633D01*
X10707005Y-15211633D02*
X10726053Y-15202109D01*
X10726053Y-15202109D02*
X10754624Y-15202109D01*
X10754624Y-15202109D02*
X10773672Y-15211633D01*
X10773672Y-15211633D02*
X10783196Y-15221157D01*
X10783196Y-15221157D02*
X10792719Y-15240205D01*
X10792719Y-15240205D02*
X10792719Y-15297347D01*
X10792719Y-15297347D02*
X10783196Y-15316395D01*
X10783196Y-15316395D02*
X10773672Y-15325919D01*
X10773672Y-15325919D02*
X10754624Y-15335443D01*
X10754624Y-15335443D02*
X10726053Y-15335443D01*
X10907005Y-15335443D02*
X10887958Y-15325919D01*
X10887958Y-15325919D02*
X10878434Y-15306871D01*
X10878434Y-15306871D02*
X10878434Y-15135443D01*
X11059386Y-15325919D02*
X11040339Y-15335443D01*
X11040339Y-15335443D02*
X11002243Y-15335443D01*
X11002243Y-15335443D02*
X10983196Y-15325919D01*
X10983196Y-15325919D02*
X10973672Y-15306871D01*
X10973672Y-15306871D02*
X10973672Y-15230681D01*
X10973672Y-15230681D02*
X10983196Y-15211633D01*
X10983196Y-15211633D02*
X11002243Y-15202109D01*
X11002243Y-15202109D02*
X11040339Y-15202109D01*
X11040339Y-15202109D02*
X11059386Y-15211633D01*
X11059386Y-15211633D02*
X11068910Y-15230681D01*
X11068910Y-15230681D02*
X11068910Y-15249728D01*
X11068910Y-15249728D02*
X10973672Y-15268776D01*
X11145100Y-15325919D02*
X11164148Y-15335443D01*
X11164148Y-15335443D02*
X11202243Y-15335443D01*
X11202243Y-15335443D02*
X11221291Y-15325919D01*
X11221291Y-15325919D02*
X11230815Y-15306871D01*
X11230815Y-15306871D02*
X11230815Y-15297347D01*
X11230815Y-15297347D02*
X11221291Y-15278300D01*
X11221291Y-15278300D02*
X11202243Y-15268776D01*
X11202243Y-15268776D02*
X11173672Y-15268776D01*
X11173672Y-15268776D02*
X11154624Y-15259252D01*
X11154624Y-15259252D02*
X11145100Y-15240205D01*
X11145100Y-15240205D02*
X11145100Y-15230681D01*
X11145100Y-15230681D02*
X11154624Y-15211633D01*
X11154624Y-15211633D02*
X11173672Y-15202109D01*
X11173672Y-15202109D02*
X11202243Y-15202109D01*
X11202243Y-15202109D02*
X11221291Y-15211633D01*
X11297481Y-15411633D02*
X11307005Y-15402109D01*
X11307005Y-15402109D02*
X11326053Y-15373538D01*
X11326053Y-15373538D02*
X11335577Y-15354490D01*
X11335577Y-15354490D02*
X11345100Y-15325919D01*
X11345100Y-15325919D02*
X11354624Y-15278300D01*
X11354624Y-15278300D02*
X11354624Y-15240205D01*
X11354624Y-15240205D02*
X11345100Y-15192586D01*
X11345100Y-15192586D02*
X11335577Y-15164014D01*
X11335577Y-15164014D02*
X11326053Y-15144967D01*
X11326053Y-15144967D02*
X11307005Y-15116395D01*
X11307005Y-15116395D02*
X11297481Y-15106871D01*
D13*
X6141466Y-15507959D02*
G75*
G02*
X6111466Y-15507959I-15000J0D01*
G01*
X6111466Y-15507959D02*
G75*
G02*
X6141466Y-15507959I15000J0D01*
G01*
D12*
X6440338Y-15399443D02*
X6459386Y-15399443D01*
X6459386Y-15399443D02*
X6478433Y-15408967D01*
X6478433Y-15408967D02*
X6487957Y-15418490D01*
X6487957Y-15418490D02*
X6497481Y-15437538D01*
X6497481Y-15437538D02*
X6507005Y-15475633D01*
X6507005Y-15475633D02*
X6507005Y-15523252D01*
X6507005Y-15523252D02*
X6497481Y-15561347D01*
X6497481Y-15561347D02*
X6487957Y-15580395D01*
X6487957Y-15580395D02*
X6478433Y-15589919D01*
X6478433Y-15589919D02*
X6459386Y-15599443D01*
X6459386Y-15599443D02*
X6440338Y-15599443D01*
X6440338Y-15599443D02*
X6421290Y-15589919D01*
X6421290Y-15589919D02*
X6411767Y-15580395D01*
X6411767Y-15580395D02*
X6402243Y-15561347D01*
X6402243Y-15561347D02*
X6392719Y-15523252D01*
X6392719Y-15523252D02*
X6392719Y-15475633D01*
X6392719Y-15475633D02*
X6402243Y-15437538D01*
X6402243Y-15437538D02*
X6411767Y-15418490D01*
X6411767Y-15418490D02*
X6421290Y-15408967D01*
X6421290Y-15408967D02*
X6440338Y-15399443D01*
X6592719Y-15580395D02*
X6602243Y-15589919D01*
X6602243Y-15589919D02*
X6592719Y-15599443D01*
X6592719Y-15599443D02*
X6583195Y-15589919D01*
X6583195Y-15589919D02*
X6592719Y-15580395D01*
X6592719Y-15580395D02*
X6592719Y-15599443D01*
X6668909Y-15399443D02*
X6792719Y-15399443D01*
X6792719Y-15399443D02*
X6726052Y-15475633D01*
X6726052Y-15475633D02*
X6754624Y-15475633D01*
X6754624Y-15475633D02*
X6773671Y-15485157D01*
X6773671Y-15485157D02*
X6783195Y-15494681D01*
X6783195Y-15494681D02*
X6792719Y-15513728D01*
X6792719Y-15513728D02*
X6792719Y-15561347D01*
X6792719Y-15561347D02*
X6783195Y-15580395D01*
X6783195Y-15580395D02*
X6773671Y-15589919D01*
X6773671Y-15589919D02*
X6754624Y-15599443D01*
X6754624Y-15599443D02*
X6697481Y-15599443D01*
X6697481Y-15599443D02*
X6678433Y-15589919D01*
X6678433Y-15589919D02*
X6668909Y-15580395D01*
X6916528Y-15399443D02*
X6935576Y-15399443D01*
X6935576Y-15399443D02*
X6954624Y-15408967D01*
X6954624Y-15408967D02*
X6964148Y-15418490D01*
X6964148Y-15418490D02*
X6973671Y-15437538D01*
X6973671Y-15437538D02*
X6983195Y-15475633D01*
X6983195Y-15475633D02*
X6983195Y-15523252D01*
X6983195Y-15523252D02*
X6973671Y-15561347D01*
X6973671Y-15561347D02*
X6964148Y-15580395D01*
X6964148Y-15580395D02*
X6954624Y-15589919D01*
X6954624Y-15589919D02*
X6935576Y-15599443D01*
X6935576Y-15599443D02*
X6916528Y-15599443D01*
X6916528Y-15599443D02*
X6897481Y-15589919D01*
X6897481Y-15589919D02*
X6887957Y-15580395D01*
X6887957Y-15580395D02*
X6878433Y-15561347D01*
X6878433Y-15561347D02*
X6868909Y-15523252D01*
X6868909Y-15523252D02*
X6868909Y-15475633D01*
X6868909Y-15475633D02*
X6878433Y-15437538D01*
X6878433Y-15437538D02*
X6887957Y-15418490D01*
X6887957Y-15418490D02*
X6897481Y-15408967D01*
X6897481Y-15408967D02*
X6916528Y-15399443D01*
X7107005Y-15399443D02*
X7126052Y-15399443D01*
X7126052Y-15399443D02*
X7145100Y-15408967D01*
X7145100Y-15408967D02*
X7154624Y-15418490D01*
X7154624Y-15418490D02*
X7164148Y-15437538D01*
X7164148Y-15437538D02*
X7173671Y-15475633D01*
X7173671Y-15475633D02*
X7173671Y-15523252D01*
X7173671Y-15523252D02*
X7164148Y-15561347D01*
X7164148Y-15561347D02*
X7154624Y-15580395D01*
X7154624Y-15580395D02*
X7145100Y-15589919D01*
X7145100Y-15589919D02*
X7126052Y-15599443D01*
X7126052Y-15599443D02*
X7107005Y-15599443D01*
X7107005Y-15599443D02*
X7087957Y-15589919D01*
X7087957Y-15589919D02*
X7078433Y-15580395D01*
X7078433Y-15580395D02*
X7068909Y-15561347D01*
X7068909Y-15561347D02*
X7059386Y-15523252D01*
X7059386Y-15523252D02*
X7059386Y-15475633D01*
X7059386Y-15475633D02*
X7068909Y-15437538D01*
X7068909Y-15437538D02*
X7078433Y-15418490D01*
X7078433Y-15418490D02*
X7087957Y-15408967D01*
X7087957Y-15408967D02*
X7107005Y-15399443D01*
X7259386Y-15599443D02*
X7259386Y-15466109D01*
X7259386Y-15485157D02*
X7268909Y-15475633D01*
X7268909Y-15475633D02*
X7287957Y-15466109D01*
X7287957Y-15466109D02*
X7316529Y-15466109D01*
X7316529Y-15466109D02*
X7335576Y-15475633D01*
X7335576Y-15475633D02*
X7345100Y-15494681D01*
X7345100Y-15494681D02*
X7345100Y-15599443D01*
X7345100Y-15494681D02*
X7354624Y-15475633D01*
X7354624Y-15475633D02*
X7373671Y-15466109D01*
X7373671Y-15466109D02*
X7402243Y-15466109D01*
X7402243Y-15466109D02*
X7421290Y-15475633D01*
X7421290Y-15475633D02*
X7430814Y-15494681D01*
X7430814Y-15494681D02*
X7430814Y-15599443D01*
X7526052Y-15599443D02*
X7526052Y-15466109D01*
X7526052Y-15485157D02*
X7535576Y-15475633D01*
X7535576Y-15475633D02*
X7554624Y-15466109D01*
X7554624Y-15466109D02*
X7583195Y-15466109D01*
X7583195Y-15466109D02*
X7602243Y-15475633D01*
X7602243Y-15475633D02*
X7611767Y-15494681D01*
X7611767Y-15494681D02*
X7611767Y-15599443D01*
X7611767Y-15494681D02*
X7621290Y-15475633D01*
X7621290Y-15475633D02*
X7640338Y-15466109D01*
X7640338Y-15466109D02*
X7668909Y-15466109D01*
X7668909Y-15466109D02*
X7687957Y-15475633D01*
X7687957Y-15475633D02*
X7697481Y-15494681D01*
X7697481Y-15494681D02*
X7697481Y-15599443D01*
X8087957Y-15389919D02*
X7916529Y-15647062D01*
X8345100Y-15399443D02*
X8364148Y-15399443D01*
X8364148Y-15399443D02*
X8383195Y-15408967D01*
X8383195Y-15408967D02*
X8392719Y-15418490D01*
X8392719Y-15418490D02*
X8402243Y-15437538D01*
X8402243Y-15437538D02*
X8411767Y-15475633D01*
X8411767Y-15475633D02*
X8411767Y-15523252D01*
X8411767Y-15523252D02*
X8402243Y-15561347D01*
X8402243Y-15561347D02*
X8392719Y-15580395D01*
X8392719Y-15580395D02*
X8383195Y-15589919D01*
X8383195Y-15589919D02*
X8364148Y-15599443D01*
X8364148Y-15599443D02*
X8345100Y-15599443D01*
X8345100Y-15599443D02*
X8326052Y-15589919D01*
X8326052Y-15589919D02*
X8316529Y-15580395D01*
X8316529Y-15580395D02*
X8307005Y-15561347D01*
X8307005Y-15561347D02*
X8297481Y-15523252D01*
X8297481Y-15523252D02*
X8297481Y-15475633D01*
X8297481Y-15475633D02*
X8307005Y-15437538D01*
X8307005Y-15437538D02*
X8316529Y-15418490D01*
X8316529Y-15418490D02*
X8326052Y-15408967D01*
X8326052Y-15408967D02*
X8345100Y-15399443D01*
X8497481Y-15580395D02*
X8507005Y-15589919D01*
X8507005Y-15589919D02*
X8497481Y-15599443D01*
X8497481Y-15599443D02*
X8487957Y-15589919D01*
X8487957Y-15589919D02*
X8497481Y-15580395D01*
X8497481Y-15580395D02*
X8497481Y-15599443D01*
X8630814Y-15399443D02*
X8649862Y-15399443D01*
X8649862Y-15399443D02*
X8668910Y-15408967D01*
X8668910Y-15408967D02*
X8678434Y-15418490D01*
X8678434Y-15418490D02*
X8687957Y-15437538D01*
X8687957Y-15437538D02*
X8697481Y-15475633D01*
X8697481Y-15475633D02*
X8697481Y-15523252D01*
X8697481Y-15523252D02*
X8687957Y-15561347D01*
X8687957Y-15561347D02*
X8678434Y-15580395D01*
X8678434Y-15580395D02*
X8668910Y-15589919D01*
X8668910Y-15589919D02*
X8649862Y-15599443D01*
X8649862Y-15599443D02*
X8630814Y-15599443D01*
X8630814Y-15599443D02*
X8611767Y-15589919D01*
X8611767Y-15589919D02*
X8602243Y-15580395D01*
X8602243Y-15580395D02*
X8592719Y-15561347D01*
X8592719Y-15561347D02*
X8583195Y-15523252D01*
X8583195Y-15523252D02*
X8583195Y-15475633D01*
X8583195Y-15475633D02*
X8592719Y-15437538D01*
X8592719Y-15437538D02*
X8602243Y-15418490D01*
X8602243Y-15418490D02*
X8611767Y-15408967D01*
X8611767Y-15408967D02*
X8630814Y-15399443D01*
X8887957Y-15599443D02*
X8773672Y-15599443D01*
X8830814Y-15599443D02*
X8830814Y-15399443D01*
X8830814Y-15399443D02*
X8811767Y-15428014D01*
X8811767Y-15428014D02*
X8792719Y-15447062D01*
X8792719Y-15447062D02*
X8773672Y-15456586D01*
X9078434Y-15599443D02*
X8964148Y-15599443D01*
X9021291Y-15599443D02*
X9021291Y-15399443D01*
X9021291Y-15399443D02*
X9002243Y-15428014D01*
X9002243Y-15428014D02*
X8983195Y-15447062D01*
X8983195Y-15447062D02*
X8964148Y-15456586D01*
X9192719Y-15485157D02*
X9173672Y-15475633D01*
X9173672Y-15475633D02*
X9164148Y-15466109D01*
X9164148Y-15466109D02*
X9154624Y-15447062D01*
X9154624Y-15447062D02*
X9154624Y-15437538D01*
X9154624Y-15437538D02*
X9164148Y-15418490D01*
X9164148Y-15418490D02*
X9173672Y-15408967D01*
X9173672Y-15408967D02*
X9192719Y-15399443D01*
X9192719Y-15399443D02*
X9230815Y-15399443D01*
X9230815Y-15399443D02*
X9249862Y-15408967D01*
X9249862Y-15408967D02*
X9259386Y-15418490D01*
X9259386Y-15418490D02*
X9268910Y-15437538D01*
X9268910Y-15437538D02*
X9268910Y-15447062D01*
X9268910Y-15447062D02*
X9259386Y-15466109D01*
X9259386Y-15466109D02*
X9249862Y-15475633D01*
X9249862Y-15475633D02*
X9230815Y-15485157D01*
X9230815Y-15485157D02*
X9192719Y-15485157D01*
X9192719Y-15485157D02*
X9173672Y-15494681D01*
X9173672Y-15494681D02*
X9164148Y-15504205D01*
X9164148Y-15504205D02*
X9154624Y-15523252D01*
X9154624Y-15523252D02*
X9154624Y-15561347D01*
X9154624Y-15561347D02*
X9164148Y-15580395D01*
X9164148Y-15580395D02*
X9173672Y-15589919D01*
X9173672Y-15589919D02*
X9192719Y-15599443D01*
X9192719Y-15599443D02*
X9230815Y-15599443D01*
X9230815Y-15599443D02*
X9249862Y-15589919D01*
X9249862Y-15589919D02*
X9259386Y-15580395D01*
X9259386Y-15580395D02*
X9268910Y-15561347D01*
X9268910Y-15561347D02*
X9268910Y-15523252D01*
X9268910Y-15523252D02*
X9259386Y-15504205D01*
X9259386Y-15504205D02*
X9249862Y-15494681D01*
X9249862Y-15494681D02*
X9230815Y-15485157D01*
X9345100Y-15399443D02*
X9345100Y-15437538D01*
X9421291Y-15399443D02*
X9421291Y-15437538D01*
X9716529Y-15675633D02*
X9707005Y-15666109D01*
X9707005Y-15666109D02*
X9687957Y-15637538D01*
X9687957Y-15637538D02*
X9678434Y-15618490D01*
X9678434Y-15618490D02*
X9668910Y-15589919D01*
X9668910Y-15589919D02*
X9659386Y-15542300D01*
X9659386Y-15542300D02*
X9659386Y-15504205D01*
X9659386Y-15504205D02*
X9668910Y-15456586D01*
X9668910Y-15456586D02*
X9678434Y-15428014D01*
X9678434Y-15428014D02*
X9687957Y-15408967D01*
X9687957Y-15408967D02*
X9707005Y-15380395D01*
X9707005Y-15380395D02*
X9716529Y-15370871D01*
X9897481Y-15599443D02*
X9783196Y-15599443D01*
X9840338Y-15599443D02*
X9840338Y-15399443D01*
X9840338Y-15399443D02*
X9821291Y-15428014D01*
X9821291Y-15428014D02*
X9802243Y-15447062D01*
X9802243Y-15447062D02*
X9783196Y-15456586D01*
X10135577Y-15599443D02*
X10135577Y-15399443D01*
X10221291Y-15599443D02*
X10221291Y-15494681D01*
X10221291Y-15494681D02*
X10211767Y-15475633D01*
X10211767Y-15475633D02*
X10192719Y-15466109D01*
X10192719Y-15466109D02*
X10164148Y-15466109D01*
X10164148Y-15466109D02*
X10145100Y-15475633D01*
X10145100Y-15475633D02*
X10135577Y-15485157D01*
X10345100Y-15599443D02*
X10326053Y-15589919D01*
X10326053Y-15589919D02*
X10316529Y-15580395D01*
X10316529Y-15580395D02*
X10307005Y-15561347D01*
X10307005Y-15561347D02*
X10307005Y-15504205D01*
X10307005Y-15504205D02*
X10316529Y-15485157D01*
X10316529Y-15485157D02*
X10326053Y-15475633D01*
X10326053Y-15475633D02*
X10345100Y-15466109D01*
X10345100Y-15466109D02*
X10373672Y-15466109D01*
X10373672Y-15466109D02*
X10392719Y-15475633D01*
X10392719Y-15475633D02*
X10402243Y-15485157D01*
X10402243Y-15485157D02*
X10411767Y-15504205D01*
X10411767Y-15504205D02*
X10411767Y-15561347D01*
X10411767Y-15561347D02*
X10402243Y-15580395D01*
X10402243Y-15580395D02*
X10392719Y-15589919D01*
X10392719Y-15589919D02*
X10373672Y-15599443D01*
X10373672Y-15599443D02*
X10345100Y-15599443D01*
X10526053Y-15599443D02*
X10507005Y-15589919D01*
X10507005Y-15589919D02*
X10497481Y-15570871D01*
X10497481Y-15570871D02*
X10497481Y-15399443D01*
X10678434Y-15589919D02*
X10659386Y-15599443D01*
X10659386Y-15599443D02*
X10621291Y-15599443D01*
X10621291Y-15599443D02*
X10602243Y-15589919D01*
X10602243Y-15589919D02*
X10592719Y-15570871D01*
X10592719Y-15570871D02*
X10592719Y-15494681D01*
X10592719Y-15494681D02*
X10602243Y-15475633D01*
X10602243Y-15475633D02*
X10621291Y-15466109D01*
X10621291Y-15466109D02*
X10659386Y-15466109D01*
X10659386Y-15466109D02*
X10678434Y-15475633D01*
X10678434Y-15475633D02*
X10687958Y-15494681D01*
X10687958Y-15494681D02*
X10687958Y-15513728D01*
X10687958Y-15513728D02*
X10592719Y-15532776D01*
X10754624Y-15675633D02*
X10764148Y-15666109D01*
X10764148Y-15666109D02*
X10783196Y-15637538D01*
X10783196Y-15637538D02*
X10792719Y-15618490D01*
X10792719Y-15618490D02*
X10802243Y-15589919D01*
X10802243Y-15589919D02*
X10811767Y-15542300D01*
X10811767Y-15542300D02*
X10811767Y-15504205D01*
X10811767Y-15504205D02*
X10802243Y-15456586D01*
X10802243Y-15456586D02*
X10792719Y-15428014D01*
X10792719Y-15428014D02*
X10783196Y-15408967D01*
X10783196Y-15408967D02*
X10764148Y-15380395D01*
X10764148Y-15380395D02*
X10754624Y-15370871D01*
D13*
X6121466Y-15751959D02*
X6121466Y-15791959D01*
X6101466Y-15771959D02*
X6141466Y-15771959D01*
D12*
X6440338Y-15663443D02*
X6459386Y-15663443D01*
X6459386Y-15663443D02*
X6478433Y-15672967D01*
X6478433Y-15672967D02*
X6487957Y-15682490D01*
X6487957Y-15682490D02*
X6497481Y-15701538D01*
X6497481Y-15701538D02*
X6507005Y-15739633D01*
X6507005Y-15739633D02*
X6507005Y-15787252D01*
X6507005Y-15787252D02*
X6497481Y-15825347D01*
X6497481Y-15825347D02*
X6487957Y-15844395D01*
X6487957Y-15844395D02*
X6478433Y-15853919D01*
X6478433Y-15853919D02*
X6459386Y-15863443D01*
X6459386Y-15863443D02*
X6440338Y-15863443D01*
X6440338Y-15863443D02*
X6421290Y-15853919D01*
X6421290Y-15853919D02*
X6411767Y-15844395D01*
X6411767Y-15844395D02*
X6402243Y-15825347D01*
X6402243Y-15825347D02*
X6392719Y-15787252D01*
X6392719Y-15787252D02*
X6392719Y-15739633D01*
X6392719Y-15739633D02*
X6402243Y-15701538D01*
X6402243Y-15701538D02*
X6411767Y-15682490D01*
X6411767Y-15682490D02*
X6421290Y-15672967D01*
X6421290Y-15672967D02*
X6440338Y-15663443D01*
X6592719Y-15844395D02*
X6602243Y-15853919D01*
X6602243Y-15853919D02*
X6592719Y-15863443D01*
X6592719Y-15863443D02*
X6583195Y-15853919D01*
X6583195Y-15853919D02*
X6592719Y-15844395D01*
X6592719Y-15844395D02*
X6592719Y-15863443D01*
X6773671Y-15730109D02*
X6773671Y-15863443D01*
X6726052Y-15653919D02*
X6678433Y-15796776D01*
X6678433Y-15796776D02*
X6802243Y-15796776D01*
X6916528Y-15663443D02*
X6935576Y-15663443D01*
X6935576Y-15663443D02*
X6954624Y-15672967D01*
X6954624Y-15672967D02*
X6964148Y-15682490D01*
X6964148Y-15682490D02*
X6973671Y-15701538D01*
X6973671Y-15701538D02*
X6983195Y-15739633D01*
X6983195Y-15739633D02*
X6983195Y-15787252D01*
X6983195Y-15787252D02*
X6973671Y-15825347D01*
X6973671Y-15825347D02*
X6964148Y-15844395D01*
X6964148Y-15844395D02*
X6954624Y-15853919D01*
X6954624Y-15853919D02*
X6935576Y-15863443D01*
X6935576Y-15863443D02*
X6916528Y-15863443D01*
X6916528Y-15863443D02*
X6897481Y-15853919D01*
X6897481Y-15853919D02*
X6887957Y-15844395D01*
X6887957Y-15844395D02*
X6878433Y-15825347D01*
X6878433Y-15825347D02*
X6868909Y-15787252D01*
X6868909Y-15787252D02*
X6868909Y-15739633D01*
X6868909Y-15739633D02*
X6878433Y-15701538D01*
X6878433Y-15701538D02*
X6887957Y-15682490D01*
X6887957Y-15682490D02*
X6897481Y-15672967D01*
X6897481Y-15672967D02*
X6916528Y-15663443D01*
X7107005Y-15663443D02*
X7126052Y-15663443D01*
X7126052Y-15663443D02*
X7145100Y-15672967D01*
X7145100Y-15672967D02*
X7154624Y-15682490D01*
X7154624Y-15682490D02*
X7164148Y-15701538D01*
X7164148Y-15701538D02*
X7173671Y-15739633D01*
X7173671Y-15739633D02*
X7173671Y-15787252D01*
X7173671Y-15787252D02*
X7164148Y-15825347D01*
X7164148Y-15825347D02*
X7154624Y-15844395D01*
X7154624Y-15844395D02*
X7145100Y-15853919D01*
X7145100Y-15853919D02*
X7126052Y-15863443D01*
X7126052Y-15863443D02*
X7107005Y-15863443D01*
X7107005Y-15863443D02*
X7087957Y-15853919D01*
X7087957Y-15853919D02*
X7078433Y-15844395D01*
X7078433Y-15844395D02*
X7068909Y-15825347D01*
X7068909Y-15825347D02*
X7059386Y-15787252D01*
X7059386Y-15787252D02*
X7059386Y-15739633D01*
X7059386Y-15739633D02*
X7068909Y-15701538D01*
X7068909Y-15701538D02*
X7078433Y-15682490D01*
X7078433Y-15682490D02*
X7087957Y-15672967D01*
X7087957Y-15672967D02*
X7107005Y-15663443D01*
X7259386Y-15863443D02*
X7259386Y-15730109D01*
X7259386Y-15749157D02*
X7268909Y-15739633D01*
X7268909Y-15739633D02*
X7287957Y-15730109D01*
X7287957Y-15730109D02*
X7316529Y-15730109D01*
X7316529Y-15730109D02*
X7335576Y-15739633D01*
X7335576Y-15739633D02*
X7345100Y-15758681D01*
X7345100Y-15758681D02*
X7345100Y-15863443D01*
X7345100Y-15758681D02*
X7354624Y-15739633D01*
X7354624Y-15739633D02*
X7373671Y-15730109D01*
X7373671Y-15730109D02*
X7402243Y-15730109D01*
X7402243Y-15730109D02*
X7421290Y-15739633D01*
X7421290Y-15739633D02*
X7430814Y-15758681D01*
X7430814Y-15758681D02*
X7430814Y-15863443D01*
X7526052Y-15863443D02*
X7526052Y-15730109D01*
X7526052Y-15749157D02*
X7535576Y-15739633D01*
X7535576Y-15739633D02*
X7554624Y-15730109D01*
X7554624Y-15730109D02*
X7583195Y-15730109D01*
X7583195Y-15730109D02*
X7602243Y-15739633D01*
X7602243Y-15739633D02*
X7611767Y-15758681D01*
X7611767Y-15758681D02*
X7611767Y-15863443D01*
X7611767Y-15758681D02*
X7621290Y-15739633D01*
X7621290Y-15739633D02*
X7640338Y-15730109D01*
X7640338Y-15730109D02*
X7668909Y-15730109D01*
X7668909Y-15730109D02*
X7687957Y-15739633D01*
X7687957Y-15739633D02*
X7697481Y-15758681D01*
X7697481Y-15758681D02*
X7697481Y-15863443D01*
X8087957Y-15653919D02*
X7916529Y-15911062D01*
X8345100Y-15663443D02*
X8364148Y-15663443D01*
X8364148Y-15663443D02*
X8383195Y-15672967D01*
X8383195Y-15672967D02*
X8392719Y-15682490D01*
X8392719Y-15682490D02*
X8402243Y-15701538D01*
X8402243Y-15701538D02*
X8411767Y-15739633D01*
X8411767Y-15739633D02*
X8411767Y-15787252D01*
X8411767Y-15787252D02*
X8402243Y-15825347D01*
X8402243Y-15825347D02*
X8392719Y-15844395D01*
X8392719Y-15844395D02*
X8383195Y-15853919D01*
X8383195Y-15853919D02*
X8364148Y-15863443D01*
X8364148Y-15863443D02*
X8345100Y-15863443D01*
X8345100Y-15863443D02*
X8326052Y-15853919D01*
X8326052Y-15853919D02*
X8316529Y-15844395D01*
X8316529Y-15844395D02*
X8307005Y-15825347D01*
X8307005Y-15825347D02*
X8297481Y-15787252D01*
X8297481Y-15787252D02*
X8297481Y-15739633D01*
X8297481Y-15739633D02*
X8307005Y-15701538D01*
X8307005Y-15701538D02*
X8316529Y-15682490D01*
X8316529Y-15682490D02*
X8326052Y-15672967D01*
X8326052Y-15672967D02*
X8345100Y-15663443D01*
X8497481Y-15844395D02*
X8507005Y-15853919D01*
X8507005Y-15853919D02*
X8497481Y-15863443D01*
X8497481Y-15863443D02*
X8487957Y-15853919D01*
X8487957Y-15853919D02*
X8497481Y-15844395D01*
X8497481Y-15844395D02*
X8497481Y-15863443D01*
X8630814Y-15663443D02*
X8649862Y-15663443D01*
X8649862Y-15663443D02*
X8668910Y-15672967D01*
X8668910Y-15672967D02*
X8678434Y-15682490D01*
X8678434Y-15682490D02*
X8687957Y-15701538D01*
X8687957Y-15701538D02*
X8697481Y-15739633D01*
X8697481Y-15739633D02*
X8697481Y-15787252D01*
X8697481Y-15787252D02*
X8687957Y-15825347D01*
X8687957Y-15825347D02*
X8678434Y-15844395D01*
X8678434Y-15844395D02*
X8668910Y-15853919D01*
X8668910Y-15853919D02*
X8649862Y-15863443D01*
X8649862Y-15863443D02*
X8630814Y-15863443D01*
X8630814Y-15863443D02*
X8611767Y-15853919D01*
X8611767Y-15853919D02*
X8602243Y-15844395D01*
X8602243Y-15844395D02*
X8592719Y-15825347D01*
X8592719Y-15825347D02*
X8583195Y-15787252D01*
X8583195Y-15787252D02*
X8583195Y-15739633D01*
X8583195Y-15739633D02*
X8592719Y-15701538D01*
X8592719Y-15701538D02*
X8602243Y-15682490D01*
X8602243Y-15682490D02*
X8611767Y-15672967D01*
X8611767Y-15672967D02*
X8630814Y-15663443D01*
X8887957Y-15863443D02*
X8773672Y-15863443D01*
X8830814Y-15863443D02*
X8830814Y-15663443D01*
X8830814Y-15663443D02*
X8811767Y-15692014D01*
X8811767Y-15692014D02*
X8792719Y-15711062D01*
X8792719Y-15711062D02*
X8773672Y-15720586D01*
X9068910Y-15663443D02*
X8973672Y-15663443D01*
X8973672Y-15663443D02*
X8964148Y-15758681D01*
X8964148Y-15758681D02*
X8973672Y-15749157D01*
X8973672Y-15749157D02*
X8992719Y-15739633D01*
X8992719Y-15739633D02*
X9040338Y-15739633D01*
X9040338Y-15739633D02*
X9059386Y-15749157D01*
X9059386Y-15749157D02*
X9068910Y-15758681D01*
X9068910Y-15758681D02*
X9078434Y-15777728D01*
X9078434Y-15777728D02*
X9078434Y-15825347D01*
X9078434Y-15825347D02*
X9068910Y-15844395D01*
X9068910Y-15844395D02*
X9059386Y-15853919D01*
X9059386Y-15853919D02*
X9040338Y-15863443D01*
X9040338Y-15863443D02*
X8992719Y-15863443D01*
X8992719Y-15863443D02*
X8973672Y-15853919D01*
X8973672Y-15853919D02*
X8964148Y-15844395D01*
X9145100Y-15663443D02*
X9278434Y-15663443D01*
X9278434Y-15663443D02*
X9192719Y-15863443D01*
X9345100Y-15663443D02*
X9345100Y-15701538D01*
X9421291Y-15663443D02*
X9421291Y-15701538D01*
X9716529Y-15939633D02*
X9707005Y-15930109D01*
X9707005Y-15930109D02*
X9687957Y-15901538D01*
X9687957Y-15901538D02*
X9678434Y-15882490D01*
X9678434Y-15882490D02*
X9668910Y-15853919D01*
X9668910Y-15853919D02*
X9659386Y-15806300D01*
X9659386Y-15806300D02*
X9659386Y-15768205D01*
X9659386Y-15768205D02*
X9668910Y-15720586D01*
X9668910Y-15720586D02*
X9678434Y-15692014D01*
X9678434Y-15692014D02*
X9687957Y-15672967D01*
X9687957Y-15672967D02*
X9707005Y-15644395D01*
X9707005Y-15644395D02*
X9716529Y-15634871D01*
X9783196Y-15682490D02*
X9792719Y-15672967D01*
X9792719Y-15672967D02*
X9811767Y-15663443D01*
X9811767Y-15663443D02*
X9859386Y-15663443D01*
X9859386Y-15663443D02*
X9878434Y-15672967D01*
X9878434Y-15672967D02*
X9887957Y-15682490D01*
X9887957Y-15682490D02*
X9897481Y-15701538D01*
X9897481Y-15701538D02*
X9897481Y-15720586D01*
X9897481Y-15720586D02*
X9887957Y-15749157D01*
X9887957Y-15749157D02*
X9773672Y-15863443D01*
X9773672Y-15863443D02*
X9897481Y-15863443D01*
X9973672Y-15682490D02*
X9983196Y-15672967D01*
X9983196Y-15672967D02*
X10002243Y-15663443D01*
X10002243Y-15663443D02*
X10049862Y-15663443D01*
X10049862Y-15663443D02*
X10068910Y-15672967D01*
X10068910Y-15672967D02*
X10078434Y-15682490D01*
X10078434Y-15682490D02*
X10087957Y-15701538D01*
X10087957Y-15701538D02*
X10087957Y-15720586D01*
X10087957Y-15720586D02*
X10078434Y-15749157D01*
X10078434Y-15749157D02*
X9964148Y-15863443D01*
X9964148Y-15863443D02*
X10087957Y-15863443D01*
X10326053Y-15863443D02*
X10326053Y-15663443D01*
X10411767Y-15863443D02*
X10411767Y-15758681D01*
X10411767Y-15758681D02*
X10402243Y-15739633D01*
X10402243Y-15739633D02*
X10383196Y-15730109D01*
X10383196Y-15730109D02*
X10354624Y-15730109D01*
X10354624Y-15730109D02*
X10335577Y-15739633D01*
X10335577Y-15739633D02*
X10326053Y-15749157D01*
X10535577Y-15863443D02*
X10516529Y-15853919D01*
X10516529Y-15853919D02*
X10507005Y-15844395D01*
X10507005Y-15844395D02*
X10497481Y-15825347D01*
X10497481Y-15825347D02*
X10497481Y-15768205D01*
X10497481Y-15768205D02*
X10507005Y-15749157D01*
X10507005Y-15749157D02*
X10516529Y-15739633D01*
X10516529Y-15739633D02*
X10535577Y-15730109D01*
X10535577Y-15730109D02*
X10564148Y-15730109D01*
X10564148Y-15730109D02*
X10583196Y-15739633D01*
X10583196Y-15739633D02*
X10592719Y-15749157D01*
X10592719Y-15749157D02*
X10602243Y-15768205D01*
X10602243Y-15768205D02*
X10602243Y-15825347D01*
X10602243Y-15825347D02*
X10592719Y-15844395D01*
X10592719Y-15844395D02*
X10583196Y-15853919D01*
X10583196Y-15853919D02*
X10564148Y-15863443D01*
X10564148Y-15863443D02*
X10535577Y-15863443D01*
X10716529Y-15863443D02*
X10697481Y-15853919D01*
X10697481Y-15853919D02*
X10687958Y-15834871D01*
X10687958Y-15834871D02*
X10687958Y-15663443D01*
X10868910Y-15853919D02*
X10849862Y-15863443D01*
X10849862Y-15863443D02*
X10811767Y-15863443D01*
X10811767Y-15863443D02*
X10792719Y-15853919D01*
X10792719Y-15853919D02*
X10783196Y-15834871D01*
X10783196Y-15834871D02*
X10783196Y-15758681D01*
X10783196Y-15758681D02*
X10792719Y-15739633D01*
X10792719Y-15739633D02*
X10811767Y-15730109D01*
X10811767Y-15730109D02*
X10849862Y-15730109D01*
X10849862Y-15730109D02*
X10868910Y-15739633D01*
X10868910Y-15739633D02*
X10878434Y-15758681D01*
X10878434Y-15758681D02*
X10878434Y-15777728D01*
X10878434Y-15777728D02*
X10783196Y-15796776D01*
X10954624Y-15853919D02*
X10973672Y-15863443D01*
X10973672Y-15863443D02*
X11011767Y-15863443D01*
X11011767Y-15863443D02*
X11030815Y-15853919D01*
X11030815Y-15853919D02*
X11040339Y-15834871D01*
X11040339Y-15834871D02*
X11040339Y-15825347D01*
X11040339Y-15825347D02*
X11030815Y-15806300D01*
X11030815Y-15806300D02*
X11011767Y-15796776D01*
X11011767Y-15796776D02*
X10983196Y-15796776D01*
X10983196Y-15796776D02*
X10964148Y-15787252D01*
X10964148Y-15787252D02*
X10954624Y-15768205D01*
X10954624Y-15768205D02*
X10954624Y-15758681D01*
X10954624Y-15758681D02*
X10964148Y-15739633D01*
X10964148Y-15739633D02*
X10983196Y-15730109D01*
X10983196Y-15730109D02*
X11011767Y-15730109D01*
X11011767Y-15730109D02*
X11030815Y-15739633D01*
X11107005Y-15939633D02*
X11116529Y-15930109D01*
X11116529Y-15930109D02*
X11135577Y-15901538D01*
X11135577Y-15901538D02*
X11145100Y-15882490D01*
X11145100Y-15882490D02*
X11154624Y-15853919D01*
X11154624Y-15853919D02*
X11164148Y-15806300D01*
X11164148Y-15806300D02*
X11164148Y-15768205D01*
X11164148Y-15768205D02*
X11154624Y-15720586D01*
X11154624Y-15720586D02*
X11145100Y-15692014D01*
X11145100Y-15692014D02*
X11135577Y-15672967D01*
X11135577Y-15672967D02*
X11116529Y-15644395D01*
X11116529Y-15644395D02*
X11107005Y-15634871D01*
D13*
X6132679Y-16057172D02*
X6132679Y-16014746D01*
X6090253Y-16014746D01*
X6090253Y-16057172D01*
X6132679Y-16057172D01*
D12*
X6440338Y-15927443D02*
X6459386Y-15927443D01*
X6459386Y-15927443D02*
X6478433Y-15936967D01*
X6478433Y-15936967D02*
X6487957Y-15946490D01*
X6487957Y-15946490D02*
X6497481Y-15965538D01*
X6497481Y-15965538D02*
X6507005Y-16003633D01*
X6507005Y-16003633D02*
X6507005Y-16051252D01*
X6507005Y-16051252D02*
X6497481Y-16089347D01*
X6497481Y-16089347D02*
X6487957Y-16108395D01*
X6487957Y-16108395D02*
X6478433Y-16117919D01*
X6478433Y-16117919D02*
X6459386Y-16127443D01*
X6459386Y-16127443D02*
X6440338Y-16127443D01*
X6440338Y-16127443D02*
X6421290Y-16117919D01*
X6421290Y-16117919D02*
X6411767Y-16108395D01*
X6411767Y-16108395D02*
X6402243Y-16089347D01*
X6402243Y-16089347D02*
X6392719Y-16051252D01*
X6392719Y-16051252D02*
X6392719Y-16003633D01*
X6392719Y-16003633D02*
X6402243Y-15965538D01*
X6402243Y-15965538D02*
X6411767Y-15946490D01*
X6411767Y-15946490D02*
X6421290Y-15936967D01*
X6421290Y-15936967D02*
X6440338Y-15927443D01*
X6592719Y-16108395D02*
X6602243Y-16117919D01*
X6602243Y-16117919D02*
X6592719Y-16127443D01*
X6592719Y-16127443D02*
X6583195Y-16117919D01*
X6583195Y-16117919D02*
X6592719Y-16108395D01*
X6592719Y-16108395D02*
X6592719Y-16127443D01*
X6773671Y-15927443D02*
X6735576Y-15927443D01*
X6735576Y-15927443D02*
X6716528Y-15936967D01*
X6716528Y-15936967D02*
X6707005Y-15946490D01*
X6707005Y-15946490D02*
X6687957Y-15975062D01*
X6687957Y-15975062D02*
X6678433Y-16013157D01*
X6678433Y-16013157D02*
X6678433Y-16089347D01*
X6678433Y-16089347D02*
X6687957Y-16108395D01*
X6687957Y-16108395D02*
X6697481Y-16117919D01*
X6697481Y-16117919D02*
X6716528Y-16127443D01*
X6716528Y-16127443D02*
X6754624Y-16127443D01*
X6754624Y-16127443D02*
X6773671Y-16117919D01*
X6773671Y-16117919D02*
X6783195Y-16108395D01*
X6783195Y-16108395D02*
X6792719Y-16089347D01*
X6792719Y-16089347D02*
X6792719Y-16041728D01*
X6792719Y-16041728D02*
X6783195Y-16022681D01*
X6783195Y-16022681D02*
X6773671Y-16013157D01*
X6773671Y-16013157D02*
X6754624Y-16003633D01*
X6754624Y-16003633D02*
X6716528Y-16003633D01*
X6716528Y-16003633D02*
X6697481Y-16013157D01*
X6697481Y-16013157D02*
X6687957Y-16022681D01*
X6687957Y-16022681D02*
X6678433Y-16041728D01*
X6916528Y-15927443D02*
X6935576Y-15927443D01*
X6935576Y-15927443D02*
X6954624Y-15936967D01*
X6954624Y-15936967D02*
X6964148Y-15946490D01*
X6964148Y-15946490D02*
X6973671Y-15965538D01*
X6973671Y-15965538D02*
X6983195Y-16003633D01*
X6983195Y-16003633D02*
X6983195Y-16051252D01*
X6983195Y-16051252D02*
X6973671Y-16089347D01*
X6973671Y-16089347D02*
X6964148Y-16108395D01*
X6964148Y-16108395D02*
X6954624Y-16117919D01*
X6954624Y-16117919D02*
X6935576Y-16127443D01*
X6935576Y-16127443D02*
X6916528Y-16127443D01*
X6916528Y-16127443D02*
X6897481Y-16117919D01*
X6897481Y-16117919D02*
X6887957Y-16108395D01*
X6887957Y-16108395D02*
X6878433Y-16089347D01*
X6878433Y-16089347D02*
X6868909Y-16051252D01*
X6868909Y-16051252D02*
X6868909Y-16003633D01*
X6868909Y-16003633D02*
X6878433Y-15965538D01*
X6878433Y-15965538D02*
X6887957Y-15946490D01*
X6887957Y-15946490D02*
X6897481Y-15936967D01*
X6897481Y-15936967D02*
X6916528Y-15927443D01*
X7107005Y-15927443D02*
X7126052Y-15927443D01*
X7126052Y-15927443D02*
X7145100Y-15936967D01*
X7145100Y-15936967D02*
X7154624Y-15946490D01*
X7154624Y-15946490D02*
X7164148Y-15965538D01*
X7164148Y-15965538D02*
X7173671Y-16003633D01*
X7173671Y-16003633D02*
X7173671Y-16051252D01*
X7173671Y-16051252D02*
X7164148Y-16089347D01*
X7164148Y-16089347D02*
X7154624Y-16108395D01*
X7154624Y-16108395D02*
X7145100Y-16117919D01*
X7145100Y-16117919D02*
X7126052Y-16127443D01*
X7126052Y-16127443D02*
X7107005Y-16127443D01*
X7107005Y-16127443D02*
X7087957Y-16117919D01*
X7087957Y-16117919D02*
X7078433Y-16108395D01*
X7078433Y-16108395D02*
X7068909Y-16089347D01*
X7068909Y-16089347D02*
X7059386Y-16051252D01*
X7059386Y-16051252D02*
X7059386Y-16003633D01*
X7059386Y-16003633D02*
X7068909Y-15965538D01*
X7068909Y-15965538D02*
X7078433Y-15946490D01*
X7078433Y-15946490D02*
X7087957Y-15936967D01*
X7087957Y-15936967D02*
X7107005Y-15927443D01*
X7259386Y-16127443D02*
X7259386Y-15994109D01*
X7259386Y-16013157D02*
X7268909Y-16003633D01*
X7268909Y-16003633D02*
X7287957Y-15994109D01*
X7287957Y-15994109D02*
X7316529Y-15994109D01*
X7316529Y-15994109D02*
X7335576Y-16003633D01*
X7335576Y-16003633D02*
X7345100Y-16022681D01*
X7345100Y-16022681D02*
X7345100Y-16127443D01*
X7345100Y-16022681D02*
X7354624Y-16003633D01*
X7354624Y-16003633D02*
X7373671Y-15994109D01*
X7373671Y-15994109D02*
X7402243Y-15994109D01*
X7402243Y-15994109D02*
X7421290Y-16003633D01*
X7421290Y-16003633D02*
X7430814Y-16022681D01*
X7430814Y-16022681D02*
X7430814Y-16127443D01*
X7526052Y-16127443D02*
X7526052Y-15994109D01*
X7526052Y-16013157D02*
X7535576Y-16003633D01*
X7535576Y-16003633D02*
X7554624Y-15994109D01*
X7554624Y-15994109D02*
X7583195Y-15994109D01*
X7583195Y-15994109D02*
X7602243Y-16003633D01*
X7602243Y-16003633D02*
X7611767Y-16022681D01*
X7611767Y-16022681D02*
X7611767Y-16127443D01*
X7611767Y-16022681D02*
X7621290Y-16003633D01*
X7621290Y-16003633D02*
X7640338Y-15994109D01*
X7640338Y-15994109D02*
X7668909Y-15994109D01*
X7668909Y-15994109D02*
X7687957Y-16003633D01*
X7687957Y-16003633D02*
X7697481Y-16022681D01*
X7697481Y-16022681D02*
X7697481Y-16127443D01*
X8087957Y-15917919D02*
X7916529Y-16175062D01*
X8345100Y-15927443D02*
X8364148Y-15927443D01*
X8364148Y-15927443D02*
X8383195Y-15936967D01*
X8383195Y-15936967D02*
X8392719Y-15946490D01*
X8392719Y-15946490D02*
X8402243Y-15965538D01*
X8402243Y-15965538D02*
X8411767Y-16003633D01*
X8411767Y-16003633D02*
X8411767Y-16051252D01*
X8411767Y-16051252D02*
X8402243Y-16089347D01*
X8402243Y-16089347D02*
X8392719Y-16108395D01*
X8392719Y-16108395D02*
X8383195Y-16117919D01*
X8383195Y-16117919D02*
X8364148Y-16127443D01*
X8364148Y-16127443D02*
X8345100Y-16127443D01*
X8345100Y-16127443D02*
X8326052Y-16117919D01*
X8326052Y-16117919D02*
X8316529Y-16108395D01*
X8316529Y-16108395D02*
X8307005Y-16089347D01*
X8307005Y-16089347D02*
X8297481Y-16051252D01*
X8297481Y-16051252D02*
X8297481Y-16003633D01*
X8297481Y-16003633D02*
X8307005Y-15965538D01*
X8307005Y-15965538D02*
X8316529Y-15946490D01*
X8316529Y-15946490D02*
X8326052Y-15936967D01*
X8326052Y-15936967D02*
X8345100Y-15927443D01*
X8497481Y-16108395D02*
X8507005Y-16117919D01*
X8507005Y-16117919D02*
X8497481Y-16127443D01*
X8497481Y-16127443D02*
X8487957Y-16117919D01*
X8487957Y-16117919D02*
X8497481Y-16108395D01*
X8497481Y-16108395D02*
X8497481Y-16127443D01*
X8630814Y-15927443D02*
X8649862Y-15927443D01*
X8649862Y-15927443D02*
X8668910Y-15936967D01*
X8668910Y-15936967D02*
X8678434Y-15946490D01*
X8678434Y-15946490D02*
X8687957Y-15965538D01*
X8687957Y-15965538D02*
X8697481Y-16003633D01*
X8697481Y-16003633D02*
X8697481Y-16051252D01*
X8697481Y-16051252D02*
X8687957Y-16089347D01*
X8687957Y-16089347D02*
X8678434Y-16108395D01*
X8678434Y-16108395D02*
X8668910Y-16117919D01*
X8668910Y-16117919D02*
X8649862Y-16127443D01*
X8649862Y-16127443D02*
X8630814Y-16127443D01*
X8630814Y-16127443D02*
X8611767Y-16117919D01*
X8611767Y-16117919D02*
X8602243Y-16108395D01*
X8602243Y-16108395D02*
X8592719Y-16089347D01*
X8592719Y-16089347D02*
X8583195Y-16051252D01*
X8583195Y-16051252D02*
X8583195Y-16003633D01*
X8583195Y-16003633D02*
X8592719Y-15965538D01*
X8592719Y-15965538D02*
X8602243Y-15946490D01*
X8602243Y-15946490D02*
X8611767Y-15936967D01*
X8611767Y-15936967D02*
X8630814Y-15927443D01*
X8773672Y-15946490D02*
X8783195Y-15936967D01*
X8783195Y-15936967D02*
X8802243Y-15927443D01*
X8802243Y-15927443D02*
X8849862Y-15927443D01*
X8849862Y-15927443D02*
X8868910Y-15936967D01*
X8868910Y-15936967D02*
X8878434Y-15946490D01*
X8878434Y-15946490D02*
X8887957Y-15965538D01*
X8887957Y-15965538D02*
X8887957Y-15984586D01*
X8887957Y-15984586D02*
X8878434Y-16013157D01*
X8878434Y-16013157D02*
X8764148Y-16127443D01*
X8764148Y-16127443D02*
X8887957Y-16127443D01*
X8954624Y-15927443D02*
X9078434Y-15927443D01*
X9078434Y-15927443D02*
X9011767Y-16003633D01*
X9011767Y-16003633D02*
X9040338Y-16003633D01*
X9040338Y-16003633D02*
X9059386Y-16013157D01*
X9059386Y-16013157D02*
X9068910Y-16022681D01*
X9068910Y-16022681D02*
X9078434Y-16041728D01*
X9078434Y-16041728D02*
X9078434Y-16089347D01*
X9078434Y-16089347D02*
X9068910Y-16108395D01*
X9068910Y-16108395D02*
X9059386Y-16117919D01*
X9059386Y-16117919D02*
X9040338Y-16127443D01*
X9040338Y-16127443D02*
X8983195Y-16127443D01*
X8983195Y-16127443D02*
X8964148Y-16117919D01*
X8964148Y-16117919D02*
X8954624Y-16108395D01*
X9249862Y-15927443D02*
X9211767Y-15927443D01*
X9211767Y-15927443D02*
X9192719Y-15936967D01*
X9192719Y-15936967D02*
X9183195Y-15946490D01*
X9183195Y-15946490D02*
X9164148Y-15975062D01*
X9164148Y-15975062D02*
X9154624Y-16013157D01*
X9154624Y-16013157D02*
X9154624Y-16089347D01*
X9154624Y-16089347D02*
X9164148Y-16108395D01*
X9164148Y-16108395D02*
X9173672Y-16117919D01*
X9173672Y-16117919D02*
X9192719Y-16127443D01*
X9192719Y-16127443D02*
X9230815Y-16127443D01*
X9230815Y-16127443D02*
X9249862Y-16117919D01*
X9249862Y-16117919D02*
X9259386Y-16108395D01*
X9259386Y-16108395D02*
X9268910Y-16089347D01*
X9268910Y-16089347D02*
X9268910Y-16041728D01*
X9268910Y-16041728D02*
X9259386Y-16022681D01*
X9259386Y-16022681D02*
X9249862Y-16013157D01*
X9249862Y-16013157D02*
X9230815Y-16003633D01*
X9230815Y-16003633D02*
X9192719Y-16003633D01*
X9192719Y-16003633D02*
X9173672Y-16013157D01*
X9173672Y-16013157D02*
X9164148Y-16022681D01*
X9164148Y-16022681D02*
X9154624Y-16041728D01*
X9345100Y-15927443D02*
X9345100Y-15965538D01*
X9421291Y-15927443D02*
X9421291Y-15965538D01*
X9716529Y-16203633D02*
X9707005Y-16194109D01*
X9707005Y-16194109D02*
X9687957Y-16165538D01*
X9687957Y-16165538D02*
X9678434Y-16146490D01*
X9678434Y-16146490D02*
X9668910Y-16117919D01*
X9668910Y-16117919D02*
X9659386Y-16070300D01*
X9659386Y-16070300D02*
X9659386Y-16032205D01*
X9659386Y-16032205D02*
X9668910Y-15984586D01*
X9668910Y-15984586D02*
X9678434Y-15956014D01*
X9678434Y-15956014D02*
X9687957Y-15936967D01*
X9687957Y-15936967D02*
X9707005Y-15908395D01*
X9707005Y-15908395D02*
X9716529Y-15898871D01*
X9830815Y-15927443D02*
X9849862Y-15927443D01*
X9849862Y-15927443D02*
X9868910Y-15936967D01*
X9868910Y-15936967D02*
X9878434Y-15946490D01*
X9878434Y-15946490D02*
X9887957Y-15965538D01*
X9887957Y-15965538D02*
X9897481Y-16003633D01*
X9897481Y-16003633D02*
X9897481Y-16051252D01*
X9897481Y-16051252D02*
X9887957Y-16089347D01*
X9887957Y-16089347D02*
X9878434Y-16108395D01*
X9878434Y-16108395D02*
X9868910Y-16117919D01*
X9868910Y-16117919D02*
X9849862Y-16127443D01*
X9849862Y-16127443D02*
X9830815Y-16127443D01*
X9830815Y-16127443D02*
X9811767Y-16117919D01*
X9811767Y-16117919D02*
X9802243Y-16108395D01*
X9802243Y-16108395D02*
X9792719Y-16089347D01*
X9792719Y-16089347D02*
X9783196Y-16051252D01*
X9783196Y-16051252D02*
X9783196Y-16003633D01*
X9783196Y-16003633D02*
X9792719Y-15965538D01*
X9792719Y-15965538D02*
X9802243Y-15946490D01*
X9802243Y-15946490D02*
X9811767Y-15936967D01*
X9811767Y-15936967D02*
X9830815Y-15927443D01*
X10135577Y-16127443D02*
X10135577Y-15927443D01*
X10221291Y-16127443D02*
X10221291Y-16022681D01*
X10221291Y-16022681D02*
X10211767Y-16003633D01*
X10211767Y-16003633D02*
X10192719Y-15994109D01*
X10192719Y-15994109D02*
X10164148Y-15994109D01*
X10164148Y-15994109D02*
X10145100Y-16003633D01*
X10145100Y-16003633D02*
X10135577Y-16013157D01*
X10345100Y-16127443D02*
X10326053Y-16117919D01*
X10326053Y-16117919D02*
X10316529Y-16108395D01*
X10316529Y-16108395D02*
X10307005Y-16089347D01*
X10307005Y-16089347D02*
X10307005Y-16032205D01*
X10307005Y-16032205D02*
X10316529Y-16013157D01*
X10316529Y-16013157D02*
X10326053Y-16003633D01*
X10326053Y-16003633D02*
X10345100Y-15994109D01*
X10345100Y-15994109D02*
X10373672Y-15994109D01*
X10373672Y-15994109D02*
X10392719Y-16003633D01*
X10392719Y-16003633D02*
X10402243Y-16013157D01*
X10402243Y-16013157D02*
X10411767Y-16032205D01*
X10411767Y-16032205D02*
X10411767Y-16089347D01*
X10411767Y-16089347D02*
X10402243Y-16108395D01*
X10402243Y-16108395D02*
X10392719Y-16117919D01*
X10392719Y-16117919D02*
X10373672Y-16127443D01*
X10373672Y-16127443D02*
X10345100Y-16127443D01*
X10526053Y-16127443D02*
X10507005Y-16117919D01*
X10507005Y-16117919D02*
X10497481Y-16098871D01*
X10497481Y-16098871D02*
X10497481Y-15927443D01*
X10678434Y-16117919D02*
X10659386Y-16127443D01*
X10659386Y-16127443D02*
X10621291Y-16127443D01*
X10621291Y-16127443D02*
X10602243Y-16117919D01*
X10602243Y-16117919D02*
X10592719Y-16098871D01*
X10592719Y-16098871D02*
X10592719Y-16022681D01*
X10592719Y-16022681D02*
X10602243Y-16003633D01*
X10602243Y-16003633D02*
X10621291Y-15994109D01*
X10621291Y-15994109D02*
X10659386Y-15994109D01*
X10659386Y-15994109D02*
X10678434Y-16003633D01*
X10678434Y-16003633D02*
X10687958Y-16022681D01*
X10687958Y-16022681D02*
X10687958Y-16041728D01*
X10687958Y-16041728D02*
X10592719Y-16060776D01*
X10764148Y-16117919D02*
X10783196Y-16127443D01*
X10783196Y-16127443D02*
X10821291Y-16127443D01*
X10821291Y-16127443D02*
X10840339Y-16117919D01*
X10840339Y-16117919D02*
X10849862Y-16098871D01*
X10849862Y-16098871D02*
X10849862Y-16089347D01*
X10849862Y-16089347D02*
X10840339Y-16070300D01*
X10840339Y-16070300D02*
X10821291Y-16060776D01*
X10821291Y-16060776D02*
X10792719Y-16060776D01*
X10792719Y-16060776D02*
X10773672Y-16051252D01*
X10773672Y-16051252D02*
X10764148Y-16032205D01*
X10764148Y-16032205D02*
X10764148Y-16022681D01*
X10764148Y-16022681D02*
X10773672Y-16003633D01*
X10773672Y-16003633D02*
X10792719Y-15994109D01*
X10792719Y-15994109D02*
X10821291Y-15994109D01*
X10821291Y-15994109D02*
X10840339Y-16003633D01*
X11087958Y-16051252D02*
X11240339Y-16051252D01*
X11164148Y-16127443D02*
X11164148Y-15975062D01*
X11573672Y-15994109D02*
X11573672Y-16127443D01*
X11526053Y-15917919D02*
X11478434Y-16060776D01*
X11478434Y-16060776D02*
X11602243Y-16060776D01*
X11821291Y-16117919D02*
X11840339Y-16127443D01*
X11840339Y-16127443D02*
X11878434Y-16127443D01*
X11878434Y-16127443D02*
X11897481Y-16117919D01*
X11897481Y-16117919D02*
X11907005Y-16098871D01*
X11907005Y-16098871D02*
X11907005Y-16089347D01*
X11907005Y-16089347D02*
X11897481Y-16070300D01*
X11897481Y-16070300D02*
X11878434Y-16060776D01*
X11878434Y-16060776D02*
X11849862Y-16060776D01*
X11849862Y-16060776D02*
X11830815Y-16051252D01*
X11830815Y-16051252D02*
X11821291Y-16032205D01*
X11821291Y-16032205D02*
X11821291Y-16022681D01*
X11821291Y-16022681D02*
X11830815Y-16003633D01*
X11830815Y-16003633D02*
X11849862Y-15994109D01*
X11849862Y-15994109D02*
X11878434Y-15994109D01*
X11878434Y-15994109D02*
X11897481Y-16003633D01*
X12021291Y-16127443D02*
X12002243Y-16117919D01*
X12002243Y-16117919D02*
X11992720Y-16098871D01*
X11992720Y-16098871D02*
X11992720Y-15927443D01*
X12126053Y-16127443D02*
X12107005Y-16117919D01*
X12107005Y-16117919D02*
X12097481Y-16108395D01*
X12097481Y-16108395D02*
X12087958Y-16089347D01*
X12087958Y-16089347D02*
X12087958Y-16032205D01*
X12087958Y-16032205D02*
X12097481Y-16013157D01*
X12097481Y-16013157D02*
X12107005Y-16003633D01*
X12107005Y-16003633D02*
X12126053Y-15994109D01*
X12126053Y-15994109D02*
X12154624Y-15994109D01*
X12154624Y-15994109D02*
X12173672Y-16003633D01*
X12173672Y-16003633D02*
X12183196Y-16013157D01*
X12183196Y-16013157D02*
X12192720Y-16032205D01*
X12192720Y-16032205D02*
X12192720Y-16089347D01*
X12192720Y-16089347D02*
X12183196Y-16108395D01*
X12183196Y-16108395D02*
X12173672Y-16117919D01*
X12173672Y-16117919D02*
X12154624Y-16127443D01*
X12154624Y-16127443D02*
X12126053Y-16127443D01*
X12249862Y-15994109D02*
X12326053Y-15994109D01*
X12278434Y-15927443D02*
X12278434Y-16098871D01*
X12278434Y-16098871D02*
X12287958Y-16117919D01*
X12287958Y-16117919D02*
X12307005Y-16127443D01*
X12307005Y-16127443D02*
X12326053Y-16127443D01*
X12383196Y-16117919D02*
X12402243Y-16127443D01*
X12402243Y-16127443D02*
X12440339Y-16127443D01*
X12440339Y-16127443D02*
X12459386Y-16117919D01*
X12459386Y-16117919D02*
X12468910Y-16098871D01*
X12468910Y-16098871D02*
X12468910Y-16089347D01*
X12468910Y-16089347D02*
X12459386Y-16070300D01*
X12459386Y-16070300D02*
X12440339Y-16060776D01*
X12440339Y-16060776D02*
X12411767Y-16060776D01*
X12411767Y-16060776D02*
X12392720Y-16051252D01*
X12392720Y-16051252D02*
X12383196Y-16032205D01*
X12383196Y-16032205D02*
X12383196Y-16022681D01*
X12383196Y-16022681D02*
X12392720Y-16003633D01*
X12392720Y-16003633D02*
X12411767Y-15994109D01*
X12411767Y-15994109D02*
X12440339Y-15994109D01*
X12440339Y-15994109D02*
X12459386Y-16003633D01*
X12535577Y-16203633D02*
X12545101Y-16194109D01*
X12545101Y-16194109D02*
X12564148Y-16165538D01*
X12564148Y-16165538D02*
X12573672Y-16146490D01*
X12573672Y-16146490D02*
X12583196Y-16117919D01*
X12583196Y-16117919D02*
X12592720Y-16070300D01*
X12592720Y-16070300D02*
X12592720Y-16032205D01*
X12592720Y-16032205D02*
X12583196Y-15984586D01*
X12583196Y-15984586D02*
X12573672Y-15956014D01*
X12573672Y-15956014D02*
X12564148Y-15936967D01*
X12564148Y-15936967D02*
X12545101Y-15908395D01*
X12545101Y-15908395D02*
X12535577Y-15898871D01*
D13*
X6091466Y-16349959D02*
X6141466Y-16299959D01*
X6091466Y-16249959D01*
X6041466Y-16299959D01*
X6091466Y-16349959D01*
D12*
X6507005Y-16391443D02*
X6392719Y-16391443D01*
X6449862Y-16391443D02*
X6449862Y-16191443D01*
X6449862Y-16191443D02*
X6430814Y-16220014D01*
X6430814Y-16220014D02*
X6411767Y-16239062D01*
X6411767Y-16239062D02*
X6392719Y-16248586D01*
X6592719Y-16372395D02*
X6602243Y-16381919D01*
X6602243Y-16381919D02*
X6592719Y-16391443D01*
X6592719Y-16391443D02*
X6583195Y-16381919D01*
X6583195Y-16381919D02*
X6592719Y-16372395D01*
X6592719Y-16372395D02*
X6592719Y-16391443D01*
X6726052Y-16191443D02*
X6745100Y-16191443D01*
X6745100Y-16191443D02*
X6764148Y-16200967D01*
X6764148Y-16200967D02*
X6773671Y-16210490D01*
X6773671Y-16210490D02*
X6783195Y-16229538D01*
X6783195Y-16229538D02*
X6792719Y-16267633D01*
X6792719Y-16267633D02*
X6792719Y-16315252D01*
X6792719Y-16315252D02*
X6783195Y-16353347D01*
X6783195Y-16353347D02*
X6773671Y-16372395D01*
X6773671Y-16372395D02*
X6764148Y-16381919D01*
X6764148Y-16381919D02*
X6745100Y-16391443D01*
X6745100Y-16391443D02*
X6726052Y-16391443D01*
X6726052Y-16391443D02*
X6707005Y-16381919D01*
X6707005Y-16381919D02*
X6697481Y-16372395D01*
X6697481Y-16372395D02*
X6687957Y-16353347D01*
X6687957Y-16353347D02*
X6678433Y-16315252D01*
X6678433Y-16315252D02*
X6678433Y-16267633D01*
X6678433Y-16267633D02*
X6687957Y-16229538D01*
X6687957Y-16229538D02*
X6697481Y-16210490D01*
X6697481Y-16210490D02*
X6707005Y-16200967D01*
X6707005Y-16200967D02*
X6726052Y-16191443D01*
X6916528Y-16191443D02*
X6935576Y-16191443D01*
X6935576Y-16191443D02*
X6954624Y-16200967D01*
X6954624Y-16200967D02*
X6964148Y-16210490D01*
X6964148Y-16210490D02*
X6973671Y-16229538D01*
X6973671Y-16229538D02*
X6983195Y-16267633D01*
X6983195Y-16267633D02*
X6983195Y-16315252D01*
X6983195Y-16315252D02*
X6973671Y-16353347D01*
X6973671Y-16353347D02*
X6964148Y-16372395D01*
X6964148Y-16372395D02*
X6954624Y-16381919D01*
X6954624Y-16381919D02*
X6935576Y-16391443D01*
X6935576Y-16391443D02*
X6916528Y-16391443D01*
X6916528Y-16391443D02*
X6897481Y-16381919D01*
X6897481Y-16381919D02*
X6887957Y-16372395D01*
X6887957Y-16372395D02*
X6878433Y-16353347D01*
X6878433Y-16353347D02*
X6868909Y-16315252D01*
X6868909Y-16315252D02*
X6868909Y-16267633D01*
X6868909Y-16267633D02*
X6878433Y-16229538D01*
X6878433Y-16229538D02*
X6887957Y-16210490D01*
X6887957Y-16210490D02*
X6897481Y-16200967D01*
X6897481Y-16200967D02*
X6916528Y-16191443D01*
X7107005Y-16191443D02*
X7126052Y-16191443D01*
X7126052Y-16191443D02*
X7145100Y-16200967D01*
X7145100Y-16200967D02*
X7154624Y-16210490D01*
X7154624Y-16210490D02*
X7164148Y-16229538D01*
X7164148Y-16229538D02*
X7173671Y-16267633D01*
X7173671Y-16267633D02*
X7173671Y-16315252D01*
X7173671Y-16315252D02*
X7164148Y-16353347D01*
X7164148Y-16353347D02*
X7154624Y-16372395D01*
X7154624Y-16372395D02*
X7145100Y-16381919D01*
X7145100Y-16381919D02*
X7126052Y-16391443D01*
X7126052Y-16391443D02*
X7107005Y-16391443D01*
X7107005Y-16391443D02*
X7087957Y-16381919D01*
X7087957Y-16381919D02*
X7078433Y-16372395D01*
X7078433Y-16372395D02*
X7068909Y-16353347D01*
X7068909Y-16353347D02*
X7059386Y-16315252D01*
X7059386Y-16315252D02*
X7059386Y-16267633D01*
X7059386Y-16267633D02*
X7068909Y-16229538D01*
X7068909Y-16229538D02*
X7078433Y-16210490D01*
X7078433Y-16210490D02*
X7087957Y-16200967D01*
X7087957Y-16200967D02*
X7107005Y-16191443D01*
X7259386Y-16391443D02*
X7259386Y-16258109D01*
X7259386Y-16277157D02*
X7268909Y-16267633D01*
X7268909Y-16267633D02*
X7287957Y-16258109D01*
X7287957Y-16258109D02*
X7316529Y-16258109D01*
X7316529Y-16258109D02*
X7335576Y-16267633D01*
X7335576Y-16267633D02*
X7345100Y-16286681D01*
X7345100Y-16286681D02*
X7345100Y-16391443D01*
X7345100Y-16286681D02*
X7354624Y-16267633D01*
X7354624Y-16267633D02*
X7373671Y-16258109D01*
X7373671Y-16258109D02*
X7402243Y-16258109D01*
X7402243Y-16258109D02*
X7421290Y-16267633D01*
X7421290Y-16267633D02*
X7430814Y-16286681D01*
X7430814Y-16286681D02*
X7430814Y-16391443D01*
X7526052Y-16391443D02*
X7526052Y-16258109D01*
X7526052Y-16277157D02*
X7535576Y-16267633D01*
X7535576Y-16267633D02*
X7554624Y-16258109D01*
X7554624Y-16258109D02*
X7583195Y-16258109D01*
X7583195Y-16258109D02*
X7602243Y-16267633D01*
X7602243Y-16267633D02*
X7611767Y-16286681D01*
X7611767Y-16286681D02*
X7611767Y-16391443D01*
X7611767Y-16286681D02*
X7621290Y-16267633D01*
X7621290Y-16267633D02*
X7640338Y-16258109D01*
X7640338Y-16258109D02*
X7668909Y-16258109D01*
X7668909Y-16258109D02*
X7687957Y-16267633D01*
X7687957Y-16267633D02*
X7697481Y-16286681D01*
X7697481Y-16286681D02*
X7697481Y-16391443D01*
X8087957Y-16181919D02*
X7916529Y-16439062D01*
X8345100Y-16191443D02*
X8364148Y-16191443D01*
X8364148Y-16191443D02*
X8383195Y-16200967D01*
X8383195Y-16200967D02*
X8392719Y-16210490D01*
X8392719Y-16210490D02*
X8402243Y-16229538D01*
X8402243Y-16229538D02*
X8411767Y-16267633D01*
X8411767Y-16267633D02*
X8411767Y-16315252D01*
X8411767Y-16315252D02*
X8402243Y-16353347D01*
X8402243Y-16353347D02*
X8392719Y-16372395D01*
X8392719Y-16372395D02*
X8383195Y-16381919D01*
X8383195Y-16381919D02*
X8364148Y-16391443D01*
X8364148Y-16391443D02*
X8345100Y-16391443D01*
X8345100Y-16391443D02*
X8326052Y-16381919D01*
X8326052Y-16381919D02*
X8316529Y-16372395D01*
X8316529Y-16372395D02*
X8307005Y-16353347D01*
X8307005Y-16353347D02*
X8297481Y-16315252D01*
X8297481Y-16315252D02*
X8297481Y-16267633D01*
X8297481Y-16267633D02*
X8307005Y-16229538D01*
X8307005Y-16229538D02*
X8316529Y-16210490D01*
X8316529Y-16210490D02*
X8326052Y-16200967D01*
X8326052Y-16200967D02*
X8345100Y-16191443D01*
X8497481Y-16372395D02*
X8507005Y-16381919D01*
X8507005Y-16381919D02*
X8497481Y-16391443D01*
X8497481Y-16391443D02*
X8487957Y-16381919D01*
X8487957Y-16381919D02*
X8497481Y-16372395D01*
X8497481Y-16372395D02*
X8497481Y-16391443D01*
X8630814Y-16191443D02*
X8649862Y-16191443D01*
X8649862Y-16191443D02*
X8668910Y-16200967D01*
X8668910Y-16200967D02*
X8678434Y-16210490D01*
X8678434Y-16210490D02*
X8687957Y-16229538D01*
X8687957Y-16229538D02*
X8697481Y-16267633D01*
X8697481Y-16267633D02*
X8697481Y-16315252D01*
X8697481Y-16315252D02*
X8687957Y-16353347D01*
X8687957Y-16353347D02*
X8678434Y-16372395D01*
X8678434Y-16372395D02*
X8668910Y-16381919D01*
X8668910Y-16381919D02*
X8649862Y-16391443D01*
X8649862Y-16391443D02*
X8630814Y-16391443D01*
X8630814Y-16391443D02*
X8611767Y-16381919D01*
X8611767Y-16381919D02*
X8602243Y-16372395D01*
X8602243Y-16372395D02*
X8592719Y-16353347D01*
X8592719Y-16353347D02*
X8583195Y-16315252D01*
X8583195Y-16315252D02*
X8583195Y-16267633D01*
X8583195Y-16267633D02*
X8592719Y-16229538D01*
X8592719Y-16229538D02*
X8602243Y-16210490D01*
X8602243Y-16210490D02*
X8611767Y-16200967D01*
X8611767Y-16200967D02*
X8630814Y-16191443D01*
X8764148Y-16191443D02*
X8887957Y-16191443D01*
X8887957Y-16191443D02*
X8821291Y-16267633D01*
X8821291Y-16267633D02*
X8849862Y-16267633D01*
X8849862Y-16267633D02*
X8868910Y-16277157D01*
X8868910Y-16277157D02*
X8878434Y-16286681D01*
X8878434Y-16286681D02*
X8887957Y-16305728D01*
X8887957Y-16305728D02*
X8887957Y-16353347D01*
X8887957Y-16353347D02*
X8878434Y-16372395D01*
X8878434Y-16372395D02*
X8868910Y-16381919D01*
X8868910Y-16381919D02*
X8849862Y-16391443D01*
X8849862Y-16391443D02*
X8792719Y-16391443D01*
X8792719Y-16391443D02*
X8773672Y-16381919D01*
X8773672Y-16381919D02*
X8764148Y-16372395D01*
X8983195Y-16391443D02*
X9021291Y-16391443D01*
X9021291Y-16391443D02*
X9040338Y-16381919D01*
X9040338Y-16381919D02*
X9049862Y-16372395D01*
X9049862Y-16372395D02*
X9068910Y-16343824D01*
X9068910Y-16343824D02*
X9078434Y-16305728D01*
X9078434Y-16305728D02*
X9078434Y-16229538D01*
X9078434Y-16229538D02*
X9068910Y-16210490D01*
X9068910Y-16210490D02*
X9059386Y-16200967D01*
X9059386Y-16200967D02*
X9040338Y-16191443D01*
X9040338Y-16191443D02*
X9002243Y-16191443D01*
X9002243Y-16191443D02*
X8983195Y-16200967D01*
X8983195Y-16200967D02*
X8973672Y-16210490D01*
X8973672Y-16210490D02*
X8964148Y-16229538D01*
X8964148Y-16229538D02*
X8964148Y-16277157D01*
X8964148Y-16277157D02*
X8973672Y-16296205D01*
X8973672Y-16296205D02*
X8983195Y-16305728D01*
X8983195Y-16305728D02*
X9002243Y-16315252D01*
X9002243Y-16315252D02*
X9040338Y-16315252D01*
X9040338Y-16315252D02*
X9059386Y-16305728D01*
X9059386Y-16305728D02*
X9068910Y-16296205D01*
X9068910Y-16296205D02*
X9078434Y-16277157D01*
X9249862Y-16258109D02*
X9249862Y-16391443D01*
X9202243Y-16181919D02*
X9154624Y-16324776D01*
X9154624Y-16324776D02*
X9278434Y-16324776D01*
X9345100Y-16191443D02*
X9345100Y-16229538D01*
X9421291Y-16191443D02*
X9421291Y-16229538D01*
X9716529Y-16467633D02*
X9707005Y-16458109D01*
X9707005Y-16458109D02*
X9687957Y-16429538D01*
X9687957Y-16429538D02*
X9678434Y-16410490D01*
X9678434Y-16410490D02*
X9668910Y-16381919D01*
X9668910Y-16381919D02*
X9659386Y-16334300D01*
X9659386Y-16334300D02*
X9659386Y-16296205D01*
X9659386Y-16296205D02*
X9668910Y-16248586D01*
X9668910Y-16248586D02*
X9678434Y-16220014D01*
X9678434Y-16220014D02*
X9687957Y-16200967D01*
X9687957Y-16200967D02*
X9707005Y-16172395D01*
X9707005Y-16172395D02*
X9716529Y-16162871D01*
X9897481Y-16391443D02*
X9783196Y-16391443D01*
X9840338Y-16391443D02*
X9840338Y-16191443D01*
X9840338Y-16191443D02*
X9821291Y-16220014D01*
X9821291Y-16220014D02*
X9802243Y-16239062D01*
X9802243Y-16239062D02*
X9783196Y-16248586D01*
X10068910Y-16258109D02*
X10068910Y-16391443D01*
X10021291Y-16181919D02*
X9973672Y-16324776D01*
X9973672Y-16324776D02*
X10097481Y-16324776D01*
X10326053Y-16391443D02*
X10326053Y-16191443D01*
X10411767Y-16391443D02*
X10411767Y-16286681D01*
X10411767Y-16286681D02*
X10402243Y-16267633D01*
X10402243Y-16267633D02*
X10383196Y-16258109D01*
X10383196Y-16258109D02*
X10354624Y-16258109D01*
X10354624Y-16258109D02*
X10335577Y-16267633D01*
X10335577Y-16267633D02*
X10326053Y-16277157D01*
X10535577Y-16391443D02*
X10516529Y-16381919D01*
X10516529Y-16381919D02*
X10507005Y-16372395D01*
X10507005Y-16372395D02*
X10497481Y-16353347D01*
X10497481Y-16353347D02*
X10497481Y-16296205D01*
X10497481Y-16296205D02*
X10507005Y-16277157D01*
X10507005Y-16277157D02*
X10516529Y-16267633D01*
X10516529Y-16267633D02*
X10535577Y-16258109D01*
X10535577Y-16258109D02*
X10564148Y-16258109D01*
X10564148Y-16258109D02*
X10583196Y-16267633D01*
X10583196Y-16267633D02*
X10592719Y-16277157D01*
X10592719Y-16277157D02*
X10602243Y-16296205D01*
X10602243Y-16296205D02*
X10602243Y-16353347D01*
X10602243Y-16353347D02*
X10592719Y-16372395D01*
X10592719Y-16372395D02*
X10583196Y-16381919D01*
X10583196Y-16381919D02*
X10564148Y-16391443D01*
X10564148Y-16391443D02*
X10535577Y-16391443D01*
X10716529Y-16391443D02*
X10697481Y-16381919D01*
X10697481Y-16381919D02*
X10687958Y-16362871D01*
X10687958Y-16362871D02*
X10687958Y-16191443D01*
X10868910Y-16381919D02*
X10849862Y-16391443D01*
X10849862Y-16391443D02*
X10811767Y-16391443D01*
X10811767Y-16391443D02*
X10792719Y-16381919D01*
X10792719Y-16381919D02*
X10783196Y-16362871D01*
X10783196Y-16362871D02*
X10783196Y-16286681D01*
X10783196Y-16286681D02*
X10792719Y-16267633D01*
X10792719Y-16267633D02*
X10811767Y-16258109D01*
X10811767Y-16258109D02*
X10849862Y-16258109D01*
X10849862Y-16258109D02*
X10868910Y-16267633D01*
X10868910Y-16267633D02*
X10878434Y-16286681D01*
X10878434Y-16286681D02*
X10878434Y-16305728D01*
X10878434Y-16305728D02*
X10783196Y-16324776D01*
X10954624Y-16381919D02*
X10973672Y-16391443D01*
X10973672Y-16391443D02*
X11011767Y-16391443D01*
X11011767Y-16391443D02*
X11030815Y-16381919D01*
X11030815Y-16381919D02*
X11040339Y-16362871D01*
X11040339Y-16362871D02*
X11040339Y-16353347D01*
X11040339Y-16353347D02*
X11030815Y-16334300D01*
X11030815Y-16334300D02*
X11011767Y-16324776D01*
X11011767Y-16324776D02*
X10983196Y-16324776D01*
X10983196Y-16324776D02*
X10964148Y-16315252D01*
X10964148Y-16315252D02*
X10954624Y-16296205D01*
X10954624Y-16296205D02*
X10954624Y-16286681D01*
X10954624Y-16286681D02*
X10964148Y-16267633D01*
X10964148Y-16267633D02*
X10983196Y-16258109D01*
X10983196Y-16258109D02*
X11011767Y-16258109D01*
X11011767Y-16258109D02*
X11030815Y-16267633D01*
X11107005Y-16467633D02*
X11116529Y-16458109D01*
X11116529Y-16458109D02*
X11135577Y-16429538D01*
X11135577Y-16429538D02*
X11145100Y-16410490D01*
X11145100Y-16410490D02*
X11154624Y-16381919D01*
X11154624Y-16381919D02*
X11164148Y-16334300D01*
X11164148Y-16334300D02*
X11164148Y-16296205D01*
X11164148Y-16296205D02*
X11154624Y-16248586D01*
X11154624Y-16248586D02*
X11145100Y-16220014D01*
X11145100Y-16220014D02*
X11135577Y-16200967D01*
X11135577Y-16200967D02*
X11116529Y-16172395D01*
X11116529Y-16172395D02*
X11107005Y-16162871D01*
M02*
