%TF.GenerationSoftware,KiCad,Pcbnew,9.0.4*%
%TF.CreationDate,2025-09-22T18:44:03+02:00*%
%TF.ProjectId,esp32_mine,65737033-325f-46d6-996e-652e6b696361,rev?*%
%TF.SameCoordinates,Original*%
%TF.FileFunction,Drillmap*%
%TF.FilePolarity,Positive*%
%FSLAX45Y45*%
G04 Gerber Fmt 4.5, Leading zero omitted, Abs format (unit mm)*
G04 Created by KiCad (PCBNEW 9.0.4) date 2025-09-22 18:44:03*
%MOMM*%
%LPD*%
G01*
G04 APERTURE LIST*
%ADD10C,0.025400*%
%ADD11C,0.050000*%
%ADD12C,0.200000*%
%ADD13C,0.100000*%
G04 APERTURE END LIST*
D10*
X14381328Y-9159215D02*
G75*
G02*
X14331315Y-9109202I2J50015D01*
G01*
X8145577Y-10436175D02*
X8145577Y-9836176D01*
X7034327Y-6046216D02*
G75*
G02*
X6300199Y-5304356I-91587J643536D01*
G01*
X6384138Y-9159215D02*
G75*
G02*
X6334125Y-9109202I2J50015D01*
G01*
X14486331Y-9029218D02*
X14486331Y-8834197D01*
X7613218Y-10471176D02*
G75*
G02*
X7663205Y-10421188I49992J-4D01*
G01*
X7954162Y-10096170D02*
X7954162Y-10126168D01*
X6572199Y-14602689D02*
X6673317Y-14501572D01*
X7361199Y-5266716D02*
G75*
G02*
X7077967Y-4983980I-418465J-135966D01*
G01*
X9516694Y-7352691D02*
X7650277Y-5672151D01*
X15016183Y-7815756D02*
G75*
G02*
X14777376Y-7491839I-3J249987D01*
G01*
X15985439Y-5305502D02*
G75*
G02*
X15250033Y-6046039I-642699J-97178D01*
G01*
X14924176Y-5266970D02*
X14764004Y-5106797D01*
X6489141Y-10176180D02*
X6384138Y-10176180D01*
X7342022Y-6619444D02*
X6946265Y-6619444D01*
X15612161Y-4703801D02*
G75*
G02*
X15440483Y-4760078I-141421J141421D01*
G01*
X15262281Y-11386415D02*
G75*
G02*
X15501086Y-11710331I-11J-249995D01*
G01*
X7799146Y-10176180D02*
X7799146Y-10371176D01*
X14807921Y-13174091D02*
G75*
G02*
X14806093Y-13209346I-18631J-16709D01*
G01*
X14699386Y-5495392D02*
G75*
G02*
X14635212Y-5672163I-198016J-28148D01*
G01*
X14139901Y-9836176D02*
G75*
G02*
X14189913Y-9786161I50019J-4D01*
G01*
X7913218Y-8141894D02*
X7913218Y-7795438D01*
X7913218Y-11409934D02*
G75*
G02*
X7899805Y-11498638I-300048J4D01*
G01*
X14656867Y-6830746D02*
G75*
G02*
X14943430Y-6619465I286563J-88694D01*
G01*
X6384138Y-10046183D02*
X6449162Y-10046183D01*
X6192749Y-9419209D02*
X6249162Y-9419209D01*
X7628611Y-12374652D02*
X7899781Y-11498631D01*
X15746324Y-10421163D02*
X15660370Y-10421163D01*
X7861111Y-6377262D02*
G75*
G02*
X7825862Y-6379083I-18541J16822D01*
G01*
X14372260Y-7795438D02*
X14372260Y-8141894D01*
X7899781Y-7706741D02*
G75*
G02*
X7913192Y-7795438I-286541J-88689D01*
G01*
X7919500Y-6285428D02*
G75*
G02*
X7917662Y-6320699I-18650J-16712D01*
G01*
X7917314Y-12884314D02*
X7860613Y-12827603D01*
X15250414Y-13159283D02*
G75*
G02*
X15073262Y-13095158I-28524J197963D01*
G01*
X6375095Y-8669198D02*
G75*
G02*
X6325083Y-8719205I-50005J-2D01*
G01*
X15960369Y-10486162D02*
X16092729Y-10486162D01*
X15339212Y-6619444D02*
G75*
G02*
X15625820Y-6830732I-2J-300036D01*
G01*
X16142741Y-14173226D02*
X16041624Y-14072108D01*
X6196762Y-14456715D02*
X6314084Y-14339393D01*
X15942742Y-14602689D02*
X15996768Y-14548663D01*
X15262281Y-11386415D02*
X15017281Y-11386415D01*
X15499988Y-7491840D02*
G75*
G02*
X15261183Y-7815750I-238798J-73930D01*
G01*
X7078447Y-4984141D02*
X7238644Y-4823943D01*
X7479360Y-13209347D02*
G75*
G02*
X7477531Y-13174091I16810J18547D01*
G01*
X15910382Y-10536174D02*
G75*
G02*
X15960369Y-10486192I49978J4D01*
G01*
X6375095Y-7795438D02*
X6375095Y-8669198D01*
X7899781Y-7706741D02*
X7628611Y-6830746D01*
X6142736Y-14173226D02*
X6142736Y-14402689D01*
X15610383Y-8269199D02*
X15610383Y-8734197D01*
X6539154Y-8784209D02*
X6625082Y-8784209D01*
X6449162Y-9219210D02*
G75*
G02*
X6249162Y-9419202I-199992J0D01*
G01*
X15560370Y-10986161D02*
X14722272Y-10986161D01*
X14672259Y-8734197D02*
G75*
G02*
X14622272Y-8784189I-49979J-13D01*
G01*
X14536318Y-8784209D02*
X14622272Y-8784209D01*
X12549000Y-11851000D02*
X12768783Y-11852682D01*
X15612161Y-14501572D02*
X15713278Y-14602689D01*
X15996768Y-4656735D02*
X15942742Y-4602684D01*
X7809154Y-9269197D02*
X7959141Y-9419209D01*
X6675095Y-8269199D02*
G75*
G02*
X6725082Y-8219205I49995J-1D01*
G01*
X15951327Y-9079205D02*
X15951327Y-9109202D01*
X15625775Y-12374626D02*
G75*
G02*
X15339212Y-12585905I-286555J88686D01*
G01*
X15996768Y-14548663D02*
X15879445Y-14431341D01*
X16092729Y-8719211D02*
X15960369Y-8719211D01*
D11*
X10965000Y-12145000D02*
X12550000Y-12140029D01*
D10*
X14672259Y-10936174D02*
X14672259Y-10471176D01*
X7571339Y-13267898D02*
X7919138Y-12919566D01*
X15047646Y-4823537D02*
G75*
G02*
X15441065Y-4760167I295104J-579173D01*
G01*
X14722272Y-8219212D02*
X15560370Y-8219212D01*
X6243853Y-14072108D02*
X6142736Y-14173226D01*
X7663205Y-8784209D02*
G75*
G02*
X7613191Y-8734197I5J50019D01*
G01*
X14943430Y-12585929D02*
G75*
G02*
X14656845Y-12374633I0J299999D01*
G01*
X7650277Y-5672151D02*
G75*
G02*
X7586157Y-5495013I133813J148611D01*
G01*
X6334150Y-10126168D02*
X6334150Y-10096170D01*
X16092729Y-9786163D02*
X16036315Y-9786163D01*
X6334150Y-9109202D02*
X6334150Y-9079205D01*
X6300038Y-13899896D02*
G75*
G02*
X7035444Y-13159332I642692J97208D01*
G01*
X14372260Y-11063478D02*
X14372260Y-11409934D01*
X14139901Y-9836176D02*
X14139901Y-10436175D01*
X7505293Y-11712756D02*
X7396488Y-12086447D01*
X6625082Y-10421163D02*
X6539154Y-10421163D01*
X6375095Y-7795438D02*
G75*
G02*
X6388507Y-7706741I300015J-2D01*
G01*
X14368169Y-6321088D02*
X14424870Y-6377799D01*
X15023281Y-12178378D02*
X15262281Y-12178378D01*
X8145577Y-9369197D02*
G75*
G02*
X8095564Y-9419207I-50007J-3D01*
G01*
X14331315Y-9109202D02*
X14331315Y-9079205D01*
X7809154Y-9936176D02*
X7809154Y-10046183D01*
X15951327Y-9109202D02*
G75*
G02*
X15901314Y-9159217I-50017J2D01*
G01*
X7361276Y-13938403D02*
X7521473Y-14098601D01*
X13392734Y-8141894D02*
X13392734Y-7976642D01*
X6384138Y-10176180D02*
G75*
G02*
X6334120Y-10126168I2J50020D01*
G01*
X7477531Y-6031281D02*
G75*
G02*
X7479357Y-5996022I18649J16711D01*
G01*
X7030988Y-7817827D02*
G75*
G02*
X6792185Y-7493911I2J249987D01*
G01*
X10377729Y-7352691D02*
X9516694Y-7352691D01*
X7749159Y-8784209D02*
G75*
G02*
X7799151Y-8834197I1J-49991D01*
G01*
X15901314Y-10176180D02*
X15796311Y-10176180D01*
X7212203Y-6110224D02*
X8892743Y-7976642D01*
X7959141Y-9419209D02*
X8095564Y-9419209D01*
X6142736Y-8769198D02*
G75*
G02*
X6192749Y-8719186I50014J-2D01*
G01*
X7035063Y-6046089D02*
G75*
G02*
X7212219Y-6110210I28527J-197971D01*
G01*
X16041624Y-14072108D02*
G75*
G02*
X15985348Y-13900432I141416J141418D01*
G01*
X14189913Y-10486162D02*
G75*
G02*
X14139918Y-10436175I7J50002D01*
G01*
X6675095Y-8734197D02*
X6675095Y-8269199D01*
X15501086Y-11710331D02*
X15392281Y-12084022D01*
X14699386Y-5495392D02*
G75*
G02*
X14764096Y-5106589I643344J92712D01*
G01*
X6334150Y-9079205D02*
G75*
G02*
X6384138Y-9029220I49980J5D01*
G01*
X7959141Y-9786163D02*
X7809154Y-9936176D01*
X6673317Y-4703801D02*
X6572199Y-4602684D01*
X8095564Y-9786163D02*
X7959141Y-9786163D01*
X15610383Y-10471176D02*
X15610383Y-10936174D01*
X7963205Y-10486162D02*
X8095564Y-10486162D01*
X7563206Y-8219212D02*
G75*
G02*
X7613188Y-8269199I4J-49978D01*
G01*
X7954162Y-10126168D02*
G75*
G02*
X7904150Y-10176172I-50002J-2D01*
G01*
X14536318Y-10421163D02*
G75*
G02*
X14486327Y-10371176I2J49993D01*
G01*
X8892743Y-8491881D02*
X8892743Y-10713492D01*
X6845529Y-4759986D02*
G75*
G02*
X7238850Y-4824042I97211J-642674D01*
G01*
X7027488Y-12180803D02*
X7266488Y-12180803D01*
X16036315Y-9419209D02*
X16092729Y-9419209D01*
X7963205Y-8719211D02*
G75*
G02*
X7913189Y-8669198I5J50021D01*
G01*
X14460003Y-6379477D02*
X14807947Y-6031307D01*
D11*
X12550000Y-12140000D02*
X12549000Y-11851000D01*
D10*
X7036988Y-7025863D02*
X7275988Y-7025863D01*
X14189913Y-9419209D02*
X14326311Y-9419209D01*
X7396488Y-12086447D02*
G75*
G02*
X7266488Y-12180804I-127998J39617D01*
G01*
X14368169Y-6321088D02*
G75*
G02*
X14366341Y-6285833I16831J18548D01*
G01*
X7266488Y-11388840D02*
X7021488Y-11388840D01*
X15440482Y-14445285D02*
G75*
G02*
X15612166Y-14501567I30258J-197695D01*
G01*
X14372260Y-10713492D02*
X13392734Y-10713492D01*
X6792183Y-7493910D02*
X6906988Y-7120220D01*
X15610383Y-10471176D02*
G75*
G02*
X15660370Y-10421183I49997J-4D01*
G01*
X15499988Y-7491840D02*
X15391183Y-7118150D01*
X15971368Y-14339393D02*
X16088690Y-14456715D01*
X6405143Y-14395120D02*
G75*
G02*
X6406052Y-14431335I-16793J-18540D01*
G01*
X14764004Y-14098601D02*
G75*
G02*
X14699387Y-13709981I578736J295911D01*
G01*
X13392734Y-10713492D02*
X13392734Y-8491881D01*
X7266488Y-11388840D02*
G75*
G02*
X7505299Y-11712758I2J-249990D01*
G01*
X7809154Y-9159215D02*
X7809154Y-9269197D01*
X6142736Y-4802683D02*
X6142736Y-5032147D01*
X15942742Y-4602684D02*
X15713278Y-4602684D01*
X15023281Y-12178378D02*
G75*
G02*
X14893276Y-12084023I-2011J133969D01*
G01*
X6350102Y-4865320D02*
G75*
G02*
X6405372Y-4810049I592718J-537440D01*
G01*
X7825480Y-12825925D02*
G75*
G02*
X7860748Y-12827766I16710J-18625D01*
G01*
X6625082Y-10421163D02*
G75*
G02*
X6675097Y-10471176I-2J-50017D01*
G01*
X15392281Y-12084022D02*
G75*
G02*
X15262281Y-12178378I-128001J39622D01*
G01*
X14189913Y-9419209D02*
G75*
G02*
X14139901Y-9369197I7J50019D01*
G01*
X7571334Y-13267894D02*
G75*
G02*
X7536061Y-13266057I-16714J18634D01*
G01*
X7521372Y-5106594D02*
G75*
G02*
X7586079Y-5495390I-578642J-296086D01*
G01*
X14372260Y-10536174D02*
X14372260Y-10713492D01*
X14635201Y-5672151D02*
X12768783Y-7352691D01*
X6375095Y-10536174D02*
X6375095Y-11409934D01*
X14372260Y-8141894D02*
X13392734Y-8141894D01*
X7238644Y-14381430D02*
X7078447Y-14221232D01*
X8145577Y-10436175D02*
G75*
G02*
X8095564Y-10486187I-50027J15D01*
G01*
X7586142Y-13710362D02*
G75*
G02*
X7650264Y-13533208I197978J28522D01*
G01*
X15879445Y-14431315D02*
G75*
G02*
X15880353Y-14395141I17675J17655D01*
G01*
X14424368Y-12828111D02*
X14367657Y-12884812D01*
X12768783Y-7352691D02*
X11907749Y-7352691D01*
X14749399Y-13266065D02*
G75*
G02*
X14714152Y-13267885I-18539J16815D01*
G01*
X15073274Y-13095148D02*
X13392734Y-11228731D01*
X7477526Y-6031287D02*
X7825859Y-6379086D01*
X14372260Y-8491881D02*
X14372260Y-8669198D01*
X6449162Y-10046183D02*
X6449162Y-9986163D01*
X9516000Y-11852000D02*
X10965000Y-11851000D01*
X15207031Y-14221232D02*
X15046833Y-14381430D01*
X6782683Y-11712756D02*
X6897488Y-12086447D01*
X15796311Y-10371176D02*
G75*
G02*
X15746324Y-10421161I-49981J-4D01*
G01*
X6673317Y-14501572D02*
G75*
G02*
X6844994Y-14445293I141423J-141418D01*
G01*
X7913218Y-8491881D02*
X8892743Y-8491881D01*
X14672259Y-8734197D02*
X14672259Y-8269199D01*
X14189913Y-10486162D02*
X14322273Y-10486162D01*
X7613218Y-10471176D02*
X7613218Y-10936174D01*
X14385671Y-11498631D02*
G75*
G02*
X14372258Y-11409934I286529J88691D01*
G01*
X7861111Y-6377262D02*
X7917822Y-6320561D01*
X6388506Y-11498631D02*
G75*
G02*
X6375093Y-11409934I286524J88691D01*
G01*
X7212203Y-13095148D02*
G75*
G02*
X7035065Y-13159267I-148623J133848D01*
G01*
X7913218Y-10713492D02*
X7913218Y-10536174D01*
X6314110Y-14339393D02*
G75*
G02*
X6350279Y-14340305I17650J-17687D01*
G01*
X15880334Y-4810252D02*
G75*
G02*
X15879444Y-4774056I16806J18522D01*
G01*
X16088690Y-4748657D02*
X15971368Y-4865980D01*
X14424368Y-12828111D02*
G75*
G02*
X14459618Y-12826288I18542J-16829D01*
G01*
X14322273Y-10486162D02*
G75*
G02*
X14372288Y-10536174I-13J-50028D01*
G01*
X15660370Y-8784209D02*
X15746324Y-8784209D01*
X15660370Y-8784209D02*
G75*
G02*
X15610361Y-8734197I0J50009D01*
G01*
X6243853Y-5133264D02*
G75*
G02*
X6300130Y-5304942I-141433J-141426D01*
G01*
X14807952Y-13174085D02*
X14459619Y-12826287D01*
X6405651Y-4773651D02*
G75*
G02*
X6405148Y-4810258I-17311J-18069D01*
G01*
X15073274Y-6110224D02*
G75*
G02*
X15250411Y-6046110I148616J-133846D01*
G01*
X14722272Y-10986161D02*
G75*
G02*
X14672279Y-10936174I-12J49981D01*
G01*
X14806117Y-5996026D02*
G75*
G02*
X14807942Y-6031278I-16817J-18544D01*
G01*
X14622272Y-10421163D02*
G75*
G02*
X14672287Y-10471176I-2J-50017D01*
G01*
X14635201Y-13533222D02*
G75*
G02*
X14699321Y-13710360I-133831J-148618D01*
G01*
X15901314Y-9159215D02*
X15836316Y-9159215D01*
X15610383Y-10936174D02*
G75*
G02*
X15560370Y-10986193I-50023J4D01*
G01*
X14656867Y-6830746D02*
X14385671Y-7706741D01*
X6249162Y-9786163D02*
G75*
G02*
X6449157Y-9986163I-12J-200007D01*
G01*
X15261183Y-7023793D02*
G75*
G02*
X15391183Y-7118150I2007J-133967D01*
G01*
X15951327Y-10126168D02*
G75*
G02*
X15901314Y-10176177I-50007J-2D01*
G01*
X6384138Y-9029218D02*
X6489141Y-9029218D01*
X16142741Y-9369197D02*
X16142741Y-8769198D01*
X14331315Y-10096170D02*
G75*
G02*
X14381328Y-10046155I50015J0D01*
G01*
X7237832Y-14381836D02*
G75*
G02*
X6844412Y-14445205I-295102J579176D01*
G01*
X6449162Y-9159215D02*
X6384138Y-9159215D01*
X7514793Y-7493910D02*
G75*
G02*
X7275988Y-7817825I-238803J-73930D01*
G01*
X14139901Y-8769198D02*
G75*
G02*
X14189913Y-8719191I50009J-2D01*
G01*
X6449162Y-9219210D02*
X6449162Y-9159215D01*
X7825480Y-12825925D02*
X7477536Y-13174095D01*
X7913218Y-11063478D02*
X8892743Y-11063478D01*
X6192749Y-10486162D02*
G75*
G02*
X6142758Y-10436175I-9J49982D01*
G01*
X7904150Y-9029218D02*
G75*
G02*
X7954132Y-9079205I-10J-49992D01*
G01*
X14778476Y-11710331D02*
G75*
G02*
X15017281Y-11386413I238804J73932D01*
G01*
X14486331Y-10371176D02*
X14486331Y-10176180D01*
X15901314Y-9029218D02*
G75*
G02*
X15951292Y-9079205I6J-49972D01*
G01*
X7027488Y-12180803D02*
G75*
G02*
X6897485Y-12086448I-1998J133984D01*
G01*
X6782683Y-11712756D02*
G75*
G02*
X7021488Y-11388842I238807J73927D01*
G01*
X15713278Y-14602689D02*
X15942742Y-14602689D01*
X6300140Y-13900430D02*
G75*
G02*
X6243858Y-14072113I-197720J-30250D01*
G01*
X14924278Y-13938657D02*
G75*
G02*
X15207488Y-14221384I418462J135967D01*
G01*
X14365979Y-12919945D02*
G75*
G02*
X14367814Y-12884671I18641J16715D01*
G01*
X14806117Y-5996026D02*
G75*
G02*
X14749399Y-5939308I536593J593306D01*
G01*
X8892743Y-11063478D02*
X8892743Y-11228731D01*
X14139901Y-8769198D02*
X14139901Y-9369197D01*
X7913218Y-8669198D02*
X7913218Y-8491881D01*
X6142736Y-14402689D02*
X6196762Y-14456715D01*
X13392734Y-7976642D02*
X15073274Y-6110224D01*
X13392734Y-8491881D02*
X14372260Y-8491881D01*
X14476324Y-9936176D02*
X14326311Y-9786163D01*
X15910382Y-11409934D02*
G75*
G02*
X15896971Y-11498631I-300042J4D01*
G01*
X6142736Y-5032147D02*
X6243853Y-5133264D01*
X6659677Y-6830746D02*
X6388506Y-7706741D01*
X8095564Y-8719211D02*
X7963205Y-8719211D01*
X14460003Y-6379477D02*
G75*
G02*
X14424731Y-6377640I-16713J18637D01*
G01*
D11*
X10965000Y-11851000D02*
X10965000Y-12145000D01*
D10*
X7904150Y-10046183D02*
G75*
G02*
X7954137Y-10096170I0J-49987D01*
G01*
X8892743Y-10713492D02*
X7913218Y-10713492D01*
X13392734Y-11228731D02*
X13392734Y-11063478D01*
X6844995Y-4760087D02*
G75*
G02*
X6673314Y-4703804I-30245J197727D01*
G01*
X14764004Y-14098601D02*
X14924176Y-13938403D01*
X15796311Y-8834197D02*
X15796311Y-9029218D01*
X6142736Y-8769198D02*
X6142736Y-9369197D01*
X15796311Y-10176180D02*
X15796311Y-10371176D01*
X7913218Y-10536174D02*
G75*
G02*
X7963205Y-10486188I49972J14D01*
G01*
X8892743Y-11228731D02*
X7212203Y-13095148D01*
X7904150Y-9159215D02*
X7809154Y-9159215D01*
X6906988Y-7120220D02*
G75*
G02*
X7036988Y-7025862I128002J-39620D01*
G01*
X14486331Y-10176180D02*
X14381328Y-10176180D01*
X15796311Y-9029218D02*
X15901314Y-9029218D01*
X7749159Y-10421163D02*
X7663205Y-10421163D01*
X14892183Y-7118150D02*
G75*
G02*
X15022182Y-7023793I128007J-39630D01*
G01*
X6249162Y-9786163D02*
X6192749Y-9786163D01*
X7536078Y-5939308D02*
G75*
G02*
X7479780Y-5995505I-592598J537358D01*
G01*
X14322273Y-8719211D02*
X14189913Y-8719211D01*
X7809154Y-10046183D02*
X7904150Y-10046183D01*
X15251151Y-13159182D02*
G75*
G02*
X15985253Y-13901013I91599J-643498D01*
G01*
X6142736Y-9836176D02*
G75*
G02*
X6192749Y-9786156I50024J-4D01*
G01*
X15625775Y-12374652D02*
X15896971Y-11498631D01*
X6288710Y-4656735D02*
X6406032Y-4774057D01*
X7650277Y-13533222D02*
X9516694Y-11852682D01*
X7275988Y-7025863D02*
G75*
G02*
X7405990Y-7120220I2002J-133977D01*
G01*
X15713278Y-4602684D02*
X15612161Y-4703801D01*
X14326311Y-9786163D02*
X14189913Y-9786163D01*
X7275988Y-7817827D02*
X7030988Y-7817827D01*
X6572199Y-4602684D02*
X6342736Y-4602684D01*
X6405372Y-14395323D02*
G75*
G02*
X6350102Y-14340053I537198J592473D01*
G01*
X13392734Y-11063478D02*
X14372260Y-11063478D01*
X14943430Y-12585929D02*
X15339212Y-12585929D01*
X10377729Y-7352691D02*
X11907749Y-7352691D01*
X7919500Y-6285428D02*
X7571329Y-5937484D01*
X15046833Y-4823943D02*
X15207031Y-4984141D01*
X15836316Y-10046183D02*
X15901314Y-10046183D01*
X16092729Y-9786163D02*
G75*
G02*
X16142737Y-9836176I1J-50007D01*
G01*
X6725082Y-8219212D02*
X7563206Y-8219212D01*
X7563206Y-10986161D02*
X6725082Y-10986161D01*
X14331315Y-10126168D02*
X14331315Y-10096170D01*
X15935376Y-14340053D02*
G75*
G02*
X15880106Y-14395324I-592716J537443D01*
G01*
X6406032Y-14431341D02*
X6288710Y-14548663D01*
X7799146Y-8834197D02*
X7799146Y-9029218D01*
X16041624Y-5133264D02*
X16142741Y-5032147D01*
X15746324Y-8784209D02*
G75*
G02*
X15796311Y-8834197I6J-49981D01*
G01*
X15935173Y-14340282D02*
G75*
G02*
X15971364Y-14339397I18517J-16788D01*
G01*
X14486331Y-8834197D02*
G75*
G02*
X14536318Y-8784211I49989J-3D01*
G01*
X16142741Y-14402689D02*
X16142741Y-14173226D01*
X7799146Y-10371176D02*
G75*
G02*
X7749159Y-10421156I-49976J-4D01*
G01*
X6675095Y-8734197D02*
G75*
G02*
X6625082Y-8784215I-50005J-13D01*
G01*
X7628611Y-12374626D02*
G75*
G02*
X7342022Y-12585930I-286581J88686D01*
G01*
X6314084Y-4865980D02*
X6196762Y-4748657D01*
X6196762Y-4748657D02*
X6142736Y-4802683D01*
X15022182Y-7023793D02*
X15261183Y-7023793D01*
X15971368Y-4865980D02*
G75*
G02*
X15935169Y-4865095I-17678J17680D01*
G01*
X16092729Y-8719211D02*
G75*
G02*
X16142719Y-8769198I1J-49989D01*
G01*
X15261183Y-7815756D02*
X15016183Y-7815756D01*
X7913218Y-11409934D02*
X7913218Y-11063478D01*
X7342022Y-6619444D02*
G75*
G02*
X7628608Y-6830747I8J-299986D01*
G01*
X15206777Y-4984217D02*
G75*
G02*
X14924037Y-5267456I135963J-418463D01*
G01*
X14381328Y-10046183D02*
X14476324Y-10046183D01*
X14476324Y-9159215D02*
X14381328Y-9159215D01*
X15896971Y-7706741D02*
X15625775Y-6830746D01*
X14714144Y-5937504D02*
G75*
G02*
X14749394Y-5939313I16716J-18616D01*
G01*
X7536078Y-5939308D02*
G75*
G02*
X7571328Y-5937485I18542J-16822D01*
G01*
X15951327Y-10096170D02*
X15951327Y-10126168D01*
X15339212Y-6619444D02*
X14943430Y-6619444D01*
X16036315Y-9419209D02*
G75*
G02*
X15836321Y-9219210I5J199999D01*
G01*
X14372260Y-7795438D02*
G75*
G02*
X14385671Y-7706741I300030J-2D01*
G01*
X6659677Y-6830746D02*
G75*
G02*
X6946265Y-6619467I286583J-88724D01*
G01*
X8892743Y-7976642D02*
X8892743Y-8141894D01*
X6388506Y-11498631D02*
X6659677Y-12374652D01*
X15896971Y-7706741D02*
G75*
G02*
X15910382Y-7795438I-286551J-88689D01*
G01*
X14381328Y-10176180D02*
G75*
G02*
X14331320Y-10126168I2J50010D01*
G01*
X14778476Y-11710331D02*
X14893281Y-12084022D01*
X14372260Y-8669198D02*
G75*
G02*
X14322273Y-8719190I-49980J-12D01*
G01*
X7917314Y-12884314D02*
G75*
G02*
X7919140Y-12919568I-16824J-18546D01*
G01*
X7514793Y-7493910D02*
X7405988Y-7120220D01*
X15901314Y-10046183D02*
G75*
G02*
X15951297Y-10096170I6J-49977D01*
G01*
X6334150Y-10096170D02*
G75*
G02*
X6384138Y-10046180I49990J0D01*
G01*
X6675095Y-10936174D02*
X6675095Y-10471176D01*
X15985338Y-5304943D02*
G75*
G02*
X16041619Y-5133259I197712J30253D01*
G01*
X6725082Y-10986161D02*
G75*
G02*
X6675089Y-10936174I-12J49981D01*
G01*
X16142741Y-9369197D02*
G75*
G02*
X16092729Y-9419201I-50001J-3D01*
G01*
X14672259Y-8269199D02*
G75*
G02*
X14722272Y-8219179I50021J-1D01*
G01*
X14365979Y-12919945D02*
X14714149Y-13267888D01*
X14326311Y-9419209D02*
X14476324Y-9269197D01*
X7586142Y-13710362D02*
G75*
G02*
X7521366Y-14098801I-643402J-92328D01*
G01*
X6342736Y-4602684D02*
X6288710Y-4656735D01*
X15836316Y-9986163D02*
G75*
G02*
X16036315Y-9786166I199994J3D01*
G01*
X16142741Y-5032147D02*
X16142741Y-4802683D01*
X15960369Y-8719211D02*
G75*
G02*
X15910359Y-8669198I1J50011D01*
G01*
X7479360Y-13209347D02*
X7536061Y-13266058D01*
X6342736Y-14602689D02*
X6572199Y-14602689D01*
X15836316Y-9159215D02*
X15836316Y-9219210D01*
X6288710Y-14548663D02*
X6342736Y-14602689D01*
X16142741Y-10436175D02*
G75*
G02*
X16092729Y-10486191I-50021J5D01*
G01*
X6325083Y-8719211D02*
X6192749Y-8719211D01*
X14476324Y-9269197D02*
X14476324Y-9159215D01*
X14331315Y-9079205D02*
G75*
G02*
X14381328Y-9029185I50025J-5D01*
G01*
X16142741Y-10436175D02*
X16142741Y-9836176D01*
X8145577Y-9369197D02*
X8145577Y-8769198D01*
X6489141Y-8834197D02*
G75*
G02*
X6539154Y-8784181I50019J-3D01*
G01*
X15439923Y-14445387D02*
G75*
G02*
X15046631Y-14381326I-97183J642667D01*
G01*
X7613218Y-8269199D02*
X7613218Y-8734197D01*
X8095564Y-8719211D02*
G75*
G02*
X8145549Y-8769198I6J-49979D01*
G01*
X7799146Y-9029218D02*
X7904150Y-9029218D01*
X8892743Y-8141894D02*
X7913218Y-8141894D01*
X7613218Y-10936174D02*
G75*
G02*
X7563206Y-10986188I-50018J4D01*
G01*
X6192749Y-9419209D02*
G75*
G02*
X6142741Y-9369197I1J50009D01*
G01*
X14806097Y-13209350D02*
X14749399Y-13266065D01*
X15560370Y-8219212D02*
G75*
G02*
X15610358Y-8269199I0J-49988D01*
G01*
X7663205Y-8784209D02*
X7749159Y-8784209D01*
X6192749Y-10486162D02*
X6325083Y-10486162D01*
X6489141Y-10371176D02*
X6489141Y-10176180D01*
X14385671Y-11498631D02*
X14656867Y-12374652D01*
X14622272Y-10421163D02*
X14536318Y-10421163D01*
X7954162Y-9109202D02*
G75*
G02*
X7904150Y-9159212I-50012J2D01*
G01*
X8095564Y-9786163D02*
G75*
G02*
X8145577Y-9836176I6J-50007D01*
G01*
X6489141Y-9029218D02*
X6489141Y-8834197D01*
X6325083Y-10486162D02*
G75*
G02*
X6375088Y-10536174I-13J-50018D01*
G01*
X7954162Y-9079205D02*
X7954162Y-9109202D01*
X12768783Y-11852682D02*
X14635201Y-13533222D01*
X6539154Y-10421163D02*
G75*
G02*
X6489167Y-10371176I6J49993D01*
G01*
X14476324Y-10046183D02*
X14476324Y-9936176D01*
X16088690Y-14456715D02*
X16142741Y-14402689D01*
X6142736Y-9836176D02*
X6142736Y-10436175D01*
X15879445Y-4774057D02*
X15996768Y-4656735D01*
X6946265Y-12585929D02*
G75*
G02*
X6659675Y-12374626I5J300009D01*
G01*
X15910382Y-11409934D02*
X15910382Y-10536174D01*
X15836316Y-9986163D02*
X15836316Y-10046183D01*
X6350305Y-4865091D02*
G75*
G02*
X6314085Y-4866005I-18545J16801D01*
G01*
X14777378Y-7491840D02*
X14892183Y-7118150D01*
X14714144Y-5937504D02*
X14366345Y-6285837D01*
X7078701Y-14221156D02*
G75*
G02*
X7361438Y-13937923I-135967J418466D01*
G01*
X6946265Y-12585929D02*
X7342022Y-12585929D01*
X14381328Y-9029218D02*
X14486331Y-9029218D01*
X7904150Y-10176180D02*
X7799146Y-10176180D01*
X7521473Y-5106797D02*
X7361276Y-5266970D01*
X15880103Y-4810051D02*
G75*
G02*
X15935169Y-4865095I-537344J-592619D01*
G01*
X15910382Y-8669198D02*
X15910382Y-7795438D01*
X16142741Y-4802683D02*
X16088690Y-4748657D01*
D12*
D13*
X10188500Y-7812000D02*
X10253500Y-7877000D01*
X10253500Y-7812000D02*
X10188500Y-7877000D01*
X10766500Y-7812000D02*
X10831500Y-7877000D01*
X10831500Y-7812000D02*
X10766500Y-7877000D01*
D12*
X6402243Y-14915443D02*
X6402243Y-14715443D01*
X6402243Y-14715443D02*
X6449862Y-14715443D01*
X6449862Y-14715443D02*
X6478433Y-14724967D01*
X6478433Y-14724967D02*
X6497481Y-14744014D01*
X6497481Y-14744014D02*
X6507005Y-14763062D01*
X6507005Y-14763062D02*
X6516528Y-14801157D01*
X6516528Y-14801157D02*
X6516528Y-14829728D01*
X6516528Y-14829728D02*
X6507005Y-14867824D01*
X6507005Y-14867824D02*
X6497481Y-14886871D01*
X6497481Y-14886871D02*
X6478433Y-14905919D01*
X6478433Y-14905919D02*
X6449862Y-14915443D01*
X6449862Y-14915443D02*
X6402243Y-14915443D01*
X6602243Y-14915443D02*
X6602243Y-14782109D01*
X6602243Y-14820205D02*
X6611767Y-14801157D01*
X6611767Y-14801157D02*
X6621290Y-14791633D01*
X6621290Y-14791633D02*
X6640338Y-14782109D01*
X6640338Y-14782109D02*
X6659386Y-14782109D01*
X6726052Y-14915443D02*
X6726052Y-14782109D01*
X6726052Y-14715443D02*
X6716528Y-14724967D01*
X6716528Y-14724967D02*
X6726052Y-14734490D01*
X6726052Y-14734490D02*
X6735576Y-14724967D01*
X6735576Y-14724967D02*
X6726052Y-14715443D01*
X6726052Y-14715443D02*
X6726052Y-14734490D01*
X6849862Y-14915443D02*
X6830814Y-14905919D01*
X6830814Y-14905919D02*
X6821290Y-14886871D01*
X6821290Y-14886871D02*
X6821290Y-14715443D01*
X6954624Y-14915443D02*
X6935576Y-14905919D01*
X6935576Y-14905919D02*
X6926052Y-14886871D01*
X6926052Y-14886871D02*
X6926052Y-14715443D01*
X7183195Y-14915443D02*
X7183195Y-14715443D01*
X7183195Y-14715443D02*
X7249862Y-14858300D01*
X7249862Y-14858300D02*
X7316528Y-14715443D01*
X7316528Y-14715443D02*
X7316528Y-14915443D01*
X7497481Y-14915443D02*
X7497481Y-14810681D01*
X7497481Y-14810681D02*
X7487957Y-14791633D01*
X7487957Y-14791633D02*
X7468909Y-14782109D01*
X7468909Y-14782109D02*
X7430814Y-14782109D01*
X7430814Y-14782109D02*
X7411767Y-14791633D01*
X7497481Y-14905919D02*
X7478433Y-14915443D01*
X7478433Y-14915443D02*
X7430814Y-14915443D01*
X7430814Y-14915443D02*
X7411767Y-14905919D01*
X7411767Y-14905919D02*
X7402243Y-14886871D01*
X7402243Y-14886871D02*
X7402243Y-14867824D01*
X7402243Y-14867824D02*
X7411767Y-14848776D01*
X7411767Y-14848776D02*
X7430814Y-14839252D01*
X7430814Y-14839252D02*
X7478433Y-14839252D01*
X7478433Y-14839252D02*
X7497481Y-14829728D01*
X7592719Y-14782109D02*
X7592719Y-14982109D01*
X7592719Y-14791633D02*
X7611767Y-14782109D01*
X7611767Y-14782109D02*
X7649862Y-14782109D01*
X7649862Y-14782109D02*
X7668909Y-14791633D01*
X7668909Y-14791633D02*
X7678433Y-14801157D01*
X7678433Y-14801157D02*
X7687957Y-14820205D01*
X7687957Y-14820205D02*
X7687957Y-14877347D01*
X7687957Y-14877347D02*
X7678433Y-14896395D01*
X7678433Y-14896395D02*
X7668909Y-14905919D01*
X7668909Y-14905919D02*
X7649862Y-14915443D01*
X7649862Y-14915443D02*
X7611767Y-14915443D01*
X7611767Y-14915443D02*
X7592719Y-14905919D01*
X7773671Y-14896395D02*
X7783195Y-14905919D01*
X7783195Y-14905919D02*
X7773671Y-14915443D01*
X7773671Y-14915443D02*
X7764148Y-14905919D01*
X7764148Y-14905919D02*
X7773671Y-14896395D01*
X7773671Y-14896395D02*
X7773671Y-14915443D01*
X7773671Y-14791633D02*
X7783195Y-14801157D01*
X7783195Y-14801157D02*
X7773671Y-14810681D01*
X7773671Y-14810681D02*
X7764148Y-14801157D01*
X7764148Y-14801157D02*
X7773671Y-14791633D01*
X7773671Y-14791633D02*
X7773671Y-14810681D01*
D13*
X6076466Y-15211459D02*
X6141466Y-15276459D01*
X6141466Y-15211459D02*
X6076466Y-15276459D01*
D12*
X6440338Y-15135443D02*
X6459386Y-15135443D01*
X6459386Y-15135443D02*
X6478433Y-15144967D01*
X6478433Y-15144967D02*
X6487957Y-15154490D01*
X6487957Y-15154490D02*
X6497481Y-15173538D01*
X6497481Y-15173538D02*
X6507005Y-15211633D01*
X6507005Y-15211633D02*
X6507005Y-15259252D01*
X6507005Y-15259252D02*
X6497481Y-15297347D01*
X6497481Y-15297347D02*
X6487957Y-15316395D01*
X6487957Y-15316395D02*
X6478433Y-15325919D01*
X6478433Y-15325919D02*
X6459386Y-15335443D01*
X6459386Y-15335443D02*
X6440338Y-15335443D01*
X6440338Y-15335443D02*
X6421290Y-15325919D01*
X6421290Y-15325919D02*
X6411767Y-15316395D01*
X6411767Y-15316395D02*
X6402243Y-15297347D01*
X6402243Y-15297347D02*
X6392719Y-15259252D01*
X6392719Y-15259252D02*
X6392719Y-15211633D01*
X6392719Y-15211633D02*
X6402243Y-15173538D01*
X6402243Y-15173538D02*
X6411767Y-15154490D01*
X6411767Y-15154490D02*
X6421290Y-15144967D01*
X6421290Y-15144967D02*
X6440338Y-15135443D01*
X6592719Y-15316395D02*
X6602243Y-15325919D01*
X6602243Y-15325919D02*
X6592719Y-15335443D01*
X6592719Y-15335443D02*
X6583195Y-15325919D01*
X6583195Y-15325919D02*
X6592719Y-15316395D01*
X6592719Y-15316395D02*
X6592719Y-15335443D01*
X6773671Y-15135443D02*
X6735576Y-15135443D01*
X6735576Y-15135443D02*
X6716528Y-15144967D01*
X6716528Y-15144967D02*
X6707005Y-15154490D01*
X6707005Y-15154490D02*
X6687957Y-15183062D01*
X6687957Y-15183062D02*
X6678433Y-15221157D01*
X6678433Y-15221157D02*
X6678433Y-15297347D01*
X6678433Y-15297347D02*
X6687957Y-15316395D01*
X6687957Y-15316395D02*
X6697481Y-15325919D01*
X6697481Y-15325919D02*
X6716528Y-15335443D01*
X6716528Y-15335443D02*
X6754624Y-15335443D01*
X6754624Y-15335443D02*
X6773671Y-15325919D01*
X6773671Y-15325919D02*
X6783195Y-15316395D01*
X6783195Y-15316395D02*
X6792719Y-15297347D01*
X6792719Y-15297347D02*
X6792719Y-15249728D01*
X6792719Y-15249728D02*
X6783195Y-15230681D01*
X6783195Y-15230681D02*
X6773671Y-15221157D01*
X6773671Y-15221157D02*
X6754624Y-15211633D01*
X6754624Y-15211633D02*
X6716528Y-15211633D01*
X6716528Y-15211633D02*
X6697481Y-15221157D01*
X6697481Y-15221157D02*
X6687957Y-15230681D01*
X6687957Y-15230681D02*
X6678433Y-15249728D01*
X6973671Y-15135443D02*
X6878433Y-15135443D01*
X6878433Y-15135443D02*
X6868909Y-15230681D01*
X6868909Y-15230681D02*
X6878433Y-15221157D01*
X6878433Y-15221157D02*
X6897481Y-15211633D01*
X6897481Y-15211633D02*
X6945100Y-15211633D01*
X6945100Y-15211633D02*
X6964148Y-15221157D01*
X6964148Y-15221157D02*
X6973671Y-15230681D01*
X6973671Y-15230681D02*
X6983195Y-15249728D01*
X6983195Y-15249728D02*
X6983195Y-15297347D01*
X6983195Y-15297347D02*
X6973671Y-15316395D01*
X6973671Y-15316395D02*
X6964148Y-15325919D01*
X6964148Y-15325919D02*
X6945100Y-15335443D01*
X6945100Y-15335443D02*
X6897481Y-15335443D01*
X6897481Y-15335443D02*
X6878433Y-15325919D01*
X6878433Y-15325919D02*
X6868909Y-15316395D01*
X7107005Y-15135443D02*
X7126052Y-15135443D01*
X7126052Y-15135443D02*
X7145100Y-15144967D01*
X7145100Y-15144967D02*
X7154624Y-15154490D01*
X7154624Y-15154490D02*
X7164148Y-15173538D01*
X7164148Y-15173538D02*
X7173671Y-15211633D01*
X7173671Y-15211633D02*
X7173671Y-15259252D01*
X7173671Y-15259252D02*
X7164148Y-15297347D01*
X7164148Y-15297347D02*
X7154624Y-15316395D01*
X7154624Y-15316395D02*
X7145100Y-15325919D01*
X7145100Y-15325919D02*
X7126052Y-15335443D01*
X7126052Y-15335443D02*
X7107005Y-15335443D01*
X7107005Y-15335443D02*
X7087957Y-15325919D01*
X7087957Y-15325919D02*
X7078433Y-15316395D01*
X7078433Y-15316395D02*
X7068909Y-15297347D01*
X7068909Y-15297347D02*
X7059386Y-15259252D01*
X7059386Y-15259252D02*
X7059386Y-15211633D01*
X7059386Y-15211633D02*
X7068909Y-15173538D01*
X7068909Y-15173538D02*
X7078433Y-15154490D01*
X7078433Y-15154490D02*
X7087957Y-15144967D01*
X7087957Y-15144967D02*
X7107005Y-15135443D01*
X7259386Y-15335443D02*
X7259386Y-15202109D01*
X7259386Y-15221157D02*
X7268909Y-15211633D01*
X7268909Y-15211633D02*
X7287957Y-15202109D01*
X7287957Y-15202109D02*
X7316529Y-15202109D01*
X7316529Y-15202109D02*
X7335576Y-15211633D01*
X7335576Y-15211633D02*
X7345100Y-15230681D01*
X7345100Y-15230681D02*
X7345100Y-15335443D01*
X7345100Y-15230681D02*
X7354624Y-15211633D01*
X7354624Y-15211633D02*
X7373671Y-15202109D01*
X7373671Y-15202109D02*
X7402243Y-15202109D01*
X7402243Y-15202109D02*
X7421290Y-15211633D01*
X7421290Y-15211633D02*
X7430814Y-15230681D01*
X7430814Y-15230681D02*
X7430814Y-15335443D01*
X7526052Y-15335443D02*
X7526052Y-15202109D01*
X7526052Y-15221157D02*
X7535576Y-15211633D01*
X7535576Y-15211633D02*
X7554624Y-15202109D01*
X7554624Y-15202109D02*
X7583195Y-15202109D01*
X7583195Y-15202109D02*
X7602243Y-15211633D01*
X7602243Y-15211633D02*
X7611767Y-15230681D01*
X7611767Y-15230681D02*
X7611767Y-15335443D01*
X7611767Y-15230681D02*
X7621290Y-15211633D01*
X7621290Y-15211633D02*
X7640338Y-15202109D01*
X7640338Y-15202109D02*
X7668909Y-15202109D01*
X7668909Y-15202109D02*
X7687957Y-15211633D01*
X7687957Y-15211633D02*
X7697481Y-15230681D01*
X7697481Y-15230681D02*
X7697481Y-15335443D01*
X8087957Y-15125919D02*
X7916529Y-15383062D01*
X8345100Y-15135443D02*
X8364148Y-15135443D01*
X8364148Y-15135443D02*
X8383195Y-15144967D01*
X8383195Y-15144967D02*
X8392719Y-15154490D01*
X8392719Y-15154490D02*
X8402243Y-15173538D01*
X8402243Y-15173538D02*
X8411767Y-15211633D01*
X8411767Y-15211633D02*
X8411767Y-15259252D01*
X8411767Y-15259252D02*
X8402243Y-15297347D01*
X8402243Y-15297347D02*
X8392719Y-15316395D01*
X8392719Y-15316395D02*
X8383195Y-15325919D01*
X8383195Y-15325919D02*
X8364148Y-15335443D01*
X8364148Y-15335443D02*
X8345100Y-15335443D01*
X8345100Y-15335443D02*
X8326052Y-15325919D01*
X8326052Y-15325919D02*
X8316529Y-15316395D01*
X8316529Y-15316395D02*
X8307005Y-15297347D01*
X8307005Y-15297347D02*
X8297481Y-15259252D01*
X8297481Y-15259252D02*
X8297481Y-15211633D01*
X8297481Y-15211633D02*
X8307005Y-15173538D01*
X8307005Y-15173538D02*
X8316529Y-15154490D01*
X8316529Y-15154490D02*
X8326052Y-15144967D01*
X8326052Y-15144967D02*
X8345100Y-15135443D01*
X8497481Y-15316395D02*
X8507005Y-15325919D01*
X8507005Y-15325919D02*
X8497481Y-15335443D01*
X8497481Y-15335443D02*
X8487957Y-15325919D01*
X8487957Y-15325919D02*
X8497481Y-15316395D01*
X8497481Y-15316395D02*
X8497481Y-15335443D01*
X8630814Y-15135443D02*
X8649862Y-15135443D01*
X8649862Y-15135443D02*
X8668910Y-15144967D01*
X8668910Y-15144967D02*
X8678434Y-15154490D01*
X8678434Y-15154490D02*
X8687957Y-15173538D01*
X8687957Y-15173538D02*
X8697481Y-15211633D01*
X8697481Y-15211633D02*
X8697481Y-15259252D01*
X8697481Y-15259252D02*
X8687957Y-15297347D01*
X8687957Y-15297347D02*
X8678434Y-15316395D01*
X8678434Y-15316395D02*
X8668910Y-15325919D01*
X8668910Y-15325919D02*
X8649862Y-15335443D01*
X8649862Y-15335443D02*
X8630814Y-15335443D01*
X8630814Y-15335443D02*
X8611767Y-15325919D01*
X8611767Y-15325919D02*
X8602243Y-15316395D01*
X8602243Y-15316395D02*
X8592719Y-15297347D01*
X8592719Y-15297347D02*
X8583195Y-15259252D01*
X8583195Y-15259252D02*
X8583195Y-15211633D01*
X8583195Y-15211633D02*
X8592719Y-15173538D01*
X8592719Y-15173538D02*
X8602243Y-15154490D01*
X8602243Y-15154490D02*
X8611767Y-15144967D01*
X8611767Y-15144967D02*
X8630814Y-15135443D01*
X8773672Y-15154490D02*
X8783195Y-15144967D01*
X8783195Y-15144967D02*
X8802243Y-15135443D01*
X8802243Y-15135443D02*
X8849862Y-15135443D01*
X8849862Y-15135443D02*
X8868910Y-15144967D01*
X8868910Y-15144967D02*
X8878434Y-15154490D01*
X8878434Y-15154490D02*
X8887957Y-15173538D01*
X8887957Y-15173538D02*
X8887957Y-15192586D01*
X8887957Y-15192586D02*
X8878434Y-15221157D01*
X8878434Y-15221157D02*
X8764148Y-15335443D01*
X8764148Y-15335443D02*
X8887957Y-15335443D01*
X9068910Y-15135443D02*
X8973672Y-15135443D01*
X8973672Y-15135443D02*
X8964148Y-15230681D01*
X8964148Y-15230681D02*
X8973672Y-15221157D01*
X8973672Y-15221157D02*
X8992719Y-15211633D01*
X8992719Y-15211633D02*
X9040338Y-15211633D01*
X9040338Y-15211633D02*
X9059386Y-15221157D01*
X9059386Y-15221157D02*
X9068910Y-15230681D01*
X9068910Y-15230681D02*
X9078434Y-15249728D01*
X9078434Y-15249728D02*
X9078434Y-15297347D01*
X9078434Y-15297347D02*
X9068910Y-15316395D01*
X9068910Y-15316395D02*
X9059386Y-15325919D01*
X9059386Y-15325919D02*
X9040338Y-15335443D01*
X9040338Y-15335443D02*
X8992719Y-15335443D01*
X8992719Y-15335443D02*
X8973672Y-15325919D01*
X8973672Y-15325919D02*
X8964148Y-15316395D01*
X9249862Y-15135443D02*
X9211767Y-15135443D01*
X9211767Y-15135443D02*
X9192719Y-15144967D01*
X9192719Y-15144967D02*
X9183195Y-15154490D01*
X9183195Y-15154490D02*
X9164148Y-15183062D01*
X9164148Y-15183062D02*
X9154624Y-15221157D01*
X9154624Y-15221157D02*
X9154624Y-15297347D01*
X9154624Y-15297347D02*
X9164148Y-15316395D01*
X9164148Y-15316395D02*
X9173672Y-15325919D01*
X9173672Y-15325919D02*
X9192719Y-15335443D01*
X9192719Y-15335443D02*
X9230815Y-15335443D01*
X9230815Y-15335443D02*
X9249862Y-15325919D01*
X9249862Y-15325919D02*
X9259386Y-15316395D01*
X9259386Y-15316395D02*
X9268910Y-15297347D01*
X9268910Y-15297347D02*
X9268910Y-15249728D01*
X9268910Y-15249728D02*
X9259386Y-15230681D01*
X9259386Y-15230681D02*
X9249862Y-15221157D01*
X9249862Y-15221157D02*
X9230815Y-15211633D01*
X9230815Y-15211633D02*
X9192719Y-15211633D01*
X9192719Y-15211633D02*
X9173672Y-15221157D01*
X9173672Y-15221157D02*
X9164148Y-15230681D01*
X9164148Y-15230681D02*
X9154624Y-15249728D01*
X9345100Y-15135443D02*
X9345100Y-15173538D01*
X9421291Y-15135443D02*
X9421291Y-15173538D01*
X9716529Y-15411633D02*
X9707005Y-15402109D01*
X9707005Y-15402109D02*
X9687957Y-15373538D01*
X9687957Y-15373538D02*
X9678434Y-15354490D01*
X9678434Y-15354490D02*
X9668910Y-15325919D01*
X9668910Y-15325919D02*
X9659386Y-15278300D01*
X9659386Y-15278300D02*
X9659386Y-15240205D01*
X9659386Y-15240205D02*
X9668910Y-15192586D01*
X9668910Y-15192586D02*
X9678434Y-15164014D01*
X9678434Y-15164014D02*
X9687957Y-15144967D01*
X9687957Y-15144967D02*
X9707005Y-15116395D01*
X9707005Y-15116395D02*
X9716529Y-15106871D01*
X9783196Y-15154490D02*
X9792719Y-15144967D01*
X9792719Y-15144967D02*
X9811767Y-15135443D01*
X9811767Y-15135443D02*
X9859386Y-15135443D01*
X9859386Y-15135443D02*
X9878434Y-15144967D01*
X9878434Y-15144967D02*
X9887957Y-15154490D01*
X9887957Y-15154490D02*
X9897481Y-15173538D01*
X9897481Y-15173538D02*
X9897481Y-15192586D01*
X9897481Y-15192586D02*
X9887957Y-15221157D01*
X9887957Y-15221157D02*
X9773672Y-15335443D01*
X9773672Y-15335443D02*
X9897481Y-15335443D01*
X10135577Y-15335443D02*
X10135577Y-15135443D01*
X10221291Y-15335443D02*
X10221291Y-15230681D01*
X10221291Y-15230681D02*
X10211767Y-15211633D01*
X10211767Y-15211633D02*
X10192719Y-15202109D01*
X10192719Y-15202109D02*
X10164148Y-15202109D01*
X10164148Y-15202109D02*
X10145100Y-15211633D01*
X10145100Y-15211633D02*
X10135577Y-15221157D01*
X10345100Y-15335443D02*
X10326053Y-15325919D01*
X10326053Y-15325919D02*
X10316529Y-15316395D01*
X10316529Y-15316395D02*
X10307005Y-15297347D01*
X10307005Y-15297347D02*
X10307005Y-15240205D01*
X10307005Y-15240205D02*
X10316529Y-15221157D01*
X10316529Y-15221157D02*
X10326053Y-15211633D01*
X10326053Y-15211633D02*
X10345100Y-15202109D01*
X10345100Y-15202109D02*
X10373672Y-15202109D01*
X10373672Y-15202109D02*
X10392719Y-15211633D01*
X10392719Y-15211633D02*
X10402243Y-15221157D01*
X10402243Y-15221157D02*
X10411767Y-15240205D01*
X10411767Y-15240205D02*
X10411767Y-15297347D01*
X10411767Y-15297347D02*
X10402243Y-15316395D01*
X10402243Y-15316395D02*
X10392719Y-15325919D01*
X10392719Y-15325919D02*
X10373672Y-15335443D01*
X10373672Y-15335443D02*
X10345100Y-15335443D01*
X10526053Y-15335443D02*
X10507005Y-15325919D01*
X10507005Y-15325919D02*
X10497481Y-15306871D01*
X10497481Y-15306871D02*
X10497481Y-15135443D01*
X10678434Y-15325919D02*
X10659386Y-15335443D01*
X10659386Y-15335443D02*
X10621291Y-15335443D01*
X10621291Y-15335443D02*
X10602243Y-15325919D01*
X10602243Y-15325919D02*
X10592719Y-15306871D01*
X10592719Y-15306871D02*
X10592719Y-15230681D01*
X10592719Y-15230681D02*
X10602243Y-15211633D01*
X10602243Y-15211633D02*
X10621291Y-15202109D01*
X10621291Y-15202109D02*
X10659386Y-15202109D01*
X10659386Y-15202109D02*
X10678434Y-15211633D01*
X10678434Y-15211633D02*
X10687958Y-15230681D01*
X10687958Y-15230681D02*
X10687958Y-15249728D01*
X10687958Y-15249728D02*
X10592719Y-15268776D01*
X10764148Y-15325919D02*
X10783196Y-15335443D01*
X10783196Y-15335443D02*
X10821291Y-15335443D01*
X10821291Y-15335443D02*
X10840339Y-15325919D01*
X10840339Y-15325919D02*
X10849862Y-15306871D01*
X10849862Y-15306871D02*
X10849862Y-15297347D01*
X10849862Y-15297347D02*
X10840339Y-15278300D01*
X10840339Y-15278300D02*
X10821291Y-15268776D01*
X10821291Y-15268776D02*
X10792719Y-15268776D01*
X10792719Y-15268776D02*
X10773672Y-15259252D01*
X10773672Y-15259252D02*
X10764148Y-15240205D01*
X10764148Y-15240205D02*
X10764148Y-15230681D01*
X10764148Y-15230681D02*
X10773672Y-15211633D01*
X10773672Y-15211633D02*
X10792719Y-15202109D01*
X10792719Y-15202109D02*
X10821291Y-15202109D01*
X10821291Y-15202109D02*
X10840339Y-15211633D01*
X10916529Y-15411633D02*
X10926053Y-15402109D01*
X10926053Y-15402109D02*
X10945100Y-15373538D01*
X10945100Y-15373538D02*
X10954624Y-15354490D01*
X10954624Y-15354490D02*
X10964148Y-15325919D01*
X10964148Y-15325919D02*
X10973672Y-15278300D01*
X10973672Y-15278300D02*
X10973672Y-15240205D01*
X10973672Y-15240205D02*
X10964148Y-15192586D01*
X10964148Y-15192586D02*
X10954624Y-15164014D01*
X10954624Y-15164014D02*
X10945100Y-15144967D01*
X10945100Y-15144967D02*
X10926053Y-15116395D01*
X10926053Y-15116395D02*
X10916529Y-15106871D01*
X11278434Y-15411633D02*
X11268910Y-15402109D01*
X11268910Y-15402109D02*
X11249862Y-15373538D01*
X11249862Y-15373538D02*
X11240338Y-15354490D01*
X11240338Y-15354490D02*
X11230815Y-15325919D01*
X11230815Y-15325919D02*
X11221291Y-15278300D01*
X11221291Y-15278300D02*
X11221291Y-15240205D01*
X11221291Y-15240205D02*
X11230815Y-15192586D01*
X11230815Y-15192586D02*
X11240338Y-15164014D01*
X11240338Y-15164014D02*
X11249862Y-15144967D01*
X11249862Y-15144967D02*
X11268910Y-15116395D01*
X11268910Y-15116395D02*
X11278434Y-15106871D01*
X11354624Y-15202109D02*
X11354624Y-15335443D01*
X11354624Y-15221157D02*
X11364148Y-15211633D01*
X11364148Y-15211633D02*
X11383196Y-15202109D01*
X11383196Y-15202109D02*
X11411767Y-15202109D01*
X11411767Y-15202109D02*
X11430815Y-15211633D01*
X11430815Y-15211633D02*
X11440338Y-15230681D01*
X11440338Y-15230681D02*
X11440338Y-15335443D01*
X11564148Y-15335443D02*
X11545100Y-15325919D01*
X11545100Y-15325919D02*
X11535577Y-15316395D01*
X11535577Y-15316395D02*
X11526053Y-15297347D01*
X11526053Y-15297347D02*
X11526053Y-15240205D01*
X11526053Y-15240205D02*
X11535577Y-15221157D01*
X11535577Y-15221157D02*
X11545100Y-15211633D01*
X11545100Y-15211633D02*
X11564148Y-15202109D01*
X11564148Y-15202109D02*
X11592719Y-15202109D01*
X11592719Y-15202109D02*
X11611767Y-15211633D01*
X11611767Y-15211633D02*
X11621291Y-15221157D01*
X11621291Y-15221157D02*
X11630815Y-15240205D01*
X11630815Y-15240205D02*
X11630815Y-15297347D01*
X11630815Y-15297347D02*
X11621291Y-15316395D01*
X11621291Y-15316395D02*
X11611767Y-15325919D01*
X11611767Y-15325919D02*
X11592719Y-15335443D01*
X11592719Y-15335443D02*
X11564148Y-15335443D01*
X11687958Y-15202109D02*
X11764148Y-15202109D01*
X11716529Y-15135443D02*
X11716529Y-15306871D01*
X11716529Y-15306871D02*
X11726053Y-15325919D01*
X11726053Y-15325919D02*
X11745100Y-15335443D01*
X11745100Y-15335443D02*
X11764148Y-15335443D01*
X11983196Y-15202109D02*
X11983196Y-15402109D01*
X11983196Y-15211633D02*
X12002243Y-15202109D01*
X12002243Y-15202109D02*
X12040339Y-15202109D01*
X12040339Y-15202109D02*
X12059386Y-15211633D01*
X12059386Y-15211633D02*
X12068910Y-15221157D01*
X12068910Y-15221157D02*
X12078434Y-15240205D01*
X12078434Y-15240205D02*
X12078434Y-15297347D01*
X12078434Y-15297347D02*
X12068910Y-15316395D01*
X12068910Y-15316395D02*
X12059386Y-15325919D01*
X12059386Y-15325919D02*
X12040339Y-15335443D01*
X12040339Y-15335443D02*
X12002243Y-15335443D01*
X12002243Y-15335443D02*
X11983196Y-15325919D01*
X12192719Y-15335443D02*
X12173672Y-15325919D01*
X12173672Y-15325919D02*
X12164148Y-15306871D01*
X12164148Y-15306871D02*
X12164148Y-15135443D01*
X12354624Y-15335443D02*
X12354624Y-15230681D01*
X12354624Y-15230681D02*
X12345100Y-15211633D01*
X12345100Y-15211633D02*
X12326053Y-15202109D01*
X12326053Y-15202109D02*
X12287958Y-15202109D01*
X12287958Y-15202109D02*
X12268910Y-15211633D01*
X12354624Y-15325919D02*
X12335577Y-15335443D01*
X12335577Y-15335443D02*
X12287958Y-15335443D01*
X12287958Y-15335443D02*
X12268910Y-15325919D01*
X12268910Y-15325919D02*
X12259386Y-15306871D01*
X12259386Y-15306871D02*
X12259386Y-15287824D01*
X12259386Y-15287824D02*
X12268910Y-15268776D01*
X12268910Y-15268776D02*
X12287958Y-15259252D01*
X12287958Y-15259252D02*
X12335577Y-15259252D01*
X12335577Y-15259252D02*
X12354624Y-15249728D01*
X12421291Y-15202109D02*
X12497481Y-15202109D01*
X12449862Y-15135443D02*
X12449862Y-15306871D01*
X12449862Y-15306871D02*
X12459386Y-15325919D01*
X12459386Y-15325919D02*
X12478434Y-15335443D01*
X12478434Y-15335443D02*
X12497481Y-15335443D01*
X12640339Y-15325919D02*
X12621291Y-15335443D01*
X12621291Y-15335443D02*
X12583196Y-15335443D01*
X12583196Y-15335443D02*
X12564148Y-15325919D01*
X12564148Y-15325919D02*
X12554624Y-15306871D01*
X12554624Y-15306871D02*
X12554624Y-15230681D01*
X12554624Y-15230681D02*
X12564148Y-15211633D01*
X12564148Y-15211633D02*
X12583196Y-15202109D01*
X12583196Y-15202109D02*
X12621291Y-15202109D01*
X12621291Y-15202109D02*
X12640339Y-15211633D01*
X12640339Y-15211633D02*
X12649862Y-15230681D01*
X12649862Y-15230681D02*
X12649862Y-15249728D01*
X12649862Y-15249728D02*
X12554624Y-15268776D01*
X12821291Y-15335443D02*
X12821291Y-15135443D01*
X12821291Y-15325919D02*
X12802243Y-15335443D01*
X12802243Y-15335443D02*
X12764148Y-15335443D01*
X12764148Y-15335443D02*
X12745100Y-15325919D01*
X12745100Y-15325919D02*
X12735577Y-15316395D01*
X12735577Y-15316395D02*
X12726053Y-15297347D01*
X12726053Y-15297347D02*
X12726053Y-15240205D01*
X12726053Y-15240205D02*
X12735577Y-15221157D01*
X12735577Y-15221157D02*
X12745100Y-15211633D01*
X12745100Y-15211633D02*
X12764148Y-15202109D01*
X12764148Y-15202109D02*
X12802243Y-15202109D01*
X12802243Y-15202109D02*
X12821291Y-15211633D01*
X12897481Y-15411633D02*
X12907005Y-15402109D01*
X12907005Y-15402109D02*
X12926053Y-15373538D01*
X12926053Y-15373538D02*
X12935577Y-15354490D01*
X12935577Y-15354490D02*
X12945100Y-15325919D01*
X12945100Y-15325919D02*
X12954624Y-15278300D01*
X12954624Y-15278300D02*
X12954624Y-15240205D01*
X12954624Y-15240205D02*
X12945100Y-15192586D01*
X12945100Y-15192586D02*
X12935577Y-15164014D01*
X12935577Y-15164014D02*
X12926053Y-15144967D01*
X12926053Y-15144967D02*
X12907005Y-15116395D01*
X12907005Y-15116395D02*
X12897481Y-15106871D01*
M02*
