%TF.GenerationSoftware,KiCad,Pcbnew,9.0.4*%
%TF.CreationDate,2025-09-22T18:44:00+02:00*%
%TF.ProjectId,esp32_mine,65737033-325f-46d6-996e-652e6b696361,rev?*%
%TF.SameCoordinates,Original*%
%TF.FileFunction,Legend,Bot*%
%TF.FilePolarity,Positive*%
%FSLAX46Y46*%
G04 Gerber Fmt 4.6, Leading zero omitted, Abs format (unit mm)*
G04 Created by KiCad (PCBNEW 9.0.4) date 2025-09-22 18:44:00*
%MOMM*%
%LPD*%
G01*
G04 APERTURE LIST*
%ADD10C,0.100000*%
%ADD11C,0.150000*%
%ADD12C,0.120000*%
G04 APERTURE END LIST*
D10*
X94922419Y-99125312D02*
X94446228Y-98791979D01*
X94922419Y-98553884D02*
X93922419Y-98553884D01*
X93922419Y-98553884D02*
X93922419Y-98934836D01*
X93922419Y-98934836D02*
X93970038Y-99030074D01*
X93970038Y-99030074D02*
X94017657Y-99077693D01*
X94017657Y-99077693D02*
X94112895Y-99125312D01*
X94112895Y-99125312D02*
X94255752Y-99125312D01*
X94255752Y-99125312D02*
X94350990Y-99077693D01*
X94350990Y-99077693D02*
X94398609Y-99030074D01*
X94398609Y-99030074D02*
X94446228Y-98934836D01*
X94446228Y-98934836D02*
X94446228Y-98553884D01*
X93922419Y-99458646D02*
X94922419Y-100125312D01*
X93922419Y-100125312D02*
X94922419Y-99458646D01*
X91370038Y-98927693D02*
X91322419Y-98832455D01*
X91322419Y-98832455D02*
X91322419Y-98689598D01*
X91322419Y-98689598D02*
X91370038Y-98546741D01*
X91370038Y-98546741D02*
X91465276Y-98451503D01*
X91465276Y-98451503D02*
X91560514Y-98403884D01*
X91560514Y-98403884D02*
X91750990Y-98356265D01*
X91750990Y-98356265D02*
X91893847Y-98356265D01*
X91893847Y-98356265D02*
X92084323Y-98403884D01*
X92084323Y-98403884D02*
X92179561Y-98451503D01*
X92179561Y-98451503D02*
X92274800Y-98546741D01*
X92274800Y-98546741D02*
X92322419Y-98689598D01*
X92322419Y-98689598D02*
X92322419Y-98784836D01*
X92322419Y-98784836D02*
X92274800Y-98927693D01*
X92274800Y-98927693D02*
X92227180Y-98975312D01*
X92227180Y-98975312D02*
X91893847Y-98975312D01*
X91893847Y-98975312D02*
X91893847Y-98784836D01*
X92322419Y-99403884D02*
X91322419Y-99403884D01*
X91322419Y-99403884D02*
X92322419Y-99975312D01*
X92322419Y-99975312D02*
X91322419Y-99975312D01*
X92322419Y-100451503D02*
X91322419Y-100451503D01*
X91322419Y-100451503D02*
X91322419Y-100689598D01*
X91322419Y-100689598D02*
X91370038Y-100832455D01*
X91370038Y-100832455D02*
X91465276Y-100927693D01*
X91465276Y-100927693D02*
X91560514Y-100975312D01*
X91560514Y-100975312D02*
X91750990Y-101022931D01*
X91750990Y-101022931D02*
X91893847Y-101022931D01*
X91893847Y-101022931D02*
X92084323Y-100975312D01*
X92084323Y-100975312D02*
X92179561Y-100927693D01*
X92179561Y-100927693D02*
X92274800Y-100832455D01*
X92274800Y-100832455D02*
X92322419Y-100689598D01*
X92322419Y-100689598D02*
X92322419Y-100451503D01*
X96472419Y-98461027D02*
X96472419Y-99032455D01*
X97472419Y-98746741D02*
X96472419Y-98746741D01*
X96472419Y-99270551D02*
X97472419Y-99937217D01*
X96472419Y-99937217D02*
X97472419Y-99270551D01*
D11*
X102242857Y-97859580D02*
X102290476Y-97907200D01*
X102290476Y-97907200D02*
X102433333Y-97954819D01*
X102433333Y-97954819D02*
X102528571Y-97954819D01*
X102528571Y-97954819D02*
X102671428Y-97907200D01*
X102671428Y-97907200D02*
X102766666Y-97811961D01*
X102766666Y-97811961D02*
X102814285Y-97716723D01*
X102814285Y-97716723D02*
X102861904Y-97526247D01*
X102861904Y-97526247D02*
X102861904Y-97383390D01*
X102861904Y-97383390D02*
X102814285Y-97192914D01*
X102814285Y-97192914D02*
X102766666Y-97097676D01*
X102766666Y-97097676D02*
X102671428Y-97002438D01*
X102671428Y-97002438D02*
X102528571Y-96954819D01*
X102528571Y-96954819D02*
X102433333Y-96954819D01*
X102433333Y-96954819D02*
X102290476Y-97002438D01*
X102290476Y-97002438D02*
X102242857Y-97050057D01*
X101861904Y-97050057D02*
X101814285Y-97002438D01*
X101814285Y-97002438D02*
X101719047Y-96954819D01*
X101719047Y-96954819D02*
X101480952Y-96954819D01*
X101480952Y-96954819D02*
X101385714Y-97002438D01*
X101385714Y-97002438D02*
X101338095Y-97050057D01*
X101338095Y-97050057D02*
X101290476Y-97145295D01*
X101290476Y-97145295D02*
X101290476Y-97240533D01*
X101290476Y-97240533D02*
X101338095Y-97383390D01*
X101338095Y-97383390D02*
X101909523Y-97954819D01*
X101909523Y-97954819D02*
X101290476Y-97954819D01*
X100719047Y-97383390D02*
X100814285Y-97335771D01*
X100814285Y-97335771D02*
X100861904Y-97288152D01*
X100861904Y-97288152D02*
X100909523Y-97192914D01*
X100909523Y-97192914D02*
X100909523Y-97145295D01*
X100909523Y-97145295D02*
X100861904Y-97050057D01*
X100861904Y-97050057D02*
X100814285Y-97002438D01*
X100814285Y-97002438D02*
X100719047Y-96954819D01*
X100719047Y-96954819D02*
X100528571Y-96954819D01*
X100528571Y-96954819D02*
X100433333Y-97002438D01*
X100433333Y-97002438D02*
X100385714Y-97050057D01*
X100385714Y-97050057D02*
X100338095Y-97145295D01*
X100338095Y-97145295D02*
X100338095Y-97192914D01*
X100338095Y-97192914D02*
X100385714Y-97288152D01*
X100385714Y-97288152D02*
X100433333Y-97335771D01*
X100433333Y-97335771D02*
X100528571Y-97383390D01*
X100528571Y-97383390D02*
X100719047Y-97383390D01*
X100719047Y-97383390D02*
X100814285Y-97431009D01*
X100814285Y-97431009D02*
X100861904Y-97478628D01*
X100861904Y-97478628D02*
X100909523Y-97573866D01*
X100909523Y-97573866D02*
X100909523Y-97764342D01*
X100909523Y-97764342D02*
X100861904Y-97859580D01*
X100861904Y-97859580D02*
X100814285Y-97907200D01*
X100814285Y-97907200D02*
X100719047Y-97954819D01*
X100719047Y-97954819D02*
X100528571Y-97954819D01*
X100528571Y-97954819D02*
X100433333Y-97907200D01*
X100433333Y-97907200D02*
X100385714Y-97859580D01*
X100385714Y-97859580D02*
X100338095Y-97764342D01*
X100338095Y-97764342D02*
X100338095Y-97573866D01*
X100338095Y-97573866D02*
X100385714Y-97478628D01*
X100385714Y-97478628D02*
X100433333Y-97431009D01*
X100433333Y-97431009D02*
X100528571Y-97383390D01*
X116666666Y-96404819D02*
X116999999Y-95928628D01*
X117238094Y-96404819D02*
X117238094Y-95404819D01*
X117238094Y-95404819D02*
X116857142Y-95404819D01*
X116857142Y-95404819D02*
X116761904Y-95452438D01*
X116761904Y-95452438D02*
X116714285Y-95500057D01*
X116714285Y-95500057D02*
X116666666Y-95595295D01*
X116666666Y-95595295D02*
X116666666Y-95738152D01*
X116666666Y-95738152D02*
X116714285Y-95833390D01*
X116714285Y-95833390D02*
X116761904Y-95881009D01*
X116761904Y-95881009D02*
X116857142Y-95928628D01*
X116857142Y-95928628D02*
X117238094Y-95928628D01*
X115809523Y-95404819D02*
X115999999Y-95404819D01*
X115999999Y-95404819D02*
X116095237Y-95452438D01*
X116095237Y-95452438D02*
X116142856Y-95500057D01*
X116142856Y-95500057D02*
X116238094Y-95642914D01*
X116238094Y-95642914D02*
X116285713Y-95833390D01*
X116285713Y-95833390D02*
X116285713Y-96214342D01*
X116285713Y-96214342D02*
X116238094Y-96309580D01*
X116238094Y-96309580D02*
X116190475Y-96357200D01*
X116190475Y-96357200D02*
X116095237Y-96404819D01*
X116095237Y-96404819D02*
X115904761Y-96404819D01*
X115904761Y-96404819D02*
X115809523Y-96357200D01*
X115809523Y-96357200D02*
X115761904Y-96309580D01*
X115761904Y-96309580D02*
X115714285Y-96214342D01*
X115714285Y-96214342D02*
X115714285Y-95976247D01*
X115714285Y-95976247D02*
X115761904Y-95881009D01*
X115761904Y-95881009D02*
X115809523Y-95833390D01*
X115809523Y-95833390D02*
X115904761Y-95785771D01*
X115904761Y-95785771D02*
X116095237Y-95785771D01*
X116095237Y-95785771D02*
X116190475Y-95833390D01*
X116190475Y-95833390D02*
X116238094Y-95881009D01*
X116238094Y-95881009D02*
X116285713Y-95976247D01*
X105966666Y-96754819D02*
X106299999Y-96278628D01*
X106538094Y-96754819D02*
X106538094Y-95754819D01*
X106538094Y-95754819D02*
X106157142Y-95754819D01*
X106157142Y-95754819D02*
X106061904Y-95802438D01*
X106061904Y-95802438D02*
X106014285Y-95850057D01*
X106014285Y-95850057D02*
X105966666Y-95945295D01*
X105966666Y-95945295D02*
X105966666Y-96088152D01*
X105966666Y-96088152D02*
X106014285Y-96183390D01*
X106014285Y-96183390D02*
X106061904Y-96231009D01*
X106061904Y-96231009D02*
X106157142Y-96278628D01*
X106157142Y-96278628D02*
X106538094Y-96278628D01*
X105490475Y-96754819D02*
X105299999Y-96754819D01*
X105299999Y-96754819D02*
X105204761Y-96707200D01*
X105204761Y-96707200D02*
X105157142Y-96659580D01*
X105157142Y-96659580D02*
X105061904Y-96516723D01*
X105061904Y-96516723D02*
X105014285Y-96326247D01*
X105014285Y-96326247D02*
X105014285Y-95945295D01*
X105014285Y-95945295D02*
X105061904Y-95850057D01*
X105061904Y-95850057D02*
X105109523Y-95802438D01*
X105109523Y-95802438D02*
X105204761Y-95754819D01*
X105204761Y-95754819D02*
X105395237Y-95754819D01*
X105395237Y-95754819D02*
X105490475Y-95802438D01*
X105490475Y-95802438D02*
X105538094Y-95850057D01*
X105538094Y-95850057D02*
X105585713Y-95945295D01*
X105585713Y-95945295D02*
X105585713Y-96183390D01*
X105585713Y-96183390D02*
X105538094Y-96278628D01*
X105538094Y-96278628D02*
X105490475Y-96326247D01*
X105490475Y-96326247D02*
X105395237Y-96373866D01*
X105395237Y-96373866D02*
X105204761Y-96373866D01*
X105204761Y-96373866D02*
X105109523Y-96326247D01*
X105109523Y-96326247D02*
X105061904Y-96278628D01*
X105061904Y-96278628D02*
X105014285Y-96183390D01*
X106366666Y-101959580D02*
X106414285Y-102007200D01*
X106414285Y-102007200D02*
X106557142Y-102054819D01*
X106557142Y-102054819D02*
X106652380Y-102054819D01*
X106652380Y-102054819D02*
X106795237Y-102007200D01*
X106795237Y-102007200D02*
X106890475Y-101911961D01*
X106890475Y-101911961D02*
X106938094Y-101816723D01*
X106938094Y-101816723D02*
X106985713Y-101626247D01*
X106985713Y-101626247D02*
X106985713Y-101483390D01*
X106985713Y-101483390D02*
X106938094Y-101292914D01*
X106938094Y-101292914D02*
X106890475Y-101197676D01*
X106890475Y-101197676D02*
X106795237Y-101102438D01*
X106795237Y-101102438D02*
X106652380Y-101054819D01*
X106652380Y-101054819D02*
X106557142Y-101054819D01*
X106557142Y-101054819D02*
X106414285Y-101102438D01*
X106414285Y-101102438D02*
X106366666Y-101150057D01*
X105414285Y-102054819D02*
X105985713Y-102054819D01*
X105699999Y-102054819D02*
X105699999Y-101054819D01*
X105699999Y-101054819D02*
X105795237Y-101197676D01*
X105795237Y-101197676D02*
X105890475Y-101292914D01*
X105890475Y-101292914D02*
X105985713Y-101340533D01*
X107476190Y-99878628D02*
X107476190Y-100354819D01*
X107809523Y-99354819D02*
X107476190Y-99878628D01*
X107476190Y-99878628D02*
X107142857Y-99354819D01*
X106904761Y-99354819D02*
X106285714Y-99354819D01*
X106285714Y-99354819D02*
X106619047Y-99735771D01*
X106619047Y-99735771D02*
X106476190Y-99735771D01*
X106476190Y-99735771D02*
X106380952Y-99783390D01*
X106380952Y-99783390D02*
X106333333Y-99831009D01*
X106333333Y-99831009D02*
X106285714Y-99926247D01*
X106285714Y-99926247D02*
X106285714Y-100164342D01*
X106285714Y-100164342D02*
X106333333Y-100259580D01*
X106333333Y-100259580D02*
X106380952Y-100307200D01*
X106380952Y-100307200D02*
X106476190Y-100354819D01*
X106476190Y-100354819D02*
X106761904Y-100354819D01*
X106761904Y-100354819D02*
X106857142Y-100307200D01*
X106857142Y-100307200D02*
X106904761Y-100259580D01*
X114966666Y-93954819D02*
X115299999Y-93478628D01*
X115538094Y-93954819D02*
X115538094Y-92954819D01*
X115538094Y-92954819D02*
X115157142Y-92954819D01*
X115157142Y-92954819D02*
X115061904Y-93002438D01*
X115061904Y-93002438D02*
X115014285Y-93050057D01*
X115014285Y-93050057D02*
X114966666Y-93145295D01*
X114966666Y-93145295D02*
X114966666Y-93288152D01*
X114966666Y-93288152D02*
X115014285Y-93383390D01*
X115014285Y-93383390D02*
X115061904Y-93431009D01*
X115061904Y-93431009D02*
X115157142Y-93478628D01*
X115157142Y-93478628D02*
X115538094Y-93478628D01*
X114633332Y-92954819D02*
X113966666Y-92954819D01*
X113966666Y-92954819D02*
X114395237Y-93954819D01*
X105916666Y-94404819D02*
X106249999Y-93928628D01*
X106488094Y-94404819D02*
X106488094Y-93404819D01*
X106488094Y-93404819D02*
X106107142Y-93404819D01*
X106107142Y-93404819D02*
X106011904Y-93452438D01*
X106011904Y-93452438D02*
X105964285Y-93500057D01*
X105964285Y-93500057D02*
X105916666Y-93595295D01*
X105916666Y-93595295D02*
X105916666Y-93738152D01*
X105916666Y-93738152D02*
X105964285Y-93833390D01*
X105964285Y-93833390D02*
X106011904Y-93881009D01*
X106011904Y-93881009D02*
X106107142Y-93928628D01*
X106107142Y-93928628D02*
X106488094Y-93928628D01*
X105345237Y-93833390D02*
X105440475Y-93785771D01*
X105440475Y-93785771D02*
X105488094Y-93738152D01*
X105488094Y-93738152D02*
X105535713Y-93642914D01*
X105535713Y-93642914D02*
X105535713Y-93595295D01*
X105535713Y-93595295D02*
X105488094Y-93500057D01*
X105488094Y-93500057D02*
X105440475Y-93452438D01*
X105440475Y-93452438D02*
X105345237Y-93404819D01*
X105345237Y-93404819D02*
X105154761Y-93404819D01*
X105154761Y-93404819D02*
X105059523Y-93452438D01*
X105059523Y-93452438D02*
X105011904Y-93500057D01*
X105011904Y-93500057D02*
X104964285Y-93595295D01*
X104964285Y-93595295D02*
X104964285Y-93642914D01*
X104964285Y-93642914D02*
X105011904Y-93738152D01*
X105011904Y-93738152D02*
X105059523Y-93785771D01*
X105059523Y-93785771D02*
X105154761Y-93833390D01*
X105154761Y-93833390D02*
X105345237Y-93833390D01*
X105345237Y-93833390D02*
X105440475Y-93881009D01*
X105440475Y-93881009D02*
X105488094Y-93928628D01*
X105488094Y-93928628D02*
X105535713Y-94023866D01*
X105535713Y-94023866D02*
X105535713Y-94214342D01*
X105535713Y-94214342D02*
X105488094Y-94309580D01*
X105488094Y-94309580D02*
X105440475Y-94357200D01*
X105440475Y-94357200D02*
X105345237Y-94404819D01*
X105345237Y-94404819D02*
X105154761Y-94404819D01*
X105154761Y-94404819D02*
X105059523Y-94357200D01*
X105059523Y-94357200D02*
X105011904Y-94309580D01*
X105011904Y-94309580D02*
X104964285Y-94214342D01*
X104964285Y-94214342D02*
X104964285Y-94023866D01*
X104964285Y-94023866D02*
X105011904Y-93928628D01*
X105011904Y-93928628D02*
X105059523Y-93881009D01*
X105059523Y-93881009D02*
X105154761Y-93833390D01*
X116061904Y-97954819D02*
X116061904Y-98764342D01*
X116061904Y-98764342D02*
X116014285Y-98859580D01*
X116014285Y-98859580D02*
X115966666Y-98907200D01*
X115966666Y-98907200D02*
X115871428Y-98954819D01*
X115871428Y-98954819D02*
X115680952Y-98954819D01*
X115680952Y-98954819D02*
X115585714Y-98907200D01*
X115585714Y-98907200D02*
X115538095Y-98859580D01*
X115538095Y-98859580D02*
X115490476Y-98764342D01*
X115490476Y-98764342D02*
X115490476Y-97954819D01*
X114585714Y-98288152D02*
X114585714Y-98954819D01*
X114823809Y-97907200D02*
X115061904Y-98621485D01*
X115061904Y-98621485D02*
X114442857Y-98621485D01*
X110572112Y-104236411D02*
X110639456Y-104236411D01*
X110639456Y-104236411D02*
X110774143Y-104169067D01*
X110774143Y-104169067D02*
X110841486Y-104101724D01*
X110841486Y-104101724D02*
X110908830Y-103967037D01*
X110908830Y-103967037D02*
X110908830Y-103832350D01*
X110908830Y-103832350D02*
X110875158Y-103731335D01*
X110875158Y-103731335D02*
X110774143Y-103562976D01*
X110774143Y-103562976D02*
X110673128Y-103461961D01*
X110673128Y-103461961D02*
X110504769Y-103360945D01*
X110504769Y-103360945D02*
X110403754Y-103327274D01*
X110403754Y-103327274D02*
X110269067Y-103327274D01*
X110269067Y-103327274D02*
X110134380Y-103394617D01*
X110134380Y-103394617D02*
X110067036Y-103461961D01*
X110067036Y-103461961D02*
X109999693Y-103596648D01*
X109999693Y-103596648D02*
X109999693Y-103663991D01*
X109292586Y-104236411D02*
X109629303Y-103899693D01*
X109629303Y-103899693D02*
X109999693Y-104202739D01*
X109999693Y-104202739D02*
X109932349Y-104202739D01*
X109932349Y-104202739D02*
X109831334Y-104236411D01*
X109831334Y-104236411D02*
X109662975Y-104404770D01*
X109662975Y-104404770D02*
X109629303Y-104505785D01*
X109629303Y-104505785D02*
X109629303Y-104573128D01*
X109629303Y-104573128D02*
X109662975Y-104674144D01*
X109662975Y-104674144D02*
X109831334Y-104842502D01*
X109831334Y-104842502D02*
X109932349Y-104876174D01*
X109932349Y-104876174D02*
X109999693Y-104876174D01*
X109999693Y-104876174D02*
X110100708Y-104842502D01*
X110100708Y-104842502D02*
X110269067Y-104674144D01*
X110269067Y-104674144D02*
X110302738Y-104573128D01*
X110302738Y-104573128D02*
X110302738Y-104505785D01*
X112566666Y-91959580D02*
X112614285Y-92007200D01*
X112614285Y-92007200D02*
X112757142Y-92054819D01*
X112757142Y-92054819D02*
X112852380Y-92054819D01*
X112852380Y-92054819D02*
X112995237Y-92007200D01*
X112995237Y-92007200D02*
X113090475Y-91911961D01*
X113090475Y-91911961D02*
X113138094Y-91816723D01*
X113138094Y-91816723D02*
X113185713Y-91626247D01*
X113185713Y-91626247D02*
X113185713Y-91483390D01*
X113185713Y-91483390D02*
X113138094Y-91292914D01*
X113138094Y-91292914D02*
X113090475Y-91197676D01*
X113090475Y-91197676D02*
X112995237Y-91102438D01*
X112995237Y-91102438D02*
X112852380Y-91054819D01*
X112852380Y-91054819D02*
X112757142Y-91054819D01*
X112757142Y-91054819D02*
X112614285Y-91102438D01*
X112614285Y-91102438D02*
X112566666Y-91150057D01*
X112090475Y-92054819D02*
X111899999Y-92054819D01*
X111899999Y-92054819D02*
X111804761Y-92007200D01*
X111804761Y-92007200D02*
X111757142Y-91959580D01*
X111757142Y-91959580D02*
X111661904Y-91816723D01*
X111661904Y-91816723D02*
X111614285Y-91626247D01*
X111614285Y-91626247D02*
X111614285Y-91245295D01*
X111614285Y-91245295D02*
X111661904Y-91150057D01*
X111661904Y-91150057D02*
X111709523Y-91102438D01*
X111709523Y-91102438D02*
X111804761Y-91054819D01*
X111804761Y-91054819D02*
X111995237Y-91054819D01*
X111995237Y-91054819D02*
X112090475Y-91102438D01*
X112090475Y-91102438D02*
X112138094Y-91150057D01*
X112138094Y-91150057D02*
X112185713Y-91245295D01*
X112185713Y-91245295D02*
X112185713Y-91483390D01*
X112185713Y-91483390D02*
X112138094Y-91578628D01*
X112138094Y-91578628D02*
X112090475Y-91626247D01*
X112090475Y-91626247D02*
X111995237Y-91673866D01*
X111995237Y-91673866D02*
X111804761Y-91673866D01*
X111804761Y-91673866D02*
X111709523Y-91626247D01*
X111709523Y-91626247D02*
X111661904Y-91578628D01*
X111661904Y-91578628D02*
X111614285Y-91483390D01*
D12*
%TO.C,C28*%
X104740580Y-96990000D02*
X104459420Y-96990000D01*
X104740580Y-98010000D02*
X104459420Y-98010000D01*
%TO.C,R6*%
X114670000Y-96053641D02*
X114670000Y-95746359D01*
X115430000Y-96053641D02*
X115430000Y-95746359D01*
%TO.C,R2*%
X101370000Y-84493641D02*
X101370000Y-84186359D01*
X102130000Y-84493641D02*
X102130000Y-84186359D01*
%TO.C,R9*%
X106911600Y-95722381D02*
X106911600Y-95415099D01*
X107671600Y-95722381D02*
X107671600Y-95415099D01*
%TO.C,R20*%
X115577959Y-80893300D02*
X115885241Y-80893300D01*
X115577959Y-81653300D02*
X115885241Y-81653300D01*
%TO.C,C1*%
X107240000Y-101442164D02*
X107240000Y-101657836D01*
X107960000Y-101442164D02*
X107960000Y-101657836D01*
%TO.C,R1*%
X108910241Y-82403300D02*
X108602959Y-82403300D01*
X108910241Y-83163300D02*
X108602959Y-83163300D01*
%TO.C,R18*%
X102470000Y-84503641D02*
X102470000Y-84196359D01*
X103230000Y-84503641D02*
X103230000Y-84196359D01*
%TO.C,J1*%
X100400000Y-77620000D02*
X100400000Y-75840000D01*
X102300000Y-80540000D02*
X101500000Y-80540000D01*
X109800000Y-77620000D02*
X109800000Y-75840000D01*
%TO.C,C8*%
X112471600Y-84155464D02*
X112471600Y-84371136D01*
X113191600Y-84155464D02*
X113191600Y-84371136D01*
%TO.C,R27*%
X104239940Y-98922659D02*
X104022659Y-99139940D01*
X104777341Y-99460060D02*
X104560060Y-99677341D01*
%TO.C,D4*%
X117656600Y-85633300D02*
X117656600Y-80123300D01*
X120956600Y-85633300D02*
X117656600Y-85633300D01*
X120956600Y-85633300D02*
X120956600Y-80123300D01*
%TO.C,Q1*%
X115359100Y-82213300D02*
X114709100Y-82213300D01*
X115359100Y-82213300D02*
X116009100Y-82213300D01*
X115359100Y-85333300D02*
X114709100Y-85333300D01*
X115359100Y-85333300D02*
X116009100Y-85333300D01*
X116521600Y-82263300D02*
X116281600Y-81933300D01*
X116761600Y-81933300D01*
X116521600Y-82263300D01*
G36*
X116521600Y-82263300D02*
G01*
X116281600Y-81933300D01*
X116761600Y-81933300D01*
X116521600Y-82263300D01*
G37*
%TO.C,C2*%
X111109100Y-86602964D02*
X111109100Y-86818636D01*
X111829100Y-86602964D02*
X111829100Y-86818636D01*
%TO.C,R17*%
X107793641Y-81020000D02*
X107486359Y-81020000D01*
X107793641Y-81780000D02*
X107486359Y-81780000D01*
%TO.C,Y3*%
X110866600Y-99893740D02*
X109516600Y-99893740D01*
X110866600Y-101643740D02*
X109516600Y-101643740D01*
%TO.C,R19*%
X116207959Y-85833300D02*
X116515241Y-85833300D01*
X116207959Y-86593300D02*
X116515241Y-86593300D01*
%TO.C,C36*%
X105704436Y-85853300D02*
X105488764Y-85853300D01*
X105704436Y-86573300D02*
X105488764Y-86573300D01*
%TO.C,C16*%
X115136600Y-79581136D02*
X115136600Y-79365464D01*
X115856600Y-79581136D02*
X115856600Y-79365464D01*
%TO.C,D1*%
X103679100Y-83568300D02*
X105964100Y-83568300D01*
X103679100Y-85038300D02*
X103679100Y-83568300D01*
X105964100Y-85038300D02*
X103679100Y-85038300D01*
%TO.C,R12*%
X114177959Y-85823300D02*
X114485241Y-85823300D01*
X114177959Y-86583300D02*
X114485241Y-86583300D01*
%TO.C,R7*%
X112855241Y-93088740D02*
X112547959Y-93088740D01*
X112855241Y-93848740D02*
X112547959Y-93848740D01*
%TO.C,R8*%
X108053641Y-93620000D02*
X107746359Y-93620000D01*
X108053641Y-94380000D02*
X107746359Y-94380000D01*
%TO.C,U3*%
X108796600Y-83710800D02*
X107996600Y-83710800D01*
X108796600Y-83710800D02*
X109596600Y-83710800D01*
X108796600Y-86830800D02*
X107996600Y-86830800D01*
X108796600Y-86830800D02*
X109596600Y-86830800D01*
X110096600Y-83760800D02*
X109856600Y-83430800D01*
X110336600Y-83430800D01*
X110096600Y-83760800D01*
G36*
X110096600Y-83760800D02*
G01*
X109856600Y-83430800D01*
X110336600Y-83430800D01*
X110096600Y-83760800D01*
G37*
%TO.C,C6*%
X116336600Y-79571136D02*
X116336600Y-79355464D01*
X117056600Y-79571136D02*
X117056600Y-79355464D01*
%TO.C,R15*%
X111069100Y-83904441D02*
X111069100Y-83597159D01*
X111829100Y-83904441D02*
X111829100Y-83597159D01*
%TO.C,R14*%
X102846359Y-81020000D02*
X103153641Y-81020000D01*
X102846359Y-81780000D02*
X103153641Y-81780000D01*
%TO.C,U4*%
X108481600Y-94831240D02*
X108481600Y-95091240D01*
X108481600Y-94831240D02*
X108741600Y-94831240D01*
X113901600Y-94831240D02*
X113641600Y-94831240D01*
X113901600Y-94831240D02*
X113901600Y-95091240D01*
X113901600Y-98851240D02*
X113641600Y-98851240D01*
X113901600Y-98851240D02*
X113901600Y-98591240D01*
D10*
X108481600Y-99211240D02*
X108121600Y-98851240D01*
X108481600Y-98851240D01*
X108481600Y-99211240D01*
G36*
X108481600Y-99211240D02*
G01*
X108121600Y-98851240D01*
X108481600Y-98851240D01*
X108481600Y-99211240D01*
G37*
D12*
%TO.C,C22*%
X121536600Y-79571136D02*
X121536600Y-79355464D01*
X122256600Y-79571136D02*
X122256600Y-79355464D01*
%TO.C,C5*%
X109021693Y-102719190D02*
X108869190Y-102871693D01*
X109530810Y-103228307D02*
X109378307Y-103380810D01*
%TO.C,C9*%
X109981600Y-92309320D02*
X109981600Y-92028160D01*
X111001600Y-92309320D02*
X111001600Y-92028160D01*
%TD*%
M02*
