M48
; DRILL file {KiCad 9.0.4} date 2025-09-22T18:44:03+0200
; FORMAT={-:-/ absolute / metric / decimal}
; #@! TF.CreationDate,2025-09-22T18:44:03+02:00
; #@! TF.GenerationSoftware,Kicad,Pcbnew,9.0.4
; #@! TF.FileFunction,Plated,1,6,PTH
FMAT,2
METRIC
; #@! TA.AperFunction,Plated,PTH,ViaDrill
T1C0.300
; #@! TA.AperFunction,Plated,PTH,ComponentDrill
T2C0.300
; #@! TA.AperFunction,Plated,PTH,ViaDrill
T3C0.400
; #@! TA.AperFunction,Plated,PTH,ComponentDrill
T4C0.600
; #@! TA.AperFunction,Plated,PTH,ComponentDrill
T5C1.000
%
G90
G05
T1
X95.942Y-86.343
X97.442Y-86.143
X98.135Y-90.0
X98.36Y-90.78
X100.8Y-81.2
X101.117Y-92.21
X101.75Y-84.85
X101.75Y-115.4
X101.85Y-88.61
X102.462Y-91.65
X102.62Y-101.75
X102.65Y-114.85
X102.85Y-84.86
X102.85Y-96.6
X103.25Y-88.8
X103.55Y-115.1
X104.152Y-86.133
X104.575Y-80.875
X104.835Y-108.33
X104.85Y-114.75
X104.875Y-101.33
X105.0Y-94.9
X105.112Y-85.323
X105.14Y-92.4
X105.15Y-87.25
X105.2Y-113.7
X105.5Y-115.15
X105.905Y-108.22
X106.05Y-80.8
X106.299Y-91.249
X106.3Y-95.25
X106.45Y-98.85
X106.6Y-88.45
X106.6Y-114.55
X106.617Y-83.043
X107.025Y-110.275
X107.05Y-74.85
X107.092Y-97.769
X107.155Y-91.53
X107.35Y-115.1
X107.6Y-113.75
X107.65Y-106.2
X107.665Y-98.52
X107.85Y-99.3
X107.85Y-100.25
X107.985Y-97.63
X108.45Y-115.1
X108.6Y-113.65
X108.732Y-83.796
X108.782Y-85.283
X108.85Y-89.552
X109.3Y-114.6
X110.0Y-96.097
X110.25Y-113.55
X110.5Y-114.55
X110.542Y-87.223
X110.55Y-90.52
X111.05Y-113.2
X111.102Y-85.273
X111.15Y-78.9
X111.55Y-114.6
X111.91Y-110.2
X111.962Y-85.123
X112.01Y-108.26
X112.05Y-113.35
X112.2Y-79.55
X112.42Y-103.45
X112.45Y-100.15
X112.5Y-114.6
X112.552Y-87.203
X112.64Y-99.4
X112.929Y-106.708
X113.36Y-103.34
X113.4Y-102.02
X113.41Y-100.49
X113.44Y-99.4
X113.5Y-74.6
X113.5Y-114.65
X113.525Y-110.12
X113.652Y-79.943
X113.665Y-108.2
X114.05Y-113.2
X114.172Y-81.243
X114.19Y-99.42
X114.39Y-108.77
X114.45Y-114.6
X114.543Y-104.421
X114.765Y-101.93
X114.78Y-100.48
X114.813Y-106.461
X114.83Y-103.33
X115.11Y-108.13
X115.142Y-82.443
X115.315Y-104.46
X115.502Y-78.023
X115.517Y-97.19
X115.625Y-92.435
X115.85Y-86.2
X115.9Y-113.05
X116.1Y-114.6
X116.18Y-101.93
X116.19Y-103.31
X116.22Y-100.5
X116.652Y-77.993
X116.842Y-85.483
X117.07Y-108.58
X117.25Y-99.35
X117.25Y-112.8
X117.3Y-89.8
X117.35Y-114.4
X117.365Y-104.4
X117.445Y-106.3
X117.832Y-78.953
X117.84Y-109.22
X118.332Y-105.082
X118.45Y-112.7
X118.7Y-114.3
X118.752Y-97.846
X119.307Y-84.123
X119.47Y-110.22
X119.73Y-114.38
X119.74Y-95.84
X119.79Y-108.36
X119.82Y-109.46
X119.985Y-107.27
X120.07Y-112.42
X120.14Y-102.01
X120.37Y-104.55
X120.53Y-97.98
X120.54Y-107.8
X120.56Y-108.9
X120.73Y-114.68
X120.78Y-88.24
X120.8Y-86.35
X120.89Y-111.62
X120.93Y-113.48
X121.01Y-105.25
X121.092Y-78.943
X121.14Y-112.37
X121.33Y-114.08
X121.475Y-99.53
X121.508Y-91.73
X121.57Y-104.67
X121.7Y-111.6
X121.72Y-113.17
X121.792Y-94.6
X121.85Y-88.12
X121.912Y-78.003
X122.15Y-104.02
X122.15Y-106.022
X122.412Y-80.973
X122.44Y-107.21
X122.56Y-99.65
X122.6Y-95.8
X122.6Y-109.33
X122.85Y-87.499
X122.85Y-88.5
X122.92Y-103.527
X122.92Y-104.528
X122.92Y-105.529
X122.97Y-100.51
X123.01Y-106.56
X123.18Y-94.34
X123.35Y-97.47
X123.36Y-108.27
X123.38Y-98.64
X123.45Y-93.5
X123.73Y-110.48
X123.74Y-88.98
X123.79Y-100.024
X123.79Y-101.025
X123.79Y-104.029
X123.8Y-112.054
X123.8Y-113.055
X123.8Y-114.057
X123.8Y-115.058
X123.83Y-107.048
X123.83Y-109.05
X123.95Y-98.02
X124.03Y-107.96
X124.38Y-112.51
X124.68Y-88.476
X124.68Y-89.477
X124.68Y-90.478
X124.68Y-92.48
X124.68Y-93.482
X124.68Y-94.483
X124.68Y-100.49
X124.68Y-101.491
X124.68Y-102.492
X124.68Y-103.493
X124.68Y-108.499
X124.68Y-113.89
X124.68Y-114.795
X124.73Y-110.48
X124.73Y-111.62
X125.44Y-95.95
X125.838Y-98.862
X126.007Y-94.75
X126.65Y-91.55
X129.782Y-96.048
X130.925Y-96.385
T2
X124.53Y-115.68
T3
X93.322Y-103.482
X93.952Y-104.112
X94.591Y-104.751
X96.11Y-111.998
X96.187Y-89.487
X96.48Y-111.148
X96.684Y-80.417
X96.762Y-90.803
X97.331Y-79.77
X97.964Y-79.137
X123.876Y-77.794
X124.719Y-77.794
X125.613Y-77.794
X126.68Y-80.508
X126.8Y-110.348
X126.812Y-108.624
X126.812Y-109.481
X126.812Y-111.668
X126.85Y-115.3
X127.07Y-79.588
X127.32Y-78.598
X127.94Y-112.978
T5
X89.256Y-75.894
X89.448Y-116.448
X91.052Y-74.098
X91.244Y-118.244
X91.76Y-93.485
X91.76Y-96.025
X94.3Y-93.485
X94.3Y-96.025
X96.84Y-93.485
X96.84Y-96.025
X131.506Y-118.594
X131.998Y-73.898
X133.302Y-116.798
X133.794Y-75.694
T4
X100.78Y-74.465G85X100.78Y-75.065
G05
X100.78Y-78.395G85X100.78Y-79.495
G05
X109.42Y-74.465G85X109.42Y-75.065
G05
X109.42Y-78.395G85X109.42Y-79.495
G05
M30
