%TF.GenerationSoftware,KiCad,Pcbnew,9.0.4*%
%TF.CreationDate,2025-09-22T18:44:01+02:00*%
%TF.ProjectId,esp32_mine,65737033-325f-46d6-996e-652e6b696361,rev?*%
%TF.SameCoordinates,Original*%
%TF.FileFunction,Profile,NP*%
%FSLAX46Y46*%
G04 Gerber Fmt 4.6, Leading zero omitted, Abs format (unit mm)*
G04 Created by KiCad (PCBNEW 9.0.4) date 2025-09-22 18:44:01*
%MOMM*%
%LPD*%
G01*
G04 APERTURE LIST*
%TA.AperFunction,Profile*%
%ADD10C,0.025400*%
%TD*%
%TA.AperFunction,Profile*%
%ADD11C,0.050000*%
%TD*%
G04 APERTURE END LIST*
D10*
X143813280Y-91592150D02*
G75*
G02*
X143313150Y-91092020I20J500150D01*
G01*
X81455770Y-104361750D02*
X81455770Y-98361760D01*
X70343270Y-60462160D02*
G75*
G02*
X63001988Y-53043564I-915870J6435360D01*
G01*
X63841380Y-91592150D02*
G75*
G02*
X63341250Y-91092020I20J500150D01*
G01*
X144863310Y-90292180D02*
X144863310Y-88341970D01*
X76132180Y-104711760D02*
G75*
G02*
X76632050Y-104211880I499920J-40D01*
G01*
X79541620Y-100961700D02*
X79541620Y-101261680D01*
X65721990Y-146026890D02*
X66733170Y-145015720D01*
X73611990Y-52667160D02*
G75*
G02*
X70779668Y-49839795I-4184650J-1359660D01*
G01*
X95166940Y-73526910D02*
X76502770Y-56721510D01*
X150161828Y-78157565D02*
G75*
G02*
X147773757Y-74918394I-28J2499865D01*
G01*
X159854390Y-53055020D02*
G75*
G02*
X152500329Y-60460391I-6426990J-971780D01*
G01*
X149241760Y-52669700D02*
X147640040Y-51067970D01*
X64891410Y-101761800D02*
X63841380Y-101761800D01*
X73420220Y-66194440D02*
X69462650Y-66194440D01*
X156121610Y-47038010D02*
G75*
G02*
X154404834Y-47600776I-1414210J1414210D01*
G01*
X152622809Y-113864150D02*
G75*
G02*
X155010861Y-117103315I-109J-2499950D01*
G01*
X77991460Y-101761800D02*
X77991460Y-103711760D01*
X148079210Y-131740910D02*
G75*
G02*
X148060934Y-132093459I-186310J-167090D01*
G01*
X146993859Y-54953920D02*
G75*
G02*
X146352120Y-56721634I-1980159J-281480D01*
G01*
X141399010Y-98361760D02*
G75*
G02*
X141899130Y-97861610I500190J-40D01*
G01*
X79132180Y-81418940D02*
X79132180Y-77954380D01*
X79132180Y-114099340D02*
G75*
G02*
X78998050Y-114986384I-3000480J40D01*
G01*
X146568670Y-68307460D02*
G75*
G02*
X149434300Y-66194650I2865630J-886940D01*
G01*
X63841380Y-100461830D02*
X64491620Y-100461830D01*
X61927490Y-94192090D02*
X62491620Y-94192090D01*
X76286110Y-123746520D02*
X78997810Y-114986310D01*
X157463240Y-104211630D02*
X156603700Y-104211630D01*
X78611109Y-63772616D02*
G75*
G02*
X78258617Y-63790831I-185409J168216D01*
G01*
X143722600Y-77954380D02*
X143722600Y-81418940D01*
X78997810Y-77067410D02*
G75*
G02*
X79131925Y-77954380I-2865410J-886890D01*
G01*
X79194998Y-62854278D02*
G75*
G02*
X79176624Y-63206995I-186498J-167122D01*
G01*
X79173136Y-128843141D02*
X78606129Y-128276031D01*
X152504140Y-131592830D02*
G75*
G02*
X150732622Y-130951585I-285240J1979630D01*
G01*
X63750950Y-86691980D02*
G75*
G02*
X63250830Y-87192050I-500050J-20D01*
G01*
X159603690Y-104861620D02*
X160927290Y-104861620D01*
X153392120Y-66194440D02*
G75*
G02*
X156258202Y-68307320I-20J-3000360D01*
G01*
X161427410Y-141732260D02*
X160416240Y-140721080D01*
X61967620Y-144567150D02*
X63140840Y-143393930D01*
X159427420Y-146026890D02*
X159967680Y-145486630D01*
X152622809Y-113864150D02*
X150172809Y-113864150D01*
X154999880Y-74918400D02*
G75*
G02*
X152611828Y-78157503I-2387980J-739300D01*
G01*
X70784470Y-49841410D02*
X72386440Y-48239430D01*
X74793600Y-132093470D02*
G75*
G02*
X74775315Y-131740915I168100J185470D01*
G01*
X159103820Y-105361740D02*
G75*
G02*
X159603690Y-104861920I499780J40D01*
G01*
X63750950Y-77954380D02*
X63750950Y-86691980D01*
X78997810Y-77067410D02*
X76286110Y-68307460D01*
X61427360Y-141732260D02*
X61427360Y-144026890D01*
X156103830Y-82691990D02*
X156103830Y-87341970D01*
X65391540Y-87842090D02*
X66250820Y-87842090D01*
X64491620Y-92192100D02*
G75*
G02*
X62491620Y-94192020I-1999920J0D01*
G01*
X155603700Y-109861610D02*
X147222720Y-109861610D01*
X146722590Y-87341970D02*
G75*
G02*
X146222720Y-87841890I-499790J-130D01*
G01*
X145363180Y-87842090D02*
X146222720Y-87842090D01*
X125490000Y-118510000D02*
X127687830Y-118526820D01*
X156121610Y-145015720D02*
X157132780Y-146026890D01*
X159967680Y-46567350D02*
X159427420Y-46026840D01*
X78091540Y-92691970D02*
X79591410Y-94192090D01*
X66750950Y-82691990D02*
G75*
G02*
X67250820Y-82192050I499950J-10D01*
G01*
X159513270Y-90792050D02*
X159513270Y-91092020D01*
X156257750Y-123746260D02*
G75*
G02*
X153392120Y-125859050I-2865550J886860D01*
G01*
X159967680Y-145486630D02*
X158794450Y-144313410D01*
X160927290Y-87192110D02*
X159603690Y-87192110D01*
D11*
X109650000Y-121450000D02*
X125500001Y-121400289D01*
D10*
X146722590Y-109361740D02*
X146722590Y-104711760D01*
X75713390Y-132678985D02*
X79191376Y-129195656D01*
X150476460Y-48235370D02*
G75*
G02*
X154410655Y-47601668I2951040J-5791730D01*
G01*
X147222720Y-82192120D02*
X155603700Y-82192120D01*
X62438530Y-140721080D02*
X61427360Y-141732260D01*
X76632050Y-87842090D02*
G75*
G02*
X76131910Y-87341970I50J500190D01*
G01*
X149434300Y-125859290D02*
G75*
G02*
X146568446Y-123746329I0J2999990D01*
G01*
X76502770Y-56721510D02*
G75*
G02*
X75861573Y-54950132I1338130J1486110D01*
G01*
X63341500Y-101261680D02*
X63341500Y-100961700D01*
X160927290Y-97861630D02*
X160363150Y-97861630D01*
X63341500Y-91092020D02*
X63341500Y-90792050D01*
X63000380Y-138998960D02*
G75*
G02*
X70354442Y-131593324I6426920J972080D01*
G01*
X143722600Y-110634780D02*
X143722600Y-114099340D01*
X141399010Y-98361760D02*
X141399010Y-104361750D01*
X75052932Y-117127565D02*
X73964880Y-120864467D01*
X66250820Y-104211630D02*
X65391540Y-104211630D01*
X63750950Y-77954380D02*
G75*
G02*
X63885066Y-77067412I3000150J-20D01*
G01*
X143681694Y-63210884D02*
X144248701Y-63777994D01*
X150232806Y-121783785D02*
X152622813Y-121783785D01*
X81455770Y-93691970D02*
G75*
G02*
X80955640Y-94192070I-500070J-30D01*
G01*
X143313150Y-91092020D02*
X143313150Y-90792050D01*
X78091540Y-99361760D02*
X78091540Y-100461830D01*
X159513270Y-91092020D02*
G75*
G02*
X159013140Y-91592170I-500170J20D01*
G01*
X73612760Y-139384030D02*
X75214730Y-140986010D01*
X133927340Y-81418940D02*
X133927340Y-79766420D01*
X63841380Y-101761800D02*
G75*
G02*
X63341200Y-101261680I20J500200D01*
G01*
X74775310Y-60312810D02*
G75*
G02*
X74793566Y-59960223I186490J167110D01*
G01*
X70309880Y-78178270D02*
G75*
G02*
X67921846Y-74939111I20J2499870D01*
G01*
X103777290Y-73526910D02*
X95166940Y-73526910D01*
X77491590Y-87842090D02*
G75*
G02*
X77991510Y-88341970I10J-499910D01*
G01*
X159013140Y-101761800D02*
X157963110Y-101761800D01*
X72122030Y-61102240D02*
X88927430Y-79766420D01*
X79591410Y-94192090D02*
X80955640Y-94192090D01*
X61427360Y-87691980D02*
G75*
G02*
X61927490Y-87191860I500140J-20D01*
G01*
X70350630Y-60460890D02*
G75*
G02*
X72122186Y-61102100I285270J-1979710D01*
G01*
X160416240Y-140721080D02*
G75*
G02*
X159853484Y-139004316I1414160J1414180D01*
G01*
X141899130Y-104861620D02*
G75*
G02*
X141399180Y-104361750I70J500020D01*
G01*
X66750950Y-87341970D02*
X66750950Y-82691990D01*
X155010861Y-117103315D02*
X153922809Y-120840217D01*
X146993860Y-54953920D02*
G75*
G02*
X147640962Y-51065889I6433440J927120D01*
G01*
X63341500Y-90792050D02*
G75*
G02*
X63841380Y-90292200I499800J50D01*
G01*
X79591410Y-97861630D02*
X78091540Y-99361760D01*
X66733170Y-47038010D02*
X65721990Y-46026840D01*
X80955640Y-97861630D02*
X79591410Y-97861630D01*
X156103830Y-104711760D02*
X156103830Y-109361740D01*
X79632050Y-104861620D02*
X80955640Y-104861620D01*
X75632060Y-82192120D02*
G75*
G02*
X76131880Y-82691990I40J-499780D01*
G01*
X79541620Y-101261680D02*
G75*
G02*
X79041500Y-101761720I-500020J-20D01*
G01*
X145363180Y-104211630D02*
G75*
G02*
X144863270Y-103711760I20J499930D01*
G01*
X88927430Y-84918810D02*
X88927430Y-107134920D01*
X68455290Y-47599860D02*
G75*
G02*
X72388496Y-48240419I972110J-6426740D01*
G01*
X70274877Y-121808035D02*
X72664884Y-121808035D01*
X160363150Y-94192090D02*
X160927290Y-94192090D01*
X79632050Y-87192110D02*
G75*
G02*
X79131890Y-86691980I50J500210D01*
G01*
X144600032Y-63794773D02*
X148079470Y-60313070D01*
D11*
X125500000Y-121400000D02*
X125490000Y-118510000D01*
D10*
X70369877Y-70258635D02*
X72759884Y-70258635D01*
X141899130Y-94192090D02*
X143263110Y-94192090D01*
X73964880Y-120864467D02*
G75*
G02*
X72664884Y-121808037I-1279980J396167D01*
G01*
X143681694Y-63210884D02*
G75*
G02*
X143663406Y-62858326I168306J185484D01*
G01*
X72664880Y-113888400D02*
X70214880Y-113888400D01*
X154404820Y-144452850D02*
G75*
G02*
X156121658Y-145015672I302580J-1976950D01*
G01*
X143722600Y-107134920D02*
X133927340Y-107134920D01*
X67921828Y-74939105D02*
X69069881Y-71202203D01*
X156103830Y-104711760D02*
G75*
G02*
X156603700Y-104211830I499970J-40D01*
G01*
X154999880Y-74918400D02*
X153911828Y-71181498D01*
X159713680Y-143393930D02*
X160886900Y-144567150D01*
X64051430Y-143951200D02*
G75*
G02*
X64060516Y-144313346I-167930J-185400D01*
G01*
X147640042Y-140986009D02*
G75*
G02*
X146993867Y-137099811I5787358J2959109D01*
G01*
X133927340Y-107134920D02*
X133927340Y-84918810D01*
X72664880Y-113888400D02*
G75*
G02*
X75052987Y-117127582I20J-2499900D01*
G01*
X78091540Y-91592150D02*
X78091540Y-92691970D01*
X61427360Y-48026830D02*
X61427360Y-50321470D01*
X159427420Y-46026840D02*
X157132780Y-46026840D01*
X150232806Y-121783785D02*
G75*
G02*
X148932763Y-120840232I-20106J1339685D01*
G01*
X63501020Y-48653200D02*
G75*
G02*
X64053722Y-48100491I5927180J-5374400D01*
G01*
X78254798Y-128259252D02*
G75*
G02*
X78607481Y-128277657I167102J-186248D01*
G01*
X66250820Y-104211630D02*
G75*
G02*
X66750970Y-104711760I-20J-500170D01*
G01*
X153922809Y-120840217D02*
G75*
G02*
X152622813Y-121783780I-1280009J396217D01*
G01*
X141899130Y-94192090D02*
G75*
G02*
X141399010Y-93691970I70J500190D01*
G01*
X75713340Y-132678940D02*
G75*
G02*
X75360612Y-132660575I-167140J186340D01*
G01*
X75213720Y-51065940D02*
G75*
G02*
X75860793Y-54953903I-5786420J-2960860D01*
G01*
X143722600Y-105361740D02*
X143722600Y-107134920D01*
X146352010Y-56721510D02*
X127687830Y-73526910D01*
X63750950Y-105361740D02*
X63750950Y-114099340D01*
X143722600Y-81418940D02*
X133927340Y-81418940D01*
X72386440Y-143814300D02*
X70784470Y-142212320D01*
X81455770Y-104361750D02*
G75*
G02*
X80955640Y-104861870I-500270J150D01*
G01*
X75861420Y-137103620D02*
G75*
G02*
X76502644Y-135332080I1979780J285220D01*
G01*
X158794450Y-144313150D02*
G75*
G02*
X158803527Y-143951407I176750J176550D01*
G01*
X144243676Y-128281109D02*
X143676566Y-128848116D01*
X127687830Y-73526910D02*
X119077490Y-73526910D01*
X147493990Y-132660650D02*
G75*
G02*
X147141518Y-132678853I-185390J168150D01*
G01*
X150732740Y-130951480D02*
X133927340Y-112287310D01*
X74775265Y-60312870D02*
X78258594Y-63790856D01*
X143722600Y-84918810D02*
X143722600Y-86691980D01*
X64491620Y-100461830D02*
X64491620Y-99861630D01*
X95160000Y-118520000D02*
X109650000Y-118510000D01*
X152070310Y-142212320D02*
X150468330Y-143814300D01*
X67826828Y-117127565D02*
X68974881Y-120864467D01*
X157963110Y-103711760D02*
G75*
G02*
X157463240Y-104211610I-499810J-40D01*
G01*
X66733170Y-145015720D02*
G75*
G02*
X68449939Y-144452927I1414230J-1414180D01*
G01*
X79132180Y-84918810D02*
X88927430Y-84918810D01*
X146722590Y-87341970D02*
X146722590Y-82691990D01*
X141899130Y-104861620D02*
X143222730Y-104861620D01*
X76132180Y-104711760D02*
X76132180Y-109361740D01*
X143856710Y-114986310D02*
G75*
G02*
X143722584Y-114099340I2865290J886910D01*
G01*
X78611109Y-63772616D02*
X79178219Y-63205609D01*
X63885060Y-114986310D02*
G75*
G02*
X63750932Y-114099340I2865240J886910D01*
G01*
X72122030Y-130951480D02*
G75*
G02*
X70350653Y-131592672I-1486230J1338480D01*
G01*
X79132180Y-107134920D02*
X79132180Y-105361740D01*
X63141100Y-143393930D02*
G75*
G02*
X63502792Y-143403053I176500J-176870D01*
G01*
X158803340Y-48102520D02*
G75*
G02*
X158794442Y-47740562I168060J185220D01*
G01*
X160886900Y-47486570D02*
X159713680Y-48659800D01*
X144243676Y-128281109D02*
G75*
G02*
X144596179Y-128262883I185424J-168291D01*
G01*
X143222730Y-104861620D02*
G75*
G02*
X143722880Y-105361740I-130J-500280D01*
G01*
X156603700Y-87842090D02*
X157463240Y-87842090D01*
X156603700Y-87842090D02*
G75*
G02*
X156103610Y-87341970I0J500090D01*
G01*
X62438530Y-51332640D02*
G75*
G02*
X63001305Y-53049416I-1414330J-1414260D01*
G01*
X148079520Y-131740855D02*
X144596191Y-128262869D01*
X64056510Y-47736510D02*
G75*
G02*
X64051481Y-48102577I-173110J-180690D01*
G01*
X150732740Y-61102240D02*
G75*
G02*
X152504109Y-60461103I1486160J-1338460D01*
G01*
X147222720Y-109861610D02*
G75*
G02*
X146722790Y-109361740I-120J499810D01*
G01*
X148061170Y-59960260D02*
G75*
G02*
X148079425Y-60312778I-168170J-185440D01*
G01*
X146222720Y-104211630D02*
G75*
G02*
X146722870Y-104711760I-20J-500170D01*
G01*
X146352010Y-135332220D02*
G75*
G02*
X146993212Y-137103598I-1338310J-1486180D01*
G01*
X159013140Y-91592150D02*
X158363160Y-91592150D01*
X156103830Y-109361740D02*
G75*
G02*
X155603700Y-109861930I-500230J40D01*
G01*
X146568670Y-68307460D02*
X143856710Y-77067410D01*
X62491620Y-97861630D02*
G75*
G02*
X64491570Y-99861630I-120J-2000070D01*
G01*
X152611832Y-70237930D02*
G75*
G02*
X153911830Y-71181497I20068J-1339670D01*
G01*
X159513270Y-101261680D02*
G75*
G02*
X159013140Y-101761770I-500070J-20D01*
G01*
X63841380Y-90292180D02*
X64891410Y-90292180D01*
X161427410Y-93691970D02*
X161427410Y-87691980D01*
X143313150Y-100961700D02*
G75*
G02*
X143813280Y-100461550I500150J0D01*
G01*
X72378320Y-143818360D02*
G75*
G02*
X68444117Y-144452046I-2951020J5791760D01*
G01*
X64491620Y-91592150D02*
X63841380Y-91592150D01*
X75147932Y-74939105D02*
G75*
G02*
X72759880Y-78178251I-2388032J-739295D01*
G01*
X141399010Y-87691980D02*
G75*
G02*
X141899130Y-87191910I500090J-20D01*
G01*
X64491620Y-92192100D02*
X64491620Y-91592150D01*
X78254798Y-128259252D02*
X74775360Y-131740955D01*
X79132180Y-110634780D02*
X88927430Y-110634780D01*
X61927490Y-104861620D02*
G75*
G02*
X61427580Y-104361750I-90J499820D01*
G01*
X79041500Y-90292180D02*
G75*
G02*
X79541320Y-90792050I-100J-499920D01*
G01*
X147784757Y-117103315D02*
G75*
G02*
X150172809Y-113864133I2388043J739315D01*
G01*
X144863310Y-103711760D02*
X144863310Y-101761800D01*
X159013140Y-90292180D02*
G75*
G02*
X159512920Y-90792050I60J-499720D01*
G01*
X70274877Y-121808035D02*
G75*
G02*
X68974852Y-120864476I-19977J1339835D01*
G01*
X67826828Y-117127565D02*
G75*
G02*
X70214880Y-113888420I2388072J739265D01*
G01*
X157132780Y-146026890D02*
X159427420Y-146026890D01*
X63001400Y-139004300D02*
G75*
G02*
X62438585Y-140721135I-1977200J-302500D01*
G01*
X149242780Y-139386570D02*
G75*
G02*
X152074881Y-142213837I4184620J1359670D01*
G01*
X143659787Y-129199447D02*
G75*
G02*
X143678142Y-128846708I186413J167147D01*
G01*
X148061170Y-59960260D02*
G75*
G02*
X147493993Y-59393078I5365930J5933060D01*
G01*
X88927430Y-110634780D02*
X88927430Y-112287310D01*
X141399010Y-87691980D02*
X141399010Y-93691970D01*
X79132180Y-86691980D02*
X79132180Y-84918810D01*
X61427360Y-144026890D02*
X61967620Y-144567150D01*
X133927340Y-79766420D02*
X150732740Y-61102240D01*
X133927340Y-84918810D02*
X143722600Y-84918810D01*
X144763240Y-99361760D02*
X143263110Y-97861630D01*
X159103820Y-114099340D02*
G75*
G02*
X158969710Y-114986310I-3000420J40D01*
G01*
X61427360Y-50321470D02*
X62438530Y-51332640D01*
X66596770Y-68307460D02*
X63885060Y-77067410D01*
X80955640Y-87192110D02*
X79632050Y-87192110D01*
X144600032Y-63794773D02*
G75*
G02*
X144247311Y-63776402I-167132J186373D01*
G01*
D11*
X109650000Y-118510000D02*
X109650000Y-121450000D01*
D10*
X79041500Y-100461830D02*
G75*
G02*
X79541370Y-100961700I0J-499870D01*
G01*
X88927430Y-107134920D02*
X79132180Y-107134920D01*
X133927340Y-112287310D02*
X133927340Y-110634780D01*
X68449950Y-47600870D02*
G75*
G02*
X66733137Y-47038043I-302450J1977270D01*
G01*
X147640041Y-140986010D02*
X149241760Y-139384030D01*
X157963110Y-88341970D02*
X157963110Y-90292180D01*
X61427360Y-87691980D02*
X61427360Y-93691970D01*
X157963110Y-101761800D02*
X157963110Y-103711760D01*
X79132180Y-105361740D02*
G75*
G02*
X79632050Y-104861880I499720J140D01*
G01*
X88927430Y-112287310D02*
X72122030Y-130951480D01*
X79041500Y-91592150D02*
X78091540Y-91592150D01*
X69069881Y-71202203D02*
G75*
G02*
X70369877Y-70258616I1280019J-396197D01*
G01*
X144863310Y-101761800D02*
X143813280Y-101761800D01*
X157963110Y-90292180D02*
X159013140Y-90292180D01*
X77491590Y-104211630D02*
X76632050Y-104211630D01*
X148921829Y-71181498D02*
G75*
G02*
X150221825Y-70237934I1280071J-396302D01*
G01*
X62491620Y-97861630D02*
X61927490Y-97861630D01*
X75360780Y-59393080D02*
G75*
G02*
X74797805Y-59955052I-5925980J5373580D01*
G01*
X143222730Y-87192110D02*
X141899130Y-87192110D01*
X78091540Y-100461830D02*
X79041500Y-100461830D01*
X152511510Y-131591820D02*
G75*
G02*
X159852535Y-139010128I915990J-6434980D01*
G01*
X61427360Y-98361760D02*
G75*
G02*
X61927490Y-97861560I500240J-40D01*
G01*
X156257750Y-123746520D02*
X158969710Y-114986310D01*
X62887100Y-46567350D02*
X64060320Y-47740570D01*
X76502770Y-135332220D02*
X95166940Y-118526820D01*
X72759884Y-70258635D02*
G75*
G02*
X74059898Y-71202197I20016J-1339765D01*
G01*
X157132780Y-46026840D02*
X156121610Y-47038010D01*
X143263110Y-97861630D02*
X141899130Y-97861630D01*
X72759880Y-78178270D02*
X70309880Y-78178270D01*
X65721990Y-46026840D02*
X63427360Y-46026840D01*
X64053720Y-143953230D02*
G75*
G02*
X63501018Y-143400533I5371980J5924730D01*
G01*
X133927340Y-110634780D02*
X143722600Y-110634780D01*
X149434300Y-125859290D02*
X153392120Y-125859290D01*
X103777290Y-73526910D02*
X119077490Y-73526910D01*
X79194998Y-62854278D02*
X75713295Y-59374840D01*
X150468330Y-48239430D02*
X152070310Y-49841410D01*
X158363160Y-100461830D02*
X159013140Y-100461830D01*
X160927290Y-97861630D02*
G75*
G02*
X161427370Y-98361760I10J-500070D01*
G01*
X67250820Y-82192120D02*
X75632060Y-82192120D01*
X75632060Y-109861610D02*
X67250820Y-109861610D01*
X143313150Y-101261680D02*
X143313150Y-100961700D01*
X159353760Y-143400530D02*
G75*
G02*
X158801056Y-143953236I-5927160J5374430D01*
G01*
X64060320Y-144313410D02*
X62887100Y-145486630D01*
X77991460Y-88341970D02*
X77991460Y-90292180D01*
X160416240Y-51332640D02*
X161427410Y-50321470D01*
X157463240Y-87842090D02*
G75*
G02*
X157963110Y-88341970I60J-499810D01*
G01*
X159351730Y-143402820D02*
G75*
G02*
X159713642Y-143393968I185170J-167880D01*
G01*
X144863310Y-88341970D02*
G75*
G02*
X145363180Y-87842110I499890J-30D01*
G01*
X161427410Y-144026890D02*
X161427410Y-141732260D01*
X77991460Y-103711760D02*
G75*
G02*
X77491590Y-104211560I-499760J-40D01*
G01*
X66750950Y-87341970D02*
G75*
G02*
X66250820Y-87842150I-500050J-130D01*
G01*
X76286110Y-123746260D02*
G75*
G02*
X73420220Y-125859298I-2865810J886860D01*
G01*
X63140840Y-48659800D02*
X61967620Y-47486570D01*
X61967620Y-47486570D02*
X61427360Y-48026830D01*
X150221825Y-70237930D02*
X152611832Y-70237930D01*
X159713680Y-48659800D02*
G75*
G02*
X159351689Y-48650947I-176780J176800D01*
G01*
X160927290Y-87192110D02*
G75*
G02*
X161427190Y-87691980I10J-499890D01*
G01*
X152611828Y-78157565D02*
X150161828Y-78157565D01*
X79132180Y-114099340D02*
X79132180Y-110634780D01*
X73420220Y-66194440D02*
G75*
G02*
X76286079Y-68307469I80J-2999860D01*
G01*
X152067770Y-49842170D02*
G75*
G02*
X149240375Y-52674564I1359630J-4184630D01*
G01*
X143813280Y-100461830D02*
X144763240Y-100461830D01*
X144763240Y-91592150D02*
X143813280Y-91592150D01*
X158969710Y-77067410D02*
X156257750Y-68307460D01*
X147141440Y-59375040D02*
G75*
G02*
X147493937Y-59393128I167160J-186160D01*
G01*
X75360780Y-59393080D02*
G75*
G02*
X75713282Y-59374854I185420J-168220D01*
G01*
X159513270Y-100961700D02*
X159513270Y-101261680D01*
X153392120Y-66194440D02*
X149434300Y-66194440D01*
X160363150Y-94192090D02*
G75*
G02*
X158363210Y-92192100I50J1999990D01*
G01*
X143722600Y-77954380D02*
G75*
G02*
X143856709Y-77067410I3000300J-20D01*
G01*
X66596770Y-68307460D02*
G75*
G02*
X69462650Y-66194671I2865830J-887240D01*
G01*
X88927430Y-79766420D02*
X88927430Y-81418940D01*
X63885060Y-114986310D02*
X66596770Y-123746520D01*
X158969710Y-77067410D02*
G75*
G02*
X159103820Y-77954380I-2865510J-886890D01*
G01*
X143813280Y-101761800D02*
G75*
G02*
X143313200Y-101261680I20J500100D01*
G01*
X147784757Y-117103315D02*
X148932810Y-120840217D01*
X143722600Y-86691980D02*
G75*
G02*
X143222730Y-87191900I-499800J-120D01*
G01*
X79173136Y-128843141D02*
G75*
G02*
X79191402Y-129195679I-168236J-185459D01*
G01*
X75147932Y-74939105D02*
X74059880Y-71202203D01*
X159013140Y-100461830D02*
G75*
G02*
X159512970Y-100961700I60J-499770D01*
G01*
X63341500Y-100961700D02*
G75*
G02*
X63841380Y-100461800I499900J0D01*
G01*
X66750950Y-109361740D02*
X66750950Y-104711760D01*
X159853380Y-53049430D02*
G75*
G02*
X160416193Y-51332593I1977120J302530D01*
G01*
X67250820Y-109861610D02*
G75*
G02*
X66750890Y-109361740I-120J499810D01*
G01*
X161427410Y-93691970D02*
G75*
G02*
X160927290Y-94192010I-500010J-30D01*
G01*
X146722590Y-82691990D02*
G75*
G02*
X147222720Y-82191790I500210J-10D01*
G01*
X143659787Y-129199447D02*
X147141490Y-132678885D01*
X143263110Y-94192090D02*
X144763240Y-92691970D01*
X75861420Y-137103620D02*
G75*
G02*
X75213665Y-140988013I-6434020J-923280D01*
G01*
X63427360Y-46026840D02*
X62887100Y-46567350D01*
X158363160Y-99861630D02*
G75*
G02*
X160363150Y-97861660I1999940J30D01*
G01*
X161427410Y-50321470D02*
X161427410Y-48026830D01*
X159603690Y-87192110D02*
G75*
G02*
X159103590Y-86691980I10J500110D01*
G01*
X74793600Y-132093470D02*
X75360607Y-132660580D01*
X63427360Y-146026890D02*
X65721990Y-146026890D01*
X158363160Y-91592150D02*
X158363160Y-92192100D01*
X62887100Y-145486630D02*
X63427360Y-146026890D01*
X161427410Y-104361750D02*
G75*
G02*
X160927290Y-104861910I-500210J50D01*
G01*
X63250830Y-87192110D02*
X61927490Y-87192110D01*
X144763240Y-92691970D02*
X144763240Y-91592150D01*
X143313150Y-90792050D02*
G75*
G02*
X143813280Y-90291850I500250J-50D01*
G01*
X161427410Y-104361750D02*
X161427410Y-98361760D01*
X81455770Y-93691970D02*
X81455770Y-87691980D01*
X64891410Y-88341970D02*
G75*
G02*
X65391540Y-87841810I500190J-30D01*
G01*
X154399230Y-144453870D02*
G75*
G02*
X150466311Y-143813260I-971830J6426670D01*
G01*
X76132180Y-82691990D02*
X76132180Y-87341970D01*
X80955640Y-87192110D02*
G75*
G02*
X81455490Y-87691980I60J-499790D01*
G01*
X77991460Y-90292180D02*
X79041500Y-90292180D01*
X88927430Y-81418940D02*
X79132180Y-81418940D01*
X76132180Y-109361740D02*
G75*
G02*
X75632060Y-109861880I-500180J40D01*
G01*
X61927490Y-94192090D02*
G75*
G02*
X61427410Y-93691970I10J500090D01*
G01*
X148060975Y-132093505D02*
X147493990Y-132660650D01*
X155603700Y-82192120D02*
G75*
G02*
X156103580Y-82691990I0J-499880D01*
G01*
X76632050Y-87842090D02*
X77491590Y-87842090D01*
X61927490Y-104861620D02*
X63250830Y-104861620D01*
X64891410Y-103711760D02*
X64891410Y-101761800D01*
X143856710Y-114986310D02*
X146568670Y-123746520D01*
X146222720Y-104211630D02*
X145363180Y-104211630D01*
X79541620Y-91092020D02*
G75*
G02*
X79041500Y-91592120I-500120J20D01*
G01*
X80955640Y-97861630D02*
G75*
G02*
X81455770Y-98361760I60J-500070D01*
G01*
X64891410Y-90292180D02*
X64891410Y-88341970D01*
X63250830Y-104861620D02*
G75*
G02*
X63750880Y-105361740I-130J-500180D01*
G01*
X79541620Y-90792050D02*
X79541620Y-91092020D01*
X127687830Y-118526820D02*
X146352010Y-135332220D01*
X65391540Y-104211630D02*
G75*
G02*
X64891670Y-103711760I60J499930D01*
G01*
X144763240Y-100461830D02*
X144763240Y-99361760D01*
X160886900Y-144567150D02*
X161427410Y-144026890D01*
X61427360Y-98361760D02*
X61427360Y-104361750D01*
X158794450Y-47740570D02*
X159967680Y-46567350D01*
X69462650Y-125859290D02*
G75*
G02*
X66596753Y-123746265I50J3000090D01*
G01*
X159103820Y-114099340D02*
X159103820Y-105361740D01*
X158363160Y-99861630D02*
X158363160Y-100461830D01*
X63503050Y-48650910D02*
G75*
G02*
X63140855Y-48660045I-185450J168010D01*
G01*
X147773776Y-74918400D02*
X148921829Y-71181498D01*
X147141440Y-59375040D02*
X143663454Y-62858369D01*
X70787010Y-142211560D02*
G75*
G02*
X73614377Y-139379231I-1359670J4184660D01*
G01*
X69462650Y-125859290D02*
X73420220Y-125859290D01*
X143813280Y-90292180D02*
X144863310Y-90292180D01*
X79041500Y-101761800D02*
X77991460Y-101761800D01*
X75214730Y-51067970D02*
X73612760Y-52669700D01*
X158801035Y-48100507D02*
G75*
G02*
X159351690Y-48650946I-5373435J-5926193D01*
G01*
X159103820Y-86691980D02*
X159103820Y-77954380D01*
X161427410Y-48026830D02*
X160886900Y-47486570D01*
M02*
