%TF.GenerationSoftware,KiCad,Pcbnew,10.0.1*%
%TF.CreationDate,2026-04-30T18:08:44+02:00*%
%TF.ProjectId,esp32_mine,65737033-325f-46d6-996e-652e6b696361,rev?*%
%TF.SameCoordinates,Original*%
%TF.FileFunction,Copper,L2,Inr*%
%TF.FilePolarity,Positive*%
%FSLAX46Y46*%
G04 Gerber Fmt 4.6, Leading zero omitted, Abs format (unit mm)*
G04 Created by KiCad (PCBNEW 10.0.1) date 2026-04-30 18:08:44*
%MOMM*%
%LPD*%
G01*
G04 APERTURE LIST*
G04 Aperture macros list*
%AMRotRect*
0 Rectangle, with rotation*
0 The origin of the aperture is its center*
0 $1 length*
0 $2 width*
0 $3 Rotation angle, in degrees counterclockwise*
0 Add horizontal line*
21,1,$1,$2,0,0,$3*%
G04 Aperture macros list end*
%TA.AperFunction,ComponentPad*%
%ADD10RotRect,1.700000X1.700000X45.000000*%
%TD*%
%TA.AperFunction,ComponentPad*%
%ADD11C,1.700000*%
%TD*%
%TA.AperFunction,ComponentPad*%
%ADD12R,1.700000X1.700000*%
%TD*%
%TA.AperFunction,ComponentPad*%
%ADD13RotRect,1.700000X1.700000X315.000000*%
%TD*%
%TA.AperFunction,ComponentPad*%
%ADD14R,0.900000X0.500000*%
%TD*%
%TA.AperFunction,HeatsinkPad*%
%ADD15O,1.000000X1.600000*%
%TD*%
%TA.AperFunction,HeatsinkPad*%
%ADD16O,1.000000X2.100000*%
%TD*%
%TA.AperFunction,ViaPad*%
%ADD17C,0.600000*%
%TD*%
%TA.AperFunction,ViaPad*%
%ADD18C,0.800000*%
%TD*%
G04 APERTURE END LIST*
D10*
%TO.N,VBAT*%
%TO.C,M3*%
X131998439Y-73898439D03*
D11*
%TO.N,Net-(D8-A)*%
X133794490Y-75694490D03*
%TD*%
D12*
%TO.N,GND*%
%TO.C,J3*%
X91760000Y-96025000D03*
D11*
%TO.N,VBAT*%
X91760000Y-93485000D03*
%TO.N,RX*%
X94300000Y-96025000D03*
%TO.N,GND*%
X94300000Y-93485000D03*
%TO.N,TX*%
X96840000Y-96025000D03*
%TO.N,IO0*%
X96840000Y-93485000D03*
%TD*%
D13*
%TO.N,VBAT*%
%TO.C,M2*%
X91051561Y-74098439D03*
D11*
%TO.N,Net-(D6-A)*%
X89255510Y-75894490D03*
%TD*%
D14*
%TO.N,GND*%
%TO.C,AE1*%
X124530000Y-115680000D03*
%TD*%
D10*
%TO.N,Net-(D7-A)*%
%TO.C,M1*%
X89448439Y-116448439D03*
D11*
%TO.N,VBAT*%
X91244490Y-118244490D03*
%TD*%
D13*
%TO.N,Net-(D5-A)*%
%TO.C,M4*%
X133301561Y-116798439D03*
D11*
%TO.N,VBAT*%
X131505510Y-118594490D03*
%TD*%
D15*
%TO.N,GND*%
%TO.C,J1*%
X100780000Y-74765000D03*
D16*
X100780000Y-78945000D03*
D15*
X109420000Y-74765000D03*
D16*
X109420000Y-78945000D03*
%TD*%
D17*
%TO.N,VDD_CPU*%
X117445000Y-106300000D03*
X130925000Y-96385000D03*
X126650000Y-91550000D03*
X110000000Y-96096600D03*
X102462500Y-91650000D03*
X112928611Y-106707601D03*
X118332399Y-105082400D03*
X115517400Y-97190000D03*
X121792400Y-94600000D03*
X125440000Y-95950000D03*
X121475000Y-99530000D03*
%TO.N,GND*%
X117070000Y-108580000D03*
X123830000Y-109050000D03*
X105400000Y-115500000D03*
X125300000Y-114500000D03*
X120370000Y-104550000D03*
X102620000Y-101750000D03*
X118250000Y-115550000D03*
X120930000Y-113480000D03*
X106700000Y-114700000D03*
X116651600Y-77993300D03*
X111500000Y-114600000D03*
X124380000Y-112510000D03*
X102800000Y-115500000D03*
X126200000Y-114500000D03*
X123180000Y-94340000D03*
X107500000Y-115600000D03*
X120070000Y-112420000D03*
X119820000Y-109460000D03*
X98150000Y-116600000D03*
X117100000Y-114600000D03*
X112450000Y-115550000D03*
X106450000Y-115550000D03*
X120780000Y-88240000D03*
X123360000Y-108270000D03*
X110550000Y-90520000D03*
X123830000Y-107047693D03*
X112400000Y-114700000D03*
X124680000Y-94482692D03*
X116180000Y-101930000D03*
X130250000Y-114200000D03*
X105111600Y-85323300D03*
X133500000Y-112250000D03*
X122850000Y-87498846D03*
D18*
X126850000Y-115300000D03*
D17*
X116841600Y-85483300D03*
X122150000Y-106022307D03*
X119790000Y-108360000D03*
X107050000Y-74850000D03*
X100850000Y-115400000D03*
X95941600Y-86343300D03*
X123790000Y-104028846D03*
X112551600Y-87203300D03*
X124680000Y-90478077D03*
X122850000Y-88500000D03*
X98150000Y-117500000D03*
X123350000Y-97470000D03*
X124680000Y-100489615D03*
X101117500Y-92210000D03*
X101600000Y-114700000D03*
X125900000Y-115300000D03*
X100700000Y-114600000D03*
X124680000Y-89476923D03*
X111101600Y-85273300D03*
X113440000Y-99400000D03*
X114390000Y-108770000D03*
X117831600Y-78953300D03*
X122970000Y-100510000D03*
X111961600Y-85123300D03*
X109400000Y-115500000D03*
X112200000Y-79550000D03*
X106300000Y-95250000D03*
X120000000Y-115500000D03*
X114171600Y-81243300D03*
X112450000Y-100150000D03*
X116500000Y-115550000D03*
X104500000Y-115500000D03*
X120540000Y-107800000D03*
X107500000Y-114700000D03*
X123380000Y-98640000D03*
X129600000Y-114800000D03*
X112010000Y-108260000D03*
X123800000Y-114056539D03*
X110300000Y-115500000D03*
X120800000Y-86350000D03*
X113525000Y-110120000D03*
X132950000Y-112650000D03*
X120140000Y-102010000D03*
X114765000Y-101930000D03*
X123450000Y-93500000D03*
X121911600Y-78003300D03*
X107091600Y-97768740D03*
X122920000Y-105528846D03*
X124730000Y-110480000D03*
X124730000Y-111620000D03*
X106299478Y-91249478D03*
X130200000Y-115300000D03*
X110400000Y-114600000D03*
X115300000Y-114500000D03*
X98900000Y-117150000D03*
X104151600Y-86133300D03*
X103800000Y-114800000D03*
X111150000Y-78900000D03*
X113410000Y-100490000D03*
X113360000Y-103340000D03*
X123400000Y-114800000D03*
X121570000Y-104670000D03*
X99700000Y-114600000D03*
X124680000Y-93481538D03*
X121140000Y-112370000D03*
X117840000Y-109220000D03*
X121450000Y-115550000D03*
X124680000Y-101490769D03*
X114450000Y-114600000D03*
X98360000Y-90780000D03*
X115141600Y-82443300D03*
X104850000Y-114750000D03*
X120560000Y-108900000D03*
X120530000Y-97980000D03*
X121091600Y-78943300D03*
X123950000Y-98020000D03*
X105800000Y-114700000D03*
X123800000Y-112054231D03*
X99000000Y-115350000D03*
X101850000Y-88610000D03*
X115501600Y-78023300D03*
X98150000Y-115800000D03*
X97441600Y-86143300D03*
X120700000Y-115500000D03*
X112420000Y-103450000D03*
X103700000Y-115500000D03*
X119470000Y-110220000D03*
X114190000Y-99420000D03*
X132700000Y-111700000D03*
X108731600Y-83795700D03*
X120890000Y-111620000D03*
X124680000Y-103493077D03*
X115400000Y-115450000D03*
X118000000Y-114700000D03*
X132050000Y-112400000D03*
X121400000Y-114800000D03*
X123730000Y-110480000D03*
X110541600Y-87223300D03*
X100800000Y-80800000D03*
X122920000Y-103526539D03*
X122560000Y-99650000D03*
X113500000Y-74600000D03*
X124680000Y-102491923D03*
X119900000Y-114700000D03*
X105150000Y-87250000D03*
D18*
X96761550Y-90803480D03*
D17*
X108781600Y-85283300D03*
X114780000Y-100480000D03*
X111910000Y-110200000D03*
X122600000Y-109330000D03*
X120700000Y-114700000D03*
X121850000Y-88120000D03*
X115625000Y-92435000D03*
X107985000Y-97630000D03*
X99950000Y-115400000D03*
X123010000Y-106560000D03*
X118900000Y-114700000D03*
X115110000Y-108130000D03*
X114550000Y-115500000D03*
X123800000Y-113055385D03*
X106600000Y-88450000D03*
X124030000Y-107960000D03*
X116200000Y-114700000D03*
X113600000Y-115500000D03*
X124400000Y-114800000D03*
X98100000Y-114850000D03*
X98900000Y-114500000D03*
X103250000Y-88800000D03*
X123790000Y-101025385D03*
X124680000Y-92480385D03*
X113500000Y-114650000D03*
X111400000Y-115500000D03*
X108500000Y-115500000D03*
X121010000Y-105250000D03*
X116220000Y-100500000D03*
X123740000Y-88980000D03*
X132450000Y-113150000D03*
X98950000Y-116350000D03*
X121720000Y-113170000D03*
X109400000Y-94000000D03*
X121330000Y-114080000D03*
X123790000Y-100024231D03*
X121700000Y-111600000D03*
X113400000Y-102020000D03*
X101900000Y-115500000D03*
X124680000Y-88475769D03*
X119985000Y-107270000D03*
X122920000Y-104527693D03*
X130800000Y-114800000D03*
X108500000Y-114700000D03*
X122411600Y-80973300D03*
X123350000Y-115500000D03*
X98900000Y-117900000D03*
X129781800Y-96047600D03*
X117450000Y-115500000D03*
X114830000Y-103330000D03*
X122150000Y-104020000D03*
X105000000Y-94900000D03*
X102700000Y-114700000D03*
X112640000Y-99400000D03*
X124680000Y-108498846D03*
X122440000Y-107210000D03*
X119200000Y-115500000D03*
X107155000Y-91530000D03*
X116190000Y-103310000D03*
X117300000Y-89800000D03*
X109500000Y-114600000D03*
D18*
%TO.N,VBAT*%
X97331145Y-79770355D03*
X126799880Y-110348400D03*
X97964240Y-79137260D03*
X124719330Y-77793600D03*
X123876050Y-77793600D03*
X125613410Y-77793600D03*
X96479880Y-111148400D03*
X127069880Y-79588400D03*
X93322390Y-103481890D03*
X127319880Y-78598400D03*
X94591120Y-104750620D03*
X126679880Y-80508400D03*
X126811508Y-111667822D03*
X96684080Y-80417420D03*
X126811508Y-109480882D03*
X96109880Y-111998400D03*
X126811508Y-108623632D03*
X93952310Y-104111810D03*
X127939880Y-112978400D03*
D17*
%TO.N,VSYS*%
X105140000Y-92400000D03*
X119306600Y-84123300D03*
X108850000Y-89552400D03*
%TO.N,RX*%
X114543289Y-104421000D03*
%TO.N,IO0*%
X117365340Y-104400000D03*
%TO.N,IO9*%
X118752400Y-97845540D03*
X126006800Y-94750000D03*
%TO.N,USB_D-*%
X102850000Y-85400000D03*
%TO.N,5V*%
X106616600Y-83043300D03*
X113651600Y-79943300D03*
%TO.N,USB_D+*%
X106050000Y-80800000D03*
X101750000Y-85419082D03*
X104600000Y-80825000D03*
%TO.N,SPICS0*%
X107650000Y-106200000D03*
X107850000Y-100250000D03*
%TO.N,SPIQ*%
X104835000Y-108330000D03*
%TO.N,SPIWP*%
X107850000Y-99300000D03*
X105905000Y-108220000D03*
%TO.N,SPIHD*%
X104875000Y-101330000D03*
X107665000Y-98520000D03*
%TO.N,Net-(U1-U0TXD)*%
X114812600Y-106460777D03*
X113665000Y-108200000D03*
%TO.N,EN*%
X121507600Y-91730000D03*
X98135000Y-90000000D03*
%TO.N,IO8*%
X117250000Y-99350000D03*
X122600000Y-95800000D03*
%TO.N,IO10*%
X119740216Y-95840216D03*
X125837659Y-98862341D03*
%TO.N,IO12*%
X115850000Y-86200000D03*
%TO.N,IO21*%
X102850000Y-96600000D03*
D18*
X96187000Y-89487000D03*
D17*
%TO.N,Net-(U1-SPIQ)*%
X106450000Y-98850000D03*
%TO.N,IO38*%
X107025000Y-110275000D03*
X110548200Y-107027233D03*
%TD*%
%TA.AperFunction,Conductor*%
%TO.N,GND*%
G36*
X95110486Y-73644938D02*
G01*
X95121829Y-73646360D01*
X95123846Y-73647064D01*
X95141579Y-73654410D01*
X95144895Y-73654410D01*
X95148130Y-73655539D01*
X95148284Y-73655561D01*
X95148286Y-73655562D01*
X95148287Y-73655561D01*
X95148288Y-73655562D01*
X95168307Y-73654513D01*
X95172243Y-73654410D01*
X99983514Y-73654410D01*
X100031852Y-73672003D01*
X100057572Y-73716552D01*
X100048639Y-73767210D01*
X100036688Y-73782784D01*
X99997039Y-73822432D01*
X99997037Y-73822435D01*
X99886721Y-73987534D01*
X99810738Y-74170973D01*
X99810737Y-74170974D01*
X99772000Y-74365720D01*
X99772000Y-74511000D01*
X100480000Y-74511000D01*
X100480000Y-75019000D01*
X99772000Y-75019000D01*
X99772000Y-75164279D01*
X99810737Y-75359025D01*
X99810738Y-75359026D01*
X99886721Y-75542465D01*
X99997037Y-75707564D01*
X99997039Y-75707567D01*
X100137432Y-75847960D01*
X100137435Y-75847962D01*
X100302534Y-75958278D01*
X100485973Y-76034261D01*
X100485975Y-76034262D01*
X100526000Y-76042223D01*
X100526000Y-75225060D01*
X100539940Y-75249205D01*
X100595795Y-75305060D01*
X100664204Y-75344556D01*
X100740504Y-75365000D01*
X100819496Y-75365000D01*
X100895796Y-75344556D01*
X100964205Y-75305060D01*
X101020060Y-75249205D01*
X101034000Y-75225060D01*
X101034000Y-76042223D01*
X101074024Y-76034262D01*
X101074026Y-76034261D01*
X101257465Y-75958278D01*
X101422564Y-75847962D01*
X101422567Y-75847960D01*
X101562960Y-75707567D01*
X101562962Y-75707564D01*
X101673278Y-75542465D01*
X101749261Y-75359026D01*
X101749262Y-75359025D01*
X101788000Y-75164279D01*
X101788000Y-75019000D01*
X101080000Y-75019000D01*
X101080000Y-74511000D01*
X101788000Y-74511000D01*
X101788000Y-74365720D01*
X101749262Y-74170974D01*
X101749261Y-74170973D01*
X101673278Y-73987534D01*
X101562962Y-73822435D01*
X101562960Y-73822432D01*
X101523312Y-73782784D01*
X101501572Y-73736164D01*
X101514886Y-73686477D01*
X101557023Y-73656972D01*
X101576486Y-73654410D01*
X103751929Y-73654410D01*
X108623514Y-73654410D01*
X108671852Y-73672003D01*
X108697572Y-73716552D01*
X108688639Y-73767210D01*
X108676688Y-73782784D01*
X108637039Y-73822432D01*
X108637037Y-73822435D01*
X108526721Y-73987534D01*
X108450738Y-74170973D01*
X108450737Y-74170974D01*
X108412000Y-74365720D01*
X108412000Y-74511000D01*
X109120000Y-74511000D01*
X109120000Y-75019000D01*
X108412000Y-75019000D01*
X108412000Y-75164279D01*
X108450737Y-75359025D01*
X108450738Y-75359026D01*
X108526721Y-75542465D01*
X108637037Y-75707564D01*
X108637039Y-75707567D01*
X108777432Y-75847960D01*
X108777435Y-75847962D01*
X108942534Y-75958278D01*
X109125973Y-76034261D01*
X109125975Y-76034262D01*
X109166000Y-76042223D01*
X109166000Y-75225060D01*
X109179940Y-75249205D01*
X109235795Y-75305060D01*
X109304204Y-75344556D01*
X109380504Y-75365000D01*
X109459496Y-75365000D01*
X109535796Y-75344556D01*
X109604205Y-75305060D01*
X109660060Y-75249205D01*
X109674000Y-75225060D01*
X109674000Y-76042223D01*
X109714024Y-76034262D01*
X109714026Y-76034261D01*
X109897465Y-75958278D01*
X110062564Y-75847962D01*
X110062567Y-75847960D01*
X110202960Y-75707567D01*
X110202962Y-75707564D01*
X110313278Y-75542465D01*
X110389261Y-75359026D01*
X110389262Y-75359025D01*
X110428000Y-75164279D01*
X110428000Y-75019000D01*
X109720000Y-75019000D01*
X109720000Y-74511000D01*
X110428000Y-74511000D01*
X110428000Y-74365720D01*
X110389262Y-74170974D01*
X110389261Y-74170973D01*
X110313278Y-73987534D01*
X110202962Y-73822435D01*
X110202960Y-73822432D01*
X110163312Y-73782784D01*
X110141572Y-73736164D01*
X110154886Y-73686477D01*
X110197023Y-73656972D01*
X110216486Y-73654410D01*
X119052129Y-73654410D01*
X127684497Y-73654410D01*
X127706484Y-73655562D01*
X127709737Y-73654410D01*
X127713191Y-73654410D01*
X127731729Y-73646730D01*
X127735367Y-73645333D01*
X127736183Y-73645045D01*
X127787619Y-73645497D01*
X127814409Y-73662714D01*
X132544250Y-78384987D01*
X133793949Y-79632687D01*
X133795276Y-79635526D01*
X133798003Y-79637070D01*
X133806023Y-79658527D01*
X133815726Y-79679290D01*
X133815234Y-79683166D01*
X133816014Y-79685253D01*
X133811702Y-79711011D01*
X133808924Y-79718854D01*
X133807517Y-79722519D01*
X133799840Y-79741056D01*
X133799329Y-79743626D01*
X133799135Y-79744331D01*
X133799116Y-79744442D01*
X133799063Y-79745182D01*
X133798688Y-79747767D01*
X133799737Y-79767786D01*
X133799840Y-79771720D01*
X133799840Y-81393579D01*
X133799840Y-81444301D01*
X133819251Y-81491163D01*
X133819252Y-81491165D01*
X133855115Y-81527028D01*
X133855116Y-81527028D01*
X133855117Y-81527029D01*
X133883458Y-81538768D01*
X133921383Y-81573518D01*
X133929880Y-81608243D01*
X133929880Y-84729506D01*
X133912287Y-84777844D01*
X133883458Y-84798981D01*
X133867751Y-84805487D01*
X133855114Y-84810722D01*
X133819252Y-84846584D01*
X133819251Y-84846587D01*
X133799840Y-84893449D01*
X133799840Y-107109559D01*
X133799840Y-107160281D01*
X133817140Y-107202046D01*
X133819252Y-107207145D01*
X133855115Y-107243008D01*
X133855116Y-107243008D01*
X133855117Y-107243009D01*
X133883458Y-107254748D01*
X133921383Y-107289498D01*
X133929880Y-107324223D01*
X133929880Y-110445476D01*
X133912287Y-110493814D01*
X133883458Y-110514951D01*
X133867751Y-110521457D01*
X133855114Y-110526692D01*
X133819252Y-110562554D01*
X133819251Y-110562557D01*
X133799840Y-110609419D01*
X133799840Y-112283977D01*
X133798688Y-112305964D01*
X133799840Y-112309217D01*
X133799840Y-112312671D01*
X133805733Y-112326898D01*
X133807975Y-112378288D01*
X133789430Y-112408847D01*
X130212679Y-115985599D01*
X130166059Y-116007339D01*
X130159607Y-116007625D01*
X99651489Y-116049182D01*
X99618011Y-118315386D01*
X99599705Y-118363458D01*
X99554782Y-118388517D01*
X99542871Y-118389475D01*
X95134552Y-118392517D01*
X95134546Y-118392518D01*
X95110091Y-118402668D01*
X95058702Y-118404947D01*
X95028054Y-118386346D01*
X89556085Y-112905609D01*
X127386980Y-112905609D01*
X127386980Y-113051191D01*
X127415239Y-113156656D01*
X127424659Y-113191812D01*
X127497449Y-113317887D01*
X127497453Y-113317893D01*
X127600386Y-113420826D01*
X127600389Y-113420828D01*
X127600391Y-113420830D01*
X127726469Y-113493621D01*
X127867089Y-113531300D01*
X127867092Y-113531300D01*
X128012668Y-113531300D01*
X128012671Y-113531300D01*
X128153291Y-113493621D01*
X128279369Y-113420830D01*
X128382310Y-113317889D01*
X128455101Y-113191811D01*
X128492780Y-113051191D01*
X128492780Y-112905609D01*
X128455101Y-112764989D01*
X128382310Y-112638911D01*
X128382308Y-112638909D01*
X128382306Y-112638906D01*
X128279373Y-112535973D01*
X128279367Y-112535969D01*
X128153292Y-112463179D01*
X128118136Y-112453759D01*
X128012671Y-112425500D01*
X127867089Y-112425500D01*
X127782717Y-112448107D01*
X127726467Y-112463179D01*
X127600392Y-112535969D01*
X127600386Y-112535973D01*
X127497453Y-112638906D01*
X127497449Y-112638912D01*
X127424659Y-112764987D01*
X127405819Y-112835299D01*
X127386980Y-112905609D01*
X89556085Y-112905609D01*
X89063764Y-112412499D01*
X89062485Y-112409750D01*
X89059845Y-112408260D01*
X89051769Y-112386721D01*
X89042063Y-112365862D01*
X89042540Y-112362106D01*
X89041786Y-112360094D01*
X89044720Y-112344961D01*
X89046072Y-112334332D01*
X89046739Y-112332441D01*
X89054930Y-112312671D01*
X89054930Y-112309240D01*
X89056078Y-112305989D01*
X89056082Y-112305965D01*
X89055033Y-112285943D01*
X89054930Y-112282007D01*
X89054930Y-111925609D01*
X95556980Y-111925609D01*
X95556980Y-112071191D01*
X95585239Y-112176656D01*
X95594659Y-112211812D01*
X95636324Y-112283977D01*
X95665396Y-112334332D01*
X95667449Y-112337887D01*
X95667453Y-112337893D01*
X95770386Y-112440826D01*
X95770389Y-112440828D01*
X95770391Y-112440830D01*
X95896469Y-112513621D01*
X96037089Y-112551300D01*
X96037092Y-112551300D01*
X96182668Y-112551300D01*
X96182671Y-112551300D01*
X96323291Y-112513621D01*
X96449369Y-112440830D01*
X96552310Y-112337889D01*
X96625101Y-112211811D01*
X96662780Y-112071191D01*
X96662780Y-111925609D01*
X96625101Y-111784989D01*
X96622554Y-111780578D01*
X96613620Y-111729922D01*
X96639337Y-111685373D01*
X96668215Y-111670339D01*
X96693291Y-111663621D01*
X96812093Y-111595031D01*
X126258608Y-111595031D01*
X126258608Y-111740613D01*
X126270498Y-111784987D01*
X126296287Y-111881234D01*
X126369077Y-112007309D01*
X126369081Y-112007315D01*
X126472014Y-112110248D01*
X126472017Y-112110250D01*
X126472019Y-112110252D01*
X126598097Y-112183043D01*
X126738717Y-112220722D01*
X126738720Y-112220722D01*
X126884296Y-112220722D01*
X126884299Y-112220722D01*
X127024919Y-112183043D01*
X127150997Y-112110252D01*
X127253938Y-112007311D01*
X127326729Y-111881233D01*
X127364408Y-111740613D01*
X127364408Y-111595031D01*
X127326729Y-111454411D01*
X127253938Y-111328333D01*
X127253936Y-111328331D01*
X127253934Y-111328328D01*
X127151001Y-111225395D01*
X127150995Y-111225391D01*
X127143720Y-111221191D01*
X127124352Y-111210008D01*
X127024920Y-111152601D01*
X126989764Y-111143181D01*
X126884299Y-111114922D01*
X126738717Y-111114922D01*
X126654345Y-111137529D01*
X126598095Y-111152601D01*
X126472020Y-111225391D01*
X126472014Y-111225395D01*
X126369081Y-111328328D01*
X126369077Y-111328334D01*
X126296287Y-111454409D01*
X126277447Y-111524721D01*
X126258608Y-111595031D01*
X96812093Y-111595031D01*
X96819369Y-111590830D01*
X96819373Y-111590826D01*
X96873272Y-111536928D01*
X96922306Y-111487893D01*
X96922310Y-111487889D01*
X96995101Y-111361811D01*
X97032780Y-111221191D01*
X97032780Y-111075609D01*
X96995101Y-110934989D01*
X96922310Y-110808911D01*
X96922308Y-110808909D01*
X96922306Y-110808906D01*
X96819373Y-110705973D01*
X96819367Y-110705969D01*
X96693292Y-110633179D01*
X96658136Y-110623759D01*
X96552671Y-110595500D01*
X96407089Y-110595500D01*
X96322717Y-110618107D01*
X96266467Y-110633179D01*
X96140392Y-110705969D01*
X96140386Y-110705973D01*
X96037453Y-110808906D01*
X96037449Y-110808912D01*
X95964659Y-110934987D01*
X95945819Y-111005299D01*
X95926980Y-111075609D01*
X95926980Y-111221191D01*
X95955689Y-111328333D01*
X95964660Y-111361814D01*
X95967206Y-111366224D01*
X95976137Y-111416883D01*
X95950416Y-111461430D01*
X95921545Y-111476459D01*
X95896468Y-111483178D01*
X95770392Y-111555969D01*
X95770386Y-111555973D01*
X95667453Y-111658906D01*
X95667449Y-111658912D01*
X95594659Y-111784987D01*
X95575819Y-111855299D01*
X95556980Y-111925609D01*
X89054930Y-111925609D01*
X89054930Y-110609420D01*
X89054930Y-110609419D01*
X89035519Y-110562557D01*
X89035517Y-110562555D01*
X89035517Y-110562554D01*
X88999655Y-110526692D01*
X88999653Y-110526691D01*
X88976301Y-110517018D01*
X88938377Y-110482266D01*
X88929880Y-110447543D01*
X88929880Y-110215375D01*
X106572100Y-110215375D01*
X106572100Y-110334625D01*
X106595294Y-110421188D01*
X106602964Y-110449813D01*
X106602964Y-110449814D01*
X106662589Y-110553087D01*
X106746912Y-110637410D01*
X106806538Y-110671834D01*
X106850187Y-110697036D01*
X106965375Y-110727900D01*
X106965378Y-110727900D01*
X107084622Y-110727900D01*
X107084625Y-110727900D01*
X107199813Y-110697036D01*
X107303087Y-110637410D01*
X107387410Y-110553087D01*
X107447036Y-110449813D01*
X107477900Y-110334625D01*
X107477900Y-110275609D01*
X126246980Y-110275609D01*
X126246980Y-110421191D01*
X126272103Y-110514952D01*
X126284659Y-110561812D01*
X126357449Y-110687887D01*
X126357453Y-110687893D01*
X126460386Y-110790826D01*
X126460389Y-110790828D01*
X126460391Y-110790830D01*
X126586469Y-110863621D01*
X126727089Y-110901300D01*
X126727092Y-110901300D01*
X126872668Y-110901300D01*
X126872671Y-110901300D01*
X127013291Y-110863621D01*
X127139369Y-110790830D01*
X127242310Y-110687889D01*
X127315101Y-110561811D01*
X127352780Y-110421191D01*
X127352780Y-110275609D01*
X127315101Y-110134989D01*
X127242310Y-110008911D01*
X127242308Y-110008909D01*
X127242306Y-110008906D01*
X127207028Y-109973628D01*
X127185288Y-109927008D01*
X127198602Y-109877321D01*
X127207023Y-109867285D01*
X127253938Y-109820371D01*
X127326729Y-109694293D01*
X127364408Y-109553673D01*
X127364408Y-109408091D01*
X127326729Y-109267471D01*
X127253938Y-109141393D01*
X127217975Y-109105430D01*
X127196236Y-109058812D01*
X127209549Y-109009125D01*
X127217970Y-108999088D01*
X127253938Y-108963121D01*
X127326729Y-108837043D01*
X127364408Y-108696423D01*
X127364408Y-108550841D01*
X127326729Y-108410221D01*
X127253938Y-108284143D01*
X127253936Y-108284141D01*
X127253934Y-108284138D01*
X127151001Y-108181205D01*
X127150995Y-108181201D01*
X127024920Y-108108411D01*
X126989764Y-108098991D01*
X126884299Y-108070732D01*
X126738717Y-108070732D01*
X126654345Y-108093339D01*
X126598095Y-108108411D01*
X126472020Y-108181201D01*
X126472014Y-108181205D01*
X126369081Y-108284138D01*
X126369077Y-108284144D01*
X126296287Y-108410219D01*
X126278102Y-108478087D01*
X126258608Y-108550841D01*
X126258608Y-108696423D01*
X126286867Y-108801888D01*
X126296287Y-108837044D01*
X126369077Y-108963119D01*
X126369081Y-108963125D01*
X126405039Y-108999083D01*
X126426779Y-109045703D01*
X126413465Y-109095390D01*
X126405039Y-109105431D01*
X126369081Y-109141388D01*
X126369077Y-109141394D01*
X126296287Y-109267469D01*
X126277447Y-109337781D01*
X126258608Y-109408091D01*
X126258608Y-109553673D01*
X126286867Y-109659138D01*
X126296287Y-109694294D01*
X126369077Y-109820369D01*
X126369081Y-109820375D01*
X126404359Y-109855653D01*
X126426099Y-109902273D01*
X126412785Y-109951960D01*
X126404359Y-109962001D01*
X126357453Y-110008906D01*
X126357449Y-110008912D01*
X126284659Y-110134987D01*
X126265819Y-110205299D01*
X126246980Y-110275609D01*
X107477900Y-110275609D01*
X107477900Y-110215375D01*
X107447036Y-110100187D01*
X107394338Y-110008912D01*
X107387410Y-109996912D01*
X107303087Y-109912589D01*
X107199813Y-109852964D01*
X107084625Y-109822100D01*
X106965375Y-109822100D01*
X106878984Y-109845248D01*
X106850186Y-109852964D01*
X106850185Y-109852964D01*
X106746912Y-109912589D01*
X106662589Y-109996912D01*
X106602964Y-110100185D01*
X106602964Y-110100186D01*
X106602964Y-110100187D01*
X106572100Y-110215375D01*
X88929880Y-110215375D01*
X88929880Y-108270375D01*
X104382100Y-108270375D01*
X104382100Y-108389625D01*
X104387619Y-108410221D01*
X104412964Y-108504813D01*
X104412964Y-108504814D01*
X104472589Y-108608087D01*
X104556912Y-108692410D01*
X104616538Y-108726834D01*
X104660187Y-108752036D01*
X104775375Y-108782900D01*
X104775378Y-108782900D01*
X104894622Y-108782900D01*
X104894625Y-108782900D01*
X105009813Y-108752036D01*
X105113087Y-108692410D01*
X105197410Y-108608087D01*
X105257036Y-108504813D01*
X105287900Y-108389625D01*
X105287900Y-108270375D01*
X105258426Y-108160375D01*
X105452100Y-108160375D01*
X105452100Y-108279625D01*
X105481573Y-108389622D01*
X105482964Y-108394813D01*
X105482964Y-108394814D01*
X105542589Y-108498087D01*
X105626912Y-108582410D01*
X105671386Y-108608087D01*
X105730187Y-108642036D01*
X105845375Y-108672900D01*
X105845378Y-108672900D01*
X105964622Y-108672900D01*
X105964625Y-108672900D01*
X106079813Y-108642036D01*
X106183087Y-108582410D01*
X106267410Y-108498087D01*
X106327036Y-108394813D01*
X106357900Y-108279625D01*
X106357900Y-108160375D01*
X106352541Y-108140375D01*
X113212100Y-108140375D01*
X113212100Y-108259625D01*
X113218670Y-108284144D01*
X113242964Y-108374813D01*
X113242964Y-108374814D01*
X113302589Y-108478087D01*
X113386912Y-108562410D01*
X113446538Y-108596834D01*
X113490187Y-108622036D01*
X113605375Y-108652900D01*
X113605378Y-108652900D01*
X113724622Y-108652900D01*
X113724625Y-108652900D01*
X113839813Y-108622036D01*
X113943087Y-108562410D01*
X114027410Y-108478087D01*
X114087036Y-108374813D01*
X114117900Y-108259625D01*
X114117900Y-108140375D01*
X114087036Y-108025187D01*
X114053782Y-107967590D01*
X114027410Y-107921912D01*
X113943087Y-107837589D01*
X113839813Y-107777964D01*
X113724625Y-107747100D01*
X113605375Y-107747100D01*
X113530733Y-107767100D01*
X113490186Y-107777964D01*
X113490185Y-107777964D01*
X113386912Y-107837589D01*
X113302589Y-107921912D01*
X113242964Y-108025185D01*
X113242964Y-108025186D01*
X113242964Y-108025187D01*
X113212100Y-108140375D01*
X106352541Y-108140375D01*
X106327036Y-108045187D01*
X106315489Y-108025187D01*
X106267410Y-107941912D01*
X106183087Y-107857589D01*
X106079813Y-107797964D01*
X105964625Y-107767100D01*
X105845375Y-107767100D01*
X105758984Y-107790248D01*
X105730186Y-107797964D01*
X105730185Y-107797964D01*
X105626912Y-107857589D01*
X105542589Y-107941912D01*
X105482964Y-108045185D01*
X105482964Y-108045186D01*
X105482964Y-108045187D01*
X105452100Y-108160375D01*
X105258426Y-108160375D01*
X105257036Y-108155187D01*
X105256876Y-108154910D01*
X105197410Y-108051912D01*
X105113087Y-107967589D01*
X105009813Y-107907964D01*
X104894625Y-107877100D01*
X104775375Y-107877100D01*
X104688984Y-107900248D01*
X104660186Y-107907964D01*
X104660185Y-107907964D01*
X104556912Y-107967589D01*
X104472589Y-108051912D01*
X104412964Y-108155185D01*
X104412964Y-108155186D01*
X104405994Y-108181201D01*
X104382100Y-108270375D01*
X88929880Y-108270375D01*
X88929880Y-107322156D01*
X88947473Y-107273818D01*
X88976302Y-107252681D01*
X88999653Y-107243009D01*
X89035519Y-107207143D01*
X89054930Y-107160281D01*
X89054930Y-106967608D01*
X110095300Y-106967608D01*
X110095300Y-107086858D01*
X110126164Y-107202046D01*
X110126164Y-107202047D01*
X110185789Y-107305320D01*
X110270112Y-107389643D01*
X110329738Y-107424067D01*
X110373387Y-107449269D01*
X110488575Y-107480133D01*
X110488578Y-107480133D01*
X110607822Y-107480133D01*
X110607825Y-107480133D01*
X110723013Y-107449269D01*
X110826287Y-107389643D01*
X110910610Y-107305320D01*
X110970236Y-107202046D01*
X111001100Y-107086858D01*
X111001100Y-106967608D01*
X110970236Y-106852420D01*
X110921047Y-106767223D01*
X110910610Y-106749145D01*
X110826287Y-106664822D01*
X110797109Y-106647976D01*
X112475711Y-106647976D01*
X112475711Y-106767226D01*
X112498538Y-106852418D01*
X112506575Y-106882414D01*
X112506575Y-106882415D01*
X112566200Y-106985688D01*
X112650523Y-107070011D01*
X112710149Y-107104435D01*
X112753798Y-107129637D01*
X112868986Y-107160501D01*
X112868989Y-107160501D01*
X112988233Y-107160501D01*
X112988236Y-107160501D01*
X113103424Y-107129637D01*
X113206698Y-107070011D01*
X113291021Y-106985688D01*
X113350647Y-106882414D01*
X113381511Y-106767226D01*
X113381511Y-106647976D01*
X113350647Y-106532788D01*
X113343494Y-106520399D01*
X113293513Y-106433828D01*
X113293511Y-106433826D01*
X113291020Y-106429512D01*
X113262660Y-106401152D01*
X114359700Y-106401152D01*
X114359700Y-106520402D01*
X114386932Y-106622035D01*
X114390564Y-106635590D01*
X114390564Y-106635591D01*
X114450189Y-106738864D01*
X114534512Y-106823187D01*
X114585142Y-106852418D01*
X114637787Y-106882813D01*
X114752975Y-106913677D01*
X114752978Y-106913677D01*
X114872222Y-106913677D01*
X114872225Y-106913677D01*
X114987413Y-106882813D01*
X115090687Y-106823187D01*
X115175010Y-106738864D01*
X115234636Y-106635590D01*
X115265500Y-106520402D01*
X115265500Y-106401152D01*
X115234636Y-106285964D01*
X115208315Y-106240375D01*
X116992100Y-106240375D01*
X116992100Y-106359625D01*
X117022964Y-106474813D01*
X117022964Y-106474814D01*
X117082589Y-106578087D01*
X117166912Y-106662410D01*
X117226538Y-106696834D01*
X117270187Y-106722036D01*
X117385375Y-106752900D01*
X117385378Y-106752900D01*
X117504622Y-106752900D01*
X117504625Y-106752900D01*
X117619813Y-106722036D01*
X117723087Y-106662410D01*
X117807410Y-106578087D01*
X117867036Y-106474813D01*
X117897900Y-106359625D01*
X117897900Y-106240375D01*
X117867036Y-106125187D01*
X117867035Y-106125185D01*
X117807410Y-106021912D01*
X117723087Y-105937589D01*
X117619813Y-105877964D01*
X117504625Y-105847100D01*
X117385375Y-105847100D01*
X117298984Y-105870248D01*
X117270186Y-105877964D01*
X117270185Y-105877964D01*
X117166912Y-105937589D01*
X117082589Y-106021912D01*
X117022964Y-106125185D01*
X117022964Y-106125186D01*
X117022964Y-106125187D01*
X116992100Y-106240375D01*
X115208315Y-106240375D01*
X115175010Y-106182689D01*
X115090687Y-106098366D01*
X114987413Y-106038741D01*
X114872225Y-106007877D01*
X114752975Y-106007877D01*
X114666584Y-106031025D01*
X114637786Y-106038741D01*
X114637785Y-106038741D01*
X114534512Y-106098366D01*
X114450189Y-106182689D01*
X114390564Y-106285962D01*
X114390564Y-106285963D01*
X114390564Y-106285964D01*
X114359700Y-106401152D01*
X113262660Y-106401152D01*
X113206698Y-106345190D01*
X113103424Y-106285565D01*
X112988236Y-106254701D01*
X112868986Y-106254701D01*
X112782595Y-106277849D01*
X112753797Y-106285565D01*
X112753796Y-106285565D01*
X112650523Y-106345190D01*
X112566200Y-106429513D01*
X112506575Y-106532786D01*
X112506575Y-106532787D01*
X112506575Y-106532788D01*
X112475711Y-106647976D01*
X110797109Y-106647976D01*
X110723013Y-106605197D01*
X110607825Y-106574333D01*
X110488575Y-106574333D01*
X110402184Y-106597481D01*
X110373386Y-106605197D01*
X110373385Y-106605197D01*
X110270112Y-106664822D01*
X110185789Y-106749145D01*
X110126164Y-106852418D01*
X110126164Y-106852419D01*
X110126164Y-106852420D01*
X110095300Y-106967608D01*
X89054930Y-106967608D01*
X89054930Y-106140375D01*
X107197100Y-106140375D01*
X107197100Y-106259625D01*
X107227964Y-106374813D01*
X107227964Y-106374814D01*
X107287589Y-106478087D01*
X107371912Y-106562410D01*
X107431538Y-106596834D01*
X107475187Y-106622036D01*
X107590375Y-106652900D01*
X107590378Y-106652900D01*
X107709622Y-106652900D01*
X107709625Y-106652900D01*
X107824813Y-106622036D01*
X107928087Y-106562410D01*
X108012410Y-106478087D01*
X108072036Y-106374813D01*
X108102900Y-106259625D01*
X108102900Y-106140375D01*
X108072036Y-106025187D01*
X108062042Y-106007877D01*
X108012410Y-105921912D01*
X107928087Y-105837589D01*
X107824813Y-105777964D01*
X107709625Y-105747100D01*
X107590375Y-105747100D01*
X107503984Y-105770248D01*
X107475186Y-105777964D01*
X107475185Y-105777964D01*
X107371912Y-105837589D01*
X107287589Y-105921912D01*
X107227964Y-106025185D01*
X107227964Y-106025186D01*
X107227964Y-106025187D01*
X107197100Y-106140375D01*
X89054930Y-106140375D01*
X89054930Y-103409099D01*
X92769490Y-103409099D01*
X92769490Y-103554681D01*
X92797749Y-103660146D01*
X92807169Y-103695302D01*
X92879959Y-103821377D01*
X92879963Y-103821383D01*
X92982896Y-103924316D01*
X92982899Y-103924318D01*
X92982901Y-103924320D01*
X93108979Y-103997111D01*
X93249599Y-104034790D01*
X93249602Y-104034790D01*
X93324210Y-104034790D01*
X93372548Y-104052383D01*
X93398268Y-104096932D01*
X93399410Y-104109990D01*
X93399410Y-104184601D01*
X93415912Y-104246186D01*
X93437089Y-104325222D01*
X93509879Y-104451297D01*
X93509883Y-104451303D01*
X93612816Y-104554236D01*
X93612819Y-104554238D01*
X93612821Y-104554240D01*
X93738899Y-104627031D01*
X93879519Y-104664710D01*
X93879522Y-104664710D01*
X93963020Y-104664710D01*
X94011358Y-104682303D01*
X94037078Y-104726852D01*
X94038220Y-104739910D01*
X94038220Y-104823411D01*
X94060775Y-104907586D01*
X94075899Y-104964032D01*
X94148689Y-105090107D01*
X94148693Y-105090113D01*
X94251626Y-105193046D01*
X94251629Y-105193048D01*
X94251631Y-105193050D01*
X94351064Y-105250457D01*
X94362766Y-105257214D01*
X94377709Y-105265841D01*
X94518329Y-105303520D01*
X94518332Y-105303520D01*
X94663908Y-105303520D01*
X94663911Y-105303520D01*
X94804531Y-105265841D01*
X94930609Y-105193050D01*
X95033550Y-105090109D01*
X95072425Y-105022775D01*
X117879499Y-105022775D01*
X117879499Y-105142025D01*
X117893170Y-105193046D01*
X117910363Y-105257213D01*
X117910363Y-105257214D01*
X117969988Y-105360487D01*
X118054311Y-105444810D01*
X118113937Y-105479234D01*
X118157586Y-105504436D01*
X118272774Y-105535300D01*
X118272777Y-105535300D01*
X118392021Y-105535300D01*
X118392024Y-105535300D01*
X118507212Y-105504436D01*
X118610486Y-105444810D01*
X118694809Y-105360487D01*
X118754435Y-105257213D01*
X118785299Y-105142025D01*
X118785299Y-105022775D01*
X118754435Y-104907587D01*
X118717166Y-104843036D01*
X118694809Y-104804312D01*
X118610486Y-104719989D01*
X118507212Y-104660364D01*
X118505510Y-104659908D01*
X118392024Y-104629500D01*
X118272774Y-104629500D01*
X118186383Y-104652648D01*
X118157585Y-104660364D01*
X118157584Y-104660364D01*
X118054311Y-104719989D01*
X117969988Y-104804312D01*
X117910363Y-104907585D01*
X117910363Y-104907586D01*
X117910363Y-104907587D01*
X117879499Y-105022775D01*
X95072425Y-105022775D01*
X95072763Y-105022189D01*
X95096980Y-104980246D01*
X95100876Y-104973496D01*
X95106341Y-104964031D01*
X95144020Y-104823411D01*
X95144020Y-104677829D01*
X95106341Y-104537209D01*
X95033550Y-104411131D01*
X95033548Y-104411129D01*
X95033546Y-104411126D01*
X94983795Y-104361375D01*
X114090389Y-104361375D01*
X114090389Y-104480625D01*
X114121253Y-104595813D01*
X114121253Y-104595814D01*
X114180878Y-104699087D01*
X114265201Y-104783410D01*
X114324827Y-104817834D01*
X114368476Y-104843036D01*
X114483664Y-104873900D01*
X114483667Y-104873900D01*
X114602911Y-104873900D01*
X114602914Y-104873900D01*
X114718102Y-104843036D01*
X114821376Y-104783410D01*
X114905699Y-104699087D01*
X114965325Y-104595813D01*
X114996189Y-104480625D01*
X114996189Y-104361375D01*
X114990562Y-104340375D01*
X116912440Y-104340375D01*
X116912440Y-104459625D01*
X116918067Y-104480625D01*
X116943304Y-104574813D01*
X116943304Y-104574814D01*
X117002929Y-104678087D01*
X117087252Y-104762410D01*
X117146878Y-104796834D01*
X117190527Y-104822036D01*
X117305715Y-104852900D01*
X117305718Y-104852900D01*
X117424962Y-104852900D01*
X117424965Y-104852900D01*
X117540153Y-104822036D01*
X117643427Y-104762410D01*
X117727750Y-104678087D01*
X117787376Y-104574813D01*
X117818240Y-104459625D01*
X117818240Y-104340375D01*
X117787376Y-104225187D01*
X117771518Y-104197720D01*
X117727750Y-104121912D01*
X117643427Y-104037589D01*
X117540153Y-103977964D01*
X117424965Y-103947100D01*
X117305715Y-103947100D01*
X117227341Y-103968100D01*
X117190526Y-103977964D01*
X117190525Y-103977964D01*
X117087252Y-104037589D01*
X117002929Y-104121912D01*
X116943304Y-104225185D01*
X116943304Y-104225186D01*
X116943304Y-104225187D01*
X116912440Y-104340375D01*
X114990562Y-104340375D01*
X114965325Y-104246187D01*
X114965324Y-104246185D01*
X114905699Y-104142912D01*
X114821376Y-104058589D01*
X114718102Y-103998964D01*
X114711186Y-103997111D01*
X114602914Y-103968100D01*
X114483664Y-103968100D01*
X114397273Y-103991248D01*
X114368475Y-103998964D01*
X114368474Y-103998964D01*
X114265201Y-104058589D01*
X114180878Y-104142912D01*
X114121253Y-104246185D01*
X114121253Y-104246186D01*
X114121253Y-104246187D01*
X114090389Y-104361375D01*
X94983795Y-104361375D01*
X94930613Y-104308193D01*
X94930607Y-104308189D01*
X94804532Y-104235399D01*
X94766419Y-104225187D01*
X94663911Y-104197720D01*
X94580410Y-104197720D01*
X94532072Y-104180127D01*
X94506352Y-104135578D01*
X94505210Y-104122520D01*
X94505210Y-104039021D01*
X94505210Y-104039019D01*
X94467531Y-103898399D01*
X94394740Y-103772321D01*
X94394738Y-103772319D01*
X94394736Y-103772316D01*
X94291803Y-103669383D01*
X94291797Y-103669379D01*
X94165722Y-103596589D01*
X94130566Y-103587169D01*
X94025101Y-103558910D01*
X93950490Y-103558910D01*
X93902152Y-103541317D01*
X93876432Y-103496768D01*
X93875290Y-103483710D01*
X93875290Y-103409101D01*
X93875290Y-103409099D01*
X93837611Y-103268479D01*
X93764820Y-103142401D01*
X93764818Y-103142399D01*
X93764816Y-103142396D01*
X93661883Y-103039463D01*
X93661877Y-103039459D01*
X93535802Y-102966669D01*
X93500646Y-102957249D01*
X93395181Y-102928990D01*
X93249599Y-102928990D01*
X93165227Y-102951597D01*
X93108977Y-102966669D01*
X92982902Y-103039459D01*
X92982896Y-103039463D01*
X92879963Y-103142396D01*
X92879959Y-103142402D01*
X92807169Y-103268477D01*
X92788329Y-103338789D01*
X92769490Y-103409099D01*
X89054930Y-103409099D01*
X89054930Y-101270375D01*
X104422100Y-101270375D01*
X104422100Y-101389625D01*
X104452964Y-101504813D01*
X104452964Y-101504814D01*
X104512589Y-101608087D01*
X104596912Y-101692410D01*
X104656538Y-101726834D01*
X104700187Y-101752036D01*
X104815375Y-101782900D01*
X104815378Y-101782900D01*
X104934622Y-101782900D01*
X104934625Y-101782900D01*
X105049813Y-101752036D01*
X105153087Y-101692410D01*
X105237410Y-101608087D01*
X105297036Y-101504813D01*
X105327900Y-101389625D01*
X105327900Y-101270375D01*
X105297036Y-101155187D01*
X105297035Y-101155185D01*
X105237410Y-101051912D01*
X105153087Y-100967589D01*
X105049813Y-100907964D01*
X104934625Y-100877100D01*
X104815375Y-100877100D01*
X104728984Y-100900248D01*
X104700186Y-100907964D01*
X104700185Y-100907964D01*
X104596912Y-100967589D01*
X104512589Y-101051912D01*
X104452964Y-101155185D01*
X104452964Y-101155186D01*
X104452964Y-101155187D01*
X104422100Y-101270375D01*
X89054930Y-101270375D01*
X89054930Y-98790375D01*
X105997100Y-98790375D01*
X105997100Y-98909625D01*
X106025100Y-99014125D01*
X106027964Y-99024813D01*
X106027964Y-99024814D01*
X106087589Y-99128087D01*
X106171912Y-99212410D01*
X106231538Y-99246834D01*
X106275187Y-99272036D01*
X106390375Y-99302900D01*
X106390378Y-99302900D01*
X106509622Y-99302900D01*
X106509625Y-99302900D01*
X106624813Y-99272036D01*
X106728087Y-99212410D01*
X106812410Y-99128087D01*
X106872036Y-99024813D01*
X106902900Y-98909625D01*
X106902900Y-98790375D01*
X106872036Y-98675187D01*
X106872035Y-98675185D01*
X106812410Y-98571912D01*
X106728087Y-98487589D01*
X106680951Y-98460375D01*
X107212100Y-98460375D01*
X107212100Y-98579625D01*
X107241012Y-98687527D01*
X107242964Y-98694813D01*
X107242964Y-98694814D01*
X107302589Y-98798087D01*
X107386912Y-98882410D01*
X107457701Y-98923280D01*
X107490766Y-98962685D01*
X107490766Y-99014125D01*
X107485226Y-99026005D01*
X107427964Y-99125185D01*
X107427964Y-99125186D01*
X107427964Y-99125187D01*
X107397100Y-99240375D01*
X107397100Y-99359625D01*
X107420239Y-99445982D01*
X107427964Y-99474813D01*
X107427964Y-99474814D01*
X107487589Y-99578087D01*
X107571912Y-99662410D01*
X107654123Y-99709875D01*
X107687188Y-99749280D01*
X107687188Y-99800720D01*
X107654123Y-99840125D01*
X107571912Y-99887589D01*
X107487589Y-99971912D01*
X107427964Y-100075185D01*
X107427964Y-100075186D01*
X107427964Y-100075187D01*
X107397100Y-100190375D01*
X107397100Y-100309625D01*
X107427964Y-100424813D01*
X107427964Y-100424814D01*
X107487589Y-100528087D01*
X107571912Y-100612410D01*
X107631538Y-100646834D01*
X107675187Y-100672036D01*
X107790375Y-100702900D01*
X107790378Y-100702900D01*
X107909622Y-100702900D01*
X107909625Y-100702900D01*
X108024813Y-100672036D01*
X108128087Y-100612410D01*
X108212410Y-100528087D01*
X108272036Y-100424813D01*
X108302900Y-100309625D01*
X108302900Y-100190375D01*
X108272036Y-100075187D01*
X108272035Y-100075185D01*
X108212410Y-99971912D01*
X108128087Y-99887589D01*
X108045876Y-99840125D01*
X108012811Y-99800720D01*
X108012811Y-99749280D01*
X108045876Y-99709875D01*
X108128087Y-99662410D01*
X108212410Y-99578087D01*
X108272036Y-99474813D01*
X108302900Y-99359625D01*
X108302900Y-99290375D01*
X116797100Y-99290375D01*
X116797100Y-99409625D01*
X116814567Y-99474813D01*
X116827964Y-99524813D01*
X116827964Y-99524814D01*
X116887589Y-99628087D01*
X116971912Y-99712410D01*
X117031538Y-99746834D01*
X117075187Y-99772036D01*
X117190375Y-99802900D01*
X117190378Y-99802900D01*
X117309622Y-99802900D01*
X117309625Y-99802900D01*
X117424813Y-99772036D01*
X117528087Y-99712410D01*
X117612410Y-99628087D01*
X117672036Y-99524813D01*
X117686622Y-99470375D01*
X121022100Y-99470375D01*
X121022100Y-99589625D01*
X121052964Y-99704813D01*
X121052964Y-99704814D01*
X121112589Y-99808087D01*
X121196912Y-99892410D01*
X121256538Y-99926834D01*
X121300187Y-99952036D01*
X121415375Y-99982900D01*
X121415378Y-99982900D01*
X121534622Y-99982900D01*
X121534625Y-99982900D01*
X121649813Y-99952036D01*
X121753087Y-99892410D01*
X121837410Y-99808087D01*
X121897036Y-99704813D01*
X121927900Y-99589625D01*
X121927900Y-99470375D01*
X121897036Y-99355187D01*
X121866848Y-99302900D01*
X121837410Y-99251912D01*
X121753087Y-99167589D01*
X121649813Y-99107964D01*
X121534625Y-99077100D01*
X121415375Y-99077100D01*
X121328984Y-99100248D01*
X121300186Y-99107964D01*
X121300185Y-99107964D01*
X121196912Y-99167589D01*
X121112589Y-99251912D01*
X121052964Y-99355185D01*
X121052964Y-99355186D01*
X121051775Y-99359625D01*
X121022100Y-99470375D01*
X117686622Y-99470375D01*
X117702900Y-99409625D01*
X117702900Y-99290375D01*
X117672036Y-99175187D01*
X117651968Y-99140428D01*
X117612410Y-99071912D01*
X117528087Y-98987589D01*
X117424813Y-98927964D01*
X117309625Y-98897100D01*
X117190375Y-98897100D01*
X117103984Y-98920248D01*
X117075186Y-98927964D01*
X117075185Y-98927964D01*
X116971912Y-98987589D01*
X116887589Y-99071912D01*
X116827964Y-99175185D01*
X116827964Y-99175186D01*
X116827964Y-99175187D01*
X116797100Y-99290375D01*
X108302900Y-99290375D01*
X108302900Y-99240375D01*
X108272036Y-99125187D01*
X108241278Y-99071913D01*
X108212410Y-99021912D01*
X108128087Y-98937589D01*
X108057297Y-98896719D01*
X108044739Y-98881753D01*
X108029771Y-98869193D01*
X108028592Y-98862511D01*
X108024232Y-98857314D01*
X108024232Y-98837774D01*
X108020840Y-98818535D01*
X108024232Y-98809214D01*
X108024232Y-98805874D01*
X108025704Y-98802716D01*
X125384759Y-98802716D01*
X125384759Y-98921966D01*
X125402343Y-98987590D01*
X125415623Y-99037154D01*
X125415623Y-99037155D01*
X125475248Y-99140428D01*
X125559571Y-99224751D01*
X125606617Y-99251913D01*
X125662846Y-99284377D01*
X125778034Y-99315241D01*
X125778037Y-99315241D01*
X125897281Y-99315241D01*
X125897284Y-99315241D01*
X126012472Y-99284377D01*
X126115746Y-99224751D01*
X126200069Y-99140428D01*
X126259695Y-99037154D01*
X126290559Y-98921966D01*
X126290559Y-98802716D01*
X126259695Y-98687528D01*
X126252569Y-98675185D01*
X126200069Y-98584253D01*
X126115746Y-98499930D01*
X126012472Y-98440305D01*
X125897284Y-98409441D01*
X125778034Y-98409441D01*
X125691643Y-98432589D01*
X125662845Y-98440305D01*
X125662844Y-98440305D01*
X125559571Y-98499930D01*
X125475248Y-98584253D01*
X125415623Y-98687526D01*
X125415623Y-98687527D01*
X125413671Y-98694813D01*
X125384759Y-98802716D01*
X108025704Y-98802716D01*
X108029764Y-98794008D01*
X108087036Y-98694813D01*
X108117900Y-98579625D01*
X108117900Y-98460375D01*
X108087036Y-98345187D01*
X108087035Y-98345185D01*
X108027410Y-98241912D01*
X107943087Y-98157589D01*
X107839813Y-98097964D01*
X107724625Y-98067100D01*
X107605375Y-98067100D01*
X107518984Y-98090248D01*
X107490186Y-98097964D01*
X107490185Y-98097964D01*
X107386912Y-98157589D01*
X107302589Y-98241912D01*
X107242964Y-98345185D01*
X107242964Y-98345186D01*
X107242964Y-98345187D01*
X107212100Y-98460375D01*
X106680951Y-98460375D01*
X106624813Y-98427964D01*
X106509625Y-98397100D01*
X106390375Y-98397100D01*
X106303984Y-98420248D01*
X106275186Y-98427964D01*
X106275185Y-98427964D01*
X106171912Y-98487589D01*
X106087589Y-98571912D01*
X106027964Y-98675185D01*
X106027964Y-98675186D01*
X106024657Y-98687528D01*
X105997100Y-98790375D01*
X89054930Y-98790375D01*
X89054930Y-97785915D01*
X118299500Y-97785915D01*
X118299500Y-97905165D01*
X118330364Y-98020353D01*
X118330364Y-98020354D01*
X118389989Y-98123627D01*
X118474312Y-98207950D01*
X118533136Y-98241912D01*
X118577587Y-98267576D01*
X118692775Y-98298440D01*
X118692778Y-98298440D01*
X118812022Y-98298440D01*
X118812025Y-98298440D01*
X118927213Y-98267576D01*
X119030487Y-98207950D01*
X119114810Y-98123627D01*
X119174436Y-98020353D01*
X119205300Y-97905165D01*
X119205300Y-97785915D01*
X119174436Y-97670727D01*
X119158370Y-97642900D01*
X119114810Y-97567452D01*
X119030487Y-97483129D01*
X118927213Y-97423504D01*
X118812025Y-97392640D01*
X118692775Y-97392640D01*
X118606384Y-97415788D01*
X118577586Y-97423504D01*
X118577585Y-97423504D01*
X118474312Y-97483129D01*
X118389989Y-97567452D01*
X118330364Y-97670725D01*
X118330364Y-97670726D01*
X118330364Y-97670727D01*
X118299500Y-97785915D01*
X89054930Y-97785915D01*
X89054930Y-95126406D01*
X90402000Y-95126406D01*
X90402000Y-95771000D01*
X91329297Y-95771000D01*
X91294075Y-95832007D01*
X91260000Y-95959174D01*
X91260000Y-96090826D01*
X91294075Y-96217993D01*
X91329297Y-96279000D01*
X90402000Y-96279000D01*
X90402000Y-96923593D01*
X90408504Y-96984092D01*
X90408505Y-96984095D01*
X90459555Y-97120963D01*
X90459556Y-97120965D01*
X90547096Y-97237903D01*
X90664034Y-97325443D01*
X90664036Y-97325444D01*
X90800904Y-97376494D01*
X90800907Y-97376495D01*
X90861406Y-97382999D01*
X90861418Y-97383000D01*
X91506000Y-97383000D01*
X91506000Y-96455702D01*
X91567007Y-96490925D01*
X91694174Y-96525000D01*
X91825826Y-96525000D01*
X91952993Y-96490925D01*
X92014000Y-96455702D01*
X92014000Y-97383000D01*
X92658582Y-97383000D01*
X92658593Y-97382999D01*
X92719092Y-97376495D01*
X92719095Y-97376494D01*
X92855963Y-97325444D01*
X92855965Y-97325443D01*
X92972903Y-97237903D01*
X93053399Y-97130375D01*
X115064500Y-97130375D01*
X115064500Y-97249625D01*
X115095364Y-97364813D01*
X115095364Y-97364814D01*
X115154989Y-97468087D01*
X115239312Y-97552410D01*
X115298938Y-97586834D01*
X115342587Y-97612036D01*
X115457775Y-97642900D01*
X115457778Y-97642900D01*
X115577022Y-97642900D01*
X115577025Y-97642900D01*
X115692213Y-97612036D01*
X115795487Y-97552410D01*
X115879810Y-97468087D01*
X115939436Y-97364813D01*
X115970300Y-97249625D01*
X115970300Y-97130375D01*
X115939436Y-97015187D01*
X115924524Y-96989359D01*
X115879810Y-96911912D01*
X115795487Y-96827589D01*
X115692213Y-96767964D01*
X115577025Y-96737100D01*
X115457775Y-96737100D01*
X115371384Y-96760248D01*
X115342586Y-96767964D01*
X115342585Y-96767964D01*
X115239312Y-96827589D01*
X115154989Y-96911912D01*
X115095364Y-97015185D01*
X115095364Y-97015186D01*
X115085284Y-97052808D01*
X115064500Y-97130375D01*
X93053399Y-97130375D01*
X93060443Y-97120965D01*
X93060444Y-97120963D01*
X93111494Y-96984095D01*
X93111495Y-96984092D01*
X93117999Y-96923593D01*
X93118000Y-96923582D01*
X93118000Y-96279000D01*
X92190703Y-96279000D01*
X92225925Y-96217993D01*
X92260000Y-96090826D01*
X92260000Y-95959174D01*
X92251170Y-95926222D01*
X93297100Y-95926222D01*
X93297100Y-96123777D01*
X93335641Y-96317537D01*
X93335642Y-96317538D01*
X93388282Y-96444622D01*
X93411241Y-96500051D01*
X93520996Y-96664312D01*
X93520997Y-96664313D01*
X93521000Y-96664317D01*
X93660682Y-96803999D01*
X93660685Y-96804001D01*
X93660688Y-96804004D01*
X93824949Y-96913759D01*
X94007461Y-96989357D01*
X94007462Y-96989358D01*
X94007463Y-96989358D01*
X94007465Y-96989359D01*
X94137218Y-97015168D01*
X94201222Y-97027900D01*
X94201223Y-97027900D01*
X94398778Y-97027900D01*
X94462699Y-97015185D01*
X94592535Y-96989359D01*
X94775051Y-96913759D01*
X94939312Y-96804004D01*
X95079004Y-96664312D01*
X95188759Y-96500051D01*
X95264359Y-96317535D01*
X95302900Y-96123777D01*
X95302900Y-95926223D01*
X95302900Y-95926222D01*
X95837100Y-95926222D01*
X95837100Y-96123777D01*
X95875641Y-96317537D01*
X95875642Y-96317538D01*
X95928282Y-96444622D01*
X95951241Y-96500051D01*
X96060996Y-96664312D01*
X96060997Y-96664313D01*
X96061000Y-96664317D01*
X96200682Y-96803999D01*
X96200685Y-96804001D01*
X96200688Y-96804004D01*
X96364949Y-96913759D01*
X96547461Y-96989357D01*
X96547462Y-96989358D01*
X96547463Y-96989358D01*
X96547465Y-96989359D01*
X96677218Y-97015168D01*
X96741222Y-97027900D01*
X96741223Y-97027900D01*
X96938778Y-97027900D01*
X97002699Y-97015185D01*
X97132535Y-96989359D01*
X97315051Y-96913759D01*
X97479312Y-96804004D01*
X97619004Y-96664312D01*
X97701816Y-96540375D01*
X102397100Y-96540375D01*
X102397100Y-96659625D01*
X102417859Y-96737100D01*
X102427964Y-96774813D01*
X102427964Y-96774814D01*
X102487589Y-96878087D01*
X102571912Y-96962410D01*
X102609472Y-96984095D01*
X102675187Y-97022036D01*
X102790375Y-97052900D01*
X102790378Y-97052900D01*
X102909624Y-97052900D01*
X102909625Y-97052900D01*
X103024813Y-97022036D01*
X103128087Y-96962410D01*
X103212410Y-96878087D01*
X103272036Y-96774813D01*
X103302900Y-96659625D01*
X103302900Y-96540375D01*
X103272036Y-96425187D01*
X103271985Y-96425099D01*
X103212410Y-96321912D01*
X103128087Y-96237589D01*
X103024813Y-96177964D01*
X102909625Y-96147100D01*
X102790375Y-96147100D01*
X102703984Y-96170248D01*
X102675186Y-96177964D01*
X102675185Y-96177964D01*
X102571912Y-96237589D01*
X102487589Y-96321912D01*
X102427964Y-96425185D01*
X102427964Y-96425186D01*
X102427964Y-96425187D01*
X102397100Y-96540375D01*
X97701816Y-96540375D01*
X97728759Y-96500051D01*
X97804359Y-96317535D01*
X97842900Y-96123777D01*
X97842900Y-96036975D01*
X109547100Y-96036975D01*
X109547100Y-96156225D01*
X109573004Y-96252900D01*
X109577964Y-96271413D01*
X109577964Y-96271414D01*
X109637589Y-96374687D01*
X109721912Y-96459010D01*
X109777191Y-96490925D01*
X109825187Y-96518636D01*
X109940375Y-96549500D01*
X109940378Y-96549500D01*
X110059622Y-96549500D01*
X110059625Y-96549500D01*
X110174813Y-96518636D01*
X110278087Y-96459010D01*
X110362410Y-96374687D01*
X110422036Y-96271413D01*
X110452900Y-96156225D01*
X110452900Y-96036975D01*
X110422036Y-95921787D01*
X110422035Y-95921785D01*
X110362412Y-95818515D01*
X110362407Y-95818509D01*
X110324489Y-95780591D01*
X119287316Y-95780591D01*
X119287316Y-95899841D01*
X119307405Y-95974814D01*
X119318180Y-96015029D01*
X119318180Y-96015030D01*
X119377805Y-96118303D01*
X119462128Y-96202626D01*
X119506228Y-96228087D01*
X119565403Y-96262252D01*
X119680591Y-96293116D01*
X119680594Y-96293116D01*
X119799838Y-96293116D01*
X119799841Y-96293116D01*
X119915029Y-96262252D01*
X120018303Y-96202626D01*
X120102626Y-96118303D01*
X120162252Y-96015029D01*
X120193116Y-95899841D01*
X120193116Y-95780591D01*
X120182340Y-95740375D01*
X122147100Y-95740375D01*
X122147100Y-95859625D01*
X122173774Y-95959174D01*
X122177964Y-95974813D01*
X122177964Y-95974814D01*
X122237589Y-96078087D01*
X122321912Y-96162410D01*
X122381538Y-96196834D01*
X122425187Y-96222036D01*
X122540375Y-96252900D01*
X122540378Y-96252900D01*
X122659622Y-96252900D01*
X122659625Y-96252900D01*
X122774813Y-96222036D01*
X122878087Y-96162410D01*
X122962410Y-96078087D01*
X123022036Y-95974813D01*
X123044661Y-95890375D01*
X124987100Y-95890375D01*
X124987100Y-96009625D01*
X125013168Y-96106912D01*
X125017964Y-96124813D01*
X125017964Y-96124814D01*
X125077589Y-96228087D01*
X125161912Y-96312410D01*
X125221538Y-96346834D01*
X125265187Y-96372036D01*
X125380375Y-96402900D01*
X125380378Y-96402900D01*
X125499622Y-96402900D01*
X125499625Y-96402900D01*
X125614813Y-96372036D01*
X125695631Y-96325375D01*
X130472100Y-96325375D01*
X130472100Y-96444625D01*
X130491931Y-96518635D01*
X130502964Y-96559813D01*
X130502964Y-96559814D01*
X130562589Y-96663087D01*
X130646912Y-96747410D01*
X130706538Y-96781834D01*
X130750187Y-96807036D01*
X130865375Y-96837900D01*
X130865378Y-96837900D01*
X130984622Y-96837900D01*
X130984625Y-96837900D01*
X131099813Y-96807036D01*
X131203087Y-96747410D01*
X131287410Y-96663087D01*
X131347036Y-96559813D01*
X131377900Y-96444625D01*
X131377900Y-96325375D01*
X131347036Y-96210187D01*
X131315879Y-96156222D01*
X131287410Y-96106912D01*
X131203087Y-96022589D01*
X131099813Y-95962964D01*
X131085668Y-95959174D01*
X130984625Y-95932100D01*
X130865375Y-95932100D01*
X130778984Y-95955248D01*
X130750186Y-95962964D01*
X130750185Y-95962964D01*
X130646912Y-96022589D01*
X130562589Y-96106912D01*
X130502964Y-96210185D01*
X130502964Y-96210186D01*
X130492676Y-96248583D01*
X130472100Y-96325375D01*
X125695631Y-96325375D01*
X125718087Y-96312410D01*
X125737381Y-96293116D01*
X125763226Y-96267272D01*
X125802410Y-96228087D01*
X125843900Y-96156225D01*
X125862036Y-96124813D01*
X125892900Y-96009625D01*
X125892900Y-95890375D01*
X125862036Y-95775187D01*
X125859619Y-95771000D01*
X125802410Y-95671912D01*
X125718087Y-95587589D01*
X125614813Y-95527964D01*
X125603751Y-95525000D01*
X125499625Y-95497100D01*
X125380375Y-95497100D01*
X125293984Y-95520248D01*
X125265186Y-95527964D01*
X125265185Y-95527964D01*
X125161912Y-95587589D01*
X125077589Y-95671912D01*
X125017964Y-95775185D01*
X125017964Y-95775186D01*
X125017964Y-95775187D01*
X124987100Y-95890375D01*
X123044661Y-95890375D01*
X123052900Y-95859625D01*
X123052900Y-95740375D01*
X123022036Y-95625187D01*
X122985629Y-95562129D01*
X122962410Y-95521912D01*
X122878087Y-95437589D01*
X122774813Y-95377964D01*
X122659625Y-95347100D01*
X122540375Y-95347100D01*
X122453984Y-95370248D01*
X122425186Y-95377964D01*
X122425185Y-95377964D01*
X122321912Y-95437589D01*
X122237589Y-95521912D01*
X122177964Y-95625185D01*
X122177964Y-95625186D01*
X122167676Y-95663583D01*
X122147100Y-95740375D01*
X120182340Y-95740375D01*
X120162252Y-95665403D01*
X120139033Y-95625187D01*
X120102626Y-95562128D01*
X120018303Y-95477805D01*
X119915029Y-95418180D01*
X119799841Y-95387316D01*
X119680591Y-95387316D01*
X119594200Y-95410464D01*
X119565402Y-95418180D01*
X119565401Y-95418180D01*
X119462128Y-95477805D01*
X119377805Y-95562128D01*
X119318180Y-95665401D01*
X119318180Y-95665402D01*
X119315725Y-95674564D01*
X119287316Y-95780591D01*
X110324489Y-95780591D01*
X110278087Y-95734189D01*
X110174813Y-95674564D01*
X110164915Y-95671912D01*
X110059625Y-95643700D01*
X109940375Y-95643700D01*
X109859381Y-95665402D01*
X109825186Y-95674564D01*
X109825185Y-95674564D01*
X109721912Y-95734189D01*
X109637589Y-95818512D01*
X109577964Y-95921785D01*
X109577964Y-95921786D01*
X109567946Y-95959174D01*
X109547100Y-96036975D01*
X97842900Y-96036975D01*
X97842900Y-95926223D01*
X97842017Y-95921786D01*
X97812857Y-95775187D01*
X97804359Y-95732465D01*
X97728759Y-95549949D01*
X97619004Y-95385688D01*
X97619001Y-95385685D01*
X97618999Y-95385682D01*
X97479317Y-95246000D01*
X97479313Y-95245997D01*
X97479312Y-95245996D01*
X97315051Y-95136241D01*
X97291307Y-95126406D01*
X97132538Y-95060642D01*
X97132537Y-95060641D01*
X96938778Y-95022100D01*
X96938777Y-95022100D01*
X96741223Y-95022100D01*
X96741222Y-95022100D01*
X96547462Y-95060641D01*
X96547461Y-95060642D01*
X96364950Y-95136240D01*
X96200682Y-95246000D01*
X96061000Y-95385682D01*
X95951240Y-95549950D01*
X95875642Y-95732461D01*
X95875641Y-95732462D01*
X95837100Y-95926222D01*
X95302900Y-95926222D01*
X95302017Y-95921786D01*
X95272857Y-95775187D01*
X95264359Y-95732465D01*
X95188759Y-95549949D01*
X95079004Y-95385688D01*
X95079001Y-95385685D01*
X95078999Y-95385682D01*
X94939317Y-95246000D01*
X94939313Y-95245997D01*
X94939312Y-95245996D01*
X94775051Y-95136241D01*
X94751307Y-95126406D01*
X94592538Y-95060642D01*
X94592537Y-95060641D01*
X94398778Y-95022100D01*
X94398777Y-95022100D01*
X94201223Y-95022100D01*
X94201222Y-95022100D01*
X94007462Y-95060641D01*
X94007461Y-95060642D01*
X93824950Y-95136240D01*
X93660682Y-95246000D01*
X93521000Y-95385682D01*
X93411240Y-95549950D01*
X93335642Y-95732461D01*
X93335641Y-95732462D01*
X93297100Y-95926222D01*
X92251170Y-95926222D01*
X92225925Y-95832007D01*
X92190703Y-95771000D01*
X93118000Y-95771000D01*
X93118000Y-95126418D01*
X93117999Y-95126406D01*
X93111495Y-95065907D01*
X93111494Y-95065904D01*
X93060444Y-94929036D01*
X93060443Y-94929034D01*
X92972903Y-94812096D01*
X92855965Y-94724556D01*
X92855963Y-94724555D01*
X92719095Y-94673505D01*
X92719092Y-94673504D01*
X92658593Y-94667000D01*
X92014000Y-94667000D01*
X92014000Y-95594297D01*
X91952993Y-95559075D01*
X91825826Y-95525000D01*
X91694174Y-95525000D01*
X91567007Y-95559075D01*
X91506000Y-95594297D01*
X91506000Y-94667000D01*
X90861406Y-94667000D01*
X90800907Y-94673504D01*
X90800904Y-94673505D01*
X90664036Y-94724555D01*
X90664034Y-94724556D01*
X90547096Y-94812096D01*
X90459556Y-94929034D01*
X90459555Y-94929036D01*
X90408505Y-95065904D01*
X90408504Y-95065907D01*
X90402000Y-95126406D01*
X89054930Y-95126406D01*
X89054930Y-93386222D01*
X90757100Y-93386222D01*
X90757100Y-93583777D01*
X90795641Y-93777537D01*
X90795642Y-93777538D01*
X90823258Y-93844210D01*
X90871241Y-93960051D01*
X90980996Y-94124312D01*
X90980997Y-94124313D01*
X90981000Y-94124317D01*
X91120682Y-94263999D01*
X91120685Y-94264001D01*
X91120688Y-94264004D01*
X91284949Y-94373759D01*
X91467461Y-94449357D01*
X91467462Y-94449358D01*
X91467463Y-94449358D01*
X91467465Y-94449359D01*
X91580846Y-94471912D01*
X91661222Y-94487900D01*
X91661223Y-94487900D01*
X91858778Y-94487900D01*
X91906889Y-94478329D01*
X92052535Y-94449359D01*
X92235051Y-94373759D01*
X92399312Y-94264004D01*
X92539004Y-94124312D01*
X92648759Y-93960051D01*
X92724359Y-93777535D01*
X92762900Y-93583777D01*
X92762900Y-93386223D01*
X92761288Y-93378120D01*
X92942000Y-93378120D01*
X92942000Y-93591879D01*
X92975437Y-93802991D01*
X92975437Y-93802992D01*
X93041493Y-94006292D01*
X93041494Y-94006294D01*
X93138535Y-94196748D01*
X93138538Y-94196754D01*
X93176620Y-94249167D01*
X93176621Y-94249168D01*
X93815841Y-93609947D01*
X93834075Y-93677993D01*
X93899901Y-93792007D01*
X93992993Y-93885099D01*
X94107007Y-93950925D01*
X94175050Y-93969157D01*
X93535830Y-94608377D01*
X93588253Y-94646465D01*
X93778705Y-94743505D01*
X93778707Y-94743506D01*
X93982008Y-94809562D01*
X94193120Y-94842999D01*
X94193127Y-94843000D01*
X94406873Y-94843000D01*
X94406879Y-94842999D01*
X94617991Y-94809562D01*
X94617992Y-94809562D01*
X94821292Y-94743506D01*
X94821294Y-94743505D01*
X95011748Y-94646464D01*
X95011754Y-94646461D01*
X95064168Y-94608378D01*
X95064168Y-94608377D01*
X94996166Y-94540375D01*
X121339500Y-94540375D01*
X121339500Y-94659625D01*
X121370364Y-94774812D01*
X121370364Y-94774813D01*
X121370364Y-94774814D01*
X121429989Y-94878087D01*
X121514312Y-94962410D01*
X121573938Y-94996834D01*
X121617587Y-95022036D01*
X121732775Y-95052900D01*
X121732778Y-95052900D01*
X121852022Y-95052900D01*
X121852025Y-95052900D01*
X121967213Y-95022036D01*
X122070487Y-94962410D01*
X122154810Y-94878087D01*
X122214436Y-94774813D01*
X122237061Y-94690375D01*
X125553900Y-94690375D01*
X125553900Y-94809625D01*
X125562843Y-94843000D01*
X125584764Y-94924813D01*
X125584764Y-94924814D01*
X125644389Y-95028087D01*
X125728712Y-95112410D01*
X125752954Y-95126406D01*
X125831987Y-95172036D01*
X125947175Y-95202900D01*
X125947178Y-95202900D01*
X126066422Y-95202900D01*
X126066425Y-95202900D01*
X126181613Y-95172036D01*
X126284887Y-95112410D01*
X126369210Y-95028087D01*
X126428836Y-94924813D01*
X126459700Y-94809625D01*
X126459700Y-94690375D01*
X126428836Y-94575187D01*
X126408737Y-94540375D01*
X126369210Y-94471912D01*
X126284887Y-94387589D01*
X126181613Y-94327964D01*
X126066425Y-94297100D01*
X125947175Y-94297100D01*
X125860784Y-94320248D01*
X125831986Y-94327964D01*
X125831985Y-94327964D01*
X125728712Y-94387589D01*
X125644389Y-94471912D01*
X125584764Y-94575185D01*
X125584764Y-94575186D01*
X125584764Y-94575187D01*
X125553900Y-94690375D01*
X122237061Y-94690375D01*
X122245300Y-94659625D01*
X122245300Y-94540375D01*
X122214436Y-94425187D01*
X122158304Y-94327964D01*
X122154810Y-94321912D01*
X122070487Y-94237589D01*
X121967213Y-94177964D01*
X121852025Y-94147100D01*
X121732775Y-94147100D01*
X121646384Y-94170248D01*
X121617586Y-94177964D01*
X121617585Y-94177964D01*
X121514312Y-94237589D01*
X121429989Y-94321912D01*
X121370364Y-94425185D01*
X121370364Y-94425186D01*
X121363887Y-94449359D01*
X121339500Y-94540375D01*
X94996166Y-94540375D01*
X94424948Y-93969157D01*
X94492993Y-93950925D01*
X94607007Y-93885099D01*
X94700099Y-93792007D01*
X94765925Y-93677993D01*
X94784157Y-93609948D01*
X95423377Y-94249168D01*
X95423378Y-94249168D01*
X95461461Y-94196754D01*
X95461464Y-94196748D01*
X95558505Y-94006294D01*
X95558506Y-94006292D01*
X95624562Y-93802992D01*
X95624562Y-93802991D01*
X95657999Y-93591879D01*
X95658000Y-93591872D01*
X95658000Y-93386222D01*
X95837100Y-93386222D01*
X95837100Y-93583777D01*
X95875641Y-93777537D01*
X95875642Y-93777538D01*
X95903258Y-93844210D01*
X95951241Y-93960051D01*
X96060996Y-94124312D01*
X96060997Y-94124313D01*
X96061000Y-94124317D01*
X96200682Y-94263999D01*
X96200685Y-94264001D01*
X96200688Y-94264004D01*
X96364949Y-94373759D01*
X96547461Y-94449357D01*
X96547462Y-94449358D01*
X96547463Y-94449358D01*
X96547465Y-94449359D01*
X96660846Y-94471912D01*
X96741222Y-94487900D01*
X96741223Y-94487900D01*
X96938778Y-94487900D01*
X97019154Y-94471912D01*
X97132535Y-94449359D01*
X97315051Y-94373759D01*
X97479312Y-94264004D01*
X97619004Y-94124312D01*
X97728759Y-93960051D01*
X97804359Y-93777535D01*
X97842900Y-93583777D01*
X97842900Y-93386223D01*
X97804359Y-93192465D01*
X97728759Y-93009949D01*
X97619004Y-92845688D01*
X97619001Y-92845685D01*
X97618999Y-92845682D01*
X97479317Y-92706000D01*
X97479313Y-92705997D01*
X97479312Y-92705996D01*
X97315051Y-92596241D01*
X97315049Y-92596240D01*
X97132538Y-92520642D01*
X97132537Y-92520641D01*
X96938778Y-92482100D01*
X96938777Y-92482100D01*
X96741223Y-92482100D01*
X96741222Y-92482100D01*
X96547462Y-92520641D01*
X96547461Y-92520642D01*
X96364950Y-92596240D01*
X96200682Y-92706000D01*
X96061000Y-92845682D01*
X95951240Y-93009950D01*
X95875642Y-93192461D01*
X95875641Y-93192462D01*
X95837100Y-93386222D01*
X95658000Y-93386222D01*
X95658000Y-93378127D01*
X95657999Y-93378120D01*
X95624562Y-93167008D01*
X95624562Y-93167007D01*
X95558506Y-92963707D01*
X95558505Y-92963705D01*
X95461465Y-92773253D01*
X95423377Y-92720830D01*
X94784157Y-93360050D01*
X94765925Y-93292007D01*
X94700099Y-93177993D01*
X94607007Y-93084901D01*
X94492993Y-93019075D01*
X94424948Y-93000842D01*
X95064167Y-92361622D01*
X95064167Y-92361620D01*
X95034927Y-92340375D01*
X104687100Y-92340375D01*
X104687100Y-92459625D01*
X104717964Y-92574813D01*
X104717964Y-92574814D01*
X104777589Y-92678087D01*
X104861912Y-92762410D01*
X104880693Y-92773253D01*
X104965187Y-92822036D01*
X105080375Y-92852900D01*
X105080378Y-92852900D01*
X105199622Y-92852900D01*
X105199625Y-92852900D01*
X105314813Y-92822036D01*
X105418087Y-92762410D01*
X105502410Y-92678087D01*
X105562036Y-92574813D01*
X105592900Y-92459625D01*
X105592900Y-92340375D01*
X105562036Y-92225187D01*
X105562035Y-92225185D01*
X105502410Y-92121912D01*
X105418087Y-92037589D01*
X105314813Y-91977964D01*
X105199625Y-91947100D01*
X105080375Y-91947100D01*
X104993984Y-91970248D01*
X104965186Y-91977964D01*
X104965185Y-91977964D01*
X104861912Y-92037589D01*
X104777589Y-92121912D01*
X104717964Y-92225185D01*
X104717964Y-92225186D01*
X104717964Y-92225187D01*
X104687100Y-92340375D01*
X95034927Y-92340375D01*
X95011754Y-92323538D01*
X95011748Y-92323535D01*
X94821294Y-92226494D01*
X94821292Y-92226493D01*
X94617991Y-92160437D01*
X94406879Y-92127000D01*
X94193120Y-92127000D01*
X93982008Y-92160437D01*
X93982007Y-92160437D01*
X93778707Y-92226493D01*
X93778705Y-92226494D01*
X93588251Y-92323535D01*
X93535830Y-92361621D01*
X94175051Y-93000842D01*
X94107007Y-93019075D01*
X93992993Y-93084901D01*
X93899901Y-93177993D01*
X93834075Y-93292007D01*
X93815842Y-93360051D01*
X93176621Y-92720830D01*
X93138535Y-92773251D01*
X93041494Y-92963705D01*
X93041493Y-92963707D01*
X92975437Y-93167007D01*
X92975437Y-93167008D01*
X92942000Y-93378120D01*
X92761288Y-93378120D01*
X92724359Y-93192465D01*
X92648759Y-93009949D01*
X92539004Y-92845688D01*
X92539001Y-92845685D01*
X92538999Y-92845682D01*
X92399317Y-92706000D01*
X92399313Y-92705997D01*
X92399312Y-92705996D01*
X92235051Y-92596241D01*
X92235049Y-92596240D01*
X92052538Y-92520642D01*
X92052537Y-92520641D01*
X91858778Y-92482100D01*
X91858777Y-92482100D01*
X91661223Y-92482100D01*
X91661222Y-92482100D01*
X91467462Y-92520641D01*
X91467461Y-92520642D01*
X91284950Y-92596240D01*
X91120682Y-92706000D01*
X90981000Y-92845682D01*
X90871240Y-93009950D01*
X90795642Y-93192461D01*
X90795641Y-93192462D01*
X90757100Y-93386222D01*
X89054930Y-93386222D01*
X89054930Y-91590375D01*
X102009600Y-91590375D01*
X102009600Y-91709625D01*
X102031035Y-91789622D01*
X102040464Y-91824813D01*
X102040464Y-91824814D01*
X102100089Y-91928087D01*
X102184412Y-92012410D01*
X102244038Y-92046834D01*
X102287687Y-92072036D01*
X102402875Y-92102900D01*
X102402878Y-92102900D01*
X102522122Y-92102900D01*
X102522125Y-92102900D01*
X102637313Y-92072036D01*
X102740587Y-92012410D01*
X102824910Y-91928087D01*
X102884536Y-91824813D01*
X102915400Y-91709625D01*
X102915400Y-91670375D01*
X121054700Y-91670375D01*
X121054700Y-91789625D01*
X121064129Y-91824814D01*
X121085564Y-91904813D01*
X121085564Y-91904814D01*
X121145189Y-92008087D01*
X121229512Y-92092410D01*
X121280611Y-92121912D01*
X121332787Y-92152036D01*
X121447975Y-92182900D01*
X121447978Y-92182900D01*
X121567222Y-92182900D01*
X121567225Y-92182900D01*
X121682413Y-92152036D01*
X121785687Y-92092410D01*
X121870010Y-92008087D01*
X121929636Y-91904813D01*
X121960500Y-91789625D01*
X121960500Y-91670375D01*
X121929636Y-91555187D01*
X121902240Y-91507736D01*
X121892217Y-91490375D01*
X126197100Y-91490375D01*
X126197100Y-91609625D01*
X126227964Y-91724813D01*
X126227964Y-91724814D01*
X126287589Y-91828087D01*
X126371912Y-91912410D01*
X126431538Y-91946834D01*
X126475187Y-91972036D01*
X126590375Y-92002900D01*
X126590378Y-92002900D01*
X126709622Y-92002900D01*
X126709625Y-92002900D01*
X126824813Y-91972036D01*
X126928087Y-91912410D01*
X127012410Y-91828087D01*
X127072036Y-91724813D01*
X127102900Y-91609625D01*
X127102900Y-91490375D01*
X127072036Y-91375187D01*
X127067649Y-91367589D01*
X127012410Y-91271912D01*
X126928087Y-91187589D01*
X126824813Y-91127964D01*
X126709625Y-91097100D01*
X126590375Y-91097100D01*
X126503984Y-91120248D01*
X126475186Y-91127964D01*
X126475185Y-91127964D01*
X126371912Y-91187589D01*
X126287589Y-91271912D01*
X126227964Y-91375185D01*
X126227964Y-91375186D01*
X126227964Y-91375187D01*
X126197100Y-91490375D01*
X121892217Y-91490375D01*
X121870010Y-91451912D01*
X121785687Y-91367589D01*
X121682413Y-91307964D01*
X121567225Y-91277100D01*
X121447975Y-91277100D01*
X121361584Y-91300248D01*
X121332786Y-91307964D01*
X121332785Y-91307964D01*
X121229512Y-91367589D01*
X121145189Y-91451912D01*
X121085564Y-91555185D01*
X121085564Y-91555186D01*
X121085564Y-91555187D01*
X121054700Y-91670375D01*
X102915400Y-91670375D01*
X102915400Y-91590375D01*
X102884536Y-91475187D01*
X102871098Y-91451912D01*
X102824910Y-91371912D01*
X102740587Y-91287589D01*
X102637313Y-91227964D01*
X102522125Y-91197100D01*
X102402875Y-91197100D01*
X102316484Y-91220248D01*
X102287686Y-91227964D01*
X102287685Y-91227964D01*
X102184412Y-91287589D01*
X102100089Y-91371912D01*
X102040464Y-91475185D01*
X102040464Y-91475186D01*
X102040464Y-91475187D01*
X102009600Y-91590375D01*
X89054930Y-91590375D01*
X89054930Y-89414209D01*
X95634100Y-89414209D01*
X95634100Y-89559791D01*
X95648096Y-89612025D01*
X95671779Y-89700412D01*
X95744569Y-89826487D01*
X95744573Y-89826493D01*
X95847506Y-89929426D01*
X95847509Y-89929428D01*
X95847511Y-89929430D01*
X95973589Y-90002221D01*
X96114209Y-90039900D01*
X96114212Y-90039900D01*
X96259788Y-90039900D01*
X96259791Y-90039900D01*
X96400411Y-90002221D01*
X96507532Y-89940375D01*
X97682100Y-89940375D01*
X97682100Y-90059625D01*
X97712964Y-90174813D01*
X97712964Y-90174814D01*
X97772589Y-90278087D01*
X97856912Y-90362410D01*
X97916538Y-90396834D01*
X97960187Y-90422036D01*
X98075375Y-90452900D01*
X98075378Y-90452900D01*
X98194622Y-90452900D01*
X98194625Y-90452900D01*
X98309813Y-90422036D01*
X98413087Y-90362410D01*
X98497410Y-90278087D01*
X98557036Y-90174813D01*
X98587900Y-90059625D01*
X98587900Y-89940375D01*
X98557036Y-89825187D01*
X98500471Y-89727214D01*
X98497410Y-89721912D01*
X98413087Y-89637589D01*
X98309813Y-89577964D01*
X98194625Y-89547100D01*
X98075375Y-89547100D01*
X97988984Y-89570248D01*
X97960186Y-89577964D01*
X97960185Y-89577964D01*
X97856912Y-89637589D01*
X97772589Y-89721912D01*
X97712964Y-89825185D01*
X97712964Y-89825186D01*
X97712615Y-89826489D01*
X97682100Y-89940375D01*
X96507532Y-89940375D01*
X96526489Y-89929430D01*
X96541109Y-89914810D01*
X96573648Y-89882272D01*
X96629426Y-89826493D01*
X96629430Y-89826489D01*
X96702221Y-89700411D01*
X96739900Y-89559791D01*
X96739900Y-89492775D01*
X108397100Y-89492775D01*
X108397100Y-89612025D01*
X108420783Y-89700411D01*
X108427964Y-89727213D01*
X108427964Y-89727214D01*
X108487589Y-89830487D01*
X108571912Y-89914810D01*
X108597228Y-89929426D01*
X108675187Y-89974436D01*
X108790375Y-90005300D01*
X108790378Y-90005300D01*
X108909622Y-90005300D01*
X108909625Y-90005300D01*
X109024813Y-89974436D01*
X109128087Y-89914810D01*
X109212410Y-89830487D01*
X109272036Y-89727213D01*
X109302900Y-89612025D01*
X109302900Y-89492775D01*
X109272036Y-89377587D01*
X109272035Y-89377585D01*
X109212410Y-89274312D01*
X109128087Y-89189989D01*
X109024813Y-89130364D01*
X108909625Y-89099500D01*
X108790375Y-89099500D01*
X108703984Y-89122648D01*
X108675186Y-89130364D01*
X108675185Y-89130364D01*
X108571912Y-89189989D01*
X108487589Y-89274312D01*
X108427964Y-89377585D01*
X108427964Y-89377586D01*
X108427964Y-89377587D01*
X108397100Y-89492775D01*
X96739900Y-89492775D01*
X96739900Y-89414209D01*
X96702221Y-89273589D01*
X96629430Y-89147511D01*
X96629428Y-89147509D01*
X96629426Y-89147506D01*
X96526493Y-89044573D01*
X96526487Y-89044569D01*
X96400412Y-88971779D01*
X96365256Y-88962359D01*
X96259791Y-88934100D01*
X96114209Y-88934100D01*
X96029837Y-88956707D01*
X95973587Y-88971779D01*
X95847512Y-89044569D01*
X95847506Y-89044573D01*
X95744573Y-89147506D01*
X95744569Y-89147512D01*
X95671779Y-89273587D01*
X95652939Y-89343899D01*
X95634100Y-89414209D01*
X89054930Y-89414209D01*
X89054930Y-86140375D01*
X115397100Y-86140375D01*
X115397100Y-86259625D01*
X115427964Y-86374813D01*
X115427964Y-86374814D01*
X115487589Y-86478087D01*
X115571912Y-86562410D01*
X115631538Y-86596834D01*
X115675187Y-86622036D01*
X115790375Y-86652900D01*
X115790378Y-86652900D01*
X115909622Y-86652900D01*
X115909625Y-86652900D01*
X116024813Y-86622036D01*
X116128087Y-86562410D01*
X116212410Y-86478087D01*
X116272036Y-86374813D01*
X116302900Y-86259625D01*
X116302900Y-86140375D01*
X116272036Y-86025187D01*
X116272035Y-86025185D01*
X116212410Y-85921912D01*
X116128087Y-85837589D01*
X116024813Y-85777964D01*
X115909625Y-85747100D01*
X115790375Y-85747100D01*
X115703984Y-85770248D01*
X115675186Y-85777964D01*
X115675185Y-85777964D01*
X115571912Y-85837589D01*
X115487589Y-85921912D01*
X115427964Y-86025185D01*
X115427964Y-86025186D01*
X115427964Y-86025187D01*
X115397100Y-86140375D01*
X89054930Y-86140375D01*
X89054930Y-85359457D01*
X101297100Y-85359457D01*
X101297100Y-85478707D01*
X101322851Y-85574813D01*
X101327964Y-85593895D01*
X101327964Y-85593896D01*
X101387589Y-85697169D01*
X101471912Y-85781492D01*
X101531538Y-85815916D01*
X101575187Y-85841118D01*
X101690375Y-85871982D01*
X101690378Y-85871982D01*
X101809622Y-85871982D01*
X101809625Y-85871982D01*
X101924813Y-85841118D01*
X102028087Y-85781492D01*
X102112410Y-85697169D01*
X102172036Y-85593895D01*
X102202900Y-85478707D01*
X102202900Y-85359457D01*
X102197787Y-85340375D01*
X102397100Y-85340375D01*
X102397100Y-85459625D01*
X102427964Y-85574813D01*
X102427964Y-85574814D01*
X102487589Y-85678087D01*
X102571912Y-85762410D01*
X102631538Y-85796834D01*
X102675187Y-85822036D01*
X102790375Y-85852900D01*
X102790378Y-85852900D01*
X102909622Y-85852900D01*
X102909625Y-85852900D01*
X103024813Y-85822036D01*
X103128087Y-85762410D01*
X103212410Y-85678087D01*
X103272036Y-85574813D01*
X103302900Y-85459625D01*
X103302900Y-85340375D01*
X103272036Y-85225187D01*
X103272035Y-85225185D01*
X103212410Y-85121912D01*
X103128087Y-85037589D01*
X103024813Y-84977964D01*
X102909625Y-84947100D01*
X102790375Y-84947100D01*
X102719159Y-84966182D01*
X102675186Y-84977964D01*
X102675185Y-84977964D01*
X102571912Y-85037589D01*
X102487589Y-85121912D01*
X102427964Y-85225185D01*
X102427964Y-85225186D01*
X102422851Y-85244268D01*
X102397100Y-85340375D01*
X102197787Y-85340375D01*
X102172036Y-85244269D01*
X102161019Y-85225187D01*
X102112410Y-85140994D01*
X102028087Y-85056671D01*
X101924813Y-84997046D01*
X101809625Y-84966182D01*
X101690375Y-84966182D01*
X101603984Y-84989330D01*
X101575186Y-84997046D01*
X101575185Y-84997046D01*
X101471912Y-85056671D01*
X101387589Y-85140994D01*
X101327964Y-85244267D01*
X101327964Y-85244268D01*
X101327964Y-85244269D01*
X101297100Y-85359457D01*
X89054930Y-85359457D01*
X89054930Y-84893449D01*
X89035519Y-84846587D01*
X89035517Y-84846585D01*
X89035517Y-84846584D01*
X88999655Y-84810722D01*
X88999653Y-84810721D01*
X88976301Y-84801048D01*
X88938377Y-84766296D01*
X88929880Y-84731573D01*
X88929880Y-84063675D01*
X118853700Y-84063675D01*
X118853700Y-84182925D01*
X118884564Y-84298113D01*
X118884564Y-84298114D01*
X118944189Y-84401387D01*
X119028512Y-84485710D01*
X119088138Y-84520134D01*
X119131787Y-84545336D01*
X119246975Y-84576200D01*
X119246978Y-84576200D01*
X119366222Y-84576200D01*
X119366225Y-84576200D01*
X119481413Y-84545336D01*
X119584687Y-84485710D01*
X119669010Y-84401387D01*
X119728636Y-84298113D01*
X119759500Y-84182925D01*
X119759500Y-84063675D01*
X119728636Y-83948487D01*
X119728635Y-83948485D01*
X119669010Y-83845212D01*
X119584687Y-83760889D01*
X119481413Y-83701264D01*
X119366225Y-83670400D01*
X119246975Y-83670400D01*
X119160584Y-83693548D01*
X119131786Y-83701264D01*
X119131785Y-83701264D01*
X119028512Y-83760889D01*
X118944189Y-83845212D01*
X118884564Y-83948485D01*
X118884564Y-83948486D01*
X118884564Y-83948487D01*
X118853700Y-84063675D01*
X88929880Y-84063675D01*
X88929880Y-82983675D01*
X106163700Y-82983675D01*
X106163700Y-83102925D01*
X106194564Y-83218113D01*
X106194564Y-83218114D01*
X106254189Y-83321387D01*
X106338512Y-83405710D01*
X106398138Y-83440134D01*
X106441787Y-83465336D01*
X106556975Y-83496200D01*
X106556978Y-83496200D01*
X106676222Y-83496200D01*
X106676225Y-83496200D01*
X106791413Y-83465336D01*
X106894687Y-83405710D01*
X106979010Y-83321387D01*
X107038636Y-83218113D01*
X107069500Y-83102925D01*
X107069500Y-82983675D01*
X107038636Y-82868487D01*
X107038635Y-82868485D01*
X106979010Y-82765212D01*
X106894687Y-82680889D01*
X106791413Y-82621264D01*
X106676225Y-82590400D01*
X106556975Y-82590400D01*
X106470584Y-82613548D01*
X106441786Y-82621264D01*
X106441785Y-82621264D01*
X106338512Y-82680889D01*
X106254189Y-82765212D01*
X106194564Y-82868485D01*
X106194564Y-82868486D01*
X106194564Y-82868487D01*
X106163700Y-82983675D01*
X88929880Y-82983675D01*
X88929880Y-81606176D01*
X88947473Y-81557838D01*
X88976302Y-81536701D01*
X88999653Y-81527029D01*
X89035519Y-81491163D01*
X89054930Y-81444301D01*
X89054930Y-80344629D01*
X96131180Y-80344629D01*
X96131180Y-80490211D01*
X96155557Y-80581188D01*
X96168859Y-80630832D01*
X96241649Y-80756907D01*
X96241653Y-80756913D01*
X96344586Y-80859846D01*
X96344589Y-80859848D01*
X96344591Y-80859850D01*
X96470669Y-80932641D01*
X96611289Y-80970320D01*
X96611292Y-80970320D01*
X96756868Y-80970320D01*
X96756871Y-80970320D01*
X96897491Y-80932641D01*
X97023569Y-80859850D01*
X97118044Y-80765375D01*
X104147100Y-80765375D01*
X104147100Y-80884625D01*
X104171266Y-80974814D01*
X104177964Y-80999813D01*
X104177964Y-80999814D01*
X104237589Y-81103087D01*
X104321912Y-81187410D01*
X104381538Y-81221834D01*
X104425187Y-81247036D01*
X104540375Y-81277900D01*
X104540378Y-81277900D01*
X104659622Y-81277900D01*
X104659625Y-81277900D01*
X104774813Y-81247036D01*
X104878087Y-81187410D01*
X104962410Y-81103087D01*
X105022036Y-80999813D01*
X105052900Y-80884625D01*
X105052900Y-80765375D01*
X105046201Y-80740375D01*
X105597100Y-80740375D01*
X105597100Y-80859625D01*
X105621537Y-80950826D01*
X105627964Y-80974813D01*
X105627964Y-80974814D01*
X105687589Y-81078087D01*
X105771912Y-81162410D01*
X105831538Y-81196834D01*
X105875187Y-81222036D01*
X105990375Y-81252900D01*
X105990378Y-81252900D01*
X106109622Y-81252900D01*
X106109625Y-81252900D01*
X106224813Y-81222036D01*
X106328087Y-81162410D01*
X106412410Y-81078087D01*
X106472036Y-80974813D01*
X106502900Y-80859625D01*
X106502900Y-80740375D01*
X106472036Y-80625187D01*
X106426844Y-80546913D01*
X106412410Y-80521912D01*
X106328087Y-80437589D01*
X106224813Y-80377964D01*
X106109625Y-80347100D01*
X105990375Y-80347100D01*
X105903984Y-80370248D01*
X105875186Y-80377964D01*
X105875185Y-80377964D01*
X105771912Y-80437589D01*
X105687589Y-80521912D01*
X105627964Y-80625185D01*
X105627964Y-80625186D01*
X105626451Y-80630832D01*
X105597100Y-80740375D01*
X105046201Y-80740375D01*
X105022036Y-80650187D01*
X105007602Y-80625187D01*
X104962410Y-80546912D01*
X104878087Y-80462589D01*
X104774813Y-80402964D01*
X104659625Y-80372100D01*
X104540375Y-80372100D01*
X104453984Y-80395248D01*
X104425186Y-80402964D01*
X104425185Y-80402964D01*
X104321912Y-80462589D01*
X104237589Y-80546912D01*
X104177964Y-80650185D01*
X104177964Y-80650186D01*
X104177964Y-80650187D01*
X104147100Y-80765375D01*
X97118044Y-80765375D01*
X97126510Y-80756909D01*
X97199301Y-80630831D01*
X97236980Y-80490211D01*
X97236980Y-80398455D01*
X97254573Y-80350117D01*
X97299122Y-80324397D01*
X97312180Y-80323255D01*
X97403933Y-80323255D01*
X97403936Y-80323255D01*
X97544556Y-80285576D01*
X97670634Y-80212785D01*
X97773575Y-80109844D01*
X97846366Y-79983766D01*
X97884045Y-79843146D01*
X97884045Y-79765360D01*
X97901638Y-79717022D01*
X97946187Y-79691302D01*
X97959245Y-79690160D01*
X98037028Y-79690160D01*
X98037031Y-79690160D01*
X98177651Y-79652481D01*
X98303729Y-79579690D01*
X98406670Y-79476749D01*
X98479461Y-79350671D01*
X98517140Y-79210051D01*
X98517140Y-79064469D01*
X98479461Y-78923849D01*
X98406670Y-78797771D01*
X98406668Y-78797769D01*
X98406666Y-78797766D01*
X98303733Y-78694833D01*
X98303727Y-78694829D01*
X98177652Y-78622039D01*
X98142496Y-78612619D01*
X98037031Y-78584360D01*
X97891449Y-78584360D01*
X97807077Y-78606967D01*
X97750827Y-78622039D01*
X97624752Y-78694829D01*
X97624746Y-78694833D01*
X97521813Y-78797766D01*
X97521809Y-78797772D01*
X97449019Y-78923847D01*
X97442533Y-78948054D01*
X97411340Y-79064469D01*
X97411340Y-79064471D01*
X97411340Y-79142255D01*
X97393747Y-79190593D01*
X97349198Y-79216313D01*
X97336140Y-79217455D01*
X97258354Y-79217455D01*
X97178899Y-79238745D01*
X97117732Y-79255134D01*
X96991657Y-79327924D01*
X96991651Y-79327928D01*
X96888718Y-79430861D01*
X96888714Y-79430867D01*
X96815924Y-79556942D01*
X96805920Y-79594279D01*
X96778245Y-79697564D01*
X96778245Y-79697566D01*
X96778245Y-79789320D01*
X96760652Y-79837658D01*
X96716103Y-79863378D01*
X96703045Y-79864520D01*
X96611289Y-79864520D01*
X96526917Y-79887127D01*
X96470667Y-79902199D01*
X96344592Y-79974989D01*
X96344586Y-79974993D01*
X96241653Y-80077926D01*
X96241649Y-80077932D01*
X96168859Y-80204007D01*
X96160663Y-80234596D01*
X96131180Y-80344629D01*
X89054930Y-80344629D01*
X89054930Y-79769752D01*
X89056082Y-79747766D01*
X89054930Y-79744512D01*
X89054930Y-79741059D01*
X89047252Y-79722522D01*
X89045844Y-79718855D01*
X89044370Y-79714694D01*
X89044813Y-79663256D01*
X89062117Y-79636374D01*
X90404919Y-78295720D01*
X99772000Y-78295720D01*
X99772000Y-78691000D01*
X100480000Y-78691000D01*
X100480000Y-79199000D01*
X99772000Y-79199000D01*
X99772000Y-79594279D01*
X99810737Y-79789025D01*
X99810738Y-79789026D01*
X99886721Y-79972465D01*
X99997037Y-80137564D01*
X99997039Y-80137567D01*
X100137432Y-80277960D01*
X100137435Y-80277962D01*
X100302534Y-80388278D01*
X100485973Y-80464261D01*
X100485975Y-80464262D01*
X100526000Y-80472223D01*
X100526000Y-79655060D01*
X100539940Y-79679205D01*
X100595795Y-79735060D01*
X100664204Y-79774556D01*
X100740504Y-79795000D01*
X100819496Y-79795000D01*
X100895796Y-79774556D01*
X100964205Y-79735060D01*
X101020060Y-79679205D01*
X101034000Y-79655060D01*
X101034000Y-80472223D01*
X101074024Y-80464262D01*
X101074026Y-80464261D01*
X101257465Y-80388278D01*
X101422564Y-80277962D01*
X101422567Y-80277960D01*
X101562960Y-80137567D01*
X101562962Y-80137564D01*
X101673278Y-79972465D01*
X101749261Y-79789026D01*
X101749262Y-79789025D01*
X101788000Y-79594279D01*
X101788000Y-79199000D01*
X101080000Y-79199000D01*
X101080000Y-78691000D01*
X101644081Y-78691000D01*
X101692419Y-78708593D01*
X101709206Y-78728600D01*
X101749484Y-78798363D01*
X101749488Y-78798369D01*
X101856634Y-78905515D01*
X101987857Y-78981277D01*
X101987860Y-78981278D01*
X101987865Y-78981281D01*
X102134234Y-79020500D01*
X102134237Y-79020500D01*
X102285763Y-79020500D01*
X102285766Y-79020500D01*
X102432135Y-78981281D01*
X102563365Y-78905515D01*
X102670515Y-78798365D01*
X102729884Y-78695535D01*
X102746277Y-78667142D01*
X102746277Y-78667141D01*
X102746281Y-78667135D01*
X102785500Y-78520766D01*
X102785500Y-78369234D01*
X107414500Y-78369234D01*
X107414500Y-78520766D01*
X107431540Y-78584360D01*
X107453719Y-78667134D01*
X107453722Y-78667142D01*
X107529484Y-78798365D01*
X107636634Y-78905515D01*
X107767857Y-78981277D01*
X107767860Y-78981278D01*
X107767865Y-78981281D01*
X107914234Y-79020500D01*
X107914237Y-79020500D01*
X108065763Y-79020500D01*
X108065766Y-79020500D01*
X108212135Y-78981281D01*
X108343365Y-78905515D01*
X108450515Y-78798365D01*
X108490794Y-78728599D01*
X108530199Y-78695535D01*
X108555919Y-78691000D01*
X109120000Y-78691000D01*
X109120000Y-79199000D01*
X108412000Y-79199000D01*
X108412000Y-79594279D01*
X108450737Y-79789025D01*
X108450738Y-79789026D01*
X108526721Y-79972465D01*
X108637037Y-80137564D01*
X108637039Y-80137567D01*
X108777432Y-80277960D01*
X108777435Y-80277962D01*
X108942534Y-80388278D01*
X109125973Y-80464261D01*
X109125975Y-80464262D01*
X109166000Y-80472223D01*
X109166000Y-79655060D01*
X109179940Y-79679205D01*
X109235795Y-79735060D01*
X109304204Y-79774556D01*
X109380504Y-79795000D01*
X109459496Y-79795000D01*
X109535796Y-79774556D01*
X109604205Y-79735060D01*
X109660060Y-79679205D01*
X109674000Y-79655060D01*
X109674000Y-80472223D01*
X109714024Y-80464262D01*
X109714026Y-80464261D01*
X109783198Y-80435609D01*
X126126980Y-80435609D01*
X126126980Y-80581191D01*
X126155239Y-80686656D01*
X126164659Y-80721812D01*
X126237449Y-80847887D01*
X126237453Y-80847893D01*
X126340386Y-80950826D01*
X126340389Y-80950828D01*
X126340391Y-80950830D01*
X126466469Y-81023621D01*
X126607089Y-81061300D01*
X126607092Y-81061300D01*
X126752668Y-81061300D01*
X126752671Y-81061300D01*
X126893291Y-81023621D01*
X127019369Y-80950830D01*
X127122310Y-80847889D01*
X127195101Y-80721811D01*
X127232780Y-80581191D01*
X127232780Y-80435609D01*
X127195101Y-80294989D01*
X127189666Y-80285576D01*
X127160233Y-80234596D01*
X127151300Y-80183938D01*
X127177020Y-80139390D01*
X127205892Y-80124359D01*
X127283291Y-80103621D01*
X127409369Y-80030830D01*
X127512310Y-79927889D01*
X127585101Y-79801811D01*
X127622780Y-79661191D01*
X127622780Y-79515609D01*
X127585101Y-79374989D01*
X127512310Y-79248911D01*
X127512308Y-79248909D01*
X127512306Y-79248906D01*
X127502145Y-79238745D01*
X127480405Y-79192125D01*
X127493719Y-79142438D01*
X127529512Y-79117374D01*
X127528739Y-79115507D01*
X127533288Y-79113622D01*
X127533288Y-79113621D01*
X127533291Y-79113621D01*
X127659369Y-79040830D01*
X127762310Y-78937889D01*
X127835101Y-78811811D01*
X127872780Y-78671191D01*
X127872780Y-78525609D01*
X127835101Y-78384989D01*
X127762310Y-78258911D01*
X127762308Y-78258909D01*
X127762306Y-78258906D01*
X127659373Y-78155973D01*
X127659367Y-78155969D01*
X127533292Y-78083179D01*
X127498136Y-78073759D01*
X127392671Y-78045500D01*
X127247089Y-78045500D01*
X127162717Y-78068107D01*
X127106467Y-78083179D01*
X126980392Y-78155969D01*
X126980386Y-78155973D01*
X126877453Y-78258906D01*
X126877449Y-78258912D01*
X126804659Y-78384987D01*
X126785819Y-78455299D01*
X126766980Y-78525609D01*
X126766980Y-78671191D01*
X126777002Y-78708593D01*
X126804659Y-78811812D01*
X126877449Y-78937887D01*
X126877453Y-78937893D01*
X126887614Y-78948054D01*
X126909354Y-78994674D01*
X126896040Y-79044361D01*
X126860249Y-79069431D01*
X126861021Y-79071293D01*
X126856471Y-79073177D01*
X126730392Y-79145969D01*
X126730386Y-79145973D01*
X126627453Y-79248906D01*
X126627449Y-79248912D01*
X126554659Y-79374987D01*
X126535819Y-79445299D01*
X126516980Y-79515609D01*
X126516980Y-79661191D01*
X126539257Y-79744331D01*
X126554659Y-79801812D01*
X126589526Y-79862203D01*
X126598459Y-79912861D01*
X126572739Y-79957410D01*
X126543864Y-79972441D01*
X126466467Y-79993179D01*
X126340392Y-80065969D01*
X126340386Y-80065973D01*
X126237453Y-80168906D01*
X126237449Y-80168912D01*
X126164659Y-80294987D01*
X126145819Y-80365299D01*
X126126980Y-80435609D01*
X109783198Y-80435609D01*
X109897465Y-80388278D01*
X110062564Y-80277962D01*
X110062567Y-80277960D01*
X110202960Y-80137567D01*
X110202962Y-80137564D01*
X110313278Y-79972465D01*
X110350057Y-79883675D01*
X113198700Y-79883675D01*
X113198700Y-80002925D01*
X113218798Y-80077932D01*
X113229564Y-80118113D01*
X113229564Y-80118114D01*
X113289189Y-80221387D01*
X113373512Y-80305710D01*
X113403901Y-80323255D01*
X113476787Y-80365336D01*
X113591975Y-80396200D01*
X113591978Y-80396200D01*
X113711222Y-80396200D01*
X113711225Y-80396200D01*
X113826413Y-80365336D01*
X113929687Y-80305710D01*
X114014010Y-80221387D01*
X114073636Y-80118113D01*
X114104500Y-80002925D01*
X114104500Y-79883675D01*
X114073636Y-79768487D01*
X114059794Y-79744512D01*
X114014010Y-79665212D01*
X113929687Y-79580889D01*
X113826413Y-79521264D01*
X113805315Y-79515611D01*
X113711225Y-79490400D01*
X113591975Y-79490400D01*
X113505584Y-79513548D01*
X113476786Y-79521264D01*
X113476785Y-79521264D01*
X113373512Y-79580889D01*
X113289189Y-79665212D01*
X113229564Y-79768485D01*
X113229564Y-79768486D01*
X113227938Y-79774556D01*
X113198700Y-79883675D01*
X110350057Y-79883675D01*
X110364019Y-79849968D01*
X110389261Y-79789026D01*
X110389262Y-79789025D01*
X110428000Y-79594279D01*
X110428000Y-79199000D01*
X109720000Y-79199000D01*
X109720000Y-78691000D01*
X110428000Y-78691000D01*
X110428000Y-78295720D01*
X110389262Y-78100974D01*
X110389261Y-78100973D01*
X110313278Y-77917534D01*
X110206453Y-77757659D01*
X110206452Y-77757657D01*
X110202965Y-77752438D01*
X110202960Y-77752432D01*
X110171337Y-77720809D01*
X123323150Y-77720809D01*
X123323150Y-77866391D01*
X123334492Y-77908719D01*
X123360829Y-78007012D01*
X123433619Y-78133087D01*
X123433623Y-78133093D01*
X123536556Y-78236026D01*
X123536559Y-78236028D01*
X123536561Y-78236030D01*
X123662639Y-78308821D01*
X123803259Y-78346500D01*
X123803262Y-78346500D01*
X123948838Y-78346500D01*
X123948841Y-78346500D01*
X124089461Y-78308821D01*
X124215539Y-78236030D01*
X124244516Y-78207052D01*
X124291135Y-78185313D01*
X124340822Y-78198626D01*
X124350858Y-78207047D01*
X124379841Y-78236030D01*
X124505919Y-78308821D01*
X124646539Y-78346500D01*
X124646542Y-78346500D01*
X124792118Y-78346500D01*
X124792121Y-78346500D01*
X124932741Y-78308821D01*
X125058819Y-78236030D01*
X125084054Y-78210795D01*
X125113196Y-78181654D01*
X125159816Y-78159914D01*
X125209503Y-78173228D01*
X125219544Y-78181654D01*
X125273916Y-78236026D01*
X125273919Y-78236028D01*
X125273921Y-78236030D01*
X125399999Y-78308821D01*
X125540619Y-78346500D01*
X125540622Y-78346500D01*
X125686198Y-78346500D01*
X125686201Y-78346500D01*
X125826821Y-78308821D01*
X125952899Y-78236030D01*
X126055840Y-78133089D01*
X126128631Y-78007011D01*
X126166310Y-77866391D01*
X126166310Y-77720809D01*
X126128631Y-77580189D01*
X126055840Y-77454111D01*
X126055838Y-77454109D01*
X126055836Y-77454106D01*
X125952903Y-77351173D01*
X125952897Y-77351169D01*
X125826822Y-77278379D01*
X125791666Y-77268959D01*
X125686201Y-77240700D01*
X125540619Y-77240700D01*
X125456247Y-77263307D01*
X125399997Y-77278379D01*
X125273922Y-77351169D01*
X125273916Y-77351173D01*
X125219544Y-77405546D01*
X125172924Y-77427286D01*
X125123237Y-77413972D01*
X125113196Y-77405546D01*
X125058823Y-77351173D01*
X125058817Y-77351169D01*
X124932742Y-77278379D01*
X124897586Y-77268959D01*
X124792121Y-77240700D01*
X124646539Y-77240700D01*
X124562167Y-77263307D01*
X124505917Y-77278379D01*
X124379842Y-77351169D01*
X124379836Y-77351173D01*
X124350864Y-77380146D01*
X124304244Y-77401886D01*
X124254557Y-77388572D01*
X124244516Y-77380146D01*
X124215543Y-77351173D01*
X124215537Y-77351169D01*
X124089462Y-77278379D01*
X124054306Y-77268959D01*
X123948841Y-77240700D01*
X123803259Y-77240700D01*
X123718887Y-77263307D01*
X123662637Y-77278379D01*
X123536562Y-77351169D01*
X123536556Y-77351173D01*
X123433623Y-77454106D01*
X123433619Y-77454112D01*
X123360829Y-77580187D01*
X123352295Y-77612037D01*
X123323150Y-77720809D01*
X110171337Y-77720809D01*
X110062567Y-77612039D01*
X110062564Y-77612037D01*
X109897465Y-77501721D01*
X109714020Y-77425736D01*
X109714021Y-77425736D01*
X109674000Y-77417775D01*
X109674000Y-78234939D01*
X109660060Y-78210795D01*
X109604205Y-78154940D01*
X109535796Y-78115444D01*
X109459496Y-78095000D01*
X109380504Y-78095000D01*
X109304204Y-78115444D01*
X109235795Y-78154940D01*
X109179940Y-78210795D01*
X109166000Y-78234939D01*
X109166000Y-77417775D01*
X109165999Y-77417775D01*
X109125979Y-77425736D01*
X108942534Y-77501721D01*
X108777435Y-77612037D01*
X108777432Y-77612039D01*
X108637039Y-77752432D01*
X108637037Y-77752435D01*
X108526721Y-77917534D01*
X108496477Y-77990550D01*
X108461724Y-78028475D01*
X108410724Y-78035189D01*
X108373827Y-78014946D01*
X108343365Y-77984484D01*
X108212142Y-77908722D01*
X108212136Y-77908720D01*
X108212135Y-77908719D01*
X108065766Y-77869500D01*
X107914234Y-77869500D01*
X107767865Y-77908719D01*
X107767857Y-77908722D01*
X107636634Y-77984484D01*
X107529484Y-78091634D01*
X107453722Y-78222857D01*
X107453719Y-78222865D01*
X107414500Y-78369234D01*
X102785500Y-78369234D01*
X102746281Y-78222865D01*
X102746278Y-78222860D01*
X102746277Y-78222857D01*
X102670515Y-78091634D01*
X102563365Y-77984484D01*
X102432142Y-77908722D01*
X102432136Y-77908720D01*
X102432135Y-77908719D01*
X102285766Y-77869500D01*
X102134234Y-77869500D01*
X101987865Y-77908719D01*
X101987857Y-77908722D01*
X101856636Y-77984483D01*
X101826172Y-78014947D01*
X101779551Y-78036686D01*
X101729864Y-78023372D01*
X101703522Y-77990550D01*
X101673278Y-77917534D01*
X101562962Y-77752435D01*
X101562960Y-77752432D01*
X101422567Y-77612039D01*
X101422564Y-77612037D01*
X101257465Y-77501721D01*
X101074020Y-77425736D01*
X101074021Y-77425736D01*
X101034000Y-77417775D01*
X101034000Y-78234939D01*
X101020060Y-78210795D01*
X100964205Y-78154940D01*
X100895796Y-78115444D01*
X100819496Y-78095000D01*
X100740504Y-78095000D01*
X100664204Y-78115444D01*
X100595795Y-78154940D01*
X100539940Y-78210795D01*
X100526000Y-78234939D01*
X100526000Y-77417775D01*
X100525999Y-77417775D01*
X100485979Y-77425736D01*
X100302534Y-77501721D01*
X100137435Y-77612037D01*
X100137432Y-77612039D01*
X99997039Y-77752432D01*
X99997037Y-77752435D01*
X99886721Y-77917534D01*
X99810738Y-78100973D01*
X99810737Y-78100974D01*
X99772000Y-78295720D01*
X90404919Y-78295720D01*
X95043920Y-73664141D01*
X95046539Y-73662923D01*
X95047952Y-73660400D01*
X95069581Y-73652200D01*
X95090556Y-73642441D01*
X95094143Y-73642890D01*
X95096052Y-73642167D01*
X95110486Y-73644938D01*
G37*
%TD.AperFunction*%
%TD*%
M02*
