%TF.GenerationSoftware,KiCad,Pcbnew,10.0.1*%
%TF.CreationDate,2026-04-30T18:08:44+02:00*%
%TF.ProjectId,esp32_mine,65737033-325f-46d6-996e-652e6b696361,rev?*%
%TF.SameCoordinates,Original*%
%TF.FileFunction,Paste,Bot*%
%TF.FilePolarity,Positive*%
%FSLAX46Y46*%
G04 Gerber Fmt 4.6, Leading zero omitted, Abs format (unit mm)*
G04 Created by KiCad (PCBNEW 10.0.1) date 2026-04-30 18:08:44*
%MOMM*%
%LPD*%
G01*
G04 APERTURE LIST*
G04 Aperture macros list*
%AMRoundRect*
0 Rectangle with rounded corners*
0 $1 Rounding radius*
0 $2 $3 $4 $5 $6 $7 $8 $9 X,Y pos of 4 corners*
0 Add a 4 corners polygon primitive as box body*
4,1,4,$2,$3,$4,$5,$6,$7,$8,$9,$2,$3,0*
0 Add four circle primitives for the rounded corners*
1,1,$1+$1,$2,$3*
1,1,$1+$1,$4,$5*
1,1,$1+$1,$6,$7*
1,1,$1+$1,$8,$9*
0 Add four rect primitives between the rounded corners*
20,1,$1+$1,$2,$3,$4,$5,0*
20,1,$1+$1,$4,$5,$6,$7,0*
20,1,$1+$1,$6,$7,$8,$9,0*
20,1,$1+$1,$8,$9,$2,$3,0*%
G04 Aperture macros list end*
%ADD10RoundRect,0.135000X0.185000X-0.135000X0.185000X0.135000X-0.185000X0.135000X-0.185000X-0.135000X0*%
%ADD11RoundRect,0.135000X-0.135000X-0.185000X0.135000X-0.185000X0.135000X0.185000X-0.135000X0.185000X0*%
%ADD12RoundRect,0.140000X-0.170000X0.140000X-0.170000X-0.140000X0.170000X-0.140000X0.170000X0.140000X0*%
%ADD13RoundRect,0.135000X0.135000X0.185000X-0.135000X0.185000X-0.135000X-0.185000X0.135000X-0.185000X0*%
%ADD14RoundRect,0.225000X0.225000X0.250000X-0.225000X0.250000X-0.225000X-0.250000X0.225000X-0.250000X0*%
%ADD15RoundRect,0.150000X-0.150000X-0.500000X0.150000X-0.500000X0.150000X0.500000X-0.150000X0.500000X0*%
%ADD16RoundRect,0.075000X-0.075000X-0.575000X0.075000X-0.575000X0.075000X0.575000X-0.075000X0.575000X0*%
%ADD17RoundRect,0.135000X-0.035355X0.226274X-0.226274X0.035355X0.035355X-0.226274X0.226274X-0.035355X0*%
%ADD18RoundRect,0.250000X0.650000X-1.000000X0.650000X1.000000X-0.650000X1.000000X-0.650000X-1.000000X0*%
%ADD19RoundRect,0.150000X0.587500X0.150000X-0.587500X0.150000X-0.587500X-0.150000X0.587500X-0.150000X0*%
%ADD20R,1.000000X1.800000*%
%ADD21RoundRect,0.140000X0.140000X0.170000X-0.140000X0.170000X-0.140000X-0.170000X0.140000X-0.170000X0*%
%ADD22RoundRect,0.140000X0.170000X-0.140000X0.170000X0.140000X-0.170000X0.140000X-0.170000X-0.140000X0*%
%ADD23RoundRect,0.218750X-0.218750X-0.256250X0.218750X-0.256250X0.218750X0.256250X-0.218750X0.256250X0*%
%ADD24RoundRect,0.150000X0.512500X0.150000X-0.512500X0.150000X-0.512500X-0.150000X0.512500X-0.150000X0*%
%ADD25R,0.254000X0.675000*%
%ADD26R,0.675000X0.254000*%
%ADD27RoundRect,0.140000X-0.021213X0.219203X-0.219203X0.021213X0.021213X-0.219203X0.219203X-0.021213X0*%
%ADD28RoundRect,0.225000X0.250000X-0.225000X0.250000X0.225000X-0.250000X0.225000X-0.250000X-0.225000X0*%
G04 APERTURE END LIST*
D10*
%TO.C,R6*%
X115050000Y-96410000D03*
X115050000Y-95390000D03*
%TD*%
%TO.C,R18*%
X101750000Y-84850000D03*
X101750000Y-83830000D03*
%TD*%
%TO.C,R9*%
X107291600Y-96078740D03*
X107291600Y-95058740D03*
%TD*%
D11*
%TO.C,R20*%
X115221600Y-81273300D03*
X116241600Y-81273300D03*
%TD*%
D12*
%TO.C,C1*%
X107600000Y-101070000D03*
X107600000Y-102030000D03*
%TD*%
D13*
%TO.C,R1*%
X109266600Y-82783300D03*
X108246600Y-82783300D03*
%TD*%
D14*
%TO.C,C28*%
X105375000Y-97500000D03*
X103825000Y-97500000D03*
%TD*%
D10*
%TO.C,R2*%
X102850000Y-84860000D03*
X102850000Y-83840000D03*
%TD*%
D15*
%TO.C,J1*%
X101900000Y-79585000D03*
X102700000Y-79585000D03*
D16*
X103850000Y-79585000D03*
X104850000Y-79585000D03*
X105350000Y-79585000D03*
X106350000Y-79585000D03*
D15*
X107500000Y-79585000D03*
X108300000Y-79585000D03*
X108300000Y-79585000D03*
X107500000Y-79585000D03*
D16*
X106850000Y-79585000D03*
X105850000Y-79585000D03*
X104350000Y-79585000D03*
X103350000Y-79585000D03*
D15*
X102700000Y-79585000D03*
X101900000Y-79585000D03*
%TD*%
D12*
%TO.C,C8*%
X112831600Y-83783300D03*
X112831600Y-84743300D03*
%TD*%
D17*
%TO.C,R27*%
X104760624Y-98939376D03*
X104039376Y-99660624D03*
%TD*%
D18*
%TO.C,D4*%
X119306600Y-84123300D03*
X119306600Y-80123300D03*
%TD*%
D19*
%TO.C,Q1*%
X116296600Y-82823300D03*
X116296600Y-84723300D03*
X114421600Y-83773300D03*
%TD*%
D12*
%TO.C,C2*%
X111469100Y-86230800D03*
X111469100Y-87190800D03*
%TD*%
D13*
%TO.C,R17*%
X108150000Y-81400000D03*
X107130000Y-81400000D03*
%TD*%
D20*
%TO.C,Y3*%
X108941600Y-100768740D03*
X111441600Y-100768740D03*
%TD*%
D11*
%TO.C,R19*%
X115851600Y-86213300D03*
X116871600Y-86213300D03*
%TD*%
D21*
%TO.C,C36*%
X106076600Y-86213300D03*
X105116600Y-86213300D03*
%TD*%
D22*
%TO.C,C16*%
X115496600Y-79953300D03*
X115496600Y-78993300D03*
%TD*%
D23*
%TO.C,D1*%
X104376600Y-84303300D03*
X105951600Y-84303300D03*
%TD*%
D11*
%TO.C,R12*%
X113821600Y-86203300D03*
X114841600Y-86203300D03*
%TD*%
D13*
%TO.C,R7*%
X113211600Y-93468740D03*
X112191600Y-93468740D03*
%TD*%
%TO.C,R8*%
X108410000Y-94000000D03*
X107390000Y-94000000D03*
%TD*%
D24*
%TO.C,U3*%
X109934100Y-84320800D03*
X109934100Y-85270800D03*
X109934100Y-86220800D03*
X107659100Y-86220800D03*
X107659100Y-84320800D03*
%TD*%
D22*
%TO.C,C6*%
X116696600Y-79943300D03*
X116696600Y-78983300D03*
%TD*%
D10*
%TO.C,R15*%
X111449100Y-84260800D03*
X111449100Y-83240800D03*
%TD*%
D11*
%TO.C,R14*%
X102490000Y-81400000D03*
X103510000Y-81400000D03*
%TD*%
D25*
%TO.C,U4*%
X108941600Y-98503740D03*
D26*
X108804100Y-97591240D03*
X108804100Y-97091240D03*
X108804100Y-96591240D03*
X108804100Y-96091240D03*
D25*
X108941600Y-95178740D03*
X109441600Y-95178740D03*
X109941600Y-95178740D03*
X110441600Y-95178740D03*
X110941600Y-95178740D03*
X111441600Y-95178740D03*
X111941600Y-95178740D03*
X112441600Y-95178740D03*
X112941600Y-95178740D03*
X113441600Y-95178740D03*
D26*
X113579100Y-96091240D03*
X113579100Y-96591240D03*
X113579100Y-97091240D03*
X113579100Y-97591240D03*
D25*
X113441600Y-98503740D03*
X112941600Y-98503740D03*
X112441600Y-98503740D03*
X111941600Y-98503740D03*
X111441600Y-98503740D03*
X110941600Y-98503740D03*
X110441600Y-98503740D03*
X109941600Y-98503740D03*
X109441600Y-98503740D03*
%TD*%
D22*
%TO.C,C22*%
X121896600Y-79943300D03*
X121896600Y-78983300D03*
%TD*%
D27*
%TO.C,C5*%
X109539411Y-102710589D03*
X108860589Y-103389411D03*
%TD*%
D28*
%TO.C,C9*%
X110491600Y-92943740D03*
X110491600Y-91393740D03*
%TD*%
M02*
