%TF.GenerationSoftware,KiCad,Pcbnew,9.0.4*%
%TF.CreationDate,2025-09-24T07:39:06+02:00*%
%TF.ProjectId,esp32_mine,65737033-325f-46d6-996e-652e6b696361,rev?*%
%TF.SameCoordinates,Original*%
%TF.FileFunction,Soldermask,Bot*%
%TF.FilePolarity,Negative*%
%FSLAX46Y46*%
G04 Gerber Fmt 4.6, Leading zero omitted, Abs format (unit mm)*
G04 Created by KiCad (PCBNEW 9.0.4) date 2025-09-24 07:39:06*
%MOMM*%
%LPD*%
G01*
G04 APERTURE LIST*
G04 Aperture macros list*
%AMRoundRect*
0 Rectangle with rounded corners*
0 $1 Rounding radius*
0 $2 $3 $4 $5 $6 $7 $8 $9 X,Y pos of 4 corners*
0 Add a 4 corners polygon primitive as box body*
4,1,4,$2,$3,$4,$5,$6,$7,$8,$9,$2,$3,0*
0 Add four circle primitives for the rounded corners*
1,1,$1+$1,$2,$3*
1,1,$1+$1,$4,$5*
1,1,$1+$1,$6,$7*
1,1,$1+$1,$8,$9*
0 Add four rect primitives between the rounded corners*
20,1,$1+$1,$2,$3,$4,$5,0*
20,1,$1+$1,$4,$5,$6,$7,0*
20,1,$1+$1,$6,$7,$8,$9,0*
20,1,$1+$1,$8,$9,$2,$3,0*%
%AMRotRect*
0 Rectangle, with rotation*
0 The origin of the aperture is its center*
0 $1 length*
0 $2 width*
0 $3 Rotation angle, in degrees counterclockwise*
0 Add horizontal line*
21,1,$1,$2,0,0,$3*%
G04 Aperture macros list end*
%ADD10C,0.000000*%
%ADD11RotRect,1.700000X1.700000X45.000000*%
%ADD12C,1.700000*%
%ADD13R,1.700000X1.700000*%
%ADD14RotRect,1.700000X1.700000X315.000000*%
%ADD15RoundRect,0.135000X0.185000X-0.135000X0.185000X0.135000X-0.185000X0.135000X-0.185000X-0.135000X0*%
%ADD16RoundRect,0.135000X-0.135000X-0.185000X0.135000X-0.185000X0.135000X0.185000X-0.135000X0.185000X0*%
%ADD17RoundRect,0.140000X-0.170000X0.140000X-0.170000X-0.140000X0.170000X-0.140000X0.170000X0.140000X0*%
%ADD18RoundRect,0.135000X0.135000X0.185000X-0.135000X0.185000X-0.135000X-0.185000X0.135000X-0.185000X0*%
%ADD19RoundRect,0.225000X0.225000X0.250000X-0.225000X0.250000X-0.225000X-0.250000X0.225000X-0.250000X0*%
%ADD20C,0.650000*%
%ADD21RoundRect,0.150000X-0.150000X-0.500000X0.150000X-0.500000X0.150000X0.500000X-0.150000X0.500000X0*%
%ADD22RoundRect,0.075000X-0.075000X-0.575000X0.075000X-0.575000X0.075000X0.575000X-0.075000X0.575000X0*%
%ADD23O,1.000000X1.600000*%
%ADD24O,1.000000X2.100000*%
%ADD25RoundRect,0.135000X-0.035355X0.226274X-0.226274X0.035355X0.035355X-0.226274X0.226274X-0.035355X0*%
%ADD26RoundRect,0.250000X0.650000X-1.000000X0.650000X1.000000X-0.650000X1.000000X-0.650000X-1.000000X0*%
%ADD27RoundRect,0.150000X0.587500X0.150000X-0.587500X0.150000X-0.587500X-0.150000X0.587500X-0.150000X0*%
%ADD28R,1.000000X1.800000*%
%ADD29RoundRect,0.140000X0.140000X0.170000X-0.140000X0.170000X-0.140000X-0.170000X0.140000X-0.170000X0*%
%ADD30RoundRect,0.140000X0.170000X-0.140000X0.170000X0.140000X-0.170000X0.140000X-0.170000X-0.140000X0*%
%ADD31RoundRect,0.218750X-0.218750X-0.256250X0.218750X-0.256250X0.218750X0.256250X-0.218750X0.256250X0*%
%ADD32RoundRect,0.150000X0.512500X0.150000X-0.512500X0.150000X-0.512500X-0.150000X0.512500X-0.150000X0*%
%ADD33R,0.254000X0.675000*%
%ADD34R,0.675000X0.254000*%
%ADD35RoundRect,0.140000X-0.021213X0.219203X-0.219203X0.021213X0.021213X-0.219203X0.219203X-0.021213X0*%
%ADD36RoundRect,0.225000X0.250000X-0.225000X0.250000X0.225000X-0.250000X0.225000X-0.250000X-0.225000X0*%
G04 APERTURE END LIST*
D10*
G36*
X66513388Y-144615348D02*
G01*
X64391218Y-146737518D01*
X60732348Y-143076108D01*
X62849438Y-140950128D01*
X66513388Y-144615348D01*
G37*
G36*
X81221638Y-100257298D02*
G01*
X78221648Y-100257298D01*
X78221648Y-98257298D01*
X81221638Y-98257298D01*
X81221638Y-100257298D01*
G37*
G36*
X64661598Y-90071898D02*
G01*
X61661608Y-90071898D01*
X61661608Y-88071898D01*
X64661598Y-88071898D01*
X64661598Y-90071898D01*
G37*
G36*
X161181598Y-90071898D02*
G01*
X158181608Y-90071898D01*
X158181608Y-88071898D01*
X161181598Y-88071898D01*
X161181598Y-90071898D01*
G37*
G36*
X162145208Y-49001430D02*
G01*
X160028118Y-51127410D01*
X156364168Y-47462190D01*
X158486338Y-45340020D01*
X162145208Y-49001430D01*
G37*
G36*
X66499418Y-47455268D02*
G01*
X62834198Y-51119218D01*
X60712028Y-48997048D01*
X64373438Y-45338178D01*
X66499418Y-47455268D01*
G37*
G36*
X81221638Y-93805698D02*
G01*
X78221648Y-93805698D01*
X78221648Y-91805698D01*
X81221638Y-91805698D01*
X81221638Y-93805698D01*
G37*
G36*
X64661598Y-103991098D02*
G01*
X61661608Y-103991098D01*
X61661608Y-101991098D01*
X64661598Y-101991098D01*
X64661598Y-103991098D01*
G37*
G36*
X161181598Y-100257298D02*
G01*
X158181608Y-100257298D01*
X158181608Y-98257298D01*
X161181598Y-98257298D01*
X161181598Y-100257298D01*
G37*
G36*
X161181598Y-103984748D02*
G01*
X158181608Y-103984748D01*
X158181608Y-101984748D01*
X161181598Y-101984748D01*
X161181598Y-103984748D01*
G37*
G36*
X78203159Y-59034372D02*
G01*
X74537939Y-62698322D01*
X72415769Y-60576152D01*
X76077179Y-56917282D01*
X78203159Y-59034372D01*
G37*
G36*
X161934140Y-142773150D02*
G01*
X158272730Y-146432020D01*
X156146750Y-144314930D01*
X159811970Y-140650980D01*
X161934140Y-142773150D01*
G37*
G36*
X150879313Y-60082885D02*
G01*
X148762223Y-62208865D01*
X145098273Y-58543645D01*
X147220443Y-56421475D01*
X150879313Y-60082885D01*
G37*
G36*
X144620798Y-103991098D02*
G01*
X141620808Y-103991098D01*
X141620808Y-101991098D01*
X144620798Y-101991098D01*
X144620798Y-103991098D01*
G37*
G36*
X144620798Y-100257298D02*
G01*
X141620808Y-100257298D01*
X141620808Y-98257298D01*
X144620798Y-98257298D01*
X144620798Y-100257298D01*
G37*
G36*
X144620798Y-93805698D02*
G01*
X141620808Y-93805698D01*
X141620808Y-91805698D01*
X144620798Y-91805698D01*
X144620798Y-93805698D01*
G37*
G36*
X77936145Y-132960359D02*
G01*
X75813975Y-135082529D01*
X72155105Y-131421119D01*
X74272195Y-129295139D01*
X77936145Y-132960359D01*
G37*
G36*
X64661598Y-100257298D02*
G01*
X61661608Y-100257298D01*
X61661608Y-98257298D01*
X64661598Y-98257298D01*
X64661598Y-100257298D01*
G37*
G36*
X64661598Y-93805698D02*
G01*
X61661608Y-93805698D01*
X61661608Y-91805698D01*
X64661598Y-91805698D01*
X64661598Y-93805698D01*
G37*
G36*
X81221638Y-103991098D02*
G01*
X78221648Y-103991098D01*
X78221648Y-101991098D01*
X81221638Y-101991098D01*
X81221638Y-103991098D01*
G37*
G36*
X150612611Y-131693044D02*
G01*
X146951201Y-135351914D01*
X144825221Y-133234824D01*
X148490441Y-129570874D01*
X150612611Y-131693044D01*
G37*
G36*
X161181598Y-93824748D02*
G01*
X158181608Y-93824748D01*
X158181608Y-91824748D01*
X161181598Y-91824748D01*
X161181598Y-93824748D01*
G37*
G36*
X144620798Y-90071898D02*
G01*
X141620808Y-90071898D01*
X141620808Y-88071898D01*
X144620798Y-88071898D01*
X144620798Y-90071898D01*
G37*
G36*
X81221638Y-90071898D02*
G01*
X78221648Y-90071898D01*
X78221648Y-88071898D01*
X81221638Y-88071898D01*
X81221638Y-90071898D01*
G37*
D11*
%TO.C,M3*%
X131998439Y-73898439D03*
D12*
X133794490Y-75694490D03*
%TD*%
D13*
%TO.C,J3*%
X91760000Y-96025000D03*
D12*
X91760000Y-93485000D03*
X94300000Y-96025000D03*
X94300000Y-93485000D03*
X96840000Y-96025000D03*
X96840000Y-93485000D03*
%TD*%
D14*
%TO.C,M2*%
X91051561Y-74098439D03*
D12*
X89255510Y-75894490D03*
%TD*%
D11*
%TO.C,M1*%
X89448439Y-116448439D03*
D12*
X91244490Y-118244490D03*
%TD*%
D14*
%TO.C,M4*%
X133301561Y-116798439D03*
D12*
X131505510Y-118594490D03*
%TD*%
D15*
%TO.C,R6*%
X115050000Y-96410000D03*
X115050000Y-95390000D03*
%TD*%
%TO.C,R2*%
X101750000Y-84850000D03*
X101750000Y-83830000D03*
%TD*%
%TO.C,R9*%
X107291600Y-96078740D03*
X107291600Y-95058740D03*
%TD*%
D16*
%TO.C,R20*%
X115221600Y-81273300D03*
X116241600Y-81273300D03*
%TD*%
D17*
%TO.C,C1*%
X107600000Y-101070000D03*
X107600000Y-102030000D03*
%TD*%
D18*
%TO.C,R1*%
X109266600Y-82783300D03*
X108246600Y-82783300D03*
%TD*%
D19*
%TO.C,C28*%
X105375000Y-97500000D03*
X103825000Y-97500000D03*
%TD*%
D15*
%TO.C,R18*%
X102850000Y-84860000D03*
X102850000Y-83840000D03*
%TD*%
D20*
%TO.C,J1*%
X102210000Y-78445000D03*
X107990000Y-78445000D03*
D21*
X101900000Y-79585000D03*
X102700000Y-79585000D03*
D22*
X103850000Y-79585000D03*
X104850000Y-79585000D03*
X105350000Y-79585000D03*
X106350000Y-79585000D03*
D21*
X107500000Y-79585000D03*
X108300000Y-79585000D03*
X108300000Y-79585000D03*
X107500000Y-79585000D03*
D22*
X106850000Y-79585000D03*
X105850000Y-79585000D03*
X104350000Y-79585000D03*
X103350000Y-79585000D03*
D21*
X102700000Y-79585000D03*
X101900000Y-79585000D03*
D23*
X100780000Y-74765000D03*
D24*
X100780000Y-78945000D03*
D23*
X109420000Y-74765000D03*
D24*
X109420000Y-78945000D03*
%TD*%
D17*
%TO.C,C8*%
X112831600Y-83783300D03*
X112831600Y-84743300D03*
%TD*%
D25*
%TO.C,R27*%
X104760624Y-98939376D03*
X104039376Y-99660624D03*
%TD*%
D26*
%TO.C,D4*%
X119306600Y-84123300D03*
X119306600Y-80123300D03*
%TD*%
D27*
%TO.C,Q1*%
X116296600Y-82823300D03*
X116296600Y-84723300D03*
X114421600Y-83773300D03*
%TD*%
D17*
%TO.C,C2*%
X111469100Y-86230800D03*
X111469100Y-87190800D03*
%TD*%
D18*
%TO.C,R17*%
X108150000Y-81400000D03*
X107130000Y-81400000D03*
%TD*%
D28*
%TO.C,Y3*%
X108941600Y-100768740D03*
X111441600Y-100768740D03*
%TD*%
D16*
%TO.C,R19*%
X115851600Y-86213300D03*
X116871600Y-86213300D03*
%TD*%
D29*
%TO.C,C36*%
X106076600Y-86213300D03*
X105116600Y-86213300D03*
%TD*%
D30*
%TO.C,C16*%
X115496600Y-79953300D03*
X115496600Y-78993300D03*
%TD*%
D31*
%TO.C,D1*%
X104376600Y-84303300D03*
X105951600Y-84303300D03*
%TD*%
D16*
%TO.C,R12*%
X113821600Y-86203300D03*
X114841600Y-86203300D03*
%TD*%
D18*
%TO.C,R7*%
X113211600Y-93468740D03*
X112191600Y-93468740D03*
%TD*%
%TO.C,R8*%
X108410000Y-94000000D03*
X107390000Y-94000000D03*
%TD*%
D32*
%TO.C,U3*%
X109934100Y-84320800D03*
X109934100Y-85270800D03*
X109934100Y-86220800D03*
X107659100Y-86220800D03*
X107659100Y-84320800D03*
%TD*%
D30*
%TO.C,C6*%
X116696600Y-79943300D03*
X116696600Y-78983300D03*
%TD*%
D15*
%TO.C,R15*%
X111449100Y-84260800D03*
X111449100Y-83240800D03*
%TD*%
D16*
%TO.C,R14*%
X102490000Y-81400000D03*
X103510000Y-81400000D03*
%TD*%
D33*
%TO.C,U4*%
X108941600Y-98503740D03*
D34*
X108804100Y-97591240D03*
X108804100Y-97091240D03*
X108804100Y-96591240D03*
X108804100Y-96091240D03*
D33*
X108941600Y-95178740D03*
X109441600Y-95178740D03*
X109941600Y-95178740D03*
X110441600Y-95178740D03*
X110941600Y-95178740D03*
X111441600Y-95178740D03*
X111941600Y-95178740D03*
X112441600Y-95178740D03*
X112941600Y-95178740D03*
X113441600Y-95178740D03*
D34*
X113579100Y-96091240D03*
X113579100Y-96591240D03*
X113579100Y-97091240D03*
X113579100Y-97591240D03*
D33*
X113441600Y-98503740D03*
X112941600Y-98503740D03*
X112441600Y-98503740D03*
X111941600Y-98503740D03*
X111441600Y-98503740D03*
X110941600Y-98503740D03*
X110441600Y-98503740D03*
X109941600Y-98503740D03*
X109441600Y-98503740D03*
%TD*%
D30*
%TO.C,C22*%
X121896600Y-79943300D03*
X121896600Y-78983300D03*
%TD*%
D35*
%TO.C,C5*%
X109539411Y-102710589D03*
X108860589Y-103389411D03*
%TD*%
D36*
%TO.C,C9*%
X110491600Y-92943740D03*
X110491600Y-91393740D03*
%TD*%
M02*
