%TF.GenerationSoftware,KiCad,Pcbnew,9.0.4*%
%TF.CreationDate,2025-09-22T18:44:00+02:00*%
%TF.ProjectId,esp32_mine,65737033-325f-46d6-996e-652e6b696361,rev?*%
%TF.SameCoordinates,Original*%
%TF.FileFunction,Paste,Top*%
%TF.FilePolarity,Positive*%
%FSLAX46Y46*%
G04 Gerber Fmt 4.6, Leading zero omitted, Abs format (unit mm)*
G04 Created by KiCad (PCBNEW 9.0.4) date 2025-09-22 18:44:00*
%MOMM*%
%LPD*%
G01*
G04 APERTURE LIST*
G04 Aperture macros list*
%AMRoundRect*
0 Rectangle with rounded corners*
0 $1 Rounding radius*
0 $2 $3 $4 $5 $6 $7 $8 $9 X,Y pos of 4 corners*
0 Add a 4 corners polygon primitive as box body*
4,1,4,$2,$3,$4,$5,$6,$7,$8,$9,$2,$3,0*
0 Add four circle primitives for the rounded corners*
1,1,$1+$1,$2,$3*
1,1,$1+$1,$4,$5*
1,1,$1+$1,$6,$7*
1,1,$1+$1,$8,$9*
0 Add four rect primitives between the rounded corners*
20,1,$1+$1,$2,$3,$4,$5,0*
20,1,$1+$1,$4,$5,$6,$7,0*
20,1,$1+$1,$6,$7,$8,$9,0*
20,1,$1+$1,$8,$9,$2,$3,0*%
%AMRotRect*
0 Rectangle, with rotation*
0 The origin of the aperture is its center*
0 $1 length*
0 $2 width*
0 $3 Rotation angle, in degrees counterclockwise*
0 Add horizontal line*
21,1,$1,$2,0,0,$3*%
G04 Aperture macros list end*
%ADD10RoundRect,0.225000X-0.250000X0.225000X-0.250000X-0.225000X0.250000X-0.225000X0.250000X0.225000X0*%
%ADD11RoundRect,0.140000X-0.170000X0.140000X-0.170000X-0.140000X0.170000X-0.140000X0.170000X0.140000X0*%
%ADD12RotRect,0.600000X0.450000X135.000000*%
%ADD13R,0.600000X1.300000*%
%ADD14RoundRect,0.135000X-0.185000X0.135000X-0.185000X-0.135000X0.185000X-0.135000X0.185000X0.135000X0*%
%ADD15RoundRect,0.140000X-0.140000X-0.170000X0.140000X-0.170000X0.140000X0.170000X-0.140000X0.170000X0*%
%ADD16RoundRect,0.140000X0.170000X-0.140000X0.170000X0.140000X-0.170000X0.140000X-0.170000X-0.140000X0*%
%ADD17RoundRect,0.150000X0.512500X0.150000X-0.512500X0.150000X-0.512500X-0.150000X0.512500X-0.150000X0*%
%ADD18RoundRect,0.140000X0.140000X0.170000X-0.140000X0.170000X-0.140000X-0.170000X0.140000X-0.170000X0*%
%ADD19RotRect,0.600000X0.450000X225.000000*%
%ADD20RoundRect,0.218750X-0.218750X-0.256250X0.218750X-0.256250X0.218750X0.256250X-0.218750X0.256250X0*%
%ADD21RoundRect,0.200000X0.200000X0.275000X-0.200000X0.275000X-0.200000X-0.275000X0.200000X-0.275000X0*%
%ADD22RoundRect,0.100000X0.100000X0.300000X-0.100000X0.300000X-0.100000X-0.300000X0.100000X-0.300000X0*%
%ADD23RoundRect,0.100000X0.100000X0.350000X-0.100000X0.350000X-0.100000X-0.350000X0.100000X-0.350000X0*%
%ADD24RoundRect,0.075000X-0.325000X-0.075000X0.325000X-0.075000X0.325000X0.075000X-0.325000X0.075000X0*%
%ADD25RoundRect,0.140000X-0.021213X0.219203X-0.219203X0.021213X0.021213X-0.219203X0.219203X-0.021213X0*%
%ADD26R,0.450000X0.600000*%
%ADD27RoundRect,0.135000X0.185000X-0.135000X0.185000X0.135000X-0.185000X0.135000X-0.185000X-0.135000X0*%
%ADD28RoundRect,0.135000X0.135000X0.185000X-0.135000X0.185000X-0.135000X-0.185000X0.135000X-0.185000X0*%
%ADD29RoundRect,0.225000X-0.225000X-0.250000X0.225000X-0.250000X0.225000X0.250000X-0.225000X0.250000X0*%
%ADD30RoundRect,0.135000X-0.135000X-0.185000X0.135000X-0.185000X0.135000X0.185000X-0.135000X0.185000X0*%
%ADD31RoundRect,0.218750X0.218750X0.256250X-0.218750X0.256250X-0.218750X-0.256250X0.218750X-0.256250X0*%
%ADD32RoundRect,0.200000X-0.200000X-0.275000X0.200000X-0.275000X0.200000X0.275000X-0.200000X0.275000X0*%
%ADD33RoundRect,0.140000X-0.219203X-0.021213X-0.021213X-0.219203X0.219203X0.021213X0.021213X0.219203X0*%
%ADD34RoundRect,0.135000X-0.035355X0.226274X-0.226274X0.035355X0.035355X-0.226274X0.226274X-0.035355X0*%
%ADD35RoundRect,0.147500X-0.226274X-0.017678X-0.017678X-0.226274X0.226274X0.017678X0.017678X0.226274X0*%
%ADD36R,1.150000X1.000000*%
%ADD37RoundRect,0.147500X0.017678X-0.226274X0.226274X-0.017678X-0.017678X0.226274X-0.226274X0.017678X0*%
%ADD38RoundRect,0.250000X0.285000X0.285000X-0.285000X0.285000X-0.285000X-0.285000X0.285000X-0.285000X0*%
%ADD39RoundRect,0.050000X0.350000X0.050000X-0.350000X0.050000X-0.350000X-0.050000X0.350000X-0.050000X0*%
%ADD40RoundRect,0.050000X0.050000X0.350000X-0.050000X0.350000X-0.050000X-0.350000X0.050000X-0.350000X0*%
%ADD41RoundRect,0.135000X0.226274X0.035355X0.035355X0.226274X-0.226274X-0.035355X-0.035355X-0.226274X0*%
%ADD42RoundRect,0.225000X-0.017678X0.335876X-0.335876X0.017678X0.017678X-0.335876X0.335876X-0.017678X0*%
%ADD43R,0.500000X0.350000*%
%ADD44RoundRect,0.147500X-0.172500X0.147500X-0.172500X-0.147500X0.172500X-0.147500X0.172500X0.147500X0*%
%ADD45RotRect,0.600000X0.450000X45.000000*%
%ADD46RoundRect,0.225000X0.225000X0.250000X-0.225000X0.250000X-0.225000X-0.250000X0.225000X-0.250000X0*%
%ADD47RoundRect,0.135000X-0.226274X-0.035355X-0.035355X-0.226274X0.226274X0.035355X0.035355X0.226274X0*%
%ADD48R,1.000000X1.800000*%
G04 APERTURE END LIST*
D10*
%TO.C,C27*%
X131200000Y-96825000D03*
X131200000Y-98375000D03*
%TD*%
D11*
%TO.C,C39*%
X118855000Y-107410000D03*
X118855000Y-108370000D03*
%TD*%
D12*
%TO.C,D7*%
X95908892Y-110547682D03*
X94423968Y-109062758D03*
%TD*%
D11*
%TO.C,C4*%
X117695000Y-110080000D03*
X117695000Y-111040000D03*
%TD*%
D13*
%TO.C,Q4*%
X129287560Y-103265010D03*
X127387560Y-103265010D03*
X128337560Y-105365010D03*
%TD*%
D14*
%TO.C,R28*%
X105900000Y-99790000D03*
X105900000Y-100810000D03*
%TD*%
D15*
%TO.C,C26*%
X121560000Y-98670000D03*
X122520000Y-98670000D03*
%TD*%
D16*
%TO.C,C7*%
X106250000Y-93480000D03*
X106250000Y-92520000D03*
%TD*%
D17*
%TO.C,U7*%
X104737500Y-91650000D03*
X104737500Y-90700000D03*
X104737500Y-89750000D03*
X102462500Y-89750000D03*
X102462500Y-91650000D03*
%TD*%
D18*
%TO.C,C13*%
X109775000Y-97580000D03*
X108815000Y-97580000D03*
%TD*%
D19*
%TO.C,D6*%
X96761062Y-80631268D03*
X95276138Y-82116192D03*
%TD*%
D18*
%TO.C,C11*%
X112855000Y-107360000D03*
X111895000Y-107360000D03*
%TD*%
D20*
%TO.C,D2*%
X101912500Y-93500000D03*
X103487500Y-93500000D03*
%TD*%
D11*
%TO.C,C33*%
X112815000Y-110210000D03*
X112815000Y-111170000D03*
%TD*%
D14*
%TO.C,R5*%
X126790900Y-93590000D03*
X126790900Y-94610000D03*
%TD*%
D13*
%TO.C,Q2*%
X90909350Y-86161340D03*
X92809350Y-86161340D03*
X91859350Y-84061340D03*
%TD*%
D18*
%TO.C,C37*%
X111920000Y-91500000D03*
X110960000Y-91500000D03*
%TD*%
D21*
%TO.C,R33*%
X129199390Y-101348290D03*
X127549390Y-101348290D03*
%TD*%
D22*
%TO.C,U2*%
X103650000Y-106550000D03*
X104450000Y-106550000D03*
X105250000Y-106550000D03*
X106050000Y-106550000D03*
D23*
X106050000Y-104100000D03*
X105250000Y-104100000D03*
X104450000Y-104100000D03*
X103650000Y-104100000D03*
D24*
X105650000Y-105350000D03*
X104050000Y-105350000D03*
%TD*%
D25*
%TO.C,DNP1*%
X120034411Y-105620589D03*
X119355589Y-106299411D03*
%TD*%
D21*
%TO.C,R34*%
X91700100Y-104406450D03*
X90050100Y-104406450D03*
%TD*%
D26*
%TO.C,D8*%
X128790950Y-83412370D03*
X128790950Y-85512370D03*
%TD*%
D27*
%TO.C,R23*%
X116640000Y-107880000D03*
X116640000Y-106860000D03*
%TD*%
D28*
%TO.C,R24*%
X112790000Y-109130000D03*
X111770000Y-109130000D03*
%TD*%
D29*
%TO.C,C12*%
X126841200Y-87684360D03*
X128391200Y-87684360D03*
%TD*%
D18*
%TO.C,C20*%
X100820000Y-88280000D03*
X99860000Y-88280000D03*
%TD*%
D30*
%TO.C,R21*%
X128790000Y-89900000D03*
X129810000Y-89900000D03*
%TD*%
D31*
%TO.C,D3*%
X123435000Y-90297500D03*
X121860000Y-90297500D03*
%TD*%
D28*
%TO.C,R31*%
X115365000Y-107130000D03*
X114345000Y-107130000D03*
%TD*%
D15*
%TO.C,C15*%
X121392500Y-92715000D03*
X122352500Y-92715000D03*
%TD*%
D32*
%TO.C,R32*%
X130789160Y-87566250D03*
X132439160Y-87566250D03*
%TD*%
D11*
%TO.C,C40*%
X117855000Y-107410000D03*
X117855000Y-108370000D03*
%TD*%
D33*
%TO.C,C19*%
X120275589Y-103260589D03*
X120954411Y-103939411D03*
%TD*%
D16*
%TO.C,C10*%
X115625000Y-96120000D03*
X115625000Y-95160000D03*
%TD*%
D34*
%TO.C,R26*%
X109965624Y-102139376D03*
X109244376Y-102860624D03*
%TD*%
D35*
%TO.C,L6*%
X120732053Y-106327053D03*
X121417947Y-107012947D03*
%TD*%
D27*
%TO.C,R3*%
X130925000Y-95510000D03*
X130925000Y-94490000D03*
%TD*%
D36*
%TO.C,Y2*%
X116195000Y-109860000D03*
X114445000Y-109860000D03*
X114445000Y-111260000D03*
X116195000Y-111260000D03*
%TD*%
D28*
%TO.C,R29*%
X109815000Y-99655000D03*
X108795000Y-99655000D03*
%TD*%
D15*
%TO.C,C32*%
X103365000Y-100540000D03*
X104325000Y-100540000D03*
%TD*%
D32*
%TO.C,R35*%
X90911160Y-87905340D03*
X92561160Y-87905340D03*
%TD*%
D25*
%TO.C,C14*%
X120034411Y-110975009D03*
X119355589Y-111653831D03*
%TD*%
D29*
%TO.C,C23*%
X126784050Y-107364280D03*
X128334050Y-107364280D03*
%TD*%
D37*
%TO.C,L5*%
X120795000Y-110214420D03*
X121480894Y-109528526D03*
%TD*%
D18*
%TO.C,C3*%
X100820000Y-87170000D03*
X99860000Y-87170000D03*
%TD*%
D38*
%TO.C,U1*%
X116095000Y-103260000D03*
X116095000Y-101930000D03*
X116095000Y-100600000D03*
X114765000Y-103260000D03*
X114765000Y-101930000D03*
X114765000Y-100600000D03*
X113435000Y-103260000D03*
X113435000Y-101930000D03*
X113435000Y-100600000D03*
D39*
X118215000Y-104530000D03*
X118215000Y-104130000D03*
X118215000Y-103730000D03*
X118215000Y-103330000D03*
X118215000Y-102930000D03*
X118215000Y-102530000D03*
X118215000Y-102130000D03*
X118215000Y-101730000D03*
X118215000Y-101330000D03*
X118215000Y-100930000D03*
X118215000Y-100530000D03*
X118215000Y-100130000D03*
X118215000Y-99730000D03*
X118215000Y-99330000D03*
D40*
X117365000Y-98480000D03*
X116965000Y-98480000D03*
X116565000Y-98480000D03*
X116165000Y-98480000D03*
X115765000Y-98480000D03*
X115365000Y-98480000D03*
X114965000Y-98480000D03*
X114565000Y-98480000D03*
X114165000Y-98480000D03*
X113765000Y-98480000D03*
X113365000Y-98480000D03*
X112965000Y-98480000D03*
X112565000Y-98480000D03*
X112165000Y-98480000D03*
D39*
X111315000Y-99330000D03*
X111315000Y-99730000D03*
X111315000Y-100130000D03*
X111315000Y-100530000D03*
X111315000Y-100930000D03*
X111315000Y-101330000D03*
X111315000Y-101730000D03*
X111315000Y-102130000D03*
X111315000Y-102530000D03*
X111315000Y-102930000D03*
X111315000Y-103330000D03*
X111315000Y-103730000D03*
X111315000Y-104130000D03*
X111315000Y-104530000D03*
D40*
X112165000Y-105380000D03*
X112565000Y-105380000D03*
X112965000Y-105380000D03*
X113365000Y-105380000D03*
X113765000Y-105380000D03*
X114165000Y-105380000D03*
X114565000Y-105380000D03*
X114965000Y-105380000D03*
X115365000Y-105380000D03*
X115765000Y-105380000D03*
X116165000Y-105380000D03*
X116565000Y-105380000D03*
X116965000Y-105380000D03*
X117365000Y-105380000D03*
%TD*%
D28*
%TO.C,R10*%
X94910000Y-89500000D03*
X93890000Y-89500000D03*
%TD*%
D13*
%TO.C,Q3*%
X130749250Y-85793040D03*
X132649250Y-85793040D03*
X131699250Y-83693040D03*
%TD*%
D18*
%TO.C,C35*%
X100860000Y-89500000D03*
X99900000Y-89500000D03*
%TD*%
D27*
%TO.C,R16*%
X100402500Y-94010000D03*
X100402500Y-92990000D03*
%TD*%
D15*
%TO.C,C25*%
X121540000Y-97530000D03*
X122500000Y-97530000D03*
%TD*%
D41*
%TO.C,R13*%
X99860624Y-108660624D03*
X99139376Y-107939376D03*
%TD*%
D16*
%TO.C,C38*%
X114800000Y-91520000D03*
X114800000Y-90560000D03*
%TD*%
D27*
%TO.C,R22*%
X98052500Y-87880000D03*
X98052500Y-86860000D03*
%TD*%
D42*
%TO.C,C24*%
X97754058Y-82122392D03*
X96658042Y-83218408D03*
%TD*%
D15*
%TO.C,C31*%
X121495000Y-108271473D03*
X122455000Y-108271473D03*
%TD*%
D43*
%TO.C,U5*%
X128181800Y-96700000D03*
X128181800Y-96050000D03*
X128181800Y-95400000D03*
X128181800Y-94750000D03*
X129781800Y-94750000D03*
X129781800Y-95400000D03*
X129781800Y-96050000D03*
X129781800Y-96700000D03*
%TD*%
D14*
%TO.C,R25*%
X123470000Y-91630000D03*
X123470000Y-92650000D03*
%TD*%
D44*
%TO.C,L3*%
X121465000Y-101865000D03*
X121465000Y-102835000D03*
%TD*%
D45*
%TO.C,D5*%
X126811508Y-110771202D03*
X128296432Y-109286278D03*
%TD*%
D46*
%TO.C,C21*%
X95355960Y-106460040D03*
X93805960Y-106460040D03*
%TD*%
D28*
%TO.C,R30*%
X109805000Y-98650000D03*
X108785000Y-98650000D03*
%TD*%
D18*
%TO.C,C18*%
X121505000Y-100850000D03*
X120545000Y-100850000D03*
%TD*%
D13*
%TO.C,Q5*%
X91891140Y-106240620D03*
X89991140Y-106240620D03*
X90941140Y-108340620D03*
%TD*%
D47*
%TO.C,R11*%
X125839376Y-98939376D03*
X126560624Y-99660624D03*
%TD*%
D30*
%TO.C,R4*%
X125440000Y-95950000D03*
X126460000Y-95950000D03*
%TD*%
D18*
%TO.C,C17*%
X100870000Y-90610000D03*
X99910000Y-90610000D03*
%TD*%
D48*
%TO.C,Y1*%
X112090000Y-93250000D03*
X114590000Y-93250000D03*
%TD*%
M02*
