M48
;DRILL file {KiCad 4.0.7-e2-6376~58~ubuntu16.04.1} date Tue Jun 26 19:11:37 2018
;FORMAT={-:-/ absolute / metric / decimal}
FMAT,2
METRIC,TZ
T1C0.400
T2C1.000
%
G90
G05
M71
T1
X110.49Y-110.998
X110.49Y-113.284
X111.252Y-108.966
X112.268Y-85.09
X113.284Y-102.108
X114.808Y-93.218
X115.062Y-110.998
X115.57Y-113.284
X116.84Y-98.298
X116.84Y-113.538
X118.364Y-80.772
X118.618Y-107.696
X118.618Y-111.506
X118.872Y-102.87
X119.126Y-115.316
X119.888Y-111.506
X121.158Y-111.506
X122.428Y-106.426
X122.428Y-111.506
X124.206Y-115.062
X125.984Y-97.282
X128.524Y-111.76
X129.794Y-104.394
X130.556Y-108.712
X133.604Y-100.584
X138.176Y-100.584
X138.938Y-105.918
X140.97Y-103.886
X141.478Y-112.776
X145.542Y-88.138
X146.812Y-88.9
X149.86Y-88.9
X156.972Y-95.758
X157.48Y-128.524
T2
X117.094Y-123.698
X119.094Y-123.698
X122.094Y-123.698
X124.094Y-123.698
X127.094Y-123.698
X129.094Y-123.698
X132.094Y-123.698
X134.094Y-123.698
T0
M30
