M48
;DRILL file {KiCad 5.0.2+dfsg1-1} date di 21 apr 2020 12:18:34 CEST
;FORMAT={-:-/ absolute / inch / decimal}
FMAT,2
INCH,TZ
T1C0.0394
%
G90
G05
T1
X5.19Y-3.62
X5.29Y-3.62
X5.39Y-3.62
X5.49Y-3.62
X5.59Y-3.62
X5.69Y-3.62
X5.79Y-3.62
X5.89Y-3.62
X4.8895Y-4.7979
X4.9895Y-4.7979
X5.0895Y-4.7979
X5.1895Y-4.7979
X5.2895Y-4.7979
X5.3895Y-4.7979
X5.4895Y-4.7979
X5.5895Y-4.7979
X5.6895Y-4.7979
X5.7895Y-4.7979
X5.8895Y-4.7979
X5.9895Y-4.7979
X6.0895Y-4.7979
X6.1895Y-4.7979
X6.2895Y-4.7979
X6.3895Y-4.7979
X4.8895Y-3.7998
X4.9895Y-3.7998
X5.0895Y-3.7998
X5.1895Y-3.7998
X5.2895Y-3.7998
X5.3895Y-3.7998
X5.4895Y-3.7998
X5.5895Y-3.7998
X5.6895Y-3.7998
X5.7895Y-3.7998
X5.8895Y-3.7998
X5.9895Y-3.7998
X6.0895Y-3.7998
X6.1895Y-3.7998
X6.2895Y-3.7998
X6.3895Y-3.7998
X5.19Y-3.42
X5.29Y-3.42
X5.39Y-3.42
X5.49Y-3.42
X5.59Y-3.42
X5.69Y-3.42
X5.79Y-3.42
X5.89Y-3.42
X5.19Y-3.52
X5.29Y-3.52
X5.39Y-3.52
X5.49Y-3.52
X5.59Y-3.52
X5.69Y-3.52
X5.79Y-3.52
X5.89Y-3.52
T0
M30
